<?xml version="1.0" encoding="utf-8"?><!-- Generator: Adobe Illustrator 15.0.0, SVG Export Plug-In . SVG Version: 6.00 Build 0)  --><!DOCTYPE svg PUBLIC "-//W3C//DTD SVG 1.1//EN" "http://www.w3.org/Graphics/SVG/1.1/DTD/svg11.dtd"><svg version="1.1" id="Calque_1" xmlns="http://www.w3.org/2000/svg" xmlns:xlink="http://www.w3.org/1999/xlink" x="0px" y="0px" width="1190.55px" height="841.89px" viewBox="0 0 1190.55 841.89" enable-background="new 0 0 1190.55 841.89" xml:space="preserve"><g><defs><rect id="SVGID_1_" x="370.263" y="404.303" width="583.123" height="358.328"/></defs><clipPath id="SVGID_2_"><use xlink:href="#SVGID_1_" overflow="visible"/></clipPath><g clip-path="url(#SVGID_2_)"><path fill="#FFFFFF" d="m816.11 630.06c0 6.24-5.1 11.34-11.34 11.34h-290.91c-6.24 0-11.34-5.1-11.34-11.34v-310.1c0-6.24 5.1-11.34 11.34-11.34h290.91c6.24 0 11.34 5.1 11.34 11.34v310.1z"/></g></g><rect x="11.569" y="735.724" fill="#006A4E" width="1097.935" height="98.196"/><path fill="#ED1B2F" d="m1190.98 113.76c-.23-.04-172.75 99.09-213.16 114.17c-37.16 14.67-51.7-4.28-55.18-11.62c-7.36-7.17-29.17-72.88-29.04-73c-.13.12 11.67 1.82 32.6-3.5c26.27-6.68 264.54-139.89 264.77-139.81v113.76l0 0z"/><g><path fill="#006A4E" d="m709.63 201.19l74.11 185.54l130.89-68.84l-113.37-251.25h-164.93l-231.67 432.24c.18.08 113.98-3.5 186.92-58.47c18.45-10.84 70.43-147.39 118.05-239.22l0 0l0 0z"/><path fill="#009597" d="m914.63 317.89l-130.89 68.84c-112.01 57.35-218.4 107.66-275.68 123.86c-151.14 43.53-335.23 69.64-401.37 11.09c-62.19-55.22 81.42-286.41 353.08-337.85c44.05-9.82 69.76-7.3 69.76-7.01c0-.28-18.62-79.06-33.12-95.66c-20.26-24.78-40.1-29.88-69.7-26.13c-58.8 3.5-308.95 70.19-407.65 278.59c-55.04 118.41 21.8 243.03 69.59 275.56c14.57 11.68 161.77 139.83 488.48 11.77c323.67-125.57 613.61-323.32 613.84-323.32v-132.3c-.12-.17-127.95 73.08-276.35 152.56z"/><path fill="#006A4E" d="m829.68 507.33c12.1 28.45 46.91 111.21 55.81 135.06c11.61 26.13 40.62 26.13 40.62 26h151.01l-112.46-233.07c-41.21 23.11-86.63 47.5-134.98 72.01z"/></g></svg>