<?xml version="1.0" standalone="no"?><!DOCTYPE svg PUBLIC "-//W3C//DTD SVG 1.1//EN" "http://www.w3.org/Graphics/SVG/1.1/DTD/svg11.dtd"><svg xmlns="http://www.w3.org/2000/svg" version="1.1" width="95px" height="26.6px" viewBox="0 -3 95 26.6" style="top:-3px"><desc>apprenants</desc><defs/><g id="Polygon164514"><path d="m21.4 9.1l-2.9 0l-.7 1.8l-1 0l2.6-6.7l1.1 0l2.7 6.7l-1 0l-.8-1.8zm-2.6-.9l2.3 0l-1.2-3l-1.1 3zm7.6-.9c.8 0 1.3-.4 1.3-1.1c0-.7-.5-1.1-1.3-1.1c-.02-.04-1.4 0-1.4 0l0 2.2c0 0 1.38.05 1.4 0zm-1.4.9l0 2.7l-.9 0l0-6.7c0 0 2.45.02 2.4 0c1.3 0 2.1.9 2.1 2c0 1.1-.8 2-2.1 2c.05-.02-1.5 0-1.5 0zm7-.9c.8 0 1.3-.4 1.3-1.1c0-.7-.5-1.1-1.3-1.1c.02-.04-1.3 0-1.3 0l0 2.2c0 0 1.32.05 1.3 0zm-1.3.9l0 2.7l-1 0l0-6.7c0 0 2.49.02 2.5 0c1.2 0 2.1.9 2.1 2c0 1.1-.9 2-2.1 2c-.01-.02-1.5 0-1.5 0zm6.6 0l-1 0l0 2.7l-.9 0l0-6.7c0 0 2.51.02 2.5 0c1.3 0 2.1.9 2.1 2c0 1-.7 1.7-1.7 1.9c.04.01 1.6 2.8 1.6 2.8l-1 0l-1.6-2.7zm.4-.9c.8 0 1.3-.4 1.3-1.1c0-.7-.5-1.1-1.3-1.1c.04-.04-1.4 0-1.4 0l0 2.2c0 0 1.44.05 1.4 0zm3.5 3.6l0-6.7l4.1 0l0 .9l-3.1 0l0 2l2.8 0l0 .9l-2.8 0l0 2.1l3.1 0l0 .8l-4.1 0zm10.1 0l-3.6-5.4l0 5.4l-1 0l0-6.7l1.3 0l3.3 5.2l0-5.2l.9 0l0 6.7l-.9 0zm6.6-1.8l-3 0l-.7 1.8l-1 0l2.6-6.7l1.1 0l2.7 6.7l-1 0l-.7-1.8zm-2.7-.9l2.3 0l-1.1-3l-1.2 3zm9.9 2.7l-3.6-5.4l0 5.4l-1 0l0-6.7l1.3 0l3.3 5.2l0-5.2l.9 0l0 6.7l-.9 0zm5-5.8l0 5.8l-.9 0l0-5.8l-2.2 0l0-.9l5.4 0l0 .9l-2.3 0zm6.7.9c-.1-.4-.5-1.1-1.4-1.1c-.8 0-1.3.5-1.3 1.1c0 .5.3.9.8 1c0 0 1 .2 1 .2c1.1.2 1.8.9 1.8 1.9c0 1-.9 2-2.4 2c-1.6 0-2.3-1.1-2.5-2c0 0 .9-.3.9-.3c.1.7.6 1.4 1.6 1.4c1 0 1.4-.5 1.4-1c0-.5-.3-.9-1-1.1c0 0-.9-.2-.9-.2c-1-.2-1.7-.8-1.7-1.8c0-1.1 1-2 2.2-2c1.6 0 2.2.9 2.3 1.6c0 0-.8.3-.8.3z" stroke="none" fill="#fff"/></g></svg>