<?xml version="1.0" standalone="no"?><!DOCTYPE svg PUBLIC "-//W3C//DTD SVG 1.1//EN" "http://www.w3.org/Graphics/SVG/1.1/DTD/svg11.dtd"><svg xmlns="http://www.w3.org/2000/svg" version="1.1" width="148.2px" height="64px" viewBox="0 -10 148.2 64" style="top:-10px"><desc>584</desc><defs/><g id="Polygon180746"><path d="m61.9 29.2c0 4.6-3.8 10.8-10.8 10.8c-6.8 0-8.6-3.4-8.6-6.4c0-2.4 1.7-4.3 3.3-4.3c1.8 0 3.5 1 3.3 3.4c-.1 1.4-1.3 1.9-1.3 3.3c0 2 1.2 3 3.2 3c2.8 0 5-2.3 5.4-6.5c.6-5.2-2.5-7.9-5.9-7.9c-2.8 0-4.3 1.1-5.7 2.3c.02.04-.7 0-.7 0l2.9-16.9c0 0 8.77.04 8.8 0c2.4 0 4.7-.7 5.6-2.5c-.01 0 .7 0 .7 0l-2.4 8.6l-12.9 0c0 0-1.24 7.6-1.2 7.6c2.1-2.9 4.8-3.9 7.8-3.9c5.6 0 8.5 4.8 8.5 9.4zm21.8-6.9c0 5.4-4.3 8.8-10.2 8.8c-4.7 0-9.7-2-9.7-7.8c0-3.1 2-5 5.1-6.5c-2.5-1.6-4.6-3.6-4.6-7.2c0-5.8 4.6-9.1 9.6-9.1c5.1 0 8.5 3.3 8.5 6.6c0 3.1-2.6 5.2-4.8 6.3c3.2 1.9 6.1 4.2 6.1 8.9zm-13.7-16.4c0 3.4 3.1 5 6.4 6.8c1.3-1.7 1.8-3.6 1.8-6.4c0-3.1-2.1-4.9-4.3-4.9c-2.5 0-3.9 1.8-3.9 4.5zm8 18.9c0-3.9-4.1-5.4-7.7-7.3c-1.3 1.7-1.8 4.4-1.8 6c0 3.4 1.9 6.7 5 6.7c3.4 0 4.5-2.1 4.5-5.4zm26.4 5.7l-2.9 0l0 9.1l-6.5 0l0-9.1l-11.6 0l18.1-22.1l0 18l4.8 0l-1.9 4.1zm-9.4-4.1l0-8.6l-7 8.6l7 0z" stroke="none" fill="#144542"/></g></svg>