<?xml version="1.0" standalone="no"?><!DOCTYPE svg PUBLIC "-//W3C//DTD SVG 1.1//EN" "http://www.w3.org/Graphics/SVG/1.1/DTD/svg11.dtd"><svg xmlns="http://www.w3.org/2000/svg" version="1.1" width="41px" height="17px" viewBox="0 -3 41 17" style="top:-3px"><desc>30 ans</desc><defs/><g id="Polygon165369"><path d="m.5 5.9l0-.8l2.8 0l0 .8l-2.8 0zm7.2-1.4l2.1-1.9l-3.3 0l0-.9l4.6 0l0 .9c0 0-1.92 1.81-1.9 1.8c1 0 2.1.7 2.1 2.1c0 1.1-.9 2.2-2.5 2.2c-1.6 0-2.5-1.1-2.5-2.2c0 0 1-.2 1-.2c0 .9.7 1.5 1.5 1.5c.9 0 1.4-.6 1.4-1.3c0-.9-.7-1.3-1.3-1.3c-.3 0-.5.1-.6.1c-.05.03-.6-.8-.6-.8zm6.1 2.8c.3.3.6.4 1.1.4c.5 0 .8-.1 1.1-.4c.4-.4.6-1.2.6-2.2c0-1-.2-1.8-.6-2.2c-.3-.3-.6-.5-1.1-.5c-.5 0-.8.2-1.1.5c-.4.4-.6 1.2-.6 2.2c0 1 .2 1.8.6 2.2zm-1-4.7c.5-.6 1.2-1.1 2.1-1.1c1 0 1.7.5 2.1 1.1c.5.7.6 1.6.6 2.5c0 .9-.1 1.8-.6 2.5c-.4.6-1.1 1.1-2.1 1.1c-.9 0-1.6-.5-2.1-1.1c-.4-.7-.6-1.6-.6-2.5c0-.9.2-1.8.6-2.5zm8.5 4.5c0-.9.7-1.4 1.5-1.5c0 0 1.4-.2 1.4-.2c.3 0 .4-.2.4-.4c0-.5-.3-.9-1.1-.9c-.7 0-1.1.5-1.2 1c0 0-.9-.2-.9-.2c.1-.9 1-1.6 2.1-1.6c1.5 0 2.1.8 2.1 1.8c0 0 0 2.6 0 2.6c0 .4 0 .7 0 .8c0 0-.9 0-.9 0c-.1-.1-.1-.3-.1-.7c-.2.4-.7.9-1.6.9c-1 0-1.7-.8-1.7-1.6c0 0 0 0 0 0zm3.3-.8c-.02.03 0-.2 0-.2c0 0-1.56.23-1.6.2c-.4.1-.7.3-.7.8c0 .4.3.7.8.7c.8 0 1.5-.4 1.5-1.5zm3.5 2.2l-1 0l0-5.1l1 0c0 0-.03.77 0 .8c.3-.7.9-.9 1.5-.9c1.2 0 1.8.9 1.8 2c.03-.01 0 3.2 0 3.2l-1 0c0 0 .04-3.04 0-3c0-.7-.3-1.3-1.1-1.3c-.8 0-1.2.6-1.2 1.4c-.01-.03 0 2.9 0 2.9zm5.3-1.6c.1.5.5.9 1.2.9c.6 0 .9-.3.9-.7c0-.3-.3-.5-.7-.6c0 0-.9-.2-.9-.2c-.7-.2-1.2-.7-1.2-1.4c0-.9.8-1.6 1.8-1.6c1.4 0 1.8.9 1.9 1.3c0 0-.9.4-.9.4c0-.3-.2-.9-1-.9c-.5 0-.9.4-.9.7c0 .3.2.5.6.6c0 0 .8.2.8.2c1 .2 1.4.7 1.4 1.5c0 .7-.6 1.6-1.8 1.6c-1.4 0-2-.9-2.1-1.5c0 0 .9-.3.9-.3z" stroke="none" fill="#144542"/></g></svg>