<?xml version="1.0" standalone="no"?><!DOCTYPE svg PUBLIC "-//W3C//DTD SVG 1.1//EN" "http://www.w3.org/Graphics/SVG/1.1/DTD/svg11.dtd"><svg xmlns="http://www.w3.org/2000/svg" version="1.1" width="148.2px" height="64px" viewBox="0 -10 148.2 64" style="top:-10px"><desc>280</desc><defs/><g id="Polygon180795"><path d="m62.3 22.3c0 0-2.39 8.82-2.4 8.8c-1-.4-1.9-.6-5.6-.6c-.05.04-13.9 0-13.9 0c0 0 10.57-9.67 10.6-9.7c1.4-1.3 3-3.6 3-5.9c0-2.4-1.4-4.5-3.9-4.5c-1.8 0-3.5.9-3.5 2.5c0 1.9 1.8 2.3 1.8 4.1c0 1.5-1.2 2.6-2.7 2.6c-2.3 0-3.7-1.4-3.7-3.6c0-2.9 2.8-6.5 8.8-6.5c5.7 0 9 1.9 9 5.8c0 3.3-1.4 6.2-10.7 9.5c0 0 6.7 0 6.7 0c3.5 0 5.1-1.4 5.5-2.5c.05 0 1 0 1 0zm21.5 0c0 5.4-4.3 8.8-10.2 8.8c-4.7 0-9.7-2-9.7-7.8c0-3.1 2-5 5.1-6.5c-2.5-1.6-4.6-3.6-4.6-7.2c0-5.8 4.6-9.1 9.6-9.1c5.1 0 8.5 3.3 8.5 6.6c0 3.1-2.7 5.2-4.8 6.3c3.2 1.9 6.1 4.2 6.1 8.9zm-13.8-16.4c0 3.4 3.2 5 6.4 6.8c1.4-1.7 1.8-3.6 1.8-6.4c0-3.1-2-4.9-4.2-4.9c-2.5 0-4 1.8-4 4.5zm8 18.9c0-3.9-4-5.4-7.6-7.3c-1.3 1.7-1.8 4.4-1.8 6c0 3.4 1.9 6.7 5 6.7c3.4 0 4.4-2.1 4.4-5.4zm7.7-4.5c0-6 4.3-10.8 10.6-10.8c6.8 0 10.6 4.8 10.6 10.8c0 5.9-3.8 10.8-10.6 10.8c-6.3 0-10.6-4.9-10.6-10.8zm14 0c0-5-.2-9.9-3.4-9.9c-3.1 0-3.4 4.9-3.4 9.9c0 4.9.3 9.9 3.4 9.9c3.2 0 3.4-5 3.4-9.9z" stroke="none" fill="#144542"/></g></svg>