<?xml version="1.0" standalone="no"?><!DOCTYPE svg PUBLIC "-//W3C//DTD SVG 1.1//EN" "http://www.w3.org/Graphics/SVG/1.1/DTD/svg11.dtd"><svg xmlns="http://www.w3.org/2000/svg" version="1.1" width="157px" height="48.8px" viewBox="0 -3 157 48.8" style="top:-3px"><desc>Impact social</desc><defs/><g id="Polygon178310"><path d="m1.2 11.7l0-10.2l1.8 0l0 10.2l-1.8 0zm4.1 0l0-7l1.6 0c0 0 .03.87 0 .9c.4-.8 1.3-1.1 2.1-1.1c.9 0 1.8.4 2.1 1.2c.6-.9 1.4-1.2 2.3-1.2c1.3 0 2.5.8 2.5 2.6c.02.05 0 4.6 0 4.6l-1.6 0c0 0 0-4.28 0-4.3c0-.8-.4-1.4-1.4-1.4c-.9 0-1.4.7-1.4 1.5c-.03.04 0 4.2 0 4.2l-1.7 0c0 0 .02-4.28 0-4.3c0-.8-.4-1.4-1.3-1.4c-.9 0-1.5.6-1.5 1.5c-.01.04 0 4.2 0 4.2l-1.7 0zm12.7 2.8l0-9.8l1.6 0c0 0 0 .93 0 .9c.4-.6 1.2-1.1 2.3-1.1c2 0 3.2 1.6 3.2 3.7c0 2.1-1.3 3.7-3.3 3.7c-1 0-1.8-.4-2.2-1c.05.03 0 3.6 0 3.6l-1.6 0zm5.4-6.3c0-1.3-.7-2.2-1.9-2.2c-1.1 0-1.9.9-1.9 2.2c0 1.3.8 2.2 1.9 2.2c1.1 0 1.9-.9 1.9-2.2c0 0 0 0 0 0zm5-.5c0 0 1.8-.3 1.8-.3c.5 0 .6-.3.6-.5c0-.6-.4-1.1-1.4-1.1c-.9 0-1.3.6-1.4 1.3c0 0-1.6-.3-1.6-.3c.2-1.3 1.3-2.3 3-2.3c2.2 0 3 1.2 3 2.6c0 0 0 3.5 0 3.5c0 .6.1 1.1.1 1.1c0 0-1.6 0-1.6 0c0 0 0-.3 0-.9c-.4.6-1.1 1.1-2.2 1.1c-1.5 0-2.4-1-2.4-2.1c0-1.2.9-1.9 2.1-2.1zm2.4 1.1c-.03 0 0-.3 0-.3c0 0-1.87.26-1.9.3c-.5 0-.9.3-.9.9c0 .5.3.9 1 .9c1 0 1.8-.4 1.8-1.8zm4.8-.6c0 1.4.9 2.2 1.9 2.2c1.1 0 1.6-.8 1.8-1.3c0 0 1.5.5 1.5.5c-.3 1.1-1.4 2.3-3.3 2.3c-2 0-3.6-1.6-3.6-3.7c0-2.2 1.6-3.7 3.6-3.7c1.9 0 2.9 1.1 3.2 2.3c0 0-1.5.5-1.5.5c-.1-.6-.6-1.3-1.7-1.3c-1 0-1.9.8-1.9 2.2zm8.8-3.5l1.5 0l0 1.5l-1.5 0c0 0 .01 3.24 0 3.2c0 .7.3.9.9.9c.2 0 .5 0 .6 0c0 0 0 1.4 0 1.4c-.1 0-.4.1-1 .1c-1.3 0-2.2-.8-2.2-2.1c.05.02 0-3.5 0-3.5l-1.3 0l0-1.5c0 0 .4-.03.4 0c.8 0 1.1-.5 1.1-1.1c-.01-.03 0-1.1 0-1.1l1.5 0l0 2.2zm7.6 4.7c.1.6.5 1.2 1.4 1.2c.7 0 1.1-.4 1.1-.8c0-.4-.3-.7-.8-.8c0 0-1.1-.2-1.1-.2c-1.2-.3-1.9-1.1-1.9-2.1c0-1.2 1.2-2.2 2.6-2.2c2 0 2.6 1.2 2.8 1.9c0 0-1.5.4-1.5.4c0-.4-.3-1-1.3-1c-.6 0-1 .3-1 .8c0 .4.3.6.7.7c0 0 1.1.2 1.1.2c1.3.3 2 1.1 2 2.2c0 1.1-.8 2.2-2.6 2.2c-2.1 0-2.9-1.3-3-2.1c0 0 1.5-.4 1.5-.4zm10.8-1.2c0-1.5-.9-2.2-1.9-2.2c-1.1 0-2 .7-2 2.2c0 1.5.9 2.2 2 2.2c1 0 1.9-.7 1.9-2.2zm1.7 0c0 2.2-1.5 3.7-3.6 3.7c-2.1 0-3.7-1.5-3.7-3.7c0-2.2 1.6-3.7 3.7-3.7c2.1 0 3.6 1.5 3.6 3.7zm2.8 0c0 1.4.9 2.2 1.9 2.2c1.2 0 1.7-.8 1.8-1.3c0 0 1.5.5 1.5.5c-.3 1.1-1.4 2.3-3.3 2.3c-2 0-3.6-1.6-3.6-3.7c0-2.2 1.6-3.7 3.6-3.7c1.9 0 2.9 1.1 3.2 2.3c0 0-1.5.5-1.5.5c-.1-.6-.6-1.3-1.7-1.3c-1 0-1.9.8-1.9 2.2zm6.7 3.5l0-7l1.7 0l0 7l-1.7 0zm.8-10.6c.6 0 1.1.5 1.1 1.1c0 .6-.5 1.1-1.1 1.1c-.6 0-1.1-.5-1.1-1.1c0-.6.5-1.1 1.1-1.1zm4.7 6.6c0 0 1.8-.3 1.8-.3c.5 0 .6-.3.6-.5c0-.6-.4-1.1-1.4-1.1c-.9 0-1.3.6-1.4 1.3c0 0-1.6-.3-1.6-.3c.2-1.3 1.3-2.3 3-2.3c2.2 0 3 1.2 3 2.6c0 0 0 3.5 0 3.5c0 .6.1 1.1.1 1.1c0 0-1.6 0-1.6 0c0 0 0-.3 0-.9c-.4.6-1.1 1.1-2.2 1.1c-1.5 0-2.4-1-2.4-2.1c0-1.2.9-1.9 2.1-2.1zm2.4 1.1c-.03 0 0-.3 0-.3c0 0-1.88.26-1.9.3c-.5 0-.9.3-.9.9c0 .5.3.9 1 .9c1 0 1.8-.4 1.8-1.8zm3.6 2.9l0-10.5l1.7 0l0 10.5l-1.7 0z" stroke="none" fill="#144542"/></g></svg>