<?xml version="1.0" standalone="no"?><!DOCTYPE svg PUBLIC "-//W3C//DTD SVG 1.1//EN" "http://www.w3.org/Graphics/SVG/1.1/DTD/svg11.dtd"><svg xmlns="http://www.w3.org/2000/svg" version="1.1" width="179px" height="65.2px" viewBox="0 -10 179 65.2" style="top:-10px"><desc>86%</desc><defs/><g id="Polygon172738"><path d="m76.6 22.9c0 5.5-4.4 8.9-10.5 8.9c-4.7 0-9.9-2-9.9-7.9c0-3.2 2.1-5.1 5.3-6.7c-2.6-1.6-4.8-3.6-4.8-7.3c0-6 4.8-9.4 9.9-9.4c5.2 0 8.7 3.4 8.7 6.7c0 3.2-2.7 5.4-5 6.5c3.3 1.9 6.3 4.3 6.3 9.2zm-14.1-16.9c0 3.5 3.2 5.2 6.6 7c1.4-1.7 1.8-3.7 1.8-6.5c0-3.2-2.1-5.1-4.3-5.1c-2.6 0-4.1 1.8-4.1 4.6zm8.2 19.4c0-4-4.1-5.5-7.8-7.5c-1.4 1.8-1.9 4.5-1.9 6.2c0 3.5 2 6.8 5.1 6.8c3.5 0 4.6-2.1 4.6-5.5zm29.2-4.1c0 6-3.5 10.5-10.5 10.5c-7.8 0-10.8-6.9-10.8-13c0-9.6 7.1-17.5 18.6-18.3c0 0 .1.7.1.7c-6.2 1.2-11 7.8-11.8 12.7c1.5-1.7 3.3-2.5 6.1-2.5c4.8 0 8.3 5 8.3 9.9zm-7.3 1.3c0-4.2-1.2-9.6-3.9-9.6c-2.7 0-2.9 4.4-2.9 8.3c0 4.9 1.1 9.5 4.3 9.5c2.7 0 2.5-6.1 2.5-8.2zm11.8-18.5c0-2.8 1.8-4.7 4.4-4.7c2.6 0 4.4 1.9 4.4 4.7c0 2.8-1.8 4.8-4.4 4.8c-2.6 0-4.4-2-4.4-4.8zm6.6 8.3l4.8-7.7l3.1-5l1 0l-3.5 5.2l-4.9 7.7l-2.8 4.7l-1.1 0l3.4-4.9zm-.9-8.3c0-2.6-.1-4.2-1.3-4.2c-1.2 0-1.4 1.6-1.4 4.2c0 2.6.2 4.3 1.4 4.3c1.2 0 1.3-1.7 1.3-4.3zm4.4 8.7c0-2.8 1.9-4.8 4.4-4.8c2.6 0 4.4 2 4.4 4.8c0 2.8-1.8 4.8-4.4 4.8c-2.5 0-4.4-2-4.4-4.8zm5.8 0c0-2.6-.1-4.2-1.4-4.2c-1.2 0-1.3 1.6-1.3 4.2c0 2.6.1 4.3 1.3 4.3c1.3 0 1.4-1.7 1.4-4.3z" stroke="none" fill="#144542"/></g></svg>