<?xml version="1.0" standalone="no"?><!DOCTYPE svg PUBLIC "-//W3C//DTD SVG 1.1//EN" "http://www.w3.org/Graphics/SVG/1.1/DTD/svg11.dtd"><svg xmlns="http://www.w3.org/2000/svg" version="1.1" width="308px" height="35.8px" viewBox="0 -3 308 35.8" style="top:-3px"><desc>Profil des personnes accompagn es en 2025</desc><defs/><g id="Polygon164565"><path d="m4.8 6.3c1.2 0 2-.7 2-1.8c0-1.1-.8-1.8-2-1.8c-.01.02-2.1 0-2.1 0l0 3.6c0 0 2.09-.05 2.1 0zm-2.1 1.2l0 4.2l-1.4 0l0-10.2c0 0 3.75-.05 3.7 0c1.9 0 3.2 1.3 3.2 3c0 1.7-1.3 3-3.2 3c.05.02-2.3 0-2.3 0zm10.8-1.4c-.2 0-.4 0-.6 0c-1.2 0-1.9.6-1.9 2.1c-.04.04 0 3.5 0 3.5l-1.4 0l0-6.9l1.3 0c0 0 .03 1.17 0 1.2c.5-1.1 1.4-1.4 2.1-1.4c.2 0 .4.1.5.1c0 0 0 1.4 0 1.4zm6.5 2.1c0-1.6-1-2.4-2.2-2.4c-1.1 0-2.1.8-2.1 2.4c0 1.7 1 2.5 2.1 2.5c1.2 0 2.2-.8 2.2-2.5zm1.4 0c0 2.2-1.5 3.7-3.6 3.7c-2.1 0-3.5-1.5-3.5-3.7c0-2.1 1.4-3.7 3.5-3.7c2.1 0 3.6 1.6 3.6 3.7zm5.3-6.9c0 0 0 1.3 0 1.3c-.1-.1-.3-.1-.6-.1c-.5 0-1.1.2-1.1 1.1c-.03.04 0 1.2 0 1.2l4.6 0l0 6.9l-1.4 0l0-5.7l-3.2 0l0 5.7l-1.4 0l0-5.7l-1.3 0l0-1.2l1.3 0c0 0-.04-1.22 0-1.2c0-1.6 1-2.4 2.3-2.4c.4 0 .7.1.8.1zm1.2.8c0-.6.5-1 1-1c.5 0 1 .4 1 1c0 .5-.5 1-1 1c-.5 0-1-.5-1-1c0 0 0 0 0 0zm4 9.6l0-10.5l1.4 0l0 10.5l-1.4 0zm10.2-1c1.2 0 2-1.1 2-2.5c0-1.4-.8-2.4-2-2.4c-1.3 0-2.1 1-2.1 2.4c0 1.5.8 2.5 2.1 2.5zm2 0c-.3.6-1.1 1.2-2.2 1.2c-2 0-3.3-1.6-3.3-3.7c0-2 1.4-3.6 3.3-3.6c1.3 0 1.9.6 2.2 1.1c-.03.04 0-4.5 0-4.5l1.3 0c0 0 .01 9.24 0 9.2c0 .7.1 1.2.1 1.3c0 0-1.3 0-1.3 0c-.1-.1-.1-.5-.1-.9c0 0 0-.1 0-.1zm8.3-3.2c0-1-.6-1.8-1.9-1.8c-1.1 0-1.8.9-1.9 1.8c0 0 3.8 0 3.8 0zm1.4 2.2c-.4 1.3-1.5 2.2-3.1 2.2c-1.9 0-3.5-1.3-3.5-3.7c0-2.2 1.5-3.7 3.3-3.7c2.1 0 3.4 1.5 3.4 3.7c0 .2-.1.3-.1.4c0 0-5.2 0-5.2 0c0 1.3.9 2.1 2.1 2.1c1.1 0 1.7-.6 1.9-1.4c0 0 1.2.4 1.2.4zm2.4-.2c.1.7.6 1.3 1.6 1.3c.8 0 1.2-.4 1.2-.9c0-.5-.3-.8-.9-.9c0 0-1.2-.3-1.2-.3c-1.1-.2-1.7-1-1.7-2c0-1.1 1.1-2.2 2.4-2.2c2 0 2.5 1.3 2.7 1.9c0 0-1.2.5-1.2.5c-.1-.4-.4-1.2-1.5-1.2c-.7 0-1.1.4-1.1.9c0 .4.2.8.8.9c0 0 1.1.2 1.1.2c1.3.3 1.9 1.1 1.9 2.1c0 1-.8 2.1-2.5 2.1c-1.9 0-2.7-1.2-2.9-2c0 0 1.3-.4 1.3-.4zm9.6 5l0-9.7l1.3 0c0 0-.01 1.04 0 1c.4-.7 1.2-1.2 2.3-1.2c2.1 0 3.2 1.6 3.2 3.6c0 2.1-1.2 3.7-3.2 3.7c-1.1 0-1.9-.5-2.3-1.1c.02-.01 0 3.7 0 3.7l-1.3 0zm5.4-6.3c0-1.4-.7-2.4-2-2.4c-1.3 0-2.1 1-2.1 2.4c0 1.5.8 2.5 2.1 2.5c1.2 0 2-1 2-2.5c0 0 0 0 0 0zm7.9-.7c-.1-1-.7-1.8-1.9-1.8c-1.2 0-1.9.9-1.9 1.8c0 0 3.8 0 3.8 0zm1.3 2.2c-.3 1.3-1.5 2.2-3.1 2.2c-1.9 0-3.5-1.3-3.5-3.7c0-2.2 1.6-3.7 3.3-3.7c2.2 0 3.4 1.5 3.4 3.7c0 .2 0 .3 0 .4c0 0-5.3 0-5.3 0c0 1.3.9 2.1 2.1 2.1c1.1 0 1.7-.6 2-1.4c0 0 1.1.4 1.1.4zm5.7-3.6c-.2 0-.4 0-.6 0c-1.1 0-1.9.6-1.9 2.1c-.01.04 0 3.5 0 3.5l-1.4 0l0-6.9l1.4 0c0 0-.04 1.17 0 1.2c.5-1.1 1.3-1.4 2-1.4c.2 0 .4.1.5.1c0 0 0 1.4 0 1.4zm2 3.4c.1.7.7 1.3 1.7 1.3c.7 0 1.1-.4 1.1-.9c0-.5-.3-.8-.9-.9c0 0-1.1-.3-1.1-.3c-1.1-.2-1.8-1-1.8-2c0-1.1 1.1-2.2 2.5-2.2c1.9 0 2.5 1.3 2.6 1.9c0 0-1.2.5-1.2.5c0-.4-.3-1.2-1.4-1.2c-.7 0-1.2.4-1.2.9c0 .4.3.8.8.9c0 0 1.2.2 1.2.2c1.2.3 1.9 1.1 1.9 2.1c0 1-.8 2.1-2.6 2.1c-1.9 0-2.7-1.2-2.8-2c0 0 1.2-.4 1.2-.4zm11.1-1.3c0-1.6-1-2.4-2.2-2.4c-1.1 0-2.2.8-2.2 2.4c0 1.7 1.1 2.5 2.2 2.5c1.2 0 2.2-.8 2.2-2.5zm1.4 0c0 2.2-1.5 3.7-3.6 3.7c-2.1 0-3.5-1.5-3.5-3.7c0-2.1 1.4-3.7 3.5-3.7c2.1 0 3.6 1.6 3.6 3.7zm3.1 3.5l-1.4 0l0-6.9l1.4 0c0 0-.04.96 0 1c.5-.9 1.3-1.2 2.1-1.2c1.7 0 2.5 1.2 2.5 2.7c0 .01 0 4.4 0 4.4l-1.4 0c0 0 .04-4.16 0-4.2c0-.9-.4-1.7-1.6-1.7c-1.1 0-1.6.8-1.6 1.9c-.01 0 0 4 0 4zm8.1 0l-1.3 0l0-6.9l1.3 0c0 0 .01.96 0 1c.5-.9 1.3-1.2 2.2-1.2c1.6 0 2.4 1.2 2.4 2.7c.05.01 0 4.4 0 4.4l-1.3 0c0 0-.01-4.16 0-4.2c0-.9-.4-1.7-1.6-1.7c-1.1 0-1.7.8-1.7 1.9c.04 0 0 4 0 4zm11.5-4.2c0-1-.7-1.8-1.9-1.8c-1.1 0-1.8.9-1.9 1.8c0 0 3.8 0 3.8 0zm1.4 2.2c-.4 1.3-1.5 2.2-3.1 2.2c-1.9 0-3.5-1.3-3.5-3.7c0-2.2 1.5-3.7 3.3-3.7c2.1 0 3.3 1.5 3.3 3.7c0 .2 0 .3 0 .4c0 0-5.2 0-5.2 0c0 1.3.9 2.1 2.1 2.1c1.1 0 1.7-.6 1.9-1.4c0 0 1.2.4 1.2.4zm2.4-.2c0 .7.6 1.3 1.6 1.3c.8 0 1.2-.4 1.2-.9c0-.5-.3-.8-.9-.9c0 0-1.2-.3-1.2-.3c-1.1-.2-1.8-1-1.8-2c0-1.1 1.2-2.2 2.5-2.2c1.9 0 2.5 1.3 2.7 1.9c0 0-1.2.5-1.2.5c-.1-.4-.4-1.2-1.5-1.2c-.7 0-1.1.4-1.1.9c0 .4.2.8.8.9c0 0 1.1.2 1.1.2c1.3.3 1.9 1.1 1.9 2.1c0 1-.8 2.1-2.5 2.1c-1.9 0-2.8-1.2-2.9-2c0 0 1.3-.4 1.3-.4zm9.1.4c0-1.3.9-2 2.1-2.2c0 0 1.9-.2 1.9-.2c.4-.1.6-.3.6-.6c0-.6-.5-1.2-1.5-1.2c-1 0-1.5.6-1.6 1.4c0 0-1.3-.3-1.3-.3c.1-1.3 1.3-2.3 2.8-2.3c2.1 0 2.9 1.2 2.9 2.6c0 0 0 3.5 0 3.5c0 .6.1 1 .1 1.1c0 0-1.3 0-1.3 0c0-.1-.1-.4-.1-.9c-.3.5-1 1.1-2.2 1.1c-1.5 0-2.4-.9-2.4-2c0 0 0 0 0 0zm4.6-1.2c-.03.04 0-.3 0-.3c0 0-2.17.34-2.2.3c-.5.1-1 .5-1 1.1c0 .5.5 1 1.1 1c1.2 0 2.1-.5 2.1-2.1zm4.3-.5c0 1.6 1 2.5 2.1 2.5c1.3 0 1.8-.9 1.9-1.4c0 0 1.2.5 1.2.5c-.3 1-1.3 2.1-3.1 2.1c-2 0-3.5-1.5-3.5-3.7c0-2.1 1.5-3.7 3.5-3.7c1.8 0 2.8 1.2 3.1 2.3c0 0-1.3.5-1.3.5c-.1-.7-.6-1.5-1.8-1.5c-1.1 0-2.1.8-2.1 2.4zm7.6 0c0 1.6 1 2.5 2.1 2.5c1.3 0 1.8-.9 1.9-1.4c0 0 1.2.5 1.2.5c-.3 1-1.3 2.1-3.1 2.1c-2 0-3.5-1.5-3.5-3.7c0-2.1 1.5-3.7 3.5-3.7c1.8 0 2.8 1.2 3.1 2.3c0 0-1.2.5-1.2.5c-.2-.7-.7-1.5-1.9-1.5c-1.1 0-2.1.8-2.1 2.4zm11.9 0c0-1.6-1-2.4-2.1-2.4c-1.2 0-2.2.8-2.2 2.4c0 1.7 1 2.5 2.2 2.5c1.1 0 2.1-.8 2.1-2.5zm1.4 0c0 2.2-1.5 3.7-3.5 3.7c-2.1 0-3.6-1.5-3.6-3.7c0-2.1 1.5-3.7 3.6-3.7c2 0 3.5 1.6 3.5 3.7zm1.8 3.5l0-6.9l1.3 0c0 0-.03.88 0 .9c.4-.8 1.3-1.1 2.1-1.1c.9 0 1.7.4 2.1 1.3c.5-1 1.4-1.3 2.3-1.3c1.2 0 2.4.8 2.4 2.6c.01.01 0 4.5 0 4.5l-1.3 0c0 0-.03-4.35 0-4.3c0-1-.5-1.6-1.5-1.6c-1 0-1.6.7-1.6 1.7c-.02.01 0 4.2 0 4.2l-1.4 0c0 0 .02-4.35 0-4.3c0-.9-.4-1.6-1.5-1.6c-.9 0-1.6.7-1.6 1.7c.01.02 0 4.2 0 4.2l-1.3 0zm12.4 2.8l0-9.7l1.3 0c0 0 .01 1.04 0 1c.4-.7 1.2-1.2 2.3-1.2c2.1 0 3.2 1.6 3.2 3.6c0 2.1-1.2 3.7-3.2 3.7c-1.1 0-1.9-.5-2.3-1.1c.04-.01 0 3.7 0 3.7l-1.3 0zm5.5-6.3c0-1.4-.8-2.4-2.1-2.4c-1.3 0-2.1 1-2.1 2.4c0 1.5.8 2.5 2.1 2.5c1.3 0 2.1-1 2.1-2.5c0 0 0 0 0 0zm2.7 1.7c0-1.3.9-2 2.1-2.2c0 0 1.9-.2 1.9-.2c.4-.1.5-.3.5-.6c0-.6-.5-1.2-1.5-1.2c-1 0-1.5.6-1.6 1.4c0 0-1.3-.3-1.3-.3c.1-1.3 1.3-2.3 2.9-2.3c2 0 2.9 1.2 2.9 2.6c0 0 0 3.5 0 3.5c0 .6 0 1 0 1.1c0 0-1.3 0-1.3 0c0-.1-.1-.4-.1-.9c-.3.5-1 1.1-2.2 1.1c-1.4 0-2.3-.9-2.3-2c0 0 0 0 0 0zm4.5-1.2c-.01.04 0-.3 0-.3c0 0-2.14.34-2.1.3c-.6.1-1.1.5-1.1 1.1c0 .5.5 1 1.2 1c1.1 0 2-.5 2-2.1zm4.3 3.1c.1 1 .8 1.7 1.9 1.7c1.4 0 2.1-.7 2.1-2.2c0 0 0-1 0-1c-.3.6-1.1 1.1-2.1 1.1c-1.9 0-3.2-1.4-3.2-3.4c0-1.9 1.3-3.4 3.2-3.4c1.1 0 1.8.4 2.1 1.1c.03.03 0-.9 0-.9l1.4 0c0 0-.02 6.41 0 6.4c0 1.8-.9 3.5-3.5 3.5c-1.8 0-3.1-1.1-3.2-2.6c0 0 1.3-.3 1.3-.3zm4.1-3.8c0-1.3-.8-2.2-2-2.2c-1.2 0-2 .9-2 2.2c0 1.4.8 2.3 2 2.3c1.2 0 2-.9 2-2.3zm4.8 3.7l-1.3 0l0-6.9l1.3 0c0 0-.01.96 0 1c.5-.9 1.3-1.2 2.1-1.2c1.7 0 2.5 1.2 2.5 2.7c.03.01 0 4.4 0 4.4l-1.3 0c0 0-.04-4.16 0-4.2c0-.9-.4-1.7-1.7-1.7c-1 0-1.6.8-1.6 1.9c.01 0 0 4 0 4zm11.5-4.2c0-1-.7-1.8-1.9-1.8c-1.2 0-1.9.9-1.9 1.8c0 0 3.8 0 3.8 0zm1.4 2.2c-.4 1.3-1.5 2.2-3.2 2.2c-1.8 0-3.5-1.3-3.5-3.7c0-2.2 1.6-3.7 3.4-3.7c2.1 0 3.3 1.5 3.3 3.7c0 .2 0 .3 0 .4c0 0-5.3 0-5.3 0c.1 1.3 1 2.1 2.1 2.1c1.2 0 1.7-.6 2-1.4c0 0 1.2.4 1.2.4zm-2.8-5.8l-1.1 0l1.2-2.2l1.7 0l-1.8 2.2zm9.3 3.6c-.1-1-.7-1.8-2-1.8c-1.1 0-1.8.9-1.9 1.8c0 0 3.9 0 3.9 0zm1.3 2.2c-.4 1.3-1.5 2.2-3.1 2.2c-1.9 0-3.5-1.3-3.5-3.7c0-2.2 1.6-3.7 3.3-3.7c2.2 0 3.4 1.5 3.4 3.7c0 .2 0 .3-.1.4c0 0-5.2 0-5.2 0c0 1.3.9 2.1 2.1 2.1c1.1 0 1.7-.6 2-1.4c0 0 1.1.4 1.1.4zm2.4-.2c.1.7.6 1.3 1.6 1.3c.8 0 1.2-.4 1.2-.9c0-.5-.3-.8-.9-.9c0 0-1.2-.3-1.2-.3c-1.1-.2-1.7-1-1.7-2c0-1.1 1.1-2.2 2.5-2.2c1.9 0 2.5 1.3 2.6 1.9c0 0-1.2.5-1.2.5c0-.4-.3-1.2-1.4-1.2c-.7 0-1.2.4-1.2.9c0 .4.3.8.8.9c0 0 1.1.2 1.1.2c1.3.3 2 1.1 2 2.1c0 1-.9 2.1-2.6 2.1c-1.9 0-2.7-1.2-2.8-2c0 0 1.2-.4 1.2-.4zm14.3-2c0-1-.7-1.8-1.9-1.8c-1.2 0-1.9.9-1.9 1.8c0 0 3.8 0 3.8 0zm1.4 2.2c-.4 1.3-1.5 2.2-3.2 2.2c-1.8 0-3.5-1.3-3.5-3.7c0-2.2 1.6-3.7 3.4-3.7c2.1 0 3.3 1.5 3.3 3.7c0 .2 0 .3 0 .4c0 0-5.3 0-5.3 0c.1 1.3 1 2.1 2.1 2.1c1.2 0 1.7-.6 2-1.4c0 0 1.2.4 1.2.4zm3.1 2l-1.3 0l0-6.9l1.3 0c0 0-.01.96 0 1c.5-.9 1.3-1.2 2.1-1.2c1.7 0 2.5 1.2 2.5 2.7c.03.01 0 4.4 0 4.4l-1.3 0c0 0-.03-4.16 0-4.2c0-.9-.4-1.7-1.7-1.7c-1 0-1.6.8-1.6 1.9c.02 0 0 4 0 4zm9.9-6.2c0-.1 0-.2 0-.3c0-1.6 1.2-3.1 3.2-3.1c2 0 3.2 1.3 3.2 2.9c0 1.2-.7 2.2-1.8 2.9c0 0-1.8 1.2-1.8 1.2c-.6.3-1 .7-1.2 1.3c.03.01 4.9 0 4.9 0l0 1.3c0 0-6.62.03-6.6 0c0-1.5.6-2.7 2.2-3.7c0 0 1.6-1 1.6-1c.9-.6 1.3-1.3 1.3-2c0-.8-.6-1.6-1.8-1.6c-1.2 0-1.8.8-1.8 1.9c0 .1 0 .3 0 .4c0 0-1.4-.2-1.4-.2zm10 4.6c.4.4.8.6 1.5.6c.7 0 1.1-.2 1.5-.6c.6-.6.8-1.6.8-3.1c0-1.4-.2-2.4-.8-3c-.4-.4-.8-.6-1.5-.6c-.7 0-1.1.2-1.5.6c-.6.6-.8 1.6-.8 3c0 1.5.2 2.5.8 3.1zm-1.4-6.5c.6-.9 1.6-1.5 2.9-1.5c1.3 0 2.3.6 2.9 1.5c.6 1 .8 2.1.8 3.4c0 1.3-.2 2.5-.8 3.4c-.6 1-1.6 1.5-2.9 1.5c-1.3 0-2.3-.5-2.9-1.5c-.6-.9-.8-2.1-.8-3.4c0-1.3.2-2.4.8-3.4zm8 1.9c0-.1 0-.2 0-.3c0-1.6 1.1-3.1 3.2-3.1c2 0 3.2 1.3 3.2 2.9c0 1.2-.7 2.2-1.8 2.9c0 0-1.8 1.2-1.8 1.2c-.6.3-1.1.7-1.2 1.3c.01.01 4.8 0 4.8 0l0 1.3c0 0-6.55.03-6.5 0c0-1.5.6-2.7 2.2-3.7c0 0 1.6-1 1.6-1c.8-.6 1.2-1.3 1.2-2c0-.8-.5-1.6-1.7-1.6c-1.3 0-1.8.8-1.8 1.9c0 .1 0 .3 0 .4c0 0-1.4-.2-1.4-.2zm8.9 3.3c.1 1.1.9 1.9 2.1 1.9c1.1 0 2-.7 2-1.9c0-1.3-.9-1.9-2-1.9c-.7 0-1.3.2-1.7.7c-.5-.2-.9-.4-1.4-.6c-.01 0 1.2-4.7 1.2-4.7l5 0l0 1.3l-4.1 0c0 0-.65 2.74-.6 2.7c.4-.4 1.1-.7 1.9-.7c1.8 0 3.2 1.2 3.2 3.2c0 1.7-1.4 3.2-3.5 3.2c-2 0-3.3-1.3-3.5-2.8c0 0 1.4-.4 1.4-.4z" stroke="none" fill="#9b78ef"/></g></svg>