<?xml version="1.0" standalone="no"?><!DOCTYPE svg PUBLIC "-//W3C//DTD SVG 1.1//EN" "http://www.w3.org/Graphics/SVG/1.1/DTD/svg11.dtd"><svg xmlns="http://www.w3.org/2000/svg" version="1.1" width="126px" height="47.8px" viewBox="0 -3 126 47.8" style="top:-3px"><desc>Genre</desc><defs/><g id="Polygon165167"><path d="m8.9 11.7c0 0-.08-1.27-.1-1.3c-.4.8-1.5 1.5-3.1 1.5c-2.7 0-5.1-1.9-5.1-5.3c0-3.4 2.5-5.4 5.2-5.4c2.5 0 4.1 1.5 4.6 3.2c0 0-1.6.6-1.6.6c-.4-1.2-1.4-2.2-3-2.2c-1.7 0-3.4 1.2-3.4 3.8c0 2.5 1.6 3.8 3.4 3.8c2 0 2.8-1.5 2.9-2.4c.01.05-3.4 0-3.4 0l0-1.5l5.1 0l0 5.2l-1.5 0zm8.1-4.3c-.1-.8-.6-1.5-1.8-1.5c-1 0-1.7.8-1.7 1.5c0 0 3.5 0 3.5 0zm1.6 2.3c-.4 1.2-1.5 2.2-3.2 2.2c-1.9 0-3.6-1.3-3.6-3.7c0-2.3 1.6-3.7 3.4-3.7c2.2 0 3.4 1.4 3.4 3.6c0 .3 0 .5 0 .6c0 0-5.2 0-5.2 0c.1 1 .9 1.8 2 1.8c1 0 1.5-.5 1.7-1.2c0 0 1.5.4 1.5.4zm3.3 2l-1.6 0l0-7l1.6 0c0 0-.01.91 0 .9c.5-.8 1.3-1.1 2.1-1.1c1.7 0 2.5 1.2 2.5 2.8c.03-.04 0 4.4 0 4.4l-1.6 0c0 0-.05-4.15 0-4.1c0-.9-.4-1.6-1.5-1.6c-1 0-1.5.7-1.5 1.7c.04-.05 0 4 0 4zm10.8-5.4c-.2 0-.4 0-.5 0c-1.3 0-1.9.7-1.9 2.1c-.04-.03 0 3.3 0 3.3l-1.7 0l0-7l1.6 0c0 0 .02 1.1 0 1.1c.4-.8 1.1-1.2 2.1-1.2c.2 0 .3 0 .4 0c0 0 0 1.7 0 1.7zm6 1.1c0-.8-.6-1.5-1.8-1.5c-1 0-1.6.8-1.7 1.5c0 0 3.5 0 3.5 0zm1.6 2.3c-.4 1.2-1.5 2.2-3.2 2.2c-1.9 0-3.6-1.3-3.6-3.7c0-2.3 1.6-3.7 3.4-3.7c2.2 0 3.5 1.4 3.5 3.6c0 .3 0 .5-.1.6c0 0-5.1 0-5.1 0c0 1 .9 1.8 1.9 1.8c1 0 1.5-.5 1.8-1.2c0 0 1.4.4 1.4.4z" stroke="none" fill="#9b78ef"/></g></svg>