<?xml version="1.0" standalone="no"?><!DOCTYPE svg PUBLIC "-//W3C//DTD SVG 1.1//EN" "http://www.w3.org/Graphics/SVG/1.1/DTD/svg11.dtd"><svg xmlns="http://www.w3.org/2000/svg" version="1.1" width="115.4px" height="30.8px" viewBox="0 -3 115.4 30.8" style="top:-3px"><desc>Inclusion</desc><defs/><g id="Polygon183634"><path d="m1.2 11.7l0-10.2l1.8 0l0 10.2l-1.8 0zm5.8 0l-1.7 0l0-7l1.7 0c0 0-.04.91 0 .9c.4-.8 1.3-1.1 2-1.1c1.8 0 2.6 1.2 2.6 2.8c0-.04 0 4.4 0 4.4l-1.7 0c0 0 .02-4.15 0-4.1c0-.9-.4-1.6-1.4-1.6c-1 0-1.5.7-1.5 1.7c0-.05 0 4 0 4zm7.8-3.5c0 1.4.9 2.2 1.9 2.2c1.1 0 1.7-.8 1.8-1.3c0 0 1.5.5 1.5.5c-.3 1.1-1.4 2.3-3.3 2.3c-2 0-3.6-1.6-3.6-3.7c0-2.2 1.6-3.7 3.6-3.7c1.9 0 2.9 1.1 3.2 2.3c0 0-1.5.5-1.5.5c-.1-.6-.6-1.3-1.7-1.3c-1 0-1.9.8-1.9 2.2zm6.7 3.5l0-10.5l1.7 0l0 10.5l-1.7 0zm8.4-.8c-.3.7-1.2 1-2 1c-1.7 0-2.7-1.2-2.7-2.8c.03.02 0-4.4 0-4.4l1.7 0c0 0 .01 4.12 0 4.1c0 .9.4 1.6 1.4 1.6c1 0 1.5-.6 1.5-1.6c.01.05 0-4.1 0-4.1l1.7 0c0 0-.01 5.74 0 5.7c0 .6 0 1.1.1 1.3c0 0-1.6 0-1.6 0c-.1-.1-.1-.5-.1-.8c0 0 0 0 0 0zm4.6-1.5c.1.6.5 1.2 1.4 1.2c.7 0 1.1-.4 1.1-.8c0-.4-.3-.7-.8-.8c0 0-1.1-.2-1.1-.2c-1.2-.3-1.9-1.1-1.9-2.1c0-1.2 1.2-2.2 2.6-2.2c2 0 2.6 1.2 2.8 1.9c0 0-1.5.4-1.5.4c0-.4-.3-1-1.3-1c-.6 0-1 .3-1 .8c0 .4.3.6.7.7c0 0 1.1.2 1.1.2c1.3.3 2 1.1 2 2.2c0 1.1-.8 2.2-2.6 2.2c-2.1 0-2.9-1.3-3-2.1c0 0 1.5-.4 1.5-.4zm5.8 2.3l0-7l1.7 0l0 7l-1.7 0zm.8-10.6c.6 0 1.1.5 1.1 1.1c0 .6-.5 1.1-1.1 1.1c-.6 0-1.1-.5-1.1-1.1c0-.6.5-1.1 1.1-1.1zm8.1 7.1c0-1.5-.9-2.2-2-2.2c-1 0-1.9.7-1.9 2.2c0 1.5.9 2.2 1.9 2.2c1.1 0 2-.7 2-2.2zm1.7 0c0 2.2-1.5 3.7-3.7 3.7c-2.1 0-3.6-1.5-3.6-3.7c0-2.2 1.5-3.7 3.6-3.7c2.2 0 3.7 1.5 3.7 3.7zm3.3 3.5l-1.7 0l0-7l1.7 0c0 0-.03.91 0 .9c.4-.8 1.3-1.1 2.1-1.1c1.7 0 2.5 1.2 2.5 2.8c.01-.04 0 4.4 0 4.4l-1.7 0c0 0 .03-4.15 0-4.1c0-.9-.4-1.6-1.4-1.6c-1 0-1.5.7-1.5 1.7c.01-.05 0 4 0 4z" stroke="none" fill="#144542"/></g></svg>