<?xml version="1.0" standalone="no"?><!DOCTYPE svg PUBLIC "-//W3C//DTD SVG 1.1//EN" "http://www.w3.org/Graphics/SVG/1.1/DTD/svg11.dtd"><svg xmlns="http://www.w3.org/2000/svg" version="1.1" width="309px" height="29px" viewBox="0 -3 309 29" style="top:-3px"><desc>1# Cr er un cadre de rencontre entre des candidats qualifi s et des entreprises recruteuses</desc><defs/><g id="Polygon185071"><path d="m.5 17.4c0-2.5 1.9-3.9 3.7-3.9c1.7 0 2.9.9 3.3 2.4c0 0-1 .3-1 .3c-.2-1.1-1.1-1.8-2.3-1.8c-1.3 0-2.6 1-2.6 3c0 1.9 1.3 2.9 2.6 2.9c1.3 0 2.1-.8 2.4-1.8c0 0 .9.4.9.4c-.4 1.4-1.6 2.4-3.3 2.4c-1.9 0-3.7-1.4-3.7-3.9zm12.6 1.6l-3.3 0l-.8 2.1l-1.1 0l3-7.4l1.2 0l2.9 7.4l-1.1 0l-.8-2.1zm-2.9-.9l2.5 0l-1.2-3.4l-1.3 3.4zm11 3l-4-6.1l0 6.1l-1 0l0-7.4l1.4 0l3.7 5.7l0-5.7l1 0l0 7.4l-1.1 0zm5.7-.9c1.3 0 2.5-.9 2.5-2.8c0-1.9-1.1-2.8-2.5-2.8c-.02-.04-1.6 0-1.6 0l0 5.6c0 0 1.56-.02 1.6 0zm-2.6.9l0-7.4c0 0 2.61-.05 2.6 0c1.9 0 3.5 1.2 3.5 3.7c0 2.4-1.6 3.7-3.5 3.7c-.01-.01-2.6 0-2.6 0zm7.7 0l0-7.4l1 0l0 7.4l-1 0zm5.6-.9c1.3 0 2.5-.9 2.5-2.8c0-1.9-1.1-2.8-2.5-2.8c-.01-.04-1.6 0-1.6 0l0 5.6c0 0 1.57-.02 1.6 0zm-2.6.9l0-7.4c0 0 2.62-.05 2.6 0c1.9 0 3.6 1.2 3.6 3.7c0 2.4-1.7 3.7-3.6 3.7c0-.01-2.6 0-2.6 0zm11.8-2.1l-3.3 0l-.8 2.1l-1.1 0l2.9-7.4l1.2 0l3 7.4l-1.1 0l-.8-2.1zm-3-.9l2.6 0l-1.3-3.4l-1.3 3.4zm8-3.5l0 6.5l-1 0l0-6.5l-2.5 0l0-.9l6 0l0 .9l-2.5 0zm7.5 1.1c-.1-.6-.5-1.3-1.6-1.3c-.8 0-1.4.5-1.4 1.2c0 .6.3 1 .9 1.1c0 0 1.2.3 1.2.3c1.2.2 1.9 1 1.9 2c0 1.2-1 2.3-2.6 2.3c-1.8 0-2.6-1.2-2.8-2.3c0 0 1-.3 1-.3c.1.9.7 1.6 1.8 1.6c1 0 1.5-.5 1.5-1.2c0-.5-.3-1-1.1-1.1c0 0-1-.3-1-.3c-1.1-.2-1.8-.9-1.8-2c0-1.2 1-2.2 2.4-2.2c1.7 0 2.4 1 2.5 1.8c0 0-.9.4-.9.4zm8.4-2.2c1.9 0 3.7 1.4 3.7 3.9c0 1.1-.4 2.1-1 2.7c-.01.02.9 1 .9 1l-.7.6c0 0-.94-.98-.9-1c-.6.4-1.3.6-2 .6c-1.9 0-3.7-1.4-3.7-3.9c0-2.5 1.8-3.9 3.7-3.9zm0 6.8c.5 0 .9-.1 1.3-.3c.01-.02-1.3-1.5-1.3-1.5l.7-.6c0 0 1.33 1.48 1.3 1.5c.4-.5.7-1.2.7-2c0-2-1.3-3-2.7-3c-1.4 0-2.7 1-2.7 3c0 1.9 1.3 2.9 2.7 2.9zm5.2-1.7c-.04-.05 0-4.9 0-4.9l1 0c0 0-.02 4.82 0 4.8c0 1.2.6 1.8 1.6 1.8c1.1 0 1.7-.6 1.7-1.8c-.02.02 0-4.8 0-4.8l1 0c0 0 .01 4.85 0 4.9c0 1.7-1.2 2.7-2.7 2.7c-1.5 0-2.6-1-2.6-2.7zm11.2.4l-3.3 0l-.7 2.1l-1.2 0l3-7.4l1.2 0l3 7.4l-1.2 0l-.8-2.1zm-2.9-.9l2.6 0l-1.3-3.4l-1.3 3.4zm6 3l0-7.4l1 0l0 6.4l3.6 0l0 1l-4.6 0zm5.9 0l0-7.4l1 0l0 7.4l-1 0zm3 0l0-7.4l4.5 0l0 .9l-3.5 0l0 2.4l3.2 0l0 1l-3.2 0l0 3.1l-1 0zm5.9 0l0-7.4l1.1 0l0 7.4l-1.1 0zm3.1 0l0-7.4l4.5 0l0 .9l-3.5 0l0 2.3l3.1 0l0 1l-3.1 0l0 2.2l3.5 0l0 1l-4.5 0zm2.4-8l-.9 0l1-1.2l1.4 0l-1.5 1.2zm7.6 2.6c-.1-.6-.6-1.3-1.6-1.3c-.8 0-1.4.5-1.4 1.2c0 .6.3 1 .9 1.1c0 0 1.1.3 1.1.3c1.3.2 2 1 2 2c0 1.2-1 2.3-2.6 2.3c-1.8 0-2.7-1.2-2.8-2.3c0 0 1-.3 1-.3c.1.9.7 1.6 1.8 1.6c1 0 1.5-.5 1.5-1.2c0-.5-.4-1-1.1-1.1c0 0-1.1-.3-1.1-.3c-1-.2-1.8-.9-1.8-2c0-1.2 1.1-2.2 2.5-2.2c1.7 0 2.3 1 2.5 1.8c0 0-.9.4-.9.4zm5.1 5.4l0-7.4l4.5 0l0 .9l-3.5 0l0 2.3l3.2 0l0 1l-3.2 0l0 2.2l3.5 0l0 1l-4.5 0zm8.9-6.5l0 6.5l-1 0l0-6.5l-2.5 0l0-.9l6 0l0 .9l-2.5 0zm8.8 5.6c1.4 0 2.5-.9 2.5-2.8c0-1.9-1.1-2.8-2.5-2.8c.04-.04-1.5 0-1.5 0l0 5.6c0 0 1.51-.02 1.5 0zm-2.5.9l0-7.4c0 0 2.57-.05 2.6 0c1.9 0 3.5 1.2 3.5 3.7c0 2.4-1.7 3.7-3.6 3.7c.05-.01-2.5 0-2.5 0zm7.6 0l0-7.4l4.6 0l0 .9l-3.5 0l0 2.3l3.1 0l0 1l-3.1 0l0 2.2l3.5 0l0 1l-4.6 0zm10.1-5.4c-.1-.6-.6-1.3-1.6-1.3c-.9 0-1.5.5-1.5 1.2c0 .6.4 1 1 1.1c0 0 1.1.3 1.1.3c1.2.2 1.9 1 1.9 2c0 1.2-.9 2.3-2.5 2.3c-1.8 0-2.7-1.2-2.8-2.3c0 0 1-.3 1-.3c0 .9.6 1.6 1.8 1.6c1 0 1.5-.5 1.5-1.2c0-.5-.4-1-1.1-1.1c0 0-1.1-.3-1.1-.3c-1-.2-1.8-.9-1.8-2c0-1.2 1.1-2.2 2.5-2.2c1.6 0 2.3 1 2.5 1.8c0 0-.9.4-.9.4zm5.1 5.4l0-7.4l4.5 0l0 .9l-3.5 0l0 2.3l3.2 0l0 1l-3.2 0l0 2.2l3.5 0l0 1l-4.5 0zm11.2 0l-4-6.1l0 6.1l-1 0l0-7.4l1.4 0l3.7 5.7l0-5.7l1 0l0 7.4l-1.1 0zm5.8-6.5l0 6.5l-1 0l0-6.5l-2.5 0l0-.9l6 0l0 .9l-2.5 0zm5.8 3.4l-1.1 0l0 3.1l-1.1 0l0-7.4c0 0 2.84-.05 2.8 0c1.4 0 2.3.9 2.3 2.2c0 1-.7 1.9-1.8 2.1c.01-.02 1.8 3.1 1.8 3.1l-1.2 0l-1.7-3.1zm.4-.9c.9 0 1.5-.5 1.5-1.2c0-.8-.6-1.3-1.5-1.3c.05-.03-1.5 0-1.5 0l0 2.5c0 0 1.55.03 1.5 0zm4 4l0-7.4l4.6 0l0 .9l-3.5 0l0 2.3l3.1 0l0 1l-3.1 0l0 2.2l3.5 0l0 1l-4.6 0zm8.8-4c.9 0 1.4-.5 1.4-1.2c0-.8-.5-1.3-1.4-1.3c-.04-.03-1.5 0-1.5 0l0 2.5c0 0 1.46.03 1.5 0zm-1.5.9l0 3.1l-1.1 0l0-7.4c0 0 2.75-.05 2.8 0c1.3 0 2.2.9 2.2 2.2c0 1.2-.9 2.1-2.2 2.1c-.05.05-1.7 0-1.7 0zm7.5 0l-1.1 0l0 3.1l-1.1 0l0-7.4c0 0 2.82-.05 2.8 0c1.4 0 2.3.9 2.3 2.2c0 1-.7 1.9-1.8 2.1c-.01-.02 1.8 3.1 1.8 3.1l-1.2 0l-1.7-3.1zm.4-.9c.9 0 1.4-.5 1.4-1.2c0-.8-.5-1.3-1.4-1.3c.03-.03-1.5 0-1.5 0l0 2.5c0 0 1.53.03 1.5 0zm4 4l0-7.4l1.1 0l0 7.4l-1.1 0zm6.9-5.4c-.1-.6-.5-1.3-1.6-1.3c-.8 0-1.4.5-1.4 1.2c0 .6.3 1 .9 1.1c0 0 1.1.3 1.1.3c1.3.2 2 1 2 2c0 1.2-1 2.3-2.6 2.3c-1.8 0-2.6-1.2-2.8-2.3c0 0 1-.3 1-.3c.1.9.7 1.6 1.8 1.6c1 0 1.5-.5 1.5-1.2c0-.5-.3-1-1.1-1.1c0 0-1.1-.3-1.1-.3c-1-.2-1.8-.9-1.8-2c0-1.2 1.1-2.2 2.5-2.2c1.7 0 2.3 1 2.5 1.8c0 0-.9.4-.9.4zm2.5 5.4l0-7.4l4.5 0l0 .9l-3.5 0l0 2.3l3.2 0l0 1l-3.2 0l0 2.2l3.5 0l0 1l-4.5 0zm10-5.4c-.1-.6-.5-1.3-1.6-1.3c-.8 0-1.4.5-1.4 1.2c0 .6.3 1 1 1.1c0 0 1.1.3 1.1.3c1.2.2 1.9 1 1.9 2c0 1.2-1 2.3-2.6 2.3c-1.8 0-2.6-1.2-2.7-2.3c0 0 .9-.3.9-.3c.1.9.7 1.6 1.8 1.6c1.1 0 1.6-.5 1.6-1.2c0-.5-.4-1-1.2-1.1c0 0-1-.3-1-.3c-1.1-.2-1.8-.9-1.8-2c0-1.2 1.1-2.2 2.4-2.2c1.7 0 2.4 1 2.5 1.8c0 0-.9.4-.9.4zm7.3 2.3l-1.1 0l0 3.1l-1 0l0-7.4c0 0 2.76-.05 2.8 0c1.4 0 2.2.9 2.2 2.2c0 1-.6 1.9-1.8 2.1c.03-.02 1.8 3.1 1.8 3.1l-1.2 0l-1.7-3.1zm.5-.9c.8 0 1.4-.5 1.4-1.2c0-.8-.6-1.3-1.4-1.3c-.03-.03-1.6 0-1.6 0l0 2.5c0 0 1.57.03 1.6 0zm4 4l0-7.4l4.5 0l0 .9l-3.5 0l0 2.3l3.2 0l0 1l-3.2 0l0 2.2l3.5 0l0 1l-4.5 0zm5.6-3.7c0-2.5 1.9-3.9 3.7-3.9c1.7 0 2.9.9 3.3 2.4c0 0-.9.3-.9.3c-.3-1.1-1.1-1.8-2.4-1.8c-1.3 0-2.6 1-2.6 3c0 1.9 1.3 2.9 2.6 2.9c1.3 0 2.1-.8 2.4-1.8c0 0 .9.4.9.4c-.4 1.4-1.6 2.4-3.3 2.4c-1.9 0-3.7-1.4-3.7-3.9zm10.6.6l-1.1 0l0 3.1l-1 0l0-7.4c0 0 2.8-.05 2.8 0c1.4 0 2.3.9 2.3 2.2c0 1-.7 1.9-1.8 2.1c-.03-.02 1.7 3.1 1.7 3.1l-1.2 0l-1.7-3.1zm.5-.9c.8 0 1.4-.5 1.4-1.2c0-.8-.6-1.3-1.4-1.3c.01-.03-1.6 0-1.6 0l0 2.5c0 0 1.61.03 1.6 0zm3.9 1.5c-.01-.05 0-4.9 0-4.9l1 0c0 0 .01 4.82 0 4.8c0 1.2.6 1.8 1.7 1.8c1 0 1.6-.6 1.6-1.8c.02.02 0-4.8 0-4.8l1 0c0 0 .05 4.85 0 4.9c0 1.7-1.1 2.7-2.6 2.7c-1.5 0-2.7-1-2.7-2.7zm9.9-4l0 6.5l-1 0l0-6.5l-2.5 0l0-.9l6 0l0 .9l-2.5 0zm3.7 6.5l0-7.4l4.5 0l0 .9l-3.5 0l0 2.3l3.2 0l0 1l-3.2 0l0 2.2l3.5 0l0 1l-4.5 0zm6.1-2.5c-.04-.05 0-4.9 0-4.9l1 0c0 0-.02 4.82 0 4.8c0 1.2.6 1.8 1.6 1.8c1.1 0 1.7-.6 1.7-1.8c-.01.02 0-4.8 0-4.8l1 0c0 0 .01 4.85 0 4.9c0 1.7-1.1 2.7-2.7 2.7c-1.5 0-2.6-1-2.6-2.7zm11-2.9c-.1-.6-.5-1.3-1.5-1.3c-.9 0-1.5.5-1.5 1.2c0 .6.3 1 1 1.1c0 0 1.1.3 1.1.3c1.2.2 1.9 1 1.9 2c0 1.2-1 2.3-2.6 2.3c-1.8 0-2.6-1.2-2.7-2.3c0 0 .9-.3.9-.3c.1.9.7 1.6 1.8 1.6c1.1 0 1.6-.5 1.6-1.2c0-.5-.4-1-1.1-1.1c0 0-1.1-.3-1.1-.3c-1.1-.2-1.8-.9-1.8-2c0-1.2 1.1-2.2 2.4-2.2c1.7 0 2.4 1 2.6 1.8c0 0-1 .4-1 .4zm2.5 5.4l0-7.4l4.6 0l0 .9l-3.5 0l0 2.3l3.1 0l0 1l-3.1 0l0 2.2l3.5 0l0 1l-4.6 0zm10.1-5.4c-.1-.6-.6-1.3-1.6-1.3c-.9 0-1.5.5-1.5 1.2c0 .6.4 1 1 1.1c0 0 1.1.3 1.1.3c1.3.2 1.9 1 1.9 2c0 1.2-.9 2.3-2.5 2.3c-1.8 0-2.7-1.2-2.8-2.3c0 0 1-.3 1-.3c.1.9.6 1.6 1.8 1.6c1 0 1.5-.5 1.5-1.2c0-.5-.4-1-1.1-1.1c0 0-1.1-.3-1.1-.3c-1-.2-1.8-.9-1.8-2c0-1.2 1.1-2.2 2.5-2.2c1.6 0 2.3 1 2.5 1.8c0 0-.9.4-.9.4z" stroke="none" fill="#9b78ef"/></g><g id="Polygon185070"><path d="m14.7 4.8c0-2.5 1.8-3.9 3.7-3.9c1.7 0 2.9.9 3.3 2.4c0 0-1 .3-1 .3c-.3-1.1-1.1-1.8-2.3-1.8c-1.4 0-2.7 1-2.7 3c0 1.9 1.3 2.9 2.7 2.9c1.3 0 2.1-.8 2.4-1.8c0 0 .9.4.9.4c-.4 1.4-1.6 2.4-3.3 2.4c-1.9 0-3.7-1.4-3.7-3.9zm10.6.6l-1.1 0l0 3.1l-1.1 0l0-7.4c0 0 2.85-.05 2.8 0c1.5 0 2.3.9 2.3 2.2c0 1-.7 1.9-1.8 2.1c.02-.02 1.8 3.1 1.8 3.1l-1.2 0l-1.7-3.1zm.5-.9c.8 0 1.4-.5 1.4-1.2c0-.8-.6-1.3-1.4-1.3c-.04-.03-1.6 0-1.6 0l0 2.5c0 0 1.56.03 1.6 0zm3.9 4l0-7.4l4.6 0l0 .9l-3.5 0l0 2.3l3.1 0l0 1l-3.1 0l0 2.2l3.5 0l0 1l-4.6 0zm2.5-8l-.9 0l1-1.2l1.4 0l-1.5 1.2zm3.8 8l0-7.4l4.5 0l0 .9l-3.5 0l0 2.3l3.2 0l0 1l-3.2 0l0 2.2l3.5 0l0 1l-4.5 0zm8.3-3.1l-1.1 0l0 3.1l-1 0l0-7.4c0 0 2.76-.05 2.8 0c1.4 0 2.2.9 2.2 2.2c0 1-.6 1.9-1.8 2.1c.03-.02 1.8 3.1 1.8 3.1l-1.2 0l-1.7-3.1zm.5-.9c.8 0 1.4-.5 1.4-1.2c0-.8-.6-1.3-1.4-1.3c-.03-.03-1.6 0-1.6 0l0 2.5c0 0 1.57.03 1.6 0zm6.5 1.5c-.02-.05 0-4.9 0-4.9l1 0c0 0 0 4.82 0 4.8c0 1.2.6 1.8 1.7 1.8c1 0 1.6-.6 1.6-1.8c.01.02 0-4.8 0-4.8l1 0c0 0 .04 4.85 0 4.9c0 1.7-1.1 2.7-2.6 2.7c-1.6 0-2.7-1-2.7-2.7zm12.3 2.5l-4-6.1l0 6.1l-1.1 0l0-7.4l1.4 0l3.7 5.7l0-5.7l1 0l0 7.4l-1 0zm5.2-3.7c0-2.5 1.8-3.9 3.7-3.9c1.7 0 2.9.9 3.3 2.4c0 0-1 .3-1 .3c-.3-1.1-1.1-1.8-2.3-1.8c-1.4 0-2.7 1-2.7 3c0 1.9 1.3 2.9 2.7 2.9c1.3 0 2.1-.8 2.4-1.8c0 0 .9.4.9.4c-.4 1.4-1.6 2.4-3.3 2.4c-1.9 0-3.7-1.4-3.7-3.9zm12.6 1.6l-3.3 0l-.8 2.1l-1.1 0l3-7.4l1.1 0l3 7.4l-1.1 0l-.8-2.1zm-2.9-.9l2.5 0l-1.3-3.4l-1.2 3.4zm8.5 2.1c1.4 0 2.5-.9 2.5-2.8c0-1.9-1.1-2.8-2.5-2.8c.03-.04-1.5 0-1.5 0l0 5.6c0 0 1.51-.02 1.5 0zm-2.5.9l0-7.4c0 0 2.56-.05 2.6 0c1.9 0 3.5 1.2 3.5 3.7c0 2.4-1.7 3.7-3.6 3.7c.04-.01-2.5 0-2.5 0zm9.8-3.1l-1.1 0l0 3.1l-1.1 0l0-7.4c0 0 2.83-.05 2.8 0c1.4 0 2.3.9 2.3 2.2c0 1-.7 1.9-1.8 2.1c0-.02 1.8 3.1 1.8 3.1l-1.2 0l-1.7-3.1zm.4-.9c.9 0 1.4-.5 1.4-1.2c0-.8-.5-1.3-1.4-1.3c.04-.03-1.5 0-1.5 0l0 2.5c0 0 1.54.03 1.5 0zm4 4l0-7.4l4.6 0l0 .9l-3.5 0l0 2.3l3.1 0l0 1l-3.1 0l0 2.2l3.5 0l0 1l-4.6 0zm11.4-.9c1.4 0 2.5-.9 2.5-2.8c0-1.9-1.1-2.8-2.5-2.8c.03-.04-1.5 0-1.5 0l0 5.6c0 0 1.51-.02 1.5 0zm-2.5.9l0-7.4c0 0 2.56-.05 2.6 0c1.9 0 3.5 1.2 3.5 3.7c0 2.4-1.7 3.7-3.6 3.7c.04-.01-2.5 0-2.5 0zm7.6 0l0-7.4l4.5 0l0 .9l-3.4 0l0 2.3l3.1 0l0 1l-3.1 0l0 2.2l3.4 0l0 1l-4.5 0zm11-3.1l-1.1 0l0 3.1l-1 0l0-7.4c0 0 2.76-.05 2.8 0c1.4 0 2.2.9 2.2 2.2c0 1-.6 1.9-1.8 2.1c.03-.02 1.8 3.1 1.8 3.1l-1.2 0l-1.7-3.1zm.5-.9c.8 0 1.4-.5 1.4-1.2c0-.8-.6-1.3-1.4-1.3c-.03-.03-1.6 0-1.6 0l0 2.5c0 0 1.57.03 1.6 0zm4 4l0-7.4l4.5 0l0 .9l-3.5 0l0 2.3l3.2 0l0 1l-3.2 0l0 2.2l3.5 0l0 1l-4.5 0zm11.2 0l-4-6.1l0 6.1l-1 0l0-7.4l1.3 0l3.8 5.7l0-5.7l1 0l0 7.4l-1.1 0zm2.6-3.7c0-2.5 1.9-3.9 3.7-3.9c1.7 0 2.9.9 3.3 2.4c0 0-1 .3-1 .3c-.3-1.1-1.1-1.8-2.3-1.8c-1.4 0-2.6 1-2.6 3c0 1.9 1.2 2.9 2.6 2.9c1.3 0 2.1-.8 2.4-1.8c0 0 .9.4.9.4c-.4 1.4-1.6 2.4-3.3 2.4c-1.9 0-3.7-1.4-3.7-3.9zm11.6 2.9c1.4 0 2.7-1 2.7-2.9c0-2-1.3-3-2.7-3c-1.4 0-2.7 1-2.7 3c0 1.9 1.3 2.9 2.7 2.9zm0-6.8c1.9 0 3.8 1.4 3.8 3.9c0 2.5-1.9 3.9-3.8 3.9c-1.8 0-3.7-1.4-3.7-3.9c0-2.5 1.9-3.9 3.7-3.9zm10.3 7.6l-4-6.1l0 6.1l-1 0l0-7.4l1.4 0l3.7 5.7l0-5.7l1 0l0 7.4l-1.1 0zm5.8-6.5l0 6.5l-1.1 0l0-6.5l-2.4 0l0-.9l6 0l0 .9l-2.5 0zm5.8 3.4l-1.1 0l0 3.1l-1.1 0l0-7.4c0 0 2.82-.05 2.8 0c1.4 0 2.3.9 2.3 2.2c0 1-.7 1.9-1.8 2.1c0-.02 1.8 3.1 1.8 3.1l-1.2 0l-1.7-3.1zm.4-.9c.9 0 1.4-.5 1.4-1.2c0-.8-.5-1.3-1.4-1.3c.03-.03-1.5 0-1.5 0l0 2.5c0 0 1.53.03 1.5 0zm4 4l0-7.4l4.5 0l0 .9l-3.4 0l0 2.3l3.1 0l0 1l-3.1 0l0 2.2l3.4 0l0 1l-4.5 0zm8.9 0l0-7.4l4.5 0l0 .9l-3.5 0l0 2.3l3.2 0l0 1l-3.2 0l0 2.2l3.5 0l0 1l-4.5 0zm11.2 0l-4-6.1l0 6.1l-1 0l0-7.4l1.3 0l3.8 5.7l0-5.7l1 0l0 7.4l-1.1 0zm5.8-6.5l0 6.5l-1.1 0l0-6.5l-2.5 0l0-.9l6 0l0 .9l-2.4 0zm5.7 3.4l-1.1 0l0 3.1l-1 0l0-7.4c0 0 2.8-.05 2.8 0c1.4 0 2.3.9 2.3 2.2c0 1-.7 1.9-1.8 2.1c-.03-.02 1.7 3.1 1.7 3.1l-1.1 0l-1.8-3.1zm.5-.9c.9 0 1.4-.5 1.4-1.2c0-.8-.5-1.3-1.4-1.3c.01-.03-1.6 0-1.6 0l0 2.5c0 0 1.61.03 1.6 0zm4 4l0-7.4l4.5 0l0 .9l-3.5 0l0 2.3l3.2 0l0 1l-3.2 0l0 2.2l3.5 0l0 1l-4.5 0zm11.4-.9c1.4 0 2.5-.9 2.5-2.8c0-1.9-1.1-2.8-2.5-2.8c0-.04-1.5 0-1.5 0l0 5.6c0 0 1.48-.02 1.5 0zm-2.6.9l0-7.4c0 0 2.63-.05 2.6 0c1.9 0 3.6 1.2 3.6 3.7c0 2.4-1.7 3.7-3.6 3.7c.01-.01-2.6 0-2.6 0zm7.7 0l0-7.4l4.5 0l0 .9l-3.5 0l0 2.3l3.2 0l0 1l-3.2 0l0 2.2l3.5 0l0 1l-4.5 0zm10-5.4c-.1-.6-.5-1.3-1.6-1.3c-.8 0-1.4.5-1.4 1.2c0 .6.3 1 1 1.1c0 0 1.1.3 1.1.3c1.2.2 1.9 1 1.9 2c0 1.2-1 2.3-2.6 2.3c-1.8 0-2.6-1.2-2.7-2.3c0 0 .9-.3.9-.3c.1.9.7 1.6 1.8 1.6c1.1 0 1.6-.5 1.6-1.2c0-.5-.4-1-1.2-1.1c0 0-1-.3-1-.3c-1.1-.2-1.8-.9-1.8-2c0-1.2 1.1-2.2 2.4-2.2c1.7 0 2.4 1 2.5 1.8c0 0-.9.4-.9.4z" stroke="none" fill="#9b78ef"/></g><g id="Polygon185069"><path d="m1.9 8.5l0-4.7l-1.6 0c0 0-.01-.83 0-.8c1 0 1.6-.6 1.8-1.3c-.01-.01 1.1 0 1.1 0l0 6.8l-1.3 0zm2.9-5.1l1.5 0l.3-1.7l1 0l-.3 1.7l1.4 0l.4-1.7l1 0l-.4 1.7l1.4 0l0 .9l-1.6 0l-.3 1.6l1.4 0l0 .9l-1.6 0l-.4 1.7l-1 0l.4-1.7l-1.5 0l-.3 1.7l-1 0l.3-1.7l-1.3 0l0-.9l1.5 0l.4-1.6l-1.3 0l0-.9zm1.9 2.5l1.5 0l.3-1.6l-1.4 0l-.4 1.6z" stroke="none" fill="#144542"/></g></svg>