<?xml version="1.0" standalone="no"?><!DOCTYPE svg PUBLIC "-//W3C//DTD SVG 1.1//EN" "http://www.w3.org/Graphics/SVG/1.1/DTD/svg11.dtd"><svg xmlns="http://www.w3.org/2000/svg" version="1.1" width="157.3px" height="70.8px" viewBox="0 -10 157.3 70.8" style="top:-10px"><desc>420</desc><defs/><g id="Polygon174180"><path d="m65.7 29.8l-2.8 0l0 8.8l-6.4 0l0-8.8l-11.3 0l17.7-21.6l0 17.6l4.7 0l-1.9 4zm-9.2-4l0-8.4l-6.8 8.4l6.8 0zm32.2-4c0 0-2.35 8.56-2.3 8.6c-1-.4-1.9-.6-5.6-.6c.03 0-13.5 0-13.5 0c0 0 10.33-9.48 10.3-9.5c1.5-1.3 3-3.5 3-5.7c0-2.4-1.4-4.4-3.8-4.4c-1.8 0-3.4.8-3.4 2.4c0 1.8 1.8 2.2 1.8 4c0 1.4-1.2 2.6-2.7 2.6c-2.2 0-3.6-1.4-3.6-3.6c0-2.8 2.7-6.3 8.6-6.3c5.5 0 8.7 1.8 8.7 5.6c0 3.2-1.3 6.1-10.4 9.3c0 0 6.6 0 6.6 0c3.3 0 4.9-1.4 5.4-2.4c-.05-.04.9 0 .9 0zm1.3-2c0-5.8 4.2-10.5 10.3-10.5c6.6 0 10.3 4.7 10.3 10.5c0 5.8-3.7 10.5-10.3 10.5c-6.1 0-10.3-4.7-10.3-10.5zm13.7 0c0-4.8-.3-9.6-3.4-9.6c-3 0-3.3 4.8-3.3 9.6c0 4.8.3 9.6 3.3 9.6c3.1 0 3.4-4.8 3.4-9.6z" stroke="none" fill="#144542"/></g></svg>