<?xml version="1.0" standalone="no"?><!DOCTYPE svg PUBLIC "-//W3C//DTD SVG 1.1//EN" "http://www.w3.org/Graphics/SVG/1.1/DTD/svg11.dtd"><svg xmlns="http://www.w3.org/2000/svg" version="1.1" width="115.3px" height="14.7px" viewBox="0 -2 115.3 14.7" style="top:-2px"><desc>23</desc><defs/><g id="Polygon178408"><path d="m105.9 3.4c0 0 0-.1 0-.2c0-1 .7-1.9 2-1.9c1.3 0 2 .8 2 1.8c0 .8-.4 1.4-1.1 1.8c0 0-1.2.7-1.2.7c-.3.3-.6.5-.7.9c.04-.04 3 0 3 0l0 .8c0 0-4.05-.02-4.1 0c.1-1 .4-1.7 1.4-2.3c0 0 1-.7 1-.7c.6-.3.8-.7.8-1.2c0-.5-.4-1-1.1-1c-.8 0-1.1.5-1.1 1.2c0 .1 0 .2 0 .2c0 0-.9-.1-.9-.1zm6 .4l1.7-1.5l-2.8 0l0-.9l4 0l0 .8c0 0-1.69 1.58-1.7 1.6c.9 0 1.8.6 1.8 1.8c0 .9-.7 1.8-2.1 1.8c-1.4 0-2.1-.9-2.2-1.8c0 0 .9-.2.9-.2c0 .8.6 1.3 1.3 1.3c.8 0 1.2-.5 1.2-1.1c0-.8-.6-1.1-1.2-1.1c-.1 0-.3 0-.5.1c.02-.03-.4-.8-.4-.8z" stroke="none" fill="#144542"/></g></svg>