<?xml version="1.0" standalone="no"?><!DOCTYPE svg PUBLIC "-//W3C//DTD SVG 1.1//EN" "http://www.w3.org/Graphics/SVG/1.1/DTD/svg11.dtd"><svg xmlns="http://www.w3.org/2000/svg" version="1.1" width="133px" height="43.8px" viewBox="0 -3 133 43.8" style="top:-3px"><desc>Comit de mission</desc><defs/><g id="Polygon184660"><path d="m.6 6.6c0-3.4 2.5-5.4 5.2-5.4c2.6 0 4.1 1.6 4.6 3.4c0 0-1.6.5-1.6.5c-.3-1.2-1.3-2.2-3-2.2c-1.7 0-3.4 1.2-3.4 3.7c0 2.4 1.6 3.7 3.4 3.7c1.7 0 2.7-1.1 3.1-2.3c0 0 1.6.5 1.6.5c-.5 1.8-2.1 3.4-4.7 3.4c-2.8 0-5.2-2-5.2-5.3zm16.3 1.6c0-1.5-.9-2.2-2-2.2c-1 0-2 .7-2 2.2c0 1.5 1 2.2 2 2.2c1.1 0 2-.7 2-2.2zm1.7 0c0 2.2-1.6 3.7-3.7 3.7c-2.1 0-3.6-1.5-3.6-3.7c0-2.2 1.5-3.7 3.6-3.7c2.1 0 3.7 1.5 3.7 3.7zm1.6 3.5l0-7l1.6 0c0 0 .02.87 0 .9c.4-.8 1.3-1.1 2.1-1.1c.9 0 1.8.4 2.1 1.2c.6-.9 1.4-1.2 2.3-1.2c1.3 0 2.5.8 2.5 2.6c.01.05 0 4.6 0 4.6l-1.6 0c0 0-.01-4.28 0-4.3c0-.8-.4-1.4-1.4-1.4c-.9 0-1.4.7-1.4 1.5c-.04.04 0 4.2 0 4.2l-1.7 0c0 0 .01-4.28 0-4.3c0-.8-.4-1.4-1.4-1.4c-.9 0-1.4.6-1.4 1.5c-.02.04 0 4.2 0 4.2l-1.7 0zm12.7 0l0-7l1.6 0l0 7l-1.6 0zm.8-10.6c.6 0 1.1.5 1.1 1.1c0 .6-.5 1.1-1.1 1.1c-.6 0-1.1-.5-1.1-1.1c0-.6.5-1.1 1.1-1.1zm5.1 3.6l1.5 0l0 1.5l-1.5 0c0 0 .04 3.24 0 3.2c0 .7.3.9.9.9c.3 0 .6 0 .6 0c0 0 0 1.4 0 1.4c-.1 0-.4.1-1 .1c-1.3 0-2.1-.8-2.1-2.1c-.02.02 0-3.5 0-3.5l-1.3 0l0-1.5c0 0 .34-.03.3 0c.8 0 1.1-.5 1.1-1.1c.02-.03 0-1.1 0-1.1l1.5 0l0 2.2zm6.7-.9l-1.4 0l1.3-2.2l2 0l-1.9 2.2zm1.1 3.6c0-.8-.6-1.5-1.7-1.5c-1.1 0-1.7.8-1.8 1.5c0 0 3.5 0 3.5 0zm1.6 2.3c-.4 1.2-1.5 2.2-3.2 2.2c-1.9 0-3.6-1.3-3.6-3.7c0-2.3 1.7-3.7 3.4-3.7c2.2 0 3.5 1.4 3.5 3.6c0 .3 0 .5 0 .6c0 0-5.2 0-5.2 0c0 1 .9 1.8 1.9 1.8c1 0 1.6-.5 1.8-1.2c0 0 1.4.4 1.4.4zm8.3.7c1.1 0 1.9-.9 1.9-2.2c0-1.4-.7-2.2-1.9-2.2c-1.1 0-1.9.8-1.9 2.2c0 1.3.8 2.2 1.9 2.2zm3.5 0c0 .7.1 1.2.1 1.3c0 0-1.6 0-1.6 0c0-.1-.1-.6-.1-.9c-.3.6-1.1 1.1-2.1 1.1c-2 0-3.3-1.6-3.3-3.7c0-2.1 1.3-3.7 3.3-3.7c1.3 0 1.9.5 2.1 1c-.01 0 0-4.3 0-4.3l1.6 0c0 0 .03 9.24 0 9.2zm6.9-3c-.1-.8-.6-1.5-1.8-1.5c-1 0-1.6.8-1.7 1.5c0 0 3.5 0 3.5 0zm1.6 2.3c-.4 1.2-1.5 2.2-3.2 2.2c-1.9 0-3.6-1.3-3.6-3.7c0-2.3 1.6-3.7 3.4-3.7c2.2 0 3.5 1.4 3.5 3.6c0 .3-.1.5-.1.6c0 0-5.1 0-5.1 0c0 1 .8 1.8 1.9 1.8c1 0 1.5-.5 1.8-1.2c0 0 1.4.4 1.4.4zm5.3 2l0-7l1.6 0c0 0-.02.87 0 .9c.4-.8 1.3-1.1 2.1-1.1c.9 0 1.7.4 2.1 1.2c.5-.9 1.4-1.2 2.3-1.2c1.3 0 2.5.8 2.5 2.6c-.03.05 0 4.6 0 4.6l-1.6 0c0 0-.05-4.28 0-4.3c0-.8-.5-1.4-1.4-1.4c-.9 0-1.5.7-1.5 1.5c.02.04 0 4.2 0 4.2l-1.6 0c0 0-.03-4.28 0-4.3c0-.8-.4-1.4-1.4-1.4c-.9 0-1.5.6-1.5 1.5c.04.04 0 4.2 0 4.2l-1.6 0zm12.6 0l0-7l1.7 0l0 7l-1.7 0zm.9-10.6c.6 0 1.1.5 1.1 1.1c0 .6-.5 1.1-1.1 1.1c-.6 0-1.1-.5-1.1-1.1c0-.6.5-1.1 1.1-1.1zm3.8 8.3c.1.6.6 1.2 1.5 1.2c.6 0 1-.4 1-.8c0-.4-.2-.7-.8-.8c0 0-1.1-.2-1.1-.2c-1.2-.3-1.9-1.1-1.9-2.1c0-1.2 1.2-2.2 2.6-2.2c2 0 2.6 1.2 2.8 1.9c0 0-1.5.4-1.5.4c0-.4-.3-1-1.3-1c-.6 0-1 .3-1 .8c0 .4.3.6.7.7c0 0 1.1.2 1.1.2c1.3.3 2 1.1 2 2.2c0 1.1-.8 2.2-2.6 2.2c-2.1 0-2.9-1.3-2.9-2.1c0 0 1.4-.4 1.4-.4zm6.6 0c.1.6.6 1.2 1.5 1.2c.7 0 1-.4 1-.8c0-.4-.2-.7-.8-.8c0 0-1-.2-1-.2c-1.3-.3-1.9-1.1-1.9-2.1c0-1.2 1.1-2.2 2.6-2.2c1.9 0 2.6 1.2 2.7 1.9c0 0-1.4.4-1.4.4c-.1-.4-.4-1-1.3-1c-.6 0-1.1.3-1.1.8c0 .4.3.6.8.7c0 0 1 .2 1 .2c1.4.3 2.1 1.1 2.1 2.2c0 1.1-.9 2.2-2.7 2.2c-2.1 0-2.8-1.3-2.9-2.1c0 0 1.4-.4 1.4-.4zm5.8 2.3l0-7l1.7 0l0 7l-1.7 0zm.9-10.6c.6 0 1.1.5 1.1 1.1c0 .6-.5 1.1-1.1 1.1c-.6 0-1.1-.5-1.1-1.1c0-.6.5-1.1 1.1-1.1zm8 7.1c0-1.5-.9-2.2-1.9-2.2c-1.1 0-2 .7-2 2.2c0 1.5.9 2.2 2 2.2c1 0 1.9-.7 1.9-2.2zm1.7 0c0 2.2-1.5 3.7-3.6 3.7c-2.1 0-3.7-1.5-3.7-3.7c0-2.2 1.6-3.7 3.7-3.7c2.1 0 3.6 1.5 3.6 3.7zm3.3 3.5l-1.6 0l0-7l1.6 0c0 0 0 .91 0 .9c.5-.8 1.3-1.1 2.1-1.1c1.7 0 2.5 1.2 2.5 2.8c.04-.04 0 4.4 0 4.4l-1.6 0c0 0-.04-4.15 0-4.1c0-.9-.4-1.6-1.5-1.6c-.9 0-1.5.7-1.5 1.7c.05-.05 0 4 0 4z" stroke="none" fill="#144542"/></g></svg>