<?xml version="1.0" standalone="no"?><!DOCTYPE svg PUBLIC "-//W3C//DTD SVG 1.1//EN" "http://www.w3.org/Graphics/SVG/1.1/DTD/svg11.dtd"><svg xmlns="http://www.w3.org/2000/svg" version="1.1" width="102px" height="42.8px" viewBox="0 -3 102 42.8" style="top:-3px"><desc>Techniques</desc><defs/><g id="Polygon172787"><path d="m5.3 3.1l0 8.6l-1.8 0l0-8.6l-3.3 0l0-1.6l8.4 0l0 1.6l-3.3 0zm7.9 4.3c-.1-.8-.6-1.5-1.8-1.5c-1 0-1.7.8-1.7 1.5c0 0 3.5 0 3.5 0zm1.6 2.3c-.4 1.2-1.5 2.2-3.2 2.2c-1.9 0-3.6-1.3-3.6-3.7c0-2.3 1.6-3.7 3.4-3.7c2.2 0 3.4 1.4 3.4 3.6c0 .3 0 .5 0 .6c0 0-5.2 0-5.2 0c.1 1 .9 1.8 2 1.8c1 0 1.5-.5 1.7-1.2c0 0 1.5.4 1.5.4zm2.8-1.5c0 1.4.9 2.2 2 2.2c1.1 0 1.6-.8 1.7-1.3c0 0 1.5.5 1.5.5c-.3 1.1-1.4 2.3-3.2 2.3c-2.1 0-3.7-1.6-3.7-3.7c0-2.2 1.6-3.7 3.6-3.7c1.9 0 3 1.1 3.2 2.3c0 0-1.5.5-1.5.5c-.1-.6-.6-1.3-1.7-1.3c-1 0-1.9.8-1.9 2.2zm8.4 3.5l-1.7 0l0-10.5l1.7 0c0 0-.02 4.15 0 4.2c.5-.7 1.3-.9 2-.9c1.7 0 2.6 1.2 2.6 2.8c-.02-.04 0 4.4 0 4.4l-1.7 0c0 0 0-4.15 0-4.1c0-.9-.4-1.6-1.5-1.6c-.9 0-1.4.7-1.4 1.6c-.02-.02 0 4.1 0 4.1zm8.3 0l-1.7 0l0-7l1.7 0c0 0-.04.91 0 .9c.4-.8 1.3-1.1 2.1-1.1c1.7 0 2.5 1.2 2.5 2.8c0-.04 0 4.4 0 4.4l-1.7 0c0 0 .02-4.15 0-4.1c0-.9-.4-1.6-1.4-1.6c-1 0-1.5.7-1.5 1.7c.01-.05 0 4 0 4zm6.6 0l0-7l1.7 0l0 7l-1.7 0zm.9-10.6c.6 0 1.1.5 1.1 1.1c0 .6-.5 1.1-1.1 1.1c-.6 0-1.1-.5-1.1-1.1c0-.6.5-1.1 1.1-1.1zm7.9 13.4c0 0 .01-3.61 0-3.6c-.3.6-1.1 1-2.1 1c-2 0-3.4-1.6-3.4-3.7c0-2.1 1.3-3.7 3.4-3.7c1.2 0 1.9.6 2.1 1.1c.05.01 0-.9 0-.9l1.7 0l0 9.8l-1.7 0zm-1.9-4.1c1.1 0 1.9-.9 1.9-2.2c0-1.4-.8-2.2-1.9-2.2c-1.1 0-1.9.8-1.9 2.2c0 1.3.8 2.2 1.9 2.2zm10.2.5c-.3.7-1.1 1-2 1c-1.7 0-2.6-1.2-2.6-2.8c-.04.02 0-4.4 0-4.4l1.6 0c0 0 .04 4.12 0 4.1c0 .9.4 1.6 1.5 1.6c.9 0 1.4-.6 1.4-1.6c.04.05 0-4.1 0-4.1l1.7 0c0 0 .02 5.74 0 5.7c0 .6.1 1.1.1 1.3c0 0-1.6 0-1.6 0c0-.1-.1-.5-.1-.8c0 0 0 0 0 0zm8.4-3.5c0-.8-.6-1.5-1.7-1.5c-1.1 0-1.7.8-1.8 1.5c0 0 3.5 0 3.5 0zm1.6 2.3c-.4 1.2-1.5 2.2-3.2 2.2c-1.9 0-3.6-1.3-3.6-3.7c0-2.3 1.7-3.7 3.4-3.7c2.2 0 3.5 1.4 3.5 3.6c0 .3 0 .5-.1.6c0 0-5.1 0-5.1 0c0 1 .9 1.8 1.9 1.8c1 0 1.6-.5 1.8-1.2c0 0 1.4.4 1.4.4zm2.5-.3c.1.6.6 1.2 1.5 1.2c.7 0 1-.4 1-.8c0-.4-.2-.7-.8-.8c0 0-1-.2-1-.2c-1.3-.3-1.9-1.1-1.9-2.1c0-1.2 1.1-2.2 2.6-2.2c1.9 0 2.6 1.2 2.7 1.9c0 0-1.4.4-1.4.4c-.1-.4-.4-1-1.3-1c-.6 0-1.1.3-1.1.8c0 .4.3.6.8.7c0 0 1 .2 1 .2c1.4.3 2.1 1.1 2.1 2.2c0 1.1-.9 2.2-2.7 2.2c-2.1 0-2.8-1.3-2.9-2.1c0 0 1.4-.4 1.4-.4z" stroke="none" fill="#144542"/></g></svg>