<?xml version="1.0" standalone="no"?><!DOCTYPE svg PUBLIC "-//W3C//DTD SVG 1.1//EN" "http://www.w3.org/Graphics/SVG/1.1/DTD/svg11.dtd"><svg xmlns="http://www.w3.org/2000/svg" version="1.1" width="373px" height="46.2px" viewBox="0 -4 373 46.2" style="top:-4px"><desc>tre entreprise mission : allier une ambition constante un impact toujours plus grand</desc><defs/><g id="Polygon184510"><path d="m2.6 30c0 1.7 1.1 2.6 2.3 2.6c1.3 0 1.9-.9 2.1-1.5c0 0 1.7.6 1.7.6c-.4 1.3-1.6 2.7-3.8 2.7c-2.4 0-4.3-1.9-4.3-4.4c0-2.5 1.9-4.4 4.3-4.4c2.2 0 3.4 1.4 3.8 2.7c0 0-1.8.7-1.8.7c-.2-.7-.8-1.6-2-1.6c-1.2 0-2.3.9-2.3 2.6zm13.7 0c0-1.7-1.1-2.6-2.3-2.6c-1.2 0-2.3.9-2.3 2.6c0 1.7 1.1 2.6 2.3 2.6c1.2 0 2.3-.9 2.3-2.6zm2 0c0 2.6-1.8 4.4-4.3 4.4c-2.4 0-4.3-1.8-4.3-4.4c0-2.5 1.9-4.4 4.3-4.4c2.5 0 4.3 1.9 4.3 4.4zm3.9 4.2l-2 0l0-8.3l2 0c0 0-.05 1.08 0 1.1c.5-1 1.5-1.4 2.4-1.4c2 0 3 1.5 3 3.3c-.01.02 0 5.3 0 5.3l-2 0c0 0 .02-4.94 0-4.9c0-1.1-.4-1.9-1.7-1.9c-1.1 0-1.7.9-1.7 2c0-.02 0 4.8 0 4.8zm8.8-2.8c0 .8.6 1.4 1.7 1.4c.8 0 1.2-.4 1.2-.9c0-.5-.3-.8-1-.9c0 0-1.2-.3-1.2-.3c-1.5-.3-2.2-1.3-2.2-2.4c0-1.5 1.3-2.7 3-2.7c2.3 0 3.1 1.5 3.2 2.3c0 0-1.6.5-1.6.5c-.1-.5-.5-1.2-1.6-1.2c-.7 0-1.2.4-1.2.9c0 .5.4.8.9.9c0 0 1.2.2 1.2.2c1.6.4 2.4 1.3 2.4 2.6c0 1.2-1 2.6-3.1 2.6c-2.4 0-3.3-1.6-3.4-2.5c0 0 1.7-.5 1.7-.5zm9.3-5.5l1.7 0l0 1.7l-1.7 0c0 0-.04 3.87 0 3.9c0 .7.3 1 1 1c.3 0 .6 0 .7-.1c0 0 0 1.7 0 1.7c-.1 0-.5.2-1.2.2c-1.5 0-2.5-1-2.5-2.5c0-.01 0-4.2 0-4.2l-1.5 0l0-1.7c0 0 .4-.03.4 0c.9 0 1.3-.6 1.3-1.3c-.03-.02 0-1.3 0-1.3l1.8 0l0 2.6zm5.7 3.5c0 0 2.1-.3 2.1-.3c.5-.1.6-.3.6-.6c0-.7-.4-1.3-1.5-1.3c-1.1 0-1.6.7-1.7 1.5c0 0-1.8-.4-1.8-.4c.1-1.4 1.4-2.7 3.5-2.7c2.5 0 3.5 1.5 3.5 3.1c0 0 0 4.1 0 4.1c0 .8.1 1.3.1 1.4c0 0-1.9 0-1.9 0c0-.1 0-.4 0-1.1c-.4.6-1.2 1.3-2.6 1.3c-1.7 0-2.8-1.2-2.8-2.5c0-1.5 1.1-2.3 2.5-2.5zm2.7 1.3c.04.02 0-.4 0-.4c0 0-2.12.37-2.1.4c-.6.1-1.1.4-1.1 1.1c0 .6.4 1.1 1.2 1.1c1.1 0 2-.6 2-2.2zm6.3 3.5l-1.9 0l0-8.3l1.9 0c0 0-.02 1.08 0 1.1c.5-1 1.5-1.4 2.4-1.4c2 0 3 1.5 3 3.3c.02.02 0 5.3 0 5.3l-2 0c0 0 .05-4.94 0-4.9c0-1.1-.4-1.9-1.7-1.9c-1.1 0-1.7.9-1.7 2c.03-.02 0 4.8 0 4.8zm10.3-8.3l1.7 0l0 1.7l-1.7 0c0 0 .01 3.87 0 3.9c0 .7.3 1 1.1 1c.2 0 .6 0 .6-.1c0 0 0 1.7 0 1.7c-.1 0-.4.2-1.2.2c-1.5 0-2.4-1-2.4-2.5c-.04-.01 0-4.2 0-4.2l-1.6 0l0-1.7c0 0 .45-.03.5 0c.8 0 1.2-.6 1.2-1.3c.03-.02 0-1.3 0-1.3l1.8 0l0 2.6zm9.1 3.2c0-1-.7-1.8-2-1.8c-1.3 0-2 .9-2.1 1.8c0 0 4.1 0 4.1 0zm1.9 2.7c-.4 1.4-1.8 2.6-3.7 2.6c-2.3 0-4.3-1.6-4.3-4.4c0-2.6 2-4.4 4.1-4.4c2.5 0 4 1.7 4 4.3c0 .3 0 .6-.1.6c0 0-6 0-6 0c0 1.3 1 2.2 2.3 2.2c1.1 0 1.8-.6 2-1.4c0 0 1.7.5 1.7.5zm8.2-2.4c0 0 2.1-.3 2.1-.3c.5-.1.6-.3.6-.6c0-.7-.5-1.3-1.5-1.3c-1.1 0-1.7.7-1.7 1.5c0 0-1.8-.4-1.8-.4c.1-1.4 1.4-2.7 3.4-2.7c2.6 0 3.6 1.5 3.6 3.1c0 0 0 4.1 0 4.1c0 .8 0 1.3.1 1.4c0 0-1.9 0-1.9 0c0-.1-.1-.4-.1-1.1c-.3.6-1.2 1.3-2.5 1.3c-1.7 0-2.8-1.2-2.8-2.5c0-1.5 1.1-2.3 2.5-2.5zm2.7 1.3c.03.02 0-.4 0-.4c0 0-2.13.37-2.1.4c-.6.1-1.1.4-1.1 1.1c0 .6.4 1.1 1.2 1.1c1.1 0 2-.6 2-2.2zm-4.3-8.4l2.4 0l1.4 2.5l-1.6 0l-2.2-2.5zm15.9 12.1c-2 0-3.1-1.5-3.1-3.3c-.03-.01 0-5.2 0-5.2l1.9 0c0 0 .05 4.84 0 4.8c0 1.1.5 1.9 1.7 1.9c1.2 0 1.7-.7 1.7-1.8c.05-.03 0-4.9 0-4.9l2 0c0 0 .02 6.74 0 6.7c0 .7.1 1.2.1 1.6c0 0-1.9 0-1.9 0c0-.2-.1-.6-.1-1c-.4.8-1.3 1.2-2.3 1.2zm8.7-.2l-1.9 0l0-8.3l1.9 0c0 0-.01 1.08 0 1.1c.5-1 1.5-1.4 2.4-1.4c2.1 0 3 1.5 3 3.3c.03.02 0 5.3 0 5.3l-1.9 0c0 0-.04-4.94 0-4.9c0-1.1-.5-1.9-1.7-1.9c-1.2 0-1.8.9-1.8 2c.04-.02 0 4.8 0 4.8zm12 0l0-8.3l2 0l0 8.3l-2 0zm1-12.5c.7 0 1.3.6 1.3 1.3c0 .7-.6 1.2-1.3 1.2c-.7 0-1.3-.5-1.3-1.2c0-.7.6-1.3 1.3-1.3zm3.5 12.5l0-8.3l1.9 0c0 0 .03 1.03 0 1c.5-.8 1.5-1.3 2.5-1.3c1.1 0 2 .5 2.5 1.5c.6-1.1 1.6-1.5 2.6-1.5c1.5 0 3 1 3 3.2c-.03-.02 0 5.4 0 5.4l-1.9 0c0 0-.03-5.1 0-5.1c0-1-.5-1.7-1.6-1.7c-1.1 0-1.7.8-1.7 1.8c-.05.04 0 5 0 5l-2 0c0 0 .02-5.1 0-5.1c0-.9-.5-1.7-1.6-1.7c-1 0-1.7.8-1.7 1.8c0 .04 0 5 0 5l-2 0zm14.9 3.2l0-11.5l1.9 0c0 0-.01 1.1 0 1.1c.4-.7 1.4-1.3 2.6-1.3c2.5 0 3.9 1.9 3.9 4.3c0 2.5-1.6 4.4-3.9 4.4c-1.2 0-2.1-.6-2.6-1.2c.04.02 0 4.2 0 4.2l-1.9 0zm4.2-10c-1.3 0-2.3 1.1-2.3 2.6c0 1.6 1 2.6 2.3 2.6c1.3 0 2.2-1 2.2-2.6c0-1.5-.9-2.6-2.2-2.6zm8 2c0 0 2.2-.3 2.2-.3c.4-.1.6-.3.6-.6c0-.7-.5-1.3-1.6-1.3c-1 0-1.6.7-1.7 1.5c0 0-1.8-.4-1.8-.4c.2-1.4 1.5-2.7 3.5-2.7c2.6 0 3.5 1.5 3.5 3.1c0 0 0 4.1 0 4.1c0 .8.1 1.3.1 1.4c0 0-1.8 0-1.8 0c0-.1-.1-.4-.1-1.1c-.4.6-1.2 1.3-2.5 1.3c-1.8 0-2.9-1.2-2.9-2.5c0-1.5 1.1-2.3 2.5-2.5zm2.8 1.3c-.02.02 0-.4 0-.4c0 0-2.18.37-2.2.4c-.6.1-1.1.4-1.1 1.1c0 .6.4 1.1 1.2 1.1c1.1 0 2.1-.6 2.1-2.2zm5.6-.7c0 1.7 1.1 2.6 2.3 2.6c1.3 0 1.9-.9 2.1-1.5c0 0 1.7.6 1.7.6c-.4 1.3-1.6 2.7-3.8 2.7c-2.4 0-4.3-1.9-4.3-4.4c0-2.5 1.9-4.4 4.3-4.4c2.2 0 3.4 1.4 3.8 2.7c0 0-1.8.7-1.8.7c-.2-.7-.8-1.6-2-1.6c-1.2 0-2.3.9-2.3 2.6zm10.4-4.1l1.7 0l0 1.7l-1.7 0c0 0-.02 3.87 0 3.9c0 .7.3 1 1 1c.3 0 .6 0 .7-.1c0 0 0 1.7 0 1.7c-.1 0-.5.2-1.2.2c-1.5 0-2.5-1-2.5-2.5c.02-.01 0-4.2 0-4.2l-1.5 0l0-1.7c0 0 .42-.03.4 0c.9 0 1.3-.6 1.3-1.3c-.01-.02 0-1.3 0-1.3l1.8 0l0 2.6zm10.4 0l1.7 0l0 1.7l-1.7 0c0 0 0 3.87 0 3.9c0 .7.3 1 1.1 1c.2 0 .5 0 .6-.1c0 0 0 1.7 0 1.7c-.1 0-.5.2-1.2.2c-1.5 0-2.5-1-2.5-2.5c.04-.01 0-4.2 0-4.2l-1.5 0l0-1.7c0 0 .44-.03.4 0c.9 0 1.3-.6 1.3-1.3c.01-.02 0-1.3 0-1.3l1.8 0l0 2.6zm9.6 4.1c0-1.7-1.1-2.6-2.3-2.6c-1.2 0-2.3.9-2.3 2.6c0 1.7 1.1 2.6 2.3 2.6c1.2 0 2.3-.9 2.3-2.6zm2 0c0 2.6-1.8 4.4-4.3 4.4c-2.5 0-4.3-1.8-4.3-4.4c0-2.5 1.8-4.4 4.3-4.4c2.5 0 4.3 1.9 4.3 4.4zm4.9 4.4c-2 0-3.1-1.5-3.1-3.3c-.04-.01 0-5.2 0-5.2l1.9 0c0 0 .03 4.84 0 4.8c0 1.1.5 1.9 1.7 1.9c1.1 0 1.7-.7 1.7-1.8c.03-.03 0-4.9 0-4.9l2 0c0 0 0 6.74 0 6.7c0 .7.1 1.2.1 1.6c0 0-1.9 0-1.9 0c0-.2-.1-.6-.1-1c-.4.8-1.3 1.2-2.3 1.2zm6.8-8.5l1.9 0c0 0 .03 9.09 0 9.1c0 1.5-.9 2.6-2.4 2.6c-.7 0-1.1-.1-1.2-.1c0 0 0-1.6 0-1.6c.1 0 .4 0 .6 0c.8 0 1.1-.4 1.1-1.1c-.05.03 0-8.9 0-8.9zm.9-4.2c.7 0 1.3.5 1.3 1.2c0 .7-.6 1.3-1.3 1.3c-.7 0-1.3-.6-1.3-1.3c0-.7.6-1.2 1.3-1.2zm9.5 8.3c0-1.7-1.1-2.6-2.3-2.6c-1.2 0-2.3.9-2.3 2.6c0 1.7 1.1 2.6 2.3 2.6c1.2 0 2.3-.9 2.3-2.6zm2 0c0 2.6-1.8 4.4-4.3 4.4c-2.5 0-4.3-1.8-4.3-4.4c0-2.5 1.8-4.4 4.3-4.4c2.5 0 4.3 1.9 4.3 4.4zm4.9 4.4c-2 0-3.1-1.5-3.1-3.3c-.02-.01 0-5.2 0-5.2l2 0c0 0-.04 4.84 0 4.8c0 1.1.4 1.9 1.6 1.9c1.2 0 1.8-.7 1.8-1.8c-.04-.03 0-4.9 0-4.9l1.9 0c0 0 .03 6.74 0 6.7c0 .7.1 1.2.1 1.6c0 0-1.9 0-1.9 0c0-.2 0-.6 0-1c-.5.8-1.4 1.2-2.4 1.2zm11.6-6.6c-.2 0-.4 0-.6 0c-1.6 0-2.3.9-2.3 2.4c.05.01 0 4 0 4l-1.9 0l0-8.3l1.9 0c0 0 0 1.3 0 1.3c.4-.9 1.3-1.4 2.4-1.4c.2 0 .4 0 .5 0c0 0 0 2 0 2zm2.7 3.6c0 .8.6 1.4 1.7 1.4c.8 0 1.2-.4 1.2-.9c0-.5-.3-.8-1-.9c0 0-1.2-.3-1.2-.3c-1.5-.3-2.2-1.3-2.2-2.4c0-1.5 1.3-2.7 3-2.7c2.3 0 3.1 1.5 3.2 2.3c0 0-1.6.5-1.6.5c-.1-.5-.5-1.2-1.6-1.2c-.7 0-1.2.4-1.2.9c0 .5.4.8.9.9c0 0 1.2.2 1.2.2c1.6.4 2.4 1.3 2.4 2.6c0 1.2-1 2.6-3.1 2.6c-2.4 0-3.3-1.6-3.4-2.5c0 0 1.7-.5 1.7-.5zm11 6l0-11.5l1.9 0c0 0-.02 1.1 0 1.1c.4-.7 1.3-1.3 2.6-1.3c2.5 0 3.8 1.9 3.8 4.3c0 2.5-1.5 4.4-3.9 4.4c-1.1 0-2-.6-2.5-1.2c.03.02 0 4.2 0 4.2l-1.9 0zm4.1-10c-1.3 0-2.2 1.1-2.2 2.6c0 1.6.9 2.6 2.2 2.6c1.3 0 2.3-1 2.3-2.6c0-1.5-.9-2.6-2.3-2.6zm6.1 6.8l0-12.4l2 0l0 12.4l-2 0zm7.6.2c-2 0-3.2-1.5-3.2-3.3c.03-.01 0-5.2 0-5.2l2 0c0 0 0 4.84 0 4.8c0 1.1.5 1.9 1.7 1.9c1.1 0 1.7-.7 1.7-1.8c0-.03 0-4.9 0-4.9l2 0c0 0-.03 6.74 0 6.7c0 .7 0 1.2.1 1.6c0 0-1.9 0-1.9 0c-.1-.2-.1-.6-.1-1c-.4.8-1.4 1.2-2.3 1.2zm7.7-3c.1.8.6 1.4 1.7 1.4c.8 0 1.2-.4 1.2-.9c0-.5-.3-.8-.9-.9c0 0-1.3-.3-1.3-.3c-1.4-.3-2.2-1.3-2.2-2.4c0-1.5 1.3-2.7 3.1-2.7c2.3 0 3 1.5 3.1 2.3c0 0-1.6.5-1.6.5c-.1-.5-.4-1.2-1.5-1.2c-.7 0-1.2.4-1.2.9c0 .5.3.8.8.9c0 0 1.3.2 1.3.2c1.5.4 2.3 1.3 2.3 2.6c0 1.2-1 2.6-3.1 2.6c-2.4 0-3.3-1.6-3.4-2.5c0 0 1.7-.5 1.7-.5zm12.2 2.7c.2 1.1 1 1.8 2.1 1.8c1.6 0 2.3-.8 2.3-2.5c0 0 0-.8 0-.8c-.3.6-1.1 1.2-2.3 1.2c-2.3 0-3.9-1.7-3.9-4.1c0-2.2 1.6-4 3.9-4c1.2 0 2 .5 2.4 1.2c0 .03 0-1 0-1l1.9 0c0 0 0 7.47 0 7.5c0 2.2-1.1 4.2-4.2 4.2c-2.2 0-3.8-1.3-4-3c0 0 1.8-.5 1.8-.5zm4.5-4.4c0-1.4-.9-2.3-2.1-2.3c-1.3 0-2.2.9-2.2 2.3c0 1.5.9 2.4 2.2 2.4c1.2 0 2.1-.9 2.1-2.4zm9.2-1.9c-.3 0-.5 0-.7 0c-1.5 0-2.2.9-2.2 2.4c-.01.01 0 4 0 4l-2 0l0-8.3l1.9 0c0 0 .04 1.3 0 1.3c.4-.9 1.3-1.4 2.4-1.4c.3 0 .5 0 .6 0c0 0 0 2 0 2zm3.6 1.6c0 0 2.1-.3 2.1-.3c.5-.1.7-.3.7-.6c0-.7-.5-1.3-1.6-1.3c-1 0-1.6.7-1.7 1.5c0 0-1.8-.4-1.8-.4c.1-1.4 1.4-2.7 3.5-2.7c2.5 0 3.5 1.5 3.5 3.1c0 0 0 4.1 0 4.1c0 .8.1 1.3.1 1.4c0 0-1.8 0-1.8 0c-.1-.1-.1-.4-.1-1.1c-.4.6-1.2 1.3-2.6 1.3c-1.7 0-2.8-1.2-2.8-2.5c0-1.5 1.1-2.3 2.5-2.5zm2.8 1.3c-.05.02 0-.4 0-.4c0 0-2.2.37-2.2.4c-.6.1-1.1.4-1.1 1.1c0 .6.4 1.1 1.2 1.1c1.1 0 2.1-.6 2.1-2.2zm6.2 3.5l-1.9 0l0-8.3l1.9 0c0 0-.01 1.08 0 1.1c.5-1 1.5-1.4 2.4-1.4c2.1 0 3 1.5 3 3.3c.03.02 0 5.3 0 5.3l-1.9 0c0 0-.04-4.94 0-4.9c0-1.1-.5-1.9-1.7-1.9c-1.2 0-1.8.9-1.8 2c.04-.02 0 4.8 0 4.8zm11.4-1.6c1.3 0 2.2-1 2.2-2.6c0-1.6-.9-2.6-2.2-2.6c-1.3 0-2.2 1-2.2 2.6c0 1.6.8 2.6 2.2 2.6zm4.1 0c0 .8 0 1.4.1 1.6c0 0-1.9 0-1.9 0c-.1-.2-.1-.8-.1-1.1c-.4.7-1.3 1.3-2.4 1.3c-2.4 0-4-1.9-4-4.4c0-2.4 1.6-4.3 3.9-4.3c1.5 0 2.2.6 2.5 1.1c-.04.04 0-5 0-5l1.9 0c0 0-.02 10.84 0 10.8z" stroke="none" fill="#144542"/></g><g id="Polygon184509"><path d="m2.1.8l1.9-2.1l2.2 0l2 2.1l-1.8 0l-1.3-1l-1.2 1l-1.8 0zm-.7 13l0-12.1l7.5 0l0 1.9l-5.4 0l0 3.2l4.9 0l0 1.9l-4.9 0l0 3.1l5.4 0l0 2l-7.5 0zm12.3-8.3l1.7 0l0 1.7l-1.7 0c0 0-.03 3.87 0 3.9c0 .7.3 1 1 1c.3 0 .6 0 .7-.1c0 0 0 1.7 0 1.7c-.1 0-.5.2-1.2.2c-1.5 0-2.5-1-2.5-2.5c.01-.01 0-4.2 0-4.2l-1.5 0l0-1.7c0 0 .41-.03.4 0c.9 0 1.3-.6 1.3-1.3c-.02-.02 0-1.3 0-1.3l1.8 0l0 2.6zm8.4 1.9c-.2 0-.4 0-.6 0c-1.6 0-2.3.9-2.3 2.4c.03.01 0 4 0 4l-1.9 0l0-8.3l1.9 0c0 0-.02 1.3 0 1.3c.4-.9 1.3-1.4 2.4-1.4c.2 0 .4 0 .5 0c0 0 0 2 0 2zm7 1.3c0-1-.7-1.8-2-1.8c-1.3 0-2 .9-2.1 1.8c0 0 4.1 0 4.1 0zm1.9 2.7c-.5 1.4-1.8 2.6-3.7 2.6c-2.3 0-4.3-1.6-4.3-4.4c0-2.6 2-4.4 4-4.4c2.6 0 4.1 1.7 4.1 4.3c0 .3 0 .6-.1.6c0 0-6 0-6 0c0 1.3 1 2.2 2.3 2.2c1.1 0 1.8-.6 2-1.4c0 0 1.7.5 1.7.5zm11.6-2.7c0-1-.6-1.8-2-1.8c-1.2 0-2 .9-2 1.8c0 0 4 0 4 0zm1.9 2.7c-.4 1.4-1.7 2.6-3.7 2.6c-2.3 0-4.3-1.6-4.3-4.4c0-2.6 2-4.4 4.1-4.4c2.5 0 4 1.7 4 4.3c0 .3 0 .6 0 .6c0 0-6.1 0-6.1 0c.1 1.3 1.1 2.2 2.3 2.2c1.2 0 1.8-.6 2.1-1.4c0 0 1.6.5 1.6.5zm4 2.4l-2 0l0-8.3l1.9 0c0 0 .03 1.08 0 1.1c.6-1 1.6-1.4 2.5-1.4c2 0 3 1.5 3 3.3c-.03.02 0 5.3 0 5.3l-2 0c0 0 0-4.94 0-4.9c0-1.1-.5-1.9-1.7-1.9c-1.1 0-1.7.9-1.7 2c-.02-.02 0 4.8 0 4.8zm10.3-8.3l1.7 0l0 1.7l-1.7 0c0 0-.03 3.87 0 3.9c0 .7.3 1 1 1c.3 0 .6 0 .7-.1c0 0 0 1.7 0 1.7c-.1 0-.5.2-1.2.2c-1.5 0-2.5-1-2.5-2.5c.01-.01 0-4.2 0-4.2l-1.5 0l0-1.7c0 0 .41-.03.4 0c.9 0 1.3-.6 1.3-1.3c-.02-.02 0-1.3 0-1.3l1.8 0l0 2.6zm8.4 1.9c-.2 0-.4 0-.6 0c-1.6 0-2.3.9-2.3 2.4c.03.01 0 4 0 4l-1.9 0l0-8.3l1.9 0c0 0-.02 1.3 0 1.3c.4-.9 1.3-1.4 2.4-1.4c.2 0 .4 0 .5 0c0 0 0 2 0 2zm7 1.3c0-1-.7-1.8-2-1.8c-1.3 0-2 .9-2.1 1.8c0 0 4.1 0 4.1 0zm1.9 2.7c-.5 1.4-1.8 2.6-3.7 2.6c-2.3 0-4.3-1.6-4.3-4.4c0-2.6 2-4.4 4-4.4c2.6 0 4.1 1.7 4.1 4.3c0 .3 0 .6-.1.6c0 0-6 0-6 0c0 1.3 1 2.2 2.3 2.2c1.1 0 1.8-.6 2-1.4c0 0 1.7.5 1.7.5zm2 5.6l0-11.5l1.9 0c0 0-.02 1.1 0 1.1c.4-.7 1.3-1.3 2.6-1.3c2.5 0 3.8 1.9 3.8 4.3c0 2.5-1.5 4.4-3.8 4.4c-1.2 0-2.1-.6-2.6-1.2c.03.02 0 4.2 0 4.2l-1.9 0zm4.1-10c-1.2 0-2.2 1.1-2.2 2.6c0 1.6 1 2.6 2.2 2.6c1.4 0 2.3-1 2.3-2.6c0-1.5-.9-2.6-2.3-2.6zm11 .4c-.2 0-.4 0-.7 0c-1.5 0-2.2.9-2.2 2.4c.02.01 0 4 0 4l-2 0l0-8.3l2 0c0 0-.03 1.3 0 1.3c.4-.9 1.3-1.4 2.4-1.4c.2 0 .4 0 .5 0c0 0 0 2 0 2zm1.6 6.4l0-8.3l2 0l0 8.3l-2 0zm1-12.5c.7 0 1.3.6 1.3 1.3c0 .7-.6 1.2-1.3 1.2c-.7 0-1.3-.5-1.3-1.2c0-.7.6-1.3 1.3-1.3zm4.5 9.7c.1.8.7 1.4 1.7 1.4c.8 0 1.3-.4 1.3-.9c0-.5-.3-.8-1-.9c0 0-1.2-.3-1.2-.3c-1.5-.3-2.3-1.3-2.3-2.4c0-1.5 1.4-2.7 3.1-2.7c2.3 0 3 1.5 3.2 2.3c0 0-1.7.5-1.7.5c-.1-.5-.4-1.2-1.5-1.2c-.7 0-1.2.4-1.2.9c0 .5.3.8.8.9c0 0 1.3.2 1.3.2c1.5.4 2.4 1.3 2.4 2.6c0 1.2-1.1 2.6-3.2 2.6c-2.4 0-3.3-1.6-3.4-2.5c0 0 1.7-.5 1.7-.5zm12.2-2.3c0-1-.7-1.8-2-1.8c-1.3 0-2 .9-2.1 1.8c0 0 4.1 0 4.1 0zm1.9 2.7c-.5 1.4-1.8 2.6-3.7 2.6c-2.3 0-4.3-1.6-4.3-4.4c0-2.6 2-4.4 4-4.4c2.6 0 4.1 1.7 4.1 4.3c0 .3 0 .6-.1.6c0 0-6 0-6 0c0 1.3 1 2.2 2.3 2.2c1.1 0 1.8-.6 2-1.4c0 0 1.7.5 1.7.5zm8.2-2.4c0 0 2.1-.3 2.1-.3c.5-.1.6-.3.6-.6c0-.7-.5-1.3-1.5-1.3c-1.1 0-1.7.7-1.7 1.5c0 0-1.8-.4-1.8-.4c.1-1.4 1.4-2.7 3.4-2.7c2.6 0 3.6 1.5 3.6 3.1c0 0 0 4.1 0 4.1c0 .8 0 1.3.1 1.4c0 0-1.9 0-1.9 0c0-.1-.1-.4-.1-1.1c-.4.6-1.2 1.3-2.5 1.3c-1.7 0-2.8-1.2-2.8-2.5c0-1.5 1.1-2.3 2.5-2.5zm2.7 1.3c.02.02 0-.4 0-.4c0 0-2.14.37-2.1.4c-.6.1-1.1.4-1.1 1.1c0 .6.4 1.1 1.2 1.1c1.1 0 2-.6 2-2.2zm-4.3-8.4l2.3 0l1.5 2.5l-1.6 0l-2.2-2.5zm12.9 11.9l0-8.3l1.8 0c0 0 .04 1.03 0 1c.5-.8 1.6-1.3 2.5-1.3c1.1 0 2 .5 2.5 1.5c.6-1.1 1.6-1.5 2.7-1.5c1.5 0 2.9 1 2.9 3.2c-.02-.02 0 5.4 0 5.4l-1.9 0c0 0-.02-5.1 0-5.1c0-1-.5-1.7-1.6-1.7c-1.1 0-1.7.8-1.7 1.8c-.04.04 0 5 0 5l-2 0c0 0 .03-5.1 0-5.1c0-.9-.5-1.7-1.6-1.7c-1 0-1.7.8-1.7 1.8c.01.04 0 5 0 5l-1.9 0zm14.8 0l0-8.3l2 0l0 8.3l-2 0zm1-12.5c.7 0 1.3.6 1.3 1.3c0 .7-.6 1.2-1.3 1.2c-.7 0-1.3-.5-1.3-1.2c0-.7.6-1.3 1.3-1.3zm4.5 9.7c.1.8.6 1.4 1.7 1.4c.8 0 1.2-.4 1.2-.9c0-.5-.3-.8-1-.9c0 0-1.2-.3-1.2-.3c-1.4-.3-2.2-1.3-2.2-2.4c0-1.5 1.3-2.7 3-2.7c2.3 0 3.1 1.5 3.2 2.3c0 0-1.6.5-1.6.5c-.1-.5-.5-1.2-1.6-1.2c-.7 0-1.2.4-1.2.9c0 .5.4.8.9.9c0 0 1.2.2 1.2.2c1.6.4 2.4 1.3 2.4 2.6c0 1.2-1 2.6-3.1 2.6c-2.4 0-3.3-1.6-3.4-2.5c0 0 1.7-.5 1.7-.5zm7.8 0c0 .8.6 1.4 1.6 1.4c.9 0 1.3-.4 1.3-.9c0-.5-.3-.8-1-.9c0 0-1.2-.3-1.2-.3c-1.5-.3-2.2-1.3-2.2-2.4c0-1.5 1.3-2.7 3-2.7c2.3 0 3.1 1.5 3.2 2.3c0 0-1.7.5-1.7.5c0-.5-.4-1.2-1.5-1.2c-.7 0-1.2.4-1.2.9c0 .5.3.8.8.9c0 0 1.3.2 1.3.2c1.6.4 2.4 1.3 2.4 2.6c0 1.2-1 2.6-3.1 2.6c-2.4 0-3.4-1.6-3.5-2.5c0 0 1.8-.5 1.8-.5zm6.7 2.8l0-8.3l2 0l0 8.3l-2 0zm1-12.5c.7 0 1.3.6 1.3 1.3c0 .7-.6 1.2-1.3 1.2c-.7 0-1.3-.5-1.3-1.2c0-.7.6-1.3 1.3-1.3zm9.5 8.3c0-1.7-1.1-2.6-2.3-2.6c-1.2 0-2.3.9-2.3 2.6c0 1.7 1.1 2.6 2.3 2.6c1.2 0 2.3-.9 2.3-2.6zm2 0c0 2.6-1.8 4.4-4.3 4.4c-2.5 0-4.3-1.8-4.3-4.4c0-2.5 1.8-4.4 4.3-4.4c2.5 0 4.3 1.9 4.3 4.4zm3.9 4.2l-2 0l0-8.3l1.9 0c0 0 .01 1.08 0 1.1c.6-1 1.5-1.4 2.5-1.4c2 0 2.9 1.5 2.9 3.3c.05.02 0 5.3 0 5.3l-1.9 0c0 0-.02-4.94 0-4.9c0-1.1-.5-1.9-1.7-1.9c-1.1 0-1.7.9-1.7 2c-.04-.02 0 4.8 0 4.8zm13.3-2.7c.7 0 1.3.6 1.3 1.4c0 .7-.6 1.4-1.3 1.4c-.8 0-1.4-.7-1.4-1.4c0-.8.6-1.4 1.4-1.4zm0-5.7c.7 0 1.3.6 1.3 1.3c0 .8-.6 1.4-1.3 1.4c-.8 0-1.4-.6-1.4-1.4c0-.7.6-1.3 1.4-1.3zm10 3.6c0 0 2.1-.3 2.1-.3c.5-.1.6-.3.6-.6c0-.7-.4-1.3-1.5-1.3c-1.1 0-1.6.7-1.7 1.5c0 0-1.8-.4-1.8-.4c.1-1.4 1.4-2.7 3.5-2.7c2.5 0 3.5 1.5 3.5 3.1c0 0 0 4.1 0 4.1c0 .8.1 1.3.1 1.4c0 0-1.9 0-1.9 0c0-.1 0-.4 0-1.1c-.4.6-1.3 1.3-2.6 1.3c-1.7 0-2.8-1.2-2.8-2.5c0-1.5 1.1-2.3 2.5-2.5zm2.7 1.3c.04.02 0-.4 0-.4c0 0-2.12.37-2.1.4c-.6.1-1.1.4-1.1 1.1c0 .6.4 1.1 1.2 1.1c1.1 0 2-.6 2-2.2zm4.4 3.5l0-12.4l1.9 0l0 12.4l-1.9 0zm4.5 0l0-12.4l1.9 0l0 12.4l-1.9 0zm4.5 0l0-8.3l2 0l0 8.3l-2 0zm1-12.5c.7 0 1.3.6 1.3 1.3c0 .7-.6 1.2-1.3 1.2c-.7 0-1.3-.5-1.3-1.2c0-.7.6-1.3 1.3-1.3zm8.9 7.4c0-1-.6-1.8-2-1.8c-1.2 0-2 .9-2 1.8c0 0 4 0 4 0zm1.9 2.7c-.4 1.4-1.7 2.6-3.7 2.6c-2.3 0-4.2-1.6-4.2-4.4c0-2.6 1.9-4.4 4-4.4c2.5 0 4 1.7 4 4.3c0 .3 0 .6 0 .6c0 0-6.1 0-6.1 0c.1 1.3 1.1 2.2 2.3 2.2c1.2 0 1.8-.6 2.1-1.4c0 0 1.6.5 1.6.5zm6.9-4c-.3 0-.5 0-.7 0c-1.5 0-2.2.9-2.2 2.4c-.01.01 0 4 0 4l-2 0l0-8.3l1.9 0c0 0 .04 1.3 0 1.3c.4-.9 1.3-1.4 2.4-1.4c.3 0 .5 0 .6 0c0 0 0 2 0 2zm8.8 6.6c-1.9 0-3.1-1.5-3.1-3.3c.01-.01 0-5.2 0-5.2l2 0c0 0-.02 4.84 0 4.8c0 1.1.5 1.9 1.6 1.9c1.2 0 1.8-.7 1.8-1.8c-.02-.03 0-4.9 0-4.9l2 0c0 0-.05 6.74 0 6.7c0 .7 0 1.2 0 1.6c0 0-1.8 0-1.8 0c-.1-.2-.1-.6-.1-1c-.4.8-1.4 1.2-2.4 1.2zm8.8-.2l-2 0l0-8.3l1.9 0c0 0 .02 1.08 0 1.1c.6-1 1.6-1.4 2.5-1.4c2 0 3 1.5 3 3.3c-.04.02 0 5.3 0 5.3l-2 0c0 0-.01-4.94 0-4.9c0-1.1-.5-1.9-1.7-1.9c-1.1 0-1.7.9-1.7 2c-.03-.02 0 4.8 0 4.8zm13.2-5.1c0-1-.7-1.8-2-1.8c-1.3 0-2 .9-2.1 1.8c0 0 4.1 0 4.1 0zm1.9 2.7c-.5 1.4-1.8 2.6-3.8 2.6c-2.2 0-4.2-1.6-4.2-4.4c0-2.6 2-4.4 4-4.4c2.6 0 4.1 1.7 4.1 4.3c0 .3 0 .6-.1.6c0 0-6 0-6 0c0 1.3 1 2.2 2.2 2.2c1.2 0 1.8-.6 2.1-1.4c0 0 1.7.5 1.7.5zm8.2-2.4c0 0 2.1-.3 2.1-.3c.5-.1.6-.3.6-.6c0-.7-.5-1.3-1.5-1.3c-1.1 0-1.7.7-1.7 1.5c0 0-1.8-.4-1.8-.4c.1-1.4 1.4-2.7 3.4-2.7c2.6 0 3.6 1.5 3.6 3.1c0 0 0 4.1 0 4.1c0 .8 0 1.3.1 1.4c0 0-1.9 0-1.9 0c0-.1-.1-.4-.1-1.1c-.4.6-1.2 1.3-2.5 1.3c-1.7 0-2.8-1.2-2.8-2.5c0-1.5 1.1-2.3 2.5-2.5zm2.7 1.3c.02.02 0-.4 0-.4c0 0-2.14.37-2.1.4c-.7.1-1.1.4-1.1 1.1c0 .6.4 1.1 1.2 1.1c1.1 0 2-.6 2-2.2zm4.3 3.5l0-8.3l1.9 0c0 0 .02 1.03 0 1c.5-.8 1.5-1.3 2.5-1.3c1.1 0 2 .5 2.5 1.5c.6-1.1 1.6-1.5 2.6-1.5c1.5 0 3 1 3 3.2c-.04-.02 0 5.4 0 5.4l-1.9 0c0 0-.04-5.1 0-5.1c0-1-.5-1.7-1.6-1.7c-1.1 0-1.8.8-1.8 1.8c.04.04 0 5 0 5l-1.9 0c0 0 .01-5.1 0-5.1c0-.9-.5-1.7-1.6-1.7c-1 0-1.7.8-1.7 1.8c-.01.04 0 5 0 5l-2 0zm14.9 0l0-12.4l1.9 0c0 0 .01 5.09 0 5.1c.4-.7 1.3-1.2 2.6-1.2c2.5 0 3.8 1.8 3.8 4.3c0 2.5-1.4 4.4-3.9 4.4c-1.1 0-2-.6-2.5-1.4c0 .05 0 1.2 0 1.2l-1.9 0zm4.1-6.8c-1.2 0-2.2.9-2.2 2.6c0 1.6 1 2.6 2.2 2.6c1.3 0 2.3-1 2.3-2.6c0-1.7-1-2.6-2.3-2.6zm6.1 6.8l0-8.3l2 0l0 8.3l-2 0zm1-12.5c.7 0 1.3.6 1.3 1.3c0 .7-.6 1.2-1.3 1.2c-.7 0-1.3-.5-1.3-1.2c0-.7.6-1.3 1.3-1.3zm6 4.2l1.8 0l0 1.7l-1.8 0c0 0 .05 3.87 0 3.9c0 .7.4 1 1.1 1c.3 0 .6 0 .7-.1c0 0 0 1.7 0 1.7c-.1 0-.5.2-1.2.2c-1.6 0-2.5-1-2.5-2.5c-.01-.01 0-4.2 0-4.2l-1.5 0l0-1.7c0 0 .39-.03.4 0c.9 0 1.3-.6 1.3-1.3c-.04-.02 0-1.3 0-1.3l1.7 0l0 2.6zm3.8 8.3l0-8.3l1.9 0l0 8.3l-1.9 0zm1-12.5c.7 0 1.2.6 1.2 1.3c0 .7-.5 1.2-1.2 1.2c-.7 0-1.3-.5-1.3-1.2c0-.7.6-1.3 1.3-1.3zm9.4 8.3c0-1.7-1-2.6-2.3-2.6c-1.2 0-2.3.9-2.3 2.6c0 1.7 1.1 2.6 2.3 2.6c1.3 0 2.3-.9 2.3-2.6zm2 0c0 2.6-1.8 4.4-4.3 4.4c-2.4 0-4.3-1.8-4.3-4.4c0-2.5 1.9-4.4 4.3-4.4c2.5 0 4.3 1.9 4.3 4.4zm3.9 4.2l-2 0l0-8.3l2 0c0 0-.04 1.08 0 1.1c.5-1 1.5-1.4 2.4-1.4c2 0 3 1.5 3 3.3c0 .02 0 5.3 0 5.3l-2 0c0 0 .03-4.94 0-4.9c0-1.1-.4-1.9-1.7-1.9c-1.1 0-1.7.9-1.7 2c.01-.02 0 4.8 0 4.8z" stroke="none" fill="#144542"/></g></svg>