<?xml version="1.0" standalone="no"?><!DOCTYPE svg PUBLIC "-//W3C//DTD SVG 1.1//EN" "http://www.w3.org/Graphics/SVG/1.1/DTD/svg11.dtd"><svg xmlns="http://www.w3.org/2000/svg" version="1.1" width="164.4px" height="16.7px" viewBox="0 -2 164.4 16.7" style="top:-2px"><desc>Rapport de mission 2025</desc><defs/><g id="Polygon183918"><path d="m2.7 4.7l-1 0l0 2.6l-.9 0l0-6.4c0 0 2.41 0 2.4 0c1.2 0 2 .8 2 1.9c0 .9-.6 1.6-1.6 1.8c.02.01 1.5 2.7 1.5 2.7l-1 0l-1.4-2.6zm.4-.8c.7 0 1.2-.4 1.2-1.1c0-.7-.5-1.1-1.2-1.1c-.05-.01-1.4 0-1.4 0l0 2.2c0 0 1.35-.02 1.4 0zm2.9 2.2c0-.8.5-1.2 1.3-1.3c0 0 1.2-.2 1.2-.2c.2 0 .3-.1.3-.3c0-.4-.3-.8-.9-.8c-.6 0-1 .4-1 .9c0 0-.8-.2-.8-.2c.1-.8.8-1.4 1.7-1.4c1.3 0 1.8.8 1.8 1.6c0 0 0 2.2 0 2.2c0 .4.1.6.1.7c0 0-.8 0-.8 0c-.1-.1-.1-.3-.1-.6c-.2.3-.6.7-1.4.7c-.9 0-1.4-.6-1.4-1.3c0 0 0 0 0 0zm2.8-.7c-.01.03 0-.2 0-.2c0 0-1.33.23-1.3.2c-.4.1-.7.3-.7.7c0 .3.3.6.7.6c.7 0 1.3-.3 1.3-1.3zm2.2 3.6l0-6l.8 0c0 0-.03.63 0 .6c.2-.4.7-.7 1.4-.7c1.3 0 2 1 2 2.2c0 1.3-.7 2.3-2 2.3c-.7 0-1.2-.3-1.4-.7c-.01 0 0 2.3 0 2.3l-.8 0zm3.3-3.9c0-.9-.4-1.5-1.2-1.5c-.8 0-1.3.6-1.3 1.5c0 .9.5 1.5 1.3 1.5c.8 0 1.2-.6 1.2-1.5c0 0 0 0 0 0zm2 3.9l0-6l.8 0c0 0 .01.63 0 .6c.2-.4.8-.7 1.5-.7c1.3 0 1.9 1 1.9 2.2c0 1.3-.7 2.3-2 2.3c-.6 0-1.1-.3-1.4-.7c.03 0 0 2.3 0 2.3l-.8 0zm3.4-3.9c0-.9-.5-1.5-1.3-1.5c-.8 0-1.3.6-1.3 1.5c0 .9.5 1.5 1.3 1.5c.8 0 1.3-.6 1.3-1.5c0 0 0 0 0 0zm5.1 0c0-1-.6-1.5-1.3-1.5c-.7 0-1.4.5-1.4 1.5c0 1 .7 1.6 1.4 1.6c.7 0 1.3-.6 1.3-1.6zm.9 0c0 1.3-.9 2.3-2.2 2.3c-1.3 0-2.2-1-2.2-2.3c0-1.3.9-2.3 2.2-2.3c1.3 0 2.2 1 2.2 2.3zm3.5-1.3c-.1 0-.3 0-.4 0c-.7 0-1.2.4-1.2 1.3c.02.01 0 2.2 0 2.2l-.8 0l0-4.3l.8 0c0 0 0 .71 0 .7c.3-.7.9-.8 1.3-.8c.1 0 .2 0 .3 0c0 0 0 .9 0 .9zm2.2-.8l1 0l0 .7l-1 0c0 0 .04 2.27 0 2.3c0 .4.2.6.6.6c.1 0 .3-.1.4-.1c0 0 0 .7 0 .7c-.1.1-.3.1-.6.1c-.7 0-1.2-.4-1.2-1.2c-.01-.01 0-2.4 0-2.4l-.8 0l0-.7c0 0 .2-.05.2 0c.5 0 .7-.3.7-.7c-.04-.01 0-.7 0-.7l.7 0l0 1.4zm6.1 3.7c.8 0 1.3-.7 1.3-1.6c0-.9-.5-1.5-1.3-1.5c-.7 0-1.2.6-1.2 1.5c0 .9.4 1.6 1.2 1.6zm1.3-.1c-.2.4-.7.8-1.4.8c-1.2 0-2-1-2-2.3c0-1.2.8-2.3 2-2.3c.8 0 1.2.4 1.4.8c-.04-.04 0-2.8 0-2.8l.8 0c0 0 0 5.68 0 5.7c0 .4 0 .7 0 .8c0 0-.8 0-.8 0c0-.1 0-.3 0-.6c0 0 0-.1 0-.1zm5.2-1.9c-.1-.7-.5-1.1-1.2-1.1c-.7 0-1.2.5-1.2 1.1c0 0 2.4 0 2.4 0zm.8 1.3c-.2.8-.9 1.4-1.9 1.4c-1.2 0-2.2-.8-2.2-2.3c0-1.4 1-2.3 2.1-2.3c1.3 0 2 .9 2 2.3c0 .1 0 .2 0 .3c0 0-3.2 0-3.2 0c0 .7.5 1.3 1.3 1.3c.7 0 1-.4 1.2-.9c0 0 .7.2.7.2zm3.4 1.3l0-4.3l.8 0c0 0-.02.53 0 .5c.2-.4.8-.7 1.3-.7c.5 0 1.1.3 1.3.8c.3-.6.9-.8 1.4-.8c.8 0 1.5.5 1.5 1.7c.03-.03 0 2.8 0 2.8l-.8 0c0 0-.01-2.74 0-2.7c0-.6-.3-1-.9-1c-.6 0-1 .4-1 1.1c-.02-.04 0 2.6 0 2.6l-.9 0c0 0 .03-2.74 0-2.7c0-.6-.2-1-.9-1c-.6 0-1 .4-1 1.1c0-.03 0 2.6 0 2.6l-.8 0zm7.7 0l0-4.3l.8 0l0 4.3l-.8 0zm.4-6.6c.3 0 .6.3.6.6c0 .3-.3.6-.6.6c-.3 0-.6-.3-.6-.6c0-.3.3-.6.6-.6zm2.2 5.2c.1.4.4.8 1 .8c.5 0 .8-.3.8-.6c0-.2-.2-.5-.6-.5c0 0-.7-.2-.7-.2c-.7-.1-1.1-.6-1.1-1.2c0-.8.7-1.4 1.5-1.4c1.2 0 1.6.8 1.7 1.2c0 0-.8.3-.8.3c0-.3-.2-.8-.9-.8c-.4 0-.7.3-.7.6c0 .3.2.5.5.5c0 0 .7.2.7.2c.8.2 1.2.6 1.2 1.3c0 .6-.5 1.3-1.6 1.3c-1.2 0-1.7-.7-1.7-1.2c0 0 .7-.3.7-.3zm4.1 0c0 .4.4.8 1 .8c.5 0 .7-.3.7-.6c0-.2-.2-.5-.5-.5c0 0-.8-.2-.8-.2c-.6-.1-1-.6-1-1.2c0-.8.6-1.4 1.5-1.4c1.2 0 1.6.8 1.6 1.2c0 0-.7.3-.7.3c0-.3-.2-.8-.9-.8c-.4 0-.7.3-.7.6c0 .3.1.5.5.5c0 0 .7.2.7.2c.8.2 1.2.6 1.2 1.3c0 .6-.5 1.3-1.6 1.3c-1.2 0-1.7-.7-1.8-1.2c0 0 .8-.3.8-.3zm3.7 1.4l0-4.3l.8 0l0 4.3l-.8 0zm.4-6.6c.3 0 .6.3.6.6c0 .3-.3.6-.6.6c-.3 0-.6-.3-.6-.6c0-.3.3-.6.6-.6zm5.1 4.4c0-1-.7-1.5-1.4-1.5c-.7 0-1.3.5-1.3 1.5c0 1 .6 1.6 1.3 1.6c.7 0 1.4-.6 1.4-1.6zm.8 0c0 1.3-.9 2.3-2.2 2.3c-1.3 0-2.2-1-2.2-2.3c0-1.3.9-2.3 2.2-2.3c1.3 0 2.2 1 2.2 2.3zm2 2.2l-.9 0l0-4.3l.8 0c0 0 .05.57 0 .6c.4-.6.9-.8 1.4-.8c1 0 1.5.8 1.5 1.7c.03.04 0 2.8 0 2.8l-.8 0c0 0-.02-2.62 0-2.6c0-.6-.3-1.1-1-1.1c-.7 0-1 .5-1 1.2c-.04-.02 0 2.5 0 2.5zm6.1-3.9c0 0 0-.1 0-.2c0-1 .7-1.9 2-1.9c1.3 0 2 .8 2 1.8c0 .8-.5 1.4-1.1 1.8c0 0-1.2.7-1.2.7c-.3.3-.6.5-.7.9c.01-.04 3 0 3 0l0 .8c0 0-4.08-.02-4.1 0c0-1 .4-1.7 1.4-2.3c0 0 1-.7 1-.7c.5-.3.8-.7.8-1.2c0-.5-.4-1-1.1-1c-.8 0-1.1.5-1.1 1.2c0 .1 0 .2 0 .2c0 0-.9-.1-.9-.1zm6.2 2.9c.2.2.5.3.9.3c.4 0 .7-.1 1-.3c.3-.4.5-1 .5-1.9c0-.9-.2-1.6-.5-1.9c-.3-.3-.6-.4-1-.4c-.4 0-.7.1-.9.4c-.3.3-.5 1-.5 1.9c0 .9.2 1.5.5 1.9zm-.9-4.1c.4-.5 1-.9 1.8-.9c.9 0 1.4.4 1.8.9c.4.6.5 1.4.5 2.2c0 .8-.1 1.5-.5 2.1c-.4.5-.9.9-1.8.9c-.8 0-1.4-.4-1.8-.9c-.3-.6-.5-1.3-.5-2.1c0-.8.2-1.6.5-2.2zm5 1.2c0 0 0-.1 0-.2c0-1 .7-1.9 2-1.9c1.2 0 2 .8 2 1.8c0 .8-.5 1.4-1.1 1.8c0 0-1.2.7-1.2.7c-.3.3-.6.5-.7.9c0-.04 3 0 3 0l0 .8c0 0-4.09-.02-4.1 0c0-1 .4-1.7 1.4-2.3c0 0 1-.7 1-.7c.5-.3.8-.7.8-1.2c0-.5-.4-1-1.1-1c-.8 0-1.2.5-1.2 1.2c0 .1.1.2.1.2c0 0-.9-.1-.9-.1zm5.5 2c.1.8.6 1.3 1.3 1.3c.7 0 1.3-.5 1.3-1.2c0-.8-.6-1.2-1.3-1.2c-.4 0-.8.1-1 .4c-.3-.1-.6-.2-.9-.4c-.01.05.8-2.9.8-2.9l3 0l0 .9l-2.5 0c0 0-.4 1.63-.4 1.6c.3-.3.7-.4 1.2-.4c1.1 0 2 .7 2 1.9c0 1.1-.9 2-2.2 2c-1.2 0-2-.8-2.1-1.7c0 0 .8-.3.8-.3z" stroke="none" fill="#144542"/></g></svg>