<?xml version="1.0" standalone="no"?><!DOCTYPE svg PUBLIC "-//W3C//DTD SVG 1.1//EN" "http://www.w3.org/Graphics/SVG/1.1/DTD/svg11.dtd"><svg xmlns="http://www.w3.org/2000/svg" version="1.1" width="34.2px" height="29.6px" viewBox="0 -3 34.2 29.6" style="top:-3px"><desc>30 %</desc><defs/><g id="Polygon166862"><path d="m2.4 5.8l2.6-2.4l-4.2 0l0-1.2l5.9 0l0 1.2c0 0-2.47 2.27-2.5 2.3c1.3 0 2.7.8 2.7 2.6c0 1.5-1.1 2.8-3.1 2.8c-2.1 0-3.2-1.3-3.3-2.7c0 0 1.3-.3 1.3-.3c0 1.1.9 1.9 1.9 1.9c1.2 0 1.9-.8 1.9-1.6c0-1.2-.9-1.7-1.8-1.7c-.3 0-.5.1-.8.2c.04-.04-.6-1.1-.6-1.1zm7.8 3.6c.4.3.8.6 1.4.6c.6 0 1.1-.3 1.4-.6c.5-.6.8-1.5.8-2.9c0-1.3-.3-2.2-.8-2.8c-.3-.3-.8-.6-1.4-.6c-.6 0-1 .3-1.4.6c-.5.6-.8 1.5-.8 2.8c0 1.4.3 2.3.8 2.9zm-1.3-6c.6-.9 1.5-1.4 2.7-1.4c1.3 0 2.1.5 2.7 1.4c.6.8.8 1.9.8 3.1c0 1.2-.2 2.4-.8 3.2c-.6.9-1.4 1.4-2.7 1.4c-1.2 0-2.1-.5-2.7-1.4c-.6-.8-.8-2-.8-3.2c0-1.2.2-2.3.8-3.1zm10.9 1.9c.6 0 1-.5 1-1.1c0-.6-.4-1.1-1-1.1c-.6 0-1 .5-1 1.1c0 .6.4 1.1 1 1.1zm0-3.2c1.2 0 2.2.9 2.2 2.1c0 1.2-1 2.1-2.2 2.1c-1.2 0-2.2-.9-2.2-2.1c0-1.2 1-2.1 2.2-2.1zm5.4 7.9c.5 0 1-.5 1-1.1c0-.6-.5-1.1-1-1.1c-.6 0-1.1.5-1.1 1.1c0 .6.5 1.1 1.1 1.1zm0-3.2c1.1 0 2.1.9 2.1 2.1c0 1.2-1 2.1-2.1 2.1c-1.2 0-2.2-.9-2.2-2.1c0-1.2 1-2.1 2.2-2.1zm-6.5 4.1l6.3-8.7l1.2 0l-6.2 8.7l-1.3 0z" stroke="none" fill="#9b78ef"/></g></svg>