<?xml version="1.0" standalone="no"?><!DOCTYPE svg PUBLIC "-//W3C//DTD SVG 1.1//EN" "http://www.w3.org/Graphics/SVG/1.1/DTD/svg11.dtd"><svg xmlns="http://www.w3.org/2000/svg" version="1.1" width="261px" height="29px" viewBox="0 -3 261 29" style="top:-3px"><desc>2# Assurer un niveau d’accompagnement et de formation lev</desc><defs/><g id="Polygon186486"><path d="m3.5 20.2c1.4 0 2.6-.9 2.6-2.8c0-1.9-1.2-2.8-2.5-2.8c-.03-.04-1.6 0-1.6 0l0 5.6c0 0 1.55-.02 1.5 0zm-2.5.9l0-7.4c0 0 2.6-.05 2.6 0c1.9 0 3.5 1.2 3.5 3.7c0 2.4-1.6 3.7-3.5 3.7c-.02-.01-2.6 0-2.6 0zm7.7 0l0-7.4l4.5 0l0 .9l-3.5 0l0 2.3l3.2 0l0 1l-3.2 0l0 2.2l3.5 0l0 1l-4.5 0zm8.8 0l0-7.4l4.5 0l0 .9l-3.5 0l0 2.4l3.2 0l0 1l-3.2 0l0 3.1l-1 0zm9.1-.8c1.4 0 2.7-1 2.7-2.9c0-2-1.3-3-2.7-3c-1.4 0-2.7 1-2.7 3c0 1.9 1.3 2.9 2.7 2.9zm0-6.8c1.9 0 3.7 1.4 3.7 3.9c0 2.5-1.8 3.9-3.7 3.9c-1.9 0-3.7-1.4-3.7-3.9c0-2.5 1.8-3.9 3.7-3.9zm7.4 4.5l-1.1 0l0 3.1l-1 0l0-7.4c0 0 2.76-.05 2.8 0c1.4 0 2.2.9 2.2 2.2c0 1-.6 1.9-1.8 2.1c.03-.02 1.8 3.1 1.8 3.1l-1.2 0l-1.7-3.1zm.5-.9c.8 0 1.4-.5 1.4-1.2c0-.8-.6-1.3-1.4-1.3c-.03-.03-1.6 0-1.6 0l0 2.5c0 0 1.57.03 1.6 0zm11 4l0-5.8l-2.6 5.8l-.9 0l-2.5-5.8l0 5.8l-1 0l0-7.4l1.4 0l2.6 6l2.6-6l1.4 0l0 7.4l-1 0zm7.3-2.1l-3.3 0l-.7 2.1l-1.1 0l2.9-7.4l1.2 0l3 7.4l-1.1 0l-.9-2.1zm-2.9-.9l2.6 0l-1.3-3.4l-1.3 3.4zm8-3.5l0 6.5l-1 0l0-6.5l-2.5 0l0-.9l6 0l0 .9l-2.5 0zm3.7 6.5l0-7.4l1 0l0 7.4l-1 0zm6.3-.8c1.4 0 2.7-1 2.7-2.9c0-2-1.3-3-2.7-3c-1.4 0-2.7 1-2.7 3c0 1.9 1.3 2.9 2.7 2.9zm0-6.8c1.8 0 3.7 1.4 3.7 3.9c0 2.5-1.9 3.9-3.7 3.9c-1.9 0-3.8-1.4-3.8-3.9c0-2.5 1.9-3.9 3.8-3.9zm10.3 7.6l-4-6.1l0 6.1l-1.1 0l0-7.4l1.4 0l3.7 5.7l0-5.7l1.1 0l0 7.4l-1.1 0zm5.7 0l0-7.4l4.5 0l0 .9l-3.5 0l0 2.3l3.2 0l0 1l-3.2 0l0 2.2l3.5 0l0 1l-4.5 0zm2.5-8l-1 0l1-1.2l1.4 0l-1.4 1.2zm3.7 8l0-7.4l1 0l0 6.4l3.5 0l0 1l-4.5 0zm5.8 0l0-7.4l4.6 0l0 .9l-3.5 0l0 2.3l3.1 0l0 1l-3.1 0l0 2.2l3.5 0l0 1l-4.6 0zm11-7.4l1.1 0l-2.9 7.4l-1 0l-2.8-7.4l1.1 0l2.2 6.1l2.3-6.1zm2.2 7.4l0-7.4l4.6 0l0 .9l-3.5 0l0 2.3l3.1 0l0 1l-3.1 0l0 2.2l3.5 0l0 1l-4.6 0zm2.5-8l-.9 0l1-1.2l1.4 0l-1.5 1.2z" stroke="none" fill="#3b6966"/></g><g id="Polygon186485"><path d="m21.4 6.4l-3.3 0l-.8 2.1l-1.1 0l3-7.4l1.1 0l3 7.4l-1.1 0l-.8-2.1zm-3-.9l2.6 0l-1.3-3.4l-1.3 3.4zm9.8-2.4c-.1-.6-.6-1.3-1.6-1.3c-.8 0-1.4.5-1.4 1.2c0 .6.3 1 .9 1.1c0 0 1.1.3 1.1.3c1.3.2 2 1 2 2c0 1.2-1 2.3-2.6 2.3c-1.8 0-2.7-1.2-2.8-2.3c0 0 1-.3 1-.3c.1.9.7 1.6 1.8 1.6c1 0 1.5-.5 1.5-1.2c0-.5-.4-1-1.1-1.1c0 0-1.1-.3-1.1-.3c-1-.2-1.8-.9-1.8-2c0-1.2 1.1-2.2 2.5-2.2c1.7 0 2.3 1 2.5 1.8c0 0-.9.4-.9.4zm6.3 0c-.1-.6-.5-1.3-1.6-1.3c-.8 0-1.4.5-1.4 1.2c0 .6.3 1 .9 1.1c0 0 1.2.3 1.2.3c1.2.2 1.9 1 1.9 2c0 1.2-1 2.3-2.6 2.3c-1.8 0-2.6-1.2-2.8-2.3c0 0 1-.3 1-.3c.1.9.7 1.6 1.8 1.6c1 0 1.5-.5 1.5-1.2c0-.5-.3-1-1.1-1.1c0 0-1-.3-1-.3c-1.1-.2-1.8-.9-1.8-2c0-1.2 1-2.2 2.4-2.2c1.7 0 2.4 1 2.5 1.8c0 0-.9.4-.9.4zm2.4 2.9c-.05-.05 0-4.9 0-4.9l1 0c0 0-.03 4.82 0 4.8c0 1.2.6 1.8 1.6 1.8c1.1 0 1.7-.6 1.7-1.8c-.02.02 0-4.8 0-4.8l1 0c0 0 .01 4.85 0 4.9c0 1.7-1.2 2.7-2.7 2.7c-1.5 0-2.6-1-2.6-2.7zm9.4-.6l-1.2 0l0 3.1l-1 0l0-7.4c0 0 2.8-.05 2.8 0c1.4 0 2.3.9 2.3 2.2c0 1-.7 1.9-1.8 2.1c-.02-.02 1.7 3.1 1.7 3.1l-1.1 0l-1.7-3.1zm.4-.9c.9 0 1.4-.5 1.4-1.2c0-.8-.5-1.3-1.4-1.3c.01-.03-1.6 0-1.6 0l0 2.5c0 0 1.61.03 1.6 0zm4 4l0-7.4l4.5 0l0 .9l-3.5 0l0 2.3l3.2 0l0 1l-3.2 0l0 2.2l3.5 0l0 1l-4.5 0zm8.4-3.1l-1.2 0l0 3.1l-1 0l0-7.4c0 0 2.81-.05 2.8 0c1.4 0 2.3.9 2.3 2.2c0 1-.7 1.9-1.8 2.1c-.01-.02 1.8 3.1 1.8 3.1l-1.2 0l-1.7-3.1zm.4-.9c.9 0 1.4-.5 1.4-1.2c0-.8-.5-1.3-1.4-1.3c.02-.03-1.6 0-1.6 0l0 2.5c0 0 1.62.03 1.6 0zm6.5 1.5c.03-.05 0-4.9 0-4.9l1.1 0c0 0-.05 4.82 0 4.8c0 1.2.6 1.8 1.6 1.8c1.1 0 1.7-.6 1.7-1.8c-.04.02 0-4.8 0-4.8l1 0c0 0-.01 4.85 0 4.9c0 1.7-1.2 2.7-2.7 2.7c-1.5 0-2.7-1-2.7-2.7zm12.3 2.5l-4-6.1l0 6.1l-1 0l0-7.4l1.4 0l3.7 5.7l0-5.7l1 0l0 7.4l-1.1 0zm10.8 0l-4.1-6.1l0 6.1l-1 0l0-7.4l1.4 0l3.7 5.7l0-5.7l1 0l0 7.4l-1 0zm3 0l0-7.4l1.1 0l0 7.4l-1.1 0zm7.8-7.4l1.1 0l-2.8 7.4l-1.1 0l-2.8-7.4l1.1 0l2.3 6.1l2.2-6.1zm2.3 7.4l0-7.4l4.5 0l0 .9l-3.5 0l0 2.3l3.2 0l0 1l-3.2 0l0 2.2l3.5 0l0 1l-4.5 0zm10.5-2.1l-3.3 0l-.7 2.1l-1.2 0l3-7.4l1.2 0l3 7.4l-1.2 0l-.8-2.1zm-2.9-.9l2.6 0l-1.3-3.4l-1.3 3.4zm5.8.5c-.05-.05 0-4.9 0-4.9l1 0c0 0-.03 4.82 0 4.8c0 1.2.6 1.8 1.6 1.8c1.1 0 1.7-.6 1.7-1.8c-.02.02 0-4.8 0-4.8l1 0c0 0 0 4.85 0 4.9c0 1.7-1.2 2.7-2.7 2.7c-1.5 0-2.6-1-2.6-2.7zm12.4 1.6c1.3 0 2.5-.9 2.5-2.8c0-1.9-1.1-2.8-2.5-2.8c-.01-.04-1.6 0-1.6 0l0 5.6c0 0 1.57-.02 1.6 0zm-2.6.9l0-7.4c0 0 2.62-.05 2.6 0c1.9 0 3.6 1.2 3.6 3.7c0 2.4-1.7 3.7-3.6 3.7c0-.01-2.6 0-2.6 0zm7.7-7.5c.4 0 .8.3.8.9c0 1.3-.8 1.8-1.4 1.9c0 0 0-.5 0-.5c.4-.1.8-.6.8-1.1c-.1 0-.1.1-.2.1c-.4 0-.7-.3-.7-.7c0-.3.3-.6.7-.6zm5.4 5.4l-3.3 0l-.8 2.1l-1.1 0l3-7.4l1.2 0l2.9 7.4l-1.1 0l-.8-2.1zm-2.9-.9l2.6 0l-1.3-3.4l-1.3 3.4zm5.3-.7c0-2.5 1.8-3.9 3.7-3.9c1.7 0 2.9.9 3.2 2.4c0 0-.9.3-.9.3c-.3-1.1-1.1-1.8-2.3-1.8c-1.4 0-2.7 1-2.7 3c0 1.9 1.3 2.9 2.7 2.9c1.2 0 2-.8 2.3-1.8c0 0 .9.4.9.4c-.4 1.4-1.5 2.4-3.2 2.4c-2 0-3.7-1.4-3.7-3.9zm7.8 0c0-2.5 1.9-3.9 3.7-3.9c1.7 0 2.9.9 3.3 2.4c0 0-.9.3-.9.3c-.3-1.1-1.1-1.8-2.4-1.8c-1.3 0-2.6 1-2.6 3c0 1.9 1.3 2.9 2.6 2.9c1.3 0 2.1-.8 2.4-1.8c0 0 .9.4.9.4c-.4 1.4-1.6 2.4-3.3 2.4c-1.9 0-3.7-1.4-3.7-3.9zm11.7 2.9c1.3 0 2.6-1 2.6-2.9c0-2-1.3-3-2.6-3c-1.4 0-2.7 1-2.7 3c0 1.9 1.3 2.9 2.7 2.9zm0-6.8c1.8 0 3.7 1.4 3.7 3.9c0 2.5-1.9 3.9-3.7 3.9c-1.9 0-3.8-1.4-3.8-3.9c0-2.5 1.9-3.9 3.8-3.9zm12.2 7.6l0-5.8l-2.5 5.8l-.9 0l-2.6-5.8l0 5.8l-1 0l0-7.4l1.4 0l2.6 6l2.7-6l1.4 0l0 7.4l-1.1 0zm5.6-4c.9 0 1.4-.5 1.4-1.2c0-.8-.5-1.3-1.4-1.3c-.03-.03-1.5 0-1.5 0l0 2.5c0 0 1.47.03 1.5 0zm-1.5.9l0 3.1l-1 0l0-7.4c0 0 2.66-.05 2.7 0c1.3 0 2.3.9 2.3 2.2c0 1.2-1 2.1-2.3 2.1c-.04.05-1.7 0-1.7 0zm9 1l-3.3 0l-.7 2.1l-1.1 0l2.9-7.4l1.2 0l3 7.4l-1.1 0l-.9-2.1zm-2.9-.9l2.6 0l-1.3-3.4l-1.3 3.4zm11.4 3c0 0-.12-1.06-.1-1.1c-.3.6-1.2 1.3-2.4 1.3c-1.9 0-3.6-1.4-3.6-3.9c0-2.6 1.8-3.9 3.7-3.9c1.6 0 2.8.9 3.3 2.2c0 0-1 .4-1 .4c-.3-1-1.2-1.7-2.3-1.7c-1.4 0-2.7 1-2.7 3c0 1.9 1.3 2.9 2.6 2.9c1.7 0 2.3-1.2 2.3-1.9c.03-.03-2.6 0-2.6 0l0-.9l3.6 0l0 3.6l-.8 0zm7.5 0l-4-6.1l0 6.1l-1 0l0-7.4l1.4 0l3.7 5.7l0-5.7l1 0l0 7.4l-1.1 0zm3.1 0l0-7.4l4.5 0l0 .9l-3.5 0l0 2.3l3.2 0l0 1l-3.2 0l0 2.2l3.5 0l0 1l-4.5 0zm13.2 0l0-5.8l-2.5 5.8l-.9 0l-2.6-5.8l0 5.8l-1 0l0-7.4l1.4 0l2.6 6l2.7-6l1.4 0l0 7.4l-1.1 0zm3.1 0l0-7.4l4.5 0l0 .9l-3.5 0l0 2.3l3.2 0l0 1l-3.2 0l0 2.2l3.5 0l0 1l-4.5 0zm11.2 0l-4-6.1l0 6.1l-1 0l0-7.4l1.3 0l3.8 5.7l0-5.7l1 0l0 7.4l-1.1 0zm5.8-6.5l0 6.5l-1.1 0l0-6.5l-2.5 0l0-.9l6 0l0 .9l-2.4 0zm6.2 6.5l0-7.4l4.5 0l0 .9l-3.5 0l0 2.3l3.2 0l0 1l-3.2 0l0 2.2l3.5 0l0 1l-4.5 0zm8.9-6.5l0 6.5l-1 0l0-6.5l-2.5 0l0-.9l6 0l0 .9l-2.5 0z" stroke="none" fill="#3b6966"/></g><g id="Polygon186484"><path d="m.4 4.2c0-.1 0-.3 0-.4c0-1.2.9-2.3 2.4-2.3c1.5 0 2.4 1 2.4 2.2c0 .9-.5 1.6-1.3 2.1c0 0-1.3.8-1.3.8c-.3.2-.6.4-.7.8c0-.02 3.4 0 3.4 0l0 1.1c0 0-4.95-.01-5 0c.1-1.2.5-2.1 1.7-2.8c0 0 1.1-.7 1.1-.7c.6-.4.9-.8.9-1.3c0-.6-.4-1.1-1.2-1.1c-.8 0-1.2.6-1.2 1.3c0 .1 0 .2.1.3c0 0-1.3 0-1.3 0zm6.2-.8l1.5 0l.4-1.7l1 0l-.4 1.7l1.5 0l.3-1.7l1 0l-.3 1.7l1.3 0l0 .9l-1.5 0l-.4 1.6l1.4 0l0 .9l-1.6 0l-.3 1.7l-1 0l.3-1.7l-1.4 0l-.4 1.7l-1 0l.4-1.7l-1.3 0l0-.9l1.5 0l.3-1.6l-1.3 0l0-.9zm2 2.5l1.4 0l.4-1.6l-1.5 0l-.3 1.6z" stroke="none" fill="#144542"/></g></svg>