<?xml version="1.0" standalone="no"?><!DOCTYPE svg PUBLIC "-//W3C//DTD SVG 1.1//EN" "http://www.w3.org/Graphics/SVG/1.1/DTD/svg11.dtd"><svg xmlns="http://www.w3.org/2000/svg" version="1.1" width="44px" height="21.8px" viewBox="0 -3 44 21.8" style="top:-3px"><desc>Woork</desc><defs/><g id="Polygon182121"><path d="m12.9 1.5l1.4 0l-2.9 10.2l-1.5 0l-2.6-8.3l-2.7 8.3l-1.4 0l-3-10.2l1.5 0l2.2 8l2.6-8l1.5 0l2.7 8.1l2.2-8.1zm7.5 6.7c0-1.6-1-2.4-2.2-2.4c-1.2 0-2.2.8-2.2 2.4c0 1.7 1 2.5 2.2 2.5c1.2 0 2.2-.8 2.2-2.5zm1.4 0c0 2.2-1.5 3.7-3.6 3.7c-2.1 0-3.6-1.5-3.6-3.7c0-2.1 1.5-3.7 3.6-3.7c2.1 0 3.6 1.6 3.6 3.7zm6.9 0c0-1.6-1-2.4-2.2-2.4c-1.2 0-2.2.8-2.2 2.4c0 1.7 1 2.5 2.2 2.5c1.2 0 2.2-.8 2.2-2.5zm1.4 0c0 2.2-1.5 3.7-3.6 3.7c-2.1 0-3.6-1.5-3.6-3.7c0-2.1 1.5-3.7 3.6-3.7c2.1 0 3.6 1.6 3.6 3.7zm5.6-2.1c-.2 0-.4 0-.6 0c-1.2 0-1.9.6-1.9 2.1c-.04.04 0 3.5 0 3.5l-1.4 0l0-6.9l1.3 0c0 0 .03 1.17 0 1.2c.5-1.1 1.4-1.4 2.1-1.4c.2 0 .4.1.5.1c0 0 0 1.4 0 1.4zm4.7 1.6l3 4l-1.7 0l-2.3-3l-.9.9l0 2.1l-1.4 0l0-10.5l1.4 0l0 6.6l3-3l1.9 0l-3 2.9z" stroke="none" fill="#144542"/></g></svg>