<?xml version="1.0" standalone="no"?><!DOCTYPE svg PUBLIC "-//W3C//DTD SVG 1.1//EN" "http://www.w3.org/Graphics/SVG/1.1/DTD/svg11.dtd"><svg xmlns="http://www.w3.org/2000/svg" version="1.1" width="63px" height="21.8px" viewBox="0 -3 63 21.8" style="top:-3px"><desc>niveau 2</desc><defs/><g id="Polygon169053"><path d="m.7 8.2l0-1.2l3.9 0l0 1.2l-3.9 0zm13.2 3.5l-3.9-5.8l0 5.8l-.9 0l0-7.2l1.3 0l3.6 5.6l0-5.6l1 0l0 7.2l-1.1 0zm2.9 0l0-7.2l1 0l0 7.2l-1 0zm7.4-7.2l1.1 0l-2.8 7.2l-1 0l-2.7-7.2l1.1 0l2.2 6l2.1-6zm2.1 7.2l0-7.2l4.4 0l0 1l-3.4 0l0 2.2l3.1 0l0 .9l-3.1 0l0 2.2l3.4 0l0 .9l-4.4 0zm10.1-2l-3.2 0l-.7 2l-1.1 0l2.8-7.2l1.2 0l2.9 7.2l-1.1 0l-.8-2zm-2.8-.9l2.4 0l-1.2-3.2l-1.2 3.2zm5.4.5c.02-.03 0-4.8 0-4.8l1 0c0 0 .01 4.74 0 4.7c0 1.1.6 1.8 1.6 1.8c1 0 1.6-.7 1.6-1.8c0 .04 0-4.7 0-4.7l1 0c0 0-.01 4.77 0 4.8c0 1.7-1.1 2.6-2.6 2.6c-1.5 0-2.6-.9-2.6-2.6zm10.3-3.8c-.1-.1-.1-.2-.1-.3c0-1.6 1.2-3.1 3.3-3.1c2 0 3.2 1.3 3.2 2.9c0 1.2-.7 2.2-1.8 2.9c0 0-1.9 1.2-1.9 1.2c-.5.3-1 .7-1.1 1.3c-.01.01 4.8 0 4.8 0l0 1.3c0 0-6.56.03-6.6 0c.1-1.5.7-2.7 2.3-3.7c0 0 1.5-1 1.5-1c.9-.6 1.3-1.3 1.3-2c0-.8-.5-1.6-1.7-1.6c-1.3 0-1.9.8-1.9 1.9c0 .1.1.3.1.4c0 0-1.4-.2-1.4-.2z" stroke="none" fill="#9b78ef"/></g></svg>