<?xml version="1.0" standalone="no"?><!DOCTYPE svg PUBLIC "-//W3C//DTD SVG 1.1//EN" "http://www.w3.org/Graphics/SVG/1.1/DTD/svg11.dtd"><svg xmlns="http://www.w3.org/2000/svg" version="1.1" width="189px" height="84.6px" viewBox="0 -12 189 84.6" style="top:-12px"><desc>1 100</desc><defs/><g id="Polygon176392"><path d="m49.5 18l11.5-7.5c0 0-.03 20.7 0 20.7c0 2.9 1.6 3.5 2.2 3.7c-.02.04 0 .9 0 .9l-12.3 0c0 0-.01-.86 0-.9c.8-.2 2.4-.8 2.4-3.7c0 0 0-9.1 0-9.1c0-3.1-2.4-3.6-3.8-3.1c-.05.01 0-1 0-1zm22 0l11.5-7.5c0 0 0 20.7 0 20.7c0 2.9 1.6 3.5 2.2 3.7c.01.04 0 .9 0 .9l-12.3 0c0 0 .02-.86 0-.9c.8-.2 2.5-.8 2.5-3.7c0 0 0-9.1 0-9.1c0-3.1-2.5-3.6-3.9-3.1c-.02.01 0-1 0-1zm15.9 5.8c0-7 5-12.7 12.4-12.7c7.9 0 12.3 5.7 12.3 12.7c0 6.9-4.4 12.6-12.3 12.6c-7.4 0-12.4-5.7-12.4-12.6zm16.4 0c0-5.8-.3-11.6-4-11.6c-3.7 0-4 5.8-4 11.6c0 5.7.3 11.5 4 11.5c3.7 0 4-5.8 4-11.5zm10.8 0c0-7 5-12.7 12.4-12.7c7.9 0 12.4 5.7 12.4 12.7c0 6.9-4.5 12.6-12.4 12.6c-7.4 0-12.4-5.7-12.4-12.6zm16.4 0c0-5.8-.3-11.6-4-11.6c-3.7 0-4 5.8-4 11.6c0 5.7.3 11.5 4 11.5c3.7 0 4-5.8 4-11.5z" stroke="none" fill="#144542"/></g></svg>