<?xml version="1.0" standalone="no"?><!DOCTYPE svg PUBLIC "-//W3C//DTD SVG 1.1//EN" "http://www.w3.org/Graphics/SVG/1.1/DTD/svg11.dtd"><svg xmlns="http://www.w3.org/2000/svg" version="1.1" width="142.4px" height="35.8px" viewBox="0 -3 142.4 35.8" style="top:-3px"><desc>Co ts publics vit s</desc><defs/><g id="Polygon180089"><path d="m.7 6.6c0-3.5 2.5-5.4 5.1-5.4c2.3 0 4 1.3 4.5 3.3c0 0-1.3.5-1.3.5c-.4-1.6-1.6-2.5-3.2-2.5c-1.9 0-3.7 1.4-3.7 4.1c0 2.7 1.8 4 3.7 4c1.7 0 2.8-1 3.2-2.4c0 0 1.3.4 1.3.4c-.6 2-2.2 3.3-4.5 3.3c-2.7 0-5.1-1.9-5.1-5.3zm16.2 1.6c0-1.6-1-2.4-2.2-2.4c-1.1 0-2.1.8-2.1 2.4c0 1.7 1 2.5 2.1 2.5c1.2 0 2.2-.8 2.2-2.5zm1.4 0c0 2.2-1.5 3.7-3.6 3.7c-2.1 0-3.5-1.5-3.5-3.7c0-2.1 1.4-3.7 3.5-3.7c2.1 0 3.6 1.6 3.6 3.7zm6.3 2.7c-.4.7-1.3 1-2.1 1c-1.6 0-2.6-1.2-2.6-2.7c0-.05 0-4.4 0-4.4l1.4 0c0 0-.04 4.15 0 4.1c0 1 .4 1.8 1.5 1.8c1.1 0 1.7-.7 1.7-1.7c-.01-.04 0-4.2 0-4.2l1.4 0c0 0-.05 5.64 0 5.6c0 .6 0 1.1 0 1.3c0 0-1.3 0-1.3 0c0-.1 0-.5 0-.8c0 0 0 0 0 0zm-4-7.1l1.5-2l1.5 0l1.6 2l-1.3 0l-1-1.1l-1 1.1l-1.3 0zm9.4 1l1.5 0l0 1.2l-1.5 0c0 0 0 3.61 0 3.6c0 .7.3 1 1 1c.1 0 .4-.1.5-.1c0 0 0 1.2 0 1.2c-.1 0-.5.1-.9.1c-1.2 0-2-.7-2-2c.04.02 0-3.8 0-3.8l-1.3 0l0-1.2c0 0 .38-.04.4 0c.7 0 1.1-.5 1.1-1.1c-.05-.02 0-1.1 0-1.1l1.2 0l0 2.2zm4 4.7c.1.7.6 1.3 1.6 1.3c.8 0 1.2-.4 1.2-.9c0-.5-.3-.8-.9-.9c0 0-1.2-.3-1.2-.3c-1.1-.2-1.7-1-1.7-2c0-1.1 1.1-2.2 2.4-2.2c2 0 2.5 1.3 2.7 1.9c0 0-1.2.5-1.2.5c-.1-.4-.4-1.2-1.5-1.2c-.7 0-1.1.4-1.1.9c0 .4.2.8.8.9c0 0 1.1.2 1.1.2c1.3.3 1.9 1.1 1.9 2.1c0 1-.8 2.1-2.5 2.1c-1.9 0-2.7-1.2-2.9-2c0 0 1.3-.4 1.3-.4zm9.6 5l0-9.7l1.3 0c0 0-.01 1.04 0 1c.4-.7 1.2-1.2 2.3-1.2c2.1 0 3.2 1.6 3.2 3.6c0 2.1-1.2 3.7-3.2 3.7c-1.1 0-1.9-.5-2.3-1.1c.02-.01 0 3.7 0 3.7l-1.3 0zm5.4-6.3c0-1.4-.7-2.4-2-2.4c-1.3 0-2.1 1-2.1 2.4c0 1.5.8 2.5 2.1 2.5c1.2 0 2-1 2-2.5c0 0 0 0 0 0zm7.7 2.7c-.4.7-1.3 1-2.1 1c-1.6 0-2.6-1.2-2.6-2.7c.03-.05 0-4.4 0-4.4l1.4 0c0 0-.01 4.15 0 4.1c0 1 .4 1.8 1.6 1.8c1.1 0 1.6-.7 1.6-1.7c.02-.04 0-4.2 0-4.2l1.4 0c0 0-.02 5.64 0 5.6c0 .6 0 1.1.1 1.3c0 0-1.3 0-1.3 0c-.1-.1-.1-.5-.1-.8c0 0 0 0 0 0zm3.6.8l0-10.5l1.4 0c0 0-.05 4.54 0 4.5c.3-.6 1.1-1.1 2.3-1.1c2.1 0 3.2 1.6 3.2 3.6c0 2.1-1.2 3.7-3.3 3.7c-1 0-1.8-.4-2.2-1.2c-.05.02 0 1 0 1l-1.4 0zm3.4-5.9c-1.2 0-2.1.9-2.1 2.4c0 1.5.9 2.5 2.1 2.5c1.3 0 2.1-1 2.1-2.5c0-1.5-.8-2.4-2.1-2.4zm5.2 5.9l0-10.5l1.4 0l0 10.5l-1.4 0zm3.7 0l0-6.9l1.3 0l0 6.9l-1.3 0zm.7-10.6c.5 0 .9.5.9 1c0 .6-.4 1-.9 1c-.6 0-1-.4-1-1c0-.5.4-1 1-1zm3.8 7.1c0 1.6 1 2.5 2.1 2.5c1.3 0 1.8-.9 1.9-1.4c0 0 1.2.5 1.2.5c-.3 1-1.3 2.1-3.1 2.1c-2 0-3.5-1.5-3.5-3.7c0-2.1 1.5-3.7 3.5-3.7c1.8 0 2.8 1.2 3.1 2.3c0 0-1.2.5-1.2.5c-.2-.7-.7-1.5-1.9-1.5c-1.1 0-2.1.8-2.1 2.4zm7.4 1.3c.1.7.7 1.3 1.6 1.3c.8 0 1.2-.4 1.2-.9c0-.5-.3-.8-.9-.9c0 0-1.2-.3-1.2-.3c-1-.2-1.7-1-1.7-2c0-1.1 1.1-2.2 2.5-2.2c1.9 0 2.5 1.3 2.6 1.9c0 0-1.2.5-1.2.5c0-.4-.3-1.2-1.4-1.2c-.7 0-1.2.4-1.2.9c0 .4.3.8.8.9c0 0 1.2.2 1.2.2c1.2.3 1.9 1.1 1.9 2.1c0 1-.8 2.1-2.6 2.1c-1.9 0-2.7-1.2-2.8-2c0 0 1.2-.4 1.2-.4zm14.3-2c0-1-.7-1.8-1.9-1.8c-1.1 0-1.8.9-1.9 1.8c0 0 3.8 0 3.8 0zm1.4 2.2c-.4 1.3-1.5 2.2-3.1 2.2c-1.9 0-3.5-1.3-3.5-3.7c0-2.2 1.5-3.7 3.3-3.7c2.1 0 3.3 1.5 3.3 3.7c0 .2 0 .3 0 .4c0 0-5.2 0-5.2 0c0 1.3.9 2.1 2.1 2.1c1.1 0 1.7-.6 1.9-1.4c0 0 1.2.4 1.2.4zm-2.8-5.8l-1.1 0l1.3-2.2l1.7 0l-1.9 2.2zm7.6 7.8l-1.4 0l-2.8-6.9l1.6 0l1.9 5.3l2-5.3l1.5 0l-2.8 6.9zm4.1 0l0-6.9l1.4 0l0 6.9l-1.4 0zm.7-10.6c.5 0 1 .5 1 1c0 .6-.5 1-1 1c-.6 0-1-.4-1-1c0-.5.4-1 1-1zm4.8 3.7l1.5 0l0 1.2l-1.5 0c0 0 .01 3.61 0 3.6c0 .7.3 1 1 1c.2 0 .4-.1.5-.1c0 0 0 1.2 0 1.2c-.1 0-.4.1-.9.1c-1.2 0-2-.7-2-2c.04.02 0-3.8 0-3.8l-1.3 0l0-1.2c0 0 .39-.04.4 0c.7 0 1.1-.5 1.1-1.1c-.04-.02 0-1.1 0-1.1l1.2 0l0 2.2zm8 2.7c-.1-1-.7-1.8-2-1.8c-1.1 0-1.8.9-1.9 1.8c0 0 3.9 0 3.9 0zm1.3 2.2c-.4 1.3-1.5 2.2-3.1 2.2c-1.9 0-3.5-1.3-3.5-3.7c0-2.2 1.6-3.7 3.3-3.7c2.2 0 3.4 1.5 3.4 3.7c0 .2 0 .3-.1.4c0 0-5.2 0-5.2 0c0 1.3.9 2.1 2.1 2.1c1.1 0 1.7-.6 2-1.4c0 0 1.1.4 1.1.4zm-2.7-5.8l-1.2 0l1.3-2.2l1.7 0l-1.8 2.2zm5.1 5.6c.1.7.6 1.3 1.6 1.3c.8 0 1.2-.4 1.2-.9c0-.5-.3-.8-.9-.9c0 0-1.2-.3-1.2-.3c-1.1-.2-1.7-1-1.7-2c0-1.1 1.1-2.2 2.5-2.2c1.9 0 2.5 1.3 2.6 1.9c0 0-1.2.5-1.2.5c0-.4-.3-1.2-1.4-1.2c-.7 0-1.2.4-1.2.9c0 .4.3.8.8.9c0 0 1.1.2 1.1.2c1.3.3 2 1.1 2 2.1c0 1-.9 2.1-2.6 2.1c-1.9 0-2.7-1.2-2.8-2c0 0 1.2-.4 1.2-.4z" stroke="none" fill="#ffaf7a"/></g></svg>