<?xml version="1.0" standalone="no"?><!DOCTYPE svg PUBLIC "-//W3C//DTD SVG 1.1//EN" "http://www.w3.org/Graphics/SVG/1.1/DTD/svg11.dtd"><svg xmlns="http://www.w3.org/2000/svg" version="1.1" width="507.4px" height="109.8px" viewBox="0 -4 507.4 109.8" style="top:-4px"><desc>03</desc><defs/><g class="svg-textframe-underlines"><rect class="svg-underline" x="242.1" y="17.7" width="23.2" height="1" style="fill:#fff;"/></g><g id="Polygon179030"><path d="m246.2 13.9c.5.5 1.1.8 2 .8c.9 0 1.6-.3 2.1-.8c.8-.8 1.1-2.2 1.1-4.2c0-2-.3-3.4-1.1-4.2c-.5-.5-1.2-.8-2.1-.8c-.9 0-1.5.3-2 .8c-.8.8-1.2 2.2-1.2 4.2c0 2 .4 3.4 1.2 4.2zm-2-8.9c.9-1.3 2.2-2.1 4-2.1c1.9 0 3.2.8 4 2.1c.9 1.3 1.2 2.9 1.2 4.7c0 1.8-.3 3.4-1.2 4.7c-.8 1.3-2.1 2.1-4 2.1c-1.8 0-3.1-.8-4-2.1c-.8-1.3-1.1-2.9-1.1-4.7c0-1.8.3-3.4 1.1-4.7zm13.6 3.5l3.8-3.5l-6.2 0l0-1.8l8.8 0l0 1.8c0 0-3.68 3.4-3.7 3.4c1.9 0 4 1.3 4 3.9c0 2.2-1.7 4.2-4.7 4.2c-3 0-4.7-2-4.8-4.1c0 0 1.9-.4 1.9-.4c.1 1.7 1.3 2.8 2.9 2.8c1.8 0 2.7-1.1 2.7-2.4c0-1.7-1.3-2.4-2.6-2.4c-.4 0-.8 0-1.1.2c-.04-.04-1-1.7-1-1.7z" stroke="none" fill="#fff"/></g></svg>