<?xml version="1.0" standalone="no"?><!DOCTYPE svg PUBLIC "-//W3C//DTD SVG 1.1//EN" "http://www.w3.org/Graphics/SVG/1.1/DTD/svg11.dtd"><svg xmlns="http://www.w3.org/2000/svg" version="1.1" width="116.2px" height="154.3px" viewBox="0 -3 116.2 154.3" style="top:-3px"><desc>Irene Etende Ngondji — Charg e d’Affaires Cash Management Junior chez BNP Paribas Repr sentante alumni</desc><defs/><g id="Polygon184296"><path d="m3.6 109.8l-1.5 0l-.7 3.5l-1.2 0l1.8-8.5c0 0 2.74-.01 2.7 0c1.5 0 2.4.9 2.4 2.1c0 1.5-1 2.5-2.3 2.8c0-.02 1.4 3.6 1.4 3.6l-1.3 0l-1.3-3.5zm.4-1.1c1.1 0 1.9-.6 1.9-1.7c0-.7-.5-1.2-1.4-1.2c.05.03-1.6 0-1.6 0l-.6 2.9c0 0 1.68.02 1.7 0zm7.7 1.1c0 0 0-.1 0-.2c0-.6-.3-1.3-1.3-1.3c-.9 0-1.6.8-1.8 1.5c0 0 3.1 0 3.1 0zm-3.2.9c-.1.1-.1.2-.1.2c0 1 .7 1.6 1.5 1.6c.9 0 1.5-.5 1.7-1c0 0 .9.6.9.6c-.4.7-1.4 1.4-2.6 1.4c-1.4 0-2.6-.9-2.6-2.7c0-2.1 1.6-3.5 3.2-3.5c1.5 0 2.4 1 2.4 2.4c0 .4-.1.8-.2 1c0 0-4.2 0-4.2 0zm6.6.1c0 1.1.6 1.6 1.4 1.6c1 0 2-.9 2-2.4c0-1-.5-1.6-1.5-1.6c-1 0-1.9.9-1.9 2.4zm2.3-3.4c1.5 0 2.2 1.1 2.2 2.4c0 2.1-1.2 3.6-3 3.6c-.8 0-1.5-.3-1.9-1c.02.01-.6 3.2-.6 3.2l-1.2 0c0 0 1.54-7.06 1.5-7.1c.1-.5.2-.9.2-1c0 0 1.1 0 1.1 0c0 .1 0 .4-.1.7c.4-.6 1.1-.8 1.8-.8zm6.7 1.2c-1 0-1.7.6-2 2c-.02-.04-.6 2.7-.6 2.7l-1.1 0c0 0 .98-4.76 1-4.8c.1-.5.1-.9.1-1c0 0 1.1 0 1.1 0c0 .3 0 .7-.1.9c.5-.7 1.3-1 1.9-1c.1 0 .3 0 .3.1c0 0-.2 1.2-.2 1.2c-.2 0-.3-.1-.4-.1zm4.4-1.8l-1.1 0l1.4-1.8l1.5 0l-1.8 1.8zm.7 3c0 0 0-.1 0-.2c0-.6-.3-1.3-1.3-1.3c-1 0-1.6.8-1.8 1.5c0 0 3.1 0 3.1 0zm-3.3.9c0 .1 0 .2 0 .2c0 1 .7 1.6 1.5 1.6c.9 0 1.4-.5 1.7-1c0 0 .9.6.9.6c-.5.7-1.4 1.4-2.6 1.4c-1.4 0-2.6-.9-2.6-2.7c0-2.1 1.6-3.5 3.2-3.5c1.5 0 2.4 1 2.4 2.4c0 .4-.1.8-.2 1c0 0-4.3 0-4.3 0zm6 .6c0 .7.5 1.2 1.3 1.2c.6 0 .9-.4.9-.8c0-.2-.2-.5-.6-.6c0 0-.8-.4-.8-.4c-.7-.3-1-.8-1-1.5c0-1 .8-1.9 2.1-1.9c1.5 0 2 1.1 2 1.7c0 0-1 .3-1 .3c0-.5-.3-1-1.1-1c-.6 0-.9.3-.9.7c0 .4.1.6.4.7c0 0 .8.4.8.4c.8.3 1.2.9 1.2 1.6c0 .7-.6 1.8-2.1 1.8c-1.6 0-2.2-1.2-2.2-2c0 0 1-.2 1-.2zm8.9-1.5c0 0 0-.1 0-.2c0-.6-.3-1.3-1.3-1.3c-.9 0-1.6.8-1.8 1.5c0 0 3.1 0 3.1 0zm-3.2.9c0 .1 0 .2 0 .2c0 1 .6 1.6 1.4 1.6c.9 0 1.5-.5 1.7-1c0 0 .9.6.9.6c-.4.7-1.4 1.4-2.6 1.4c-1.4 0-2.6-.9-2.6-2.7c0-2.1 1.6-3.5 3.2-3.5c1.6 0 2.4 1 2.4 2.4c0 .4-.1.8-.2 1c0 0-4.2 0-4.2 0zm8.8 2.6c0 0 .77-3.5.8-3.5c0-.1 0-.3 0-.4c0-.7-.3-1.1-1-1.1c-.9 0-1.5.9-1.6 1.6c-.04.03-.8 3.4-.8 3.4l-1.1 0c0 0 1.02-4.76 1-4.8c.1-.5.2-1 .2-1c0 0 1.1 0 1.1 0c0 .1-.1.4-.1.7c.4-.6 1.1-.8 1.8-.8c1 0 1.7.6 1.7 1.7c0 .1 0 .3-.1.5c.03.03-.7 3.7-.7 3.7l-1.2 0zm3.4-1.7c-.04.04.6-3.1.6-3.1l-1 0l.2-1c0 0 .15.02.2 0c.6 0 1-.3 1.1-.9c.04-.01.2-.9.2-.9l1.1 0l-.4 1.8l1.1 0l-.2 1l-1.1 0c0 0-.69 3.08-.7 3.1c0 .1 0 .2 0 .3c0 .3.2.5.6.5c.2 0 .3 0 .4-.1c0 0-.2 1-.2 1c0 0-.2.1-.6.1c-.8 0-1.4-.5-1.4-1.3c0-.2 0-.3.1-.5zm4.5-.7c0 .9.5 1.5 1.4 1.5c1.1 0 1.9-1.1 1.9-2.6c0-.8-.4-1.5-1.4-1.5c-1.2 0-1.9 1.4-1.9 2.6zm5-3.4c0 0-.95 4.29-.9 4.3c-.2.6-.2 1.1-.2 1.3c0 0 0 .1 0 .2c0 0-1 0-1 0c0-.1-.1-.2-.1-.3c0-.1 0-.3.1-.4c-.4.4-1 .8-1.7.8c-1.5 0-2.3-1.1-2.3-2.5c0-1.9 1.2-3.5 3-3.5c1 0 1.5.4 1.8.9c-.02-.04.1-.8.1-.8l1.2 0zm4.3 5.8c0 0 .78-3.5.8-3.5c0-.1 0-.3 0-.4c0-.7-.3-1.1-1-1.1c-.9 0-1.5.9-1.6 1.6c-.04.03-.8 3.4-.8 3.4l-1.1 0c0 0 1.02-4.76 1-4.8c.1-.5.2-1 .2-1c0 0 1.1 0 1.1 0c0 .1-.1.4-.1.7c.4-.6 1.1-.8 1.8-.8c1 0 1.7.6 1.7 1.7c0 .1 0 .3-.1.5c.04.03-.7 3.7-.7 3.7l-1.2 0zm3.4-1.7c-.03.04.6-3.1.6-3.1l-1 0l.2-1c0 0 .16.02.2 0c.6 0 1-.3 1.1-.9c.05-.01.2-.9.2-.9l1.1 0l-.4 1.8l1.1 0l-.2 1l-1.1 0c0 0-.68 3.08-.7 3.1c0 .1 0 .2 0 .3c0 .3.2.5.6.5c.2 0 .3 0 .4-.1c0 0-.2 1-.2 1c0 0-.2.1-.6.1c-.8 0-1.4-.5-1.4-1.3c0-.2 0-.3.1-.5zm7.7-1.8c.1 0 .1-.1.1-.2c0-.6-.4-1.3-1.3-1.3c-1 0-1.6.8-1.8 1.5c0 0 3 0 3 0zm-3.2.9c0 .1 0 .2 0 .2c0 1 .7 1.6 1.5 1.6c.9 0 1.4-.5 1.7-1c0 0 .8.6.8.6c-.4.7-1.3 1.4-2.5 1.4c-1.4 0-2.6-.9-2.6-2.7c0-2.1 1.5-3.5 3.1-3.5c1.6 0 2.4 1 2.4 2.4c0 .4-.1.8-.1 1c0 0-4.3 0-4.3 0zm9.5.2c0 .9.4 1.5 1.4 1.5c1.1 0 1.9-1.1 1.9-2.6c0-.8-.4-1.5-1.4-1.5c-1.2 0-1.9 1.4-1.9 2.6zm4.9-3.4c0 0-.87 4.29-.9 4.3c-.1.6-.1 1.1-.1 1.3c0 0 0 .1 0 .2c0 0-1.1 0-1.1 0c0-.1 0-.2 0-.3c0-.1 0-.3 0-.4c-.4.4-1 .8-1.7.8c-1.5 0-2.3-1.1-2.3-2.5c0-1.9 1.3-3.5 3.1-3.5c.9 0 1.5.4 1.8.9c-.04-.04.1-.8.1-.8l1.1 0zm.7 5.8l1.8-8.7l1.2 0l-1.9 8.7l-1.1 0zm6.8-.7c-.4.6-1 .8-1.6.8c-1.2 0-1.8-.7-1.8-1.8c0-.2 0-.5 0-.7c.05 0 .8-3.4.8-3.4l1.1 0c0 0-.71 3.37-.7 3.4c0 .2-.1.3-.1.5c0 .6.3 1.1 1 1.1c.9 0 1.4-.8 1.6-1.6c0-.01.7-3.4.7-3.4l1.1 0c0 0-.88 4.29-.9 4.3c-.1.6-.1 1.1-.1 1.3c0 0 0 .1 0 .2c0 0-1.1 0-1.1 0c0-.1 0-.2 0-.3c0-.1 0-.2 0-.4c0 0 0 0 0 0zm6.3.7c0 0 .74-3.63.7-3.6c.1-.2.1-.3.1-.4c0-.6-.3-1-1-1c-.8 0-1.3.6-1.5 1.5c.04.01-.7 3.5-.7 3.5l-1.1 0c0 0 .99-4.76 1-4.8c.1-.4.1-.9.1-1c0 0 1.1 0 1.1 0c0 0 0 .3 0 .6c.4-.5.9-.7 1.6-.7c.7 0 1.3.3 1.5.9c.6-.8 1.3-.9 2-.9c.9 0 1.6.5 1.6 1.6c0 .2 0 .4 0 .5c-.02.05-.8 3.8-.8 3.8l-1.1 0c0 0 .73-3.63.7-3.6c.1-.2.1-.3.1-.4c0-.5-.3-1-1-1c-.8 0-1.3.7-1.5 1.5c.04 0-.7 3.5-.7 3.5l-1.1 0zm10.1 0c0 0 .78-3.5.8-3.5c0-.1 0-.3 0-.4c0-.7-.3-1.1-1-1.1c-.9 0-1.5.9-1.6 1.6c-.04.03-.8 3.4-.8 3.4l-1.1 0c0 0 1.02-4.76 1-4.8c.1-.5.2-1 .2-1c0 0 1.1 0 1.1 0c0 .1-.1.4-.1.7c.4-.6 1.1-.8 1.8-.8c1 0 1.7.6 1.7 1.7c0 .1 0 .3-.1.5c.04.03-.7 3.7-.7 3.7l-1.2 0zm5.3-8.8c.4 0 .7.3.7.7c0 .5-.4.9-.9.9c-.4 0-.7-.3-.7-.7c0-.5.5-.9.9-.9zm-2.3 8.8l1.2-5.8l1.1 0l-1.2 5.8l-1.1 0z" stroke="none" fill="#144542"/></g><g id="Polygon184295"><path d="m4 87.3c1 0 1.6-.6 1.6-1.5c0-.9-.6-1.4-1.6-1.4c-.04-.04-1.7 0-1.7 0l0 2.9c0 0 1.66-.03 1.7 0zm-1.7 1l0 3.5l-1.2 0l0-8.5c0 0 3.08 0 3.1 0c1.5 0 2.6 1.1 2.6 2.5c0 1.5-1.1 2.5-2.6 2.5c-.02.03-1.9 0-1.9 0zm5.1 2c0-1.1.8-1.6 1.8-1.8c0 0 1.5-.2 1.5-.2c.4-.1.5-.2.5-.5c0-.5-.4-1-1.3-1c-.8 0-1.2.5-1.3 1.2c0 0-1.1-.3-1.1-.3c.1-1.1 1.1-1.8 2.4-1.8c1.7 0 2.4.9 2.4 2.1c0 0 0 2.9 0 2.9c0 .5 0 .8.1.9c0 0-1.1 0-1.1 0c-.1-.1-.1-.3-.1-.8c-.3.4-.8 1-1.9 1c-1.1 0-1.9-.8-1.9-1.7c0 0 0 0 0 0zm3.8-1c-.04.04 0-.2 0-.2c0 0-1.8.24-1.8.2c-.5.1-.8.4-.8.9c0 .4.3.8.9.8c.9 0 1.7-.4 1.7-1.7zm6-2.1c-.1 0-.3-.1-.4-.1c-1 0-1.6.5-1.6 1.8c-.03.02 0 2.9 0 2.9l-1.2 0l0-5.8l1.1 0c0 0 .04 1.04 0 1c.5-.8 1.2-1.1 1.8-1.1c.1 0 .3.1.3.1c0 0 0 1.2 0 1.2zm1.2 4.6l0-5.8l1.2 0l0 5.8l-1.2 0zm.6-8.8c.5 0 .8.4.8.9c0 .4-.3.8-.8.8c-.4 0-.8-.4-.8-.8c0-.5.4-.9.8-.9zm2.5 8.8l0-8.7l1.1 0c0 0-.01 3.75 0 3.8c.3-.6.9-1 1.9-1c1.8 0 2.7 1.3 2.7 3c0 1.7-1 3.1-2.7 3.1c-.9 0-1.5-.4-1.9-1c-.01-.03 0 .8 0 .8l-1.1 0zm2.8-4.9c-1 0-1.7.7-1.7 2c0 1.2.7 2.1 1.7 2.1c1 0 1.7-.9 1.7-2.1c0-1.3-.7-2-1.7-2zm3.9 3.4c0-1.1.8-1.6 1.8-1.8c0 0 1.5-.2 1.5-.2c.4-.1.5-.2.5-.5c0-.5-.4-1-1.3-1c-.7 0-1.2.5-1.3 1.2c0 0-1-.3-1-.3c.1-1.1 1.1-1.8 2.3-1.8c1.7 0 2.4.9 2.4 2.1c0 0 0 2.9 0 2.9c0 .5.1.8.1.9c0 0-1.1 0-1.1 0c0-.1-.1-.3-.1-.8c-.2.4-.8 1-1.8 1c-1.2 0-2-.8-2-1.7c0 0 0 0 0 0zm3.8-1c-.01.04 0-.2 0-.2c0 0-1.77.24-1.8.2c-.5.1-.8.4-.8.9c0 .4.3.8.9.8c.9 0 1.7-.4 1.7-1.7zm3.4.6c0 .6.5 1.1 1.3 1.1c.6 0 1-.3 1-.7c0-.4-.3-.7-.8-.8c0 0-.9-.2-.9-.2c-.9-.2-1.5-.8-1.5-1.6c0-1 .9-1.8 2.1-1.8c1.5 0 2 1 2.2 1.5c0 0-1 .4-1 .4c-.1-.3-.3-1-1.2-1c-.6 0-1 .4-1 .8c0 .3.2.6.7.7c0 0 .9.2.9.2c1 .2 1.6.8 1.6 1.7c0 .8-.7 1.8-2.1 1.8c-1.6 0-2.3-1-2.4-1.7c0 0 1.1-.4 1.1-.4z" stroke="none" fill="#144542"/></g><g id="Polygon184294"><path d="m.2 74.3l1.2-.2c0 0 .02.76 0 .8c0 1.1.6 1.6 1.5 1.6c.8 0 1.4-.6 1.4-1.6c-.03.05 0-6 0-6l1.1 0c0 0 .05 5.96 0 6c0 1.5-.9 2.7-2.5 2.7c-1.7 0-2.7-1.1-2.7-2.7c.04-.02 0-.6 0-.6zm11 2.4c-.3.6-1.1.9-1.7.9c-1.4 0-2.2-1-2.2-2.3c.01-.03 0-3.7 0-3.7l1.1 0c0 0 .04 3.5 0 3.5c0 .8.4 1.5 1.3 1.5c1 0 1.4-.6 1.4-1.5c.01.02 0-3.5 0-3.5l1.1 0c0 0 .04 4.74 0 4.7c0 .5.1.9.1 1.1c0 0-1.1 0-1.1 0c0-.1 0-.4 0-.7c0 0 0 0 0 0zm4.1.7l-1.1 0l0-5.8l1.1 0c0 0-.04.86 0 .9c.4-.8 1.1-1 1.7-1c1.4 0 2.1 1 2.1 2.2c0 .05 0 3.7 0 3.7l-1.1 0c0 0-.02-3.46 0-3.5c0-.8-.4-1.4-1.4-1.4c-.9 0-1.3.7-1.3 1.6c-.01-.03 0 3.3 0 3.3zm5.6 0l0-5.8l1.1 0l0 5.8l-1.1 0zm.6-8.8c.4 0 .8.4.8.9c0 .4-.4.8-.8.8c-.5 0-.8-.4-.8-.8c0-.5.3-.9.8-.9zm6.7 5.9c0-1.3-.8-2-1.8-2c-.9 0-1.8.7-1.8 2c0 1.4.9 2.1 1.8 2.1c1 0 1.8-.7 1.8-2.1zm1.2 0c0 1.8-1.3 3.1-3 3.1c-1.7 0-2.9-1.3-2.9-3.1c0-1.7 1.2-3 2.9-3c1.7 0 3 1.3 3 3zm4.6-1.7c-.2 0-.3-.1-.5-.1c-.9 0-1.6.5-1.6 1.8c.03.02 0 2.9 0 2.9l-1.1 0l0-5.8l1.1 0c0 0 .01 1.04 0 1c.4-.8 1.1-1.1 1.7-1.1c.2 0 .3.1.4.1c0 0 0 1.2 0 1.2zm4.9 1.7c0 1.3.8 2 1.7 2c1.1 0 1.5-.7 1.7-1.1c0 0 .9.4.9.4c-.2.8-1.1 1.8-2.6 1.8c-1.6 0-2.9-1.3-2.9-3.1c0-1.8 1.3-3 2.9-3c1.6 0 2.4.9 2.6 1.8c0 0-1 .4-1 .4c-.2-.5-.6-1.2-1.6-1.2c-.9 0-1.7.7-1.7 2zm6.8 2.9l-1.1 0l0-8.7l1.1 0c0 0-.01 3.61 0 3.6c.4-.6 1.1-.8 1.7-.8c1.4 0 2.1 1 2.1 2.2c.01.05 0 3.7 0 3.7l-1.1 0c0 0-.02-3.46 0-3.5c0-.8-.4-1.4-1.4-1.4c-.8 0-1.3.7-1.3 1.5c-.01.01 0 3.4 0 3.4zm9.5-3.5c0-.8-.6-1.4-1.6-1.4c-.9 0-1.5.7-1.6 1.4c0 0 3.2 0 3.2 0zm1.1 1.9c-.3 1-1.2 1.8-2.6 1.8c-1.5 0-2.9-1.1-2.9-3.1c0-1.8 1.4-3 2.8-3c1.8 0 2.8 1.2 2.8 3c0 .1 0 .3 0 .3c0 0-4.4 0-4.4 0c0 1.1.8 1.8 1.7 1.8c1 0 1.5-.5 1.7-1.2c0 0 .9.4.9.4zm1 1.6l0-1l3.2-3.7l-3.1 0l0-1.1l4.5 0l0 1l-3.2 3.8l3.3 0l0 1l-4.7 0zm12-8.5c1.6 0 2.6 1 2.6 2.3c0 .9-.6 1.6-1.3 1.8c1 .3 1.5 1.1 1.5 2.1c0 1.3-1 2.3-2.6 2.3c0 .01-3 0-3 0l0-8.5c0 0 2.8 0 2.8 0zm-.1 3.7c.9 0 1.5-.5 1.5-1.3c0-.8-.6-1.4-1.6-1.4c.02.03-1.4 0-1.4 0l0 2.7c0 0 1.47.02 1.5 0zm.1 3.8c1 0 1.6-.6 1.6-1.4c0-.8-.5-1.4-1.5-1.4c-.02.03-1.7 0-1.7 0l0 2.8c0 0 1.64-.02 1.6 0zm10.2 1l-4.6-6.9l0 6.9l-1.1 0l0-8.5l1.5 0l4.3 6.5l0-6.5l1.1 0l0 8.5l-1.2 0zm6.3-4.5c1 0 1.6-.6 1.6-1.5c0-.9-.6-1.4-1.6-1.4c-.01-.04-1.7 0-1.7 0l0 2.9c0 0 1.69-.03 1.7 0zm-1.7 1l0 3.5l-1.2 0l0-8.5c0 0 3.1 0 3.1 0c1.6 0 2.6 1.1 2.6 2.5c0 1.5-1 2.5-2.6 2.5c0 .03-1.9 0-1.9 0z" stroke="none" fill="#144542"/></g><g id="Polygon184293"><path d="m.5 58.7c0-2.8 2.2-4.4 4.3-4.4c1.9 0 3.3 1.1 3.7 2.7c0 0-1.1.4-1.1.4c-.3-1.3-1.2-2-2.6-2c-1.6 0-3.1 1.1-3.1 3.3c0 2.3 1.5 3.4 3.1 3.4c1.4 0 2.3-.9 2.7-2c0 0 1 .4 1 .4c-.4 1.5-1.8 2.7-3.7 2.7c-2.2 0-4.3-1.6-4.3-4.5zm8.9 2.8c0-1.1.7-1.6 1.7-1.8c0 0 1.6-.2 1.6-.2c.3-.1.4-.2.4-.5c0-.5-.4-1-1.2-1c-.8 0-1.3.5-1.3 1.2c0 0-1.1-.3-1.1-.3c.1-1.1 1.1-1.8 2.3-1.8c1.8 0 2.4.9 2.4 2.1c0 0 0 2.9 0 2.9c0 .5.1.8.1.9c0 0-1.1 0-1.1 0c0-.1 0-.3 0-.8c-.3.4-.9 1-1.9 1c-1.2 0-1.9-.8-1.9-1.7c0 0 0 0 0 0zm3.7-1c.02.04 0-.2 0-.2c0 0-1.75.24-1.7.2c-.5.1-.9.4-.9.9c0 .4.4.8.9.8c1 0 1.7-.4 1.7-1.7zm3.4.6c0 .6.5 1.1 1.3 1.1c.7 0 1-.3 1-.7c0-.4-.3-.7-.7-.8c0 0-1-.2-1-.2c-.9-.2-1.5-.8-1.5-1.6c0-1 1-1.8 2.1-1.8c1.6 0 2.1 1 2.2 1.5c0 0-1 .4-1 .4c-.1-.3-.3-1-1.2-1c-.6 0-1 .4-1 .8c0 .3.2.6.7.7c0 0 .9.2.9.2c1.1.2 1.6.8 1.6 1.7c0 .8-.7 1.8-2.1 1.8c-1.6 0-2.2-1-2.3-1.7c0 0 1-.4 1-.4zm6 1.9l-1.1 0l0-8.7l1.1 0c0 0 .05 3.61 0 3.6c.5-.6 1.1-.8 1.8-.8c1.4 0 2.1 1 2.1 2.2c-.04.05 0 3.7 0 3.7l-1.2 0c0 0 .04-3.46 0-3.5c0-.8-.3-1.4-1.3-1.4c-.9 0-1.3.7-1.4 1.5c.05.01 0 3.4 0 3.4zm16.8 0l0-6.6l-2.9 6.6l-1.1 0l-2.9-6.6l0 6.6l-1.1 0l0-8.5l1.6 0l3 6.9l3-6.9l1.6 0l0 8.5l-1.2 0zm2.8-1.5c0-1.1.8-1.6 1.7-1.8c0 0 1.6-.2 1.6-.2c.4-.1.5-.2.5-.5c0-.5-.4-1-1.3-1c-.8 0-1.2.5-1.3 1.2c0 0-1.1-.3-1.1-.3c.1-1.1 1.1-1.8 2.4-1.8c1.7 0 2.4.9 2.4 2.1c0 0 0 2.9 0 2.9c0 .5 0 .8.1.9c0 0-1.2 0-1.2 0c0-.1 0-.3 0-.8c-.3.4-.8 1-1.9 1c-1.1 0-1.9-.8-1.9-1.7c0 0 0 0 0 0zm3.8-1c-.05.04 0-.2 0-.2c0 0-1.81.24-1.8.2c-.5.1-.9.4-.9.9c0 .4.4.8 1 .8c.9 0 1.7-.4 1.7-1.7zm4 2.5l-1.2 0l0-5.8l1.1 0c0 0 .04.86 0 .9c.5-.8 1.1-1 1.8-1c1.4 0 2.1 1 2.1 2.2c-.02.05 0 3.7 0 3.7l-1.2 0c0 0 .05-3.46 0-3.5c0-.8-.3-1.4-1.3-1.4c-.9 0-1.3.7-1.3 1.6c-.04-.03 0 3.3 0 3.3zm5.2-1.5c0-1.1.8-1.6 1.8-1.8c0 0 1.5-.2 1.5-.2c.4-.1.5-.2.5-.5c0-.5-.4-1-1.3-1c-.8 0-1.2.5-1.3 1.2c0 0-1.1-.3-1.1-.3c.2-1.1 1.2-1.8 2.4-1.8c1.7 0 2.4.9 2.4 2.1c0 0 0 2.9 0 2.9c0 .5 0 .8.1.9c0 0-1.1 0-1.1 0c-.1-.1-.1-.3-.1-.8c-.2.4-.8 1-1.9 1c-1.1 0-1.9-.8-1.9-1.7c0 0 0 0 0 0zm3.8-1c-.03.04 0-.2 0-.2c0 0-1.79.24-1.8.2c-.5.1-.8.4-.8.9c0 .4.3.8.9.8c.9 0 1.7-.4 1.7-1.7zm3.5 2.6c.1.8.7 1.4 1.6 1.4c1.2 0 1.8-.6 1.8-1.9c0 0 0-.8 0-.8c-.3.5-.9.9-1.8.9c-1.5 0-2.7-1.1-2.7-2.8c0-1.5 1.1-2.8 2.7-2.8c.9 0 1.5.4 1.8.9c-.03.04 0-.8 0-.8l1.1 0c0 0-.01 5.38 0 5.4c0 1.4-.7 2.9-2.9 2.9c-1.4 0-2.5-.9-2.7-2.2c0 0 1.1-.2 1.1-.2zm3.4-3.2c0-1.1-.7-1.8-1.6-1.8c-1 0-1.7.7-1.7 1.8c0 1.2.6 1.9 1.7 1.9c.9 0 1.6-.7 1.6-1.9zm6.8-.4c0-.8-.6-1.4-1.6-1.4c-1 0-1.5.7-1.6 1.4c0 0 3.2 0 3.2 0zm1.1 1.9c-.3 1-1.2 1.8-2.6 1.8c-1.5 0-2.9-1.1-2.9-3.1c0-1.8 1.3-3 2.8-3c1.8 0 2.8 1.2 2.8 3c0 .1-.1.3-.1.3c0 0-4.3 0-4.3 0c0 1.1.8 1.8 1.7 1.8c1 0 1.4-.5 1.6-1.2c0 0 1 .4 1 .4zm1.5 1.6l0-5.8l1.1 0c0 0-.03.8 0 .8c.3-.6 1.1-.9 1.7-.9c.7 0 1.4.3 1.8 1.1c.4-.9 1.2-1.1 1.9-1.1c1 0 2 .7 2 2.2c-.03-.04 0 3.7 0 3.7l-1.1 0c0 0-.04-3.62 0-3.6c0-.8-.4-1.3-1.3-1.3c-.8 0-1.3.6-1.3 1.4c0 .02 0 3.5 0 3.5l-1.1 0c0 0-.02-3.62 0-3.6c0-.8-.4-1.3-1.2-1.3c-.9 0-1.4.6-1.4 1.4c.01.03 0 3.5 0 3.5l-1.1 0zm14.2-3.5c-.1-.8-.6-1.4-1.6-1.4c-1 0-1.5.7-1.6 1.4c0 0 3.2 0 3.2 0zm1.1 1.9c-.3 1-1.2 1.8-2.6 1.8c-1.5 0-2.9-1.1-2.9-3.1c0-1.8 1.3-3 2.8-3c1.7 0 2.7 1.2 2.7 3c0 .1 0 .3 0 .3c0 0-4.3 0-4.3 0c0 1.1.7 1.8 1.7 1.8c.9 0 1.4-.5 1.6-1.2c0 0 1 .4 1 .4zm2.6 1.6l-1.1 0l0-5.8l1.1 0c0 0-.02.86 0 .9c.4-.8 1.1-1 1.8-1c1.3 0 2 1 2 2.2c.02.05 0 3.7 0 3.7l-1.1 0c0 0 0-3.46 0-3.5c0-.8-.3-1.4-1.3-1.4c-.9 0-1.4.7-1.4 1.6c.01-.03 0 3.3 0 3.3zm7.1-5.8l1.3 0l0 1.1l-1.3 0c0 0 .03 2.96 0 3c0 .5.3.7.8.7c.2 0 .4 0 .5 0c0 0 0 1 0 1c-.1 0-.4.1-.8.1c-1 0-1.6-.6-1.6-1.7c.01.02 0-3.1 0-3.1l-1.1 0l0-1.1c0 0 .32.04.3 0c.6 0 .9-.3.9-.9c0 .05 0-.9 0-.9l1 0l0 1.8z" stroke="none" fill="#144542"/></g><g id="Polygon184292"><path d="m.9 45.7l0-1l11.4 0l0 1l-11.4 0zm15.3-1.4c0-2.8 2.1-4.4 4.2-4.4c1.9 0 3.3 1.1 3.7 2.7c0 0-1 .4-1 .4c-.4-1.3-1.3-2-2.7-2c-1.5 0-3 1.1-3 3.3c0 2.3 1.5 3.4 3 3.4c1.5 0 2.4-.9 2.7-2c0 0 1.1.4 1.1.4c-.5 1.5-1.8 2.7-3.8 2.7c-2.2 0-4.2-1.6-4.2-4.5zm10.4 4.3l-1.1 0l0-8.7l1.1 0c0 0 0 3.61 0 3.6c.4-.6 1.1-.8 1.8-.8c1.3 0 2 1 2 2.2c.02.05 0 3.7 0 3.7l-1.1 0c0 0-.01-3.46 0-3.5c0-.8-.3-1.4-1.4-1.4c-.8 0-1.3.7-1.3 1.5c0 .01 0 3.4 0 3.4zm5.3-1.5c0-1.1.7-1.6 1.7-1.8c0 0 1.6-.2 1.6-.2c.3-.1.4-.2.4-.5c0-.5-.4-1-1.2-1c-.8 0-1.3.5-1.3 1.2c0 0-1.1-.3-1.1-.3c.1-1.1 1.1-1.8 2.3-1.8c1.8 0 2.4.9 2.4 2.1c0 0 0 2.9 0 2.9c0 .5.1.8.1.9c0 0-1.1 0-1.1 0c0-.1 0-.3 0-.8c-.3.4-.9 1-1.9 1c-1.2 0-1.9-.8-1.9-1.7c0 0 0 0 0 0zm3.7-1c.02.04 0-.2 0-.2c0 0-1.75.24-1.7.2c-.5.1-.9.4-.9.9c0 .4.4.8.9.8c1 0 1.7-.4 1.7-1.7zm6.1-2.1c-.2 0-.3-.1-.5-.1c-.9 0-1.6.5-1.6 1.8c.02.02 0 2.9 0 2.9l-1.1 0l0-5.8l1.1 0c0 0 0 1.04 0 1c.4-.8 1.1-1.1 1.7-1.1c.2 0 .3.1.4.1c0 0 0 1.2 0 1.2zm1.8 4.7c.1.8.7 1.4 1.6 1.4c1.2 0 1.7-.6 1.7-1.9c0 0 0-.8 0-.8c-.2.5-.9.9-1.7.9c-1.6 0-2.7-1.1-2.7-2.8c0-1.5 1.1-2.8 2.7-2.8c.9 0 1.5.4 1.8.9c-.04.04 0-.8 0-.8l1.1 0c0 0-.02 5.38 0 5.4c0 1.4-.7 2.9-2.9 2.9c-1.5 0-2.5-.9-2.7-2.2c0 0 1.1-.2 1.1-.2zm3.4-3.2c0-1.1-.7-1.8-1.6-1.8c-1 0-1.7.7-1.7 1.8c0 1.2.6 1.9 1.7 1.9c.9 0 1.6-.7 1.6-1.9zm6.8-.4c-.1-.8-.6-1.4-1.6-1.4c-1 0-1.5.7-1.6 1.4c0 0 3.2 0 3.2 0zm1.1 1.9c-.3 1-1.2 1.8-2.6 1.8c-1.5 0-2.9-1.1-2.9-3.1c0-1.8 1.3-3 2.8-3c1.7 0 2.7 1.2 2.7 3c0 .1 0 .3 0 .3c0 0-4.3 0-4.3 0c0 1.1.7 1.8 1.7 1.8c.9 0 1.4-.5 1.6-1.2c0 0 1 .4 1 .4zm-2.3-4.9l-.9 0l1-1.8l1.4 0l-1.5 1.8zm7.7 3c-.1-.8-.6-1.4-1.6-1.4c-1 0-1.5.7-1.6 1.4c0 0 3.2 0 3.2 0zm1.1 1.9c-.3 1-1.2 1.8-2.6 1.8c-1.5 0-2.9-1.1-2.9-3.1c0-1.8 1.3-3 2.8-3c1.7 0 2.7 1.2 2.7 3c0 .1 0 .3 0 .3c0 0-4.3 0-4.3 0c0 1.1.7 1.8 1.7 1.8c1 0 1.4-.5 1.6-1.2c0 0 1 .4 1 .4zm6.8.8c1.1 0 1.7-.9 1.7-2.1c0-1.2-.6-2-1.6-2c-1.1 0-1.7.8-1.7 2c0 1.2.6 2.1 1.6 2.1zm1.7-.1c-.2.6-.9 1.1-1.8 1.1c-1.7 0-2.7-1.4-2.7-3.1c0-1.6 1.1-3 2.7-3c1.1 0 1.6.5 1.8 1c0-.05 0-3.8 0-3.8l1.1 0c0 0 .02 7.64 0 7.6c0 .6.1 1 .1 1.1c0 0-1.1 0-1.1 0c0-.1-.1-.4-.1-.8c0 0 0-.1 0-.1zm3.4-7.7c.5 0 .9.4.9 1c0 1.5-1 2.1-1.7 2.2c0 0 0-.5 0-.5c.6-.2.9-.7 1-1.3c-.1.1-.2.1-.3.1c-.4 0-.7-.3-.7-.8c0-.4.3-.7.8-.7zm6.1 6.2l-3.8 0l-.9 2.4l-1.2 0l3.4-8.5l1.3 0l3.4 8.5l-1.3 0l-.9-2.4zm-3.4-1.1l3 0l-1.5-3.8l-1.5 3.8zm12-3.2c-.02.02 0 .9 0 .9l1.4 0l0 1.1l-1.4 0l0 4.7l-1.2 0l0-4.7l-2.6 0l0 4.7l-1.2 0l0-4.7l-1 0l0-1.1l1 0c0 0 .02-.94 0-.9c0-1.3.9-2 1.9-2c.4 0 .6.1.7.1c0 0 0 1 0 1c-.1 0-.2-.1-.5-.1c-.4 0-.9.2-.9 1c-.02.02 0 .9 0 .9l2.6 0c0 0 .01-.94 0-.9c0-1.3.9-2 1.9-2c.4 0 .6.1.7.1c0 0 0 1 0 1c-.1 0-.2-.1-.5-.1c-.4 0-.9.2-.9 1zm2.2 5.2c0-1.1.8-1.6 1.8-1.8c0 0 1.5-.2 1.5-.2c.4-.1.5-.2.5-.5c0-.5-.4-1-1.3-1c-.8 0-1.2.5-1.3 1.2c0 0-1.1-.3-1.1-.3c.2-1.1 1.2-1.8 2.4-1.8c1.7 0 2.4.9 2.4 2.1c0 0 0 2.9 0 2.9c0 .5.1.8.1.9c0 0-1.1 0-1.1 0c-.1-.1-.1-.3-.1-.8c-.2.4-.8 1-1.8 1c-1.2 0-2-.8-2-1.7c0 0 0 0 0 0zm3.8-1c-.02.04 0-.2 0-.2c0 0-1.79.24-1.8.2c-.5.1-.8.4-.8.9c0 .4.3.8.9.8c.9 0 1.7-.4 1.7-1.7zm2.9 2.5l0-5.8l1.1 0l0 5.8l-1.1 0zm.5-8.8c.5 0 .8.4.8.9c0 .4-.3.8-.8.8c-.4 0-.8-.4-.8-.8c0-.5.4-.9.8-.9zm5.7 4.2c-.2 0-.3-.1-.5-.1c-.9 0-1.6.5-1.6 1.8c.02.02 0 2.9 0 2.9l-1.1 0l0-5.8l1.1 0c0 0-.01 1.04 0 1c.4-.8 1.1-1.1 1.7-1.1c.2 0 .3.1.4.1c0 0 0 1.2 0 1.2zm5 1.1c0-.8-.5-1.4-1.6-1.4c-.9 0-1.5.7-1.5 1.4c0 0 3.1 0 3.1 0zm1.2 1.9c-.4 1-1.3 1.8-2.6 1.8c-1.6 0-2.9-1.1-2.9-3.1c0-1.8 1.3-3 2.7-3c1.8 0 2.8 1.2 2.8 3c0 .1 0 .3 0 .3c0 0-4.4 0-4.4 0c.1 1.1.8 1.8 1.8 1.8c.9 0 1.4-.5 1.6-1.2c0 0 1 .4 1 .4zm1.9-.3c.1.6.5 1.1 1.4 1.1c.6 0 .9-.3.9-.7c0-.4-.2-.7-.7-.8c0 0-1-.2-1-.2c-.9-.2-1.4-.8-1.4-1.6c0-1 .9-1.8 2-1.8c1.6 0 2.1 1 2.2 1.5c0 0-1 .4-1 .4c0-.3-.3-1-1.2-1c-.5 0-.9.4-.9.8c0 .3.2.6.6.7c0 0 1 .2 1 .2c1 .2 1.6.8 1.6 1.7c0 .8-.7 1.8-2.1 1.8c-1.6 0-2.3-1-2.4-1.7c0 0 1-.4 1-.4z" stroke="none" fill="#144542"/></g><g id="Polygon184291"><path d="m7.7 27.1l-5.2-7.8l0 7.8l-1.3 0l0-9.5l1.8 0l4.8 7.3l0-7.3l1.3 0l0 9.5l-1.4 0zm4.4.1c.1.9.8 1.6 1.8 1.6c1.4 0 2-.7 2-2.1c0 0 0-1 0-1c-.3.6-1 1.1-2 1.1c-1.7 0-3-1.3-3-3.1c0-1.8 1.2-3.2 3-3.2c1 0 1.7.4 2 1c0 .03 0-.9 0-.9l1.3 0c0 0-.04 6.03 0 6c0 1.7-.9 3.3-3.3 3.3c-1.6 0-2.8-1-3-2.4c0 0 1.2-.3 1.2-.3zm3.8-3.5c0-1.3-.7-2.1-1.8-2.1c-1.1 0-1.9.8-1.9 2.1c0 1.2.7 2 1.9 2c1.1 0 1.8-.8 1.8-2zm8.1.2c0-1.5-1-2.3-2-2.3c-1.1 0-2.1.8-2.1 2.3c0 1.5 1 2.3 2.1 2.3c1 0 2-.8 2-2.3zm1.3 0c0 2-1.4 3.4-3.3 3.4c-2 0-3.4-1.4-3.4-3.4c0-2 1.4-3.5 3.4-3.5c1.9 0 3.3 1.5 3.3 3.5zm2.9 3.2l-1.3 0l0-6.5l1.2 0c0 0 .05.96 0 1c.5-.9 1.3-1.2 2-1.2c1.6 0 2.4 1.2 2.4 2.6c-.03 0 0 4.1 0 4.1l-1.3 0c0 0 0-3.88 0-3.9c0-.9-.4-1.6-1.5-1.6c-1 0-1.5.8-1.5 1.8c-.03-.03 0 3.7 0 3.7zm9-.9c1.1 0 1.8-1 1.8-2.4c0-1.3-.7-2.2-1.8-2.2c-1.2 0-2 .9-2 2.3c0 1.3.7 2.3 2 2.3zm1.8-.1c-.3.7-1 1.2-2 1.2c-1.9 0-3-1.5-3-3.4c0-1.9 1.2-3.4 3-3.4c1.2 0 1.8.5 2 1c.02.05 0-4.2 0-4.2l1.3 0c0 0-.03 8.62 0 8.6c0 .6 0 1.1 0 1.2c0 0-1.2 0-1.2 0c0-.1-.1-.5-.1-.9c0 0 0-.1 0-.1zm3.4-5.5l1.3 0c0 0 0 7.28 0 7.3c0 1.2-.7 2-1.8 2c-.5 0-.7-.1-.8-.1c0 0 0-1.1 0-1.1c.1 0 .3.1.5.1c.6 0 .8-.4.8-1c.03.02 0-7.2 0-7.2zm.7-3.4c.5 0 .9.4.9.9c0 .5-.4.9-.9.9c-.5 0-1-.4-1-.9c0-.5.5-.9 1-.9zm2.8 9.9l0-6.5l1.2 0l0 6.5l-1.2 0zm.6-9.8c.5 0 .9.4.9.9c0 .5-.4.9-.9.9c-.5 0-.9-.4-.9-.9c0-.5.4-.9.9-.9z" stroke="none" fill="#144542"/></g><g id="Polygon184290"><path d="m1.2 10.9l0-9.5l1.4 0l0 9.5l-1.4 0zm7.3-5.2c-.2 0-.4 0-.6 0c-1.1 0-1.8.5-1.8 2c.03-.03 0 3.2 0 3.2l-1.2 0l0-6.5l1.2 0c0 0 0 1.16 0 1.2c.5-1 1.3-1.3 1.9-1.3c.2 0 .4 0 .5.1c0 0 0 1.3 0 1.3zm5.6 1.3c0-.9-.6-1.7-1.8-1.7c-1 0-1.7.9-1.7 1.7c0 0 3.5 0 3.5 0zm1.3 2.1c-.4 1.1-1.4 2-2.9 2c-1.8 0-3.3-1.2-3.3-3.4c0-2.1 1.5-3.5 3.1-3.5c2 0 3.1 1.4 3.1 3.4c0 .2 0 .4 0 .4c0 0-4.9 0-4.9 0c.1 1.2.9 2 2 2c1 0 1.6-.6 1.8-1.3c0 0 1.1.4 1.1.4zm2.9 1.8l-1.2 0l0-6.5l1.2 0c0 0 .01.96 0 1c.5-.9 1.2-1.2 2-1.2c1.6 0 2.3 1.2 2.3 2.6c.03 0 0 4.1 0 4.1l-1.2 0c0 0-.04-3.88 0-3.9c0-.9-.4-1.6-1.6-1.6c-1 0-1.5.8-1.5 1.8c.03-.03 0 3.7 0 3.7zm10.7-3.9c0-.9-.6-1.7-1.8-1.7c-1 0-1.7.9-1.7 1.7c0 0 3.5 0 3.5 0zm1.3 2.1c-.4 1.1-1.4 2-2.9 2c-1.8 0-3.3-1.2-3.3-3.4c0-2.1 1.5-3.5 3.1-3.5c2 0 3.1 1.4 3.1 3.4c0 .2 0 .4 0 .4c0 0-4.9 0-4.9 0c.1 1.2.9 2 2 2c1 0 1.6-.6 1.8-1.3c0 0 1.1.4 1.1.4zm5.2 1.8l0-9.5l5.8 0l0 1.2l-4.5 0l0 2.9l4.1 0l0 1.3l-4.1 0l0 2.9l4.5 0l0 1.2l-5.8 0zm9.4-6.5l1.4 0l0 1.2l-1.4 0c0 0-.01 3.35 0 3.4c0 .5.2.8.9.8c.2 0 .4 0 .5 0c0 0 0 1.1 0 1.1c-.1 0-.4.1-.9.1c-1.1 0-1.8-.7-1.8-1.9c.02.04 0-3.5 0-3.5l-1.2 0l0-1.2c0 0 .33.03.3 0c.7 0 1-.4 1-1c.03.03 0-1 0-1l1.2 0l0 2zm7.4 2.6c0-.9-.6-1.7-1.8-1.7c-1.1 0-1.7.9-1.8 1.7c0 0 3.6 0 3.6 0zm1.3 2.1c-.4 1.1-1.4 2-2.9 2c-1.8 0-3.3-1.2-3.3-3.4c0-2.1 1.5-3.5 3.1-3.5c2 0 3.1 1.4 3.1 3.4c0 .2 0 .4 0 .4c0 0-4.9 0-4.9 0c0 1.2.9 2 2 2c1 0 1.5-.6 1.8-1.3c0 0 1.1.4 1.1.4zm2.9 1.8l-1.3 0l0-6.5l1.3 0c0 0-.03.96 0 1c.4-.9 1.2-1.2 2-1.2c1.5 0 2.3 1.2 2.3 2.6c-.01 0 0 4.1 0 4.1l-1.3 0c0 0 .02-3.88 0-3.9c0-.9-.4-1.6-1.5-1.6c-1 0-1.5.8-1.5 1.8c0-.03 0 3.7 0 3.7zm9-.9c1.1 0 1.9-1 1.9-2.4c0-1.3-.8-2.2-1.9-2.2c-1.2 0-1.9.9-1.9 2.3c0 1.3.7 2.3 1.9 2.3zm1.9-.1c-.3.7-1 1.2-2 1.2c-2 0-3.1-1.5-3.1-3.4c0-1.9 1.2-3.4 3.1-3.4c1.1 0 1.7.5 1.9 1c.04.05 0-4.2 0-4.2l1.3 0c0 0-.01 8.62 0 8.6c0 .6 0 1.1.1 1.2c0 0-1.3 0-1.3 0c0-.1 0-.5 0-.9c0 0 0-.1 0-.1zm7.7-2.9c0-.9-.6-1.7-1.8-1.7c-1 0-1.7.9-1.7 1.7c0 0 3.5 0 3.5 0zm1.3 2.1c-.4 1.1-1.4 2-2.9 2c-1.7 0-3.3-1.2-3.3-3.4c0-2.1 1.5-3.5 3.1-3.5c2 0 3.1 1.4 3.1 3.4c0 .2 0 .4 0 .4c0 0-4.9 0-4.9 0c.1 1.2.9 2 2 2c1 0 1.6-.6 1.8-1.3c0 0 1.1.4 1.1.4z" stroke="none" fill="#144542"/></g></svg>