<?xml version="1.0" standalone="no"?><!DOCTYPE svg PUBLIC "-//W3C//DTD SVG 1.1//EN" "http://www.w3.org/Graphics/SVG/1.1/DTD/svg11.dtd"><svg xmlns="http://www.w3.org/2000/svg" version="1.1" width="144.1px" height="280.6px" viewBox="0 -3 144.1 280.6" style="top:-3px"><desc>Notre action repose sur un ancrage territorial fort, fond sur des partenariats et une collaboration troite avec des...</desc><defs/><g id="Polygon181843"><path d="m1.8 268c0 .6.5 1.1 1.3 1.1c.7 0 1-.4 1-.8c0-.3-.2-.6-.8-.7c0 0-.9-.2-.9-.2c-1.2-.3-1.8-1-1.8-1.9c0-1.2 1.1-2.2 2.4-2.2c1.9 0 2.5 1.2 2.6 1.9c0 0-1.4.4-1.4.4c0-.4-.3-1-1.2-1c-.5 0-.9.3-.9.7c0 .4.2.6.6.7c0 0 1 .2 1 .2c1.3.3 1.9 1 1.9 2c0 1-.8 2.1-2.5 2.1c-1.9 0-2.6-1.2-2.7-2c0 0 1.4-.3 1.4-.3zm9.6 1.4c-.3.6-1.1.9-1.9.9c-1.5 0-2.5-1.2-2.5-2.6c.05-.01 0-4.2 0-4.2l1.6 0c0 0 .01 3.91 0 3.9c0 .8.4 1.5 1.3 1.5c.9 0 1.4-.6 1.4-1.5c.01.04 0-3.9 0-3.9l1.6 0c0 0-.02 5.42 0 5.4c0 .6 0 1 0 1.2c0 0-1.5 0-1.5 0c0-.1 0-.4 0-.7c0 0 0 0 0 0zm3.5.7l0-6.6l1.6 0l0 6.6l-1.6 0zm.8-9.9c.5 0 1 .5 1 1c0 .6-.5 1.1-1 1.1c-.6 0-1-.5-1-1.1c0-.5.4-1 1-1zm6.1 9.9l-1.5 0l-2.7-6.6l1.7 0l1.8 4.7l1.7-4.7l1.6 0l-2.6 6.6zm3.8 0l0-6.6l1.5 0l0 6.6l-1.5 0zm.7-9.9c.6 0 1.1.5 1.1 1c0 .6-.5 1.1-1.1 1.1c-.5 0-1-.5-1-1.1c0-.5.5-1 1-1zm6.2 12.5l0-9.2l1.5 0c0 0 .01.94 0 .9c.3-.5 1.1-1 2.1-1c1.9 0 3 1.5 3 3.4c0 2-1.2 3.5-3.1 3.5c-.9 0-1.6-.4-2-.9c.05-.02 0 3.3 0 3.3l-1.5 0zm5.1-5.9c0-1.2-.7-2-1.8-2c-1 0-1.8.8-1.8 2c0 1.3.8 2.1 1.8 2.1c1 0 1.8-.8 1.8-2.1c0 0 0 0 0 0zm7.8 0c0-1.3-.9-2-1.9-2c-.9 0-1.8.7-1.8 2c0 1.4.9 2.1 1.8 2.1c1 0 1.9-.7 1.9-2.1zm1.6 0c0 2.1-1.5 3.5-3.5 3.5c-1.9 0-3.4-1.4-3.4-3.5c0-2 1.5-3.5 3.4-3.5c2 0 3.5 1.5 3.5 3.5zm2.2 1.2c.1.6.5 1.1 1.4 1.1c.6 0 1-.4 1-.8c0-.3-.3-.6-.8-.7c0 0-1-.2-1-.2c-1.1-.3-1.7-1-1.7-1.9c0-1.2 1-2.2 2.4-2.2c1.8 0 2.4 1.2 2.5 1.9c0 0-1.3.4-1.3.4c-.1-.4-.3-1-1.2-1c-.6 0-1 .3-1 .7c0 .4.3.6.7.7c0 0 1 .2 1 .2c1.2.3 1.9 1 1.9 2c0 1-.8 2.1-2.5 2.1c-1.9 0-2.6-1.2-2.7-2c0 0 1.3-.3 1.3-.3zm7.4-4.5l1.4 0l0 1.4l-1.4 0c0 0 .02 3.09 0 3.1c0 .6.3.8.9.8c.2 0 .4 0 .5 0c0 0 0 1.3 0 1.3c-.1 0-.4.1-1 .1c-1.2 0-1.9-.7-1.9-2c-.03.05 0-3.3 0-3.3l-1.2 0l0-1.4c0 0 .29.05.3 0c.7 0 1-.4 1-1c0 .02 0-1 0-1l1.4 0l0 2zm2.6 3.4l0-1.4l3.8 0l0 1.4l-3.8 0zm5.4 5.8l0-9.2l1.5 0c0 0-.01.94 0 .9c.3-.5 1.1-1 2.1-1c1.9 0 3 1.5 3 3.4c0 2-1.2 3.5-3.1 3.5c-.9 0-1.6-.4-2-.9c.03-.02 0 3.3 0 3.3l-1.5 0zm5.1-5.9c0-1.2-.8-2-1.8-2c-1 0-1.8.8-1.8 2c0 1.3.8 2.1 1.8 2.1c1 0 1.8-.8 1.8-2.1c0 0 0 0 0 0zm6.9-1.7c-.2 0-.4 0-.5 0c-1.2 0-1.8.7-1.8 1.9c0-.01 0 3.1 0 3.1l-1.6 0l0-6.6l1.6 0c0 0-.04 1.1 0 1.1c.3-.7 1-1.1 1.9-1.1c.2 0 .3 0 .4 0c0 0 0 1.6 0 1.6zm6 1.7c0-1.3-.9-2-1.9-2c-.9 0-1.8.7-1.8 2c0 1.4.9 2.1 1.8 2.1c1 0 1.9-.7 1.9-2.1zm1.5 0c0 2.1-1.4 3.5-3.4 3.5c-1.9 0-3.4-1.4-3.4-3.5c0-2 1.5-3.5 3.4-3.5c2 0 3.4 1.5 3.4 3.5zm2.5 3.3c.1.8.8 1.4 1.7 1.4c1.2 0 1.8-.6 1.8-1.9c0 0 0-.7 0-.7c-.3.5-.9.9-1.9.9c-1.7 0-3-1.3-3-3.2c0-1.7 1.2-3.2 3-3.2c1 0 1.7.4 2 1c-.03-.02 0-.9 0-.9l1.5 0c0 0-.02 6 0 6c0 1.8-.9 3.4-3.4 3.4c-1.7 0-3-1.1-3.1-2.4c0 0 1.4-.4 1.4-.4zm3.6-3.5c0-1.1-.7-1.8-1.7-1.8c-1 0-1.7.7-1.7 1.8c0 1.2.7 1.9 1.7 1.9c1 0 1.7-.7 1.7-1.9zm7.2-1.5c-.1 0-.3 0-.5 0c-1.2 0-1.7.7-1.7 1.9c-.04-.01 0 3.1 0 3.1l-1.6 0l0-6.6l1.5 0c0 0 .02 1.1 0 1.1c.3-.7 1.1-1.1 1.9-1.1c.2 0 .4 0 .4 0c0 0 0 1.6 0 1.6zm2.9 1.3c0 0 1.7-.3 1.7-.3c.4-.1.5-.2.5-.5c0-.5-.4-1-1.2-1c-.8 0-1.3.6-1.4 1.2c0 0-1.4-.3-1.4-.3c.1-1.1 1.1-2.2 2.8-2.2c2 0 2.8 1.2 2.8 2.5c0 0 0 3.3 0 3.3c0 .6 0 1 0 1c0 0-1.4 0-1.4 0c0 0-.1-.3-.1-.8c-.3.5-.9 1-2 1c-1.4 0-2.2-.9-2.2-2c0-1.1.8-1.8 1.9-1.9zm2.2 1c.02-.01 0-.3 0-.3c0 0-1.7.25-1.7.3c-.5 0-.9.3-.9.8c0 .5.4.9 1 .9c.9 0 1.6-.4 1.6-1.7zm3.4 2.7l0-6.6l1.5 0c0 0 .04.88 0 .9c.4-.7 1.2-1 2-1c.9 0 1.6.3 2 1.1c.5-.8 1.2-1.1 2.1-1.1c1.2 0 2.3.7 2.3 2.5c.01-.05 0 4.2 0 4.2l-1.5 0c0 0 0-3.99 0-4c0-.8-.4-1.3-1.3-1.3c-.8 0-1.3.6-1.3 1.4c-.03.02 0 3.9 0 3.9l-1.6 0c0 0 .03-3.99 0-4c0-.7-.3-1.3-1.2-1.3c-.9 0-1.4.6-1.4 1.4c0 .02 0 3.9 0 3.9l-1.6 0zm11.8 0l0-6.6l1.5 0c0 0 .03.88 0 .9c.4-.7 1.2-1 2-1c.8 0 1.6.3 1.9 1.1c.6-.8 1.3-1.1 2.2-1.1c1.2 0 2.3.7 2.3 2.5c0-.05 0 4.2 0 4.2l-1.5 0c0 0-.01-3.99 0-4c0-.8-.4-1.3-1.3-1.3c-.8 0-1.3.6-1.3 1.4c-.05.02 0 3.9 0 3.9l-1.6 0c0 0 .02-3.99 0-4c0-.7-.4-1.3-1.3-1.3c-.8 0-1.3.6-1.3 1.4c-.02.02 0 3.9 0 3.9l-1.6 0zm16.1-4c0-.8-.5-1.4-1.6-1.4c-1 0-1.5.7-1.6 1.4c0 0 3.2 0 3.2 0zm1.5 2.1c-.3 1.2-1.4 2.1-2.9 2.1c-1.8 0-3.4-1.3-3.4-3.5c0-2.1 1.5-3.5 3.2-3.5c2 0 3.2 1.4 3.2 3.5c0 .2 0 .4 0 .5c0 0-4.8 0-4.8 0c0 1 .8 1.7 1.8 1.7c.9 0 1.4-.5 1.6-1.2c0 0 1.3.4 1.3.4zm2.4-.2c.6 0 1.1.5 1.1 1.1c0 .6-.5 1.1-1.1 1.1c-.6 0-1.1-.5-1.1-1.1c0-.6.5-1.1 1.1-1.1z" stroke="none" fill="#144542"/></g><g id="Polygon181842"><path d="m2.6 250.2c0 0 1.7-.3 1.7-.3c.4-.1.5-.2.5-.5c0-.5-.4-1-1.3-1c-.8 0-1.3.6-1.3 1.2c0 0-1.5-.3-1.5-.3c.2-1.1 1.2-2.2 2.8-2.2c2 0 2.8 1.2 2.8 2.5c0 0 0 3.3 0 3.3c0 .6.1 1 .1 1c0 0-1.5 0-1.5 0c0 0 0-.3 0-.8c-.3.5-1 1-2.1 1c-1.3 0-2.2-.9-2.2-2c0-1.1.9-1.8 2-1.9zm2.2 1c-.03-.01 0-.3 0-.3c0 0-1.75.25-1.7.3c-.5 0-.9.3-.9.8c0 .5.3.9.9.9c.9 0 1.7-.4 1.7-1.7zm4.4-.6c0 1.4.9 2.1 1.9 2.1c1 0 1.5-.7 1.6-1.2c0 0 1.4.5 1.4.5c-.3 1-1.3 2.1-3 2.1c-2 0-3.4-1.5-3.4-3.5c0-2 1.4-3.5 3.3-3.5c1.8 0 2.8 1.2 3 2.2c0 0-1.4.5-1.4.5c-.1-.6-.6-1.2-1.6-1.2c-.9 0-1.8.7-1.8 2zm7.3 0c0 1.4.8 2.1 1.8 2.1c1 0 1.5-.7 1.7-1.2c0 0 1.3.5 1.3.5c-.3 1-1.3 2.1-3 2.1c-1.9 0-3.4-1.5-3.4-3.5c0-2 1.5-3.5 3.4-3.5c1.7 0 2.7 1.2 3 2.2c0 0-1.4.5-1.4.5c-.2-.6-.6-1.2-1.6-1.2c-1 0-1.8.7-1.8 2zm10.9 0c0-1.3-.9-2-1.9-2c-.9 0-1.8.7-1.8 2c0 1.4.9 2.1 1.8 2.1c1 0 1.9-.7 1.9-2.1zm1.6 0c0 2.1-1.5 3.5-3.5 3.5c-1.9 0-3.4-1.4-3.4-3.5c0-2 1.5-3.5 3.4-3.5c2 0 3.5 1.5 3.5 3.5zm1.5 3.3l0-6.6l1.5 0c0 0-.03.88 0 .9c.3-.7 1.2-1 1.9-1c.9 0 1.6.3 2 1.1c.5-.8 1.3-1.1 2.1-1.1c1.2 0 2.3.7 2.3 2.5c.04-.05 0 4.2 0 4.2l-1.5 0c0 0 .03-3.99 0-4c0-.8-.4-1.3-1.2-1.3c-.9 0-1.4.6-1.4 1.4c-.01.02 0 3.9 0 3.9l-1.5 0c0 0-.04-3.99 0-4c0-.7-.4-1.3-1.3-1.3c-.9 0-1.4.6-1.4 1.4c.02.02 0 3.9 0 3.9l-1.5 0zm11.8 2.6l0-9.2l1.5 0c0 0-.03.94 0 .9c.3-.5 1-1 2.1-1c1.9 0 3 1.5 3 3.4c0 2-1.2 3.5-3.1 3.5c-.9 0-1.7-.4-2-.9c.01-.02 0 3.3 0 3.3l-1.5 0zm5-5.9c0-1.2-.7-2-1.7-2c-1.1 0-1.8.8-1.8 2c0 1.3.7 2.1 1.8 2.1c1 0 1.7-.8 1.7-2.1c0 0 0 0 0 0zm4.7-.4c0 0 1.7-.3 1.7-.3c.4-.1.5-.2.5-.5c0-.5-.4-1-1.3-1c-.8 0-1.3.6-1.3 1.2c0 0-1.5-.3-1.5-.3c.2-1.1 1.2-2.2 2.8-2.2c2 0 2.8 1.2 2.8 2.5c0 0 0 3.3 0 3.3c0 .6.1 1 .1 1c0 0-1.5 0-1.5 0c0 0 0-.3 0-.8c-.4.5-1 1-2.1 1c-1.3 0-2.2-.9-2.2-2c0-1.1.9-1.8 2-1.9zm2.2 1c-.04-.01 0-.3 0-.3c0 0-1.75.25-1.8.3c-.4 0-.8.3-.8.8c0 .5.3.9.9.9c.9 0 1.7-.4 1.7-1.7zm4.3 2.7c.2.8.8 1.4 1.7 1.4c1.2 0 1.9-.6 1.9-1.9c0 0 0-.7 0-.7c-.3.5-1 .9-1.9.9c-1.8 0-3.1-1.3-3.1-3.2c0-1.7 1.2-3.2 3.1-3.2c1 0 1.6.4 1.9 1c0-.02 0-.9 0-.9l1.5 0c0 0 .01 6 0 6c0 1.8-.9 3.4-3.4 3.4c-1.7 0-2.9-1.1-3.1-2.4c0 0 1.4-.4 1.4-.4zm3.6-3.5c0-1.1-.7-1.8-1.7-1.8c-1 0-1.7.7-1.7 1.8c0 1.2.7 1.9 1.7 1.9c1 0 1.7-.7 1.7-1.9zm5 3.5l-1.6 0l0-6.6l1.6 0c0 0-.05.92 0 .9c.4-.7 1.2-1 1.9-1c1.6 0 2.4 1.1 2.4 2.6c-.03-.04 0 4.1 0 4.1l-1.6 0c0 0 .01-3.87 0-3.9c0-.8-.4-1.4-1.3-1.4c-.9 0-1.4.7-1.4 1.5c-.01.03 0 3.8 0 3.8zm10.5-4c0-.8-.5-1.4-1.6-1.4c-1 0-1.6.7-1.6 1.4c0 0 3.2 0 3.2 0zm1.5 2.1c-.4 1.2-1.4 2.1-3 2.1c-1.8 0-3.3-1.3-3.3-3.5c0-2.1 1.5-3.5 3.2-3.5c2 0 3.2 1.4 3.2 3.5c0 .2-.1.4-.1.5c0 0-4.8 0-4.8 0c.1 1 .9 1.7 1.8 1.7c1 0 1.5-.5 1.7-1.2c0 0 1.3.4 1.3.4zm1.6 1.9l0-6.6l1.5 0c0 0-.03.88 0 .9c.4-.7 1.2-1 1.9-1c.9 0 1.6.3 2 1.1c.5-.8 1.3-1.1 2.1-1.1c1.2 0 2.3.7 2.3 2.5c.04-.05 0 4.2 0 4.2l-1.5 0c0 0 .03-3.99 0-4c0-.8-.4-1.3-1.2-1.3c-.9 0-1.4.6-1.4 1.4c0 .02 0 3.9 0 3.9l-1.5 0c0 0-.04-3.99 0-4c0-.7-.4-1.3-1.3-1.3c-.8 0-1.4.6-1.4 1.4c.03.02 0 3.9 0 3.9l-1.5 0zm16.1-4c0-.8-.6-1.4-1.6-1.4c-1 0-1.6.7-1.6 1.4c0 0 3.2 0 3.2 0zm1.5 2.1c-.4 1.2-1.4 2.1-3 2.1c-1.8 0-3.4-1.3-3.4-3.5c0-2.1 1.6-3.5 3.2-3.5c2.1 0 3.3 1.4 3.3 3.5c0 .2-.1.4-.1.5c0 0-4.8 0-4.8 0c.1 1 .8 1.7 1.8 1.7c1 0 1.4-.5 1.7-1.2c0 0 1.3.4 1.3.4zm3.1 1.9l-1.5 0l0-6.6l1.5 0c0 0-.02.92 0 .9c.4-.7 1.2-1 1.9-1c1.6 0 2.4 1.1 2.4 2.6c0-.04 0 4.1 0 4.1l-1.6 0c0 0 .04-3.87 0-3.9c0-.8-.3-1.4-1.3-1.4c-.9 0-1.4.7-1.4 1.5c.02.03 0 3.8 0 3.8zm8.2-6.6l1.4 0l0 1.4l-1.4 0c0 0-.01 3.09 0 3.1c0 .6.2.8.8.8c.2 0 .5 0 .6 0c0 0 0 1.3 0 1.3c-.1 0-.4.1-1 .1c-1.2 0-2-.7-2-2c.04.05 0-3.3 0-3.3l-1.2 0l0-1.4c0 0 .36.05.4 0c.7 0 1-.4 1-1c-.03.02 0-1 0-1l1.4 0l0 2zm10.6 2.6c0-.8-.5-1.4-1.6-1.4c-1 0-1.6.7-1.6 1.4c0 0 3.2 0 3.2 0zm1.5 2.1c-.4 1.2-1.4 2.1-3 2.1c-1.8 0-3.3-1.3-3.3-3.5c0-2.1 1.5-3.5 3.2-3.5c2 0 3.2 1.4 3.2 3.5c0 .2 0 .4-.1.5c0 0-4.8 0-4.8 0c.1 1 .9 1.7 1.8 1.7c1 0 1.5-.5 1.7-1.2c0 0 1.3.4 1.3.4zm3.6-4.7l1.3 0l0 1.4l-1.3 0c0 0-.04 3.09 0 3.1c0 .6.2.8.8.8c.2 0 .5 0 .5 0c0 0 0 1.3 0 1.3c-.1 0-.4.1-.9.1c-1.2 0-2-.7-2-2c.01.05 0-3.3 0-3.3l-1.2 0l0-1.4c0 0 .34.05.3 0c.7 0 1-.4 1-1c.05.02 0-1 0-1l1.5 0l0 2z" stroke="none" fill="#144542"/></g><g id="Polygon181841"><path d="m3 230.3c-.04-.02 0 .8 0 .8l1.5 0l0 1.4l-1.5 0l0 5.2l-1.6 0l0-5.2l-1.2 0l0-1.4l1.2 0c0 0-.02-.86 0-.9c0-1.4.9-2.3 2.3-2.3c.4 0 .7.1.8.1c0 0 0 1.4 0 1.4c-.1-.1-.3-.1-.6-.1c-.4 0-.9.2-.9 1zm7.3 4.1c0-1.3-.9-2-1.9-2c-.9 0-1.8.7-1.8 2c0 1.4.9 2.1 1.8 2.1c1 0 1.9-.7 1.9-2.1zm1.5 0c0 2.1-1.4 3.5-3.4 3.5c-1.9 0-3.4-1.4-3.4-3.5c0-2 1.5-3.5 3.4-3.5c2 0 3.4 1.5 3.4 3.5zm5.4-1.7c-.2 0-.4 0-.5 0c-1.2 0-1.8.7-1.8 1.9c.02-.01 0 3.1 0 3.1l-1.5 0l0-6.6l1.5 0c0 0-.02 1.1 0 1.1c.3-.7 1-1.1 1.9-1.1c.2 0 .3 0 .4 0c0 0 0 1.6 0 1.6zm1.3 5l0-6.6l1.5 0c0 0 .01.88 0 .9c.4-.7 1.2-1 2-1c.8 0 1.6.3 1.9 1.1c.5-.8 1.3-1.1 2.2-1.1c1.1 0 2.3.7 2.3 2.5c-.02-.05 0 4.2 0 4.2l-1.5 0c0 0-.03-3.99 0-4c0-.8-.4-1.3-1.3-1.3c-.8 0-1.4.6-1.4 1.4c.03.02 0 3.9 0 3.9l-1.5 0c0 0-.01-3.99 0-4c0-.7-.4-1.3-1.3-1.3c-.8 0-1.3.6-1.3 1.4c-.04.02 0 3.9 0 3.9l-1.6 0zm13.4-3.7c0 0 1.7-.3 1.7-.3c.3-.1.4-.2.4-.5c0-.5-.3-1-1.2-1c-.8 0-1.3.6-1.3 1.2c0 0-1.5-.3-1.5-.3c.1-1.1 1.2-2.2 2.8-2.2c2 0 2.8 1.2 2.8 2.5c0 0 0 3.3 0 3.3c0 .6.1 1 .1 1c0 0-1.5 0-1.5 0c0 0-.1-.3-.1-.8c-.3.5-.9 1-2 1c-1.4 0-2.2-.9-2.2-2c0-1.1.9-1.8 2-1.9zm2.1 1c.05-.01 0-.3 0-.3c0 0-1.67.25-1.7.3c-.5 0-.8.3-.8.8c0 .5.3.9.9.9c.9 0 1.6-.4 1.6-1.7zm5.4-3.9l1.4 0l0 1.4l-1.4 0c0 0 .03 3.09 0 3.1c0 .6.3.8.9.8c.2 0 .4 0 .5 0c0 0 0 1.3 0 1.3c-.1 0-.4.1-.9.1c-1.3 0-2-.7-2-2c-.02.05 0-3.3 0-3.3l-1.2 0l0-1.4c0 0 .3.05.3 0c.7 0 1-.4 1-1c.02.02 0-1 0-1l1.4 0l0 2zm3 6.6l0-6.6l1.6 0l0 6.6l-1.6 0zm.8-9.9c.5 0 1 .5 1 1c0 .6-.5 1.1-1 1.1c-.6 0-1-.5-1-1.1c0-.5.4-1 1-1zm7.5 6.6c0-1.3-.9-2-1.8-2c-1 0-1.9.7-1.9 2c0 1.4.9 2.1 1.9 2.1c.9 0 1.8-.7 1.8-2.1zm1.6 0c0 2.1-1.5 3.5-3.4 3.5c-2 0-3.4-1.4-3.4-3.5c0-2 1.4-3.5 3.4-3.5c1.9 0 3.4 1.5 3.4 3.5zm3.1 3.3l-1.6 0l0-6.6l1.5 0c0 0 .02.92 0 .9c.5-.7 1.2-1 2-1c1.6 0 2.3 1.1 2.3 2.6c.04-.04 0 4.1 0 4.1l-1.5 0c0 0-.02-3.87 0-3.9c0-.8-.4-1.4-1.4-1.4c-.9 0-1.3.7-1.3 1.5c-.04.03 0 3.8 0 3.8zm7.1-2c.7 0 1.3.6 1.3 1.4c0 1.9-1.3 2.7-2.2 2.8c0 0 0-.7 0-.7c.6-.2 1.1-.8 1.2-1.5c-.1 0-.2.1-.4.1c-.6 0-1-.4-1-1.1c0-.5.5-1 1.1-1z" stroke="none" fill="#144542"/></g><g id="Polygon181840"><path d="m3.8 220.3c1.1 0 1.8-.8 1.8-2.1c0-1.3-.7-2-1.8-2c-1 0-1.7.8-1.7 2c0 1.3.7 2.1 1.7 2.1zm3.3 0c0 .6 0 1.1.1 1.2c0 0-1.5 0-1.5 0c-.1-.1-.1-.6-.1-.8c-.3.5-1 1-1.9 1c-1.9 0-3.2-1.5-3.2-3.5c0-1.9 1.3-3.4 3.1-3.4c1.2 0 1.8.5 2 .9c-.04.02 0-4 0-4l1.5 0c0 0-.01 8.62 0 8.6zm6.4-2.8c-.1-.8-.6-1.4-1.7-1.4c-.9 0-1.5.7-1.6 1.4c0 0 3.3 0 3.3 0zm1.5 2.1c-.4 1.2-1.4 2.1-3 2.1c-1.8 0-3.4-1.3-3.4-3.5c0-2.1 1.6-3.5 3.2-3.5c2.1 0 3.2 1.4 3.2 3.5c0 .2 0 .4 0 .5c0 0-4.8 0-4.8 0c0 1 .8 1.7 1.8 1.7c.9 0 1.4-.5 1.6-1.2c0 0 1.4.4 1.4.4zm2.3-.2c.1.6.5 1.1 1.4 1.1c.6 0 .9-.4.9-.8c0-.3-.2-.6-.7-.7c0 0-1-.2-1-.2c-1.2-.3-1.8-1-1.8-1.9c0-1.2 1.1-2.2 2.4-2.2c1.9 0 2.5 1.2 2.6 1.9c0 0-1.3.4-1.3.4c-.1-.4-.4-1-1.3-1c-.5 0-.9.3-.9.7c0 .4.3.6.7.7c0 0 1 .2 1 .2c1.2.3 1.9 1 1.9 2c0 1-.9 2.1-2.5 2.1c-1.9 0-2.7-1.2-2.7-2c0 0 1.3-.3 1.3-.3zm9.8-1.2c0 1.4.9 2.1 1.8 2.1c1.1 0 1.5-.7 1.7-1.2c0 0 1.4.5 1.4.5c-.3 1-1.3 2.1-3.1 2.1c-1.9 0-3.4-1.5-3.4-3.5c0-2 1.5-3.5 3.4-3.5c1.8 0 2.7 1.2 3 2.2c0 0-1.4.5-1.4.5c-.1-.6-.6-1.2-1.6-1.2c-.9 0-1.8.7-1.8 2zm7.8-.4c0 0 1.7-.3 1.7-.3c.4-.1.5-.2.5-.5c0-.5-.4-1-1.3-1c-.8 0-1.3.6-1.3 1.2c0 0-1.5-.3-1.5-.3c.2-1.1 1.2-2.2 2.8-2.2c2 0 2.8 1.2 2.8 2.5c0 0 0 3.3 0 3.3c0 .6.1 1 .1 1c0 0-1.5 0-1.5 0c0 0 0-.3 0-.8c-.3.5-1 1-2.1 1c-1.3 0-2.2-.9-2.2-2c0-1.1.9-1.8 2-1.9zm2.2 1c-.03-.01 0-.3 0-.3c0 0-1.74.25-1.7.3c-.5 0-.9.3-.9.8c0 .5.3.9.9.9c.9 0 1.7-.4 1.7-1.7zm5 2.7l-1.6 0l0-6.6l1.5 0c0 0 .02.92 0 .9c.5-.7 1.2-1 2-1c1.6 0 2.3 1.1 2.3 2.6c.04-.04 0 4.1 0 4.1l-1.5 0c0 0-.02-3.87 0-3.9c0-.8-.4-1.4-1.4-1.4c-.9 0-1.3.7-1.3 1.5c-.04.03 0 3.8 0 3.8zm9-1.2c1 0 1.7-.8 1.7-2.1c0-1.3-.7-2-1.7-2c-1 0-1.8.8-1.8 2c0 1.3.7 2.1 1.8 2.1zm3.2 0c0 .6.1 1.1.1 1.2c0 0-1.5 0-1.5 0c0-.1-.1-.6-.1-.8c-.3.5-1 1-1.9 1c-1.9 0-3.2-1.5-3.2-3.5c0-1.9 1.3-3.4 3.2-3.4c1.1 0 1.7.5 1.9.9c0 .02 0-4 0-4l1.5 0c0 0 .02 8.62 0 8.6zm2.1 1.2l0-6.6l1.5 0l0 6.6l-1.5 0zm.7-9.9c.6 0 1.1.5 1.1 1c0 .6-.5 1.1-1.1 1.1c-.5 0-1-.5-1-1.1c0-.5.5-1 1-1zm5.7 8.7c1 0 1.7-.8 1.7-2.1c0-1.3-.7-2-1.7-2c-1 0-1.8.8-1.8 2c0 1.3.7 2.1 1.8 2.1zm3.2 0c0 .6.1 1.1.1 1.2c0 0-1.5 0-1.5 0c0-.1-.1-.6-.1-.8c-.3.5-1 1-1.9 1c-1.9 0-3.2-1.5-3.2-3.5c0-1.9 1.3-3.4 3.2-3.4c1.1 0 1.7.5 1.9.9c0 .02 0-4 0-4l1.5 0c0 0 .03 8.62 0 8.6zm3.6-2.5c0 0 1.7-.3 1.7-.3c.4-.1.5-.2.5-.5c0-.5-.4-1-1.2-1c-.9 0-1.3.6-1.4 1.2c0 0-1.4-.3-1.4-.3c.1-1.1 1.1-2.2 2.7-2.2c2.1 0 2.8 1.2 2.8 2.5c0 0 0 3.3 0 3.3c0 .6.1 1 .1 1c0 0-1.4 0-1.4 0c0 0-.1-.3-.1-.8c-.3.5-1 1-2 1c-1.4 0-2.3-.9-2.3-2c0-1.1.9-1.8 2-1.9zm2.2 1c.01-.01 0-.3 0-.3c0 0-1.71.25-1.7.3c-.5 0-.9.3-.9.8c0 .5.4.9 1 .9c.8 0 1.6-.4 1.6-1.7zm5.4-3.9l1.4 0l0 1.4l-1.4 0c0 0-.01 3.09 0 3.1c0 .6.2.8.8.8c.2 0 .5 0 .6 0c0 0 0 1.3 0 1.3c-.1 0-.4.1-1 .1c-1.2 0-2-.7-2-2c.04.05 0-3.3 0-3.3l-1.2 0l0-1.4c0 0 .36.05.4 0c.7 0 1-.4 1-1c-.03.02 0-1 0-1l1.4 0l0 2zm7.3 5.9c-.4.6-1.1.9-1.9.9c-1.6 0-2.5-1.2-2.5-2.6c.01-.01 0-4.2 0-4.2l1.6 0c0 0-.03 3.91 0 3.9c0 .8.4 1.5 1.3 1.5c.9 0 1.4-.6 1.4-1.5c-.03.04 0-3.9 0-3.9l1.5 0c0 0 .04 5.42 0 5.4c0 .6.1 1 .1 1.2c0 0-1.5 0-1.5 0c0-.1 0-.4 0-.7c0 0 0 0 0 0zm7.3-4.3c-.2 0-.3 0-.5 0c-1.2 0-1.8.7-1.8 1.9c.03-.01 0 3.1 0 3.1l-1.5 0l0-6.6l1.5 0c0 0-.01 1.1 0 1.1c.3-.7 1-1.1 1.9-1.1c.2 0 .3 0 .4 0c0 0 0 1.6 0 1.6zm5.6 1c-.1-.8-.6-1.4-1.6-1.4c-1 0-1.6.7-1.7 1.4c0 0 3.3 0 3.3 0zm1.5 2.1c-.4 1.2-1.4 2.1-3 2.1c-1.8 0-3.4-1.3-3.4-3.5c0-2.1 1.6-3.5 3.2-3.5c2.1 0 3.3 1.4 3.3 3.5c0 .2-.1.4-.1.5c0 0-4.8 0-4.8 0c0 1 .8 1.7 1.8 1.7c.9 0 1.4-.5 1.7-1.2c0 0 1.3.4 1.3.4zm2.3-.2c.1.6.5 1.1 1.4 1.1c.6 0 1-.4 1-.8c0-.3-.3-.6-.8-.7c0 0-1-.2-1-.2c-1.1-.3-1.8-1-1.8-1.9c0-1.2 1.1-2.2 2.5-2.2c1.8 0 2.4 1.2 2.5 1.9c0 0-1.3.4-1.3.4c-.1-.4-.4-1-1.2-1c-.6 0-1 .3-1 .7c0 .4.3.6.7.7c0 0 1 .2 1 .2c1.2.3 1.9 1 1.9 2c0 1-.8 2.1-2.5 2.1c-1.9 0-2.6-1.2-2.7-2c0 0 1.3-.3 1.3-.3zm6.4.1c.7 0 1.2.6 1.2 1.4c0 1.9-1.2 2.7-2.2 2.8c0 0 0-.7 0-.7c.7-.2 1.2-.8 1.2-1.5c0 0-.1.1-.3.1c-.6 0-1-.4-1-1.1c0-.5.5-1 1.1-1z" stroke="none" fill="#144542"/></g><g id="Polygon181839"><path d="m1 207.9l0-9.2l1.5 0c0 0 .02.94 0 .9c.3-.5 1.1-1 2.1-1c2 0 3.1 1.5 3.1 3.4c0 2-1.2 3.5-3.1 3.5c-1 0-1.7-.4-2-.9c-.04-.02 0 3.3 0 3.3l-1.6 0zm5.1-5.9c0-1.2-.7-2-1.8-2c-1 0-1.7.8-1.7 2c0 1.3.7 2.1 1.7 2.1c1.1 0 1.8-.8 1.8-2.1c0 0 0 0 0 0zm6.9-1.7c-.2 0-.3 0-.5 0c-1.2 0-1.8.7-1.8 1.9c.03-.01 0 3.1 0 3.1l-1.5 0l0-6.6l1.5 0c0 0-.01 1.1 0 1.1c.3-.7 1-1.1 1.9-1.1c.2 0 .3 0 .4 0c0 0 0 1.6 0 1.6zm6 1.7c0-1.3-.9-2-1.9-2c-.9 0-1.8.7-1.8 2c0 1.4.9 2.1 1.8 2.1c1 0 1.9-.7 1.9-2.1zm1.6 0c0 2.1-1.5 3.5-3.5 3.5c-1.9 0-3.4-1.4-3.4-3.5c0-2 1.5-3.5 3.4-3.5c2 0 3.5 1.5 3.5 3.5zm5-6.4c0 0 0 1.4 0 1.4c-.1-.1-.3-.1-.6-.1c-.4 0-1 .2-1 1c.02-.02 0 .8 0 .8l4.4 0l0 6.6l-1.5 0l0-5.2l-2.9 0l0 5.2l-1.6 0l0-5.2l-1.1 0l0-1.4l1.1 0c0 0 .04-.86 0-.9c0-1.4 1-2.3 2.3-2.3c.4 0 .7.1.9.1zm1 .8c0-.5.5-1 1-1c.6 0 1 .5 1 1c0 .6-.4 1-1 1c-.5 0-1-.4-1-1c0 0 0 0 0 0zm3.8 8.9l0-9.8l1.6 0l0 9.8l-1.6 0zm4.4-2.1c.1.6.5 1.1 1.3 1.1c.7 0 1-.4 1-.8c0-.3-.2-.6-.7-.7c0 0-1-.2-1-.2c-1.2-.3-1.8-1-1.8-1.9c0-1.2 1.1-2.2 2.4-2.2c1.9 0 2.5 1.2 2.6 1.9c0 0-1.4.4-1.4.4c0-.4-.3-1-1.2-1c-.5 0-.9.3-.9.7c0 .4.2.6.6.7c0 0 1 .2 1 .2c1.3.3 1.9 1 1.9 2c0 1-.8 2.1-2.4 2.1c-2 0-2.7-1.2-2.8-2c0 0 1.4-.3 1.4-.3zm6.4.1c.7 0 1.2.6 1.2 1.4c0 1.9-1.3 2.7-2.2 2.8c0 0 0-.7 0-.7c.6-.2 1.2-.8 1.2-1.5c-.1 0-.1.1-.3.1c-.6 0-1-.4-1-1.1c0-.5.4-1 1.1-1zm11 4.6c0 0 .02-3.36 0-3.4c-.3.6-1 1-1.9 1c-1.9 0-3.2-1.5-3.2-3.5c0-1.9 1.2-3.4 3.1-3.4c1.2 0 1.8.6 2.1 1c-.04.02 0-.9 0-.9l1.5 0l0 9.2l-1.6 0zm-1.7-3.8c1 0 1.7-.8 1.7-2.1c0-1.2-.7-2-1.7-2c-1.1 0-1.8.8-1.8 2c0 1.3.7 2.1 1.8 2.1zm9.5.5c-.4.6-1.1.9-1.9.9c-1.6 0-2.5-1.2-2.5-2.6c.02-.01 0-4.2 0-4.2l1.6 0c0 0-.02 3.91 0 3.9c0 .8.4 1.5 1.3 1.5c.9 0 1.4-.6 1.4-1.5c-.01.04 0-3.9 0-3.9l1.5 0c0 0 .05 5.42 0 5.4c0 .6.1 1 .1 1.2c0 0-1.5 0-1.5 0c0-.1 0-.4 0-.7c0 0 0 0 0 0zm5.1-3c0 0 1.6-.3 1.6-.3c.4-.1.5-.2.5-.5c0-.5-.3-1-1.2-1c-.8 0-1.3.6-1.4 1.2c0 0-1.4-.3-1.4-.3c.1-1.1 1.2-2.2 2.8-2.2c2 0 2.8 1.2 2.8 2.5c0 0 0 3.3 0 3.3c0 .6 0 1 0 1c0 0-1.4 0-1.4 0c0 0-.1-.3-.1-.8c-.3.5-.9 1-2 1c-1.4 0-2.2-.9-2.2-2c0-1.1.8-1.8 2-1.9zm2.1 1c.03-.01 0-.3 0-.3c0 0-1.69.25-1.7.3c-.5 0-.9.3-.9.8c0 .5.4.9 1 .9c.9 0 1.6-.4 1.6-1.7zm3.5 2.7l0-9.8l1.5 0l0 9.8l-1.5 0zm3.5 0l0-6.6l1.6 0l0 6.6l-1.6 0zm.8-9.9c.6 0 1 .5 1 1c0 .6-.4 1.1-1 1.1c-.5 0-1-.5-1-1.1c0-.5.5-1 1-1zm6.3.2c0 0 0 1.4 0 1.4c-.1-.1-.3-.1-.6-.1c-.4 0-.9.2-.9 1c-.03-.02 0 .8 0 .8l4.3 0l0 6.6l-1.5 0l0-5.2l-2.8 0l0 5.2l-1.6 0l0-5.2l-1.2 0l0-1.4l1.2 0c0 0-.01-.86 0-.9c0-1.4.9-2.3 2.3-2.3c.4 0 .7.1.8.1zm1.1.8c0-.5.4-1 1-1c.5 0 1 .5 1 1c0 .6-.5 1-1 1c-.6 0-1-.4-1-1c0 0 0 0 0 0zm4.8 5.6c0 1.4.9 2.1 1.9 2.1c1 0 1.5-.7 1.6-1.2c0 0 1.4.5 1.4.5c-.3 1-1.3 2.1-3 2.1c-2 0-3.4-1.5-3.4-3.5c0-2 1.4-3.5 3.3-3.5c1.8 0 2.8 1.2 3 2.2c0 0-1.4.5-1.4.5c-.1-.6-.6-1.2-1.6-1.2c-.9 0-1.8.7-1.8 2zm7.8-.4c0 0 1.7-.3 1.7-.3c.4-.1.5-.2.5-.5c0-.5-.4-1-1.2-1c-.9 0-1.3.6-1.4 1.2c0 0-1.4-.3-1.4-.3c.1-1.1 1.1-2.2 2.7-2.2c2.1 0 2.8 1.2 2.8 2.5c0 0 0 3.3 0 3.3c0 .6.1 1 .1 1c0 0-1.4 0-1.4 0c-.1 0-.1-.3-.1-.8c-.3.5-1 1-2 1c-1.4 0-2.3-.9-2.3-2c0-1.1.9-1.8 2-1.9zm2.2 1c0-.01 0-.3 0-.3c0 0-1.72.25-1.7.3c-.5 0-.9.3-.9.8c0 .5.3.9 1 .9c.8 0 1.6-.4 1.6-1.7zm5.4-3.9l1.3 0l0 1.4l-1.3 0c0 0-.02 3.09 0 3.1c0 .6.2.8.8.8c.2 0 .5 0 .6 0c0 0 0 1.3 0 1.3c-.1 0-.4.1-1 .1c-1.2 0-2-.7-2-2c.03.05 0-3.3 0-3.3l-1.2 0l0-1.4c0 0 .36.05.4 0c.7 0 1-.4 1-1c-.03.02 0-1 0-1l1.4 0l0 2zm3 6.6l0-6.6l1.5 0l0 6.6l-1.5 0zm.7-9.9c.6 0 1 .5 1 1c0 .6-.4 1.1-1 1.1c-.5 0-1-.5-1-1.1c0-.5.5-1 1-1zm7.6 6.6c0-1.3-.9-2-1.9-2c-.9 0-1.8.7-1.8 2c0 1.4.9 2.1 1.8 2.1c1 0 1.9-.7 1.9-2.1zm1.5 0c0 2.1-1.4 3.5-3.4 3.5c-1.9 0-3.4-1.4-3.4-3.5c0-2 1.5-3.5 3.4-3.5c2 0 3.4 1.5 3.4 3.5zm3.1 3.3l-1.6 0l0-6.6l1.6 0c0 0-.03.92 0 .9c.4-.7 1.2-1 1.9-1c1.6 0 2.4 1.1 2.4 2.6c-.01-.04 0 4.1 0 4.1l-1.6 0c0 0 .03-3.87 0-3.9c0-.8-.3-1.4-1.3-1.4c-.9 0-1.4.7-1.4 1.5c.01.03 0 3.8 0 3.8z" stroke="none" fill="#144542"/></g><g id="Polygon181838"><path d="m1 189.1l0-6.6l1.6 0l0 6.6l-1.6 0zm.8-9.9c.5 0 1 .5 1 1c0 .6-.5 1.1-1 1.1c-.6 0-1-.5-1-1.1c0-.5.4-1 1-1zm5.6 8.7c1 0 1.8-.8 1.8-2.1c0-1.3-.7-2-1.8-2c-1 0-1.8.8-1.8 2c0 1.3.7 2.1 1.8 2.1zm3.3 0c0 .6 0 1.1 0 1.2c0 0-1.5 0-1.5 0c0-.1 0-.6 0-.8c-.3.5-1 1-2 1c-1.9 0-3.1-1.5-3.1-3.5c0-1.9 1.3-3.4 3.1-3.4c1.2 0 1.7.5 1.9.9c.04.02 0-4 0-4l1.6 0c0 0-.04 8.62 0 8.6zm6.3-2.8c0-.8-.5-1.4-1.6-1.4c-1 0-1.5.7-1.6 1.4c0 0 3.2 0 3.2 0zm1.5 2.1c-.3 1.2-1.4 2.1-2.9 2.1c-1.8 0-3.4-1.3-3.4-3.5c0-2.1 1.5-3.5 3.2-3.5c2 0 3.2 1.4 3.2 3.5c0 .2 0 .4 0 .5c0 0-4.8 0-4.8 0c0 1 .8 1.7 1.8 1.7c.9 0 1.4-.5 1.6-1.2c0 0 1.3.4 1.3.4zm3.2 1.9l-1.6 0l0-6.6l1.5 0c0 0 .04.92 0 .9c.5-.7 1.3-1 2-1c1.6 0 2.4 1.1 2.4 2.6c-.04-.04 0 4.1 0 4.1l-1.6 0c0 0 0-3.87 0-3.9c0-.8-.4-1.4-1.4-1.4c-.8 0-1.3.7-1.3 1.5c-.02.03 0 3.8 0 3.8zm8.1-6.6l1.4 0l0 1.4l-1.4 0c0 0 .05 3.09 0 3.1c0 .6.3.8.9.8c.2 0 .5 0 .5 0c0 0 0 1.3 0 1.3c-.1 0-.4.1-.9.1c-1.2 0-2-.7-2-2c0 .05 0-3.3 0-3.3l-1.2 0l0-1.4c0 0 .32.05.3 0c.7 0 1-.4 1-1c.03.02 0-1 0-1l1.4 0l0 2zm3 6.6l0-6.6l1.6 0l0 6.6l-1.6 0zm.8-9.9c.6 0 1 .5 1 1c0 .6-.4 1.1-1 1.1c-.6 0-1-.5-1-1.1c0-.5.4-1 1-1zm6.3.2c0 0 0 1.4 0 1.4c-.1-.1-.3-.1-.6-.1c-.4 0-1 .2-1 1c.04-.02 0 .8 0 .8l4.4 0l0 6.6l-1.5 0l0-5.2l-2.9 0l0 5.2l-1.5 0l0-5.2l-1.2 0l0-1.4l1.2 0c0 0-.04-.86 0-.9c0-1.4.9-2.3 2.3-2.3c.3 0 .7.1.8.1zm1 .8c0-.5.5-1 1-1c.6 0 1.1.5 1.1 1c0 .6-.5 1-1.1 1c-.5 0-1-.4-1-1c0 0 0 0 0 0zm4.9 5.6c0 1.4.9 2.1 1.8 2.1c1.1 0 1.5-.7 1.7-1.2c0 0 1.4.5 1.4.5c-.3 1-1.3 2.1-3.1 2.1c-1.9 0-3.4-1.5-3.4-3.5c0-2 1.5-3.5 3.4-3.5c1.8 0 2.7 1.2 3 2.2c0 0-1.4.5-1.4.5c-.1-.6-.6-1.2-1.6-1.2c-.9 0-1.8.7-1.8 2zm7.8-.4c0 0 1.7-.3 1.7-.3c.4-.1.5-.2.5-.5c0-.5-.4-1-1.3-1c-.8 0-1.3.6-1.3 1.2c0 0-1.5-.3-1.5-.3c.2-1.1 1.2-2.2 2.8-2.2c2 0 2.8 1.2 2.8 2.5c0 0 0 3.3 0 3.3c0 .6.1 1 .1 1c0 0-1.5 0-1.5 0c0 0 0-.3 0-.8c-.3.5-1 1-2.1 1c-1.3 0-2.2-.9-2.2-2c0-1.1.9-1.8 2-1.9zm2.2 1c-.03-.01 0-.3 0-.3c0 0-1.75.25-1.7.3c-.5 0-.9.3-.9.8c0 .5.3.9.9.9c.9 0 1.7-.4 1.7-1.7zm5.4-3.9l1.3 0l0 1.4l-1.3 0c0 0-.05 3.09 0 3.1c0 .6.2.8.8.8c.2 0 .5 0 .5 0c0 0 0 1.3 0 1.3c-.1 0-.4.1-.9.1c-1.2 0-2-.7-2-2c0 .05 0-3.3 0-3.3l-1.2 0l0-1.4c0 0 .32.05.3 0c.7 0 1-.4 1-1c.04.02 0-1 0-1l1.5 0l0 2zm2.9 6.6l0-6.6l1.6 0l0 6.6l-1.6 0zm.8-9.9c.6 0 1 .5 1 1c0 .6-.4 1.1-1 1.1c-.6 0-1-.5-1-1.1c0-.5.4-1 1-1zm7.5 6.6c0-1.3-.8-2-1.8-2c-1 0-1.8.7-1.8 2c0 1.4.8 2.1 1.8 2.1c1 0 1.8-.7 1.8-2.1zm1.6 0c0 2.1-1.4 3.5-3.4 3.5c-2 0-3.4-1.4-3.4-3.5c0-2 1.4-3.5 3.4-3.5c2 0 3.4 1.5 3.4 3.5zm3.1 3.3l-1.6 0l0-6.6l1.5 0c0 0 .04.92 0 .9c.5-.7 1.3-1 2-1c1.6 0 2.4 1.1 2.4 2.6c-.04-.04 0 4.1 0 4.1l-1.6 0c0 0 0-3.87 0-3.9c0-.8-.4-1.4-1.4-1.4c-.8 0-1.3.7-1.3 1.5c-.02.03 0 3.8 0 3.8zm12.3-1.2c1.1 0 1.8-.8 1.8-2.1c0-1.3-.7-2-1.8-2c-1 0-1.7.8-1.7 2c0 1.3.7 2.1 1.7 2.1zm3.3 0c0 .6 0 1.1.1 1.2c0 0-1.5 0-1.5 0c-.1-.1-.1-.6-.1-.8c-.3.5-1 1-1.9 1c-1.9 0-3.2-1.5-3.2-3.5c0-1.9 1.3-3.4 3.1-3.4c1.2 0 1.8.5 2 .9c-.04.02 0-4 0-4l1.5 0c0 0-.01 8.62 0 8.6zm6.4-2.8c-.1-.8-.6-1.4-1.7-1.4c-.9 0-1.5.7-1.6 1.4c0 0 3.3 0 3.3 0zm1.5 2.1c-.4 1.2-1.4 2.1-3 2.1c-1.8 0-3.4-1.3-3.4-3.5c0-2.1 1.6-3.5 3.2-3.5c2.1 0 3.2 1.4 3.2 3.5c0 .2 0 .4 0 .5c0 0-4.8 0-4.8 0c0 1 .8 1.7 1.8 1.7c.9 0 1.4-.5 1.6-1.2c0 0 1.4.4 1.4.4zm2.3-.2c.1.6.5 1.1 1.4 1.1c.6 0 .9-.4.9-.8c0-.3-.2-.6-.7-.7c0 0-1-.2-1-.2c-1.2-.3-1.8-1-1.8-1.9c0-1.2 1.1-2.2 2.5-2.2c1.8 0 2.4 1.2 2.5 1.9c0 0-1.3.4-1.3.4c-.1-.4-.4-1-1.2-1c-.6 0-1 .3-1 .7c0 .4.3.6.7.7c0 0 1 .2 1 .2c1.2.3 1.9 1 1.9 2c0 1-.9 2.1-2.5 2.1c-1.9 0-2.7-1.2-2.7-2c0 0 1.3-.3 1.3-.3z" stroke="none" fill="#144542"/></g><g id="Polygon181837"><path d="m3.8 171.7c1.1 0 1.8-.8 1.8-2.1c0-1.3-.7-2-1.8-2c-1 0-1.7.8-1.7 2c0 1.3.7 2.1 1.7 2.1zm3.3 0c0 .6 0 1.1.1 1.2c0 0-1.5 0-1.5 0c-.1-.1-.1-.6-.1-.8c-.3.5-1 1-1.9 1c-1.9 0-3.2-1.5-3.2-3.5c0-1.9 1.3-3.4 3.1-3.4c1.2 0 1.8.5 2 .9c-.04.02 0-4 0-4l1.5 0c0 0-.01 8.62 0 8.6zm6.4-2.8c-.1-.8-.6-1.4-1.7-1.4c-.9 0-1.5.7-1.6 1.4c0 0 3.3 0 3.3 0zm1.5 2.1c-.4 1.2-1.4 2.1-3 2.1c-1.8 0-3.4-1.3-3.4-3.5c0-2.1 1.6-3.5 3.2-3.5c2.1 0 3.2 1.4 3.2 3.5c0 .2 0 .4 0 .5c0 0-4.8 0-4.8 0c0 1 .8 1.7 1.8 1.7c.9 0 1.4-.5 1.6-1.2c0 0 1.4.4 1.4.4zm2.3-.2c.1.6.5 1.1 1.4 1.1c.6 0 .9-.4.9-.8c0-.3-.2-.6-.7-.7c0 0-1-.2-1-.2c-1.2-.3-1.8-1-1.8-1.9c0-1.2 1.1-2.2 2.4-2.2c1.9 0 2.5 1.2 2.6 1.9c0 0-1.3.4-1.3.4c-.1-.4-.4-1-1.3-1c-.5 0-.9.3-.9.7c0 .4.3.6.7.7c0 0 1 .2 1 .2c1.2.3 1.9 1 1.9 2c0 1-.9 2.1-2.5 2.1c-1.9 0-2.7-1.2-2.7-2c0 0 1.3-.3 1.3-.3zm10.3-1.6c0 0 1.7-.3 1.7-.3c.4-.1.5-.2.5-.5c0-.5-.4-1-1.2-1c-.9 0-1.3.6-1.4 1.2c0 0-1.4-.3-1.4-.3c.1-1.1 1.1-2.2 2.8-2.2c2 0 2.7 1.2 2.7 2.5c0 0 0 3.3 0 3.3c0 .6.1 1 .1 1c0 0-1.4 0-1.4 0c0 0-.1-.3-.1-.8c-.3.5-1 1-2 1c-1.4 0-2.2-.9-2.2-2c0-1.1.8-1.8 1.9-1.9zm2.2 1c.01-.01 0-.3 0-.3c0 0-1.71.25-1.7.3c-.5 0-.9.3-.9.8c0 .5.4.9 1 .9c.9 0 1.6-.4 1.6-1.7zm3.4 5.3l0-9.2l1.5 0c0 0 .05.94 0 .9c.4-.5 1.1-1 2.1-1c2 0 3.1 1.5 3.1 3.4c0 2-1.2 3.5-3.1 3.5c-1 0-1.7-.4-2-.9c-.01-.02 0 3.3 0 3.3l-1.6 0zm5.1-5.9c0-1.2-.7-2-1.8-2c-1 0-1.7.8-1.7 2c0 1.3.7 2.1 1.7 2.1c1.1 0 1.8-.8 1.8-2.1c0 0 0 0 0 0zm3.1 5.9l0-9.2l1.5 0c0 0 0 .94 0 .9c.3-.5 1.1-1 2.1-1c1.9 0 3 1.5 3 3.4c0 2-1.2 3.5-3.1 3.5c-.9 0-1.6-.4-2-.9c.04-.02 0 3.3 0 3.3l-1.5 0zm5.1-5.9c0-1.2-.7-2-1.8-2c-1 0-1.8.8-1.8 2c0 1.3.8 2.1 1.8 2.1c1 0 1.8-.8 1.8-2.1c0 0 0 0 0 0zm6.9-1.7c-.2 0-.4 0-.5 0c-1.2 0-1.8.7-1.8 1.9c.01-.01 0 3.1 0 3.1l-1.6 0l0-6.6l1.6 0c0 0-.03 1.1 0 1.1c.3-.7 1-1.1 1.9-1.1c.2 0 .3 0 .4 0c0 0 0 1.6 0 1.6zm5.6 1c-.1-.8-.6-1.4-1.7-1.4c-1 0-1.5.7-1.6 1.4c0 0 3.3 0 3.3 0zm1.5 2.1c-.4 1.2-1.4 2.1-3 2.1c-1.8 0-3.4-1.3-3.4-3.5c0-2.1 1.6-3.5 3.2-3.5c2 0 3.2 1.4 3.2 3.5c0 .2 0 .4 0 .5c0 0-4.8 0-4.8 0c0 1 .8 1.7 1.8 1.7c.9 0 1.4-.5 1.6-1.2c0 0 1.4.4 1.4.4zm3.1 1.9l-1.6 0l0-6.6l1.6 0c0 0-.04.92 0 .9c.4-.7 1.2-1 1.9-1c1.6 0 2.4 1.1 2.4 2.6c-.02-.04 0 4.1 0 4.1l-1.6 0c0 0 .01-3.87 0-3.9c0-.8-.4-1.4-1.3-1.4c-.9 0-1.4.7-1.4 1.5c0 .03 0 3.8 0 3.8zm7.8-3.7c0 0 1.6-.3 1.6-.3c.4-.1.5-.2.5-.5c0-.5-.3-1-1.2-1c-.8 0-1.3.6-1.4 1.2c0 0-1.4-.3-1.4-.3c.1-1.1 1.2-2.2 2.8-2.2c2 0 2.8 1.2 2.8 2.5c0 0 0 3.3 0 3.3c0 .6 0 1 .1 1c0 0-1.5 0-1.5 0c0 0-.1-.3-.1-.8c-.3.5-.9 1-2 1c-1.4 0-2.2-.9-2.2-2c0-1.1.8-1.8 2-1.9zm2.1 1c.03-.01 0-.3 0-.3c0 0-1.68.25-1.7.3c-.5 0-.9.3-.9.8c0 .5.4.9 1 .9c.9 0 1.6-.4 1.6-1.7zm5 2.7l-1.5 0l0-6.6l1.5 0c0 0-.01.92 0 .9c.4-.7 1.2-1 1.9-1c1.6 0 2.4 1.1 2.4 2.6c.01-.04 0 4.1 0 4.1l-1.6 0c0 0 .04-3.87 0-3.9c0-.8-.3-1.4-1.3-1.4c-.9 0-1.4.7-1.4 1.5c.03.03 0 3.8 0 3.8zm8.2-6.6l1.4 0l0 1.4l-1.4 0c0 0-.01 3.09 0 3.1c0 .6.3.8.8.8c.2 0 .5 0 .6 0c0 0 0 1.3 0 1.3c-.1 0-.4.1-1 .1c-1.2 0-2-.7-2-2c.04.05 0-3.3 0-3.3l-1.2 0l0-1.4c0 0 .37.05.4 0c.7 0 1-.4 1-1c-.02.02 0-1 0-1l1.4 0l0 2zm3.9 4.5c0 .6.5 1.1 1.3 1.1c.6 0 1-.4 1-.8c0-.3-.3-.6-.8-.7c0 0-1-.2-1-.2c-1.1-.3-1.7-1-1.7-1.9c0-1.2 1-2.2 2.4-2.2c1.8 0 2.4 1.2 2.5 1.9c0 0-1.3.4-1.3.4c-.1-.4-.3-1-1.2-1c-.6 0-1 .3-1 .7c0 .4.3.6.7.7c0 0 1 .2 1 .2c1.2.3 1.9 1 1.9 2c0 1-.8 2.1-2.5 2.1c-1.9 0-2.6-1.2-2.7-2c0 0 1.4-.3 1.4-.3zm9.7 0c.6 0 1.1.5 1.1 1.1c0 .6-.5 1.1-1.1 1.1c-.6 0-1.1-.5-1.1-1.1c0-.6.5-1.1 1.1-1.1zm0-4.5c.6 0 1.1.5 1.1 1.1c0 .6-.5 1-1.1 1c-.6 0-1.1-.4-1.1-1c0-.6.5-1.1 1.1-1.1z" stroke="none" fill="#144542"/></g><g id="Polygon181836"><path d="m4.3 149.3l-1.3 0l1.2-2l1.8 0l-1.7 2zm1 3.4c0-.8-.5-1.4-1.6-1.4c-1 0-1.5.7-1.6 1.4c0 0 3.2 0 3.2 0zm1.5 2.1c-.3 1.2-1.4 2.1-2.9 2.1c-1.8 0-3.4-1.3-3.4-3.5c0-2.1 1.5-3.5 3.2-3.5c2 0 3.2 1.4 3.2 3.5c0 .2 0 .4 0 .5c0 0-4.8 0-4.8 0c0 1 .8 1.7 1.8 1.7c.9 0 1.4-.5 1.6-1.2c0 0 1.3.4 1.3.4zm3.6-4.7l1.4 0l0 1.4l-1.4 0c0 0-.01 3.09 0 3.1c0 .6.3.8.8.8c.2 0 .5 0 .6 0c0 0 0 1.3 0 1.3c-.1 0-.4.1-1 .1c-1.2 0-2-.7-2-2c.04.05 0-3.3 0-3.3l-1.2 0l0-1.4c0 0 .37.05.4 0c.7 0 1-.4 1-1c-.02.02 0-1 0-1l1.4 0l0 2zm4.6 2.9c0 0 1.6-.3 1.6-.3c.4-.1.5-.2.5-.5c0-.5-.3-1-1.2-1c-.8 0-1.3.6-1.4 1.2c0 0-1.4-.3-1.4-.3c.1-1.1 1.2-2.2 2.8-2.2c2 0 2.8 1.2 2.8 2.5c0 0 0 3.3 0 3.3c0 .6 0 1 .1 1c0 0-1.5 0-1.5 0c0 0-.1-.3-.1-.8c-.3.5-.9 1-2 1c-1.4 0-2.2-.9-2.2-2c0-1.1.8-1.8 2-1.9zm2.1 1c.03-.01 0-.3 0-.3c0 0-1.68.25-1.7.3c-.5 0-.9.3-.9.8c0 .5.4.9 1 .9c.9 0 1.6-.4 1.6-1.7zm3.5 5.3l0-9.2l1.5 0c0 0-.03.94 0 .9c.3-.5 1.1-1 2.1-1c1.9 0 3 1.5 3 3.4c0 2-1.2 3.5-3.1 3.5c-.9 0-1.7-.4-2-.9c.01-.02 0 3.3 0 3.3l-1.5 0zm5-5.9c0-1.2-.7-2-1.7-2c-1.1 0-1.8.8-1.8 2c0 1.3.7 2.1 1.8 2.1c1 0 1.7-.8 1.7-2.1c0 0 0 0 0 0zm7.4-.7c0-.8-.5-1.4-1.6-1.4c-1 0-1.5.7-1.6 1.4c0 0 3.2 0 3.2 0zm1.5 2.1c-.3 1.2-1.4 2.1-2.9 2.1c-1.8 0-3.4-1.3-3.4-3.5c0-2.1 1.5-3.5 3.2-3.5c2 0 3.2 1.4 3.2 3.5c0 .2 0 .4 0 .5c0 0-4.8 0-4.8 0c0 1 .8 1.7 1.8 1.7c.9 0 1.4-.5 1.6-1.2c0 0 1.3.4 1.3.4zm2.4-.2c0 .6.5 1.1 1.3 1.1c.7 0 1-.4 1-.8c0-.3-.2-.6-.8-.7c0 0-.9-.2-.9-.2c-1.2-.3-1.8-1-1.8-1.9c0-1.2 1.1-2.2 2.4-2.2c1.9 0 2.5 1.2 2.6 1.9c0 0-1.4.4-1.4.4c0-.4-.3-1-1.2-1c-.5 0-.9.3-.9.7c0 .4.2.6.6.7c0 0 1 .2 1 .2c1.3.3 1.9 1 1.9 2c0 1-.8 2.1-2.5 2.1c-1.9 0-2.6-1.2-2.7-2c0 0 1.4-.3 1.4-.3zm11.6.9c1 0 1.7-.8 1.7-2.1c0-1.3-.7-2-1.7-2c-1.1 0-1.8.8-1.8 2c0 1.3.7 2.1 1.8 2.1zm3.2 0c0 .6.1 1.1.1 1.2c0 0-1.5 0-1.5 0c-.1-.1-.1-.6-.1-.8c-.3.5-1 1-1.9 1c-1.9 0-3.2-1.5-3.2-3.5c0-1.9 1.3-3.4 3.1-3.4c1.2 0 1.8.5 2 .9c-.02.02 0-4 0-4l1.5 0c0 0 0 8.62 0 8.6zm6.3.5c-.3.6-1.1.9-1.9.9c-1.5 0-2.5-1.2-2.5-2.6c.05-.01 0-4.2 0-4.2l1.6 0c0 0 .01 3.91 0 3.9c0 .8.4 1.5 1.3 1.5c.9 0 1.4-.6 1.4-1.5c.01.04 0-3.9 0-3.9l1.6 0c0 0-.02 5.42 0 5.4c0 .6 0 1 0 1.2c0 0-1.5 0-1.5 0c0-.1 0-.4 0-.7c0 0 0 0 0 0zm6.9 3.3l0-9.2l1.5 0c0 0-.04.94 0 .9c.3-.5 1-1 2.1-1c1.9 0 3 1.5 3 3.4c0 2-1.2 3.5-3.1 3.5c-.9 0-1.7-.4-2-.9c0-.02 0 3.3 0 3.3l-1.5 0zm5-5.9c0-1.2-.7-2-1.7-2c-1.1 0-1.8.8-1.8 2c0 1.3.7 2.1 1.8 2.1c1 0 1.7-.8 1.7-2.1c0 0 0 0 0 0zm4.7-.4c0 0 1.7-.3 1.7-.3c.4-.1.5-.2.5-.5c0-.5-.4-1-1.3-1c-.8 0-1.3.6-1.3 1.2c0 0-1.5-.3-1.5-.3c.2-1.1 1.2-2.2 2.8-2.2c2 0 2.8 1.2 2.8 2.5c0 0 0 3.3 0 3.3c0 .6.1 1 .1 1c0 0-1.5 0-1.5 0c0 0 0-.3 0-.8c-.4.5-1 1-2.1 1c-1.3 0-2.2-.9-2.2-2c0-1.1.9-1.8 2-1.9zm2.2 1c-.04-.01 0-.3 0-.3c0 0-1.76.25-1.8.3c-.4 0-.8.3-.8.8c0 .5.3.9.9.9c.9 0 1.7-.4 1.7-1.7zm7.2-2.3c-.1 0-.3 0-.5 0c-1.2 0-1.7.7-1.7 1.9c-.05-.01 0 3.1 0 3.1l-1.6 0l0-6.6l1.5 0c0 0 .01 1.1 0 1.1c.3-.7 1.1-1.1 1.9-1.1c.2 0 .4 0 .4 0c0 0 0 1.6 0 1.6zm2.3 1.7c0 1.4.9 2.1 1.9 2.1c1 0 1.5-.7 1.6-1.2c0 0 1.4.5 1.4.5c-.3 1-1.3 2.1-3 2.1c-2 0-3.4-1.5-3.4-3.5c0-2 1.4-3.5 3.3-3.5c1.8 0 2.8 1.2 3 2.2c0 0-1.4.5-1.4.5c-.1-.6-.6-1.2-1.6-1.2c-.9 0-1.8.7-1.8 2zm10.9 0c0-1.3-.8-2-1.8-2c-1 0-1.8.7-1.8 2c0 1.4.8 2.1 1.8 2.1c1 0 1.8-.7 1.8-2.1zm1.6 0c0 2.1-1.4 3.5-3.4 3.5c-2 0-3.4-1.4-3.4-3.5c0-2 1.4-3.5 3.4-3.5c2 0 3.4 1.5 3.4 3.5zm5.8 2.6c-.4.6-1.1.9-1.9.9c-1.6 0-2.5-1.2-2.5-2.6c.02-.01 0-4.2 0-4.2l1.6 0c0 0-.01 3.91 0 3.9c0 .8.4 1.5 1.3 1.5c.9 0 1.4-.6 1.4-1.5c-.01.04 0-3.9 0-3.9l1.6 0c0 0-.05 5.42 0 5.4c0 .6 0 1 0 1.2c0 0-1.5 0-1.5 0c0-.1 0-.4 0-.7c0 0 0 0 0 0zm7.3-4.3c-.1 0-.3 0-.5 0c-1.2 0-1.8.7-1.8 1.9c.04-.01 0 3.1 0 3.1l-1.5 0l0-6.6l1.5 0c0 0 0 1.1 0 1.1c.3-.7 1-1.1 1.9-1.1c.2 0 .4 0 .4 0c0 0 0 1.6 0 1.6zm2.1 2.9c.1.6.5 1.1 1.4 1.1c.6 0 1-.4 1-.8c0-.3-.3-.6-.8-.7c0 0-1-.2-1-.2c-1.1-.3-1.8-1-1.8-1.9c0-1.2 1.1-2.2 2.5-2.2c1.8 0 2.4 1.2 2.5 1.9c0 0-1.3.4-1.3.4c-.1-.4-.4-1-1.2-1c-.6 0-1 .3-1 .7c0 .4.3.6.7.7c0 0 1 .2 1 .2c1.2.3 1.9 1 1.9 2c0 1-.8 2.1-2.5 2.1c-1.9 0-2.6-1.2-2.7-2c0 0 1.3-.3 1.3-.3z" stroke="none" fill="#144542"/></g><g id="Polygon181835"><path d="m1 140.5l0-9.8l1.6 0l0 9.8l-1.6 0zm4.1-9.7c.6 0 1.1.6 1.1 1.3c0 1.8-1.2 2.4-2 2.5c0 0 0-.7 0-.7c.6-.1 1.1-.7 1.1-1.3c0 0-.2.1-.3.1c-.5 0-.9-.4-.9-.9c0-.5.4-1 1-1zm6 5.7c0-.8-.5-1.4-1.6-1.4c-1 0-1.5.7-1.6 1.4c0 0 3.2 0 3.2 0zm1.5 2.1c-.3 1.2-1.4 2.1-2.9 2.1c-1.8 0-3.4-1.3-3.4-3.5c0-2.1 1.5-3.5 3.2-3.5c2 0 3.2 1.4 3.2 3.5c0 .2 0 .4 0 .5c0 0-4.8 0-4.8 0c0 1 .8 1.7 1.8 1.7c.9 0 1.4-.5 1.6-1.2c0 0 1.3.4 1.3.4zm3.2 1.9l-1.6 0l0-6.6l1.5 0c0 0 .03.92 0 .9c.5-.7 1.2-1 2-1c1.6 0 2.3 1.1 2.3 2.6c.05-.04 0 4.1 0 4.1l-1.5 0c0 0-.02-3.87 0-3.9c0-.8-.4-1.4-1.4-1.4c-.9 0-1.3.7-1.3 1.5c-.03.03 0 3.8 0 3.8zm6.9-2.1c.1.6.5 1.1 1.4 1.1c.6 0 1-.4 1-.8c0-.3-.3-.6-.8-.7c0 0-1-.2-1-.2c-1.1-.3-1.8-1-1.8-1.9c0-1.2 1.1-2.2 2.5-2.2c1.8 0 2.4 1.2 2.5 1.9c0 0-1.3.4-1.3.4c-.1-.4-.4-1-1.2-1c-.6 0-1 .3-1 .7c0 .4.3.6.7.7c0 0 1 .2 1 .2c1.2.3 1.9 1 1.9 2c0 1-.8 2.1-2.5 2.1c-1.9 0-2.6-1.2-2.7-2c0 0 1.3-.3 1.3-.3zm9.7-1.9c0-.8-.5-1.4-1.6-1.4c-1 0-1.6.7-1.6 1.4c0 0 3.2 0 3.2 0zm1.5 2.1c-.4 1.2-1.4 2.1-3 2.1c-1.8 0-3.3-1.3-3.3-3.5c0-2.1 1.5-3.5 3.2-3.5c2 0 3.2 1.4 3.2 3.5c0 .2 0 .4-.1.5c0 0-4.8 0-4.8 0c.1 1 .9 1.7 1.8 1.7c1 0 1.5-.5 1.7-1.2c0 0 1.3.4 1.3.4zm1.6 1.9l0-6.6l1.5 0c0 0-.02.88 0 .9c.4-.7 1.2-1 1.9-1c.9 0 1.6.3 2 1.1c.5-.8 1.3-1.1 2.1-1.1c1.2 0 2.3.7 2.3 2.5c.05-.05 0 4.2 0 4.2l-1.5 0c0 0 .03-3.99 0-4c0-.8-.4-1.3-1.2-1.3c-.9 0-1.4.6-1.4 1.4c0 .02 0 3.9 0 3.9l-1.5 0c0 0-.04-3.99 0-4c0-.7-.4-1.3-1.3-1.3c-.8 0-1.4.6-1.4 1.4c.03.02 0 3.9 0 3.9l-1.5 0zm11.8 0l0-9.8l1.5 0c0 0 0 4.06 0 4.1c.3-.6 1.1-1 2.1-1c1.9 0 3 1.5 3 3.4c0 2-1.2 3.5-3.1 3.5c-.9 0-1.6-.4-2-1.1c-.01.04 0 .9 0 .9l-1.5 0zm3.3-5.3c-1 0-1.8.7-1.8 2c0 1.3.8 2.1 1.8 2.1c1 0 1.7-.8 1.7-2.1c0-1.3-.7-2-1.7-2zm4.8 5.3l0-9.8l1.6 0l0 9.8l-1.6 0zm7.9-4c0-.8-.5-1.4-1.6-1.4c-1 0-1.5.7-1.6 1.4c0 0 3.2 0 3.2 0zm1.5 2.1c-.3 1.2-1.4 2.1-2.9 2.1c-1.8 0-3.4-1.3-3.4-3.5c0-2.1 1.5-3.5 3.2-3.5c2 0 3.2 1.4 3.2 3.5c0 .2 0 .4 0 .5c0 0-4.8 0-4.8 0c0 1 .8 1.7 1.8 1.7c.9 0 1.4-.5 1.6-1.2c0 0 1.3.4 1.3.4zm7.8.7c1 0 1.7-.8 1.7-2.1c0-1.3-.7-2-1.7-2c-1 0-1.8.8-1.8 2c0 1.3.7 2.1 1.8 2.1zm3.2 0c0 .6.1 1.1.1 1.2c0 0-1.5 0-1.5 0c0-.1-.1-.6-.1-.8c-.3.5-1 1-1.9 1c-1.9 0-3.2-1.5-3.2-3.5c0-1.9 1.3-3.4 3.2-3.4c1.1 0 1.7.5 1.9.9c0 .02 0-4 0-4l1.5 0c0 0 .03 8.62 0 8.6zm6.4-2.8c0-.8-.5-1.4-1.6-1.4c-1 0-1.6.7-1.6 1.4c0 0 3.2 0 3.2 0zm1.5 2.1c-.4 1.2-1.4 2.1-3 2.1c-1.8 0-3.3-1.3-3.3-3.5c0-2.1 1.5-3.5 3.2-3.5c2 0 3.2 1.4 3.2 3.5c0 .2 0 .4-.1.5c0 0-4.8 0-4.8 0c.1 1 .9 1.7 1.8 1.7c1 0 1.5-.5 1.7-1.2c0 0 1.3.4 1.3.4zm2.4-.2c0 .6.5 1.1 1.3 1.1c.6 0 1-.4 1-.8c0-.3-.3-.6-.8-.7c0 0-1-.2-1-.2c-1.1-.3-1.7-1-1.7-1.9c0-1.2 1-2.2 2.4-2.2c1.8 0 2.4 1.2 2.5 1.9c0 0-1.3.4-1.3.4c0-.4-.3-1-1.2-1c-.6 0-1 .3-1 .7c0 .4.3.6.7.7c0 0 1 .2 1 .2c1.2.3 1.9 1 1.9 2c0 1-.8 2.1-2.5 2.1c-1.9 0-2.6-1.2-2.7-2c0 0 1.4-.3 1.4-.3z" stroke="none" fill="#144542"/></g><g id="Polygon181834"><path d="m1 124.3l0-6.6l1.6 0l0 6.6l-1.6 0zm.8-9.9c.5 0 1 .5 1 1c0 .6-.5 1.1-1 1.1c-.6 0-1-.5-1-1.1c0-.5.4-1 1-1zm4.4 9.9l-1.6 0l0-6.6l1.5 0c0 0 .01.92 0 .9c.4-.7 1.2-1 2-1c1.6 0 2.3 1.1 2.3 2.6c.03-.04 0 4.1 0 4.1l-1.5 0c0 0-.03-3.87 0-3.9c0-.8-.4-1.4-1.4-1.4c-.9 0-1.3.7-1.3 1.5c-.04.03 0 3.8 0 3.8zm8.1-6.6l1.4 0l0 1.4l-1.4 0c0 0 .02 3.09 0 3.1c0 .6.3.8.9.8c.2 0 .4 0 .5 0c0 0 0 1.3 0 1.3c-.1 0-.4.1-1 .1c-1.2 0-1.9-.7-1.9-2c-.03.05 0-3.3 0-3.3l-1.2 0l0-1.4c0 0 .29.05.3 0c.7 0 1-.4 1-1c.01.02 0-1 0-1l1.4 0l0 2zm7.2 2.6c0-.8-.5-1.4-1.6-1.4c-1 0-1.5.7-1.6 1.4c0 0 3.2 0 3.2 0zm1.5 2.1c-.3 1.2-1.3 2.1-2.9 2.1c-1.8 0-3.4-1.3-3.4-3.5c0-2.1 1.6-3.5 3.2-3.5c2 0 3.2 1.4 3.2 3.5c0 .2 0 .4 0 .5c0 0-4.8 0-4.8 0c0 1 .8 1.7 1.8 1.7c.9 0 1.4-.5 1.6-1.2c0 0 1.3.4 1.3.4zm5.5-3.1c-.2 0-.4 0-.5 0c-1.3 0-1.8.7-1.8 1.9c-.01-.01 0 3.1 0 3.1l-1.6 0l0-6.6l1.5 0c0 0 .05 1.1 0 1.1c.4-.7 1.1-1.1 2-1.1c.1 0 .3 0 .4 0c0 0 0 1.6 0 1.6zm4.8 5l-1.5 0l-2.7-6.6l1.7 0l1.8 4.7l1.7-4.7l1.6 0l-2.6 6.6zm7.9-4c0-.8-.6-1.4-1.6-1.4c-1 0-1.6.7-1.6 1.4c0 0 3.2 0 3.2 0zm1.5 2.1c-.4 1.2-1.4 2.1-3 2.1c-1.8 0-3.3-1.3-3.3-3.5c0-2.1 1.5-3.5 3.2-3.5c2 0 3.2 1.4 3.2 3.5c0 .2-.1.4-.1.5c0 0-4.8 0-4.8 0c.1 1 .8 1.7 1.8 1.7c1 0 1.4-.5 1.7-1.2c0 0 1.3.4 1.3.4zm3.1 1.9l-1.5 0l0-6.6l1.5 0c0 0-.01.92 0 .9c.4-.7 1.2-1 1.9-1c1.6 0 2.4 1.1 2.4 2.6c.01-.04 0 4.1 0 4.1l-1.6 0c0 0 .05-3.87 0-3.9c0-.8-.3-1.4-1.3-1.4c-.9 0-1.4.7-1.4 1.5c.03.03 0 3.8 0 3.8zm7.8-3.7c0 0 1.7-.3 1.7-.3c.4-.1.5-.2.5-.5c0-.5-.4-1-1.3-1c-.8 0-1.3.6-1.3 1.2c0 0-1.5-.3-1.5-.3c.2-1.1 1.2-2.2 2.8-2.2c2 0 2.8 1.2 2.8 2.5c0 0 0 3.3 0 3.3c0 .6.1 1 .1 1c0 0-1.5 0-1.5 0c0 0 0-.3 0-.8c-.3.5-1 1-2.1 1c-1.3 0-2.2-.9-2.2-2c0-1.1.9-1.8 2-1.9zm2.2 1c-.03-.01 0-.3 0-.3c0 0-1.75.25-1.7.3c-.5 0-.9.3-.9.8c0 .5.3.9.9.9c.9 0 1.7-.4 1.7-1.7zm5 2.7l-1.6 0l0-6.6l1.5 0c0 0 .02.92 0 .9c.5-.7 1.2-1 2-1c1.6 0 2.3 1.1 2.3 2.6c.04-.04 0 4.1 0 4.1l-1.5 0c0 0-.02-3.87 0-3.9c0-.8-.4-1.4-1.4-1.4c-.9 0-1.3.7-1.3 1.5c-.04.03 0 3.8 0 3.8zm8.1-6.6l1.4 0l0 1.4l-1.4 0c0 0 .03 3.09 0 3.1c0 .6.3.8.9.8c.2 0 .4 0 .5 0c0 0 0 1.3 0 1.3c-.1 0-.4.1-1 .1c-1.2 0-1.9-.7-1.9-2c-.02.05 0-3.3 0-3.3l-1.2 0l0-1.4c0 0 .3.05.3 0c.7 0 1-.4 1-1c.01.02 0-1 0-1l1.4 0l0 2zm7.1 4.5c.1.6.5 1.1 1.3 1.1c.7 0 1-.4 1-.8c0-.3-.2-.6-.7-.7c0 0-1-.2-1-.2c-1.2-.3-1.8-1-1.8-1.9c0-1.2 1.1-2.2 2.4-2.2c1.9 0 2.5 1.2 2.6 1.9c0 0-1.4.4-1.4.4c0-.4-.3-1-1.2-1c-.5 0-.9.3-.9.7c0 .4.2.6.6.7c0 0 1 .2 1 .2c1.3.3 1.9 1 1.9 2c0 1-.8 2.1-2.4 2.1c-1.9 0-2.7-1.2-2.8-2c0 0 1.4-.3 1.4-.3zm9.6 1.4c-.3.6-1.1.9-1.9.9c-1.5 0-2.4-1.2-2.4-2.6c-.04-.01 0-4.2 0-4.2l1.5 0c0 0 .02 3.91 0 3.9c0 .8.4 1.5 1.3 1.5c.9 0 1.4-.6 1.4-1.5c.02.04 0-3.9 0-3.9l1.6 0c0 0-.01 5.42 0 5.4c0 .6 0 1 .1 1.2c0 0-1.5 0-1.5 0c-.1-.1-.1-.4-.1-.7c0 0 0 0 0 0zm7.4-4.3c-.2 0-.4 0-.6 0c-1.2 0-1.7.7-1.7 1.9c-.02-.01 0 3.1 0 3.1l-1.6 0l0-6.6l1.5 0c0 0 .04 1.1 0 1.1c.3-.7 1.1-1.1 1.9-1.1c.2 0 .4 0 .5 0c0 0 0 1.6 0 1.6z" stroke="none" fill="#144542"/></g><g id="Polygon181833"><path d="m2.1 104.8c0 1.4.8 2.1 1.8 2.1c1 0 1.5-.7 1.6-1.2c0 0 1.4.5 1.4.5c-.3 1-1.3 2.1-3 2.1c-1.9 0-3.4-1.5-3.4-3.5c0-2 1.5-3.5 3.4-3.5c1.7 0 2.7 1.2 3 2.2c0 0-1.4.5-1.4.5c-.2-.6-.6-1.2-1.6-1.2c-1 0-1.8.7-1.8 2zm10.9 0c0-1.3-.9-2-1.9-2c-.9 0-1.8.7-1.8 2c0 1.4.9 2.1 1.8 2.1c1 0 1.9-.7 1.9-2.1zm1.6 0c0 2.1-1.5 3.5-3.5 3.5c-1.9 0-3.4-1.4-3.4-3.5c0-2 1.5-3.5 3.4-3.5c2 0 3.5 1.5 3.5 3.5zm1.5 3.3l0-6.6l1.5 0c0 0-.04.88 0 .9c.3-.7 1.2-1 1.9-1c.9 0 1.6.3 2 1.1c.5-.8 1.3-1.1 2.1-1.1c1.2 0 2.3.7 2.3 2.5c.03-.05 0 4.2 0 4.2l-1.5 0c0 0 .02-3.99 0-4c0-.8-.4-1.3-1.2-1.3c-.9 0-1.4.6-1.4 1.4c-.01.02 0 3.9 0 3.9l-1.5 0c0 0-.05-3.99 0-4c0-.7-.4-1.3-1.3-1.3c-.9 0-1.4.6-1.4 1.4c.02.02 0 3.9 0 3.9l-1.5 0zm11.8 2.6l0-9.2l1.5 0c0 0-.04.94 0 .9c.3-.5 1-1 2.1-1c1.9 0 3 1.5 3 3.4c0 2-1.2 3.5-3.1 3.5c-.9 0-1.7-.4-2-.9c0-.02 0 3.3 0 3.3l-1.5 0zm5-5.9c0-1.2-.7-2-1.7-2c-1.1 0-1.8.8-1.8 2c0 1.3.7 2.1 1.8 2.1c1 0 1.7-.8 1.7-2.1c0 0 0 0 0 0zm3.1 3.3l0-9.8l1.6 0l0 9.8l-1.6 0zm6.9-7.4l-1.3 0l1.2-2l1.8 0l-1.7 2zm1 3.4c0-.8-.5-1.4-1.6-1.4c-1 0-1.6.7-1.6 1.4c0 0 3.2 0 3.2 0zm1.5 2.1c-.3 1.2-1.4 2.1-3 2.1c-1.7 0-3.3-1.3-3.3-3.5c0-2.1 1.5-3.5 3.2-3.5c2 0 3.2 1.4 3.2 3.5c0 .2 0 .4 0 .5c0 0-4.9 0-4.9 0c.1 1 .9 1.7 1.8 1.7c1 0 1.5-.5 1.7-1.2c0 0 1.3.4 1.3.4zm1.6 1.9l0-6.6l1.5 0c0 0-.01.88 0 .9c.4-.7 1.2-1 1.9-1c.9 0 1.7.3 2 1.1c.5-.8 1.3-1.1 2.1-1.1c1.2 0 2.4.7 2.4 2.5c-.04-.05 0 4.2 0 4.2l-1.5 0c0 0-.05-3.99 0-4c0-.8-.4-1.3-1.3-1.3c-.8 0-1.4.6-1.4 1.4c.02.02 0 3.9 0 3.9l-1.5 0c0 0-.02-3.99 0-4c0-.7-.4-1.3-1.3-1.3c-.8 0-1.4.6-1.4 1.4c.04.02 0 3.9 0 3.9l-1.5 0zm16.1-4c0-.8-.5-1.4-1.6-1.4c-1 0-1.6.7-1.6 1.4c0 0 3.2 0 3.2 0zm1.5 2.1c-.4 1.2-1.4 2.1-3 2.1c-1.8 0-3.3-1.3-3.3-3.5c0-2.1 1.5-3.5 3.2-3.5c2 0 3.2 1.4 3.2 3.5c0 .2-.1.4-.1.5c0 0-4.8 0-4.8 0c.1 1 .9 1.7 1.8 1.7c1 0 1.5-.5 1.7-1.2c0 0 1.3.4 1.3.4zm3.1 1.9l-1.5 0l0-6.6l1.5 0c0 0 0 .92 0 .9c.4-.7 1.2-1 1.9-1c1.7 0 2.4 1.1 2.4 2.6c.02-.04 0 4.1 0 4.1l-1.5 0c0 0-.04-3.87 0-3.9c0-.8-.4-1.4-1.4-1.4c-.9 0-1.4.7-1.4 1.5c.04.03 0 3.8 0 3.8zm8.2-6.6l1.4 0l0 1.4l-1.4 0c0 0 .01 3.09 0 3.1c0 .6.3.8.8.8c.3 0 .5 0 .6 0c0 0 0 1.3 0 1.3c-.1 0-.4.1-1 .1c-1.2 0-1.9-.7-1.9-2c-.04.05 0-3.3 0-3.3l-1.3 0l0-1.4c0 0 .38.05.4 0c.7 0 1-.4 1-1c-.01.02 0-1 0-1l1.4 0l0 2zm4.6 2.9c0 0 1.7-.3 1.7-.3c.3-.1.4-.2.4-.5c0-.5-.3-1-1.2-1c-.8 0-1.3.6-1.3 1.2c0 0-1.5-.3-1.5-.3c.1-1.1 1.2-2.2 2.8-2.2c2 0 2.8 1.2 2.8 2.5c0 0 0 3.3 0 3.3c0 .6.1 1 .1 1c0 0-1.5 0-1.5 0c0 0-.1-.3-.1-.8c-.3.5-.9 1-2 1c-1.4 0-2.2-.9-2.2-2c0-1.1.9-1.8 2-1.9zm2.1 1c.05-.01 0-.3 0-.3c0 0-1.67.25-1.7.3c-.5 0-.8.3-.8.8c0 .5.3.9.9.9c.9 0 1.6-.4 1.6-1.7zm3.5 2.7l0-6.6l1.5 0l0 6.6l-1.5 0zm.7-9.9c.6 0 1.1.5 1.1 1c0 .6-.5 1.1-1.1 1.1c-.5 0-1-.5-1-1.1c0-.5.5-1 1-1zm6.7 4.9c-.2 0-.4 0-.5 0c-1.2 0-1.8.7-1.8 1.9c.02-.01 0 3.1 0 3.1l-1.5 0l0-6.6l1.5 0c0 0-.02 1.1 0 1.1c.3-.7 1-1.1 1.9-1.1c.2 0 .3 0 .4 0c0 0 0 1.6 0 1.6zm5.6 1c-.1-.8-.6-1.4-1.7-1.4c-.9 0-1.5.7-1.6 1.4c0 0 3.3 0 3.3 0zm1.5 2.1c-.4 1.2-1.4 2.1-3 2.1c-1.8 0-3.4-1.3-3.4-3.5c0-2.1 1.6-3.5 3.2-3.5c2.1 0 3.2 1.4 3.2 3.5c0 .2 0 .4 0 .5c0 0-4.8 0-4.8 0c0 1 .8 1.7 1.8 1.7c.9 0 1.4-.5 1.6-1.2c0 0 1.4.4 1.4.4zm2.3-.2c.1.6.5 1.1 1.4 1.1c.6 0 .9-.4.9-.8c0-.3-.2-.6-.7-.7c0 0-1-.2-1-.2c-1.2-.3-1.8-1-1.8-1.9c0-1.2 1.1-2.2 2.5-2.2c1.8 0 2.4 1.2 2.5 1.9c0 0-1.3.4-1.3.4c-.1-.4-.4-1-1.2-1c-.6 0-1 .3-1 .7c0 .4.3.6.7.7c0 0 1 .2 1 .2c1.2.3 1.9 1 1.9 2c0 1-.9 2.1-2.5 2.1c-1.9 0-2.7-1.2-2.7-2c0 0 1.3-.3 1.3-.3zm6.4.1c.7 0 1.2.6 1.2 1.4c0 1.9-1.3 2.7-2.2 2.8c0 0 0-.7 0-.7c.6-.2 1.2-.8 1.2-1.5c0 0-.1.1-.3.1c-.6 0-1-.4-1-1.1c0-.5.5-1 1.1-1z" stroke="none" fill="#144542"/></g><g id="Polygon181832"><path d="m2.6 88.2c0 0 1.7-.3 1.7-.3c.4-.1.5-.2.5-.5c0-.5-.4-1-1.3-1c-.8 0-1.3.6-1.3 1.2c0 0-1.5-.3-1.5-.3c.2-1.1 1.2-2.2 2.8-2.2c2 0 2.8 1.2 2.8 2.5c0 0 0 3.3 0 3.3c0 .6.1 1 .1 1c0 0-1.5 0-1.5 0c0 0 0-.3 0-.8c-.3.5-1 1-2.1 1c-1.3 0-2.2-.9-2.2-2c0-1.1.9-1.8 2-1.9zm2.2 1c-.03-.01 0-.3 0-.3c0 0-1.75.25-1.7.3c-.5 0-.9.3-.9.8c0 .5.3.9.9.9c.9 0 1.7-.4 1.7-1.7zm6.7 2.7l-1.6 0l-2.7-6.6l1.8 0l1.7 4.7l1.7-4.7l1.7 0l-2.6 6.6zm7.8-4c0-.8-.5-1.4-1.6-1.4c-1 0-1.5.7-1.6 1.4c0 0 3.2 0 3.2 0zm1.5 2.1c-.3 1.2-1.4 2.1-2.9 2.1c-1.8 0-3.4-1.3-3.4-3.5c0-2.1 1.5-3.5 3.2-3.5c2 0 3.2 1.4 3.2 3.5c0 .2 0 .4 0 .5c0 0-4.8 0-4.8 0c0 1 .8 1.7 1.8 1.7c.9 0 1.4-.5 1.6-1.2c0 0 1.3.4 1.3.4zm2.7-1.4c0 1.4.8 2.1 1.8 2.1c1 0 1.5-.7 1.6-1.2c0 0 1.4.5 1.4.5c-.3 1-1.3 2.1-3 2.1c-1.9 0-3.4-1.5-3.4-3.5c0-2 1.5-3.5 3.4-3.5c1.7 0 2.7 1.2 3 2.2c0 0-1.4.5-1.4.5c-.2-.6-.6-1.2-1.6-1.2c-1 0-1.8.7-1.8 2zm12.4 2.1c1 0 1.7-.8 1.7-2.1c0-1.3-.7-2-1.7-2c-1 0-1.8.8-1.8 2c0 1.3.7 2.1 1.8 2.1zm3.2 0c0 .6.1 1.1.1 1.2c0 0-1.5 0-1.5 0c0-.1-.1-.6-.1-.8c-.3.5-1 1-1.9 1c-1.9 0-3.2-1.5-3.2-3.5c0-1.9 1.3-3.4 3.2-3.4c1.1 0 1.7.5 1.9.9c.01.02 0-4 0-4l1.5 0c0 0 .04 8.62 0 8.6zm6.4-2.8c0-.8-.5-1.4-1.6-1.4c-1 0-1.6.7-1.6 1.4c0 0 3.2 0 3.2 0zm1.5 2.1c-.3 1.2-1.4 2.1-3 2.1c-1.7 0-3.3-1.3-3.3-3.5c0-2.1 1.5-3.5 3.2-3.5c2 0 3.2 1.4 3.2 3.5c0 .2 0 .4-.1.5c0 0-4.8 0-4.8 0c.1 1 .9 1.7 1.8 1.7c1 0 1.5-.5 1.7-1.2c0 0 1.3.4 1.3.4zm2.4-.2c0 .6.5 1.1 1.3 1.1c.7 0 1-.4 1-.8c0-.3-.3-.6-.8-.7c0 0-1-.2-1-.2c-1.1-.3-1.7-1-1.7-1.9c0-1.2 1-2.2 2.4-2.2c1.8 0 2.4 1.2 2.5 1.9c0 0-1.3.4-1.3.4c0-.4-.3-1-1.2-1c-.6 0-.9.3-.9.7c0 .4.2.6.6.7c0 0 1 .2 1 .2c1.3.3 1.9 1 1.9 2c0 1-.8 2.1-2.5 2.1c-1.9 0-2.6-1.2-2.7-2c0 0 1.4-.3 1.4-.3zm9.5 0c0 .6.5 1.1 1.3 1.1c.7 0 1-.4 1-.8c0-.3-.2-.6-.8-.7c0 0-.9-.2-.9-.2c-1.2-.3-1.8-1-1.8-1.9c0-1.2 1.1-2.2 2.4-2.2c1.9 0 2.4 1.2 2.6 1.9c0 0-1.4.4-1.4.4c0-.4-.3-1-1.2-1c-.5 0-.9.3-.9.7c0 .4.2.6.6.7c0 0 1 .2 1 .2c1.3.3 1.9 1 1.9 2c0 1-.8 2.1-2.5 2.1c-1.9 0-2.6-1.2-2.7-2c0 0 1.4-.3 1.4-.3zm7.4-4.5l1.3 0l0 1.4l-1.3 0c0 0-.04 3.09 0 3.1c0 .6.2.8.8.8c.2 0 .5 0 .5 0c0 0 0 1.3 0 1.3c-.1 0-.4.1-.9.1c-1.2 0-2-.7-2-2c0 .05 0-3.3 0-3.3l-1.2 0l0-1.4c0 0 .33.05.3 0c.7 0 1-.4 1-1c.04.02 0-1 0-1l1.5 0l0 2zm6.7 1.6c-.2 0-.4 0-.6 0c-1.2 0-1.7.7-1.7 1.9c-.03-.01 0 3.1 0 3.1l-1.6 0l0-6.6l1.5 0c0 0 .03 1.1 0 1.1c.3-.7 1.1-1.1 1.9-1.1c.2 0 .4 0 .5 0c0 0 0 1.6 0 1.6zm5.6 4.3c-.4.6-1.1.9-1.9.9c-1.6 0-2.5-1.2-2.5-2.6c.01-.01 0-4.2 0-4.2l1.6 0c0 0-.03 3.91 0 3.9c0 .8.4 1.5 1.3 1.5c.9 0 1.4-.6 1.4-1.5c-.03.04 0-3.9 0-3.9l1.5 0c0 0 .04 5.42 0 5.4c0 .6.1 1 .1 1.2c0 0-1.5 0-1.5 0c0-.1 0-.4 0-.7c0 0 0 0 0 0zm4.5-2.6c0 1.4.8 2.1 1.8 2.1c1 0 1.5-.7 1.7-1.2c0 0 1.3.5 1.3.5c-.3 1-1.3 2.1-3 2.1c-1.9 0-3.4-1.5-3.4-3.5c0-2 1.5-3.5 3.4-3.5c1.7 0 2.7 1.2 3 2.2c0 0-1.4.5-1.4.5c-.2-.6-.6-1.2-1.6-1.2c-1 0-1.8.7-1.8 2zm8.2-3.3l1.4 0l0 1.4l-1.4 0c0 0 .01 3.09 0 3.1c0 .6.3.8.8.8c.3 0 .5 0 .6 0c0 0 0 1.3 0 1.3c-.1 0-.4.1-1 .1c-1.2 0-1.9-.7-1.9-2c-.04.05 0-3.3 0-3.3l-1.3 0l0-1.4c0 0 .38.05.4 0c.7 0 1-.4 1-1c0 .02 0-1 0-1l1.4 0l0 2zm7.3 5.9c-.3.6-1.1.9-1.9.9c-1.6 0-2.5-1.2-2.5-2.6c.03-.01 0-4.2 0-4.2l1.6 0c0 0-.01 3.91 0 3.9c0 .8.4 1.5 1.3 1.5c.9 0 1.4-.6 1.4-1.5c-.01.04 0-3.9 0-3.9l1.6 0c0 0-.04 5.42 0 5.4c0 .6 0 1 0 1.2c0 0-1.5 0-1.5 0c0-.1 0-.4 0-.7c0 0 0 0 0 0zm7.3-4.3c-.1 0-.3 0-.5 0c-1.2 0-1.7.7-1.7 1.9c-.05-.01 0 3.1 0 3.1l-1.6 0l0-6.6l1.5 0c0 0 .01 1.1 0 1.1c.3-.7 1-1.1 1.9-1.1c.2 0 .4 0 .4 0c0 0 0 1.6 0 1.6zm5.6 1c0-.8-.5-1.4-1.6-1.4c-1 0-1.6.7-1.6 1.4c0 0 3.2 0 3.2 0zm1.5 2.1c-.4 1.2-1.4 2.1-3 2.1c-1.8 0-3.3-1.3-3.3-3.5c0-2.1 1.5-3.5 3.2-3.5c2 0 3.2 1.4 3.2 3.5c0 .2-.1.4-.1.5c0 0-4.8 0-4.8 0c.1 1 .9 1.7 1.8 1.7c1 0 1.5-.5 1.7-1.2c0 0 1.3.4 1.3.4zm2.4-.2c0 .6.5 1.1 1.3 1.1c.6 0 1-.4 1-.8c0-.3-.3-.6-.8-.7c0 0-1-.2-1-.2c-1.1-.3-1.7-1-1.7-1.9c0-1.2 1-2.2 2.4-2.2c1.8 0 2.4 1.2 2.5 1.9c0 0-1.3.4-1.3.4c-.1-.4-.3-1-1.2-1c-.6 0-1 .3-1 .7c0 .4.3.6.7.7c0 0 1 .2 1 .2c1.2.3 1.9 1 1.9 2c0 1-.8 2.1-2.5 2.1c-1.9 0-2.6-1.2-2.7-2c0 0 1.4-.3 1.4-.3z" stroke="none" fill="#144542"/></g><g id="Polygon181831"><path d="m2.1 72.4c0 1.4.8 2.1 1.8 2.1c1 0 1.5-.7 1.6-1.2c0 0 1.4.5 1.4.5c-.3 1-1.3 2.1-3 2.1c-1.9 0-3.4-1.5-3.4-3.5c0-2 1.5-3.5 3.4-3.5c1.7 0 2.7 1.2 3 2.2c0 0-1.4.5-1.4.5c-.2-.6-.6-1.2-1.6-1.2c-1 0-1.8.7-1.8 2zm10.9 0c0-1.3-.9-2-1.9-2c-.9 0-1.8.7-1.8 2c0 1.4.9 2.1 1.8 2.1c1 0 1.9-.7 1.9-2.1zm1.6 0c0 2.1-1.5 3.5-3.5 3.5c-1.9 0-3.4-1.4-3.4-3.5c0-2 1.5-3.5 3.4-3.5c2 0 3.5 1.5 3.5 3.5zm1.5 3.3l0-9.8l1.5 0l0 9.8l-1.5 0zm3.6 0l0-9.8l1.5 0l0 9.8l-1.5 0zm5.1-3.7c0 0 1.7-.3 1.7-.3c.4-.1.5-.2.5-.5c0-.5-.4-1-1.3-1c-.8 0-1.3.6-1.3 1.2c0 0-1.4-.3-1.4-.3c.1-1.1 1.1-2.2 2.7-2.2c2 0 2.8 1.2 2.8 2.5c0 0 0 3.3 0 3.3c0 .6.1 1 .1 1c0 0-1.5 0-1.5 0c0 0 0-.3 0-.8c-.3.5-1 1-2.1 1c-1.3 0-2.2-.9-2.2-2c0-1.1.9-1.8 2-1.9zm2.2 1c-.03-.01 0-.3 0-.3c0 0-1.74.25-1.7.3c-.5 0-.9.3-.9.8c0 .5.3.9.9.9c.9 0 1.7-.4 1.7-1.7zm3.4 2.7l0-9.8l1.5 0c0 0 .04 4.06 0 4.1c.3-.6 1.1-1 2.1-1c2 0 3 1.5 3 3.4c0 2-1.1 3.5-3 3.5c-1 0-1.7-.4-2.1-1.1c.03.04 0 .9 0 .9l-1.5 0zm3.3-5.3c-1 0-1.8.7-1.8 2c0 1.3.8 2.1 1.8 2.1c1 0 1.8-.8 1.8-2.1c0-1.3-.8-2-1.8-2zm9.6 2c0-1.3-.9-2-1.9-2c-.9 0-1.8.7-1.8 2c0 1.4.9 2.1 1.8 2.1c1 0 1.9-.7 1.9-2.1zm1.6 0c0 2.1-1.5 3.5-3.5 3.5c-1.9 0-3.4-1.4-3.4-3.5c0-2 1.5-3.5 3.4-3.5c2 0 3.5 1.5 3.5 3.5zm5.3-1.7c-.2 0-.3 0-.5 0c-1.2 0-1.8.7-1.8 1.9c.04-.01 0 3.1 0 3.1l-1.5 0l0-6.6l1.5 0c0 0 0 1.1 0 1.1c.3-.7 1-1.1 1.9-1.1c.2 0 .4 0 .4 0c0 0 0 1.6 0 1.6zm2.9 1.3c0 0 1.7-.3 1.7-.3c.4-.1.5-.2.5-.5c0-.5-.4-1-1.2-1c-.9 0-1.3.6-1.4 1.2c0 0-1.4-.3-1.4-.3c.1-1.1 1.1-2.2 2.7-2.2c2.1 0 2.8 1.2 2.8 2.5c0 0 0 3.3 0 3.3c0 .6.1 1 .1 1c0 0-1.4 0-1.4 0c-.1 0-.1-.3-.1-.8c-.3.5-1 1-2 1c-1.4 0-2.3-.9-2.3-2c0-1.1.9-1.8 2-1.9zm2.2 1c0-.01 0-.3 0-.3c0 0-1.72.25-1.7.3c-.5 0-.9.3-.9.8c0 .5.3.9 1 .9c.8 0 1.6-.4 1.6-1.7zm5.4-3.9l1.3 0l0 1.4l-1.3 0c0 0-.02 3.09 0 3.1c0 .6.2.8.8.8c.2 0 .5 0 .6 0c0 0 0 1.3 0 1.3c-.1 0-.4.1-1 .1c-1.2 0-2-.7-2-2c.03.05 0-3.3 0-3.3l-1.2 0l0-1.4c0 0 .35.05.4 0c.7 0 1-.4 1-1c-.04.02 0-1 0-1l1.4 0l0 2zm3 6.6l0-6.6l1.5 0l0 6.6l-1.5 0zm.7-9.9c.6 0 1 .5 1 1c0 .6-.4 1.1-1 1.1c-.5 0-1-.5-1-1.1c0-.5.5-1 1-1zm7.6 6.6c0-1.3-.9-2-1.9-2c-.9 0-1.8.7-1.8 2c0 1.4.9 2.1 1.8 2.1c1 0 1.9-.7 1.9-2.1zm1.5 0c0 2.1-1.4 3.5-3.4 3.5c-1.9 0-3.4-1.4-3.4-3.5c0-2 1.5-3.5 3.4-3.5c2 0 3.4 1.5 3.4 3.5zm3.1 3.3l-1.6 0l0-6.6l1.6 0c0 0-.03.92 0 .9c.4-.7 1.2-1 1.9-1c1.6 0 2.4 1.1 2.4 2.6c-.01-.04 0 4.1 0 4.1l-1.6 0c0 0 .03-3.87 0-3.9c0-.8-.3-1.4-1.3-1.4c-.9 0-1.4.7-1.4 1.5c.01.03 0 3.8 0 3.8zm12.8-7.4l-1.3 0l1.2-2l1.9 0l-1.8 2zm1.1 3.4c-.1-.8-.6-1.4-1.7-1.4c-.9 0-1.5.7-1.6 1.4c0 0 3.3 0 3.3 0zm1.5 2.1c-.4 1.2-1.4 2.1-3 2.1c-1.8 0-3.4-1.3-3.4-3.5c0-2.1 1.6-3.5 3.2-3.5c2.1 0 3.2 1.4 3.2 3.5c0 .2 0 .4 0 .5c0 0-4.8 0-4.8 0c0 1 .8 1.7 1.8 1.7c.9 0 1.4-.5 1.6-1.2c0 0 1.4.4 1.4.4zm3.5-4.7l1.4 0l0 1.4l-1.4 0c0 0 .02 3.09 0 3.1c0 .6.3.8.9.8c.2 0 .4 0 .5 0c0 0 0 1.3 0 1.3c-.1 0-.4.1-1 .1c-1.2 0-1.9-.7-1.9-2c-.03.05 0-3.3 0-3.3l-1.2 0l0-1.4c0 0 .3.05.3 0c.7 0 1-.4 1-1c.01.02 0-1 0-1l1.4 0l0 2zm6.7 1.6c-.2 0-.3 0-.5 0c-1.2 0-1.8.7-1.8 1.9c.04-.01 0 3.1 0 3.1l-1.5 0l0-6.6l1.5 0c0 0 0 1.1 0 1.1c.3-.7 1-1.1 1.9-1.1c.2 0 .4 0 .4 0c0 0 0 1.6 0 1.6zm6 1.7c0-1.3-.9-2-1.8-2c-1 0-1.9.7-1.9 2c0 1.4.9 2.1 1.9 2.1c.9 0 1.8-.7 1.8-2.1zm1.6 0c0 2.1-1.5 3.5-3.4 3.5c-2 0-3.4-1.4-3.4-3.5c0-2 1.4-3.5 3.4-3.5c1.9 0 3.4 1.5 3.4 3.5zm1.5 3.3l0-6.6l1.5 0l0 6.6l-1.5 0zm.7-9.9c.6 0 1.1.5 1.1 1c0 .6-.5 1.1-1.1 1.1c-.5 0-1-.5-1-1.1c0-.5.5-1 1-1zm4.8 3.3l1.4 0l0 1.4l-1.4 0c0 0 .04 3.09 0 3.1c0 .6.3.8.9.8c.2 0 .4 0 .5 0c0 0 0 1.3 0 1.3c-.1 0-.4.1-.9.1c-1.3 0-2-.7-2-2c-.01.05 0-3.3 0-3.3l-1.2 0l0-1.4c0 0 .31.05.3 0c.7 0 1-.4 1-1c.02.02 0-1 0-1l1.4 0l0 2zm7.3 2.6c-.1-.8-.6-1.4-1.7-1.4c-.9 0-1.5.7-1.6 1.4c0 0 3.3 0 3.3 0zm1.5 2.1c-.4 1.2-1.4 2.1-3 2.1c-1.8 0-3.4-1.3-3.4-3.5c0-2.1 1.6-3.5 3.2-3.5c2.1 0 3.2 1.4 3.2 3.5c0 .2 0 .4 0 .5c0 0-4.8 0-4.8 0c0 1 .8 1.7 1.8 1.7c.9 0 1.4-.5 1.6-1.2c0 0 1.4.4 1.4.4z" stroke="none" fill="#144542"/></g><g id="Polygon181830"><path d="m1 62.1l0-9.2l1.5 0c0 0 .02.94 0 .9c.3-.5 1.1-1 2.1-1c2 0 3.1 1.5 3.1 3.4c0 2-1.2 3.5-3.1 3.5c-1 0-1.7-.4-2-.9c-.04-.02 0 3.3 0 3.3l-1.6 0zm5.1-5.9c0-1.2-.7-2-1.8-2c-1 0-1.7.8-1.7 2c0 1.3.7 2.1 1.7 2.1c1.1 0 1.8-.8 1.8-2.1c0 0 0 0 0 0zm4.6-.4c0 0 1.7-.3 1.7-.3c.4-.1.5-.2.5-.5c0-.5-.4-1-1.2-1c-.8 0-1.3.6-1.4 1.2c0 0-1.4-.3-1.4-.3c.1-1.1 1.1-2.2 2.8-2.2c2 0 2.8 1.2 2.8 2.5c0 0 0 3.3 0 3.3c0 .6 0 1 0 1c0 0-1.4 0-1.4 0c0 0-.1-.3-.1-.8c-.3.5-.9 1-2 1c-1.4 0-2.2-.9-2.2-2c0-1.1.8-1.8 1.9-1.9zm2.2 1c.02-.01 0-.3 0-.3c0 0-1.7.25-1.7.3c-.5 0-.9.3-.9.8c0 .5.4.9 1 .9c.9 0 1.6-.4 1.6-1.7zm7.3-2.3c-.2 0-.4 0-.5 0c-1.2 0-1.8.7-1.8 1.9c.01-.01 0 3.1 0 3.1l-1.6 0l0-6.6l1.6 0c0 0-.03 1.1 0 1.1c.3-.7 1-1.1 1.9-1.1c.2 0 .3 0 .4 0c0 0 0 1.6 0 1.6zm3.6-1.6l1.3 0l0 1.4l-1.3 0c0 0-.03 3.09 0 3.1c0 .6.2.8.8.8c.2 0 .5 0 .5 0c0 0 0 1.3 0 1.3c0 0-.3.1-.9.1c-1.2 0-2-.7-2-2c.02.05 0-3.3 0-3.3l-1.2 0l0-1.4c0 0 .34.05.3 0c.7 0 1.1-.4 1.1-1c-.04.02 0-1 0-1l1.4 0l0 2zm7.2 2.6c0-.8-.5-1.4-1.6-1.4c-1 0-1.6.7-1.6 1.4c0 0 3.2 0 3.2 0zm1.5 2.1c-.4 1.2-1.4 2.1-3 2.1c-1.8 0-3.3-1.3-3.3-3.5c0-2.1 1.5-3.5 3.2-3.5c2 0 3.2 1.4 3.2 3.5c0 .2-.1.4-.1.5c0 0-4.8 0-4.8 0c.1 1 .9 1.7 1.8 1.7c1 0 1.5-.5 1.7-1.2c0 0 1.3.4 1.3.4zm3.1 1.9l-1.5 0l0-6.6l1.5 0c0 0 0 .92 0 .9c.4-.7 1.2-1 1.9-1c1.6 0 2.4 1.1 2.4 2.6c.02-.04 0 4.1 0 4.1l-1.5 0c0 0-.05-3.87 0-3.9c0-.8-.4-1.4-1.4-1.4c-.9 0-1.4.7-1.4 1.5c.04.03 0 3.8 0 3.8zm7.8-3.7c0 0 1.7-.3 1.7-.3c.4-.1.5-.2.5-.5c0-.5-.4-1-1.3-1c-.8 0-1.3.6-1.3 1.2c0 0-1.4-.3-1.4-.3c.1-1.1 1.1-2.2 2.7-2.2c2 0 2.8 1.2 2.8 2.5c0 0 0 3.3 0 3.3c0 .6.1 1 .1 1c0 0-1.5 0-1.5 0c0 0 0-.3 0-.8c-.3.5-1 1-2.1 1c-1.3 0-2.2-.9-2.2-2c0-1.1.9-1.8 2-1.9zm2.2 1c-.02-.01 0-.3 0-.3c0 0-1.74.25-1.7.3c-.5 0-.9.3-.9.8c0 .5.3.9.9.9c.9 0 1.7-.4 1.7-1.7zm7.3-2.3c-.2 0-.4 0-.6 0c-1.2 0-1.7.7-1.7 1.9c-.03-.01 0 3.1 0 3.1l-1.6 0l0-6.6l1.5 0c0 0 .03 1.1 0 1.1c.3-.7 1.1-1.1 1.9-1.1c.2 0 .4 0 .5 0c0 0 0 1.6 0 1.6zm1.3 5l0-6.6l1.5 0l0 6.6l-1.5 0zm.7-9.9c.6 0 1.1.5 1.1 1c0 .6-.5 1.1-1.1 1.1c-.5 0-1-.5-1-1.1c0-.5.5-1 1-1zm4.4 6.2c0 0 1.7-.3 1.7-.3c.4-.1.5-.2.5-.5c0-.5-.4-1-1.3-1c-.8 0-1.2.6-1.3 1.2c0 0-1.4-.3-1.4-.3c.1-1.1 1.1-2.2 2.7-2.2c2.1 0 2.8 1.2 2.8 2.5c0 0 0 3.3 0 3.3c0 .6.1 1 .1 1c0 0-1.4 0-1.4 0c-.1 0-.1-.3-.1-.8c-.3.5-1 1-2 1c-1.4 0-2.3-.9-2.3-2c0-1.1.9-1.8 2-1.9zm2.2 1c-.01-.01 0-.3 0-.3c0 0-1.72.25-1.7.3c-.5 0-.9.3-.9.8c0 .5.3.9 1 .9c.8 0 1.6-.4 1.6-1.7zm5.4-3.9l1.3 0l0 1.4l-1.3 0c0 0-.02 3.09 0 3.1c0 .6.2.8.8.8c.2 0 .5 0 .6 0c0 0 0 1.3 0 1.3c-.1 0-.4.1-1 .1c-1.2 0-2-.7-2-2c.03.05 0-3.3 0-3.3l-1.2 0l0-1.4c0 0 .35.05.3 0c.8 0 1.1-.4 1.1-1c-.04.02 0-1 0-1l1.4 0l0 2zm3.8 4.5c.1.6.5 1.1 1.4 1.1c.6 0 1-.4 1-.8c0-.3-.3-.6-.8-.7c0 0-1-.2-1-.2c-1.1-.3-1.7-1-1.7-1.9c0-1.2 1-2.2 2.4-2.2c1.8 0 2.4 1.2 2.5 1.9c0 0-1.3.4-1.3.4c-.1-.4-.4-1-1.2-1c-.6 0-1 .3-1 .7c0 .4.3.6.7.7c0 0 1 .2 1 .2c1.2.3 1.9 1 1.9 2c0 1-.8 2.1-2.5 2.1c-1.9 0-2.6-1.2-2.7-2c0 0 1.3-.3 1.3-.3zm13.1-1.9c0-.8-.5-1.4-1.6-1.4c-1 0-1.6.7-1.6 1.4c0 0 3.2 0 3.2 0zm1.5 2.1c-.4 1.2-1.4 2.1-3 2.1c-1.8 0-3.3-1.3-3.3-3.5c0-2.1 1.5-3.5 3.2-3.5c2 0 3.2 1.4 3.2 3.5c0 .2-.1.4-.1.5c0 0-4.8 0-4.8 0c.1 1 .8 1.7 1.8 1.7c1 0 1.5-.5 1.7-1.2c0 0 1.3.4 1.3.4zm3.6-4.7l1.3 0l0 1.4l-1.3 0c0 0-.05 3.09 0 3.1c0 .6.2.8.8.8c.2 0 .5 0 .5 0c0 0 0 1.3 0 1.3c-.1 0-.4.1-.9.1c-1.2 0-2-.7-2-2c0 .05 0-3.3 0-3.3l-1.2 0l0-1.4c0 0 .33.05.3 0c.7 0 1-.4 1-1c.04.02 0-1 0-1l1.5 0l0 2zm10.5 5.9c-.3.6-1.1.9-1.8.9c-1.6 0-2.5-1.2-2.5-2.6c-.02-.01 0-4.2 0-4.2l1.5 0c0 0 .04 3.91 0 3.9c0 .8.4 1.5 1.4 1.5c.9 0 1.3-.6 1.3-1.5c.05.04 0-3.9 0-3.9l1.6 0c0 0 .01 5.42 0 5.4c0 .6.1 1 .1 1.2c0 0-1.5 0-1.5 0c0-.1-.1-.4-.1-.7c0 0 0 0 0 0zm5.1.7l-1.6 0l0-6.6l1.6 0c0 0-.04.92 0 .9c.4-.7 1.2-1 1.9-1c1.6 0 2.4 1.1 2.4 2.6c-.02-.04 0 4.1 0 4.1l-1.6 0c0 0 .02-3.87 0-3.9c0-.8-.3-1.4-1.3-1.4c-.9 0-1.4.7-1.4 1.5c0 .03 0 3.8 0 3.8zm10.5-4c0-.8-.5-1.4-1.6-1.4c-1 0-1.6.7-1.6 1.4c0 0 3.2 0 3.2 0zm1.5 2.1c-.3 1.2-1.4 2.1-3 2.1c-1.8 0-3.3-1.3-3.3-3.5c0-2.1 1.5-3.5 3.2-3.5c2 0 3.2 1.4 3.2 3.5c0 .2 0 .4-.1.5c0 0-4.8 0-4.8 0c.1 1 .9 1.7 1.8 1.7c1 0 1.5-.5 1.7-1.2c0 0 1.3.4 1.3.4z" stroke="none" fill="#144542"/></g><g id="Polygon181829"><path d="m3 35.9c-.04-.02 0 .8 0 .8l1.5 0l0 1.4l-1.5 0l0 5.2l-1.6 0l0-5.2l-1.2 0l0-1.4l1.2 0c0 0-.02-.86 0-.9c0-1.4.9-2.3 2.3-2.3c.4 0 .7.1.8.1c0 0 0 1.4 0 1.4c-.1-.1-.3-.1-.6-.1c-.4 0-.9.2-.9 1zm7.3 4.1c0-1.3-.9-2-1.9-2c-.9 0-1.8.7-1.8 2c0 1.4.9 2.1 1.8 2.1c1 0 1.9-.7 1.9-2.1zm1.5 0c0 2.1-1.4 3.5-3.4 3.5c-1.9 0-3.4-1.4-3.4-3.5c0-2 1.5-3.5 3.4-3.5c2 0 3.4 1.5 3.4 3.5zm5.4-1.7c-.2 0-.4 0-.5 0c-1.2 0-1.8.7-1.8 1.9c.02-.01 0 3.1 0 3.1l-1.5 0l0-6.6l1.5 0c0 0-.02 1.1 0 1.1c.3-.7 1-1.1 1.9-1.1c.2 0 .3 0 .4 0c0 0 0 1.6 0 1.6zm3.6-1.6l1.3 0l0 1.4l-1.3 0c0 0-.02 3.09 0 3.1c0 .6.2.8.8.8c.2 0 .5 0 .6 0c0 0 0 1.3 0 1.3c-.1 0-.4.1-1 .1c-1.2 0-2-.7-2-2c.02.05 0-3.3 0-3.3l-1.2 0l0-1.4c0 0 .35.05.3 0c.7 0 1.1-.4 1.1-1c-.04.02 0-1 0-1l1.4 0l0 2zm3.9 4.6c.7 0 1.2.6 1.2 1.4c0 1.9-1.2 2.7-2.2 2.8c0 0 0-.7 0-.7c.7-.2 1.2-.8 1.2-1.5c0 0-.1.1-.3.1c-.6 0-1-.4-1-1.1c0-.5.5-1 1.1-1zm8.4-5.4c.01-.02 0 .8 0 .8l1.5 0l0 1.4l-1.5 0l0 5.2l-1.6 0l0-5.2l-1.1 0l0-1.4l1.1 0c0 0 .04-.86 0-.9c0-1.4 1-2.3 2.3-2.3c.4 0 .7.1.9.1c0 0 0 1.4 0 1.4c-.1-.1-.3-.1-.6-.1c-.4 0-1 .2-1 1zm7.3 4.1c0-1.3-.8-2-1.8-2c-1 0-1.9.7-1.9 2c0 1.4.9 2.1 1.9 2.1c1 0 1.8-.7 1.8-2.1zm1.6 0c0 2.1-1.4 3.5-3.4 3.5c-2 0-3.4-1.4-3.4-3.5c0-2 1.4-3.5 3.4-3.5c2 0 3.4 1.5 3.4 3.5zm3.1 3.3l-1.6 0l0-6.6l1.5 0c0 0 .03.92 0 .9c.5-.7 1.2-1 2-1c1.6 0 2.4 1.1 2.4 2.6c-.05-.04 0 4.1 0 4.1l-1.6 0c0 0-.01-3.87 0-3.9c0-.8-.4-1.4-1.4-1.4c-.9 0-1.3.7-1.3 1.5c-.03.03 0 3.8 0 3.8zm9-1.2c1 0 1.7-.8 1.7-2.1c0-1.3-.7-2-1.7-2c-1 0-1.8.8-1.8 2c0 1.3.7 2.1 1.8 2.1zm3.2 0c0 .6.1 1.1.1 1.2c0 0-1.5 0-1.5 0c0-.1-.1-.6-.1-.8c-.3.5-1 1-1.9 1c-1.9 0-3.2-1.5-3.2-3.5c0-1.9 1.3-3.4 3.2-3.4c1.1 0 1.7.5 1.9.9c.01.02 0-4 0-4l1.5 0c0 0 .03 8.62 0 8.6zm5.4-6.2l-1.3 0l1.2-2l1.8 0l-1.7 2zm1 3.4c0-.8-.5-1.4-1.6-1.4c-1 0-1.6.7-1.6 1.4c0 0 3.2 0 3.2 0zm1.5 2.1c-.3 1.2-1.4 2.1-3 2.1c-1.7 0-3.3-1.3-3.3-3.5c0-2.1 1.5-3.5 3.2-3.5c2 0 3.2 1.4 3.2 3.5c0 .2 0 .4-.1.5c0 0-4.8 0-4.8 0c.1 1 .9 1.7 1.8 1.7c1 0 1.5-.5 1.7-1.2c0 0 1.3.4 1.3.4zm5.7-.2c.1.6.5 1.1 1.4 1.1c.6 0 .9-.4.9-.8c0-.3-.2-.6-.7-.7c0 0-1-.2-1-.2c-1.2-.3-1.8-1-1.8-1.9c0-1.2 1.1-2.2 2.4-2.2c1.9 0 2.5 1.2 2.6 1.9c0 0-1.3.4-1.3.4c-.1-.4-.4-1-1.3-1c-.5 0-.9.3-.9.7c0 .4.3.6.7.7c0 0 1 .2 1 .2c1.2.3 1.8 1 1.8 2c0 1-.8 2.1-2.4 2.1c-1.9 0-2.7-1.2-2.7-2c0 0 1.3-.3 1.3-.3zm9.6 1.4c-.3.6-1.1.9-1.9.9c-1.5 0-2.4-1.2-2.4-2.6c-.03-.01 0-4.2 0-4.2l1.5 0c0 0 .03 3.91 0 3.9c0 .8.4 1.5 1.4 1.5c.9 0 1.3-.6 1.3-1.5c.03.04 0-3.9 0-3.9l1.6 0c0 0 0 5.42 0 5.4c0 .6 0 1 .1 1.2c0 0-1.5 0-1.5 0c-.1-.1-.1-.4-.1-.7c0 0 0 0 0 0zm7.4-4.3c-.2 0-.4 0-.5 0c-1.3 0-1.8.7-1.8 1.9c-.01-.01 0 3.1 0 3.1l-1.6 0l0-6.6l1.5 0c0 0 .05 1.1 0 1.1c.4-.7 1.1-1.1 2-1.1c.1 0 .3 0 .4 0c0 0 0 1.6 0 1.6zm7.4 3.8c1 0 1.8-.8 1.8-2.1c0-1.3-.7-2-1.8-2c-1 0-1.7.8-1.7 2c0 1.3.7 2.1 1.7 2.1zm3.3 0c0 .6 0 1.1 0 1.2c0 0-1.5 0-1.5 0c0-.1 0-.6 0-.8c-.3.5-1 1-2 1c-1.8 0-3.1-1.5-3.1-3.5c0-1.9 1.3-3.4 3.1-3.4c1.2 0 1.7.5 2 .9c-.05.02 0-4 0-4l1.5 0c0 0-.03 8.62 0 8.6zm6.3-2.8c0-.8-.5-1.4-1.6-1.4c-1 0-1.5.7-1.6 1.4c0 0 3.2 0 3.2 0zm1.5 2.1c-.3 1.2-1.3 2.1-2.9 2.1c-1.8 0-3.4-1.3-3.4-3.5c0-2.1 1.6-3.5 3.2-3.5c2 0 3.2 1.4 3.2 3.5c0 .2 0 .4 0 .5c0 0-4.8 0-4.8 0c0 1 .8 1.7 1.8 1.7c.9 0 1.4-.5 1.6-1.2c0 0 1.3.4 1.3.4zm2.4-.2c.1.6.5 1.1 1.3 1.1c.7 0 1-.4 1-.8c0-.3-.2-.6-.7-.7c0 0-1-.2-1-.2c-1.2-.3-1.8-1-1.8-1.9c0-1.2 1.1-2.2 2.4-2.2c1.9 0 2.5 1.2 2.6 1.9c0 0-1.3.4-1.3.4c-.1-.4-.4-1-1.3-1c-.5 0-.9.3-.9.7c0 .4.2.6.7.7c0 0 1 .2 1 .2c1.2.3 1.8 1 1.8 2c0 1-.8 2.1-2.4 2.1c-1.9 0-2.7-1.2-2.8-2c0 0 1.4-.3 1.4-.3z" stroke="none" fill="#144542"/></g><g id="Polygon181828"><path d="m5.3 26.4c-.3.6-1.1.9-1.9.9c-1.5 0-2.5-1.2-2.5-2.6c.05-.01 0-4.2 0-4.2l1.6 0c0 0 .01 3.91 0 3.9c0 .8.4 1.5 1.3 1.5c.9 0 1.4-.6 1.4-1.5c.01.04 0-3.9 0-3.9l1.6 0c0 0-.02 5.42 0 5.4c0 .6 0 1 0 1.2c0 0-1.5 0-1.5 0c0-.1 0-.4 0-.7c0 0 0 0 0 0zm5.1.7l-1.6 0l0-6.6l1.5 0c0 0 .03.92 0 .9c.5-.7 1.2-1 2-1c1.6 0 2.3 1.1 2.3 2.6c.05-.04 0 4.1 0 4.1l-1.5 0c0 0-.02-3.87 0-3.9c0-.8-.4-1.4-1.4-1.4c-.9 0-1.3.7-1.3 1.5c-.03.03 0 3.8 0 3.8zm11.1-3.7c0 0 1.7-.3 1.7-.3c.3-.1.5-.2.5-.5c0-.5-.4-1-1.3-1c-.8 0-1.3.6-1.3 1.2c0 0-1.5-.3-1.5-.3c.2-1.1 1.2-2.2 2.8-2.2c2 0 2.8 1.2 2.8 2.5c0 0 0 3.3 0 3.3c0 .6.1 1 .1 1c0 0-1.5 0-1.5 0c0 0-.1-.3-.1-.8c-.3.5-.9 1-2 1c-1.4 0-2.2-.9-2.2-2c0-1.1.9-1.8 2-1.9zm2.2 1c-.05-.01 0-.3 0-.3c0 0-1.76.25-1.8.3c-.4 0-.8.3-.8.8c0 .5.3.9.9.9c.9 0 1.7-.4 1.7-1.7zm4.9 2.7l-1.5 0l0-6.6l1.5 0c0 0 .01.92 0 .9c.4-.7 1.2-1 2-1c1.6 0 2.3 1.1 2.3 2.6c.03-.04 0 4.1 0 4.1l-1.5 0c0 0-.04-3.87 0-3.9c0-.8-.4-1.4-1.4-1.4c-.9 0-1.4.7-1.4 1.5c.05.03 0 3.8 0 3.8zm7.3-3.3c0 1.4.8 2.1 1.8 2.1c1 0 1.5-.7 1.7-1.2c0 0 1.3.5 1.3.5c-.3 1-1.3 2.1-3 2.1c-1.9 0-3.4-1.5-3.4-3.5c0-2 1.5-3.5 3.4-3.5c1.7 0 2.7 1.2 3 2.2c0 0-1.4.5-1.4.5c-.2-.6-.6-1.2-1.6-1.2c-1 0-1.8.7-1.8 2zm10.1-1.7c-.2 0-.4 0-.5 0c-1.2 0-1.8.7-1.8 1.9c0-.01 0 3.1 0 3.1l-1.6 0l0-6.6l1.6 0c0 0-.04 1.1 0 1.1c.3-.7 1-1.1 1.9-1.1c.1 0 .3 0 .4 0c0 0 0 1.6 0 1.6zm2.9 1.3c0 0 1.7-.3 1.7-.3c.3-.1.5-.2.5-.5c0-.5-.4-1-1.3-1c-.8 0-1.3.6-1.3 1.2c0 0-1.5-.3-1.5-.3c.2-1.1 1.2-2.2 2.8-2.2c2 0 2.8 1.2 2.8 2.5c0 0 0 3.3 0 3.3c0 .6.1 1 .1 1c0 0-1.5 0-1.5 0c0 0 0-.3 0-.8c-.4.5-1 1-2.1 1c-1.4 0-2.2-.9-2.2-2c0-1.1.9-1.8 2-1.9zm2.2 1c-.04-.01 0-.3 0-.3c0 0-1.76.25-1.8.3c-.4 0-.8.3-.8.8c0 .5.3.9.9.9c.9 0 1.7-.4 1.7-1.7zm4.3 2.7c.2.8.8 1.4 1.7 1.4c1.2 0 1.9-.6 1.9-1.9c0 0 0-.7 0-.7c-.3.5-1 .9-2 .9c-1.7 0-3-1.3-3-3.2c0-1.7 1.2-3.2 3-3.2c1.1 0 1.7.4 2 1c-.01-.02 0-.9 0-.9l1.5 0c0 0 .01 6 0 6c0 1.8-.9 3.4-3.4 3.4c-1.7 0-2.9-1.1-3.1-2.4c0 0 1.4-.4 1.4-.4zm3.6-3.5c0-1.1-.7-1.8-1.7-1.8c-1 0-1.7.7-1.7 1.8c0 1.2.7 1.9 1.7 1.9c1 0 1.7-.7 1.7-1.9zm7.7-.5c0-.8-.5-1.4-1.6-1.4c-1 0-1.5.7-1.6 1.4c0 0 3.2 0 3.2 0zm1.5 2.1c-.3 1.2-1.3 2.1-2.9 2.1c-1.8 0-3.4-1.3-3.4-3.5c0-2.1 1.5-3.5 3.2-3.5c2 0 3.2 1.4 3.2 3.5c0 .2 0 .4 0 .5c0 0-4.8 0-4.8 0c0 1 .8 1.7 1.8 1.7c.9 0 1.4-.5 1.6-1.2c0 0 1.3.4 1.3.4zm7-4.7l1.3 0l0 1.4l-1.3 0c0 0-.05 3.09 0 3.1c0 .6.2.8.8.8c.2 0 .5 0 .5 0c0 0 0 1.3 0 1.3c-.1 0-.4.1-.9.1c-1.2 0-2-.7-2-2c0 .05 0-3.3 0-3.3l-1.2 0l0-1.4c0 0 .32.05.3 0c.7 0 1-.4 1-1c.04.02 0-1 0-1l1.5 0l0 2zm7.2 2.6c-.1-.8-.6-1.4-1.6-1.4c-1 0-1.6.7-1.7 1.4c0 0 3.3 0 3.3 0zm1.5 2.1c-.4 1.2-1.4 2.1-3 2.1c-1.8 0-3.4-1.3-3.4-3.5c0-2.1 1.6-3.5 3.2-3.5c2.1 0 3.3 1.4 3.3 3.5c0 .2-.1.4-.1.5c0 0-4.8 0-4.8 0c0 1 .8 1.7 1.8 1.7c.9 0 1.4-.5 1.7-1.2c0 0 1.3.4 1.3.4zm5.4-3.1c-.2 0-.4 0-.5 0c-1.2 0-1.8.7-1.8 1.9c.02-.01 0 3.1 0 3.1l-1.5 0l0-6.6l1.5 0c0 0-.02 1.1 0 1.1c.3-.7 1-1.1 1.9-1.1c.2 0 .3 0 .4 0c0 0 0 1.6 0 1.6zm5.2 0c-.2 0-.4 0-.6 0c-1.2 0-1.7.7-1.7 1.9c-.02-.01 0 3.1 0 3.1l-1.6 0l0-6.6l1.5 0c0 0 .03 1.1 0 1.1c.3-.7 1.1-1.1 1.9-1.1c.2 0 .4 0 .5 0c0 0 0 1.6 0 1.6zm1.3 5l0-6.6l1.5 0l0 6.6l-1.5 0zm.7-9.9c.6 0 1.1.5 1.1 1c0 .6-.5 1.1-1.1 1.1c-.5 0-1-.5-1-1.1c0-.5.5-1 1-1zm4.8 3.3l1.4 0l0 1.4l-1.4 0c0 0 .03 3.09 0 3.1c0 .6.3.8.9.8c.2 0 .4 0 .5 0c0 0 0 1.3 0 1.3c-.1 0-.4.1-1 .1c-1.2 0-1.9-.7-1.9-2c-.02.05 0-3.3 0-3.3l-1.2 0l0-1.4c0 0 .3.05.3 0c.7 0 1-.4 1-1c.01.02 0-1 0-1l1.4 0l0 2zm7.7 3.3c0-1.3-.9-2-1.9-2c-.9 0-1.8.7-1.8 2c0 1.4.9 2.1 1.8 2.1c1 0 1.9-.7 1.9-2.1zm1.5 0c0 2.1-1.4 3.5-3.4 3.5c-1.9 0-3.4-1.4-3.4-3.5c0-2 1.5-3.5 3.4-3.5c2 0 3.4 1.5 3.4 3.5zm5.4-1.7c-.2 0-.4 0-.5 0c-1.2 0-1.8.7-1.8 1.9c.01-.01 0 3.1 0 3.1l-1.6 0l0-6.6l1.6 0c0 0-.03 1.1 0 1.1c.3-.7 1-1.1 1.9-1.1c.2 0 .3 0 .4 0c0 0 0 1.6 0 1.6zm1.3 5l0-6.6l1.6 0l0 6.6l-1.6 0zm.8-9.9c.5 0 1 .5 1 1c0 .6-.5 1.1-1 1.1c-.6 0-1-.5-1-1.1c0-.5.4-1 1-1zm4.4 6.2c0 0 1.6-.3 1.6-.3c.4-.1.5-.2.5-.5c0-.5-.3-1-1.2-1c-.8 0-1.3.6-1.4 1.2c0 0-1.4-.3-1.4-.3c.1-1.1 1.2-2.2 2.8-2.2c2 0 2.8 1.2 2.8 2.5c0 0 0 3.3 0 3.3c0 .6 0 1 .1 1c0 0-1.5 0-1.5 0c0 0-.1-.3-.1-.8c-.3.5-.9 1-2 1c-1.4 0-2.2-.9-2.2-2c0-1.1.8-1.8 2-1.9zm2.1 1c.04-.01 0-.3 0-.3c0 0-1.68.25-1.7.3c-.5 0-.9.3-.9.8c0 .5.4.9 1 .9c.9 0 1.6-.4 1.6-1.7zm3.5 2.7l0-9.8l1.5 0l0 9.8l-1.5 0z" stroke="none" fill="#144542"/></g><g id="Polygon181827"><path d="m7.5 10.9l-4.7-7.2l0 7.2l-1.7 0l0-9.5l2.1 0l4.4 6.7l0-6.7l1.6 0l0 9.5l-1.7 0zm8.5-3.3c0-1.3-.8-2-1.8-2c-1 0-1.8.7-1.8 2c0 1.4.8 2.1 1.8 2.1c1 0 1.8-.7 1.8-2.1zm1.6 0c0 2.1-1.4 3.5-3.4 3.5c-2 0-3.4-1.4-3.4-3.5c0-2 1.4-3.5 3.4-3.5c2 0 3.4 1.5 3.4 3.5zm3.5-3.3l1.3 0l0 1.4l-1.3 0c0 0-.03 3.09 0 3.1c0 .6.2.8.8.8c.2 0 .5 0 .5 0c0 0 0 1.3 0 1.3c0 0-.3.1-.9.1c-1.2 0-2-.7-2-2c.02.05 0-3.3 0-3.3l-1.2 0l0-1.4c0 0 .34.05.3 0c.7 0 1.1-.4 1.1-1c-.04.02 0-1 0-1l1.4 0l0 2zm6.7 1.6c-.2 0-.4 0-.5 0c-1.3 0-1.8.7-1.8 1.9c-.01-.01 0 3.1 0 3.1l-1.6 0l0-6.6l1.5 0c0 0 .05 1.1 0 1.1c.4-.7 1.1-1.1 2-1.1c.1 0 .3 0 .4 0c0 0 0 1.6 0 1.6zm5.5 1c0-.8-.5-1.4-1.6-1.4c-1 0-1.5.7-1.6 1.4c0 0 3.2 0 3.2 0zm1.5 2.1c-.3 1.2-1.4 2.1-2.9 2.1c-1.8 0-3.4-1.3-3.4-3.5c0-2.1 1.5-3.5 3.2-3.5c2 0 3.2 1.4 3.2 3.5c0 .2 0 .4 0 .5c0 0-4.8 0-4.8 0c0 1 .8 1.7 1.8 1.7c.9 0 1.4-.5 1.6-1.2c0 0 1.3.4 1.3.4zm6.2-1.8c0 0 1.7-.3 1.7-.3c.4-.1.5-.2.5-.5c0-.5-.4-1-1.2-1c-.9 0-1.3.6-1.4 1.2c0 0-1.4-.3-1.4-.3c.1-1.1 1.1-2.2 2.8-2.2c2 0 2.7 1.2 2.7 2.5c0 0 0 3.3 0 3.3c0 .6.1 1 .1 1c0 0-1.4 0-1.4 0c0 0-.1-.3-.1-.8c-.3.5-1 1-2 1c-1.4 0-2.2-.9-2.2-2c0-1.1.8-1.8 1.9-1.9zm2.2 1c.01-.01 0-.3 0-.3c0 0-1.71.25-1.7.3c-.5 0-.9.3-.9.8c0 .5.4.9 1 .9c.9 0 1.6-.4 1.6-1.7zm4.5-.6c0 1.4.8 2.1 1.8 2.1c1 0 1.5-.7 1.7-1.2c0 0 1.3.5 1.3.5c-.3 1-1.3 2.1-3 2.1c-1.9 0-3.4-1.5-3.4-3.5c0-2 1.5-3.5 3.4-3.5c1.7 0 2.7 1.2 3 2.2c0 0-1.4.5-1.4.5c-.2-.6-.6-1.2-1.6-1.2c-1 0-1.8.7-1.8 2zm8.2-3.3l1.4 0l0 1.4l-1.4 0c0 0 .01 3.09 0 3.1c0 .6.3.8.8.8c.3 0 .5 0 .6 0c0 0 0 1.3 0 1.3c-.1 0-.4.1-1 .1c-1.2 0-1.9-.7-1.9-2c-.04.05 0-3.3 0-3.3l-1.3 0l0-1.4c0 0 .38.05.4 0c.7 0 1-.4 1-1c0 .02 0-1 0-1l1.4 0l0 2zm3 6.6l0-6.6l1.5 0l0 6.6l-1.5 0zm.8-9.9c.5 0 1 .5 1 1c0 .6-.5 1.1-1 1.1c-.6 0-1.1-.5-1.1-1.1c0-.5.5-1 1.1-1zm7.5 6.6c0-1.3-.9-2-1.9-2c-.9 0-1.8.7-1.8 2c0 1.4.9 2.1 1.8 2.1c1 0 1.9-.7 1.9-2.1zm1.6 0c0 2.1-1.5 3.5-3.5 3.5c-1.9 0-3.4-1.4-3.4-3.5c0-2 1.5-3.5 3.4-3.5c2 0 3.5 1.5 3.5 3.5zm3 3.3l-1.5 0l0-6.6l1.5 0c0 0 0 .92 0 .9c.4-.7 1.2-1 1.9-1c1.7 0 2.4 1.1 2.4 2.6c.02-.04 0 4.1 0 4.1l-1.5 0c0 0-.04-3.87 0-3.9c0-.8-.4-1.4-1.4-1.4c-.9 0-1.4.7-1.4 1.5c.04.03 0 3.8 0 3.8zm13.1-5c-.2 0-.3 0-.5 0c-1.2 0-1.8.7-1.8 1.9c.04-.01 0 3.1 0 3.1l-1.5 0l0-6.6l1.5 0c0 0 0 1.1 0 1.1c.3-.7 1-1.1 1.9-1.1c.2 0 .4 0 .4 0c0 0 0 1.6 0 1.6zm5.6 1c0-.8-.6-1.4-1.6-1.4c-1 0-1.6.7-1.6 1.4c0 0 3.2 0 3.2 0zm1.5 2.1c-.4 1.2-1.4 2.1-3 2.1c-1.8 0-3.4-1.3-3.4-3.5c0-2.1 1.6-3.5 3.2-3.5c2.1 0 3.3 1.4 3.3 3.5c0 .2-.1.4-.1.5c0 0-4.8 0-4.8 0c.1 1 .8 1.7 1.8 1.7c1 0 1.4-.5 1.7-1.2c0 0 1.3.4 1.3.4zm1.6 4.5l0-9.2l1.5 0c0 0-.03.94 0 .9c.3-.5 1-1 2.1-1c1.9 0 3 1.5 3 3.4c0 2-1.2 3.5-3.1 3.5c-.9 0-1.7-.4-2-.9c.01-.02 0 3.3 0 3.3l-1.5 0zm5-5.9c0-1.2-.7-2-1.7-2c-1.1 0-1.8.8-1.8 2c0 1.3.7 2.1 1.8 2.1c1 0 1.7-.8 1.7-2.1c0 0 0 0 0 0zm7.8 0c0-1.3-.8-2-1.8-2c-1 0-1.8.7-1.8 2c0 1.4.8 2.1 1.8 2.1c1 0 1.8-.7 1.8-2.1zm1.6 0c0 2.1-1.4 3.5-3.4 3.5c-2 0-3.4-1.4-3.4-3.5c0-2 1.4-3.5 3.4-3.5c2 0 3.4 1.5 3.4 3.5zm2.3 1.2c.1.6.5 1.1 1.3 1.1c.7 0 1-.4 1-.8c0-.3-.2-.6-.7-.7c0 0-1-.2-1-.2c-1.2-.3-1.8-1-1.8-1.9c0-1.2 1.1-2.2 2.4-2.2c1.9 0 2.5 1.2 2.6 1.9c0 0-1.3.4-1.3.4c-.1-.4-.4-1-1.3-1c-.5 0-.9.3-.9.7c0 .4.3.6.7.7c0 0 1 .2 1 .2c1.2.3 1.8 1 1.8 2c0 1-.8 2.1-2.4 2.1c-1.9 0-2.7-1.2-2.8-2c0 0 1.4-.3 1.4-.3zm9.7-1.9c0-.8-.6-1.4-1.6-1.4c-1 0-1.6.7-1.6 1.4c0 0 3.2 0 3.2 0zm1.5 2.1c-.4 1.2-1.4 2.1-3 2.1c-1.8 0-3.4-1.3-3.4-3.5c0-2.1 1.6-3.5 3.2-3.5c2.1 0 3.3 1.4 3.3 3.5c0 .2-.1.4-.1.5c0 0-4.8 0-4.8 0c.1 1 .8 1.7 1.8 1.7c1 0 1.4-.5 1.7-1.2c0 0 1.3.4 1.3.4zm5.4-.2c0 .6.5 1.1 1.3 1.1c.7 0 1-.4 1-.8c0-.3-.2-.6-.8-.7c0 0-.9-.2-.9-.2c-1.2-.3-1.8-1-1.8-1.9c0-1.2 1-2.2 2.4-2.2c1.8 0 2.4 1.2 2.6 1.9c0 0-1.4.4-1.4.4c0-.4-.3-1-1.2-1c-.5 0-.9.3-.9.7c0 .4.2.6.6.7c0 0 1 .2 1 .2c1.3.3 1.9 1 1.9 2c0 1-.8 2.1-2.5 2.1c-1.9 0-2.6-1.2-2.7-2c0 0 1.4-.3 1.4-.3zm9.6 1.4c-.3.6-1.1.9-1.9.9c-1.5 0-2.5-1.2-2.5-2.6c.04-.01 0-4.2 0-4.2l1.6 0c0 0 0 3.91 0 3.9c0 .8.4 1.5 1.3 1.5c.9 0 1.4-.6 1.4-1.5c0 .04 0-3.9 0-3.9l1.6 0c0 0-.03 5.42 0 5.4c0 .6 0 1 0 1.2c0 0-1.5 0-1.5 0c0-.1 0-.4 0-.7c0 0 0 0 0 0zm7.3-4.3c-.1 0-.3 0-.5 0c-1.2 0-1.7.7-1.7 1.9c-.04-.01 0 3.1 0 3.1l-1.6 0l0-6.6l1.5 0c0 0 .02 1.1 0 1.1c.3-.7 1.1-1.1 1.9-1.1c.2 0 .4 0 .4 0c0 0 0 1.6 0 1.6z" stroke="none" fill="#144542"/></g></svg>