<?xml version="1.0" standalone="no"?><!DOCTYPE svg PUBLIC "-//W3C//DTD SVG 1.1//EN" "http://www.w3.org/Graphics/SVG/1.1/DTD/svg11.dtd"><svg xmlns="http://www.w3.org/2000/svg" version="1.1" width="135.4px" height="69.8px" viewBox="0 -11 135.4 69.8" style="top:-11px"><desc>+ 100</desc><defs/><g id="Polygon163789"><path d="m41 18.8l0 1.5l-6.2-.2l-1.9 0l0 3.5l.2 4.6l-1.5 0l.3-6.1l0-2l-3.6 0l-4.6.2l0-1.5l6.1.3l2.1 0l0-3.8l-.3-4.4l1.5 0l-.2 6.3l0 1.9l3.8 0l4.3-.3zm7.8-2l10.7-7.1c0 0 .03 19.31 0 19.3c0 2.7 1.5 3.3 2.1 3.5c-.02-.01 0 .8 0 .8l-11.4 0c0 0-.04-.81 0-.8c.7-.2 2.2-.8 2.2-3.5c0 0 0-8.4 0-8.4c0-2.9-2.2-3.4-3.6-2.9c.02-.02 0-.9 0-.9zm14.8 5.3c0-6.5 4.7-11.7 11.6-11.7c7.3 0 11.4 5.2 11.4 11.7c0 6.4-4.1 11.7-11.4 11.7c-6.9 0-11.6-5.3-11.6-11.7zm15.3 0c0-5.4-.3-10.8-3.7-10.8c-3.5 0-3.8 5.4-3.8 10.8c0 5.3.3 10.8 3.8 10.8c3.4 0 3.7-5.5 3.7-10.8zm10 0c0-6.5 4.7-11.7 11.6-11.7c7.3 0 11.4 5.2 11.4 11.7c0 6.4-4.1 11.7-11.4 11.7c-6.9 0-11.6-5.3-11.6-11.7zm15.3 0c0-5.4-.3-10.8-3.7-10.8c-3.5 0-3.7 5.4-3.7 10.8c0 5.3.2 10.8 3.7 10.8c3.4 0 3.7-5.5 3.7-10.8z" stroke="none" fill="#fff"/></g></svg>