<?xml version="1.0" standalone="no"?><!DOCTYPE svg PUBLIC "-//W3C//DTD SVG 1.1//EN" "http://www.w3.org/Graphics/SVG/1.1/DTD/svg11.dtd"><svg xmlns="http://www.w3.org/2000/svg" version="1.1" width="28.1px" height="20.6px" viewBox="0 -3 28.1 20.6" style="top:-3px"><desc>43 %</desc><defs/><g id="Polygon166016"><path d="m.5 7.4l3.7-5.2l1.8 0l0 5.5l1.5 0l0 1.2l-1.5 0l0 2l-1.2 0l0-2l-4.3 0l0-1.5zm4.3-4l-3.1 4.3l3.1 0l0-4.3zm5.3 2.4l2.6-2.4l-4.2 0l0-1.2l6 0l0 1.2c0 0-2.53 2.27-2.5 2.3c1.3 0 2.7.8 2.7 2.6c0 1.5-1.2 2.8-3.2 2.8c-2 0-3.2-1.3-3.3-2.7c0 0 1.3-.3 1.3-.3c.1 1.1.9 1.9 2 1.9c1.2 0 1.8-.8 1.8-1.6c0-1.2-.9-1.7-1.7-1.7c-.3 0-.6.1-.8.2c-.01-.04-.7-1.1-.7-1.1zm9.2-.5c.6 0 1-.5 1-1.1c0-.6-.4-1.1-1-1.1c-.6 0-1.1.5-1.1 1.1c0 .6.5 1.1 1.1 1.1zm0-3.2c1.1 0 2.1.9 2.1 2.1c0 1.2-1 2.1-2.1 2.1c-1.2 0-2.2-.9-2.2-2.1c0-1.2 1-2.1 2.2-2.1zm5.3 7.9c.6 0 1.1-.5 1.1-1.1c0-.6-.5-1.1-1.1-1.1c-.6 0-1 .5-1 1.1c0 .6.4 1.1 1 1.1zm0-3.2c1.2 0 2.2.9 2.2 2.1c0 1.2-1 2.1-2.2 2.1c-1.2 0-2.1-.9-2.1-2.1c0-1.2.9-2.1 2.1-2.1zm-6.4 4.1l6.3-8.7l1.2 0l-6.3 8.7l-1.2 0z" stroke="none" fill="#3b6966"/></g></svg>