<?xml version="1.0" standalone="no"?><!DOCTYPE svg PUBLIC "-//W3C//DTD SVG 1.1//EN" "http://www.w3.org/Graphics/SVG/1.1/DTD/svg11.dtd"><svg xmlns="http://www.w3.org/2000/svg" version="1.1" width="146.1px" height="20.6px" viewBox="0 -3 146.1 20.6" style="top:-3px"><desc>Remerciements</desc><defs/><g id="Polygon160560"><path d="m4 7l-1.4 0l0 3.9l-1.4 0l0-9.5c0 0 3.62-.05 3.6 0c1.8 0 2.9 1.2 2.9 2.8c0 1.4-.8 2.4-2.3 2.7c.03.01 2.3 4 2.3 4l-1.5 0l-2.2-3.9zm.6-1.2c1.1 0 1.8-.6 1.8-1.6c0-1-.7-1.7-1.8-1.7c-.02.04-2 0-2 0l0 3.3c0 0 1.98.02 2 0zm8.9 1.2c0-.9-.6-1.7-1.7-1.7c-1.1 0-1.8.9-1.8 1.7c0 0 3.5 0 3.5 0zm1.3 2.1c-.3 1.1-1.4 2-2.9 2c-1.7 0-3.3-1.2-3.3-3.4c0-2.1 1.5-3.5 3.1-3.5c2 0 3.2 1.4 3.2 3.4c0 .2-.1.4-.1.4c0 0-4.9 0-4.9 0c.1 1.2.9 2 2 2c1.1 0 1.6-.6 1.8-1.3c0 0 1.1.4 1.1.4zm1.7 1.8l0-6.5l1.2 0c0 0 0 .89 0 .9c.4-.7 1.2-1.1 2-1.1c.8 0 1.6.4 1.9 1.3c.5-1 1.4-1.3 2.2-1.3c1.1 0 2.2.8 2.2 2.5c.03.01 0 4.2 0 4.2l-1.2 0c0 0-.03-4.06 0-4.1c0-.8-.4-1.4-1.4-1.4c-.9 0-1.5.7-1.5 1.6c0-.01 0 3.9 0 3.9l-1.3 0c0 0 .03-4.06 0-4.1c0-.8-.4-1.4-1.3-1.4c-1 0-1.6.6-1.6 1.6c.04.01 0 3.9 0 3.9l-1.2 0zm15.9-3.9c0-.9-.6-1.7-1.8-1.7c-1 0-1.7.9-1.7 1.7c0 0 3.5 0 3.5 0zm1.3 2.1c-.4 1.1-1.4 2-2.9 2c-1.7 0-3.3-1.2-3.3-3.4c0-2.1 1.5-3.5 3.1-3.5c2 0 3.1 1.4 3.1 3.4c0 .2 0 .4 0 .4c0 0-4.9 0-4.9 0c.1 1.2.9 2 2 2c1 0 1.6-.6 1.8-1.3c0 0 1.1.4 1.1.4zm5.3-3.4c-.2 0-.4 0-.6 0c-1 0-1.8.5-1.8 2c.04-.03 0 3.2 0 3.2l-1.2 0l0-6.5l1.2 0c0 0 .01 1.16 0 1.2c.5-1 1.3-1.3 2-1.3c.1 0 .3 0 .4.1c0 0 0 1.3 0 1.3zm2 2c0 1.5.9 2.3 2 2.3c1.2 0 1.7-.9 1.8-1.4c0 0 1.1.5 1.1.5c-.3.9-1.2 2-2.9 2c-1.9 0-3.3-1.5-3.3-3.4c0-2.1 1.4-3.5 3.3-3.5c1.7 0 2.6 1.1 2.9 2.1c0 0-1.2.5-1.2.5c-.1-.7-.6-1.4-1.7-1.4c-1 0-2 .8-2 2.3zm6.4 3.2l0-6.5l1.3 0l0 6.5l-1.3 0zm.6-9.8c.5 0 .9.4.9.9c0 .5-.4.9-.9.9c-.5 0-.9-.4-.9-.9c0-.5.4-.9.9-.9zm7.2 5.9c0-.9-.6-1.7-1.8-1.7c-1 0-1.7.9-1.8 1.7c0 0 3.6 0 3.6 0zm1.3 2.1c-.4 1.1-1.4 2-2.9 2c-1.8 0-3.3-1.2-3.3-3.4c0-2.1 1.5-3.5 3.1-3.5c2 0 3.1 1.4 3.1 3.4c0 .2 0 .4 0 .4c0 0-4.9 0-4.9 0c0 1.2.9 2 2 2c1 0 1.5-.6 1.8-1.3c0 0 1.1.4 1.1.4zm1.6 1.8l0-6.5l1.3 0c0 0-.04.89 0 .9c.4-.7 1.2-1.1 1.9-1.1c.8 0 1.6.4 2 1.3c.5-1 1.3-1.3 2.1-1.3c1.2 0 2.3.8 2.3 2.5c-.01.01 0 4.2 0 4.2l-1.3 0c0 0 .03-4.06 0-4.1c0-.8-.4-1.4-1.3-1.4c-.9 0-1.5.7-1.5 1.6c-.04-.01 0 3.9 0 3.9l-1.3 0c0 0-.01-4.06 0-4.1c0-.8-.4-1.4-1.4-1.4c-.9 0-1.5.6-1.5 1.6c0 .01 0 3.9 0 3.9l-1.3 0zm16-3.9c0-.9-.6-1.7-1.8-1.7c-1.1 0-1.7.9-1.8 1.7c0 0 3.6 0 3.6 0zm1.3 2.1c-.4 1.1-1.4 2-2.9 2c-1.8 0-3.3-1.2-3.3-3.4c0-2.1 1.5-3.5 3.1-3.5c2 0 3.1 1.4 3.1 3.4c0 .2 0 .4 0 .4c0 0-4.9 0-4.9 0c0 1.2.9 2 2 2c1 0 1.5-.6 1.8-1.3c0 0 1.1.4 1.1.4zm2.9 1.8l-1.3 0l0-6.5l1.3 0c0 0-.03.96 0 1c.4-.9 1.2-1.2 2-1.2c1.5 0 2.3 1.2 2.3 2.6c-.01 0 0 4.1 0 4.1l-1.3 0c0 0 .02-3.88 0-3.9c0-.9-.4-1.6-1.5-1.6c-1 0-1.5.8-1.5 1.8c0-.03 0 3.7 0 3.7zm8-6.5l1.4 0l0 1.2l-1.4 0c0 0 .02 3.35 0 3.4c0 .5.3.8.9.8c.2 0 .4 0 .5 0c0 0 0 1.1 0 1.1c-.1 0-.4.1-.8.1c-1.1 0-1.8-.7-1.8-1.9c-.05.04 0-3.5 0-3.5l-1.3 0l0-1.2c0 0 .36.03.4 0c.7 0 1-.4 1-1c-.04.03 0-1 0-1l1.1 0l0 2zm3.7 4.4c.1.7.6 1.2 1.5 1.2c.7 0 1.1-.4 1.1-.8c0-.4-.3-.7-.8-.9c0 0-1.1-.2-1.1-.2c-1-.2-1.6-.9-1.6-1.8c0-1.1 1-2.1 2.3-2.1c1.8 0 2.3 1.2 2.5 1.8c0 0-1.2.4-1.2.4c0-.4-.3-1.1-1.3-1.1c-.7 0-1.1.4-1.1.9c0 .4.2.6.7.8c0 0 1.1.2 1.1.2c1.2.2 1.8 1 1.8 1.9c0 .9-.8 2-2.4 2c-1.8 0-2.5-1.1-2.6-1.9c0 0 1.1-.4 1.1-.4z" stroke="none" fill="#144542"/></g></svg>