<?xml version="1.0" standalone="no"?><!DOCTYPE svg PUBLIC "-//W3C//DTD SVG 1.1//EN" "http://www.w3.org/Graphics/SVG/1.1/DTD/svg11.dtd"><svg xmlns="http://www.w3.org/2000/svg" version="1.1" width="150.2px" height="52.6px" viewBox="0 -3 150.2 52.6" style="top:-3px"><desc>en chiffres Profil des personnes accompagn es</desc><defs/><g id="Polygon160263"><path d="m.7 41.6c0-1.2.8-1.8 1.9-2c0 0 1.8-.2 1.8-.2c.4-.1.5-.3.5-.5c0-.7-.4-1.2-1.4-1.2c-.9 0-1.4.6-1.5 1.3c0 0-1.2-.3-1.2-.3c.1-1.2 1.3-2.1 2.7-2.1c1.9 0 2.7 1.1 2.7 2.4c0 0 0 3.3 0 3.3c0 .5 0 .9 0 1c0 0-1.2 0-1.2 0c0-.1-.1-.4-.1-.9c-.2.5-.9 1.1-2.1 1.1c-1.3 0-2.1-.9-2.1-1.9c0 0 0 0 0 0zm4.2-1.1c0 .04 0-.3 0-.3c0 0-1.98.34-2 .3c-.5.1-.9.4-.9 1c0 .5.4 1 1 1c1.1 0 1.9-.5 1.9-2zm4-.4c0 1.5.9 2.3 2 2.3c1.2 0 1.6-.9 1.8-1.4c0 0 1.1.5 1.1.5c-.3.9-1.2 2-2.9 2c-1.9 0-3.3-1.5-3.3-3.4c0-2.1 1.4-3.5 3.3-3.5c1.7 0 2.6 1.1 2.9 2.1c0 0-1.2.5-1.2.5c-.2-.7-.6-1.4-1.7-1.4c-1.1 0-2 .8-2 2.3zm7.1 0c0 1.5.9 2.3 2 2.3c1.2 0 1.6-.9 1.8-1.4c0 0 1.1.5 1.1.5c-.3.9-1.2 2-2.9 2c-1.9 0-3.3-1.5-3.3-3.4c0-2.1 1.4-3.5 3.3-3.5c1.7 0 2.6 1.1 2.8 2.1c0 0-1.1.5-1.1.5c-.2-.7-.6-1.4-1.7-1.4c-1.1 0-2 .8-2 2.3zm11.1 0c0-1.5-.9-2.3-2-2.3c-1.1 0-2 .8-2 2.3c0 1.5.9 2.3 2 2.3c1.1 0 2-.8 2-2.3zm1.3 0c0 2-1.4 3.4-3.3 3.4c-1.9 0-3.3-1.4-3.3-3.4c0-2 1.4-3.5 3.3-3.5c1.9 0 3.3 1.5 3.3 3.5zm1.6 3.2l0-6.5l1.3 0c0 0-.05.89 0 .9c.4-.7 1.2-1.1 1.9-1.1c.8 0 1.6.4 2 1.3c.5-1 1.3-1.3 2.1-1.3c1.2 0 2.3.8 2.3 2.5c-.02.01 0 4.2 0 4.2l-1.3 0c0 0 .03-4.06 0-4.1c0-.8-.4-1.4-1.4-1.4c-.8 0-1.4.7-1.4 1.6c-.05-.01 0 3.9 0 3.9l-1.3 0c0 0-.02-4.06 0-4.1c0-.8-.4-1.4-1.4-1.4c-.9 0-1.5.6-1.5 1.6c-.01.01 0 3.9 0 3.9l-1.3 0zm11.6 2.6l0-9.1l1.2 0c0 0 .03 1.04 0 1c.4-.6 1.2-1.1 2.2-1.1c2 0 3 1.5 3 3.4c0 1.9-1.1 3.4-3 3.4c-1 0-1.8-.5-2.1-1.1c-.04.04 0 3.5 0 3.5l-1.3 0zm5.1-5.8c0-1.3-.7-2.3-1.9-2.3c-1.2 0-2 1-2 2.3c0 1.3.8 2.3 2 2.3c1.2 0 1.9-1 1.9-2.3c0 0 0 0 0 0zm2.5 1.5c0-1.2.9-1.8 2-2c0 0 1.7-.2 1.7-.2c.4-.1.5-.3.5-.5c0-.7-.4-1.2-1.4-1.2c-.9 0-1.4.6-1.4 1.3c0 0-1.3-.3-1.3-.3c.2-1.2 1.3-2.1 2.7-2.1c1.9 0 2.7 1.1 2.7 2.4c0 0 0 3.3 0 3.3c0 .5.1.9.1 1c0 0-1.3 0-1.3 0c0-.1 0-.4 0-.9c-.3.5-1 1.1-2.1 1.1c-1.3 0-2.2-.9-2.2-1.9c0 0 0 0 0 0zm4.2-1.1c.03.04 0-.3 0-.3c0 0-1.95.34-2 .3c-.5.1-.9.4-.9 1c0 .5.4 1 1.1 1c1 0 1.8-.5 1.8-2zm4 2.9c.1.9.8 1.6 1.8 1.6c1.4 0 2-.7 2-2.1c0 0 0-1 0-1c-.3.6-1 1.1-2 1.1c-1.7 0-3-1.3-3-3.1c0-1.8 1.2-3.2 3-3.2c1 0 1.7.4 2 1c0 .03 0-.9 0-.9l1.2 0c0 0 .05 6.03 0 6c0 1.7-.8 3.3-3.2 3.3c-1.6 0-2.8-1-3-2.4c0 0 1.2-.3 1.2-.3zm3.8-3.5c0-1.3-.7-2.1-1.8-2.1c-1.1 0-1.9.8-1.9 2.1c0 1.2.7 2 1.9 2c1.1 0 1.8-.8 1.8-2zm4.5 3.4l-1.2 0l0-6.5l1.2 0c0 0 .02.96 0 1c.5-.9 1.3-1.2 2-1.2c1.6 0 2.3 1.2 2.3 2.6c.04 0 0 4.1 0 4.1l-1.2 0c0 0-.03-3.88 0-3.9c0-.9-.4-1.6-1.5-1.6c-1 0-1.6.8-1.6 1.8c.04-.03 0 3.7 0 3.7zm10.7-3.9c0-.9-.6-1.7-1.7-1.7c-1.1 0-1.8.9-1.8 1.7c0 0 3.5 0 3.5 0zm1.3 2.1c-.3 1.1-1.4 2-2.9 2c-1.7 0-3.3-1.2-3.3-3.4c0-2.1 1.5-3.5 3.1-3.5c2 0 3.2 1.4 3.2 3.4c0 .2-.1.4-.1.4c0 0-4.9 0-4.9 0c.1 1.2.9 2 2 2c1.1 0 1.6-.6 1.8-1.3c0 0 1.1.4 1.1.4zm-2.5-5.5l-1.1 0l1.2-2l1.6 0l-1.7 2zm8.6 3.4c-.1-.9-.7-1.7-1.8-1.7c-1.1 0-1.7.9-1.8 1.7c0 0 3.6 0 3.6 0zm1.2 2.1c-.3 1.1-1.4 2-2.9 2c-1.7 0-3.2-1.2-3.2-3.4c0-2.1 1.4-3.5 3.1-3.5c2 0 3.1 1.4 3.1 3.4c0 .2 0 .4-.1.4c0 0-4.8 0-4.8 0c0 1.2.8 2 1.9 2c1.1 0 1.6-.6 1.8-1.3c0 0 1.1.4 1.1.4zm2.2-.3c.1.7.6 1.2 1.5 1.2c.8 0 1.2-.4 1.2-.8c0-.4-.3-.7-.9-.9c0 0-1.1-.2-1.1-.2c-1-.2-1.6-.9-1.6-1.8c0-1.1 1-2.1 2.3-2.1c1.8 0 2.3 1.2 2.5 1.8c0 0-1.1.4-1.1.4c-.1-.4-.4-1.1-1.4-1.1c-.6 0-1.1.4-1.1.9c0 .4.3.6.8.8c0 0 1 .2 1 .2c1.2.2 1.8 1 1.8 1.9c0 .9-.8 2-2.4 2c-1.7 0-2.5-1.1-2.6-1.9c0 0 1.1-.4 1.1-.4z" stroke="none" fill="#144542"/></g><g id="Polygon160262"><path d="m4.5 22c1.1 0 1.8-.6 1.8-1.6c0-1-.7-1.7-1.8-1.7c-.04.04-2 0-2 0l0 3.3c0 0 1.96.02 2 0zm-2 1.2l0 3.9l-1.3 0l0-9.5c0 0 3.5-.05 3.5 0c1.8 0 3 1.2 3 2.8c0 1.6-1.2 2.8-3 2.8c0 .01-2.2 0-2.2 0zm10-1.3c-.1 0-.3 0-.5 0c-1.1 0-1.8.5-1.8 2c0-.03 0 3.2 0 3.2l-1.3 0l0-6.5l1.3 0c0 0-.02 1.16 0 1.2c.5-1 1.3-1.3 1.9-1.3c.2 0 .4 0 .4.1c0 0 0 1.3 0 1.3zm6.1 2c0-1.5-.9-2.3-2-2.3c-1.1 0-2 .8-2 2.3c0 1.5.9 2.3 2 2.3c1.1 0 2-.8 2-2.3zm1.3 0c0 2-1.4 3.4-3.3 3.4c-1.9 0-3.3-1.4-3.3-3.4c0-2 1.4-3.5 3.3-3.5c1.9 0 3.3 1.5 3.3 3.5zm4.9-6.5c0 0 0 1.2 0 1.2c0-.1-.2-.1-.5-.1c-.5 0-1.1.2-1.1 1.1c.05-.01 0 1 0 1l4.3 0l0 6.5l-1.2 0l0-5.3l-3.1 0l0 5.3l-1.3 0l0-5.3l-1.2 0l0-1.2l1.2 0c0 0 .04-1.07 0-1.1c0-1.4 1-2.2 2.2-2.2c.4 0 .7.1.7.1zm1.2.7c0-.5.4-.9.9-.9c.5 0 .9.4.9.9c0 .5-.4.9-.9.9c-.5 0-.9-.4-.9-.9c0 0 0 0 0 0zm3.7 9l0-9.8l1.3 0l0 9.8l-1.3 0zm9.5-.9c1.1 0 1.8-1 1.8-2.4c0-1.3-.7-2.2-1.8-2.2c-1.2 0-1.9.9-1.9 2.3c0 1.3.6 2.3 1.9 2.3zm1.9-.1c-.4.7-1 1.2-2.1 1.2c-1.9 0-3-1.5-3-3.4c0-1.9 1.2-3.4 3-3.4c1.2 0 1.8.5 2 1c.03.05 0-4.2 0-4.2l1.3 0c0 0-.02 8.62 0 8.6c0 .6 0 1.1 0 1.2c0 0-1.2 0-1.2 0c0-.1 0-.5 0-.9c0 0 0-.1 0-.1zm7.7-2.9c0-.9-.6-1.7-1.8-1.7c-1 0-1.7.9-1.7 1.7c0 0 3.5 0 3.5 0zm1.3 2.1c-.4 1.1-1.4 2-2.9 2c-1.8 0-3.3-1.2-3.3-3.4c0-2.1 1.5-3.5 3.1-3.5c2 0 3.1 1.4 3.1 3.4c0 .2 0 .4 0 .4c0 0-4.9 0-4.9 0c.1 1.2.9 2 2 2c1 0 1.6-.6 1.8-1.3c0 0 1.1.4 1.1.4zm2.2-.3c.1.7.6 1.2 1.5 1.2c.7 0 1.1-.4 1.1-.8c0-.4-.3-.7-.8-.9c0 0-1.1-.2-1.1-.2c-1-.2-1.6-.9-1.6-1.8c0-1.1 1-2.1 2.3-2.1c1.7 0 2.3 1.2 2.4 1.8c0 0-1.1.4-1.1.4c0-.4-.3-1.1-1.3-1.1c-.7 0-1.1.4-1.1.9c0 .4.2.6.7.8c0 0 1.1.2 1.1.2c1.2.2 1.8 1 1.8 1.9c0 .9-.8 2-2.4 2c-1.8 0-2.5-1.1-2.6-1.9c0 0 1.1-.4 1.1-.4zm8.9 4.7l0-9.1l1.3 0c0 0-.04 1.04 0 1c.3-.6 1.1-1.1 2.1-1.1c2 0 3 1.5 3 3.4c0 1.9-1.1 3.4-3 3.4c-1 0-1.8-.5-2.1-1.1c-.01.04 0 3.5 0 3.5l-1.3 0zm5.1-5.8c0-1.3-.7-2.3-1.9-2.3c-1.2 0-1.9 1-1.9 2.3c0 1.3.7 2.3 1.9 2.3c1.2 0 1.9-1 1.9-2.3c0 0 0 0 0 0zm7.3-.7c0-.9-.6-1.7-1.8-1.7c-1 0-1.7.9-1.7 1.7c0 0 3.5 0 3.5 0zm1.3 2.1c-.4 1.1-1.4 2-2.9 2c-1.8 0-3.3-1.2-3.3-3.4c0-2.1 1.5-3.5 3.1-3.5c2 0 3.1 1.4 3.1 3.4c0 .2 0 .4 0 .4c0 0-4.9 0-4.9 0c0 1.2.9 2 2 2c1 0 1.6-.6 1.8-1.3c0 0 1.1.4 1.1.4zm5.3-3.4c-.2 0-.4 0-.6 0c-1.1 0-1.8.5-1.8 2c.03-.03 0 3.2 0 3.2l-1.2 0l0-6.5l1.2 0c0 0 0 1.16 0 1.2c.5-1 1.3-1.3 1.9-1.3c.2 0 .4 0 .5.1c0 0 0 1.3 0 1.3zm1.9 3.1c0 .7.5 1.2 1.5 1.2c.7 0 1.1-.4 1.1-.8c0-.4-.3-.7-.9-.9c0 0-1.1-.2-1.1-.2c-1-.2-1.6-.9-1.6-1.8c0-1.1 1-2.1 2.3-2.1c1.8 0 2.4 1.2 2.5 1.8c0 0-1.1.4-1.1.4c-.1-.4-.4-1.1-1.4-1.1c-.6 0-1.1.4-1.1.9c0 .4.3.6.8.8c0 0 1 .2 1 .2c1.2.2 1.8 1 1.8 1.9c0 .9-.7 2-2.3 2c-1.8 0-2.6-1.1-2.7-1.9c0 0 1.2-.4 1.2-.4zm10.3-1.1c0-1.5-1-2.3-2.1-2.3c-1.1 0-2 .8-2 2.3c0 1.5.9 2.3 2 2.3c1.1 0 2.1-.8 2.1-2.3zm1.2 0c0 2-1.3 3.4-3.3 3.4c-1.9 0-3.3-1.4-3.3-3.4c0-2 1.4-3.5 3.3-3.5c2 0 3.3 1.5 3.3 3.5zm2.9 3.2l-1.2 0l0-6.5l1.2 0c0 0 .01.96 0 1c.5-.9 1.3-1.2 2-1.2c1.6 0 2.3 1.2 2.3 2.6c.03 0 0 4.1 0 4.1l-1.2 0c0 0-.04-3.88 0-3.9c0-.9-.4-1.6-1.6-1.6c-1 0-1.5.8-1.5 1.8c.04-.03 0 3.7 0 3.7zm7.6 0l-1.2 0l0-6.5l1.2 0c0 0 0 .96 0 1c.5-.9 1.2-1.2 2-1.2c1.5 0 2.3 1.2 2.3 2.6c.02 0 0 4.1 0 4.1l-1.3 0c0 0 .05-3.88 0-3.9c0-.9-.3-1.6-1.5-1.6c-1 0-1.5.8-1.5 1.8c.02-.03 0 3.7 0 3.7zm10.7-3.9c0-.9-.6-1.7-1.8-1.7c-1 0-1.7.9-1.7 1.7c0 0 3.5 0 3.5 0zm1.3 2.1c-.4 1.1-1.4 2-2.9 2c-1.8 0-3.3-1.2-3.3-3.4c0-2.1 1.5-3.5 3.1-3.5c2 0 3.1 1.4 3.1 3.4c0 .2 0 .4 0 .4c0 0-4.9 0-4.9 0c.1 1.2.9 2 2 2c1 0 1.6-.6 1.8-1.3c0 0 1.1.4 1.1.4zm2.2-.3c.1.7.6 1.2 1.5 1.2c.7 0 1.1-.4 1.1-.8c0-.4-.3-.7-.8-.9c0 0-1.1-.2-1.1-.2c-1-.2-1.6-.9-1.6-1.8c0-1.1 1-2.1 2.3-2.1c1.7 0 2.3 1.2 2.4 1.8c0 0-1.1.4-1.1.4c0-.4-.3-1.1-1.3-1.1c-.7 0-1.1.4-1.1.9c0 .4.2.6.7.8c0 0 1.1.2 1.1.2c1.2.2 1.8 1 1.8 1.9c0 .9-.8 2-2.4 2c-1.8 0-2.5-1.1-2.6-1.9c0 0 1.1-.4 1.1-.4z" stroke="none" fill="#144542"/></g><g id="Polygon160261"><path d="m.9 10.9l0-6.7l4 0l0 .9l-3.1 0l0 2l2.8 0l0 .9l-2.8 0l0 2.1l3.1 0l0 .8l-4 0zm11.3 0l-3.6-5.4l0 5.4l-.9 0l0-6.7l1.2 0l3.4 5.2l0-5.2l.9 0l0 6.7l-1 0zm8.3-3.3c0-2.3 1.7-3.5 3.4-3.5c1.5 0 2.6.8 2.9 2.1c0 0-.8.3-.8.3c-.3-1-1-1.6-2.1-1.6c-1.2 0-2.4.9-2.4 2.7c0 1.7 1.2 2.6 2.4 2.6c1.1 0 1.8-.7 2.1-1.6c0 0 .8.3.8.3c-.3 1.3-1.4 2.2-2.9 2.2c-1.8 0-3.4-1.3-3.4-3.5zm13.3 3.3l0-3l-3.5 0l0 3l-.9 0l0-6.7l.9 0l0 2.9l3.5 0l0-2.9l.9 0l0 6.7l-.9 0zm3.9 0l0-6.7l1 0l0 6.7l-1 0zm4 0l0-6.7l4.1 0l0 .9l-3.1 0l0 2.1l2.8 0l0 .9l-2.8 0l0 2.8l-1 0zm6.6 0l0-6.7l4.1 0l0 .9l-3.2 0l0 2.1l2.9 0l0 .9l-2.9 0l0 2.8l-.9 0zm8.5-2.7l-1 0l0 2.7l-1 0l0-6.7c0 0 2.57.02 2.6 0c1.2 0 2 .9 2 2c0 1-.6 1.7-1.6 1.9c-.01.01 1.6 2.8 1.6 2.8l-1.1 0l-1.5-2.7zm.4-.9c.8 0 1.3-.4 1.3-1.1c0-.7-.5-1.1-1.3-1.1c0-.04-1.4 0-1.4 0l0 2.2c0 0 1.4.05 1.4 0zm4.8 3.6l0-6.7l4.1 0l0 .9l-3.1 0l0 2l2.8 0l0 .9l-2.8 0l0 2.1l3.1 0l0 .8l-4.1 0zm10.3-4.9c0-.4-.4-1.1-1.4-1.1c-.7 0-1.3.5-1.3 1.1c0 .5.3.9.9 1c0 0 1 .2 1 .2c1.1.2 1.7.9 1.7 1.9c0 1-.9 2-2.3 2c-1.6 0-2.4-1.1-2.5-2c0 0 .9-.3.9-.3c.1.7.6 1.4 1.6 1.4c.9 0 1.4-.5 1.4-1c0-.5-.4-.9-1-1.1c0 0-1-.2-1-.2c-.9-.2-1.6-.8-1.6-1.8c0-1.1 1-2 2.2-2c1.5 0 2.1.9 2.3 1.6c0 0-.9.3-.9.3z" stroke="none" fill="#144542"/></g></svg>