<?xml version="1.0" standalone="no"?><!DOCTYPE svg PUBLIC "-//W3C//DTD SVG 1.1//EN" "http://www.w3.org/Graphics/SVG/1.1/DTD/svg11.dtd"><svg xmlns="http://www.w3.org/2000/svg" version="1.1" width="28.1px" height="20.6px" viewBox="0 -3 28.1 20.6" style="top:-3px"><desc>15 %</desc><defs/><g id="Polygon166065"><path d="m2.5 10.9l0-6.1l-2.2 0c0 0 .04-.98 0-1c1.3 0 2.1-.7 2.3-1.6c-.01-.03 1.2 0 1.2 0l0 8.7l-1.3 0zm4-2.7c.1 1 .9 1.8 2 1.8c1 0 1.9-.7 1.9-1.8c0-1.2-.9-1.8-1.9-1.8c-.7 0-1.2.2-1.6.6c-.5-.1-.9-.3-1.3-.5c-.02.02 1.1-4.3 1.1-4.3l4.6 0l0 1.2l-3.7 0c0 0-.66 2.5-.7 2.5c.4-.4 1.1-.6 1.8-.6c1.7 0 3 1 3 2.9c0 1.6-1.3 2.9-3.2 2.9c-1.9 0-3.1-1.2-3.3-2.6c0 0 1.3-.3 1.3-.3zm9.7-2.9c.6 0 1.1-.5 1.1-1.1c0-.6-.5-1.1-1.1-1.1c-.6 0-1 .5-1 1.1c0 .6.4 1.1 1 1.1zm0-3.2c1.2 0 2.2.9 2.2 2.1c0 1.2-1 2.1-2.2 2.1c-1.1 0-2.1-.9-2.1-2.1c0-1.2 1-2.1 2.1-2.1zm5.4 7.9c.6 0 1-.5 1-1.1c0-.6-.4-1.1-1-1.1c-.6 0-1.1.5-1.1 1.1c0 .6.5 1.1 1.1 1.1zm0-3.2c1.1 0 2.1.9 2.1 2.1c0 1.2-1 2.1-2.1 2.1c-1.2 0-2.2-.9-2.2-2.1c0-1.2 1-2.1 2.2-2.1zm-6.5 4.1l6.3-8.7l1.2 0l-6.2 8.7l-1.3 0z" stroke="none" fill="#396360"/></g></svg>