<?xml version="1.0" standalone="no"?><!DOCTYPE svg PUBLIC "-//W3C//DTD SVG 1.1//EN" "http://www.w3.org/Graphics/SVG/1.1/DTD/svg11.dtd"><svg xmlns="http://www.w3.org/2000/svg" version="1.1" width="147px" height="87.3px" viewBox="0 -3 147 87.3" style="top:-3px"><desc>Action Identifier, coacher et pr senter des candidats des entreprises recruteuses</desc><defs/><g id="Polygon185125"><path d="m4.2 61.1c-.2 0-.4-.1-.5-.1c-1 0-1.6.5-1.6 1.8c-.01.02 0 2.9 0 2.9l-1.1 0l0-5.8l1.1 0c0 0-.04 1.04 0 1c.4-.8 1.1-1.1 1.7-1.1c.1 0 .3.1.4.1c0 0 0 1.2 0 1.2zm5 1.1c0-.8-.6-1.4-1.6-1.4c-.9 0-1.5.7-1.6 1.4c0 0 3.2 0 3.2 0zm1.1 1.9c-.3 1-1.2 1.8-2.6 1.8c-1.5 0-2.9-1.1-2.9-3.1c0-1.8 1.3-3 2.8-3c1.8 0 2.8 1.2 2.8 3c0 .1 0 .3-.1.3c0 0-4.3 0-4.3 0c0 1.1.8 1.8 1.7 1.8c1 0 1.4-.5 1.7-1.2c0 0 .9.4.9.4zm2.2-1.3c0 1.3.8 2 1.7 2c1.1 0 1.5-.7 1.7-1.1c0 0 .9.4.9.4c-.2.8-1.1 1.8-2.6 1.8c-1.6 0-2.9-1.3-2.9-3.1c0-1.8 1.3-3 2.9-3c1.6 0 2.4.9 2.6 1.8c0 0-1 .4-1 .4c-.2-.5-.6-1.2-1.6-1.2c-.9 0-1.7.7-1.7 2zm8.9-1.7c-.2 0-.4-.1-.5-.1c-1 0-1.6.5-1.6 1.8c0 .02 0 2.9 0 2.9l-1.1 0l0-5.8l1.1 0c0 0-.03 1.04 0 1c.4-.8 1.1-1.1 1.7-1.1c.2 0 .3.1.4.1c0 0 0 1.2 0 1.2zm5 3.9c-.3.6-1 .9-1.7.9c-1.3 0-2.1-1-2.1-2.3c-.03-.03 0-3.7 0-3.7l1.1 0c0 0 0 3.5 0 3.5c0 .8.4 1.5 1.3 1.5c.9 0 1.4-.6 1.4-1.5c-.02.02 0-3.5 0-3.5l1.1 0c0 0 0 4.74 0 4.7c0 .5 0 .9.1 1.1c0 0-1.1 0-1.1 0c0-.1-.1-.4-.1-.7c0 0 0 0 0 0zm4.5-5.1l1.3 0l0 1.1l-1.3 0c0 0 .03 2.96 0 3c0 .5.3.7.8.7c.2 0 .4 0 .5 0c0 0 0 1 0 1c-.1 0-.4.1-.8.1c-1 0-1.6-.6-1.6-1.7c.01.02 0-3.1 0-3.1l-1.1 0l0-1.1c0 0 .32.04.3 0c.6 0 .9-.3.9-.9c0 .05 0-.9 0-.9l1 0l0 1.8zm6.6 2.3c0-.8-.6-1.4-1.6-1.4c-.9 0-1.5.7-1.5 1.4c0 0 3.1 0 3.1 0zm1.2 1.9c-.4 1-1.3 1.8-2.6 1.8c-1.6 0-2.9-1.1-2.9-3.1c0-1.8 1.3-3 2.7-3c1.8 0 2.8 1.2 2.8 3c0 .1 0 .3 0 .3c0 0-4.4 0-4.4 0c0 1.1.8 1.8 1.8 1.8c.9 0 1.4-.5 1.6-1.2c0 0 1 .4 1 .4zm5.1.9c-.4.6-1.1.9-1.8.9c-1.3 0-2.1-1-2.1-2.3c-.01-.03 0-3.7 0-3.7l1.1 0c0 0 .01 3.5 0 3.5c0 .8.4 1.5 1.3 1.5c.9 0 1.4-.6 1.4-1.5c-.01.02 0-3.5 0-3.5l1.1 0c0 0 .02 4.74 0 4.7c0 .5.1.9.1 1.1c0 0-1.1 0-1.1 0c0-.1 0-.4 0-.7c0 0 0 0 0 0zm3.4-1.2c.1.6.5 1.1 1.4 1.1c.6 0 .9-.3.9-.7c0-.4-.2-.7-.7-.8c0 0-1-.2-1-.2c-.9-.2-1.4-.8-1.4-1.6c0-1 .9-1.8 2-1.8c1.6 0 2.1 1 2.2 1.5c0 0-1 .4-1 .4c0-.3-.3-1-1.2-1c-.5 0-.9.4-.9.8c0 .3.2.6.6.7c0 0 1 .2 1 .2c1 .2 1.6.8 1.6 1.7c0 .8-.7 1.8-2.1 1.8c-1.6 0-2.3-1-2.4-1.7c0 0 1-.4 1-.4zm8.8-1.6c0-.8-.6-1.4-1.6-1.4c-.9 0-1.5.7-1.6 1.4c0 0 3.2 0 3.2 0zm1.1 1.9c-.3 1-1.2 1.8-2.6 1.8c-1.5 0-2.9-1.1-2.9-3.1c0-1.8 1.3-3 2.8-3c1.8 0 2.8 1.2 2.8 3c0 .1 0 .3-.1.3c0 0-4.3 0-4.3 0c0 1.1.8 1.8 1.7 1.8c1 0 1.4-.5 1.7-1.2c0 0 .9.4.9.4zm2-.3c.1.6.5 1.1 1.3 1.1c.7 0 1-.3 1-.7c0-.4-.2-.7-.7-.8c0 0-1-.2-1-.2c-.9-.2-1.5-.8-1.5-1.6c0-1 1-1.8 2.1-1.8c1.6 0 2.1 1 2.2 1.5c0 0-1 .4-1 .4c0-.3-.3-1-1.2-1c-.6 0-1 .4-1 .8c0 .3.3.6.7.7c0 0 .9.2.9.2c1.1.2 1.6.8 1.6 1.7c0 .8-.7 1.8-2.1 1.8c-1.6 0-2.2-1-2.3-1.7c0 0 1-.4 1-.4z" stroke="none" fill="#144542"/></g><g id="Polygon185124"><path d="m.6 50.2c0-1.1.8-1.6 1.8-1.8c0 0 1.5-.2 1.5-.2c.4-.1.5-.2.5-.5c0-.5-.4-1-1.3-1c-.8 0-1.2.5-1.3 1.2c0 0-1.1-.3-1.1-.3c.1-1.1 1.1-1.8 2.4-1.8c1.7 0 2.4.9 2.4 2.1c0 0 0 2.9 0 2.9c0 .5 0 .8.1.9c0 0-1.1 0-1.1 0c-.1-.1-.1-.3-.1-.8c-.3.4-.8 1-1.9 1c-1.1 0-1.9-.8-1.9-1.7c0 0 0 0 0 0zm3.8-1c-.04.04 0-.2 0-.2c0 0-1.81.24-1.8.2c-.5.1-.8.4-.8.9c0 .4.3.8.9.8c.9 0 1.7-.4 1.7-1.7zm-3.1-5.8l1.4 0l1.1 1.8l-1 0l-1.5-1.8zm11.3 7.5c1 0 1.7-.9 1.7-2.1c0-1.2-.7-2-1.7-2c-1 0-1.7.8-1.7 2c0 1.2.6 2.1 1.7 2.1zm1.7-.1c-.3.6-.9 1.1-1.8 1.1c-1.7 0-2.7-1.4-2.7-3.1c0-1.6 1.1-3 2.7-3c1 0 1.6.5 1.8 1c-.04-.05 0-3.8 0-3.8l1.1 0c0 0-.03 7.64 0 7.6c0 .6 0 1 0 1.1c0 0-1.1 0-1.1 0c0-.1 0-.4 0-.8c0 0 0-.1 0-.1zm6.9-2.6c0-.8-.6-1.4-1.6-1.4c-1 0-1.5.7-1.6 1.4c0 0 3.2 0 3.2 0zm1.1 1.9c-.3 1-1.2 1.8-2.6 1.8c-1.5 0-2.9-1.1-2.9-3.1c0-1.8 1.3-3 2.8-3c1.8 0 2.8 1.2 2.8 3c0 .1-.1.3-.1.3c0 0-4.3 0-4.3 0c0 1.1.8 1.8 1.7 1.8c1 0 1.4-.5 1.6-1.2c0 0 1 .4 1 .4zm2-.3c0 .6.5 1.1 1.3 1.1c.7 0 1-.3 1-.7c0-.4-.3-.7-.7-.8c0 0-1-.2-1-.2c-.9-.2-1.5-.8-1.5-1.6c0-1 1-1.8 2.1-1.8c1.6 0 2.1 1 2.2 1.5c0 0-1 .4-1 .4c-.1-.3-.3-1-1.2-1c-.6 0-1 .4-1 .8c0 .3.2.6.7.7c0 0 .9.2.9.2c1.1.2 1.6.8 1.6 1.7c0 .8-.7 1.8-2.1 1.8c-1.6 0-2.2-1-2.3-1.7c0 0 1-.4 1-.4zm11.8-1.6c0-.8-.6-1.4-1.6-1.4c-.9 0-1.5.7-1.5 1.4c0 0 3.1 0 3.1 0zm1.1 1.9c-.3 1-1.2 1.8-2.5 1.8c-1.6 0-2.9-1.1-2.9-3.1c0-1.8 1.3-3 2.7-3c1.8 0 2.8 1.2 2.8 3c0 .1 0 .3 0 .3c0 0-4.4 0-4.4 0c0 1.1.8 1.8 1.8 1.8c.9 0 1.4-.5 1.6-1.2c0 0 .9.4.9.4zm2.7 1.6l-1.2 0l0-5.8l1.1 0c0 0 .03.86 0 .9c.4-.8 1.1-1 1.8-1c1.4 0 2.1 1 2.1 2.2c-.03.05 0 3.7 0 3.7l-1.2 0c0 0 .04-3.46 0-3.5c0-.8-.3-1.4-1.3-1.4c-.9 0-1.3.7-1.3 1.6c-.05-.03 0 3.3 0 3.3zm7.1-5.8l1.2 0l0 1.1l-1.2 0c0 0-.02 2.96 0 3c0 .5.2.7.8.7c.1 0 .3 0 .4 0c0 0 0 1 0 1c-.1 0-.4.1-.7.1c-1 0-1.6-.6-1.6-1.7c-.05.02 0-3.1 0-3.1l-1.2 0l0-1.1c0 0 .36.04.4 0c.6 0 .8-.3.8-.9c.05.05 0-.9 0-.9l1.1 0l0 1.8zm5.8 1.2c-.2 0-.3-.1-.5-.1c-.9 0-1.6.5-1.6 1.8c.03.02 0 2.9 0 2.9l-1.1 0l0-5.8l1.1 0c0 0 .01 1.04 0 1c.4-.8 1.2-1.1 1.7-1.1c.2 0 .4.1.4.1c0 0 0 1.2 0 1.2zm5 1.1c0-.8-.5-1.4-1.5-1.4c-1 0-1.6.7-1.6 1.4c0 0 3.1 0 3.1 0zm1.2 1.9c-.3 1-1.3 1.8-2.6 1.8c-1.6 0-2.9-1.1-2.9-3.1c0-1.8 1.3-3 2.7-3c1.8 0 2.8 1.2 2.8 3c0 .1 0 .3 0 .3c0 0-4.4 0-4.4 0c.1 1.1.8 1.8 1.8 1.8c.9 0 1.4-.5 1.6-1.2c0 0 1 .4 1 .4zm1.5 3.9l0-8.1l1 0c0 0 .05.94 0 .9c.4-.5 1-1 2-1c1.7 0 2.6 1.3 2.6 3c0 1.7-1 3.1-2.7 3.1c-.8 0-1.5-.5-1.8-1c-.03.03 0 3.1 0 3.1l-1.1 0zm4.5-5.2c0-1.1-.7-2-1.7-2c-1.1 0-1.7.9-1.7 2c0 1.2.6 2.1 1.7 2.1c1 0 1.7-.9 1.7-2.1c0 0 0 0 0 0zm5.8-1.7c-.2 0-.4-.1-.5-.1c-1 0-1.6.5-1.6 1.8c0 .02 0 2.9 0 2.9l-1.1 0l0-5.8l1.1 0c0 0-.03 1.04 0 1c.4-.8 1.1-1.1 1.7-1.1c.2 0 .3.1.4.1c0 0 0 1.2 0 1.2zm1.2 4.6l0-5.8l1.1 0l0 5.8l-1.1 0zm.5-8.8c.5 0 .8.4.8.9c0 .4-.3.8-.8.8c-.4 0-.8-.4-.8-.8c0-.5.4-.9.8-.9zm3 6.9c.1.6.5 1.1 1.3 1.1c.7 0 1-.3 1-.7c0-.4-.2-.7-.7-.8c0 0-1-.2-1-.2c-.9-.2-1.4-.8-1.4-1.6c0-1 .9-1.8 2-1.8c1.6 0 2.1 1 2.2 1.5c0 0-1 .4-1 .4c0-.3-.3-1-1.2-1c-.6 0-1 .4-1 .8c0 .3.3.6.7.7c0 0 .9.2.9.2c1.1.2 1.6.8 1.6 1.7c0 .8-.6 1.8-2.1 1.8c-1.6 0-2.2-1-2.3-1.7c0 0 1-.4 1-.4zm8.8-1.6c-.1-.8-.6-1.4-1.6-1.4c-1 0-1.5.7-1.6 1.4c0 0 3.2 0 3.2 0zm1.1 1.9c-.3 1-1.2 1.8-2.6 1.8c-1.5 0-2.9-1.1-2.9-3.1c0-1.8 1.3-3 2.8-3c1.7 0 2.7 1.2 2.7 3c0 .1 0 .3 0 .3c0 0-4.3 0-4.3 0c0 1.1.7 1.8 1.7 1.8c.9 0 1.4-.5 1.6-1.2c0 0 1 .4 1 .4zm2-.3c0 .6.5 1.1 1.3 1.1c.6 0 1-.3 1-.7c0-.4-.3-.7-.8-.8c0 0-.9-.2-.9-.2c-.9-.2-1.5-.8-1.5-1.6c0-1 .9-1.8 2.1-1.8c1.6 0 2 1 2.2 1.5c0 0-1 .4-1 .4c-.1-.3-.3-1-1.2-1c-.6 0-1 .4-1 .8c0 .3.2.6.7.7c0 0 .9.2.9.2c1.1.2 1.6.8 1.6 1.7c0 .8-.7 1.8-2.1 1.8c-1.6 0-2.3-1-2.4-1.7c0 0 1.1-.4 1.1-.4z" stroke="none" fill="#144542"/></g><g id="Polygon185123"><path d="m1 40l0-8.1l1.1 0c0 0-.05.94 0 .9c.3-.5.9-1 1.9-1c1.7 0 2.6 1.3 2.6 3c0 1.7-1 3.1-2.7 3.1c-.8 0-1.5-.5-1.8-1c-.02.03 0 3.1 0 3.1l-1.1 0zm4.5-5.2c0-1.1-.7-2-1.7-2c-1.1 0-1.7.9-1.7 2c0 1.2.6 2.1 1.7 2.1c1 0 1.7-.9 1.7-2.1c0 0 0 0 0 0zm5.8-1.7c-.2 0-.4-.1-.5-.1c-1 0-1.6.5-1.6 1.8c0 .02 0 2.9 0 2.9l-1.1 0l0-5.8l1.1 0c0 0-.02 1.04 0 1c.4-.8 1.1-1.1 1.7-1.1c.2 0 .3.1.4.1c0 0 0 1.2 0 1.2zm5 1.1c0-.8-.6-1.4-1.6-1.4c-.9 0-1.5.7-1.5 1.4c0 0 3.1 0 3.1 0zm1.1 1.9c-.3 1-1.2 1.8-2.5 1.8c-1.6 0-2.9-1.1-2.9-3.1c0-1.8 1.3-3 2.7-3c1.8 0 2.8 1.2 2.8 3c0 .1 0 .3 0 .3c0 0-4.4 0-4.4 0c0 1.1.8 1.8 1.8 1.8c.9 0 1.4-.5 1.6-1.2c0 0 .9.4.9.4zm-2.2-4.9l-1 0l1.1-1.8l1.4 0l-1.5 1.8zm4.2 4.6c.1.6.5 1.1 1.3 1.1c.7 0 1-.3 1-.7c0-.4-.2-.7-.7-.8c0 0-1-.2-1-.2c-.9-.2-1.4-.8-1.4-1.6c0-1 .9-1.8 2-1.8c1.6 0 2.1 1 2.2 1.5c0 0-1 .4-1 .4c0-.3-.3-1-1.2-1c-.6 0-.9.4-.9.8c0 .3.2.6.6.7c0 0 1 .2 1 .2c1 .2 1.5.8 1.5 1.7c0 .8-.6 1.8-2.1 1.8c-1.5 0-2.2-1-2.3-1.7c0 0 1-.4 1-.4zm8.8-1.6c0-.8-.6-1.4-1.6-1.4c-1 0-1.5.7-1.6 1.4c0 0 3.2 0 3.2 0zm1.1 1.9c-.3 1-1.2 1.8-2.6 1.8c-1.5 0-2.9-1.1-2.9-3.1c0-1.8 1.3-3 2.8-3c1.8 0 2.8 1.2 2.8 3c0 .1-.1.3-.1.3c0 0-4.3 0-4.3 0c0 1.1.8 1.8 1.7 1.8c1 0 1.4-.5 1.6-1.2c0 0 1 .4 1 .4zm2.6 1.6l-1.1 0l0-5.8l1.1 0c0 0 0 .86 0 .9c.4-.8 1.1-1 1.8-1c1.4 0 2 1 2 2.2c.03.05 0 3.7 0 3.7l-1.1 0c0 0 .01-3.46 0-3.5c0-.8-.3-1.4-1.3-1.4c-.9 0-1.4.7-1.4 1.6c.02-.03 0 3.3 0 3.3zm7.1-5.8l1.3 0l0 1.1l-1.3 0c0 0 .05 2.96 0 3c0 .5.3.7.9.7c.1 0 .3 0 .4 0c0 0 0 1 0 1c-.1 0-.4.1-.8.1c-1 0-1.6-.6-1.6-1.7c.02.02 0-3.1 0-3.1l-1.1 0l0-1.1c0 0 .33.04.3 0c.7 0 .9-.3.9-.9c.02.05 0-.9 0-.9l1 0l0 1.8zm6.6 2.3c0-.8-.5-1.4-1.6-1.4c-.9 0-1.5.7-1.5 1.4c0 0 3.1 0 3.1 0zm1.2 1.9c-.4 1-1.3 1.8-2.6 1.8c-1.6 0-2.9-1.1-2.9-3.1c0-1.8 1.3-3 2.7-3c1.8 0 2.8 1.2 2.8 3c0 .1 0 .3 0 .3c0 0-4.4 0-4.4 0c.1 1.1.8 1.8 1.8 1.8c.9 0 1.4-.5 1.6-1.2c0 0 1 .4 1 .4zm4.6-3c-.1 0-.3-.1-.4-.1c-1 0-1.6.5-1.6 1.8c-.03.02 0 2.9 0 2.9l-1.2 0l0-5.8l1.1 0c0 0 .04 1.04 0 1c.5-.8 1.2-1.1 1.8-1.1c.1 0 .3.1.3.1c0 0 0 1.2 0 1.2zm6.6 3.8c1 0 1.7-.9 1.7-2.1c0-1.2-.6-2-1.7-2c-1 0-1.7.8-1.7 2c0 1.2.6 2.1 1.7 2.1zm1.7-.1c-.3.6-.9 1.1-1.8 1.1c-1.7 0-2.7-1.4-2.7-3.1c0-1.6 1.1-3 2.7-3c1 0 1.6.5 1.8 1c-.04-.05 0-3.8 0-3.8l1.1 0c0 0-.02 7.64 0 7.6c0 .6 0 1 0 1.1c0 0-1.1 0-1.1 0c0-.1 0-.4 0-.8c0 0 0-.1 0-.1zm6.9-2.6c0-.8-.6-1.4-1.6-1.4c-.9 0-1.5.7-1.6 1.4c0 0 3.2 0 3.2 0zm1.1 1.9c-.3 1-1.2 1.8-2.6 1.8c-1.5 0-2.9-1.1-2.9-3.1c0-1.8 1.3-3 2.8-3c1.8 0 2.8 1.2 2.8 3c0 .1 0 .3-.1.3c0 0-4.3 0-4.3 0c0 1.1.8 1.8 1.7 1.8c1 0 1.4-.5 1.7-1.2c0 0 .9.4.9.4zm2-.3c.1.6.5 1.1 1.3 1.1c.7 0 1-.3 1-.7c0-.4-.3-.7-.7-.8c0 0-1-.2-1-.2c-.9-.2-1.5-.8-1.5-1.6c0-1 1-1.8 2.1-1.8c1.6 0 2.1 1 2.2 1.5c0 0-1 .4-1 .4c-.1-.3-.3-1-1.2-1c-.6 0-1 .4-1 .8c0 .3.3.6.7.7c0 0 .9.2.9.2c1.1.2 1.6.8 1.6 1.7c0 .8-.7 1.8-2.1 1.8c-1.6 0-2.2-1-2.3-1.7c0 0 1-.4 1-.4zm8.6-1c0 1.3.8 2 1.8 2c1 0 1.4-.7 1.6-1.1c0 0 1 .4 1 .4c-.3.8-1.1 1.8-2.6 1.8c-1.7 0-3-1.3-3-3.1c0-1.8 1.3-3 3-3c1.5 0 2.3.9 2.5 1.8c0 0-1 .4-1 .4c-.1-.5-.6-1.2-1.5-1.2c-1 0-1.8.7-1.8 2zm5.3 1.4c0-1.1.7-1.6 1.7-1.8c0 0 1.6-.2 1.6-.2c.3-.1.4-.2.4-.5c0-.5-.3-1-1.2-1c-.8 0-1.3.5-1.3 1.2c0 0-1.1-.3-1.1-.3c.1-1.1 1.1-1.8 2.4-1.8c1.7 0 2.4.9 2.4 2.1c0 0 0 2.9 0 2.9c0 .5 0 .8 0 .9c0 0-1.1 0-1.1 0c0-.1 0-.3 0-.8c-.3.4-.9 1-1.9 1c-1.2 0-1.9-.8-1.9-1.7c0 0 0 0 0 0zm3.7-1c.02.04 0-.2 0-.2c0 0-1.74.24-1.7.2c-.5.1-.9.4-.9.9c0 .4.4.8 1 .8c.9 0 1.6-.4 1.6-1.7zm4 2.5l-1.1 0l0-5.8l1.1 0c0 0 .01.86 0 .9c.4-.8 1.1-1 1.8-1c1.4 0 2 1 2 2.2c.05.05 0 3.7 0 3.7l-1.1 0c0 0 .02-3.46 0-3.5c0-.8-.3-1.4-1.3-1.4c-.9 0-1.4.7-1.4 1.6c.03-.03 0 3.3 0 3.3zm8-.8c1 0 1.7-.9 1.7-2.1c0-1.2-.6-2-1.7-2c-1 0-1.7.8-1.7 2c0 1.2.6 2.1 1.7 2.1zm1.7-.1c-.3.6-.9 1.1-1.8 1.1c-1.7 0-2.7-1.4-2.7-3.1c0-1.6 1.1-3 2.7-3c1 0 1.6.5 1.8 1c-.03-.05 0-3.8 0-3.8l1.1 0c0 0-.02 7.64 0 7.6c0 .6 0 1 0 1.1c0 0-1 0-1 0c-.1-.1-.1-.4-.1-.8c0 0 0-.1 0-.1zm3 .9l0-5.8l1.1 0l0 5.8l-1.1 0zm.6-8.8c.4 0 .8.4.8.9c0 .4-.4.8-.8.8c-.5 0-.8-.4-.8-.8c0-.5.3-.9.8-.9zm4.8 8c1 0 1.7-.9 1.7-2.1c0-1.2-.7-2-1.7-2c-1 0-1.7.8-1.7 2c0 1.2.6 2.1 1.7 2.1zm1.7-.1c-.3.6-.9 1.1-1.8 1.1c-1.7 0-2.7-1.4-2.7-3.1c0-1.6 1.1-3 2.7-3c1 0 1.6.5 1.8 1c-.04-.05 0-3.8 0-3.8l1.1 0c0 0-.03 7.64 0 7.6c0 .6 0 1 0 1.1c0 0-1.1 0-1.1 0c0-.1 0-.4 0-.8c0 0 0-.1 0-.1zm2.6-.6c0-1.1.8-1.6 1.8-1.8c0 0 1.5-.2 1.5-.2c.4-.1.5-.2.5-.5c0-.5-.4-1-1.3-1c-.7 0-1.2.5-1.3 1.2c0 0-1-.3-1-.3c.1-1.1 1.1-1.8 2.3-1.8c1.7 0 2.4.9 2.4 2.1c0 0 0 2.9 0 2.9c0 .5.1.8.1.9c0 0-1.1 0-1.1 0c0-.1-.1-.3-.1-.8c-.2.4-.8 1-1.8 1c-1.2 0-2-.8-2-1.7c0 0 0 0 0 0zm3.8-1c-.01.04 0-.2 0-.2c0 0-1.77.24-1.8.2c-.5.1-.8.4-.8.9c0 .4.3.8.9.8c.9 0 1.7-.4 1.7-1.7zm4.4-3.3l1.2 0l0 1.1l-1.2 0c0 0-.02 2.96 0 3c0 .5.2.7.8.7c.1 0 .3 0 .4 0c0 0 0 1 0 1c-.1 0-.4.1-.7.1c-1 0-1.6-.6-1.6-1.7c-.04.02 0-3.1 0-3.1l-1.1 0l0-1.1c0 0 .26.04.3 0c.6 0 .9-.3.9-.9c-.05.05 0-.9 0-.9l1 0l0 1.8zm3.3 3.9c0 .6.5 1.1 1.3 1.1c.7 0 1-.3 1-.7c0-.4-.3-.7-.7-.8c0 0-1-.2-1-.2c-.9-.2-1.5-.8-1.5-1.6c0-1 1-1.8 2.1-1.8c1.6 0 2.1 1 2.2 1.5c0 0-1 .4-1 .4c-.1-.3-.3-1-1.2-1c-.6 0-1 .4-1 .8c0 .3.2.6.7.7c0 0 .9.2.9.2c1.1.2 1.6.8 1.6 1.7c0 .8-.7 1.8-2.1 1.8c-1.6 0-2.3-1-2.3-1.7c0 0 1-.4 1-.4z" stroke="none" fill="#144542"/></g><g id="Polygon185122"><path d="m1.1 23.7l0-8.5l1.2 0l0 8.5l-1.2 0zm5.6-.8c1 0 1.7-.9 1.7-2.1c0-1.2-.7-2-1.7-2c-1 0-1.7.8-1.7 2c0 1.2.6 2.1 1.7 2.1zm1.7-.1c-.3.6-.9 1.1-1.8 1.1c-1.7 0-2.8-1.4-2.8-3.1c0-1.6 1.1-3 2.8-3c1 0 1.5.5 1.7 1c.04-.05 0-3.8 0-3.8l1.2 0c0 0-.04 7.64 0 7.6c0 .6 0 1 0 1.1c0 0-1.1 0-1.1 0c0-.1 0-.4 0-.8c0 0 0-.1 0-.1zm6.9-2.6c-.1-.8-.6-1.4-1.6-1.4c-1 0-1.5.7-1.6 1.4c0 0 3.2 0 3.2 0zm1.1 1.9c-.3 1-1.2 1.8-2.6 1.8c-1.5 0-2.9-1.1-2.9-3.1c0-1.8 1.3-3 2.8-3c1.7 0 2.7 1.2 2.7 3c0 .1 0 .3 0 .3c0 0-4.3 0-4.3 0c0 1.1.7 1.8 1.7 1.8c.9 0 1.4-.5 1.6-1.2c0 0 1 .4 1 .4zm2.6 1.6l-1.1 0l0-5.8l1.1 0c0 0-.02.86 0 .9c.4-.8 1.1-1 1.8-1c1.3 0 2 1 2 2.2c.02.05 0 3.7 0 3.7l-1.1 0c0 0 0-3.46 0-3.5c0-.8-.3-1.4-1.3-1.4c-.9 0-1.4.7-1.4 1.6c.01-.03 0 3.3 0 3.3zm7.1-5.8l1.3 0l0 1.1l-1.3 0c0 0 .04 2.96 0 3c0 .5.3.7.8.7c.2 0 .4 0 .5 0c0 0 0 1 0 1c-.1 0-.4.1-.8.1c-1 0-1.6-.6-1.6-1.7c.01.02 0-3.1 0-3.1l-1.1 0l0-1.1c0 0 .32.04.3 0c.6 0 .9-.3.9-.9c0 .05 0-.9 0-.9l1 0l0 1.8zm2.8 5.8l0-5.8l1.1 0l0 5.8l-1.1 0zm.5-8.8c.5 0 .9.4.9.9c0 .4-.4.8-.9.8c-.4 0-.8-.4-.8-.8c0-.5.4-.9.8-.9zm5.4.2c0 0 0 1 0 1c0 0-.2-.1-.5-.1c-.4 0-.9.2-.9 1c.03.01 0 .9 0 .9l3.8 0l0 5.8l-1.1 0l0-4.7l-2.7 0l0 4.7l-1.1 0l0-4.7l-1.1 0l0-1.1l1.1 0c0 0-.03-.94 0-.9c0-1.3.8-2 1.9-2c.3 0 .6.1.6.1zm1.1.6c0-.4.3-.8.8-.8c.4 0 .8.4.8.8c0 .5-.4.8-.8.8c-.5 0-.8-.3-.8-.8c0 0 0 0 0 0zm7.2 4.5c-.1-.8-.6-1.4-1.6-1.4c-1 0-1.6.7-1.6 1.4c0 0 3.2 0 3.2 0zm1.1 1.9c-.3 1-1.3 1.8-2.6 1.8c-1.5 0-2.9-1.1-2.9-3.1c0-1.8 1.3-3 2.8-3c1.7 0 2.7 1.2 2.7 3c0 .1 0 .3 0 .3c0 0-4.3 0-4.3 0c0 1.1.7 1.8 1.7 1.8c.9 0 1.4-.5 1.6-1.2c0 0 1 .4 1 .4zm4.7-3c-.2 0-.4-.1-.5-.1c-1 0-1.6.5-1.6 1.8c0 .02 0 2.9 0 2.9l-1.1 0l0-5.8l1.1 0c0 0-.03 1.04 0 1c.4-.8 1.1-1.1 1.7-1.1c.2 0 .3.1.4.1c0 0 0 1.2 0 1.2zm.9 3c.5 0 .9.4.9 1.2c0 1.6-1 2.2-1.8 2.3c0 0 0-.6 0-.6c.6-.1 1-.7 1-1.3c0 0-.1.1-.2.1c-.5 0-.8-.3-.8-.9c0-.4.3-.8.9-.8zm6.4-1.3c0 1.3.8 2 1.8 2c1 0 1.4-.7 1.6-1.1c0 0 1 .4 1 .4c-.3.8-1.1 1.8-2.6 1.8c-1.7 0-3-1.3-3-3.1c0-1.8 1.3-3 2.9-3c1.6 0 2.4.9 2.6 1.8c0 0-1 .4-1 .4c-.1-.5-.6-1.2-1.6-1.2c-.9 0-1.7.7-1.7 2zm9.9 0c0-1.3-.8-2-1.8-2c-1 0-1.8.7-1.8 2c0 1.4.8 2.1 1.8 2.1c1 0 1.8-.7 1.8-2.1zm1.1 0c0 1.8-1.2 3.1-2.9 3.1c-1.7 0-3-1.3-3-3.1c0-1.7 1.3-3 3-3c1.7 0 2.9 1.3 2.9 3zm1.1 1.4c0-1.1.8-1.6 1.8-1.8c0 0 1.5-.2 1.5-.2c.4-.1.5-.2.5-.5c0-.5-.4-1-1.3-1c-.8 0-1.2.5-1.3 1.2c0 0-1.1-.3-1.1-.3c.2-1.1 1.2-1.8 2.4-1.8c1.7 0 2.4.9 2.4 2.1c0 0 0 2.9 0 2.9c0 .5.1.8.1.9c0 0-1.1 0-1.1 0c0-.1-.1-.3-.1-.8c-.2.4-.8 1-1.8 1c-1.2 0-2-.8-2-1.7c0 0 0 0 0 0zm3.8-1c-.02.04 0-.2 0-.2c0 0-1.78.24-1.8.2c-.5.1-.8.4-.8.9c0 .4.3.8.9.8c.9 0 1.7-.4 1.7-1.7zm3.5-.4c0 1.3.9 2 1.8 2c1.1 0 1.5-.7 1.6-1.1c0 0 1 .4 1 .4c-.3.8-1.1 1.8-2.6 1.8c-1.7 0-2.9-1.3-2.9-3.1c0-1.8 1.2-3 2.9-3c1.5 0 2.3.9 2.6 1.8c0 0-1.1.4-1.1.4c-.1-.5-.5-1.2-1.5-1.2c-.9 0-1.8.7-1.8 2zm6.9 2.9l-1.2 0l0-8.7l1.2 0c0 0-.05 3.61 0 3.6c.4-.6 1-.8 1.7-.8c1.4 0 2.1 1 2.1 2.2c-.03.05 0 3.7 0 3.7l-1.2 0c0 0 .04-3.46 0-3.5c0-.8-.3-1.4-1.3-1.4c-.9 0-1.3.7-1.3 1.5c-.05.01 0 3.4 0 3.4zm9.5-3.5c-.1-.8-.6-1.4-1.6-1.4c-1 0-1.6.7-1.6 1.4c0 0 3.2 0 3.2 0zm1.1 1.9c-.3 1-1.3 1.8-2.6 1.8c-1.5 0-2.9-1.1-2.9-3.1c0-1.8 1.3-3 2.8-3c1.7 0 2.7 1.2 2.7 3c0 .1 0 .3 0 .3c0 0-4.3 0-4.3 0c0 1.1.7 1.8 1.7 1.8c.9 0 1.4-.5 1.6-1.2c0 0 1 .4 1 .4zm4.7-3c-.2 0-.4-.1-.5-.1c-1 0-1.6.5-1.6 1.8c0 .02 0 2.9 0 2.9l-1.1 0l0-5.8l1.1 0c0 0-.03 1.04 0 1c.4-.8 1.1-1.1 1.7-1.1c.2 0 .3.1.4.1c0 0 0 1.2 0 1.2zm8.1 1.1c-.1-.8-.6-1.4-1.6-1.4c-1 0-1.5.7-1.6 1.4c0 0 3.2 0 3.2 0zm1.1 1.9c-.3 1-1.2 1.8-2.6 1.8c-1.5 0-2.9-1.1-2.9-3.1c0-1.8 1.3-3 2.8-3c1.7 0 2.7 1.2 2.7 3c0 .1 0 .3 0 .3c0 0-4.3 0-4.3 0c0 1.1.7 1.8 1.7 1.8c.9 0 1.4-.5 1.6-1.2c0 0 1 .4 1 .4zm3-4.2l1.2 0l0 1.1l-1.2 0c0 0-.01 2.96 0 3c0 .5.2.7.8.7c.1 0 .3 0 .4 0c0 0 0 1 0 1c-.1 0-.3.1-.7.1c-1 0-1.6-.6-1.6-1.7c-.04.02 0-3.1 0-3.1l-1.1 0l0-1.1c0 0 .27.04.3 0c.6 0 .9-.3.9-.9c-.04.05 0-.9 0-.9l1 0l0 1.8z" stroke="none" fill="#144542"/></g><g id="Polygon185121"><path d="m6 7.6l-3.6 0l-.8 2.1l-1.5 0l3.3-8.5l1.7 0l3.3 8.5l-1.6 0l-.8-2.1zm-3.1-1.4l2.6 0l-1.3-3.4l-1.3 3.4zm7.9.6c0 1.2.8 1.8 1.7 1.8c.9 0 1.3-.6 1.4-1.1c0 0 1.3.5 1.3.5c-.3.9-1.2 1.9-2.7 1.9c-1.7 0-3-1.3-3-3.1c0-1.8 1.3-3.1 2.9-3.1c1.6 0 2.5 1 2.7 1.9c0 0-1.2.5-1.2.5c-.2-.6-.6-1.1-1.4-1.1c-.9 0-1.7.6-1.7 1.8zm8-2.9l1.2 0l0 1.2l-1.2 0c0 0-.03 2.71 0 2.7c0 .5.2.7.7.7c.2 0 .4 0 .5 0c0 0 0 1.1 0 1.1c-.1.1-.4.2-.9.2c-1 0-1.7-.7-1.7-1.8c-.01.04 0-2.9 0-2.9l-1.1 0l0-1.2c0 0 .31-.04.3 0c.6 0 .9-.4.9-.9c.01-.05 0-.9 0-.9l1.3 0l0 1.8zm3.2 5.8l0-5.8l1.4 0l0 5.8l-1.4 0zm.7-8.8c.5 0 .9.4.9.9c0 .5-.4.9-.9.9c-.5 0-.9-.4-.9-.9c0-.5.4-.9.9-.9zm7.3 5.9c0-1.2-.8-1.9-1.6-1.9c-.9 0-1.7.7-1.7 1.9c0 1.2.8 1.8 1.7 1.8c.8 0 1.6-.6 1.6-1.8zm1.4 0c0 1.8-1.3 3.1-3 3.1c-1.8 0-3.1-1.3-3.1-3.1c0-1.8 1.3-3.1 3.1-3.1c1.7 0 3 1.3 3 3.1zm3.3 2.9l-1.4 0l0-5.8l1.4 0c0 0-.01.74 0 .7c.4-.6 1.1-.9 1.7-.9c1.4 0 2.1 1 2.1 2.3c.03.01 0 3.7 0 3.7l-1.4 0c0 0 .04-3.45 0-3.4c0-.8-.3-1.3-1.2-1.3c-.8 0-1.2.6-1.2 1.3c.03.04 0 3.4 0 3.4z" stroke="none" fill="#144542"/></g></svg>