<?xml version="1.0" standalone="no"?><!DOCTYPE svg PUBLIC "-//W3C//DTD SVG 1.1//EN" "http://www.w3.org/Graphics/SVG/1.1/DTD/svg11.dtd"><svg xmlns="http://www.w3.org/2000/svg" version="1.1" width="122px" height="18px" viewBox="0 -3 122 18" style="top:-3px"><desc>03. action publique</desc><defs/><g id="Polygon180138"><path d="m2.1 7.3c.3.3.6.4 1.1.4c.5 0 .8-.1 1.1-.4c.4-.4.6-1.2.6-2.2c0-1-.2-1.8-.6-2.2c-.3-.3-.6-.5-1.1-.5c-.5 0-.8.2-1.1.5c-.4.4-.6 1.2-.6 2.2c0 1 .2 1.8.6 2.2zm-1-4.7c.5-.6 1.2-1.1 2.1-1.1c1 0 1.7.5 2.1 1.1c.5.7.6 1.6.6 2.5c0 .9-.1 1.8-.6 2.5c-.4.6-1.1 1.1-2.1 1.1c-.9 0-1.6-.5-2.1-1.1c-.4-.7-.6-1.6-.6-2.5c0-.9.2-1.8.6-2.5zm8.2 1.9l2-1.9l-3.2 0l0-.9l4.6 0l0 .9c0 0-1.97 1.81-2 1.8c1 0 2.1.7 2.1 2.1c0 1.1-.9 2.2-2.4 2.2c-1.6 0-2.5-1.1-2.6-2.2c0 0 1-.2 1-.2c.1.9.7 1.5 1.6 1.5c.9 0 1.4-.6 1.4-1.3c0-.9-.7-1.3-1.4-1.3c-.2 0-.4.1-.6.1c.01.03-.5-.8-.5-.8zm6.4 2.6c.4 0 .7.3.7.7c0 .4-.3.7-.7.7c-.5 0-.8-.3-.8-.7c0-.4.3-.7.8-.7zm9.9-.1l-2.4 0l-.5 1.5l-.8 0l2.1-5.2l.8 0l2.1 5.2l-.8 0l-.5-1.5zm-2.1-.6l1.8 0l-.9-2.4l-.9 2.4zm4.7-.5c0-1.7 1.3-2.7 2.6-2.7c1.1 0 2 .6 2.2 1.6c0 0-.6.3-.6.3c-.2-.8-.8-1.3-1.6-1.3c-1 0-1.9.7-1.9 2.1c0 1.3.9 2 1.9 2c.8 0 1.4-.5 1.6-1.2c0 0 .7.2.7.2c-.3 1-1.2 1.7-2.3 1.7c-1.4 0-2.6-1-2.6-2.7zm8.7-1.9l0 4.5l-.7 0l0-4.5l-1.8 0l0-.7l4.2 0l0 .7l-1.7 0zm3.5 4.5l0-5.2l.8 0l0 5.2l-.8 0zm5.4-.6c1 0 1.9-.7 1.9-2c0-1.4-.9-2.1-1.9-2.1c-1 0-1.9.7-1.9 2.1c0 1.3.9 2 1.9 2zm0-4.7c1.3 0 2.6 1 2.6 2.7c0 1.7-1.3 2.7-2.6 2.7c-1.3 0-2.6-1-2.6-2.7c0-1.7 1.3-2.7 2.6-2.7zm8.2 5.3l-2.8-4.3l0 4.3l-.7 0l0-5.2l.9 0l2.6 4l0-4l.8 0l0 5.2l-.8 0zm8.6-2.8c.6 0 1-.3 1-.9c0-.5-.4-.9-1-.9c-.02.03-1.1 0-1.1 0l0 1.8c0 0 1.08.01 1.1 0zm-1.1.7l0 2.1l-.7 0l0-5.2c0 0 1.91-.01 1.9 0c1 0 1.6.7 1.6 1.5c0 .9-.6 1.6-1.6 1.6c.01-.04-1.2 0-1.2 0zm4.6.3c.04.01 0-3.4 0-3.4l.8 0c0 0-.05 3.39 0 3.4c0 .8.4 1.2 1.1 1.2c.7 0 1.2-.4 1.2-1.2c-.03-.01 0-3.4 0-3.4l.7 0c0 0-.01 3.41 0 3.4c0 1.2-.8 1.9-1.9 1.9c-1 0-1.9-.7-1.9-1.9zm7.8-3.4c1 0 1.6.6 1.6 1.4c0 .6-.4 1-.8 1.1c.6.2.9.7.9 1.3c0 .8-.6 1.4-1.6 1.4c.01-.01-1.8 0-1.8 0l0-5.2c0 0 1.69-.01 1.7 0zm-.1 2.3c.6 0 .9-.4.9-.9c0-.5-.3-.8-.9-.8c-.02.02-.9 0-.9 0l0 1.7c0 0 .91-.03.9 0zm.1 2.3c.6 0 1-.4 1-.9c0-.5-.3-.8-1-.8c.04-.02-1 0-1 0l0 1.7c0 0 1.01-.04 1 0zm3.8.6l0-5.2l.7 0l0 4.5l2.4 0l0 .7l-3.1 0zm5 0l0-5.2l.8 0l0 5.2l-.8 0zm5.4-5.3c1.3 0 2.7 1 2.7 2.7c0 .8-.3 1.5-.8 1.9c.02.01.6.7.6.7l-.5.4c0 0-.6-.68-.6-.7c-.4.3-.9.4-1.4.4c-1.3 0-2.6-1-2.6-2.7c0-1.7 1.3-2.7 2.6-2.7zm0 4.7c.4 0 .7 0 .9-.2c.05.01-.9-1-.9-1l.5-.4c0 0 .95.99 1 1c.2-.3.4-.8.4-1.4c0-1.4-.9-2.1-1.9-2.1c-.9 0-1.9.7-1.9 2.1c0 1.3 1 2 1.9 2zm4.6-1.2c.02.01 0-3.4 0-3.4l.7 0c0 0 .03 3.39 0 3.4c0 .8.5 1.2 1.2 1.2c.7 0 1.1-.4 1.1-1.2c.05-.01 0-3.4 0-3.4l.8 0c0 0-.03 3.41 0 3.4c0 1.2-.8 1.9-1.9 1.9c-1.1 0-1.9-.7-1.9-1.9zm6.1 1.8l0-5.2l3.1 0l0 .7l-2.4 0l0 1.6l2.2 0l0 .6l-2.2 0l0 1.6l2.4 0l0 .7l-3.1 0z" stroke="none" fill="#144542"/></g></svg>