<?xml version="1.0" standalone="no"?><!DOCTYPE svg PUBLIC "-//W3C//DTD SVG 1.1//EN" "http://www.w3.org/Graphics/SVG/1.1/DTD/svg11.dtd"><svg xmlns="http://www.w3.org/2000/svg" version="1.1" width="102.2px" height="18px" viewBox="0 -3 102.2 18" style="top:-3px"><desc>de</desc><defs/><g id="Polygon163642"><path d="m2.9 7.8c.9 0 1.5-.8 1.5-1.9c0-1-.6-1.7-1.5-1.7c-.9 0-1.5.7-1.5 1.8c0 1 .6 1.8 1.5 1.8zm1.5-.1c-.3.5-.8.9-1.6.9c-1.5 0-2.4-1.1-2.4-2.6c0-1.5 1-2.7 2.4-2.7c.9 0 1.4.4 1.6.9c-.04-.04 0-3.3 0-3.3l.9 0c0 0 .03 6.66 0 6.7c0 .4.1.8.1.9c0 0-1 0-1 0c0-.1 0-.4 0-.7c0 0 0-.1 0-.1zm6-2.2c0-.8-.5-1.3-1.4-1.3c-.8 0-1.3.6-1.3 1.3c0 0 2.7 0 2.7 0zm1 1.6c-.3.8-1.1 1.6-2.3 1.6c-1.3 0-2.5-1-2.5-2.7c0-1.6 1.1-2.7 2.4-2.7c1.6 0 2.4 1.1 2.4 2.6c0 .2 0 .3 0 .3c0 0-3.8 0-3.8 0c0 1 .7 1.6 1.5 1.6c.9 0 1.3-.5 1.5-1c0 0 .8.3.8.3z" stroke="none" fill="#fff"/></g></svg>