<?xml version="1.0" standalone="no"?><!DOCTYPE svg PUBLIC "-//W3C//DTD SVG 1.1//EN" "http://www.w3.org/Graphics/SVG/1.1/DTD/svg11.dtd"><svg xmlns="http://www.w3.org/2000/svg" version="1.1" width="115.3px" height="14.7px" viewBox="0 -2 115.3 14.7" style="top:-2px"><desc>16</desc><defs/><g id="Polygon173208"><path d="m108.5 7.3l0-4.1l-1.4 0c0 0-.05-.65 0-.7c.8 0 1.3-.4 1.5-1.1c-.04.05.7 0 .7 0l0 5.9l-.8 0zm6-4.9c-.2-.2-.6-.3-1-.3c-1.3 0-2 .9-2.1 2.1c.2-.4.8-.8 1.5-.8c1.2 0 2 .8 2 2c0 1.3-1 2-2.1 2c-1.1 0-2.3-.8-2.3-2.7c0-2.2 1.3-3.4 3-3.4c.5 0 1 .1 1.3.3c0 0-.3.8-.3.8zm-1.7 4.3c.7 0 1.3-.5 1.3-1.3c0-.8-.6-1.2-1.3-1.2c-.7 0-1.3.4-1.3 1.2c0 .8.7 1.3 1.3 1.3z" stroke="none" fill="#fff"/></g></svg>