<?xml version="1.0" standalone="no"?><!DOCTYPE svg PUBLIC "-//W3C//DTD SVG 1.1//EN" "http://www.w3.org/Graphics/SVG/1.1/DTD/svg11.dtd"><svg xmlns="http://www.w3.org/2000/svg" version="1.1" width="404px" height="75.3px" viewBox="0 -4 404 75.3" style="top:-4px"><desc>cartes</desc><defs/><g id="Polygon177270"><path d="m4.9 7.6c-.5.7-1.3 1.3-2 1.3c-1.6 0-2.4-1.3-2.4-2.5c0-1 .4-1.8 1.2-2.4c.6-.5 1.3-.7 1.8-.7c.4 0 .8.2 1 .3c.2.2.2.3.2.4c0 .3-.2.5-.4.5c0 0-.1 0-.2-.1c-.4-.3-.8-.5-1.2-.5c-.8 0-1.5.7-1.5 1.9c0 1.7 1.2 2.3 1.8 2.3c.5 0 .9-.2 1.5-.7c0 0 .2.2.2.2zm4.4 1.3c-.2 0-.4-.1-.6-.3c-.1-.1-.2-.3-.3-.5c-.4.3-1 .8-1.4.8c-.8 0-1.4-.7-1.4-1.5c0-.6.3-1 1-1.2c.7-.2 1.5-.5 1.8-.8c0 0 0-.2 0-.2c0-.8-.4-1.3-1-1.3c-.2 0-.4.1-.5.2c-.2.2-.3.4-.4.8c0 .2-.2.3-.3.3c-.3 0-.6-.3-.6-.5c0-.2.2-.4.4-.5c.3-.3 1.1-.7 1.8-.9c.4 0 .7.1 1 .4c.4.3.5.8.5 1.4c0 0 0 2.3 0 2.3c0 .5.3.7.5.7c.1 0 .3-.1.4-.2c-.01.04.1.4.1.4c0 0-1.01.57-1 .6zm-.9-3.1c-.2.2-.8.4-1.1.5c-.4.3-.7.5-.7.9c0 .6.5.9.9.9c.3 0 .7-.2.9-.4c0 0 0-1.9 0-1.9zm4.1-1.2c.3-.6.8-1.3 1.4-1.3c.4 0 .7.3.7.6c0 .3-.1.5-.4.6c-.1.1-.2.1-.3 0c-.2-.2-.3-.3-.5-.3c-.3 0-.7.4-1 1.1c0 0 0 2.2 0 2.2c0 .8.1.8 1 .9c.03.01 0 .3 0 .3l-2.7 0c0 0-.03-.29 0-.3c.7-.1.8-.1.8-.9c0 0 0-2.5 0-2.5c0-.8-.1-.8-.7-.9c0 0 0-.3 0-.3c.5-.1 1.1-.2 1.6-.5c.04 0 0 1.3 0 1.3c0 0 .07.01.1 0zm5.1 4.1c-.2.1-.4.2-.5.2c-.8 0-1.2-.5-1.2-1.5c.02.04 0-3.5 0-3.5l-.8 0l-.1-.1l.4-.3l.5 0l0-.9l.8-.8l.2 0l0 1.7c0 0 1.33-.02 1.3 0c.1.1.1.4 0 .4c-.05.05-1.3 0-1.3 0c0 0-.03 3.13 0 3.1c0 1 .4 1.2.7 1.2c.3 0 .5-.1.7-.2c.01-.02.1.3.1.3c0 0-.8.41-.8.4zm5.6-1c-.8 1-1.6 1.2-2 1.2c-1.5 0-2.3-1.2-2.3-2.6c0-.8.3-1.5.8-2.1c.5-.5 1.1-.9 1.7-.9c1 0 1.8.9 1.8 1.9c0 .2 0 .3-.2.3c-.2.1-1.7.2-3.2.2c0 1.7 1 2.4 1.8 2.4c.5 0 .9-.2 1.4-.6c0 0 .2.2.2.2zm-3.3-2.4c.7 0 1.3-.1 2-.1c.2 0 .3-.1.3-.2c0-.6-.4-1.2-1.1-1.2c-.5 0-1 .5-1.2 1.5zm7.2-.4c-.3-.7-.7-1.2-1.3-1.2c-.4 0-.8.4-.8.8c0 .6.5.9 1.1 1.1c.9.4 1.5.8 1.5 1.6c0 1.1-1 1.7-2 1.7c-.6 0-1.2-.3-1.4-.4c-.1-.2-.2-1-.2-1.5c0 0 .3 0 .3 0c.3.8.8 1.5 1.5 1.5c.5 0 .9-.4.9-.9c0-.5-.4-.8-1-1.1c-.7-.3-1.5-.7-1.5-1.6c0-.9.7-1.6 1.8-1.6c.5 0 .9.1 1.1.2c.1.3.2 1 .3 1.3c0 0-.3.1-.3.1z" stroke="none" fill="#ec008c"/></g></svg>