<?xml version="1.0" standalone="no"?><!DOCTYPE svg PUBLIC "-//W3C//DTD SVG 1.1//EN" "http://www.w3.org/Graphics/SVG/1.1/DTD/svg11.dtd"><svg xmlns="http://www.w3.org/2000/svg" version="1.1" width="186.4px" height="53.2px" viewBox="0 -4 186.4 53.2" style="top:-4px"><desc>Notre impact soci tal</desc><defs/><g id="Polygon182785"><path d="m9.4 13.8l-5.9-9.2l0 9.2l-2.1 0l0-12.1l2.6 0l5.5 8.6l0-8.6l2.1 0l0 12.1l-2.2 0zm10.8-4.2c0-1.7-1.1-2.6-2.3-2.6c-1.2 0-2.3.9-2.3 2.6c0 1.7 1.1 2.6 2.3 2.6c1.2 0 2.3-.9 2.3-2.6zm2 0c0 2.6-1.8 4.4-4.3 4.4c-2.5 0-4.3-1.8-4.3-4.4c0-2.5 1.8-4.4 4.3-4.4c2.5 0 4.3 1.9 4.3 4.4zm4.3-4.1l1.8 0l0 1.7l-1.8 0c0 0 .04 3.87 0 3.9c0 .7.4 1 1.1 1c.3 0 .6 0 .7-.1c0 0 0 1.7 0 1.7c-.1 0-.5.2-1.2.2c-1.6 0-2.5-1-2.5-2.5c-.02-.01 0-4.2 0-4.2l-1.5 0l0-1.7c0 0 .38-.03.4 0c.9 0 1.3-.6 1.3-1.3c-.05-.02 0-1.3 0-1.3l1.7 0l0 2.6zm8.5 1.9c-.3 0-.5 0-.7 0c-1.5 0-2.2.9-2.2 2.4c0 .01 0 4 0 4l-2 0l0-8.3l1.9 0c0 0 .05 1.3 0 1.3c.4-.9 1.4-1.4 2.4-1.4c.3 0 .5 0 .6 0c0 0 0 2 0 2zm7 1.3c-.1-1-.7-1.8-2.1-1.8c-1.2 0-1.9.9-2 1.8c0 0 4.1 0 4.1 0zm1.9 2.7c-.5 1.4-1.8 2.6-3.8 2.6c-2.2 0-4.2-1.6-4.2-4.4c0-2.6 1.9-4.4 4-4.4c2.6 0 4.1 1.7 4.1 4.3c0 .3-.1.6-.1.6c0 0-6 0-6 0c0 1.3 1 2.2 2.2 2.2c1.2 0 1.8-.6 2.1-1.4c0 0 1.7.5 1.7.5zm6.2 2.4l0-8.3l1.9 0l0 8.3l-1.9 0zm.9-12.5c.7 0 1.3.6 1.3 1.3c0 .7-.6 1.2-1.3 1.2c-.7 0-1.2-.5-1.2-1.2c0-.7.5-1.3 1.2-1.3zm3.6 12.5l0-8.3l1.9 0c0 0-.04 1.03 0 1c.4-.8 1.5-1.3 2.4-1.3c1.1 0 2 .5 2.5 1.5c.6-1.1 1.6-1.5 2.7-1.5c1.5 0 2.9 1 2.9 3.2c0-.02 0 5.4 0 5.4l-1.9 0c0 0-.01-5.1 0-5.1c0-1-.5-1.7-1.6-1.7c-1 0-1.7.8-1.7 1.8c-.02.04 0 5 0 5l-2 0c0 0 .04-5.1 0-5.1c0-.9-.4-1.7-1.6-1.7c-1 0-1.7.8-1.7 1.8c.02.04 0 5 0 5l-1.9 0zm14.8 3.2l0-11.5l1.9 0c0 0 .01 1.1 0 1.1c.4-.7 1.4-1.3 2.6-1.3c2.5 0 3.9 1.9 3.9 4.3c0 2.5-1.5 4.4-3.9 4.4c-1.2 0-2.1-.6-2.5-1.2c-.03.02 0 4.2 0 4.2l-2 0zm4.2-10c-1.3 0-2.3 1.1-2.3 2.6c0 1.6 1 2.6 2.3 2.6c1.3 0 2.2-1 2.2-2.6c0-1.5-.9-2.6-2.2-2.6zm8.1 2c0 0 2.1-.3 2.1-.3c.5-.1.6-.3.6-.6c0-.7-.5-1.3-1.6-1.3c-1 0-1.6.7-1.7 1.5c0 0-1.8-.4-1.8-.4c.2-1.4 1.5-2.7 3.5-2.7c2.6 0 3.5 1.5 3.5 3.1c0 0 0 4.1 0 4.1c0 .8.1 1.3.1 1.4c0 0-1.8 0-1.8 0c0-.1-.1-.4-.1-1.1c-.4.6-1.2 1.3-2.5 1.3c-1.8 0-2.8-1.2-2.8-2.5c0-1.5 1.1-2.3 2.5-2.5zm2.7 1.3c0 .02 0-.4 0-.4c0 0-2.15.37-2.2.4c-.6.1-1.1.4-1.1 1.1c0 .6.5 1.1 1.2 1.1c1.2 0 2.1-.6 2.1-2.2zm5.6-.7c0 1.7 1.1 2.6 2.3 2.6c1.3 0 1.9-.9 2.1-1.5c0 0 1.8.6 1.8.6c-.4 1.3-1.7 2.7-3.9 2.7c-2.4 0-4.2-1.9-4.2-4.4c0-2.5 1.8-4.4 4.2-4.4c2.2 0 3.4 1.4 3.8 2.7c0 0-1.8.7-1.8.7c-.2-.7-.7-1.6-2-1.6c-1.2 0-2.3.9-2.3 2.6zm10.4-4.1l1.7 0l0 1.7l-1.7 0c0 0 0 3.87 0 3.9c0 .7.3 1 1.1 1c.2 0 .6 0 .6-.1c0 0 0 1.7 0 1.7c-.1 0-.5.2-1.2.2c-1.5 0-2.5-1-2.5-2.5c.05-.01 0-4.2 0-4.2l-1.5 0l0-1.7c0 0 .44-.03.4 0c.9 0 1.3-.6 1.3-1.3c.02-.02 0-1.3 0-1.3l1.8 0l0 2.6zm8.9 5.5c.1.8.6 1.4 1.7 1.4c.8 0 1.2-.4 1.2-.9c0-.5-.3-.8-.9-.9c0 0-1.3-.3-1.3-.3c-1.4-.3-2.2-1.3-2.2-2.4c0-1.5 1.3-2.7 3.1-2.7c2.3 0 3 1.5 3.2 2.3c0 0-1.7.5-1.7.5c-.1-.5-.4-1.2-1.5-1.2c-.7 0-1.2.4-1.2.9c0 .5.3.8.8.9c0 0 1.3.2 1.3.2c1.5.4 2.3 1.3 2.3 2.6c0 1.2-1 2.6-3.1 2.6c-2.4 0-3.3-1.6-3.4-2.5c0 0 1.7-.5 1.7-.5zm12.7-1.4c0-1.7-1.1-2.6-2.3-2.6c-1.2 0-2.3.9-2.3 2.6c0 1.7 1.1 2.6 2.3 2.6c1.2 0 2.3-.9 2.3-2.6zm2 0c0 2.6-1.8 4.4-4.3 4.4c-2.5 0-4.3-1.8-4.3-4.4c0-2.5 1.8-4.4 4.3-4.4c2.5 0 4.3 1.9 4.3 4.4zm3.2 0c0 1.7 1.1 2.6 2.3 2.6c1.3 0 1.9-.9 2.1-1.5c0 0 1.7.6 1.7.6c-.4 1.3-1.6 2.7-3.8 2.7c-2.4 0-4.3-1.9-4.3-4.4c0-2.5 1.9-4.4 4.3-4.4c2.2 0 3.4 1.4 3.8 2.7c0 0-1.8.7-1.8.7c-.2-.7-.8-1.6-2-1.6c-1.2 0-2.3.9-2.3 2.6zm7.9 4.2l0-8.3l1.9 0l0 8.3l-1.9 0zm.9-12.5c.8 0 1.3.6 1.3 1.3c0 .7-.5 1.2-1.3 1.2c-.6 0-1.2-.5-1.2-1.2c0-.7.6-1.3 1.2-1.3zm7.7 3.1l-1.6 0l1.5-2.5l2.3 0l-2.2 2.5zm1.3 4.3c0-1-.7-1.8-2-1.8c-1.3 0-2 .9-2 1.8c0 0 4 0 4 0zm1.9 2.7c-.4 1.4-1.7 2.6-3.7 2.6c-2.3 0-4.3-1.6-4.3-4.4c0-2.6 2-4.4 4.1-4.4c2.5 0 4 1.7 4 4.3c0 .3 0 .6 0 .6c0 0-6.1 0-6.1 0c.1 1.3 1 2.2 2.3 2.2c1.2 0 1.8-.6 2-1.4c0 0 1.7.5 1.7.5zm4.5-5.9l1.7 0l0 1.7l-1.7 0c0 0 0 3.87 0 3.9c0 .7.3 1 1.1 1c.2 0 .5 0 .6-.1c0 0 0 1.7 0 1.7c-.1 0-.5.2-1.2.2c-1.5 0-2.5-1-2.5-2.5c.05-.01 0-4.2 0-4.2l-1.5 0l0-1.7c0 0 .44-.03.4 0c.9 0 1.3-.6 1.3-1.3c.02-.02 0-1.3 0-1.3l1.8 0l0 2.6zm5.7 3.5c0 0 2.2-.3 2.2-.3c.4-.1.6-.3.6-.6c0-.7-.5-1.3-1.6-1.3c-1 0-1.6.7-1.7 1.5c0 0-1.8-.4-1.8-.4c.2-1.4 1.5-2.7 3.5-2.7c2.6 0 3.5 1.5 3.5 3.1c0 0 0 4.1 0 4.1c0 .8.1 1.3.1 1.4c0 0-1.8 0-1.8 0c0-.1-.1-.4-.1-1.1c-.4.6-1.2 1.3-2.5 1.3c-1.8 0-2.9-1.2-2.9-2.5c0-1.5 1.1-2.3 2.5-2.5zm2.8 1.3c-.02.02 0-.4 0-.4c0 0-2.18.37-2.2.4c-.6.1-1.1.4-1.1 1.1c0 .6.4 1.1 1.2 1.1c1.1 0 2.1-.6 2.1-2.2zm4.3 3.5l0-12.4l2 0l0 12.4l-2 0z" stroke="none" fill="#144542"/></g></svg>