<?xml version="1.0" standalone="no"?><!DOCTYPE svg PUBLIC "-//W3C//DTD SVG 1.1//EN" "http://www.w3.org/Graphics/SVG/1.1/DTD/svg11.dtd"><svg xmlns="http://www.w3.org/2000/svg" version="1.1" width="62px" height="30.1px" viewBox="0 -3 62 30.1" style="top:-3px"><desc>accompagnement</desc><defs/><g id="Polygon181726"><path d="m1.6 22c.1.6.6 1.1 1.3 1.1c1 0 1.6-.5 1.6-1.6c0 0 0-.5 0-.5c-.3.4-.8.7-1.6.7c-1.4 0-2.5-1.1-2.5-2.6c0-1.4 1-2.6 2.5-2.6c.8 0 1.4.4 1.6.8c-.02.02 0-.7 0-.7l1.2 0c0 0 .01 4.86 0 4.9c0 1.4-.7 2.7-2.7 2.7c-1.4 0-2.4-.9-2.6-1.9c0 0 1.2-.3 1.2-.3zm2.9-2.9c0-.9-.6-1.5-1.4-1.5c-.8 0-1.4.6-1.4 1.5c0 1 .6 1.5 1.4 1.5c.8 0 1.4-.5 1.4-1.5zm4 2.9l-1.2 0l0-5.4l1.2 0c0 0 0 .75 0 .8c.3-.7 1-.9 1.6-.9c1.3 0 1.9.9 1.9 2.1c-.01 0 0 3.4 0 3.4l-1.3 0c0 0 .03-3.18 0-3.2c0-.6-.3-1.2-1.1-1.2c-.7 0-1.1.6-1.1 1.3c.03-.01 0 3.1 0 3.1zm8.5-3.3c0-.6-.4-1.2-1.3-1.2c-.8 0-1.2.7-1.3 1.2c0 0 2.6 0 2.6 0zm1.2 1.7c-.2 1-1.1 1.7-2.4 1.7c-1.4 0-2.7-1-2.7-2.8c0-1.7 1.3-2.8 2.6-2.8c1.7 0 2.6 1.1 2.6 2.7c0 .3 0 .4 0 .4c0 0-3.9 0-3.9 0c0 .9.7 1.4 1.4 1.4c.8 0 1.2-.4 1.4-.9c0 0 1 .3 1 .3zm1.3 1.6l0-5.4l1.2 0c0 0 .04.72 0 .7c.3-.5 1-.8 1.6-.8c.7 0 1.3.3 1.6.9c.4-.7 1.1-.9 1.7-.9c1 0 1.9.6 1.9 2c.02.01 0 3.5 0 3.5l-1.2 0c0 0 0-3.28 0-3.3c0-.6-.3-1.1-1-1.1c-.7 0-1.1.6-1.1 1.2c-.03.01 0 3.2 0 3.2l-1.3 0c0 0 .02-3.28 0-3.3c0-.6-.3-1.1-1-1.1c-.7 0-1.1.5-1.1 1.2c-.01.01 0 3.2 0 3.2l-1.3 0zm13.1-3.3c0-.6-.5-1.2-1.3-1.2c-.8 0-1.3.7-1.3 1.2c0 0 2.6 0 2.6 0zm1.2 1.7c-.3 1-1.1 1.7-2.4 1.7c-1.5 0-2.7-1-2.7-2.8c0-1.7 1.2-2.8 2.6-2.8c1.6 0 2.6 1.1 2.6 2.7c0 .3-.1.4-.1.4c0 0-3.9 0-3.9 0c.1.9.7 1.4 1.5 1.4c.7 0 1.1-.4 1.3-.9c0 0 1.1.3 1.1.3zm2.5 1.6l-1.2 0l0-5.4l1.2 0c0 0 0 .75 0 .8c.4-.7 1-.9 1.6-.9c1.3 0 1.9.9 1.9 2.1c0 0 0 3.4 0 3.4l-1.3 0c0 0 .03-3.18 0-3.2c0-.6-.3-1.2-1.1-1.2c-.7 0-1.1.6-1.1 1.3c.04-.01 0 3.1 0 3.1zm6.7-5.4l1.1 0l0 1.2l-1.1 0c0 0-.05 2.44 0 2.4c0 .5.2.7.6.7c.2 0 .4 0 .5 0c0 0 0 1 0 1c-.1 0-.4.1-.8.1c-1 0-1.6-.6-1.6-1.6c0 .05 0-2.6 0-2.6l-1 0l0-1.2c0 0 .28.04.3 0c.6 0 .8-.3.8-.8c0 .01 0-.8 0-.8l1.2 0l0 1.6z" stroke="none" fill="#144542"/></g><g id="Polygon181725"><path d="m2.1 5.8c0 0 1.4-.2 1.4-.2c.3-.1.4-.2.4-.4c0-.4-.3-.8-1-.8c-.7 0-1.1.4-1.1 1c0 0-1.2-.3-1.2-.3c.1-.9.9-1.7 2.2-1.7c1.7 0 2.3.9 2.3 1.9c0 0 0 2.7 0 2.7c0 .5.1.8.1.8c0 0-1.2 0-1.2 0c0 0-.1-.2-.1-.6c-.2.4-.7.8-1.6.8c-1.1 0-1.8-.8-1.8-1.6c0-.9.7-1.5 1.6-1.6zm1.8.8c-.04.04 0-.2 0-.2c0 0-1.43.2-1.4.2c-.4.1-.7.3-.7.7c0 .4.2.7.7.7c.7 0 1.4-.3 1.4-1.4zm3.6-.4c0 1.1.7 1.7 1.5 1.7c.8 0 1.2-.6 1.3-1c0 0 1.1.4 1.1.4c-.2.8-1 1.7-2.4 1.7c-1.6 0-2.8-1.2-2.8-2.8c0-1.7 1.2-2.8 2.7-2.8c1.5 0 2.3.9 2.5 1.7c0 0-1.2.4-1.2.4c-.1-.4-.4-1-1.3-1c-.7 0-1.4.6-1.4 1.7zm5.8 0c0 1.1.7 1.7 1.5 1.7c.9 0 1.2-.6 1.4-1c0 0 1.1.4 1.1.4c-.3.8-1.1 1.7-2.5 1.7c-1.5 0-2.7-1.2-2.7-2.8c0-1.7 1.2-2.8 2.7-2.8c1.4 0 2.2.9 2.4 1.7c0 0-1.1.4-1.1.4c-.1-.4-.5-1-1.3-1c-.8 0-1.5.6-1.5 1.7zm8.9 0c0-1.1-.7-1.7-1.5-1.7c-.8 0-1.5.6-1.5 1.7c0 1.1.7 1.7 1.5 1.7c.8 0 1.5-.6 1.5-1.7zm1.3 0c0 1.6-1.2 2.8-2.8 2.8c-1.6 0-2.8-1.2-2.8-2.8c0-1.7 1.2-2.8 2.8-2.8c1.6 0 2.8 1.1 2.8 2.8zm1.2 2.6l0-5.3l1.2 0c0 0-.01.7 0 .7c.3-.5 1-.8 1.6-.8c.7 0 1.3.3 1.6.9c.4-.7 1-.9 1.7-.9c1 0 1.9.6 1.9 2c-.03-.01 0 3.4 0 3.4l-1.3 0c0 0 .05-3.2 0-3.2c0-.6-.3-1.1-1-1.1c-.6 0-1.1.5-1.1 1.2c.02-.01 0 3.1 0 3.1l-1.2 0c0 0-.03-3.2 0-3.2c0-.6-.3-1.1-1.1-1.1c-.6 0-1.1.5-1.1 1.2c.04-.01 0 3.1 0 3.1l-1.2 0zm9.5 2.1l0-7.4l1.3 0c0 0-.05.74 0 .7c.2-.4.8-.8 1.6-.8c1.6 0 2.5 1.2 2.5 2.8c0 1.6-1 2.8-2.5 2.8c-.8 0-1.3-.4-1.6-.8c-.02.05 0 2.7 0 2.7l-1.3 0zm4.1-4.7c0-1-.5-1.7-1.4-1.7c-.8 0-1.4.7-1.4 1.7c0 1 .6 1.7 1.4 1.7c.8 0 1.4-.7 1.4-1.7c0 0 0 0 0 0zm3.8-.4c0 0 1.4-.2 1.4-.2c.3-.1.4-.2.4-.4c0-.4-.3-.8-1-.8c-.7 0-1.1.4-1.1 1c0 0-1.2-.3-1.2-.3c.1-.9.9-1.7 2.3-1.7c1.6 0 2.2.9 2.2 1.9c0 0 0 2.7 0 2.7c0 .5.1.8.1.8c0 0-1.2 0-1.2 0c0 0-.1-.2-.1-.6c-.2.4-.7.8-1.6.8c-1.1 0-1.8-.8-1.8-1.6c0-.9.7-1.5 1.6-1.6zm1.8.8c-.03.04 0-.2 0-.2c0 0-1.42.2-1.4.2c-.4.1-.7.3-.7.7c0 .4.2.7.7.7c.8 0 1.4-.3 1.4-1.4zm2.4-.4l0-1.1l3.1 0l0 1.1l-3.1 0z" stroke="none" fill="#144542"/></g></svg>