<?xml version="1.0" standalone="no"?><!DOCTYPE svg PUBLIC "-//W3C//DTD SVG 1.1//EN" "http://www.w3.org/Graphics/SVG/1.1/DTD/svg11.dtd"><svg xmlns="http://www.w3.org/2000/svg" version="1.1" width="118.5px" height="22.7px" viewBox="0 -3 118.5 22.7" style="top:-3px"><desc>Engagement 2</desc><defs/><g id="Polygon186061"><path d="m1.3 11.3l0-9.9l6 0l0 1.3l-4.7 0l0 3l4.3 0l0 1.3l-4.3 0l0 3.1l4.7 0l0 1.2l-6 0zm9.8 0l-1.4 0l0-6.7l1.3 0c0 0 .03.96 0 1c.5-.9 1.3-1.2 2.1-1.2c1.6 0 2.4 1.2 2.4 2.7c.01-.05 0 4.2 0 4.2l-1.3 0c0 0 0-4.02 0-4c0-1-.4-1.7-1.6-1.7c-1 0-1.5.8-1.5 1.8c-.04.03 0 3.9 0 3.9zm8 .1c.1.9.8 1.6 1.8 1.6c1.4 0 2.1-.7 2.1-2.1c0 0 0-1 0-1c-.3.6-1.1 1.1-2.1 1.1c-1.8 0-3.1-1.4-3.1-3.3c0-1.8 1.3-3.2 3.1-3.2c1.1 0 1.8.4 2.1 1c0 .03 0-.9 0-.9l1.3 0c0 0 0 6.22 0 6.2c0 1.7-.8 3.4-3.4 3.4c-1.7 0-2.9-1.1-3.1-2.5c0 0 1.3-.3 1.3-.3zm3.9-3.7c0-1.3-.7-2.1-1.9-2.1c-1.1 0-1.9.8-1.9 2.1c0 1.4.7 2.2 1.9 2.2c1.2 0 1.9-.9 1.9-2.2zm3.6 1.8c0-1.2.9-1.9 2.1-2c0 0 1.8-.3 1.8-.3c.4 0 .5-.3.5-.5c0-.7-.4-1.2-1.5-1.2c-.9 0-1.4.6-1.5 1.4c0 0-1.2-.3-1.2-.3c.1-1.3 1.3-2.2 2.7-2.2c2 0 2.8 1.1 2.8 2.4c0 0 0 3.4 0 3.4c0 .6.1 1 .1 1.1c0 0-1.3 0-1.3 0c0-.1-.1-.4-.1-.9c-.3.5-.9 1.1-2.1 1.1c-1.4 0-2.3-.9-2.3-2c0 0 0 0 0 0zm4.4-1.1c0 .04 0-.3 0-.3c0 0-2.06.34-2.1.3c-.5.1-.9.4-.9 1.1c0 .5.4.9 1 .9c1.1 0 2-.5 2-2zm4.8 3c.1.9.9 1.6 1.9 1.6c1.4 0 2-.7 2-2.1c0 0 0-1 0-1c-.3.6-1 1.1-2 1.1c-1.8 0-3.1-1.4-3.1-3.3c0-1.8 1.2-3.2 3.1-3.2c1 0 1.7.4 2 1c.05.03 0-.9 0-.9l1.3 0c0 0 .05 6.22 0 6.2c0 1.7-.8 3.4-3.3 3.4c-1.7 0-3-1.1-3.1-2.5c0 0 1.2-.3 1.2-.3zm4-3.7c0-1.3-.8-2.1-1.9-2.1c-1.2 0-2 .8-2 2.1c0 1.4.8 2.2 2 2.2c1.1 0 1.9-.9 1.9-2.2zm8.6-.4c0-1-.7-1.8-1.9-1.8c-1.1 0-1.7.9-1.8 1.8c0 0 3.7 0 3.7 0zm1.3 2.1c-.4 1.2-1.4 2.1-3 2.1c-1.8 0-3.4-1.3-3.4-3.6c0-2.1 1.5-3.5 3.2-3.5c2.1 0 3.3 1.4 3.3 3.5c0 .2-.1.3-.1.4c0 0-5 0-5 0c0 1.2.9 2.1 2 2.1c1.1 0 1.6-.6 1.9-1.4c0 0 1.1.4 1.1.4zm2.4 1.9l0-6.7l1.3 0c0 0-.01.89 0 .9c.4-.8 1.3-1.1 2-1.1c.9 0 1.7.4 2.1 1.3c.5-1 1.4-1.3 2.2-1.3c1.2 0 2.3.8 2.3 2.6c.03-.04 0 4.3 0 4.3l-1.3 0c0 0 .03-4.2 0-4.2c0-.9-.4-1.5-1.4-1.5c-.9 0-1.6.7-1.6 1.7c.05-.05 0 4 0 4l-1.3 0c0 0 .03-4.2 0-4.2c0-.9-.4-1.5-1.4-1.5c-.9 0-1.6.7-1.6 1.7c.04-.04 0 4 0 4l-1.3 0zm17.3-4c-.1-1-.7-1.8-1.9-1.8c-1.1 0-1.8.9-1.8 1.8c0 0 3.7 0 3.7 0zm1.3 2.1c-.4 1.2-1.5 2.1-3 2.1c-1.8 0-3.4-1.3-3.4-3.6c0-2.1 1.5-3.5 3.2-3.5c2.1 0 3.2 1.4 3.2 3.5c0 .2 0 .3 0 .4c0 0-5.1 0-5.1 0c.1 1.2.9 2.1 2.1 2.1c1.1 0 1.6-.6 1.9-1.4c0 0 1.1.4 1.1.4zm3.7 1.9l-1.3 0l0-6.7l1.3 0c0 0 .01.96 0 1c.5-.9 1.3-1.2 2.1-1.2c1.6 0 2.4 1.2 2.4 2.7c-.01-.05 0 4.2 0 4.2l-1.3 0c0 0-.03-4.02 0-4c0-1-.4-1.7-1.6-1.7c-1 0-1.6.8-1.6 1.8c.04.03 0 3.9 0 3.9zm9.1-6.7l1.4 0l0 1.2l-1.4 0c0 0-.05 3.48 0 3.5c0 .6.2.9.9.9c.2 0 .4 0 .5 0c0 0 0 1.1 0 1.1c-.1 0-.4.1-.9.1c-1.1 0-1.9-.7-1.9-1.9c.04-.02 0-3.7 0-3.7l-1.2 0l0-1.2c0 0 .31-.01.3 0c.7 0 1-.5 1-1c.05-.04 0-1.1 0-1.1l1.3 0l0 2.1zm7.5.7c0-.1 0-.2 0-.3c0-1.6 1.2-3 3.2-3c1.9 0 3 1.3 3 2.8c0 1.2-.6 2.2-1.7 2.8c0 0-1.8 1.2-1.8 1.2c-.5.3-1 .7-1.1 1.3c.02-.05 4.7 0 4.7 0l0 1.2c0 0-6.37.02-6.4 0c.1-1.5.6-2.6 2.2-3.6c0 0 1.5-1 1.5-1c.9-.5 1.2-1.2 1.2-1.9c0-.8-.5-1.6-1.7-1.6c-1.2 0-1.7.9-1.7 1.9c0 .1 0 .3 0 .4c0 0-1.4-.2-1.4-.2z" stroke="none" fill="#144542"/></g></svg>