<?xml version="1.0" standalone="no"?><!DOCTYPE svg PUBLIC "-//W3C//DTD SVG 1.1//EN" "http://www.w3.org/Graphics/SVG/1.1/DTD/svg11.dtd"><svg xmlns="http://www.w3.org/2000/svg" version="1.1" width="58px" height="63.6px" viewBox="0 -3 58 63.6" style="top:-3px"><desc>Femmes 63 %</desc><defs/><g id="Polygon165217"><path d="m6.7 19.7c-.3-.2-.9-.3-1.6-.3c-1.8 0-3 1.3-3.1 3.1c.4-.6 1.2-1.1 2.3-1.1c1.8 0 3 1 3 2.9c0 1.9-1.5 3-3.2 3c-1.7 0-3.4-1.1-3.4-4c0-3.3 1.9-5.1 4.5-5.1c.8 0 1.5.2 1.9.5c0 0-.4 1-.4 1zm-2.6 6.5c1 0 1.9-.7 1.9-1.9c0-1.1-.9-1.8-1.9-1.8c-1 0-1.9.7-1.9 1.8c0 1.2 1 1.9 1.9 1.9zm6.1-4.2l2.6-2.4l-4.2 0l0-1.2l6 0l0 1.2c0 0-2.54 2.27-2.5 2.3c1.2 0 2.7.8 2.7 2.6c0 1.5-1.2 2.8-3.2 2.8c-2 0-3.2-1.3-3.3-2.7c0 0 1.3-.3 1.3-.3c.1 1.1.9 1.9 2 1.9c1.2 0 1.8-.8 1.8-1.6c0-1.2-.9-1.7-1.8-1.7c-.2 0-.5.1-.7.2c-.03-.04-.7-1.1-.7-1.1zm9.1-.5c.6 0 1.1-.5 1.1-1.1c0-.6-.5-1.1-1.1-1.1c-.5 0-1 .5-1 1.1c0 .6.5 1.1 1 1.1zm0-3.2c1.2 0 2.2.9 2.2 2.1c0 1.2-1 2.1-2.2 2.1c-1.1 0-2.1-.9-2.1-2.1c0-1.2 1-2.1 2.1-2.1zm5.4 7.9c.6 0 1-.5 1-1.1c0-.6-.4-1.1-1-1.1c-.6 0-1 .5-1 1.1c0 .6.4 1.1 1 1.1zm0-3.2c1.2 0 2.2.9 2.2 2.1c0 1.2-1 2.1-2.2 2.1c-1.2 0-2.2-.9-2.2-2.1c0-1.2 1-2.1 2.2-2.1zm-6.4 4.1l6.3-8.7l1.2 0l-6.3 8.7l-1.2 0z" stroke="none" fill="#9b78ef"/></g><g id="Polygon165216"><path d="m1.2 10.9l0-9.5l5.8 0l0 1.2l-4.5 0l0 3.1l4.1 0l0 1.2l-4.1 0l0 4l-1.3 0zm11.2-3.9c0-.9-.6-1.7-1.8-1.7c-1 0-1.7.9-1.7 1.7c0 0 3.5 0 3.5 0zm1.3 2.1c-.4 1.1-1.4 2-2.9 2c-1.8 0-3.3-1.2-3.3-3.4c0-2.1 1.5-3.5 3.1-3.5c2 0 3.1 1.4 3.1 3.4c0 .2 0 .4 0 .4c0 0-4.9 0-4.9 0c.1 1.2.9 2 2 2c1 0 1.6-.6 1.8-1.3c0 0 1.1.4 1.1.4zm1.7 1.8l0-6.5l1.2 0c0 0-.02.89 0 .9c.4-.7 1.2-1.1 1.9-1.1c.9 0 1.6.4 2 1.3c.5-1 1.3-1.3 2.2-1.3c1.1 0 2.2.8 2.2 2.5c.01.01 0 4.2 0 4.2l-1.2 0c0 0-.05-4.06 0-4.1c0-.8-.5-1.4-1.4-1.4c-.9 0-1.5.7-1.5 1.6c-.02-.01 0 3.9 0 3.9l-1.3 0c0 0 .01-4.06 0-4.1c0-.8-.4-1.4-1.4-1.4c-.9 0-1.5.6-1.5 1.6c.02.01 0 3.9 0 3.9l-1.2 0zm11.5 0l0-6.5l1.2 0c0 0 .05.89 0 .9c.5-.7 1.3-1.1 2-1.1c.8 0 1.6.4 2 1.3c.5-1 1.3-1.3 2.1-1.3c1.2 0 2.3.8 2.3 2.5c-.02.01 0 4.2 0 4.2l-1.3 0c0 0 .02-4.06 0-4.1c0-.8-.4-1.4-1.4-1.4c-.8 0-1.5.7-1.5 1.6c.05-.01 0 3.9 0 3.9l-1.2 0c0 0-.02-4.06 0-4.1c0-.8-.4-1.4-1.4-1.4c-.9 0-1.5.6-1.5 1.6c-.01.01 0 3.9 0 3.9l-1.3 0zm16-3.9c-.1-.9-.7-1.7-1.8-1.7c-1.1 0-1.7.9-1.8 1.7c0 0 3.6 0 3.6 0zm1.3 2.1c-.4 1.1-1.4 2-3 2c-1.7 0-3.2-1.2-3.2-3.4c0-2.1 1.4-3.5 3.1-3.5c2 0 3.1 1.4 3.1 3.4c0 .2 0 .4 0 .4c0 0-4.9 0-4.9 0c0 1.2.8 2 1.9 2c1.1 0 1.6-.6 1.9-1.3c0 0 1.1.4 1.1.4zm2.2-.3c0 .7.6 1.2 1.5 1.2c.7 0 1.1-.4 1.1-.8c0-.4-.3-.7-.9-.9c0 0-1.1-.2-1.1-.2c-1-.2-1.6-.9-1.6-1.8c0-1.1 1.1-2.1 2.3-2.1c1.8 0 2.4 1.2 2.5 1.8c0 0-1.1.4-1.1.4c-.1-.4-.4-1.1-1.4-1.1c-.6 0-1.1.4-1.1.9c0 .4.3.6.8.8c0 0 1 .2 1 .2c1.2.2 1.8 1 1.8 1.9c0 .9-.7 2-2.3 2c-1.8 0-2.6-1.1-2.7-1.9c0 0 1.2-.4 1.2-.4z" stroke="none" fill="#fff"/></g></svg>