<?xml version="1.0" standalone="no"?><!DOCTYPE svg PUBLIC "-//W3C//DTD SVG 1.1//EN" "http://www.w3.org/Graphics/SVG/1.1/DTD/svg11.dtd"><svg xmlns="http://www.w3.org/2000/svg" version="1.1" width="260.1px" height="72.6px" viewBox="0 -3 260.1 72.6" style="top:-3px"><desc>Gr ce : Une pr paration cibl e + une formation adapt e + un accompagnement dans la dur e.</desc><defs/><g id="Polygon174604"><path d="m3.2 57.8l0-2.7l1.4 0l0 2.7l2.5 0l0 1.3l-2.5 0l0 2.6l-1.4 0l0-2.6l-2.5 0l0-1.3l2.5 0zm13.3 3.8c-.4.6-1.1.9-1.9.9c-1.6 0-2.5-1.1-2.5-2.6c.01.03 0-4.1 0-4.1l1.6 0c0 0-.03 3.84 0 3.8c0 .9.4 1.5 1.3 1.5c.9 0 1.4-.6 1.4-1.4c-.02-.03 0-3.9 0-3.9l1.5 0c0 0 .04 5.36 0 5.4c0 .5.1.9.1 1.2c0 0-1.5 0-1.5 0c0-.2 0-.5 0-.8c0 0 0 0 0 0zm5 .8l-1.5 0l0-6.6l1.5 0c0 0-.01.86 0 .9c.4-.8 1.2-1.1 1.9-1.1c1.6 0 2.4 1.2 2.4 2.6c.01 0 0 4.2 0 4.2l-1.6 0c0 0 .05-3.93 0-3.9c0-.8-.3-1.5-1.3-1.5c-.9 0-1.4.7-1.4 1.6c.03-.04 0 3.8 0 3.8zm11.1-3.8c0 0 1.7-.3 1.7-.3c.4 0 .5-.2.5-.4c0-.6-.4-1-1.2-1c-.9 0-1.3.5-1.4 1.1c0 0-1.4-.3-1.4-.3c.1-1.1 1.1-2.1 2.8-2.1c2 0 2.8 1.1 2.8 2.4c0 0 0 3.3 0 3.3c0 .6 0 1 0 1.1c0 0-1.4 0-1.4 0c0-.1-.1-.4-.1-.9c-.3.5-.9 1.1-2 1.1c-1.4 0-2.2-1-2.2-2c0-1.2.8-1.8 1.9-2zm2.2 1c.02.03 0-.3 0-.3c0 0-1.7.29-1.7.3c-.5.1-.9.3-.9.9c0 .4.4.8 1 .8c.9 0 1.6-.4 1.6-1.7zm4.5-.5c0 1.3.8 2 1.8 2c1 0 1.5-.7 1.7-1.2c0 0 1.3.5 1.3.5c-.3 1-1.3 2.2-3 2.2c-1.9 0-3.4-1.5-3.4-3.5c0-2.1 1.5-3.5 3.4-3.5c1.7 0 2.7 1.1 3 2.1c0 0-1.4.6-1.4.6c-.2-.6-.6-1.3-1.6-1.3c-1 0-1.8.7-1.8 2.1zm7.2 0c0 1.3.9 2 1.9 2c1 0 1.5-.7 1.6-1.2c0 0 1.4.5 1.4.5c-.3 1-1.3 2.2-3 2.2c-2 0-3.4-1.5-3.4-3.5c0-2.1 1.4-3.5 3.3-3.5c1.8 0 2.8 1.1 3 2.1c0 0-1.4.6-1.4.6c-.1-.6-.6-1.3-1.6-1.3c-.9 0-1.8.7-1.8 2.1zm10.9 0c0-1.4-.8-2.1-1.8-2.1c-1 0-1.8.7-1.8 2.1c0 1.3.8 2.1 1.8 2.1c1 0 1.8-.8 1.8-2.1zm1.6 0c0 2-1.4 3.5-3.4 3.5c-2 0-3.4-1.5-3.4-3.5c0-2.1 1.4-3.5 3.4-3.5c2 0 3.4 1.4 3.4 3.5zm1.5 3.3l0-6.6l1.5 0c0 0 .02.82 0 .8c.4-.7 1.2-1 2-1c.8 0 1.6.4 1.9 1.2c.5-.9 1.3-1.2 2.2-1.2c1.2 0 2.3.7 2.3 2.5c-.01-.01 0 4.3 0 4.3l-1.5 0c0 0-.02-4.05 0-4.1c0-.7-.4-1.3-1.3-1.3c-.8 0-1.4.6-1.4 1.5c.04-.05 0 3.9 0 3.9l-1.5 0c0 0 .01-4.05 0-4.1c0-.7-.4-1.3-1.3-1.3c-.8 0-1.3.6-1.3 1.5c-.03-.05 0 3.9 0 3.9l-1.6 0zm11.8 2.5l0-9.1l1.5 0c0 0 .02.87 0 .9c.3-.6 1.1-1.1 2.1-1.1c2 0 3 1.5 3 3.5c0 1.9-1.2 3.4-3 3.4c-1 0-1.7-.4-2-.9c-.04.01 0 3.3 0 3.3l-1.6 0zm5.1-5.8c0-1.3-.7-2.1-1.8-2.1c-1 0-1.8.8-1.8 2.1c0 1.2.8 2 1.8 2c1.1 0 1.8-.8 1.8-2c0 0 0 0 0 0zm4.6-.5c0 0 1.7-.3 1.7-.3c.4 0 .5-.2.5-.4c0-.6-.4-1-1.2-1c-.9 0-1.3.5-1.4 1.1c0 0-1.4-.3-1.4-.3c.1-1.1 1.1-2.1 2.8-2.1c2 0 2.8 1.1 2.8 2.4c0 0 0 3.3 0 3.3c0 .6 0 1 0 1.1c0 0-1.4 0-1.4 0c0-.1-.1-.4-.1-.9c-.3.5-1 1.1-2 1.1c-1.4 0-2.2-1-2.2-2c0-1.2.8-1.8 1.9-2zm2.2 1c.01.03 0-.3 0-.3c0 0-1.7.29-1.7.3c-.5.1-.9.3-.9.9c0 .4.4.8 1 .8c.9 0 1.6-.4 1.6-1.7zm4.4 2.7c.1.9.7 1.5 1.6 1.5c1.3 0 1.9-.7 1.9-2c0 0 0-.7 0-.7c-.3.5-.9 1-1.9 1c-1.7 0-3-1.4-3-3.2c0-1.8 1.2-3.2 3-3.2c1 0 1.7.4 2 .9c-.05.02 0-.8 0-.8l1.5 0c0 0-.04 5.93 0 5.9c0 1.8-.9 3.4-3.4 3.4c-1.8 0-3-1.1-3.1-2.4c0 0 1.4-.4 1.4-.4zm3.6-3.4c0-1.2-.8-1.9-1.7-1.9c-1 0-1.8.7-1.8 1.9c0 1.1.7 1.8 1.8 1.8c1 0 1.7-.7 1.7-1.8zm4.9 3.5l-1.5 0l0-6.6l1.5 0c0 0 0 .86 0 .9c.4-.8 1.2-1.1 1.9-1.1c1.7 0 2.4 1.2 2.4 2.6c.02 0 0 4.2 0 4.2l-1.5 0c0 0-.04-3.93 0-3.9c0-.8-.4-1.5-1.4-1.5c-.9 0-1.4.7-1.4 1.6c.04-.04 0 3.8 0 3.8zm10.5-4.1c0-.7-.5-1.4-1.6-1.4c-1 0-1.5.7-1.6 1.4c0 0 3.2 0 3.2 0zm1.5 2.2c-.3 1.1-1.3 2.1-2.9 2.1c-1.8 0-3.4-1.3-3.4-3.6c0-2 1.6-3.4 3.2-3.4c2 0 3.2 1.3 3.2 3.4c0 .3 0 .5 0 .5c0 0-4.8 0-4.8 0c0 1 .8 1.7 1.8 1.7c.9 0 1.4-.5 1.6-1.1c0 0 1.3.4 1.3.4zm1.6 1.9l0-6.6l1.5 0c0 0 .02.82 0 .8c.4-.7 1.2-1 2-1c.8 0 1.6.4 1.9 1.2c.6-.9 1.3-1.2 2.2-1.2c1.2 0 2.3.7 2.3 2.5c-.01-.01 0 4.3 0 4.3l-1.5 0c0 0-.02-4.05 0-4.1c0-.7-.4-1.3-1.3-1.3c-.8 0-1.4.6-1.4 1.5c.05-.05 0 3.9 0 3.9l-1.5 0c0 0 .01-4.05 0-4.1c0-.7-.4-1.3-1.3-1.3c-.8 0-1.3.6-1.3 1.5c-.02-.05 0 3.9 0 3.9l-1.6 0zm16.1-4.1c0-.7-.5-1.4-1.6-1.4c-1 0-1.5.7-1.6 1.4c0 0 3.2 0 3.2 0zm1.5 2.2c-.3 1.1-1.4 2.1-2.9 2.1c-1.8 0-3.4-1.3-3.4-3.6c0-2 1.5-3.4 3.2-3.4c2 0 3.2 1.3 3.2 3.4c0 .3 0 .5 0 .5c0 0-4.8 0-4.8 0c0 1 .8 1.7 1.8 1.7c.9 0 1.4-.5 1.6-1.1c0 0 1.3.4 1.3.4zm3.2 1.9l-1.6 0l0-6.6l1.5 0c0 0 .03.86 0 .9c.5-.8 1.2-1.1 2-1.1c1.6 0 2.4 1.2 2.4 2.6c-.05 0 0 4.2 0 4.2l-1.6 0c0 0-.01-3.93 0-3.9c0-.8-.4-1.5-1.4-1.5c-.9 0-1.3.7-1.3 1.6c-.03-.04 0 3.8 0 3.8zm8.1-6.6l1.4 0l0 1.4l-1.4 0c0 0 .04 3.02 0 3c0 .6.3.8.9.8c.2 0 .5 0 .5 0c0 0 0 1.3 0 1.3c-.1 0-.4.1-.9.1c-1.3 0-2-.7-2-1.9c-.01-.02 0-3.3 0-3.3l-1.2 0l0-1.4c0 0 .31-.02.3 0c.7 0 1-.5 1-1c.03-.04 0-1 0-1l1.4 0l0 2zm9.2 5.3c1 0 1.7-.8 1.7-2.1c0-1.2-.7-2-1.7-2c-1.1 0-1.8.8-1.8 2c0 1.3.7 2.1 1.8 2.1zm3.2.1c0 .5.1 1 .1 1.2c0 0-1.5 0-1.5 0c0-.2-.1-.6-.1-.9c-.3.6-1 1-1.9 1c-1.9 0-3.2-1.5-3.2-3.5c0-1.8 1.3-3.4 3.2-3.4c1.1 0 1.7.5 1.9 1c-.02-.05 0-4 0-4l1.5 0c0 0 .01 8.56 0 8.6zm3.6-2.6c0 0 1.7-.3 1.7-.3c.4 0 .5-.2.5-.4c0-.6-.4-1-1.3-1c-.8 0-1.2.5-1.3 1.1c0 0-1.4-.3-1.4-.3c.1-1.1 1.1-2.1 2.7-2.1c2.1 0 2.8 1.1 2.8 2.4c0 0 0 3.3 0 3.3c0 .6.1 1 .1 1.1c0 0-1.5 0-1.5 0c0-.1 0-.4 0-.9c-.3.5-1 1.1-2 1.1c-1.4 0-2.3-1-2.3-2c0-1.2.9-1.8 2-2zm2.2 1c-.01.03 0-.3 0-.3c0 0-1.73.29-1.7.3c-.5.1-.9.3-.9.9c0 .4.3.8 1 .8c.8 0 1.6-.4 1.6-1.7zm5 2.8l-1.6 0l0-6.6l1.5 0c0 0 .04.86 0 .9c.5-.8 1.3-1.1 2-1.1c1.6 0 2.4 1.2 2.4 2.6c-.04 0 0 4.2 0 4.2l-1.6 0c0 0-.01-3.93 0-3.9c0-.8-.4-1.5-1.4-1.5c-.8 0-1.3.7-1.3 1.6c-.02-.04 0 3.8 0 3.8zm6.9-2.2c.1.6.5 1.1 1.4 1.1c.6 0 1-.3 1-.7c0-.4-.3-.7-.8-.8c0 0-1-.2-1-.2c-1.1-.2-1.7-1-1.7-1.9c0-1.1 1-2.1 2.4-2.1c1.8 0 2.4 1.2 2.5 1.8c0 0-1.3.4-1.3.4c-.1-.4-.3-1-1.2-1c-.6 0-1 .4-1 .8c0 .3.3.6.7.7c0 0 1 .2 1 .2c1.2.2 1.9 1 1.9 2c0 1-.8 2.1-2.5 2.1c-1.9 0-2.6-1.3-2.7-2c0 0 1.3-.4 1.3-.4zm8.8 2.2l0-9.8l1.5 0l0 9.8l-1.5 0zm5.1-3.8c0 0 1.7-.3 1.7-.3c.4 0 .5-.2.5-.4c0-.6-.4-1-1.2-1c-.9 0-1.3.5-1.4 1.1c0 0-1.4-.3-1.4-.3c.1-1.1 1.1-2.1 2.7-2.1c2.1 0 2.8 1.1 2.8 2.4c0 0 0 3.3 0 3.3c0 .6.1 1 .1 1.1c0 0-1.4 0-1.4 0c-.1-.1-.1-.4-.1-.9c-.3.5-1 1.1-2 1.1c-1.4 0-2.3-1-2.3-2c0-1.2.9-1.8 2-2zm2.2 1c0 .03 0-.3 0-.3c0 0-1.72.29-1.7.3c-.5.1-.9.3-.9.9c0 .4.3.8 1 .8c.8 0 1.6-.4 1.6-1.7zm9.6 1.5c1 0 1.7-.8 1.7-2.1c0-1.2-.7-2-1.7-2c-1 0-1.8.8-1.8 2c0 1.3.7 2.1 1.8 2.1zm3.2.1c0 .5.1 1 .1 1.2c0 0-1.5 0-1.5 0c0-.2 0-.6 0-.9c-.4.6-1 1-2 1c-1.9 0-3.1-1.5-3.1-3.5c0-1.8 1.2-3.4 3.1-3.4c1.1 0 1.7.5 1.9 1c.02-.05 0-4 0-4l1.5 0c0 0 .05 8.56 0 8.6zm6.3.4c-.3.6-1.1.9-1.8.9c-1.6 0-2.5-1.1-2.5-2.6c-.01.03 0-4.1 0-4.1l1.6 0c0 0-.04 3.84 0 3.8c0 .9.3 1.5 1.3 1.5c.9 0 1.4-.6 1.4-1.4c-.04-.03 0-3.9 0-3.9l1.5 0c0 0 .02 5.36 0 5.4c0 .5.1.9.1 1.2c0 0-1.5 0-1.5 0c0-.2-.1-.5-.1-.8c0 0 0 0 0 0zm7.4-4.3c-.2 0-.4 0-.5 0c-1.2 0-1.8.7-1.8 1.9c.02.02 0 3.2 0 3.2l-1.5 0l0-6.6l1.5 0c0 0-.03 1.03 0 1c.3-.7 1-1.1 1.9-1.1c.2 0 .3 0 .4 0c0 0 0 1.6 0 1.6zm4.5-2.3l-1.3 0l1.2-2l1.9 0l-1.8 2zm1.1 3.3c-.1-.7-.6-1.4-1.7-1.4c-.9 0-1.5.7-1.6 1.4c0 0 3.3 0 3.3 0zm1.5 2.2c-.4 1.1-1.4 2.1-3 2.1c-1.8 0-3.4-1.3-3.4-3.6c0-2 1.6-3.4 3.2-3.4c2.1 0 3.2 1.3 3.2 3.4c0 .3 0 .5 0 .5c0 0-4.8 0-4.8 0c0 1 .8 1.7 1.8 1.7c.9 0 1.4-.5 1.6-1.1c0 0 1.4.4 1.4.4zm5.9-2.2c-.1-.7-.6-1.4-1.7-1.4c-.9 0-1.5.7-1.6 1.4c0 0 3.3 0 3.3 0zm1.5 2.2c-.4 1.1-1.4 2.1-3 2.1c-1.8 0-3.4-1.3-3.4-3.6c0-2 1.6-3.4 3.2-3.4c2 0 3.2 1.3 3.2 3.4c0 .3 0 .5 0 .5c0 0-4.8 0-4.8 0c0 1 .8 1.7 1.8 1.7c.9 0 1.4-.5 1.6-1.1c0 0 1.4.4 1.4.4zm2.3-.3c.7 0 1.2.5 1.2 1.1c0 .7-.5 1.1-1.2 1.1c-.6 0-1-.4-1-1.1c0-.6.4-1.1 1-1.1z" stroke="none" fill="#144542"/></g><g id="Polygon174603"><path d="m3.2 41.6l0-2.7l1.4 0l0 2.7l2.5 0l0 1.3l-2.5 0l0 2.6l-1.4 0l0-2.6l-2.5 0l0-1.3l2.5 0zm13.3 3.8c-.4.6-1.1.9-1.9.9c-1.6 0-2.5-1.1-2.5-2.6c.01.03 0-4.1 0-4.1l1.6 0c0 0-.03 3.84 0 3.8c0 .9.4 1.5 1.3 1.5c.9 0 1.4-.6 1.4-1.4c-.02-.03 0-3.9 0-3.9l1.5 0c0 0 .04 5.36 0 5.4c0 .5.1.9.1 1.2c0 0-1.5 0-1.5 0c0-.2 0-.5 0-.8c0 0 0 0 0 0zm5 .8l-1.5 0l0-6.6l1.5 0c0 0-.01.86 0 .9c.4-.8 1.2-1.1 1.9-1.1c1.6 0 2.4 1.2 2.4 2.6c.01 0 0 4.2 0 4.2l-1.6 0c0 0 .05-3.93 0-3.9c0-.8-.3-1.5-1.3-1.5c-.9 0-1.4.7-1.4 1.6c.03-.04 0 3.8 0 3.8zm10.5-4.1c0-.7-.5-1.4-1.6-1.4c-1 0-1.5.7-1.6 1.4c0 0 3.2 0 3.2 0zm1.5 2.2c-.3 1.1-1.4 2.1-2.9 2.1c-1.8 0-3.4-1.3-3.4-3.6c0-2 1.5-3.4 3.2-3.4c2 0 3.2 1.3 3.2 3.4c0 .3 0 .5 0 .5c0 0-4.8 0-4.8 0c0 1 .8 1.7 1.8 1.7c.9 0 1.4-.5 1.6-1.1c0 0 1.3.4 1.3.4zm6.9-5.6c0 .02 0 .9 0 .9l1.5 0l0 1.3l-1.5 0l0 5.3l-1.6 0l0-5.3l-1.1 0l0-1.3l1.1 0c0 0 .03-.92 0-.9c0-1.5 1-2.4 2.3-2.4c.4 0 .7.1.8.2c0 0 0 1.3 0 1.3c-.1 0-.2-.1-.5-.1c-.4 0-1 .2-1 1zm7.3 4.2c0-1.4-.9-2.1-1.8-2.1c-1 0-1.9.7-1.9 2.1c0 1.3.9 2.1 1.9 2.1c.9 0 1.8-.8 1.8-2.1zm1.6 0c0 2-1.5 3.5-3.4 3.5c-2 0-3.4-1.5-3.4-3.5c0-2.1 1.4-3.5 3.4-3.5c1.9 0 3.4 1.4 3.4 3.5zm5.3-1.8c-.1 0-.3 0-.5 0c-1.2 0-1.7.7-1.7 1.9c-.04.02 0 3.2 0 3.2l-1.6 0l0-6.6l1.5 0c0 0 .02 1.03 0 1c.3-.7 1.1-1.1 1.9-1.1c.2 0 .4 0 .4 0c0 0 0 1.6 0 1.6zm1.4 5.1l0-6.6l1.5 0c0 0-.05.82 0 .8c.3-.7 1.2-1 1.9-1c.9 0 1.6.4 2 1.2c.5-.9 1.3-1.2 2.1-1.2c1.2 0 2.3.7 2.3 2.5c.02-.01 0 4.3 0 4.3l-1.5 0c0 0 .01-4.05 0-4.1c0-.7-.4-1.3-1.3-1.3c-.8 0-1.3.6-1.3 1.5c-.02-.05 0 3.9 0 3.9l-1.6 0c0 0 .04-4.05 0-4.1c0-.7-.3-1.3-1.2-1.3c-.9 0-1.4.6-1.4 1.5c.01-.05 0 3.9 0 3.9l-1.5 0zm13.3-3.8c0 0 1.7-.3 1.7-.3c.4 0 .5-.2.5-.4c0-.6-.4-1-1.2-1c-.9 0-1.3.5-1.4 1.1c0 0-1.4-.3-1.4-.3c.1-1.1 1.1-2.1 2.7-2.1c2.1 0 2.8 1.1 2.8 2.4c0 0 0 3.3 0 3.3c0 .6.1 1 .1 1.1c0 0-1.4 0-1.4 0c-.1-.1-.1-.4-.1-.9c-.3.5-1 1.1-2 1.1c-1.4 0-2.3-1-2.3-2c0-1.2.9-1.8 2-2zm2.2 1c0 .03 0-.3 0-.3c0 0-1.72.29-1.7.3c-.5.1-.9.3-.9.9c0 .4.3.8 1 .8c.8 0 1.6-.4 1.6-1.7zm5.4-3.8l1.3 0l0 1.4l-1.3 0c0 0-.02 3.02 0 3c0 .6.2.8.8.8c.2 0 .5 0 .6 0c0 0 0 1.3 0 1.3c-.1 0-.4.1-1 .1c-1.2 0-2-.7-2-1.9c.03-.02 0-3.3 0-3.3l-1.2 0l0-1.4c0 0 .35-.02.4 0c.7 0 1-.5 1-1c-.04-.04 0-1 0-1l1.4 0l0 2zm3 6.6l0-6.6l1.5 0l0 6.6l-1.5 0zm.7-10c.6 0 1 .5 1 1.1c0 .5-.4 1-1 1c-.5 0-1-.5-1-1c0-.6.5-1.1 1-1.1zm7.6 6.7c0-1.4-.9-2.1-1.9-2.1c-.9 0-1.8.7-1.8 2.1c0 1.3.9 2.1 1.8 2.1c1 0 1.9-.8 1.9-2.1zm1.5 0c0 2-1.4 3.5-3.4 3.5c-1.9 0-3.4-1.5-3.4-3.5c0-2.1 1.5-3.5 3.4-3.5c2 0 3.4 1.4 3.4 3.5zm3.1 3.3l-1.6 0l0-6.6l1.6 0c0 0-.03.86 0 .9c.4-.8 1.2-1.1 1.9-1.1c1.6 0 2.4 1.2 2.4 2.6c-.01 0 0 4.2 0 4.2l-1.6 0c0 0 .03-3.93 0-3.9c0-.8-.3-1.5-1.3-1.5c-.9 0-1.4.7-1.4 1.6c.01-.04 0 3.8 0 3.8zm11.1-3.8c0 0 1.7-.3 1.7-.3c.4 0 .5-.2.5-.4c0-.6-.4-1-1.2-1c-.9 0-1.3.5-1.4 1.1c0 0-1.4-.3-1.4-.3c.1-1.1 1.1-2.1 2.7-2.1c2.1 0 2.8 1.1 2.8 2.4c0 0 0 3.3 0 3.3c0 .6.1 1 .1 1.1c0 0-1.4 0-1.4 0c-.1-.1-.1-.4-.1-.9c-.3.5-1 1.1-2 1.1c-1.4 0-2.3-1-2.3-2c0-1.2.9-1.8 2-2zm2.2 1c0 .03 0-.3 0-.3c0 0-1.72.29-1.7.3c-.5.1-.9.3-.9.9c0 .4.3.8 1 .8c.8 0 1.6-.4 1.6-1.7zm6.2 1.5c1.1 0 1.8-.8 1.8-2.1c0-1.2-.7-2-1.8-2c-1 0-1.7.8-1.7 2c0 1.3.7 2.1 1.7 2.1zm3.3.1c0 .5 0 1 .1 1.2c0 0-1.5 0-1.5 0c-.1-.2-.1-.6-.1-.9c-.3.6-1 1-1.9 1c-1.9 0-3.2-1.5-3.2-3.5c0-1.8 1.3-3.4 3.1-3.4c1.2 0 1.8.5 2 1c-.04-.05 0-4 0-4l1.5 0c0 0-.02 8.56 0 8.6zm3.6-2.6c0 0 1.7-.3 1.7-.3c.4 0 .5-.2.5-.4c0-.6-.4-1-1.3-1c-.8 0-1.3.5-1.3 1.1c0 0-1.5-.3-1.5-.3c.2-1.1 1.2-2.1 2.8-2.1c2 0 2.8 1.1 2.8 2.4c0 0 0 3.3 0 3.3c0 .6.1 1 .1 1.1c0 0-1.5 0-1.5 0c0-.1 0-.4 0-.9c-.4.5-1 1.1-2.1 1.1c-1.3 0-2.2-1-2.2-2c0-1.2.9-1.8 2-2zm2.2 1c-.04.03 0-.3 0-.3c0 0-1.75.29-1.8.3c-.4.1-.8.3-.8.9c0 .4.3.8.9.8c.9 0 1.7-.4 1.7-1.7zm3.4 5.3l0-9.1l1.5 0c0 0 0 .87 0 .9c.3-.6 1.1-1.1 2.1-1.1c1.9 0 3 1.5 3 3.5c0 1.9-1.2 3.4-3.1 3.4c-.9 0-1.6-.4-2-.9c.04.01 0 3.3 0 3.3l-1.5 0zm5.1-5.8c0-1.3-.7-2.1-1.8-2.1c-1 0-1.8.8-1.8 2.1c0 1.2.8 2 1.8 2c1 0 1.8-.8 1.8-2c0 0 0 0 0 0zm5-3.3l1.4 0l0 1.4l-1.4 0c0 0-.01 3.02 0 3c0 .6.2.8.8.8c.2 0 .5 0 .6 0c0 0 0 1.3 0 1.3c-.1 0-.4.1-1 .1c-1.2 0-2-.7-2-1.9c.04-.02 0-3.3 0-3.3l-1.2 0l0-1.4c0 0 .36-.02.4 0c.7 0 1-.5 1-1c-.03-.04 0-1 0-1l1.4 0l0 2zm6.2-.8l-1.3 0l1.2-2l1.8 0l-1.7 2zm1 3.3c0-.7-.5-1.4-1.6-1.4c-1 0-1.6.7-1.6 1.4c0 0 3.2 0 3.2 0zm1.5 2.2c-.3 1.1-1.4 2.1-3 2.1c-1.7 0-3.3-1.3-3.3-3.6c0-2 1.5-3.4 3.2-3.4c2 0 3.2 1.3 3.2 3.4c0 .3 0 .5 0 .5c0 0-4.9 0-4.9 0c.1 1 .9 1.7 1.8 1.7c1 0 1.5-.5 1.7-1.1c0 0 1.3.4 1.3.4zm5.9-2.2c0-.7-.5-1.4-1.6-1.4c-1 0-1.6.7-1.6 1.4c0 0 3.2 0 3.2 0zm1.5 2.2c-.3 1.1-1.4 2.1-3 2.1c-1.7 0-3.3-1.3-3.3-3.6c0-2 1.5-3.4 3.2-3.4c2 0 3.2 1.3 3.2 3.4c0 .3 0 .5-.1.5c0 0-4.8 0-4.8 0c.1 1 .9 1.7 1.8 1.7c1 0 1.5-.5 1.7-1.1c0 0 1.3.4 1.3.4z" stroke="none" fill="#144542"/></g><g id="Polygon174602"><path d="m1 26.6c.04.02 0-6.2 0-6.2l1.6 0c0 0 .05 6.13 0 6.1c0 1.4.8 2.1 2 2.1c1.2 0 2-.7 2-2.1c-.04.03 0-6.1 0-6.1l1.6 0c0 0-.02 6.22 0 6.2c0 2.3-1.6 3.6-3.6 3.6c-2 0-3.6-1.3-3.6-3.6zm10.7 3.4l-1.5 0l0-6.6l1.5 0c0 0-.01.86 0 .9c.4-.8 1.2-1.1 1.9-1.1c1.6 0 2.4 1.2 2.4 2.6c.01 0 0 4.2 0 4.2l-1.6 0c0 0 .05-3.93 0-3.9c0-.8-.3-1.5-1.3-1.5c-.9 0-1.4.7-1.4 1.6c.03-.04 0 3.8 0 3.8zm10.5-4.1c0-.7-.5-1.4-1.6-1.4c-1 0-1.5.7-1.6 1.4c0 0 3.2 0 3.2 0zm1.5 2.2c-.3 1.1-1.4 2.1-2.9 2.1c-1.8 0-3.4-1.3-3.4-3.6c0-2 1.5-3.4 3.2-3.4c2 0 3.2 1.3 3.2 3.4c0 .3 0 .5 0 .5c0 0-4.8 0-4.8 0c0 1 .8 1.7 1.8 1.7c.9 0 1.4-.5 1.6-1.1c0 0 1.3.4 1.3.4zm5 4.4l0-9.1l1.5 0c0 0-.03.87 0 .9c.3-.6 1.1-1.1 2.1-1.1c1.9 0 3 1.5 3 3.5c0 1.9-1.2 3.4-3.1 3.4c-.9 0-1.7-.4-2-.9c.01.01 0 3.3 0 3.3l-1.5 0zm5-5.8c0-1.3-.7-2.1-1.7-2.1c-1.1 0-1.8.8-1.8 2.1c0 1.2.7 2 1.8 2c1 0 1.7-.8 1.7-2c0 0 0 0 0 0zm7-1.8c-.2 0-.4 0-.6 0c-1.2 0-1.7.7-1.7 1.9c-.02.02 0 3.2 0 3.2l-1.6 0l0-6.6l1.5 0c0 0 .04 1.03 0 1c.3-.7 1.1-1.1 1.9-1.1c.2 0 .4 0 .5 0c0 0 0 1.6 0 1.6zm4.5-2.3l-1.3 0l1.2-2l1.8 0l-1.7 2zm1 3.3c0-.7-.5-1.4-1.6-1.4c-1 0-1.5.7-1.6 1.4c0 0 3.2 0 3.2 0zm1.5 2.2c-.3 1.1-1.4 2.1-2.9 2.1c-1.8 0-3.4-1.3-3.4-3.6c0-2 1.5-3.4 3.2-3.4c2 0 3.2 1.3 3.2 3.4c0 .3 0 .5 0 .5c0 0-4.8 0-4.8 0c0 1 .8 1.7 1.8 1.7c.9 0 1.4-.5 1.6-1.1c0 0 1.3.4 1.3.4zm1.6 4.4l0-9.1l1.5 0c0 0 .01.87 0 .9c.3-.6 1.1-1.1 2.1-1.1c2 0 3 1.5 3 3.5c0 1.9-1.2 3.4-3 3.4c-1 0-1.7-.4-2-.9c-.05.01 0 3.3 0 3.3l-1.6 0zm5.1-5.8c0-1.3-.7-2.1-1.8-2.1c-1 0-1.8.8-1.8 2.1c0 1.2.8 2 1.8 2c1 0 1.8-.8 1.8-2c0 0 0 0 0 0zm4.6-.5c0 0 1.7-.3 1.7-.3c.4 0 .5-.2.5-.4c0-.6-.4-1-1.2-1c-.9 0-1.3.5-1.4 1.1c0 0-1.4-.3-1.4-.3c.1-1.1 1.1-2.1 2.8-2.1c2 0 2.7 1.1 2.7 2.4c0 0 0 3.3 0 3.3c0 .6.1 1 .1 1.1c0 0-1.4 0-1.4 0c0-.1-.1-.4-.1-.9c-.3.5-1 1.1-2 1.1c-1.4 0-2.2-1-2.2-2c0-1.2.8-1.8 1.9-2zm2.2 1c.01.03 0-.3 0-.3c0 0-1.71.29-1.7.3c-.5.1-.9.3-.9.9c0 .4.4.8 1 .8c.9 0 1.6-.4 1.6-1.7zm7.3-2.3c-.2 0-.4 0-.5 0c-1.2 0-1.8.7-1.8 1.9c0 .02 0 3.2 0 3.2l-1.6 0l0-6.6l1.6 0c0 0-.04 1.03 0 1c.3-.7 1-1.1 1.9-1.1c.2 0 .3 0 .4 0c0 0 0 1.6 0 1.6zm2.9 1.3c0 0 1.7-.3 1.7-.3c.4 0 .5-.2.5-.4c0-.6-.4-1-1.3-1c-.8 0-1.3.5-1.3 1.1c0 0-1.5-.3-1.5-.3c.2-1.1 1.2-2.1 2.8-2.1c2 0 2.8 1.1 2.8 2.4c0 0 0 3.3 0 3.3c0 .6.1 1 .1 1.1c0 0-1.5 0-1.5 0c0-.1 0-.4 0-.9c-.4.5-1 1.1-2.1 1.1c-1.3 0-2.2-1-2.2-2c0-1.2.9-1.8 2-2zm2.2 1c-.04.03 0-.3 0-.3c0 0-1.75.29-1.8.3c-.4.1-.8.3-.8.9c0 .4.3.8.9.8c.9 0 1.7-.4 1.7-1.7zm5.3-3.8l1.4 0l0 1.4l-1.4 0c0 0 .05 3.02 0 3c0 .6.3.8.9.8c.2 0 .5 0 .5 0c0 0 0 1.3 0 1.3c-.1 0-.4.1-.9.1c-1.2 0-2-.7-2-1.9c0-.02 0-3.3 0-3.3l-1.2 0l0-1.4c0 0 .32-.02.3 0c.7 0 1-.5 1-1c.03-.04 0-1 0-1l1.4 0l0 2zm3 6.6l0-6.6l1.6 0l0 6.6l-1.6 0zm.8-10c.6 0 1 .5 1 1.1c0 .5-.4 1-1 1c-.6 0-1-.5-1-1c0-.6.4-1.1 1-1.1zm7.5 6.7c0-1.4-.8-2.1-1.8-2.1c-1 0-1.9.7-1.9 2.1c0 1.3.9 2.1 1.9 2.1c1 0 1.8-.8 1.8-2.1zm1.6 0c0 2-1.4 3.5-3.4 3.5c-2 0-3.4-1.5-3.4-3.5c0-2.1 1.4-3.5 3.4-3.5c2 0 3.4 1.4 3.4 3.5zm3.1 3.3l-1.6 0l0-6.6l1.5 0c0 0 .04.86 0 .9c.5-.8 1.3-1.1 2-1.1c1.6 0 2.4 1.2 2.4 2.6c-.04 0 0 4.2 0 4.2l-1.6 0c0 0-.01-3.93 0-3.9c0-.8-.4-1.5-1.4-1.5c-.9 0-1.3.7-1.3 1.6c-.02-.04 0 3.8 0 3.8zm10.6-3.3c0 1.3.8 2 1.8 2c1 0 1.5-.7 1.6-1.2c0 0 1.4.5 1.4.5c-.3 1-1.3 2.2-3 2.2c-1.9 0-3.4-1.5-3.4-3.5c0-2.1 1.5-3.5 3.4-3.5c1.7 0 2.7 1.1 3 2.1c0 0-1.4.6-1.4.6c-.2-.6-.6-1.3-1.6-1.3c-1 0-1.8.7-1.8 2.1zm6.2 3.3l0-6.6l1.6 0l0 6.6l-1.6 0zm.8-10c.5 0 1 .5 1 1.1c0 .5-.5 1-1 1c-.6 0-1-.5-1-1c0-.6.4-1.1 1-1.1zm2.8 10l0-9.8l1.5 0c0 0 .03 3.99 0 4c.3-.5 1.1-1 2.1-1c2 0 3 1.5 3 3.4c0 2-1.1 3.5-3.1 3.5c-.9 0-1.6-.4-2-1c.01-.02 0 .9 0 .9l-1.5 0zm3.3-5.4c-1 0-1.8.7-1.8 2c0 1.3.8 2.1 1.8 2.1c1 0 1.8-.8 1.8-2.1c0-1.3-.8-2-1.8-2zm4.8 5.4l0-9.8l1.6 0l0 9.8l-1.6 0zm6.9-7.4l-1.3 0l1.2-2l1.9 0l-1.8 2zm1.1 3.3c-.1-.7-.6-1.4-1.7-1.4c-1 0-1.5.7-1.6 1.4c0 0 3.3 0 3.3 0zm1.5 2.2c-.4 1.1-1.4 2.1-3 2.1c-1.8 0-3.4-1.3-3.4-3.6c0-2 1.6-3.4 3.2-3.4c2 0 3.2 1.3 3.2 3.4c0 .3 0 .5 0 .5c0 0-4.8 0-4.8 0c0 1 .8 1.7 1.8 1.7c.9 0 1.4-.5 1.6-1.1c0 0 1.4.4 1.4.4zm5.9-2.2c-.1-.7-.6-1.4-1.7-1.4c-1 0-1.5.7-1.6 1.4c0 0 3.3 0 3.3 0zm1.4 2.2c-.3 1.1-1.3 2.1-2.9 2.1c-1.8 0-3.4-1.3-3.4-3.6c0-2 1.6-3.4 3.2-3.4c2 0 3.2 1.3 3.2 3.4c0 .3 0 .5 0 .5c0 0-4.8 0-4.8 0c0 1 .8 1.7 1.8 1.7c.9 0 1.4-.5 1.6-1.1c0 0 1.3.4 1.3.4z" stroke="none" fill="#144542"/></g><g id="Polygon174601"><path d="m8.3 10.9c0 0-.09-1.19-.1-1.2c-.4.7-1.4 1.4-2.9 1.4c-2.5 0-4.7-1.8-4.7-5c0-3.1 2.3-5 4.8-5c2.3 0 3.8 1.4 4.3 3c0 0-1.5.5-1.5.5c-.3-1-1.3-2-2.8-2c-1.6 0-3.2 1.2-3.2 3.5c0 2.4 1.5 3.5 3.2 3.5c1.9 0 2.6-1.3 2.7-2.1c.01-.01-3.1 0-3.1 0l0-1.4l4.6 0l0 4.8l-1.3 0zm7-5c-.2 0-.3 0-.5 0c-1.2 0-1.8.7-1.8 1.9c.03-.01 0 3.1 0 3.1l-1.5 0l0-6.6l1.5 0c0 0-.01 1.1 0 1.1c.3-.7 1-1.1 1.9-1.1c.2 0 .3 0 .4 0c0 0 0 1.6 0 1.6zm2.9 1.3c0 0 1.7-.3 1.7-.3c.4-.1.5-.2.5-.5c0-.5-.4-1-1.3-1c-.8 0-1.2.6-1.3 1.2c0 0-1.4-.3-1.4-.3c.1-1.1 1.1-2.2 2.7-2.2c2.1 0 2.8 1.2 2.8 2.5c0 0 0 3.3 0 3.3c0 .6.1 1 .1 1c0 0-1.5 0-1.5 0c0 0 0-.3 0-.8c-.3.5-1 1-2 1c-1.4 0-2.3-.9-2.3-2c0-1.1.9-1.8 2-1.9zm2.2 1c-.01-.01 0-.3 0-.3c0 0-1.73.25-1.7.3c-.5 0-.9.3-.9.8c0 .5.3.9 1 .9c.8 0 1.6-.4 1.6-1.7zm-3.5-4.7l1.5-1.9l1.6 0l1.5 1.9l-1.4 0l-.9-1l-1 1l-1.3 0zm8 4.1c0 1.4.8 2.1 1.8 2.1c1 0 1.5-.7 1.6-1.2c0 0 1.4.5 1.4.5c-.3 1-1.3 2.1-3 2.1c-1.9 0-3.4-1.5-3.4-3.5c0-2 1.5-3.5 3.3-3.5c1.8 0 2.8 1.2 3.1 2.2c0 0-1.4.5-1.4.5c-.2-.6-.6-1.2-1.6-1.2c-1 0-1.8.7-1.8 2zm10.5-.7c-.1-.8-.6-1.4-1.7-1.4c-.9 0-1.5.7-1.6 1.4c0 0 3.3 0 3.3 0zm1.5 2.1c-.4 1.2-1.4 2.1-3 2.1c-1.8 0-3.4-1.3-3.4-3.5c0-2.1 1.6-3.5 3.2-3.5c2 0 3.2 1.4 3.2 3.5c0 .2 0 .4 0 .5c0 0-4.8 0-4.8 0c0 1 .8 1.7 1.8 1.7c.9 0 1.4-.5 1.6-1.2c0 0 1.4.4 1.4.4zm6.5-1.8c0 0 1.6-.3 1.6-.3c.4-.1.5-.2.5-.5c0-.5-.3-1-1.2-1c-.8 0-1.3.6-1.4 1.2c0 0-1.4-.3-1.4-.3c.1-1.1 1.2-2.2 2.8-2.2c2 0 2.8 1.2 2.8 2.5c0 0 0 3.3 0 3.3c0 .6 0 1 .1 1c0 0-1.5 0-1.5 0c0 0-.1-.3-.1-.8c-.3.5-.9 1-2 1c-1.4 0-2.2-.9-2.2-2c0-1.1.8-1.8 2-1.9zm2.1 1c.04-.01 0-.3 0-.3c0 0-1.68.25-1.7.3c-.5 0-.9.3-.9.8c0 .5.4.9 1 .9c.9 0 1.6-.4 1.6-1.7zm-3.4-6.7l1.9 0l1.2 2l-1.3 0l-1.8-2zm11.3 7.3c.5 0 1 .5 1 1.1c0 .6-.5 1.1-1 1.1c-.7 0-1.1-.5-1.1-1.1c0-.6.4-1.1 1.1-1.1zm-.1-4.5c.6 0 1.1.5 1.1 1.1c0 .6-.5 1-1.1 1c-.6 0-1.1-.4-1.1-1c0-.6.5-1.1 1.1-1.1z" stroke="none" fill="#144542"/></g></svg>