<?xml version="1.0" standalone="no"?><!DOCTYPE svg PUBLIC "-//W3C//DTD SVG 1.1//EN" "http://www.w3.org/Graphics/SVG/1.1/DTD/svg11.dtd"><svg xmlns="http://www.w3.org/2000/svg" version="1.1" width="52px" height="17.1px" viewBox="0 -3 52 17.1" style="top:-3px"><desc>formation</desc><defs/><g id="Polygon181676"><path d="m2.4 2.8c-.01.02 0 .7 0 .7l1.2 0l0 1.1l-1.2 0l0 4.2l-1.3 0l0-4.2l-.9 0l0-1.1l.9 0c0 0 .02-.71 0-.7c0-1.2.8-1.9 1.9-1.9c.3 0 .6 0 .6.1c0 0 0 1.1 0 1.1c0-.1-.2-.1-.4-.1c-.4 0-.8.2-.8.8zm5.9 3.4c0-1.1-.7-1.7-1.5-1.7c-.8 0-1.5.6-1.5 1.7c0 1.1.7 1.7 1.5 1.7c.8 0 1.5-.6 1.5-1.7zm1.3 0c0 1.6-1.2 2.8-2.8 2.8c-1.6 0-2.7-1.2-2.7-2.8c0-1.7 1.1-2.8 2.7-2.8c1.6 0 2.8 1.1 2.8 2.8zm4.3-1.4c-.1 0-.3-.1-.4-.1c-1 0-1.4.6-1.4 1.6c-.02.01 0 2.5 0 2.5l-1.3 0l0-5.3l1.2 0c0 0 .05.87 0 .9c.3-.6.9-.9 1.6-.9c.1 0 .3 0 .3 0c0 0 0 1.3 0 1.3zm1.1 4l0-5.3l1.2 0c0 0 0 .7 0 .7c.3-.5 1-.8 1.6-.8c.7 0 1.3.3 1.6.9c.4-.7 1-.9 1.7-.9c1 0 1.9.6 1.9 2c-.02-.01 0 3.4 0 3.4l-1.2 0c0 0-.04-3.2 0-3.2c0-.6-.4-1.1-1.1-1.1c-.6 0-1.1.5-1.1 1.2c.03-.01 0 3.1 0 3.1l-1.2 0c0 0-.02-3.2 0-3.2c0-.6-.3-1.1-1-1.1c-.7 0-1.2.5-1.2 1.2c.05-.01 0 3.1 0 3.1l-1.2 0zm10.8-3c0 0 1.4-.2 1.4-.2c.3-.1.4-.2.4-.4c0-.4-.3-.8-1-.8c-.7 0-1.1.4-1.1 1c0 0-1.2-.3-1.2-.3c.1-.9.9-1.7 2.3-1.7c1.6 0 2.2.9 2.2 1.9c0 0 0 2.7 0 2.7c0 .5.1.8.1.8c0 0-1.2 0-1.2 0c0 0 0-.2 0-.6c-.3.4-.8.8-1.7.8c-1.1 0-1.8-.8-1.8-1.6c0-.9.7-1.5 1.6-1.6zm1.8.8c-.02.04 0-.2 0-.2c0 0-1.41.2-1.4.2c-.4.1-.7.3-.7.7c0 .4.3.7.8.7c.7 0 1.3-.3 1.3-1.4zm4.3-3.1l1.1 0l0 1.1l-1.1 0c0 0 .04 2.52 0 2.5c0 .5.2.7.7.7c.2 0 .4 0 .5-.1c0 0 0 1.1 0 1.1c-.1 0-.4.1-.8.1c-1 0-1.6-.6-1.6-1.6c-.02.03 0-2.7 0-2.7l-1 0l0-1.1c0 0 .27.02.3 0c.5 0 .8-.3.8-.8c-.01-.01 0-.8 0-.8l1.1 0l0 1.6zm2.4 5.3l0-5.3l1.3 0l0 5.3l-1.3 0zm.7-8c.4 0 .8.4.8.9c0 .4-.4.8-.8.8c-.5 0-.8-.4-.8-.8c0-.5.3-.9.8-.9zm6.1 5.4c0-1.1-.7-1.7-1.5-1.7c-.8 0-1.5.6-1.5 1.7c0 1.1.7 1.7 1.5 1.7c.8 0 1.5-.6 1.5-1.7zm1.2 0c0 1.6-1.1 2.8-2.7 2.8c-1.6 0-2.8-1.2-2.8-2.8c0-1.7 1.2-2.8 2.8-2.8c1.6 0 2.7 1.1 2.7 2.8zm2.5 2.6l-1.2 0l0-5.3l1.2 0c0 0 .01.73 0 .7c.4-.6 1-.8 1.6-.8c1.3 0 1.9.9 1.9 2.1c.01-.02 0 3.3 0 3.3l-1.3 0c0 0 .04-3.1 0-3.1c0-.7-.3-1.2-1.1-1.2c-.7 0-1.1.6-1.1 1.3c.04-.03 0 3 0 3z" stroke="none" fill="#144542"/></g></svg>