<?xml version="1.0" standalone="no"?><!DOCTYPE svg PUBLIC "-//W3C//DTD SVG 1.1//EN" "http://www.w3.org/Graphics/SVG/1.1/DTD/svg11.dtd"><svg xmlns="http://www.w3.org/2000/svg" version="1.1" width="99.4px" height="83.6px" viewBox="0 -12 99.4 83.6" style="top:-12px"><desc>320</desc><defs/><g id="Polygon166509"><path d="m34.7 36.5c0 8.6-8.2 10.8-12.9 10.7c-8.4-.1-10.7-4.2-10.7-7.8c0-2.7 2.3-4.6 4.2-4.6c2.1 0 4.1 1.2 4.1 3.7c0 1.9-1.4 2.8-1.4 4.1c0 1.1.7 3.5 3.8 3.5c3.3 0 4.8-3.3 4.8-8.6c0-5.6-3.1-9-11.3-6.8c0 0-.4-.9-.4-.9c6-2.7 11.1-6.4 11.1-11.5c0-2.7-1.2-6.1-4.4-6.1c-2.4 0-3.9 1.7-3.9 3.2c0 2.3 2.1 2.8 2.1 4.9c0 1.8-1.5 3.1-3.2 3.1c-2.6 0-4.2-1.7-4.2-4.3c0-3.7 3.6-7.9 9.8-7.9c7 0 10.7 2.8 10.7 7.7c0 4-4.2 7.2-9.8 8.9c0 0 0 .3 0 .3c7.6-.6 11.6 3.2 11.6 8.4zm26.3-10.3c0 0-2.74 10.35-2.7 10.4c-1.2-.5-2.3-.7-6.7-.7c.01-.02-16.3 0-16.3 0c0 0 12.46-11.43 12.5-11.4c1.7-1.6 3.5-4.3 3.5-7c0-2.8-1.7-5.3-4.6-5.3c-2.1 0-4 1.1-4 2.9c0 2.2 2.1 2.7 2.1 4.8c0 1.8-1.5 3.2-3.3 3.2c-2.6 0-4.3-1.7-4.3-4.3c0-3.4 3.3-7.6 10.4-7.6c6.7 0 10.5 2.1 10.5 6.8c0 3.8-1.6 7.3-12.6 11.1c0 0 7.9 0 7.9 0c4.1 0 6-1.6 6.5-2.9c.04 0 1.1 0 1.1 0zm1.7-2.4c0-7 5-12.6 12.4-12.6c8 0 12.4 5.6 12.4 12.6c0 7-4.4 12.7-12.4 12.7c-7.4 0-12.4-5.7-12.4-12.7zm16.4 0c0-5.8-.3-11.6-4-11.6c-3.7 0-4 5.8-4 11.6c0 5.8.3 11.6 4 11.6c3.7 0 4-5.8 4-11.6z" stroke="none" fill="#144542"/></g></svg>