<?xml version="1.0" standalone="no"?><!DOCTYPE svg PUBLIC "-//W3C//DTD SVG 1.1//EN" "http://www.w3.org/Graphics/SVG/1.1/DTD/svg11.dtd"><svg xmlns="http://www.w3.org/2000/svg" version="1.1" width="111px" height="31.7px" viewBox="0 -2 111 31.7" style="top:-2px"><desc>Lire le t moignage entier</desc><defs/><g id="Polygon176661"><path d="m.8 7.3l0-6.4l.9 0l0 5.6l3 0l0 .8l-3.9 0zm4.9 0l0-4.3l.8 0l0 4.3l-.8 0zm.4-6.6c.3 0 .6.3.6.6c0 .3-.3.6-.6.6c-.4 0-.6-.3-.6-.6c0-.3.2-.6.6-.6zm4.2 3.1c-.1 0-.2 0-.3 0c-.7 0-1.2.4-1.2 1.3c-.03.01 0 2.2 0 2.2l-.9 0l0-4.3l.9 0c0 0-.04.71 0 .7c.3-.7.8-.8 1.3-.8c.1 0 .2 0 .2 0c0 0 0 .9 0 .9zm3.8.9c0-.7-.4-1.1-1.2-1.1c-.7 0-1.1.5-1.2 1.1c0 0 2.4 0 2.4 0zm.9 1.3c-.3.8-1 1.4-2 1.4c-1.1 0-2.2-.8-2.2-2.3c0-1.4 1-2.3 2.1-2.3c1.3 0 2.1.9 2.1 2.3c0 .1 0 .2 0 .3c0 0-3.3 0-3.3 0c0 .7.6 1.3 1.3 1.3c.7 0 1.1-.4 1.2-.9c0 0 .8.2.8.2zm3.3 1.3l0-6.5l.9 0l0 6.5l-.9 0zm5.2-2.6c0-.7-.4-1.1-1.2-1.1c-.7 0-1.1.5-1.2 1.1c0 0 2.4 0 2.4 0zm.9 1.3c-.3.8-1 1.4-2 1.4c-1.1 0-2.1-.8-2.1-2.3c0-1.4.9-2.3 2-2.3c1.4 0 2.1.9 2.1 2.3c0 .1 0 .2 0 .3c0 0-3.3 0-3.3 0c0 .7.6 1.3 1.3 1.3c.7 0 1.1-.4 1.2-.9c0 0 .8.2.8.2zm4.5-3l.9 0l0 .7l-.9 0c0 0-.04 2.27 0 2.3c0 .4.1.6.6.6c.1 0 .2-.1.3-.1c0 0 0 .7 0 .7c-.1.1-.3.1-.6.1c-.7 0-1.2-.4-1.2-1.2c.02-.01 0-2.4 0-2.4l-.8 0l0-.7c0 0 .22-.05.2 0c.5 0 .7-.3.7-.7c-.01-.01 0-.7 0-.7l.8 0l0 1.4zm4.9 1.7c0-.7-.4-1.1-1.2-1.1c-.7 0-1.1.5-1.2 1.1c0 0 2.4 0 2.4 0zm.8 1.3c-.2.8-.9 1.4-1.9 1.4c-1.2 0-2.2-.8-2.2-2.3c0-1.4 1-2.3 2.1-2.3c1.3 0 2.1.9 2.1 2.3c0 .1 0 .2 0 .3c0 0-3.3 0-3.3 0c0 .7.6 1.3 1.3 1.3c.7 0 1.1-.4 1.2-.9c0 0 .7.2.7.2zm-1.7-3.6l-.7 0l.8-1.3l1.1 0l-1.2 1.3zm2.9 4.9l0-4.3l.8 0c0 0-.03.53 0 .5c.2-.4.8-.7 1.3-.7c.5 0 1 .3 1.3.8c.3-.6.9-.8 1.4-.8c.8 0 1.5.5 1.5 1.7c.02-.03 0 2.8 0 2.8l-.8 0c0 0-.02-2.74 0-2.7c0-.6-.3-1-.9-1c-.6 0-1 .4-1 1.1c-.03-.04 0 2.6 0 2.6l-.9 0c0 0 .02-2.74 0-2.7c0-.6-.2-1-.9-1c-.6 0-1 .4-1 1.1c-.01-.03 0 2.6 0 2.6l-.8 0zm10.9-2.2c0-1-.7-1.5-1.4-1.5c-.7 0-1.3.5-1.3 1.5c0 1 .6 1.6 1.3 1.6c.7 0 1.4-.6 1.4-1.6zm.8 0c0 1.3-.9 2.3-2.2 2.3c-1.3 0-2.2-1-2.2-2.3c0-1.3.9-2.3 2.2-2.3c1.3 0 2.2 1 2.2 2.3zm1.1 2.2l0-4.3l.9 0l0 4.3l-.9 0zm.4-6.6c.4 0 .6.3.6.6c0 .3-.2.6-.6.6c-.3 0-.6-.3-.6-.6c0-.3.3-.6.6-.6zm2.4 6.6c.1.6.5 1.1 1.2 1.1c.9 0 1.3-.5 1.3-1.4c0 0 0-.6 0-.6c-.2.4-.7.7-1.3.7c-1.2 0-2-.9-2-2.1c0-1.2.8-2.1 2-2.1c.6 0 1.1.2 1.3.7c.01-.04 0-.6 0-.6l.8 0c0 0 .05 3.96 0 4c0 1.1-.5 2.1-2.1 2.1c-1.1 0-1.9-.7-2-1.6c0 0 .8-.2.8-.2zm2.5-2.3c0-.9-.5-1.4-1.2-1.4c-.7 0-1.2.5-1.2 1.4c0 .8.4 1.4 1.2 1.4c.7 0 1.2-.6 1.2-1.4zm3 2.3l-.8 0l0-4.3l.8 0c0 0 .02.57 0 .6c.3-.6.9-.8 1.4-.8c1 0 1.5.8 1.5 1.7c0 .04 0 2.8 0 2.8l-.8 0c0 0-.04-2.62 0-2.6c0-.6-.3-1.1-1-1.1c-.7 0-1.1.5-1.1 1.2c.04-.02 0 2.5 0 2.5zm4-1.2c0-.8.6-1.2 1.3-1.3c0 0 1.2-.2 1.2-.2c.2 0 .3-.1.3-.3c0-.4-.3-.8-.9-.8c-.6 0-1 .4-1 .9c0 0-.8-.2-.8-.2c.1-.8.8-1.4 1.7-1.4c1.3 0 1.8.8 1.8 1.6c0 0 0 2.2 0 2.2c0 .4.1.6.1.7c0 0-.8 0-.8 0c0-.1-.1-.3-.1-.6c-.2.3-.6.7-1.4.7c-.8 0-1.4-.6-1.4-1.3c0 0 0 0 0 0zm2.8-.7c0 .03 0-.2 0-.2c0 0-1.32.23-1.3.2c-.4.1-.7.3-.7.7c0 .3.3.6.8.6c.6 0 1.2-.3 1.2-1.3zm2.7 1.9c0 .6.5 1.1 1.1 1.1c1 0 1.4-.5 1.4-1.4c0 0 0-.6 0-.6c-.2.4-.7.7-1.4.7c-1.1 0-1.9-.9-1.9-2.1c0-1.2.8-2.1 1.9-2.1c.7 0 1.2.2 1.4.7c-.02-.04 0-.6 0-.6l.8 0c0 0 .01 3.96 0 4c0 1.1-.5 2.1-2.2 2.1c-1 0-1.8-.7-2-1.6c0 0 .9-.2.9-.2zm2.5-2.3c0-.9-.5-1.4-1.2-1.4c-.8 0-1.3.5-1.3 1.4c0 .8.5 1.4 1.3 1.4c.7 0 1.2-.6 1.2-1.4zm5.1-.3c0-.7-.4-1.1-1.2-1.1c-.7 0-1.2.5-1.2 1.1c0 0 2.4 0 2.4 0zm.8 1.3c-.2.8-.9 1.4-1.9 1.4c-1.2 0-2.2-.8-2.2-2.3c0-1.4 1-2.3 2.1-2.3c1.3 0 2.1.9 2.1 2.3c0 .1 0 .2-.1.3c0 0-3.2 0-3.2 0c0 .7.6 1.3 1.3 1.3c.7 0 1-.4 1.2-.9c0 0 .7.2.7.2zm6.3-1.3c0-.7-.4-1.1-1.2-1.1c-.7 0-1.1.5-1.2 1.1c0 0 2.4 0 2.4 0zm.9 1.3c-.3.8-1 1.4-2 1.4c-1.1 0-2.2-.8-2.2-2.3c0-1.4 1-2.3 2.1-2.3c1.3 0 2.1.9 2.1 2.3c0 .1 0 .2 0 .3c0 0-3.3 0-3.3 0c0 .7.6 1.3 1.3 1.3c.7 0 1.1-.4 1.2-.9c0 0 .8.2.8.2zm1.9 1.3l-.8 0l0-4.3l.8 0c0 0 0 .57 0 .6c.3-.6.8-.8 1.3-.8c1.1 0 1.6.8 1.6 1.7c-.02.04 0 2.8 0 2.8l-.9 0c0 0 .03-2.62 0-2.6c0-.6-.2-1.1-1-1.1c-.6 0-1 .5-1 1.2c.01-.02 0 2.5 0 2.5zm5.4-4.3l.9 0l0 .7l-.9 0c0 0-.04 2.27 0 2.3c0 .4.1.6.6.6c.1 0 .2-.1.3-.1c0 0 0 .7 0 .7c-.1.1-.3.1-.6.1c-.7 0-1.2-.4-1.2-1.2c.02-.01 0-2.4 0-2.4l-.8 0l0-.7c0 0 .22-.05.2 0c.5 0 .7-.3.7-.7c-.01-.01 0-.7 0-.7l.8 0l0 1.4zm2 4.3l0-4.3l.9 0l0 4.3l-.9 0zm.4-6.6c.4 0 .6.3.6.6c0 .3-.2.6-.6.6c-.3 0-.6-.3-.6-.6c0-.3.3-.6.6-.6zm4.8 4c0-.7-.4-1.1-1.2-1.1c-.7 0-1.1.5-1.2 1.1c0 0 2.4 0 2.4 0zm.9 1.3c-.3.8-1 1.4-2 1.4c-1.1 0-2.2-.8-2.2-2.3c0-1.4 1-2.3 2.1-2.3c1.4 0 2.1.9 2.1 2.3c0 .1 0 .2 0 .3c0 0-3.3 0-3.3 0c0 .7.6 1.3 1.3 1.3c.7 0 1.1-.4 1.2-.9c0 0 .8.2.8.2zm3.5-2.2c-.1 0-.3 0-.4 0c-.7 0-1.2.4-1.2 1.3c.02.01 0 2.2 0 2.2l-.8 0l0-4.3l.8 0c0 0 0 .71 0 .7c.3-.7.9-.8 1.3-.8c.1 0 .2 0 .3 0c0 0 0 .9 0 .9z" stroke="none" fill="#144542"/></g></svg>