<?xml version="1.0" standalone="no"?><!DOCTYPE svg PUBLIC "-//W3C//DTD SVG 1.1//EN" "http://www.w3.org/Graphics/SVG/1.1/DTD/svg11.dtd"><svg xmlns="http://www.w3.org/2000/svg" version="1.1" width="115.3px" height="57px" viewBox="0 -3 115.3 57" style="top:-3px"><desc>dont</desc><defs/><g id="Polygon180697"><path d="m49.6 7.8c.9 0 1.5-.8 1.5-1.9c0-1-.5-1.7-1.4-1.7c-1 0-1.5.7-1.5 1.8c0 1 .5 1.8 1.4 1.8zm1.5-.1c-.2.5-.8.9-1.6.9c-1.4 0-2.3-1.1-2.3-2.6c0-1.5.9-2.7 2.3-2.7c.9 0 1.4.4 1.6.9c-.01-.04 0-3.3 0-3.3l1 0c0 0-.04 6.66 0 6.7c0 .4 0 .8 0 .9c0 0-.9 0-.9 0c-.1-.1-.1-.4-.1-.7c0 0 0-.1 0-.1zm6.4-1.7c0-1.2-.8-1.8-1.6-1.8c-.8 0-1.6.6-1.6 1.8c0 1.1.8 1.8 1.6 1.8c.8 0 1.6-.7 1.6-1.8zm1 0c0 1.5-1.1 2.7-2.6 2.7c-1.5 0-2.6-1.2-2.6-2.7c0-1.6 1.1-2.7 2.6-2.7c1.5 0 2.6 1.1 2.6 2.7zm2.2 2.5l-.9 0l0-5.1l.9 0c0 0 .02.77 0 .8c.4-.7 1-.9 1.6-.9c1.2 0 1.8.9 1.8 2c-.02-.01 0 3.2 0 3.2l-1 0c0 0-.01-3.04 0-3c0-.7-.3-1.3-1.2-1.3c-.8 0-1.2.6-1.2 1.4c.04-.03 0 2.9 0 2.9zm6.3-5.1l1.1 0l0 .9l-1.1 0c0 0-.03 2.66 0 2.7c0 .4.2.7.7.7c.1 0 .3-.1.4-.1c0 0 0 .9 0 .9c-.1 0-.4 0-.7 0c-.9 0-1.4-.5-1.4-1.4c-.01.01 0-2.8 0-2.8l-1 0l0-.9c0 0 .3.04.3 0c.5 0 .8-.3.8-.7c-.03-.03 0-.9 0-.9l.9 0l0 1.6z" stroke="none" fill="#144542"/></g></svg>