<?xml version="1.0" standalone="no"?><!DOCTYPE svg PUBLIC "-//W3C//DTD SVG 1.1//EN" "http://www.w3.org/Graphics/SVG/1.1/DTD/svg11.dtd"><svg xmlns="http://www.w3.org/2000/svg" version="1.1" width="148.2px" height="56px" viewBox="0 -8 148.2 56" style="top:-8px"><desc>56</desc><defs/><g id="Polygon181150"><path d="m72.8 22.5c0 3.6-3 8.4-8.3 8.4c-5.3 0-6.7-2.6-6.7-4.9c0-1.9 1.3-3.4 2.6-3.4c1.3 0 2.7.8 2.5 2.6c-.1 1.1-1 1.6-1 2.6c0 1.6.9 2.3 2.5 2.3c2.1 0 3.8-1.8 4.1-5c.5-4-1.9-6.1-4.5-6.1c-2.2 0-3.3.9-4.4 1.8c-.02 0-.6 0-.6 0l2.3-13c0 0 6.74-.04 6.7 0c1.9 0 3.7-.6 4.4-2c-.02-.01.5 0 .5 0l-1.8 6.6l-10 0c0 0-.95 5.9-.9 5.9c1.6-2.2 3.7-3 6-3c4.3 0 6.6 3.7 6.6 7.2zm17.3-6.4c0 4.5-2.6 7.9-7.9 7.9c-5.9 0-8.1-5.2-8.1-9.8c0-7.3 5.3-13.2 14-13.8c0 0 .1.5.1.5c-4.7.9-8.4 5.9-9 9.6c1.2-1.3 2.6-1.9 4.7-1.9c3.6 0 6.2 3.7 6.2 7.5zm-5.5.9c0-3.1-.9-7.2-2.9-7.2c-2.1 0-2.2 3.3-2.2 6.2c0 3.8.9 7.2 3.2 7.2c2.1 0 1.9-4.6 1.9-6.2z" stroke="none" fill="#144542"/></g></svg>