<?xml version="1.0" standalone="no"?><!DOCTYPE svg PUBLIC "-//W3C//DTD SVG 1.1//EN" "http://www.w3.org/Graphics/SVG/1.1/DTD/svg11.dtd"><svg xmlns="http://www.w3.org/2000/svg" version="1.1" width="213.4px" height="28px" viewBox="0 -3 213.4 28" style="top:-3px"><desc>notre engagement</desc><defs/><g id="Polygon183967"><path d="m4.2 8.5l-2.8-4.3l0 4.3l-.7 0l0-5.2l.9 0l2.6 4l0-4l.7 0l0 5.2l-.7 0zm5.4-.6c1 0 1.9-.7 1.9-2c0-1.4-.9-2.1-1.9-2.1c-1 0-1.9.7-1.9 2.1c0 1.3.9 2 1.9 2zm0-4.7c1.3 0 2.6 1 2.6 2.7c0 1.7-1.3 2.7-2.6 2.7c-1.3 0-2.6-1-2.6-2.7c0-1.7 1.3-2.7 2.6-2.7zm6.4.8l0 4.5l-.8 0l0-4.5l-1.7 0l0-.7l4.2 0l0 .7l-1.7 0zm5 2.4l-.8 0l0 2.1l-.7 0l0-5.2c0 0 1.94-.01 1.9 0c1 0 1.6.7 1.6 1.5c0 .8-.4 1.4-1.2 1.5c-.03.01 1.2 2.2 1.2 2.2l-.8 0l-1.2-2.1zm.3-.7c.6 0 1-.3 1-.9c0-.5-.4-.9-1-.9c.01.03-1.1 0-1.1 0l0 1.8c0 0 1.11.01 1.1 0zm3.8 2.8l0-5.2l3.2 0l0 .7l-2.5 0l0 1.6l2.2 0l0 .6l-2.2 0l0 1.6l2.5 0l0 .7l-3.2 0zm9 0l0-5.2l3.1 0l0 .7l-2.4 0l0 1.6l2.2 0l0 .6l-2.2 0l0 1.6l2.4 0l0 .7l-3.1 0zm8.8 0l-2.8-4.3l0 4.3l-.7 0l0-5.2l1 0l2.6 4l0-4l.7 0l0 5.2l-.8 0zm7.1 0c0 0-.08-.74-.1-.7c-.2.4-.8.8-1.6.8c-1.4 0-2.6-1-2.6-2.7c0-1.8 1.3-2.7 2.6-2.7c1.1 0 2 .6 2.3 1.6c0 0-.6.2-.6.2c-.3-.7-.9-1.2-1.7-1.2c-.9 0-1.8.7-1.8 2.1c0 1.4.8 2 1.8 2c1.1 0 1.6-.8 1.6-1.3c-.01-.01-1.8 0-1.8 0l0-.7l2.5 0l0 2.6l-.6 0zm5.8-1.5l-2.3 0l-.6 1.5l-.8 0l2.1-5.2l.8 0l2.1 5.2l-.8 0l-.5-1.5zm-2.1-.6l1.8 0l-.9-2.4l-.9 2.4zm9 2.1c0 0-.11-.74-.1-.7c-.2.4-.8.8-1.7.8c-1.3 0-2.5-1-2.5-2.7c0-1.8 1.3-2.7 2.6-2.7c1.1 0 2 .6 2.3 1.6c0 0-.7.2-.7.2c-.2-.7-.8-1.2-1.6-1.2c-1 0-1.9.7-1.9 2.1c0 1.4.9 2 1.8 2c1.2 0 1.6-.8 1.6-1.3c.05-.01-1.8 0-1.8 0l0-.7l2.5 0l0 2.6l-.5 0zm2.7 0l0-5.2l3.2 0l0 .7l-2.5 0l0 1.6l2.2 0l0 .6l-2.2 0l0 1.6l2.5 0l0 .7l-3.2 0zm10.2 0l0-4.1l-1.8 4.1l-.6 0l-1.8-4.1l0 4.1l-.7 0l0-5.2l1 0l1.8 4.2l1.9-4.2l.9 0l0 5.2l-.7 0zm3.1 0l0-5.2l3.2 0l0 .7l-2.5 0l0 1.6l2.3 0l0 .6l-2.3 0l0 1.6l2.5 0l0 .7l-3.2 0zm8.9 0l-2.8-4.3l0 4.3l-.8 0l0-5.2l1 0l2.6 4l0-4l.7 0l0 5.2l-.7 0zm5-4.5l0 4.5l-.8 0l0-4.5l-1.7 0l0-.7l4.2 0l0 .7l-1.7 0z" stroke="none" fill="#144542"/></g></svg>