<?xml version="1.0" standalone="no"?><!DOCTYPE svg PUBLIC "-//W3C//DTD SVG 1.1//EN" "http://www.w3.org/Graphics/SVG/1.1/DTD/svg11.dtd"><svg xmlns="http://www.w3.org/2000/svg" version="1.1" width="111.2px" height="117.3px" viewBox="0 -3 111.2 117.3" style="top:-3px"><desc>each One s’installe Lyon ! en 2026 each One ouvrira sa premi re antenne lyonnaise</desc><defs/><g id="Polygon181897"><path d="m2.3 75.7c0 0 1.5-.3 1.5-.3c.3 0 .4-.2.4-.4c0-.5-.3-.9-1.1-.9c-.7 0-1.1.5-1.2 1.1c0 0-1.2-.3-1.2-.3c.1-1 1-1.9 2.4-1.9c1.8 0 2.5 1 2.5 2.2c0 0 0 2.9 0 2.9c0 .5.1.9.1.9c0 0-1.3 0-1.3 0c0 0-.1-.3-.1-.7c-.3.4-.8.9-1.8.9c-1.2 0-2-.8-2-1.8c0-1 .8-1.6 1.8-1.7zm1.9.9c.04-.01 0-.3 0-.3c0 0-1.49.26-1.5.3c-.4 0-.8.3-.8.7c0 .4.3.8.9.8c.8 0 1.4-.4 1.4-1.5zm4.5 2.4l-1.4 0l0-5.8l1.3 0c0 0 .04.75 0 .8c.4-.7 1.1-1 1.8-1c1.4 0 2.1 1 2.1 2.3c-.02.02 0 3.7 0 3.7l-1.4 0c0 0-.01-3.44 0-3.4c0-.8-.3-1.3-1.2-1.3c-.8 0-1.2.6-1.2 1.3c-.02.04 0 3.4 0 3.4zm7.2-5.8l1.2 0l0 1.2l-1.2 0c0 0 .04 2.72 0 2.7c0 .5.3.8.8.8c.2 0 .4-.1.5-.1c0 0 0 1.2 0 1.2c-.1 0-.4.1-.9.1c-1.1 0-1.7-.7-1.7-1.8c-.04.05 0-2.9 0-2.9l-1.1 0l0-1.2c0 0 .28-.03.3 0c.6 0 .9-.4.9-.9c-.02-.04 0-.9 0-.9l1.2 0l0 1.8zm6.5 2.3c-.1-.7-.5-1.3-1.5-1.3c-.9 0-1.4.6-1.4 1.3c0 0 2.9 0 2.9 0zm1.3 1.8c-.3 1.1-1.2 1.9-2.7 1.9c-1.5 0-2.9-1.2-2.9-3.1c0-1.9 1.3-3.1 2.8-3.1c1.8 0 2.9 1.2 2.9 3c0 .3-.1.4-.1.5c0 0-4.2 0-4.2 0c0 .9.7 1.5 1.5 1.5c.9 0 1.3-.4 1.5-1c0 0 1.2.3 1.2.3zm2.8 1.7l-1.4 0l0-5.8l1.3 0c0 0 .05.75 0 .8c.4-.7 1.1-1 1.8-1c1.4 0 2.1 1 2.1 2.3c-.01.02 0 3.7 0 3.7l-1.4 0c0 0 0-3.44 0-3.4c0-.8-.3-1.3-1.2-1.3c-.8 0-1.2.6-1.2 1.3c-.02.04 0 3.4 0 3.4zm6.9 0l-1.4 0l0-5.8l1.3 0c0 0 .03.75 0 .8c.4-.7 1.1-1 1.8-1c1.4 0 2.1 1 2.1 2.3c-.03.02 0 3.7 0 3.7l-1.4 0c0 0-.02-3.44 0-3.4c0-.8-.3-1.3-1.2-1.3c-.8 0-1.2.6-1.2 1.3c-.03.04 0 3.4 0 3.4zm9.3-3.5c0-.7-.5-1.3-1.4-1.3c-.9 0-1.4.6-1.5 1.3c0 0 2.9 0 2.9 0zm1.3 1.8c-.3 1.1-1.2 1.9-2.6 1.9c-1.6 0-3-1.2-3-3.1c0-1.9 1.4-3.1 2.9-3.1c1.8 0 2.8 1.2 2.8 3c0 .3 0 .4 0 .5c0 0-4.3 0-4.3 0c0 .9.7 1.5 1.6 1.5c.8 0 1.3-.4 1.5-1c0 0 1.1.3 1.1.3zm4.4 1.7l0-8.7l1.4 0l0 8.7l-1.4 0zm3.5 2.4l1.4-3.1l-2.5-5.1l1.6 0l1.7 3.7l1.5-3.7l1.5 0l-3.7 8.2l-1.5 0zm10.2-5.3c0-1.2-.8-1.8-1.7-1.8c-.8 0-1.6.6-1.6 1.8c0 1.2.8 1.8 1.6 1.8c.9 0 1.7-.6 1.7-1.8zm1.4 0c0 1.8-1.3 3.1-3.1 3.1c-1.7 0-3-1.3-3-3.1c0-1.8 1.3-3.1 3-3.1c1.8 0 3.1 1.3 3.1 3.1zm2.7 2.9l-1.4 0l0-5.8l1.4 0c0 0-.03.75 0 .8c.4-.7 1-1 1.7-1c1.4 0 2.1 1 2.1 2.3c.01.02 0 3.7 0 3.7l-1.4 0c0 0 .02-3.44 0-3.4c0-.8-.3-1.3-1.2-1.3c-.8 0-1.2.6-1.2 1.3c0 .04 0 3.4 0 3.4zm6.9 0l-1.4 0l0-5.8l1.4 0c0 0-.05.75 0 .8c.3-.7 1-1 1.7-1c1.4 0 2.1 1 2.1 2.3c-.01.02 0 3.7 0 3.7l-1.4 0c0 0 0-3.44 0-3.4c0-.8-.3-1.3-1.2-1.3c-.8 0-1.2.6-1.2 1.3c-.01.04 0 3.4 0 3.4zm6.9-3.3c0 0 1.5-.3 1.5-.3c.3 0 .4-.2.4-.4c0-.5-.3-.9-1.1-.9c-.7 0-1.1.5-1.2 1.1c0 0-1.3-.3-1.3-.3c.2-1 1.1-1.9 2.5-1.9c1.8 0 2.5 1 2.5 2.2c0 0 0 2.9 0 2.9c0 .5.1.9.1.9c0 0-1.3 0-1.3 0c0 0-.1-.3-.1-.7c-.3.4-.8.9-1.8.9c-1.2 0-2-.8-2-1.8c0-1 .8-1.6 1.8-1.7zm1.9.9c.02-.01 0-.3 0-.3c0 0-1.5.26-1.5.3c-.4 0-.8.3-.8.7c0 .4.3.8.9.8c.8 0 1.4-.4 1.4-1.5zm3.1 2.4l0-5.8l1.4 0l0 5.8l-1.4 0zm.7-8.8c.5 0 .9.4.9.9c0 .5-.4.9-.9.9c-.5 0-.9-.4-.9-.9c0-.5.4-.9.9-.9zm3.1 6.9c.1.5.5 1 1.2 1c.6 0 .9-.3.9-.7c0-.3-.2-.5-.7-.6c0 0-.8-.2-.8-.2c-1.1-.2-1.6-.9-1.6-1.7c0-1 .9-1.9 2.1-1.9c1.7 0 2.2 1 2.3 1.6c0 0-1.2.4-1.2.4c0-.4-.3-.9-1.1-.9c-.5 0-.8.3-.8.7c0 .3.2.5.6.6c0 0 .9.1.9.1c1.1.3 1.7 1 1.7 1.8c0 .9-.8 1.9-2.3 1.9c-1.6 0-2.3-1.1-2.4-1.8c0 0 1.2-.3 1.2-.3zm8.6-1.6c0-.7-.4-1.3-1.4-1.3c-.9 0-1.4.6-1.4 1.3c0 0 2.8 0 2.8 0zm1.4 1.8c-.3 1.1-1.3 1.9-2.7 1.9c-1.6 0-3-1.2-3-3.1c0-1.9 1.4-3.1 2.9-3.1c1.8 0 2.8 1.2 2.8 3c0 .3 0 .4 0 .5c0 0-4.3 0-4.3 0c.1.9.8 1.5 1.6 1.5c.9 0 1.3-.4 1.5-1c0 0 1.2.3 1.2.3z" stroke="none" fill="#ffaf7a"/></g><g id="Polygon181896"><path d="m5.1 61.7c0-1.2-.8-1.8-1.6-1.8c-.9 0-1.7.6-1.7 1.8c0 1.2.8 1.8 1.7 1.8c.8 0 1.6-.6 1.6-1.8zm1.4 0c0 1.8-1.3 3.1-3 3.1c-1.8 0-3.1-1.3-3.1-3.1c0-1.8 1.3-3.1 3.1-3.1c1.7 0 3 1.3 3 3.1zm5.1 2.3c-.3.5-1 .8-1.6.8c-1.4 0-2.2-1-2.2-2.3c-.05-.04 0-3.7 0-3.7l1.3 0c0 0 .04 3.41 0 3.4c0 .7.4 1.3 1.2 1.3c.8 0 1.2-.5 1.2-1.3c.04.03 0-3.4 0-3.4l1.4 0c0 0 .04 4.75 0 4.7c0 .5.1.9.1 1.1c0 0-1.3 0-1.3 0c-.1-.1-.1-.4-.1-.6c0 0 0 0 0 0zm6.1.6l-1.4 0l-2.3-5.8l1.5 0l1.5 4.1l1.6-4.1l1.4 0l-2.3 5.8zm6.8-4.4c-.2-.1-.4-.1-.5-.1c-1.1 0-1.6.6-1.6 1.7c.03.03 0 2.8 0 2.8l-1.4 0l0-5.8l1.4 0c0 0-.01.91 0 .9c.3-.6.9-1 1.7-1c.2 0 .3 0 .4 0c0 0 0 1.5 0 1.5zm1.1 4.4l0-5.8l1.4 0l0 5.8l-1.4 0zm.7-8.8c.5 0 .9.4.9.9c0 .5-.4.9-.9.9c-.5 0-.9-.4-.9-.9c0-.5.4-.9.9-.9zm5.9 4.4c-.1-.1-.3-.1-.4-.1c-1.1 0-1.6.6-1.6 1.7c-.01.03 0 2.8 0 2.8l-1.4 0l0-5.8l1.4 0c0 0-.04.91 0 .9c.2-.6.9-1 1.6-1c.2 0 .4 0 .4 0c0 0 0 1.5 0 1.5zm2.6 1.1c0 0 1.5-.3 1.5-.3c.3 0 .4-.2.4-.4c0-.5-.3-.9-1.1-.9c-.7 0-1.1.5-1.2 1.1c0 0-1.2-.3-1.2-.3c.1-1 1-1.9 2.4-1.9c1.8 0 2.5 1 2.5 2.2c0 0 0 2.9 0 2.9c0 .5.1.9.1.9c0 0-1.3 0-1.3 0c0 0-.1-.3-.1-.7c-.3.4-.8.9-1.8.9c-1.2 0-2-.8-2-1.8c0-1 .8-1.6 1.8-1.7zm1.9.9c.03-.01 0-.3 0-.3c0 0-1.49.26-1.5.3c-.4 0-.8.3-.8.7c0 .4.3.8.9.8c.8 0 1.4-.4 1.4-1.5zm6.8.5c0 .5.4 1 1.1 1c.6 0 .9-.3.9-.7c0-.3-.2-.5-.7-.6c0 0-.8-.2-.8-.2c-1.1-.2-1.6-.9-1.6-1.7c0-1 .9-1.9 2.1-1.9c1.7 0 2.2 1 2.3 1.6c0 0-1.2.4-1.2.4c0-.4-.3-.9-1.1-.9c-.4 0-.8.3-.8.7c0 .3.2.5.6.6c0 0 .9.1.9.1c1.1.3 1.7 1 1.7 1.8c0 .9-.8 1.9-2.2 1.9c-1.7 0-2.4-1.1-2.5-1.8c0 0 1.3-.3 1.3-.3zm6.1-1.4c0 0 1.5-.3 1.5-.3c.3 0 .4-.2.4-.4c0-.5-.3-.9-1.1-.9c-.7 0-1.2.5-1.2 1.1c0 0-1.3-.3-1.3-.3c.1-1 1-1.9 2.5-1.9c1.8 0 2.5 1 2.5 2.2c0 0 0 2.9 0 2.9c0 .5 0 .9 0 .9c0 0-1.3 0-1.3 0c0 0 0-.3 0-.7c-.3.4-.9.9-1.8.9c-1.2 0-2-.8-2-1.8c0-1 .8-1.6 1.8-1.7zm1.9.9c-.01-.01 0-.3 0-.3c0 0-1.53.26-1.5.3c-.5 0-.8.3-.8.7c0 .4.3.8.8.8c.8 0 1.5-.4 1.5-1.5zm6 4.7l0-8.1l1.4 0c0 0-.04.76 0 .8c.2-.5.9-1 1.8-1c1.7 0 2.7 1.4 2.7 3.1c0 1.7-1 3.1-2.7 3.1c-.9 0-1.5-.4-1.8-.8c-.01-.04 0 2.9 0 2.9l-1.4 0zm4.5-5.2c0-1.1-.6-1.8-1.5-1.8c-1 0-1.6.7-1.6 1.8c0 1.1.6 1.8 1.6 1.8c.9 0 1.5-.7 1.5-1.8c0 0 0 0 0 0zm6.2-1.5c-.2-.1-.3-.1-.5-.1c-1.1 0-1.5.6-1.5 1.7c-.05.03 0 2.8 0 2.8l-1.4 0l0-5.8l1.3 0c0 0 .02.91 0 .9c.3-.6.9-1 1.7-1c.2 0 .3 0 .4 0c0 0 0 1.5 0 1.5zm4.9.9c0-.7-.5-1.3-1.4-1.3c-.9 0-1.4.6-1.4 1.3c0 0 2.8 0 2.8 0zm1.4 1.8c-.4 1.1-1.3 1.9-2.7 1.9c-1.6 0-3-1.2-3-3.1c0-1.9 1.4-3.1 2.9-3.1c1.8 0 2.8 1.2 2.8 3c0 .3 0 .4 0 .5c0 0-4.3 0-4.3 0c.1.9.8 1.5 1.6 1.5c.9 0 1.3-.4 1.5-1c0 0 1.2.3 1.2.3zm1.4 1.7l0-5.8l1.3 0c0 0-.01.72 0 .7c.3-.6 1.1-.9 1.7-.9c.8 0 1.5.4 1.8 1c.4-.7 1.1-1 1.9-1c1 0 2 .7 2 2.2c.03.02 0 3.8 0 3.8l-1.3 0c0 0-.01-3.55 0-3.5c0-.7-.4-1.2-1.1-1.2c-.8 0-1.2.5-1.2 1.2c-.05.05 0 3.5 0 3.5l-1.4 0c0 0-.02-3.55 0-3.5c0-.7-.4-1.2-1.1-1.2c-.8 0-1.3.5-1.3 1.2c.04.05 0 3.5 0 3.5l-1.3 0zm10.4 0l0-5.8l1.4 0l0 5.8l-1.4 0zm.7-8.8c.5 0 .9.4.9.9c0 .5-.4.9-.9.9c-.5 0-.9-.4-.9-.9c0-.5.4-.9.9-.9zm6.4 5.3c-.1-.7-.5-1.3-1.5-1.3c-.9 0-1.4.6-1.4 1.3c0 0 2.9 0 2.9 0zm1.3 1.8c-.3 1.1-1.2 1.9-2.6 1.9c-1.6 0-3-1.2-3-3.1c0-1.9 1.3-3.1 2.8-3.1c1.8 0 2.9 1.2 2.9 3c0 .3-.1.4-.1.5c0 0-4.2 0-4.2 0c0 .9.7 1.5 1.6 1.5c.8 0 1.2-.4 1.4-1c0 0 1.2.3 1.2.3zm-4.7-6.6l1.6 0l1.1 1.7l-1.2 0l-1.5-1.7zm9.5 3.9c-.1-.1-.3-.1-.4-.1c-1.1 0-1.6.6-1.6 1.7c-.01.03 0 2.8 0 2.8l-1.4 0l0-5.8l1.3 0c0 0 .05.91 0 .9c.3-.6 1-1 1.7-1c.2 0 .4 0 .4 0c0 0 0 1.5 0 1.5zm5 .9c-.1-.7-.5-1.3-1.5-1.3c-.9 0-1.4.6-1.4 1.3c0 0 2.9 0 2.9 0zm1.3 1.8c-.3 1.1-1.2 1.9-2.6 1.9c-1.6 0-3-1.2-3-3.1c0-1.9 1.3-3.1 2.8-3.1c1.8 0 2.9 1.2 2.9 3c0 .3-.1.4-.1.5c0 0-4.2 0-4.2 0c0 .9.7 1.5 1.6 1.5c.8 0 1.2-.4 1.4-1c0 0 1.2.3 1.2.3z" stroke="none" fill="#ffaf7a"/></g><g id="Polygon181895"><path d="m4.7 46.7c0-.7-.4-1.3-1.4-1.3c-.9 0-1.4.6-1.4 1.3c0 0 2.8 0 2.8 0zm1.4 1.8c-.3 1.1-1.3 1.9-2.7 1.9c-1.6 0-3-1.2-3-3.1c0-1.9 1.4-3.1 2.9-3.1c1.8 0 2.8 1.2 2.8 3c0 .3 0 .4 0 .5c0 0-4.3 0-4.3 0c.1.9.8 1.5 1.6 1.5c.9 0 1.3-.4 1.5-1c0 0 1.2.3 1.2.3zm2.8 1.7l-1.4 0l0-5.8l1.3 0c0 0 .03.75 0 .8c.4-.7 1.1-1 1.8-1c1.4 0 2.1 1 2.1 2.3c-.03.02 0 3.7 0 3.7l-1.4 0c0 0-.02-3.44 0-3.4c0-.8-.3-1.3-1.2-1.3c-.8 0-1.2.6-1.2 1.3c-.03.04 0 3.4 0 3.4zm8-4.9c0-.1 0-.3 0-.5c0-1.3 1-2.5 2.8-2.5c1.7 0 2.7 1.1 2.7 2.4c0 1-.5 1.8-1.5 2.4c0 0-1.5 1-1.5 1c-.4.2-.7.5-.8.8c.01.05 3.9 0 3.9 0l0 1.3c0 0-5.66.02-5.7 0c.1-1.3.5-2.4 1.9-3.2c0 0 1.3-.8 1.3-.8c.7-.4 1-.9 1-1.5c0-.6-.5-1.2-1.3-1.2c-1 0-1.4.7-1.4 1.5c0 .1 0 .2 0 .4c0 0-1.4-.1-1.4-.1zm8.5 3.2c.3.4.6.6 1.2.6c.6 0 .9-.2 1.2-.6c.4-.4.5-1.2.5-2.2c0-1-.1-1.7-.5-2.2c-.3-.3-.6-.6-1.2-.6c-.6 0-.9.3-1.2.6c-.4.5-.5 1.2-.5 2.2c0 1 .1 1.8.5 2.2zm-1.3-5c.5-.7 1.3-1.2 2.5-1.2c1.2 0 2 .5 2.5 1.2c.5.8.7 1.8.7 2.8c0 1.1-.2 2-.7 2.8c-.5.8-1.3 1.3-2.5 1.3c-1.2 0-2-.5-2.5-1.3c-.5-.8-.7-1.7-.7-2.8c0-1 .2-2 .7-2.8zm6.7 1.8c0-.1 0-.3 0-.5c0-1.3 1-2.5 2.7-2.5c1.7 0 2.8 1.1 2.8 2.4c0 1-.6 1.8-1.5 2.4c0 0-1.5 1-1.5 1c-.4.2-.7.5-.8.8c-.04.05 3.8 0 3.8 0l0 1.3c0 0-5.62.02-5.6 0c0-1.3.5-2.4 1.8-3.2c0 0 1.3-.8 1.3-.8c.7-.4 1-.9 1-1.5c0-.6-.4-1.2-1.3-1.2c-.9 0-1.4.7-1.4 1.5c0 .1.1.2.1.4c0 0-1.4-.1-1.4-.1zm11.9-1.5c-.3-.1-.7-.3-1.3-.3c-1.5 0-2.5 1-2.7 2.5c.4-.6 1.2-.9 2-.9c1.6 0 2.6 1 2.6 2.6c0 1.6-1.3 2.7-2.9 2.7c-2 0-3.1-1.6-3.1-3.6c0-2.8 1.7-4.5 4.2-4.5c.7 0 1.3.1 1.6.3c0 0-.4 1.2-.4 1.2zm-2.3 5.4c.8 0 1.5-.6 1.5-1.5c0-.9-.7-1.4-1.5-1.4c-.8 0-1.5.5-1.5 1.4c0 .9.7 1.5 1.5 1.5zm11-2.5c0-.7-.5-1.3-1.4-1.3c-.9 0-1.4.6-1.4 1.3c0 0 2.8 0 2.8 0zm1.4 1.8c-.4 1.1-1.3 1.9-2.7 1.9c-1.6 0-3-1.2-3-3.1c0-1.9 1.4-3.1 2.9-3.1c1.8 0 2.8 1.2 2.8 3c0 .3 0 .4 0 .5c0 0-4.3 0-4.3 0c.1.9.7 1.5 1.6 1.5c.9 0 1.3-.4 1.5-1c0 0 1.2.3 1.2.3zm2.8-1.6c0 0 1.5-.3 1.5-.3c.3 0 .4-.2.4-.4c0-.5-.3-.9-1.1-.9c-.7 0-1.2.5-1.2 1.1c0 0-1.3-.3-1.3-.3c.1-1 1-1.9 2.5-1.9c1.8 0 2.5 1 2.5 2.2c0 0 0 2.9 0 2.9c0 .5 0 .9 0 .9c0 0-1.3 0-1.3 0c0 0 0-.3 0-.7c-.3.4-.9.9-1.8.9c-1.2 0-2-.8-2-1.8c0-1 .8-1.6 1.8-1.7zm1.9.9c-.01-.01 0-.3 0-.3c0 0-1.53.26-1.5.3c-.5 0-.8.3-.8.7c0 .4.3.8.8.8c.8 0 1.5-.4 1.5-1.5zm4-.5c0 1.2.7 1.8 1.6 1.8c.9 0 1.3-.6 1.5-1.1c0 0 1.2.5 1.2.5c-.3.9-1.2 1.9-2.7 1.9c-1.7 0-3-1.3-3-3.1c0-1.8 1.3-3.1 3-3.1c1.5 0 2.4 1 2.6 1.9c0 0-1.2.5-1.2.5c-.1-.5-.5-1.1-1.4-1.1c-.9 0-1.6.6-1.6 1.8zm6.9 2.9l-1.4 0l0-8.7l1.4 0c0 0 .01 3.44 0 3.4c.4-.5 1.1-.7 1.7-.7c1.4 0 2.1 1 2.1 2.3c.01.02 0 3.7 0 3.7l-1.4 0c0 0 .02-3.44 0-3.4c0-.8-.3-1.3-1.2-1.3c-.7 0-1.2.5-1.2 1.3c.01-.02 0 3.4 0 3.4zm12.4-1.2c1.4 0 2.9-1 2.9-3c0-2.1-1.5-3.1-2.9-3.1c-1.4 0-2.8 1-2.8 3.1c0 2 1.4 3 2.8 3zm0-7.5c2.2 0 4.3 1.7 4.3 4.5c0 2.8-2.1 4.4-4.3 4.4c-2.2 0-4.3-1.6-4.3-4.4c0-2.8 2.1-4.5 4.3-4.5zm7.1 8.7l-1.4 0l0-5.8l1.4 0c0 0 0 .75 0 .8c.4-.7 1.1-1 1.7-1c1.5 0 2.1 1 2.1 2.3c.04.02 0 3.7 0 3.7l-1.4 0c0 0 .05-3.44 0-3.4c0-.8-.3-1.3-1.2-1.3c-.7 0-1.2.6-1.2 1.3c.03.04 0 3.4 0 3.4zm9.4-3.5c-.1-.7-.5-1.3-1.5-1.3c-.8 0-1.4.6-1.4 1.3c0 0 2.9 0 2.9 0zm1.3 1.8c-.3 1.1-1.2 1.9-2.6 1.9c-1.6 0-3-1.2-3-3.1c0-1.9 1.3-3.1 2.8-3.1c1.8 0 2.9 1.2 2.9 3c0 .3-.1.4-.1.5c0 0-4.2 0-4.2 0c0 .9.7 1.5 1.6 1.5c.8 0 1.2-.4 1.4-1c0 0 1.2.3 1.2.3z" stroke="none" fill="#ffaf7a"/></g><g id="Polygon181894"><path d="m1.9 26.4c.1.6.6 1.2 1.5 1.2c.7 0 1-.4 1-.8c0-.4-.2-.7-.8-.8c0 0-1-.2-1-.2c-1.3-.3-1.9-1.1-1.9-2.1c0-1.2 1.1-2.2 2.5-2.2c2 0 2.7 1.2 2.8 1.9c0 0-1.4.4-1.4.4c-.1-.4-.4-1-1.4-1c-.5 0-1 .3-1 .8c0 .4.3.6.7.7c0 0 1.1.2 1.1.2c1.4.3 2 1.1 2 2.2c0 1.1-.8 2.2-2.6 2.2c-2.1 0-2.8-1.3-2.9-2.1c0 0 1.4-.4 1.4-.4zm6.2-8.1c.7 0 1.2.6 1.2 1.4c0 1.9-1.3 2.6-2.2 2.7c0 0 0-.8 0-.8c.6-.1 1.2-.7 1.2-1.4c0 .1-.2.1-.3.1c-.6 0-1-.4-1-1c0-.5.5-1 1.1-1zm2.8 10.4l0-7l1.7 0l0 7l-1.7 0zm.8-10.6c.6 0 1.1.5 1.1 1.1c0 .6-.5 1.1-1.1 1.1c-.6 0-1.1-.5-1.1-1.1c0-.6.5-1.1 1.1-1.1zm4.7 10.6l-1.7 0l0-7l1.7 0c0 0-.02.91 0 .9c.4-.8 1.3-1.1 2.1-1.1c1.7 0 2.5 1.2 2.5 2.8c.02-.04 0 4.4 0 4.4l-1.7 0c0 0 .04-4.15 0-4.1c0-.9-.3-1.6-1.4-1.6c-1 0-1.5.7-1.5 1.7c.03-.05 0 4 0 4zm7.5-2.3c.1.6.5 1.2 1.4 1.2c.7 0 1.1-.4 1.1-.8c0-.4-.3-.7-.8-.8c0 0-1.1-.2-1.1-.2c-1.2-.3-1.9-1.1-1.9-2.1c0-1.2 1.2-2.2 2.6-2.2c2 0 2.6 1.2 2.8 1.9c0 0-1.5.4-1.5.4c0-.4-.3-1-1.3-1c-.6 0-1 .3-1 .8c0 .4.3.6.7.7c0 0 1.1.2 1.1.2c1.3.3 2 1.1 2 2.2c0 1.1-.8 2.2-2.6 2.2c-2.1 0-2.9-1.3-3-2.1c0 0 1.5-.4 1.5-.4zm7.9-4.7l1.5 0l0 1.5l-1.5 0c0 0 .03 3.24 0 3.2c0 .7.3.9.9.9c.3 0 .5 0 .6 0c0 0 0 1.4 0 1.4c-.1 0-.4.1-1 .1c-1.3 0-2.1-.8-2.1-2.1c-.04.02 0-3.5 0-3.5l-1.3 0l0-1.5c0 0 .32-.03.3 0c.8 0 1.1-.5 1.1-1.1c.01-.03 0-1.1 0-1.1l1.5 0l0 2.2zm4.9 3c0 0 1.8-.3 1.8-.3c.4 0 .6-.3.6-.5c0-.6-.4-1.1-1.4-1.1c-.9 0-1.4.6-1.4 1.3c0 0-1.6-.3-1.6-.3c.2-1.3 1.3-2.3 3-2.3c2.2 0 3 1.2 3 2.6c0 0 0 3.5 0 3.5c0 .6.1 1.1.1 1.1c0 0-1.6 0-1.6 0c0 0 0-.3 0-.9c-.4.6-1.1 1.1-2.2 1.1c-1.5 0-2.4-1-2.4-2.1c0-1.2.9-1.9 2.1-2.1zm2.4 1.1c-.04 0 0-.3 0-.3c0 0-1.88.26-1.9.3c-.5 0-.9.3-.9.9c0 .5.3.9 1 .9c1 0 1.8-.4 1.8-1.8zm3.6 2.9l0-10.5l1.7 0l0 10.5l-1.7 0zm3.9 0l0-10.5l1.7 0l0 10.5l-1.7 0zm8.5-4.3c0-.8-.6-1.5-1.7-1.5c-1.1 0-1.7.8-1.8 1.5c0 0 3.5 0 3.5 0zm1.6 2.3c-.4 1.2-1.5 2.2-3.2 2.2c-1.9 0-3.6-1.3-3.6-3.7c0-2.3 1.7-3.7 3.4-3.7c2.2 0 3.5 1.4 3.5 3.6c0 .3 0 .5 0 .6c0 0-5.2 0-5.2 0c0 1 .9 1.8 1.9 1.8c1 0 1.6-.5 1.8-1.2c0 0 1.4.4 1.4.4zm7-2c0 0 1.8-.3 1.8-.3c.4 0 .5-.3.5-.5c0-.6-.4-1.1-1.3-1.1c-.9 0-1.4.6-1.5 1.3c0 0-1.5-.3-1.5-.3c.1-1.3 1.2-2.3 3-2.3c2.2 0 3 1.2 3 2.6c0 0 0 3.5 0 3.5c0 .6.1 1.1.1 1.1c0 0-1.6 0-1.6 0c0 0-.1-.3-.1-.9c-.3.6-1 1.1-2.1 1.1c-1.5 0-2.4-1-2.4-2.1c0-1.2.9-1.9 2.1-2.1zm2.3 1.1c.03 0 0-.3 0-.3c0 0-1.81.26-1.8.3c-.5 0-1 .3-1 .9c0 .5.4.9 1.1.9c.9 0 1.7-.4 1.7-1.8zm-3.7-7.2l2 0l1.3 2.2l-1.4 0l-1.9-2.2zm11.2 10.1l0-10.2l1.7 0l0 8.6l4.7 0l0 1.6l-6.4 0zm7.5 2.9l1.7-3.7l-3-6.2l1.9 0l2 4.4l1.9-4.4l1.8 0l-4.5 9.9l-1.8 0zm12.3-6.4c0-1.5-.9-2.2-2-2.2c-1 0-1.9.7-1.9 2.2c0 1.5.9 2.2 1.9 2.2c1.1 0 2-.7 2-2.2zm1.7 0c0 2.2-1.5 3.7-3.7 3.7c-2.1 0-3.6-1.5-3.6-3.7c0-2.2 1.5-3.7 3.6-3.7c2.2 0 3.7 1.5 3.7 3.7zm3.3 3.5l-1.7 0l0-7l1.7 0c0 0-.04.91 0 .9c.4-.8 1.3-1.1 2.1-1.1c1.7 0 2.5 1.2 2.5 2.8c0-.04 0 4.4 0 4.4l-1.7 0c0 0 .02-4.15 0-4.1c0-.9-.4-1.6-1.4-1.6c-1 0-1.5.7-1.5 1.7c.01-.05 0 4 0 4zm10.3-3l-1.2 0l-.4-7.2l2 0l-.4 7.2zm-.6 1c.6 0 1.1.5 1.1 1.1c0 .6-.5 1-1.1 1c-.6 0-1-.4-1-1c0-.6.4-1.1 1-1.1z" stroke="none" fill="#ffaf7a"/></g><g id="Polygon181893"><path d="m5.7 7.4c0-.8-.6-1.5-1.7-1.5c-1.1 0-1.7.8-1.7 1.5c0 0 3.4 0 3.4 0zm1.6 2.3c-.3 1.2-1.5 2.2-3.2 2.2c-1.9 0-3.6-1.3-3.6-3.7c0-2.3 1.7-3.7 3.5-3.7c2.1 0 3.4 1.4 3.4 3.6c0 .3 0 .5 0 .6c0 0-5.2 0-5.2 0c.1 1 .9 1.8 1.9 1.8c1.1 0 1.6-.5 1.8-1.2c0 0 1.4.4 1.4.4zm3.4-2c0 0 1.8-.3 1.8-.3c.4 0 .6-.3.6-.5c0-.6-.4-1.1-1.4-1.1c-.9 0-1.3.6-1.4 1.3c0 0-1.6-.3-1.6-.3c.2-1.3 1.3-2.3 3-2.3c2.2 0 3 1.2 3 2.6c0 0 0 3.5 0 3.5c0 .6.1 1.1.1 1.1c0 0-1.6 0-1.6 0c0 0 0-.3 0-.9c-.4.6-1.1 1.1-2.2 1.1c-1.5 0-2.4-1-2.4-2.1c0-1.2.9-1.9 2.1-2.1zm2.4 1.1c-.03 0 0-.3 0-.3c0 0-1.88.26-1.9.3c-.5 0-.9.3-.9.9c0 .5.3.9 1 .9c1 0 1.8-.4 1.8-1.8zm4.8-.6c0 1.4.9 2.2 1.9 2.2c1.1 0 1.6-.8 1.8-1.3c0 0 1.5.5 1.5.5c-.4 1.1-1.4 2.3-3.3 2.3c-2 0-3.6-1.6-3.6-3.7c0-2.2 1.6-3.7 3.6-3.7c1.9 0 2.9 1.1 3.2 2.3c0 0-1.5.5-1.5.5c-.1-.6-.6-1.3-1.7-1.3c-1 0-1.9.8-1.9 2.2zm8.4 3.5l-1.7 0l0-10.5l1.7 0c0 0-.04 4.15 0 4.2c.4-.7 1.2-.9 2-.9c1.7 0 2.6 1.2 2.6 2.8c-.05-.04 0 4.4 0 4.4l-1.7 0c0 0-.03-4.15 0-4.1c0-.9-.4-1.6-1.5-1.6c-.9 0-1.4.7-1.4 1.6c-.04-.02 0 4.1 0 4.1zm14.9-1.4c1.8 0 3.5-1.2 3.5-3.7c0-2.5-1.7-3.7-3.5-3.7c-1.7 0-3.4 1.2-3.4 3.7c0 2.5 1.7 3.7 3.4 3.7zm0-9.1c2.7 0 5.3 2 5.3 5.4c0 3.4-2.6 5.3-5.3 5.3c-2.7 0-5.2-1.9-5.2-5.3c0-3.4 2.5-5.4 5.2-5.4zm8.6 10.5l-1.6 0l0-7l1.6 0c0 0 .01.91 0 .9c.5-.8 1.3-1.1 2.1-1.1c1.7 0 2.5 1.2 2.5 2.8c.05-.04 0 4.4 0 4.4l-1.6 0c0 0-.03-4.15 0-4.1c0-.9-.4-1.6-1.5-1.6c-.9 0-1.5.7-1.5 1.7c.05-.05 0 4 0 4zm11.3-4.3c0-.8-.5-1.5-1.7-1.5c-1.1 0-1.7.8-1.7 1.5c0 0 3.4 0 3.4 0zm1.6 2.3c-.3 1.2-1.5 2.2-3.1 2.2c-2 0-3.7-1.3-3.7-3.7c0-2.3 1.7-3.7 3.5-3.7c2.2 0 3.4 1.4 3.4 3.6c0 .3 0 .5 0 .6c0 0-5.2 0-5.2 0c.1 1 .9 1.8 2 1.8c1 0 1.5-.5 1.7-1.2c0 0 1.4.4 1.4.4z" stroke="none" fill="#ffaf7a"/></g></svg>