<?xml version="1.0" standalone="no"?><!DOCTYPE svg PUBLIC "-//W3C//DTD SVG 1.1//EN" "http://www.w3.org/Graphics/SVG/1.1/DTD/svg11.dtd"><svg xmlns="http://www.w3.org/2000/svg" version="1.1" width="129.2px" height="52.3px" viewBox="0 -3 129.2 52.3" style="top:-3px"><desc>Le contrat d’int gration r publicaine (CIR)</desc><defs/><g id="Polygon180488"><path d="m4.3 19.6c-.1 0-.3 0-.4 0c-1.1 0-1.6.6-1.6 1.7c-.01.02 0 2.8 0 2.8l-1.4 0l0-5.8l1.4 0c0 0-.04.9 0 .9c.2-.6.9-1 1.6-1c.2 0 .4 0 .4 0c0 0 0 1.4 0 1.4zm4-2.1l-1.1 0l1.1-1.7l1.6 0l-1.6 1.7zm1 3c-.1-.6-.5-1.3-1.5-1.3c-.9 0-1.4.7-1.4 1.3c0 0 2.9 0 2.9 0zm1.3 1.9c-.3 1.1-1.2 1.9-2.6 1.9c-1.6 0-3-1.2-3-3.1c0-1.9 1.3-3.1 2.8-3.1c1.8 0 2.9 1.2 2.9 3c0 .2-.1.4-.1.5c0 0-4.2 0-4.2 0c0 .9.7 1.5 1.6 1.5c.8 0 1.2-.5 1.4-1c0 0 1.2.3 1.2.3zm1.4 4l0-8.1l1.3 0c0 0 .04.76 0 .8c.3-.5 1-1 1.9-1c1.7 0 2.7 1.4 2.7 3.1c0 1.7-1.1 3.1-2.7 3.1c-.9 0-1.5-.4-1.8-.9c-.02.05 0 3 0 3l-1.4 0zm4.5-5.2c0-1.1-.6-1.8-1.6-1.8c-.9 0-1.5.7-1.5 1.8c0 1.1.6 1.8 1.5 1.8c1 0 1.6-.7 1.6-1.8c0 0 0 0 0 0zm6.5 2.3c-.3.5-1 .8-1.6.8c-1.4 0-2.2-1.1-2.2-2.4c-.05.05 0-3.6 0-3.6l1.3 0c0 0 .04 3.4 0 3.4c0 .7.4 1.3 1.2 1.3c.8 0 1.2-.5 1.2-1.3c.04.02 0-3.4 0-3.4l1.4 0c0 0 .04 4.74 0 4.7c0 .5.1.9.1 1.1c0 0-1.3 0-1.3 0c-.1-.1-.1-.4-.1-.6c0 0 0 0 0 0zm3.1.6l0-8.7l1.4 0c0 0 0 3.58 0 3.6c.3-.5.9-.9 1.8-.9c1.8 0 2.7 1.3 2.7 3.1c0 1.7-1 3.1-2.7 3.1c-.8 0-1.5-.4-1.8-1c-.01.03 0 .8 0 .8l-1.4 0zm3-4.8c-.9 0-1.6.7-1.6 1.9c0 1.1.7 1.8 1.6 1.8c.9 0 1.5-.7 1.5-1.8c0-1.2-.6-1.9-1.5-1.9zm4.3 4.8l0-8.7l1.4 0l0 8.7l-1.4 0zm3.2 0l0-5.8l1.4 0l0 5.8l-1.4 0zm.7-8.8c.5 0 .9.4.9.9c0 .5-.4.9-.9.9c-.5 0-.9-.4-.9-.9c0-.5.4-.9.9-.9zm3.4 5.9c0 1.2.7 1.8 1.6 1.8c.9 0 1.4-.6 1.5-1.1c0 0 1.2.5 1.2.5c-.3.9-1.1 1.9-2.7 1.9c-1.7 0-3-1.3-3-3.1c0-1.8 1.3-3.1 3-3.1c1.6 0 2.4 1 2.7 1.9c0 0-1.3.5-1.3.5c-.1-.6-.5-1.1-1.4-1.1c-.9 0-1.6.6-1.6 1.8zm6.9-.4c0 0 1.5-.3 1.5-.3c.4 0 .4-.2.4-.4c0-.5-.3-.9-1.1-.9c-.7 0-1.1.5-1.2 1.1c0 0-1.2-.3-1.2-.3c.1-1 1-1.9 2.4-1.9c1.8 0 2.5 1 2.5 2.2c0 0 0 2.9 0 2.9c0 .5.1.8.1.9c0 0-1.3 0-1.3 0c0 0-.1-.3-.1-.7c-.2.4-.8.9-1.8.9c-1.2 0-1.9-.9-1.9-1.8c0-1 .7-1.6 1.7-1.7zm1.9.9c.05-.02 0-.3 0-.3c0 0-1.48.25-1.5.2c-.4.1-.8.4-.8.8c0 .4.3.8.9.8c.8 0 1.4-.4 1.4-1.5zm3.1 2.4l0-5.8l1.4 0l0 5.8l-1.4 0zm.7-8.8c.5 0 .9.4.9.9c0 .5-.4.9-.9.9c-.5 0-.9-.4-.9-.9c0-.5.4-.9.9-.9zm3.9 8.8l-1.4 0l0-5.8l1.3 0c0 0 .03.74 0 .7c.4-.6 1.1-.9 1.8-.9c1.4 0 2.1 1 2.1 2.3c-.03.01 0 3.7 0 3.7l-1.4 0c0 0-.02-3.45 0-3.4c0-.8-.3-1.3-1.2-1.3c-.8 0-1.2.6-1.2 1.3c-.03.04 0 3.4 0 3.4zm9.3-3.6c0-.6-.5-1.3-1.4-1.3c-.9 0-1.4.7-1.5 1.3c0 0 2.9 0 2.9 0zm1.3 1.9c-.3 1.1-1.2 1.9-2.6 1.9c-1.6 0-3-1.2-3-3.1c0-1.9 1.4-3.1 2.9-3.1c1.8 0 2.8 1.2 2.8 3c0 .2 0 .4 0 .5c0 0-4.3 0-4.3 0c0 .9.7 1.5 1.6 1.5c.8 0 1.3-.5 1.5-1c0 0 1.1.3 1.1.3zm6.5-8c0 0 .8.8.8.8c-1.2 1.3-2 2.9-2 5.1c0 2.1.8 3.7 2 5.1c0 0-.8.7-.8.7c-1.3-1.3-2.4-3.1-2.4-5.8c0-2.7 1.1-4.5 2.4-5.9zm1 5.5c0-2.8 2.1-4.5 4.3-4.5c2.2 0 3.5 1.3 3.9 2.8c0 0-1.4.4-1.4.4c-.2-1-1-1.8-2.5-1.8c-1.4 0-2.8 1-2.8 3.1c0 2 1.4 3 2.8 3c1.5 0 2.3-.9 2.6-1.9c0 0 1.3.5 1.3.5c-.4 1.4-1.7 2.8-3.9 2.8c-2.2 0-4.3-1.7-4.3-4.4zm9.7 4.2l0-8.5l1.4 0l0 8.5l-1.4 0zm6-3.4l-1.1 0l0 3.4l-1.4 0l0-8.5c0 0 3.23 0 3.2 0c1.7 0 2.7 1.1 2.7 2.6c0 1.2-.7 2.1-1.9 2.4c-.03 0 1.9 3.5 1.9 3.5l-1.6 0l-1.8-3.4zm.5-1.2c.9 0 1.4-.5 1.4-1.3c0-.8-.5-1.3-1.4-1.3c-.04-.03-1.6 0-1.6 0l0 2.6c0 0 1.56-.02 1.6 0zm4.3 6.6c0 0-.9-.7-.9-.7c1.3-1.4 2.1-3 2.1-5.1c0-2.2-.8-3.8-2.1-5.1c0 0 .9-.8.9-.8c1.3 1.4 2.4 3.2 2.4 5.9c0 2.7-1.1 4.5-2.4 5.8z" stroke="none" fill="#ffaf7a"/></g><g id="Polygon180487"><path d="m1 9.7l0-8.5l1.5 0l0 7.1l3.9 0l0 1.4l-5.4 0zm10.4-3.6c0-.6-.5-1.3-1.5-1.3c-.8 0-1.3.7-1.4 1.3c0 0 2.9 0 2.9 0zm1.3 1.9c-.3 1.1-1.2 1.9-2.6 1.9c-1.6 0-3-1.2-3-3.1c0-1.9 1.3-3.1 2.8-3.1c1.8 0 2.9 1.2 2.9 3c0 .2 0 .4-.1.5c0 0-4.2 0-4.2 0c0 .9.7 1.5 1.6 1.5c.8 0 1.2-.5 1.4-1c0 0 1.2.3 1.2.3zm5.2-1.2c0 1.2.7 1.8 1.6 1.8c.9 0 1.3-.6 1.5-1.1c0 0 1.2.5 1.2.5c-.3.9-1.2 1.9-2.7 1.9c-1.7 0-3-1.3-3-3.1c0-1.8 1.3-3.1 3-3.1c1.5 0 2.4 1 2.6 1.9c0 0-1.2.5-1.2.5c-.1-.6-.5-1.1-1.4-1.1c-.9 0-1.6.6-1.6 1.8zm9.7 0c0-1.2-.8-1.9-1.7-1.9c-.8 0-1.6.7-1.6 1.9c0 1.2.8 1.8 1.6 1.8c.9 0 1.7-.6 1.7-1.8zm1.4 0c0 1.8-1.3 3.1-3.1 3.1c-1.7 0-3-1.3-3-3.1c0-1.8 1.3-3.1 3-3.1c1.8 0 3.1 1.3 3.1 3.1zm2.7 2.9l-1.4 0l0-5.8l1.4 0c0 0-.03.74 0 .7c.4-.6 1.1-.9 1.7-.9c1.4 0 2.1 1 2.1 2.3c.01.01 0 3.7 0 3.7l-1.4 0c0 0 .02-3.45 0-3.4c0-.8-.3-1.3-1.2-1.3c-.8 0-1.2.6-1.2 1.3c.01.04 0 3.4 0 3.4zm7.3-5.8l1.2 0l0 1.2l-1.2 0c0 0-.03 2.71 0 2.7c0 .5.2.7.7.7c.2 0 .4 0 .5 0c0 0 0 1.1 0 1.1c-.1.1-.4.2-.9.2c-1 0-1.7-.7-1.7-1.8c-.01.04 0-2.9 0-2.9l-1.1 0l0-1.2c0 0 .31-.04.3 0c.6 0 .9-.4.9-.9c.01-.05 0-.9 0-.9l1.3 0l0 1.8zm5.9 1.3c-.1 0-.3 0-.4 0c-1.1 0-1.6.6-1.6 1.7c-.01.02 0 2.8 0 2.8l-1.4 0l0-5.8l1.4 0c0 0-.04.9 0 .9c.2-.6.9-1 1.6-1c.2 0 .4 0 .4 0c0 0 0 1.4 0 1.4zm2.6 1.2c0 0 1.5-.3 1.5-.3c.3 0 .4-.2.4-.4c0-.5-.3-.9-1.1-.9c-.7 0-1.1.5-1.2 1.1c0 0-1.2-.3-1.2-.3c.1-1 1-1.9 2.4-1.9c1.8 0 2.5 1 2.5 2.2c0 0 0 2.9 0 2.9c0 .5.1.8.1.9c0 0-1.3 0-1.3 0c0 0-.1-.3-.1-.7c-.3.4-.8.9-1.8.9c-1.2 0-2-.9-2-1.8c0-1 .8-1.6 1.8-1.7zm1.9.9c.03-.02 0-.3 0-.3c0 0-1.49.25-1.5.2c-.4.1-.8.4-.8.8c0 .4.3.8.9.8c.8 0 1.4-.4 1.4-1.5zm4.8-3.4l1.2 0l0 1.2l-1.2 0c0 0 .02 2.71 0 2.7c0 .5.2.7.8.7c.2 0 .4 0 .4 0c0 0 0 1.1 0 1.1c0 .1-.3.2-.8.2c-1.1 0-1.8-.7-1.8-1.8c.04.04 0-2.9 0-2.9l-1 0l0-1.2c0 0 .26-.04.3 0c.6 0 .9-.4.9-.9c-.04-.05 0-.9 0-.9l1.2 0l0 1.8zm8 4.7c.9 0 1.5-.7 1.5-1.8c0-1.2-.6-1.9-1.5-1.9c-.9 0-1.6.8-1.6 1.9c0 1.1.6 1.8 1.6 1.8zm2.9 0c0 .6 0 1 0 1.1c0 0-1.3 0-1.3 0c0-.1-.1-.5-.1-.7c-.2.4-.9.9-1.7.9c-1.7 0-2.8-1.4-2.8-3.1c0-1.7 1.1-3.1 2.8-3.1c1 0 1.5.5 1.7.8c.01.05 0-3.5 0-3.5l1.4 0c0 0-.04 7.64 0 7.6zm2.2-7.5c.6 0 1 .5 1 1.1c0 1.6-1 2.2-1.8 2.3c0 0 0-.7 0-.7c.5-.1 1-.6 1-1.1c0 0-.1 0-.3 0c-.4 0-.8-.3-.8-.8c0-.4.4-.8.9-.8zm2.3 8.6l0-5.8l1.4 0l0 5.8l-1.4 0zm.7-8.8c.5 0 .9.4.9.9c0 .5-.4.9-.9.9c-.5 0-.9-.4-.9-.9c0-.5.4-.9.9-.9zm3.9 8.8l-1.4 0l0-5.8l1.4 0c0 0-.02.74 0 .7c.4-.6 1.1-.9 1.7-.9c1.4 0 2.1 1 2.1 2.3c.02.01 0 3.7 0 3.7l-1.4 0c0 0 .03-3.45 0-3.4c0-.8-.3-1.3-1.2-1.3c-.8 0-1.2.6-1.2 1.3c.02.04 0 3.4 0 3.4zm7.3-5.8l1.2 0l0 1.2l-1.2 0c0 0-.02 2.71 0 2.7c0 .5.2.7.7.7c.2 0 .4 0 .5 0c0 0 0 1.1 0 1.1c-.1.1-.3.2-.8.2c-1.1 0-1.8-.7-1.8-1.8c0 .04 0-2.9 0-2.9l-1.1 0l0-1.2c0 0 .32-.04.3 0c.6 0 .9-.4.9-.9c.02-.05 0-.9 0-.9l1.3 0l0 1.8zm5.5-.8l-1.2 0l1.1-1.7l1.6 0l-1.5 1.7zm.9 3c0-.6-.5-1.3-1.4-1.3c-.9 0-1.4.7-1.5 1.3c0 0 2.9 0 2.9 0zm1.3 1.9c-.3 1.1-1.2 1.9-2.6 1.9c-1.6 0-3-1.2-3-3.1c0-1.9 1.4-3.1 2.8-3.1c1.8 0 2.9 1.2 2.9 3c0 .2 0 .4 0 .5c0 0-4.3 0-4.3 0c0 .9.7 1.5 1.6 1.5c.8 0 1.3-.5 1.5-1c0 0 1.1.3 1.1.3zm2.3 1.7c.1.7.7 1.3 1.5 1.3c1.1 0 1.6-.6 1.6-1.8c0 0 0-.6 0-.6c-.2.4-.8.8-1.7.8c-1.5 0-2.7-1.2-2.7-2.8c0-1.6 1.1-2.8 2.7-2.8c.9 0 1.5.3 1.8.8c-.04.01 0-.7 0-.7l1.3 0c0 0 0 5.26 0 5.3c0 1.5-.8 3-3 3c-1.5 0-2.6-1-2.8-2.2c0 0 1.3-.3 1.3-.3zm3.2-3.1c0-1-.7-1.6-1.5-1.6c-.9 0-1.6.6-1.6 1.6c0 1 .6 1.7 1.6 1.7c.8 0 1.5-.7 1.5-1.7zm6.4-1.4c-.1 0-.3 0-.4 0c-1.1 0-1.6.6-1.6 1.7c-.01.02 0 2.8 0 2.8l-1.4 0l0-5.8l1.4 0c0 0-.04.9 0 .9c.2-.6.9-1 1.7-1c.1 0 .3 0 .3 0c0 0 0 1.4 0 1.4zm2.6 1.2c0 0 1.5-.3 1.5-.3c.3 0 .4-.2.4-.4c0-.5-.3-.9-1.1-.9c-.7 0-1.1.5-1.2 1.1c0 0-1.2-.3-1.2-.3c.1-1 1-1.9 2.4-1.9c1.8 0 2.5 1 2.5 2.2c0 0 0 2.9 0 2.9c0 .5.1.8.1.9c0 0-1.3 0-1.3 0c0 0-.1-.3-.1-.7c-.3.4-.8.9-1.8.9c-1.2 0-2-.9-2-1.8c0-1 .8-1.6 1.8-1.7zm1.9.9c.04-.02 0-.3 0-.3c0 0-1.49.25-1.5.2c-.4.1-.8.4-.8.8c0 .4.3.8.9.8c.8 0 1.4-.4 1.4-1.5zm4.8-3.4l1.2 0l0 1.2l-1.2 0c0 0 .02 2.71 0 2.7c0 .5.3.7.8.7c.2 0 .4 0 .4 0c0 0 0 1.1 0 1.1c0 .1-.3.2-.8.2c-1.1 0-1.8-.7-1.8-1.8c.04.04 0-2.9 0-2.9l-1 0l0-1.2c0 0 .26-.04.3 0c.6 0 .9-.4.9-.9c-.04-.05 0-.9 0-.9l1.2 0l0 1.8zm2.7 5.8l0-5.8l1.3 0l0 5.8l-1.3 0zm.6-8.8c.6 0 1 .4 1 .9c0 .5-.4.9-1 .9c-.4 0-.9-.4-.9-.9c0-.5.5-.9.9-.9zm6.7 5.9c0-1.2-.7-1.9-1.6-1.9c-.8 0-1.6.7-1.6 1.9c0 1.2.8 1.8 1.6 1.8c.9 0 1.6-.6 1.6-1.8zm1.4 0c0 1.8-1.2 3.1-3 3.1c-1.7 0-3-1.3-3-3.1c0-1.8 1.3-3.1 3-3.1c1.8 0 3 1.3 3 3.1zm2.8 2.9l-1.4 0l0-5.8l1.3 0c0 0 .05.74 0 .7c.4-.6 1.1-.9 1.8-.9c1.4 0 2.1 1 2.1 2.3c-.01.01 0 3.7 0 3.7l-1.4 0c0 0 0-3.45 0-3.4c0-.8-.3-1.3-1.2-1.3c-.8 0-1.2.6-1.2 1.3c-.02.04 0 3.4 0 3.4z" stroke="none" fill="#ffaf7a"/></g></svg>