<?xml version="1.0" standalone="no"?><!DOCTYPE svg PUBLIC "-//W3C//DTD SVG 1.1//EN" "http://www.w3.org/Graphics/SVG/1.1/DTD/svg11.dtd"><svg xmlns="http://www.w3.org/2000/svg" version="1.1" width="117px" height="29px" viewBox="0 -3 117 29" style="top:-3px"><desc>collaborateurs, coachs et professeurs</desc><defs/><g id="Polygon163445"><path d="m4.2 18.1c0-.8-.5-1.3-1.3-1.3c-.9 0-1.4.6-1.4 1.3c0 0 2.7 0 2.7 0zm1 1.6c-.2.8-1.1 1.6-2.2 1.6c-1.4 0-2.6-1-2.6-2.7c0-1.6 1.2-2.7 2.4-2.7c1.6 0 2.5 1.1 2.5 2.6c0 .2 0 .3-.1.3c0 0-3.8 0-3.8 0c.1 1 .7 1.6 1.6 1.6c.8 0 1.2-.5 1.4-1c0 0 .8.3.8.3zm2.7-3.7l1 0l0 .9l-1 0c0 0-.05 2.66 0 2.7c0 .4.1.7.7.7c.1 0 .3-.1.3-.1c0 0 0 .9 0 .9c0 0-.3 0-.6 0c-.9 0-1.4-.5-1.4-1.4c-.03.01 0-2.8 0-2.8l-1 0l0-.9c0 0 .27.04.3 0c.5 0 .8-.3.8-.7c-.05-.03 0-.9 0-.9l.9 0l0 1.6zm5 7.1l0-7.1l.9 0c0 0 .04.83 0 .8c.3-.5.9-.9 1.7-.9c1.5 0 2.3 1.2 2.3 2.7c0 1.5-.8 2.6-2.3 2.6c-.8 0-1.4-.3-1.6-.8c-.04.01 0 2.7 0 2.7l-1 0zm3.9-4.5c0-1-.5-1.8-1.4-1.8c-1 0-1.6.8-1.6 1.8c0 1 .6 1.7 1.6 1.7c.9 0 1.4-.7 1.4-1.7c0 0 0 0 0 0zm5.1-1.6c-.1 0-.3 0-.4 0c-.8 0-1.4.5-1.4 1.6c0-.04 0 2.5 0 2.5l-1 0l0-5.1l1 0c0 0-.02.93 0 .9c.3-.8 1-.9 1.5-.9c.1 0 .3 0 .3 0c0 0 0 1 0 1zm4.7 1.6c0-1.2-.7-1.8-1.5-1.8c-.9 0-1.6.6-1.6 1.8c0 1.1.7 1.8 1.6 1.8c.8 0 1.5-.7 1.5-1.8zm1.1 0c0 1.5-1.1 2.7-2.6 2.7c-1.5 0-2.6-1.2-2.6-2.7c0-1.6 1.1-2.7 2.6-2.7c1.5 0 2.6 1.1 2.6 2.7zm2.5-1.7l0 4.2l-1 0l0-4.2l-.9 0l0-.9l.9 0c0 0 .02-.81 0-.8c0-1.1.8-1.7 1.7-1.7c.3 0 .5 0 .6.1c0 0 0 .8 0 .8c-.1 0-.2 0-.5 0c-.3 0-.8.2-.8.8c.04.05 0 .8 0 .8l1.3 0l0 .9l-1.3 0zm5.5 1.2c0-.8-.5-1.3-1.4-1.3c-.8 0-1.3.6-1.4 1.3c0 0 2.8 0 2.8 0zm1 1.6c-.3.8-1.1 1.6-2.3 1.6c-1.3 0-2.5-1-2.5-2.7c0-1.6 1.1-2.7 2.4-2.7c1.6 0 2.4 1.1 2.4 2.6c0 .2 0 .3 0 .3c0 0-3.8 0-3.8 0c0 1 .7 1.6 1.5 1.6c.9 0 1.3-.5 1.5-1c0 0 .8.3.8.3zm1.7-.2c.1.5.5.9 1.2.9c.6 0 .9-.3.9-.7c0-.3-.3-.5-.7-.6c0 0-.9-.2-.9-.2c-.7-.2-1.2-.7-1.2-1.4c0-.9.8-1.6 1.8-1.6c1.4 0 1.8.9 1.9 1.3c0 0-.9.4-.9.4c0-.3-.2-.9-1-.9c-.5 0-.9.4-.9.7c0 .3.2.5.6.6c0 0 .8.2.8.2c.9.2 1.4.7 1.4 1.5c0 .7-.6 1.6-1.8 1.6c-1.4 0-2-.9-2.1-1.5c0 0 .9-.3.9-.3zm4.8 0c0 .5.4.9 1.1.9c.6 0 .9-.3.9-.7c0-.3-.2-.5-.6-.6c0 0-.9-.2-.9-.2c-.8-.2-1.3-.7-1.3-1.4c0-.9.8-1.6 1.8-1.6c1.4 0 1.8.9 1.9 1.3c0 0-.8.4-.8.4c-.1-.3-.3-.9-1.1-.9c-.5 0-.8.4-.8.7c0 .3.2.5.6.6c0 0 .8.2.8.2c.9.2 1.4.7 1.4 1.5c0 .7-.6 1.6-1.9 1.6c-1.4 0-1.9-.9-2-1.5c0 0 .9-.3.9-.3zm7.6-1.4c0-.8-.5-1.3-1.3-1.3c-.9 0-1.4.6-1.4 1.3c0 0 2.7 0 2.7 0zm1 1.6c-.2.8-1.1 1.6-2.2 1.6c-1.4 0-2.6-1-2.6-2.7c0-1.6 1.2-2.7 2.4-2.7c1.6 0 2.5 1.1 2.5 2.6c0 .2 0 .3-.1.3c0 0-3.8 0-3.8 0c.1 1 .7 1.6 1.6 1.6c.8 0 1.2-.5 1.4-1c0 0 .8.3.8.3zm4.5.8c-.3.5-.9.8-1.5.8c-1.2 0-1.9-.9-1.9-2.1c.02.03 0-3.2 0-3.2l1 0c0 0 .01 3.08 0 3.1c0 .7.3 1.3 1.2 1.3c.7 0 1.1-.5 1.1-1.3c.05-.01 0-3.1 0-3.1l1 0c0 0 .03 4.16 0 4.2c0 .4.1.7.1.9c0 0-1 0-1 0c0-.1 0-.4 0-.6c0 0 0 0 0 0zm5.4-3.5c-.1 0-.3 0-.4 0c-.8 0-1.4.5-1.4 1.6c0-.04 0 2.5 0 2.5l-1 0l0-5.1l1 0c0 0-.02.93 0 .9c.3-.8 1-.9 1.5-.9c.1 0 .3 0 .3 0c0 0 0 1 0 1zm1.5 2.5c.1.5.4.9 1.2.9c.5 0 .8-.3.8-.7c0-.3-.2-.5-.6-.6c0 0-.9-.2-.9-.2c-.8-.2-1.2-.7-1.2-1.4c0-.9.8-1.6 1.7-1.6c1.4 0 1.9.9 2 1.3c0 0-.9.4-.9.4c0-.3-.3-.9-1.1-.9c-.5 0-.8.4-.8.7c0 .3.2.5.6.6c0 0 .8.2.8.2c.9.2 1.4.7 1.4 1.5c0 .7-.6 1.6-1.8 1.6c-1.4 0-2-.9-2.1-1.5c0 0 .9-.3.9-.3z" stroke="none" fill="#fff"/></g><g id="Polygon163444"><path d="m1.4 6c0 1.1.8 1.7 1.6 1.7c.9 0 1.3-.6 1.4-1c0 0 .8.4.8.4c-.2.7-.9 1.6-2.2 1.6c-1.5 0-2.6-1.2-2.6-2.7c0-1.6 1.1-2.7 2.6-2.7c1.3 0 2 .8 2.2 1.6c0 0-.9.4-.9.4c-.1-.5-.5-1.1-1.3-1.1c-.8 0-1.6.6-1.6 1.8zm8.7 0c0-1.2-.7-1.8-1.6-1.8c-.8 0-1.6.6-1.6 1.8c0 1.1.8 1.8 1.6 1.8c.9 0 1.6-.7 1.6-1.8zm1 0c0 1.5-1.1 2.7-2.6 2.7c-1.5 0-2.6-1.2-2.6-2.7c0-1.6 1.1-2.7 2.6-2.7c1.5 0 2.6 1.1 2.6 2.7zm1.3 2.5l0-7.6l.9 0l0 7.6l-.9 0zm2.6 0l0-7.6l1 0l0 7.6l-1 0zm2.4-1.4c0-.9.6-1.4 1.5-1.5c0 0 1.4-.2 1.4-.2c.3 0 .4-.2.4-.4c0-.5-.4-.9-1.1-.9c-.7 0-1.1.5-1.2 1c0 0-.9-.2-.9-.2c.1-.9 1-1.6 2.1-1.6c1.5 0 2.1.8 2.1 1.8c0 0 0 2.6 0 2.6c0 .4 0 .7 0 .8c0 0-1 0-1 0c0-.1 0-.3 0-.7c-.2.4-.7.9-1.6.9c-1.1 0-1.7-.8-1.7-1.6c0 0 0 0 0 0zm3.3-.8c-.04.03 0-.2 0-.2c0 0-1.58.23-1.6.2c-.4.1-.7.3-.7.8c0 .4.3.7.8.7c.8 0 1.5-.4 1.5-1.5zm2.5 2.2l0-7.6l1 0c0 0-.04 3.26 0 3.3c.2-.5.8-.9 1.6-.9c1.6 0 2.3 1.2 2.3 2.6c0 1.5-.8 2.7-2.3 2.7c-.7 0-1.3-.3-1.6-.8c-.04-.04 0 .7 0 .7l-1 0zm2.5-4.3c-.9 0-1.6.7-1.6 1.7c0 1.1.7 1.8 1.6 1.8c.9 0 1.4-.7 1.4-1.8c0-1-.5-1.7-1.4-1.7zm7.4 1.8c0-1.2-.7-1.8-1.5-1.8c-.9 0-1.6.6-1.6 1.8c0 1.1.7 1.8 1.6 1.8c.8 0 1.5-.7 1.5-1.8zm1.1 0c0 1.5-1.1 2.7-2.6 2.7c-1.5 0-2.6-1.2-2.6-2.7c0-1.6 1.1-2.7 2.6-2.7c1.5 0 2.6 1.1 2.6 2.7zm4-1.6c-.1 0-.3 0-.4 0c-.8 0-1.4.5-1.4 1.6c0-.04 0 2.5 0 2.5l-1 0l0-5.1l1 0c0 0-.02.93 0 .9c.3-.8 1-.9 1.5-.9c.1 0 .3 0 .3 0c0 0 0 1 0 1zm.8 2.7c0-.9.6-1.4 1.5-1.5c0 0 1.4-.2 1.4-.2c.3 0 .3-.2.3-.4c0-.5-.3-.9-1.1-.9c-.6 0-1 .5-1.1 1c0 0-.9-.2-.9-.2c.1-.9.9-1.6 2-1.6c1.5 0 2.1.8 2.1 1.8c0 0 0 2.6 0 2.6c0 .4.1.7.1.8c0 0-1 0-1 0c0-.1 0-.3 0-.7c-.2.4-.8.9-1.7.9c-1 0-1.6-.8-1.6-1.6c0 0 0 0 0 0zm3.2-.8c.04.03 0-.2 0-.2c0 0-1.5.23-1.5.2c-.4.1-.7.3-.7.8c0 .4.3.7.8.7c.8 0 1.4-.4 1.4-1.5zm3.9-2.9l1.1 0l0 .9l-1.1 0c0 0-.02 2.66 0 2.7c0 .4.2.7.7.7c.1 0 .3-.1.4-.1c0 0 0 .9 0 .9c-.1 0-.4 0-.7 0c-.9 0-1.4-.5-1.4-1.4c0 .01 0-2.8 0-2.8l-1 0l0-.9c0 0 .3.04.3 0c.6 0 .8-.3.8-.7c-.02-.03 0-.9 0-.9l.9 0l0 1.6zm5.7 2.1c0-.8-.5-1.3-1.3-1.3c-.9 0-1.4.6-1.4 1.3c0 0 2.7 0 2.7 0zm1 1.6c-.2.8-1.1 1.6-2.2 1.6c-1.4 0-2.6-1-2.6-2.7c0-1.6 1.2-2.7 2.4-2.7c1.6 0 2.5 1.1 2.5 2.6c0 .2 0 .3-.1.3c0 0-3.8 0-3.8 0c.1 1 .7 1.6 1.6 1.6c.8 0 1.2-.5 1.4-1c0 0 .8.3.8.3zm4.5.8c-.3.5-.9.8-1.5.8c-1.2 0-1.9-.9-1.9-2.1c.02.03 0-3.2 0-3.2l1 0c0 0 0 3.08 0 3.1c0 .7.3 1.3 1.1 1.3c.8 0 1.2-.5 1.2-1.3c.05-.01 0-3.1 0-3.1l1 0c0 0 .03 4.16 0 4.2c0 .4.1.7.1.9c0 0-1 0-1 0c0-.1 0-.4 0-.6c0 0 0 0 0 0zm5.4-3.5c-.1 0-.3 0-.4 0c-.8 0-1.4.5-1.4 1.6c0-.04 0 2.5 0 2.5l-1 0l0-5.1l1 0c0 0-.02.93 0 .9c.3-.8 1-.9 1.5-.9c.1 0 .3 0 .3 0c0 0 0 1 0 1zm1.5 2.5c0 .5.4.9 1.2.9c.5 0 .8-.3.8-.7c0-.3-.2-.5-.6-.6c0 0-.9-.2-.9-.2c-.8-.2-1.2-.7-1.2-1.4c0-.9.8-1.6 1.7-1.6c1.4 0 1.9.9 2 1.3c0 0-.9.4-.9.4c0-.3-.3-.9-1.1-.9c-.5 0-.8.4-.8.7c0 .3.2.5.6.6c0 0 .8.2.8.2c.9.2 1.4.7 1.4 1.5c0 .7-.6 1.6-1.8 1.6c-1.4 0-2-.9-2.1-1.5c0 0 .9-.3.9-.3zm5 .2c.4 0 .8.4.8 1c0 1.4-.9 2-1.5 2.1c0 0 0-.6 0-.6c.5-.1.8-.6.8-1.1c0 0-.1 0-.2 0c-.4 0-.7-.2-.7-.7c0-.4.3-.7.8-.7zm5.6-1.1c0 1.1.7 1.7 1.6 1.7c.9 0 1.2-.6 1.4-1c0 0 .8.4.8.4c-.2.7-.9 1.6-2.2 1.6c-1.5 0-2.6-1.2-2.6-2.7c0-1.6 1.1-2.7 2.5-2.7c1.4 0 2.1.8 2.3 1.6c0 0-.9.4-.9.4c-.1-.5-.5-1.1-1.4-1.1c-.8 0-1.5.6-1.5 1.8zm8.7 0c0-1.2-.8-1.8-1.6-1.8c-.8 0-1.6.6-1.6 1.8c0 1.1.8 1.8 1.6 1.8c.8 0 1.6-.7 1.6-1.8zm1 0c0 1.5-1.1 2.7-2.6 2.7c-1.5 0-2.6-1.2-2.6-2.7c0-1.6 1.1-2.7 2.6-2.7c1.5 0 2.6 1.1 2.6 2.7zm.9 1.1c0-.9.7-1.4 1.6-1.5c0 0 1.3-.2 1.3-.2c.3 0 .4-.2.4-.4c0-.5-.3-.9-1.1-.9c-.7 0-1.1.5-1.1 1c0 0-1-.2-1-.2c.1-.9 1-1.6 2.1-1.6c1.5 0 2.1.8 2.1 1.8c0 0 0 2.6 0 2.6c0 .4 0 .7.1.8c0 0-1 0-1 0c0-.1-.1-.3-.1-.7c-.2.4-.7.9-1.6.9c-1 0-1.7-.8-1.7-1.6c0 0 0 0 0 0zm3.3-.8c.01.03 0-.2 0-.2c0 0-1.53.23-1.5.2c-.5.1-.8.3-.8.8c0 .4.3.7.9.7c.8 0 1.4-.4 1.4-1.5zm3.1-.3c0 1.1.7 1.7 1.6 1.7c.9 0 1.3-.6 1.4-1c0 0 .8.4.8.4c-.2.7-.9 1.6-2.2 1.6c-1.5 0-2.6-1.2-2.6-2.7c0-1.6 1.1-2.7 2.6-2.7c1.3 0 2 .8 2.2 1.6c0 0-.9.4-.9.4c-.1-.5-.5-1.1-1.3-1.1c-.8 0-1.6.6-1.6 1.8zm6 2.5l-1 0l0-7.6l1 0c0 0-.02 3.13 0 3.1c.4-.5.9-.7 1.5-.7c1.2 0 1.8.9 1.8 2c.02-.01 0 3.2 0 3.2l-1 0c0 0 .04-3.04 0-3c0-.7-.3-1.3-1.1-1.3c-.8 0-1.2.6-1.2 1.3c-.02.02 0 3 0 3zm5.3-1.6c.1.5.5.9 1.2.9c.6 0 .9-.3.9-.7c0-.3-.3-.5-.7-.6c0 0-.9-.2-.9-.2c-.7-.2-1.2-.7-1.2-1.4c0-.9.8-1.6 1.8-1.6c1.4 0 1.8.9 1.9 1.3c0 0-.9.4-.9.4c0-.3-.2-.9-1-.9c-.5 0-.9.4-.9.7c0 .3.2.5.6.6c0 0 .8.2.8.2c1 .2 1.4.7 1.4 1.5c0 .7-.6 1.6-1.8 1.6c-1.4 0-2-.9-2.1-1.5c0 0 .9-.3.9-.3z" stroke="none" fill="#fff"/></g></svg>