<?xml version="1.0" standalone="no"?><!DOCTYPE svg PUBLIC "-//W3C//DTD SVG 1.1//EN" "http://www.w3.org/Graphics/SVG/1.1/DTD/svg11.dtd"><svg xmlns="http://www.w3.org/2000/svg" version="1.1" width="155.2px" height="69.4px" viewBox="0 -10 155.2 69.4" style="top:-10px"><desc>5 000</desc><defs/><g id="Polygon163740"><path d="m48.8 30.2c0 4.8-3.9 11.3-11.1 11.3c-7.1 0-8.9-3.5-8.9-6.6c0-2.5 1.8-4.5 3.4-4.5c1.8 0 3.6 1 3.4 3.5c-.1 1.4-1.4 2-1.4 3.5c0 2.1 1.3 3 3.4 3c2.9 0 5.2-2.3 5.6-6.7c.5-5.3-2.6-8.2-6.2-8.2c-2.8 0-4.4 1.2-5.9 2.4c.05.04-.7 0-.7 0l3-17.5c0 0 9.1.02 9.1 0c2.5 0 4.9-.7 5.8-2.6c.03-.02.7 0 .7 0l-2.4 8.9l-13.4 0c0 0-1.29 7.88-1.3 7.9c2.2-3 5-4.1 8.2-4.1c5.8 0 8.7 5 8.7 9.7zm7.1-9.2c0-6.2 4.5-11.1 11-11.1c7 0 10.9 4.9 10.9 11.1c0 6.2-3.9 11.2-10.9 11.2c-6.5 0-11-5-11-11.2zm14.5 0c0-5.1-.2-10.2-3.5-10.2c-3.3 0-3.5 5.1-3.5 10.2c0 5.1.2 10.3 3.5 10.3c3.3 0 3.5-5.2 3.5-10.3zm9.6 0c0-6.2 4.5-11.1 11-11.1c7 0 10.9 4.9 10.9 11.1c0 6.2-3.9 11.2-10.9 11.2c-6.5 0-11-5-11-11.2zm14.5 0c0-5.1-.2-10.2-3.5-10.2c-3.3 0-3.5 5.1-3.5 10.2c0 5.1.2 10.3 3.5 10.3c3.3 0 3.5-5.2 3.5-10.3zm9.7 0c0-6.2 4.4-11.1 10.9-11.1c7 0 11 4.9 11 11.1c0 6.2-4 11.2-11 11.2c-6.5 0-10.9-5-10.9-11.2zm14.5 0c0-5.1-.3-10.2-3.6-10.2c-3.2 0-3.5 5.1-3.5 10.2c0 5.1.3 10.3 3.5 10.3c3.3 0 3.6-5.2 3.6-10.3z" stroke="none" fill="#fff"/></g></svg>