<?xml version="1.0" standalone="no"?><!DOCTYPE svg PUBLIC "-//W3C//DTD SVG 1.1//EN" "http://www.w3.org/Graphics/SVG/1.1/DTD/svg11.dtd"><svg xmlns="http://www.w3.org/2000/svg" version="1.1" width="167px" height="65.2px" viewBox="0 -10 167 65.2" style="top:-10px"><desc>67%</desc><defs/><g id="Polygon183082"><path d="m71.4 21.3c0 6-3.5 10.5-10.5 10.5c-7.9 0-10.8-6.9-10.8-13c0-9.6 7.1-17.5 18.6-18.3c0 0 .1.7.1.7c-6.2 1.2-11 7.8-11.8 12.7c1.5-1.7 3.3-2.5 6.1-2.5c4.8 0 8.3 5 8.3 9.9zm-7.3 1.3c0-4.2-1.2-9.6-3.9-9.6c-2.7 0-2.9 4.4-2.9 8.3c0 4.9 1.1 9.5 4.3 9.5c2.7 0 2.5-6.1 2.5-8.2zm30.1-12.3c-3.6 8.3-8.3 19.8-10.6 30.2c0 0-7.4 0-7.4 0c5.2-10.5 10.3-19.6 13.8-24c0 0-9.9 0-9.9 0c-3.5 0-6 1.6-7 3.7c.02-.04-.9 0-.9 0c0 0 2.77-11.09 2.8-11.1c.8.6 1.3 1.2 5.1 1.2c0 0 14.1 0 14.1 0zm3.9-6.2c0-2.8 1.8-4.7 4.4-4.7c2.5 0 4.4 1.9 4.4 4.7c0 2.8-1.9 4.8-4.4 4.8c-2.6 0-4.4-2-4.4-4.8zm6.6 8.3l4.8-7.7l3-5l1.1 0l-3.6 5.2l-4.9 7.7l-2.7 4.7l-1.1 0l3.4-4.9zm-.9-8.3c0-2.6-.1-4.2-1.3-4.2c-1.3 0-1.4 1.6-1.4 4.2c0 2.6.1 4.3 1.4 4.3c1.2 0 1.3-1.7 1.3-4.3zm4.4 8.7c0-2.8 1.8-4.8 4.4-4.8c2.5 0 4.4 2 4.4 4.8c0 2.8-1.9 4.8-4.4 4.8c-2.6 0-4.4-2-4.4-4.8zm5.7 0c0-2.6-.1-4.2-1.3-4.2c-1.2 0-1.4 1.6-1.4 4.2c0 2.6.2 4.3 1.4 4.3c1.2 0 1.3-1.7 1.3-4.3z" stroke="none" fill="#144542"/></g></svg>