<?xml version="1.0" standalone="no"?><!DOCTYPE svg PUBLIC "-//W3C//DTD SVG 1.1//EN" "http://www.w3.org/Graphics/SVG/1.1/DTD/svg11.dtd"><svg xmlns="http://www.w3.org/2000/svg" version="1.1" width="281.3px" height="73.8px" viewBox="0 -3 281.3 73.8" style="top:-3px"><desc>Faciliter l’acc s l’emploi des personnes r fugi es en tendant un maximum lutter contre le d classement et acc l r...</desc><defs/><g id="Polygon185615"><path d="m1.1 65.5l0-9.8l1.6 0c0 0 .01.93 0 .9c.4-.6 1.2-1.1 2.3-1.1c2 0 3.2 1.6 3.2 3.7c0 2.1-1.3 3.7-3.3 3.7c-1 0-1.8-.4-2.1-1c-.05.03 0 3.6 0 3.6l-1.7 0zm5.4-6.3c0-1.3-.7-2.2-1.9-2.2c-1.1 0-1.9.9-1.9 2.2c0 1.3.8 2.2 1.9 2.2c1.2 0 1.9-.9 1.9-2.2c0 0 0 0 0 0zm5-.5c0 0 1.9-.3 1.9-.3c.4 0 .5-.3.5-.5c0-.6-.4-1.1-1.4-1.1c-.8 0-1.3.6-1.4 1.3c0 0-1.5-.3-1.5-.3c.1-1.3 1.2-2.3 2.9-2.3c2.2 0 3 1.2 3 2.6c0 0 0 3.5 0 3.5c0 .6.1 1.1.1 1.1c0 0-1.5 0-1.5 0c-.1 0-.1-.3-.1-.9c-.4.6-1.1 1.1-2.2 1.1c-1.5 0-2.4-1-2.4-2.1c0-1.2.9-1.9 2.1-2.1zm2.4 1.1c-.02 0 0-.3 0-.3c0 0-1.87.26-1.9.3c-.5 0-.9.3-.9.9c0 .5.4.9 1 .9c1 0 1.8-.4 1.8-1.8zm7.8-2.5c-.2 0-.4 0-.6 0c-1.3 0-1.9.7-1.9 2.1c.04-.03 0 3.3 0 3.3l-1.6 0l0-7l1.6 0c0 0 0 1.1 0 1.1c.3-.8 1.1-1.2 2-1.2c.2 0 .4 0 .5 0c0 0 0 1.7 0 1.7zm2.5 1.9c0 1.4.9 2.2 1.9 2.2c1.1 0 1.6-.8 1.8-1.3c0 0 1.5.5 1.5.5c-.4 1.1-1.4 2.3-3.3 2.3c-2 0-3.6-1.6-3.6-3.7c0-2.2 1.6-3.7 3.6-3.7c1.9 0 2.9 1.1 3.2 2.3c0 0-1.5.5-1.5.5c-.1-.6-.6-1.3-1.7-1.3c-1 0-1.9.8-1.9 2.2zm11.7 0c0-1.5-1-2.2-2-2.2c-1 0-2 .7-2 2.2c0 1.5 1 2.2 2 2.2c1 0 2-.7 2-2.2zm1.7 0c0 2.2-1.6 3.7-3.7 3.7c-2.1 0-3.7-1.5-3.7-3.7c0-2.2 1.6-3.7 3.7-3.7c2.1 0 3.7 1.5 3.7 3.7zm6.1 2.7c-.3.7-1.1 1-2 1c-1.6 0-2.6-1.2-2.6-2.8c-.02.02 0-4.4 0-4.4l1.7 0c0 0-.04 4.12 0 4.1c0 .9.4 1.6 1.4 1.6c1 0 1.5-.6 1.5-1.6c-.04.05 0-4.1 0-4.1l1.6 0c0 0 .04 5.74 0 5.7c0 .6.1 1.1.1 1.3c0 0-1.6 0-1.6 0c0-.1-.1-.5-.1-.8c0 0 0 0 0 0zm7.9-4.6c-.1 0-.3 0-.5 0c-1.3 0-1.9.7-1.9 2.1c0-.03 0 3.3 0 3.3l-1.7 0l0-7l1.7 0c0 0-.05 1.1 0 1.1c.3-.8 1.1-1.2 2-1.2c.2 0 .4 0 .4 0c0 0 0 1.7 0 1.7zm2.3 3.1c.1.6.5 1.2 1.4 1.2c.7 0 1.1-.4 1.1-.8c0-.4-.3-.7-.8-.8c0 0-1.1-.2-1.1-.2c-1.2-.3-1.9-1.1-1.9-2.1c0-1.2 1.2-2.2 2.6-2.2c2 0 2.6 1.2 2.8 1.9c0 0-1.5.4-1.5.4c0-.4-.3-1-1.3-1c-.6 0-1 .3-1 .8c0 .4.3.6.7.7c0 0 1.1.2 1.1.2c1.3.3 2 1.1 2 2.2c0 1.1-.8 2.2-2.6 2.2c-2.1 0-2.9-1.3-3-2.1c0 0 1.5-.4 1.5-.4zm12.4 1c1.1 0 1.9-.9 1.9-2.2c0-1.4-.8-2.2-1.9-2.2c-1.1 0-1.9.8-1.9 2.2c0 1.3.8 2.2 1.9 2.2zm3.5 0c0 .7.1 1.2.1 1.3c0 0-1.6 0-1.6 0c0-.1-.1-.6-.1-.9c-.3.6-1.1 1.1-2.1 1.1c-2 0-3.4-1.6-3.4-3.7c0-2.1 1.4-3.7 3.4-3.7c1.2 0 1.9.5 2.1 1c-.02 0 0-4.3 0-4.3l1.6 0c0 0 .02 9.24 0 9.2zm2.7-9.1c.7 0 1.2.6 1.2 1.4c0 1.9-1.2 2.6-2.1 2.7c0 0 0-.8 0-.8c.6-.1 1.1-.7 1.2-1.4c-.1.1-.2.1-.3.1c-.6 0-1-.4-1-1c0-.5.4-1 1-1zm2.9 10.4l0-7l1.6 0l0 7l-1.6 0zm.8-10.6c.6 0 1.1.5 1.1 1.1c0 .6-.5 1.1-1.1 1.1c-.6 0-1.1-.5-1.1-1.1c0-.6.5-1.1 1.1-1.1zm4.7 10.6l-1.7 0l0-7l1.6 0c0 0 .04.91 0 .9c.5-.8 1.3-1.1 2.1-1.1c1.7 0 2.6 1.2 2.6 2.8c-.02-.04 0 4.4 0 4.4l-1.7 0c0 0 0-4.15 0-4.1c0-.9-.4-1.6-1.5-1.6c-.9 0-1.4.7-1.4 1.7c-.02-.05 0 4 0 4zm8.8-7l1.4 0l0 1.5l-1.4 0c0 0-.05 3.24 0 3.2c0 .7.2.9.9.9c.2 0 .5 0 .5 0c0 0 0 1.4 0 1.4c-.1 0-.4.1-1 .1c-1.3 0-2.1-.8-2.1-2.1c-.01.02 0-3.5 0-3.5l-1.3 0l0-1.5c0 0 .34-.03.3 0c.8 0 1.1-.5 1.1-1.1c.03-.03 0-1.1 0-1.1l1.6 0l0 2.2zm6.6-.9l-1.4 0l1.3-2.2l2 0l-1.9 2.2zm1.1 3.6c0-.8-.6-1.5-1.7-1.5c-1.1 0-1.7.8-1.8 1.5c0 0 3.5 0 3.5 0zm1.6 2.3c-.4 1.2-1.5 2.2-3.2 2.2c-1.9 0-3.6-1.3-3.6-3.7c0-2.3 1.7-3.7 3.5-3.7c2.1 0 3.4 1.4 3.4 3.6c0 .3 0 .5 0 .6c0 0-5.2 0-5.2 0c0 1 .9 1.8 1.9 1.8c1 0 1.6-.5 1.8-1.2c0 0 1.4.4 1.4.4zm2.8 2c.1.9.8 1.5 1.7 1.5c1.4 0 2-.6 2-2.1c0 0 0-.7 0-.7c-.3.5-1 1-2 1c-1.9 0-3.3-1.4-3.3-3.4c0-1.9 1.3-3.5 3.3-3.5c1.1 0 1.8.5 2.1 1.1c-.03-.03 0-.9 0-.9l1.6 0c0 0 0 6.36 0 6.4c0 1.8-1 3.6-3.6 3.6c-1.9 0-3.2-1.2-3.4-2.6c0 0 1.6-.4 1.6-.4zm3.8-3.7c0-1.2-.8-2-1.8-2c-1.1 0-1.9.8-1.9 2c0 1.2.8 2 1.9 2c1 0 1.8-.8 1.8-2zm7.8-1.7c-.2 0-.4 0-.6 0c-1.3 0-1.9.7-1.9 2.1c.04-.03 0 3.3 0 3.3l-1.6 0l0-7l1.6 0c0 0-.01 1.1 0 1.1c.3-.8 1.1-1.2 2-1.2c.2 0 .4 0 .5 0c0 0 0 1.7 0 1.7zm3.1 1.4c0 0 1.8-.3 1.8-.3c.4 0 .5-.3.5-.5c0-.6-.4-1.1-1.3-1.1c-.9 0-1.4.6-1.4 1.3c0 0-1.6-.3-1.6-.3c.2-1.3 1.3-2.3 3-2.3c2.2 0 3 1.2 3 2.6c0 0 0 3.5 0 3.5c0 .6.1 1.1.1 1.1c0 0-1.6 0-1.6 0c0 0-.1-.3-.1-.9c-.3.6-1 1.1-2.1 1.1c-1.5 0-2.4-1-2.4-2.1c0-1.2.9-1.9 2.1-2.1zm2.3 1.1c.04 0 0-.3 0-.3c0 0-1.8.26-1.8.3c-.5 0-.9.3-.9.9c0 .5.3.9 1 .9c.9 0 1.7-.4 1.7-1.8zm5.8-4.1l1.5 0l0 1.5l-1.5 0c0 0 .02 3.24 0 3.2c0 .7.3.9.9.9c.3 0 .5 0 .6 0c0 0 0 1.4 0 1.4c-.1 0-.4.1-1 .1c-1.3 0-2.1-.8-2.1-2.1c-.04.02 0-3.5 0-3.5l-1.3 0l0-1.5c0 0 .32-.03.3 0c.8 0 1.1-.5 1.1-1.1c0-.03 0-1.1 0-1.1l1.5 0l0 2.2zm3.2 7l0-7l1.7 0l0 7l-1.7 0zm.8-10.6c.7 0 1.1.5 1.1 1.1c0 .6-.4 1.1-1.1 1.1c-.6 0-1-.5-1-1.1c0-.6.4-1.1 1-1.1zm8.1 7.1c0-1.5-.9-2.2-1.9-2.2c-1.1 0-2 .7-2 2.2c0 1.5.9 2.2 2 2.2c1 0 1.9-.7 1.9-2.2zm1.7 0c0 2.2-1.5 3.7-3.6 3.7c-2.1 0-3.7-1.5-3.7-3.7c0-2.2 1.6-3.7 3.7-3.7c2.1 0 3.6 1.5 3.6 3.7zm3.3 3.5l-1.6 0l0-7l1.6 0c0 0-.01.91 0 .9c.5-.8 1.3-1.1 2.1-1.1c1.7 0 2.5 1.2 2.5 2.8c.03-.04 0 4.4 0 4.4l-1.6 0c0 0-.05-4.15 0-4.1c0-.9-.4-1.6-1.5-1.6c-1 0-1.5.7-1.5 1.7c.03-.05 0 4 0 4z" stroke="none" fill="#144542"/></g><g id="Polygon185614"><path d="m2.2 42.2c0 1.4.9 2.2 2 2.2c1.1 0 1.6-.8 1.8-1.3c0 0 1.4.5 1.4.5c-.3 1.1-1.4 2.3-3.2 2.3c-2.1 0-3.7-1.6-3.7-3.7c0-2.2 1.6-3.7 3.6-3.7c1.9 0 3 1.1 3.3 2.3c0 0-1.5.5-1.5.5c-.2-.6-.7-1.3-1.7-1.3c-1.1 0-2 .8-2 2.2zm11.7 0c0-1.5-.9-2.2-1.9-2.2c-1.1 0-2 .7-2 2.2c0 1.5.9 2.2 2 2.2c1 0 1.9-.7 1.9-2.2zm1.7 0c0 2.2-1.5 3.7-3.6 3.7c-2.1 0-3.7-1.5-3.7-3.7c0-2.2 1.6-3.7 3.7-3.7c2.1 0 3.6 1.5 3.6 3.7zm3.3 3.5l-1.6 0l0-7l1.6 0c0 0-.01.91 0 .9c.5-.8 1.3-1.1 2.1-1.1c1.7 0 2.5 1.2 2.5 2.8c.03-.04 0 4.4 0 4.4l-1.6 0c0 0-.05-4.15 0-4.1c0-.9-.4-1.6-1.5-1.6c-1 0-1.5.7-1.5 1.7c.04-.05 0 4 0 4zm8.8-7l1.5 0l0 1.5l-1.5 0c0 0 .01 3.24 0 3.2c0 .7.3.9.9.9c.2 0 .5 0 .6 0c0 0 0 1.4 0 1.4c-.1 0-.4.1-1 .1c-1.3 0-2.2-.8-2.2-2.1c.04.02 0-3.5 0-3.5l-1.3 0l0-1.5c0 0 .4-.03.4 0c.8 0 1.1-.5 1.1-1.1c-.01-.03 0-1.1 0-1.1l1.5 0l0 2.2zm7.2 1.6c-.2 0-.4 0-.6 0c-1.3 0-1.9.7-1.9 2.1c.05-.03 0 3.3 0 3.3l-1.6 0l0-7l1.6 0c0 0 .01 1.1 0 1.1c.3-.8 1.1-1.2 2.1-1.2c.2 0 .3 0 .4 0c0 0 0 1.7 0 1.7zm6 1.1c-.1-.8-.6-1.5-1.8-1.5c-1 0-1.6.8-1.7 1.5c0 0 3.5 0 3.5 0zm1.6 2.3c-.4 1.2-1.5 2.2-3.2 2.2c-1.9 0-3.6-1.3-3.6-3.7c0-2.3 1.6-3.7 3.4-3.7c2.2 0 3.5 1.4 3.5 3.6c0 .3-.1.5-.1.6c0 0-5.1 0-5.1 0c0 1 .9 1.8 1.9 1.8c1 0 1.5-.5 1.8-1.2c0 0 1.4.4 1.4.4zm5.3 2l0-10.5l1.7 0l0 10.5l-1.7 0zm8.5-4.3c-.1-.8-.6-1.5-1.8-1.5c-1 0-1.6.8-1.7 1.5c0 0 3.5 0 3.5 0zm1.6 2.3c-.4 1.2-1.5 2.2-3.2 2.2c-1.9 0-3.6-1.3-3.6-3.7c0-2.3 1.6-3.7 3.4-3.7c2.2 0 3.5 1.4 3.5 3.6c0 .3-.1.5-.1.6c0 0-5.1 0-5.1 0c0 1 .8 1.8 1.9 1.8c1 0 1.5-.5 1.8-1.2c0 0 1.4.4 1.4.4zm8.3.7c1.1 0 1.9-.9 1.9-2.2c0-1.4-.8-2.2-1.9-2.2c-1.1 0-1.9.8-1.9 2.2c0 1.3.8 2.2 1.9 2.2zm3.5 0c0 .7.1 1.2.1 1.3c0 0-1.6 0-1.6 0c-.1-.1-.1-.6-.1-.9c-.3.6-1.1 1.1-2.1 1.1c-2 0-3.4-1.6-3.4-3.7c0-2.1 1.4-3.7 3.4-3.7c1.2 0 1.8.5 2.1 1c-.04 0 0-4.3 0-4.3l1.6 0c0 0 0 9.24 0 9.2zm5.7-6.6l-1.4 0l1.3-2.2l2 0l-1.9 2.2zm1.1 3.6c0-.8-.5-1.5-1.7-1.5c-1.1 0-1.7.8-1.7 1.5c0 0 3.4 0 3.4 0zm1.7 2.3c-.4 1.2-1.5 2.2-3.2 2.2c-2 0-3.6-1.3-3.6-3.7c0-2.3 1.6-3.7 3.4-3.7c2.2 0 3.4 1.4 3.4 3.6c0 .3 0 .5 0 .6c0 0-5.2 0-5.2 0c.1 1 .9 1.8 2 1.8c1 0 1.5-.5 1.7-1.2c0 0 1.5.4 1.5.4zm2.8-1.5c0 1.4.9 2.2 2 2.2c1.1 0 1.6-.8 1.7-1.3c0 0 1.5.5 1.5.5c-.3 1.1-1.4 2.3-3.2 2.3c-2.1 0-3.7-1.6-3.7-3.7c0-2.2 1.6-3.7 3.6-3.7c1.9 0 3 1.1 3.2 2.3c0 0-1.5.5-1.5.5c-.1-.6-.6-1.3-1.7-1.3c-1 0-1.9.8-1.9 2.2zm6.7 3.5l0-10.5l1.7 0l0 10.5l-1.7 0zm5.5-4c0 0 1.8-.3 1.8-.3c.4 0 .6-.3.6-.5c0-.6-.5-1.1-1.4-1.1c-.9 0-1.4.6-1.4 1.3c0 0-1.6-.3-1.6-.3c.2-1.3 1.3-2.3 3-2.3c2.2 0 3 1.2 3 2.6c0 0 0 3.5 0 3.5c0 .6.1 1.1.1 1.1c0 0-1.6 0-1.6 0c0 0 0-.3 0-.9c-.4.6-1.1 1.1-2.2 1.1c-1.5 0-2.4-1-2.4-2.1c0-1.2.9-1.9 2.1-2.1zm2.4 1.1c-.05 0 0-.3 0-.3c0 0-1.89.26-1.9.3c-.5 0-.9.3-.9.9c0 .5.3.9 1 .9c.9 0 1.8-.4 1.8-1.8zm4.5.6c0 .6.5 1.2 1.4 1.2c.7 0 1.1-.4 1.1-.8c0-.4-.3-.7-.9-.8c0 0-1-.2-1-.2c-1.2-.3-1.9-1.1-1.9-2.1c0-1.2 1.1-2.2 2.6-2.2c2 0 2.6 1.2 2.7 1.9c0 0-1.4.4-1.4.4c-.1-.4-.4-1-1.3-1c-.6 0-1 .3-1 .8c0 .4.3.6.7.7c0 0 1.1.2 1.1.2c1.3.3 2 1.1 2 2.2c0 1.1-.9 2.2-2.7 2.2c-2 0-2.8-1.3-2.9-2.1c0 0 1.5-.4 1.5-.4zm6.6 0c.1.6.5 1.2 1.4 1.2c.7 0 1.1-.4 1.1-.8c0-.4-.3-.7-.8-.8c0 0-1.1-.2-1.1-.2c-1.2-.3-1.9-1.1-1.9-2.1c0-1.2 1.2-2.2 2.6-2.2c2 0 2.6 1.2 2.7 1.9c0 0-1.4.4-1.4.4c0-.4-.3-1-1.3-1c-.6 0-1 .3-1 .8c0 .4.3.6.7.7c0 0 1.1.2 1.1.2c1.3.3 2 1.1 2 2.2c0 1.1-.8 2.2-2.6 2.2c-2.1 0-2.9-1.3-3-2.1c0 0 1.5-.4 1.5-.4zm10.4-2c0-.8-.6-1.5-1.8-1.5c-1 0-1.6.8-1.7 1.5c0 0 3.5 0 3.5 0zm1.6 2.3c-.4 1.2-1.5 2.2-3.2 2.2c-1.9 0-3.6-1.3-3.6-3.7c0-2.3 1.6-3.7 3.4-3.7c2.2 0 3.5 1.4 3.5 3.6c0 .3 0 .5-.1.6c0 0-5.1 0-5.1 0c0 1 .9 1.8 1.9 1.8c1 0 1.5-.5 1.8-1.2c0 0 1.4.4 1.4.4zm1.7 2l0-7l1.6 0c0 0 0 .87 0 .9c.4-.8 1.3-1.1 2.1-1.1c.9 0 1.7.4 2.1 1.2c.6-.9 1.4-1.2 2.3-1.2c1.3 0 2.5.8 2.5 2.6c-.01.05 0 4.6 0 4.6l-1.6 0c0 0-.03-4.28 0-4.3c0-.8-.5-1.4-1.4-1.4c-.9 0-1.5.7-1.5 1.5c.04.04 0 4.2 0 4.2l-1.6 0c0 0-.01-4.28 0-4.3c0-.8-.4-1.4-1.4-1.4c-.9 0-1.4.6-1.4 1.5c-.04.04 0 4.2 0 4.2l-1.7 0zm17.3-4.3c0-.8-.6-1.5-1.8-1.5c-1 0-1.6.8-1.7 1.5c0 0 3.5 0 3.5 0zm1.6 2.3c-.4 1.2-1.5 2.2-3.2 2.2c-1.9 0-3.6-1.3-3.6-3.7c0-2.3 1.7-3.7 3.4-3.7c2.2 0 3.5 1.4 3.5 3.6c0 .3 0 .5-.1.6c0 0-5.1 0-5.1 0c0 1 .9 1.8 1.9 1.8c1 0 1.5-.5 1.8-1.2c0 0 1.4.4 1.4.4zm3.4 2l-1.7 0l0-7l1.6 0c0 0 .03.91 0 .9c.5-.8 1.3-1.1 2.1-1.1c1.7 0 2.6 1.2 2.6 2.8c-.03-.04 0 4.4 0 4.4l-1.7 0c0 0-.01-4.15 0-4.1c0-.9-.4-1.6-1.5-1.6c-.9 0-1.4.7-1.4 1.7c-.02-.05 0 4 0 4zm8.7-7l1.5 0l0 1.5l-1.5 0c0 0 .05 3.24 0 3.2c0 .7.3.9.9.9c.3 0 .6 0 .6 0c0 0 0 1.4 0 1.4c-.1 0-.4.1-1 .1c-1.3 0-2.1-.8-2.1-2.1c-.02.02 0-3.5 0-3.5l-1.3 0l0-1.5c0 0 .34-.03.3 0c.8 0 1.1-.5 1.1-1.1c.03-.03 0-1.1 0-1.1l1.5 0l0 2.2zm11.4 2.7c0-.8-.5-1.5-1.7-1.5c-1.1 0-1.7.8-1.7 1.5c0 0 3.4 0 3.4 0zm1.7 2.3c-.4 1.2-1.5 2.2-3.2 2.2c-1.9 0-3.6-1.3-3.6-3.7c0-2.3 1.6-3.7 3.4-3.7c2.2 0 3.4 1.4 3.4 3.6c0 .3 0 .5 0 .6c0 0-5.2 0-5.2 0c.1 1 .9 1.8 2 1.8c1 0 1.5-.5 1.7-1.2c0 0 1.5.4 1.5.4zm3.8-5l1.4 0l0 1.5l-1.4 0c0 0-.02 3.24 0 3.2c0 .7.3.9.9.9c.2 0 .5 0 .6 0c0 0 0 1.4 0 1.4c-.1 0-.5.1-1.1.1c-1.3 0-2.1-.8-2.1-2.1c.02.02 0-3.5 0-3.5l-1.3 0l0-1.5c0 0 .37-.03.4 0c.7 0 1.1-.5 1.1-1.1c-.04-.03 0-1.1 0-1.1l1.5 0l0 2.2zm8.4 3c0 0 1.8-.3 1.8-.3c.5 0 .6-.3.6-.5c0-.6-.4-1.1-1.4-1.1c-.8 0-1.3.6-1.4 1.3c0 0-1.5-.3-1.5-.3c.1-1.3 1.2-2.3 2.9-2.3c2.2 0 3 1.2 3 2.6c0 0 0 3.5 0 3.5c0 .6.1 1.1.1 1.1c0 0-1.6 0-1.6 0c0 0 0-.3 0-.9c-.4.6-1.1 1.1-2.2 1.1c-1.5 0-2.4-1-2.4-2.1c0-1.2.9-1.9 2.1-2.1zm2.4 1.1c-.03 0 0-.3 0-.3c0 0-1.87.26-1.9.3c-.5 0-.9.3-.9.9c0 .5.3.9 1 .9c1 0 1.8-.4 1.8-1.8zm4.8-.6c0 1.4.9 2.2 1.9 2.2c1.1 0 1.7-.8 1.8-1.3c0 0 1.5.5 1.5.5c-.3 1.1-1.4 2.3-3.3 2.3c-2 0-3.6-1.6-3.6-3.7c0-2.2 1.6-3.7 3.6-3.7c1.9 0 2.9 1.1 3.2 2.3c0 0-1.5.5-1.5.5c-.1-.6-.6-1.3-1.7-1.3c-1 0-1.9.8-1.9 2.2zm7.7 0c0 1.4 1 2.2 2 2.2c1.1 0 1.6-.8 1.8-1.3c0 0 1.5.5 1.5.5c-.4 1.1-1.4 2.3-3.3 2.3c-2.1 0-3.6-1.6-3.6-3.7c0-2.2 1.5-3.7 3.6-3.7c1.9 0 2.9 1.1 3.2 2.3c0 0-1.5.5-1.5.5c-.2-.6-.6-1.3-1.7-1.3c-1 0-2 .8-2 2.2zm10.2-4.4l-1.4 0l1.3-2.2l2 0l-1.9 2.2zm1.1 3.6c0-.8-.6-1.5-1.7-1.5c-1.1 0-1.7.8-1.7 1.5c0 0 3.4 0 3.4 0zm1.6 2.3c-.3 1.2-1.5 2.2-3.2 2.2c-1.9 0-3.6-1.3-3.6-3.7c0-2.3 1.7-3.7 3.5-3.7c2.1 0 3.4 1.4 3.4 3.6c0 .3 0 .5 0 .6c0 0-5.2 0-5.2 0c.1 1 .9 1.8 1.9 1.8c1.1 0 1.6-.5 1.8-1.2c0 0 1.4.4 1.4.4zm1.7 2l0-10.5l1.7 0l0 10.5l-1.7 0zm7.4-7.9l-1.4 0l1.3-2.2l2 0l-1.9 2.2zm1.1 3.6c0-.8-.6-1.5-1.7-1.5c-1.1 0-1.7.8-1.7 1.5c0 0 3.4 0 3.4 0zm1.6 2.3c-.3 1.2-1.5 2.2-3.2 2.2c-1.9 0-3.6-1.3-3.6-3.7c0-2.3 1.7-3.7 3.5-3.7c2.1 0 3.4 1.4 3.4 3.6c0 .3 0 .5 0 .6c0 0-5.2 0-5.2 0c.1 1 .9 1.8 1.9 1.8c1.1 0 1.6-.5 1.8-1.2c0 0 1.4.4 1.4.4zm5.9-3.4c-.2 0-.4 0-.6 0c-1.3 0-1.9.7-1.9 2.1c.01-.03 0 3.3 0 3.3l-1.7 0l0-7l1.7 0c0 0-.03 1.1 0 1.1c.3-.8 1.1-1.2 2-1.2c.2 0 .4 0 .5 0c0 0 0 1.7 0 1.7zm5.9 1.1c0-.8-.5-1.5-1.7-1.5c-1.1 0-1.7.8-1.7 1.5c0 0 3.4 0 3.4 0zm1.6 2.3c-.3 1.2-1.4 2.2-3.1 2.2c-2 0-3.7-1.3-3.7-3.7c0-2.3 1.7-3.7 3.5-3.7c2.2 0 3.4 1.4 3.4 3.6c0 .3 0 .5 0 .6c0 0-5.2 0-5.2 0c.1 1 .9 1.8 2 1.8c1 0 1.5-.5 1.7-1.2c0 0 1.4.4 1.4.4zm5.9-3.4c-.2 0-.4 0-.6 0c-1.3 0-1.9.7-1.9 2.1c.03-.03 0 3.3 0 3.3l-1.7 0l0-7l1.7 0c0 0-.02 1.1 0 1.1c.3-.8 1.1-1.2 2-1.2c.2 0 .4 0 .5 0c0 0 0 1.7 0 1.7zm5 5.4l0-10.5l1.6 0l0 10.5l-1.6 0zm8.4-4.3c0-.8-.5-1.5-1.7-1.5c-1.1 0-1.7.8-1.7 1.5c0 0 3.4 0 3.4 0zm1.7 2.3c-.4 1.2-1.5 2.2-3.2 2.2c-1.9 0-3.6-1.3-3.6-3.7c0-2.3 1.6-3.7 3.4-3.7c2.2 0 3.4 1.4 3.4 3.6c0 .3 0 .5 0 .6c0 0-5.2 0-5.2 0c.1 1 .9 1.8 2 1.8c1 0 1.5-.5 1.7-1.2c0 0 1.5.4 1.5.4zm6.1 1.2c-.3.7-1.2 1-2 1c-1.7 0-2.7-1.2-2.7-2.8c.04.02 0-4.4 0-4.4l1.7 0c0 0 .02 4.12 0 4.1c0 .9.4 1.6 1.4 1.6c1 0 1.5-.6 1.5-1.6c.02.05 0-4.1 0-4.1l1.7 0c0 0 0 5.74 0 5.7c0 .6 0 1.1.1 1.3c0 0-1.6 0-1.6 0c-.1-.1-.1-.5-.1-.8c0 0 0 0 0 0zm7.9-4.6c-.2 0-.4 0-.5 0c-1.3 0-1.9.7-1.9 2.1c-.04-.03 0 3.3 0 3.3l-1.7 0l0-7l1.6 0c0 0 .01 1.1 0 1.1c.3-.8 1.1-1.2 2.1-1.2c.2 0 .3 0 .4 0c0 0 0 1.7 0 1.7z" stroke="none" fill="#144542"/></g><g id="Polygon185613"><path d="m5.2 23.3c-.2 0-.4 0-.5 0c-1.3 0-1.9.7-1.9 2.1c-.03-.03 0 3.3 0 3.3l-1.7 0l0-7l1.6 0c0 0 .03 1.1 0 1.1c.4-.8 1.1-1.2 2.1-1.2c.2 0 .3 0 .4 0c0 0 0 1.7 0 1.7zm4.9-2.5l-1.4 0l1.3-2.2l2 0l-1.9 2.2zm1.1 3.6c0-.8-.6-1.5-1.7-1.5c-1.1 0-1.7.8-1.8 1.5c0 0 3.5 0 3.5 0zm1.6 2.3c-.4 1.2-1.5 2.2-3.2 2.2c-1.9 0-3.6-1.3-3.6-3.7c0-2.3 1.7-3.7 3.4-3.7c2.2 0 3.5 1.4 3.5 3.6c0 .3 0 .5-.1.6c0 0-5.1 0-5.1 0c0 1 .9 1.8 1.9 1.8c1 0 1.6-.5 1.8-1.2c0 0 1.4.4 1.4.4zm3.8-6c-.01.04 0 1 0 1l1.6 0l0 1.4l-1.6 0l0 5.6l-1.7 0l0-5.6l-1.2 0l0-1.4l1.2 0c0 0-.01-1 0-1c0-1.6 1-2.5 2.5-2.5c.4 0 .7 0 .8.1c0 0 0 1.4 0 1.4c-.1 0-.3 0-.6 0c-.4 0-1 .2-1 1zm7.5 7.2c-.3.7-1.1 1-2 1c-1.7 0-2.6-1.2-2.6-2.8c-.04.02 0-4.4 0-4.4l1.6 0c0 0 .04 4.12 0 4.1c0 .9.4 1.6 1.5 1.6c.9 0 1.4-.6 1.4-1.6c.04.05 0-4.1 0-4.1l1.7 0c0 0 .02 5.74 0 5.7c0 .6.1 1.1.1 1.3c0 0-1.6 0-1.6 0c0-.1-.1-.5-.1-.8c0 0 0 0 0 0zm4.8.8c.1.9.8 1.5 1.8 1.5c1.3 0 2-.6 2-2.1c0 0 0-.7 0-.7c-.3.5-1 1-2.1 1c-1.9 0-3.2-1.4-3.2-3.4c0-1.9 1.3-3.5 3.2-3.5c1.1 0 1.8.5 2.1 1.1c.01-.03 0-.9 0-.9l1.6 0c0 0 .03 6.36 0 6.4c0 1.8-.9 3.6-3.6 3.6c-1.9 0-3.2-1.2-3.4-2.6c0 0 1.6-.4 1.6-.4zm3.8-3.7c0-1.2-.8-2-1.8-2c-1.1 0-1.8.8-1.8 2c0 1.2.7 2 1.8 2c1.1 0 1.8-.8 1.8-2zm3.7 3.7l0-7l1.7 0l0 7l-1.7 0zm.8-10.6c.6 0 1.1.5 1.1 1.1c0 .6-.5 1.1-1.1 1.1c-.6 0-1.1-.5-1.1-1.1c0-.6.5-1.1 1.1-1.1zm6.5 2.7l-1.3 0l1.3-2.2l1.9 0l-1.9 2.2zm1.2 3.6c-.1-.8-.6-1.5-1.8-1.5c-1 0-1.6.8-1.7 1.5c0 0 3.5 0 3.5 0zm1.6 2.3c-.4 1.2-1.5 2.2-3.2 2.2c-1.9 0-3.6-1.3-3.6-3.7c0-2.3 1.6-3.7 3.4-3.7c2.2 0 3.5 1.4 3.5 3.6c0 .3-.1.5-.1.6c0 0-5.1 0-5.1 0c0 1 .9 1.8 1.9 1.8c1 0 1.5-.5 1.8-1.2c0 0 1.4.4 1.4.4zm6.3-2.3c0-.8-.6-1.5-1.7-1.5c-1.1 0-1.7.8-1.7 1.5c0 0 3.4 0 3.4 0zm1.6 2.3c-.3 1.2-1.5 2.2-3.2 2.2c-1.9 0-3.6-1.3-3.6-3.7c0-2.3 1.7-3.7 3.5-3.7c2.1 0 3.4 1.4 3.4 3.6c0 .3 0 .5 0 .6c0 0-5.2 0-5.2 0c.1 1 .9 1.8 1.9 1.8c1.1 0 1.6-.5 1.8-1.2c0 0 1.4.4 1.4.4zm2.6-.3c0 .6.5 1.2 1.4 1.2c.7 0 1.1-.4 1.1-.8c0-.4-.3-.7-.9-.8c0 0-1-.2-1-.2c-1.3-.3-1.9-1.1-1.9-2.1c0-1.2 1.1-2.2 2.6-2.2c2 0 2.6 1.2 2.7 1.9c0 0-1.4.4-1.4.4c-.1-.4-.4-1-1.3-1c-.6 0-1 .3-1 .8c0 .4.2.6.7.7c0 0 1.1.2 1.1.2c1.3.3 2 1.1 2 2.2c0 1.1-.9 2.2-2.7 2.2c-2 0-2.8-1.3-2.9-2.1c0 0 1.5-.4 1.5-.4zm14-2c0-.8-.6-1.5-1.7-1.5c-1.1 0-1.7.8-1.8 1.5c0 0 3.5 0 3.5 0zm1.6 2.3c-.4 1.2-1.5 2.2-3.2 2.2c-1.9 0-3.6-1.3-3.6-3.7c0-2.3 1.7-3.7 3.4-3.7c2.2 0 3.5 1.4 3.5 3.6c0 .3 0 .5-.1.6c0 0-5.1 0-5.1 0c0 1 .9 1.8 1.9 1.8c1 0 1.5-.5 1.8-1.2c0 0 1.4.4 1.4.4zm3.4 2l-1.7 0l0-7l1.6 0c0 0 .03.91 0 .9c.5-.8 1.3-1.1 2.1-1.1c1.7 0 2.6 1.2 2.6 2.8c-.03-.04 0 4.4 0 4.4l-1.7 0c0 0-.01-4.15 0-4.1c0-.9-.4-1.6-1.5-1.6c-.9 0-1.4.7-1.4 1.7c-.02-.05 0 4 0 4zm12.3-7l1.5 0l0 1.5l-1.5 0c0 0 .05 3.24 0 3.2c0 .7.3.9.9.9c.3 0 .6 0 .6 0c0 0 0 1.4 0 1.4c-.1 0-.4.1-1 .1c-1.3 0-2.1-.8-2.1-2.1c-.02.02 0-3.5 0-3.5l-1.3 0l0-1.5c0 0 .34-.03.3 0c.8 0 1.1-.5 1.1-1.1c.03-.03 0-1.1 0-1.1l1.5 0l0 2.2zm7.8 2.7c0-.8-.6-1.5-1.7-1.5c-1.1 0-1.7.8-1.8 1.5c0 0 3.5 0 3.5 0zm1.6 2.3c-.4 1.2-1.5 2.2-3.2 2.2c-1.9 0-3.6-1.3-3.6-3.7c0-2.3 1.7-3.7 3.4-3.7c2.2 0 3.5 1.4 3.5 3.6c0 .3 0 .5 0 .6c0 0-5.2 0-5.2 0c0 1 .9 1.8 1.9 1.8c1 0 1.6-.5 1.8-1.2c0 0 1.4.4 1.4.4zm3.4 2l-1.7 0l0-7l1.6 0c0 0 .05.91 0 .9c.5-.8 1.4-1.1 2.1-1.1c1.8 0 2.6 1.2 2.6 2.8c-.01-.04 0 4.4 0 4.4l-1.7 0c0 0 .01-4.15 0-4.1c0-.9-.4-1.6-1.4-1.6c-1 0-1.5.7-1.5 1.7c-.01-.05 0 4 0 4zm9.7-1.3c1.1 0 1.8-.9 1.8-2.2c0-1.4-.7-2.2-1.8-2.2c-1.1 0-1.9.8-1.9 2.2c0 1.3.7 2.2 1.9 2.2zm3.5 0c0 .7 0 1.2 0 1.3c0 0-1.6 0-1.6 0c0-.1-.1-.6-.1-.9c-.3.6-1 1.1-2 1.1c-2.1 0-3.4-1.6-3.4-3.7c0-2.1 1.4-3.7 3.3-3.7c1.3 0 1.9.5 2.1 1c.02 0 0-4.3 0-4.3l1.7 0c0 0-.04 9.24 0 9.2zm3.8-2.7c0 0 1.8-.3 1.8-.3c.4 0 .6-.3.6-.5c0-.6-.4-1.1-1.4-1.1c-.9 0-1.3.6-1.4 1.3c0 0-1.6-.3-1.6-.3c.2-1.3 1.3-2.3 3-2.3c2.2 0 3 1.2 3 2.6c0 0 0 3.5 0 3.5c0 .6.1 1.1.1 1.1c0 0-1.6 0-1.6 0c0 0 0-.3 0-.9c-.4.6-1.1 1.1-2.2 1.1c-1.5 0-2.4-1-2.4-2.1c0-1.2.9-1.9 2.1-2.1zm2.4 1.1c-.04 0 0-.3 0-.3c0 0-1.88.26-1.9.3c-.5 0-.9.3-.9.9c0 .5.3.9 1 .9c1 0 1.8-.4 1.8-1.8zm5.3 2.9l-1.7 0l0-7l1.7 0c0 0-.02.91 0 .9c.4-.8 1.3-1.1 2.1-1.1c1.7 0 2.5 1.2 2.5 2.8c.02-.04 0 4.4 0 4.4l-1.7 0c0 0 .04-4.15 0-4.1c0-.9-.3-1.6-1.4-1.6c-1 0-1.5.7-1.5 1.7c.03-.05 0 4 0 4zm8.8-7l1.5 0l0 1.5l-1.5 0c0 0 0 3.24 0 3.2c0 .7.3.9.9.9c.2 0 .5 0 .6 0c0 0 0 1.4 0 1.4c-.1 0-.4.1-1.1.1c-1.3 0-2.1-.8-2.1-2.1c.03.02 0-3.5 0-3.5l-1.3 0l0-1.5c0 0 .39-.03.4 0c.7 0 1.1-.5 1.1-1.1c-.02-.03 0-1.1 0-1.1l1.5 0l0 2.2zm11.4 6.2c-.4.7-1.2 1-2 1c-1.7 0-2.7-1.2-2.7-2.8c-.01.02 0-4.4 0-4.4l1.7 0c0 0-.03 4.12 0 4.1c0 .9.4 1.6 1.4 1.6c1 0 1.5-.6 1.5-1.6c-.03.05 0-4.1 0-4.1l1.6 0c0 0 .05 5.74 0 5.7c0 .6.1 1.1.1 1.3c0 0-1.6 0-1.6 0c0-.1 0-.5 0-.8c0 0 0 0 0 0zm5.4.8l-1.7 0l0-7l1.7 0c0 0-.04.91 0 .9c.4-.8 1.3-1.1 2.1-1.1c1.7 0 2.5 1.2 2.5 2.8c0-.04 0 4.4 0 4.4l-1.7 0c0 0 .02-4.15 0-4.1c0-.9-.4-1.6-1.4-1.6c-1 0-1.5.7-1.5 1.7c.01-.05 0 4 0 4zm10.2 0l0-7l1.7 0c0 0-.05.87 0 .9c.4-.8 1.2-1.1 2-1.1c1 0 1.8.4 2.2 1.2c.5-.9 1.3-1.2 2.2-1.2c1.3 0 2.5.8 2.5 2.6c.04.05 0 4.6 0 4.6l-1.6 0c0 0 .02-4.28 0-4.3c0-.8-.4-1.4-1.3-1.4c-.9 0-1.5.7-1.5 1.5c-.01.04 0 4.2 0 4.2l-1.7 0c0 0 .04-4.28 0-4.3c0-.8-.4-1.4-1.3-1.4c-.9 0-1.5.6-1.5 1.5c.01.04 0 4.2 0 4.2l-1.7 0zm14.4-4c0 0 1.8-.3 1.8-.3c.4 0 .5-.3.5-.5c0-.6-.4-1.1-1.3-1.1c-.9 0-1.4.6-1.5 1.3c0 0-1.5-.3-1.5-.3c.1-1.3 1.2-2.3 3-2.3c2.2 0 3 1.2 3 2.6c0 0 0 3.5 0 3.5c0 .6.1 1.1.1 1.1c0 0-1.6 0-1.6 0c0 0-.1-.3-.1-.9c-.3.6-1 1.1-2.1 1.1c-1.5 0-2.4-1-2.4-2.1c0-1.2.9-1.9 2.1-2.1zm2.3 1.1c.03 0 0-.3 0-.3c0 0-1.81.26-1.8.3c-.5 0-1 .3-1 .9c0 .5.4.9 1.1.9c.9 0 1.7-.4 1.7-1.8zm5.4-.6l-2.6-3.5c0 0 2.03-.03 2 0c.2.2 1.5 2 1.6 2.2c-.02.03 1.5-2.2 1.5-2.2l1.9 0l-2.4 3.4l2.5 3.6l-2 0c0 0-1.59-2.33-1.6-2.3c-.1.2-1.5 2.1-1.6 2.3c.02.03-1.9 0-1.9 0l2.6-3.5zm5.8 3.5l0-7l1.6 0l0 7l-1.6 0zm.8-10.6c.6 0 1.1.5 1.1 1.1c0 .6-.5 1.1-1.1 1.1c-.6 0-1.1-.5-1.1-1.1c0-.6.5-1.1 1.1-1.1zm3 10.6l0-7l1.6 0c0 0 0 .87 0 .9c.4-.8 1.3-1.1 2.1-1.1c.9 0 1.7.4 2.1 1.2c.6-.9 1.4-1.2 2.3-1.2c1.3 0 2.5.8 2.5 2.6c-.01.05 0 4.6 0 4.6l-1.6 0c0 0-.03-4.28 0-4.3c0-.8-.4-1.4-1.4-1.4c-.9 0-1.5.7-1.5 1.5c.04.04 0 4.2 0 4.2l-1.6 0c0 0-.01-4.28 0-4.3c0-.8-.4-1.4-1.4-1.4c-.9 0-1.4.6-1.4 1.5c-.04.04 0 4.2 0 4.2l-1.7 0zm17.2-.8c-.4.7-1.2 1-2.1 1c-1.6 0-2.6-1.2-2.6-2.8c-.02.02 0-4.4 0-4.4l1.7 0c0 0-.04 4.12 0 4.1c0 .9.4 1.6 1.4 1.6c1 0 1.5-.6 1.5-1.6c-.04.05 0-4.1 0-4.1l1.6 0c0 0 .04 5.74 0 5.7c0 .6.1 1.1.1 1.3c0 0-1.6 0-1.6 0c0-.1 0-.5 0-.8c0 0 0 0 0 0zm3.7.8l0-7l1.6 0c0 0 .03.87 0 .9c.4-.8 1.3-1.1 2.1-1.1c.9 0 1.8.4 2.1 1.2c.6-.9 1.4-1.2 2.3-1.2c1.3 0 2.5.8 2.5 2.6c.02.05 0 4.6 0 4.6l-1.6 0c0 0 0-4.28 0-4.3c0-.8-.4-1.4-1.4-1.4c-.9 0-1.4.7-1.4 1.5c-.03.04 0 4.2 0 4.2l-1.7 0c0 0 .02-4.28 0-4.3c0-.8-.4-1.4-1.3-1.4c-.9 0-1.5.6-1.5 1.5c-.01.04 0 4.2 0 4.2l-1.7 0zm18-4c0 0 1.8-.3 1.8-.3c.4 0 .5-.3.5-.5c0-.6-.4-1.1-1.3-1.1c-.9 0-1.4.6-1.5 1.3c0 0-1.5-.3-1.5-.3c.1-1.3 1.2-2.3 3-2.3c2.1 0 3 1.2 3 2.6c0 0 0 3.5 0 3.5c0 .6 0 1.1 0 1.1c0 0-1.5 0-1.5 0c0 0-.1-.3-.1-.9c-.3.6-1 1.1-2.2 1.1c-1.4 0-2.4-1-2.4-2.1c0-1.2 1-1.9 2.2-2.1zm2.3 1.1c.01 0 0-.3 0-.3c0 0-1.84.26-1.8.3c-.6 0-1 .3-1 .9c0 .5.4.9 1 .9c1 0 1.8-.4 1.8-1.8zm-3.7-7.2l2 0l1.3 2.2l-1.4 0l-1.9-2.2zm11 10.1l0-10.5l1.7 0l0 10.5l-1.7 0zm8.4-.8c-.4.7-1.2 1-2 1c-1.7 0-2.7-1.2-2.7-2.8c.03.02 0-4.4 0-4.4l1.7 0c0 0 .01 4.12 0 4.1c0 .9.4 1.6 1.4 1.6c1 0 1.5-.6 1.5-1.6c.01.05 0-4.1 0-4.1l1.7 0c0 0-.01 5.74 0 5.7c0 .6 0 1.1.1 1.3c0 0-1.6 0-1.6 0c-.1-.1-.1-.5-.1-.8c0 0 0 0 0 0zm5.9-6.2l1.5 0l0 1.5l-1.5 0c0 0-.01 3.24 0 3.2c0 .7.3.9.9.9c.2 0 .5 0 .6 0c0 0 0 1.4 0 1.4c-.1 0-.4.1-1.1.1c-1.3 0-2.1-.8-2.1-2.1c.03.02 0-3.5 0-3.5l-1.3 0l0-1.5c0 0 .39-.03.4 0c.7 0 1.1-.5 1.1-1.1c-.03-.03 0-1.1 0-1.1l1.5 0l0 2.2zm5.3 0l1.5 0l0 1.5l-1.5 0c0 0-.01 3.24 0 3.2c0 .7.3.9.9.9c.2 0 .5 0 .6 0c0 0 0 1.4 0 1.4c-.1 0-.5.1-1.1.1c-1.3 0-2.1-.8-2.1-2.1c.02.02 0-3.5 0-3.5l-1.3 0l0-1.5c0 0 .38-.03.4 0c.7 0 1.1-.5 1.1-1.1c-.03-.03 0-1.1 0-1.1l1.5 0l0 2.2zm7.7 2.7c0-.8-.5-1.5-1.7-1.5c-1.1 0-1.7.8-1.7 1.5c0 0 3.4 0 3.4 0zm1.7 2.3c-.4 1.2-1.5 2.2-3.2 2.2c-2 0-3.6-1.3-3.6-3.7c0-2.3 1.6-3.7 3.4-3.7c2.2 0 3.4 1.4 3.4 3.6c0 .3 0 .5 0 .6c0 0-5.2 0-5.2 0c.1 1 .9 1.8 2 1.8c1 0 1.5-.5 1.7-1.2c0 0 1.5.4 1.5.4zm5.8-3.4c-.2 0-.4 0-.6 0c-1.3 0-1.9.7-1.9 2.1c.03-.03 0 3.3 0 3.3l-1.6 0l0-7l1.6 0c0 0-.01 1.1 0 1.1c.3-.8 1.1-1.2 2-1.2c.2 0 .4 0 .5 0c0 0 0 1.7 0 1.7z" stroke="none" fill="#144542"/></g><g id="Polygon185612"><path d="m1.2 11.7l0-10.2l6.4 0l0 1.6l-4.6 0l0 2.9l4.1 0l0 1.6l-4.1 0l0 4.1l-1.8 0zm9.2-4c0 0 1.8-.3 1.8-.3c.4 0 .5-.3.5-.5c0-.6-.4-1.1-1.3-1.1c-.9 0-1.4.6-1.5 1.3c0 0-1.5-.3-1.5-.3c.1-1.3 1.2-2.3 2.9-2.3c2.2 0 3 1.2 3 2.6c0 0 0 3.5 0 3.5c0 .6.1 1.1.1 1.1c0 0-1.5 0-1.5 0c-.1 0-.1-.3-.1-.9c-.3.6-1 1.1-2.2 1.1c-1.5 0-2.4-1-2.4-2.1c0-1.2.9-1.9 2.2-2.1zm2.3 1.1c-.01 0 0-.3 0-.3c0 0-1.85.26-1.9.3c-.5 0-.9.3-.9.9c0 .5.4.9 1 .9c1 0 1.8-.4 1.8-1.8zm4.8-.6c0 1.4.9 2.2 2 2.2c1.1 0 1.6-.8 1.7-1.3c0 0 1.5.5 1.5.5c-.3 1.1-1.4 2.3-3.2 2.3c-2.1 0-3.7-1.6-3.7-3.7c0-2.2 1.6-3.7 3.6-3.7c1.9 0 3 1.1 3.2 2.3c0 0-1.5.5-1.5.5c-.1-.6-.6-1.3-1.7-1.3c-1 0-1.9.8-1.9 2.2zm6.7 3.5l0-7l1.7 0l0 7l-1.7 0zm.8-10.6c.6 0 1.1.5 1.1 1.1c0 .6-.5 1.1-1.1 1.1c-.6 0-1.1-.5-1.1-1.1c0-.6.5-1.1 1.1-1.1zm3 10.6l0-10.5l1.7 0l0 10.5l-1.7 0zm3.9 0l0-7l1.7 0l0 7l-1.7 0zm.8-10.6c.6 0 1.1.5 1.1 1.1c0 .6-.5 1.1-1.1 1.1c-.6 0-1.1-.5-1.1-1.1c0-.6.5-1.1 1.1-1.1zm5.2 3.6l1.4 0l0 1.5l-1.4 0c0 0-.03 3.24 0 3.2c0 .7.2.9.9.9c.2 0 .5 0 .6 0c0 0 0 1.4 0 1.4c-.1 0-.5.1-1.1.1c-1.3 0-2.1-.8-2.1-2.1c.01.02 0-3.5 0-3.5l-1.3 0l0-1.5c0 0 .36-.03.4 0c.7 0 1.1-.5 1.1-1.1c-.05-.03 0-1.1 0-1.1l1.5 0l0 2.2zm7.7 2.7c0-.8-.5-1.5-1.7-1.5c-1.1 0-1.7.8-1.7 1.5c0 0 3.4 0 3.4 0zm1.6 2.3c-.3 1.2-1.5 2.2-3.1 2.2c-2 0-3.7-1.3-3.7-3.7c0-2.3 1.7-3.7 3.5-3.7c2.2 0 3.4 1.4 3.4 3.6c0 .3 0 .5 0 .6c0 0-5.2 0-5.2 0c.1 1 .9 1.8 2 1.8c1 0 1.5-.5 1.7-1.2c0 0 1.4.4 1.4.4zm5.9-3.4c-.2 0-.4 0-.6 0c-1.3 0-1.9.7-1.9 2.1c.02-.03 0 3.3 0 3.3l-1.7 0l0-7l1.7 0c0 0-.03 1.1 0 1.1c.3-.8 1.1-1.2 2-1.2c.2 0 .4 0 .5 0c0 0 0 1.7 0 1.7zm4.9 5.4l0-10.5l1.7 0l0 10.5l-1.7 0zm4.4-10.4c.7 0 1.2.6 1.2 1.4c0 1.9-1.2 2.6-2.1 2.7c0 0 0-.8 0-.8c.6-.1 1.1-.7 1.1-1.4c0 .1-.1.1-.3.1c-.5 0-1-.4-1-1c0-.5.5-1 1.1-1zm4 6.4c0 0 1.8-.3 1.8-.3c.4 0 .5-.3.5-.5c0-.6-.4-1.1-1.3-1.1c-.9 0-1.4.6-1.5 1.3c0 0-1.5-.3-1.5-.3c.1-1.3 1.2-2.3 3-2.3c2.2 0 3 1.2 3 2.6c0 0 0 3.5 0 3.5c0 .6.1 1.1.1 1.1c0 0-1.6 0-1.6 0c0 0-.1-.3-.1-.9c-.3.6-1 1.1-2.1 1.1c-1.5 0-2.4-1-2.4-2.1c0-1.2.9-1.9 2.1-2.1zm2.3 1.1c.03 0 0-.3 0-.3c0 0-1.81.26-1.8.3c-.5 0-1 .3-1 .9c0 .5.4.9 1.1.9c.9 0 1.7-.4 1.7-1.8zm4.8-.6c0 1.4.9 2.2 2 2.2c1.1 0 1.6-.8 1.8-1.3c0 0 1.4.5 1.4.5c-.3 1.1-1.3 2.3-3.2 2.3c-2.1 0-3.7-1.6-3.7-3.7c0-2.2 1.6-3.7 3.7-3.7c1.9 0 2.9 1.1 3.2 2.3c0 0-1.5.5-1.5.5c-.2-.6-.7-1.3-1.7-1.3c-1.1 0-2 .8-2 2.2zm7.8 0c0 1.4.9 2.2 2 2.2c1.1 0 1.6-.8 1.7-1.3c0 0 1.5.5 1.5.5c-.3 1.1-1.4 2.3-3.2 2.3c-2.1 0-3.7-1.6-3.7-3.7c0-2.2 1.6-3.7 3.6-3.7c1.9 0 3 1.1 3.3 2.3c0 0-1.5.5-1.5.5c-.2-.6-.7-1.3-1.8-1.3c-1 0-1.9.8-1.9 2.2zm11.3-.8c0-.8-.6-1.5-1.8-1.5c-1 0-1.6.8-1.7 1.5c0 0 3.5 0 3.5 0zm1.6 2.3c-.4 1.2-1.5 2.2-3.2 2.2c-1.9 0-3.6-1.3-3.6-3.7c0-2.3 1.6-3.7 3.4-3.7c2.2 0 3.5 1.4 3.5 3.6c0 .3-.1.5-.1.6c0 0-5.1 0-5.1 0c0 1 .9 1.8 1.9 1.8c1 0 1.5-.5 1.8-1.2c0 0 1.4.4 1.4.4zm-5.7-8.1l2 0l1.3 2.2l-1.4 0l-1.9-2.2zm8.2 7.8c.1.6.6 1.2 1.5 1.2c.7 0 1-.4 1-.8c0-.4-.2-.7-.8-.8c0 0-1-.2-1-.2c-1.3-.3-1.9-1.1-1.9-2.1c0-1.2 1.1-2.2 2.5-2.2c2 0 2.7 1.2 2.8 1.9c0 0-1.4.4-1.4.4c-.1-.4-.4-1-1.4-1c-.5 0-1 .3-1 .8c0 .4.3.6.7.7c0 0 1.1.2 1.1.2c1.4.3 2 1.1 2 2.2c0 1.1-.8 2.2-2.6 2.2c-2.1 0-2.8-1.3-2.9-2.1c0 0 1.4-.4 1.4-.4zm11.1-1.7c0 0 1.8-.3 1.8-.3c.4 0 .5-.3.5-.5c0-.6-.4-1.1-1.3-1.1c-.9 0-1.4.6-1.4 1.3c0 0-1.6-.3-1.6-.3c.2-1.3 1.3-2.3 3-2.3c2.2 0 3 1.2 3 2.6c0 0 0 3.5 0 3.5c0 .6.1 1.1.1 1.1c0 0-1.6 0-1.6 0c0 0-.1-.3-.1-.9c-.3.6-1 1.1-2.1 1.1c-1.5 0-2.4-1-2.4-2.1c0-1.2.9-1.9 2.1-2.1zm2.3 1.1c.04 0 0-.3 0-.3c0 0-1.8.26-1.8.3c-.5 0-.9.3-.9.9c0 .5.3.9 1 .9c.9 0 1.7-.4 1.7-1.8zm-3.7-7.2l2.1 0l1.2 2.2l-1.3 0l-2-2.2zm11 10.1l0-10.5l1.7 0l0 10.5l-1.7 0zm4.4-10.4c.7 0 1.2.6 1.2 1.4c0 1.9-1.3 2.6-2.1 2.7c0 0 0-.8 0-.8c.6-.1 1.1-.7 1.1-1.4c0 .1-.1.1-.3.1c-.6 0-1-.4-1-1c0-.5.5-1 1.1-1zm6.5 6.1c0-.8-.6-1.5-1.8-1.5c-1 0-1.6.8-1.7 1.5c0 0 3.5 0 3.5 0zm1.6 2.3c-.4 1.2-1.5 2.2-3.2 2.2c-1.9 0-3.6-1.3-3.6-3.7c0-2.3 1.6-3.7 3.4-3.7c2.2 0 3.5 1.4 3.5 3.6c0 .3-.1.5-.1.6c0 0-5.1 0-5.1 0c0 1 .9 1.8 1.9 1.8c1 0 1.5-.5 1.8-1.2c0 0 1.4.4 1.4.4zm1.7 2l0-7l1.6 0c0 0-.01.87 0 .9c.4-.8 1.3-1.1 2.1-1.1c.9 0 1.7.4 2.1 1.2c.6-.9 1.4-1.2 2.3-1.2c1.3 0 2.5.8 2.5 2.6c-.02.05 0 4.6 0 4.6l-1.6 0c0 0-.04-4.28 0-4.3c0-.8-.5-1.4-1.4-1.4c-.9 0-1.5.7-1.5 1.5c.03.04 0 4.2 0 4.2l-1.6 0c0 0-.02-4.28 0-4.3c0-.8-.4-1.4-1.4-1.4c-.9 0-1.4.6-1.4 1.5c-.05.04 0 4.2 0 4.2l-1.7 0zm12.6 2.8l0-9.8l1.7 0c0 0-.03.93 0 .9c.3-.6 1.1-1.1 2.2-1.1c2.1 0 3.3 1.6 3.3 3.7c0 2.1-1.3 3.7-3.3 3.7c-1.1 0-1.8-.4-2.2-1c.01.03 0 3.6 0 3.6l-1.7 0zm5.5-6.3c0-1.3-.8-2.2-1.9-2.2c-1.1 0-1.9.9-1.9 2.2c0 1.3.8 2.2 1.9 2.2c1.1 0 1.9-.9 1.9-2.2c0 0 0 0 0 0zm3.3 3.5l0-10.5l1.7 0l0 10.5l-1.7 0zm8.9-3.5c0-1.5-.9-2.2-1.9-2.2c-1.1 0-2 .7-2 2.2c0 1.5.9 2.2 2 2.2c1 0 1.9-.7 1.9-2.2zm1.7 0c0 2.2-1.5 3.7-3.6 3.7c-2.1 0-3.7-1.5-3.7-3.7c0-2.2 1.6-3.7 3.7-3.7c2.1 0 3.6 1.5 3.6 3.7zm1.7 3.5l0-7l1.6 0l0 7l-1.6 0zm.8-10.6c.6 0 1.1.5 1.1 1.1c0 .6-.5 1.1-1.1 1.1c-.6 0-1.1-.5-1.1-1.1c0-.6.5-1.1 1.1-1.1zm9.6 9.3c1.1 0 1.9-.9 1.9-2.2c0-1.4-.8-2.2-1.9-2.2c-1.1 0-1.9.8-1.9 2.2c0 1.3.8 2.2 1.9 2.2zm3.5 0c0 .7.1 1.2.1 1.3c0 0-1.6 0-1.6 0c0-.1-.1-.6-.1-.9c-.3.6-1.1 1.1-2.1 1.1c-2 0-3.4-1.6-3.4-3.7c0-2.1 1.4-3.7 3.4-3.7c1.2 0 1.9.5 2.1 1c-.02 0 0-4.3 0-4.3l1.6 0c0 0 .02 9.24 0 9.2zm6.9-3c-.1-.8-.6-1.5-1.8-1.5c-1 0-1.6.8-1.7 1.5c0 0 3.5 0 3.5 0zm1.6 2.3c-.4 1.2-1.5 2.2-3.2 2.2c-1.9 0-3.6-1.3-3.6-3.7c0-2.3 1.6-3.7 3.4-3.7c2.2 0 3.5 1.4 3.5 3.6c0 .3-.1.5-.1.6c0 0-5.1 0-5.1 0c0 1 .8 1.8 1.9 1.8c1 0 1.5-.5 1.8-1.2c0 0 1.4.4 1.4.4zm2.5-.3c.1.6.5 1.2 1.4 1.2c.7 0 1.1-.4 1.1-.8c0-.4-.3-.7-.8-.8c0 0-1.1-.2-1.1-.2c-1.2-.3-1.9-1.1-1.9-2.1c0-1.2 1.2-2.2 2.6-2.2c2 0 2.6 1.2 2.8 1.9c0 0-1.5.4-1.5.4c0-.4-.3-1-1.3-1c-.6 0-1 .3-1 .8c0 .4.3.6.7.7c0 0 1.1.2 1.1.2c1.3.3 2 1.1 2 2.2c0 1.1-.8 2.2-2.6 2.2c-2.1 0-2.9-1.3-3-2.1c0 0 1.5-.4 1.5-.4zm9.4 5.1l0-9.8l1.6 0c0 0 .01.93 0 .9c.4-.6 1.2-1.1 2.3-1.1c2 0 3.2 1.6 3.2 3.7c0 2.1-1.3 3.7-3.3 3.7c-1 0-1.8-.4-2.1-1c-.04.03 0 3.6 0 3.6l-1.7 0zm5.4-6.3c0-1.3-.7-2.2-1.9-2.2c-1.1 0-1.9.9-1.9 2.2c0 1.3.8 2.2 1.9 2.2c1.2 0 1.9-.9 1.9-2.2c0 0 0 0 0 0zm8-.8c0-.8-.6-1.5-1.8-1.5c-1 0-1.6.8-1.7 1.5c0 0 3.5 0 3.5 0zm1.6 2.3c-.4 1.2-1.5 2.2-3.2 2.2c-1.9 0-3.6-1.3-3.6-3.7c0-2.3 1.6-3.7 3.4-3.7c2.2 0 3.5 1.4 3.5 3.6c0 .3 0 .5-.1.6c0 0-5.1 0-5.1 0c0 1 .9 1.8 1.9 1.8c1 0 1.5-.5 1.8-1.2c0 0 1.4.4 1.4.4zm5.8-3.4c-.2 0-.4 0-.5 0c-1.3 0-1.9.7-1.9 2.1c-.03-.03 0 3.3 0 3.3l-1.7 0l0-7l1.6 0c0 0 .03 1.1 0 1.1c.4-.8 1.1-1.2 2.1-1.2c.2 0 .4 0 .4 0c0 0 0 1.7 0 1.7zm2.3 3.1c0 .6.5 1.2 1.4 1.2c.7 0 1.1-.4 1.1-.8c0-.4-.3-.7-.8-.8c0 0-1.1-.2-1.1-.2c-1.2-.3-1.9-1.1-1.9-2.1c0-1.2 1.1-2.2 2.6-2.2c2 0 2.6 1.2 2.7 1.9c0 0-1.4.4-1.4.4c0-.4-.4-1-1.3-1c-.6 0-1 .3-1 .8c0 .4.3.6.7.7c0 0 1.1.2 1.1.2c1.3.3 2 1.1 2 2.2c0 1.1-.9 2.2-2.7 2.2c-2 0-2.8-1.3-2.9-2.1c0 0 1.5-.4 1.5-.4zm10.8-1.2c0-1.5-.9-2.2-2-2.2c-1 0-1.9.7-1.9 2.2c0 1.5.9 2.2 1.9 2.2c1.1 0 2-.7 2-2.2zm1.7 0c0 2.2-1.6 3.7-3.7 3.7c-2.1 0-3.6-1.5-3.6-3.7c0-2.2 1.5-3.7 3.6-3.7c2.1 0 3.7 1.5 3.7 3.7zm3.3 3.5l-1.7 0l0-7l1.7 0c0 0-.04.91 0 .9c.4-.8 1.3-1.1 2.1-1.1c1.7 0 2.5 1.2 2.5 2.8c0-.04 0 4.4 0 4.4l-1.7 0c0 0 .02-4.15 0-4.1c0-.9-.4-1.6-1.4-1.6c-1 0-1.5.7-1.5 1.7c.01-.05 0 4 0 4zm8.3 0l-1.7 0l0-7l1.7 0c0 0-.02.91 0 .9c.4-.8 1.3-1.1 2.1-1.1c1.7 0 2.5 1.2 2.5 2.8c.02-.04 0 4.4 0 4.4l-1.7 0c0 0 .04-4.15 0-4.1c0-.9-.3-1.6-1.4-1.6c-1 0-1.5.7-1.5 1.7c.03-.05 0 4 0 4zm11.3-4.3c0-.8-.6-1.5-1.7-1.5c-1.1 0-1.7.8-1.8 1.5c0 0 3.5 0 3.5 0zm1.6 2.3c-.4 1.2-1.5 2.2-3.2 2.2c-1.9 0-3.6-1.3-3.6-3.7c0-2.3 1.7-3.7 3.5-3.7c2.1 0 3.4 1.4 3.4 3.6c0 .3 0 .5 0 .6c0 0-5.2 0-5.2 0c0 1 .9 1.8 1.9 1.8c1 0 1.6-.5 1.8-1.2c0 0 1.4.4 1.4.4zm2.6-.3c0 .6.5 1.2 1.4 1.2c.7 0 1.1-.4 1.1-.8c0-.4-.3-.7-.9-.8c0 0-1-.2-1-.2c-1.3-.3-1.9-1.1-1.9-2.1c0-1.2 1.1-2.2 2.6-2.2c1.9 0 2.6 1.2 2.7 1.9c0 0-1.4.4-1.4.4c-.1-.4-.4-1-1.3-1c-.6 0-1 .3-1 .8c0 .4.2.6.7.7c0 0 1 .2 1 .2c1.4.3 2.1 1.1 2.1 2.2c0 1.1-.9 2.2-2.7 2.2c-2 0-2.8-1.3-2.9-2.1c0 0 1.5-.4 1.5-.4z" stroke="none" fill="#144542"/></g></svg>