<?xml version="1.0" standalone="no"?><!DOCTYPE svg PUBLIC "-//W3C//DTD SVG 1.1//EN" "http://www.w3.org/Graphics/SVG/1.1/DTD/svg11.dtd"><svg xmlns="http://www.w3.org/2000/svg" version="1.1" width="105.2px" height="114.3px" viewBox="0 -3 105.2 114.3" style="top:-3px"><desc>Une double mission contribuant aux objectifs de d veloppement durable fix s par l’ONU :</desc><defs/><g id="Polygon161826"><path d="m3.9 71.1c0 0 0 1 0 1c-.1 0-.2-.1-.5-.1c-.4 0-.9.2-.9 1c-.03.01 0 .9 0 .9l3.8 0l0 5.8l-1.1 0l0-4.7l-2.7 0l0 4.7l-1.2 0l0-4.7l-1.1 0l0-1.1l1.1 0c0 0 .01-.94 0-.9c0-1.3.9-2 1.9-2c.4 0 .6.1.7.1zm1 .6c0-.4.4-.8.8-.8c.5 0 .8.4.8.8c0 .5-.3.8-.8.8c-.4 0-.8-.3-.8-.8c0 0 0 0 0 0zm4.6 5.1l-2.1-2.9l1.4 0l1.4 2.1l1.4-2.1l1.3 0c0 0-2 2.87-2 2.9c.3.4 1.8 2.4 2.1 2.9c.02.01-1.3 0-1.3 0l-1.5-2.1l-1.5 2.1l-1.3 0l2.1-2.9zm8.4-.6c-.1-.8-.6-1.4-1.6-1.4c-1 0-1.5.7-1.6 1.4c0 0 3.2 0 3.2 0zm1.1 1.9c-.3 1-1.2 1.8-2.6 1.8c-1.5 0-2.9-1.1-2.9-3.1c0-1.8 1.3-3 2.8-3c1.7 0 2.7 1.2 2.7 3c0 .1 0 .3 0 .3c0 0-4.3 0-4.3 0c0 1.1.7 1.8 1.7 1.8c1 0 1.4-.5 1.6-1.2c0 0 1 .4 1 .4zm-2.3-4.9l-.9 0l1-1.8l1.4 0l-1.5 1.8zm4.3 4.6c0 .6.5 1.1 1.3 1.1c.6 0 1-.3 1-.7c0-.4-.3-.7-.8-.8c0 0-.9-.2-.9-.2c-.9-.2-1.5-.8-1.5-1.6c0-1 .9-1.8 2.1-1.8c1.6 0 2.1 1 2.2 1.5c0 0-1 .4-1 .4c-.1-.3-.3-1-1.2-1c-.6 0-1 .4-1 .8c0 .3.2.6.7.7c0 0 .9.2.9.2c1.1.2 1.6.8 1.6 1.7c0 .8-.7 1.8-2.1 1.8c-1.6 0-2.3-1-2.4-1.7c0 0 1.1-.4 1.1-.4zm7.9 4.2l0-8.1l1.1 0c0 0 0 .94 0 .9c.3-.5 1-1 1.9-1c1.8 0 2.7 1.3 2.7 3c0 1.7-1 3.1-2.7 3.1c-.9 0-1.6-.5-1.9-1c.02.03 0 3.1 0 3.1l-1.1 0zm4.5-5.2c0-1.1-.6-2-1.7-2c-1 0-1.7.9-1.7 2c0 1.2.7 2.1 1.7 2.1c1.1 0 1.7-.9 1.7-2.1c0 0 0 0 0 0zm2.3 1.4c0-1.1.7-1.6 1.7-1.8c0 0 1.6-.2 1.6-.2c.3-.1.4-.2.4-.5c0-.5-.4-1-1.2-1c-.8 0-1.3.5-1.3 1.2c0 0-1.1-.3-1.1-.3c.1-1.1 1.1-1.8 2.3-1.8c1.8 0 2.4.9 2.4 2.1c0 0 0 2.9 0 2.9c0 .5.1.8.1.9c0 0-1.1 0-1.1 0c0-.1 0-.3 0-.8c-.3.4-.9 1-1.9 1c-1.2 0-1.9-.8-1.9-1.7c0 0 0 0 0 0zm3.7-1c.02.04 0-.2 0-.2c0 0-1.74.24-1.7.2c-.5.1-.9.4-.9.9c0 .4.4.8 1 .8c.9 0 1.6-.4 1.6-1.7zm6.1-2.1c-.2 0-.3-.1-.5-.1c-.9 0-1.6.5-1.6 1.8c.03.02 0 2.9 0 2.9l-1.1 0l0-5.8l1.1 0c0 0 0 1.04 0 1c.4-.8 1.1-1.1 1.7-1.1c.2 0 .3.1.4.1c0 0 0 1.2 0 1.2zm4.2 4.6l0-8.7l1.1 0l0 8.7l-1.1 0zm3.4-8.6c.5 0 .9.4.9 1c0 1.5-1 2.1-1.7 2.2c0 0 0-.5 0-.5c.6-.2 1-.7 1-1.3c-.1.1-.2.1-.3.1c-.4 0-.7-.3-.7-.8c0-.4.3-.7.8-.7zm6.1 7.7c1.6 0 3-1.1 3-3.4c0-2.2-1.4-3.3-3-3.3c-1.6 0-3.1 1.1-3.1 3.3c0 2.3 1.5 3.4 3.1 3.4zm0-7.8c2.1 0 4.2 1.6 4.2 4.4c0 2.9-2.1 4.5-4.2 4.5c-2.2 0-4.3-1.6-4.3-4.5c0-2.8 2.1-4.4 4.3-4.4zm11.6 8.7l-4.6-6.9l0 6.9l-1.1 0l0-8.5l1.5 0l4.3 6.5l0-6.5l1.2 0l0 8.5l-1.3 0zm3.3-2.9c0 0 0-5.6 0-5.6l1.2 0c0 0-.04 5.57 0 5.6c0 1.3.7 2 1.9 2c1.2 0 1.8-.7 1.8-2c.04-.03 0-5.6 0-5.6l1.2 0c0 0 .02 5.6 0 5.6c0 2-1.3 3.1-3 3.1c-1.8 0-3.1-1.1-3.1-3.1zm11.8 1.3c.5 0 .9.4.9.8c0 .5-.4.9-.9.9c-.4 0-.8-.4-.8-.9c0-.4.4-.8.8-.8zm0-4.2c.5 0 .8.3.8.8c0 .5-.3.8-.8.8c-.5 0-.8-.3-.8-.8c0-.5.3-.8.8-.8z" stroke="none" fill="#144542"/></g><g id="Polygon161825"><path d="m3.4 64.6c.9 0 1.6-.7 1.6-1.8c0-1.2-.7-1.9-1.6-1.9c-.9 0-1.6.8-1.6 1.9c0 1.1.7 1.8 1.6 1.8zm2.9 0c0 .6 0 1 .1 1.1c0 0-1.4 0-1.4 0c0-.1 0-.5 0-.7c-.3.4-.9.9-1.7.9c-1.7 0-2.9-1.4-2.9-3.1c0-1.7 1.2-3.1 2.8-3.1c1 0 1.6.5 1.7.8c.04.05 0-3.5 0-3.5l1.4 0c0 0 0 7.64 0 7.6zm5.6.5c-.3.5-1 .8-1.7.8c-1.4 0-2.2-1.1-2.2-2.4c.03.05 0-3.6 0-3.6l1.4 0c0 0 .02 3.4 0 3.4c0 .7.4 1.3 1.2 1.3c.8 0 1.2-.5 1.2-1.3c.02.02 0-3.4 0-3.4l1.4 0c0 0 .01 4.74 0 4.7c0 .5 0 .9.1 1.1c0 0-1.4 0-1.4 0c0-.1 0-.4 0-.6c0 0 0 0 0 0zm6.5-3.9c-.1 0-.3 0-.4 0c-1.1 0-1.6.6-1.6 1.7c0 .02 0 2.8 0 2.8l-1.4 0l0-5.8l1.4 0c0 0-.03.9 0 .9c.2-.6.9-1 1.7-1c.1 0 .3 0 .3 0c0 0 0 1.4 0 1.4zm2.6 1.2c0 0 1.5-.3 1.5-.3c.3 0 .4-.2.4-.4c0-.5-.3-.9-1.1-.9c-.7 0-1.1.5-1.2 1.1c0 0-1.2-.3-1.2-.3c.1-1 1-1.9 2.4-1.9c1.8 0 2.5 1 2.5 2.2c0 0 0 2.9 0 2.9c0 .5.1.8.1.9c0 0-1.3 0-1.3 0c0 0-.1-.3-.1-.7c-.2.4-.8.9-1.8.9c-1.2 0-2-.9-2-1.8c0-1 .8-1.6 1.8-1.7zm1.9.9c.04-.02 0-.3 0-.3c0 0-1.48.25-1.5.2c-.4.1-.8.4-.8.8c0 .4.3.8.9.8c.8 0 1.4-.4 1.4-1.5zm3.1 2.4l0-8.7l1.4 0c0 0-.04 3.58 0 3.6c.2-.5.9-.9 1.8-.9c1.7 0 2.7 1.3 2.7 3.1c0 1.7-1 3.1-2.8 3.1c-.8 0-1.4-.4-1.8-1c.05.03 0 .8 0 .8l-1.3 0zm2.9-4.8c-.9 0-1.6.7-1.6 1.9c0 1.1.7 1.8 1.6 1.8c.9 0 1.6-.7 1.6-1.8c0-1.2-.7-1.9-1.6-1.9zm4.3 4.8l0-8.7l1.4 0l0 8.7l-1.4 0zm7.1-3.6c-.1-.6-.5-1.3-1.5-1.3c-.8 0-1.3.7-1.4 1.3c0 0 2.9 0 2.9 0zm1.3 1.9c-.3 1.1-1.2 1.9-2.6 1.9c-1.6 0-3-1.2-3-3.1c0-1.9 1.3-3.1 2.8-3.1c1.8 0 2.9 1.2 2.9 3c0 .2 0 .4-.1.5c0 0-4.2 0-4.2 0c0 .9.7 1.5 1.6 1.5c.8 0 1.2-.5 1.4-1c0 0 1.2.3 1.2.3z" stroke="none" fill="#144542"/></g><g id="Polygon161824"><path d="m3.4 50.6c.9 0 1.6-.7 1.6-1.8c0-1.2-.7-1.9-1.6-1.9c-.9 0-1.6.8-1.6 1.9c0 1.1.7 1.8 1.6 1.8zm2.9 0c0 .6 0 1 .1 1.1c0 0-1.4 0-1.4 0c0-.1 0-.5 0-.7c-.3.4-.9.9-1.7.9c-1.7 0-2.9-1.4-2.9-3.1c0-1.7 1.2-3.1 2.8-3.1c1 0 1.6.5 1.7.8c.04.05 0-3.5 0-3.5l1.4 0c0 0 0 7.64 0 7.6zm4.7-5.5l-1.1 0l1.1-1.7l1.6 0l-1.6 1.7zm1 3c-.1-.6-.5-1.3-1.5-1.3c-.9 0-1.4.7-1.4 1.3c0 0 2.9 0 2.9 0zm1.3 1.9c-.3 1.1-1.2 1.9-2.6 1.9c-1.6 0-3-1.2-3-3.1c0-1.9 1.3-3.1 2.8-3.1c1.8 0 2.9 1.2 2.9 3c0 .2-.1.4-.1.5c0 0-4.2 0-4.2 0c0 .9.7 1.5 1.6 1.5c.8 0 1.2-.5 1.4-1c0 0 1.2.3 1.2.3zm4.3 1.7l-1.4 0l-2.4-5.8l1.5 0l1.6 4.1l1.5-4.1l1.5 0l-2.3 5.8zm6.9-3.6c0-.6-.4-1.3-1.4-1.3c-.9 0-1.4.7-1.4 1.3c0 0 2.8 0 2.8 0zm1.4 1.9c-.3 1.1-1.3 1.9-2.7 1.9c-1.6 0-3-1.2-3-3.1c0-1.9 1.4-3.1 2.9-3.1c1.8 0 2.8 1.2 2.8 3c0 .2 0 .4 0 .5c0 0-4.3 0-4.3 0c.1.9.8 1.5 1.6 1.5c.9 0 1.3-.5 1.5-1c0 0 1.2.3 1.2.3zm1.4 1.7l0-8.7l1.4 0l0 8.7l-1.4 0zm7.4-2.9c0-1.2-.8-1.9-1.7-1.9c-.8 0-1.6.7-1.6 1.9c0 1.2.8 1.8 1.6 1.8c.9 0 1.7-.6 1.7-1.8zm1.4 0c0 1.8-1.3 3.1-3.1 3.1c-1.7 0-3-1.3-3-3.1c0-1.8 1.3-3.1 3-3.1c1.8 0 3.1 1.3 3.1 3.1zm1.3 5.2l0-8.1l1.4 0c0 0-.04.76 0 .8c.2-.5.9-1 1.8-1c1.7 0 2.7 1.4 2.7 3.1c0 1.7-1 3.1-2.7 3.1c-.9 0-1.5-.4-1.8-.9c-.01.05 0 3 0 3l-1.4 0zm4.5-5.2c0-1.1-.6-1.8-1.5-1.8c-1 0-1.6.7-1.6 1.8c0 1.1.6 1.8 1.6 1.8c.9 0 1.5-.7 1.5-1.8c0 0 0 0 0 0zm2.8 5.2l0-8.1l1.3 0c0 0 .01.76 0 .8c.3-.5 1-1 1.9-1c1.7 0 2.7 1.4 2.7 3.1c0 1.7-1.1 3.1-2.8 3.1c-.8 0-1.5-.4-1.8-.9c.04.05 0 3 0 3l-1.3 0zm4.5-5.2c0-1.1-.7-1.8-1.6-1.8c-.9 0-1.6.7-1.6 1.8c0 1.1.7 1.8 1.6 1.8c.9 0 1.6-.7 1.6-1.8c0 0 0 0 0 0zm6.6-.7c-.1-.6-.5-1.3-1.5-1.3c-.9 0-1.4.7-1.4 1.3c0 0 2.9 0 2.9 0zm1.3 1.9c-.3 1.1-1.3 1.9-2.7 1.9c-1.5 0-2.9-1.2-2.9-3.1c0-1.9 1.3-3.1 2.8-3.1c1.8 0 2.9 1.2 2.9 3c0 .2-.1.4-.1.5c0 0-4.3 0-4.3 0c.1.9.8 1.5 1.6 1.5c.9 0 1.3-.5 1.5-1c0 0 1.2.3 1.2.3zm1.4 1.7l0-5.8l1.3 0c0 0 .02.71 0 .7c.4-.6 1.1-.9 1.7-.9c.8 0 1.5.3 1.8 1c.5-.7 1.1-1 1.9-1c1.1 0 2.1.7 2.1 2.2c-.04.02 0 3.8 0 3.8l-1.4 0c0 0 .02-3.56 0-3.6c0-.6-.3-1.2-1.1-1.2c-.7 0-1.2.6-1.2 1.3c-.03.04 0 3.5 0 3.5l-1.4 0c0 0 .01-3.56 0-3.6c0-.6-.3-1.2-1.1-1.2c-.8 0-1.2.6-1.2 1.3c-.03.04 0 3.5 0 3.5l-1.4 0zm14.3-3.6c0-.6-.5-1.3-1.4-1.3c-.9 0-1.4.7-1.5 1.3c0 0 2.9 0 2.9 0zm1.3 1.9c-.3 1.1-1.2 1.9-2.6 1.9c-1.6 0-3-1.2-3-3.1c0-1.9 1.4-3.1 2.9-3.1c1.8 0 2.8 1.2 2.8 3c0 .2 0 .4 0 .5c0 0-4.3 0-4.3 0c0 .9.7 1.5 1.6 1.5c.8 0 1.3-.5 1.5-1c0 0 1.1.3 1.1.3zm2.8 1.7l-1.4 0l0-5.8l1.4 0c0 0-.01.74 0 .7c.4-.6 1.1-.9 1.7-.9c1.5 0 2.1 1 2.1 2.3c.03.01 0 3.7 0 3.7l-1.4 0c0 0 .04-3.45 0-3.4c0-.8-.3-1.3-1.2-1.3c-.7 0-1.2.6-1.2 1.3c.03.04 0 3.4 0 3.4zm7.3-5.8l1.2 0l0 1.2l-1.2 0c0 0-.01 2.71 0 2.7c0 .5.2.7.7.7c.2 0 .5 0 .5 0c0 0 0 1.1 0 1.1c-.1.1-.3.2-.8.2c-1.1 0-1.8-.7-1.8-1.8c.01.04 0-2.9 0-2.9l-1.1 0l0-1.2c0 0 .33-.04.3 0c.7 0 .9-.4.9-.9c.03-.05 0-.9 0-.9l1.3 0l0 1.8z" stroke="none" fill="#144542"/></g><g id="Polygon161823"><path d="m.6 36.2c0-1.1.8-1.6 1.8-1.8c0 0 1.5-.2 1.5-.2c.4-.1.5-.2.5-.5c0-.5-.4-1-1.3-1c-.8 0-1.2.5-1.3 1.2c0 0-1.1-.3-1.1-.3c.1-1.1 1.1-1.8 2.4-1.8c1.7 0 2.4.9 2.4 2.1c0 0 0 2.9 0 2.9c0 .5 0 .8.1.9c0 0-1.1 0-1.1 0c-.1-.1-.1-.3-.1-.8c-.3.4-.8 1-1.9 1c-1.1 0-1.9-.8-1.9-1.7c0 0 0 0 0 0zm3.8-1c-.04.04 0-.2 0-.2c0 0-1.81.24-1.8.2c-.5.1-.8.4-.8.9c0 .4.3.8.9.8c.9 0 1.7-.4 1.7-1.7zm6.5 1.8c-.3.6-1 .9-1.7.9c-1.3 0-2.1-1-2.1-2.3c-.04-.03 0-3.7 0-3.7l1.1 0c0 0-.02 3.5 0 3.5c0 .8.3 1.5 1.3 1.5c.9 0 1.4-.6 1.4-1.5c-.04.02 0-3.5 0-3.5l1.1 0c0 0-.01 4.74 0 4.7c0 .5 0 .9 0 1.1c0 0-1 0-1 0c-.1-.1-.1-.4-.1-.7c0 0 0 0 0 0zm4.3-2.2l-2.1-2.9l1.4 0l1.4 2.1l1.4-2.1l1.3 0c0 0-2 2.87-2 2.9c.3.4 1.8 2.4 2.1 2.9c.02.01-1.3 0-1.3 0l-1.5-2.1l-1.5 2.1l-1.3 0l2.1-2.9zm11.9 0c0-1.3-.9-2-1.8-2c-1 0-1.8.7-1.8 2c0 1.4.8 2.1 1.8 2.1c.9 0 1.8-.7 1.8-2.1zm1.1 0c0 1.8-1.2 3.1-2.9 3.1c-1.8 0-3-1.3-3-3.1c0-1.7 1.2-3 3-3c1.7 0 2.9 1.3 2.9 3zm1.5 2.9l0-8.7l1.1 0c0 0-.02 3.75 0 3.8c.3-.6.9-1 1.9-1c1.7 0 2.6 1.3 2.6 3c0 1.7-.9 3.1-2.6 3.1c-.9 0-1.6-.4-1.9-1c-.02-.03 0 .8 0 .8l-1.1 0zm2.8-4.9c-1 0-1.7.7-1.7 2c0 1.2.7 2.1 1.7 2.1c1 0 1.7-.9 1.7-2.1c0-1.3-.7-2-1.7-2zm4.3-.9l1.1 0c0 0 .01 6.48 0 6.5c0 1-.6 1.8-1.6 1.8c-.4 0-.6-.1-.7-.1c0 0 0-1 0-1c.1 0 .2.1.4.1c.6 0 .8-.3.8-.9c-.02.03 0-6.4 0-6.4zm.5-3c.5 0 .8.4.8.8c0 .5-.3.8-.8.8c-.4 0-.8-.3-.8-.8c0-.4.4-.8.8-.8zm6.4 5.3c0-.8-.5-1.4-1.6-1.4c-.9 0-1.5.7-1.5 1.4c0 0 3.1 0 3.1 0zm1.2 1.9c-.4 1-1.3 1.8-2.6 1.8c-1.6 0-2.9-1.1-2.9-3.1c0-1.8 1.3-3 2.7-3c1.8 0 2.8 1.2 2.8 3c0 .1 0 .3 0 .3c0 0-4.4 0-4.4 0c0 1.1.8 1.8 1.8 1.8c.9 0 1.4-.5 1.6-1.2c0 0 1 .4 1 .4zm2.1-1.3c0 1.3.8 2 1.8 2c1 0 1.4-.7 1.6-1.1c0 0 1 .4 1 .4c-.3.8-1.1 1.8-2.6 1.8c-1.7 0-2.9-1.3-2.9-3.1c0-1.8 1.2-3 2.9-3c1.5 0 2.3.9 2.5 1.8c0 0-1 .4-1 .4c-.1-.5-.6-1.2-1.5-1.2c-1 0-1.8.7-1.8 2zm7.2-2.9l1.3 0l0 1.1l-1.3 0c0 0 0 2.96 0 3c0 .5.2.7.8.7c.2 0 .4 0 .5 0c0 0 0 1 0 1c-.1 0-.4.1-.8.1c-1 0-1.6-.6-1.6-1.7c-.02.02 0-3.1 0-3.1l-1.1 0l0-1.1c0 0 .28.04.3 0c.6 0 .9-.3.9-.9c-.03.05 0-.9 0-.9l1 0l0 1.8zm2.8 5.8l0-5.8l1.1 0l0 5.8l-1.1 0zm.5-8.8c.5 0 .8.4.8.9c0 .4-.3.8-.8.8c-.4 0-.8-.4-.8-.8c0-.5.4-.9.8-.9zm4 4.1l0 4.7l-1.2 0l0-4.7l-1 0l0-1.1l1 0c0 0 .04-.94 0-.9c0-1.3.9-2 1.9-2c.4 0 .7.1.7.1c0 0 0 1 0 1c-.1 0-.2-.1-.5-.1c-.4 0-.9.2-.9 1c0 .02 0 .9 0 .9l1.4 0l0 1.1l-1.4 0zm3.1 2.8c.1.6.5 1.1 1.3 1.1c.7 0 1-.3 1-.7c0-.4-.3-.7-.7-.8c0 0-1-.2-1-.2c-.9-.2-1.5-.8-1.5-1.6c0-1 1-1.8 2.1-1.8c1.6 0 2.1 1 2.2 1.5c0 0-1 .4-1 .4c-.1-.3-.3-1-1.2-1c-.6 0-1 .4-1 .8c0 .3.3.6.7.7c0 0 .9.2.9.2c1.1.2 1.6.8 1.6 1.7c0 .8-.7 1.8-2.1 1.8c-1.6 0-2.2-1-2.3-1.7c0 0 1-.4 1-.4zm10.3 1.1c1 0 1.7-.9 1.7-2.1c0-1.2-.7-2-1.7-2c-1 0-1.7.8-1.7 2c0 1.2.6 2.1 1.7 2.1zm1.7-.1c-.3.6-.9 1.1-1.8 1.1c-1.7 0-2.8-1.4-2.8-3.1c0-1.6 1.2-3 2.8-3c1 0 1.6.5 1.7 1c.05-.05 0-3.8 0-3.8l1.2 0c0 0-.04 7.64 0 7.6c0 .6 0 1 0 1.1c0 0-1.1 0-1.1 0c0-.1 0-.4 0-.8c0 0 0-.1 0-.1zm6.9-2.6c-.1-.8-.6-1.4-1.6-1.4c-1 0-1.5.7-1.6 1.4c0 0 3.2 0 3.2 0zm1.1 1.9c-.3 1-1.2 1.8-2.6 1.8c-1.5 0-2.9-1.1-2.9-3.1c0-1.8 1.3-3 2.8-3c1.8 0 2.7 1.2 2.7 3c0 .1 0 .3 0 .3c0 0-4.3 0-4.3 0c0 1.1.7 1.8 1.7 1.8c1 0 1.4-.5 1.6-1.2c0 0 1 .4 1 .4z" stroke="none" fill="#144542"/></g><g id="Polygon161822"><path d="m1.6 20.8c0 1.3.9 2 1.8 2c1.1 0 1.5-.7 1.6-1.1c0 0 1 .4 1 .4c-.3.8-1.1 1.8-2.6 1.8c-1.7 0-2.9-1.3-2.9-3.1c0-1.8 1.2-3 2.9-3c1.5 0 2.3.9 2.6 1.8c0 0-1.1.4-1.1.4c-.1-.5-.5-1.2-1.5-1.2c-.9 0-1.8.7-1.8 2zm9.9 0c0-1.3-.8-2-1.8-2c-.9 0-1.8.7-1.8 2c0 1.4.9 2.1 1.8 2.1c1 0 1.8-.7 1.8-2.1zm1.2 0c0 1.8-1.2 3.1-3 3.1c-1.7 0-2.9-1.3-2.9-3.1c0-1.7 1.2-3 2.9-3c1.8 0 3 1.3 3 3zm2.6 2.9l-1.2 0l0-5.8l1.1 0c0 0 .03.86 0 .9c.4-.8 1.1-1 1.8-1c1.4 0 2.1 1 2.1 2.2c-.03.05 0 3.7 0 3.7l-1.2 0c0 0 .04-3.46 0-3.5c0-.8-.3-1.4-1.3-1.4c-.9 0-1.3.7-1.3 1.6c-.05-.03 0 3.3 0 3.3zm7.1-5.8l1.2 0l0 1.1l-1.2 0c0 0-.02 2.96 0 3c0 .5.2.7.8.7c.1 0 .3 0 .4 0c0 0 0 1 0 1c-.1 0-.4.1-.7.1c-1 0-1.6-.6-1.6-1.7c-.05.02 0-3.1 0-3.1l-1.2 0l0-1.1c0 0 .36.04.4 0c.6 0 .8-.3.8-.9c.05.05 0-.9 0-.9l1.1 0l0 1.8zm5.8 1.2c-.2 0-.3-.1-.5-.1c-.9 0-1.6.5-1.6 1.8c.04.02 0 2.9 0 2.9l-1.1 0l0-5.8l1.1 0c0 0 .01 1.04 0 1c.4-.8 1.2-1.1 1.7-1.1c.2 0 .4.1.4.1c0 0 0 1.2 0 1.2zm1.2 4.6l0-5.8l1.1 0l0 5.8l-1.1 0zm.6-8.8c.4 0 .8.4.8.9c0 .4-.4.8-.8.8c-.5 0-.8-.4-.8-.8c0-.5.3-.9.8-.9zm2.4 8.8l0-8.7l1.2 0c0 0-.04 3.75 0 3.8c.2-.6.9-1 1.9-1c1.7 0 2.6 1.3 2.6 3c0 1.7-.9 3.1-2.7 3.1c-.8 0-1.5-.4-1.8-1c-.04-.03 0 .8 0 .8l-1.2 0zm2.9-4.9c-1 0-1.7.7-1.7 2c0 1.2.7 2.1 1.7 2.1c1 0 1.7-.9 1.7-2.1c0-1.3-.7-2-1.7-2zm8 4.2c-.3.6-1 .9-1.7.9c-1.3 0-2.2-1-2.2-2.3c.04-.03 0-3.7 0-3.7l1.2 0c0 0-.03 3.5 0 3.5c0 .8.3 1.5 1.3 1.5c.9 0 1.3-.6 1.3-1.5c.05.02 0-3.5 0-3.5l1.2 0c0 0-.03 4.74 0 4.7c0 .5 0 .9 0 1.1c0 0-1 0-1 0c-.1-.1-.1-.4-.1-.7c0 0 0 0 0 0zm2.6-.8c0-1.1.8-1.6 1.8-1.8c0 0 1.5-.2 1.5-.2c.4-.1.5-.2.5-.5c0-.5-.4-1-1.3-1c-.7 0-1.2.5-1.3 1.2c0 0-1-.3-1-.3c.1-1.1 1.1-1.8 2.3-1.8c1.7 0 2.4.9 2.4 2.1c0 0 0 2.9 0 2.9c0 .5.1.8.1.9c0 0-1.1 0-1.1 0c0-.1-.1-.3-.1-.8c-.2.4-.8 1-1.8 1c-1.2 0-2-.8-2-1.7c0 0 0 0 0 0zm3.8-1c-.01.04 0-.2 0-.2c0 0-1.77.24-1.8.2c-.5.1-.8.4-.8.9c0 .4.3.8.9.8c.9 0 1.7-.4 1.7-1.7zm4 2.5l-1.1 0l0-5.8l1.1 0c0 0-.03.86 0 .9c.4-.8 1.1-1 1.8-1c1.3 0 2 1 2 2.2c.01.05 0 3.7 0 3.7l-1.1 0c0 0-.01-3.46 0-3.5c0-.8-.3-1.4-1.4-1.4c-.8 0-1.3.7-1.3 1.6c0-.03 0 3.3 0 3.3zm7.1-5.8l1.3 0l0 1.1l-1.3 0c0 0 .03 2.96 0 3c0 .5.2.7.8.7c.2 0 .4 0 .5 0c0 0 0 1 0 1c-.1 0-.4.1-.8.1c-1 0-1.6-.6-1.6-1.7c0 .02 0-3.1 0-3.1l-1.1 0l0-1.1c0 0 .31.04.3 0c.6 0 .9-.3.9-.9c0 .05 0-.9 0-.9l1 0l0 1.8z" stroke="none" fill="#144542"/></g><g id="Polygon161821"><path d="m1 6.8c-.04 0 0-5.6 0-5.6l1.1 0c0 0 .02 5.57 0 5.6c0 1.3.7 2 1.9 2c1.2 0 1.9-.7 1.9-2c0-.03 0-5.6 0-5.6l1.2 0c0 0-.02 5.6 0 5.6c0 2-1.4 3.1-3.1 3.1c-1.7 0-3-1.1-3-3.1zm9.1 2.9l-1.2 0l0-5.8l1.1 0c0 0 .04.86 0 .9c.5-.8 1.1-1 1.8-1c1.4 0 2.1 1 2.1 2.2c-.02.05 0 3.7 0 3.7l-1.1 0c0 0-.04-3.46 0-3.5c0-.8-.4-1.4-1.4-1.4c-.9 0-1.3.7-1.3 1.6c-.03-.03 0 3.3 0 3.3zm9.5-3.5c-.1-.8-.6-1.4-1.6-1.4c-1 0-1.5.7-1.6 1.4c0 0 3.2 0 3.2 0zm1.1 1.9c-.3 1-1.2 1.8-2.6 1.8c-1.5 0-2.9-1.1-2.9-3.1c0-1.8 1.3-3 2.8-3c1.8 0 2.7 1.2 2.7 3c0 .1 0 .3 0 .3c0 0-4.3 0-4.3 0c0 1.1.7 1.8 1.7 1.8c1 0 1.4-.5 1.6-1.2c0 0 1 .4 1 .4zm6.8.8c1 0 1.6-.9 1.6-2.1c0-1.2-.6-2-1.6-2c-1 0-1.7.8-1.7 2c0 1.2.6 2.1 1.7 2.1zm1.7-.1c-.3.6-.9 1.1-1.8 1.1c-1.7 0-2.8-1.4-2.8-3.1c0-1.6 1.1-3 2.8-3c1 0 1.5.5 1.7 1c.03-.05 0-3.8 0-3.8l1.1 0c0 0 .05 7.64 0 7.6c0 .6.1 1 .1 1.1c0 0-1.1 0-1.1 0c0-.1 0-.4 0-.8c0 0 0-.1 0-.1zm7.2-2c0-1.3-.8-2-1.8-2c-.9 0-1.8.7-1.8 2c0 1.4.9 2.1 1.8 2.1c1 0 1.8-.7 1.8-2.1zm1.2 0c0 1.8-1.2 3.1-3 3.1c-1.7 0-2.9-1.3-2.9-3.1c0-1.7 1.2-3 2.9-3c1.8 0 3 1.3 3 3zm5.2 2.2c-.3.6-1.1.9-1.7.9c-1.4 0-2.2-1-2.2-2.3c.01-.03 0-3.7 0-3.7l1.1 0c0 0 .04 3.5 0 3.5c0 .8.4 1.5 1.3 1.5c1 0 1.4-.6 1.4-1.5c.02.02 0-3.5 0-3.5l1.1 0c0 0 .04 4.74 0 4.7c0 .5.1.9.1 1.1c0 0-1.1 0-1.1 0c0-.1 0-.4 0-.7c0 0 0 0 0 0zm3 .7l0-8.7l1.1 0c0 0-.02 3.75 0 3.8c.3-.6.9-1 1.9-1c1.7 0 2.6 1.3 2.6 3c0 1.7-.9 3.1-2.6 3.1c-.9 0-1.6-.4-1.9-1c-.02-.03 0 .8 0 .8l-1.1 0zm2.8-4.9c-1 0-1.7.7-1.7 2c0 1.2.7 2.1 1.7 2.1c1 0 1.7-.9 1.7-2.1c0-1.3-.7-2-1.7-2zm4.3 4.9l0-8.7l1.1 0l0 8.7l-1.1 0zm6.9-3.5c0-.8-.5-1.4-1.6-1.4c-.9 0-1.5.7-1.5 1.4c0 0 3.1 0 3.1 0zm1.2 1.9c-.4 1-1.3 1.8-2.6 1.8c-1.6 0-2.9-1.1-2.9-3.1c0-1.8 1.3-3 2.7-3c1.8 0 2.8 1.2 2.8 3c0 .1 0 .3 0 .3c0 0-4.4 0-4.4 0c0 1.1.8 1.8 1.8 1.8c.9 0 1.4-.5 1.6-1.2c0 0 1 .4 1 .4zm4.4 1.6l0-5.8l1 0c0 0 .04.8 0 .8c.4-.6 1.1-.9 1.8-.9c.7 0 1.4.3 1.7 1.1c.5-.9 1.2-1.1 2-1.1c1 0 1.9.7 1.9 2.2c.04-.04 0 3.7 0 3.7l-1.1 0c0 0 .03-3.62 0-3.6c0-.8-.3-1.3-1.2-1.3c-.8 0-1.3.6-1.3 1.4c-.03.02 0 3.5 0 3.5l-1.2 0c0 0 .04-3.62 0-3.6c0-.8-.3-1.3-1.2-1.3c-.8 0-1.3.6-1.3 1.4c-.03.03 0 3.5 0 3.5l-1.1 0zm10.2 0l0-5.8l1.2 0l0 5.8l-1.2 0zm.6-8.8c.4 0 .8.4.8.9c0 .4-.4.8-.8.8c-.4 0-.8-.4-.8-.8c0-.5.4-.9.8-.9zm3 6.9c0 .6.5 1.1 1.3 1.1c.6 0 1-.3 1-.7c0-.4-.3-.7-.8-.8c0 0-.9-.2-.9-.2c-.9-.2-1.5-.8-1.5-1.6c0-1 .9-1.8 2.1-1.8c1.6 0 2 1 2.2 1.5c0 0-1 .4-1 .4c-.1-.3-.3-1-1.2-1c-.6 0-1 .4-1 .8c0 .3.2.6.7.7c0 0 .9.2.9.2c1 .2 1.6.8 1.6 1.7c0 .8-.7 1.8-2.1 1.8c-1.6 0-2.3-1-2.4-1.7c0 0 1.1-.4 1.1-.4zm5.4 0c.1.6.5 1.1 1.3 1.1c.7 0 1-.3 1-.7c0-.4-.3-.7-.7-.8c0 0-1-.2-1-.2c-.9-.2-1.5-.8-1.5-1.6c0-1 1-1.8 2.1-1.8c1.6 0 2.1 1 2.2 1.5c0 0-1 .4-1 .4c-.1-.3-.3-1-1.2-1c-.6 0-1 .4-1 .8c0 .3.2.6.7.7c0 0 .9.2.9.2c1.1.2 1.6.8 1.6 1.7c0 .8-.7 1.8-2.1 1.8c-1.6 0-2.2-1-2.3-1.7c0 0 1-.4 1-.4zm4.9 1.9l0-5.8l1.1 0l0 5.8l-1.1 0zm.6-8.8c.4 0 .8.4.8.9c0 .4-.4.8-.8.8c-.5 0-.8-.4-.8-.8c0-.5.3-.9.8-.9zm6.7 5.9c0-1.3-.8-2-1.8-2c-.9 0-1.8.7-1.8 2c0 1.4.9 2.1 1.8 2.1c1 0 1.8-.7 1.8-2.1zm1.2 0c0 1.8-1.2 3.1-3 3.1c-1.7 0-2.9-1.3-2.9-3.1c0-1.7 1.2-3 2.9-3c1.8 0 3 1.3 3 3zm2.6 2.9l-1.2 0l0-5.8l1.1 0c0 0 .03.86 0 .9c.4-.8 1.1-1 1.8-1c1.4 0 2.1 1 2.1 2.2c-.03.05 0 3.7 0 3.7l-1.2 0c0 0 .04-3.46 0-3.5c0-.8-.3-1.4-1.3-1.4c-.9 0-1.3.7-1.3 1.6c-.05-.03 0 3.3 0 3.3z" stroke="none" fill="#144542"/></g></svg>