<?xml version="1.0" standalone="no"?><!DOCTYPE svg PUBLIC "-//W3C//DTD SVG 1.1//EN" "http://www.w3.org/Graphics/SVG/1.1/DTD/svg11.dtd"><svg xmlns="http://www.w3.org/2000/svg" version="1.1" width="34.2px" height="22.6px" viewBox="0 -3 34.2 22.6" style="top:-3px"><desc>26 %</desc><defs/><g id="Polygon165616"><path d="m3.8 5.2c0-.2 0-.3 0-.4c0-1.5 1.1-2.8 3-2.8c1.9 0 3 1.2 3 2.7c0 1.1-.7 2-1.6 2.7c0 0-1.8 1.1-1.8 1.1c-.5.3-.9.7-1 1.2c-.04-.01 4.5 0 4.5 0l0 1.2c0 0-6.18.02-6.2 0c.1-1.4.6-2.5 2.1-3.5c0 0 1.5-.9 1.5-.9c.8-.5 1.2-1.2 1.2-1.8c0-.8-.6-1.6-1.7-1.6c-1.1 0-1.7.8-1.7 1.8c0 .1 0 .3.1.4c0 0-1.4-.1-1.4-.1zm13.3-1.7c-.3-.2-.9-.3-1.6-.3c-1.8 0-3 1.3-3.1 3.1c.4-.6 1.2-1.1 2.3-1.1c1.8 0 3 1 3 2.9c0 1.9-1.5 3-3.2 3c-1.7 0-3.4-1.1-3.4-4c0-3.3 1.9-5.1 4.5-5.1c.8 0 1.5.2 1.9.5c0 0-.4 1-.4 1zm-2.6 6.5c1 0 1.9-.7 1.9-1.9c0-1.1-.9-1.8-1.9-1.8c-1 0-1.9.7-1.9 1.8c0 1.2 1 1.9 1.9 1.9zm8.3-4.7c.6 0 1.1-.5 1.1-1.1c0-.6-.5-1.1-1.1-1.1c-.6 0-1 .5-1 1.1c0 .6.4 1.1 1 1.1zm0-3.2c1.2 0 2.2.9 2.2 2.1c0 1.2-1 2.1-2.2 2.1c-1.2 0-2.1-.9-2.1-2.1c0-1.2.9-2.1 2.1-2.1zm5.4 7.9c.6 0 1-.5 1-1.1c0-.6-.4-1.1-1-1.1c-.6 0-1.1.5-1.1 1.1c0 .6.5 1.1 1.1 1.1zm0-3.2c1.1 0 2.1.9 2.1 2.1c0 1.2-1 2.1-2.1 2.1c-1.2 0-2.2-.9-2.2-2.1c0-1.2 1-2.1 2.2-2.1zm-6.5 4.1l6.3-8.7l1.2 0l-6.2 8.7l-1.3 0z" stroke="none" fill="#9b78ef"/></g></svg>