<?xml version="1.0" standalone="no"?><!DOCTYPE svg PUBLIC "-//W3C//DTD SVG 1.1//EN" "http://www.w3.org/Graphics/SVG/1.1/DTD/svg11.dtd"><svg xmlns="http://www.w3.org/2000/svg" version="1.1" width="508.4px" height="61.2px" viewBox="0 -4 508.4 61.2" style="top:-4px"><desc>en 2025</desc><defs/><g id="Polygon163938"><path d="m220.9 13.8l0-8.5l5.3 0l0 1.3l-3.8 0l0 2.3l3.4 0l0 1.3l-3.4 0l0 2.2l3.8 0l0 1.4l-5.3 0zm14.3 0l-4.2-6.4l0 6.4l-1.4 0l0-8.5l1.8 0l3.8 6l0-6l1.4 0l0 8.5l-1.4 0zm10.8-7.1c0-.1-.1-.4-.1-.6c0-1.9 1.5-3.6 4-3.6c2.4 0 3.8 1.6 3.8 3.4c0 1.5-.8 2.7-2.1 3.5c0 0-2.1 1.3-2.1 1.3c-.6.3-1 .7-1.1 1.3c-.05-.05 5.4 0 5.4 0l0 1.8c0 0-7.96-.05-8 0c.1-1.9.7-3.4 2.7-4.6c0 0 1.8-1.1 1.8-1.1c1-.7 1.4-1.3 1.4-2.1c0-.9-.6-1.7-1.9-1.7c-1.3 0-1.9.9-1.9 2c0 .2 0 .4.1.6c0 0-2-.2-2-.2zm13.7 4.7c.3.5.9.8 1.7.8c.8 0 1.3-.3 1.7-.8c.5-.7.7-1.8.7-3.2c0-1.3-.2-2.4-.7-3.1c-.4-.5-.9-.8-1.7-.8c-.8 0-1.4.3-1.7.8c-.6.7-.8 1.8-.8 3.1c0 1.4.2 2.5.8 3.2zm-1.8-7.1c.7-1.1 1.8-1.8 3.5-1.8c1.6 0 2.8.7 3.5 1.8c.7 1.1 1 2.5 1 3.9c0 1.5-.3 2.9-1 4c-.7 1.1-1.9 1.8-3.5 1.8c-1.7 0-2.8-.7-3.5-1.8c-.8-1.1-1-2.5-1-4c0-1.4.2-2.8 1-3.9zm11.1 2.4c0-.1 0-.4 0-.6c0-1.9 1.4-3.6 3.9-3.6c2.4 0 3.9 1.6 3.9 3.4c0 1.5-.8 2.7-2.2 3.5c0 0-2.1 1.3-2.1 1.3c-.5.3-1 .7-1.1 1.3c-.03-.05 5.4 0 5.4 0l0 1.8c0 0-7.95-.05-7.9 0c0-1.9.7-3.4 2.6-4.6c0 0 1.8-1.1 1.8-1.1c1-.7 1.4-1.3 1.4-2.1c0-.9-.6-1.7-1.9-1.7c-1.2 0-1.9.9-1.9 2c0 .2.1.4.1.6c0 0-2-.2-2-.2zm12.6 3.5c.1 1.2.9 2.1 2.2 2.1c1.2 0 2.1-.8 2.1-2c0-1.4-1-2.1-2.1-2.1c-.8 0-1.5.4-1.9.8c.04-.01-1.9-.7-1.9-.7l1.4-5.6l6 0l0 1.8l-4.6 0c0 0-.72 2.81-.7 2.8c.5-.5 1.3-.8 2.1-.8c2.2 0 3.8 1.4 3.8 3.7c0 2.1-1.6 3.8-4.2 3.8c-2.4 0-4-1.6-4.1-3.3c0 0 1.9-.5 1.9-.5z" stroke="none" fill="#fff"/></g></svg>