<?xml version="1.0" standalone="no"?><!DOCTYPE svg PUBLIC "-//W3C//DTD SVG 1.1//EN" "http://www.w3.org/Graphics/SVG/1.1/DTD/svg11.dtd"><svg xmlns="http://www.w3.org/2000/svg" version="1.1" width="209px" height="21.8px" viewBox="0 -3 209 21.8" style="top:-3px"><desc>H tellerie &amp; Restauration</desc><defs/><g id="Polygon174704"><path d="m8 11.7l0-4.5l-5.3 0l0 4.5l-1.4 0l0-10.2l1.4 0l0 4.3l5.3 0l0-4.3l1.4 0l0 10.2l-1.4 0zm9-3.5c0-1.6-1-2.4-2.2-2.4c-1.1 0-2.1.8-2.1 2.4c0 1.7 1 2.5 2.1 2.5c1.2 0 2.2-.8 2.2-2.5zm1.4 0c0 2.2-1.5 3.7-3.6 3.7c-2 0-3.5-1.5-3.5-3.7c0-2.1 1.5-3.7 3.5-3.7c2.1 0 3.6 1.6 3.6 3.7zm-5.8-4.4l1.5-2l1.5 0l1.5 2l-1.2 0l-1.1-1.1l-1 1.1l-1.2 0zm9.3 1l1.5 0l0 1.2l-1.5 0c0 0 .01 3.61 0 3.6c0 .7.3 1 1 1c.2 0 .4-.1.5-.1c0 0 0 1.2 0 1.2c-.1 0-.4.1-.9.1c-1.2 0-2-.7-2-2c.05.02 0-3.8 0-3.8l-1.3 0l0-1.2c0 0 .39-.04.4 0c.7 0 1.1-.5 1.1-1.1c-.04-.02 0-1.1 0-1.1l1.2 0l0 2.2zm8 2.7c-.1-1-.7-1.8-2-1.8c-1.1 0-1.8.9-1.9 1.8c0 0 3.9 0 3.9 0zm1.3 2.2c-.4 1.3-1.5 2.2-3.1 2.2c-1.9 0-3.5-1.3-3.5-3.7c0-2.2 1.6-3.7 3.3-3.7c2.2 0 3.4 1.5 3.4 3.7c0 .2 0 .3-.1.4c0 0-5.2 0-5.2 0c0 1.3.9 2.1 2.1 2.1c1.1 0 1.7-.6 2-1.4c0 0 1.1.4 1.1.4zm1.8 2l0-10.5l1.4 0l0 10.5l-1.4 0zm3.7 0l0-10.5l1.4 0l0 10.5l-1.4 0zm8.4-4.2c0-1-.7-1.8-1.9-1.8c-1.2 0-1.9.9-1.9 1.8c0 0 3.8 0 3.8 0zm1.4 2.2c-.4 1.3-1.5 2.2-3.2 2.2c-1.8 0-3.5-1.3-3.5-3.7c0-2.2 1.6-3.7 3.4-3.7c2.1 0 3.3 1.5 3.3 3.7c0 .2 0 .3 0 .4c0 0-5.3 0-5.3 0c.1 1.3 1 2.1 2.1 2.1c1.2 0 1.7-.6 2-1.4c0 0 1.2.4 1.2.4zm5.6-3.6c-.2 0-.4 0-.6 0c-1.1 0-1.9.6-1.9 2.1c0 .04 0 3.5 0 3.5l-1.4 0l0-6.9l1.4 0c0 0-.03 1.17 0 1.2c.5-1.1 1.4-1.4 2.1-1.4c.2 0 .3.1.4.1c0 0 0 1.4 0 1.4zm1.5 5.6l0-6.9l1.3 0l0 6.9l-1.3 0zm.6-10.6c.6 0 1 .5 1 1c0 .6-.4 1-1 1c-.5 0-.9-.4-.9-1c0-.5.4-1 .9-1zm7.7 6.4c0-1-.7-1.8-1.9-1.8c-1.1 0-1.8.9-1.9 1.8c0 0 3.8 0 3.8 0zm1.4 2.2c-.4 1.3-1.5 2.2-3.1 2.2c-1.9 0-3.5-1.3-3.5-3.7c0-2.2 1.5-3.7 3.3-3.7c2.1 0 3.3 1.5 3.3 3.7c0 .2 0 .3 0 .4c0 0-5.2 0-5.2 0c0 1.3.9 2.1 2.1 2.1c1.1 0 1.7-.6 1.9-1.4c0 0 1.2.4 1.2.4zm10.5.7c-.8.9-1.7 1.5-2.8 1.5c-2 0-3-1.3-3-2.6c0-1.4.7-2.1 1.8-2.9c0 .01.1-.1.1-.1c0 0-.14-.21-.1-.2c-.5-.5-1.3-1.3-1.3-2.3c0-1.7 1.4-2.6 2.7-2.6c1.5 0 2.7 1 2.7 2.5c0 1.1-.7 1.8-1.4 2.3c-.04.02-.6.4-.6.4l1.9 2l2.3-2.6l0 1.9l-1.4 1.6l2.4 2.4l-1.9 0c0 0-1.35-1.33-1.4-1.3zm-.9-.9c-.01-.03 0-.1 0-.1l-2.1-2.2c0 0-.48.41-.5.4c-.5.4-.8.9-.8 1.6c0 .7.5 1.4 1.5 1.4c.8 0 1.3-.5 1.9-1.1zm-2.2-4.4c.02.05.3.4.3.4c0 0 .73-.53.7-.5c.6-.5.8-.9.8-1.3c0-.7-.6-1.3-1.3-1.3c-.6 0-1.3.5-1.3 1.3c0 .6.5 1.1.8 1.4zm13.7 2.4l-1.5 0l0 4.2l-1.5 0l0-10.2c0 0 3.9-.05 3.9 0c1.9 0 3.1 1.3 3.1 3c0 1.5-.9 2.6-2.4 2.9c-.04.02 2.4 4.3 2.4 4.3l-1.6 0l-2.4-4.2zm.6-1.2c1.2 0 2-.7 2-1.8c0-1.1-.8-1.8-2-1.8c.04.02-2.1 0-2.1 0l0 3.6c0 0 2.14-.05 2.1 0zm9.7 1.2c-.1-1-.7-1.8-1.9-1.8c-1.2 0-1.9.9-1.9 1.8c0 0 3.8 0 3.8 0zm1.3 2.2c-.3 1.3-1.5 2.2-3.1 2.2c-1.9 0-3.5-1.3-3.5-3.7c0-2.2 1.6-3.7 3.3-3.7c2.2 0 3.4 1.5 3.4 3.7c0 .2 0 .3 0 .4c0 0-5.3 0-5.3 0c0 1.3.9 2.1 2.1 2.1c1.1 0 1.7-.6 2-1.4c0 0 1.1.4 1.1.4zm2.4-.2c.1.7.6 1.3 1.6 1.3c.8 0 1.2-.4 1.2-.9c0-.5-.3-.8-.9-.9c0 0-1.2-.3-1.2-.3c-1.1-.2-1.7-1-1.7-2c0-1.1 1.1-2.2 2.5-2.2c1.9 0 2.5 1.3 2.6 1.9c0 0-1.2.5-1.2.5c0-.4-.3-1.2-1.4-1.2c-.7 0-1.2.4-1.2.9c0 .4.3.8.8.9c0 0 1.1.2 1.1.2c1.3.3 2 1.1 2 2.1c0 1-.9 2.1-2.6 2.1c-1.9 0-2.7-1.2-2.8-2c0 0 1.2-.4 1.2-.4zm7.8-4.7l1.5 0l0 1.2l-1.5 0c0 0 .01 3.61 0 3.6c0 .7.3 1 1 1c.2 0 .4-.1.5-.1c0 0 0 1.2 0 1.2c-.1 0-.4.1-.9.1c-1.2 0-2-.7-2-2c.05.02 0-3.8 0-3.8l-1.3 0l0-1.2c0 0 .39-.04.4 0c.7 0 1.1-.5 1.1-1.1c-.03-.02 0-1.1 0-1.1l1.2 0l0 2.2zm2.9 5.1c0-1.3.9-2 2.1-2.2c0 0 1.9-.2 1.9-.2c.4-.1.5-.3.5-.6c0-.6-.4-1.2-1.5-1.2c-.9 0-1.5.6-1.6 1.4c0 0-1.3-.3-1.3-.3c.2-1.3 1.4-2.3 2.9-2.3c2.1 0 2.9 1.2 2.9 2.6c0 0 0 3.5 0 3.5c0 .6.1 1 .1 1.1c0 0-1.3 0-1.3 0c-.1-.1-.1-.4-.1-.9c-.3.5-1 1.1-2.3 1.1c-1.4 0-2.3-.9-2.3-2c0 0 0 0 0 0zm4.5-1.2c.04.04 0-.3 0-.3c0 0-2.1.34-2.1.3c-.6.1-1 .5-1 1.1c0 .5.4 1 1.1 1c1.1 0 2-.5 2-2.1zm8 2.2c-.4.7-1.3 1-2.1 1c-1.6 0-2.6-1.2-2.6-2.7c0-.05 0-4.4 0-4.4l1.4 0c0 0-.04 4.15 0 4.1c0 1 .4 1.8 1.5 1.8c1.1 0 1.7-.7 1.7-1.7c0-.04 0-4.2 0-4.2l1.4 0c0 0-.04 5.64 0 5.6c0 .6 0 1.1 0 1.3c0 0-1.3 0-1.3 0c0-.1 0-.5 0-.8c0 0 0 0 0 0zm7.4-4.8c-.2 0-.4 0-.5 0c-1.2 0-2 .6-2 2.1c.04.04 0 3.5 0 3.5l-1.3 0l0-6.9l1.3 0c0 0 .01 1.17 0 1.2c.5-1.1 1.4-1.4 2.1-1.4c.2 0 .4.1.4.1c0 0 0 1.4 0 1.4zm1.1 3.8c0-1.3.9-2 2.1-2.2c0 0 1.9-.2 1.9-.2c.4-.1.5-.3.5-.6c0-.6-.4-1.2-1.5-1.2c-1 0-1.5.6-1.6 1.4c0 0-1.3-.3-1.3-.3c.2-1.3 1.4-2.3 2.9-2.3c2.1 0 2.9 1.2 2.9 2.6c0 0 0 3.5 0 3.5c0 .6 0 1 .1 1.1c0 0-1.4 0-1.4 0c0-.1-.1-.4-.1-.9c-.3.5-1 1.1-2.2 1.1c-1.4 0-2.3-.9-2.3-2c0 0 0 0 0 0zm4.5-1.2c0 .04 0-.3 0-.3c0 0-2.13.34-2.1.3c-.6.1-1 .5-1 1.1c0 .5.4 1 1.1 1c1.1 0 2-.5 2-2.1zm5.3-3.9l1.5 0l0 1.2l-1.5 0c0 0 .01 3.61 0 3.6c0 .7.3 1 1 1c.2 0 .4-.1.5-.1c0 0 0 1.2 0 1.2c-.1 0-.4.1-.9.1c-1.2 0-2-.7-2-2c.05.02 0-3.8 0-3.8l-1.3 0l0-1.2c0 0 .39-.04.4 0c.7 0 1.1-.5 1.1-1.1c-.04-.02 0-1.1 0-1.1l1.2 0l0 2.2zm3.3 6.9l0-6.9l1.4 0l0 6.9l-1.4 0zm.7-10.6c.5 0 1 .5 1 1c0 .6-.5 1-1 1c-.5 0-1-.4-1-1c0-.5.5-1 1-1zm8.2 7.1c0-1.6-1.1-2.4-2.2-2.4c-1.2 0-2.2.8-2.2 2.4c0 1.7 1 2.5 2.2 2.5c1.1 0 2.2-.8 2.2-2.5zm1.4 0c0 2.2-1.5 3.7-3.6 3.7c-2.1 0-3.6-1.5-3.6-3.7c0-2.1 1.5-3.7 3.6-3.7c2.1 0 3.6 1.6 3.6 3.7zm3.1 3.5l-1.4 0l0-6.9l1.3 0c0 0 .03.96 0 1c.5-.9 1.4-1.2 2.2-1.2c1.6 0 2.5 1.2 2.5 2.7c-.03.01 0 4.4 0 4.4l-1.4 0c0 0 0-4.16 0-4.2c0-.9-.4-1.7-1.6-1.7c-1.1 0-1.6.8-1.6 1.9c-.05 0 0 4 0 4z" stroke="none" fill="#144542"/></g></svg>