<?xml version="1.0" standalone="no"?><!DOCTYPE svg PUBLIC "-//W3C//DTD SVG 1.1//EN" "http://www.w3.org/Graphics/SVG/1.1/DTD/svg11.dtd"><svg xmlns="http://www.w3.org/2000/svg" version="1.1" width="145px" height="69.6px" viewBox="0 -3 145 69.6" style="top:-3px"><desc>Embarquer des entreprises et cr er de la valeur durable</desc><defs/><g id="Polygon162813"><path d="m3.8 58.3c1.1 0 1.8-.8 1.8-2.1c0-1.3-.7-2-1.8-2c-1 0-1.7.8-1.7 2c0 1.3.7 2.1 1.7 2.1zm3.3 0c0 .6 0 1.1.1 1.2c0 0-1.5 0-1.5 0c-.1-.1-.1-.6-.1-.8c-.3.5-1 1-1.9 1c-1.9 0-3.2-1.5-3.2-3.5c0-1.9 1.3-3.4 3.1-3.4c1.2 0 1.8.5 2 .9c-.04.02 0-4 0-4l1.5 0c0 0-.01 8.62 0 8.6zm7.6.5c-.3.6-1.1.9-1.8.9c-1.6 0-2.5-1.2-2.5-2.6c-.02-.01 0-4.2 0-4.2l1.5 0c0 0 .05 3.91 0 3.9c0 .8.4 1.5 1.4 1.5c.9 0 1.3-.6 1.3-1.5c.05.04 0-3.9 0-3.9l1.6 0c0 0 .01 5.42 0 5.4c0 .6.1 1 .1 1.2c0 0-1.5 0-1.5 0c0-.1-.1-.4-.1-.7c0 0 0 0 0 0zm8.7-4.3c-.1 0-.3 0-.5 0c-1.2 0-1.7.7-1.7 1.9c-.05-.01 0 3.1 0 3.1l-1.6 0l0-6.6l1.5 0c0 0 .01 1.1 0 1.1c.3-.7 1.1-1.1 1.9-1.1c.2 0 .4 0 .4 0c0 0 0 1.6 0 1.6zm4.3 1.3c0 0 1.7-.3 1.7-.3c.4-.1.5-.2.5-.5c0-.5-.4-1-1.3-1c-.8 0-1.3.6-1.3 1.2c0 0-1.5-.3-1.5-.3c.2-1.1 1.2-2.2 2.8-2.2c2 0 2.8 1.2 2.8 2.5c0 0 0 3.3 0 3.3c0 .6.1 1 .1 1c0 0-1.5 0-1.5 0c0 0 0-.3 0-.8c-.4.5-1 1-2.1 1c-1.3 0-2.2-.9-2.2-2c0-1.1.9-1.8 2-1.9zm2.2 1c-.04-.01 0-.3 0-.3c0 0-1.75.25-1.8.3c-.4 0-.8.3-.8.8c0 .5.3.9.9.9c.9 0 1.7-.4 1.7-1.7zm4.7 2.7l0-9.8l1.6 0c0 0-.02 4.06 0 4.1c.3-.6 1-1 2-1c2 0 3.1 1.5 3.1 3.4c0 2-1.2 3.5-3.1 3.5c-.9 0-1.7-.4-2-1.1c-.03.04 0 .9 0 .9l-1.6 0zm3.3-5.3c-1 0-1.7.7-1.7 2c0 1.3.7 2.1 1.7 2.1c1.1 0 1.8-.8 1.8-2.1c0-1.3-.7-2-1.8-2zm6.2 5.3l0-9.8l1.6 0l0 9.8l-1.6 0zm9.3-4c0-.8-.5-1.4-1.6-1.4c-1 0-1.6.7-1.6 1.4c0 0 3.2 0 3.2 0zm1.5 2.1c-.3 1.2-1.4 2.1-3 2.1c-1.7 0-3.3-1.3-3.3-3.5c0-2.1 1.5-3.5 3.2-3.5c2 0 3.2 1.4 3.2 3.5c0 .2 0 .4-.1.5c0 0-4.8 0-4.8 0c.1 1 .9 1.7 1.8 1.7c1 0 1.5-.5 1.7-1.2c0 0 1.3.4 1.3.4z" stroke="none" fill="#3b6966"/></g><g id="Polygon162812"><path d="m2.1 40c0 1.4.8 2.1 1.8 2.1c1 0 1.5-.7 1.6-1.2c0 0 1.4.5 1.4.5c-.3 1-1.3 2.1-3 2.1c-1.9 0-3.4-1.5-3.4-3.5c0-2 1.5-3.5 3.4-3.5c1.7 0 2.7 1.2 3 2.2c0 0-1.4.5-1.4.5c-.2-.6-.6-1.2-1.6-1.2c-1 0-1.8.7-1.8 2zm11.4-1.7c-.2 0-.3 0-.5 0c-1.2 0-1.8.7-1.8 1.9c.03-.01 0 3.1 0 3.1l-1.5 0l0-6.6l1.5 0c0 0-.01 1.1 0 1.1c.3-.7 1-1.1 1.9-1.1c.2 0 .3 0 .4 0c0 0 0 1.6 0 1.6zm5.9-2.4l-1.3 0l1.2-2l1.8 0l-1.7 2zm1 3.4c0-.8-.5-1.4-1.6-1.4c-1 0-1.5.7-1.6 1.4c0 0 3.2 0 3.2 0zm1.5 2.1c-.3 1.2-1.4 2.1-2.9 2.1c-1.8 0-3.4-1.3-3.4-3.5c0-2.1 1.5-3.5 3.2-3.5c2 0 3.2 1.4 3.2 3.5c0 .2 0 .4 0 .5c0 0-4.8 0-4.8 0c0 1 .8 1.7 1.8 1.7c.9 0 1.4-.5 1.6-1.2c0 0 1.3.4 1.3.4zm7.3-2.1c-.1-.8-.6-1.4-1.6-1.4c-1 0-1.6.7-1.7 1.4c0 0 3.3 0 3.3 0zm1.5 2.1c-.4 1.2-1.4 2.1-3 2.1c-1.8 0-3.4-1.3-3.4-3.5c0-2.1 1.6-3.5 3.2-3.5c2.1 0 3.3 1.4 3.3 3.5c0 .2-.1.4-.1.5c0 0-4.8 0-4.8 0c0 1 .8 1.7 1.8 1.7c.9 0 1.4-.5 1.6-1.2c0 0 1.4.4 1.4.4zm6.7-3.1c-.1 0-.3 0-.5 0c-1.2 0-1.7.7-1.7 1.9c-.03-.01 0 3.1 0 3.1l-1.6 0l0-6.6l1.5 0c0 0 .03 1.1 0 1.1c.3-.7 1.1-1.1 1.9-1.1c.2 0 .4 0 .4 0c0 0 0 1.6 0 1.6zm10.2 3.8c1 0 1.7-.8 1.7-2.1c0-1.3-.7-2-1.7-2c-1 0-1.8.8-1.8 2c0 1.3.7 2.1 1.8 2.1zm3.3 0c0 .6 0 1.1 0 1.2c0 0-1.5 0-1.5 0c0-.1 0-.6 0-.8c-.4.5-1 1-2 1c-1.9 0-3.1-1.5-3.1-3.5c0-1.9 1.2-3.4 3.1-3.4c1.1 0 1.7.5 1.9.9c.03.02 0-4 0-4l1.6 0c0 0-.05 8.62 0 8.6zm7.7-2.8c-.1-.8-.6-1.4-1.6-1.4c-1 0-1.6.7-1.7 1.4c0 0 3.3 0 3.3 0zm1.5 2.1c-.4 1.2-1.4 2.1-3 2.1c-1.8 0-3.4-1.3-3.4-3.5c0-2.1 1.6-3.5 3.2-3.5c2.1 0 3.3 1.4 3.3 3.5c0 .2-.1.4-.1.5c0 0-4.8 0-4.8 0c0 1 .8 1.7 1.8 1.7c.9 0 1.4-.5 1.7-1.2c0 0 1.3.4 1.3.4zm7.6 1.9l0-9.8l1.6 0l0 9.8l-1.6 0zm6.5-3.7c0 0 1.7-.3 1.7-.3c.4-.1.5-.2.5-.5c0-.5-.4-1-1.3-1c-.8 0-1.3.6-1.3 1.2c0 0-1.5-.3-1.5-.3c.2-1.1 1.2-2.2 2.8-2.2c2 0 2.8 1.2 2.8 2.5c0 0 0 3.3 0 3.3c0 .6.1 1 .1 1c0 0-1.5 0-1.5 0c0 0 0-.3 0-.8c-.3.5-1 1-2.1 1c-1.3 0-2.2-.9-2.2-2c0-1.1.9-1.8 2-1.9zm2.2 1c-.03-.01 0-.3 0-.3c0 0-1.75.25-1.7.3c-.5 0-.9.3-.9.8c0 .5.3.9.9.9c.9 0 1.7-.4 1.7-1.7zm12.8 2.7l-1.6 0l-2.6-6.6l1.7 0l1.7 4.7l1.7-4.7l1.7 0l-2.6 6.6zm6.6-3.7c0 0 1.7-.3 1.7-.3c.4-.1.5-.2.5-.5c0-.5-.4-1-1.2-1c-.9 0-1.3.6-1.4 1.2c0 0-1.4-.3-1.4-.3c.1-1.1 1.1-2.2 2.7-2.2c2.1 0 2.8 1.2 2.8 2.5c0 0 0 3.3 0 3.3c0 .6.1 1 .1 1c0 0-1.4 0-1.4 0c-.1 0-.1-.3-.1-.8c-.3.5-1 1-2 1c-1.4 0-2.3-.9-2.3-2c0-1.1.9-1.8 2-1.9zm2.2 1c0-.01 0-.3 0-.3c0 0-1.72.25-1.7.3c-.5 0-.9.3-.9.8c0 .5.3.9 1 .9c.8 0 1.6-.4 1.6-1.7zm4.8 2.7l0-9.8l1.5 0l0 9.8l-1.5 0zm9.2-4c0-.8-.5-1.4-1.6-1.4c-1 0-1.5.7-1.6 1.4c0 0 3.2 0 3.2 0zm1.5 2.1c-.3 1.2-1.4 2.1-2.9 2.1c-1.8 0-3.4-1.3-3.4-3.5c0-2.1 1.5-3.5 3.2-3.5c2 0 3.2 1.4 3.2 3.5c0 .2 0 .4 0 .5c0 0-4.8 0-4.8 0c0 1 .8 1.7 1.8 1.7c.9 0 1.4-.5 1.6-1.2c0 0 1.3.4 1.3.4zm7.1 1.2c-.3.6-1.1.9-1.9.9c-1.5 0-2.4-1.2-2.4-2.6c-.04-.01 0-4.2 0-4.2l1.5 0c0 0 .03 3.91 0 3.9c0 .8.4 1.5 1.3 1.5c1 0 1.4-.6 1.4-1.5c.03.04 0-3.9 0-3.9l1.6 0c0 0-.01 5.42 0 5.4c0 .6 0 1 .1 1.2c0 0-1.5 0-1.5 0c-.1-.1-.1-.4-.1-.7c0 0 0 0 0 0zm8.7-4.3c-.2 0-.3 0-.5 0c-1.2 0-1.8.7-1.8 1.9c.03-.01 0 3.1 0 3.1l-1.5 0l0-6.6l1.5 0c0 0-.01 1.1 0 1.1c.3-.7 1-1.1 1.9-1.1c.2 0 .3 0 .4 0c0 0 0 1.6 0 1.6z" stroke="none" fill="#3b6966"/></g><g id="Polygon162811"><path d="m5.3 23.1c0-.8-.5-1.4-1.6-1.4c-1 0-1.5.7-1.6 1.4c0 0 3.2 0 3.2 0zm1.5 2.1c-.3 1.2-1.4 2.1-2.9 2.1c-1.8 0-3.4-1.3-3.4-3.5c0-2.1 1.5-3.5 3.2-3.5c2 0 3.2 1.4 3.2 3.5c0 .2 0 .4 0 .5c0 0-4.8 0-4.8 0c0 1 .8 1.7 1.8 1.7c.9 0 1.4-.5 1.6-1.2c0 0 1.3.4 1.3.4zm4.5 1.9l-1.5 0l0-6.6l1.5 0c0 0-.01.92 0 .9c.4-.7 1.2-1 1.9-1c1.6 0 2.4 1.1 2.4 2.6c0-.04 0 4.1 0 4.1l-1.6 0c0 0 .04-3.87 0-3.9c0-.8-.3-1.4-1.3-1.4c-.9 0-1.4.7-1.4 1.5c.03.03 0 3.8 0 3.8zm9.5-6.6l1.4 0l0 1.4l-1.4 0c0 0 .04 3.09 0 3.1c0 .6.3.8.9.8c.2 0 .5 0 .5 0c0 0 0 1.3 0 1.3c-.1 0-.4.1-.9.1c-1.3 0-2-.7-2-2c-.01.05 0-3.3 0-3.3l-1.2 0l0-1.4c0 0 .31.05.3 0c.7 0 1-.4 1-1c.03.02 0-1 0-1l1.4 0l0 2zm8.1 1.6c-.2 0-.4 0-.5 0c-1.2 0-1.8.7-1.8 1.9c.01-.01 0 3.1 0 3.1l-1.6 0l0-6.6l1.6 0c0 0-.03 1.1 0 1.1c.3-.7 1-1.1 1.9-1.1c.2 0 .3 0 .4 0c0 0 0 1.6 0 1.6zm6.9 1c0-.8-.5-1.4-1.6-1.4c-1 0-1.6.7-1.6 1.4c0 0 3.2 0 3.2 0zm1.5 2.1c-.4 1.2-1.4 2.1-3 2.1c-1.8 0-3.3-1.3-3.3-3.5c0-2.1 1.5-3.5 3.2-3.5c2 0 3.2 1.4 3.2 3.5c0 .2 0 .4-.1.5c0 0-4.8 0-4.8 0c.1 1 .9 1.7 1.8 1.7c1 0 1.5-.5 1.7-1.2c0 0 1.3.4 1.3.4zm2.9 4.5l0-9.2l1.5 0c0 0 .04.94 0 .9c.4-.5 1.1-1 2.1-1c2 0 3.1 1.5 3.1 3.4c0 2-1.2 3.5-3.1 3.5c-1 0-1.7-.4-2-.9c-.02-.02 0 3.3 0 3.3l-1.6 0zm5.1-5.9c0-1.2-.7-2-1.8-2c-1 0-1.7.8-1.7 2c0 1.3.7 2.1 1.7 2.1c1.1 0 1.8-.8 1.8-2.1c0 0 0 0 0 0zm8.3-1.7c-.2 0-.4 0-.5 0c-1.2 0-1.8.7-1.8 1.9c0-.01 0 3.1 0 3.1l-1.6 0l0-6.6l1.6 0c0 0-.04 1.1 0 1.1c.3-.7 1-1.1 1.9-1.1c.2 0 .3 0 .4 0c0 0 0 1.6 0 1.6zm2.6 5l0-6.6l1.6 0l0 6.6l-1.6 0zm.8-9.9c.6 0 1 .5 1 1c0 .6-.4 1.1-1 1.1c-.5 0-1-.5-1-1.1c0-.5.5-1 1-1zm5 7.8c0 .6.4 1.1 1.3 1.1c.6 0 1-.4 1-.8c0-.3-.3-.6-.8-.7c0 0-1-.2-1-.2c-1.1-.3-1.7-1-1.7-1.9c0-1.2 1-2.2 2.4-2.2c1.8 0 2.4 1.2 2.5 1.9c0 0-1.3.4-1.3.4c-.1-.4-.3-1-1.2-1c-.6 0-1 .3-1 .7c0 .4.3.6.7.7c0 0 1 .2 1 .2c1.2.3 1.9 1 1.9 2c0 1-.8 2.1-2.5 2.1c-1.9 0-2.6-1.2-2.7-2c0 0 1.4-.3 1.4-.3zm11-1.9c-.1-.8-.6-1.4-1.7-1.4c-.9 0-1.5.7-1.6 1.4c0 0 3.3 0 3.3 0zm1.5 2.1c-.4 1.2-1.4 2.1-3 2.1c-1.8 0-3.4-1.3-3.4-3.5c0-2.1 1.6-3.5 3.2-3.5c2.1 0 3.2 1.4 3.2 3.5c0 .2 0 .4 0 .5c0 0-4.8 0-4.8 0c0 1 .8 1.7 1.8 1.7c.9 0 1.4-.5 1.6-1.2c0 0 1.4.4 1.4.4zm3.7-.2c0 .6.5 1.1 1.3 1.1c.7 0 1-.4 1-.8c0-.3-.2-.6-.8-.7c0 0-.9-.2-.9-.2c-1.2-.3-1.8-1-1.8-1.9c0-1.2 1-2.2 2.4-2.2c1.8 0 2.4 1.2 2.5 1.9c0 0-1.3.4-1.3.4c0-.4-.3-1-1.2-1c-.5 0-.9.3-.9.7c0 .4.2.6.6.7c0 0 1 .2 1 .2c1.3.3 1.9 1 1.9 2c0 1-.8 2.1-2.5 2.1c-1.9 0-2.6-1.2-2.7-2c0 0 1.4-.3 1.4-.3zm15.7-1.9c0-.8-.5-1.4-1.6-1.4c-1 0-1.5.7-1.6 1.4c0 0 3.2 0 3.2 0zm1.5 2.1c-.3 1.2-1.4 2.1-2.9 2.1c-1.8 0-3.4-1.3-3.4-3.5c0-2.1 1.5-3.5 3.2-3.5c2 0 3.2 1.4 3.2 3.5c0 .2 0 .4 0 .5c0 0-4.8 0-4.8 0c0 1 .8 1.7 1.8 1.7c.9 0 1.4-.5 1.6-1.2c0 0 1.3.4 1.3.4zm4.9-4.7l1.4 0l0 1.4l-1.4 0c0 0 .04 3.09 0 3.1c0 .6.3.8.9.8c.2 0 .5 0 .5 0c0 0 0 1.3 0 1.3c-.1 0-.4.1-.9.1c-1.3 0-2-.7-2-2c-.01.05 0-3.3 0-3.3l-1.2 0l0-1.4c0 0 .31.05.3 0c.7 0 1-.4 1-1c.03.02 0-1 0-1l1.4 0l0 2z" stroke="none" fill="#3b6966"/></g><g id="Polygon162810"><path d="m1.1 10.9l0-9.5l6 0l0 1.5l-4.3 0l0 2.5l3.9 0l0 1.5l-3.9 0l0 2.5l4.3 0l0 1.5l-6 0zm9 0l0-6.6l1.5 0c0 0-.02.88 0 .9c.4-.7 1.2-1 1.9-1c.9 0 1.6.3 2 1.1c.5-.8 1.3-1.1 2.1-1.1c1.2 0 2.4.7 2.4 2.5c-.05-.05 0 4.2 0 4.2l-1.6 0c0 0 .04-3.99 0-4c0-.8-.4-1.3-1.2-1.3c-.9 0-1.4.6-1.4 1.4c.01.02 0 3.9 0 3.9l-1.5 0c0 0-.03-3.99 0-4c0-.7-.4-1.3-1.3-1.3c-.8 0-1.4.6-1.4 1.4c.04.02 0 3.9 0 3.9l-1.5 0zm13.1 0l0-9.8l1.6 0c0 0-.04 4.06 0 4.1c.3-.6 1-1 2-1c2 0 3.1 1.5 3.1 3.4c0 2-1.2 3.5-3.1 3.5c-1 0-1.7-.4-2.1-1.1c.04.04 0 .9 0 .9l-1.5 0zm3.3-5.3c-1 0-1.8.7-1.8 2c0 1.3.8 2.1 1.8 2.1c1 0 1.8-.8 1.8-2.1c0-1.3-.7-2-1.8-2zm7.8 1.6c0 0 1.7-.3 1.7-.3c.4-.1.5-.2.5-.5c0-.5-.4-1-1.3-1c-.8 0-1.2.6-1.3 1.2c0 0-1.4-.3-1.4-.3c.1-1.1 1.1-2.2 2.7-2.2c2 0 2.8 1.2 2.8 2.5c0 0 0 3.3 0 3.3c0 .6.1 1 .1 1c0 0-1.5 0-1.5 0c0 0 0-.3 0-.8c-.3.5-1 1-2.1 1c-1.3 0-2.2-.9-2.2-2c0-1.1.9-1.8 2-1.9zm2.2 1c-.02-.01 0-.3 0-.3c0 0-1.74.25-1.7.3c-.5 0-.9.3-.9.8c0 .5.3.9.9.9c.9 0 1.7-.4 1.7-1.7zm8.6-2.3c-.2 0-.3 0-.5 0c-1.2 0-1.8.7-1.8 1.9c.02-.01 0 3.1 0 3.1l-1.5 0l0-6.6l1.5 0c0 0-.02 1.1 0 1.1c.3-.7 1-1.1 1.9-1.1c.2 0 .3 0 .4 0c0 0 0 1.6 0 1.6zm7.2 7.6c0 0-.03-3.36 0-3.4c-.4.6-1 1-2 1c-1.8 0-3.1-1.5-3.1-3.5c0-1.9 1.2-3.4 3.1-3.4c1.1 0 1.8.6 2 1c.01.02 0-.9 0-.9l1.5 0l0 9.2l-1.5 0zm-1.8-3.8c1 0 1.8-.8 1.8-2.1c0-1.2-.8-2-1.8-2c-1 0-1.7.8-1.7 2c0 1.3.7 2.1 1.7 2.1zm10.9.5c-.4.6-1.1.9-1.9.9c-1.6 0-2.5-1.2-2.5-2.6c.02-.01 0-4.2 0-4.2l1.6 0c0 0-.01 3.91 0 3.9c0 .8.4 1.5 1.3 1.5c.9 0 1.4-.6 1.4-1.5c-.01.04 0-3.9 0-3.9l1.6 0c0 0-.05 5.42 0 5.4c0 .6 0 1 0 1.2c0 0-1.5 0-1.5 0c0-.1 0-.4 0-.7c0 0 0 0 0 0zm9.1-3.3c0-.8-.5-1.4-1.6-1.4c-1 0-1.6.7-1.6 1.4c0 0 3.2 0 3.2 0zm1.5 2.1c-.3 1.2-1.4 2.1-3 2.1c-1.7 0-3.3-1.3-3.3-3.5c0-2.1 1.5-3.5 3.2-3.5c2 0 3.2 1.4 3.2 3.5c0 .2 0 .4-.1.5c0 0-4.8 0-4.8 0c.1 1 .9 1.7 1.8 1.7c1 0 1.5-.5 1.7-1.2c0 0 1.3.4 1.3.4zm6.8-3.1c-.2 0-.4 0-.5 0c-1.2 0-1.8.7-1.8 1.9c0-.01 0 3.1 0 3.1l-1.6 0l0-6.6l1.6 0c0 0-.04 1.1 0 1.1c.3-.7 1-1.1 1.9-1.1c.2 0 .3 0 .4 0c0 0 0 1.6 0 1.6zm10.1 3.8c1.1 0 1.8-.8 1.8-2.1c0-1.3-.7-2-1.7-2c-1.1 0-1.8.8-1.8 2c0 1.3.7 2.1 1.7 2.1zm3.3 0c0 .6 0 1.1.1 1.2c0 0-1.5 0-1.5 0c-.1-.1-.1-.6-.1-.8c-.3.5-1 1-1.9 1c-1.9 0-3.2-1.5-3.2-3.5c0-1.9 1.3-3.4 3.1-3.4c1.2 0 1.8.5 2 .9c-.03.02 0-4 0-4l1.5 0c0 0-.01 8.62 0 8.6zm7.7-2.8c0-.8-.5-1.4-1.6-1.4c-1 0-1.6.7-1.6 1.4c0 0 3.2 0 3.2 0zm1.5 2.1c-.3 1.2-1.4 2.1-3 2.1c-1.7 0-3.3-1.3-3.3-3.5c0-2.1 1.5-3.5 3.2-3.5c2 0 3.2 1.4 3.2 3.5c0 .2 0 .4 0 .5c0 0-4.9 0-4.9 0c.1 1 .9 1.7 1.8 1.7c1 0 1.5-.5 1.7-1.2c0 0 1.3.4 1.3.4zm3.7-.2c.1.6.5 1.1 1.4 1.1c.6 0 .9-.4.9-.8c0-.3-.2-.6-.7-.7c0 0-1-.2-1-.2c-1.2-.3-1.8-1-1.8-1.9c0-1.2 1.1-2.2 2.5-2.2c1.8 0 2.4 1.2 2.5 1.9c0 0-1.3.4-1.3.4c-.1-.4-.4-1-1.2-1c-.6 0-1 .3-1 .7c0 .4.3.6.7.7c0 0 1 .2 1 .2c1.2.3 1.9 1 1.9 2c0 1-.9 2.1-2.5 2.1c-1.9 0-2.7-1.2-2.7-2c0 0 1.3-.3 1.3-.3z" stroke="none" fill="#3b6966"/></g></svg>