<?xml version="1.0" standalone="no"?><!DOCTYPE svg PUBLIC "-//W3C//DTD SVG 1.1//EN" "http://www.w3.org/Graphics/SVG/1.1/DTD/svg11.dtd"><svg xmlns="http://www.w3.org/2000/svg" version="1.1" width="167.2px" height="65.2px" viewBox="0 -10 167.2 65.2" style="top:-10px"><desc>64%</desc><defs/><g id="Polygon183483"><path d="m72 21.3c0 6-3.4 10.5-10.4 10.5c-7.9 0-10.8-6.9-10.8-13c0-9.6 7-17.5 18.5-18.3c0 0 .2.7.2.7c-6.2 1.2-11.1 7.8-11.9 12.7c1.6-1.7 3.4-2.5 6.2-2.5c4.8 0 8.2 5 8.2 9.9zm-7.2 1.3c0-4.2-1.2-9.6-3.9-9.6c-2.8 0-2.9 4.4-2.9 8.3c0 4.9 1.1 9.5 4.3 9.5c2.6 0 2.5-6.1 2.5-8.2zm27.8 8.7l-3 0l0 9.2l-6.7 0l0-9.2l-11.8 0l18.5-22.7l0 18.4l4.9 0l-1.9 4.3zm-9.7-4.3l0-8.8l-7.1 8.8l7.1 0zm15.2-22.9c0-2.8 1.8-4.7 4.3-4.7c2.6 0 4.4 1.9 4.4 4.7c0 2.8-1.8 4.8-4.4 4.8c-2.5 0-4.3-2-4.3-4.8zm6.5 8.3l4.8-7.7l3.1-5l1 0l-3.5 5.2l-4.9 7.7l-2.8 4.7l-1 0l3.3-4.9zm-.8-8.3c0-2.6-.1-4.2-1.4-4.2c-1.2 0-1.3 1.6-1.3 4.2c0 2.6.1 4.3 1.3 4.3c1.3 0 1.4-1.7 1.4-4.3zm4.4 8.7c0-2.8 1.8-4.8 4.4-4.8c2.5 0 4.3 2 4.3 4.8c0 2.8-1.8 4.8-4.3 4.8c-2.6 0-4.4-2-4.4-4.8zm5.7 0c0-2.6-.1-4.2-1.3-4.2c-1.3 0-1.4 1.6-1.4 4.2c0 2.6.1 4.3 1.4 4.3c1.2 0 1.3-1.7 1.3-4.3z" stroke="none" fill="#144542"/></g></svg>