<?xml version="1.0" standalone="no"?><!DOCTYPE svg PUBLIC "-//W3C//DTD SVG 1.1//EN" "http://www.w3.org/Graphics/SVG/1.1/DTD/svg11.dtd"><svg xmlns="http://www.w3.org/2000/svg" version="1.1" width="115px" height="106.3px" viewBox="0 -3 115 106.3" style="top:-3px"><desc>Sylvain Taboni — Responsable Impact Investing, BNP Paribas Repr sentant Investisseur</desc><defs/><g id="Polygon184459"><path d="m.2 97.1l1.8-8.5l1.2 0l-1.8 8.5l-1.2 0zm6.9 0c0 0 .78-3.5.8-3.5c0-.1 0-.3 0-.4c0-.7-.3-1.1-1-1.1c-.9 0-1.5.9-1.6 1.6c-.03.03-.8 3.4-.8 3.4l-1.1 0c0 0 1.03-4.76 1-4.8c.1-.5.2-1 .2-1c0 0 1.1 0 1.1 0c0 .1 0 .4-.1.7c.4-.6 1.1-.8 1.8-.8c1 0 1.7.6 1.7 1.7c0 .1 0 .3-.1.5c.05.03-.7 3.7-.7 3.7l-1.2 0zm5.2 0l-1.1 0l-1-5.8l1.2 0l.6 4.4l2.5-4.4l1.2 0l-3.4 5.8zm7.7-3.5c0 0 0-.1 0-.2c0-.6-.3-1.3-1.3-1.3c-.9 0-1.6.8-1.8 1.5c0 0 3.1 0 3.1 0zm-3.2.9c0 .1 0 .2 0 .2c0 1 .6 1.6 1.4 1.6c.9 0 1.5-.5 1.7-1c0 0 .9.6.9.6c-.4.7-1.4 1.4-2.6 1.4c-1.4 0-2.6-.9-2.6-2.7c0-2.1 1.6-3.5 3.2-3.5c1.6 0 2.4 1 2.4 2.4c0 .4-.1.8-.2 1c0 0-4.2 0-4.2 0zm5.9.6c0 .7.5 1.2 1.3 1.2c.6 0 .9-.4.9-.8c0-.2-.2-.5-.5-.6c0 0-.9-.4-.9-.4c-.6-.3-1-.8-1-1.5c0-1 .8-1.9 2.1-1.9c1.5 0 2 1.1 2.1 1.7c0 0-1.1.3-1.1.3c0-.5-.3-1-1.1-1c-.6 0-.9.3-.9.7c0 .4.1.6.4.7c0 0 .8.4.8.4c.8.3 1.2.9 1.2 1.6c0 .7-.5 1.8-2.1 1.8c-1.6 0-2.2-1.2-2.2-2c0 0 1-.2 1-.2zm5.2.3c-.01.04.6-3.1.6-3.1l-1 0l.2-1c0 0 .18.02.2 0c.7 0 1-.3 1.2-.9c-.04-.01.2-.9.2-.9l1 0l-.4 1.8l1.2 0l-.3 1l-1.1 0c0 0-.66 3.08-.7 3.1c0 .1 0 .2 0 .3c0 .3.2.5.7.5c.1 0 .2 0 .3-.1c0 0-.2 1-.2 1c0 0-.2.1-.6.1c-.8 0-1.4-.5-1.4-1.3c0-.2.1-.3.1-.5zm5.7-7.1c.4 0 .7.3.7.7c0 .5-.5.9-.9.9c-.4 0-.7-.3-.7-.7c0-.5.4-.9.9-.9zm-2.4 8.8l1.3-5.8l1.1 0l-1.2 5.8l-1.2 0zm3.9-2c0 .7.5 1.2 1.3 1.2c.6 0 .9-.4.9-.8c0-.2-.2-.5-.5-.6c0 0-.9-.4-.9-.4c-.6-.3-1-.8-1-1.5c0-1 .8-1.9 2.1-1.9c1.5 0 2 1.1 2.1 1.7c0 0-1 .3-1 .3c-.1-.5-.4-1-1.2-1c-.6 0-.9.3-.9.7c0 .4.2.6.5.7c0 0 .7.4.7.4c.8.3 1.2.9 1.2 1.6c0 .7-.5 1.8-2.1 1.8c-1.5 0-2.2-1.2-2.2-2c0 0 1-.2 1-.2zm5.3 0c0 .7.5 1.2 1.3 1.2c.6 0 .9-.4.9-.8c0-.2-.2-.5-.5-.6c0 0-.9-.4-.9-.4c-.6-.3-1-.8-1-1.5c0-1 .8-1.9 2.1-1.9c1.5 0 2 1.1 2.1 1.7c0 0-1 .3-1 .3c-.1-.5-.4-1-1.2-1c-.6 0-.9.3-.9.7c0 .4.2.6.4.7c0 0 .8.4.8.4c.8.3 1.2.9 1.2 1.6c0 .7-.5 1.8-2.1 1.8c-1.6 0-2.2-1.2-2.2-2c0 0 1-.2 1-.2zm8.9-1.5c0 0 .1-.1.1-.2c0-.6-.4-1.3-1.3-1.3c-1 0-1.6.8-1.8 1.5c0 0 3 0 3 0zm-3.2.9c0 .1 0 .2 0 .2c0 1 .7 1.6 1.5 1.6c.9 0 1.4-.5 1.7-1c0 0 .8.6.8.6c-.4.7-1.3 1.4-2.5 1.4c-1.4 0-2.6-.9-2.6-2.7c0-2.1 1.5-3.5 3.1-3.5c1.6 0 2.4 1 2.4 2.4c0 .4-.1.8-.1 1c0 0-4.3 0-4.3 0zm8.8 1.9c-.3.6-1 .8-1.5.8c-1.2 0-1.9-.7-1.9-1.8c0-.2 0-.5.1-.7c-.02 0 .7-3.4.7-3.4l1.1 0c0 0-.68 3.37-.7 3.4c0 .2 0 .3 0 .5c0 .6.2 1.1 1 1.1c.8 0 1.4-.8 1.5-1.6c.02-.01.7-3.4.7-3.4l1.1 0c0 0-.85 4.29-.9 4.3c-.1.6-.1 1.1-.1 1.3c0 0 0 .1 0 .2c0 0-1.1 0-1.1 0c0-.1 0-.2 0-.3c0-.1 0-.2 0-.4c0 0 0 0 0 0zm6.5-4c-.9 0-1.7.6-2 2c.01-.04-.6 2.7-.6 2.7l-1.1 0c0 0 1.02-4.76 1-4.8c.1-.5.2-.9.2-1c0 0 1.1 0 1.1 0c0 .3-.1.7-.1.9c.4-.7 1.2-1 1.9-1c.1 0 .2 0 .3.1c0 0-.3 1.2-.3 1.2c-.1 0-.3-.1-.4-.1z" stroke="none" fill="#144542"/></g><g id="Polygon184458"><path d="m3.6 79.2l-1.5 0l-.7 3.5l-1.2 0l1.8-8.5c0 0 2.74-.01 2.7 0c1.5 0 2.4.9 2.4 2.1c0 1.5-1 2.5-2.3 2.8c0-.02 1.4 3.6 1.4 3.6l-1.3 0l-1.3-3.5zm.4-1.1c1.1 0 1.9-.6 1.9-1.7c0-.7-.5-1.2-1.4-1.2c.05.03-1.6 0-1.6 0l-.6 2.9c0 0 1.68.02 1.7 0zm7.7 1.1c0 0 0-.1 0-.2c0-.6-.3-1.3-1.3-1.3c-.9 0-1.6.8-1.8 1.5c0 0 3.1 0 3.1 0zm-3.2.9c-.1.1-.1.2-.1.2c0 1 .7 1.6 1.5 1.6c.9 0 1.5-.5 1.7-1c0 0 .9.6.9.6c-.4.7-1.4 1.4-2.6 1.4c-1.4 0-2.6-.9-2.6-2.7c0-2.1 1.6-3.5 3.2-3.5c1.5 0 2.4 1 2.4 2.4c0 .4-.1.8-.2 1c0 0-4.2 0-4.2 0zm6.6.1c0 1.1.6 1.6 1.4 1.6c1 0 2-.9 2-2.4c0-1-.5-1.6-1.5-1.6c-1 0-1.9.9-1.9 2.4zm2.3-3.4c1.5 0 2.2 1.1 2.2 2.4c0 2.1-1.2 3.6-3 3.6c-.8 0-1.5-.3-1.9-1c.02.01-.6 3.2-.6 3.2l-1.2 0c0 0 1.54-7.06 1.5-7.1c.1-.5.2-.9.2-1c0 0 1.1 0 1.1 0c0 .1 0 .4-.1.7c.4-.6 1.1-.8 1.8-.8zm6.7 1.2c-1 0-1.7.6-2 2c-.02-.04-.6 2.7-.6 2.7l-1.1 0c0 0 .98-4.76 1-4.8c.1-.5.1-.9.1-1c0 0 1.1 0 1.1 0c0 .3 0 .7-.1.9c.5-.7 1.3-1 1.9-1c.1 0 .3 0 .3.1c0 0-.2 1.2-.2 1.2c-.2 0-.3-.1-.4-.1zm4.4-1.8l-1.1 0l1.4-1.8l1.5 0l-1.8 1.8zm.7 3c0 0 0-.1 0-.2c0-.6-.3-1.3-1.3-1.3c-1 0-1.6.8-1.8 1.5c0 0 3.1 0 3.1 0zm-3.3.9c0 .1 0 .2 0 .2c0 1 .7 1.6 1.5 1.6c.9 0 1.4-.5 1.7-1c0 0 .9.6.9.6c-.5.7-1.4 1.4-2.6 1.4c-1.4 0-2.6-.9-2.6-2.7c0-2.1 1.6-3.5 3.2-3.5c1.5 0 2.4 1 2.4 2.4c0 .4-.1.8-.2 1c0 0-4.3 0-4.3 0zm6 .6c0 .7.5 1.2 1.3 1.2c.6 0 .9-.4.9-.8c0-.2-.2-.5-.6-.6c0 0-.8-.4-.8-.4c-.7-.3-1-.8-1-1.5c0-1 .8-1.9 2.1-1.9c1.5 0 2 1.1 2 1.7c0 0-1 .3-1 .3c0-.5-.3-1-1.1-1c-.6 0-.9.3-.9.7c0 .4.1.6.4.7c0 0 .8.4.8.4c.8.3 1.2.9 1.2 1.6c0 .7-.6 1.8-2.1 1.8c-1.6 0-2.2-1.2-2.2-2c0 0 1-.2 1-.2zm8.9-1.5c0 0 0-.1 0-.2c0-.6-.3-1.3-1.3-1.3c-.9 0-1.6.8-1.8 1.5c0 0 3.1 0 3.1 0zm-3.2.9c0 .1 0 .2 0 .2c0 1 .6 1.6 1.4 1.6c.9 0 1.5-.5 1.7-1c0 0 .9.6.9.6c-.4.7-1.4 1.4-2.6 1.4c-1.4 0-2.6-.9-2.6-2.7c0-2.1 1.6-3.5 3.2-3.5c1.6 0 2.4 1 2.4 2.4c0 .4-.1.8-.2 1c0 0-4.2 0-4.2 0zm8.8 2.6c0 0 .77-3.5.8-3.5c0-.1 0-.3 0-.4c0-.7-.3-1.1-1-1.1c-.9 0-1.5.9-1.6 1.6c-.04.03-.8 3.4-.8 3.4l-1.1 0c0 0 1.02-4.76 1-4.8c.1-.5.2-1 .2-1c0 0 1.1 0 1.1 0c0 .1-.1.4-.1.7c.4-.6 1.1-.8 1.8-.8c1 0 1.7.6 1.7 1.7c0 .1 0 .3-.1.5c.03.03-.7 3.7-.7 3.7l-1.2 0zm3.4-1.7c-.04.04.6-3.1.6-3.1l-1 0l.2-1c0 0 .15.02.2 0c.6 0 1-.3 1.1-.9c.04-.01.2-.9.2-.9l1.1 0l-.4 1.8l1.1 0l-.2 1l-1.1 0c0 0-.69 3.08-.7 3.1c0 .1 0 .2 0 .3c0 .3.2.5.6.5c.2 0 .3 0 .4-.1c0 0-.2 1-.2 1c0 0-.2.1-.6.1c-.8 0-1.4-.5-1.4-1.3c0-.2 0-.3.1-.5zm4.5-.7c0 .9.5 1.5 1.4 1.5c1.1 0 1.9-1.1 1.9-2.6c0-.8-.4-1.5-1.4-1.5c-1.2 0-1.9 1.4-1.9 2.6zm5-3.4c0 0-.95 4.29-.9 4.3c-.2.6-.2 1.1-.2 1.3c0 0 0 .1 0 .2c0 0-1 0-1 0c0-.1-.1-.2-.1-.3c0-.1 0-.3.1-.4c-.4.4-1 .8-1.7.8c-1.5 0-2.3-1.1-2.3-2.5c0-1.9 1.2-3.5 3-3.5c1 0 1.5.4 1.8.9c-.02-.04.1-.8.1-.8l1.2 0zm4.3 5.8c0 0 .78-3.5.8-3.5c0-.1 0-.3 0-.4c0-.7-.3-1.1-1-1.1c-.9 0-1.5.9-1.6 1.6c-.04.03-.8 3.4-.8 3.4l-1.1 0c0 0 1.02-4.76 1-4.8c.1-.5.2-1 .2-1c0 0 1.1 0 1.1 0c0 .1-.1.4-.1.7c.4-.6 1.1-.8 1.8-.8c1 0 1.7.6 1.7 1.7c0 .1 0 .3-.1.5c.04.03-.7 3.7-.7 3.7l-1.2 0zm3.4-1.7c-.03.04.6-3.1.6-3.1l-1 0l.2-1c0 0 .16.02.2 0c.6 0 1-.3 1.1-.9c.05-.01.2-.9.2-.9l1.1 0l-.4 1.8l1.1 0l-.2 1l-1.1 0c0 0-.68 3.08-.7 3.1c0 .1 0 .2 0 .3c0 .3.2.5.6.5c.2 0 .3 0 .4-.1c0 0-.2 1-.2 1c0 0-.2.1-.6.1c-.8 0-1.4-.5-1.4-1.3c0-.2 0-.3.1-.5z" stroke="none" fill="#144542"/></g><g id="Polygon184457"><path d="m3.9 52.7c1.6 0 2.5 1 2.5 2.3c0 .9-.5 1.6-1.3 1.8c1 .3 1.6 1.1 1.6 2.1c0 1.3-1.1 2.3-2.6 2.3c-.04.01-3 0-3 0l0-8.5c0 0 2.75 0 2.8 0zm-.2 3.7c1 0 1.5-.5 1.5-1.3c0-.8-.6-1.4-1.5-1.4c-.03.03-1.4 0-1.4 0l0 2.7c0 0 1.42.02 1.4 0zm.2 3.8c.9 0 1.6-.6 1.6-1.4c0-.8-.5-1.4-1.6-1.4c.04.03-1.6 0-1.6 0l0 2.8c0 0 1.59-.02 1.6 0zm10.2 1l-4.6-6.9l0 6.9l-1.2 0l0-8.5l1.6 0l4.2 6.5l0-6.5l1.2 0l0 8.5l-1.2 0zm6.2-4.5c1.1 0 1.7-.6 1.7-1.5c0-.9-.6-1.4-1.7-1.4c.04-.04-1.7 0-1.7 0l0 2.9c0 0 1.74-.03 1.7 0zm-1.7 1l0 3.5l-1.1 0l0-8.5c0 0 3.06 0 3.1 0c1.5 0 2.6 1.1 2.6 2.5c0 1.5-1.1 2.5-2.6 2.5c-.04.03-2 0-2 0zm11.9-1c1 0 1.6-.6 1.6-1.5c0-.9-.6-1.4-1.6-1.4c0-.04-1.7 0-1.7 0l0 2.9c0 0 1.7-.03 1.7 0zm-1.7 1l0 3.5l-1.2 0l0-8.5c0 0 3.12 0 3.1 0c1.6 0 2.6 1.1 2.6 2.5c0 1.5-1 2.5-2.6 2.5c.02.03-1.9 0-1.9 0zm5.1 2c0-1.1.8-1.6 1.8-1.8c0 0 1.6-.2 1.6-.2c.3-.1.4-.2.4-.5c0-.5-.4-1-1.2-1c-.8 0-1.3.5-1.4 1.2c0 0-1-.3-1-.3c.1-1.1 1.1-1.8 2.3-1.8c1.8 0 2.4.9 2.4 2.1c0 0 0 2.9 0 2.9c0 .5.1.8.1.9c0 0-1.1 0-1.1 0c0-.1-.1-.3-.1-.8c-.2.4-.8 1-1.8 1c-1.2 0-2-.8-2-1.7c0 0 0 0 0 0zm3.8-1c0 .04 0-.2 0-.2c0 0-1.76.24-1.8.2c-.4.1-.8.4-.8.9c0 .4.4.8.9.8c1 0 1.7-.4 1.7-1.7zm6.1-2.1c-.2 0-.3-.1-.5-.1c-1 0-1.6.5-1.6 1.8c.01.02 0 2.9 0 2.9l-1.1 0l0-5.8l1.1 0c0 0-.01 1.04 0 1c.4-.8 1.1-1.1 1.7-1.1c.2 0 .3.1.4.1c0 0 0 1.2 0 1.2zm1.2 4.6l0-5.8l1.1 0l0 5.8l-1.1 0zm.5-8.8c.5 0 .9.4.9.9c0 .4-.4.8-.9.8c-.4 0-.8-.4-.8-.8c0-.5.4-.9.8-.9zm2.5 8.8l0-8.7l1.1 0c0 0 .04 3.75 0 3.8c.3-.6 1-1 1.9-1c1.8 0 2.7 1.3 2.7 3c0 1.7-1 3.1-2.7 3.1c-.8 0-1.5-.4-1.9-1c.04-.03 0 .8 0 .8l-1.1 0zm2.8-4.9c-1 0-1.7.7-1.7 2c0 1.2.7 2.1 1.7 2.1c1.1 0 1.7-.9 1.7-2.1c0-1.3-.6-2-1.7-2zm4 3.4c0-1.1.7-1.6 1.7-1.8c0 0 1.6-.2 1.6-.2c.3-.1.4-.2.4-.5c0-.5-.3-1-1.2-1c-.8 0-1.2.5-1.3 1.2c0 0-1.1-.3-1.1-.3c.1-1.1 1.1-1.8 2.4-1.8c1.7 0 2.4.9 2.4 2.1c0 0 0 2.9 0 2.9c0 .5 0 .8 0 .9c0 0-1.1 0-1.1 0c0-.1 0-.3 0-.8c-.3.4-.9 1-1.9 1c-1.2 0-1.9-.8-1.9-1.7c0 0 0 0 0 0zm3.7-1c.04.04 0-.2 0-.2c0 0-1.73.24-1.7.2c-.5.1-.9.4-.9.9c0 .4.4.8 1 .8c.9 0 1.6-.4 1.6-1.7zm3.4.6c.1.6.5 1.1 1.3 1.1c.7 0 1-.3 1-.7c0-.4-.2-.7-.7-.8c0 0-1-.2-1-.2c-.9-.2-1.4-.8-1.4-1.6c0-1 .9-1.8 2-1.8c1.6 0 2.1 1 2.2 1.5c0 0-1 .4-1 .4c0-.3-.3-1-1.2-1c-.6 0-1 .4-1 .8c0 .3.3.6.7.7c0 0 .9.2.9.2c1.1.2 1.6.8 1.6 1.7c0 .8-.6 1.8-2.1 1.8c-1.6 0-2.2-1-2.3-1.7c0 0 1-.4 1-.4z" stroke="none" fill="#144542"/></g><g id="Polygon184456"><path d="m1.1 46.8l0-8.5l1.2 0l0 8.5l-1.2 0zm3.2 0l0-5.8l1.1 0c0 0 0 .8 0 .8c.4-.6 1.1-.9 1.8-.9c.7 0 1.4.3 1.7 1.1c.4-.9 1.2-1.1 1.9-1.1c1 0 2 .7 2 2.2c0-.04 0 3.7 0 3.7l-1.1 0c0 0-.01-3.62 0-3.6c0-.8-.4-1.3-1.2-1.3c-.8 0-1.4.6-1.4 1.4c.03.02 0 3.5 0 3.5l-1.1 0c0 0 0-3.62 0-3.6c0-.8-.4-1.3-1.2-1.3c-.8 0-1.4.6-1.4 1.4c.04.03 0 3.5 0 3.5l-1.1 0zm10.3 2.3l0-8.1l1.1 0c0 0 0 .94 0 .9c.3-.5 1-1 1.9-1c1.8 0 2.7 1.3 2.7 3c0 1.7-1 3.1-2.7 3.1c-.9 0-1.6-.5-1.9-1c.02.03 0 3.1 0 3.1l-1.1 0zm4.5-5.2c0-1.1-.6-2-1.7-2c-1 0-1.7.9-1.7 2c0 1.2.7 2.1 1.7 2.1c1.1 0 1.7-.9 1.7-2.1c0 0 0 0 0 0zm2.3 1.4c0-1.1.7-1.6 1.7-1.8c0 0 1.6-.2 1.6-.2c.3-.1.4-.2.4-.5c0-.5-.4-1-1.2-1c-.8 0-1.3.5-1.3 1.2c0 0-1.1-.3-1.1-.3c.1-1.1 1.1-1.8 2.3-1.8c1.8 0 2.4.9 2.4 2.1c0 0 0 2.9 0 2.9c0 .5.1.8.1.9c0 0-1.1 0-1.1 0c0-.1 0-.3 0-.8c-.3.4-.9 1-1.9 1c-1.2 0-1.9-.8-1.9-1.7c0 0 0 0 0 0zm3.7-1c.02.04 0-.2 0-.2c0 0-1.75.24-1.7.2c-.5.1-.9.4-.9.9c0 .4.4.8.9.8c1 0 1.7-.4 1.7-1.7zm3.6-.4c0 1.3.8 2 1.7 2c1.1 0 1.5-.7 1.6-1.1c0 0 1 .4 1 .4c-.2.8-1.1 1.8-2.6 1.8c-1.6 0-2.9-1.3-2.9-3.1c0-1.8 1.3-3 2.9-3c1.6 0 2.3.9 2.6 1.8c0 0-1 .4-1 .4c-.2-.5-.6-1.2-1.6-1.2c-.9 0-1.7.7-1.7 2zm7.2-2.9l1.2 0l0 1.1l-1.2 0c0 0-.03 2.96 0 3c0 .5.2.7.8.7c.1 0 .3 0 .4 0c0 0 0 1 0 1c-.1 0-.4.1-.8.1c-.9 0-1.6-.6-1.6-1.7c.04.02 0-3.1 0-3.1l-1.1 0l0-1.1c0 0 .35.04.3 0c.7 0 .9-.3.9-.9c.04.05 0-.9 0-.9l1.1 0l0 1.8zm5.8 5.8l0-8.5l1.2 0l0 8.5l-1.2 0zm4.4 0l-1.1 0l0-5.8l1.1 0c0 0-.02.86 0 .9c.4-.8 1.1-1 1.8-1c1.3 0 2 1 2 2.2c.02.05 0 3.7 0 3.7l-1.1 0c0 0-.01-3.46 0-3.5c0-.8-.3-1.4-1.4-1.4c-.8 0-1.3.7-1.3 1.6c0-.03 0 3.3 0 3.3zm8.3 0l-1.2 0l-2.3-5.8l1.3 0l1.6 4.5l1.7-4.5l1.2 0l-2.3 5.8zm7.1-3.5c-.1-.8-.6-1.4-1.6-1.4c-1 0-1.6.7-1.6 1.4c0 0 3.2 0 3.2 0zm1.1 1.9c-.3 1-1.3 1.8-2.6 1.8c-1.5 0-2.9-1.1-2.9-3.1c0-1.8 1.3-3 2.8-3c1.7 0 2.7 1.2 2.7 3c0 .1 0 .3 0 .3c0 0-4.3 0-4.3 0c0 1.1.7 1.8 1.7 1.8c.9 0 1.4-.5 1.6-1.2c0 0 1 .4 1 .4zm1.9-.3c.1.6.6 1.1 1.4 1.1c.6 0 1-.3 1-.7c0-.4-.3-.7-.8-.8c0 0-1-.2-1-.2c-.9-.2-1.4-.8-1.4-1.6c0-1 .9-1.8 2.1-1.8c1.5 0 2 1 2.2 1.5c0 0-1 .4-1 .4c-.1-.3-.3-1-1.2-1c-.6 0-1 .4-1 .8c0 .3.2.6.7.7c0 0 .9.2.9.2c1 .2 1.6.8 1.6 1.7c0 .8-.7 1.8-2.1 1.8c-1.6 0-2.3-1-2.4-1.7c0 0 1-.4 1-.4zm6.5-3.9l1.3 0l0 1.1l-1.3 0c0 0 0 2.96 0 3c0 .5.2.7.8.7c.2 0 .4 0 .5 0c0 0 0 1 0 1c-.1 0-.4.1-.8.1c-1 0-1.6-.6-1.6-1.7c-.02.02 0-3.1 0-3.1l-1.1 0l0-1.1c0 0 .28.04.3 0c.6 0 .9-.3.9-.9c-.03.05 0-.9 0-.9l1 0l0 1.8zm2.8 5.8l0-5.8l1.1 0l0 5.8l-1.1 0zm.5-8.8c.5 0 .8.4.8.9c0 .4-.3.8-.8.8c-.4 0-.8-.4-.8-.8c0-.5.4-.9.8-.9zm3.6 8.8l-1.1 0l0-5.8l1.1 0c0 0-.01.86 0 .9c.4-.8 1.1-1 1.8-1c1.3 0 2 1 2 2.2c.03.05 0 3.7 0 3.7l-1.1 0c0 0 0-3.46 0-3.5c0-.8-.3-1.4-1.3-1.4c-.9 0-1.4.7-1.4 1.6c.01-.03 0 3.3 0 3.3zm6.3.1c.1.8.7 1.4 1.6 1.4c1.2 0 1.7-.6 1.7-1.9c0 0 0-.8 0-.8c-.2.5-.9.9-1.7.9c-1.6 0-2.7-1.1-2.7-2.8c0-1.5 1.1-2.8 2.7-2.8c.9 0 1.5.4 1.8.9c-.05.04 0-.8 0-.8l1.1 0c0 0-.03 5.38 0 5.4c0 1.4-.8 2.9-2.9 2.9c-1.5 0-2.5-.9-2.7-2.2c0 0 1.1-.2 1.1-.2zm3.4-3.2c0-1.1-.7-1.8-1.7-1.8c-1 0-1.6.7-1.6 1.8c0 1.2.6 1.9 1.6 1.9c1 0 1.7-.7 1.7-1.9zm3.6 1.5c.5 0 1 .4 1 1.2c0 1.6-1 2.2-1.8 2.3c0 0 0-.6 0-.6c.6-.1 1-.7 1-1.3c0 0-.1.1-.2.1c-.5 0-.9-.3-.9-.9c0-.4.4-.8.9-.8z" stroke="none" fill="#144542"/></g><g id="Polygon184455"><path d="m.9 29.5l0-1l11.4 0l0 1l-11.4 0zm18.3-.6l-1.3 0l0 3.5l-1.2 0l0-8.5c0 0 3.22 0 3.2 0c1.6 0 2.6 1.1 2.6 2.5c0 1.3-.8 2.2-2 2.4c-.04.04 2 3.6 2 3.6l-1.4 0l-1.9-3.5zm.5-1c1 0 1.6-.6 1.6-1.5c0-.9-.6-1.4-1.6-1.4c0-.04-1.8 0-1.8 0l0 2.9c0 0 1.8-.03 1.8 0zm8 1c-.1-.8-.6-1.4-1.6-1.4c-1 0-1.5.7-1.6 1.4c0 0 3.2 0 3.2 0zm1.1 1.9c-.3 1-1.2 1.8-2.6 1.8c-1.5 0-2.9-1.1-2.9-3.1c0-1.8 1.3-3 2.8-3c1.8 0 2.7 1.2 2.7 3c0 .1 0 .3 0 .3c0 0-4.3 0-4.3 0c0 1.1.7 1.8 1.7 1.8c1 0 1.4-.5 1.6-1.2c0 0 1 .4 1 .4zm2-.3c0 .6.5 1.1 1.3 1.1c.6 0 1-.3 1-.7c0-.4-.3-.7-.7-.8c0 0-1-.2-1-.2c-.9-.2-1.5-.8-1.5-1.6c0-1 1-1.8 2.1-1.8c1.6 0 2.1 1 2.2 1.5c0 0-1 .4-1 .4c-.1-.3-.3-1-1.2-1c-.6 0-1 .4-1 .8c0 .3.2.6.7.7c0 0 .9.2.9.2c1.1.2 1.6.8 1.6 1.7c0 .8-.7 1.8-2.1 1.8c-1.6 0-2.3-1-2.4-1.7c0 0 1.1-.4 1.1-.4zm4.9 4.2l0-8.1l1.1 0c0 0 0 .94 0 .9c.3-.5 1-1 1.9-1c1.8 0 2.7 1.3 2.7 3c0 1.7-1 3.1-2.7 3.1c-.9 0-1.6-.5-1.9-1c.03.03 0 3.1 0 3.1l-1.1 0zm4.5-5.2c0-1.1-.6-2-1.7-2c-1 0-1.7.9-1.7 2c0 1.2.7 2.1 1.7 2.1c1.1 0 1.7-.9 1.7-2.1c0 0 0 0 0 0zm6.9 0c0-1.3-.8-2-1.8-2c-1 0-1.8.7-1.8 2c0 1.4.8 2.1 1.8 2.1c1 0 1.8-.7 1.8-2.1zm1.2 0c0 1.8-1.3 3.1-3 3.1c-1.7 0-3-1.3-3-3.1c0-1.7 1.3-3 3-3c1.7 0 3 1.3 3 3zm2.5 2.9l-1.1 0l0-5.8l1.1 0c0 0-.01.86 0 .9c.4-.8 1.1-1 1.8-1c1.4 0 2 1 2 2.2c.03.05 0 3.7 0 3.7l-1.1 0c0 0 .01-3.46 0-3.5c0-.8-.3-1.4-1.3-1.4c-.9 0-1.4.7-1.4 1.6c.02-.03 0 3.3 0 3.3zm6.1-1.9c.1.6.5 1.1 1.4 1.1c.6 0 .9-.3.9-.7c0-.4-.2-.7-.7-.8c0 0-1-.2-1-.2c-.9-.2-1.4-.8-1.4-1.6c0-1 .9-1.8 2-1.8c1.6 0 2.1 1 2.2 1.5c0 0-1 .4-1 .4c0-.3-.3-1-1.2-1c-.5 0-.9.4-.9.8c0 .3.2.6.6.7c0 0 1 .2 1 .2c1 .2 1.6.8 1.6 1.7c0 .8-.7 1.8-2.2 1.8c-1.5 0-2.2-1-2.3-1.7c0 0 1-.4 1-.4zm4.5.4c0-1.1.7-1.6 1.7-1.8c0 0 1.6-.2 1.6-.2c.3-.1.4-.2.4-.5c0-.5-.3-1-1.2-1c-.8 0-1.2.5-1.3 1.2c0 0-1.1-.3-1.1-.3c.1-1.1 1.1-1.8 2.4-1.8c1.7 0 2.4.9 2.4 2.1c0 0 0 2.9 0 2.9c0 .5 0 .8 0 .9c0 0-1.1 0-1.1 0c0-.1 0-.3 0-.8c-.3.4-.9 1-1.9 1c-1.2 0-1.9-.8-1.9-1.7c0 0 0 0 0 0zm3.7-1c.04.04 0-.2 0-.2c0 0-1.73.24-1.7.2c-.5.1-.9.4-.9.9c0 .4.4.8 1 .8c.9 0 1.6-.4 1.6-1.7zm2.9 2.5l0-8.7l1.1 0c0 0 .03 3.75 0 3.8c.3-.6 1-1 1.9-1c1.8 0 2.7 1.3 2.7 3c0 1.7-1 3.1-2.7 3.1c-.8 0-1.5-.4-1.9-1c.03-.03 0 .8 0 .8l-1.1 0zm2.8-4.9c-1 0-1.7.7-1.7 2c0 1.2.7 2.1 1.7 2.1c1.1 0 1.7-.9 1.7-2.1c0-1.3-.6-2-1.7-2zm4.3 4.9l0-8.7l1.2 0l0 8.7l-1.2 0zm7-3.5c-.1-.8-.6-1.4-1.6-1.4c-1 0-1.5.7-1.6 1.4c0 0 3.2 0 3.2 0zm1.1 1.9c-.3 1-1.2 1.8-2.6 1.8c-1.5 0-2.9-1.1-2.9-3.1c0-1.8 1.3-3 2.8-3c1.7 0 2.7 1.2 2.7 3c0 .1 0 .3 0 .3c0 0-4.3 0-4.3 0c0 1.1.7 1.8 1.7 1.8c1 0 1.4-.5 1.6-1.2c0 0 1 .4 1 .4z" stroke="none" fill="#144542"/></g><g id="Polygon184454"><path d="m6.1 3.9c-.1-.6-.7-1.6-2-1.6c-1.1 0-1.8.7-1.8 1.6c0 .7.4 1.2 1.2 1.4c0 0 1.4.3 1.4.3c1.6.4 2.5 1.4 2.5 2.7c0 1.5-1.3 2.8-3.3 2.8c-2.3 0-3.4-1.5-3.6-2.8c0 0 1.3-.4 1.3-.4c.1 1 .8 2 2.3 2c1.3 0 1.9-.7 1.9-1.5c0-.7-.4-1.3-1.4-1.5c0 0-1.3-.3-1.3-.3c-1.4-.3-2.4-1.2-2.4-2.6c0-1.5 1.4-2.9 3.2-2.9c2.1 0 3 1.4 3.2 2.4c0 0-1.2.4-1.2.4zm2.9 9.7l1.6-3.4l-2.8-5.8l1.5 0l2 4.5l1.9-4.5l1.4 0l-4.2 9.2l-1.4 0zm6.8-2.7l0-9.8l1.3 0l0 9.8l-1.3 0zm6.4 0l-1.3 0l-2.6-6.5l1.4 0l1.9 5l1.8-5l1.4 0l-2.6 6.5zm3.3-1.7c0-1.2.9-1.8 2-2c0 0 1.8-.2 1.8-.2c.4-.1.5-.3.5-.5c0-.7-.5-1.2-1.4-1.2c-.9 0-1.4.6-1.5 1.3c0 0-1.2-.3-1.2-.3c.1-1.2 1.2-2.1 2.6-2.1c2 0 2.7 1.1 2.7 2.4c0 0 0 3.3 0 3.3c0 .5.1.9.1 1c0 0-1.2 0-1.2 0c-.1-.1-.1-.4-.1-.9c-.3.5-.9 1.1-2.1 1.1c-1.3 0-2.2-.9-2.2-1.9c0 0 0 0 0 0zm4.3-1.1c-.03.04 0-.3 0-.3c0 0-2.02.34-2 .3c-.6.1-1 .4-1 1c0 .5.4 1 1.1 1c1 0 1.9-.5 1.9-2zm3.2 2.8l0-6.5l1.3 0l0 6.5l-1.3 0zm.6-9.8c.5 0 .9.4.9.9c0 .5-.4.9-.9.9c-.5 0-.9-.4-.9-.9c0-.5.4-.9.9-.9zm4.1 9.8l-1.3 0l0-6.5l1.3 0c0 0-.04.96 0 1c.4-.9 1.2-1.2 2-1.2c1.5 0 2.3 1.2 2.3 2.6c-.02 0 0 4.1 0 4.1l-1.3 0c0 0 .02-3.88 0-3.9c0-.9-.4-1.6-1.5-1.6c-1 0-1.5.8-1.5 1.8c-.01-.03 0 3.7 0 3.7zm13.3-8.3l0 8.3l-1.4 0l0-8.3l-3.2 0l0-1.2l7.8 0l0 1.2l-3.2 0zm2.8 6.6c0-1.2.9-1.8 2-2c0 0 1.8-.2 1.8-.2c.3-.1.5-.3.5-.5c0-.7-.5-1.2-1.5-1.2c-.8 0-1.3.6-1.4 1.3c0 0-1.2-.3-1.2-.3c.1-1.2 1.2-2.1 2.6-2.1c2 0 2.7 1.1 2.7 2.4c0 0 0 3.3 0 3.3c0 .5.1.9.1 1c0 0-1.2 0-1.2 0c-.1-.1-.1-.4-.1-.9c-.3.5-.9 1.1-2.1 1.1c-1.3 0-2.2-.9-2.2-1.9c0 0 0 0 0 0zm4.3-1.1c-.05.04 0-.3 0-.3c0 0-2.04.34-2 .3c-.6.1-1 .4-1 1c0 .5.4 1 1.1 1c1 0 1.9-.5 1.9-2zm3.2 2.8l0-9.8l1.2 0c0 0 .04 4.25 0 4.2c.4-.5 1.1-1.1 2.2-1.1c2 0 3 1.6 3 3.4c0 2-1.1 3.5-3 3.5c-1 0-1.8-.4-2.2-1.1c.04-.02 0 .9 0 .9l-1.2 0zm3.2-5.5c-1.2 0-2 .8-2 2.2c0 1.4.8 2.4 2 2.4c1.1 0 1.9-1 1.9-2.4c0-1.4-.8-2.2-1.9-2.2zm9.6 2.3c0-1.5-.9-2.3-2-2.3c-1.1 0-2 .8-2 2.3c0 1.5.9 2.3 2 2.3c1.1 0 2-.8 2-2.3zm1.3 0c0 2-1.4 3.4-3.3 3.4c-2 0-3.3-1.4-3.3-3.4c0-2 1.3-3.5 3.3-3.5c1.9 0 3.3 1.5 3.3 3.5zm2.9 3.2l-1.3 0l0-6.5l1.3 0c0 0-.04.96 0 1c.4-.9 1.2-1.2 2-1.2c1.5 0 2.3 1.2 2.3 2.6c-.02 0 0 4.1 0 4.1l-1.3 0c0 0 .01-3.88 0-3.9c0-.9-.4-1.6-1.5-1.6c-1 0-1.5.8-1.5 1.8c-.01-.03 0 3.7 0 3.7zm6.3 0l0-6.5l1.3 0l0 6.5l-1.3 0zm.6-9.8c.5 0 .9.4.9.9c0 .5-.4.9-.9.9c-.5 0-.9-.4-.9-.9c0-.5.4-.9.9-.9z" stroke="none" fill="#144542"/></g></svg>