<?xml version="1.0" standalone="no"?><!DOCTYPE svg PUBLIC "-//W3C//DTD SVG 1.1//EN" "http://www.w3.org/Graphics/SVG/1.1/DTD/svg11.dtd"><svg xmlns="http://www.w3.org/2000/svg" version="1.1" width="100px" height="181.6px" viewBox="0 -3 100 181.6" style="top:-3px"><desc>Duo for a Job 1 relation mentorale termin e avant la fin car l’apprenant a trouv un emploi 2 mentorats en cours au 3...</desc><defs/><g id="Polygon182179"><path d="m1.8 168.5c0 1.4 1 2.2 2 2.2c1.2 0 1.7-.8 1.8-1.3c0 0 1.1.5 1.1.5c-.3.9-1.2 2-2.9 2c-1.9 0-3.3-1.5-3.3-3.4c0-2.1 1.5-3.5 3.3-3.5c1.7 0 2.6 1.1 2.9 2.1c0 0-1.2.5-1.2.5c-.1-.7-.6-1.4-1.7-1.4c-1 0-2 .7-2 2.3zm11.2 0c0-1.5-1-2.4-2.1-2.4c-1 0-2 .9-2 2.4c0 1.5 1 2.3 2 2.3c1.1 0 2.1-.8 2.1-2.3zm1.3 0c0 1.9-1.4 3.4-3.4 3.4c-1.9 0-3.3-1.5-3.3-3.4c0-2 1.4-3.5 3.3-3.5c2 0 3.4 1.5 3.4 3.5zm5.8 2.4c-.3.7-1.2 1-1.9 1c-1.5 0-2.4-1.1-2.4-2.6c-.04 0 0-4.1 0-4.1l1.2 0c0 0 .02 3.91 0 3.9c0 .9.4 1.7 1.5 1.7c1 0 1.5-.7 1.5-1.7c.03.03 0-3.9 0-3.9l1.3 0c0 0 0 5.3 0 5.3c0 .5 0 1 .1 1.2c0 0-1.2 0-1.2 0c-.1-.1-.1-.5-.1-.8c0 0 0 0 0 0zm7-4.4c-.2 0-.4 0-.6 0c-1.1 0-1.8.5-1.8 2c.03-.05 0 3.2 0 3.2l-1.2 0l0-6.5l1.2 0c0 0 0 1.14 0 1.1c.5-1 1.3-1.2 1.9-1.2c.2 0 .4 0 .5 0c0 0 0 1.4 0 1.4zm1.9 3.1c0 .7.6 1.2 1.5 1.2c.7 0 1.1-.4 1.1-.8c0-.4-.3-.8-.9-.9c0 0-1.1-.2-1.1-.2c-1-.2-1.6-.9-1.6-1.8c0-1.1 1.1-2.1 2.3-2.1c1.8 0 2.4 1.2 2.5 1.7c0 0-1.1.5-1.1.5c-.1-.4-.4-1.1-1.4-1.1c-.6 0-1.1.4-1.1.9c0 .3.3.6.8.7c0 0 1 .3 1 .3c1.2.2 1.8.9 1.8 1.9c0 .9-.7 2-2.3 2c-1.8 0-2.6-1.1-2.7-1.9c0 0 1.2-.4 1.2-.4zm8.5.4c0-1.2.8-1.8 2-2c0 0 1.7-.3 1.7-.3c.4 0 .5-.2.5-.4c0-.7-.4-1.2-1.4-1.2c-.9 0-1.4.5-1.5 1.3c0 0-1.2-.3-1.2-.3c.2-1.2 1.3-2.1 2.7-2.1c1.9 0 2.7 1.1 2.7 2.4c0 0 0 3.2 0 3.2c0 .6 0 1 .1 1.1c0 0-1.3 0-1.3 0c0-.1 0-.4 0-.9c-.3.5-1 1.1-2.1 1.1c-1.4 0-2.2-.9-2.2-1.9c0 0 0 0 0 0zm4.2-1.1c.02.02 0-.3 0-.3c0 0-1.97.32-2 .3c-.5.1-.9.4-.9 1c0 .5.4.9 1 .9c1.1 0 1.9-.5 1.9-1.9zm7.4 2c-.4.7-1.2 1-1.9 1c-1.5 0-2.4-1.1-2.4-2.6c-.05 0 0-4.1 0-4.1l1.2 0c0 0 .02 3.91 0 3.9c0 .9.4 1.7 1.5 1.7c1 0 1.5-.7 1.5-1.7c.03.03 0-3.9 0-3.9l1.3 0c0 0 0 5.3 0 5.3c0 .5 0 1 .1 1.2c0 0-1.2 0-1.2 0c-.1-.1-.1-.5-.1-.8c0 0 0 0 0 0zm8-4.4l2.6-2.3l-4.2 0l0-1.2l6 0l0 1.1c0 0-2.52 2.35-2.5 2.4c1.3 0 2.7.8 2.7 2.6c0 1.5-1.2 2.8-3.2 2.8c-2 0-3.2-1.3-3.2-2.7c0 0 1.3-.3 1.3-.3c0 1.1.8 1.9 1.9 1.9c1.2 0 1.8-.8 1.8-1.7c0-1.1-.9-1.6-1.7-1.6c-.3 0-.6.1-.8.1c-.01.04-.7-1.1-.7-1.1zm7.5 5.2l0-6.2l-2.1 0c0 0-.01-.9 0-.9c1.2 0 2-.7 2.2-1.6c.05-.04 1.2 0 1.2 0l0 8.7l-1.3 0zm4.1-1.8c.5 0 .9.4.9.9c0 .6-.4 1-.9 1c-.6 0-1-.4-1-1c0-.5.4-.9 1-.9zm3.4 1.8l0-6.2l-2.2 0c0 0 .04-.9 0-.9c1.3 0 2.1-.7 2.3-1.6c0-.04 1.2 0 1.2 0l0 8.7l-1.3 0zm2.9-5.8c0-.1 0-.2 0-.3c0-1.5 1.1-2.8 3-2.8c1.9 0 3 1.2 3 2.6c0 1.2-.7 2.1-1.7 2.7c0 0-1.7 1.1-1.7 1.1c-.5.4-.9.7-1.1 1.3c.04-.02 4.5 0 4.5 0l0 1.2c0 0-6.09 0-6.1 0c0-1.4.6-2.5 2.1-3.5c0 0 1.4-.9 1.4-.9c.9-.6 1.3-1.2 1.3-1.8c0-.8-.6-1.6-1.7-1.6c-1.1 0-1.7.8-1.7 1.8c0 .1 0 .3 0 .4c0 0-1.3-.2-1.3-.2z" stroke="none" fill="#144542"/></g><g id="Polygon182178"><path d="m.6 149.7c0-.1 0-.2 0-.3c0-1.5 1.1-2.8 3-2.8c1.9 0 2.9 1.2 2.9 2.6c0 1.2-.6 2.1-1.6 2.7c0 0-1.7 1.1-1.7 1.1c-.5.4-1 .7-1.1 1.3c.01-.02 4.5 0 4.5 0l0 1.2c0 0-6.13 0-6.1 0c0-1.4.6-2.5 2.1-3.5c0 0 1.4-.9 1.4-.9c.8-.6 1.2-1.2 1.2-1.8c0-.8-.5-1.6-1.6-1.6c-1.2 0-1.7.8-1.7 1.8c0 .1 0 .3 0 .4c0 0-1.3-.2-1.3-.2zm11 5.8l0-6.5l1.2 0c0 0 .01.87 0 .9c.4-.7 1.2-1.1 2-1.1c.8 0 1.6.4 1.9 1.2c.5-.9 1.4-1.2 2.2-1.2c1.1 0 2.2.8 2.2 2.5c.04-.01 0 4.2 0 4.2l-1.2 0c0 0-.01-4.07 0-4.1c0-.8-.4-1.5-1.4-1.5c-.9 0-1.5.7-1.5 1.7c.01-.03 0 3.9 0 3.9l-1.3 0c0 0 .04-4.07 0-4.1c0-.8-.4-1.5-1.3-1.5c-.9 0-1.5.7-1.5 1.7c-.05-.01 0 3.9 0 3.9l-1.3 0zm15.9-3.9c0-.9-.6-1.7-1.7-1.7c-1.1 0-1.8.9-1.8 1.7c0 0 3.5 0 3.5 0zm1.3 2.1c-.3 1.1-1.4 2-2.9 2c-1.7 0-3.3-1.3-3.3-3.5c0-2 1.5-3.4 3.1-3.4c2 0 3.2 1.4 3.2 3.4c0 .2-.1.3-.1.4c0 0-4.9 0-4.9 0c.1 1.2.9 2 2 2c1.1 0 1.6-.6 1.8-1.3c0 0 1.1.4 1.1.4zm3 1.8l-1.3 0l0-6.5l1.2 0c0 0 .02.94 0 .9c.5-.8 1.3-1.1 2-1.1c1.6 0 2.3 1.1 2.3 2.6c.04-.01 0 4.1 0 4.1l-1.2 0c0 0-.02-3.9 0-3.9c0-.9-.4-1.6-1.5-1.6c-1 0-1.5.8-1.5 1.7c-.05.05 0 3.8 0 3.8zm8-6.5l1.4 0l0 1.2l-1.4 0c0 0-.03 3.33 0 3.3c0 .6.2.9.9.9c.1 0 .4 0 .5 0c0 0 0 1 0 1c-.1.1-.5.2-.9.2c-1.1 0-1.8-.7-1.8-1.9c0 .02 0-3.5 0-3.5l-1.2 0l0-1.2c0 0 .31.01.3 0c.7 0 1-.4 1-1c.01.01 0-1 0-1l1.2 0l0 2zm7.8 3.3c0-1.5-.9-2.4-2-2.4c-1.1 0-2.1.9-2.1 2.4c0 1.5 1 2.3 2.1 2.3c1.1 0 2-.8 2-2.3zm1.3 0c0 1.9-1.4 3.4-3.3 3.4c-2 0-3.3-1.5-3.3-3.4c0-2 1.3-3.5 3.3-3.5c1.9 0 3.3 1.5 3.3 3.5zm5.2-2c-.2 0-.4 0-.5 0c-1.1 0-1.8.5-1.8 2c-.02-.05 0 3.2 0 3.2l-1.3 0l0-6.5l1.3 0c0 0-.04 1.14 0 1.1c.4-1 1.2-1.2 1.9-1.2c.2 0 .4 0 .4 0c0 0 0 1.4 0 1.4zm1 3.5c0-1.2.8-1.8 1.9-2c0 0 1.8-.3 1.8-.3c.4 0 .5-.2.5-.4c0-.7-.4-1.2-1.4-1.2c-.9 0-1.4.5-1.5 1.3c0 0-1.2-.3-1.2-.3c.1-1.2 1.3-2.1 2.7-2.1c1.9 0 2.7 1.1 2.7 2.4c0 0 0 3.2 0 3.2c0 .6 0 1 0 1.1c0 0-1.2 0-1.2 0c0-.1-.1-.4-.1-.9c-.3.5-.9 1.1-2.1 1.1c-1.3 0-2.1-.9-2.1-1.9c0 0 0 0 0 0zm4.2-1.1c-.01.02 0-.3 0-.3c0 0-1.99.32-2 .3c-.5.1-.9.4-.9 1c0 .5.4.9 1 .9c1.1 0 1.9-.5 1.9-1.9zm4.9-3.7l1.4 0l0 1.2l-1.4 0c0 0 .03 3.33 0 3.3c0 .6.3.9.9.9c.2 0 .4 0 .5 0c0 0 0 1 0 1c-.1.1-.4.2-.8.2c-1.1 0-1.8-.7-1.8-1.9c-.04.02 0-3.5 0-3.5l-1.3 0l0-1.2c0 0 .37.01.4 0c.7 0 1-.4 1-1c-.03.01 0-1 0-1l1.1 0l0 2zm3.7 4.4c.1.7.6 1.2 1.5 1.2c.8 0 1.2-.4 1.2-.8c0-.4-.3-.8-.9-.9c0 0-1.1-.2-1.1-.2c-1-.2-1.6-.9-1.6-1.8c0-1.1 1-2.1 2.3-2.1c1.8 0 2.3 1.2 2.5 1.7c0 0-1.2.5-1.2.5c0-.4-.3-1.1-1.3-1.1c-.7 0-1.1.4-1.1.9c0 .3.3.6.8.7c0 0 1 .3 1 .3c1.2.2 1.8.9 1.8 1.9c0 .9-.8 2-2.4 2c-1.8 0-2.5-1.1-2.6-1.9c0 0 1.1-.4 1.1-.4zm13.3-1.8c0-.9-.6-1.7-1.7-1.7c-1.1 0-1.8.9-1.8 1.7c0 0 3.5 0 3.5 0zm1.3 2.1c-.3 1.1-1.4 2-2.9 2c-1.7 0-3.3-1.3-3.3-3.5c0-2 1.5-3.4 3.1-3.4c2 0 3.2 1.4 3.2 3.4c0 .2 0 .3-.1.4c0 0-4.8 0-4.8 0c0 1.2.8 2 1.9 2c1.1 0 1.6-.6 1.8-1.3c0 0 1.1.4 1.1.4zm3 1.8l-1.3 0l0-6.5l1.2 0c0 0 .03.94 0 .9c.5-.8 1.3-1.1 2-1.1c1.6 0 2.3 1.1 2.3 2.6c.05-.01 0 4.1 0 4.1l-1.2 0c0 0-.02-3.9 0-3.9c0-.9-.4-1.6-1.5-1.6c-1 0-1.5.8-1.5 1.7c-.05.05 0 3.8 0 3.8z" stroke="none" fill="#144542"/></g><g id="Polygon182177"><path d="m5.5 128.3c-.1-.9-.7-1.7-1.8-1.7c-1.1 0-1.7.9-1.8 1.7c0 0 3.6 0 3.6 0zm1.2 2.1c-.3 1.1-1.4 2-2.9 2c-1.7 0-3.2-1.2-3.2-3.5c0-2 1.4-3.4 3.1-3.4c2 0 3.1 1.4 3.1 3.4c0 .2 0 .3-.1.4c0 0-4.8 0-4.8 0c0 1.2.8 2 1.9 2c1.1 0 1.6-.6 1.8-1.3c0 0 1.1.4 1.1.4zm1.7 1.8l0-6.5l1.2 0c0 0 .01.89 0 .9c.4-.7 1.2-1.1 2-1.1c.8 0 1.6.4 1.9 1.3c.5-1 1.4-1.3 2.2-1.3c1.1 0 2.2.8 2.2 2.5c.04 0 0 4.2 0 4.2l-1.2 0c0 0-.01-4.06 0-4.1c0-.8-.4-1.4-1.4-1.4c-.9 0-1.5.7-1.5 1.6c.01-.01 0 3.9 0 3.9l-1.3 0c0 0 .04-4.06 0-4.1c0-.8-.4-1.4-1.3-1.4c-.9 0-1.5.6-1.5 1.6c-.05 0 0 3.9 0 3.9l-1.3 0zm11.6 2.6l0-9.1l1.2 0c0 0-.01 1.04 0 1c.3-.6 1.1-1.1 2.2-1.1c1.9 0 3 1.5 3 3.4c0 1.9-1.2 3.4-3.1 3.4c-1 0-1.7-.5-2.1-1.1c.02.04 0 3.5 0 3.5l-1.2 0zm5.1-5.8c0-1.3-.8-2.3-2-2.3c-1.1 0-1.9 1-1.9 2.3c0 1.3.8 2.3 1.9 2.3c1.2 0 2-1 2-2.3c0 0 0 0 0 0zm2.9 3.2l0-9.8l1.2 0l0 9.8l-1.2 0zm8.2-3.2c0-1.5-.9-2.3-2-2.3c-1.1 0-2 .8-2 2.3c0 1.5.9 2.3 2 2.3c1.1 0 2-.8 2-2.3zm1.3 0c0 1.9-1.4 3.4-3.3 3.4c-2 0-3.3-1.5-3.3-3.4c0-2 1.3-3.5 3.3-3.5c1.9 0 3.3 1.5 3.3 3.5zm1.6 3.2l0-6.5l1.3 0l0 6.5l-1.3 0zm.6-9.9c.6 0 1 .5 1 1c0 .5-.4.9-1 .9c-.5 0-.9-.4-.9-.9c0-.5.4-1 .9-1z" stroke="none" fill="#144542"/></g><g id="Polygon182176"><path d="m.7 114.3c0-1.2.8-1.8 1.9-2c0 0 1.8-.2 1.8-.2c.4-.1.5-.3.5-.5c0-.7-.4-1.2-1.4-1.2c-.9 0-1.4.6-1.5 1.3c0 0-1.2-.3-1.2-.3c.1-1.2 1.3-2.1 2.7-2.1c1.9 0 2.7 1.1 2.7 2.4c0 0 0 3.3 0 3.3c0 .5 0 .9 0 1c0 0-1.2 0-1.2 0c0-.1-.1-.4-.1-.9c-.2.5-.9 1.1-2.1 1.1c-1.3 0-2.1-.9-2.1-1.9c0 0 0 0 0 0zm4.2-1.1c0 .04 0-.3 0-.3c0 0-1.98.34-2 .3c-.5.1-.9.4-.9 1c0 .5.4 1 1 1c1.1 0 1.9-.5 1.9-2zm8.3-3.7l1.4 0l0 1.2l-1.4 0c0 0 .02 3.35 0 3.3c0 .6.3.9.9.9c.2 0 .4 0 .5 0c0 0 0 1.1 0 1.1c-.1 0-.4.1-.8.1c-1.2 0-1.9-.7-1.9-1.9c.05.04 0-3.5 0-3.5l-1.2 0l0-1.2c0 0 .36.02.4 0c.7 0 1-.4 1-1c-.04.03 0-1 0-1l1.1 0l0 2zm6.6 1.3c-.2 0-.4 0-.6 0c-1 0-1.8.5-1.8 2c.04-.04 0 3.2 0 3.2l-1.2 0l0-6.5l1.2 0c0 0 .01 1.16 0 1.2c.5-1 1.3-1.3 2-1.3c.1 0 .3 0 .4.1c0 0 0 1.3 0 1.3zm6.1 2c0-1.5-1-2.3-2.1-2.3c-1 0-2 .8-2 2.3c0 1.5 1 2.3 2 2.3c1.1 0 2.1-.8 2.1-2.3zm1.3 0c0 1.9-1.4 3.4-3.4 3.4c-1.9 0-3.3-1.5-3.3-3.4c0-2 1.4-3.5 3.3-3.5c2 0 3.4 1.5 3.4 3.5zm5.8 2.4c-.4.7-1.2 1-1.9 1c-1.5 0-2.5-1.1-2.5-2.6c.05.01 0-4.1 0-4.1l1.3 0c0 0 .02 3.93 0 3.9c0 .9.4 1.7 1.5 1.7c1 0 1.5-.7 1.5-1.7c.03.04 0-3.9 0-3.9l1.3 0c0 0-.01 5.32 0 5.3c0 .5 0 1 .1 1.2c0 0-1.3 0-1.3 0c0-.1 0-.5 0-.8c0 0 0 0 0 0zm6.3.8l-1.3 0l-2.6-6.5l1.4 0l1.9 5l1.9-5l1.3 0l-2.6 6.5zm8-3.9c0-.9-.6-1.7-1.8-1.7c-1 0-1.7.9-1.7 1.7c0 0 3.5 0 3.5 0zm1.3 2.1c-.4 1.1-1.4 2-2.9 2c-1.8 0-3.3-1.2-3.3-3.5c0-2 1.5-3.4 3.1-3.4c2 0 3.1 1.4 3.1 3.4c0 .2 0 .3 0 .4c0 0-4.9 0-4.9 0c0 1.2.9 2 2 2c1 0 1.6-.6 1.8-1.3c0 0 1.1.4 1.1.4zm-2.6-5.5l-1 0l1.1-2l1.6 0l-1.7 2zm11.9 6.5c-.3.7-1.2 1-1.9 1c-1.5 0-2.4-1.1-2.4-2.6c-.04.01 0-4.1 0-4.1l1.2 0c0 0 .02 3.93 0 3.9c0 .9.4 1.7 1.5 1.7c1 0 1.5-.7 1.5-1.7c.03.04 0-3.9 0-3.9l1.3 0c0 0 0 5.32 0 5.3c0 .5 0 1 .1 1.2c0 0-1.2 0-1.2 0c-.1-.1-.1-.5-.1-.8c0 0 0 0 0 0zm4.6.8l-1.2 0l0-6.5l1.2 0c0 0 0 .95 0 1c.5-.9 1.2-1.2 2-1.2c1.6 0 2.3 1.2 2.3 2.6c.02 0 0 4.1 0 4.1l-1.2 0c0 0-.04-3.89 0-3.9c0-.9-.4-1.6-1.6-1.6c-1 0-1.5.8-1.5 1.8c.03-.04 0 3.7 0 3.7z" stroke="none" fill="#144542"/></g><g id="Polygon182175"><path d="m1.1 99.8l0-9.8l1.2 0l0 9.8l-1.2 0zm3.8-9.7c.5 0 1 .4 1 1.2c0 1.7-1.1 2.4-1.8 2.5c0 0 0-.7 0-.7c.6-.1 1-.7 1-1.3c-.1 0-.1 0-.3 0c-.5 0-.8-.3-.8-.8c0-.5.4-.9.9-.9zm1.7 8c0-1.2.8-1.8 2-2c0 0 1.7-.2 1.7-.2c.4-.1.5-.3.5-.5c0-.7-.4-1.2-1.4-1.2c-.9 0-1.4.6-1.5 1.3c0 0-1.2-.3-1.2-.3c.2-1.2 1.3-2.1 2.7-2.1c1.9 0 2.7 1.1 2.7 2.4c0 0 0 3.3 0 3.3c0 .5 0 .9.1 1c0 0-1.3 0-1.3 0c0-.1 0-.4 0-.9c-.3.5-1 1.1-2.1 1.1c-1.4 0-2.2-.9-2.2-1.9c0 0 0 0 0 0zm4.2-1.1c.01.04 0-.3 0-.3c0 0-1.97.34-2 .3c-.5.1-.9.4-.9 1c0 .5.4 1 1 1c1.1 0 1.9-.5 1.9-2zm3.3 5.4l0-9.1l1.2 0c0 0-.02 1.04 0 1c.3-.6 1.1-1.1 2.2-1.1c1.9 0 2.9 1.5 2.9 3.4c0 1.9-1.1 3.4-3 3.4c-1 0-1.7-.5-2.1-1.1c.01.04 0 3.5 0 3.5l-1.2 0zm5-5.8c0-1.3-.7-2.3-1.9-2.3c-1.1 0-1.9 1-1.9 2.3c0 1.3.8 2.3 1.9 2.3c1.2 0 1.9-1 1.9-2.3c0 0 0 0 0 0zm3 5.8l0-9.1l1.2 0c0 0-.01 1.04 0 1c.3-.6 1.1-1.1 2.2-1.1c1.9 0 2.9 1.5 2.9 3.4c0 1.9-1.1 3.4-3 3.4c-1 0-1.7-.5-2.1-1.1c.01.04 0 3.5 0 3.5l-1.2 0zm5-5.8c0-1.3-.7-2.3-1.9-2.3c-1.1 0-1.9 1-1.9 2.3c0 1.3.8 2.3 1.9 2.3c1.2 0 1.9-1 1.9-2.3c0 0 0 0 0 0zm6.6-2c-.2 0-.4 0-.6 0c-1.1 0-1.8.5-1.8 2c.03-.04 0 3.2 0 3.2l-1.2 0l0-6.5l1.2 0c0 0 .01 1.16 0 1.2c.5-1 1.3-1.3 1.9-1.3c.2 0 .4 0 .5.1c0 0 0 1.3 0 1.3zm5.6 1.3c0-.9-.6-1.7-1.8-1.7c-1 0-1.7.9-1.7 1.7c0 0 3.5 0 3.5 0zm1.3 2.1c-.4 1.1-1.4 2-2.9 2c-1.8 0-3.3-1.2-3.3-3.5c0-2 1.5-3.4 3.1-3.4c2 0 3.1 1.4 3.1 3.4c0 .2 0 .3 0 .4c0 0-4.9 0-4.9 0c.1 1.2.9 2 2 2c1 0 1.6-.6 1.8-1.3c0 0 1.1.4 1.1.4zm2.9 1.8l-1.2 0l0-6.5l1.2 0c0 0 .01.95 0 1c.5-.9 1.3-1.2 2-1.2c1.6 0 2.3 1.2 2.3 2.6c.03 0 0 4.1 0 4.1l-1.2 0c0 0-.04-3.89 0-3.9c0-.9-.4-1.6-1.6-1.6c-1 0-1.5.8-1.5 1.8c.04-.04 0 3.7 0 3.7zm6-1.7c0-1.2.8-1.8 1.9-2c0 0 1.8-.2 1.8-.2c.4-.1.5-.3.5-.5c0-.7-.4-1.2-1.4-1.2c-.9 0-1.4.6-1.5 1.3c0 0-1.2-.3-1.2-.3c.1-1.2 1.2-2.1 2.6-2.1c2 0 2.7 1.1 2.7 2.4c0 0 0 3.3 0 3.3c0 .5.1.9.1 1c0 0-1.2 0-1.2 0c0-.1-.1-.4-.1-.9c-.3.5-.9 1.1-2.1 1.1c-1.3 0-2.1-.9-2.1-1.9c0 0 0 0 0 0zm4.2-1.1c-.02.04 0-.3 0-.3c0 0-2.01.34-2 .3c-.5.1-1 .4-1 1c0 .5.5 1 1.1 1c1 0 1.9-.5 1.9-2zm4.5 2.8l-1.3 0l0-6.5l1.3 0c0 0-.04.95 0 1c.4-.9 1.2-1.2 2-1.2c1.5 0 2.3 1.2 2.3 2.6c-.02 0 0 4.1 0 4.1l-1.3 0c0 0 .01-3.89 0-3.9c0-.9-.4-1.6-1.5-1.6c-1 0-1.5.8-1.5 1.8c-.02-.04 0 3.7 0 3.7zm8-6.5l1.4 0l0 1.2l-1.4 0c0 0 0 3.35 0 3.3c0 .6.2.9.9.9c.2 0 .4 0 .5 0c0 0 0 1.1 0 1.1c-.1 0-.4.1-.9.1c-1.1 0-1.8-.7-1.8-1.9c.04.04 0-3.5 0-3.5l-1.2 0l0-1.2c0 0 .34.02.3 0c.7 0 1-.4 1-1c.04.03 0-1 0-1l1.2 0l0 2z" stroke="none" fill="#144542"/></g><g id="Polygon182174"><path d="m.7 81.9c0-1.2.8-1.8 1.9-2c0 0 1.8-.2 1.8-.2c.4-.1.5-.3.5-.5c0-.7-.4-1.2-1.4-1.2c-.9 0-1.4.6-1.5 1.3c0 0-1.2-.3-1.2-.3c.1-1.2 1.3-2.1 2.7-2.1c1.9 0 2.7 1.1 2.7 2.4c0 0 0 3.3 0 3.3c0 .5 0 .9 0 1c0 0-1.2 0-1.2 0c0-.1-.1-.4-.1-.9c-.2.5-.9 1.1-2.1 1.1c-1.3 0-2.1-.9-2.1-1.9c0 0 0 0 0 0zm4.2-1.1c0 .04 0-.3 0-.3c0 0-1.98.34-2 .3c-.5.1-.9.4-.9 1c0 .5.4 1 1 1c1.1 0 1.9-.5 1.9-2zm6.2 2.8l-1.3 0l-2.6-6.5l1.4 0l1.9 5l1.8-5l1.4 0l-2.6 6.5zm3.3-1.7c0-1.2.9-1.8 2-2c0 0 1.8-.2 1.8-.2c.4-.1.5-.3.5-.5c0-.7-.4-1.2-1.4-1.2c-.9 0-1.4.6-1.5 1.3c0 0-1.2-.3-1.2-.3c.1-1.2 1.2-2.1 2.6-2.1c2 0 2.7 1.1 2.7 2.4c0 0 0 3.3 0 3.3c0 .5.1.9.1 1c0 0-1.2 0-1.2 0c0-.1-.1-.4-.1-.9c-.3.5-.9 1.1-2.1 1.1c-1.3 0-2.2-.9-2.2-1.9c0 0 0 0 0 0zm4.3-1.1c-.03.04 0-.3 0-.3c0 0-2.01.34-2 .3c-.6.1-1 .4-1 1c0 .5.4 1 1.1 1c1 0 1.9-.5 1.9-2zm4.5 2.8l-1.3 0l0-6.5l1.3 0c0 0-.05.95 0 1c.4-.9 1.2-1.2 2-1.2c1.5 0 2.3 1.2 2.3 2.6c-.03 0 0 4.1 0 4.1l-1.3 0c0 0 0-3.89 0-3.9c0-.9-.4-1.6-1.5-1.6c-1 0-1.5.8-1.5 1.8c-.02-.04 0 3.7 0 3.7zm8-6.5l1.4 0l0 1.2l-1.4 0c0 0 0 3.35 0 3.3c0 .6.2.9.9.9c.2 0 .4 0 .5 0c0 0 0 1.1 0 1.1c-.1 0-.4.1-.9.1c-1.1 0-1.8-.7-1.8-1.9c.03.04 0-3.5 0-3.5l-1.2 0l0-1.2c0 0 .34.02.3 0c.7 0 1-.4 1-1c.04.03 0-1 0-1l1.2 0l0 2zm6.5 6.5l0-9.8l1.2 0l0 9.8l-1.2 0zm3-1.7c0-1.2.8-1.8 2-2c0 0 1.7-.2 1.7-.2c.4-.1.5-.3.5-.5c0-.7-.4-1.2-1.4-1.2c-.9 0-1.4.6-1.5 1.3c0 0-1.2-.3-1.2-.3c.2-1.2 1.3-2.1 2.7-2.1c1.9 0 2.7 1.1 2.7 2.4c0 0 0 3.3 0 3.3c0 .5 0 .9.1 1c0 0-1.3 0-1.3 0c0-.1 0-.4 0-.9c-.3.5-1 1.1-2.1 1.1c-1.4 0-2.2-.9-2.2-1.9c0 0 0 0 0 0zm4.2-1.1c.02.04 0-.3 0-.3c0 0-1.97.34-2 .3c-.5.1-.9.4-.9 1c0 .5.4 1 1 1c1.1 0 1.9-.5 1.9-2zm9.9-6.9c0 0 0 1.2 0 1.2c-.1-.1-.2-.1-.5-.1c-.5 0-1.1.2-1.1 1.1c.03-.02 0 1 0 1l4.3 0l0 6.5l-1.2 0l0-5.3l-3.1 0l0 5.3l-1.3 0l0-5.3l-1.2 0l0-1.2l1.2 0c0 0 .02-1.07 0-1.1c0-1.4 1-2.2 2.2-2.2c.4 0 .7.1.7.1zm1.2.7c0-.5.4-.9.9-.9c.5 0 .9.4.9.9c0 .5-.4.9-.9.9c-.5 0-.9-.4-.9-.9c0 0 0 0 0 0zm5 9l-1.3 0l0-6.5l1.2 0c0 0 .02.95 0 1c.5-.9 1.3-1.2 2-1.2c1.6 0 2.3 1.2 2.3 2.6c.04 0 0 4.1 0 4.1l-1.2 0c0 0-.02-3.89 0-3.9c0-.9-.4-1.6-1.5-1.6c-1 0-1.5.8-1.5 1.8c-.05-.04 0 3.7 0 3.7zm10.4-3.2c0 1.4.9 2.2 2 2.2c1.2 0 1.6-.8 1.8-1.3c0 0 1.1.5 1.1.5c-.3.9-1.2 2-2.9 2c-1.9 0-3.3-1.5-3.3-3.4c0-2.1 1.4-3.5 3.3-3.5c1.7 0 2.6 1.1 2.9 2.1c0 0-1.2.5-1.2.5c-.1-.7-.6-1.4-1.7-1.4c-1.1 0-2 .8-2 2.3zm5.9 1.5c0-1.2.9-1.8 2-2c0 0 1.8-.2 1.8-.2c.3-.1.5-.3.5-.5c0-.7-.5-1.2-1.5-1.2c-.8 0-1.3.6-1.4 1.3c0 0-1.2-.3-1.2-.3c.1-1.2 1.2-2.1 2.6-2.1c2 0 2.7 1.1 2.7 2.4c0 0 0 3.3 0 3.3c0 .5.1.9.1 1c0 0-1.2 0-1.2 0c-.1-.1-.1-.4-.1-.9c-.3.5-.9 1.1-2.1 1.1c-1.3 0-2.2-.9-2.2-1.9c0 0 0 0 0 0zm4.3-1.1c-.05.04 0-.3 0-.3c0 0-2.03.34-2 .3c-.6.1-1 .4-1 1c0 .5.4 1 1.1 1c1 0 1.9-.5 1.9-2zm6.8-2.4c-.2 0-.4 0-.6 0c-1 0-1.7.5-1.7 2c-.04-.04 0 3.2 0 3.2l-1.3 0l0-6.5l1.2 0c0 0 .03 1.16 0 1.2c.5-1 1.3-1.3 2-1.3c.2 0 .3 0 .4.1c0 0 0 1.3 0 1.3z" stroke="none" fill="#144542"/></g><g id="Polygon182173"><path d="m2.8 60.9l1.4 0l0 1.2l-1.4 0c0 0-.02 3.35 0 3.3c0 .6.2.9.9.9c.1 0 .4 0 .5 0c0 0 0 1.1 0 1.1c-.1 0-.4.1-.9.1c-1.1 0-1.8-.7-1.8-1.9c.01.04 0-3.5 0-3.5l-1.2 0l0-1.2c0 0 .32.02.3 0c.7 0 1-.4 1-1c.02.03 0-1 0-1l1.2 0l0 2zm7.4 2.6c0-.9-.7-1.7-1.8-1.7c-1.1 0-1.7.9-1.8 1.7c0 0 3.6 0 3.6 0zm1.3 2.1c-.4 1.1-1.4 2-3 2c-1.7 0-3.2-1.2-3.2-3.5c0-2 1.4-3.4 3.1-3.4c2 0 3.1 1.4 3.1 3.4c0 .2 0 .3 0 .4c0 0-4.9 0-4.9 0c0 1.2.9 2 1.9 2c1.1 0 1.6-.6 1.9-1.3c0 0 1.1.4 1.1.4zm5.2-3.4c-.2 0-.4 0-.5 0c-1.1 0-1.8.5-1.8 2c-.01-.04 0 3.2 0 3.2l-1.3 0l0-6.5l1.3 0c0 0-.04 1.16 0 1.2c.4-1 1.2-1.3 1.9-1.3c.2 0 .4 0 .4.1c0 0 0 1.3 0 1.3zm1.4 5.2l0-6.5l1.2 0c0 0-.01.89 0 .9c.4-.7 1.2-1.1 2-1.1c.8 0 1.6.4 1.9 1.3c.5-1 1.4-1.3 2.2-1.3c1.1 0 2.2.8 2.2 2.5c.02 0 0 4.2 0 4.2l-1.2 0c0 0-.03-4.06 0-4.1c0-.8-.5-1.4-1.4-1.4c-.9 0-1.5.7-1.5 1.6c-.01-.01 0 3.9 0 3.9l-1.3 0c0 0 .02-4.06 0-4.1c0-.8-.4-1.4-1.4-1.4c-.9 0-1.5.6-1.5 1.6c.03 0 0 3.9 0 3.9l-1.2 0zm11.5 0l0-6.5l1.3 0l0 6.5l-1.3 0zm.7-9.9c.5 0 .9.5.9 1c0 .5-.4.9-.9.9c-.5 0-.9-.4-.9-.9c0-.5.4-1 .9-1zm4 9.9l-1.2 0l0-6.5l1.2 0c0 0 0 .95 0 1c.5-.9 1.2-1.2 2-1.2c1.6 0 2.3 1.2 2.3 2.6c.02 0 0 4.1 0 4.1l-1.2 0c0 0-.05-3.89 0-3.9c0-.9-.4-1.6-1.6-1.6c-1 0-1.5.8-1.5 1.8c.03-.04 0 3.7 0 3.7zm10.7-3.9c0-.9-.6-1.7-1.8-1.7c-1 0-1.7.9-1.7 1.7c0 0 3.5 0 3.5 0zm1.3 2.1c-.4 1.1-1.4 2-2.9 2c-1.8 0-3.3-1.2-3.3-3.5c0-2 1.5-3.4 3.1-3.4c2 0 3.1 1.4 3.1 3.4c0 .2 0 .3 0 .4c0 0-4.9 0-4.9 0c.1 1.2.9 2 2 2c1 0 1.6-.6 1.8-1.3c0 0 1.1.4 1.1.4zm-2.6-5.5l-1 0l1.1-2l1.6 0l-1.7 2zm8.6 3.4c0-.9-.6-1.7-1.7-1.7c-1.1 0-1.8.9-1.8 1.7c0 0 3.5 0 3.5 0zm1.3 2.1c-.3 1.1-1.4 2-2.9 2c-1.7 0-3.3-1.2-3.3-3.5c0-2 1.5-3.4 3.1-3.4c2 0 3.2 1.4 3.2 3.4c0 .2-.1.3-.1.4c0 0-4.9 0-4.9 0c.1 1.2.9 2 2 2c1.1 0 1.6-.6 1.8-1.3c0 0 1.1.4 1.1.4z" stroke="none" fill="#144542"/></g><g id="Polygon182172"><path d="m1.1 51.2l0-6.5l1.2 0c0 0-.01.89 0 .9c.4-.7 1.2-1.1 2-1.1c.8 0 1.6.4 1.9 1.3c.5-1 1.4-1.3 2.2-1.3c1.1 0 2.2.8 2.2 2.5c.02 0 0 4.2 0 4.2l-1.2 0c0 0-.03-4.06 0-4.1c0-.8-.4-1.4-1.4-1.4c-.9 0-1.5.7-1.5 1.6c-.01-.01 0 3.9 0 3.9l-1.3 0c0 0 .03-4.06 0-4.1c0-.8-.4-1.4-1.4-1.4c-.9 0-1.5.6-1.5 1.6c.03 0 0 3.9 0 3.9l-1.2 0zm15.9-3.9c0-.9-.6-1.7-1.8-1.7c-1 0-1.7.9-1.7 1.7c0 0 3.5 0 3.5 0zm1.3 2.1c-.4 1.1-1.4 2-2.9 2c-1.8 0-3.3-1.2-3.3-3.5c0-2 1.5-3.4 3.1-3.4c2 0 3.1 1.4 3.1 3.4c0 .2 0 .3 0 .4c0 0-4.9 0-4.9 0c.1 1.2.9 2 2 2c1 0 1.6-.6 1.8-1.3c0 0 1.1.4 1.1.4zm2.9 1.8l-1.2 0l0-6.5l1.2 0c0 0 .01.95 0 1c.5-.9 1.3-1.2 2-1.2c1.6 0 2.3 1.2 2.3 2.6c.03 0 0 4.1 0 4.1l-1.2 0c0 0-.04-3.89 0-3.9c0-.9-.4-1.6-1.6-1.6c-1 0-1.5.8-1.5 1.8c.03-.04 0 3.7 0 3.7zm8.1-6.5l1.4 0l0 1.2l-1.4 0c0 0-.05 3.35 0 3.3c0 .6.2.9.9.9c.1 0 .3 0 .5 0c0 0 0 1.1 0 1.1c-.2 0-.5.1-.9.1c-1.1 0-1.8-.7-1.8-1.9c-.01.04 0-3.5 0-3.5l-1.3 0l0-1.2c0 0 .4.02.4 0c.7 0 1-.4 1-1c-.01.03 0-1 0-1l1.2 0l0 2zm7.8 3.3c0-1.5-1-2.3-2-2.3c-1.1 0-2.1.8-2.1 2.3c0 1.5 1 2.3 2.1 2.3c1 0 2-.8 2-2.3zm1.3 0c0 1.9-1.4 3.4-3.3 3.4c-2 0-3.4-1.5-3.4-3.4c0-2 1.4-3.5 3.4-3.5c1.9 0 3.3 1.5 3.3 3.5zm5.2-2c-.2 0-.4 0-.5 0c-1.1 0-1.8.5-1.8 2c-.03-.04 0 3.2 0 3.2l-1.3 0l0-6.5l1.2 0c0 0 .04 1.16 0 1.2c.5-1 1.3-1.3 2-1.3c.2 0 .3 0 .4.1c0 0 0 1.3 0 1.3zm1 3.5c0-1.2.8-1.8 1.9-2c0 0 1.8-.2 1.8-.2c.4-.1.5-.3.5-.5c0-.7-.4-1.2-1.4-1.2c-.9 0-1.4.6-1.5 1.3c0 0-1.2-.3-1.2-.3c.1-1.2 1.2-2.1 2.6-2.1c2 0 2.7 1.1 2.7 2.4c0 0 0 3.3 0 3.3c0 .5.1.9.1 1c0 0-1.2 0-1.2 0c0-.1-.1-.4-.1-.9c-.3.5-.9 1.1-2.1 1.1c-1.3 0-2.1-.9-2.1-1.9c0 0 0 0 0 0zm4.2-1.1c-.02.04 0-.3 0-.3c0 0-2.01.34-2 .3c-.6.1-1 .4-1 1c0 .5.4 1 1.1 1c1 0 1.9-.5 1.9-2zm3.2 2.8l0-9.8l1.3 0l0 9.8l-1.3 0zm7.8-3.9c0-.9-.6-1.7-1.8-1.7c-1 0-1.7.9-1.7 1.7c0 0 3.5 0 3.5 0zm1.3 2.1c-.4 1.1-1.4 2-2.9 2c-1.8 0-3.3-1.2-3.3-3.5c0-2 1.5-3.4 3.1-3.4c2 0 3.1 1.4 3.1 3.4c0 .2 0 .3 0 .4c0 0-4.9 0-4.9 0c.1 1.2.9 2 2 2c1 0 1.6-.6 1.8-1.3c0 0 1.1.4 1.1.4z" stroke="none" fill="#144542"/></g><g id="Polygon182171"><path d="m2.5 35l0-6.2l-2.2 0c0 0 .04-.88 0-.9c1.3 0 2.1-.7 2.3-1.6c-.01-.03 1.2 0 1.2 0l0 8.7l-1.3 0zm10.3-5.2c-.2 0-.4 0-.5 0c-1.1 0-1.8.5-1.8 2c-.01-.04 0 3.2 0 3.2l-1.3 0l0-6.5l1.3 0c0 0-.04 1.16 0 1.2c.4-1 1.2-1.3 1.9-1.3c.2 0 .4 0 .4.1c0 0 0 1.3 0 1.3zm5.7 1.3c0-.9-.7-1.7-1.8-1.7c-1.1 0-1.7.9-1.8 1.7c0 0 3.6 0 3.6 0zm1.3 2.1c-.4 1.1-1.4 2-3 2c-1.7 0-3.2-1.2-3.2-3.5c0-2 1.5-3.4 3.1-3.4c2 0 3.1 1.4 3.1 3.4c0 .2 0 .3 0 .4c0 0-4.9 0-4.9 0c0 1.2.9 2 1.9 2c1.1 0 1.6-.6 1.9-1.3c0 0 1.1.4 1.1.4zm1.6 1.8l0-9.8l1.3 0l0 9.8l-1.3 0zm3-1.7c0-1.2.9-1.8 2-2c0 0 1.8-.2 1.8-.2c.4-.1.5-.3.5-.5c0-.7-.4-1.2-1.4-1.2c-.9 0-1.4.6-1.5 1.3c0 0-1.2-.3-1.2-.3c.1-1.2 1.2-2.1 2.6-2.1c2 0 2.7 1.1 2.7 2.4c0 0 0 3.3 0 3.3c0 .5.1.9.1 1c0 0-1.2 0-1.2 0c0-.1-.1-.4-.1-.9c-.3.5-.9 1.1-2.1 1.1c-1.3 0-2.2-.9-2.2-1.9c0 0 0 0 0 0zm4.3-1.1c-.03.04 0-.3 0-.3c0 0-2.01.34-2 .3c-.6.1-1 .4-1 1c0 .5.4 1 1.1 1c1 0 1.9-.5 1.9-2zm4.9-3.7l1.4 0l0 1.2l-1.4 0c0 0 .01 3.35 0 3.3c0 .6.3.9.9.9c.2 0 .4 0 .5 0c0 0 0 1.1 0 1.1c-.1 0-.4.1-.8.1c-1.2 0-1.9-.7-1.9-1.9c.05.04 0-3.5 0-3.5l-1.2 0l0-1.2c0 0 .36.02.4 0c.7 0 1-.4 1-1c-.05.03 0-1 0-1l1.1 0l0 2zm3.1 6.5l0-6.5l1.3 0l0 6.5l-1.3 0zm.6-9.9c.5 0 .9.5.9 1c0 .5-.4.9-.9.9c-.5 0-.9-.4-.9-.9c0-.5.4-1 .9-1zm7.6 6.7c0-1.5-.9-2.3-2-2.3c-1.1 0-2 .8-2 2.3c0 1.5.9 2.3 2 2.3c1.1 0 2-.8 2-2.3zm1.3 0c0 1.9-1.4 3.4-3.3 3.4c-1.9 0-3.3-1.5-3.3-3.4c0-2 1.4-3.5 3.3-3.5c1.9 0 3.3 1.5 3.3 3.5zm2.9 3.2l-1.3 0l0-6.5l1.3 0c0 0-.02.95 0 1c.5-.9 1.2-1.2 2-1.2c1.5 0 2.3 1.2 2.3 2.6c0 0 0 4.1 0 4.1l-1.3 0c0 0 .04-3.89 0-3.9c0-.9-.3-1.6-1.5-1.6c-1 0-1.5.8-1.5 1.8c.01-.04 0 3.7 0 3.7z" stroke="none" fill="#144542"/></g><g id="Polygon182170"><path d="m4.8 10.5c1.9 0 3.5-1.3 3.5-3.9c0-2.6-1.5-3.9-3.4-3.9c-.04.01-2.2 0-2.2 0l0 7.8c0 0 2.13-.03 2.1 0zm-3.5 1.2l0-10.2c0 0 3.6-.05 3.6 0c2.6 0 4.9 1.7 4.9 5.1c0 3.4-2.3 5.1-4.9 5.1c-.03.03-3.6 0-3.6 0zm14.9-.8c-.4.7-1.3 1-2.1 1c-1.6 0-2.6-1.2-2.6-2.7c.03-.05 0-4.4 0-4.4l1.4 0c0 0-.01 4.15 0 4.1c0 1 .4 1.8 1.6 1.8c1.1 0 1.6-.7 1.6-1.7c.02-.04 0-4.2 0-4.2l1.4 0c0 0-.01 5.64 0 5.6c0 .6 0 1.1.1 1.3c0 0-1.3 0-1.3 0c-.1-.1-.1-.5-.1-.8c0 0 0 0 0 0zm8.7-2.7c0-1.6-1-2.4-2.2-2.4c-1.1 0-2.2.8-2.2 2.4c0 1.7 1.1 2.5 2.2 2.5c1.2 0 2.2-.8 2.2-2.5zm1.4 0c0 2.2-1.5 3.7-3.6 3.7c-2.1 0-3.5-1.5-3.5-3.7c0-2.1 1.4-3.7 3.5-3.7c2.1 0 3.6 1.6 3.6 3.7zm7.2-2.2l0 5.7l-1.4 0l0-5.7l-1.3 0l0-1.2l1.3 0c0 0-.03-1.22 0-1.2c0-1.6 1-2.4 2.3-2.4c.4 0 .7.1.8.1c0 0 0 1.3 0 1.3c-.1-.1-.3-.1-.6-.1c-.5 0-1.1.2-1.1 1.2c-.02-.05 0 1.1 0 1.1l1.7 0l0 1.2l-1.7 0zm8 2.2c0-1.6-1-2.4-2.2-2.4c-1.1 0-2.2.8-2.2 2.4c0 1.7 1.1 2.5 2.2 2.5c1.2 0 2.2-.8 2.2-2.5zm1.4 0c0 2.2-1.5 3.7-3.6 3.7c-2.1 0-3.5-1.5-3.5-3.7c0-2.1 1.4-3.7 3.5-3.7c2.1 0 3.6 1.6 3.6 3.7zm5.6-2.1c-.2 0-.4 0-.6 0c-1.1 0-1.9.6-1.9 2.1c-.01.04 0 3.5 0 3.5l-1.4 0l0-6.9l1.4 0c0 0-.04 1.17 0 1.2c.5-1.1 1.3-1.4 2.1-1.4c.1 0 .3.1.4.1c0 0 0 1.4 0 1.4zm4.6 3.8c0-1.3 1-2 2.2-2.2c0 0 1.8-.2 1.8-.2c.5-.1.6-.3.6-.6c0-.6-.5-1.2-1.5-1.2c-1 0-1.5.6-1.6 1.4c0 0-1.3-.3-1.3-.3c.1-1.3 1.3-2.3 2.8-2.3c2.1 0 2.9 1.2 2.9 2.6c0 0 0 3.5 0 3.5c0 .6.1 1 .1 1.1c0 0-1.3 0-1.3 0c0-.1-.1-.4-.1-.9c-.3.5-1 1.1-2.2 1.1c-1.4 0-2.4-.9-2.4-2c0 0 0 0 0 0zm4.6-1.2c-.02.04 0-.3 0-.3c0 0-2.15.34-2.2.3c-.5.1-1 .5-1 1.1c0 .5.5 1 1.2 1c1.1 0 2-.5 2-2.1zm6.2-.7l1.4-.3c0 0 .04.96 0 1c0 1.3.8 1.9 1.8 1.9c1 0 1.7-.7 1.7-1.8c-.01-.04 0-7.3 0-7.3l1.4 0c0 0 .01 7.16 0 7.2c0 1.8-1.2 3.2-3.1 3.2c-2 0-3.2-1.3-3.2-3.2c.02-.03 0-.7 0-.7zm13.7.2c0-1.6-1-2.4-2.2-2.4c-1.1 0-2.1.8-2.1 2.4c0 1.7 1 2.5 2.1 2.5c1.2 0 2.2-.8 2.2-2.5zm1.4 0c0 2.2-1.5 3.7-3.6 3.7c-2 0-3.5-1.5-3.5-3.7c0-2.1 1.5-3.7 3.5-3.7c2.1 0 3.6 1.6 3.6 3.7zm1.8 3.5l0-10.5l1.3 0c0 0 0 4.54 0 4.5c.3-.6 1.1-1.1 2.3-1.1c2.1 0 3.2 1.6 3.2 3.6c0 2.1-1.2 3.7-3.2 3.7c-1.1 0-1.9-.4-2.3-1.2c0 .02 0 1 0 1l-1.3 0zm3.4-5.9c-1.2 0-2.1.9-2.1 2.4c0 1.5.9 2.5 2.1 2.5c1.2 0 2-1 2-2.5c0-1.5-.8-2.4-2-2.4z" stroke="none" fill="#144542"/></g></svg>