<?xml version="1.0" standalone="no"?><!DOCTYPE svg PUBLIC "-//W3C//DTD SVG 1.1//EN" "http://www.w3.org/Graphics/SVG/1.1/DTD/svg11.dtd"><svg xmlns="http://www.w3.org/2000/svg" version="1.1" width="276.4px" height="51px" viewBox="0 -3 276.4 51" style="top:-3px"><desc>01. d montrer le potentiel de talents invisibles</desc><defs/><g id="Polygon165714"><path d="m2.1 7.3c.3.3.6.4 1.1.4c.5 0 .8-.1 1.1-.4c.4-.4.6-1.2.6-2.2c0-1-.2-1.8-.6-2.2c-.3-.3-.6-.5-1.1-.5c-.5 0-.8.2-1.1.5c-.4.4-.6 1.2-.6 2.2c0 1 .2 1.8.6 2.2zm-1-4.7c.5-.6 1.2-1.1 2.1-1.1c1 0 1.7.5 2.1 1.1c.5.7.6 1.6.6 2.5c0 .9-.1 1.8-.6 2.5c-.4.6-1.1 1.1-2.1 1.1c-.9 0-1.6-.5-2.1-1.1c-.4-.7-.6-1.6-.6-2.5c0-.9.2-1.8.6-2.5zm8.3 5.9l0-4.8l-1.7 0c0 0 .01-.73 0-.7c1 0 1.6-.6 1.8-1.3c-.04-.01.9 0 .9 0l0 6.8l-1 0zm4.2-1.4c.4 0 .7.3.7.7c0 .4-.3.7-.7.7c-.5 0-.8-.3-.8-.7c0-.4.3-.7.8-.7zm8.6.8c1 0 1.8-.7 1.8-2c0-1.3-.8-2-1.8-2c.02.03-1.1 0-1.1 0l0 4c0 0 1.1-.04 1.1 0zm-1.8.6l0-5.2c0 0 1.84-.01 1.8 0c1.4 0 2.5.9 2.5 2.6c0 1.7-1.2 2.6-2.5 2.6c.02-.01-1.8 0-1.8 0zm6.4 0l0-5.2l3.1 0l0 .7l-2.4 0l0 1.6l2.2 0l0 .6l-2.2 0l0 1.6l2.4 0l0 .7l-3.1 0zm1.7-5.6l-.7 0l.8-.9l.9 0l-1 .9zm8.5 5.6l0-4.1l-1.8 4.1l-.6 0l-1.8-4.1l0 4.1l-.7 0l0-5.2l1 0l1.8 4.2l1.8-4.2l1 0l0 5.2l-.7 0zm5.4-.6c.9 0 1.8-.7 1.8-2c0-1.4-.9-2.1-1.8-2.1c-1 0-1.9.7-1.9 2.1c0 1.3.9 2 1.9 2zm0-4.7c1.3 0 2.6 1 2.6 2.7c0 1.7-1.3 2.7-2.6 2.7c-1.3 0-2.7-1-2.7-2.7c0-1.7 1.4-2.7 2.7-2.7zm8.2 5.3l-2.9-4.3l0 4.3l-.7 0l0-5.2l1 0l2.6 4l0-4l.7 0l0 5.2l-.7 0zm5-4.5l0 4.5l-.8 0l0-4.5l-1.7 0l0-.7l4.2 0l0 .7l-1.7 0zm5 2.4l-.8 0l0 2.1l-.7 0l0-5.2c0 0 1.94-.01 1.9 0c1 0 1.6.7 1.6 1.5c0 .8-.4 1.4-1.2 1.5c-.03.01 1.2 2.2 1.2 2.2l-.8 0l-1.2-2.1zm.3-.7c.6 0 1-.3 1-.9c0-.5-.4-.9-1-.9c.01.03-1.1 0-1.1 0l0 1.8c0 0 1.11.01 1.1 0zm3.8 2.8l0-5.2l3.2 0l0 .7l-2.5 0l0 1.6l2.2 0l0 .6l-2.2 0l0 1.6l2.5 0l0 .7l-3.2 0zm6.8-2.1l-.8 0l0 2.1l-.7 0l0-5.2c0 0 1.96-.01 2 0c.9 0 1.6.7 1.6 1.5c0 .8-.5 1.4-1.3 1.5c-.01.01 1.2 2.2 1.2 2.2l-.8 0l-1.2-2.1zm.3-.7c.6 0 1-.3 1-.9c0-.5-.4-.9-1-.9c.03.03-1.1 0-1.1 0l0 1.8c0 0 1.13.01 1.1 0zm7.5 2.8l0-5.2l.7 0l0 4.5l2.5 0l0 .7l-3.2 0zm5.1 0l0-5.2l3.1 0l0 .7l-2.4 0l0 1.6l2.2 0l0 .6l-2.2 0l0 1.6l2.4 0l0 .7l-3.1 0zm10.7-2.8c.6 0 1-.3 1-.9c0-.5-.4-.9-1-.9c.01.03-1 0-1 0l0 1.8c0 0 1.01.01 1 0zm-1 .7l0 2.1l-.8 0l0-5.2c0 0 1.95-.01 1.9 0c1 0 1.7.7 1.7 1.5c0 .9-.7 1.6-1.7 1.6c.05-.04-1.1 0-1.1 0zm7 1.5c.9 0 1.9-.7 1.9-2c0-1.4-1-2.1-1.9-2.1c-1 0-1.9.7-1.9 2.1c0 1.3.9 2 1.9 2zm0-4.7c1.3 0 2.6 1 2.6 2.7c0 1.7-1.3 2.7-2.6 2.7c-1.3 0-2.6-1-2.6-2.7c0-1.7 1.3-2.7 2.6-2.7zm6.3.8l0 4.5l-.7 0l0-4.5l-1.7 0l0-.7l4.2 0l0 .7l-1.8 0zm3.5 4.5l0-5.2l3.2 0l0 .7l-2.4 0l0 1.6l2.2 0l0 .6l-2.2 0l0 1.6l2.4 0l0 .7l-3.2 0zm8.9 0l-2.8-4.3l0 4.3l-.7 0l0-5.2l.9 0l2.6 4l0-4l.8 0l0 5.2l-.8 0zm5-4.5l0 4.5l-.7 0l0-4.5l-1.8 0l0-.7l4.2 0l0 .7l-1.7 0zm3.5 4.5l0-5.2l.8 0l0 5.2l-.8 0zm3.1 0l0-5.2l3.2 0l0 .7l-2.4 0l0 1.6l2.2 0l0 .6l-2.2 0l0 1.6l2.4 0l0 .7l-3.2 0zm5.4 0l0-5.2l.7 0l0 4.5l2.4 0l0 .7l-3.1 0zm10.5-.6c1 0 1.8-.7 1.8-2c0-1.3-.8-2-1.8-2c.01.03-1.1 0-1.1 0l0 4c0 0 1.1-.04 1.1 0zm-1.8.6l0-5.2c0 0 1.83-.01 1.8 0c1.4 0 2.5.9 2.5 2.6c0 1.7-1.2 2.6-2.5 2.6c.02-.01-1.8 0-1.8 0zm6.4 0l0-5.2l3.1 0l0 .7l-2.4 0l0 1.6l2.2 0l0 .6l-2.2 0l0 1.6l2.4 0l0 .7l-3.1 0zm10.8-4.5l0 4.5l-.7 0l0-4.5l-1.7 0l0-.7l4.2 0l0 .7l-1.8 0zm6.1 3l-2.3 0l-.5 1.5l-.8 0l2.1-5.2l.8 0l2.1 5.2l-.8 0l-.6-1.5zm-2-.6l1.8 0l-.9-2.4l-.9 2.4zm5.1 2.1l0-5.2l.8 0l0 4.5l2.4 0l0 .7l-3.2 0zm5.1 0l0-5.2l3.2 0l0 .7l-2.5 0l0 1.6l2.3 0l0 .6l-2.3 0l0 1.6l2.5 0l0 .7l-3.2 0zm8.9 0l-2.8-4.3l0 4.3l-.8 0l0-5.2l1 0l2.6 4l0-4l.7 0l0 5.2l-.7 0zm5-4.5l0 4.5l-.7 0l0-4.5l-1.8 0l0-.7l4.2 0l0 .7l-1.7 0zm6.2.7c-.1-.4-.4-.9-1.1-.9c-.6 0-1 .4-1 .9c0 .4.2.6.6.7c0 0 .8.2.8.2c.9.2 1.4.7 1.4 1.5c0 .8-.7 1.5-1.8 1.5c-1.3 0-1.9-.8-2-1.5c0 0 .7-.3.7-.3c.1.6.5 1.1 1.3 1.1c.7 0 1-.3 1-.8c0-.4-.2-.7-.7-.8c0 0-.8-.1-.8-.1c-.7-.2-1.3-.7-1.3-1.5c0-.8.8-1.5 1.8-1.5c1.1 0 1.6.7 1.7 1.3c0 0-.6.2-.6.2zm6.4 3.8l0-5.2l.7 0l0 5.2l-.7 0zm6.6 0l-2.8-4.3l0 4.3l-.7 0l0-5.2l1 0l2.6 4l0-4l.7 0l0 5.2l-.8 0zm6.5-5.2l.7 0l-2 5.2l-.7 0l-1.9-5.2l.7 0l1.6 4.3l1.6-4.3zm2.5 5.2l0-5.2l.8 0l0 5.2l-.8 0zm5.8-3.8c0-.4-.4-.9-1.1-.9c-.6 0-1 .4-1 .9c0 .4.2.6.7.7c0 0 .8.2.8.2c.8.2 1.3.7 1.3 1.5c0 .8-.7 1.5-1.8 1.5c-1.3 0-1.8-.8-1.9-1.5c0 0 .6-.3.6-.3c.1.6.5 1.1 1.3 1.1c.7 0 1.1-.3 1.1-.8c0-.4-.3-.7-.8-.8c0 0-.8-.1-.8-.1c-.7-.2-1.2-.7-1.2-1.5c0-.8.7-1.5 1.7-1.5c1.2 0 1.6.7 1.8 1.3c0 0-.7.2-.7.2zm2.7 3.8l0-5.2l.8 0l0 5.2l-.8 0zm4.8-5.2c1 0 1.6.6 1.6 1.4c0 .6-.3 1-.8 1.1c.6.2 1 .7 1 1.3c0 .8-.7 1.4-1.6 1.4c-.02-.01-1.8 0-1.8 0l0-5.2c0 0 1.65-.01 1.6 0zm0 2.3c.5 0 .9-.4.9-.9c0-.5-.4-.8-1-.8c.04.02-.8 0-.8 0l0 1.7c0 0 .87-.03.9 0zm.1 2.3c.6 0 1-.4 1-.9c0-.5-.4-.8-1-.8c0-.02-1 0-1 0l0 1.7c0 0 .97-.04 1 0zm3.7.6l0-5.2l.7 0l0 4.5l2.5 0l0 .7l-3.2 0zm5.1 0l0-5.2l3.2 0l0 .7l-2.5 0l0 1.6l2.2 0l0 .6l-2.2 0l0 1.6l2.5 0l0 .7l-3.2 0zm8-3.8c-.1-.4-.4-.9-1.1-.9c-.6 0-1 .4-1 .9c0 .4.2.6.7.7c0 0 .7.2.7.2c.9.2 1.4.7 1.4 1.5c0 .8-.7 1.5-1.8 1.5c-1.3 0-1.9-.8-2-1.5c0 0 .7-.3.7-.3c.1.6.5 1.1 1.3 1.1c.7 0 1.1-.3 1.1-.8c0-.4-.3-.7-.8-.8c0 0-.8-.1-.8-.1c-.7-.2-1.2-.7-1.2-1.5c0-.8.7-1.5 1.7-1.5c1.2 0 1.6.7 1.7 1.3c0 0-.6.2-.6.2z" stroke="none" fill="#144542"/></g></svg>