<?xml version="1.0" standalone="no"?><!DOCTYPE svg PUBLIC "-//W3C//DTD SVG 1.1//EN" "http://www.w3.org/Graphics/SVG/1.1/DTD/svg11.dtd"><svg xmlns="http://www.w3.org/2000/svg" version="1.1" width="75.1px" height="149.6px" viewBox="0 -23 75.1 149.6" style="top:-23px"><desc>“</desc><defs/><g id="Polygon178212"><path d="m19.8 2.9c-7.2 3.8-11.6 11.5-12.3 16.2c0 0 .5 0 .5 0c.9-2.2 2.6-3.4 5.3-3.4c3.1 0 7.5 3 7.5 8.9c0 5-3.7 8.7-8.7 8.7c-6.7 0-9.4-5.1-9.4-10.6c0-4.4 2.3-14.2 17.1-21.5c0 0 0 1.7 0 1.7zm20.6 0c-7.2 3.8-11.6 11.5-12.3 16.2c0 0 .5 0 .5 0c.9-2.2 2.6-3.4 5.3-3.4c3.1 0 7.5 3 7.5 8.9c0 5-3.8 8.7-8.8 8.7c-6.6 0-9.3-5.1-9.3-10.6c0-4.4 2.3-14.2 17.1-21.5c0 0 0 1.7 0 1.7z" stroke="none" fill="#144542"/></g></svg>