<?xml version="1.0" standalone="no"?><!DOCTYPE svg PUBLIC "-//W3C//DTD SVG 1.1//EN" "http://www.w3.org/Graphics/SVG/1.1/DTD/svg11.dtd"><svg xmlns="http://www.w3.org/2000/svg" version="1.1" width="166.3px" height="167.6px" viewBox="0 -3 166.3 167.6" style="top:-3px"><desc>dossier sp cial Les dix prochaines ann es : pr parer et anticiper les prochains d fis interview Thibaut Guilluy, Dire...</desc><defs/><g id="Polygon187815"><path d="m8.4 128c0 0-.08-1.39-.1-1.4c-.4.8-1.4 1.6-3 1.6c-2.5 0-4.7-1.8-4.7-5c0-3.3 2.4-5 4.7-5c2.1 0 3.7 1.2 4.3 2.9c0 0-1.2.5-1.2.5c-.4-1.4-1.6-2.2-3.1-2.2c-1.7 0-3.3 1.2-3.3 3.8c0 2.5 1.6 3.8 3.3 3.8c2.1 0 2.9-1.5 2.9-2.5c.05-.03-3.3 0-3.3 0l0-1.2l4.6 0l0 4.7l-1.1 0zm7.4-4c0-.9-.7-1.6-1.8-1.6c-1.1 0-1.7.8-1.8 1.6c0 0 3.6 0 3.6 0zm1.3 2.1c-.4 1.2-1.4 2.1-3 2.1c-1.7 0-3.2-1.3-3.2-3.5c0-2 1.5-3.4 3.1-3.4c2 0 3.1 1.3 3.1 3.4c0 .1 0 .3 0 .4c0 0-4.9 0-4.9 0c0 1.1.9 1.9 1.9 1.9c1.1 0 1.6-.5 1.9-1.3c0 0 1.1.4 1.1.4zm-2.6-5.5l-1.1 0l1.2-1.9l1.6 0l-1.7 1.9zm5.5 7.4l-1.3 0l0-6.5l1.3 0c0 0-.03.9 0 .9c.4-.8 1.2-1.1 2-1.1c1.5 0 2.3 1.1 2.3 2.5c-.01.05 0 4.2 0 4.2l-1.3 0c0 0 .02-3.94 0-3.9c0-.9-.4-1.7-1.5-1.7c-1 0-1.5.8-1.5 1.8c-.01.01 0 3.8 0 3.8zm10.7-4c0-.9-.6-1.6-1.8-1.6c-1.1 0-1.7.8-1.8 1.6c0 0 3.6 0 3.6 0zm1.3 2.1c-.4 1.2-1.4 2.1-2.9 2.1c-1.8 0-3.3-1.3-3.3-3.5c0-2 1.5-3.4 3.1-3.4c2 0 3.1 1.3 3.1 3.4c0 .1 0 .3 0 .4c0 0-4.9 0-4.9 0c0 1.1.9 1.9 2 1.9c1 0 1.5-.5 1.8-1.3c0 0 1.1.4 1.1.4zm-2.6-5.5l-1.1 0l1.2-1.9l1.6 0l-1.7 1.9zm7.8 2.2c-.2-.1-.3-.1-.5-.1c-1.1 0-1.8.6-1.8 2c0 .01 0 3.3 0 3.3l-1.3 0l0-6.5l1.3 0c0 0-.03 1.1 0 1.1c.4-1 1.3-1.2 1.9-1.2c.2 0 .4 0 .4 0c0 0 0 1.4 0 1.4zm1 3.4c0-1.1.8-1.8 1.9-1.9c0 0 1.8-.3 1.8-.3c.4-.1.5-.3.5-.5c0-.6-.4-1.2-1.4-1.2c-.9 0-1.4.6-1.5 1.4c0 0-1.2-.3-1.2-.3c.1-1.3 1.3-2.1 2.7-2.1c1.9 0 2.7 1.1 2.7 2.3c0 0 0 3.3 0 3.3c0 .6 0 .9.1 1.1c0 0-1.3 0-1.3 0c0-.2-.1-.4-.1-.9c-.2.4-.9 1.1-2 1.1c-1.4 0-2.2-1-2.2-2c0 0 0 0 0 0zm4.2-1c0-.02 0-.3 0-.3c0 0-1.98.28-2 .3c-.5.1-.9.4-.9 1c0 .4.4.9 1 .9c1.1 0 1.9-.5 1.9-1.9zm3.2 2.8l0-9.8l1.3 0l0 9.8l-1.3 0zm9.5-1c1.2 0 1.9-1 1.9-2.3c0-1.4-.7-2.3-1.9-2.3c-1.1 0-1.9 1-1.9 2.3c0 1.3.7 2.3 1.9 2.3zm1.9 0c-.3.6-1 1.1-2 1.1c-1.9 0-3.1-1.5-3.1-3.4c0-1.8 1.2-3.4 3.1-3.4c1.1 0 1.8.6 2 1.1c-.03-.01 0-4.2 0-4.2l1.2 0c0 0 .02 8.56 0 8.6c0 .6.1 1.1.1 1.2c0 0-1.2 0-1.2 0c-.1-.2-.1-.5-.1-.9c0 0 0-.1 0-.1zm7.8-3c-.1-.9-.7-1.6-1.8-1.6c-1.1 0-1.7.8-1.8 1.6c0 0 3.6 0 3.6 0zm1.2 2.1c-.3 1.2-1.4 2.1-2.9 2.1c-1.7 0-3.2-1.3-3.2-3.5c0-2 1.4-3.4 3.1-3.4c2 0 3.1 1.3 3.1 3.4c0 .1 0 .3 0 .4c0 0-4.9 0-4.9 0c0 1.1.8 1.9 1.9 1.9c1.1 0 1.6-.5 1.8-1.3c0 0 1.1.4 1.1.4zm5.2 1.9l0-9.6l5.8 0l0 1.2l-4.5 0l0 3.1l4.1 0l0 1.2l-4.1 0l0 4.1l-1.3 0zm10.6-5.2c-.2-.1-.4-.1-.6-.1c-1 0-1.8.6-1.8 2c.05.01 0 3.3 0 3.3l-1.2 0l0-6.5l1.2 0c0 0 .02 1.1 0 1.1c.5-1 1.3-1.2 2-1.2c.1 0 .3 0 .4 0c0 0 0 1.4 0 1.4zm.9 3.4c0-1.1.9-1.8 2-1.9c0 0 1.8-.3 1.8-.3c.3-.1.5-.3.5-.5c0-.6-.5-1.2-1.5-1.2c-.8 0-1.3.6-1.4 1.4c0 0-1.2-.3-1.2-.3c.1-1.3 1.2-2.1 2.6-2.1c2 0 2.7 1.1 2.7 2.3c0 0 0 3.3 0 3.3c0 .6.1.9.1 1.1c0 0-1.2 0-1.2 0c-.1-.2-.1-.4-.1-.9c-.3.4-.9 1.1-2.1 1.1c-1.3 0-2.2-1-2.2-2c0 0 0 0 0 0zm4.3-1c-.05-.02 0-.3 0-.3c0 0-2.03.28-2 .3c-.6.1-1 .4-1 1c0 .4.4.9 1.1.9c1 0 1.9-.5 1.9-1.9zm4.5 2.8l-1.3 0l0-6.5l1.2 0c0 0 .03.9 0 .9c.5-.8 1.3-1.1 2-1.1c1.6 0 2.4 1.1 2.4 2.5c-.05.05 0 4.2 0 4.2l-1.3 0c0 0-.01-3.94 0-3.9c0-.9-.4-1.7-1.5-1.7c-1 0-1.5.8-1.5 1.8c-.04.01 0 3.8 0 3.8zm7-3.3c0 1.5 1 2.3 2 2.3c1.2 0 1.7-.8 1.8-1.3c0 0 1.1.4 1.1.4c-.3 1-1.2 2.1-2.9 2.1c-1.9 0-3.3-1.5-3.3-3.5c0-2 1.5-3.4 3.3-3.4c1.7 0 2.6 1 2.9 2c0 0-1.2.5-1.2.5c-.1-.6-.6-1.4-1.7-1.4c-1 0-2 .8-2 2.3zm10.7-.7c0-.9-.6-1.6-1.7-1.6c-1.1 0-1.8.8-1.8 1.6c0 0 3.5 0 3.5 0zm1.3 2.1c-.3 1.2-1.4 2.1-2.9 2.1c-1.7 0-3.3-1.3-3.3-3.5c0-2 1.5-3.4 3.1-3.4c2 0 3.2 1.3 3.2 3.4c0 .1-.1.3-.1.4c0 0-4.9 0-4.9 0c.1 1.1.9 1.9 2 1.9c1.1 0 1.6-.5 1.8-1.3c0 0 1.1.4 1.1.4zm8.6-6.5l0 8.4l-1.3 0l0-8.4l-3.2 0l0-1.2l7.7 0l0 1.2l-3.2 0zm7.2 3.2c-.1-.1-.3-.1-.5-.1c-1.1 0-1.8.6-1.8 2c.01.01 0 3.3 0 3.3l-1.3 0l0-6.5l1.3 0c0 0-.02 1.1 0 1.1c.5-1 1.3-1.2 1.9-1.2c.2 0 .4 0 .4 0c0 0 0 1.4 0 1.4zm1 3.4c0-1.1.8-1.8 2-1.9c0 0 1.7-.3 1.7-.3c.4-.1.5-.3.5-.5c0-.6-.4-1.2-1.4-1.2c-.9 0-1.4.6-1.5 1.4c0 0-1.2-.3-1.2-.3c.2-1.3 1.3-2.1 2.7-2.1c1.9 0 2.7 1.1 2.7 2.3c0 0 0 3.3 0 3.3c0 .6 0 .9.1 1.1c0 0-1.3 0-1.3 0c0-.2 0-.4 0-.9c-.3.4-1 1.1-2.1 1.1c-1.4 0-2.2-1-2.2-2c0 0 0 0 0 0zm4.2-1c.02-.02 0-.3 0-.3c0 0-1.97.28-2 .3c-.5.1-.9.4-.9 1c0 .4.4.9 1 .9c1.1 0 1.9-.5 1.9-1.9zm6.2 2.8l-1.3 0l-2.6-6.5l1.4 0l1.9 5l1.9-5l1.3 0l-2.6 6.5zm3.4-1.8c0-1.1.8-1.8 1.9-1.9c0 0 1.8-.3 1.8-.3c.4-.1.5-.3.5-.5c0-.6-.4-1.2-1.4-1.2c-.9 0-1.4.6-1.5 1.4c0 0-1.2-.3-1.2-.3c.1-1.3 1.3-2.1 2.7-2.1c1.9 0 2.7 1.1 2.7 2.3c0 0 0 3.3 0 3.3c0 .6 0 .9 0 1.1c0 0-1.2 0-1.2 0c0-.2-.1-.4-.1-.9c-.3.4-.9 1.1-2.1 1.1c-1.3 0-2.1-1-2.1-2c0 0 0 0 0 0zm4.2-1c-.01-.02 0-.3 0-.3c0 0-2 .28-2 .3c-.5.1-.9.4-.9 1c0 .4.4.9 1 .9c1 0 1.9-.5 1.9-1.9zm3.2 2.8l0-6.5l1.3 0l0 6.5l-1.3 0zm.6-9.9c.6 0 1 .4 1 .9c0 .5-.4.9-1 .9c-.5 0-.9-.4-.9-.9c0-.5.4-.9.9-.9zm2.8 9.9l0-9.8l1.3 0l0 9.8l-1.3 0z" stroke="none" fill="#fff"/></g><g id="Polygon187814"><path d="m4.7 103.4l0 8.4l-1.4 0l0-8.4l-3.2 0l0-1.2l7.8 0l0 1.2l-3.2 0zm5.6 8.4l-1.2 0l0-9.8l1.2 0c0 0 .04 4.03 0 4c.5-.7 1.3-.9 2-.9c1.6 0 2.3 1.1 2.3 2.5c.03.05 0 4.2 0 4.2l-1.2 0c0 0-.03-3.94 0-3.9c0-.9-.4-1.7-1.5-1.7c-1 0-1.5.8-1.6 1.7c.04.04 0 3.9 0 3.9zm6.4 0l0-6.5l1.2 0l0 6.5l-1.2 0zm.6-9.9c.5 0 .9.4.9.9c0 .5-.4.9-.9.9c-.5 0-.9-.4-.9-.9c0-.5.4-.9.9-.9zm2.8 9.9l0-9.8l1.2 0c0 0 .03 4.19 0 4.2c.3-.6 1.1-1.1 2.2-1.1c1.9 0 3 1.5 3 3.4c0 1.9-1.1 3.4-3.1 3.4c-.9 0-1.7-.4-2.1-1.1c.03.02 0 1 0 1l-1.2 0zm3.1-5.6c-1.1 0-1.9.9-1.9 2.3c0 1.4.8 2.3 1.9 2.3c1.2 0 2-.9 2-2.3c0-1.4-.8-2.3-2-2.3zm4.5 3.8c0-1.1.8-1.8 1.9-1.9c0 0 1.8-.3 1.8-.3c.4-.1.5-.3.5-.5c0-.6-.4-1.2-1.4-1.2c-.9 0-1.4.6-1.5 1.4c0 0-1.2-.3-1.2-.3c.1-1.3 1.3-2.1 2.7-2.1c1.9 0 2.7 1.1 2.7 2.3c0 0 0 3.3 0 3.3c0 .6 0 .9 0 1.1c0 0-1.2 0-1.2 0c0-.2-.1-.4-.1-.9c-.2.4-.9 1.1-2.1 1.1c-1.3 0-2.1-1-2.1-2c0 0 0 0 0 0zm4.2-1c0-.02 0-.3 0-.3c0 0-1.98.28-2 .3c-.5.1-.9.4-.9 1c0 .4.4.9 1 .9c1.1 0 1.9-.5 1.9-1.9zm7.4 2c-.4.7-1.2 1-1.9 1c-1.5 0-2.5-1.2-2.5-2.6c.04-.04 0-4.1 0-4.1l1.3 0c0 0 .01 3.87 0 3.9c0 .9.4 1.6 1.5 1.6c1 0 1.5-.6 1.5-1.6c.02-.01 0-3.9 0-3.9l1.3 0c0 0-.01 5.26 0 5.3c0 .5 0 .9.1 1.2c0 0-1.3 0-1.3 0c0-.2 0-.5 0-.8c0 0 0 0 0 0zm5-5.7l1.5 0l0 1.1l-1.5 0c0 0 .05 3.39 0 3.4c0 .6.3.9 1 .9c.1 0 .3 0 .5-.1c0 0 0 1.1 0 1.1c-.2 0-.5.1-.9.1c-1.1 0-1.8-.6-1.8-1.8c-.02-.02 0-3.6 0-3.6l-1.3 0l0-1.1c0 0 .39-.03.4 0c.7 0 1-.5 1-1c-.01-.03 0-1.1 0-1.1l1.1 0l0 2.1zm13.9 6.5c0 0-.15-1.39-.1-1.4c-.5.8-1.5 1.6-3.1 1.6c-2.4 0-4.7-1.8-4.7-5c0-3.3 2.4-5 4.8-5c2.1 0 3.7 1.2 4.2 2.9c0 0-1.2.5-1.2.5c-.4-1.4-1.5-2.2-3-2.2c-1.7 0-3.4 1.2-3.4 3.8c0 2.5 1.6 3.8 3.3 3.8c2.2 0 2.9-1.5 3-2.5c-.02-.03-3.3 0-3.3 0l0-1.2l4.5 0l0 4.7l-1 0zm7.2-.8c-.4.7-1.2 1-2 1c-1.5 0-2.4-1.2-2.4-2.6c.01-.04 0-4.1 0-4.1l1.3 0c0 0-.03 3.87 0 3.9c0 .9.4 1.6 1.4 1.6c1.1 0 1.6-.6 1.6-1.6c-.01-.01 0-3.9 0-3.9l1.3 0c0 0-.05 5.26 0 5.3c0 .5 0 .9 0 1.2c0 0-1.2 0-1.2 0c0-.2 0-.5 0-.8c0 0 0 0 0 0zm3.3.8l0-6.5l1.3 0l0 6.5l-1.3 0zm.6-9.9c.5 0 1 .4 1 .9c0 .5-.5.9-1 .9c-.5 0-.9-.4-.9-.9c0-.5.4-.9.9-.9zm2.8 9.9l0-9.8l1.3 0l0 9.8l-1.3 0zm3.5 0l0-9.8l1.2 0l0 9.8l-1.2 0zm7.6-.8c-.4.7-1.2 1-1.9 1c-1.5 0-2.4-1.2-2.4-2.6c-.05-.04 0-4.1 0-4.1l1.2 0c0 0 .02 3.87 0 3.9c0 .9.4 1.6 1.5 1.6c1 0 1.5-.6 1.5-1.6c.03-.01 0-3.9 0-3.9l1.3 0c0 0 0 5.26 0 5.3c0 .5 0 .9.1 1.2c0 0-1.2 0-1.2 0c-.1-.2-.1-.5-.1-.8c0 0 0 0 0 0zm3.6 3.5l1.6-3.5l-2.8-5.7l1.5 0l2 4.5l1.9-4.5l1.4 0l-4.2 9.2l-1.4 0zm6.2-4.5c.6 0 1.1.4 1.1 1.3c0 1.8-1.2 2.5-2 2.6c0 0 0-.7 0-.7c.6-.1 1.1-.8 1.1-1.5c0 .1-.1.1-.3.1c-.5 0-.9-.3-.9-.9c0-.5.4-.9 1-.9zm9.9.6c1.8 0 3.3-1.2 3.3-3.6c0-2.4-1.5-3.6-3.3-3.6c.02-.03-2 0-2 0l0 7.2c0 0 2-.01 2 0zm-3.3 1.2l0-9.6c0 0 3.36-.01 3.4 0c2.4 0 4.5 1.7 4.5 4.8c0 3.1-2.1 4.8-4.6 4.8c.04-.04-3.3 0-3.3 0zm9.6 0l0-6.5l1.3 0l0 6.5l-1.3 0zm.6-9.9c.5 0 .9.4.9.9c0 .5-.4.9-.9.9c-.5 0-.9-.4-.9-.9c0-.5.4-.9.9-.9zm6.4 4.7c-.2-.1-.4-.1-.5-.1c-1.1 0-1.8.6-1.8 2c-.02.01 0 3.3 0 3.3l-1.3 0l0-6.5l1.3 0c0 0-.04 1.1 0 1.1c.4-1 1.2-1.2 1.9-1.2c.2 0 .4 0 .4 0c0 0 0 1.4 0 1.4zm5.7 1.2c0-.9-.7-1.6-1.8-1.6c-1.1 0-1.7.8-1.8 1.6c0 0 3.6 0 3.6 0zm1.3 2.1c-.4 1.2-1.4 2.1-3 2.1c-1.7 0-3.2-1.3-3.2-3.5c0-2 1.4-3.4 3.1-3.4c2 0 3.1 1.3 3.1 3.4c0 .1 0 .3 0 .4c0 0-4.9 0-4.9 0c0 1.1.8 1.9 1.9 1.9c1.1 0 1.6-.5 1.9-1.3c0 0 1.1.4 1.1.4zm2.4-1.4c0 1.5.9 2.3 2 2.3c1.2 0 1.6-.8 1.8-1.3c0 0 1.1.4 1.1.4c-.3 1-1.3 2.1-2.9 2.1c-1.9 0-3.3-1.5-3.3-3.5c0-2 1.4-3.4 3.2-3.4c1.8 0 2.7 1 2.9 2c0 0-1.1.5-1.1.5c-.2-.6-.6-1.4-1.8-1.4c-1 0-1.9.8-1.9 2.3zm8.1-3.2l1.4 0l0 1.1l-1.4 0c0 0-.02 3.39 0 3.4c0 .6.2.9.9.9c.1 0 .4 0 .5-.1c0 0 0 1.1 0 1.1c-.1 0-.5.1-.9.1c-1.1 0-1.8-.6-1.8-1.8c.01-.02 0-3.6 0-3.6l-1.2 0l0-1.1c0 0 .32-.03.3 0c.7 0 1-.5 1-1c.02-.03 0-1.1 0-1.1l1.2 0l0 2.1zm7.4 2.5c-.1-.9-.7-1.6-1.8-1.6c-1.1 0-1.7.8-1.8 1.6c0 0 3.6 0 3.6 0zm1.3 2.1c-.4 1.2-1.4 2.1-3 2.1c-1.7 0-3.2-1.3-3.2-3.5c0-2 1.4-3.4 3.1-3.4c2 0 3.1 1.3 3.1 3.4c0 .1 0 .3 0 .4c0 0-4.9 0-4.9 0c0 1.1.8 1.9 1.9 1.9c1.1 0 1.6-.5 1.9-1.3c0 0 1.1.4 1.1.4zm5.7 1.1c-.4.7-1.2 1-1.9 1c-1.5 0-2.5-1.2-2.5-2.6c.05-.04 0-4.1 0-4.1l1.3 0c0 0 .02 3.87 0 3.9c0 .9.4 1.6 1.5 1.6c1 0 1.5-.6 1.5-1.6c.03-.01 0-3.9 0-3.9l1.3 0c0 0-.01 5.26 0 5.3c0 .5 0 .9.1 1.2c0 0-1.3 0-1.3 0c0-.2 0-.5 0-.8c0 0 0 0 0 0zm7-4.4c-.2-.1-.4-.1-.6-.1c-1.1 0-1.8.6-1.8 2c.02.01 0 3.3 0 3.3l-1.2 0l0-6.5l1.2 0c0 0 0 1.1 0 1.1c.5-1 1.3-1.2 1.9-1.2c.2 0 .4 0 .5 0c0 0 0 1.4 0 1.4z" stroke="none" fill="#fff"/></g><g id="Polygon187813"><path d="m.9 95.6l0-6.7l.9 0l0 6.7l-.9 0zm8.5 0l-3.6-5.5l0 5.5l-1 0l0-6.7l1.3 0l3.3 5.1l0-5.1l1 0l0 6.7l-1 0zm6.4-5.9l0 5.9l-.9 0l0-5.9l-2.2 0l0-.8l5.4 0l0 .8l-2.3 0zm4.6 5.9l0-6.7l4 0l0 .8l-3.1 0l0 2.1l2.8 0l0 .8l-2.8 0l0 2.1l3.1 0l0 .9l-4 0zm8.7-2.8l-1 0l0 2.8l-.9 0l0-6.7c0 0 2.51-.03 2.5 0c1.3 0 2.1.9 2.1 2c0 .9-.6 1.7-1.7 1.9c.04-.04 1.6 2.8 1.6 2.8l-1 0l-1.6-2.8zm.4-.8c.8 0 1.3-.5 1.3-1.1c0-.7-.5-1.2-1.3-1.2c.04 0-1.4 0-1.4 0l0 2.3c0 0 1.44-.01 1.4 0zm9.1-3.1l1 0l-2.6 6.7l-.9 0l-2.5-6.7l1 0l2 5.5l2-5.5zm3.3 6.7l0-6.7l.9 0l0 6.7l-.9 0zm4 0l0-6.7l4.1 0l0 .8l-3.2 0l0 2.1l2.9 0l0 .8l-2.9 0l0 2.1l3.2 0l0 .9l-4.1 0zm14.4-6.7l.9 0l-1.9 6.7l-.9 0l-1.8-5.5l-1.7 5.5l-.9 0l-2-6.7l1 0l1.5 5.2l1.6-5.2l1 0l1.7 5.3l1.5-5.3z" stroke="none" fill="#fff"/></g><g id="Polygon187812"><path d="m1.1 69.2l0-9.1l1.2 0c0 0 .01 1.03 0 1c.4-.6 1.1-1.1 2.2-1.1c1.9 0 3 1.5 3 3.4c0 1.9-1.2 3.4-3.1 3.4c-1 0-1.7-.5-2.1-1.1c.03.03 0 3.5 0 3.5l-1.2 0zm5.1-5.8c0-1.3-.8-2.3-1.9-2.3c-1.2 0-2 1-2 2.3c0 1.3.8 2.3 2 2.3c1.1 0 1.9-1 1.9-2.3c0 0 0 0 0 0zm6.5-2c-.2 0-.4 0-.6 0c-1 0-1.7.5-1.7 2c-.05-.05 0 3.2 0 3.2l-1.3 0l0-6.5l1.2 0c0 0 .03 1.15 0 1.1c.5-.9 1.3-1.2 2-1.2c.1 0 .3 0 .4 0c0 0 0 1.4 0 1.4zm6.1 2c0-1.5-1-2.4-2-2.4c-1.1 0-2.1.9-2.1 2.4c0 1.5 1 2.3 2.1 2.3c1 0 2-.8 2-2.3zm1.3 0c0 1.9-1.4 3.4-3.3 3.4c-2 0-3.4-1.5-3.4-3.4c0-2 1.4-3.5 3.4-3.5c1.9 0 3.3 1.5 3.3 3.5zm2.3 0c0 1.4 1 2.2 2 2.2c1.2 0 1.7-.8 1.8-1.3c0 0 1.2.5 1.2.5c-.3.9-1.3 2-3 2c-1.9 0-3.2-1.5-3.2-3.4c0-2.1 1.4-3.5 3.2-3.5c1.7 0 2.6 1.1 2.9 2.1c0 0-1.1.5-1.1.5c-.2-.7-.7-1.4-1.8-1.4c-1 0-2 .7-2 2.3zm7.7 3.2l-1.2 0l0-9.8l1.2 0c0 0 .02 4.07 0 4.1c.5-.7 1.2-1 2-1c1.5 0 2.3 1.1 2.3 2.6c.01-.01 0 4.1 0 4.1l-1.3 0c0 0 .04-3.89 0-3.9c0-.9-.3-1.6-1.5-1.6c-.9 0-1.5.7-1.5 1.7c.02-.01 0 3.8 0 3.8zm5.9-1.7c0-1.2.9-1.8 2-2c0 0 1.8-.3 1.8-.3c.3 0 .5-.2.5-.4c0-.7-.5-1.2-1.4-1.2c-.9 0-1.4.5-1.5 1.3c0 0-1.2-.3-1.2-.3c.1-1.2 1.2-2.1 2.6-2.1c2 0 2.7 1.1 2.7 2.4c0 0 0 3.3 0 3.3c0 .5.1.9.1 1c0 0-1.2 0-1.2 0c-.1-.1-.1-.4-.1-.9c-.3.5-.9 1.1-2.1 1.1c-1.3 0-2.2-.9-2.2-1.9c0 0 0 0 0 0zm4.3-1.1c-.04.03 0-.3 0-.3c0 0-2.03.33-2 .3c-.6.1-1 .4-1 1c0 .5.4.9 1.1.9c1 0 1.9-.5 1.9-1.9zm3.2 2.8l0-6.5l1.3 0l0 6.5l-1.3 0zm.6-9.9c.5 0 .9.4.9 1c0 .5-.4.9-.9.9c-.5 0-.9-.4-.9-.9c0-.6.4-1 .9-1zm4.1 9.9l-1.3 0l0-6.5l1.3 0c0 0-.05.95 0 .9c.4-.8 1.2-1.1 2-1.1c1.5 0 2.3 1.1 2.3 2.6c-.03-.01 0 4.1 0 4.1l-1.3 0c0 0 .01-3.89 0-3.9c0-.9-.4-1.6-1.5-1.6c-1 0-1.5.8-1.5 1.8c-.02-.05 0 3.7 0 3.7zm6.8-2.1c.1.7.6 1.2 1.6 1.2c.7 0 1.1-.4 1.1-.8c0-.4-.3-.7-.9-.9c0 0-1.1-.2-1.1-.2c-1-.2-1.6-.9-1.6-1.8c0-1.1 1-2.1 2.3-2.1c1.8 0 2.3 1.2 2.5 1.8c0 0-1.1.4-1.1.4c-.1-.4-.4-1.1-1.4-1.1c-.6 0-1.1.4-1.1.9c0 .3.3.6.8.7c0 0 1 .3 1 .3c1.2.2 1.8.9 1.8 1.9c0 .9-.8 2-2.4 2c-1.7 0-2.5-1.1-2.6-1.9c0 0 1.1-.4 1.1-.4zm11.6 1.2c1.2 0 1.9-1 1.9-2.4c0-1.3-.7-2.2-1.9-2.2c-1.1 0-1.9.9-1.9 2.2c0 1.4.7 2.4 1.9 2.4zm1.9-.1c-.3.6-1 1.2-2 1.2c-1.9 0-3.1-1.5-3.1-3.5c0-1.8 1.3-3.4 3.1-3.4c1.2 0 1.8.6 2 1.1c0 .03 0-4.2 0-4.2l1.3 0c0 0-.05 8.61 0 8.6c0 .6 0 1.1 0 1.2c0 0-1.2 0-1.2 0c0-.1-.1-.5-.1-.9c0 0 0-.1 0-.1zm7.8-2.9c0-.9-.6-1.7-1.8-1.7c-1.1 0-1.7.9-1.8 1.7c0 0 3.6 0 3.6 0zm1.3 2.1c-.4 1.1-1.4 2-2.9 2c-1.8 0-3.3-1.3-3.3-3.5c0-2 1.5-3.4 3.1-3.4c2 0 3.1 1.4 3.1 3.4c0 .2 0 .3 0 .4c0 0-4.9 0-4.9 0c0 1.2.9 2 2 2c1 0 1.5-.6 1.8-1.3c0 0 1.1.4 1.1.4zm-2.6-5.5l-1.1 0l1.2-2l1.6 0l-1.7 2zm7.5-2.4c0 0 0 1.2 0 1.2c-.1-.1-.2-.1-.5-.1c-.5 0-1.1.2-1.1 1.1c.03-.02 0 1 0 1l4.3 0l0 6.5l-1.2 0l0-5.3l-3.1 0l0 5.3l-1.3 0l0-5.3l-1.2 0l0-1.2l1.2 0c0 0 .02-1.08 0-1.1c0-1.4 1-2.2 2.2-2.2c.4 0 .7.1.7.1zm1.2.7c0-.5.4-.9.9-.9c.5 0 .9.4.9.9c0 .5-.4.9-.9.9c-.5 0-.9-.4-.9-.9c0 0 0 0 0 0zm4.2 6.9c.1.7.6 1.2 1.5 1.2c.8 0 1.1-.4 1.1-.8c0-.4-.3-.7-.8-.9c0 0-1.1-.2-1.1-.2c-1-.2-1.6-.9-1.6-1.8c0-1.1 1-2.1 2.3-2.1c1.8 0 2.3 1.2 2.5 1.8c0 0-1.2.4-1.2.4c0-.4-.3-1.1-1.3-1.1c-.7 0-1.1.4-1.1.9c0 .3.3.6.8.7c0 0 1 .3 1 .3c1.2.2 1.8.9 1.8 1.9c0 .9-.8 2-2.4 2c-1.8 0-2.5-1.1-2.6-1.9c0 0 1.1-.4 1.1-.4z" stroke="none" fill="#fff"/></g><g id="Polygon187811"><path d="m1.1 53l0-9.1l1.2 0c0 0 .01 1.03 0 1c.4-.6 1.1-1.1 2.2-1.1c1.9 0 3 1.5 3 3.4c0 1.9-1.2 3.4-3.1 3.4c-1 0-1.7-.5-2.1-1.1c.03.03 0 3.5 0 3.5l-1.2 0zm5.1-5.8c0-1.3-.8-2.3-1.9-2.3c-1.2 0-2 1-2 2.3c0 1.3.8 2.3 2 2.3c1.1 0 1.9-1 1.9-2.3c0 0 0 0 0 0zm6.5-2c-.2 0-.4 0-.6 0c-1 0-1.7.5-1.7 2c-.05-.05 0 3.2 0 3.2l-1.3 0l0-6.5l1.2 0c0 0 .03 1.15 0 1.1c.5-.9 1.3-1.2 2-1.2c.1 0 .3 0 .4 0c0 0 0 1.4 0 1.4zm5.6 1.3c0-.9-.6-1.7-1.7-1.7c-1.1 0-1.8.9-1.8 1.7c0 0 3.5 0 3.5 0zm1.3 2.1c-.3 1.1-1.4 2-2.9 2c-1.7 0-3.3-1.3-3.3-3.5c0-2 1.5-3.4 3.2-3.4c1.9 0 3.1 1.4 3.1 3.4c0 .2 0 .3-.1.4c0 0-4.8 0-4.8 0c0 1.2.8 2 1.9 2c1.1 0 1.6-.6 1.8-1.3c0 0 1.1.4 1.1.4zm-2.5-5.5l-1.1 0l1.2-2l1.6 0l-1.7 2zm4.2 9.9l0-9.1l1.2 0c0 0 .02 1.03 0 1c.4-.6 1.1-1.1 2.2-1.1c1.9 0 3 1.5 3 3.4c0 1.9-1.1 3.4-3 3.4c-1 0-1.8-.5-2.2-1.1c.04.03 0 3.5 0 3.5l-1.2 0zm5.1-5.8c0-1.3-.7-2.3-1.9-2.3c-1.2 0-2 1-2 2.3c0 1.3.8 2.3 2 2.3c1.1 0 1.9-1 1.9-2.3c0 0 0 0 0 0zm2.5 1.5c0-1.2.8-1.8 2-2c0 0 1.7-.3 1.7-.3c.4 0 .5-.2.5-.4c0-.7-.4-1.2-1.4-1.2c-.9 0-1.4.5-1.5 1.3c0 0-1.2-.3-1.2-.3c.2-1.2 1.3-2.1 2.7-2.1c1.9 0 2.7 1.1 2.7 2.4c0 0 0 3.3 0 3.3c0 .5 0 .9.1 1c0 0-1.3 0-1.3 0c0-.1 0-.4 0-.9c-.3.5-1 1.1-2.1 1.1c-1.4 0-2.2-.9-2.2-1.9c0 0 0 0 0 0zm4.2-1.1c.02.03 0-.3 0-.3c0 0-1.97.33-2 .3c-.5.1-.9.4-.9 1c0 .5.4.9 1 .9c1.1 0 1.9-.5 1.9-1.9zm6.9-2.4c-.2 0-.4 0-.6 0c-1.1 0-1.8.5-1.8 2c.02-.05 0 3.2 0 3.2l-1.2 0l0-6.5l1.2 0c0 0 0 1.15 0 1.1c.5-.9 1.3-1.2 1.9-1.2c.2 0 .4 0 .5 0c0 0 0 1.4 0 1.4zm5.6 1.3c0-.9-.6-1.7-1.8-1.7c-1 0-1.7.9-1.7 1.7c0 0 3.5 0 3.5 0zm1.3 2.1c-.4 1.1-1.4 2-2.9 2c-1.8 0-3.3-1.3-3.3-3.5c0-2 1.5-3.4 3.1-3.4c2 0 3.1 1.4 3.1 3.4c0 .2 0 .3 0 .4c0 0-4.9 0-4.9 0c.1 1.2.9 2 2 2c1 0 1.6-.6 1.8-1.3c0 0 1.1.4 1.1.4zm5.3-3.4c-.2 0-.4 0-.6 0c-1.1 0-1.8.5-1.8 2c.03-.05 0 3.2 0 3.2l-1.2 0l0-6.5l1.2 0c0 0 0 1.15 0 1.1c.5-.9 1.3-1.2 1.9-1.2c.2 0 .4 0 .5 0c0 0 0 1.4 0 1.4zm9.1 1.3c-.1-.9-.7-1.7-1.8-1.7c-1.1 0-1.7.9-1.8 1.7c0 0 3.6 0 3.6 0zm1.2 2.1c-.3 1.1-1.4 2-2.9 2c-1.7 0-3.2-1.3-3.2-3.5c0-2 1.4-3.4 3.1-3.4c2 0 3.1 1.4 3.1 3.4c0 .2 0 .3 0 .4c0 0-4.9 0-4.9 0c0 1.2.8 2 1.9 2c1.1 0 1.6-.6 1.9-1.3c0 0 1 .4 1 .4zm3.4-4.7l1.4 0l0 1.2l-1.4 0c0 0 .01 3.34 0 3.3c0 .6.2.9.9.9c.2 0 .4 0 .5 0c0 0 0 1.1 0 1.1c-.1 0-.4.1-.9.1c-1.1 0-1.8-.7-1.8-1.9c.04.03 0-3.5 0-3.5l-1.2 0l0-1.2c0 0 .35.02.3 0c.7 0 1-.4 1-1c.05.02 0-1 0-1l1.2 0l0 2zm6.1 4.8c0-1.2.8-1.8 1.9-2c0 0 1.8-.3 1.8-.3c.4 0 .5-.2.5-.4c0-.7-.4-1.2-1.4-1.2c-.9 0-1.4.5-1.5 1.3c0 0-1.2-.3-1.2-.3c.1-1.2 1.3-2.1 2.7-2.1c1.9 0 2.7 1.1 2.7 2.4c0 0 0 3.3 0 3.3c0 .5 0 .9 0 1c0 0-1.2 0-1.2 0c0-.1-.1-.4-.1-.9c-.2.5-.9 1.1-2.1 1.1c-1.3 0-2.1-.9-2.1-1.9c0 0 0 0 0 0zm4.2-1.1c-.01.03 0-.3 0-.3c0 0-1.99.33-2 .3c-.5.1-.9.4-.9 1c0 .5.4.9 1 .9c1.1 0 1.9-.5 1.9-1.9zm4.5 2.8l-1.3 0l0-6.5l1.3 0c0 0-.03.95 0 .9c.4-.8 1.2-1.1 2-1.1c1.5 0 2.3 1.1 2.3 2.6c-.01-.01 0 4.1 0 4.1l-1.3 0c0 0 .03-3.89 0-3.9c0-.9-.4-1.6-1.5-1.6c-1 0-1.5.8-1.5 1.8c0-.05 0 3.7 0 3.7zm8-6.5l1.4 0l0 1.2l-1.4 0c0 0 .02 3.34 0 3.3c0 .6.3.9.9.9c.2 0 .4 0 .5 0c0 0 0 1.1 0 1.1c-.1 0-.4.1-.8.1c-1.1 0-1.8-.7-1.8-1.9c-.05.03 0-3.5 0-3.5l-1.3 0l0-1.2c0 0 .36.02.4 0c.7 0 1-.4 1-1c-.04.02 0-1 0-1l1.1 0l0 2zm3.1 6.5l0-6.5l1.3 0l0 6.5l-1.3 0zm.6-9.9c.5 0 1 .4 1 1c0 .5-.5.9-1 .9c-.5 0-.9-.4-.9-.9c0-.6.4-1 .9-1zm3.6 6.7c0 1.4.9 2.2 2 2.2c1.2 0 1.6-.8 1.8-1.3c0 0 1.1.5 1.1.5c-.3.9-1.2 2-2.9 2c-1.9 0-3.3-1.5-3.3-3.4c0-2.1 1.4-3.5 3.3-3.5c1.7 0 2.6 1.1 2.8 2.1c0 0-1.1.5-1.1.5c-.2-.7-.6-1.4-1.7-1.4c-1.1 0-2 .7-2 2.3zm6.4 3.2l0-6.5l1.2 0l0 6.5l-1.2 0zm.6-9.9c.5 0 .9.4.9 1c0 .5-.4.9-.9.9c-.5 0-.9-.4-.9-.9c0-.6.4-1 .9-1zm2.8 12.5l0-9.1l1.2 0c0 0 .03 1.03 0 1c.4-.6 1.1-1.1 2.2-1.1c1.9 0 3 1.5 3 3.4c0 1.9-1.1 3.4-3 3.4c-1 0-1.8-.5-2.1-1.1c-.05.03 0 3.5 0 3.5l-1.3 0zm5.1-5.8c0-1.3-.7-2.3-1.9-2.3c-1.2 0-2 1-2 2.3c0 1.3.8 2.3 2 2.3c1.1 0 1.9-1 1.9-2.3c0 0 0 0 0 0zm7.3-.7c0-.9-.7-1.7-1.8-1.7c-1.1 0-1.7.9-1.8 1.7c0 0 3.6 0 3.6 0zm1.3 2.1c-.4 1.1-1.4 2-3 2c-1.7 0-3.2-1.3-3.2-3.5c0-2 1.4-3.4 3.1-3.4c2 0 3.1 1.4 3.1 3.4c0 .2 0 .3 0 .4c0 0-4.9 0-4.9 0c0 1.2.8 2 1.9 2c1.1 0 1.6-.6 1.9-1.3c0 0 1.1.4 1.1.4zm5.2-3.4c-.2 0-.4 0-.5 0c-1.1 0-1.8.5-1.8 2c-.01-.05 0 3.2 0 3.2l-1.3 0l0-6.5l1.3 0c0 0-.04 1.15 0 1.1c.4-.9 1.2-1.2 1.9-1.2c.2 0 .4 0 .4 0c0 0 0 1.4 0 1.4zm4.8 5.2l0-9.8l1.2 0l0 9.8l-1.2 0zm7.8-3.9c-.1-.9-.7-1.7-1.8-1.7c-1.1 0-1.7.9-1.8 1.7c0 0 3.6 0 3.6 0zm1.2 2.1c-.3 1.1-1.4 2-2.9 2c-1.7 0-3.2-1.3-3.2-3.5c0-2 1.4-3.4 3.1-3.4c2 0 3.1 1.4 3.1 3.4c0 .2 0 .3-.1.4c0 0-4.8 0-4.8 0c0 1.2.8 2 1.9 2c1.1 0 1.6-.6 1.8-1.3c0 0 1.1.4 1.1.4zm2.2-.3c.1.7.6 1.2 1.5 1.2c.8 0 1.2-.4 1.2-.8c0-.4-.3-.7-.9-.9c0 0-1.1-.2-1.1-.2c-1-.2-1.6-.9-1.6-1.8c0-1.1 1-2.1 2.3-2.1c1.8 0 2.3 1.2 2.5 1.8c0 0-1.2.4-1.2.4c0-.4-.3-1.1-1.3-1.1c-.6 0-1.1.4-1.1.9c0 .3.3.6.8.7c0 0 1 .3 1 .3c1.2.2 1.8.9 1.8 1.9c0 .9-.8 2-2.4 2c-1.7 0-2.5-1.1-2.6-1.9c0 0 1.1-.4 1.1-.4z" stroke="none" fill="#fff"/></g><g id="Polygon187810"><path d="m1.2 34.2l0-9.6l1.3 0l0 8.4l4.6 0l0 1.2l-5.9 0zm11.6-3.9c0-.9-.6-1.7-1.8-1.7c-1.1 0-1.7.9-1.8 1.7c0 0 3.6 0 3.6 0zm1.3 2.1c-.4 1.1-1.4 2-2.9 2c-1.8 0-3.3-1.3-3.3-3.5c0-2 1.5-3.4 3.1-3.4c2 0 3.1 1.4 3.1 3.4c0 .2 0 .3 0 .4c0 0-4.9 0-4.9 0c0 1.2.9 2 2 2c1 0 1.5-.6 1.8-1.3c0 0 1.1.4 1.1.4zm2.2-.3c0 .7.6 1.2 1.5 1.2c.7 0 1.1-.4 1.1-.8c0-.4-.3-.7-.9-.9c0 0-1.1-.2-1.1-.2c-1-.2-1.6-.9-1.6-1.8c0-1.1 1.1-2.1 2.3-2.1c1.8 0 2.4 1.2 2.5 1.8c0 0-1.1.4-1.1.4c-.1-.4-.3-1.1-1.4-1.1c-.6 0-1 .4-1 .9c0 .3.2.6.7.7c0 0 1 .3 1 .3c1.2.2 1.8.9 1.8 1.9c0 .9-.7 2-2.3 2c-1.8 0-2.6-1.1-2.7-1.9c0 0 1.2-.4 1.2-.4zm11.6 1.2c1.1 0 1.8-1 1.8-2.4c0-1.3-.7-2.2-1.8-2.2c-1.2 0-1.9.9-1.9 2.2c0 1.4.6 2.4 1.9 2.4zm1.9-.1c-.4.6-1 1.2-2.1 1.2c-1.9 0-3-1.5-3-3.5c0-1.8 1.2-3.4 3-3.4c1.2 0 1.8.6 2 1.1c.03.03 0-4.2 0-4.2l1.3 0c0 0-.02 8.61 0 8.6c0 .6 0 1.1 0 1.2c0 0-1.2 0-1.2 0c0-.1 0-.5 0-.9c0 0 0-.1 0-.1zm3.3 1l0-6.5l1.3 0l0 6.5l-1.3 0zm.7-9.9c.5 0 .9.4.9 1c0 .5-.4.9-.9.9c-.5 0-.9-.4-.9-.9c0-.6.4-1 .9-1zm4.2 6.6l-2.3-3.2l1.5 0l1.6 2.3l1.6-2.3l1.5 0c0 0-2.32 3.2-2.3 3.2c.4.5 2 2.8 2.4 3.3c-.03.01-1.6 0-1.6 0l-1.6-2.4l-1.7 2.4l-1.5 0l2.4-3.3zm8.6 5.9l0-9.1l1.2 0c0 0-.01 1.03 0 1c.3-.6 1.1-1.1 2.2-1.1c1.9 0 2.9 1.5 2.9 3.4c0 1.9-1.1 3.4-3 3.4c-1 0-1.7-.5-2.1-1.1c.02.03 0 3.5 0 3.5l-1.2 0zm5.1-5.8c0-1.3-.8-2.3-2-2.3c-1.1 0-1.9 1-1.9 2.3c0 1.3.8 2.3 1.9 2.3c1.2 0 2-1 2-2.3c0 0 0 0 0 0zm6.5-2c-.2 0-.4 0-.6 0c-1 0-1.8.5-1.8 2c.03-.05 0 3.2 0 3.2l-1.2 0l0-6.5l1.2 0c0 0 .01 1.15 0 1.1c.5-.9 1.3-1.2 2-1.2c.1 0 .3 0 .4 0c0 0 0 1.4 0 1.4zm6.1 2c0-1.5-1-2.4-2.1-2.4c-1 0-2 .9-2 2.4c0 1.5 1 2.3 2 2.3c1.1 0 2.1-.8 2.1-2.3zm1.3 0c0 1.9-1.4 3.4-3.4 3.4c-1.9 0-3.3-1.5-3.3-3.4c0-2 1.4-3.5 3.3-3.5c2 0 3.4 1.5 3.4 3.5zm2.3 0c0 1.4 1 2.2 2 2.2c1.2 0 1.7-.8 1.8-1.3c0 0 1.1.5 1.1.5c-.3.9-1.2 2-2.9 2c-1.9 0-3.3-1.5-3.3-3.4c0-2.1 1.5-3.5 3.3-3.5c1.7 0 2.6 1.1 2.9 2.1c0 0-1.2.5-1.2.5c-.1-.7-.6-1.4-1.7-1.4c-1 0-2 .7-2 2.3zm7.7 3.2l-1.3 0l0-9.8l1.3 0c0 0 0 4.07 0 4.1c.5-.7 1.2-1 2-1c1.5 0 2.3 1.1 2.3 2.6c-.01-.01 0 4.1 0 4.1l-1.3 0c0 0 .02-3.89 0-3.9c0-.9-.4-1.6-1.5-1.6c-1 0-1.5.7-1.5 1.7c0-.01 0 3.8 0 3.8zm5.9-1.7c0-1.2.9-1.8 2-2c0 0 1.7-.3 1.7-.3c.4 0 .5-.2.5-.4c0-.7-.4-1.2-1.4-1.2c-.9 0-1.4.5-1.4 1.3c0 0-1.3-.3-1.3-.3c.2-1.2 1.3-2.1 2.7-2.1c2 0 2.7 1.1 2.7 2.4c0 0 0 3.3 0 3.3c0 .5.1.9.1 1c0 0-1.3 0-1.3 0c0-.1 0-.4 0-.9c-.3.5-1 1.1-2.1 1.1c-1.3 0-2.2-.9-2.2-1.9c0 0 0 0 0 0zm4.2-1.1c.04.03 0-.3 0-.3c0 0-1.95.33-1.9.3c-.6.1-1 .4-1 1c0 .5.4.9 1.1.9c1 0 1.8-.5 1.8-1.9zm3.3 2.8l0-6.5l1.2 0l0 6.5l-1.2 0zm.6-9.9c.5 0 .9.4.9 1c0 .5-.4.9-.9.9c-.5 0-.9-.4-.9-.9c0-.6.4-1 .9-1zm4.1 9.9l-1.3 0l0-6.5l1.2 0c0 0 .03.95 0 .9c.5-.8 1.3-1.1 2-1.1c1.6 0 2.4 1.1 2.4 2.6c-.05-.01 0 4.1 0 4.1l-1.3 0c0 0-.01-3.89 0-3.9c0-.9-.4-1.6-1.5-1.6c-1 0-1.5.8-1.5 1.8c-.04-.05 0 3.7 0 3.7zm10.7-3.9c-.1-.9-.7-1.7-1.8-1.7c-1.1 0-1.7.9-1.8 1.7c0 0 3.6 0 3.6 0zm1.2 2.1c-.3 1.1-1.4 2-2.9 2c-1.7 0-3.2-1.3-3.2-3.5c0-2 1.4-3.4 3.1-3.4c2 0 3.1 1.4 3.1 3.4c0 .2 0 .3-.1.4c0 0-4.8 0-4.8 0c0 1.2.8 2 1.9 2c1.1 0 1.6-.6 1.8-1.3c0 0 1.1.4 1.1.4zm2.2-.3c.1.7.6 1.2 1.5 1.2c.8 0 1.2-.4 1.2-.8c0-.4-.3-.7-.9-.9c0 0-1.1-.2-1.1-.2c-1-.2-1.6-.9-1.6-1.8c0-1.1 1-2.1 2.3-2.1c1.8 0 2.3 1.2 2.5 1.8c0 0-1.1.4-1.1.4c-.1-.4-.4-1.1-1.4-1.1c-.6 0-1.1.4-1.1.9c0 .3.3.6.8.7c0 0 1 .3 1 .3c1.2.2 1.8.9 1.8 1.9c0 .9-.8 2-2.4 2c-1.7 0-2.5-1.1-2.6-1.9c0 0 1.1-.4 1.1-.4zm8.6.4c0-1.2.8-1.8 1.9-2c0 0 1.8-.3 1.8-.3c.4 0 .5-.2.5-.4c0-.7-.4-1.2-1.4-1.2c-.9 0-1.4.5-1.5 1.3c0 0-1.2-.3-1.2-.3c.1-1.2 1.3-2.1 2.7-2.1c1.9 0 2.7 1.1 2.7 2.4c0 0 0 3.3 0 3.3c0 .5 0 .9 0 1c0 0-1.2 0-1.2 0c0-.1-.1-.4-.1-.9c-.2.5-.9 1.1-2.1 1.1c-1.3 0-2.1-.9-2.1-1.9c0 0 0 0 0 0zm4.2-1.1c0 .03 0-.3 0-.3c0 0-1.99.33-2 .3c-.5.1-.9.4-.9 1c0 .5.4.9 1 .9c1.1 0 1.9-.5 1.9-1.9zm4.5 2.8l-1.3 0l0-6.5l1.3 0c0 0-.02.95 0 .9c.4-.8 1.2-1.1 2-1.1c1.5 0 2.3 1.1 2.3 2.6c0-.01 0 4.1 0 4.1l-1.3 0c0 0 .03-3.89 0-3.9c0-.9-.4-1.6-1.5-1.6c-1 0-1.5.8-1.5 1.8c0-.05 0 3.7 0 3.7zm7.6 0l-1.3 0l0-6.5l1.3 0c0 0-.04.95 0 .9c.4-.8 1.2-1.1 2-1.1c1.5 0 2.3 1.1 2.3 2.6c-.02-.01 0 4.1 0 4.1l-1.3 0c0 0 .02-3.89 0-3.9c0-.9-.4-1.6-1.5-1.6c-1 0-1.5.8-1.5 1.8c-.01-.05 0 3.7 0 3.7zm10.7-3.9c0-.9-.7-1.7-1.8-1.7c-1.1 0-1.7.9-1.8 1.7c0 0 3.6 0 3.6 0zm1.3 2.1c-.4 1.1-1.4 2-3 2c-1.7 0-3.2-1.3-3.2-3.5c0-2 1.5-3.4 3.1-3.4c2 0 3.1 1.4 3.1 3.4c0 .2 0 .3 0 .4c0 0-4.9 0-4.9 0c0 1.2.9 2 1.9 2c1.1 0 1.6-.6 1.9-1.3c0 0 1.1.4 1.1.4zm-2.6-5.5l-1.1 0l1.2-2l1.6 0l-1.7 2zm8.6 3.4c0-.9-.6-1.7-1.8-1.7c-1 0-1.7.9-1.8 1.7c0 0 3.6 0 3.6 0zm1.3 2.1c-.4 1.1-1.4 2-2.9 2c-1.8 0-3.3-1.3-3.3-3.5c0-2 1.5-3.4 3.1-3.4c2 0 3.1 1.4 3.1 3.4c0 .2 0 .3 0 .4c0 0-4.9 0-4.9 0c0 1.2.9 2 2 2c1 0 1.5-.6 1.8-1.3c0 0 1.1.4 1.1.4zm2.2-.3c.1.7.6 1.2 1.5 1.2c.7 0 1.1-.4 1.1-.8c0-.4-.3-.7-.8-.9c0 0-1.1-.2-1.1-.2c-1.1-.2-1.7-.9-1.7-1.8c0-1.1 1.1-2.1 2.3-2.1c1.8 0 2.4 1.2 2.5 1.8c0 0-1.1.4-1.1.4c-.1-.4-.3-1.1-1.4-1.1c-.6 0-1 .4-1 .9c0 .3.2.6.7.7c0 0 1.1.3 1.1.3c1.1.2 1.8.9 1.8 1.9c0 .9-.8 2-2.4 2c-1.8 0-2.6-1.1-2.7-1.9c0 0 1.2-.4 1.2-.4zm9.8.3c.5 0 .9.4.9.9c0 .6-.4 1-.9 1c-.5 0-.9-.4-.9-1c0-.5.4-.9.9-.9zm0-4.8c.5 0 .9.5.9 1c0 .5-.4.9-.9.9c-.5 0-.9-.4-.9-.9c0-.5.4-1 .9-1z" stroke="none" fill="#fff"/></g><g id="Polygon187809"><path d="m4.5 9.4c1.7 0 3.1-1 3.1-3.2c0-2.3-1.4-3.4-3.1-3.4c.05.03-1.7 0-1.7 0l0 6.6c0 0 1.74.04 1.7 0zm-3.3 1.5l0-9.5c0 0 3.4-.05 3.4 0c2.6 0 4.7 1.7 4.7 4.8c0 3-2.1 4.7-4.7 4.7c-.01.02-3.4 0-3.4 0zm15.5-1.3c1.6 0 3.2-1.2 3.2-3.5c0-2.3-1.6-3.4-3.2-3.4c-1.6 0-3.2 1.1-3.2 3.4c0 2.3 1.6 3.5 3.2 3.5zm0-8.5c2.5 0 4.9 1.9 4.9 5c0 3.2-2.4 5-4.9 5c-2.5 0-4.8-1.8-4.8-5c0-3.1 2.3-5 4.8-5zm12.9 2.9c-.1-.5-.6-1.4-1.9-1.4c-1 0-1.6.6-1.6 1.4c0 .6.3 1 1.1 1.2c0 0 1.4.3 1.4.3c1.7.3 2.6 1.4 2.6 2.7c0 1.5-1.2 2.9-3.4 2.9c-2.5 0-3.6-1.5-3.7-2.9c0 0 1.5-.5 1.5-.5c.1 1 .8 2 2.2 2c1.1 0 1.7-.6 1.7-1.4c0-.6-.4-1.1-1.3-1.3c0 0-1.3-.2-1.3-.2c-1.5-.3-2.5-1.3-2.5-2.7c0-1.6 1.5-3 3.3-3c2.3 0 3.1 1.4 3.3 2.5c0 0-1.4.4-1.4.4zm9.6 0c-.1-.5-.6-1.4-1.9-1.4c-1 0-1.7.6-1.7 1.4c0 .6.4 1 1.2 1.2c0 0 1.3.3 1.3.3c1.7.3 2.6 1.4 2.6 2.7c0 1.5-1.2 2.9-3.4 2.9c-2.4 0-3.5-1.5-3.7-2.9c0 0 1.6-.5 1.6-.5c0 1 .8 2 2.1 2c1.2 0 1.8-.6 1.8-1.4c0-.6-.5-1.1-1.3-1.3c0 0-1.4-.2-1.4-.2c-1.4-.3-2.4-1.3-2.4-2.7c0-1.6 1.5-3 3.3-3c2.2 0 3.1 1.4 3.3 2.5c0 0-1.4.4-1.4.4zm4.7 6.9l0-9.5l1.6 0l0 9.5l-1.6 0zm5.4 0l0-9.5l5.9 0l0 1.5l-4.3 0l0 2.5l3.9 0l0 1.5l-3.9 0l0 2.5l4.3 0l0 1.5l-5.9 0zm12.2-3.8l-1.2 0l0 3.8l-1.6 0l0-9.5c0 0 3.64-.05 3.6 0c1.9 0 3 1.2 3 2.9c0 1.3-.8 2.4-2.1 2.7c-.02-.02 2.1 3.9 2.1 3.9l-1.8 0l-2-3.8zm.5-1.4c1 0 1.7-.6 1.7-1.4c0-.9-.7-1.5-1.7-1.5c.04-.02-1.7 0-1.7 0l0 2.9c0 0 1.74.01 1.7 0zm16.1-1.7c-.1-.5-.6-1.4-1.9-1.4c-1 0-1.6.6-1.6 1.4c0 .6.3 1 1.1 1.2c0 0 1.4.3 1.4.3c1.6.3 2.5 1.4 2.5 2.7c0 1.5-1.2 2.9-3.3 2.9c-2.5 0-3.6-1.5-3.7-2.9c0 0 1.5-.5 1.5-.5c.1 1 .8 2 2.2 2c1.1 0 1.7-.6 1.7-1.4c0-.6-.5-1.1-1.3-1.3c0 0-1.3-.2-1.3-.2c-1.5-.3-2.5-1.3-2.5-2.7c0-1.6 1.5-3 3.3-3c2.2 0 3.1 1.4 3.3 2.5c0 0-1.4.4-1.4.4zm8 1.8c1.1 0 1.7-.6 1.7-1.5c0-.9-.6-1.5-1.7-1.5c.03-.02-1.7 0-1.7 0l0 3c0 0 1.73-.05 1.7 0zm-1.7 1.4l0 3.7l-1.6 0l0-9.5c0 0 3.57-.05 3.6 0c1.8 0 3 1.2 3 2.9c0 1.7-1.2 2.9-3 2.9c-.03-.02-2 0-2 0zm11.3-6.5l-1.4 0l1.3-1.7l2.1 0l-2 1.7zm-3.3 10.2l0-9.5l5.9 0l0 1.5l-4.3 0l0 2.5l3.9 0l0 1.5l-3.9 0l0 2.5l4.3 0l0 1.5l-5.9 0zm8.7-4.8c0-3.1 2.4-5 4.8-5c2.5 0 3.9 1.5 4.4 3.2c0 0-1.6.5-1.6.5c-.3-1.2-1.1-2.1-2.8-2.1c-1.5 0-3.1 1.1-3.1 3.4c0 2.3 1.5 3.5 3.2 3.5c1.6 0 2.5-1.1 2.8-2.1c0 0 1.5.5 1.5.5c-.4 1.6-1.9 3.1-4.3 3.1c-2.6 0-4.9-1.8-4.9-5zm12.3 4.8l0-9.5l1.7 0l0 9.5l-1.7 0zm11.1-2.4l-4.1 0l-.8 2.4l-1.8 0l3.8-9.5l1.8 0l3.8 9.5l-1.8 0l-.9-2.4zm-3.5-1.5l2.9 0l-1.4-3.9l-1.5 3.9zm8.9 3.9l0-9.5l1.7 0l0 8l4.3 0l0 1.5l-6 0z" stroke="none" fill="#fff"/></g></svg>