<?xml version="1.0" standalone="no"?><!DOCTYPE svg PUBLIC "-//W3C//DTD SVG 1.1//EN" "http://www.w3.org/Graphics/SVG/1.1/DTD/svg11.dtd"><svg xmlns="http://www.w3.org/2000/svg" version="1.1" width="144px" height="254.6px" viewBox="0 -3 144 254.6" style="top:-3px"><desc>Pour les entreprises partenaires nous proposons une solution de formation, de recrutement et d’accompagnement de A ...</desc><defs/><g id="Polygon162467"><path d="m1.1 244.8l0-6.5l1.2 0l0 6.5l-1.2 0zm.6-9.9c.5 0 .9.4.9 1c0 .5-.4.9-.9.9c-.5 0-.9-.4-.9-.9c0-.6.4-1 .9-1zm4.1 9.9l-1.3 0l0-6.5l1.2 0c0 0 .04.95 0 .9c.5-.8 1.3-1.1 2-1.1c1.6 0 2.4 1.1 2.4 2.6c-.04-.01 0 4.1 0 4.1l-1.3 0c0 0-.01-3.89 0-3.9c0-.9-.4-1.6-1.5-1.6c-1 0-1.5.8-1.5 1.8c-.04-.05 0 3.7 0 3.7zm9.3 0l-1.3 0l-2.7-6.5l1.5 0l1.8 5l1.9-5l1.3 0l-2.5 6.5zm7.9-3.9c0-.9-.6-1.7-1.8-1.7c-1 0-1.7.9-1.7 1.7c0 0 3.5 0 3.5 0zm1.3 2.1c-.4 1.1-1.4 2-2.9 2c-1.7 0-3.3-1.3-3.3-3.5c0-2 1.5-3.4 3.1-3.4c2 0 3.2 1.4 3.2 3.4c0 .2-.1.3-.1.4c0 0-4.9 0-4.9 0c.1 1.2.9 2 2 2c1.1 0 1.6-.6 1.8-1.3c0 0 1.1.4 1.1.4zm2.2-.3c.1.7.6 1.2 1.5 1.2c.7 0 1.1-.4 1.1-.8c0-.4-.3-.7-.8-.9c0 0-1.1-.2-1.1-.2c-1-.2-1.6-.9-1.6-1.8c0-1.1 1-2.1 2.3-2.1c1.8 0 2.3 1.2 2.4 1.8c0 0-1.1.4-1.1.4c0-.4-.3-1.1-1.3-1.1c-.7 0-1.1.4-1.1.9c0 .3.2.6.7.7c0 0 1.1.3 1.1.3c1.2.2 1.8.9 1.8 1.9c0 .9-.8 2-2.4 2c-1.8 0-2.5-1.1-2.6-1.9c0 0 1.1-.4 1.1-.4zm7.3-4.4l1.4 0l0 1.2l-1.4 0c0 0-.02 3.34 0 3.3c0 .6.2.9.9.9c.1 0 .4 0 .5 0c0 0 0 1.1 0 1.1c-.1 0-.5.1-.9.1c-1.1 0-1.8-.7-1.8-1.9c.01.03 0-3.5 0-3.5l-1.2 0l0-1.2c0 0 .32.02.3 0c.7 0 1-.4 1-1c.02.02 0-1 0-1l1.2 0l0 2zm3.1 6.5l0-6.5l1.2 0l0 6.5l-1.2 0zm.6-9.9c.5 0 .9.4.9 1c0 .5-.4.9-.9.9c-.5 0-.9-.4-.9-.9c0-.6.4-1 .9-1zm3.3 7.8c.1.7.6 1.2 1.5 1.2c.8 0 1.1-.4 1.1-.8c0-.4-.3-.7-.8-.9c0 0-1.1-.2-1.1-.2c-1-.2-1.6-.9-1.6-1.8c0-1.1 1-2.1 2.3-2.1c1.8 0 2.3 1.2 2.5 1.8c0 0-1.2.4-1.2.4c0-.4-.3-1.1-1.3-1.1c-.7 0-1.1.4-1.1.9c0 .3.2.6.7.7c0 0 1.1.3 1.1.3c1.2.2 1.8.9 1.8 1.9c0 .9-.8 2-2.4 2c-1.8 0-2.5-1.1-2.6-1.9c0 0 1.1-.4 1.1-.4zm6.1 0c.1.7.6 1.2 1.5 1.2c.8 0 1.1-.4 1.1-.8c0-.4-.3-.7-.8-.9c0 0-1.1-.2-1.1-.2c-1-.2-1.6-.9-1.6-1.8c0-1.1 1-2.1 2.3-2.1c1.8 0 2.3 1.2 2.5 1.8c0 0-1.2.4-1.2.4c0-.4-.3-1.1-1.3-1.1c-.7 0-1.1.4-1.1.9c0 .3.3.6.8.7c0 0 1 .3 1 .3c1.2.2 1.8.9 1.8 1.9c0 .9-.8 2-2.4 2c-1.8 0-2.5-1.1-2.6-1.9c0 0 1.1-.4 1.1-.4zm9.9-1.8c0-.9-.6-1.7-1.8-1.7c-1.1 0-1.7.9-1.8 1.7c0 0 3.6 0 3.6 0zm1.3 2.1c-.4 1.1-1.4 2-2.9 2c-1.8 0-3.3-1.3-3.3-3.5c0-2 1.5-3.4 3.1-3.4c2 0 3.1 1.4 3.1 3.4c0 .2 0 .3 0 .4c0 0-4.9 0-4.9 0c0 1.2.9 2 2 2c1 0 1.5-.6 1.8-1.3c0 0 1.1.4 1.1.4zm1.6 1.8l0-6.5l1.3 0c0 0-.05.88 0 .9c.4-.7 1.2-1.1 1.9-1.1c.8 0 1.6.4 2 1.3c.5-1 1.3-1.3 2.1-1.3c1.2 0 2.3.8 2.3 2.5c-.02 0 0 4.2 0 4.2l-1.3 0c0 0 .03-4.07 0-4.1c0-.8-.4-1.5-1.4-1.5c-.8 0-1.5.7-1.5 1.7c.05-.02 0 3.9 0 3.9l-1.2 0c0 0-.02-4.07 0-4.1c0-.8-.4-1.5-1.4-1.5c-.9 0-1.5.7-1.5 1.7c-.01-.01 0 3.9 0 3.9l-1.3 0zm16-3.9c0-.9-.7-1.7-1.8-1.7c-1.1 0-1.7.9-1.8 1.7c0 0 3.6 0 3.6 0zm1.3 2.1c-.4 1.1-1.4 2-3 2c-1.7 0-3.2-1.3-3.2-3.5c0-2 1.5-3.4 3.1-3.4c2 0 3.1 1.4 3.1 3.4c0 .2 0 .3 0 .4c0 0-4.9 0-4.9 0c0 1.2.9 2 1.9 2c1.1 0 1.6-.6 1.9-1.3c0 0 1.1.4 1.1.4zm2.9 1.8l-1.3 0l0-6.5l1.3 0c0 0-.04.95 0 .9c.4-.8 1.2-1.1 2-1.1c1.5 0 2.3 1.1 2.3 2.6c-.02-.01 0 4.1 0 4.1l-1.3 0c0 0 .02-3.89 0-3.9c0-.9-.4-1.6-1.5-1.6c-1 0-1.5.8-1.5 1.8c-.01-.05 0 3.7 0 3.7zm8-6.5l1.4 0l0 1.2l-1.4 0c0 0 .01 3.34 0 3.3c0 .6.3.9.9.9c.2 0 .4 0 .5 0c0 0 0 1.1 0 1.1c-.1 0-.4.1-.8.1c-1.2 0-1.9-.7-1.9-1.9c.04.03 0-3.5 0-3.5l-1.2 0l0-1.2c0 0 .35.02.4 0c.7 0 1-.4 1-1c-.05.02 0-1 0-1l1.1 0l0 2zm3.9 4.7c.5 0 .9.4.9.9c0 .6-.4 1-.9 1c-.5 0-.9-.4-.9-1c0-.5.4-.9.9-.9z" stroke="none" fill="#144542"/></g><g id="Polygon162466"><path d="m4.1 228.6l-1.3 0l-2.7-6.5l1.5 0l1.8 5l1.9-5l1.3 0l-2.5 6.5zm7.9-3.9c0-.9-.6-1.7-1.8-1.7c-1 0-1.7.9-1.7 1.7c0 0 3.5 0 3.5 0zm1.3 2.1c-.4 1.1-1.4 2-2.9 2c-1.7 0-3.3-1.3-3.3-3.5c0-2 1.5-3.4 3.1-3.4c2 0 3.2 1.4 3.2 3.4c0 .2-.1.3-.1.4c0 0-4.9 0-4.9 0c.1 1.2.9 2 2 2c1 0 1.6-.6 1.8-1.3c0 0 1.1.4 1.1.4zm-2.6-5.5l-1 0l1.2-2l1.5 0l-1.7 2zm7.9 2.1c-.2 0-.4 0-.6 0c-1 0-1.8.5-1.8 2c.04-.05 0 3.2 0 3.2l-1.2 0l0-6.5l1.2 0c0 0 .01 1.15 0 1.1c.5-.9 1.3-1.2 2-1.2c.1 0 .3 0 .4 0c0 0 0 1.4 0 1.4zm1.3 5.2l0-6.5l1.3 0l0 6.5l-1.3 0zm.6-9.9c.6 0 1 .4 1 1c0 .5-.4.9-1 .9c-.5 0-.9-.4-.9-.9c0-.6.4-1 .9-1zm4.5 3.4l1.4 0l0 1.2l-1.4 0c0 0 .04 3.34 0 3.3c0 .6.3.9.9.9c.2 0 .4 0 .5 0c0 0 0 1.1 0 1.1c-.1 0-.4.1-.8.1c-1.1 0-1.8-.7-1.8-1.9c-.03.03 0-3.5 0-3.5l-1.3 0l0-1.2c0 0 .38.02.4 0c.7 0 1-.4 1-1c-.02.02 0-1 0-1l1.1 0l0 2zm2.7 4.8c0-1.2.9-1.8 2-2c0 0 1.8-.3 1.8-.3c.3 0 .5-.2.5-.4c0-.7-.5-1.2-1.4-1.2c-.9 0-1.4.5-1.5 1.3c0 0-1.2-.3-1.2-.3c.1-1.2 1.2-2.1 2.6-2.1c2 0 2.7 1.1 2.7 2.4c0 0 0 3.3 0 3.3c0 .5.1.9.1 1c0 0-1.2 0-1.2 0c-.1-.1-.1-.4-.1-.9c-.3.5-.9 1.1-2.1 1.1c-1.3 0-2.2-.9-2.2-1.9c0 0 0 0 0 0zm4.3-1.1c-.05.03 0-.3 0-.3c0 0-2.03.33-2 .3c-.6.1-1 .4-1 1c0 .5.4.9 1.1.9c1 0 1.9-.5 1.9-1.9zm3.2 2.8l0-9.8l1.2 0c0 0 .05 4.23 0 4.2c.4-.5 1.1-1.1 2.2-1.1c2 0 3 1.5 3 3.4c0 2-1.1 3.5-3 3.5c-1 0-1.7-.4-2.2-1.1c.05-.04 0 .9 0 .9l-1.2 0zm3.2-5.6c-1.2 0-2 .9-2 2.3c0 1.4.8 2.4 2 2.4c1.1 0 1.9-1 1.9-2.4c0-1.4-.8-2.3-1.9-2.3zm4.8 5.6l0-9.8l1.3 0l0 9.8l-1.3 0zm7.8-3.9c0-.9-.6-1.7-1.8-1.7c-1 0-1.7.9-1.7 1.7c0 0 3.5 0 3.5 0zm1.3 2.1c-.4 1.1-1.4 2-2.9 2c-1.8 0-3.3-1.3-3.3-3.5c0-2 1.5-3.4 3.1-3.4c2 0 3.1 1.4 3.1 3.4c0 .2 0 .3 0 .4c0 0-4.9 0-4.9 0c0 1.2.9 2 2 2c1 0 1.5-.6 1.8-1.3c0 0 1.1.4 1.1.4zm8.6-3.4c-.2 0-.4 0-.5 0c-1.1 0-1.8.5-1.8 2c-.01-.05 0 3.2 0 3.2l-1.3 0l0-6.5l1.3 0c0 0-.04 1.15 0 1.1c.4-.9 1.2-1.2 1.9-1.2c.2 0 .4 0 .4 0c0 0 0 1.4 0 1.4zm5.7 1.3c0-.9-.7-1.7-1.8-1.7c-1.1 0-1.7.9-1.8 1.7c0 0 3.6 0 3.6 0zm1.3 2.1c-.4 1.1-1.4 2-3 2c-1.7 0-3.2-1.3-3.2-3.5c0-2 1.5-3.4 3.1-3.4c2 0 3.1 1.4 3.1 3.4c0 .2 0 .3 0 .4c0 0-4.9 0-4.9 0c0 1.2.9 2 1.9 2c1.1 0 1.6-.6 1.9-1.3c0 0 1.1.4 1.1.4zm3.3-4.7l1.4 0l0 1.2l-1.4 0c0 0 .02 3.34 0 3.3c0 .6.3.9.9.9c.2 0 .4 0 .5 0c0 0 0 1.1 0 1.1c-.1 0-.4.1-.8.1c-1.1 0-1.8-.7-1.8-1.9c-.04.03 0-3.5 0-3.5l-1.3 0l0-1.2c0 0 .37.02.4 0c.7 0 1-.4 1-1c-.04.02 0-1 0-1l1.1 0l0 2zm7.9 3.3c0-1.5-1-2.4-2.1-2.4c-1.1 0-2 .9-2 2.4c0 1.5.9 2.3 2 2.3c1.1 0 2.1-.8 2.1-2.3zm1.3 0c0 1.9-1.4 3.4-3.4 3.4c-1.9 0-3.3-1.5-3.3-3.4c0-2 1.4-3.5 3.3-3.5c2 0 3.4 1.5 3.4 3.5zm5.8 2.4c-.4.7-1.2 1-1.9 1c-1.5 0-2.5-1.1-2.5-2.6c.04.01 0-4.1 0-4.1l1.3 0c0 0 0 3.92 0 3.9c0 .9.4 1.7 1.5 1.7c1 0 1.5-.7 1.5-1.7c.02.03 0-3.9 0-3.9l1.3 0c0 0-.02 5.31 0 5.3c0 .5 0 1 .1 1.2c0 0-1.3 0-1.3 0c0-.1 0-.5 0-.8c0 0 0 0 0 0zm6.9-4.4c-.1 0-.3 0-.5 0c-1.1 0-1.8.5-1.8 2c.01-.05 0 3.2 0 3.2l-1.3 0l0-6.5l1.3 0c0 0-.01 1.15 0 1.1c.5-.9 1.3-1.2 1.9-1.2c.2 0 .4 0 .4 0c0 0 0 1.4 0 1.4zm5.3 3.1c.1.7.6 1.2 1.5 1.2c.7 0 1.1-.4 1.1-.8c0-.4-.3-.7-.8-.9c0 0-1.1-.2-1.1-.2c-1-.2-1.6-.9-1.6-1.8c0-1.1 1-2.1 2.3-2.1c1.8 0 2.3 1.2 2.4 1.8c0 0-1.1.4-1.1.4c0-.4-.3-1.1-1.3-1.1c-.7 0-1.1.4-1.1.9c0 .3.2.6.7.7c0 0 1.1.3 1.1.3c1.2.2 1.8.9 1.8 1.9c0 .9-.8 2-2.4 2c-1.8 0-2.5-1.1-2.6-1.9c0 0 1.1-.4 1.1-.4zm9.8 1.3c-.4.7-1.2 1-1.9 1c-1.5 0-2.5-1.1-2.5-2.6c.04.01 0-4.1 0-4.1l1.3 0c0 0 .01 3.92 0 3.9c0 .9.4 1.7 1.5 1.7c1 0 1.5-.7 1.5-1.7c.02.03 0-3.9 0-3.9l1.3 0c0 0-.01 5.31 0 5.3c0 .5 0 1 .1 1.2c0 0-1.3 0-1.3 0c0-.1 0-.5 0-.8c0 0 0 0 0 0zm7-4.4c-.2 0-.4 0-.6 0c-1.1 0-1.8.5-1.8 2c.02-.05 0 3.2 0 3.2l-1.2 0l0-6.5l1.2 0c0 0-.01 1.15 0 1.1c.5-.9 1.3-1.2 1.9-1.2c.2 0 .4 0 .5 0c0 0 0 1.4 0 1.4z" stroke="none" fill="#144542"/></g><g id="Polygon162465"><path d="m3.7 211.5c1.2 0 1.9-1 1.9-2.4c0-1.3-.7-2.2-1.8-2.2c-1.2 0-2 .9-2 2.2c0 1.4.7 2.4 1.9 2.4zm1.9-.1c-.3.6-1 1.2-2 1.2c-1.9 0-3.1-1.5-3.1-3.5c0-1.8 1.3-3.4 3.1-3.4c1.2 0 1.8.6 2 1.1c0 .03 0-4.2 0-4.2l1.3 0c0 0-.04 8.61 0 8.6c0 .6 0 1.1 0 1.2c0 0-1.2 0-1.2 0c0-.1-.1-.5-.1-.9c0 0 0-.1 0-.1zm3.8-8.7c.5 0 1 .4 1 1.2c0 1.7-1.1 2.4-1.8 2.5c0 0 0-.7 0-.7c.6-.1 1-.7 1-1.4c0 .1-.1.1-.3.1c-.4 0-.8-.3-.8-.8c0-.5.4-.9.9-.9zm2.6 9.7l0-6.5l1.3 0l0 6.5l-1.3 0zm.7-9.9c.5 0 .9.4.9 1c0 .5-.4.9-.9.9c-.5 0-.9-.4-.9-.9c0-.6.4-1 .9-1zm4 9.9l-1.2 0l0-6.5l1.2 0c0 0 0 .95 0 .9c.5-.8 1.2-1.1 2-1.1c1.6 0 2.3 1.1 2.3 2.6c.02-.01 0 4.1 0 4.1l-1.2 0c0 0-.05-3.89 0-3.9c0-.9-.4-1.6-1.6-1.6c-1 0-1.5.8-1.5 1.8c.03-.05 0 3.7 0 3.7zm7.1-3.2c0 1.4.9 2.2 2 2.2c1.2 0 1.6-.8 1.8-1.3c0 0 1.1.5 1.1.5c-.3.9-1.2 2-2.9 2c-1.9 0-3.3-1.5-3.3-3.4c0-2.1 1.4-3.5 3.3-3.5c1.7 0 2.6 1.1 2.9 2.1c0 0-1.2.5-1.2.5c-.2-.7-.6-1.4-1.7-1.4c-1.1 0-2 .7-2 2.3zm6.4 3.2l0-9.8l1.3 0l0 9.8l-1.3 0zm7.6-.8c-.3.7-1.1 1-1.9 1c-1.5 0-2.4-1.1-2.4-2.6c-.01.01 0-4.1 0-4.1l1.3 0c0 0-.04 3.92 0 3.9c0 .9.4 1.7 1.4 1.7c1.1 0 1.6-.7 1.6-1.7c-.03.03 0-3.9 0-3.9l1.2 0c0 0 .04 5.31 0 5.3c0 .5.1 1 .1 1.2c0 0-1.2 0-1.2 0c0-.1-.1-.5-.1-.8c0 0 0 0 0 0zm3.9-1.3c.1.7.6 1.2 1.6 1.2c.7 0 1.1-.4 1.1-.8c0-.4-.3-.7-.9-.9c0 0-1.1-.2-1.1-.2c-1-.2-1.6-.9-1.6-1.8c0-1.1 1-2.1 2.3-2.1c1.8 0 2.3 1.2 2.5 1.8c0 0-1.1.4-1.1.4c-.1-.4-.4-1.1-1.4-1.1c-.6 0-1.1.4-1.1.9c0 .3.3.6.8.7c0 0 1 .3 1 .3c1.2.2 1.8.9 1.8 1.9c0 .9-.8 2-2.4 2c-1.7 0-2.5-1.1-2.6-1.9c0 0 1.1-.4 1.1-.4zm5.6 2.1l0-6.5l1.3 0l0 6.5l-1.3 0zm.6-9.9c.5 0 .9.4.9 1c0 .5-.4.9-.9.9c-.5 0-.9-.4-.9-.9c0-.6.4-1 .9-1zm7.6 6.7c0-1.5-.9-2.4-2-2.4c-1.1 0-2 .9-2 2.4c0 1.5.9 2.3 2 2.3c1.1 0 2-.8 2-2.3zm1.3 0c0 1.9-1.4 3.4-3.3 3.4c-1.9 0-3.3-1.5-3.3-3.4c0-2 1.4-3.5 3.3-3.5c1.9 0 3.3 1.5 3.3 3.5zm2.9 3.2l-1.3 0l0-6.5l1.3 0c0 0-.02.95 0 .9c.5-.8 1.2-1.1 2-1.1c1.5 0 2.3 1.1 2.3 2.6c0-.01 0 4.1 0 4.1l-1.3 0c0 0 .03-3.89 0-3.9c0-.9-.3-1.6-1.5-1.6c-1 0-1.5.8-1.5 1.8c.01-.05 0 3.7 0 3.7zm14.5-3.2c0-1.5-.9-2.4-2-2.4c-1.1 0-2 .9-2 2.4c0 1.5.9 2.3 2 2.3c1.1 0 2-.8 2-2.3zm1.3 0c0 1.9-1.4 3.4-3.3 3.4c-2 0-3.3-1.5-3.3-3.4c0-2 1.3-3.5 3.3-3.5c1.9 0 3.3 1.5 3.3 3.5zm7.6-4.3c-.01-.01 0 1 0 1l1.6 0l0 1.2l-1.6 0l0 5.3l-1.3 0l0-5.3l-3 0l0 5.3l-1.3 0l0-5.3l-1.2 0l0-1.2l1.2 0c0 0 .02-1.08 0-1.1c0-1.4 1-2.2 2.1-2.2c.5 0 .8.1.8.1c0 0 0 1.2 0 1.2c-.1-.1-.2-.1-.5-.1c-.5 0-1.1.2-1.1 1.1c.02-.01 0 1 0 1l3 0c0 0-.02-1.08 0-1.1c0-1.4.9-2.2 2.1-2.2c.4 0 .7.1.8.1c0 0 0 1.2 0 1.2c-.1-.1-.3-.1-.6-.1c-.4 0-1 .2-1 1.1zm6.5 2.3c-.2 0-.4 0-.5 0c-1.1 0-1.8.5-1.8 2c-.01-.05 0 3.2 0 3.2l-1.3 0l0-6.5l1.3 0c0 0-.04 1.15 0 1.1c.4-.9 1.2-1.2 1.9-1.2c.2 0 .4 0 .4 0c0 0 0 1.4 0 1.4zm1 3.5c0-1.2.8-1.8 1.9-2c0 0 1.8-.3 1.8-.3c.4 0 .5-.2.5-.4c0-.7-.4-1.2-1.4-1.2c-.9 0-1.4.5-1.5 1.3c0 0-1.2-.3-1.2-.3c.1-1.2 1.3-2.1 2.7-2.1c1.9 0 2.7 1.1 2.7 2.4c0 0 0 3.3 0 3.3c0 .5 0 .9 0 1c0 0-1.2 0-1.2 0c0-.1-.1-.4-.1-.9c-.2.5-.9 1.1-2.1 1.1c-1.3 0-2.1-.9-2.1-1.9c0 0 0 0 0 0zm4.2-1.1c0 .03 0-.3 0-.3c0 0-1.99.33-2 .3c-.5.1-.9.4-.9 1c0 .5.4.9 1 .9c1.1 0 1.9-.5 1.9-1.9zm4.5 2.8l-1.3 0l0-6.5l1.3 0c0 0-.02.95 0 .9c.4-.8 1.2-1.1 2-1.1c1.5 0 2.3 1.1 2.3 2.6c0-.01 0 4.1 0 4.1l-1.3 0c0 0 .03-3.89 0-3.9c0-.9-.3-1.6-1.5-1.6c-1 0-1.5.8-1.5 1.8c0-.05 0 3.7 0 3.7zm8-6.5l1.4 0l0 1.2l-1.4 0c0 0 .02 3.34 0 3.3c0 .6.3.9.9.9c.2 0 .4 0 .5 0c0 0 0 1.1 0 1.1c-.1 0-.4.1-.8.1c-1.1 0-1.8-.7-1.8-1.9c-.04.03 0-3.5 0-3.5l-1.3 0l0-1.2c0 0 .36.02.4 0c.7 0 1-.4 1-1c-.04.02 0-1 0-1l1.1 0l0 2zm10.8 5.7c-.4.7-1.2 1-1.9 1c-1.6 0-2.5-1.1-2.5-2.6c.02.01 0-4.1 0-4.1l1.3 0c0 0-.01 3.92 0 3.9c0 .9.4 1.7 1.5 1.7c1 0 1.5-.7 1.5-1.7c0 .03 0-3.9 0-3.9l1.3 0c0 0-.03 5.31 0 5.3c0 .5 0 1 0 1.2c0 0-1.2 0-1.2 0c0-.1 0-.5 0-.8c0 0 0 0 0 0zm4.6.8l-1.3 0l0-6.5l1.3 0c0 0-.03.95 0 .9c.4-.8 1.2-1.1 2-1.1c1.5 0 2.3 1.1 2.3 2.6c-.01-.01 0 4.1 0 4.1l-1.3 0c0 0 .03-3.89 0-3.9c0-.9-.4-1.6-1.5-1.6c-1 0-1.5.8-1.5 1.8c0-.05 0 3.7 0 3.7z" stroke="none" fill="#144542"/></g><g id="Polygon162464"><path d="m3.7 195.3c1.2 0 1.9-1 1.9-2.4c0-1.3-.7-2.2-1.8-2.2c-1.2 0-2 .9-2 2.2c0 1.4.7 2.4 1.9 2.4zm1.9-.1c-.3.6-1 1.2-2 1.2c-1.9 0-3.1-1.5-3.1-3.5c0-1.8 1.3-3.4 3.1-3.4c1.2 0 1.8.6 2 1.1c0 .03 0-4.2 0-4.2l1.3 0c0 0-.04 8.61 0 8.6c0 .6 0 1.1 0 1.2c0 0-1.2 0-1.2 0c0-.1-.1-.5-.1-.9c0 0 0-.1 0-.1zm7.8-2.9c0-.9-.6-1.7-1.8-1.7c-1.1 0-1.7.9-1.8 1.7c0 0 3.6 0 3.6 0zm1.3 2.1c-.4 1.1-1.4 2-2.9 2c-1.8 0-3.3-1.3-3.3-3.5c0-2 1.5-3.4 3.1-3.4c2 0 3.1 1.4 3.1 3.4c0 .2 0 .3 0 .4c0 0-4.9 0-4.9 0c0 1.2.9 2 2 2c1 0 1.5-.6 1.8-1.3c0 0 1.1.4 1.1.4zm-2.6-5.5l-1.1 0l1.2-2l1.6 0l-1.7 2zm4.2 9.9l0-9.1l1.3 0c0 0-.04 1.03 0 1c.3-.6 1.1-1.1 2.1-1.1c2 0 3 1.5 3 3.4c0 1.9-1.1 3.4-3 3.4c-1 0-1.8-.5-2.1-1.1c-.01.03 0 3.5 0 3.5l-1.3 0zm5.1-5.8c0-1.3-.7-2.3-1.9-2.3c-1.2 0-1.9 1-1.9 2.3c0 1.3.7 2.3 1.9 2.3c1.2 0 1.9-1 1.9-2.3c0 0 0 0 0 0zm2.9 3.2l0-9.8l1.3 0l0 9.8l-1.3 0zm8.3-3.2c0-1.5-1-2.4-2-2.4c-1.1 0-2.1.9-2.1 2.4c0 1.5 1 2.3 2.1 2.3c1 0 2-.8 2-2.3zm1.3 0c0 1.9-1.4 3.4-3.3 3.4c-2 0-3.4-1.5-3.4-3.4c0-2 1.4-3.5 3.4-3.5c1.9 0 3.3 1.5 3.3 3.5zm1.6 5.9l1.6-3.4l-2.8-5.8l1.4 0l2.1 4.5l1.9-4.5l1.4 0l-4.3 9.2l-1.3 0zm10.9-6.6c0-.9-.6-1.7-1.8-1.7c-1.1 0-1.7.9-1.8 1.7c0 0 3.6 0 3.6 0zm1.3 2.1c-.4 1.1-1.4 2-2.9 2c-1.8 0-3.3-1.3-3.3-3.5c0-2 1.5-3.4 3.1-3.4c2 0 3.1 1.4 3.1 3.4c0 .2 0 .3 0 .4c0 0-4.9 0-4.9 0c0 1.2.9 2 2 2c1 0 1.5-.6 1.8-1.3c0 0 1.1.4 1.1.4zm5.2-3.4c-.2 0-.3 0-.5 0c-1.1 0-1.8.5-1.8 2c0-.05 0 3.2 0 3.2l-1.3 0l0-6.5l1.3 0c0 0-.03 1.15 0 1.1c.4-.9 1.3-1.2 1.9-1.2c.2 0 .4 0 .4 0c0 0 0 1.4 0 1.4zm7.4 4.3c1.2 0 1.9-1 1.9-2.4c0-1.3-.7-2.2-1.9-2.2c-1.1 0-1.9.9-1.9 2.2c0 1.4.7 2.4 1.9 2.4zm1.9-.1c-.3.6-1 1.2-2 1.2c-1.9 0-3.1-1.5-3.1-3.5c0-1.8 1.3-3.4 3.1-3.4c1.1 0 1.8.6 2 1.1c-.02.03 0-4.2 0-4.2l1.2 0c0 0 .04 8.61 0 8.6c0 .6.1 1.1.1 1.2c0 0-1.2 0-1.2 0c-.1-.1-.1-.5-.1-.9c0 0 0-.1 0-.1zm7.8-2.9c-.1-.9-.7-1.7-1.8-1.7c-1.1 0-1.7.9-1.8 1.7c0 0 3.6 0 3.6 0zm1.3 2.1c-.4 1.1-1.5 2-3 2c-1.7 0-3.2-1.3-3.2-3.5c0-2 1.4-3.4 3.1-3.4c2 0 3.1 1.4 3.1 3.4c0 .2 0 .3 0 .4c0 0-4.9 0-4.9 0c0 1.2.8 2 1.9 2c1.1 0 1.6-.6 1.9-1.3c0 0 1.1.4 1.1.4zm2.2-.3c0 .7.5 1.2 1.5 1.2c.7 0 1.1-.4 1.1-.8c0-.4-.3-.7-.9-.9c0 0-1.1-.2-1.1-.2c-1-.2-1.6-.9-1.6-1.8c0-1.1 1-2.1 2.3-2.1c1.8 0 2.4 1.2 2.5 1.8c0 0-1.1.4-1.1.4c-.1-.4-.4-1.1-1.4-1.1c-.6 0-1.1.4-1.1.9c0 .3.3.6.8.7c0 0 1 .3 1 .3c1.2.2 1.8.9 1.8 1.9c0 .9-.7 2-2.3 2c-1.8 0-2.6-1.1-2.7-1.9c0 0 1.2-.4 1.2-.4zm8.5.4c0-1.2.8-1.8 2-2c0 0 1.7-.3 1.7-.3c.4 0 .5-.2.5-.4c0-.7-.4-1.2-1.4-1.2c-.9 0-1.4.5-1.5 1.3c0 0-1.2-.3-1.2-.3c.2-1.2 1.3-2.1 2.7-2.1c1.9 0 2.7 1.1 2.7 2.4c0 0 0 3.3 0 3.3c0 .5 0 .9.1 1c0 0-1.3 0-1.3 0c0-.1 0-.4 0-.9c-.3.5-1 1.1-2.1 1.1c-1.4 0-2.2-.9-2.2-1.9c0 0 0 0 0 0zm4.2-1.1c.01.03 0-.3 0-.3c0 0-1.97.33-2 .3c-.5.1-.9.4-.9 1c0 .5.4.9 1 .9c1.1 0 1.9-.5 1.9-1.9zm4-.4c0 1.4.9 2.2 2 2.2c1.2 0 1.7-.8 1.8-1.3c0 0 1.1.5 1.1.5c-.3.9-1.2 2-2.9 2c-1.9 0-3.3-1.5-3.3-3.4c0-2.1 1.4-3.5 3.3-3.5c1.7 0 2.6 1.1 2.9 2.1c0 0-1.2.5-1.2.5c-.1-.7-.6-1.4-1.7-1.4c-1 0-2 .7-2 2.3zm8.1-3.3l1.4 0l0 1.2l-1.4 0c0 0 .01 3.34 0 3.3c0 .6.2.9.9.9c.2 0 .4 0 .5 0c0 0 0 1.1 0 1.1c-.1 0-.4.1-.9.1c-1.1 0-1.8-.7-1.8-1.9c.04.03 0-3.5 0-3.5l-1.2 0l0-1.2c0 0 .35.02.3 0c.7 0 1-.4 1-1c.05.02 0-1 0-1l1.2 0l0 2zm3.1 6.5l0-6.5l1.3 0l0 6.5l-1.3 0zm.6-9.9c.5 0 .9.4.9 1c0 .5-.4.9-.9.9c-.5 0-.9-.4-.9-.9c0-.6.4-1 .9-1zm7.6 6.7c0-1.5-.9-2.4-2-2.4c-1.1 0-2 .9-2 2.4c0 1.5.9 2.3 2 2.3c1.1 0 2-.8 2-2.3zm1.3 0c0 1.9-1.4 3.4-3.3 3.4c-2 0-3.3-1.5-3.3-3.4c0-2 1.3-3.5 3.3-3.5c1.9 0 3.3 1.5 3.3 3.5zm2.9 3.2l-1.3 0l0-6.5l1.3 0c0 0-.02.95 0 .9c.4-.8 1.2-1.1 2-1.1c1.5 0 2.3 1.1 2.3 2.6c0-.01 0 4.1 0 4.1l-1.3 0c0 0 .03-3.89 0-3.9c0-.9-.3-1.6-1.5-1.6c-1 0-1.5.8-1.5 1.8c0-.05 0 3.7 0 3.7zm6.9-2.1c0 .7.6 1.2 1.5 1.2c.7 0 1.1-.4 1.1-.8c0-.4-.3-.7-.9-.9c0 0-1.1-.2-1.1-.2c-1-.2-1.6-.9-1.6-1.8c0-1.1 1.1-2.1 2.3-2.1c1.8 0 2.4 1.2 2.5 1.8c0 0-1.1.4-1.1.4c-.1-.4-.3-1.1-1.4-1.1c-.6 0-1.1.4-1.1.9c0 .3.3.6.8.7c0 0 1 .3 1 .3c1.2.2 1.8.9 1.8 1.9c0 .9-.7 2-2.3 2c-1.8 0-2.6-1.1-2.7-1.9c0 0 1.2-.4 1.2-.4z" stroke="none" fill="#144542"/></g><g id="Polygon162463"><path d="m5.5 176.1c-.1-.9-.7-1.7-1.8-1.7c-1.1 0-1.7.9-1.8 1.7c0 0 3.6 0 3.6 0zm1.2 2.1c-.3 1.1-1.4 2-2.9 2c-1.7 0-3.2-1.3-3.2-3.5c0-2 1.4-3.4 3.1-3.4c2 0 3.1 1.4 3.1 3.4c0 .2 0 .3-.1.4c0 0-4.8 0-4.8 0c0 1.2.8 2 1.9 2c1.1 0 1.6-.6 1.8-1.3c0 0 1.1.4 1.1.4zm3 1.8l-1.3 0l0-6.5l1.2 0c0 0 .04.95 0 .9c.5-.8 1.3-1.1 2-1.1c1.6 0 2.4 1.1 2.4 2.6c-.04-.01 0 4.1 0 4.1l-1.3 0c0 0-.01-3.89 0-3.9c0-.9-.4-1.6-1.5-1.6c-1 0-1.5.8-1.5 1.8c-.03-.05 0 3.7 0 3.7zm11.4-6.5l1.4 0l0 1.2l-1.4 0c0 0-.04 3.34 0 3.3c0 .6.2.9.9.9c.1 0 .4 0 .5 0c0 0 0 1.1 0 1.1c-.1 0-.5.1-.9.1c-1.1 0-1.8-.7-1.8-1.9c-.01.03 0-3.5 0-3.5l-1.3 0l0-1.2c0 0 .4.02.4 0c.7 0 1-.4 1-1c0 .02 0-1 0-1l1.2 0l0 2zm7.4 2.6c-.1-.9-.7-1.7-1.8-1.7c-1.1 0-1.7.9-1.8 1.7c0 0 3.6 0 3.6 0zm1.2 2.1c-.3 1.1-1.4 2-2.9 2c-1.7 0-3.2-1.3-3.2-3.5c0-2 1.4-3.4 3.1-3.4c2 0 3.1 1.4 3.1 3.4c0 .2 0 .3 0 .4c0 0-4.9 0-4.9 0c0 1.2.8 2 1.9 2c1.1 0 1.6-.6 1.8-1.3c0 0 1.1.4 1.1.4zm3 1.8l-1.3 0l0-6.5l1.2 0c0 0 .04.95 0 .9c.5-.8 1.3-1.1 2-1.1c1.6 0 2.4 1.1 2.4 2.6c-.04-.01 0 4.1 0 4.1l-1.3 0c0 0-.01-3.89 0-3.9c0-.9-.4-1.6-1.5-1.6c-1 0-1.5.8-1.5 1.8c-.03-.05 0 3.7 0 3.7zm6.8-2.1c.1.7.6 1.2 1.5 1.2c.8 0 1.1-.4 1.1-.8c0-.4-.2-.7-.8-.9c0 0-1.1-.2-1.1-.2c-1-.2-1.6-.9-1.6-1.8c0-1.1 1-2.1 2.3-2.1c1.8 0 2.3 1.2 2.5 1.8c0 0-1.2.4-1.2.4c0-.4-.3-1.1-1.3-1.1c-.7 0-1.1.4-1.1.9c0 .3.3.6.8.7c0 0 1 .3 1 .3c1.2.2 1.8.9 1.8 1.9c0 .9-.8 2-2.4 2c-1.8 0-2.5-1.1-2.6-1.9c0 0 1.1-.4 1.1-.4zm5.6 2.1l0-6.5l1.2 0l0 6.5l-1.2 0zm.6-9.9c.5 0 .9.4.9 1c0 .5-.4.9-.9.9c-.5 0-.9-.4-.9-.9c0-.6.4-1 .9-1zm7.6 6.7c0-1.5-.9-2.4-2-2.4c-1.1 0-2 .9-2 2.4c0 1.5.9 2.3 2 2.3c1.1 0 2-.8 2-2.3zm1.3 0c0 1.9-1.4 3.4-3.3 3.4c-2 0-3.3-1.5-3.3-3.4c0-2 1.3-3.5 3.3-3.5c1.9 0 3.3 1.5 3.3 3.5zm2.9 3.2l-1.3 0l0-6.5l1.3 0c0 0-.03.95 0 .9c.4-.8 1.2-1.1 2-1.1c1.5 0 2.3 1.1 2.3 2.6c-.01-.01 0 4.1 0 4.1l-1.3 0c0 0 .02-3.89 0-3.9c0-.9-.4-1.6-1.5-1.6c-1 0-1.5.8-1.5 1.8c0-.05 0 3.7 0 3.7zm14.5-3.2c0-1.5-.9-2.4-2-2.4c-1.1 0-2.1.9-2.1 2.4c0 1.5 1 2.3 2.1 2.3c1.1 0 2-.8 2-2.3zm1.3 0c0 1.9-1.4 3.4-3.3 3.4c-2 0-3.4-1.5-3.4-3.4c0-2 1.4-3.5 3.4-3.5c1.9 0 3.3 1.5 3.3 3.5zm5.8 2.4c-.3.7-1.1 1-1.9 1c-1.5 0-2.4-1.1-2.4-2.6c-.02.01 0-4.1 0-4.1l1.2 0c0 0 .04 3.92 0 3.9c0 .9.4 1.7 1.5 1.7c1 0 1.6-.7 1.6-1.7c-.04.03 0-3.9 0-3.9l1.2 0c0 0 .02 5.31 0 5.3c0 .5.1 1 .1 1.2c0 0-1.2 0-1.2 0c0-.1-.1-.5-.1-.8c0 0 0 0 0 0zm9.4-.1c1.2 0 1.9-1 1.9-2.4c0-1.3-.7-2.2-1.9-2.2c-1.1 0-1.9.9-1.9 2.2c0 1.4.7 2.4 1.9 2.4zm1.9-.1c-.3.6-1 1.2-2 1.2c-1.9 0-3.1-1.5-3.1-3.5c0-1.8 1.3-3.4 3.1-3.4c1.1 0 1.8.6 2 1.1c-.02.03 0-4.2 0-4.2l1.2 0c0 0 .04 8.61 0 8.6c0 .6.1 1.1.1 1.2c0 0-1.2 0-1.2 0c0-.1-.1-.5-.1-.9c0 0 0-.1 0-.1zm7.8-2.9c-.1-.9-.7-1.7-1.8-1.7c-1.1 0-1.7.9-1.8 1.7c0 0 3.6 0 3.6 0zm1.3 2.1c-.4 1.1-1.4 2-3 2c-1.7 0-3.2-1.3-3.2-3.5c0-2 1.4-3.4 3.1-3.4c2 0 3.1 1.4 3.1 3.4c0 .2 0 .3 0 .4c0 0-4.9 0-4.9 0c0 1.2.8 2 1.9 2c1.1 0 1.6-.6 1.9-1.3c0 0 1.1.4 1.1.4z" stroke="none" fill="#144542"/></g><g id="Polygon162462"><path d="m2.8 158.5l0 5.3l-1.3 0l0-5.3l-1.2 0l0-1.2l1.2 0c0 0-.03-1.08 0-1.1c0-1.4.9-2.2 2.1-2.2c.4 0 .7.1.8.1c0 0 0 1.2 0 1.2c-.1-.1-.3-.1-.6-.1c-.4 0-1 .2-1 1.1c-.02-.01 0 1 0 1l1.5 0l0 1.2l-1.5 0zm2.3 3.6c0-1.2.9-1.8 2-2c0 0 1.7-.3 1.7-.3c.4 0 .5-.2.5-.4c0-.7-.4-1.2-1.4-1.2c-.9 0-1.4.5-1.4 1.3c0 0-1.3-.3-1.3-.3c.2-1.2 1.3-2.1 2.7-2.1c1.9 0 2.7 1.1 2.7 2.4c0 0 0 3.3 0 3.3c0 .5.1.9.1 1c0 0-1.3 0-1.3 0c0-.1 0-.4 0-.9c-.3.5-1 1.1-2.1 1.1c-1.3 0-2.2-.9-2.2-1.9c0 0 0 0 0 0zm4.2-1.1c.03.03 0-.3 0-.3c0 0-1.96.33-2 .3c-.5.1-.9.4-.9 1c0 .5.4.9 1.1.9c1 0 1.8-.5 1.8-1.9zm4-.4c0 1.4 1 2.2 2 2.2c1.2 0 1.7-.8 1.8-1.3c0 0 1.1.5 1.1.5c-.3.9-1.2 2-2.9 2c-1.9 0-3.3-1.5-3.3-3.4c0-2.1 1.4-3.5 3.3-3.5c1.7 0 2.6 1.1 2.9 2.1c0 0-1.2.5-1.2.5c-.1-.7-.6-1.4-1.7-1.4c-1 0-2 .7-2 2.3zm10.7-.7c0-.9-.6-1.7-1.8-1.7c-1 0-1.7.9-1.7 1.7c0 0 3.5 0 3.5 0zm1.3 2.1c-.4 1.1-1.4 2-2.9 2c-1.7 0-3.3-1.3-3.3-3.5c0-2 1.5-3.4 3.1-3.4c2 0 3.2 1.4 3.2 3.4c0 .2-.1.3-.1.4c0 0-4.9 0-4.9 0c.1 1.2.9 2 2 2c1 0 1.6-.6 1.8-1.3c0 0 1.1.4 1.1.4zm4.6.1c0-1.2.9-1.8 2-2c0 0 1.8-.3 1.8-.3c.4 0 .5-.2.5-.4c0-.7-.4-1.2-1.4-1.2c-.9 0-1.4.5-1.5 1.3c0 0-1.2-.3-1.2-.3c.1-1.2 1.2-2.1 2.6-2.1c2 0 2.7 1.1 2.7 2.4c0 0 0 3.3 0 3.3c0 .5.1.9.1 1c0 0-1.2 0-1.2 0c0-.1-.1-.4-.1-.9c-.3.5-.9 1.1-2.1 1.1c-1.3 0-2.2-.9-2.2-1.9c0 0 0 0 0 0zm4.3-1.1c-.03.03 0-.3 0-.3c0 0-2.02.33-2 .3c-.6.1-1 .4-1 1c0 .5.4.9 1.1.9c1 0 1.9-.5 1.9-1.9zm-3.5-6.5l1.6 0l1.2 2l-1.1 0l-1.7-2zm12.7 8.4c1.2 0 1.9-1 1.9-2.4c0-1.3-.7-2.2-1.8-2.2c-1.2 0-2 .9-2 2.2c0 1.4.7 2.4 1.9 2.4zm1.9-.1c-.3.6-1 1.2-2 1.2c-1.9 0-3.1-1.5-3.1-3.5c0-1.8 1.3-3.4 3.1-3.4c1.2 0 1.8.6 2 1.1c.01.03 0-4.2 0-4.2l1.3 0c0 0-.04 8.61 0 8.6c0 .6 0 1.1 0 1.2c0 0-1.2 0-1.2 0c0-.1-.1-.5-.1-.9c0 0 0-.1 0-.1zm7.8-2.9c0-.9-.6-1.7-1.8-1.7c-1.1 0-1.7.9-1.8 1.7c0 0 3.6 0 3.6 0zm1.3 2.1c-.4 1.1-1.4 2-2.9 2c-1.8 0-3.3-1.3-3.3-3.5c0-2 1.5-3.4 3.1-3.4c2 0 3.1 1.4 3.1 3.4c0 .2 0 .3 0 .4c0 0-4.9 0-4.9 0c0 1.2.9 2 2 2c1 0 1.5-.6 1.8-1.3c0 0 1.1.4 1.1.4zm2.2-.3c.1.7.6 1.2 1.5 1.2c.7 0 1.1-.4 1.1-.8c0-.4-.3-.7-.8-.9c0 0-1.1-.2-1.1-.2c-1.1-.2-1.7-.9-1.7-1.8c0-1.1 1.1-2.1 2.3-2.1c1.8 0 2.4 1.2 2.5 1.8c0 0-1.1.4-1.1.4c-.1-.4-.3-1.1-1.4-1.1c-.6 0-1 .4-1 .9c0 .3.2.6.7.7c0 0 1.1.3 1.1.3c1.1.2 1.8.9 1.8 1.9c0 .9-.8 2-2.4 2c-1.8 0-2.6-1.1-2.7-1.9c0 0 1.2-.4 1.2-.4zm8.9 2.1l0-6.5l1.2 0c0 0 .03.88 0 .9c.4-.7 1.2-1.1 2-1.1c.8 0 1.6.4 1.9 1.3c.6-1 1.4-1.3 2.2-1.3c1.2 0 2.3.8 2.3 2.5c-.04 0 0 4.2 0 4.2l-1.3 0c0 0 0-4.07 0-4.1c0-.8-.4-1.5-1.4-1.5c-.9 0-1.5.7-1.5 1.7c.03-.02 0 3.9 0 3.9l-1.2 0c0 0-.04-4.07 0-4.1c0-.8-.4-1.5-1.4-1.5c-.9 0-1.5.7-1.5 1.7c-.03-.01 0 3.9 0 3.9l-1.3 0zm16-3.9c-.1-.9-.7-1.7-1.8-1.7c-1.1 0-1.7.9-1.8 1.7c0 0 3.6 0 3.6 0zm1.2 2.1c-.3 1.1-1.4 2-2.9 2c-1.7 0-3.2-1.3-3.2-3.5c0-2 1.4-3.4 3.1-3.4c2 0 3.1 1.4 3.1 3.4c0 .2 0 .3 0 .4c0 0-4.9 0-4.9 0c0 1.2.8 2 1.9 2c1.1 0 1.6-.6 1.8-1.3c0 0 1.1.4 1.1.4zm-2.5-5.5l-1.1 0l1.2-2l1.6 0l-1.7 2zm5.9.8l1.4 0l0 1.2l-1.4 0c0 0 0 3.34 0 3.3c0 .6.2.9.9.9c.2 0 .4 0 .5 0c0 0 0 1.1 0 1.1c-.1 0-.4.1-.9.1c-1.1 0-1.8-.7-1.8-1.9c.03.03 0-3.5 0-3.5l-1.2 0l0-1.2c0 0 .34.02.3 0c.7 0 1-.4 1-1c.04.02 0-1 0-1l1.2 0l0 2zm3.1 6.5l0-6.5l1.2 0l0 6.5l-1.2 0zm.6-9.9c.5 0 .9.4.9 1c0 .5-.4.9-.9.9c-.5 0-.9-.4-.9-.9c0-.6.4-1 .9-1zm7.2 6c0-.9-.7-1.7-1.8-1.7c-1.1 0-1.7.9-1.8 1.7c0 0 3.6 0 3.6 0zm1.3 2.1c-.4 1.1-1.4 2-3 2c-1.7 0-3.2-1.3-3.2-3.5c0-2 1.5-3.4 3.1-3.4c2 0 3.1 1.4 3.1 3.4c0 .2 0 .3 0 .4c0 0-4.9 0-4.9 0c0 1.2.9 2 1.9 2c1.1 0 1.6-.6 1.9-1.3c0 0 1.1.4 1.1.4zm5.2-3.4c-.2 0-.3 0-.5 0c-1.1 0-1.8.5-1.8 2c-.01-.05 0 3.2 0 3.2l-1.3 0l0-6.5l1.3 0c0 0-.03 1.15 0 1.1c.4-.9 1.2-1.2 1.9-1.2c.2 0 .4 0 .4 0c0 0 0 1.4 0 1.4zm1.9 3.1c.1.7.6 1.2 1.5 1.2c.7 0 1.1-.4 1.1-.8c0-.4-.3-.7-.8-.9c0 0-1.1-.2-1.1-.2c-1-.2-1.6-.9-1.6-1.8c0-1.1 1-2.1 2.3-2.1c1.8 0 2.3 1.2 2.5 1.8c0 0-1.2.4-1.2.4c0-.4-.3-1.1-1.3-1.1c-.7 0-1.1.4-1.1.9c0 .3.2.6.7.7c0 0 1.1.3 1.1.3c1.2.2 1.8.9 1.8 1.9c0 .9-.8 2-2.4 2c-1.8 0-2.5-1.1-2.6-1.9c0 0 1.1-.4 1.1-.4z" stroke="none" fill="#144542"/></g><g id="Polygon162461"><path d="m1.6 145.5c.1.7.6 1.2 1.5 1.2c.7 0 1.1-.4 1.1-.8c0-.4-.3-.7-.8-.9c0 0-1.1-.2-1.1-.2c-1-.2-1.6-.9-1.6-1.8c0-1.1 1-2.1 2.3-2.1c1.8 0 2.3 1.2 2.5 1.8c0 0-1.2.4-1.2.4c0-.4-.3-1.1-1.3-1.1c-.7 0-1.1.4-1.1.9c0 .3.2.6.7.7c0 0 1.1.3 1.1.3c1.2.2 1.8.9 1.8 1.9c0 .9-.8 2-2.4 2c-1.8 0-2.5-1.1-2.6-1.9c0 0 1.1-.4 1.1-.4zm5.2-7.6c.6 0 1 .4 1 1.2c0 1.7-1 2.4-1.8 2.5c0 0 0-.7 0-.7c.6-.1 1-.7 1-1.4c0 .1-.1.1-.2.1c-.5 0-.9-.3-.9-.8c0-.5.4-.9.9-.9zm1.7 8c0-1.2.9-1.8 2-2c0 0 1.7-.3 1.7-.3c.4 0 .5-.2.5-.4c0-.7-.4-1.2-1.4-1.2c-.9 0-1.4.5-1.4 1.3c0 0-1.2-.3-1.2-.3c.1-1.2 1.2-2.1 2.6-2.1c2 0 2.7 1.1 2.7 2.4c0 0 0 3.3 0 3.3c0 .5.1.9.1 1c0 0-1.2 0-1.2 0c-.1-.1-.1-.4-.1-.9c-.3.5-.9 1.1-2.1 1.1c-1.3 0-2.2-.9-2.2-1.9c0 0 0 0 0 0zm4.2-1.1c.04.03 0-.3 0-.3c0 0-1.94.33-1.9.3c-.6.1-1 .4-1 1c0 .5.4.9 1.1.9c1 0 1.8-.5 1.8-1.9zm4 2.9c.1.9.8 1.6 1.8 1.6c1.4 0 2-.7 2-2.1c0 0 0-1 0-1c-.3.6-1 1.1-2 1.1c-1.7 0-3-1.3-3-3.1c0-1.8 1.2-3.2 3-3.2c1 0 1.7.4 2 1c.01.02 0-.9 0-.9l1.3 0c0 0-.04 6.02 0 6c0 1.7-.8 3.3-3.3 3.3c-1.6 0-2.8-1-3-2.4c0 0 1.2-.3 1.2-.3zm3.8-3.5c0-1.3-.7-2.1-1.8-2.1c-1.1 0-1.9.8-1.9 2.1c0 1.2.7 2 1.9 2c1.1 0 1.8-.8 1.8-2zm3.3 3.4l0-6.5l1.2 0l0 6.5l-1.2 0zm.6-9.9c.5 0 .9.4.9 1c0 .5-.4.9-.9.9c-.5 0-.9-.4-.9-.9c0-.6.4-1 .9-1zm3.3 7.8c.1.7.6 1.2 1.6 1.2c.7 0 1.1-.4 1.1-.8c0-.4-.3-.7-.9-.9c0 0-1.1-.2-1.1-.2c-1-.2-1.6-.9-1.6-1.8c0-1.1 1-2.1 2.3-2.1c1.8 0 2.3 1.2 2.5 1.8c0 0-1.1.4-1.1.4c-.1-.4-.4-1.1-1.4-1.1c-.6 0-1.1.4-1.1.9c0 .3.3.6.8.7c0 0 1 .3 1 .3c1.2.2 1.8.9 1.8 1.9c0 .9-.8 2-2.4 2c-1.7 0-2.5-1.1-2.6-1.9c0 0 1.1-.4 1.1-.4zm6.1 0c.1.7.6 1.2 1.6 1.2c.7 0 1.1-.4 1.1-.8c0-.4-.3-.7-.9-.9c0 0-1.1-.2-1.1-.2c-1-.2-1.6-.9-1.6-1.8c0-1.1 1-2.1 2.3-2.1c1.8 0 2.3 1.2 2.5 1.8c0 0-1.1.4-1.1.4c-.1-.4-.4-1.1-1.4-1.1c-.6 0-1.1.4-1.1.9c0 .3.3.6.8.7c0 0 1 .3 1 .3c1.2.2 1.8.9 1.8 1.9c0 .9-.8 2-2.4 2c-1.7 0-2.5-1.1-2.6-1.9c0 0 1.1-.4 1.1-.4zm9.9-1.8c0-.9-.6-1.7-1.8-1.7c-1 0-1.7.9-1.7 1.7c0 0 3.5 0 3.5 0zm1.3 2.1c-.4 1.1-1.4 2-2.9 2c-1.8 0-3.3-1.3-3.3-3.5c0-2 1.5-3.4 3.1-3.4c2 0 3.1 1.4 3.1 3.4c0 .2 0 .3 0 .4c0 0-4.9 0-4.9 0c0 1.2.9 2 2 2c1 0 1.6-.6 1.8-1.3c0 0 1.1.4 1.1.4zm7.7.9c1.2 0 1.9-1 1.9-2.4c0-1.3-.7-2.2-1.9-2.2c-1.2 0-1.9.9-1.9 2.2c0 1.4.7 2.4 1.9 2.4zm1.9-.1c-.3.6-1 1.2-2 1.2c-1.9 0-3.1-1.5-3.1-3.5c0-1.8 1.2-3.4 3.1-3.4c1.1 0 1.7.6 2 1.1c-.05.03 0-4.2 0-4.2l1.2 0c0 0 .01 8.61 0 8.6c0 .6.1 1.1.1 1.2c0 0-1.3 0-1.3 0c0-.1 0-.5 0-.9c0 0 0-.1 0-.1zm7.7-2.9c0-.9-.6-1.7-1.7-1.7c-1.1 0-1.8.9-1.8 1.7c0 0 3.5 0 3.5 0zm1.3 2.1c-.3 1.1-1.4 2-2.9 2c-1.7 0-3.3-1.3-3.3-3.5c0-2 1.5-3.4 3.1-3.4c2 0 3.2 1.4 3.2 3.4c0 .2 0 .3-.1.4c0 0-4.8 0-4.8 0c0 1.2.8 2 1.9 2c1.1 0 1.6-.6 1.8-1.3c0 0 1.1.4 1.1.4zm6.8-3.5l0 5.3l-1.3 0l0-5.3l-1.2 0l0-1.2l1.2 0c0 0-.05-1.08 0-1.1c0-1.4.9-2.2 2.1-2.2c.4 0 .7.1.7.1c0 0 0 1.2 0 1.2c0-.1-.2-.1-.5-.1c-.5 0-1 .2-1 1.1c-.04-.01 0 1 0 1l1.5 0l0 1.2l-1.5 0zm2.3 3.6c0-1.2.8-1.8 2-2c0 0 1.7-.3 1.7-.3c.4 0 .5-.2.5-.4c0-.7-.4-1.2-1.4-1.2c-.9 0-1.4.5-1.5 1.3c0 0-1.2-.3-1.2-.3c.2-1.2 1.3-2.1 2.7-2.1c1.9 0 2.7 1.1 2.7 2.4c0 0 0 3.3 0 3.3c0 .5 0 .9.1 1c0 0-1.3 0-1.3 0c0-.1 0-.4 0-.9c-.3.5-1 1.1-2.1 1.1c-1.4 0-2.2-.9-2.2-1.9c0 0 0 0 0 0zm4.2-1.1c.01.03 0-.3 0-.3c0 0-1.98.33-2 .3c-.5.1-.9.4-.9 1c0 .5.4.9 1 .9c1.1 0 1.9-.5 1.9-1.9zm3.2 2.8l0-6.5l1.3 0l0 6.5l-1.3 0zm.7-9.9c.5 0 .9.4.9 1c0 .5-.4.9-.9.9c-.5 0-.9-.4-.9-.9c0-.6.4-1 .9-1zm6.4 4.7c-.2 0-.4 0-.6 0c-1.1 0-1.8.5-1.8 2c.03-.05 0 3.2 0 3.2l-1.2 0l0-6.5l1.2 0c0 0 .01 1.15 0 1.1c.5-.9 1.3-1.2 1.9-1.2c.2 0 .4 0 .5 0c0 0 0 1.4 0 1.4zm5.6 1.3c0-.9-.6-1.7-1.8-1.7c-1 0-1.7.9-1.7 1.7c0 0 3.5 0 3.5 0zm1.3 2.1c-.4 1.1-1.4 2-2.9 2c-1.8 0-3.3-1.3-3.3-3.5c0-2 1.5-3.4 3.1-3.4c2 0 3.1 1.4 3.1 3.4c0 .2 0 .3 0 .4c0 0-4.9 0-4.9 0c.1 1.2.9 2 2 2c1 0 1.6-.6 1.8-1.3c0 0 1.1.4 1.1.4z" stroke="none" fill="#144542"/></g><g id="Polygon162460"><path d="m.7 129.7c0-1.2.8-1.8 1.9-2c0 0 1.8-.3 1.8-.3c.4 0 .5-.2.5-.4c0-.7-.4-1.2-1.4-1.2c-.9 0-1.4.5-1.5 1.3c0 0-1.2-.3-1.2-.3c.1-1.2 1.3-2.1 2.7-2.1c1.9 0 2.7 1.1 2.7 2.4c0 0 0 3.3 0 3.3c0 .5 0 .9 0 1c0 0-1.2 0-1.2 0c0-.1-.1-.4-.1-.9c-.2.5-.9 1.1-2.1 1.1c-1.3 0-2.1-.9-2.1-1.9c0 0 0 0 0 0zm4.2-1.1c0 .03 0-.3 0-.3c0 0-1.98.33-2 .3c-.5.1-.9.4-.9 1c0 .5.4.9 1 .9c1.1 0 1.9-.5 1.9-1.9zm-3.4-6.5l1.6 0l1.1 2l-1 0l-1.7-2zm10 9.3l0-9.8l1.3 0l0 9.8l-1.3 0zm7.8-3.9c0-.9-.6-1.7-1.8-1.7c-1 0-1.7.9-1.7 1.7c0 0 3.5 0 3.5 0zm1.3 2.1c-.4 1.1-1.4 2-2.9 2c-1.8 0-3.3-1.3-3.3-3.5c0-2 1.5-3.4 3.1-3.4c2 0 3.1 1.4 3.1 3.4c0 .2 0 .3 0 .4c0 0-4.9 0-4.9 0c.1 1.2.9 2 2 2c1 0 1.6-.6 1.8-1.3c0 0 1.1.4 1.1.4zm5.7 1c-.3.7-1.1 1-1.9 1c-1.5 0-2.4-1.1-2.4-2.6c-.01.01 0-4.1 0-4.1l1.3 0c0 0-.04 3.92 0 3.9c0 .9.4 1.7 1.4 1.7c1.1 0 1.6-.7 1.6-1.7c-.03.03 0-3.9 0-3.9l1.2 0c0 0 .04 5.31 0 5.3c0 .5.1 1 .1 1.2c0 0-1.2 0-1.2 0c0-.1-.1-.5-.1-.8c0 0 0 0 0 0zm7-4.4c-.2 0-.4 0-.6 0c-1 0-1.7.5-1.7 2c-.03-.05 0 3.2 0 3.2l-1.3 0l0-6.5l1.2 0c0 0 .04 1.15 0 1.1c.5-.9 1.3-1.2 2-1.2c.2 0 .3 0 .4 0c0 0 0 1.4 0 1.4zm1.9 3.1c.1.7.6 1.2 1.5 1.2c.7 0 1.1-.4 1.1-.8c0-.4-.3-.7-.8-.9c0 0-1.1-.2-1.1-.2c-1-.2-1.7-.9-1.7-1.8c0-1.1 1.1-2.1 2.4-2.1c1.7 0 2.3 1.2 2.4 1.8c0 0-1.1.4-1.1.4c0-.4-.3-1.1-1.3-1.1c-.7 0-1.1.4-1.1.9c0 .3.2.6.7.7c0 0 1.1.3 1.1.3c1.1.2 1.8.9 1.8 1.9c0 .9-.8 2-2.4 2c-1.8 0-2.5-1.1-2.7-1.9c0 0 1.2-.4 1.2-.4zm8.9 2.1l0-9.8l1.3 0c0 0-.01 4.23 0 4.2c.3-.5 1.1-1.1 2.1-1.1c2 0 3 1.5 3 3.4c0 2-1.1 3.5-3 3.5c-1 0-1.7-.4-2.1-1.1c-.01-.04 0 .9 0 .9l-1.3 0zm3.2-5.6c-1.1 0-1.9.9-1.9 2.3c0 1.4.8 2.4 1.9 2.4c1.2 0 1.9-1 1.9-2.4c0-1.4-.7-2.3-1.9-2.3zm9.2 1.7c0-.9-.6-1.7-1.8-1.7c-1 0-1.7.9-1.7 1.7c0 0 3.5 0 3.5 0zm1.3 2.1c-.4 1.1-1.4 2-2.9 2c-1.8 0-3.3-1.3-3.3-3.5c0-2 1.5-3.4 3.1-3.4c2 0 3.1 1.4 3.1 3.4c0 .2 0 .3 0 .4c0 0-4.9 0-4.9 0c0 1.2.9 2 2 2c1 0 1.6-.6 1.8-1.3c0 0 1.1.4 1.1.4zm2.2-.3c.1.7.6 1.2 1.5 1.2c.7 0 1.1-.4 1.1-.8c0-.4-.3-.7-.8-.9c0 0-1.1-.2-1.1-.2c-1-.2-1.7-.9-1.7-1.8c0-1.1 1.1-2.1 2.4-2.1c1.7 0 2.3 1.2 2.4 1.8c0 0-1.1.4-1.1.4c0-.4-.3-1.1-1.3-1.1c-.7 0-1.1.4-1.1.9c0 .3.2.6.7.7c0 0 1.1.3 1.1.3c1.1.2 1.8.9 1.8 1.9c0 .9-.8 2-2.4 2c-1.8 0-2.5-1.1-2.7-1.9c0 0 1.2-.4 1.2-.4zm10.3-1.1c0-1.5-1-2.4-2-2.4c-1.1 0-2.1.9-2.1 2.4c0 1.5 1 2.3 2.1 2.3c1 0 2-.8 2-2.3zm1.3 0c0 1.9-1.4 3.4-3.3 3.4c-2 0-3.4-1.5-3.4-3.4c0-2 1.4-3.5 3.4-3.5c1.9 0 3.3 1.5 3.3 3.5zm1.6 3.2l0-6.5l1.3 0l0 6.5l-1.3 0zm.6-9.9c.5 0 .9.4.9 1c0 .5-.4.9-.9.9c-.5 0-.9-.4-.9-.9c0-.6.4-1 .9-1zm4.1 9.9l-1.3 0l0-6.5l1.3 0c0 0-.03.95 0 .9c.4-.8 1.2-1.1 2-1.1c1.5 0 2.3 1.1 2.3 2.6c-.01-.01 0 4.1 0 4.1l-1.3 0c0 0 .02-3.89 0-3.9c0-.9-.4-1.6-1.5-1.6c-1 0-1.5.8-1.5 1.8c-.01-.05 0 3.7 0 3.7zm6.9-2.1c0 .7.5 1.2 1.5 1.2c.7 0 1.1-.4 1.1-.8c0-.4-.3-.7-.9-.9c0 0-1.1-.2-1.1-.2c-1-.2-1.6-.9-1.6-1.8c0-1.1 1-2.1 2.3-2.1c1.8 0 2.4 1.2 2.5 1.8c0 0-1.1.4-1.1.4c-.1-.4-.4-1.1-1.4-1.1c-.6 0-1.1.4-1.1.9c0 .3.3.6.8.7c0 0 1 .3 1 .3c1.2.2 1.8.9 1.8 1.9c0 .9-.7 2-2.3 2c-1.8 0-2.6-1.1-2.7-1.9c0 0 1.2-.4 1.2-.4zm6.4.3c.5 0 1.1.5 1.1 1.3c0 1.8-1.2 2.5-2 2.7c0 0 0-.7 0-.7c.6-.2 1.1-.9 1.1-1.5c-.1 0-.2.1-.3.1c-.5 0-.9-.4-.9-1c0-.4.4-.9 1-.9zm11 4.4c0 0 .02-3.51 0-3.5c-.3.7-1 1.1-2 1.1c-1.9 0-3.1-1.6-3.1-3.5c0-1.8 1.2-3.3 3.1-3.3c1.1 0 1.8.5 2 1.1c.05.01 0-1 0-1l1.3 0l0 9.1l-1.3 0zm-1.9-3.5c1.2 0 1.9-1 1.9-2.4c0-1.3-.7-2.2-1.9-2.2c-1.2 0-1.9.9-1.9 2.2c0 1.4.8 2.4 1.9 2.4zm9.5.1c-.4.7-1.2 1-1.9 1c-1.5 0-2.5-1.1-2.5-2.6c.03.01 0-4.1 0-4.1l1.3 0c0 0 0 3.92 0 3.9c0 .9.4 1.7 1.5 1.7c1 0 1.5-.7 1.5-1.7c.01.03 0-3.9 0-3.9l1.3 0c0 0-.02 5.31 0 5.3c0 .5 0 1 0 1.2c0 0-1.2 0-1.2 0c0-.1 0-.5 0-.8c0 0 0 0 0 0zm3.7-8.9c.6 0 1 .4 1 1.2c0 1.7-1 2.4-1.8 2.5c0 0 0-.7 0-.7c.6-.1 1-.7 1-1.4c0 .1-.1.1-.2.1c-.5 0-.9-.3-.9-.8c0-.5.4-.9.9-.9zm2.7 9.7l0-6.5l1.2 0l0 6.5l-1.2 0zm.6-9.9c.5 0 .9.4.9 1c0 .5-.4.9-.9.9c-.5 0-.9-.4-.9-.9c0-.6.4-1 .9-1zm2.8 9.9l0-9.8l1.2 0l0 9.8l-1.2 0z" stroke="none" fill="#144542"/></g><g id="Polygon162459"><path d="m3.7 114.3c1.2 0 1.9-1 1.9-2.4c0-1.3-.7-2.2-1.8-2.2c-1.2 0-2 .9-2 2.2c0 1.4.7 2.4 1.9 2.4zm1.9-.1c-.3.6-1 1.2-2 1.2c-1.9 0-3.1-1.5-3.1-3.5c0-1.8 1.3-3.4 3.1-3.4c1.2 0 1.8.6 2 1.1c0 .03 0-4.2 0-4.2l1.3 0c0 0-.04 8.61 0 8.6c0 .6 0 1.1 0 1.2c0 0-1.2 0-1.2 0c0-.1-.1-.5-.1-.9c0 0 0-.1 0-.1zm7.8-2.9c0-.9-.6-1.7-1.8-1.7c-1.1 0-1.7.9-1.8 1.7c0 0 3.6 0 3.6 0zm1.3 2.1c-.4 1.1-1.4 2-2.9 2c-1.8 0-3.3-1.3-3.3-3.5c0-2 1.5-3.4 3.1-3.4c2 0 3.1 1.4 3.1 3.4c0 .2 0 .3 0 .4c0 0-4.9 0-4.9 0c0 1.2.9 2 2 2c1 0 1.5-.6 1.8-1.3c0 0 1.1.4 1.1.4zm10.7-.9l-4.2 0l-1 2.7l-1.4 0l3.8-9.6l1.5 0l3.8 9.6l-1.4 0l-1.1-2.7zm-3.7-1.2l3.3 0l-1.7-4.3l-1.6 4.3zm10.4 2.2c0-1.2.8-1.8 2-2c0 0 1.7-.3 1.7-.3c.4 0 .5-.2.5-.4c0-.7-.4-1.2-1.4-1.2c-.9 0-1.4.5-1.5 1.3c0 0-1.2-.3-1.2-.3c.2-1.2 1.3-2.1 2.7-2.1c1.9 0 2.7 1.1 2.7 2.4c0 0 0 3.3 0 3.3c0 .5 0 .9.1 1c0 0-1.3 0-1.3 0c0-.1 0-.4 0-.9c-.3.5-1 1.1-2.1 1.1c-1.4 0-2.2-.9-2.2-1.9c0 0 0 0 0 0zm4.2-1.1c.02.03 0-.3 0-.3c0 0-1.97.33-2 .3c-.5.1-.9.4-.9 1c0 .5.4.9 1 .9c1.1 0 1.9-.5 1.9-1.9zm-3.4-6.5l1.6 0l1.1 2l-1 0l-1.7-2zm9.6 9.3l0-1.3l5.7-7l-5.6 0l0-1.3l7.2 0l0 1.3l-5.8 7.1l5.8 0l0 1.2l-7.3 0zm9.8-1.8c.6 0 1.1.5 1.1 1.3c0 1.8-1.2 2.5-2 2.7c0 0 0-.7 0-.7c.7-.2 1.1-.9 1.1-1.5c0 0-.1.1-.3.1c-.5 0-.9-.4-.9-1c0-.4.4-.9 1-.9zm10.9-2.1c0-.9-.7-1.7-1.8-1.7c-1.1 0-1.7.9-1.8 1.7c0 0 3.6 0 3.6 0zm1.3 2.1c-.4 1.1-1.4 2-3 2c-1.7 0-3.2-1.3-3.2-3.5c0-2 1.4-3.4 3.1-3.4c2 0 3.1 1.4 3.1 3.4c0 .2 0 .3 0 .4c0 0-4.9 0-4.9 0c0 1.2.9 2 1.9 2c1.1 0 1.6-.6 1.9-1.3c0 0 1.1.4 1.1.4zm2.9 1.8l-1.3 0l0-6.5l1.3 0c0 0-.04.95 0 .9c.4-.8 1.2-1.1 2-1.1c1.5 0 2.3 1.1 2.3 2.6c-.02-.01 0 4.1 0 4.1l-1.3 0c0 0 .02-3.89 0-3.9c0-.9-.4-1.6-1.5-1.6c-1 0-1.5.8-1.5 1.8c-.01-.05 0 3.7 0 3.7zm13.3-5.2c-.2 0-.4 0-.6 0c-1 0-1.7.5-1.7 2c-.05-.05 0 3.2 0 3.2l-1.3 0l0-6.5l1.2 0c0 0 .03 1.15 0 1.1c.5-.9 1.3-1.2 2-1.2c.1 0 .3 0 .4 0c0 0 0 1.4 0 1.4zm5.6 1.3c0-.9-.6-1.7-1.7-1.7c-1.1 0-1.8.9-1.8 1.7c0 0 3.5 0 3.5 0zm1.3 2.1c-.3 1.1-1.4 2-2.9 2c-1.7 0-3.3-1.3-3.3-3.5c0-2 1.5-3.4 3.1-3.4c2 0 3.2 1.4 3.2 3.4c0 .2 0 .3-.1.4c0 0-4.8 0-4.8 0c0 1.2.8 2 1.9 2c1.1 0 1.6-.6 1.8-1.3c0 0 1.1.4 1.1.4zm-2.5-5.5l-1.1 0l1.2-2l1.6 0l-1.7 2zm4.2 9.9l0-9.1l1.2 0c0 0 .02 1.03 0 1c.4-.6 1.1-1.1 2.2-1.1c1.9 0 3 1.5 3 3.4c0 1.9-1.1 3.4-3.1 3.4c-.9 0-1.7-.5-2.1-1.1c.04.03 0 3.5 0 3.5l-1.2 0zm5.1-5.8c0-1.3-.8-2.3-1.9-2.3c-1.2 0-2 1-2 2.3c0 1.3.8 2.3 2 2.3c1.1 0 1.9-1 1.9-2.3c0 0 0 0 0 0zm7.7 0c0-1.5-.9-2.4-2-2.4c-1.1 0-2.1.9-2.1 2.4c0 1.5 1 2.3 2.1 2.3c1.1 0 2-.8 2-2.3zm1.3 0c0 1.9-1.4 3.4-3.3 3.4c-2 0-3.3-1.5-3.3-3.4c0-2 1.3-3.5 3.3-3.5c1.9 0 3.3 1.5 3.3 3.5zm2.9 3.2l-1.3 0l0-6.5l1.3 0c0 0-.04.95 0 .9c.4-.8 1.2-1.1 2-1.1c1.5 0 2.3 1.1 2.3 2.6c-.02-.01 0 4.1 0 4.1l-1.3 0c0 0 .01-3.89 0-3.9c0-.9-.4-1.6-1.5-1.6c-1 0-1.5.8-1.5 1.8c-.02-.05 0 3.7 0 3.7zm6.8-2.1c.1.7.6 1.2 1.6 1.2c.7 0 1.1-.4 1.1-.8c0-.4-.3-.7-.9-.9c0 0-1.1-.2-1.1-.2c-1-.2-1.6-.9-1.6-1.8c0-1.1 1-2.1 2.3-2.1c1.8 0 2.3 1.2 2.5 1.8c0 0-1.1.4-1.1.4c-.1-.4-.4-1.1-1.4-1.1c-.6 0-1.1.4-1.1.9c0 .3.3.6.8.7c0 0 1 .3 1 .3c1.2.2 1.8.9 1.8 1.9c0 .9-.8 2-2.4 2c-1.7 0-2.5-1.1-2.6-1.9c0 0 1.1-.4 1.1-.4zm9.9-1.8c0-.9-.6-1.7-1.8-1.7c-1 0-1.7.9-1.7 1.7c0 0 3.5 0 3.5 0zm1.3 2.1c-.4 1.1-1.4 2-2.9 2c-1.8 0-3.3-1.3-3.3-3.5c0-2 1.5-3.4 3.1-3.4c2 0 3.1 1.4 3.1 3.4c0 .2 0 .3 0 .4c0 0-4.9 0-4.9 0c0 1.2.9 2 2 2c1 0 1.6-.6 1.8-1.3c0 0 1.1.4 1.1.4z" stroke="none" fill="#144542"/></g><g id="Polygon162458"><path d="m3.7 98.1c1.2 0 1.9-1 1.9-2.4c0-1.3-.7-2.2-1.8-2.2c-1.2 0-2 .9-2 2.2c0 1.4.7 2.4 1.9 2.4zm1.9-.1c-.3.6-1 1.2-2 1.2c-1.9 0-3.1-1.5-3.1-3.5c0-1.8 1.3-3.4 3.1-3.4c1.2 0 1.8.6 2 1.1c0 .03 0-4.2 0-4.2l1.3 0c0 0-.04 8.61 0 8.6c0 .6 0 1.1 0 1.2c0 0-1.2 0-1.2 0c0-.1-.1-.5-.1-.9c0 0 0-.1 0-.1zm3.8-8.7c.5 0 1 .4 1 1.2c0 1.7-1.1 2.4-1.8 2.5c0 0 0-.7 0-.7c.6-.1 1-.7 1-1.4c0 .1-.1.1-.3.1c-.4 0-.8-.3-.8-.8c0-.5.4-.9.9-.9zm1.7 8c0-1.2.8-1.8 2-2c0 0 1.7-.3 1.7-.3c.4 0 .5-.2.5-.4c0-.7-.4-1.2-1.4-1.2c-.9 0-1.4.5-1.5 1.3c0 0-1.2-.3-1.2-.3c.2-1.2 1.3-2.1 2.7-2.1c1.9 0 2.7 1.1 2.7 2.4c0 0 0 3.3 0 3.3c0 .5 0 .9.1 1c0 0-1.3 0-1.3 0c0-.1 0-.4 0-.9c-.3.5-1 1.1-2.1 1.1c-1.4 0-2.2-.9-2.2-1.9c0 0 0 0 0 0zm4.2-1.1c.02.03 0-.3 0-.3c0 0-1.96.33-2 .3c-.5.1-.9.4-.9 1c0 .5.4.9 1 .9c1.1 0 1.9-.5 1.9-1.9zm4-.4c0 1.4.9 2.2 2 2.2c1.2 0 1.7-.8 1.8-1.3c0 0 1.1.5 1.1.5c-.3.9-1.2 2-2.9 2c-1.9 0-3.3-1.5-3.3-3.4c0-2.1 1.4-3.5 3.3-3.5c1.7 0 2.6 1.1 2.9 2.1c0 0-1.2.5-1.2.5c-.1-.7-.6-1.4-1.7-1.4c-1 0-2 .7-2 2.3zm7.1 0c0 1.4.9 2.2 2 2.2c1.2 0 1.7-.8 1.8-1.3c0 0 1.1.5 1.1.5c-.3.9-1.2 2-2.9 2c-1.9 0-3.3-1.5-3.3-3.4c0-2.1 1.4-3.5 3.3-3.5c1.7 0 2.6 1.1 2.9 2.1c0 0-1.2.5-1.2.5c-.1-.7-.6-1.4-1.7-1.4c-1 0-2 .7-2 2.3zm11.1 0c0-1.5-.9-2.4-2-2.4c-1.1 0-2 .9-2 2.4c0 1.5.9 2.3 2 2.3c1.1 0 2-.8 2-2.3zm1.3 0c0 1.9-1.3 3.4-3.3 3.4c-1.9 0-3.3-1.5-3.3-3.4c0-2 1.4-3.5 3.3-3.5c2 0 3.3 1.5 3.3 3.5zm1.7 3.2l0-6.5l1.2 0c0 0-.03.88 0 .9c.4-.7 1.2-1.1 1.9-1.1c.9 0 1.6.4 2 1.3c.5-1 1.3-1.3 2.2-1.3c1.1 0 2.2.8 2.2 2.5c0 0 0 4.2 0 4.2l-1.3 0c0 0 .05-4.07 0-4.1c0-.8-.4-1.5-1.3-1.5c-.9 0-1.5.7-1.5 1.7c-.03-.02 0 3.9 0 3.9l-1.3 0c0 0 0-4.07 0-4.1c0-.8-.4-1.5-1.4-1.5c-.9 0-1.5.7-1.5 1.7c.01-.01 0 3.9 0 3.9l-1.2 0zm11.5 2.6l0-9.1l1.3 0c0 0-.04 1.03 0 1c.3-.6 1.1-1.1 2.1-1.1c2 0 3 1.5 3 3.4c0 1.9-1.1 3.4-3 3.4c-1 0-1.8-.5-2.1-1.1c-.02.03 0 3.5 0 3.5l-1.3 0zm5.1-5.8c0-1.3-.7-2.3-1.9-2.3c-1.2 0-1.9 1-1.9 2.3c0 1.3.7 2.3 1.9 2.3c1.2 0 1.9-1 1.9-2.3c0 0 0 0 0 0zm2.5 1.5c0-1.2.9-1.8 2-2c0 0 1.8-.3 1.8-.3c.3 0 .5-.2.5-.4c0-.7-.5-1.2-1.4-1.2c-.9 0-1.4.5-1.5 1.3c0 0-1.2-.3-1.2-.3c.1-1.2 1.2-2.1 2.6-2.1c2 0 2.7 1.1 2.7 2.4c0 0 0 3.3 0 3.3c0 .5.1.9.1 1c0 0-1.2 0-1.2 0c-.1-.1-.1-.4-.1-.9c-.3.5-.9 1.1-2.1 1.1c-1.3 0-2.2-.9-2.2-1.9c0 0 0 0 0 0zm4.3-1.1c-.04.03 0-.3 0-.3c0 0-2.03.33-2 .3c-.6.1-1 .4-1 1c0 .5.4.9 1.1.9c1 0 1.9-.5 1.9-1.9zm4 2.9c0 .9.7 1.6 1.7 1.6c1.4 0 2-.7 2-2.1c0 0 0-1 0-1c-.3.6-1 1.1-2 1.1c-1.7 0-3-1.3-3-3.1c0-1.8 1.2-3.2 3-3.2c1 0 1.7.4 2 1c.02.02 0-.9 0-.9l1.3 0c0 0-.03 6.02 0 6c0 1.7-.8 3.3-3.3 3.3c-1.6 0-2.8-1-3-2.4c0 0 1.3-.3 1.3-.3zm3.8-3.5c0-1.3-.8-2.1-1.9-2.1c-1.1 0-1.9.8-1.9 2.1c0 1.2.8 2 1.9 2c1.1 0 1.9-.8 1.9-2zm4.5 3.4l-1.3 0l0-6.5l1.2 0c0 0 .04.95 0 .9c.5-.8 1.3-1.1 2-1.1c1.6 0 2.4 1.1 2.4 2.6c-.04-.01 0 4.1 0 4.1l-1.3 0c0 0-.01-3.89 0-3.9c0-.9-.4-1.6-1.5-1.6c-1 0-1.5.8-1.5 1.8c-.03-.05 0 3.7 0 3.7zm10.7-3.9c-.1-.9-.7-1.7-1.8-1.7c-1.1 0-1.7.9-1.8 1.7c0 0 3.6 0 3.6 0zm1.2 2.1c-.3 1.1-1.4 2-2.9 2c-1.7 0-3.2-1.3-3.2-3.5c0-2 1.4-3.4 3.1-3.4c2 0 3.1 1.4 3.1 3.4c0 .2 0 .3 0 .4c0 0-4.9 0-4.9 0c0 1.2.8 2 1.9 2c1.1 0 1.6-.6 1.8-1.3c0 0 1.1.4 1.1.4zm1.7 1.8l0-6.5l1.2 0c0 0 .02.88 0 .9c.4-.7 1.2-1.1 2-1.1c.8 0 1.6.4 1.9 1.3c.5-1 1.4-1.3 2.2-1.3c1.1 0 2.2.8 2.2 2.5c.05 0 0 4.2 0 4.2l-1.2 0c0 0-.01-4.07 0-4.1c0-.8-.4-1.5-1.4-1.5c-.9 0-1.5.7-1.5 1.7c.01-.02 0 3.9 0 3.9l-1.3 0c0 0 .05-4.07 0-4.1c0-.8-.4-1.5-1.3-1.5c-.9 0-1.5.7-1.5 1.7c-.04-.01 0 3.9 0 3.9l-1.3 0zm15.9-3.9c0-.9-.6-1.7-1.7-1.7c-1.1 0-1.8.9-1.8 1.7c0 0 3.5 0 3.5 0zm1.3 2.1c-.3 1.1-1.4 2-2.9 2c-1.7 0-3.3-1.3-3.3-3.5c0-2 1.5-3.4 3.1-3.4c2 0 3.2 1.4 3.2 3.4c0 .2 0 .3-.1.4c0 0-4.8 0-4.8 0c0 1.2.8 2 1.9 2c1.1 0 1.6-.6 1.8-1.3c0 0 1.1.4 1.1.4zm3 1.8l-1.3 0l0-6.5l1.2 0c0 0 .03.95 0 .9c.5-.8 1.3-1.1 2-1.1c1.6 0 2.3 1.1 2.3 2.6c.05-.01 0 4.1 0 4.1l-1.2 0c0 0-.02-3.89 0-3.9c0-.9-.4-1.6-1.5-1.6c-1 0-1.5.8-1.5 1.8c-.04-.05 0 3.7 0 3.7zm8-6.5l1.4 0l0 1.2l-1.4 0c0 0-.03 3.34 0 3.3c0 .6.2.9.9.9c.1 0 .4 0 .5 0c0 0 0 1.1 0 1.1c-.1 0-.5.1-.9.1c-1.1 0-1.8-.7-1.8-1.9c.01.03 0-3.5 0-3.5l-1.2 0l0-1.2c0 0 .32.02.3 0c.7 0 1-.4 1-1c.02.02 0-1 0-1l1.2 0l0 2z" stroke="none" fill="#144542"/></g><g id="Polygon162457"><path d="m3.7 81.9c1.2 0 1.9-1 1.9-2.4c0-1.3-.7-2.2-1.8-2.2c-1.2 0-2 .9-2 2.2c0 1.4.7 2.4 1.9 2.4zm1.9-.1c-.3.6-1 1.2-2 1.2c-1.9 0-3.1-1.5-3.1-3.5c0-1.8 1.3-3.4 3.1-3.4c1.2 0 1.8.6 2 1.1c0 .03 0-4.2 0-4.2l1.3 0c0 0-.04 8.61 0 8.6c0 .6 0 1.1 0 1.2c0 0-1.2 0-1.2 0c0-.1-.1-.5-.1-.9c0 0 0-.1 0-.1zm7.8-2.9c0-.9-.6-1.7-1.8-1.7c-1.1 0-1.7.9-1.8 1.7c0 0 3.6 0 3.6 0zm1.3 2.1c-.4 1.1-1.4 2-2.9 2c-1.8 0-3.3-1.3-3.3-3.5c0-2 1.5-3.4 3.1-3.4c2 0 3.1 1.4 3.1 3.4c0 .2 0 .3 0 .4c0 0-4.9 0-4.9 0c0 1.2.9 2 2 2c1 0 1.5-.6 1.8-1.3c0 0 1.1.4 1.1.4zm8.6-3.4c-.2 0-.4 0-.5 0c-1.1 0-1.8.5-1.8 2c-.02-.05 0 3.2 0 3.2l-1.3 0l0-6.5l1.3 0c0 0-.05 1.15 0 1.1c.4-.9 1.2-1.2 1.9-1.2c.2 0 .3 0 .4 0c0 0 0 1.4 0 1.4zm5.7 1.3c-.1-.9-.7-1.7-1.8-1.7c-1.1 0-1.7.9-1.8 1.7c0 0 3.6 0 3.6 0zm1.3 2.1c-.4 1.1-1.4 2-3 2c-1.7 0-3.2-1.3-3.2-3.5c0-2 1.4-3.4 3.1-3.4c2 0 3.1 1.4 3.1 3.4c0 .2 0 .3 0 .4c0 0-4.9 0-4.9 0c0 1.2.8 2 1.9 2c1.1 0 1.6-.6 1.9-1.3c0 0 1.1.4 1.1.4zm2.4-1.4c0 1.4.9 2.2 2 2.2c1.2 0 1.6-.8 1.8-1.3c0 0 1.1.5 1.1.5c-.3.9-1.3 2-2.9 2c-1.9 0-3.3-1.5-3.3-3.4c0-2.1 1.4-3.5 3.2-3.5c1.8 0 2.7 1.1 2.9 2.1c0 0-1.1.5-1.1.5c-.2-.7-.7-1.4-1.8-1.4c-1 0-1.9.7-1.9 2.3zm10-2c-.2 0-.4 0-.6 0c-1 0-1.8.5-1.8 2c.04-.05 0 3.2 0 3.2l-1.2 0l0-6.5l1.2 0c0 0 .01 1.15 0 1.1c.5-.9 1.3-1.2 2-1.2c.1 0 .3 0 .4 0c0 0 0 1.4 0 1.4zm5.7 4.4c-.4.7-1.2 1-1.9 1c-1.6 0-2.5-1.1-2.5-2.6c.02.01 0-4.1 0-4.1l1.3 0c0 0-.01 3.92 0 3.9c0 .9.4 1.7 1.5 1.7c1 0 1.5-.7 1.5-1.7c0 .03 0-3.9 0-3.9l1.3 0c0 0-.03 5.31 0 5.3c0 .5 0 1 0 1.2c0 0-1.2 0-1.2 0c0-.1 0-.5 0-.8c0 0 0 0 0 0zm5-5.7l1.4 0l0 1.2l-1.4 0c0 0 .03 3.34 0 3.3c0 .6.3.9.9.9c.2 0 .4 0 .5 0c0 0 0 1.1 0 1.1c-.1 0-.4.1-.8.1c-1.1 0-1.8-.7-1.8-1.9c-.04.03 0-3.5 0-3.5l-1.3 0l0-1.2c0 0 .37.02.4 0c.7 0 1-.4 1-1c-.03.02 0-1 0-1l1.1 0l0 2zm7.4 2.6c0-.9-.6-1.7-1.8-1.7c-1 0-1.7.9-1.7 1.7c0 0 3.5 0 3.5 0zm1.3 2.1c-.4 1.1-1.4 2-2.9 2c-1.7 0-3.3-1.3-3.3-3.5c0-2 1.5-3.4 3.1-3.4c2 0 3.2 1.4 3.2 3.4c0 .2-.1.3-.1.4c0 0-4.9 0-4.9 0c.1 1.2.9 2 2 2c1.1 0 1.6-.6 1.8-1.3c0 0 1.1.4 1.1.4zm1.7 1.8l0-6.5l1.2 0c0 0-.01.88 0 .9c.4-.7 1.2-1.1 2-1.1c.8 0 1.6.4 1.9 1.3c.5-1 1.4-1.3 2.2-1.3c1.1 0 2.2.8 2.2 2.5c.02 0 0 4.2 0 4.2l-1.2 0c0 0-.04-4.07 0-4.1c0-.8-.5-1.5-1.4-1.5c-.9 0-1.5.7-1.5 1.7c-.01-.02 0 3.9 0 3.9l-1.3 0c0 0 .02-4.07 0-4.1c0-.8-.4-1.5-1.4-1.5c-.9 0-1.5.7-1.5 1.7c.03-.01 0 3.9 0 3.9l-1.2 0zm15.9-3.9c0-.9-.6-1.7-1.8-1.7c-1 0-1.7.9-1.7 1.7c0 0 3.5 0 3.5 0zm1.3 2.1c-.4 1.1-1.4 2-2.9 2c-1.8 0-3.3-1.3-3.3-3.5c0-2 1.5-3.4 3.1-3.4c2 0 3.1 1.4 3.1 3.4c0 .2 0 .3 0 .4c0 0-4.9 0-4.9 0c.1 1.2.9 2 2 2c1 0 1.6-.6 1.8-1.3c0 0 1.1.4 1.1.4zm2.9 1.8l-1.2 0l0-6.5l1.2 0c0 0 0 .95 0 .9c.5-.8 1.2-1.1 2-1.1c1.6 0 2.3 1.1 2.3 2.6c.02-.01 0 4.1 0 4.1l-1.2 0c0 0-.05-3.89 0-3.9c0-.9-.4-1.6-1.6-1.6c-1 0-1.5.8-1.5 1.8c.03-.05 0 3.7 0 3.7zm8-6.5l1.5 0l0 1.2l-1.5 0c0 0 .05 3.34 0 3.3c0 .6.3.9 1 .9c.1 0 .3 0 .5 0c0 0 0 1.1 0 1.1c-.2 0-.5.1-.9.1c-1.1 0-1.8-.7-1.8-1.9c-.02.03 0-3.5 0-3.5l-1.3 0l0-1.2c0 0 .39.02.4 0c.7 0 1-.4 1-1c-.01.02 0-1 0-1l1.1 0l0 2zm10.9 2.6c0-.9-.6-1.7-1.8-1.7c-1.1 0-1.7.9-1.8 1.7c0 0 3.6 0 3.6 0zm1.3 2.1c-.4 1.1-1.4 2-2.9 2c-1.8 0-3.3-1.3-3.3-3.5c0-2 1.5-3.4 3.1-3.4c2 0 3.1 1.4 3.1 3.4c0 .2 0 .3 0 .4c0 0-4.9 0-4.9 0c0 1.2.9 2 2 2c1 0 1.5-.6 1.8-1.3c0 0 1.1.4 1.1.4zm3.3-4.7l1.4 0l0 1.2l-1.4 0c0 0 .03 3.34 0 3.3c0 .6.3.9.9.9c.2 0 .4 0 .5 0c0 0 0 1.1 0 1.1c-.1 0-.4.1-.8.1c-1.1 0-1.8-.7-1.8-1.9c-.04.03 0-3.5 0-3.5l-1.3 0l0-1.2c0 0 .37.02.4 0c.7 0 1-.4 1-1c-.03.02 0-1 0-1l1.1 0l0 2z" stroke="none" fill="#144542"/></g><g id="Polygon162456"><path d="m1.6 64.5c.1.7.6 1.2 1.5 1.2c.7 0 1.1-.4 1.1-.8c0-.4-.3-.7-.8-.9c0 0-1.1-.2-1.1-.2c-1-.2-1.6-.9-1.6-1.8c0-1.1 1-2.1 2.3-2.1c1.8 0 2.3 1.2 2.5 1.8c0 0-1.2.4-1.2.4c0-.4-.3-1.1-1.3-1.1c-.7 0-1.1.4-1.1.9c0 .3.2.6.7.7c0 0 1.1.3 1.1.3c1.2.2 1.8.9 1.8 1.9c0 .9-.8 2-2.4 2c-1.8 0-2.5-1.1-2.6-1.9c0 0 1.1-.4 1.1-.4zm10.3-1.1c0-1.5-.9-2.4-2-2.4c-1.1 0-2 .9-2 2.4c0 1.5.9 2.3 2 2.3c1.1 0 2-.8 2-2.3zm1.3 0c0 1.9-1.4 3.4-3.3 3.4c-1.9 0-3.3-1.5-3.3-3.4c0-2 1.4-3.5 3.3-3.5c1.9 0 3.3 1.5 3.3 3.5zm1.6 3.2l0-9.8l1.3 0l0 9.8l-1.3 0zm7.7-.8c-.4.7-1.2 1-1.9 1c-1.6 0-2.5-1.1-2.5-2.6c.03.01 0-4.1 0-4.1l1.3 0c0 0 0 3.92 0 3.9c0 .9.4 1.7 1.5 1.7c1 0 1.5-.7 1.5-1.7c.01.03 0-3.9 0-3.9l1.3 0c0 0-.02 5.31 0 5.3c0 .5 0 1 0 1.2c0 0-1.2 0-1.2 0c0-.1 0-.5 0-.8c0 0 0 0 0 0zm5-5.7l1.4 0l0 1.2l-1.4 0c0 0 .04 3.34 0 3.3c0 .6.3.9.9.9c.2 0 .4 0 .5 0c0 0 0 1.1 0 1.1c-.1 0-.4.1-.8.1c-1.1 0-1.8-.7-1.8-1.9c-.03.03 0-3.5 0-3.5l-1.3 0l0-1.2c0 0 .38.02.4 0c.7 0 1-.4 1-1c-.02.02 0-1 0-1l1.1 0l0 2zm3.1 6.5l0-6.5l1.3 0l0 6.5l-1.3 0zm.7-9.9c.5 0 .9.4.9 1c0 .5-.4.9-.9.9c-.5 0-1-.4-1-.9c0-.6.5-1 1-1zm7.6 6.7c0-1.5-1-2.4-2.1-2.4c-1.1 0-2 .9-2 2.4c0 1.5.9 2.3 2 2.3c1.1 0 2.1-.8 2.1-2.3zm1.2 0c0 1.9-1.3 3.4-3.3 3.4c-1.9 0-3.3-1.5-3.3-3.4c0-2 1.4-3.5 3.3-3.5c2 0 3.3 1.5 3.3 3.5zm2.9 3.2l-1.2 0l0-6.5l1.2 0c0 0 .01.95 0 .9c.5-.8 1.3-1.1 2-1.1c1.6 0 2.3 1.1 2.3 2.6c.03-.01 0 4.1 0 4.1l-1.2 0c0 0-.04-3.89 0-3.9c0-.9-.4-1.6-1.6-1.6c-.9 0-1.5.8-1.5 1.8c.04-.05 0 3.7 0 3.7zm12.4-.9c1.2 0 1.9-1 1.9-2.4c0-1.3-.7-2.2-1.9-2.2c-1.2 0-1.9.9-1.9 2.2c0 1.4.7 2.4 1.9 2.4zm1.9-.1c-.3.6-1 1.2-2 1.2c-1.9 0-3.1-1.5-3.1-3.5c0-1.8 1.2-3.4 3.1-3.4c1.1 0 1.7.6 2 1.1c-.05.03 0-4.2 0-4.2l1.2 0c0 0 .01 8.61 0 8.6c0 .6.1 1.1.1 1.2c0 0-1.3 0-1.3 0c0-.1 0-.5 0-.9c0 0 0-.1 0-.1zm7.7-2.9c0-.9-.6-1.7-1.7-1.7c-1.1 0-1.8.9-1.8 1.7c0 0 3.5 0 3.5 0zm1.3 2.1c-.3 1.1-1.4 2-2.9 2c-1.7 0-3.3-1.3-3.3-3.5c0-2 1.5-3.4 3.1-3.4c2 0 3.2 1.4 3.2 3.4c0 .2 0 .3-.1.4c0 0-4.8 0-4.8 0c0 1.2.8 2 1.9 2c1.1 0 1.6-.6 1.8-1.3c0 0 1.1.4 1.1.4zm6.8-3.5l0 5.3l-1.3 0l0-5.3l-1.2 0l0-1.2l1.2 0c0 0-.05-1.08 0-1.1c0-1.4.9-2.2 2.1-2.2c.4 0 .7.1.7.1c0 0 0 1.2 0 1.2c0-.1-.2-.1-.5-.1c-.5 0-1 .2-1 1.1c-.04-.01 0 1 0 1l1.5 0l0 1.2l-1.5 0zm7.4 2.1c0-1.5-.9-2.4-2-2.4c-1.1 0-2 .9-2 2.4c0 1.5.9 2.3 2 2.3c1.1 0 2-.8 2-2.3zm1.3 0c0 1.9-1.4 3.4-3.3 3.4c-1.9 0-3.3-1.5-3.3-3.4c0-2 1.4-3.5 3.3-3.5c1.9 0 3.3 1.5 3.3 3.5zm5.2-2c-.1 0-.3 0-.5 0c-1.1 0-1.8.5-1.8 2c.01-.05 0 3.2 0 3.2l-1.3 0l0-6.5l1.3 0c0 0-.02 1.15 0 1.1c.5-.9 1.3-1.2 1.9-1.2c.2 0 .4 0 .4 0c0 0 0 1.4 0 1.4zm1.4 5.2l0-6.5l1.2 0c0 0 .01.88 0 .9c.4-.7 1.2-1.1 2-1.1c.8 0 1.6.4 1.9 1.3c.5-1 1.4-1.3 2.2-1.3c1.1 0 2.2.8 2.2 2.5c.04 0 0 4.2 0 4.2l-1.2 0c0 0-.01-4.07 0-4.1c0-.8-.4-1.5-1.4-1.5c-.9 0-1.5.7-1.5 1.7c.01-.02 0 3.9 0 3.9l-1.3 0c0 0 .04-4.07 0-4.1c0-.8-.4-1.5-1.3-1.5c-.9 0-1.5.7-1.5 1.7c-.05-.01 0 3.9 0 3.9l-1.3 0zm11.2-1.7c0-1.2.8-1.8 1.9-2c0 0 1.8-.3 1.8-.3c.4 0 .5-.2.5-.4c0-.7-.4-1.2-1.4-1.2c-.9 0-1.4.5-1.5 1.3c0 0-1.2-.3-1.2-.3c.1-1.2 1.3-2.1 2.7-2.1c1.9 0 2.7 1.1 2.7 2.4c0 0 0 3.3 0 3.3c0 .5 0 .9 0 1c0 0-1.2 0-1.2 0c0-.1-.1-.4-.1-.9c-.3.5-.9 1.1-2.1 1.1c-1.3 0-2.1-.9-2.1-1.9c0 0 0 0 0 0zm4.2-1.1c-.01.03 0-.3 0-.3c0 0-2 .33-2 .3c-.5.1-.9.4-.9 1c0 .5.4.9 1 .9c1.1 0 1.9-.5 1.9-1.9zm4.9-3.7l1.4 0l0 1.2l-1.4 0c0 0 .03 3.34 0 3.3c0 .6.3.9.9.9c.2 0 .4 0 .5 0c0 0 0 1.1 0 1.1c-.1 0-.4.1-.8.1c-1.1 0-1.8-.7-1.8-1.9c-.04.03 0-3.5 0-3.5l-1.3 0l0-1.2c0 0 .37.02.4 0c.7 0 1-.4 1-1c-.03.02 0-1 0-1l1.1 0l0 2zm3.1 6.5l0-6.5l1.3 0l0 6.5l-1.3 0zm.6-9.9c.6 0 1 .4 1 1c0 .5-.4.9-1 .9c-.5 0-.9-.4-.9-.9c0-.6.4-1 .9-1zm7.6 6.7c0-1.5-.9-2.4-2-2.4c-1.1 0-2 .9-2 2.4c0 1.5.9 2.3 2 2.3c1.1 0 2-.8 2-2.3zm1.3 0c0 1.9-1.3 3.4-3.3 3.4c-1.9 0-3.3-1.5-3.3-3.4c0-2 1.4-3.5 3.3-3.5c2 0 3.3 1.5 3.3 3.5zm2.9 3.2l-1.2 0l0-6.5l1.2 0c0 0 0 .95 0 .9c.5-.8 1.2-1.1 2-1.1c1.5 0 2.3 1.1 2.3 2.6c.02-.01 0 4.1 0 4.1l-1.2 0c0 0-.05-3.89 0-3.9c0-.9-.4-1.6-1.6-1.6c-1 0-1.5.8-1.5 1.8c.02-.05 0 3.7 0 3.7zm7.2-1.8c.6 0 1.1.5 1.1 1.3c0 1.8-1.2 2.5-2 2.7c0 0 0-.7 0-.7c.7-.2 1.1-.9 1.1-1.5c0 0-.1.1-.3.1c-.5 0-.9-.4-.9-1c0-.4.4-.9 1-.9z" stroke="none" fill="#144542"/></g><g id="Polygon162455"><path d="m2.3 50.4l-1.2 0l0-6.5l1.2 0c0 0 .02.95 0 .9c.5-.8 1.3-1.1 2-1.1c1.6 0 2.3 1.1 2.3 2.6c.04-.01 0 4.1 0 4.1l-1.2 0c0 0-.03-3.89 0-3.9c0-.9-.4-1.6-1.5-1.6c-1 0-1.6.8-1.6 1.8c.05-.05 0 3.7 0 3.7zm11.2-3.2c0-1.5-1-2.4-2.1-2.4c-1 0-2 .9-2 2.4c0 1.5 1 2.3 2 2.3c1.1 0 2.1-.8 2.1-2.3zm1.3 0c0 1.9-1.4 3.4-3.4 3.4c-1.9 0-3.3-1.5-3.3-3.4c0-2 1.4-3.5 3.3-3.5c2 0 3.4 1.5 3.4 3.5zm5.8 2.4c-.3.7-1.2 1-1.9 1c-1.5 0-2.4-1.1-2.4-2.6c-.05.01 0-4.1 0-4.1l1.2 0c0 0 .02 3.92 0 3.9c0 .9.4 1.7 1.5 1.7c1 0 1.5-.7 1.5-1.7c.03.03 0-3.9 0-3.9l1.3 0c0 0 0 5.31 0 5.3c0 .5 0 1 .1 1.2c0 0-1.2 0-1.2 0c-.1-.1-.1-.5-.1-.8c0 0 0 0 0 0zm3.9-1.3c.1.7.6 1.2 1.5 1.2c.7 0 1.1-.4 1.1-.8c0-.4-.3-.7-.8-.9c0 0-1.1-.2-1.1-.2c-1-.2-1.6-.9-1.6-1.8c0-1.1 1-2.1 2.3-2.1c1.7 0 2.3 1.2 2.4 1.8c0 0-1.1.4-1.1.4c0-.4-.3-1.1-1.3-1.1c-.7 0-1.1.4-1.1.9c0 .3.2.6.7.7c0 0 1.1.3 1.1.3c1.2.2 1.8.9 1.8 1.9c0 .9-.8 2-2.4 2c-1.8 0-2.5-1.1-2.6-1.9c0 0 1.1-.4 1.1-.4zm8.9 4.7l0-9.1l1.3 0c0 0-.03 1.03 0 1c.3-.6 1.1-1.1 2.1-1.1c2 0 3 1.5 3 3.4c0 1.9-1.1 3.4-3 3.4c-1 0-1.8-.5-2.1-1.1c-.01.03 0 3.5 0 3.5l-1.3 0zm5.1-5.8c0-1.3-.7-2.3-1.9-2.3c-1.1 0-1.9 1-1.9 2.3c0 1.3.8 2.3 1.9 2.3c1.2 0 1.9-1 1.9-2.3c0 0 0 0 0 0zm6.5-2c-.1 0-.3 0-.5 0c-1.1 0-1.8.5-1.8 2c.01-.05 0 3.2 0 3.2l-1.3 0l0-6.5l1.3 0c0 0-.01 1.15 0 1.1c.5-.9 1.3-1.2 1.9-1.2c.2 0 .4 0 .4 0c0 0 0 1.4 0 1.4zm6.1 2c0-1.5-.9-2.4-2-2.4c-1.1 0-2 .9-2 2.4c0 1.5.9 2.3 2 2.3c1.1 0 2-.8 2-2.3zm1.3 0c0 1.9-1.3 3.4-3.3 3.4c-1.9 0-3.3-1.5-3.3-3.4c0-2 1.4-3.5 3.3-3.5c2 0 3.3 1.5 3.3 3.5zm1.7 5.8l0-9.1l1.2 0c0 0-.02 1.03 0 1c.3-.6 1.1-1.1 2.2-1.1c1.9 0 2.9 1.5 2.9 3.4c0 1.9-1.1 3.4-3 3.4c-1 0-1.7-.5-2.1-1.1c.01.03 0 3.5 0 3.5l-1.2 0zm5-5.8c0-1.3-.7-2.3-1.9-2.3c-1.1 0-1.9 1-1.9 2.3c0 1.3.8 2.3 1.9 2.3c1.2 0 1.9-1 1.9-2.3c0 0 0 0 0 0zm7.8 0c0-1.5-1-2.4-2.1-2.4c-1 0-2 .9-2 2.4c0 1.5 1 2.3 2 2.3c1.1 0 2.1-.8 2.1-2.3zm1.3 0c0 1.9-1.4 3.4-3.4 3.4c-1.9 0-3.3-1.5-3.3-3.4c0-2 1.4-3.5 3.3-3.5c2 0 3.4 1.5 3.4 3.5zm2.1 1.1c.1.7.6 1.2 1.5 1.2c.7 0 1.1-.4 1.1-.8c0-.4-.3-.7-.8-.9c0 0-1.1-.2-1.1-.2c-1-.2-1.6-.9-1.6-1.8c0-1.1 1-2.1 2.3-2.1c1.8 0 2.3 1.2 2.5 1.8c0 0-1.2.4-1.2.4c0-.4-.3-1.1-1.3-1.1c-.7 0-1.1.4-1.1.9c0 .3.2.6.7.7c0 0 1.1.3 1.1.3c1.2.2 1.8.9 1.8 1.9c0 .9-.8 2-2.4 2c-1.8 0-2.5-1.1-2.6-1.9c0 0 1.1-.4 1.1-.4zm10.3-1.1c0-1.5-.9-2.4-2-2.4c-1.1 0-2 .9-2 2.4c0 1.5.9 2.3 2 2.3c1.1 0 2-.8 2-2.3zm1.3 0c0 1.9-1.4 3.4-3.3 3.4c-1.9 0-3.3-1.5-3.3-3.4c0-2 1.4-3.5 3.3-3.5c1.9 0 3.3 1.5 3.3 3.5zm2.9 3.2l-1.3 0l0-6.5l1.3 0c0 0-.02.95 0 .9c.5-.8 1.2-1.1 2-1.1c1.5 0 2.3 1.1 2.3 2.6c0-.01 0 4.1 0 4.1l-1.3 0c0 0 .03-3.89 0-3.9c0-.9-.3-1.6-1.5-1.6c-1 0-1.5.8-1.5 1.8c.01-.05 0 3.7 0 3.7zm6.9-2.1c0 .7.6 1.2 1.5 1.2c.7 0 1.1-.4 1.1-.8c0-.4-.3-.7-.9-.9c0 0-1.1-.2-1.1-.2c-1-.2-1.6-.9-1.6-1.8c0-1.1 1.1-2.1 2.3-2.1c1.8 0 2.4 1.2 2.5 1.8c0 0-1.1.4-1.1.4c-.1-.4-.3-1.1-1.4-1.1c-.6 0-1.1.4-1.1.9c0 .3.3.6.8.7c0 0 1 .3 1 .3c1.2.2 1.8.9 1.8 1.9c0 .9-.7 2-2.3 2c-1.8 0-2.6-1.1-2.7-1.9c0 0 1.2-.4 1.2-.4zm13.2 1.3c-.4.7-1.2 1-1.9 1c-1.5 0-2.5-1.1-2.5-2.6c.03.01 0-4.1 0-4.1l1.3 0c0 0 0 3.92 0 3.9c0 .9.4 1.7 1.5 1.7c1 0 1.5-.7 1.5-1.7c.01.03 0-3.9 0-3.9l1.3 0c0 0-.02 5.31 0 5.3c0 .5 0 1 0 1.2c0 0-1.2 0-1.2 0c0-.1 0-.5 0-.8c0 0 0 0 0 0zm4.6.8l-1.3 0l0-6.5l1.3 0c0 0-.02.95 0 .9c.5-.8 1.2-1.1 2-1.1c1.5 0 2.3 1.1 2.3 2.6c0-.01 0 4.1 0 4.1l-1.3 0c0 0 .04-3.89 0-3.9c0-.9-.3-1.6-1.5-1.6c-1 0-1.5.8-1.5 1.8c.01-.05 0 3.7 0 3.7zm10.7-3.9c0-.9-.6-1.7-1.8-1.7c-1 0-1.7.9-1.7 1.7c0 0 3.5 0 3.5 0zm1.3 2.1c-.4 1.1-1.4 2-2.9 2c-1.8 0-3.3-1.3-3.3-3.5c0-2 1.5-3.4 3.1-3.4c2 0 3.1 1.4 3.1 3.4c0 .2 0 .3 0 .4c0 0-4.9 0-4.9 0c0 1.2.9 2 2 2c1 0 1.5-.6 1.8-1.3c0 0 1.1.4 1.1.4z" stroke="none" fill="#144542"/></g><g id="Polygon162454"><path d="m1 29.7l0-9.2l1.5 0c0 0 .02.94 0 .9c.3-.5 1.1-1 2.1-1c2 0 3.1 1.5 3.1 3.4c0 2-1.2 3.5-3.1 3.5c-1 0-1.7-.4-2-.9c-.04-.02 0 3.3 0 3.3l-1.6 0zm5.1-5.9c0-1.2-.7-2-1.8-2c-1 0-1.7.8-1.7 2c0 1.3.7 2.1 1.7 2.1c1.1 0 1.8-.8 1.8-2.1c0 0 0 0 0 0zm4.6-.4c0 0 1.7-.3 1.7-.3c.4-.1.5-.2.5-.5c0-.5-.4-1-1.2-1c-.8 0-1.3.6-1.4 1.2c0 0-1.4-.3-1.4-.3c.1-1.1 1.1-2.2 2.8-2.2c2 0 2.8 1.2 2.8 2.5c0 0 0 3.3 0 3.3c0 .6 0 1 0 1c0 0-1.4 0-1.4 0c0 0-.1-.3-.1-.8c-.3.5-.9 1-2 1c-1.4 0-2.2-.9-2.2-2c0-1.1.8-1.8 1.9-1.9zm2.2 1c.02-.01 0-.3 0-.3c0 0-1.7.25-1.7.3c-.5 0-.9.3-.9.8c0 .5.4.9 1 .9c.9 0 1.6-.4 1.6-1.7zm7.3-2.3c-.2 0-.4 0-.5 0c-1.2 0-1.8.7-1.8 1.9c.01-.01 0 3.1 0 3.1l-1.6 0l0-6.6l1.6 0c0 0-.03 1.1 0 1.1c.3-.7 1-1.1 1.9-1.1c.2 0 .3 0 .4 0c0 0 0 1.6 0 1.6zm3.6-1.6l1.3 0l0 1.4l-1.3 0c0 0-.03 3.09 0 3.1c0 .6.2.8.8.8c.2 0 .5 0 .5 0c0 0 0 1.3 0 1.3c0 0-.3.1-.9.1c-1.2 0-2-.7-2-2c.02.05 0-3.3 0-3.3l-1.2 0l0-1.4c0 0 .34.05.3 0c.7 0 1.1-.4 1.1-1c-.04.02 0-1 0-1l1.4 0l0 2zm7.2 2.6c0-.8-.5-1.4-1.6-1.4c-1 0-1.6.7-1.6 1.4c0 0 3.2 0 3.2 0zm1.5 2.1c-.4 1.2-1.4 2.1-3 2.1c-1.8 0-3.3-1.3-3.3-3.5c0-2.1 1.5-3.5 3.2-3.5c2 0 3.2 1.4 3.2 3.5c0 .2-.1.4-.1.5c0 0-4.8 0-4.8 0c.1 1 .9 1.7 1.8 1.7c1 0 1.5-.5 1.7-1.2c0 0 1.3.4 1.3.4zm3.1 1.9l-1.5 0l0-6.6l1.5 0c0 0 0 .92 0 .9c.4-.7 1.2-1 1.9-1c1.6 0 2.4 1.1 2.4 2.6c.02-.04 0 4.1 0 4.1l-1.5 0c0 0-.05-3.87 0-3.9c0-.8-.4-1.4-1.4-1.4c-.9 0-1.4.7-1.4 1.5c.04.03 0 3.8 0 3.8zm7.8-3.7c0 0 1.7-.3 1.7-.3c.4-.1.5-.2.5-.5c0-.5-.4-1-1.3-1c-.8 0-1.3.6-1.3 1.2c0 0-1.4-.3-1.4-.3c.1-1.1 1.1-2.2 2.7-2.2c2 0 2.8 1.2 2.8 2.5c0 0 0 3.3 0 3.3c0 .6.1 1 .1 1c0 0-1.5 0-1.5 0c0 0 0-.3 0-.8c-.3.5-1 1-2.1 1c-1.3 0-2.2-.9-2.2-2c0-1.1.9-1.8 2-1.9zm2.2 1c-.02-.01 0-.3 0-.3c0 0-1.74.25-1.7.3c-.5 0-.9.3-.9.8c0 .5.3.9.9.9c.9 0 1.7-.4 1.7-1.7zm3.4 2.7l0-6.6l1.6 0l0 6.6l-1.6 0zm.8-9.9c.5 0 1 .5 1 1c0 .6-.5 1.1-1 1.1c-.6 0-1-.5-1-1.1c0-.5.4-1 1-1zm6.6 4.9c-.1 0-.3 0-.5 0c-1.2 0-1.8.7-1.8 1.9c.05-.01 0 3.1 0 3.1l-1.5 0l0-6.6l1.5 0c0 0 .01 1.1 0 1.1c.3-.7 1-1.1 1.9-1.1c.2 0 .4 0 .4 0c0 0 0 1.6 0 1.6zm5.6 1c0-.8-.5-1.4-1.6-1.4c-1 0-1.6.7-1.6 1.4c0 0 3.2 0 3.2 0zm1.5 2.1c-.4 1.2-1.4 2.1-3 2.1c-1.8 0-3.3-1.3-3.3-3.5c0-2.1 1.5-3.5 3.2-3.5c2 0 3.2 1.4 3.2 3.5c0 .2-.1.4-.1.5c0 0-4.8 0-4.8 0c.1 1 .8 1.7 1.8 1.7c1 0 1.5-.5 1.7-1.2c0 0 1.3.4 1.3.4zm2.4-.2c0 .6.5 1.1 1.3 1.1c.6 0 1-.4 1-.8c0-.3-.3-.6-.8-.7c0 0-1-.2-1-.2c-1.1-.3-1.7-1-1.7-1.9c0-1.2 1-2.2 2.4-2.2c1.8 0 2.4 1.2 2.5 1.9c0 0-1.3.4-1.3.4c-.1-.4-.3-1-1.2-1c-.6 0-1 .3-1 .7c0 .4.3.6.7.7c0 0 1 .2 1 .2c1.2.3 1.9 1 1.9 2c0 1-.8 2.1-2.5 2.1c-1.9 0-2.6-1.2-2.7-2c0 0 1.4-.3 1.4-.3z" stroke="none" fill="#144542"/></g><g id="Polygon162453"><path d="m4.5 5.8c1 0 1.6-.6 1.6-1.5c0-.9-.6-1.5-1.6-1.5c-.04-.02-1.7 0-1.7 0l0 3c0 0 1.66-.05 1.7 0zm-1.7 1.4l0 3.7l-1.7 0l0-9.5c0 0 3.6-.05 3.6 0c1.8 0 3 1.2 3 2.9c0 1.7-1.2 2.9-3 2.9c0-.02-1.9 0-1.9 0zm10.6.4c0-1.3-.9-2-1.8-2c-1 0-1.9.7-1.9 2c0 1.4.9 2.1 1.9 2.1c.9 0 1.8-.7 1.8-2.1zm1.6 0c0 2.1-1.5 3.5-3.4 3.5c-2 0-3.4-1.4-3.4-3.5c0-2 1.4-3.5 3.4-3.5c1.9 0 3.4 1.5 3.4 3.5zm5.7 2.6c-.3.6-1.1.9-1.8.9c-1.6 0-2.5-1.2-2.5-2.6c-.02-.01 0-4.2 0-4.2l1.5 0c0 0 .04 3.91 0 3.9c0 .8.4 1.5 1.4 1.5c.9 0 1.3-.6 1.3-1.5c.04.04 0-3.9 0-3.9l1.6 0c0 0 .01 5.42 0 5.4c0 .6 0 1 .1 1.2c0 0-1.5 0-1.5 0c0-.1-.1-.4-.1-.7c0 0 0 0 0 0zm7.4-4.3c-.2 0-.4 0-.5 0c-1.2 0-1.8.7-1.8 1.9c0-.01 0 3.1 0 3.1l-1.6 0l0-6.6l1.6 0c0 0-.04 1.1 0 1.1c.3-.7 1-1.1 1.9-1.1c.1 0 .3 0 .4 0c0 0 0 1.6 0 1.6zm4.6 5l0-9.8l1.6 0l0 9.8l-1.6 0zm7.9-4c0-.8-.5-1.4-1.6-1.4c-1 0-1.6.7-1.6 1.4c0 0 3.2 0 3.2 0zm1.5 2.1c-.3 1.2-1.4 2.1-3 2.1c-1.7 0-3.3-1.3-3.3-3.5c0-2.1 1.5-3.5 3.2-3.5c2 0 3.2 1.4 3.2 3.5c0 .2 0 .4 0 .5c0 0-4.8 0-4.8 0c0 1 .8 1.7 1.7 1.7c1 0 1.5-.5 1.7-1.2c0 0 1.3.4 1.3.4zm2.4-.2c0 .6.5 1.1 1.3 1.1c.7 0 1-.4 1-.8c0-.3-.2-.6-.8-.7c0 0-.9-.2-.9-.2c-1.2-.3-1.8-1-1.8-1.9c0-1.2 1-2.2 2.4-2.2c1.8 0 2.4 1.2 2.5 1.9c0 0-1.3.4-1.3.4c0-.4-.3-1-1.2-1c-.5 0-.9.3-.9.7c0 .4.2.6.6.7c0 0 1 .2 1 .2c1.3.3 1.9 1 1.9 2c0 1-.8 2.1-2.5 2.1c-1.9 0-2.6-1.2-2.7-2c0 0 1.4-.3 1.4-.3zm13-1.9c0-.8-.5-1.4-1.6-1.4c-1 0-1.5.7-1.6 1.4c0 0 3.2 0 3.2 0zm1.5 2.1c-.3 1.2-1.4 2.1-2.9 2.1c-1.8 0-3.4-1.3-3.4-3.5c0-2.1 1.5-3.5 3.2-3.5c2 0 3.2 1.4 3.2 3.5c0 .2 0 .4 0 .5c0 0-4.8 0-4.8 0c0 1 .8 1.7 1.8 1.7c.9 0 1.4-.5 1.6-1.2c0 0 1.3.4 1.3.4zm3.2 1.9l-1.6 0l0-6.6l1.5 0c0 0 .04.92 0 .9c.5-.7 1.3-1 2-1c1.6 0 2.4 1.1 2.4 2.6c-.04-.04 0 4.1 0 4.1l-1.6 0c0 0-.01-3.87 0-3.9c0-.8-.4-1.4-1.4-1.4c-.8 0-1.3.7-1.3 1.5c-.02.03 0 3.8 0 3.8zm8.1-6.6l1.4 0l0 1.4l-1.4 0c0 0 .05 3.09 0 3.1c0 .6.3.8.9.8c.2 0 .5 0 .5 0c0 0 0 1.3 0 1.3c-.1 0-.4.1-.9.1c-1.2 0-2-.7-2-2c0 .05 0-3.3 0-3.3l-1.2 0l0-1.4c0 0 .32.05.3 0c.7 0 1-.4 1-1c.03.02 0-1 0-1l1.4 0l0 2zm6.7 1.6c-.1 0-.3 0-.5 0c-1.2 0-1.7.7-1.7 1.9c-.04-.01 0 3.1 0 3.1l-1.6 0l0-6.6l1.5 0c0 0 .02 1.1 0 1.1c.3-.7 1.1-1.1 1.9-1.1c.2 0 .4 0 .4 0c0 0 0 1.6 0 1.6zm5.6 1c0-.8-.5-1.4-1.6-1.4c-1 0-1.6.7-1.6 1.4c0 0 3.2 0 3.2 0zm1.5 2.1c-.3 1.2-1.4 2.1-3 2.1c-1.7 0-3.3-1.3-3.3-3.5c0-2.1 1.5-3.5 3.2-3.5c2 0 3.2 1.4 3.2 3.5c0 .2 0 .4-.1.5c0 0-4.8 0-4.8 0c.1 1 .9 1.7 1.8 1.7c1 0 1.5-.5 1.7-1.2c0 0 1.3.4 1.3.4zm1.6 4.5l0-9.2l1.5 0c0 0-.01.94 0 .9c.3-.5 1.1-1 2.1-1c1.9 0 3 1.5 3 3.4c0 2-1.2 3.5-3.1 3.5c-.9 0-1.6-.4-2-.9c.03-.02 0 3.3 0 3.3l-1.5 0zm5.1-5.9c0-1.2-.8-2-1.8-2c-1 0-1.8.8-1.8 2c0 1.3.8 2.1 1.8 2.1c1 0 1.8-.8 1.8-2.1c0 0 0 0 0 0zm6.9-1.7c-.2 0-.4 0-.5 0c-1.2 0-1.8.7-1.8 1.9c0-.01 0 3.1 0 3.1l-1.6 0l0-6.6l1.6 0c0 0-.04 1.1 0 1.1c.3-.7 1-1.1 1.9-1.1c.2 0 .3 0 .4 0c0 0 0 1.6 0 1.6zm1.3 5l0-6.6l1.5 0l0 6.6l-1.5 0zm.8-9.9c.5 0 1 .5 1 1c0 .6-.5 1.1-1 1.1c-.6 0-1-.5-1-1.1c0-.5.4-1 1-1zm3.6 7.8c0 .6.5 1.1 1.3 1.1c.6 0 1-.4 1-.8c0-.3-.3-.6-.8-.7c0 0-1-.2-1-.2c-1.1-.3-1.7-1-1.7-1.9c0-1.2 1-2.2 2.4-2.2c1.8 0 2.4 1.2 2.5 1.9c0 0-1.3.4-1.3.4c-.1-.4-.3-1-1.2-1c-.6 0-1 .3-1 .7c0 .4.3.6.7.7c0 0 1 .2 1 .2c1.2.3 1.9 1 1.9 2c0 1-.8 2.1-2.5 2.1c-1.9 0-2.6-1.2-2.7-2c0 0 1.4-.3 1.4-.3zm9.6-1.9c0-.8-.5-1.4-1.6-1.4c-1 0-1.6.7-1.6 1.4c0 0 3.2 0 3.2 0zm1.5 2.1c-.3 1.2-1.4 2.1-3 2.1c-1.7 0-3.3-1.3-3.3-3.5c0-2.1 1.5-3.5 3.2-3.5c2 0 3.2 1.4 3.2 3.5c0 .2 0 .4 0 .5c0 0-4.8 0-4.8 0c0 1 .8 1.7 1.7 1.7c1 0 1.5-.5 1.7-1.2c0 0 1.3.4 1.3.4zm2.4-.2c0 .6.5 1.1 1.3 1.1c.7 0 1-.4 1-.8c0-.3-.2-.6-.8-.7c0 0-.9-.2-.9-.2c-1.2-.3-1.8-1-1.8-1.9c0-1.2 1-2.2 2.4-2.2c1.8 0 2.4 1.2 2.5 1.9c0 0-1.3.4-1.3.4c0-.4-.3-1-1.2-1c-.5 0-.9.3-.9.7c0 .4.2.6.6.7c0 0 1 .2 1 .2c1.3.3 1.9 1 1.9 2c0 1-.8 2.1-2.5 2.1c-1.9 0-2.6-1.2-2.7-2c0 0 1.4-.3 1.4-.3z" stroke="none" fill="#144542"/></g></svg>