<?xml version="1.0" standalone="no"?><!DOCTYPE svg PUBLIC "-//W3C//DTD SVG 1.1//EN" "http://www.w3.org/Graphics/SVG/1.1/DTD/svg11.dtd"><svg xmlns="http://www.w3.org/2000/svg" version="1.1" width="163.4px" height="52.8px" viewBox="0 -3 163.4 52.8" style="top:-3px"><desc>Sensibilisation</desc><defs/><g id="Polygon174280"><path d="m6.6 4.2c-.1-.7-.8-1.7-2.2-1.7c-1.2 0-2 .7-2 1.7c0 .7.5 1.3 1.3 1.5c0 0 1.6.3 1.6.3c1.7.4 2.6 1.5 2.6 2.9c0 1.6-1.3 3-3.5 3c-2.5 0-3.7-1.5-3.8-3c0 0 1.3-.4 1.3-.4c.1 1.1.9 2.2 2.5 2.2c1.4 0 2.1-.8 2.1-1.7c0-.7-.5-1.4-1.5-1.6c0 0-1.5-.3-1.5-.3c-1.5-.3-2.5-1.3-2.5-2.8c0-1.6 1.5-3.1 3.4-3.1c2.3 0 3.2 1.5 3.5 2.6c0 0-1.3.4-1.3.4zm7.7 3.3c0-1-.7-1.8-1.9-1.8c-1.1 0-1.8.9-1.9 1.8c0 0 3.8 0 3.8 0zm1.4 2.2c-.4 1.3-1.5 2.2-3.1 2.2c-1.9 0-3.6-1.3-3.6-3.7c0-2.2 1.6-3.7 3.4-3.7c2.1 0 3.3 1.5 3.3 3.7c0 .2 0 .3 0 .4c0 0-5.2 0-5.2 0c0 1.3.9 2.1 2.1 2.1c1.1 0 1.7-.6 1.9-1.4c0 0 1.2.4 1.2.4zm3.1 2l-1.3 0l0-6.9l1.3 0c0 0 .01.96 0 1c.5-.9 1.3-1.2 2.2-1.2c1.6 0 2.4 1.2 2.4 2.7c.05.01 0 4.4 0 4.4l-1.3 0c0 0-.02-4.16 0-4.2c0-.9-.4-1.7-1.6-1.7c-1.1 0-1.7.8-1.7 1.9c.03 0 0 4 0 4zm7.4-2.2c.1.7.6 1.3 1.6 1.3c.8 0 1.2-.4 1.2-.9c0-.5-.3-.8-.9-.9c0 0-1.2-.3-1.2-.3c-1.1-.2-1.7-1-1.7-2c0-1.1 1.1-2.2 2.5-2.2c1.9 0 2.5 1.3 2.6 1.9c0 0-1.2.5-1.2.5c0-.4-.3-1.2-1.4-1.2c-.7 0-1.2.4-1.2.9c0 .4.3.8.8.9c0 0 1.1.2 1.1.2c1.3.3 2 1.1 2 2.1c0 1-.9 2.1-2.6 2.1c-1.9 0-2.7-1.2-2.8-2c0 0 1.2-.4 1.2-.4zm6 2.2l0-6.9l1.3 0l0 6.9l-1.3 0zm.6-10.6c.6 0 1 .5 1 1c0 .6-.4 1-1 1c-.5 0-.9-.4-.9-1c0-.5.4-1 .9-1zm3 10.6l0-10.5l1.4 0c0 0-.01 4.54 0 4.5c.3-.6 1.1-1.1 2.3-1.1c2.1 0 3.2 1.6 3.2 3.6c0 2.1-1.2 3.7-3.2 3.7c-1.1 0-1.9-.4-2.3-1.2c-.01.02 0 1 0 1l-1.4 0zm3.5-5.9c-1.3 0-2.1.9-2.1 2.4c0 1.5.8 2.5 2.1 2.5c1.2 0 2-1 2-2.5c0-1.5-.8-2.4-2-2.4zm5.1 5.9l0-6.9l1.4 0l0 6.9l-1.4 0zm.7-10.6c.6 0 1 .5 1 1c0 .6-.4 1-1 1c-.5 0-1-.4-1-1c0-.5.5-1 1-1zm3 10.6l0-10.5l1.4 0l0 10.5l-1.4 0zm3.7 0l0-6.9l1.3 0l0 6.9l-1.3 0zm.7-10.6c.5 0 .9.5.9 1c0 .6-.4 1-.9 1c-.6 0-1-.4-1-1c0-.5.4-1 1-1zm3.5 8.4c.1.7.7 1.3 1.7 1.3c.7 0 1.2-.4 1.2-.9c0-.5-.4-.8-.9-.9c0 0-1.2-.3-1.2-.3c-1.1-.2-1.8-1-1.8-2c0-1.1 1.1-2.2 2.5-2.2c1.9 0 2.5 1.3 2.7 1.9c0 0-1.2.5-1.2.5c-.1-.4-.4-1.2-1.5-1.2c-.7 0-1.2.4-1.2.9c0 .4.3.8.8.9c0 0 1.2.2 1.2.2c1.2.3 1.9 1.1 1.9 2.1c0 1-.8 2.1-2.5 2.1c-2 0-2.8-1.2-2.9-2c0 0 1.2-.4 1.2-.4zm5.4.4c0-1.3.9-2 2.2-2.2c0 0 1.8-.2 1.8-.2c.5-.1.6-.3.6-.6c0-.6-.5-1.2-1.5-1.2c-1 0-1.5.6-1.6 1.4c0 0-1.3-.3-1.3-.3c.1-1.3 1.3-2.3 2.8-2.3c2.1 0 2.9 1.2 2.9 2.6c0 0 0 3.5 0 3.5c0 .6.1 1 .1 1.1c0 0-1.3 0-1.3 0c0-.1-.1-.4-.1-.9c-.3.5-1 1.1-2.2 1.1c-1.5 0-2.4-.9-2.4-2c0 0 0 0 0 0zm4.6-1.2c-.03.04 0-.3 0-.3c0 0-2.16.34-2.2.3c-.5.1-1 .5-1 1.1c0 .5.5 1 1.2 1c1.1 0 2-.5 2-2.1zm5.3-3.9l1.5 0l0 1.2l-1.5 0c0 0-.02 3.61 0 3.6c0 .7.2 1 1 1c.1 0 .4-.1.5-.1c0 0 0 1.2 0 1.2c-.1 0-.5.1-.9.1c-1.2 0-2-.7-2-2c.02.02 0-3.8 0-3.8l-1.3 0l0-1.2c0 0 .36-.04.4 0c.7 0 1-.5 1-1.1c.03-.02 0-1.1 0-1.1l1.3 0l0 2.2zm3.3 6.9l0-6.9l1.3 0l0 6.9l-1.3 0zm.7-10.6c.5 0 1 .5 1 1c0 .6-.5 1-1 1c-.6 0-1-.4-1-1c0-.5.4-1 1-1zm8.1 7.1c0-1.6-1-2.4-2.1-2.4c-1.2 0-2.2.8-2.2 2.4c0 1.7 1 2.5 2.2 2.5c1.1 0 2.1-.8 2.1-2.5zm1.4 0c0 2.2-1.5 3.7-3.5 3.7c-2.1 0-3.6-1.5-3.6-3.7c0-2.1 1.5-3.7 3.6-3.7c2 0 3.5 1.6 3.5 3.7zm3.1 3.5l-1.3 0l0-6.9l1.3 0c0 0 0 .96 0 1c.5-.9 1.3-1.2 2.1-1.2c1.7 0 2.5 1.2 2.5 2.7c.04.01 0 4.4 0 4.4l-1.3 0c0 0-.02-4.16 0-4.2c0-.9-.4-1.7-1.6-1.7c-1.1 0-1.7.8-1.7 1.9c.03 0 0 4 0 4z" stroke="none" fill="#144542"/></g></svg>