<?xml version="1.0" standalone="no"?><!DOCTYPE svg PUBLIC "-//W3C//DTD SVG 1.1//EN" "http://www.w3.org/Graphics/SVG/1.1/DTD/svg11.dtd"><svg xmlns="http://www.w3.org/2000/svg" version="1.1" width="80.4px" height="30.1px" viewBox="0 -3 80.4 30.1" style="top:-3px"><desc>identification des profils</desc><defs/><g id="Polygon181575"><path d="m3.1 21c.8 0 1.4-.7 1.4-1.7c0-1-.6-1.7-1.4-1.7c-.8 0-1.4.7-1.4 1.7c0 1 .5 1.7 1.4 1.7zm2.6 0c0 .5.1.9.1 1c0 0-1.2 0-1.2 0c0-.2-.1-.5-.1-.7c-.2.4-.8.8-1.5.8c-1.6 0-2.6-1.2-2.6-2.8c0-1.5 1-2.8 2.5-2.8c1 0 1.4.4 1.6.8c.01-.03 0-3.2 0-3.2l1.2 0c0 0 .04 6.9 0 6.9zm5.2-2.3c0-.6-.4-1.2-1.3-1.2c-.8 0-1.3.7-1.3 1.2c0 0 2.6 0 2.6 0zm1.2 1.7c-.3 1-1.1 1.7-2.4 1.7c-1.4 0-2.7-1-2.7-2.8c0-1.7 1.2-2.8 2.6-2.8c1.6 0 2.6 1.1 2.6 2.7c0 .3 0 .4-.1.4c0 0-3.8 0-3.8 0c0 .9.6 1.4 1.4 1.4c.8 0 1.2-.4 1.3-.9c0 0 1.1.3 1.1.3zm1.9-.2c.1.5.4.9 1.1.9c.5 0 .8-.3.8-.6c0-.3-.2-.5-.6-.6c0 0-.8-.2-.8-.2c-.9-.2-1.4-.8-1.4-1.5c0-.9.8-1.7 1.9-1.7c1.5 0 2 .9 2.1 1.5c0 0-1.1.3-1.1.3c0-.3-.3-.8-1-.8c-.4 0-.7.3-.7.6c0 .3.2.5.5.5c0 0 .8.2.8.2c1 .2 1.5.8 1.5 1.6c0 .8-.6 1.7-2 1.7c-1.5 0-2.1-1-2.2-1.6c0 0 1.1-.3 1.1-.3zm7.1 3.8l0-7.4l1.2 0c0 0 .03.76 0 .8c.3-.5.9-.9 1.7-.9c1.6 0 2.5 1.2 2.5 2.8c0 1.6-1 2.8-2.5 2.8c-.8 0-1.4-.3-1.6-.7c-.04-.03 0 2.6 0 2.6l-1.3 0zm4.1-4.7c0-1-.6-1.7-1.4-1.7c-.8 0-1.5.7-1.5 1.7c0 1 .7 1.7 1.5 1.7c.8 0 1.4-.7 1.4-1.7c0 0 0 0 0 0zm5.6-1.4c-.1 0-.3 0-.4 0c-1 0-1.4.5-1.4 1.5c-.02.03 0 2.6 0 2.6l-1.3 0l0-5.4l1.2 0c0 0 .04.9 0 .9c.3-.6.9-.9 1.6-.9c.1 0 .3 0 .3 0c0 0 0 1.3 0 1.3zm4.9 1.4c0-1.1-.7-1.7-1.5-1.7c-.8 0-1.5.6-1.5 1.7c0 1.1.7 1.7 1.5 1.7c.8 0 1.5-.6 1.5-1.7zm1.2 0c0 1.6-1.1 2.8-2.7 2.8c-1.6 0-2.8-1.2-2.8-2.8c0-1.6 1.2-2.8 2.8-2.8c1.6 0 2.7 1.2 2.7 2.8zm4.1-5.2c0 0 0 1.1 0 1.1c-.1 0-.2-.1-.5-.1c-.3 0-.8.2-.8.8c.04.04 0 .7 0 .7l3.6 0l0 5.4l-1.3 0l0-4.3l-2.3 0l0 4.3l-1.2 0l0-4.3l-1 0l0-1.1l1 0c0 0-.04-.69 0-.7c0-1.2.7-1.9 1.8-1.9c.3 0 .6.1.7.1zm.8.7c0-.5.4-.9.9-.9c.4 0 .8.4.8.9c0 .4-.4.8-.8.8c-.5 0-.9-.4-.9-.8c0 0 0 0 0 0zm3.1 7.2l0-7.9l1.3 0l0 7.9l-1.3 0zm3.6-1.8c0 .5.4.9 1.1.9c.5 0 .8-.3.8-.6c0-.3-.2-.5-.7-.6c0 0-.8-.2-.8-.2c-.9-.2-1.4-.8-1.4-1.5c0-.9.9-1.7 2-1.7c1.5 0 1.9.9 2 1.5c0 0-1 .3-1 .3c-.1-.3-.3-.8-1-.8c-.5 0-.8.3-.8.6c0 .3.2.5.5.5c0 0 .8.2.8.2c1.1.2 1.6.8 1.6 1.6c0 .8-.7 1.7-2 1.7c-1.6 0-2.2-1-2.2-1.6c0 0 1.1-.3 1.1-.3z" stroke="none" fill="#144542"/></g><g id="Polygon181574"><path d="m.8 8.8l0-5.3l1.3 0l0 5.3l-1.3 0zm.6-8c.5 0 .9.4.9.9c0 .4-.4.8-.9.8c-.4 0-.8-.4-.8-.8c0-.5.4-.9.8-.9zm4.6 7.1c.8 0 1.4-.7 1.4-1.7c0-1.1-.6-1.7-1.4-1.7c-.8 0-1.4.6-1.4 1.7c0 1 .5 1.7 1.4 1.7zm2.6 0c0 .5.1.9.1.9c0 0-1.2 0-1.2 0c0-.1-.1-.4-.1-.6c-.2.4-.8.8-1.5.8c-1.6 0-2.6-1.2-2.6-2.8c0-1.6 1-2.8 2.5-2.8c1 0 1.4.4 1.6.7c0 .04 0-3.2 0-3.2l1.2 0c0 0 .04 6.97 0 7zm5.2-2.3c0-.6-.4-1.2-1.3-1.2c-.8 0-1.3.6-1.3 1.2c0 0 2.6 0 2.6 0zm1.2 1.7c-.3 1-1.1 1.7-2.4 1.7c-1.4 0-2.7-1-2.7-2.8c0-1.7 1.2-2.8 2.6-2.8c1.6 0 2.6 1 2.6 2.7c0 .2 0 .4-.1.4c0 0-3.8 0-3.8 0c0 .8.6 1.4 1.4 1.4c.8 0 1.2-.4 1.3-.9c0 0 1.1.3 1.1.3zm2.6 1.5l-1.3 0l0-5.3l1.2 0c0 0 .03.73 0 .7c.4-.6 1-.8 1.6-.8c1.3 0 1.9.9 1.9 2.1c.03-.02 0 3.3 0 3.3l-1.2 0c0 0-.04-3.1 0-3.1c0-.7-.3-1.2-1.1-1.2c-.8 0-1.1.6-1.1 1.3c-.04-.03 0 3 0 3zm6.6-5.3l1.1 0l0 1.1l-1.1 0c0 0-.02 2.52 0 2.5c0 .5.2.7.7.7c.1 0 .3 0 .4-.1c0 0 0 1.1 0 1.1c-.1 0-.3.1-.8.1c-1 0-1.6-.6-1.6-1.6c.02.03 0-2.7 0-2.7l-1 0l0-1.1c0 0 .31.02.3 0c.6 0 .8-.3.8-.8c.03-.01 0-.8 0-.8l1.2 0l0 1.6zm2.4 5.3l0-5.3l1.2 0l0 5.3l-1.2 0zm.6-8c.5 0 .8.4.8.9c0 .4-.3.8-.8.8c-.4 0-.8-.4-.8-.8c0-.5.4-.9.8-.9zm5.1.2c0 0 0 1.1 0 1.1c-.1-.1-.2-.1-.5-.1c-.3 0-.7.2-.7.8c-.05.02 0 .7 0 .7l3.5 0l0 5.3l-1.2 0l0-4.2l-2.3 0l0 4.2l-1.3 0l0-4.2l-1 0l0-1.1l1 0c0 0-.02-.71 0-.7c0-1.2.7-1.9 1.8-1.9c.4 0 .6 0 .7.1zm.9.6c0-.4.3-.8.8-.8c.4 0 .8.4.8.8c0 .5-.4.9-.8.9c-.5 0-.8-.4-.8-.9c0 0 0 0 0 0zm3.9 4.6c0 1.1.7 1.7 1.5 1.7c.8 0 1.2-.6 1.3-1c0 0 1.1.4 1.1.4c-.2.8-1 1.7-2.4 1.7c-1.6 0-2.8-1.2-2.8-2.8c0-1.7 1.2-2.8 2.8-2.8c1.4 0 2.2.9 2.4 1.7c0 0-1.1.4-1.1.4c-.2-.4-.5-1-1.3-1c-.8 0-1.5.6-1.5 1.7zm6.3-.4c0 0 1.4-.2 1.4-.2c.3-.1.4-.2.4-.4c0-.4-.3-.8-1-.8c-.7 0-1.1.4-1.1 1c0 0-1.2-.3-1.2-.3c.1-.9.9-1.7 2.3-1.7c1.6 0 2.2.9 2.2 1.9c0 0 0 2.7 0 2.7c0 .5.1.8.1.8c0 0-1.2 0-1.2 0c0 0-.1-.2-.1-.6c-.2.4-.7.8-1.6.8c-1.1 0-1.8-.8-1.8-1.6c0-.9.7-1.5 1.6-1.6zm1.8.8c-.03.04 0-.2 0-.2c0 0-1.42.2-1.4.2c-.4.1-.7.3-.7.7c0 .4.2.7.7.7c.8 0 1.4-.3 1.4-1.4zm4.3-3.1l1.1 0l0 1.1l-1.1 0c0 0 .03 2.52 0 2.5c0 .5.2.7.7.7c.2 0 .4 0 .4-.1c0 0 0 1.1 0 1.1c0 0-.3.1-.7.1c-1 0-1.6-.6-1.6-1.6c-.02.03 0-2.7 0-2.7l-1 0l0-1.1c0 0 .27.02.3 0c.5 0 .8-.3.8-.8c-.01-.01 0-.8 0-.8l1.1 0l0 1.6zm2.4 5.3l0-5.3l1.3 0l0 5.3l-1.3 0zm.7-8c.4 0 .8.4.8.9c0 .4-.4.8-.8.8c-.5 0-.9-.4-.9-.8c0-.5.4-.9.9-.9zm6.1 5.4c0-1.1-.7-1.7-1.5-1.7c-.8 0-1.5.6-1.5 1.7c0 1.1.7 1.7 1.5 1.7c.8 0 1.5-.6 1.5-1.7zm1.2 0c0 1.6-1.1 2.8-2.7 2.8c-1.6 0-2.8-1.2-2.8-2.8c0-1.7 1.2-2.8 2.8-2.8c1.6 0 2.7 1.1 2.7 2.8zm2.5 2.6l-1.2 0l0-5.3l1.2 0c0 0 0 .73 0 .7c.4-.6 1-.8 1.6-.8c1.3 0 1.9.9 1.9 2.1c0-.02 0 3.3 0 3.3l-1.3 0c0 0 .04-3.1 0-3.1c0-.7-.3-1.2-1.1-1.2c-.7 0-1.1.6-1.1 1.3c.04-.03 0 3 0 3z" stroke="none" fill="#144542"/></g></svg>