<?xml version="1.0" standalone="no"?><!DOCTYPE svg PUBLIC "-//W3C//DTD SVG 1.1//EN" "http://www.w3.org/Graphics/SVG/1.1/DTD/svg11.dtd"><svg xmlns="http://www.w3.org/2000/svg" version="1.1" width="55px" height="59.2px" viewBox="0 -8 55 59.2" style="top:-8px"><desc>74%</desc><defs/><g id="Polygon163495"><path d="m17 8c-2.8 6.4-6.4 15.4-8.2 23.4c0 0-5.7 0-5.7 0c4-8.1 8-15.2 10.7-18.6c0 0-7.7 0-7.7 0c-2.7 0-4.7 1.2-5.4 2.8c-.02.04-.8 0-.8 0c0 0 2.22-8.53 2.2-8.5c.7.4 1.1.9 4 .9c0 0 10.9 0 10.9 0zm12.9 16.3l-2.4 0l0 7.1l-5.1 0l0-7.1l-9.2 0l14.3-17.7l0 14.4l3.9 0l-1.5 3.3zm-7.5-3.3l0-6.9l-5.6 6.9l5.6 0zm10.7-17.8c0-2.2 1.4-3.7 3.4-3.7c2 0 3.4 1.5 3.4 3.7c0 2.2-1.4 3.7-3.4 3.7c-2 0-3.4-1.5-3.4-3.7zm5.1 6.4l3.7-5.9l2.4-4l.8 0l-2.7 4.1l-3.8 6l-2.2 3.6l-.8 0l2.6-3.8zm-.6-6.4c0-2-.1-3.3-1.1-3.3c-.9 0-1 1.3-1 3.3c0 2 .1 3.3 1 3.3c1 0 1.1-1.3 1.1-3.3zm3.4 6.7c0-2.1 1.4-3.7 3.4-3.7c2 0 3.4 1.6 3.4 3.7c0 2.2-1.4 3.8-3.4 3.8c-2 0-3.4-1.6-3.4-3.8zm4.4 0c0-2-.1-3.2-1-3.2c-1 0-1.1 1.2-1.1 3.2c0 2.1.1 3.4 1.1 3.4c.9 0 1-1.3 1-3.4z" stroke="none" fill="#fff"/></g></svg>