<?xml version="1.0" standalone="no"?><!DOCTYPE svg PUBLIC "-//W3C//DTD SVG 1.1//EN" "http://www.w3.org/Graphics/SVG/1.1/DTD/svg11.dtd"><svg xmlns="http://www.w3.org/2000/svg" version="1.1" width="145px" height="69.6px" viewBox="0 -3 145 69.6" style="top:-3px"><desc>Agir pour un service public performant et inclusif</desc><defs/><g id="Polygon162659"><path d="m1 59.5l0-6.6l1.6 0l0 6.6l-1.6 0zm.8-9.9c.5 0 1 .5 1 1c0 .6-.5 1.1-1 1.1c-.6 0-1-.5-1-1.1c0-.5.4-1 1-1zm5.7 9.9l-1.6 0l0-6.6l1.6 0c0 0-.04.92 0 .9c.4-.7 1.2-1 1.9-1c1.6 0 2.4 1.1 2.4 2.6c-.02-.04 0 4.1 0 4.1l-1.6 0c0 0 .02-3.87 0-3.9c0-.8-.3-1.4-1.3-1.4c-.9 0-1.4.7-1.4 1.5c.01.03 0 3.8 0 3.8zm8.6-3.3c0 1.4.8 2.1 1.8 2.1c1.1 0 1.5-.7 1.7-1.2c0 0 1.4.5 1.4.5c-.4 1-1.3 2.1-3.1 2.1c-1.9 0-3.4-1.5-3.4-3.5c0-2 1.5-3.5 3.4-3.5c1.8 0 2.7 1.2 3 2.2c0 0-1.4.5-1.4.5c-.2-.6-.6-1.2-1.6-1.2c-1 0-1.8.7-1.8 2zm7.6 3.3l0-9.8l1.6 0l0 9.8l-1.6 0zm9.2-.7c-.4.6-1.1.9-1.9.9c-1.6 0-2.5-1.2-2.5-2.6c.03-.01 0-4.2 0-4.2l1.6 0c0 0-.01 3.91 0 3.9c0 .8.4 1.5 1.3 1.5c.9 0 1.4-.6 1.4-1.5c-.01.04 0-3.9 0-3.9l1.6 0c0 0-.04 5.42 0 5.4c0 .6 0 1 0 1.2c0 0-1.5 0-1.5 0c0-.1 0-.4 0-.7c0 0 0 0 0 0zm5.6-1.4c.1.6.5 1.1 1.4 1.1c.6 0 .9-.4.9-.8c0-.3-.2-.6-.7-.7c0 0-1-.2-1-.2c-1.2-.3-1.8-1-1.8-1.9c0-1.2 1.1-2.2 2.4-2.2c1.9 0 2.5 1.2 2.6 1.9c0 0-1.3.4-1.3.4c-.1-.4-.4-1-1.3-1c-.5 0-.9.3-.9.7c0 .4.3.6.7.7c0 0 1 .2 1 .2c1.2.3 1.8 1 1.8 2c0 1-.8 2.1-2.4 2.1c-1.9 0-2.7-1.2-2.7-2c0 0 1.3-.3 1.3-.3zm6.8 2.1l0-6.6l1.5 0l0 6.6l-1.5 0zm.7-9.9c.6 0 1 .5 1 1c0 .6-.4 1.1-1 1.1c-.5 0-1-.5-1-1.1c0-.5.5-1 1-1zm6.1 2.5c.02-.02 0 .8 0 .8l1.5 0l0 1.4l-1.5 0l0 5.2l-1.6 0l0-5.2l-1.1 0l0-1.4l1.1 0c0 0 .04-.86 0-.9c0-1.4 1-2.3 2.3-2.3c.4 0 .8.1.9.1c0 0 0 1.4 0 1.4c-.1-.1-.3-.1-.6-.1c-.4 0-1 .2-1 1z" stroke="none" fill="#ffaf7a"/></g><g id="Polygon162658"><path d="m1 45.9l0-9.2l1.5 0c0 0 .02.94 0 .9c.3-.5 1.1-1 2.1-1c2 0 3.1 1.5 3.1 3.4c0 2-1.2 3.5-3.1 3.5c-1 0-1.7-.4-2-.9c-.04-.02 0 3.3 0 3.3l-1.6 0zm5.1-5.9c0-1.2-.7-2-1.8-2c-1 0-1.7.8-1.7 2c0 1.3.7 2.1 1.7 2.1c1.1 0 1.8-.8 1.8-2.1c0 0 0 0 0 0zm8.7-.7c0-.8-.5-1.4-1.6-1.4c-1 0-1.5.7-1.6 1.4c0 0 3.2 0 3.2 0zm1.5 2.1c-.3 1.2-1.4 2.1-2.9 2.1c-1.8 0-3.4-1.3-3.4-3.5c0-2.1 1.5-3.5 3.2-3.5c2 0 3.2 1.4 3.2 3.5c0 .2 0 .4 0 .5c0 0-4.8 0-4.8 0c0 1 .8 1.7 1.8 1.7c.9 0 1.4-.5 1.6-1.2c0 0 1.3.4 1.3.4zm6.8-3.1c-.2 0-.3 0-.5 0c-1.2 0-1.8.7-1.8 1.9c.03-.01 0 3.1 0 3.1l-1.5 0l0-6.6l1.5 0c0 0-.01 1.1 0 1.1c.3-.7 1-1.1 1.9-1.1c.2 0 .3 0 .4 0c0 0 0 1.6 0 1.6zm4.9-2.4c0-.02 0 .8 0 .8l1.5 0l0 1.4l-1.5 0l0 5.2l-1.6 0l0-5.2l-1.1 0l0-1.4l1.1 0c0 0 .02-.86 0-.9c0-1.4 1-2.3 2.3-2.3c.4 0 .7.1.8.1c0 0 0 1.4 0 1.4c-.1-.1-.2-.1-.5-.1c-.4 0-1 .2-1 1zm8.7 4.1c0-1.3-.9-2-1.9-2c-.9 0-1.8.7-1.8 2c0 1.4.9 2.1 1.8 2.1c1 0 1.9-.7 1.9-2.1zm1.5 0c0 2.1-1.4 3.5-3.4 3.5c-1.9 0-3.4-1.4-3.4-3.5c0-2 1.5-3.5 3.4-3.5c2 0 3.4 1.5 3.4 3.5zm6.7-1.7c-.1 0-.3 0-.5 0c-1.2 0-1.7.7-1.7 1.9c-.04-.01 0 3.1 0 3.1l-1.6 0l0-6.6l1.5 0c0 0 .02 1.1 0 1.1c.3-.7 1.1-1.1 1.9-1.1c.2 0 .4 0 .4 0c0 0 0 1.6 0 1.6zm2.7 5l0-6.6l1.5 0c0 0 0 .88 0 .9c.4-.7 1.2-1 1.9-1c.9 0 1.7.3 2 1.1c.5-.8 1.3-1.1 2.1-1.1c1.2 0 2.4.7 2.4 2.5c-.03-.05 0 4.2 0 4.2l-1.5 0c0 0-.04-3.99 0-4c0-.8-.4-1.3-1.3-1.3c-.8 0-1.4.6-1.4 1.4c.02.02 0 3.9 0 3.9l-1.5 0c0 0-.01-3.99 0-4c0-.7-.4-1.3-1.3-1.3c-.8 0-1.3.6-1.3 1.4c-.05.02 0 3.9 0 3.9l-1.6 0zm14.7-3.7c0 0 1.7-.3 1.7-.3c.4-.1.5-.2.5-.5c0-.5-.4-1-1.3-1c-.8 0-1.2.6-1.3 1.2c0 0-1.4-.3-1.4-.3c.1-1.1 1.1-2.2 2.7-2.2c2.1 0 2.8 1.2 2.8 2.5c0 0 0 3.3 0 3.3c0 .6.1 1 .1 1c0 0-1.4 0-1.4 0c-.1 0-.1-.3-.1-.8c-.3.5-1 1-2 1c-1.4 0-2.3-.9-2.3-2c0-1.1.9-1.8 2-1.9zm2.2 1c-.01-.01 0-.3 0-.3c0 0-1.73.25-1.7.3c-.5 0-.9.3-.9.8c0 .5.3.9 1 .9c.8 0 1.6-.4 1.6-1.7zm6.3 2.7l-1.5 0l0-6.6l1.5 0c0 0-.01.92 0 .9c.4-.7 1.2-1 1.9-1c1.6 0 2.4 1.1 2.4 2.6c.01-.04 0 4.1 0 4.1l-1.6 0c0 0 .05-3.87 0-3.9c0-.8-.3-1.4-1.3-1.4c-.9 0-1.4.7-1.4 1.5c.03.03 0 3.8 0 3.8zm9.5-6.6l1.4 0l0 1.4l-1.4 0c0 0 .05 3.09 0 3.1c0 .6.3.8.9.8c.2 0 .5 0 .5 0c0 0 0 1.3 0 1.3c-.1 0-.4.1-.9.1c-1.2 0-2-.7-2-2c0 .05 0-3.3 0-3.3l-1.2 0l0-1.4c0 0 .32.05.3 0c.7 0 1-.4 1-1c.03.02 0-1 0-1l1.4 0l0 2zm13.4 2.6c-.1-.8-.6-1.4-1.7-1.4c-.9 0-1.5.7-1.6 1.4c0 0 3.3 0 3.3 0zm1.5 2.1c-.4 1.2-1.4 2.1-3 2.1c-1.8 0-3.4-1.3-3.4-3.5c0-2.1 1.6-3.5 3.2-3.5c2.1 0 3.2 1.4 3.2 3.5c0 .2 0 .4 0 .5c0 0-4.8 0-4.8 0c0 1 .8 1.7 1.8 1.7c.9 0 1.4-.5 1.6-1.2c0 0 1.4.4 1.4.4zm4.9-4.7l1.3 0l0 1.4l-1.3 0c0 0-.03 3.09 0 3.1c0 .6.2.8.8.8c.2 0 .5 0 .5 0c0 0 0 1.3 0 1.3c0 0-.3.1-.9.1c-1.2 0-2-.7-2-2c.02.05 0-3.3 0-3.3l-1.2 0l0-1.4c0 0 .34.05.3 0c.7 0 1.1-.4 1.1-1c-.04.02 0-1 0-1l1.4 0l0 2z" stroke="none" fill="#ffaf7a"/></g><g id="Polygon162657"><path d="m1.8 25c0 .6.5 1.1 1.3 1.1c.7 0 1-.4 1-.8c0-.3-.2-.6-.8-.7c0 0-.9-.2-.9-.2c-1.2-.3-1.8-1-1.8-1.9c0-1.2 1.1-2.2 2.4-2.2c1.9 0 2.5 1.2 2.6 1.9c0 0-1.4.4-1.4.4c0-.4-.3-1-1.2-1c-.5 0-.9.3-.9.7c0 .4.2.6.6.7c0 0 1 .2 1 .2c1.3.3 1.9 1 1.9 2c0 1-.8 2.1-2.5 2.1c-1.9 0-2.6-1.2-2.7-2c0 0 1.4-.3 1.4-.3zm11-1.9c0-.8-.5-1.4-1.6-1.4c-1 0-1.6.7-1.6 1.4c0 0 3.2 0 3.2 0zm1.5 2.1c-.3 1.2-1.4 2.1-3 2.1c-1.7 0-3.3-1.3-3.3-3.5c0-2.1 1.5-3.5 3.2-3.5c2 0 3.2 1.4 3.2 3.5c0 .2 0 .4-.1.5c0 0-4.8 0-4.8 0c.1 1 .9 1.7 1.8 1.7c1 0 1.5-.5 1.7-1.2c0 0 1.3.4 1.3.4zm6.8-3.1c-.2 0-.4 0-.5 0c-1.2 0-1.8.7-1.8 1.9c0-.01 0 3.1 0 3.1l-1.6 0l0-6.6l1.6 0c0 0-.04 1.1 0 1.1c.3-.7 1-1.1 1.9-1.1c.2 0 .3 0 .4 0c0 0 0 1.6 0 1.6zm6.2 5l-1.6 0l-2.6-6.6l1.7 0l1.7 4.7l1.7-4.7l1.7 0l-2.6 6.6zm5.1 0l0-6.6l1.5 0l0 6.6l-1.5 0zm.8-9.9c.5 0 1 .5 1 1c0 .6-.5 1.1-1 1.1c-.6 0-1.1-.5-1.1-1.1c0-.5.5-1 1.1-1zm5.2 6.6c0 1.4.8 2.1 1.8 2.1c1 0 1.5-.7 1.6-1.2c0 0 1.4.5 1.4.5c-.3 1-1.3 2.1-3 2.1c-1.9 0-3.4-1.5-3.4-3.5c0-2 1.5-3.5 3.4-3.5c1.7 0 2.7 1.2 3 2.2c0 0-1.4.5-1.4.5c-.2-.6-.6-1.2-1.6-1.2c-1 0-1.8.7-1.8 2zm11.8-.7c0-.8-.5-1.4-1.6-1.4c-1 0-1.6.7-1.6 1.4c0 0 3.2 0 3.2 0zm1.5 2.1c-.3 1.2-1.4 2.1-3 2.1c-1.7 0-3.3-1.3-3.3-3.5c0-2.1 1.5-3.5 3.2-3.5c2 0 3.2 1.4 3.2 3.5c0 .2 0 .4 0 .5c0 0-4.8 0-4.8 0c0 1 .8 1.7 1.7 1.7c1 0 1.5-.5 1.7-1.2c0 0 1.3.4 1.3.4zm7.6 4.5l0-9.2l1.6 0c0 0-.04.94 0 .9c.3-.5 1-1 2-1c2 0 3.1 1.5 3.1 3.4c0 2-1.2 3.5-3.1 3.5c-.9 0-1.7-.4-2-.9c0-.02 0 3.3 0 3.3l-1.6 0zm5.1-5.9c0-1.2-.7-2-1.7-2c-1.1 0-1.8.8-1.8 2c0 1.3.7 2.1 1.8 2.1c1 0 1.7-.8 1.7-2.1c0 0 0 0 0 0zm8.7 2.6c-.3.6-1.1.9-1.9.9c-1.5 0-2.5-1.2-2.5-2.6c.04-.01 0-4.2 0-4.2l1.6 0c0 0 .01 3.91 0 3.9c0 .8.4 1.5 1.3 1.5c.9 0 1.4-.6 1.4-1.5c.01.04 0-3.9 0-3.9l1.6 0c0 0-.03 5.42 0 5.4c0 .6 0 1 0 1.2c0 0-1.5 0-1.5 0c0-.1 0-.4 0-.7c0 0 0 0 0 0zm4.8.7l0-9.8l1.6 0c0 0-.01 4.06 0 4.1c.3-.6 1-1 2.1-1c1.9 0 3 1.5 3 3.4c0 2-1.2 3.5-3.1 3.5c-.9 0-1.6-.4-2-1.1c-.03.04 0 .9 0 .9l-1.6 0zm3.3-5.3c-1 0-1.7.7-1.7 2c0 1.3.7 2.1 1.7 2.1c1.1 0 1.8-.8 1.8-2.1c0-1.3-.7-2-1.8-2zm6.3 5.3l0-9.8l1.5 0l0 9.8l-1.5 0zm4.9 0l0-6.6l1.5 0l0 6.6l-1.5 0zm.8-9.9c.5 0 1 .5 1 1c0 .6-.5 1.1-1 1.1c-.6 0-1-.5-1-1.1c0-.5.4-1 1-1zm5.2 6.6c0 1.4.8 2.1 1.8 2.1c1 0 1.5-.7 1.7-1.2c0 0 1.3.5 1.3.5c-.3 1-1.3 2.1-3 2.1c-1.9 0-3.4-1.5-3.4-3.5c0-2 1.5-3.5 3.4-3.5c1.7 0 2.7 1.2 3 2.2c0 0-1.4.5-1.4.5c-.2-.6-.6-1.2-1.6-1.2c-1 0-1.8.7-1.8 2z" stroke="none" fill="#ffaf7a"/></g><g id="Polygon162656"><path d="m6.8 8.5l-4.1 0l-.9 2.4l-1.7 0l3.8-9.5l1.8 0l3.8 9.5l-1.8 0l-.9-2.4zm-3.5-1.5l2.9 0l-1.4-3.9l-1.5 3.9zm9.5 3.9c.1.8.7 1.4 1.6 1.4c1.3 0 1.9-.6 1.9-1.9c0 0 0-.7 0-.7c-.3.5-.9.9-1.9.9c-1.8 0-3-1.3-3-3.2c0-1.7 1.2-3.2 3-3.2c1 0 1.7.4 1.9 1c.05-.02 0-.9 0-.9l1.6 0c0 0-.04 6 0 6c0 1.8-.9 3.4-3.4 3.4c-1.8 0-3-1.1-3.1-2.4c0 0 1.4-.4 1.4-.4zm3.5-3.5c0-1.1-.7-1.8-1.6-1.8c-1 0-1.8.7-1.8 1.8c0 1.2.7 1.9 1.8 1.9c1 0 1.6-.7 1.6-1.9zm4.8 3.5l0-6.6l1.6 0l0 6.6l-1.6 0zm.8-9.9c.6 0 1 .5 1 1c0 .6-.4 1.1-1 1.1c-.6 0-1-.5-1-1.1c0-.5.4-1 1-1zm8 4.9c-.2 0-.3 0-.5 0c-1.2 0-1.8.7-1.8 1.9c.02-.01 0 3.1 0 3.1l-1.5 0l0-6.6l1.5 0c0 0-.02 1.1 0 1.1c.3-.7 1-1.1 1.9-1.1c.2 0 .3 0 .4 0c0 0 0 1.6 0 1.6zm7.3 7.6l0-9.2l1.5 0c0 0 .04.94 0 .9c.4-.5 1.1-1 2.1-1c2 0 3.1 1.5 3.1 3.4c0 2-1.2 3.5-3.1 3.5c-1 0-1.7-.4-2-.9c-.02-.02 0 3.3 0 3.3l-1.6 0zm5.1-5.9c0-1.2-.7-2-1.8-2c-1 0-1.7.8-1.7 2c0 1.3.7 2.1 1.7 2.1c1.1 0 1.8-.8 1.8-2.1c0 0 0 0 0 0zm9.2 0c0-1.3-.9-2-1.9-2c-.9 0-1.8.7-1.8 2c0 1.4.9 2.1 1.8 2.1c1 0 1.9-.7 1.9-2.1zm1.5 0c0 2.1-1.4 3.5-3.4 3.5c-1.9 0-3.4-1.4-3.4-3.5c0-2 1.5-3.5 3.4-3.5c2 0 3.4 1.5 3.4 3.5zm7.1 2.6c-.3.6-1.1.9-1.8.9c-1.6 0-2.5-1.2-2.5-2.6c0-.01 0-4.2 0-4.2l1.6 0c0 0-.04 3.91 0 3.9c0 .8.3 1.5 1.3 1.5c.9 0 1.4-.6 1.4-1.5c-.04.04 0-3.9 0-3.9l1.5 0c0 0 .03 5.42 0 5.4c0 .6.1 1 .1 1.2c0 0-1.5 0-1.5 0c0-.1-.1-.4-.1-.7c0 0 0 0 0 0zm8.7-4.3c-.1 0-.3 0-.5 0c-1.2 0-1.7.7-1.7 1.9c-.03-.01 0 3.1 0 3.1l-1.6 0l0-6.6l1.5 0c0 0 .03 1.1 0 1.1c.3-.7 1.1-1.1 1.9-1.1c.2 0 .4 0 .4 0c0 0 0 1.6 0 1.6zm11.7 4.3c-.4.6-1.1.9-1.9.9c-1.6 0-2.5-1.2-2.5-2.6c.01-.01 0-4.2 0-4.2l1.6 0c0 0-.02 3.91 0 3.9c0 .8.4 1.5 1.3 1.5c.9 0 1.4-.6 1.4-1.5c-.02.04 0-3.9 0-3.9l1.5 0c0 0 .04 5.42 0 5.4c0 .6.1 1 .1 1.2c0 0-1.5 0-1.5 0c0-.1 0-.4 0-.7c0 0 0 0 0 0zm6.4.7l-1.6 0l0-6.6l1.5 0c0 0 .04.92 0 .9c.5-.7 1.3-1 2-1c1.6 0 2.4 1.1 2.4 2.6c-.04-.04 0 4.1 0 4.1l-1.6 0c0 0 0-3.87 0-3.9c0-.8-.4-1.4-1.4-1.4c-.8 0-1.3.7-1.3 1.5c-.02.03 0 3.8 0 3.8z" stroke="none" fill="#ffaf7a"/></g></svg>