<?xml version="1.0" standalone="no"?><!DOCTYPE svg PUBLIC "-//W3C//DTD SVG 1.1//EN" "http://www.w3.org/Graphics/SVG/1.1/DTD/svg11.dtd"><svg xmlns="http://www.w3.org/2000/svg" version="1.1" width="149px" height="19.3px" viewBox="0 -3 149 19.3" style="top:-3px"><desc>avis du comit de mission</desc><defs/><g id="Polygon186012"><path d="m4.2 8.1l-2.6 0l-.6 1.6l-.9 0l2.4-5.9l.9 0l2.4 5.9l-.9 0l-.7-1.6zm-2.3-.8l2 0l-1-2.7l-1 2.7zm8.7-3.5l.8 0l-2.3 5.9l-.8 0l-2.2-5.9l.9 0l1.7 4.8l1.9-4.8zm2.3 5.9l0-5.9l.8 0l0 5.9l-.8 0zm6-4.3c-.1-.5-.4-1-1.3-1c-.7 0-1.1.4-1.1.9c0 .5.2.8.7.9c0 0 .9.2.9.2c1 .2 1.6.8 1.6 1.7c0 .9-.8 1.7-2.1 1.7c-1.4 0-2.1-.9-2.2-1.7c0 0 .8-.3.8-.3c0 .7.5 1.3 1.4 1.3c.8 0 1.2-.4 1.2-1c0-.4-.3-.8-.9-.9c0 0-.8-.2-.8-.2c-.9-.2-1.5-.7-1.5-1.6c0-.9.9-1.8 2-1.8c1.3 0 1.9.9 2 1.5c0 0-.7.3-.7.3zm8.1 3.6c1.1 0 2.1-.8 2.1-2.3c0-1.5-.9-2.2-2-2.2c-.04-.01-1.3 0-1.3 0l0 4.5c0 0 1.24-.02 1.2 0zm-2 .7l0-5.9c0 0 2.09-.04 2.1 0c1.5 0 2.8 1 2.8 2.9c0 2-1.3 3-2.8 3c-.03.01-2.1 0-2.1 0zm6.6-2c-.03-.03 0-3.9 0-3.9l.8 0c0 0-.02 3.85 0 3.8c0 1 .5 1.5 1.3 1.5c.8 0 1.3-.5 1.3-1.5c.02.05 0-3.8 0-3.8l.8 0c0 0 .05 3.87 0 3.9c0 1.4-.9 2.1-2.1 2.1c-1.2 0-2.1-.7-2.1-2.1zm9.5-1c0-2 1.5-3.1 2.9-3.1c1.4 0 2.4.8 2.7 1.9c0 0-.8.3-.8.3c-.2-.9-.9-1.4-1.9-1.4c-1 0-2.1.8-2.1 2.3c0 1.6 1.1 2.4 2.1 2.4c1.1 0 1.7-.6 1.9-1.5c0 0 .8.3.8.3c-.3 1.1-1.3 1.9-2.7 1.9c-1.5 0-2.9-1.1-2.9-3.1zm9.8 2.4c1.1 0 2.2-.8 2.2-2.4c0-1.5-1.1-2.3-2.2-2.3c-1.1 0-2.2.8-2.2 2.3c0 1.6 1.1 2.4 2.2 2.4zm0-5.5c1.5 0 3 1.1 3 3.1c0 2-1.5 3.1-3 3.1c-1.5 0-3-1.1-3-3.1c0-2 1.5-3.1 3-3.1zm10.3 6.1l0-4.6l-2 4.6l-.7 0l-2.1-4.6l0 4.6l-.8 0l0-5.9l1.1 0l2.1 4.8l2.2-4.8l1.1 0l0 5.9l-.9 0zm3 0l0-5.9l.8 0l0 5.9l-.8 0zm5.1-5.2l0 5.2l-.9 0l0-5.2l-1.9 0l0-.7l4.8 0l0 .7l-2 0zm3.4 5.2l0-5.9l3.6 0l0 .7l-2.8 0l0 1.8l2.6 0l0 .8l-2.6 0l0 1.8l2.8 0l0 .8l-3.6 0zm2-6.4l-.8 0l.9-1l1 0l-1.1 1zm9.1 5.7c1.1 0 2-.8 2-2.3c0-1.5-.9-2.2-2-2.2c.04-.01-1.2 0-1.2 0l0 4.5c0 0 1.22-.02 1.2 0zm-2 .7l0-5.9c0 0 2.07-.04 2.1 0c1.5 0 2.8 1 2.8 2.9c0 2-1.3 3-2.9 3c.05.01-2 0-2 0zm6.6 0l0-5.9l3.7 0l0 .7l-2.8 0l0 1.8l2.5 0l0 .8l-2.5 0l0 1.8l2.8 0l0 .8l-3.7 0zm14.7 0l0-4.6l-2 4.6l-.8 0l-2-4.6l0 4.6l-.8 0l0-5.9l1.1 0l2.1 4.8l2.1-4.8l1.1 0l0 5.9l-.8 0zm3 0l0-5.9l.8 0l0 5.9l-.8 0zm6-4.3c-.1-.5-.5-1-1.3-1c-.7 0-1.1.4-1.1.9c0 .5.2.8.7.9c0 0 .9.2.9.2c1 .2 1.6.8 1.6 1.7c0 .9-.8 1.7-2.1 1.7c-1.4 0-2.1-.9-2.2-1.7c0 0 .8-.3.8-.3c0 .7.5 1.3 1.4 1.3c.8 0 1.2-.4 1.2-1c0-.4-.3-.8-.9-.9c0 0-.8-.2-.8-.2c-.9-.2-1.5-.7-1.5-1.6c0-.9.9-1.8 2-1.8c1.3 0 1.9.9 2 1.5c0 0-.7.3-.7.3zm5.6 0c-.1-.5-.5-1-1.3-1c-.7 0-1.2.4-1.2.9c0 .5.3.8.8.9c0 0 .9.2.9.2c1 .2 1.5.8 1.5 1.7c0 .9-.7 1.7-2 1.7c-1.5 0-2.1-.9-2.2-1.7c0 0 .7-.3.7-.3c.1.7.6 1.3 1.5 1.3c.8 0 1.2-.4 1.2-1c0-.4-.3-.8-.9-.9c0 0-.8-.2-.8-.2c-.9-.2-1.5-.7-1.5-1.6c0-.9.9-1.8 2-1.8c1.3 0 1.9.9 2 1.5c0 0-.7.3-.7.3zm2.5 4.3l0-5.9l.8 0l0 5.9l-.8 0zm5.5-.6c1.1 0 2.2-.8 2.2-2.4c0-1.5-1.1-2.3-2.2-2.3c-1.1 0-2.1.8-2.1 2.3c0 1.6 1 2.4 2.1 2.4zm0-5.5c1.5 0 3 1.1 3 3.1c0 2-1.5 3.1-3 3.1c-1.5 0-3-1.1-3-3.1c0-2 1.5-3.1 3-3.1zm8.8 6.1l-3.2-4.8l0 4.8l-.8 0l0-5.9l1.1 0l2.9 4.5l0-4.5l.9 0l0 5.9l-.9 0z" stroke="none" fill="#144542"/></g></svg>