<?xml version="1.0" standalone="no"?><!DOCTYPE svg PUBLIC "-//W3C//DTD SVG 1.1//EN" "http://www.w3.org/Graphics/SVG/1.1/DTD/svg11.dtd"><svg xmlns="http://www.w3.org/2000/svg" version="1.1" width="34.2px" height="22.6px" viewBox="0 -3 34.2 22.6" style="top:-3px"><desc>13 %</desc><defs/><g id="Polygon165518"><path d="m7.1 10.9l0-6.1l-2.1 0c0 0-.04-.98 0-1c1.2 0 2-.7 2.2-1.6c.01-.03 1.2 0 1.2 0l0 8.7l-1.3 0zm4.7-5.1l2.6-2.4l-4.2 0l0-1.2l5.9 0l0 1.2c0 0-2.49 2.27-2.5 2.3c1.3 0 2.7.8 2.7 2.6c0 1.5-1.1 2.8-3.2 2.8c-2 0-3.1-1.3-3.2-2.7c0 0 1.3-.3 1.3-.3c0 1.1.9 1.9 1.9 1.9c1.2 0 1.9-.8 1.9-1.6c0-1.2-.9-1.7-1.8-1.7c-.3 0-.5.1-.8.2c.02-.04-.6-1.1-.6-1.1zm9.6-.5c.6 0 1.1-.5 1.1-1.1c0-.6-.5-1.1-1.1-1.1c-.5 0-1 .5-1 1.1c0 .6.5 1.1 1 1.1zm0-3.2c1.2 0 2.2.9 2.2 2.1c0 1.2-1 2.1-2.2 2.1c-1.1 0-2.1-.9-2.1-2.1c0-1.2 1-2.1 2.1-2.1zm5.4 7.9c.6 0 1-.5 1-1.1c0-.6-.4-1.1-1-1.1c-.6 0-1.1.5-1.1 1.1c0 .6.5 1.1 1.1 1.1zm0-3.2c1.1 0 2.2.9 2.2 2.1c0 1.2-1.1 2.1-2.2 2.1c-1.2 0-2.2-.9-2.2-2.1c0-1.2 1-2.1 2.2-2.1zm-6.4 4.1l6.3-8.7l1.2 0l-6.3 8.7l-1.2 0z" stroke="none" fill="#144542"/></g></svg>