<?xml version="1.0" standalone="no"?><!DOCTYPE svg PUBLIC "-//W3C//DTD SVG 1.1//EN" "http://www.w3.org/Graphics/SVG/1.1/DTD/svg11.dtd"><svg xmlns="http://www.w3.org/2000/svg" version="1.1" width="392.3px" height="216.6px" viewBox="0 -4 392.3 216.6" style="top:-4px"><desc>Des r ponses concr tes aux enjeux op rationnels De la d finition pr cise du profil, l’int gration et au suivi post ...</desc><defs/><g id="Polygon174441"><path d="m.6 162.1l0-1.1l3.7 0l0 1.1l-3.7 0zm8.2 3.3l0-9.6l5.8 0l0 1.3l-4.5 0l0 3.1l4.1 0l0 1.2l-4.1 0l0 4l-1.3 0zm7.2 0l0-6.5l1.3 0l0 6.5l-1.3 0zm.6-9.8c.6 0 1 .4 1 .9c0 .5-.4.9-1 .9c-.5 0-.9-.4-.9-.9c0-.5.4-.9.9-.9zm5.5 8.9c1.2 0 1.9-1 1.9-2.4c0-1.3-.7-2.2-1.9-2.2c-1.1 0-1.9.9-1.9 2.3c0 1.3.7 2.3 1.9 2.3zm1.9-.1c-.3.7-1 1.2-2 1.2c-1.9 0-3.1-1.5-3.1-3.4c0-1.9 1.2-3.4 3.1-3.4c1.1 0 1.7.5 2 1c-.04.04 0-4.2 0-4.2l1.2 0c0 0 .02 8.62 0 8.6c0 .6.1 1.1.1 1.2c0 0-1.2 0-1.2 0c-.1-.1-.1-.5-.1-.9c0 0 0-.1 0-.1zm7.8-2.9c-.1-.9-.7-1.7-1.8-1.7c-1.1 0-1.7.9-1.8 1.7c0 0 3.6 0 3.6 0zm1.2 2.1c-.3 1.1-1.4 2-2.9 2c-1.7 0-3.2-1.2-3.2-3.4c0-2.1 1.4-3.5 3.1-3.5c2 0 3.1 1.4 3.1 3.4c0 .2 0 .3-.1.4c0 0-4.8 0-4.8 0c0 1.2.8 2 1.9 2c1.1 0 1.6-.6 1.8-1.3c0 0 1.1.4 1.1.4zm-2.5-5.5l-1.1 0l1.2-2l1.6 0l-1.7 2zm4.2 7.3l0-9.8l1.3 0l0 9.8l-1.3 0zm3.4 0l0-6.5l1.3 0l0 6.5l-1.3 0zm.6-9.8c.6 0 1 .4 1 .9c0 .5-.4.9-1 .9c-.5 0-.9-.4-.9-.9c0-.5.4-.9.9-.9zm3.4 7.7c.1.7.6 1.2 1.5 1.2c.7 0 1.1-.4 1.1-.8c0-.4-.3-.7-.8-.9c0 0-1.1-.2-1.1-.2c-1.1-.2-1.7-.9-1.7-1.8c0-1.1 1.1-2.1 2.3-2.1c1.8 0 2.4 1.2 2.5 1.8c0 0-1.1.4-1.1.4c-.1-.4-.3-1.1-1.4-1.1c-.6 0-1 .4-1 .9c0 .4.2.6.7.8c0 0 1.1.2 1.1.2c1.1.2 1.8 1 1.8 1.9c0 .9-.8 2-2.4 2c-1.8 0-2.6-1.1-2.7-1.9c0 0 1.2-.4 1.2-.4zm9.8-1.8c0-.9-.6-1.7-1.7-1.7c-1.1 0-1.7.9-1.8 1.7c0 0 3.5 0 3.5 0zm1.3 2.1c-.3 1.1-1.4 2-2.9 2c-1.7 0-3.3-1.2-3.3-3.4c0-2.1 1.5-3.5 3.2-3.5c2 0 3.1 1.4 3.1 3.4c0 .2 0 .3-.1.4c0 0-4.8 0-4.8 0c0 1.2.8 2 1.9 2c1.1 0 1.6-.6 1.8-1.3c0 0 1.1.4 1.1.4zm5.3-3.4c-.2 0-.4 0-.6 0c-1 0-1.7.5-1.7 2c-.04-.03 0 3.2 0 3.2l-1.3 0l0-6.5l1.2 0c0 0 .03 1.16 0 1.2c.5-1 1.3-1.3 2-1.3c.2 0 .3 0 .4.1c0 0 0 1.3 0 1.3zm4.7 5.2l0-9.8l1.3 0l0 9.8l-1.3 0zm7.8-3.9c0-.9-.6-1.7-1.8-1.7c-1 0-1.7.9-1.7 1.7c0 0 3.5 0 3.5 0zm1.3 2.1c-.4 1.1-1.4 2-2.9 2c-1.8 0-3.3-1.2-3.3-3.4c0-2.1 1.5-3.5 3.1-3.5c2 0 3.1 1.4 3.1 3.4c0 .2 0 .3 0 .4c0 0-4.9 0-4.9 0c.1 1.2.9 2 2 2c1 0 1.6-.6 1.8-1.3c0 0 1.1.4 1.1.4zm2.2-.3c.1.7.6 1.2 1.5 1.2c.7 0 1.1-.4 1.1-.8c0-.4-.3-.7-.8-.9c0 0-1.1-.2-1.1-.2c-1-.2-1.6-.9-1.6-1.8c0-1.1 1-2.1 2.3-2.1c1.8 0 2.3 1.2 2.4 1.8c0 0-1.1.4-1.1.4c0-.4-.3-1.1-1.3-1.1c-.7 0-1.1.4-1.1.9c0 .4.2.6.7.8c0 0 1.1.2 1.1.2c1.2.2 1.8 1 1.8 1.9c0 .9-.8 2-2.4 2c-1.8 0-2.5-1.1-2.6-1.9c0 0 1.1-.4 1.1-.4zm10.6-4.4l1.4 0l0 1.2l-1.4 0c0 0 .04 3.35 0 3.4c0 .5.3.8.9.8c.2 0 .4 0 .5 0c0 0 0 1.1 0 1.1c-.1 0-.4.1-.8.1c-1.1 0-1.8-.7-1.8-1.9c-.02.04 0-3.5 0-3.5l-1.3 0l0-1.2c0 0 .38.03.4 0c.7 0 1-.4 1-1c-.02.03 0-1 0-1l1.1 0l0 2zm2.7 4.8c0-1.2.9-1.8 2-2c0 0 1.8-.2 1.8-.2c.3-.1.5-.3.5-.5c0-.7-.5-1.2-1.4-1.2c-.9 0-1.4.6-1.5 1.3c0 0-1.2-.3-1.2-.3c.1-1.2 1.2-2.1 2.6-2.1c2 0 2.7 1.1 2.7 2.4c0 0 0 3.3 0 3.3c0 .5.1.9.1 1c0 0-1.2 0-1.2 0c-.1-.1-.1-.4-.1-.9c-.3.5-.9 1.1-2.1 1.1c-1.3 0-2.2-.9-2.2-1.9c0 0 0 0 0 0zm4.3-1.1c-.04.04 0-.3 0-.3c0 0-2.03.34-2 .3c-.6.1-1 .4-1 1c0 .5.4 1 1.1 1c1 0 1.9-.5 1.9-2zm3.2 2.8l0-9.8l1.3 0l0 9.8l-1.3 0zm7.8-3.9c0-.9-.6-1.7-1.8-1.7c-1.1 0-1.7.9-1.8 1.7c0 0 3.6 0 3.6 0zm1.3 2.1c-.4 1.1-1.4 2-2.9 2c-1.8 0-3.3-1.2-3.3-3.4c0-2.1 1.5-3.5 3.1-3.5c2 0 3.1 1.4 3.1 3.4c0 .2 0 .3 0 .4c0 0-4.9 0-4.9 0c0 1.2.9 2 2 2c1 0 1.5-.6 1.8-1.3c0 0 1.1.4 1.1.4zm2.9 1.8l-1.3 0l0-6.5l1.3 0c0 0-.02.96 0 1c.5-.9 1.2-1.2 2-1.2c1.5 0 2.3 1.2 2.3 2.6c0 0 0 4.1 0 4.1l-1.3 0c0 0 .04-3.88 0-3.9c0-.9-.3-1.6-1.5-1.6c-1 0-1.5.8-1.5 1.8c.01-.03 0 3.7 0 3.7zm8-6.5l1.4 0l0 1.2l-1.4 0c0 0 .03 3.35 0 3.4c0 .5.3.8.9.8c.2 0 .4 0 .5 0c0 0 0 1.1 0 1.1c-.1 0-.4.1-.8.1c-1.1 0-1.8-.7-1.8-1.9c-.04.04 0-3.5 0-3.5l-1.3 0l0-1.2c0 0 .37.03.4 0c.7 0 1-.4 1-1c-.03.03 0-1 0-1l1.1 0l0 2zm3.7 4.4c.1.7.6 1.2 1.5 1.2c.8 0 1.1-.4 1.1-.8c0-.4-.2-.7-.8-.9c0 0-1.1-.2-1.1-.2c-1-.2-1.6-.9-1.6-1.8c0-1.1 1-2.1 2.3-2.1c1.8 0 2.3 1.2 2.5 1.8c0 0-1.2.4-1.2.4c0-.4-.3-1.1-1.3-1.1c-.7 0-1.1.4-1.1.9c0 .4.3.6.8.8c0 0 1 .2 1 .2c1.2.2 1.8 1 1.8 1.9c0 .9-.8 2-2.4 2c-1.8 0-2.5-1.1-2.6-1.9c0 0 1.1-.4 1.1-.4zm9.5 0c.1.7.6 1.2 1.5 1.2c.7 0 1.1-.4 1.1-.8c0-.4-.3-.7-.8-.9c0 0-1.1-.2-1.1-.2c-1-.2-1.6-.9-1.6-1.8c0-1.1 1-2.1 2.3-2.1c1.8 0 2.3 1.2 2.4 1.8c0 0-1.1.4-1.1.4c0-.4-.3-1.1-1.3-1.1c-.7 0-1.1.4-1.1.9c0 .4.2.6.7.8c0 0 1.1.2 1.1.2c1.2.2 1.8 1 1.8 1.9c0 .9-.8 2-2.4 2c-1.8 0-2.5-1.1-2.6-1.9c0 0 1.1-.4 1.1-.4zm9.8 1.3c-.4.7-1.2 1-1.9 1c-1.6 0-2.5-1.1-2.5-2.6c.03.02 0-4.1 0-4.1l1.3 0c0 0 0 3.93 0 3.9c0 .9.4 1.7 1.5 1.7c1 0 1.5-.7 1.5-1.7c.01.04 0-3.9 0-3.9l1.3 0c0 0-.02 5.32 0 5.3c0 .5 0 1 0 1.2c0 0-1.2 0-1.2 0c0-.1 0-.5 0-.8c0 0 0 0 0 0zm6.9-4.4c-.1 0-.3 0-.5 0c-1.1 0-1.8.5-1.8 2c.01-.03 0 3.2 0 3.2l-1.3 0l0-6.5l1.3 0c0 0-.02 1.16 0 1.2c.5-1 1.3-1.3 1.9-1.3c.2 0 .4 0 .4.1c0 0 0 1.3 0 1.3zm7.4 4.3c1.2 0 1.9-1 1.9-2.4c0-1.3-.7-2.2-1.9-2.2c-1.1 0-1.9.9-1.9 2.3c0 1.3.7 2.3 1.9 2.3zm1.9-.1c-.3.7-1 1.2-2 1.2c-1.9 0-3.1-1.5-3.1-3.4c0-1.9 1.3-3.4 3.1-3.4c1.2 0 1.8.5 2 1c-.01.04 0-4.2 0-4.2l1.2 0c0 0 .05 8.62 0 8.6c0 .6.1 1.1.1 1.2c0 0-1.2 0-1.2 0c0-.1-.1-.5-.1-.9c0 0 0-.1 0-.1zm7.8-2.9c0-.9-.7-1.7-1.8-1.7c-1.1 0-1.7.9-1.8 1.7c0 0 3.6 0 3.6 0zm1.3 2.1c-.4 1.1-1.4 2-3 2c-1.7 0-3.2-1.2-3.2-3.4c0-2.1 1.5-3.5 3.1-3.5c2 0 3.1 1.4 3.1 3.4c0 .2 0 .3 0 .4c0 0-4.9 0-4.9 0c0 1.2.9 2 1.9 2c1.1 0 1.6-.6 1.9-1.3c0 0 1.1.4 1.1.4zm2.2-.3c0 .7.6 1.2 1.5 1.2c.7 0 1.1-.4 1.1-.8c0-.4-.3-.7-.9-.9c0 0-1.1-.2-1.1-.2c-1-.2-1.6-.9-1.6-1.8c0-1.1 1.1-2.1 2.3-2.1c1.8 0 2.4 1.2 2.5 1.8c0 0-1.1.4-1.1.4c-.1-.4-.3-1.1-1.4-1.1c-.6 0-1.1.4-1.1.9c0 .4.3.6.8.8c0 0 1 .2 1 .2c1.2.2 1.8 1 1.8 1.9c0 .9-.7 2-2.3 2c-1.8 0-2.6-1.1-2.7-1.9c0 0 1.2-.4 1.2-.4zm8.9 2.1l0-6.5l1.2 0c0 0 .02.89 0 .9c.4-.7 1.2-1.1 2-1.1c.8 0 1.6.4 1.9 1.3c.5-1 1.4-1.3 2.2-1.3c1.1 0 2.2.8 2.2 2.5c.05.01 0 4.2 0 4.2l-1.2 0c0 0-.01-4.06 0-4.1c0-.8-.4-1.4-1.4-1.4c-.9 0-1.5.7-1.5 1.6c.01-.01 0 3.9 0 3.9l-1.3 0c0 0 .05-4.06 0-4.1c0-.8-.4-1.4-1.3-1.4c-.9 0-1.5.6-1.5 1.6c-.04 0 0 3.9 0 3.9l-1.3 0zm15.9-3.9c0-.9-.6-1.7-1.7-1.7c-1.1 0-1.8.9-1.8 1.7c0 0 3.5 0 3.5 0zm1.3 2.1c-.3 1.1-1.4 2-2.9 2c-1.7 0-3.3-1.2-3.3-3.4c0-2.1 1.5-3.5 3.1-3.5c2 0 3.2 1.4 3.2 3.4c0 .2 0 .3-.1.4c0 0-4.8 0-4.8 0c0 1.2.8 2 1.9 2c1.1 0 1.6-.6 1.8-1.3c0 0 1.1.4 1.1.4zm-2.5-5.5l-1.1 0l1.2-2l1.6 0l-1.7 2zm5.9.8l1.4 0l0 1.2l-1.4 0c0 0-.01 3.35 0 3.4c0 .5.2.8.9.8c.2 0 .4 0 .5 0c0 0 0 1.1 0 1.1c-.1 0-.4.1-.9.1c-1.1 0-1.8-.7-1.8-1.9c.02.04 0-3.5 0-3.5l-1.2 0l0-1.2c0 0 .33.03.3 0c.7 0 1-.4 1-1c.03.03 0-1 0-1l1.2 0l0 2zm3.1 6.5l0-6.5l1.2 0l0 6.5l-1.2 0zm.6-9.8c.5 0 .9.4.9.9c0 .5-.4.9-.9.9c-.5 0-.9-.4-.9-.9c0-.5.4-.9.9-.9zm7.2 5.9c-.1-.9-.7-1.7-1.8-1.7c-1.1 0-1.7.9-1.8 1.7c0 0 3.6 0 3.6 0zm1.3 2.1c-.4 1.1-1.5 2-3 2c-1.7 0-3.2-1.2-3.2-3.4c0-2.1 1.4-3.5 3.1-3.5c2 0 3.1 1.4 3.1 3.4c0 .2 0 .3 0 .4c0 0-4.9 0-4.9 0c0 1.2.8 2 1.9 2c1.1 0 1.6-.6 1.9-1.3c0 0 1.1.4 1.1.4zm5.2-3.4c-.2 0-.4 0-.5 0c-1.1 0-1.8.5-1.8 2c-.02-.03 0 3.2 0 3.2l-1.3 0l0-6.5l1.3 0c0 0-.05 1.16 0 1.2c.4-1 1.2-1.3 1.9-1.3c.2 0 .3 0 .4.1c0 0 0 1.3 0 1.3zm1.9 3.1c.1.7.6 1.2 1.5 1.2c.7 0 1.1-.4 1.1-.8c0-.4-.3-.7-.8-.9c0 0-1.1-.2-1.1-.2c-1-.2-1.6-.9-1.6-1.8c0-1.1 1-2.1 2.3-2.1c1.8 0 2.3 1.2 2.4 1.8c0 0-1.1.4-1.1.4c0-.4-.3-1.1-1.3-1.1c-.7 0-1.1.4-1.1.9c0 .4.2.6.7.8c0 0 1.1.2 1.1.2c1.2.2 1.8 1 1.8 1.9c0 .9-.8 2-2.4 2c-1.8 0-2.5-1.1-2.6-1.9c0 0 1.1-.4 1.1-.4zm13.3-1.8c0-.9-.6-1.7-1.8-1.7c-1 0-1.7.9-1.7 1.7c0 0 3.5 0 3.5 0zm1.3 2.1c-.4 1.1-1.4 2-2.9 2c-1.8 0-3.3-1.2-3.3-3.4c0-2.1 1.5-3.5 3.1-3.5c2 0 3.1 1.4 3.1 3.4c0 .2 0 .3 0 .4c0 0-4.9 0-4.9 0c.1 1.2.9 2 2 2c1 0 1.6-.6 1.8-1.3c0 0 1.1.4 1.1.4zm2.9 1.8l-1.2 0l0-6.5l1.2 0c0 0 0 .96 0 1c.5-.9 1.2-1.2 2-1.2c1.6 0 2.3 1.2 2.3 2.6c.02 0 0 4.1 0 4.1l-1.2 0c0 0-.05-3.88 0-3.9c0-.9-.4-1.6-1.6-1.6c-1 0-1.5.8-1.5 1.8c.03-.03 0 3.7 0 3.7zm11.4-6.5l1.4 0l0 1.2l-1.4 0c0 0 .02 3.35 0 3.4c0 .5.3.8.9.8c.2 0 .4 0 .5 0c0 0 0 1.1 0 1.1c-.1 0-.4.1-.8.1c-1.1 0-1.8-.7-1.8-1.9c-.04.04 0-3.5 0-3.5l-1.3 0l0-1.2c0 0 .36.03.4 0c.7 0 1-.4 1-1c-.04.03 0-1 0-1l1.1 0l0 2zm7.4 2.6c0-.9-.6-1.7-1.8-1.7c-1 0-1.7.9-1.7 1.7c0 0 3.5 0 3.5 0zm1.3 2.1c-.4 1.1-1.4 2-2.9 2c-1.8 0-3.3-1.2-3.3-3.4c0-2.1 1.5-3.5 3.1-3.5c2 0 3.1 1.4 3.1 3.4c0 .2 0 .3 0 .4c0 0-4.9 0-4.9 0c.1 1.2.9 2 2 2c1 0 1.6-.6 1.8-1.3c0 0 1.1.4 1.1.4zm2.9 1.8l-1.2 0l0-6.5l1.2 0c0 0 .01.96 0 1c.5-.9 1.2-1.2 2-1.2c1.6 0 2.3 1.2 2.3 2.6c.03 0 0 4.1 0 4.1l-1.2 0c0 0-.04-3.88 0-3.9c0-.9-.4-1.6-1.6-1.6c-1 0-1.5.8-1.5 1.8c.03-.03 0 3.7 0 3.7zm6.9-2.1c.1.7.6 1.2 1.5 1.2c.7 0 1.1-.4 1.1-.8c0-.4-.3-.7-.8-.9c0 0-1.1-.2-1.1-.2c-1-.2-1.7-.9-1.7-1.8c0-1.1 1.1-2.1 2.4-2.1c1.7 0 2.3 1.2 2.4 1.8c0 0-1.1.4-1.1.4c0-.4-.3-1.1-1.3-1.1c-.7 0-1.1.4-1.1.9c0 .4.2.6.7.8c0 0 1.1.2 1.1.2c1.1.2 1.8 1 1.8 1.9c0 .9-.8 2-2.4 2c-1.8 0-2.5-1.1-2.7-1.9c0 0 1.2-.4 1.2-.4zm5.6 2.1l0-6.5l1.2 0l0 6.5l-1.2 0zm.6-9.8c.5 0 .9.4.9.9c0 .5-.4.9-.9.9c-.5 0-.9-.4-.9-.9c0-.5.4-.9.9-.9zm7.6 6.6c0-1.5-1-2.3-2-2.3c-1.1 0-2.1.8-2.1 2.3c0 1.5 1 2.3 2.1 2.3c1 0 2-.8 2-2.3zm1.3 0c0 2-1.4 3.4-3.3 3.4c-2 0-3.4-1.4-3.4-3.4c0-2 1.4-3.5 3.4-3.5c1.9 0 3.3 1.5 3.3 3.5zm2.9 3.2l-1.3 0l0-6.5l1.2 0c0 0 .03.96 0 1c.5-.9 1.3-1.2 2-1.2c1.6 0 2.4 1.2 2.4 2.6c-.05 0 0 4.1 0 4.1l-1.3 0c0 0-.01-3.88 0-3.9c0-.9-.4-1.6-1.5-1.6c-1 0-1.5.8-1.5 1.8c-.04-.03 0 3.7 0 3.7zm7.1-1.8c.5 0 .9.4.9 1c0 .5-.4.9-.9.9c-.6 0-1-.4-1-.9c0-.6.4-1 1-1z" stroke="none" fill="#144542"/></g><g id="Polygon174440"><path d="m.6 138.8l0-1.1l3.7 0l0 1.1l-3.7 0zm8.2 3.3l0-9.5l1.3 0l0 8.3l4.5 0l0 1.2l-5.8 0zm7.3 0l0-6.5l1.2 0l0 6.5l-1.2 0zm.6-9.8c.5 0 .9.4.9.9c0 .5-.4.9-.9.9c-.5 0-.9-.4-.9-.9c0-.5.4-.9.9-.9zm2.8 9.8l0-6.5l1.2 0c0 0-.02.9 0 .9c.4-.7 1.2-1 2-1c.8 0 1.5.3 1.9 1.2c.5-1 1.3-1.2 2.2-1.2c1.1 0 2.2.7 2.2 2.4c.01.02 0 4.2 0 4.2l-1.2 0c0 0-.04-4.04 0-4c0-.9-.5-1.5-1.4-1.5c-.9 0-1.5.7-1.5 1.6c-.02 0 0 3.9 0 3.9l-1.3 0c0 0 .01-4.04 0-4c0-.9-.4-1.5-1.4-1.5c-.9 0-1.5.6-1.5 1.6c.02.02 0 3.9 0 3.9l-1.2 0zm11.5 0l0-6.5l1.3 0l0 6.5l-1.3 0zm.7-9.8c.5 0 .9.4.9.9c0 .5-.4.9-.9.9c-.5 0-.9-.4-.9-.9c0-.5.4-.9.9-.9zm4.5 3.3l1.4 0l0 1.2l-1.4 0c0 0-.05 3.36 0 3.4c0 .6.2.9.9.9c.1 0 .3-.1.5-.1c0 0 0 1.1 0 1.1c-.2 0-.5.1-.9.1c-1.1 0-1.8-.7-1.8-1.8c-.02-.05 0-3.6 0-3.6l-1.3 0l0-1.2c0 0 .39.04.4 0c.7 0 1-.4 1-1c-.01.04 0-1 0-1l1.2 0l0 2zm7.4 2.6c-.1-.9-.7-1.6-1.8-1.6c-1.1 0-1.7.8-1.8 1.6c0 0 3.6 0 3.6 0zm1.2 2.1c-.3 1.1-1.4 2-2.9 2c-1.7 0-3.2-1.2-3.2-3.4c0-2.1 1.4-3.5 3.1-3.5c2 0 3.1 1.4 3.1 3.4c0 .2 0 .4-.1.4c0 0-4.8 0-4.8 0c0 1.2.8 2 1.9 2c1.1 0 1.6-.6 1.8-1.3c0 0 1.1.4 1.1.4zm5.3-3.4c-.2 0-.4 0-.6 0c-1 0-1.7.5-1.7 2c-.04-.02 0 3.2 0 3.2l-1.3 0l0-6.5l1.2 0c0 0 .03 1.17 0 1.2c.5-1 1.3-1.3 2-1.3c.2 0 .3.1.4.1c0 0 0 1.3 0 1.3zm4.7 5.2l0-9.7l1.3 0l0 9.7l-1.3 0zm7.8-3.9c0-.9-.6-1.6-1.8-1.6c-1 0-1.7.8-1.7 1.6c0 0 3.5 0 3.5 0zm1.3 2.1c-.4 1.1-1.4 2-2.9 2c-1.7 0-3.3-1.2-3.3-3.4c0-2.1 1.5-3.5 3.1-3.5c2 0 3.1 1.4 3.1 3.4c0 .2 0 .4 0 .4c0 0-4.9 0-4.9 0c.1 1.2.9 2 2 2c1 0 1.6-.6 1.8-1.3c0 0 1.1.4 1.1.4zm6.7-4.7l1.4 0l0 1.2l-1.4 0c0 0 .04 3.36 0 3.4c0 .6.3.9.9.9c.2 0 .4-.1.5-.1c0 0 0 1.1 0 1.1c-.1 0-.4.1-.8.1c-1.1 0-1.8-.7-1.8-1.8c-.02-.05 0-3.6 0-3.6l-1.3 0l0-1.2c0 0 .39.04.4 0c.7 0 1-.4 1-1c-.02.04 0-1 0-1l1.1 0l0 2zm7.4 5.8c-.3.6-1.1.9-1.9.9c-1.5 0-2.4-1.1-2.4-2.6c-.03.03 0-4.1 0-4.1l1.2 0c0 0 .04 3.94 0 3.9c0 .9.4 1.7 1.5 1.7c1 0 1.5-.7 1.5-1.6c.05-.04 0-4 0-4l1.3 0c0 0 .02 5.33 0 5.3c0 .5.1 1 .1 1.2c0 0-1.2 0-1.2 0c-.1-.1-.1-.5-.1-.7c0 0 0 0 0 0zm7-4.5c-.2 0-.4 0-.6 0c-1 0-1.8.5-1.8 2c.05-.02 0 3.2 0 3.2l-1.2 0l0-6.5l1.2 0c0 0 .02 1.17 0 1.2c.5-1 1.3-1.3 2-1.3c.1 0 .3.1.4.1c0 0 0 1.3 0 1.3zm2.6 5.2l-1.3 0l0-6.5l1.3 0c0 0-.03.97 0 1c.4-.8 1.2-1.1 2-1.1c1.5 0 2.3 1.1 2.3 2.5c-.01.02 0 4.1 0 4.1l-1.3 0c0 0 .03-3.87 0-3.9c0-.9-.4-1.6-1.5-1.6c-1 0-1.5.8-1.5 1.8c0-.02 0 3.7 0 3.7zm11.1-3.2c0-1.5-.9-2.3-2-2.3c-1.1 0-2 .8-2 2.3c0 1.5.9 2.3 2 2.3c1.1 0 2-.8 2-2.3zm1.3 0c0 2-1.4 3.4-3.3 3.4c-1.9 0-3.3-1.4-3.3-3.4c0-2 1.4-3.5 3.3-3.5c1.9 0 3.3 1.5 3.3 3.5zm4.4 3.2l-1.3 0l-2.6-6.5l1.4 0l1.9 5l1.8-5l1.4 0l-2.6 6.5zm8-3.9c0-.9-.6-1.6-1.8-1.6c-1.1 0-1.7.8-1.8 1.6c0 0 3.6 0 3.6 0zm1.3 2.1c-.4 1.1-1.4 2-2.9 2c-1.8 0-3.3-1.2-3.3-3.4c0-2.1 1.5-3.5 3.1-3.5c2 0 3.1 1.4 3.1 3.4c0 .2 0 .4 0 .4c0 0-4.9 0-4.9 0c0 1.2.9 2 2 2c1 0 1.5-.6 1.8-1.3c0 0 1.1.4 1.1.4zm5.2-3.4c-.2 0-.3 0-.5 0c-1.1 0-1.8.5-1.8 2c0-.02 0 3.2 0 3.2l-1.3 0l0-6.5l1.3 0c0 0-.03 1.17 0 1.2c.4-1 1.3-1.3 1.9-1.3c.2 0 .4.1.4.1c0 0 0 1.3 0 1.3zm5.6 3.5c.6 0 1.1.5 1.1 1.3c0 1.6-1.1 2.4-1.9 2.5c0 0 0-.7 0-.7c.6-.2 1-.8 1-1.4c0 0-.1.1-.2.1c-.5 0-.9-.3-.9-.9c0-.5.4-.9.9-.9zm0-4.8c.6 0 1 .4 1 .9c0 .5-.4.9-1 .9c-.5 0-.9-.4-.9-.9c0-.5.4-.9.9-.9z" stroke="none" fill="#144542"/></g><g id="Polygon174439"><path d="m.6 115.5l0-1.1l3.7 0l0 1.1l-3.7 0zm13.1-3.6c-.1-.7-.7-1.7-2-1.7c-1.1 0-1.9.7-1.9 1.6c0 .7.4 1.2 1.3 1.4c0 0 1.4.3 1.4.3c1.6.4 2.5 1.4 2.5 2.7c0 1.5-1.3 2.8-3.3 2.8c-2.3 0-3.4-1.4-3.6-2.8c0 0 1.3-.4 1.3-.4c0 1.1.8 2 2.3 2c1.3 0 1.9-.6 1.9-1.5c0-.7-.5-1.3-1.4-1.5c0 0-1.4-.3-1.4-.3c-1.3-.3-2.3-1.1-2.3-2.6c0-1.5 1.4-2.8 3.2-2.8c2.1 0 3 1.3 3.2 2.3c0 0-1.2.5-1.2.5zm7.2 3c0-.9-.6-1.6-1.8-1.6c-1.1 0-1.7.8-1.8 1.6c0 0 3.6 0 3.6 0zm1.3 2.1c-.4 1.1-1.4 2-2.9 2c-1.8 0-3.3-1.2-3.3-3.4c0-2.1 1.5-3.4 3.1-3.4c2 0 3.1 1.3 3.1 3.4c0 .1 0 .3 0 .4c0 0-4.9 0-4.9 0c0 1.1.9 1.9 2 1.9c1 0 1.5-.6 1.8-1.3c0 0 1.1.4 1.1.4zm-2.6-5.5l-1.1 0l1.2-2l1.6 0l-1.7 2zm5 4.1c0 1.5.9 2.3 2 2.3c1.2 0 1.6-.8 1.8-1.4c0 0 1.1.5 1.1.5c-.3 1-1.2 2-2.9 2c-1.9 0-3.3-1.4-3.3-3.4c0-2 1.4-3.4 3.3-3.4c1.7 0 2.6 1 2.9 2c0 0-1.2.5-1.2.5c-.2-.6-.6-1.4-1.7-1.4c-1.1 0-2 .8-2 2.3zm10.6 2.5c-.3.6-1.2.9-1.9.9c-1.5 0-2.4-1.1-2.4-2.6c-.04.05 0-4 0-4l1.2 0c0 0 .03 3.86 0 3.9c0 .8.4 1.6 1.5 1.6c1 0 1.5-.6 1.5-1.6c.04-.03 0-3.9 0-3.9l1.3 0c0 0 .01 5.25 0 5.2c0 .6 0 1 .1 1.2c0 0-1.2 0-1.2 0c-.1-.1-.1-.5-.1-.7c0 0 0 0 0 0zm7-4.5c-.2 0-.4 0-.6 0c-1 0-1.8.6-1.8 2c.04-.01 0 3.2 0 3.2l-1.2 0l0-6.4l1.2 0c0 0 .01 1.09 0 1.1c.5-1 1.3-1.3 2-1.3c.1 0 .3.1.4.1c0 0 0 1.3 0 1.3zm1.3 5.2l0-6.4l1.3 0l0 6.4l-1.3 0zm.6-9.8c.6 0 1 .4 1 .9c0 .5-.4.9-1 .9c-.5 0-.9-.4-.9-.9c0-.5.4-.9.9-.9zm3.4 7.8c.1.6.6 1.2 1.5 1.2c.7 0 1.1-.4 1.1-.9c0-.4-.3-.7-.8-.8c0 0-1.1-.3-1.1-.3c-1.1-.2-1.7-.9-1.7-1.8c0-1.1 1.1-2 2.3-2c1.8 0 2.4 1.1 2.5 1.7c0 0-1.1.4-1.1.4c-.1-.3-.3-1.1-1.4-1.1c-.6 0-1 .4-1 .9c0 .4.2.7.7.8c0 0 1.1.2 1.1.2c1.1.3 1.8 1 1.8 1.9c0 1-.8 2-2.4 2c-1.8 0-2.6-1.1-2.7-1.8c0 0 1.2-.4 1.2-.4zm9.8-1.9c0-.9-.6-1.6-1.7-1.6c-1.1 0-1.7.8-1.8 1.6c0 0 3.5 0 3.5 0zm1.3 2.1c-.3 1.1-1.4 2-2.9 2c-1.7 0-3.3-1.2-3.3-3.4c0-2.1 1.5-3.4 3.2-3.4c2 0 3.1 1.3 3.1 3.4c0 .1 0 .3-.1.4c0 0-4.8 0-4.8 0c0 1.1.8 1.9 1.9 1.9c1.1 0 1.6-.6 1.8-1.3c0 0 1.1.4 1.1.4zm5.3-3.4c-.2 0-.4 0-.6 0c-1 0-1.7.6-1.7 2c-.04-.01 0 3.2 0 3.2l-1.3 0l0-6.4l1.2 0c0 0 .03 1.09 0 1.1c.5-1 1.3-1.3 2-1.3c.2 0 .3.1.4.1c0 0 0 1.3 0 1.3zm4.7 5.2l0-9.7l1.3 0l0 9.7l-1.3 0zm3.8-9.6c.6 0 1.1.4 1.1 1.1c0 1.7-1.1 2.4-1.9 2.5c0 0 0-.6 0-.6c.6-.2 1-.8 1-1.4c0 0-.1.1-.2.1c-.5 0-.9-.4-.9-.9c0-.5.4-.8.9-.8zm2.7 9.6l0-6.4l1.2 0l0 6.4l-1.2 0zm.6-9.8c.5 0 .9.4.9.9c0 .5-.4.9-.9.9c-.5 0-.9-.4-.9-.9c0-.5.4-.9.9-.9zm4.1 9.8l-1.3 0l0-6.4l1.2 0c0 0 .03.88 0 .9c.5-.8 1.3-1.1 2-1.1c1.6 0 2.3 1.1 2.3 2.5c.05.03 0 4.1 0 4.1l-1.2 0c0 0-.02-3.86 0-3.9c0-.9-.4-1.6-1.5-1.6c-1 0-1.5.8-1.5 1.8c-.04-.01 0 3.7 0 3.7zm8-6.4l1.4 0l0 1.1l-1.4 0c0 0-.02 3.38 0 3.4c0 .6.2.9.9.9c.1 0 .4-.1.5-.1c0 0 0 1.1 0 1.1c-.1 0-.5.1-.9.1c-1.1 0-1.8-.7-1.8-1.8c.01-.03 0-3.6 0-3.6l-1.2 0l0-1.1c0 0 .32-.05.3 0c.7 0 1-.5 1-1c.02-.04 0-1.1 0-1.1l1.2 0l0 2.1zm7.4 2.5c-.1-.9-.7-1.6-1.8-1.6c-1.1 0-1.7.8-1.8 1.6c0 0 3.6 0 3.6 0zm1.3 2.1c-.4 1.1-1.4 2-3 2c-1.7 0-3.2-1.2-3.2-3.4c0-2.1 1.4-3.4 3.1-3.4c2 0 3.1 1.3 3.1 3.4c0 .1 0 .3 0 .4c0 0-4.9 0-4.9 0c0 1.1.8 1.9 1.9 1.9c1.1 0 1.6-.6 1.9-1.3c0 0 1.1.4 1.1.4zm-2.6-5.5l-1.1 0l1.2-2l1.6 0l-1.7 2zm5 7.4c.1.9.8 1.6 1.7 1.6c1.4 0 2-.7 2-2.1c0 0 0-.9 0-.9c-.3.6-1 1-2 1c-1.7 0-2.9-1.3-2.9-3.1c0-1.8 1.2-3.2 2.9-3.2c1 0 1.7.4 2 1.1c.04-.04 0-.9 0-.9l1.3 0c0 0-.01 5.96 0 6c0 1.6-.8 3.2-3.3 3.2c-1.6 0-2.8-1-3-2.4c0 0 1.3-.3 1.3-.3zm3.8-3.5c0-1.3-.8-2.1-1.9-2.1c-1.1 0-1.8.8-1.8 2.1c0 1.3.7 2.1 1.8 2.1c1.1 0 1.9-.9 1.9-2.1zm6.8-1.8c-.2 0-.4 0-.5 0c-1.1 0-1.8.6-1.8 2c-.01-.01 0 3.2 0 3.2l-1.3 0l0-6.4l1.3 0c0 0-.04 1.09 0 1.1c.4-1 1.2-1.3 1.9-1.3c.2 0 .4.1.4.1c0 0 0 1.3 0 1.3zm1 3.5c0-1.1.8-1.8 1.9-2c0 0 1.8-.2 1.8-.2c.4-.1.5-.3.5-.5c0-.6-.4-1.2-1.4-1.2c-.9 0-1.4.6-1.5 1.3c0 0-1.2-.2-1.2-.2c.1-1.3 1.3-2.1 2.7-2.1c1.9 0 2.7 1.1 2.7 2.3c0 0 0 3.3 0 3.3c0 .6 0 .9 0 1.1c0 0-1.2 0-1.2 0c0-.2-.1-.4-.1-.9c-.2.4-.9 1-2.1 1c-1.3 0-2.1-.9-2.1-1.9c0 0 0 0 0 0zm4.2-1c0-.03 0-.3 0-.3c0 0-1.99.27-2 .3c-.5 0-.9.4-.9.9c0 .5.4 1 1 1c1.1 0 1.9-.5 1.9-1.9zm4.9-3.7l1.4 0l0 1.1l-1.4 0c0 0 .03 3.38 0 3.4c0 .6.3.9.9.9c.2 0 .4-.1.5-.1c0 0 0 1.1 0 1.1c-.1 0-.4.1-.8.1c-1.1 0-1.8-.7-1.8-1.8c-.03-.03 0-3.6 0-3.6l-1.3 0l0-1.1c0 0 .38-.05.4 0c.7 0 1-.5 1-1c-.02-.04 0-1.1 0-1.1l1.1 0l0 2.1zm3.1 6.4l0-6.4l1.3 0l0 6.4l-1.3 0zm.6-9.8c.6 0 1 .4 1 .9c0 .5-.4.9-1 .9c-.5 0-.9-.4-.9-.9c0-.5.4-.9.9-.9zm7.6 6.6c0-1.5-.9-2.3-2-2.3c-1.1 0-2 .8-2 2.3c0 1.5.9 2.3 2 2.3c1.1 0 2-.8 2-2.3zm1.3 0c0 2-1.3 3.4-3.3 3.4c-1.9 0-3.3-1.4-3.3-3.4c0-2 1.4-3.4 3.3-3.4c2 0 3.3 1.4 3.3 3.4zm2.9 3.2l-1.2 0l0-6.4l1.2 0c0 0 .01.88 0 .9c.5-.8 1.2-1.1 2-1.1c1.6 0 2.3 1.1 2.3 2.5c.03.03 0 4.1 0 4.1l-1.2 0c0 0-.04-3.86 0-3.9c0-.9-.4-1.6-1.6-1.6c-1 0-1.5.8-1.5 1.8c.03-.01 0 3.7 0 3.7zm10.6-1.6c.6 0 1 .4 1 1.2c0 1.7-1.1 2.4-1.9 2.5c0 0 0-.7 0-.7c.7-.1 1.1-.8 1.1-1.4c0 0-.1.1-.3.1c-.4 0-.8-.3-.8-.9c0-.4.4-.8.9-.8zm0-4.9c.5 0 .9.4.9.9c0 .6-.4 1-.9 1c-.5 0-.9-.4-.9-1c0-.5.4-.9.9-.9z" stroke="none" fill="#144542"/></g><g id="Polygon174438"><path d="m.6 92.2l0-1.1l3.7 0l0 1.1l-3.7 0zm11-.6l-1.5 0l0 4l-1.3 0l0-9.6c0 0 3.59-.01 3.6 0c1.8 0 2.9 1.3 2.9 2.8c0 1.4-.9 2.5-2.3 2.8c0-.05 2.3 4 2.3 4l-1.6 0l-2.1-4zm.6-1.1c1 0 1.8-.7 1.8-1.7c0-1-.8-1.6-1.8-1.6c-.05-.02-2.1 0-2.1 0l0 3.3c0 0 2.05-.04 2.1 0zm8.9 1.1c0-.9-.6-1.6-1.8-1.6c-1 0-1.7.8-1.7 1.6c0 0 3.5 0 3.5 0zm1.3 2.1c-.4 1.2-1.4 2.1-2.9 2.1c-1.8 0-3.3-1.3-3.3-3.5c0-2 1.5-3.4 3.1-3.4c2 0 3.1 1.3 3.1 3.4c0 .1 0 .3 0 .4c0 0-4.9 0-4.9 0c0 1.1.9 1.9 2 1.9c1 0 1.6-.5 1.8-1.3c0 0 1.1.4 1.1.4zm-2.6-5.5l-1 0l1.1-1.9l1.6 0l-1.7 1.9zm6.9 6.4c1.2 0 1.9-1 1.9-2.3c0-1.4-.7-2.3-1.9-2.3c-1.1 0-1.9 1-1.9 2.3c0 1.3.7 2.3 1.9 2.3zm1.9 0c-.3.6-1 1.1-2 1.1c-1.9 0-3.1-1.5-3.1-3.4c0-1.8 1.3-3.4 3.1-3.4c1.1 0 1.8.6 2 1.1c-.02-.02 0-4.2 0-4.2l1.2 0c0 0 .03 8.56 0 8.6c0 .6.1 1.1.1 1.2c0 0-1.2 0-1.2 0c-.1-.2-.1-.5-.1-.9c0 0 0-.1 0-.1zm7.6.2c-.3.7-1.2 1-1.9 1c-1.5 0-2.4-1.2-2.4-2.6c-.04-.04 0-4.1 0-4.1l1.2 0c0 0 .03 3.87 0 3.9c0 .9.4 1.6 1.5 1.6c1 0 1.5-.6 1.5-1.6c.04-.02 0-3.9 0-3.9l1.3 0c0 0 .01 5.26 0 5.3c0 .5 0 .9.1 1.2c0 0-1.2 0-1.2 0c-.1-.2-.1-.6-.1-.8c0 0 0 0 0 0zm3.4.8l0-6.5l1.2 0l0 6.5l-1.2 0zm.6-9.9c.5 0 .9.4.9.9c0 .5-.4.9-.9.9c-.5 0-.9-.4-.9-.9c0-.5.4-.9.9-.9zm6.4 4.6c-.2 0-.4 0-.6 0c-1 0-1.7.6-1.7 2c-.05.01 0 3.3 0 3.3l-1.3 0l0-6.5l1.2 0c0 0 .03 1.1 0 1.1c.5-1 1.3-1.2 2-1.2c.1 0 .3 0 .4 0c0 0 0 1.3 0 1.3zm5.6 1.3c0-.9-.6-1.6-1.7-1.6c-1.1 0-1.8.8-1.8 1.6c0 0 3.5 0 3.5 0zm1.3 2.1c-.3 1.2-1.4 2.1-2.9 2.1c-1.7 0-3.3-1.3-3.3-3.5c0-2 1.5-3.4 3.1-3.4c2 0 3.2 1.3 3.2 3.4c0 .1 0 .3-.1.4c0 0-4.8 0-4.8 0c0 1.1.8 1.9 1.9 1.9c1.1 0 1.6-.5 1.8-1.3c0 0 1.1.4 1.1.4zm5.1 1.9l0-9.8l1.2 0l0 9.8l-1.2 0zm7.8-4c-.1-.9-.7-1.6-1.8-1.6c-1.1 0-1.7.8-1.8 1.6c0 0 3.6 0 3.6 0zm1.2 2.1c-.3 1.2-1.4 2.1-2.9 2.1c-1.7 0-3.2-1.3-3.2-3.5c0-2 1.4-3.4 3.1-3.4c2 0 3.1 1.3 3.1 3.4c0 .1 0 .3 0 .4c0 0-4.9 0-4.9 0c0 1.1.8 1.9 1.9 1.9c1.1 0 1.6-.5 1.9-1.3c0 0 1 .4 1 .4zm6.8-4.6l1.4 0l0 1.1l-1.4 0c0 0-.02 3.39 0 3.4c0 .6.2.9.9.9c.2 0 .4 0 .5-.1c0 0 0 1.1 0 1.1c-.1 0-.4.1-.9.1c-1.1 0-1.8-.6-1.8-1.8c.02-.02 0-3.6 0-3.6l-1.2 0l0-1.1c0 0 .33-.03.3 0c.7 0 1-.5 1-1c.02-.03 0-1.1 0-1.1l1.2 0l0 2.1zm7.4 2.5c0-.9-.7-1.6-1.8-1.6c-1.1 0-1.7.8-1.8 1.6c0 0 3.6 0 3.6 0zm1.3 2.1c-.4 1.2-1.4 2.1-3 2.1c-1.7 0-3.2-1.3-3.2-3.5c0-2 1.5-3.4 3.1-3.4c2 0 3.1 1.3 3.1 3.4c0 .1 0 .3 0 .4c0 0-4.9 0-4.9 0c0 1.1.9 1.9 1.9 1.9c1.1 0 1.6-.5 1.9-1.3c0 0 1.1.4 1.1.4zm1.6 1.9l0-6.5l1.2 0c0 0 .04.83 0 .8c.4-.7 1.3-1 2-1c.8 0 1.6.4 2 1.2c.5-.9 1.3-1.2 2.1-1.2c1.2 0 2.3.7 2.3 2.4c-.03.05 0 4.3 0 4.3l-1.3 0c0 0 .02-4.12 0-4.1c0-.9-.4-1.5-1.4-1.5c-.9 0-1.5.7-1.5 1.6c.04.03 0 4 0 4l-1.2 0c0 0-.03-4.12 0-4.1c0-.9-.4-1.5-1.4-1.5c-.9 0-1.5.7-1.5 1.6c-.02.04 0 4 0 4l-1.3 0zm11.6 2.5l0-9l1.2 0c0 0 .02.98 0 1c.4-.7 1.1-1.2 2.2-1.2c1.9 0 3 1.5 3 3.4c0 1.9-1.1 3.4-3 3.4c-1 0-1.8-.4-2.2-1c.05-.02 0 3.4 0 3.4l-1.2 0zm5.1-5.8c0-1.3-.7-2.3-1.9-2.3c-1.2 0-2 1-2 2.3c0 1.3.8 2.3 2 2.3c1.1 0 1.9-1 1.9-2.3c0 0 0 0 0 0zm3.4 1.2c.1.6.6 1.2 1.6 1.2c.7 0 1.1-.4 1.1-.9c0-.4-.3-.7-.9-.8c0 0-1.1-.3-1.1-.3c-1-.2-1.6-.9-1.6-1.8c0-1.1 1-2 2.3-2c1.8 0 2.3 1.1 2.5 1.7c0 0-1.1.4-1.1.4c-.1-.3-.4-1.1-1.4-1.1c-.6 0-1.1.5-1.1.9c0 .4.3.7.8.8c0 0 1 .2 1 .2c1.2.3 1.8 1 1.8 2c0 .9-.8 2-2.4 2c-1.7 0-2.5-1.2-2.6-1.9c0 0 1.1-.4 1.1-.4zm11.6 1.1c1.2 0 1.9-1 1.9-2.3c0-1.4-.7-2.3-1.8-2.3c-1.2 0-2 1-2 2.3c0 1.3.7 2.3 1.9 2.3zm1.9 0c-.3.6-1 1.1-2 1.1c-1.9 0-3.1-1.5-3.1-3.4c0-1.8 1.3-3.4 3.1-3.4c1.2 0 1.8.6 2 1.1c0-.02 0-4.2 0-4.2l1.3 0c0 0-.05 8.56 0 8.6c0 .6 0 1.1 0 1.2c0 0-1.2 0-1.2 0c0-.2-.1-.5-.1-.9c0 0 0-.1 0-.1zm7.8-3c0-.9-.6-1.6-1.8-1.6c-1.1 0-1.7.8-1.8 1.6c0 0 3.6 0 3.6 0zm1.3 2.1c-.4 1.2-1.4 2.1-2.9 2.1c-1.8 0-3.3-1.3-3.3-3.5c0-2 1.5-3.4 3.1-3.4c2 0 3.1 1.3 3.1 3.4c0 .1 0 .3 0 .4c0 0-4.9 0-4.9 0c0 1.1.9 1.9 2 1.9c1 0 1.5-.5 1.8-1.3c0 0 1.1.4 1.1.4zm5 4.4l0-9l1.2 0c0 0 .03.98 0 1c.4-.7 1.2-1.2 2.2-1.2c2 0 3 1.5 3 3.4c0 1.9-1.1 3.4-3 3.4c-1 0-1.8-.4-2.1-1c-.04-.02 0 3.4 0 3.4l-1.3 0zm5.1-5.8c0-1.3-.7-2.3-1.9-2.3c-1.2 0-2 1-2 2.3c0 1.3.8 2.3 2 2.3c1.2 0 1.9-1 1.9-2.3c0 0 0 0 0 0zm7.7 0c0-1.5-.9-2.3-2-2.3c-1.1 0-2 .8-2 2.3c0 1.5.9 2.3 2 2.3c1.1 0 2-.8 2-2.3zm1.3 0c0 2-1.4 3.5-3.3 3.5c-2 0-3.3-1.5-3.3-3.5c0-2 1.3-3.4 3.3-3.4c1.9 0 3.3 1.4 3.3 3.4zm2.2 1.2c.1.6.6 1.2 1.5 1.2c.7 0 1.1-.4 1.1-.9c0-.4-.3-.7-.8-.8c0 0-1.2-.3-1.2-.3c-1-.2-1.6-.9-1.6-1.8c0-1.1 1.1-2 2.3-2c1.8 0 2.4 1.1 2.5 1.7c0 0-1.1.4-1.1.4c-.1-.3-.3-1.1-1.4-1.1c-.6 0-1 .5-1 .9c0 .4.2.7.7.8c0 0 1.1.2 1.1.2c1.1.3 1.7 1 1.7 2c0 .9-.7 2-2.3 2c-1.8 0-2.6-1.2-2.7-1.9c0 0 1.2-.4 1.2-.4zm7.2-4.4l1.4 0l0 1.1l-1.4 0c0 0 .04 3.39 0 3.4c0 .6.3.9.9.9c.2 0 .4 0 .5-.1c0 0 0 1.1 0 1.1c-.1 0-.4.1-.8.1c-1.1 0-1.8-.6-1.8-1.8c-.03-.02 0-3.6 0-3.6l-1.3 0l0-1.1c0 0 .38-.03.4 0c.7 0 1-.5 1-1c-.02-.03 0-1.1 0-1.1l1.1 0l0 2.1zm7.4 2.5c0-.9-.6-1.6-1.7-1.6c-1.1 0-1.8.8-1.8 1.6c0 0 3.5 0 3.5 0zm1.3 2.1c-.3 1.2-1.4 2.1-2.9 2.1c-1.7 0-3.3-1.3-3.3-3.5c0-2 1.5-3.4 3.1-3.4c2 0 3.2 1.3 3.2 3.4c0 .1-.1.3-.1.4c0 0-4.9 0-4.9 0c.1 1.1.9 1.9 2 1.9c1.1 0 1.6-.5 1.8-1.3c0 0 1.1.4 1.1.4zm2.2-.2c.1.6.6 1.2 1.5 1.2c.7 0 1.1-.4 1.1-.9c0-.4-.3-.7-.8-.8c0 0-1.1-.3-1.1-.3c-1-.2-1.6-.9-1.6-1.8c0-1.1 1-2 2.3-2c1.8 0 2.3 1.1 2.5 1.7c0 0-1.2.4-1.2.4c0-.3-.3-1.1-1.3-1.1c-.7 0-1.1.5-1.1.9c0 .4.2.7.7.8c0 0 1.1.2 1.1.2c1.2.3 1.8 1 1.8 2c0 .9-.8 2-2.4 2c-1.8 0-2.5-1.2-2.6-1.9c0 0 1.1-.4 1.1-.4zm11.9 2.1l-1.3 0l-2.6-6.5l1.4 0l1.9 5l1.9-5l1.3 0l-2.6 6.5zm3.4-1.8c0-1.1.8-1.8 1.9-1.9c0 0 1.8-.3 1.8-.3c.4-.1.5-.3.5-.5c0-.6-.4-1.2-1.4-1.2c-.9 0-1.4.6-1.5 1.4c0 0-1.2-.3-1.2-.3c.1-1.3 1.2-2.1 2.7-2.1c1.9 0 2.7 1.1 2.7 2.3c0 0 0 3.3 0 3.3c0 .6 0 .9 0 1.1c0 0-1.2 0-1.2 0c0-.2-.1-.4-.1-.9c-.3.4-.9 1.1-2.1 1.1c-1.3 0-2.1-1-2.1-2c0 0 0 0 0 0zm4.2-1c-.01-.02 0-.3 0-.3c0 0-2 .28-2 .3c-.5.1-.9.4-.9 1c0 .4.4.9 1 .9c1 0 1.9-.5 1.9-1.9zm4-.5c0 1.5.9 2.3 2 2.3c1.2 0 1.6-.8 1.8-1.3c0 0 1.1.4 1.1.4c-.3 1-1.2 2.1-2.9 2.1c-1.9 0-3.3-1.5-3.3-3.5c0-2 1.4-3.4 3.3-3.4c1.7 0 2.6 1 2.8 2c0 0-1.1.5-1.1.5c-.2-.6-.6-1.4-1.7-1.4c-1.1 0-2 .8-2 2.3zm5.9 1.5c0-1.1.9-1.8 2-1.9c0 0 1.7-.3 1.7-.3c.4-.1.5-.3.5-.5c0-.6-.4-1.2-1.4-1.2c-.9 0-1.4.6-1.4 1.4c0 0-1.3-.3-1.3-.3c.2-1.3 1.3-2.1 2.7-2.1c1.9 0 2.7 1.1 2.7 2.3c0 0 0 3.3 0 3.3c0 .6.1.9.1 1.1c0 0-1.3 0-1.3 0c0-.2 0-.4 0-.9c-.3.4-1 1.1-2.1 1.1c-1.3 0-2.2-1-2.2-2c0 0 0 0 0 0zm4.2-1c.03-.02 0-.3 0-.3c0 0-1.95.28-2 .3c-.5.1-.9.4-.9 1c0 .4.4.9 1.1.9c1 0 1.8-.5 1.8-1.9zm4.5 2.8l-1.2 0l0-6.5l1.2 0c0 0 .01.9 0 .9c.5-.8 1.3-1.1 2-1.1c1.6 0 2.3 1.1 2.3 2.5c.03.04 0 4.2 0 4.2l-1.2 0c0 0-.03-3.94 0-3.9c0-.9-.4-1.7-1.5-1.7c-1 0-1.6.8-1.6 1.8c.04.01 0 3.8 0 3.8zm8.1-6.5l1.4 0l0 1.1l-1.4 0c0 0-.04 3.39 0 3.4c0 .6.2.9.9.9c.1 0 .4 0 .5-.1c0 0 0 1.1 0 1.1c-.1 0-.5.1-.9.1c-1.1 0-1.8-.6-1.8-1.8c-.01-.02 0-3.6 0-3.6l-1.2 0l0-1.1c0 0 .3-.03.3 0c.7 0 1-.5 1-1c0-.03 0-1.1 0-1.1l1.2 0l0 2.1zm3.7 4.4c0 .6.6 1.2 1.5 1.2c.7 0 1.1-.4 1.1-.9c0-.4-.3-.7-.9-.8c0 0-1.1-.3-1.1-.3c-1-.2-1.6-.9-1.6-1.8c0-1.1 1.1-2 2.3-2c1.8 0 2.4 1.1 2.5 1.7c0 0-1.1.4-1.1.4c-.1-.3-.3-1.1-1.4-1.1c-.6 0-1.1.5-1.1.9c0 .4.3.7.8.8c0 0 1 .2 1 .2c1.2.3 1.8 1 1.8 2c0 .9-.7 2-2.3 2c-1.8 0-2.6-1.2-2.7-1.9c0 0 1.2-.4 1.2-.4zm9.8.4c.5 0 1 .4 1 1.2c0 1.7-1.1 2.4-1.9 2.5c0 0 0-.7 0-.7c.6-.1 1.1-.7 1.1-1.4c-.1.1-.2.1-.3.1c-.5 0-.9-.3-.9-.9c0-.4.4-.8 1-.8zm0-4.9c.5 0 .9.4.9.9c0 .6-.4 1-.9 1c-.6 0-1-.4-1-1c0-.5.4-.9 1-.9z" stroke="none" fill="#144542"/></g><g id="Polygon174437"><path d="m1.1 74.8l0-9l1.2 0c0 0 .01.99 0 1c.4-.7 1.1-1.2 2.2-1.2c1.9 0 3 1.5 3 3.4c0 2-1.2 3.4-3.1 3.4c-1 0-1.7-.4-2.1-1c.03 0 0 3.4 0 3.4l-1.2 0zm5.1-5.8c0-1.3-.8-2.2-1.9-2.2c-1.2 0-2 .9-2 2.2c0 1.4.8 2.3 2 2.3c1.1 0 1.9-.9 1.9-2.3c0 0 0 0 0 0zm2.5 1.5c0-1.1.8-1.8 2-1.9c0 0 1.7-.3 1.7-.3c.4 0 .5-.2.5-.5c0-.6-.4-1.1-1.4-1.1c-.9 0-1.4.5-1.5 1.3c0 0-1.2-.3-1.2-.3c.2-1.3 1.3-2.1 2.7-2.1c1.9 0 2.7 1.1 2.7 2.4c0 0 0 3.2 0 3.2c0 .6 0 .9.1 1.1c0 0-1.3 0-1.3 0c0-.2-.1-.4-.1-.9c-.2.5-.9 1.1-2 1.1c-1.4 0-2.2-.9-2.2-2c0 0 0 0 0 0zm4.2-1c.01-.01 0-.3 0-.3c0 0-1.98.29-2 .3c-.5.1-.9.4-.9 1c0 .5.4.9 1 .9c1.1 0 1.9-.5 1.9-1.9zm6.8-2.4c-.1-.1-.3-.1-.5-.1c-1.1 0-1.8.6-1.8 2c.01.02 0 3.3 0 3.3l-1.3 0l0-6.5l1.3 0c0 0-.01 1.11 0 1.1c.5-1 1.3-1.2 1.9-1.2c.2 0 .4 0 .4 0c0 0 0 1.4 0 1.4zm3.4-1.3l1.4 0l0 1.1l-1.4 0c0 0 .04 3.4 0 3.4c0 .6.3.9.9.9c.2 0 .4 0 .5-.1c0 0 0 1.1 0 1.1c-.1.1-.4.1-.8.1c-1.1 0-1.8-.6-1.8-1.8c-.03-.01 0-3.6 0-3.6l-1.3 0l0-1.1c0 0 .38-.02.4 0c.7 0 1-.5 1-1c-.02-.02 0-1.1 0-1.1l1.1 0l0 2.1zm7.4 2.6c0-1-.6-1.7-1.7-1.7c-1.1 0-1.8.8-1.8 1.7c0 0 3.5 0 3.5 0zm1.3 2c-.3 1.2-1.4 2.1-2.9 2.1c-1.7 0-3.3-1.3-3.3-3.5c0-2 1.5-3.4 3.1-3.4c2 0 3.2 1.4 3.2 3.4c0 .1-.1.3-.1.4c0 0-4.9 0-4.9 0c.1 1.1.9 2 2 2c1.1 0 1.6-.6 1.8-1.4c0 0 1.1.4 1.1.4zm2.9 1.9l-1.2 0l0-6.5l1.2 0c0 0 .02.91 0 .9c.5-.8 1.3-1.1 2-1.1c1.6 0 2.3 1.1 2.3 2.6c.04-.04 0 4.1 0 4.1l-1.2 0c0 0-.03-3.93 0-3.9c0-.9-.4-1.7-1.5-1.7c-1 0-1.6.8-1.6 1.8c.05.02 0 3.8 0 3.8zm6-1.8c0-1.1.8-1.8 1.9-1.9c0 0 1.8-.3 1.8-.3c.4 0 .5-.2.5-.5c0-.6-.4-1.1-1.4-1.1c-.9 0-1.4.5-1.5 1.3c0 0-1.2-.3-1.2-.3c.1-1.3 1.3-2.1 2.7-2.1c1.9 0 2.7 1.1 2.7 2.4c0 0 0 3.2 0 3.2c0 .6 0 .9 0 1.1c0 0-1.2 0-1.2 0c0-.2-.1-.4-.1-.9c-.3.5-.9 1.1-2.1 1.1c-1.3 0-2.1-.9-2.1-2c0 0 0 0 0 0zm4.2-1c-.01-.01 0-.3 0-.3c0 0-2 .29-2 .3c-.5.1-.9.4-.9 1c0 .5.4.9 1 .9c1.1 0 1.9-.5 1.9-1.9zm3.2 2.8l0-6.5l1.3 0l0 6.5l-1.3 0zm.6-9.9c.6 0 1 .4 1 .9c0 .5-.4.9-1 .9c-.5 0-.9-.4-.9-.9c0-.5.4-.9.9-.9zm6.4 4.7c-.1-.1-.3-.1-.5-.1c-1.1 0-1.8.6-1.8 2c.01.02 0 3.3 0 3.3l-1.3 0l0-6.5l1.3 0c0 0-.02 1.11 0 1.1c.5-1 1.3-1.2 1.9-1.2c.2 0 .4 0 .4 0c0 0 0 1.4 0 1.4zm5.7 1.3c0-1-.6-1.7-1.8-1.7c-1 0-1.7.8-1.7 1.7c0 0 3.5 0 3.5 0zm1.3 2c-.4 1.2-1.4 2.1-2.9 2.1c-1.8 0-3.3-1.3-3.3-3.5c0-2 1.5-3.4 3.1-3.4c2 0 3.1 1.4 3.1 3.4c0 .1 0 .3 0 .4c0 0-4.9 0-4.9 0c0 1.1.9 2 2 2c1 0 1.6-.6 1.8-1.4c0 0 1.1.4 1.1.4zm2.2-.2c.1.7.6 1.2 1.5 1.2c.7 0 1.1-.4 1.1-.9c0-.4-.3-.7-.8-.8c0 0-1.1-.2-1.1-.2c-1.1-.3-1.7-1-1.7-1.9c0-1.1 1.1-2 2.3-2c1.8 0 2.4 1.1 2.5 1.7c0 0-1.1.4-1.1.4c-.1-.3-.3-1-1.4-1c-.6 0-1 .4-1 .8c0 .4.2.7.7.8c0 0 1.1.2 1.1.2c1.1.3 1.8 1 1.8 2c0 .9-.8 2-2.4 2c-1.8 0-2.6-1.2-2.7-1.9c0 0 1.2-.4 1.2-.4zm9.8.3c.5 0 .9.4.9.9c0 .5-.4.9-.9.9c-.5 0-.9-.4-.9-.9c0-.5.4-.9.9-.9zm0-4.8c.5 0 .9.4.9 1c0 .5-.4.9-.9.9c-.5 0-.9-.4-.9-.9c0-.6.4-1 .9-1z" stroke="none" fill="#144542"/></g><g id="Polygon174436"><path d="m1.1 58.6l0-9l1.2 0c0 0 .01.99 0 1c.4-.7 1.1-1.2 2.2-1.2c1.9 0 3 1.5 3 3.4c0 2-1.2 3.4-3.1 3.4c-1 0-1.7-.4-2.1-1c.03 0 0 3.4 0 3.4l-1.2 0zm5.1-5.8c0-1.3-.8-2.2-1.9-2.2c-1.2 0-2 .9-2 2.2c0 1.4.8 2.3 2 2.3c1.1 0 1.9-.9 1.9-2.3c0 0 0 0 0 0zm7.7 0c0-1.5-1-2.3-2-2.3c-1.1 0-2.1.8-2.1 2.3c0 1.5 1 2.3 2.1 2.3c1 0 2-.8 2-2.3zm1.3 0c0 2-1.4 3.5-3.3 3.5c-2 0-3.4-1.5-3.4-3.5c0-2 1.4-3.4 3.4-3.4c1.9 0 3.3 1.4 3.3 3.4zm2.1 1.2c.1.7.6 1.2 1.6 1.2c.7 0 1.1-.4 1.1-.9c0-.4-.3-.7-.9-.8c0 0-1.1-.2-1.1-.2c-1-.3-1.6-1-1.6-1.9c0-1.1 1-2 2.3-2c1.8 0 2.3 1.1 2.5 1.7c0 0-1.1.4-1.1.4c-.1-.3-.4-1-1.4-1c-.6 0-1.1.4-1.1.8c0 .4.3.7.8.8c0 0 1 .2 1 .2c1.2.3 1.8 1 1.8 2c0 .9-.7 2-2.4 2c-1.7 0-2.5-1.2-2.6-1.9c0 0 1.1-.4 1.1-.4zm7.3-4.4l1.4 0l0 1.1l-1.4 0c0 0 .01 3.4 0 3.4c0 .6.3.9.9.9c.2 0 .4 0 .5-.1c0 0 0 1.1 0 1.1c-.1.1-.4.1-.9.1c-1.1 0-1.8-.6-1.8-1.8c.04-.01 0-3.6 0-3.6l-1.2 0l0-1.1c0 0 .35-.02.4 0c.7 0 .9-.5.9-1c.05-.02 0-1.1 0-1.1l1.2 0l0 2.1zm2.6 3.2l0-1.2l3.7 0l0 1.2l-3.7 0zm9-1.9c-.2-.1-.4-.1-.6-.1c-1 0-1.8.6-1.8 2c.04.02 0 3.3 0 3.3l-1.2 0l0-6.5l1.2 0c0 0 .02 1.11 0 1.1c.5-1 1.3-1.2 2-1.2c.1 0 .3 0 .4 0c0 0 0 1.4 0 1.4zm5.6 1.3c0-1-.6-1.7-1.7-1.7c-1.1 0-1.8.8-1.8 1.7c0 0 3.5 0 3.5 0zm1.3 2c-.3 1.2-1.4 2.1-2.9 2.1c-1.7 0-3.3-1.3-3.3-3.5c0-2 1.5-3.4 3.1-3.4c2 0 3.2 1.4 3.2 3.4c0 .1-.1.3-.1.4c0 0-4.9 0-4.9 0c.1 1.1.9 2 2 2c1.1 0 1.6-.6 1.8-1.4c0 0 1.1.4 1.1.4zm2.4-1.4c0 1.5 1 2.3 2 2.3c1.2 0 1.7-.8 1.8-1.3c0 0 1.1.5 1.1.5c-.3.9-1.2 2-2.9 2c-1.9 0-3.3-1.5-3.3-3.5c0-2 1.5-3.4 3.3-3.4c1.7 0 2.6 1.1 2.9 2c0 0-1.2.5-1.2.5c-.1-.6-.6-1.3-1.7-1.3c-1 0-2 .7-2 2.2zm10-1.9c-.2-.1-.3-.1-.5-.1c-1.1 0-1.8.6-1.8 2c0 .02 0 3.3 0 3.3l-1.3 0l0-6.5l1.3 0c0 0-.02 1.11 0 1.1c.4-1 1.3-1.2 1.9-1.2c.2 0 .4 0 .4 0c0 0 0 1.4 0 1.4zm5.7 4.4c-.3.7-1.1 1-1.9 1c-1.5 0-2.4-1.2-2.4-2.6c-.01-.03 0-4.1 0-4.1l1.3 0c0 0-.04 3.88 0 3.9c0 .9.4 1.7 1.4 1.7c1.1 0 1.6-.7 1.6-1.7c-.03 0 0-3.9 0-3.9l1.2 0c0 0 .04 5.27 0 5.3c0 .5.1.9.1 1.2c0 0-1.2 0-1.2 0c0-.2-.1-.5-.1-.8c0 0 0 0 0 0zm5.1-5.7l1.4 0l0 1.1l-1.4 0c0 0 0 3.4 0 3.4c0 .6.2.9.9.9c.2 0 .4 0 .5-.1c0 0 0 1.1 0 1.1c-.1.1-.4.1-.9.1c-1.1 0-1.8-.6-1.8-1.8c.03-.01 0-3.6 0-3.6l-1.2 0l0-1.1c0 0 .34-.02.3 0c.7 0 1-.5 1-1c.04-.02 0-1.1 0-1.1l1.2 0l0 2.1zm7.4 2.6c0-1-.6-1.7-1.8-1.7c-1.1 0-1.7.8-1.8 1.7c0 0 3.6 0 3.6 0zm1.3 2c-.4 1.2-1.4 2.1-2.9 2.1c-1.8 0-3.3-1.3-3.3-3.5c0-2 1.5-3.4 3.1-3.4c2 0 3.1 1.4 3.1 3.4c0 .1 0 .3 0 .4c0 0-4.9 0-4.9 0c0 1.1.9 2 2 2c1 0 1.5-.6 1.8-1.4c0 0 1.1.4 1.1.4zm1.6 1.9l0-6.5l1.3 0c0 0-.05.84 0 .8c.4-.7 1.2-1 1.9-1c.8 0 1.6.4 2 1.2c.5-.9 1.3-1.2 2.1-1.2c1.2 0 2.3.8 2.3 2.5c-.02-.04 0 4.2 0 4.2l-1.3 0c0 0 .03-4.1 0-4.1c0-.9-.4-1.5-1.3-1.5c-.9 0-1.5.7-1.5 1.6c-.05.04 0 4 0 4l-1.3 0c0 0-.02-4.1 0-4.1c0-.8-.4-1.5-1.4-1.5c-.9 0-1.5.7-1.5 1.7c-.01-.04 0 3.9 0 3.9l-1.3 0zm16-3.9c0-1-.7-1.7-1.8-1.7c-1.1 0-1.7.8-1.8 1.7c0 0 3.6 0 3.6 0zm1.3 2c-.4 1.2-1.4 2.1-3 2.1c-1.7 0-3.2-1.3-3.2-3.5c0-2 1.5-3.4 3.1-3.4c2 0 3.1 1.4 3.1 3.4c0 .1 0 .3 0 .4c0 0-4.9 0-4.9 0c0 1.1.9 2 1.9 2c1.1 0 1.6-.6 1.9-1.4c0 0 1.1.4 1.1.4zm2.9 1.9l-1.3 0l0-6.5l1.3 0c0 0-.03.91 0 .9c.4-.8 1.2-1.1 2-1.1c1.5 0 2.3 1.1 2.3 2.6c-.01-.04 0 4.1 0 4.1l-1.3 0c0 0 .02-3.93 0-3.9c0-.9-.4-1.7-1.5-1.7c-1 0-1.5.8-1.5 1.8c-.01.02 0 3.8 0 3.8zm8-6.5l1.4 0l0 1.1l-1.4 0c0 0 .01 3.4 0 3.4c0 .6.3.9.9.9c.2 0 .4 0 .5-.1c0 0 0 1.1 0 1.1c-.1.1-.4.1-.8.1c-1.2 0-1.9-.6-1.9-1.8c.04-.01 0-3.6 0-3.6l-1.2 0l0-1.1c0 0 .35-.02.4 0c.7 0 1-.5 1-1c-.05-.02 0-1.1 0-1.1l1.1 0l0 2.1zm4 4.7c.5 0 1 .4 1 1.3c0 1.8-1.1 2.5-1.9 2.6c0 0 0-.7 0-.7c.6-.1 1.1-.8 1.1-1.4c-.1 0-.2 0-.3 0c-.5 0-.9-.3-.9-.9c0-.5.4-.9 1-.9zm7.7 1.8l-1.3 0l0-6.5l1.3 0c0 0-.01.91 0 .9c.5-.8 1.2-1.1 2-1.1c1.5 0 2.3 1.1 2.3 2.6c.01-.04 0 4.1 0 4.1l-1.3 0c0 0 .04-3.93 0-3.9c0-.9-.3-1.7-1.5-1.7c-1 0-1.5.8-1.5 1.8c.02.02 0 3.8 0 3.8zm11.1-3.3c0-1.5-.9-2.3-2-2.3c-1.1 0-2 .8-2 2.3c0 1.5.9 2.3 2 2.3c1.1 0 2-.8 2-2.3zm1.3 0c0 2-1.3 3.5-3.3 3.5c-1.9 0-3.3-1.5-3.3-3.5c0-2 1.4-3.4 3.3-3.4c2 0 3.3 1.4 3.3 3.4zm5.9 2.5c-.4.7-1.2 1-1.9 1c-1.6 0-2.5-1.2-2.5-2.6c.02-.03 0-4.1 0-4.1l1.3 0c0 0-.01 3.88 0 3.9c0 .9.4 1.7 1.5 1.7c1 0 1.5-.7 1.5-1.7c0 0 0-3.9 0-3.9l1.3 0c0 0-.03 5.27 0 5.3c0 .5 0 .9 0 1.2c0 0-1.2 0-1.2 0c0-.2 0-.5 0-.8c0 0 0 0 0 0zm3.9-1.3c.1.7.6 1.2 1.5 1.2c.7 0 1.1-.4 1.1-.9c0-.4-.3-.7-.8-.8c0 0-1.2-.2-1.2-.2c-1-.3-1.6-1-1.6-1.9c0-1.1 1.1-2 2.3-2c1.8 0 2.4 1.1 2.5 1.7c0 0-1.1.4-1.1.4c-.1-.3-.3-1-1.4-1c-.6 0-1 .4-1 .8c0 .4.2.7.7.8c0 0 1 .2 1 .2c1.2.3 1.8 1 1.8 2c0 .9-.7 2-2.3 2c-1.8 0-2.6-1.2-2.7-1.9c0 0 1.2-.4 1.2-.4zm12.5-3.1c-.2-.1-.4-.1-.5-.1c-1.1 0-1.8.6-1.8 2c-.02.02 0 3.3 0 3.3l-1.3 0l0-6.5l1.2 0c0 0 .05 1.11 0 1.1c.5-1 1.3-1.2 2-1.2c.2 0 .3 0 .4 0c0 0 0 1.4 0 1.4zm5.7 1.3c-.1-1-.7-1.7-1.8-1.7c-1.1 0-1.7.8-1.8 1.7c0 0 3.6 0 3.6 0zm1.3 2c-.4 1.2-1.5 2.1-3 2.1c-1.7 0-3.2-1.3-3.2-3.5c0-2 1.4-3.4 3.1-3.4c2 0 3.1 1.4 3.1 3.4c0 .1 0 .3 0 .4c0 0-4.9 0-4.9 0c0 1.1.8 2 1.9 2c1.1 0 1.6-.6 1.9-1.4c0 0 1.1.4 1.1.4zm-2.6-5.5l-1.1 0l1.2-1.9l1.6 0l-1.7 1.9zm4.2 9.9l0-9l1.2 0c0 0 .04.99 0 1c.4-.7 1.2-1.2 2.2-1.2c2 0 3 1.5 3 3.4c0 2-1.1 3.4-3 3.4c-1 0-1.8-.4-2.1-1c-.03 0 0 3.4 0 3.4l-1.3 0zm5.1-5.8c0-1.3-.7-2.2-1.9-2.2c-1.2 0-1.9.9-1.9 2.2c0 1.4.7 2.3 1.9 2.3c1.2 0 1.9-.9 1.9-2.3c0 0 0 0 0 0zm7.7 0c0-1.5-.9-2.3-2-2.3c-1.1 0-2 .8-2 2.3c0 1.5.9 2.3 2 2.3c1.1 0 2-.8 2-2.3zm1.3 0c0 2-1.4 3.5-3.3 3.5c-1.9 0-3.3-1.5-3.3-3.5c0-2 1.4-3.4 3.3-3.4c1.9 0 3.3 1.4 3.3 3.4zm2.9 3.3l-1.3 0l0-6.5l1.3 0c0 0-.02.91 0 .9c.5-.8 1.2-1.1 2-1.1c1.5 0 2.3 1.1 2.3 2.6c0-.04 0 4.1 0 4.1l-1.3 0c0 0 .03-3.93 0-3.9c0-.9-.3-1.7-1.5-1.7c-1 0-1.5.8-1.5 1.8c.01.02 0 3.8 0 3.8zm9-1c1.1 0 1.9-1 1.9-2.3c0-1.4-.7-2.3-1.9-2.3c-1.2 0-1.9 1-1.9 2.3c0 1.3.7 2.3 1.9 2.3zm1.9 0c-.3.6-1 1.1-2 1.1c-1.9 0-3.1-1.5-3.1-3.4c0-1.8 1.2-3.4 3.1-3.4c1.1 0 1.7.6 1.9 1.1c.05 0 0-4.2 0-4.2l1.3 0c0 0 0 8.57 0 8.6c0 .6.1 1.1.1 1.2c0 0-1.3 0-1.3 0c0-.2 0-.5 0-.9c0 0 0-.1 0-.1zm8.2-2.3c0-1.5-1-2.3-2.1-2.3c-1 0-2 .8-2 2.3c0 1.5 1 2.3 2 2.3c1.1 0 2.1-.8 2.1-2.3zm1.3 0c0 2-1.4 3.5-3.4 3.5c-1.9 0-3.3-1.5-3.3-3.5c0-2 1.4-3.4 3.3-3.4c2 0 3.4 1.4 3.4 3.4zm2.9 3.3l-1.3 0l0-6.5l1.2 0c0 0 .03.91 0 .9c.5-.8 1.3-1.1 2-1.1c1.6 0 2.3 1.1 2.3 2.6c.05-.04 0 4.1 0 4.1l-1.2 0c0 0-.02-3.93 0-3.9c0-.9-.4-1.7-1.5-1.7c-1 0-1.5.8-1.5 1.8c-.05.02 0 3.8 0 3.8zm6.8-2.1c.1.7.6 1.2 1.5 1.2c.7 0 1.1-.4 1.1-.9c0-.4-.3-.7-.8-.8c0 0-1.1-.2-1.1-.2c-1-.3-1.6-1-1.6-1.9c0-1.1 1-2 2.3-2c1.8 0 2.3 1.1 2.4 1.7c0 0-1.1.4-1.1.4c0-.3-.3-1-1.3-1c-.7 0-1.1.4-1.1.8c0 .4.2.7.7.8c0 0 1.1.2 1.1.2c1.2.3 1.8 1 1.8 2c0 .9-.8 2-2.4 2c-1.8 0-2.5-1.2-2.6-1.9c0 0 1.1-.4 1.1-.4zm8.5.3c0-1.1.9-1.8 2-1.9c0 0 1.8-.3 1.8-.3c.4 0 .5-.2.5-.5c0-.6-.4-1.1-1.4-1.1c-.9 0-1.4.5-1.5 1.3c0 0-1.2-.3-1.2-.3c.1-1.3 1.2-2.1 2.6-2.1c2 0 2.7 1.1 2.7 2.4c0 0 0 3.2 0 3.2c0 .6.1.9.1 1.1c0 0-1.2 0-1.2 0c0-.2-.1-.4-.1-.9c-.3.5-.9 1.1-2.1 1.1c-1.3 0-2.2-.9-2.2-2c0 0 0 0 0 0zm4.3-1c-.03-.01 0-.3 0-.3c0 0-2.02.29-2 .3c-.6.1-1 .4-1 1c0 .5.4.9 1.1.9c1 0 1.9-.5 1.9-1.9zm7.4 2c-.4.7-1.2 1-2 1c-1.5 0-2.4-1.2-2.4-2.6c.01-.03 0-4.1 0-4.1l1.3 0c0 0-.02 3.88 0 3.9c0 .9.4 1.7 1.4 1.7c1.1 0 1.6-.7 1.6-1.7c-.01 0 0-3.9 0-3.9l1.3 0c0 0-.05 5.27 0 5.3c0 .5 0 .9 0 1.2c0 0-1.2 0-1.2 0c0-.2 0-.5 0-.8c0 0 0 0 0 0zm4.8-2.5l-2.3-3.2l1.5 0l1.6 2.3l1.5-2.3l1.5 0c0 0-2.26 3.17-2.3 3.2c.4.5 2 2.7 2.4 3.3c.03-.03-1.5 0-1.5 0l-1.7-2.4l-1.6 2.4l-1.5 0l2.4-3.3zm12.9-.6c0-1-.6-1.7-1.8-1.7c-1.1 0-1.7.8-1.8 1.7c0 0 3.6 0 3.6 0zm1.3 2c-.4 1.2-1.4 2.1-2.9 2.1c-1.8 0-3.3-1.3-3.3-3.5c0-2 1.5-3.4 3.1-3.4c2 0 3.1 1.4 3.1 3.4c0 .1 0 .3 0 .4c0 0-4.9 0-4.9 0c0 1.1.9 2 2 2c1 0 1.5-.6 1.8-1.4c0 0 1.1.4 1.1.4zm2.9 1.9l-1.3 0l0-6.5l1.3 0c0 0-.02.91 0 .9c.4-.8 1.2-1.1 2-1.1c1.5 0 2.3 1.1 2.3 2.6c0-.04 0 4.1 0 4.1l-1.3 0c0 0 .03-3.93 0-3.9c0-.9-.3-1.7-1.5-1.7c-1 0-1.5.8-1.5 1.8c0 .02 0 3.8 0 3.8zm6.3-6.5l1.3 0c0 0-.01 7.23 0 7.2c0 1.2-.7 2-1.8 2c-.5 0-.7 0-.8-.1c0 0 0-1 0-1c.1 0 .3 0 .4 0c.7 0 .9-.3.9-.9c.02-.02 0-7.2 0-7.2zm.6-3.4c.6 0 1 .4 1 .9c0 .5-.4.9-1 .9c-.5 0-.9-.4-.9-.9c0-.5.4-.9.9-.9zm7.2 6c0-1-.6-1.7-1.8-1.7c-1 0-1.7.8-1.7 1.7c0 0 3.5 0 3.5 0zm1.3 2c-.4 1.2-1.4 2.1-2.9 2.1c-1.7 0-3.3-1.3-3.3-3.5c0-2 1.5-3.4 3.1-3.4c2 0 3.1 1.4 3.1 3.4c0 .1 0 .3 0 .4c0 0-4.9 0-4.9 0c.1 1.1.9 2 2 2c1 0 1.6-.6 1.8-1.4c0 0 1.1.4 1.1.4zm5.7 1.1c-.3.7-1.1 1-1.9 1c-1.5 0-2.4-1.2-2.4-2.6c0-.03 0-4.1 0-4.1l1.3 0c0 0-.03 3.88 0 3.9c0 .9.4 1.7 1.4 1.7c1.1 0 1.6-.7 1.6-1.7c-.02 0 0-3.9 0-3.9l1.2 0c0 0 .05 5.27 0 5.3c0 .5.1.9.1 1.2c0 0-1.2 0-1.2 0c0-.2-.1-.5-.1-.8c0 0 0 0 0 0zm4.9-2.5l-2.4-3.2l1.6 0l1.6 2.3l1.5-2.3l1.5 0c0 0-2.27 3.17-2.3 3.2c.4.5 2 2.7 2.4 3.3c.02-.03-1.5 0-1.5 0l-1.7-2.4l-1.6 2.4l-1.5 0l2.4-3.3zm11.2 2.3c1.1 0 1.8-1 1.8-2.3c0-1.4-.7-2.3-1.8-2.3c-1.2 0-1.9 1-1.9 2.3c0 1.3.7 2.3 1.9 2.3zm1.9 0c-.3.6-1 1.1-2.1 1.1c-1.9 0-3-1.5-3-3.4c0-1.8 1.2-3.4 3-3.4c1.2 0 1.8.6 2 1.1c.03 0 0-4.2 0-4.2l1.3 0c0 0-.01 8.57 0 8.6c0 .6 0 1.1.1 1.2c0 0-1.3 0-1.3 0c0-.2 0-.5 0-.9c0 0 0-.1 0-.1zm7.7-2.9c0-1-.6-1.7-1.8-1.7c-1 0-1.7.8-1.7 1.7c0 0 3.5 0 3.5 0zm1.3 2c-.4 1.2-1.4 2.1-2.9 2.1c-1.8 0-3.3-1.3-3.3-3.5c0-2 1.5-3.4 3.1-3.4c2 0 3.1 1.4 3.1 3.4c0 .1 0 .3 0 .4c0 0-4.9 0-4.9 0c.1 1.1.9 2 2 2c1 0 1.6-.6 1.8-1.4c0 0 1.1.4 1.1.4zm2.2-.2c.1.7.6 1.2 1.5 1.2c.7 0 1.1-.4 1.1-.9c0-.4-.3-.7-.8-.8c0 0-1.1-.2-1.1-.2c-1-.3-1.6-1-1.6-1.9c0-1.1 1-2 2.3-2c1.8 0 2.3 1.1 2.4 1.7c0 0-1.1.4-1.1.4c0-.3-.3-1-1.3-1c-.7 0-1.1.4-1.1.8c0 .4.2.7.7.8c0 0 1.1.2 1.1.2c1.2.3 1.8 1 1.8 2c0 .9-.8 2-2.4 2c-1.8 0-2.5-1.2-2.6-1.9c0 0 1.1-.4 1.1-.4zm13.3-1.8c0-1-.6-1.7-1.8-1.7c-1 0-1.7.8-1.7 1.7c0 0 3.5 0 3.5 0zm1.3 2c-.4 1.2-1.4 2.1-2.9 2.1c-1.8 0-3.3-1.3-3.3-3.5c0-2 1.5-3.4 3.1-3.4c2 0 3.1 1.4 3.1 3.4c0 .1 0 .3 0 .4c0 0-4.9 0-4.9 0c.1 1.1.9 2 2 2c1 0 1.6-.6 1.8-1.4c0 0 1.1.4 1.1.4zm2.9 1.9l-1.2 0l0-6.5l1.2 0c0 0 0 .91 0 .9c.5-.8 1.2-1.1 2-1.1c1.6 0 2.3 1.1 2.3 2.6c.02-.04 0 4.1 0 4.1l-1.2 0c0 0-.05-3.93 0-3.9c0-.9-.4-1.7-1.6-1.7c-1 0-1.5.8-1.5 1.8c.03.02 0 3.8 0 3.8zm8-6.5l1.5 0l0 1.1l-1.5 0c0 0 .05 3.4 0 3.4c0 .6.3.9 1 .9c.1 0 .3 0 .5-.1c0 0 0 1.1 0 1.1c-.2.1-.5.1-.9.1c-1.1 0-1.8-.6-1.8-1.8c-.02-.01 0-3.6 0-3.6l-1.3 0l0-1.1c0 0 .39-.02.4 0c.7 0 1-.5 1-1c-.01-.02 0-1.1 0-1.1l1.1 0l0 2.1zm6.6 1.3c-.2-.1-.4-.1-.5-.1c-1.1 0-1.8.6-1.8 2c-.03.02 0 3.3 0 3.3l-1.3 0l0-6.5l1.2 0c0 0 .04 1.11 0 1.1c.5-1 1.3-1.2 2-1.2c.2 0 .3 0 .4 0c0 0 0 1.4 0 1.4zm5.7 1.3c-.1-1-.7-1.7-1.8-1.7c-1.1 0-1.7.8-1.8 1.7c0 0 3.6 0 3.6 0zm1.2 2c-.3 1.2-1.4 2.1-2.9 2.1c-1.7 0-3.2-1.3-3.2-3.5c0-2 1.4-3.4 3.1-3.4c2 0 3.1 1.4 3.1 3.4c0 .1 0 .3 0 .4c0 0-4.9 0-4.9 0c0 1.1.8 2 1.9 2c1.1 0 1.6-.6 1.9-1.4c0 0 1 .4 1 .4zm1.7 4.4l0-9l1.2 0c0 0 .04.99 0 1c.4-.7 1.2-1.2 2.2-1.2c2 0 3 1.5 3 3.4c0 2-1.1 3.4-3 3.4c-1 0-1.8-.4-2.1-1c-.04 0 0 3.4 0 3.4l-1.3 0zm5.1-5.8c0-1.3-.7-2.2-1.9-2.2c-1.2 0-2 .9-2 2.2c0 1.4.8 2.3 2 2.3c1.2 0 1.9-.9 1.9-2.3c0 0 0 0 0 0zm6.5-1.9c-.2-.1-.4-.1-.5-.1c-1.1 0-1.8.6-1.8 2c-.02.02 0 3.3 0 3.3l-1.3 0l0-6.5l1.3 0c0 0-.05 1.11 0 1.1c.4-1 1.2-1.2 1.9-1.2c.2 0 .3 0 .4 0c0 0 0 1.4 0 1.4zm1.4 5.2l0-6.5l1.2 0l0 6.5l-1.2 0zm.6-9.9c.5 0 .9.4.9.9c0 .5-.4.9-.9.9c-.5 0-.9-.4-.9-.9c0-.5.4-.9.9-.9zm3.3 7.8c.1.7.6 1.2 1.5 1.2c.8 0 1.1-.4 1.1-.9c0-.4-.3-.7-.8-.8c0 0-1.1-.2-1.1-.2c-1-.3-1.6-1-1.6-1.9c0-1.1 1-2 2.3-2c1.8 0 2.3 1.1 2.5 1.7c0 0-1.2.4-1.2.4c0-.3-.3-1-1.3-1c-.7 0-1.1.4-1.1.8c0 .4.2.7.7.8c0 0 1.1.2 1.1.2c1.2.3 1.8 1 1.8 2c0 .9-.8 2-2.4 2c-1.8 0-2.5-1.2-2.6-1.9c0 0 1.1-.4 1.1-.4zm9.9-1.8c0-1-.6-1.7-1.8-1.7c-1.1 0-1.7.8-1.8 1.7c0 0 3.6 0 3.6 0zm1.3 2c-.4 1.2-1.4 2.1-2.9 2.1c-1.8 0-3.3-1.3-3.3-3.5c0-2 1.5-3.4 3.1-3.4c2 0 3.1 1.4 3.1 3.4c0 .1 0 .3 0 .4c0 0-4.9 0-4.9 0c0 1.1.9 2 2 2c1 0 1.5-.6 1.8-1.4c0 0 1.1.4 1.1.4zm2.2-.2c.1.7.6 1.2 1.5 1.2c.7 0 1.1-.4 1.1-.9c0-.4-.3-.7-.8-.8c0 0-1.2-.2-1.2-.2c-1-.3-1.6-1-1.6-1.9c0-1.1 1.1-2 2.3-2c1.8 0 2.4 1.1 2.5 1.7c0 0-1.1.4-1.1.4c-.1-.3-.3-1-1.4-1c-.6 0-1 .4-1 .8c0 .4.2.7.7.8c0 0 1.1.2 1.1.2c1.1.3 1.7 1 1.7 2c0 .9-.7 2-2.3 2c-1.8 0-2.6-1.2-2.7-1.9c0 0 1.2-.4 1.2-.4z" stroke="none" fill="#144542"/></g><g id="Polygon174435"><path d="m4.5 38.7c1.8 0 3.2-1.2 3.2-3.6c0-2.4-1.4-3.6-3.2-3.6c.02-.02-2 0-2 0l0 7.2c0 0 2 0 2 0zm-3.3 1.2l0-9.6c0 0 3.36 0 3.4 0c2.4 0 4.5 1.7 4.5 4.8c0 3.1-2.1 4.8-4.6 4.8c.04-.03-3.3 0-3.3 0zm14-3.9c-.1-1-.7-1.7-1.8-1.7c-1.1 0-1.7.8-1.8 1.7c0 0 3.6 0 3.6 0zm1.3 2c-.4 1.2-1.4 2.1-3 2.1c-1.7 0-3.2-1.3-3.2-3.5c0-2 1.4-3.4 3.1-3.4c2 0 3.1 1.4 3.1 3.4c0 .1 0 .3 0 .4c0 0-4.9 0-4.9 0c0 1.1.8 2 1.9 2c1.1 0 1.6-.6 1.9-1.4c0 0 1.1.4 1.1.4zm5 1.9l0-9.8l1.3 0l0 9.8l-1.3 0zm3-1.8c0-1.1.9-1.8 2-1.9c0 0 1.7-.3 1.7-.3c.4 0 .5-.2.5-.5c0-.6-.4-1.1-1.4-1.1c-.9 0-1.4.5-1.4 1.3c0 0-1.2-.3-1.2-.3c.1-1.3 1.2-2.1 2.6-2.1c2 0 2.7 1.1 2.7 2.4c0 0 0 3.2 0 3.2c0 .6.1.9.1 1.1c0 0-1.3 0-1.3 0c0-.2 0-.4 0-.9c-.3.5-.9 1.1-2.1 1.1c-1.3 0-2.2-.9-2.2-2c0 0 0 0 0 0zm4.2-1c.04-.01 0-.3 0-.3c0 0-1.94.29-1.9.3c-.6.1-1 .4-1 1c0 .5.4.9 1.1.9c1 0 1.8-.5 1.8-1.9zm9.3 1.8c1.2 0 1.9-1 1.9-2.3c0-1.4-.7-2.3-1.9-2.3c-1.1 0-1.9 1-1.9 2.3c0 1.3.7 2.3 1.9 2.3zm1.9 0c-.3.6-1 1.1-2 1.1c-1.9 0-3.1-1.5-3.1-3.4c0-1.8 1.3-3.4 3.1-3.4c1.1 0 1.8.6 2 1.1c-.02 0 0-4.2 0-4.2l1.2 0c0 0 .03 8.57 0 8.6c0 .6.1 1.1.1 1.2c0 0-1.2 0-1.2 0c-.1-.2-.1-.5-.1-.9c0 0 0-.1 0-.1zm7.8-2.9c-.1-1-.7-1.7-1.8-1.7c-1.1 0-1.7.8-1.8 1.7c0 0 3.6 0 3.6 0zm1.2 2c-.3 1.2-1.4 2.1-2.9 2.1c-1.7 0-3.2-1.3-3.2-3.5c0-2 1.4-3.4 3.1-3.4c2 0 3.1 1.4 3.1 3.4c0 .1 0 .3 0 .4c0 0-4.9 0-4.9 0c0 1.1.8 2 1.9 2c1.1 0 1.6-.6 1.9-1.4c0 0 1 .4 1 .4zm-2.5-5.5l-1.1 0l1.2-1.9l1.6 0l-1.7 1.9zm7.5-2.3c0 0 0 1.1 0 1.1c-.1 0-.2-.1-.6-.1c-.4 0-1 .2-1 1.1c.01.04 0 1.1 0 1.1l4.3 0l0 6.5l-1.2 0l0-5.4l-3.1 0l0 5.4l-1.3 0l0-5.4l-1.2 0l0-1.1l1.2 0c0 0 0-1.11 0-1.1c0-1.5 1-2.2 2.1-2.2c.5 0 .7.1.8.1zm1.2.7c0-.5.4-.9.9-.9c.5 0 .9.4.9.9c0 .5-.4.9-.9.9c-.5 0-.9-.4-.9-.9c0 0 0 0 0 0zm4.9 9l-1.2 0l0-6.5l1.2 0c0 0 .01.91 0 .9c.5-.8 1.2-1.1 2-1.1c1.6 0 2.3 1.1 2.3 2.6c.03-.04 0 4.1 0 4.1l-1.2 0c0 0-.04-3.93 0-3.9c0-.9-.4-1.7-1.6-1.7c-1 0-1.5.8-1.5 1.8c.03.02 0 3.8 0 3.8zm6.4 0l0-6.5l1.2 0l0 6.5l-1.2 0zm.6-9.9c.5 0 .9.4.9.9c0 .5-.4.9-.9.9c-.5 0-.9-.4-.9-.9c0-.5.4-.9.9-.9zm4.5 3.4l1.4 0l0 1.1l-1.4 0c0 0-.03 3.4 0 3.4c0 .6.2.9.9.9c.1 0 .4 0 .5-.1c0 0 0 1.1 0 1.1c-.1.1-.5.1-.9.1c-1.1 0-1.8-.6-1.8-1.8c0-.01 0-3.6 0-3.6l-1.2 0l0-1.1c0 0 .31-.02.3 0c.7 0 1-.5 1-1c.01-.02 0-1.1 0-1.1l1.2 0l0 2.1zm3.1 6.5l0-6.5l1.2 0l0 6.5l-1.2 0zm.6-9.9c.5 0 .9.4.9.9c0 .5-.4.9-.9.9c-.5 0-.9-.4-.9-.9c0-.5.4-.9.9-.9zm7.6 6.6c0-1.5-1-2.3-2-2.3c-1.1 0-2.1.8-2.1 2.3c0 1.5 1 2.3 2.1 2.3c1 0 2-.8 2-2.3zm1.3 0c0 2-1.4 3.5-3.3 3.5c-2 0-3.4-1.5-3.4-3.5c0-2 1.4-3.4 3.4-3.4c1.9 0 3.3 1.4 3.3 3.4zm2.9 3.3l-1.3 0l0-6.5l1.2 0c0 0 .04.91 0 .9c.5-.8 1.3-1.1 2-1.1c1.6 0 2.4 1.1 2.4 2.6c-.04-.04 0 4.1 0 4.1l-1.3 0c0 0-.01-3.93 0-3.9c0-.9-.4-1.7-1.5-1.7c-1 0-1.5.8-1.5 1.8c-.04.02 0 3.8 0 3.8zm9.7 2.5l0-9l1.2 0c0 0-.01.99 0 1c.3-.7 1.1-1.2 2.2-1.2c1.9 0 2.9 1.5 2.9 3.4c0 2-1.1 3.4-3 3.4c-1 0-1.7-.4-2.1-1c.01 0 0 3.4 0 3.4l-1.2 0zm5-5.8c0-1.3-.7-2.2-1.9-2.2c-1.1 0-1.9.9-1.9 2.2c0 1.4.8 2.3 1.9 2.3c1.2 0 1.9-.9 1.9-2.3c0 0 0 0 0 0zm6.6-1.9c-.2-.1-.4-.1-.6-.1c-1.1 0-1.8.6-1.8 2c.03.02 0 3.3 0 3.3l-1.2 0l0-6.5l1.2 0c0 0 .01 1.11 0 1.1c.5-1 1.3-1.2 1.9-1.2c.2 0 .4 0 .5 0c0 0 0 1.4 0 1.4zm5.6 1.3c0-1-.6-1.7-1.8-1.7c-1 0-1.7.8-1.7 1.7c0 0 3.5 0 3.5 0zm1.3 2c-.4 1.2-1.4 2.1-2.9 2.1c-1.8 0-3.3-1.3-3.3-3.5c0-2 1.5-3.4 3.1-3.4c2 0 3.1 1.4 3.1 3.4c0 .1 0 .3 0 .4c0 0-4.9 0-4.9 0c.1 1.1.9 2 2 2c1 0 1.6-.6 1.8-1.4c0 0 1.1.4 1.1.4zm-2.6-5.5l-1 0l1.2-1.9l1.5 0l-1.7 1.9zm5 4.1c0 1.5 1 2.3 2 2.3c1.2 0 1.7-.8 1.8-1.3c0 0 1.1.5 1.1.5c-.3.9-1.2 2-2.9 2c-1.9 0-3.3-1.5-3.3-3.5c0-2 1.4-3.4 3.3-3.4c1.7 0 2.6 1.1 2.9 2c0 0-1.2.5-1.2.5c-.1-.6-.6-1.3-1.7-1.3c-1 0-2 .7-2 2.2zm6.4 3.3l0-6.5l1.3 0l0 6.5l-1.3 0zm.6-9.9c.6 0 1 .4 1 .9c0 .5-.4.9-1 .9c-.5 0-.9-.4-.9-.9c0-.5.4-.9.9-.9zm3.4 7.8c.1.7.6 1.2 1.5 1.2c.7 0 1.1-.4 1.1-.9c0-.4-.3-.7-.8-.8c0 0-1.1-.2-1.1-.2c-1.1-.3-1.7-1-1.7-1.9c0-1.1 1.1-2 2.3-2c1.8 0 2.4 1.1 2.5 1.7c0 0-1.1.4-1.1.4c-.1-.3-.3-1-1.4-1c-.6 0-1 .4-1 .8c0 .4.2.7.7.8c0 0 1.1.2 1.1.2c1.1.3 1.8 1 1.8 2c0 .9-.8 2-2.4 2c-1.8 0-2.6-1.2-2.7-1.9c0 0 1.2-.4 1.2-.4zm9.8-1.8c0-1-.6-1.7-1.7-1.7c-1.1 0-1.8.8-1.8 1.7c0 0 3.5 0 3.5 0zm1.3 2c-.3 1.2-1.4 2.1-2.9 2.1c-1.7 0-3.3-1.3-3.3-3.5c0-2 1.5-3.4 3.2-3.4c1.9 0 3.1 1.4 3.1 3.4c0 .1 0 .3-.1.4c0 0-4.8 0-4.8 0c0 1.1.8 2 1.9 2c1.1 0 1.6-.6 1.8-1.4c0 0 1.1.4 1.1.4zm7.7.9c1.2 0 1.9-1 1.9-2.3c0-1.4-.7-2.3-1.9-2.3c-1.1 0-1.9 1-1.9 2.3c0 1.3.7 2.3 1.9 2.3zm1.9 0c-.3.6-1 1.1-2 1.1c-1.9 0-3.1-1.5-3.1-3.4c0-1.8 1.3-3.4 3.1-3.4c1.2 0 1.8.6 2 1.1c-.01 0 0-4.2 0-4.2l1.2 0c0 0 .04 8.57 0 8.6c0 .6.1 1.1.1 1.2c0 0-1.2 0-1.2 0c0-.2-.1-.5-.1-.9c0 0 0-.1 0-.1zm7.6.2c-.3.7-1.1 1-1.9 1c-1.5 0-2.4-1.2-2.4-2.6c-.03-.03 0-4.1 0-4.1l1.2 0c0 0 .04 3.88 0 3.9c0 .9.4 1.7 1.5 1.7c1 0 1.5-.7 1.5-1.7c.05 0 0-3.9 0-3.9l1.3 0c0 0 .02 5.27 0 5.3c0 .5.1.9.1 1.2c0 0-1.2 0-1.2 0c-.1-.2-.1-.5-.1-.8c0 0 0 0 0 0zm6.8 3.3l0-9l1.2 0c0 0-.02.99 0 1c.3-.7 1.1-1.2 2.2-1.2c1.9 0 2.9 1.5 2.9 3.4c0 2-1.1 3.4-3 3.4c-1 0-1.7-.4-2.1-1c.01 0 0 3.4 0 3.4l-1.2 0zm5-5.8c0-1.3-.7-2.2-1.9-2.2c-1.1 0-1.9.9-1.9 2.2c0 1.4.8 2.3 1.9 2.3c1.2 0 1.9-.9 1.9-2.3c0 0 0 0 0 0zm6.6-1.9c-.2-.1-.4-.1-.6-.1c-1.1 0-1.8.6-1.8 2c.02.02 0 3.3 0 3.3l-1.2 0l0-6.5l1.2 0c0 0 0 1.11 0 1.1c.5-1 1.3-1.2 1.9-1.2c.2 0 .4 0 .5 0c0 0 0 1.4 0 1.4zm6.1 1.9c0-1.5-1-2.3-2.1-2.3c-1.1 0-2 .8-2 2.3c0 1.5.9 2.3 2 2.3c1.1 0 2.1-.8 2.1-2.3zm1.2 0c0 2-1.3 3.5-3.3 3.5c-1.9 0-3.3-1.5-3.3-3.5c0-2 1.4-3.4 3.3-3.4c2 0 3.3 1.4 3.3 3.4zm4.9-6.4c0 0 0 1.1 0 1.1c0 0-.2-.1-.5-.1c-.5 0-1 .2-1 1.1c-.03.04 0 1.1 0 1.1l4.3 0l0 6.5l-1.3 0l0-5.4l-3 0l0 5.4l-1.3 0l0-5.4l-1.2 0l0-1.1l1.2 0c0 0-.04-1.11 0-1.1c0-1.5.9-2.2 2.1-2.2c.4 0 .7.1.7.1zm1.2.7c0-.5.4-.9.9-.9c.5 0 .9.4.9.9c0 .5-.4.9-.9.9c-.5 0-.9-.4-.9-.9c0 0 0 0 0 0zm3.7 9l0-9.8l1.3 0l0 9.8l-1.3 0zm4.3-1.8c.6 0 1.1.4 1.1 1.3c0 1.8-1.2 2.5-2 2.6c0 0 0-.7 0-.7c.7-.1 1.1-.8 1.1-1.4c0 0-.1 0-.3 0c-.5 0-.9-.3-.9-.9c0-.5.4-.9 1-.9zm6.1 0c0-1.1.8-1.8 2-1.9c0 0 1.7-.3 1.7-.3c.4 0 .5-.2.5-.5c0-.6-.4-1.1-1.4-1.1c-.9 0-1.4.5-1.5 1.3c0 0-1.2-.3-1.2-.3c.2-1.3 1.3-2.1 2.7-2.1c1.9 0 2.7 1.1 2.7 2.4c0 0 0 3.2 0 3.2c0 .6 0 .9.1 1.1c0 0-1.3 0-1.3 0c0-.2 0-.4 0-.9c-.3.5-1 1.1-2.1 1.1c-1.4 0-2.2-.9-2.2-2c0 0 0 0 0 0zm4.2-1c.01-.01 0-.3 0-.3c0 0-1.97.29-2 .3c-.5.1-.9.4-.9 1c0 .5.4.9 1 .9c1.1 0 1.9-.5 1.9-1.9zm-3.4-6.5l1.6 0l1.1 1.9l-1 0l-1.7-1.9zm10 9.3l0-9.8l1.3 0l0 9.8l-1.3 0zm3.8-9.7c.6 0 1.1.4 1.1 1.2c0 1.6-1.1 2.3-1.9 2.4c0 0 0-.6 0-.6c.6-.2 1-.8 1-1.4c0 0-.1.1-.2.1c-.5 0-.9-.3-.9-.9c0-.4.4-.8.9-.8zm2.7 9.7l0-6.5l1.2 0l0 6.5l-1.2 0zm.6-9.9c.5 0 .9.4.9.9c0 .5-.4.9-.9.9c-.5 0-.9-.4-.9-.9c0-.5.4-.9.9-.9zm4.1 9.9l-1.3 0l0-6.5l1.2 0c0 0 .04.91 0 .9c.5-.8 1.3-1.1 2-1.1c1.6 0 2.4 1.1 2.4 2.6c-.04-.04 0 4.1 0 4.1l-1.3 0c0 0-.01-3.93 0-3.9c0-.9-.4-1.7-1.5-1.7c-1 0-1.5.8-1.5 1.8c-.04.02 0 3.8 0 3.8zm8-6.5l1.4 0l0 1.1l-1.4 0c0 0-.02 3.4 0 3.4c0 .6.2.9.9.9c.1 0 .4 0 .5-.1c0 0 0 1.1 0 1.1c-.1.1-.4.1-.9.1c-1.1 0-1.8-.6-1.8-1.8c.02-.01 0-3.6 0-3.6l-1.2 0l0-1.1c0 0 .32-.02.3 0c.7 0 1-.5 1-1c.02-.02 0-1.1 0-1.1l1.2 0l0 2.1zm7.4 2.6c0-1-.7-1.7-1.8-1.7c-1.1 0-1.7.8-1.8 1.7c0 0 3.6 0 3.6 0zm1.3 2c-.4 1.2-1.4 2.1-3 2.1c-1.7 0-3.2-1.3-3.2-3.5c0-2 1.5-3.4 3.1-3.4c2 0 3.1 1.4 3.1 3.4c0 .1 0 .3 0 .4c0 0-4.9 0-4.9 0c0 1.1.9 2 1.9 2c1.1 0 1.6-.6 1.9-1.4c0 0 1.1.4 1.1.4zm-2.6-5.5l-1.1 0l1.2-1.9l1.6 0l-1.7 1.9zm5 7.4c.1.9.8 1.6 1.7 1.6c1.4 0 2-.7 2-2.1c0 0 0-.9 0-.9c-.3.6-1 1.1-2 1.1c-1.7 0-2.9-1.3-2.9-3.2c0-1.7 1.2-3.1 2.9-3.1c1 0 1.7.3 2 1c.05-.01 0-.9 0-.9l1.3 0c0 0 0 5.99 0 6c0 1.6-.8 3.2-3.3 3.2c-1.6 0-2.8-1-2.9-2.4c0 0 1.2-.3 1.2-.3zm3.8-3.5c0-1.2-.8-2.1-1.9-2.1c-1.1 0-1.8.9-1.8 2.1c0 1.3.7 2.1 1.8 2.1c1.1 0 1.9-.8 1.9-2.1zm6.8-1.7c-.2-.1-.3-.1-.5-.1c-1.1 0-1.8.6-1.8 2c0 .02 0 3.3 0 3.3l-1.3 0l0-6.5l1.3 0c0 0-.03 1.11 0 1.1c.4-1 1.3-1.2 1.9-1.2c.2 0 .4 0 .4 0c0 0 0 1.4 0 1.4zm1 3.4c0-1.1.8-1.8 1.9-1.9c0 0 1.8-.3 1.8-.3c.4 0 .5-.2.5-.5c0-.6-.4-1.1-1.4-1.1c-.9 0-1.4.5-1.5 1.3c0 0-1.2-.3-1.2-.3c.1-1.3 1.3-2.1 2.7-2.1c1.9 0 2.7 1.1 2.7 2.4c0 0 0 3.2 0 3.2c0 .6 0 .9.1 1.1c0 0-1.3 0-1.3 0c0-.2-.1-.4-.1-.9c-.2.5-.9 1.1-2 1.1c-1.4 0-2.2-.9-2.2-2c0 0 0 0 0 0zm4.2-1c0-.01 0-.3 0-.3c0 0-1.98.29-2 .3c-.5.1-.9.4-.9 1c0 .5.4.9 1 .9c1.1 0 1.9-.5 1.9-1.9zm4.9-3.7l1.4 0l0 1.1l-1.4 0c0 0 .04 3.4 0 3.4c0 .6.3.9.9.9c.2 0 .4 0 .5-.1c0 0 0 1.1 0 1.1c-.1.1-.4.1-.8.1c-1.1 0-1.8-.6-1.8-1.8c-.02-.01 0-3.6 0-3.6l-1.3 0l0-1.1c0 0 .38-.02.4 0c.7 0 1-.5 1-1c-.02-.02 0-1.1 0-1.1l1.1 0l0 2.1zm3.1 6.5l0-6.5l1.3 0l0 6.5l-1.3 0zm.7-9.9c.5 0 .9.4.9.9c0 .5-.4.9-.9.9c-.5 0-.9-.4-.9-.9c0-.5.4-.9.9-.9zm7.6 6.6c0-1.5-1-2.3-2.1-2.3c-1 0-2 .8-2 2.3c0 1.5 1 2.3 2 2.3c1.1 0 2.1-.8 2.1-2.3zm1.3 0c0 2-1.4 3.5-3.4 3.5c-1.9 0-3.3-1.5-3.3-3.5c0-2 1.4-3.4 3.3-3.4c2 0 3.4 1.4 3.4 3.4zm2.8 3.3l-1.2 0l0-6.5l1.2 0c0 0 .01.91 0 .9c.5-.8 1.3-1.1 2-1.1c1.6 0 2.3 1.1 2.3 2.6c.03-.04 0 4.1 0 4.1l-1.2 0c0 0-.03-3.93 0-3.9c0-.9-.4-1.7-1.5-1.7c-1 0-1.6.8-1.6 1.8c.04.02 0 3.8 0 3.8zm14.1-3.9c0-1-.6-1.7-1.8-1.7c-1 0-1.7.8-1.7 1.7c0 0 3.5 0 3.5 0zm1.3 2c-.4 1.2-1.4 2.1-2.9 2.1c-1.8 0-3.3-1.3-3.3-3.5c0-2 1.5-3.4 3.1-3.4c2 0 3.1 1.4 3.1 3.4c0 .1 0 .3 0 .4c0 0-4.9 0-4.9 0c0 1.1.9 2 2 2c1 0 1.6-.6 1.8-1.4c0 0 1.1.4 1.1.4zm3.4-4.6l1.4 0l0 1.1l-1.4 0c0 0-.05 3.4 0 3.4c0 .6.2.9.9.9c.1 0 .3 0 .5-.1c0 0 0 1.1 0 1.1c-.2.1-.5.1-.9.1c-1.1 0-1.8-.6-1.8-1.8c-.02-.01 0-3.6 0-3.6l-1.3 0l0-1.1c0 0 .39-.02.4 0c.7 0 1-.5 1-1c-.01-.02 0-1.1 0-1.1l1.2 0l0 2.1zm6 4.7c0-1.1.9-1.8 2-1.9c0 0 1.7-.3 1.7-.3c.4 0 .5-.2.5-.5c0-.6-.4-1.1-1.4-1.1c-.9 0-1.4.5-1.4 1.3c0 0-1.3-.3-1.3-.3c.2-1.3 1.3-2.1 2.7-2.1c2 0 2.7 1.1 2.7 2.4c0 0 0 3.2 0 3.2c0 .6.1.9.1 1.1c0 0-1.3 0-1.3 0c0-.2 0-.4 0-.9c-.3.5-1 1.1-2.1 1.1c-1.3 0-2.2-.9-2.2-2c0 0 0 0 0 0zm4.2-1c.04-.01 0-.3 0-.3c0 0-1.95.29-1.9.3c-.6.1-1 .4-1 1c0 .5.4.9 1.1.9c1 0 1.8-.5 1.8-1.9zm7.4 2c-.3.7-1.1 1-1.9 1c-1.5 0-2.4-1.2-2.4-2.6c-.02-.03 0-4.1 0-4.1l1.2 0c0 0 .04 3.88 0 3.9c0 .9.4 1.7 1.5 1.7c1 0 1.6-.7 1.6-1.7c-.04 0 0-3.9 0-3.9l1.2 0c0 0 .02 5.27 0 5.3c0 .5.1.9.1 1.2c0 0-1.2 0-1.2 0c0-.2-.1-.5-.1-.8c0 0 0 0 0 0zm7.3-1.3c.1.7.6 1.2 1.5 1.2c.7 0 1.1-.4 1.1-.9c0-.4-.3-.7-.8-.8c0 0-1.1-.2-1.1-.2c-1-.3-1.6-1-1.6-1.9c0-1.1 1-2 2.3-2c1.7 0 2.3 1.1 2.4 1.7c0 0-1.1.4-1.1.4c0-.3-.3-1-1.3-1c-.7 0-1.1.4-1.1.8c0 .4.2.7.7.8c0 0 1.1.2 1.1.2c1.2.3 1.8 1 1.8 2c0 .9-.8 2-2.4 2c-1.8 0-2.5-1.2-2.6-1.9c0 0 1.1-.4 1.1-.4zm9.8 1.3c-.4.7-1.2 1-1.9 1c-1.6 0-2.5-1.2-2.5-2.6c.03-.03 0-4.1 0-4.1l1.3 0c0 0 0 3.88 0 3.9c0 .9.4 1.7 1.5 1.7c1 0 1.5-.7 1.5-1.7c.01 0 0-3.9 0-3.9l1.3 0c0 0-.03 5.27 0 5.3c0 .5 0 .9 0 1.2c0 0-1.2 0-1.2 0c0-.2 0-.5 0-.8c0 0 0 0 0 0zm3.3.8l0-6.5l1.3 0l0 6.5l-1.3 0zm.7-9.9c.5 0 .9.4.9.9c0 .5-.4.9-.9.9c-.5 0-.9-.4-.9-.9c0-.5.4-.9.9-.9zm5.7 9.9l-1.3 0l-2.6-6.5l1.4 0l1.9 5l1.8-5l1.4 0l-2.6 6.5zm3.8 0l0-6.5l1.3 0l0 6.5l-1.3 0zm.6-9.9c.6 0 1 .4 1 .9c0 .5-.4.9-1 .9c-.5 0-.9-.4-.9-.9c0-.5.4-.9.9-.9z" stroke="none" fill="#144542"/></g><g id="Polygon174434"><path d="m5.6 11.9c2.1 0 3.9-1.4 3.9-4.1c0-2.9-1.8-4.2-3.9-4.2c.04-.03-2.1 0-2.1 0l0 8.3c0 0 2.13-.02 2.1 0zm-4.2 1.9l0-12.1c0 0 4.31 0 4.3 0c3.3 0 5.9 2.2 5.9 6.1c0 3.8-2.6 6-5.9 6c0-.05-4.3 0-4.3 0zm17.6-5.1c0-1-.7-1.8-2-1.8c-1.3 0-2 .9-2 1.8c0 0 4 0 4 0zm1.9 2.7c-.4 1.4-1.7 2.6-3.7 2.6c-2.3 0-4.3-1.6-4.3-4.4c0-2.6 2-4.4 4.1-4.4c2.5 0 4 1.7 4 4.3c0 .3 0 .6 0 .6c0 0-6.1 0-6.1 0c.1 1.3 1 2.2 2.3 2.2c1.2 0 1.8-.6 2-1.4c0 0 1.7.5 1.7.5zm3-.4c.1.8.6 1.4 1.7 1.4c.8 0 1.2-.4 1.2-.9c0-.5-.3-.8-1-.9c0 0-1.2-.3-1.2-.3c-1.4-.3-2.2-1.3-2.2-2.4c0-1.5 1.3-2.7 3-2.7c2.3 0 3.1 1.5 3.2 2.3c0 0-1.6.5-1.6.5c-.1-.5-.5-1.2-1.6-1.2c-.7 0-1.2.4-1.2.9c0 .5.4.8.9.9c0 0 1.2.2 1.2.2c1.6.4 2.4 1.3 2.4 2.6c0 1.2-1 2.6-3.1 2.6c-2.4 0-3.3-1.6-3.4-2.5c0 0 1.7-.5 1.7-.5zm15.8-3.6c-.2 0-.4 0-.6 0c-1.5 0-2.2.9-2.2 2.4c-.04.01 0 4 0 4l-2 0l0-8.3l1.9 0c0 0 0 1.3 0 1.3c.4-.9 1.3-1.4 2.4-1.4c.2 0 .4 0 .5 0c0 0 0 2 0 2zm5.7-3l-1.6 0l1.5-2.5l2.3 0l-2.2 2.5zm1.3 4.3c0-1-.6-1.8-2-1.8c-1.2 0-2 .9-2 1.8c0 0 4 0 4 0zm1.9 2.7c-.4 1.4-1.7 2.6-3.7 2.6c-2.3 0-4.3-1.6-4.3-4.4c0-2.6 2-4.4 4.1-4.4c2.5 0 4 1.7 4 4.3c0 .3 0 .6 0 .6c0 0-6.1 0-6.1 0c.1 1.3 1.1 2.2 2.3 2.2c1.2 0 1.8-.6 2.1-1.4c0 0 1.6.5 1.6.5zm2 5.6l0-11.5l1.9 0c0 0 .01 1.1 0 1.1c.4-.7 1.4-1.3 2.6-1.3c2.5 0 3.9 1.9 3.9 4.3c0 2.5-1.5 4.4-3.9 4.4c-1.2 0-2.1-.6-2.5-1.2c-.04.02 0 4.2 0 4.2l-2 0zm4.2-10c-1.3 0-2.3 1.1-2.3 2.6c0 1.6 1 2.6 2.3 2.6c1.3 0 2.2-1 2.2-2.6c0-1.5-.9-2.6-2.2-2.6zm12 2.6c0-1.7-1.1-2.6-2.3-2.6c-1.2 0-2.3.9-2.3 2.6c0 1.7 1.1 2.6 2.3 2.6c1.2 0 2.3-.9 2.3-2.6zm2 0c0 2.6-1.8 4.4-4.3 4.4c-2.5 0-4.3-1.8-4.3-4.4c0-2.5 1.8-4.4 4.3-4.4c2.5 0 4.3 1.9 4.3 4.4zm3.9 4.2l-2 0l0-8.3l1.9 0c0 0 .04 1.08 0 1.1c.6-1 1.6-1.4 2.5-1.4c2 0 3 1.5 3 3.3c-.02.02 0 5.3 0 5.3l-2 0c0 0 .01-4.94 0-4.9c0-1.1-.5-1.9-1.7-1.9c-1.1 0-1.7.9-1.7 2c-.01-.02 0 4.8 0 4.8zm8.8-2.8c0 .8.6 1.4 1.6 1.4c.9 0 1.3-.4 1.3-.9c0-.5-.3-.8-1-.9c0 0-1.2-.3-1.2-.3c-1.5-.3-2.2-1.3-2.2-2.4c0-1.5 1.3-2.7 3-2.7c2.3 0 3.1 1.5 3.2 2.3c0 0-1.7.5-1.7.5c0-.5-.4-1.2-1.5-1.2c-.7 0-1.2.4-1.2.9c0 .5.3.8.9.9c0 0 1.2.2 1.2.2c1.6.4 2.4 1.3 2.4 2.6c0 1.2-1 2.6-3.1 2.6c-2.4 0-3.4-1.6-3.5-2.5c0 0 1.8-.5 1.8-.5zm12.1-2.3c0-1-.6-1.8-2-1.8c-1.2 0-2 .9-2 1.8c0 0 4 0 4 0zm1.9 2.7c-.4 1.4-1.7 2.6-3.7 2.6c-2.3 0-4.3-1.6-4.3-4.4c0-2.6 2-4.4 4.1-4.4c2.5 0 4 1.7 4 4.3c0 .3 0 .6 0 .6c0 0-6.1 0-6.1 0c.1 1.3 1.1 2.2 2.3 2.2c1.2 0 1.8-.6 2.1-1.4c0 0 1.6.5 1.6.5zm3-.4c.1.8.6 1.4 1.7 1.4c.8 0 1.2-.4 1.2-.9c0-.5-.3-.8-.9-.9c0 0-1.3-.3-1.3-.3c-1.4-.3-2.2-1.3-2.2-2.4c0-1.5 1.3-2.7 3-2.7c2.4 0 3.1 1.5 3.2 2.3c0 0-1.6.5-1.6.5c-.1-.5-.5-1.2-1.6-1.2c-.7 0-1.1.4-1.1.9c0 .5.3.8.8.9c0 0 1.2.2 1.2.2c1.6.4 2.4 1.3 2.4 2.6c0 1.2-1 2.6-3.1 2.6c-2.4 0-3.3-1.6-3.4-2.5c0 0 1.7-.5 1.7-.5zm12.3-1.4c0 1.7 1.1 2.6 2.3 2.6c1.3 0 1.9-.9 2.1-1.5c0 0 1.7.6 1.7.6c-.4 1.3-1.6 2.7-3.8 2.7c-2.4 0-4.3-1.9-4.3-4.4c0-2.5 1.9-4.4 4.3-4.4c2.2 0 3.4 1.4 3.8 2.7c0 0-1.8.7-1.8.7c-.2-.7-.7-1.6-2-1.6c-1.2 0-2.3.9-2.3 2.6zm13.8 0c0-1.7-1.1-2.6-2.4-2.6c-1.2 0-2.3.9-2.3 2.6c0 1.7 1.1 2.6 2.3 2.6c1.3 0 2.4-.9 2.4-2.6zm1.9 0c0 2.6-1.8 4.4-4.3 4.4c-2.4 0-4.2-1.8-4.2-4.4c0-2.5 1.8-4.4 4.2-4.4c2.5 0 4.3 1.9 4.3 4.4zm3.9 4.2l-2 0l0-8.3l2 0c0 0-.03 1.08 0 1.1c.5-1 1.5-1.4 2.4-1.4c2 0 3 1.5 3 3.3c.01.02 0 5.3 0 5.3l-2 0c0 0 .04-4.94 0-4.9c0-1.1-.4-1.9-1.7-1.9c-1.1 0-1.7.9-1.7 2c.02-.02 0 4.8 0 4.8zm9.1-4.2c0 1.7 1.1 2.6 2.3 2.6c1.3 0 1.9-.9 2.1-1.5c0 0 1.8.6 1.8.6c-.4 1.3-1.7 2.7-3.9 2.7c-2.4 0-4.2-1.9-4.2-4.4c0-2.5 1.8-4.4 4.2-4.4c2.2 0 3.4 1.4 3.8 2.7c0 0-1.8.7-1.8.7c-.2-.7-.7-1.6-2-1.6c-1.2 0-2.3.9-2.3 2.6zm12.7-2.2c-.2 0-.4 0-.6 0c-1.5 0-2.2.9-2.2 2.4c-.02.01 0 4 0 4l-2 0l0-8.3l1.9 0c0 0 .03 1.3 0 1.3c.4-.9 1.3-1.4 2.4-1.4c.3 0 .5 0 .5 0c0 0 0 2 0 2zm7.1 1.3c-.1-1-.7-1.8-2.1-1.8c-1.2 0-1.9.9-2 1.8c0 0 4.1 0 4.1 0zm1.8 2.7c-.4 1.4-1.7 2.6-3.7 2.6c-2.2 0-4.2-1.6-4.2-4.4c0-2.6 1.9-4.4 4-4.4c2.5 0 4 1.7 4 4.3c0 .3 0 .6 0 .6c0 0-6.1 0-6.1 0c.1 1.3 1.1 2.2 2.3 2.2c1.2 0 1.8-.6 2.1-1.4c0 0 1.6.5 1.6.5zm-6.7-9.5l2.4 0l1.5 2.5l-1.6 0l-2.3-2.5zm11.2 3.6l1.7 0l0 1.7l-1.7 0c0 0 .03 3.87 0 3.9c0 .7.4 1 1.1 1c.3 0 .6 0 .7-.1c0 0 0 1.7 0 1.7c-.2 0-.5.2-1.2.2c-1.6 0-2.5-1-2.5-2.5c-.03-.01 0-4.2 0-4.2l-1.6 0l0-1.7c0 0 .47-.03.5 0c.9 0 1.2-.6 1.2-1.3c.04-.02 0-1.3 0-1.3l1.8 0l0 2.6zm9.1 3.2c0-1-.7-1.8-2-1.8c-1.3 0-2 .9-2 1.8c0 0 4 0 4 0zm1.9 2.7c-.4 1.4-1.7 2.6-3.7 2.6c-2.3 0-4.3-1.6-4.3-4.4c0-2.6 2-4.4 4.1-4.4c2.5 0 4 1.7 4 4.3c0 .3 0 .6 0 .6c0 0-6.1 0-6.1 0c.1 1.3 1 2.2 2.3 2.2c1.2 0 1.8-.6 2-1.4c0 0 1.7.5 1.7.5zm3-.4c.1.8.6 1.4 1.7 1.4c.8 0 1.2-.4 1.2-.9c0-.5-.3-.8-1-.9c0 0-1.2-.3-1.2-.3c-1.4-.3-2.2-1.3-2.2-2.4c0-1.5 1.3-2.7 3-2.7c2.3 0 3.1 1.5 3.2 2.3c0 0-1.6.5-1.6.5c-.1-.5-.5-1.2-1.6-1.2c-.7 0-1.2.4-1.2.9c0 .5.4.8.9.9c0 0 1.2.2 1.2.2c1.6.4 2.4 1.3 2.4 2.6c0 1.2-1 2.6-3.1 2.6c-2.4 0-3.3-1.6-3.4-2.5c0 0 1.7-.5 1.7-.5zm13-2c0 0 2.1-.3 2.1-.3c.5-.1.6-.3.6-.6c0-.7-.5-1.3-1.6-1.3c-1 0-1.6.7-1.7 1.5c0 0-1.8-.4-1.8-.4c.2-1.4 1.5-2.7 3.5-2.7c2.6 0 3.5 1.5 3.5 3.1c0 0 0 4.1 0 4.1c0 .8.1 1.3.1 1.4c0 0-1.8 0-1.8 0c0-.1-.1-.4-.1-1.1c-.4.6-1.2 1.3-2.5 1.3c-1.8 0-2.8-1.2-2.8-2.5c0-1.5 1.1-2.3 2.5-2.5zm2.7 1.3c.01.02 0-.4 0-.4c0 0-2.15.37-2.1.4c-.7.1-1.2.4-1.2 1.1c0 .6.5 1.1 1.3 1.1c1.1 0 2-.6 2-2.2zm7.2 3.7c-1.9 0-3.1-1.5-3.1-3.3c.01-.01 0-5.2 0-5.2l2 0c0 0-.02 4.84 0 4.8c0 1.1.5 1.9 1.6 1.9c1.2 0 1.8-.7 1.8-1.8c-.02-.03 0-4.9 0-4.9l2 0c0 0-.05 6.74 0 6.7c0 .7 0 1.2 0 1.6c0 0-1.9 0-1.9 0c0-.2 0-.6 0-1c-.4.8-1.4 1.2-2.4 1.2zm8.7-4.4l-2.9-4.1c0 0 2.31-.03 2.3 0c.2.2 1.7 2.4 1.8 2.6c.03.03 1.8-2.6 1.8-2.6l2.3 0l-2.9 4l3 4.3l-2.3 0c0 0-1.96-2.82-2-2.8c-.1.2-1.7 2.5-1.8 2.8c-.03-.05-2.3 0-2.3 0l3-4.2zm16.5-.9c-.1-1-.7-1.8-2.1-1.8c-1.2 0-1.9.9-2 1.8c0 0 4.1 0 4.1 0zm1.9 2.7c-.5 1.4-1.8 2.6-3.8 2.6c-2.2 0-4.2-1.6-4.2-4.4c0-2.6 1.9-4.4 4-4.4c2.6 0 4.1 1.7 4.1 4.3c0 .3-.1.6-.1.6c0 0-6 0-6 0c0 1.3 1 2.2 2.2 2.2c1.2 0 1.8-.6 2.1-1.4c0 0 1.7.5 1.7.5zm3.9 2.4l-1.9 0l0-8.3l1.9 0c0 0-.03 1.08 0 1.1c.5-1 1.5-1.4 2.4-1.4c2 0 3 1.5 3 3.3c.01.02 0 5.3 0 5.3l-2 0c0 0 .04-4.94 0-4.9c0-1.1-.4-1.9-1.7-1.9c-1.1 0-1.7.9-1.7 2c.02-.02 0 4.8 0 4.8zm7.8-8.3l2 0c0 0-.02 9.09 0 9.1c0 1.5-1 2.6-2.5 2.6c-.6 0-1-.1-1.1-.1c0 0 0-1.6 0-1.6c.1 0 .4 0 .6 0c.7 0 1-.4 1-1.1c.01.03 0-8.9 0-8.9zm1-4.2c.7 0 1.3.5 1.3 1.2c0 .7-.6 1.3-1.3 1.3c-.7 0-1.3-.6-1.3-1.3c0-.7.6-1.2 1.3-1.2zm9 7.4c-.1-1-.7-1.8-2.1-1.8c-1.2 0-1.9.9-2 1.8c0 0 4.1 0 4.1 0zm1.9 2.7c-.5 1.4-1.8 2.6-3.8 2.6c-2.2 0-4.2-1.6-4.2-4.4c0-2.6 1.9-4.4 4-4.4c2.6 0 4.1 1.7 4.1 4.3c0 .3-.1.6-.1.6c0 0-6 0-6 0c0 1.3 1 2.2 2.2 2.2c1.2 0 1.8-.6 2.1-1.4c0 0 1.7.5 1.7.5zm4.8 2.6c-2 0-3.1-1.5-3.1-3.3c-.01-.01 0-5.2 0-5.2l2 0c0 0-.04 4.84 0 4.8c0 1.1.4 1.9 1.6 1.9c1.2 0 1.8-.7 1.8-1.8c-.03-.03 0-4.9 0-4.9l1.9 0c0 0 .04 6.74 0 6.7c0 .7.1 1.2.1 1.6c0 0-1.9 0-1.9 0c0-.2 0-.6 0-1c-.4.8-1.4 1.2-2.4 1.2zm8.7-4.4l-3-4.1c0 0 2.4-.03 2.4 0c.1.2 1.7 2.4 1.8 2.6c.01.03 1.8-2.6 1.8-2.6l2.3 0l-2.9 4l3 4.3l-2.3 0c0 0-1.97-2.82-2-2.8c-.1.2-1.7 2.5-1.8 2.8c-.04-.05-2.3 0-2.3 0l3-4.2zm17 0c0-1.7-1.1-2.6-2.3-2.6c-1.2 0-2.4.9-2.4 2.6c0 1.7 1.2 2.6 2.4 2.6c1.2 0 2.3-.9 2.3-2.6zm2 0c0 2.6-1.9 4.4-4.3 4.4c-2.5 0-4.3-1.8-4.3-4.4c0-2.5 1.8-4.4 4.3-4.4c2.4 0 4.3 1.9 4.3 4.4zm1.9 7.4l0-11.5l1.9 0c0 0-.03 1.1 0 1.1c.4-.7 1.3-1.3 2.6-1.3c2.5 0 3.8 1.9 3.8 4.3c0 2.5-1.5 4.4-3.9 4.4c-1.2 0-2.1-.6-2.5-1.2c.02.02 0 4.2 0 4.2l-1.9 0zm4.1-10c-1.3 0-2.2 1.1-2.2 2.6c0 1.6.9 2.6 2.2 2.6c1.3 0 2.3-1 2.3-2.6c0-1.5-.9-2.6-2.3-2.6zm10.2-2.6l-1.6 0l1.5-2.5l2.4 0l-2.3 2.5zm1.4 4.3c-.1-1-.7-1.8-2.1-1.8c-1.2 0-1.9.9-2 1.8c0 0 4.1 0 4.1 0zm1.9 2.7c-.5 1.4-1.8 2.6-3.8 2.6c-2.2 0-4.2-1.6-4.2-4.4c0-2.6 1.9-4.4 4-4.4c2.6 0 4.1 1.7 4.1 4.3c0 .3-.1.6-.1.6c0 0-6 0-6 0c0 1.3 1 2.2 2.2 2.2c1.2 0 1.8-.6 2.1-1.4c0 0 1.7.5 1.7.5zm6.8-4c-.2 0-.4 0-.7 0c-1.5 0-2.2.9-2.2 2.4c.02.01 0 4 0 4l-2 0l0-8.3l2 0c0 0-.03 1.3 0 1.3c.4-.9 1.3-1.4 2.4-1.4c.2 0 .4 0 .5 0c0 0 0 2 0 2zm3.6 1.6c0 0 2.2-.3 2.2-.3c.5-.1.6-.3.6-.6c0-.7-.5-1.3-1.6-1.3c-1 0-1.6.7-1.7 1.5c0 0-1.8-.4-1.8-.4c.2-1.4 1.5-2.7 3.5-2.7c2.6 0 3.5 1.5 3.5 3.1c0 0 0 4.1 0 4.1c0 .8.1 1.3.1 1.4c0 0-1.8 0-1.8 0c0-.1-.1-.4-.1-1.1c-.4.6-1.2 1.3-2.5 1.3c-1.8 0-2.8-1.2-2.8-2.5c0-1.5 1-2.3 2.4-2.5zm2.8 1.3c-.01.02 0-.4 0-.4c0 0-2.17.37-2.2.4c-.6.1-1.1.4-1.1 1.1c0 .6.4 1.1 1.2 1.1c1.1 0 2.1-.6 2.1-2.2zm6.8-4.8l1.7 0l0 1.7l-1.7 0c0 0-.03 3.87 0 3.9c0 .7.3 1 1 1c.3 0 .6 0 .7-.1c0 0 0 1.7 0 1.7c-.1 0-.5.2-1.2.2c-1.5 0-2.5-1-2.5-2.5c.01-.01 0-4.2 0-4.2l-1.5 0l0-1.7c0 0 .41-.03.4 0c.9 0 1.3-.6 1.3-1.3c-.02-.02 0-1.3 0-1.3l1.8 0l0 2.6zm3.7 8.3l0-8.3l2 0l0 8.3l-2 0zm1-12.5c.7 0 1.3.6 1.3 1.3c0 .7-.6 1.2-1.3 1.2c-.7 0-1.3-.5-1.3-1.2c0-.7.6-1.3 1.3-1.3zm9.5 8.3c0-1.7-1.1-2.6-2.3-2.6c-1.3 0-2.4.9-2.4 2.6c0 1.7 1.1 2.6 2.4 2.6c1.2 0 2.3-.9 2.3-2.6zm2 0c0 2.6-1.9 4.4-4.3 4.4c-2.5 0-4.3-1.8-4.3-4.4c0-2.5 1.8-4.4 4.3-4.4c2.4 0 4.3 1.9 4.3 4.4zm3.8 4.2l-1.9 0l0-8.3l1.9 0c0 0-.02 1.08 0 1.1c.5-1 1.5-1.4 2.4-1.4c2 0 3 1.5 3 3.3c.02.02 0 5.3 0 5.3l-2 0c0 0 .05-4.94 0-4.9c0-1.1-.4-1.9-1.7-1.9c-1.1 0-1.7.9-1.7 2c.03-.02 0 4.8 0 4.8zm9.8 0l-2 0l0-8.3l1.9 0c0 0 .04 1.08 0 1.1c.6-1 1.6-1.4 2.5-1.4c2 0 3 1.5 3 3.3c-.02.02 0 5.3 0 5.3l-2 0c0 0 0-4.94 0-4.9c0-1.1-.5-1.9-1.7-1.9c-1.1 0-1.7.9-1.7 2c-.01-.02 0 4.8 0 4.8zm13.2-5.1c0-1-.7-1.8-2-1.8c-1.3 0-2 .9-2.1 1.8c0 0 4.1 0 4.1 0zm1.9 2.7c-.4 1.4-1.8 2.6-3.7 2.6c-2.3 0-4.3-1.6-4.3-4.4c0-2.6 2-4.4 4.1-4.4c2.5 0 4 1.7 4 4.3c0 .3 0 .6 0 .6c0 0-6.1 0-6.1 0c0 1.3 1 2.2 2.3 2.2c1.1 0 1.8-.6 2-1.4c0 0 1.7.5 1.7.5zm2 2.4l0-12.4l2 0l0 12.4l-2 0zm5.5-2.8c.1.8.6 1.4 1.7 1.4c.8 0 1.2-.4 1.2-.9c0-.5-.3-.8-.9-.9c0 0-1.3-.3-1.3-.3c-1.4-.3-2.2-1.3-2.2-2.4c0-1.5 1.3-2.7 3-2.7c2.4 0 3.1 1.5 3.2 2.3c0 0-1.6.5-1.6.5c-.1-.5-.5-1.2-1.6-1.2c-.7 0-1.1.4-1.1.9c0 .5.3.8.8.9c0 0 1.2.2 1.2.2c1.6.4 2.4 1.3 2.4 2.6c0 1.2-1 2.6-3.1 2.6c-2.4 0-3.3-1.6-3.4-2.5c0 0 1.7-.5 1.7-.5z" stroke="none" fill="#144542"/></g></svg>