<?xml version="1.0" standalone="no"?><!DOCTYPE svg PUBLIC "-//W3C//DTD SVG 1.1//EN" "http://www.w3.org/Graphics/SVG/1.1/DTD/svg11.dtd"><svg xmlns="http://www.w3.org/2000/svg" version="1.1" width="343px" height="28px" viewBox="0 -3 343 28" style="top:-3px"><desc>02. embarquer des entreprises et cr er de la valeur durable</desc><defs/><g id="Polygon174903"><path d="m2.1 7.3c.3.3.6.4 1.1.4c.5 0 .8-.1 1.1-.4c.4-.4.6-1.2.6-2.2c0-1-.2-1.8-.6-2.2c-.3-.3-.6-.5-1.1-.5c-.5 0-.8.2-1.1.5c-.4.4-.6 1.2-.6 2.2c0 1 .2 1.8.6 2.2zm-1-4.7c.5-.6 1.2-1.1 2.1-1.1c1 0 1.7.5 2.1 1.1c.5.7.6 1.6.6 2.5c0 .9-.1 1.8-.6 2.5c-.4.6-1.1 1.1-2.1 1.1c-.9 0-1.6-.5-2.1-1.1c-.4-.7-.6-1.6-.6-2.5c0-.9.2-1.8.6-2.5zm6.8 1.4c0-.1 0-.2 0-.3c0-1.1.9-2.2 2.4-2.2c1.4 0 2.3 1 2.3 2.1c0 .9-.5 1.6-1.3 2.1c0 0-1.3.9-1.3.9c-.4.2-.8.5-.9.9c.03.04 3.5 0 3.5 0l0 1c0 0-4.73-.01-4.7 0c0-1.1.4-2 1.6-2.7c0 0 1.1-.7 1.1-.7c.7-.5 1-.9 1-1.5c0-.6-.5-1.2-1.3-1.2c-.9 0-1.3.7-1.3 1.4c0 .1 0 .2 0 .3c0 0-1.1-.1-1.1-.1zm7.7 3.1c.4 0 .7.3.7.7c0 .4-.3.7-.7.7c-.4 0-.8-.3-.8-.7c0-.4.4-.7.8-.7zm6.8 1.4l0-5.2l3.2 0l0 .7l-2.5 0l0 1.6l2.3 0l0 .6l-2.3 0l0 1.6l2.5 0l0 .7l-3.2 0zm10.3 0l0-4.1l-1.8 4.1l-.7 0l-1.7-4.1l0 4.1l-.8 0l0-5.2l1 0l1.9 4.2l1.8-4.2l1 0l0 5.2l-.7 0zm4.7-5.2c1 0 1.6.6 1.6 1.4c0 .6-.3 1-.8 1.1c.6.2 1 .7 1 1.3c0 .8-.7 1.4-1.6 1.4c-.03-.01-1.9 0-1.9 0l0-5.2c0 0 1.74-.01 1.7 0zm0 2.3c.5 0 .9-.4.9-.9c0-.5-.4-.8-1-.8c.03.02-.8 0-.8 0l0 1.7c0 0 .86-.03.9 0zm.1 2.3c.5 0 .9-.4.9-.9c0-.5-.3-.8-.9-.8c-.01-.02-1 0-1 0l0 1.7c0 0 .96-.04 1 0zm6.6-.9l-2.3 0l-.5 1.5l-.8 0l2.1-5.2l.8 0l2.1 5.2l-.8 0l-.6-1.5zm-2-.6l1.8 0l-1-2.4l-.8 2.4zm6.6 0l-.7 0l0 2.1l-.8 0l0-5.2c0 0 2-.01 2 0c1 0 1.6.7 1.6 1.5c0 .8-.5 1.4-1.3 1.5c.03.01 1.3 2.2 1.3 2.2l-.9 0l-1.2-2.1zm.4-.7c.6 0 1-.3 1-.9c0-.5-.4-.9-1-.9c-.03.03-1.1 0-1.1 0l0 1.8c0 0 1.07.01 1.1 0zm6-2.5c1.3 0 2.6 1 2.6 2.7c0 .8-.3 1.5-.7 1.9c-.03.01.6.7.6.7l-.5.4c0 0-.64-.68-.6-.7c-.5.3-.9.4-1.4.4c-1.3 0-2.6-1-2.6-2.7c0-1.7 1.3-2.7 2.6-2.7zm0 4.7c.3 0 .6 0 .9-.2c0 .01-.9-1-.9-1l.5-.4c0 0 .91.99.9 1c.3-.3.5-.8.5-1.4c0-1.4-.9-2.1-1.9-2.1c-1 0-1.9.7-1.9 2.1c0 1.3.9 2 1.9 2zm4.6-1.2c-.02.01 0-3.4 0-3.4l.7 0c0 0-.01 3.39 0 3.4c0 .8.4 1.2 1.1 1.2c.8 0 1.2-.4 1.2-1.2c0-.01 0-3.4 0-3.4l.7 0c0 0 .02 3.41 0 3.4c0 1.2-.8 1.9-1.9 1.9c-1 0-1.8-.7-1.8-1.9zm6 1.8l0-5.2l3.2 0l0 .7l-2.5 0l0 1.6l2.3 0l0 .6l-2.3 0l0 1.6l2.5 0l0 .7l-3.2 0zm6.8-2.1l-.7 0l0 2.1l-.8 0l0-5.2c0 0 2-.01 2 0c1 0 1.6.7 1.6 1.5c0 .8-.5 1.4-1.3 1.5c.04.01 1.3 2.2 1.3 2.2l-.9 0l-1.2-2.1zm.4-.7c.6 0 1-.3 1-.9c0-.5-.4-.9-1-.9c-.03.03-1.1 0-1.1 0l0 1.8c0 0 1.07.01 1.1 0zm9.2 2.2c1 0 1.8-.7 1.8-2c0-1.3-.8-2-1.8-2c.02.03-1.1 0-1.1 0l0 4c0 0 1.11-.04 1.1 0zm-1.8.6l0-5.2c0 0 1.84-.01 1.8 0c1.4 0 2.5.9 2.5 2.6c0 1.7-1.1 2.6-2.5 2.6c.03-.01-1.8 0-1.8 0zm6.4 0l0-5.2l3.1 0l0 .7l-2.4 0l0 1.6l2.2 0l0 .6l-2.2 0l0 1.6l2.4 0l0 .7l-3.1 0zm8-3.8c-.1-.4-.4-.9-1.1-.9c-.6 0-1.1.4-1.1.9c0 .4.3.6.7.7c0 0 .8.2.8.2c.9.2 1.3.7 1.3 1.5c0 .8-.6 1.5-1.8 1.5c-1.2 0-1.8-.8-1.9-1.5c0 0 .7-.3.7-.3c0 .6.5 1.1 1.2 1.1c.8 0 1.1-.3 1.1-.8c0-.4-.2-.7-.8-.8c0 0-.7-.1-.7-.1c-.8-.2-1.3-.7-1.3-1.5c0-.8.8-1.5 1.7-1.5c1.2 0 1.7.7 1.8 1.3c0 0-.6.2-.6.2zm6.4 3.8l0-5.2l3.1 0l0 .7l-2.4 0l0 1.6l2.2 0l0 .6l-2.2 0l0 1.6l2.4 0l0 .7l-3.1 0zm8.8 0l-2.8-4.3l0 4.3l-.7 0l0-5.2l.9 0l2.6 4l0-4l.8 0l0 5.2l-.8 0zm5-4.5l0 4.5l-.7 0l0-4.5l-1.7 0l0-.7l4.2 0l0 .7l-1.8 0zm5 2.4l-.7 0l0 2.1l-.8 0l0-5.2c0 0 2-.01 2 0c1 0 1.6.7 1.6 1.5c0 .8-.5 1.4-1.3 1.5c.04.01 1.3 2.2 1.3 2.2l-.9 0l-1.2-2.1zm.4-.7c.6 0 1-.3 1-.9c0-.5-.4-.9-1-.9c-.03.03-1.1 0-1.1 0l0 1.8c0 0 1.07.01 1.1 0zm3.7 2.8l0-5.2l3.2 0l0 .7l-2.4 0l0 1.6l2.2 0l0 .6l-2.2 0l0 1.6l2.4 0l0 .7l-3.2 0zm7.1-2.8c.7 0 1-.3 1-.9c0-.5-.3-.9-1-.9c.03.03-1 0-1 0l0 1.8c0 0 1.03.01 1 0zm-1 .7l0 2.1l-.7 0l0-5.2c0 0 1.86-.01 1.9 0c.9 0 1.6.7 1.6 1.5c0 .9-.7 1.6-1.6 1.6c-.04-.04-1.2 0-1.2 0zm6.2 0l-.8 0l0 2.1l-.7 0l0-5.2c0 0 1.96-.01 2 0c.9 0 1.6.7 1.6 1.5c0 .8-.5 1.4-1.3 1.5c-.01.01 1.2 2.2 1.2 2.2l-.8 0l-1.2-2.1zm.3-.7c.6 0 1-.3 1-.9c0-.5-.4-.9-1-.9c.03.03-1.1 0-1.1 0l0 1.8c0 0 1.13.01 1.1 0zm3.8 2.8l0-5.2l.7 0l0 5.2l-.7 0zm5.8-3.8c-.1-.4-.4-.9-1.1-.9c-.6 0-1 .4-1 .9c0 .4.2.6.6.7c0 0 .8.2.8.2c.9.2 1.4.7 1.4 1.5c0 .8-.7 1.5-1.8 1.5c-1.3 0-1.9-.8-2-1.5c0 0 .7-.3.7-.3c.1.6.5 1.1 1.3 1.1c.7 0 1-.3 1-.8c0-.4-.2-.7-.7-.8c0 0-.8-.1-.8-.1c-.7-.2-1.2-.7-1.2-1.5c0-.8.7-1.5 1.7-1.5c1.1 0 1.6.7 1.7 1.3c0 0-.6.2-.6.2zm2.7 3.8l0-5.2l3.2 0l0 .7l-2.5 0l0 1.6l2.3 0l0 .6l-2.3 0l0 1.6l2.5 0l0 .7l-3.2 0zm8-3.8c0-.4-.4-.9-1.1-.9c-.6 0-1 .4-1 .9c0 .4.2.6.7.7c0 0 .8.2.8.2c.8.2 1.3.7 1.3 1.5c0 .8-.7 1.5-1.8 1.5c-1.3 0-1.8-.8-1.9-1.5c0 0 .6-.3.6-.3c.1.6.5 1.1 1.3 1.1c.7 0 1.1-.3 1.1-.8c0-.4-.3-.7-.8-.8c0 0-.8-.1-.8-.1c-.7-.2-1.2-.7-1.2-1.5c0-.8.7-1.5 1.7-1.5c1.2 0 1.6.7 1.8 1.3c0 0-.7.2-.7.2zm6.4 3.8l0-5.2l3.2 0l0 .7l-2.5 0l0 1.6l2.3 0l0 .6l-2.3 0l0 1.6l2.5 0l0 .7l-3.2 0zm7.2-4.5l0 4.5l-.7 0l0-4.5l-1.7 0l0-.7l4.2 0l0 .7l-1.8 0zm6.9 1.9c0-1.7 1.3-2.7 2.6-2.7c1.2 0 2 .6 2.3 1.6c0 0-.7.3-.7.3c-.2-.8-.8-1.3-1.6-1.3c-1 0-1.9.7-1.9 2.1c0 1.3.9 2 1.9 2c.9 0 1.4-.5 1.6-1.2c0 0 .7.2.7.2c-.3 1-1.1 1.7-2.3 1.7c-1.4 0-2.6-1-2.6-2.7zm8.4.5l-.8 0l0 2.1l-.7 0l0-5.2c0 0 1.94-.01 1.9 0c1 0 1.6.7 1.6 1.5c0 .8-.4 1.4-1.2 1.5c-.03.01 1.2 2.2 1.2 2.2l-.8 0l-1.2-2.1zm.3-.7c.6 0 1-.3 1-.9c0-.5-.4-.9-1-.9c.01.03-1.1 0-1.1 0l0 1.8c0 0 1.11.01 1.1 0zm3.8 2.8l0-5.2l3.1 0l0 .7l-2.4 0l0 1.6l2.2 0l0 .6l-2.2 0l0 1.6l2.4 0l0 .7l-3.1 0zm1.7-5.6l-.7 0l.8-.9l.9 0l-1 .9zm3.6 5.6l0-5.2l3.2 0l0 .7l-2.5 0l0 1.6l2.2 0l0 .6l-2.2 0l0 1.6l2.5 0l0 .7l-3.2 0zm6.8-2.1l-.8 0l0 2.1l-.7 0l0-5.2c0 0 1.98-.01 2 0c1 0 1.6.7 1.6 1.5c0 .8-.5 1.4-1.3 1.5c.01.01 1.3 2.2 1.3 2.2l-.9 0l-1.2-2.1zm.3-.7c.6 0 1-.3 1-.9c0-.5-.4-.9-1-.9c.05.03-1.1 0-1.1 0l0 1.8c0 0 1.15.01 1.1 0zm9.3 2.2c.9 0 1.8-.7 1.8-2c0-1.3-.8-2-1.8-2c0 .03-1.1 0-1.1 0l0 4c0 0 1.08-.04 1.1 0zm-1.8.6l0-5.2c0 0 1.82-.01 1.8 0c1.3 0 2.5.9 2.5 2.6c0 1.7-1.2 2.6-2.5 2.6c0-.01-1.8 0-1.8 0zm6.3 0l0-5.2l3.2 0l0 .7l-2.4 0l0 1.6l2.2 0l0 .6l-2.2 0l0 1.6l2.4 0l0 .7l-3.2 0zm9 0l0-5.2l.8 0l0 4.5l2.4 0l0 .7l-3.2 0zm8.3-1.5l-2.3 0l-.6 1.5l-.7 0l2-5.2l.9 0l2 5.2l-.7 0l-.6-1.5zm-2.1-.6l1.8 0l-.9-2.4l-.9 2.4zm12.2-3.1l.8 0l-2 5.2l-.7 0l-2-5.2l.8 0l1.6 4.3l1.5-4.3zm5.2 3.7l-2.3 0l-.5 1.5l-.8 0l2.1-5.2l.8 0l2.1 5.2l-.8 0l-.6-1.5zm-2-.6l1.8 0l-.9-2.4l-.9 2.4zm5.2 2.1l0-5.2l.7 0l0 4.5l2.4 0l0 .7l-3.1 0zm5 0l0-5.2l3.2 0l0 .7l-2.4 0l0 1.6l2.2 0l0 .6l-2.2 0l0 1.6l2.4 0l0 .7l-3.2 0zm5.3-1.8c-.02.01 0-3.4 0-3.4l.7 0c0 0-.01 3.39 0 3.4c0 .8.4 1.2 1.1 1.2c.8 0 1.2-.4 1.2-1.2c0-.01 0-3.4 0-3.4l.7 0c0 0 .02 3.41 0 3.4c0 1.2-.8 1.9-1.9 1.9c-1 0-1.8-.7-1.8-1.9zm7.5-.3l-.8 0l0 2.1l-.7 0l0-5.2c0 0 1.98-.01 2 0c1 0 1.6.7 1.6 1.5c0 .8-.5 1.4-1.3 1.5c.02.01 1.3 2.2 1.3 2.2l-.9 0l-1.2-2.1zm.4-.7c.5 0 .9-.3.9-.9c0-.5-.4-.9-.9-.9c-.05.03-1.2 0-1.2 0l0 1.8c0 0 1.15.01 1.2 0zm9.2 2.2c.9 0 1.8-.7 1.8-2c0-1.3-.8-2-1.8-2c0 .03-1.1 0-1.1 0l0 4c0 0 1.09-.04 1.1 0zm-1.8.6l0-5.2c0 0 1.82-.01 1.8 0c1.3 0 2.5.9 2.5 2.6c0 1.7-1.2 2.6-2.5 2.6c.01-.01-1.8 0-1.8 0zm6.3-1.8c-.03.01 0-3.4 0-3.4l.7 0c0 0-.02 3.39 0 3.4c0 .8.4 1.2 1.1 1.2c.8 0 1.2-.4 1.2-1.2c-.01-.01 0-3.4 0-3.4l.7 0c0 0 .01 3.41 0 3.4c0 1.2-.8 1.9-1.9 1.9c-1 0-1.8-.7-1.8-1.9zm7.5-.3l-.8 0l0 2.1l-.7 0l0-5.2c0 0 1.97-.01 2 0c1 0 1.6.7 1.6 1.5c0 .8-.5 1.4-1.3 1.5c.01.01 1.2 2.2 1.2 2.2l-.8 0l-1.2-2.1zm.3-.7c.6 0 1-.3 1-.9c0-.5-.4-.9-1-.9c.04.03-1.1 0-1.1 0l0 1.8c0 0 1.14.01 1.1 0zm6.8 1.3l-2.3 0l-.5 1.5l-.8 0l2.1-5.2l.8 0l2.1 5.2l-.8 0l-.6-1.5zm-2-.6l1.8 0l-.9-2.4l-.9 2.4zm6.8-3.1c1 0 1.6.6 1.6 1.4c0 .6-.3 1-.8 1.1c.6.2 1 .7 1 1.3c0 .8-.7 1.4-1.6 1.4c-.03-.01-1.8 0-1.8 0l0-5.2c0 0 1.65-.01 1.6 0zm0 2.3c.5 0 .9-.4.9-.9c0-.5-.4-.8-1-.8c.04.02-.8 0-.8 0l0 1.7c0 0 .87-.03.9 0zm.1 2.3c.6 0 .9-.4.9-.9c0-.5-.3-.8-.9-.8c0-.02-1 0-1 0l0 1.7c0 0 .97-.04 1 0zm3.7.6l0-5.2l.7 0l0 4.5l2.5 0l0 .7l-3.2 0zm5.1 0l0-5.2l3.2 0l0 .7l-2.5 0l0 1.6l2.2 0l0 .6l-2.2 0l0 1.6l2.5 0l0 .7l-3.2 0z" stroke="none" fill="#144542"/></g></svg>