<?xml version="1.0" standalone="no"?><!DOCTYPE svg PUBLIC "-//W3C//DTD SVG 1.1//EN" "http://www.w3.org/Graphics/SVG/1.1/DTD/svg11.dtd"><svg xmlns="http://www.w3.org/2000/svg" version="1.1" width="107.1px" height="74.6px" viewBox="0 -3 107.1 74.6" style="top:-3px"><desc>de taux de satisfaction sur la plateforme ANOTEA.</desc><defs/><g id="Polygon167135"><path d="m30.8 56.8l-4.3 0l-1 2.7l-1.4 0l3.8-9.5l1.5 0l3.8 9.5l-1.4 0l-1-2.7zm-3.8-1.2l3.3 0l-1.7-4.3l-1.6 4.3zm14.1 3.9l-5.2-7.8l0 7.8l-1.3 0l0-9.5l1.7 0l4.8 7.3l0-7.3l1.3 0l0 9.5l-1.3 0zm8-1c1.8 0 3.4-1.3 3.4-3.8c0-2.5-1.6-3.7-3.4-3.7c-1.8 0-3.5 1.2-3.5 3.7c0 2.5 1.7 3.8 3.5 3.8zm0-8.8c2.4 0 4.8 1.8 4.8 5c0 3.2-2.4 5-4.8 5c-2.4 0-4.8-1.8-4.8-5c0-3.2 2.4-5 4.8-5zm9.7 1.5l0 8.3l-1.3 0l0-8.3l-3.2 0l0-1.2l7.7 0l0 1.2l-3.2 0zm4.6 8.3l0-9.5l5.8 0l0 1.2l-4.5 0l0 2.9l4.1 0l0 1.3l-4.1 0l0 2.9l4.5 0l0 1.2l-5.8 0zm13.4-2.7l-4.2 0l-1.1 2.7l-1.4 0l3.8-9.5l1.6 0l3.8 9.5l-1.5 0l-1-2.7zm-3.8-1.2l3.3 0l-1.6-4.3l-1.7 4.3zm8.3 2.1c.5 0 .9.4.9 1c0 .5-.4.9-.9.9c-.6 0-1-.4-1-.9c0-.6.4-1 1-1z" stroke="none" fill="#9b78ef"/></g><g id="Polygon167134"><path d="m14.5 43.3l0-9.8l1.2 0l0 9.8l-1.2 0zm3-1.7c0-1.2.9-1.8 2-2c0 0 1.7-.2 1.7-.2c.4-.1.5-.3.5-.5c0-.7-.4-1.2-1.4-1.2c-.9 0-1.4.6-1.5 1.3c0 0-1.2-.3-1.2-.3c.2-1.2 1.3-2.1 2.7-2.1c1.9 0 2.7 1.1 2.7 2.4c0 0 0 3.3 0 3.3c0 .5 0 .9.1 1c0 0-1.3 0-1.3 0c0-.1 0-.4 0-.9c-.3.5-1 1.1-2.1 1.1c-1.3 0-2.2-.9-2.2-1.9c0 0 0 0 0 0zm4.2-1.1c.03.04 0-.3 0-.3c0 0-1.96.34-2 .3c-.5.1-.9.4-.9 1c0 .5.4 1 1 1c1.1 0 1.9-.5 1.9-2zm6.6 5.4l0-9.1l1.3 0c0 0-.03 1.04 0 1c.3-.6 1.1-1.1 2.1-1.1c2 0 3 1.5 3 3.4c0 1.9-1.1 3.4-3 3.4c-1 0-1.8-.5-2.1-1.1c0 .04 0 3.5 0 3.5l-1.3 0zm5.1-5.8c0-1.3-.7-2.3-1.9-2.3c-1.1 0-1.9 1-1.9 2.3c0 1.3.8 2.3 1.9 2.3c1.2 0 1.9-1 1.9-2.3c0 0 0 0 0 0zm2.9 3.2l0-9.8l1.3 0l0 9.8l-1.3 0zm3.1-1.7c0-1.2.8-1.8 1.9-2c0 0 1.8-.2 1.8-.2c.4-.1.5-.3.5-.5c0-.7-.4-1.2-1.4-1.2c-.9 0-1.4.6-1.5 1.3c0 0-1.2-.3-1.2-.3c.1-1.2 1.3-2.1 2.7-2.1c1.9 0 2.7 1.1 2.7 2.4c0 0 0 3.3 0 3.3c0 .5 0 .9 0 1c0 0-1.2 0-1.2 0c0-.1-.1-.4-.1-.9c-.2.5-.9 1.1-2.1 1.1c-1.3 0-2.1-.9-2.1-1.9c0 0 0 0 0 0zm4.2-1.1c0 .04 0-.3 0-.3c0 0-1.99.34-2 .3c-.5.1-.9.4-.9 1c0 .5.4 1 1 1c1.1 0 1.9-.5 1.9-2zm4.9-3.7l1.4 0l0 1.2l-1.4 0c0 0 .04 3.35 0 3.4c0 .5.3.8.9.8c.2 0 .4 0 .5 0c0 0 0 1.1 0 1.1c-.1 0-.4.1-.8.1c-1.1 0-1.8-.7-1.8-1.9c-.03.04 0-3.5 0-3.5l-1.3 0l0-1.2c0 0 .38.03.4 0c.7 0 1-.4 1-1c-.02.03 0-1 0-1l1.1 0l0 2zm7.4 2.6c0-.9-.6-1.7-1.7-1.7c-1.1 0-1.8.9-1.8 1.7c0 0 3.5 0 3.5 0zm1.3 2.1c-.3 1.1-1.4 2-2.9 2c-1.7 0-3.3-1.2-3.3-3.4c0-2.1 1.5-3.5 3.1-3.5c2 0 3.2 1.4 3.2 3.4c0 .2-.1.4-.1.4c0 0-4.9 0-4.9 0c.1 1.2.9 2 2 2c1.1 0 1.6-.6 1.8-1.3c0 0 1.1.4 1.1.4zm3.4-3.5l0 5.3l-1.3 0l0-5.3l-1.2 0l0-1.2l1.2 0c0 0-.03-1.07 0-1.1c0-1.4.9-2.2 2.1-2.2c.4 0 .7.1.8.1c0 0 0 1.2 0 1.2c-.1-.1-.3-.1-.6-.1c-.4 0-1 .2-1 1.1c-.02 0 0 1 0 1l1.5 0l0 1.2l-1.5 0zm7.4 2.1c0-1.5-.9-2.3-2-2.3c-1.1 0-2 .8-2 2.3c0 1.5.9 2.3 2 2.3c1.1 0 2-.8 2-2.3zm1.3 0c0 2-1.3 3.4-3.3 3.4c-1.9 0-3.3-1.4-3.3-3.4c0-2 1.4-3.5 3.3-3.5c2 0 3.3 1.5 3.3 3.5zm5.3-2c-.2 0-.4 0-.6 0c-1.1 0-1.8.5-1.8 2c.03-.03 0 3.2 0 3.2l-1.2 0l0-6.5l1.2 0c0 0 0 1.16 0 1.2c.5-1 1.3-1.3 1.9-1.3c.2 0 .4 0 .5.1c0 0 0 1.3 0 1.3zm1.3 5.2l0-6.5l1.2 0c0 0 .03.89 0 .9c.4-.7 1.2-1.1 2-1.1c.8 0 1.6.4 1.9 1.3c.6-1 1.4-1.3 2.2-1.3c1.2 0 2.3.8 2.3 2.5c-.04.01 0 4.2 0 4.2l-1.3 0c0 0 0-4.06 0-4.1c0-.8-.4-1.4-1.4-1.4c-.9 0-1.5.7-1.5 1.6c.03-.01 0 3.9 0 3.9l-1.2 0c0 0-.04-4.06 0-4.1c0-.8-.4-1.4-1.4-1.4c-.9 0-1.5.6-1.5 1.6c-.03.01 0 3.9 0 3.9l-1.3 0zm16-3.9c-.1-.9-.7-1.7-1.8-1.7c-1.1 0-1.7.9-1.8 1.7c0 0 3.6 0 3.6 0zm1.2 2.1c-.3 1.1-1.4 2-2.9 2c-1.7 0-3.2-1.2-3.2-3.4c0-2.1 1.4-3.5 3.1-3.5c2 0 3.1 1.4 3.1 3.4c0 .2 0 .4 0 .4c0 0-4.9 0-4.9 0c0 1.2.8 2 1.9 2c1.1 0 1.6-.6 1.8-1.3c0 0 1.1.4 1.1.4z" stroke="none" fill="#9b78ef"/></g><g id="Polygon167133"><path d="m9.4 25c.1.7.6 1.2 1.5 1.2c.8 0 1.1-.4 1.1-.8c0-.4-.2-.7-.8-.9c0 0-1.1-.2-1.1-.2c-1-.2-1.6-.9-1.6-1.8c0-1.1 1-2.1 2.3-2.1c1.8 0 2.3 1.2 2.5 1.8c0 0-1.2.4-1.2.4c0-.4-.3-1.1-1.3-1.1c-.7 0-1.1.4-1.1.9c0 .4.3.6.8.8c0 0 1 .2 1 .2c1.2.2 1.8 1 1.8 1.9c0 .9-.8 2-2.4 2c-1.8 0-2.5-1.1-2.6-1.9c0 0 1.1-.4 1.1-.4zm5.1.4c0-1.2.8-1.8 1.9-2c0 0 1.8-.2 1.8-.2c.4-.1.5-.3.5-.5c0-.7-.4-1.2-1.4-1.2c-.9 0-1.4.6-1.5 1.3c0 0-1.2-.3-1.2-.3c.1-1.2 1.2-2.1 2.6-2.1c2 0 2.7 1.1 2.7 2.4c0 0 0 3.3 0 3.3c0 .5.1.9.1 1c0 0-1.2 0-1.2 0c0-.1-.1-.4-.1-.9c-.3.5-.9 1.1-2.1 1.1c-1.3 0-2.1-.9-2.1-1.9c0 0 0 0 0 0zm4.2-1.1c-.02.04 0-.3 0-.3c0 0-2.01.34-2 .3c-.5.1-1 .4-1 1c0 .5.5 1 1.1 1c1 0 1.9-.5 1.9-2zm4.9-3.7l1.4 0l0 1.2l-1.4 0c0 0 .02 3.35 0 3.4c0 .5.3.8.9.8c.2 0 .4 0 .5 0c0 0 0 1.1 0 1.1c-.1 0-.4.1-.8.1c-1.2 0-1.9-.7-1.9-1.9c.05.04 0-3.5 0-3.5l-1.2 0l0-1.2c0 0 .36.03.4 0c.7 0 1-.4 1-1c-.04.03 0-1 0-1l1.1 0l0 2zm3.1 6.5l0-6.5l1.3 0l0 6.5l-1.3 0zm.6-9.8c.5 0 .9.4.9.9c0 .5-.4.9-.9.9c-.5 0-.9-.4-.9-.9c0-.5.4-.9.9-.9zm3.4 7.7c0 .7.6 1.2 1.5 1.2c.7 0 1.1-.4 1.1-.8c0-.4-.3-.7-.9-.9c0 0-1.1-.2-1.1-.2c-1-.2-1.6-.9-1.6-1.8c0-1.1 1.1-2.1 2.3-2.1c1.8 0 2.4 1.2 2.5 1.8c0 0-1.1.4-1.1.4c-.1-.4-.3-1.1-1.4-1.1c-.6 0-1.1.4-1.1.9c0 .4.3.6.8.8c0 0 1 .2 1 .2c1.2.2 1.8 1 1.8 1.9c0 .9-.7 2-2.3 2c-1.8 0-2.6-1.1-2.7-1.9c0 0 1.2-.4 1.2-.4zm7.2-3.2l0 5.3l-1.3 0l0-5.3l-1.2 0l0-1.2l1.2 0c0 0 .02-1.07 0-1.1c0-1.4 1-2.2 2.1-2.2c.5 0 .8.1.8.1c0 0 0 1.2 0 1.2c-.1-.1-.2-.1-.5-.1c-.5 0-1.1.2-1.1 1.1c.03 0 0 1 0 1l1.6 0l0 1.2l-1.6 0zm2.3 3.6c0-1.2.9-1.8 2-2c0 0 1.8-.2 1.8-.2c.4-.1.5-.3.5-.5c0-.7-.4-1.2-1.4-1.2c-.9 0-1.4.6-1.5 1.3c0 0-1.2-.3-1.2-.3c.1-1.2 1.2-2.1 2.6-2.1c2 0 2.7 1.1 2.7 2.4c0 0 0 3.3 0 3.3c0 .5.1.9.1 1c0 0-1.2 0-1.2 0c0-.1-.1-.4-.1-.9c-.3.5-.9 1.1-2.1 1.1c-1.3 0-2.2-.9-2.2-1.9c0 0 0 0 0 0zm4.3-1.1c-.03.04 0-.3 0-.3c0 0-2.01.34-2 .3c-.6.1-1 .4-1 1c0 .5.4 1 1.1 1c1 0 1.9-.5 1.9-2zm4-.4c0 1.5.9 2.3 2 2.3c1.2 0 1.6-.9 1.8-1.4c0 0 1.1.5 1.1.5c-.3.9-1.3 2-2.9 2c-1.9 0-3.3-1.5-3.3-3.4c0-2.1 1.4-3.5 3.2-3.5c1.8 0 2.7 1.1 2.9 2.1c0 0-1.1.5-1.1.5c-.2-.7-.7-1.4-1.8-1.4c-1 0-1.9.8-1.9 2.3zm8.1-3.3l1.4 0l0 1.2l-1.4 0c0 0-.03 3.35 0 3.4c0 .5.2.8.9.8c.1 0 .4 0 .5 0c0 0 0 1.1 0 1.1c-.1 0-.5.1-.9.1c-1.1 0-1.8-.7-1.8-1.9c0 .04 0-3.5 0-3.5l-1.2 0l0-1.2c0 0 .31.03.3 0c.7 0 1-.4 1-1c.01.03 0-1 0-1l1.2 0l0 2zm3.1 6.5l0-6.5l1.2 0l0 6.5l-1.2 0zm.6-9.8c.5 0 .9.4.9.9c0 .5-.4.9-.9.9c-.5 0-.9-.4-.9-.9c0-.5.4-.9.9-.9zm7.6 6.6c0-1.5-1-2.3-2-2.3c-1.1 0-2.1.8-2.1 2.3c0 1.5 1 2.3 2.1 2.3c1 0 2-.8 2-2.3zm1.3 0c0 2-1.4 3.4-3.3 3.4c-2 0-3.4-1.4-3.4-3.4c0-2 1.4-3.5 3.4-3.5c1.9 0 3.3 1.5 3.3 3.5zm2.9 3.2l-1.3 0l0-6.5l1.2 0c0 0 .04.96 0 1c.5-.9 1.3-1.2 2-1.2c1.6 0 2.4 1.2 2.4 2.6c-.04 0 0 4.1 0 4.1l-1.3 0c0 0-.01-3.88 0-3.9c0-.9-.4-1.6-1.5-1.6c-1 0-1.5.8-1.5 1.8c-.03-.03 0 3.7 0 3.7zm10.2-2.1c.1.7.6 1.2 1.5 1.2c.7 0 1.1-.4 1.1-.8c0-.4-.3-.7-.8-.9c0 0-1.1-.2-1.1-.2c-1-.2-1.6-.9-1.6-1.8c0-1.1 1-2.1 2.3-2.1c1.7 0 2.3 1.2 2.4 1.8c0 0-1.1.4-1.1.4c0-.4-.3-1.1-1.3-1.1c-.7 0-1.1.4-1.1.9c0 .4.2.6.7.8c0 0 1.1.2 1.1.2c1.2.2 1.8 1 1.8 1.9c0 .9-.8 2-2.4 2c-1.8 0-2.5-1.1-2.6-1.9c0 0 1.1-.4 1.1-.4zm9.8 1.3c-.4.7-1.2 1-1.9 1c-1.6 0-2.5-1.1-2.5-2.6c.03.02 0-4.1 0-4.1l1.3 0c0 0 0 3.93 0 3.9c0 .9.4 1.7 1.5 1.7c1 0 1.5-.7 1.5-1.7c.01.04 0-3.9 0-3.9l1.3 0c0 0-.03 5.32 0 5.3c0 .5 0 1 0 1.2c0 0-1.2 0-1.2 0c0-.1 0-.5 0-.8c0 0 0 0 0 0zm6.9-4.4c-.2 0-.3 0-.5 0c-1.1 0-1.8.5-1.8 2c0-.03 0 3.2 0 3.2l-1.3 0l0-6.5l1.3 0c0 0-.02 1.16 0 1.2c.4-1 1.3-1.3 1.9-1.3c.2 0 .4 0 .4.1c0 0 0 1.3 0 1.3z" stroke="none" fill="#9b78ef"/></g><g id="Polygon167132"><path d="m25.7 10c1.1 0 1.9-1 1.9-2.4c0-1.3-.8-2.2-1.9-2.2c-1.2 0-1.9.9-1.9 2.3c0 1.3.7 2.3 1.9 2.3zm1.9-.1c-.3.7-1 1.2-2 1.2c-2 0-3.1-1.5-3.1-3.4c0-1.9 1.2-3.4 3.1-3.4c1.1 0 1.7.5 1.9 1c.04.05 0-4.2 0-4.2l1.3 0c0 0-.01 8.62 0 8.6c0 .6 0 1.1.1 1.2c0 0-1.3 0-1.3 0c0-.1 0-.5 0-.9c0 0 0-.1 0-.1zm7.7-2.9c0-.9-.6-1.7-1.8-1.7c-1 0-1.7.9-1.7 1.7c0 0 3.5 0 3.5 0zm1.3 2.1c-.4 1.1-1.4 2-2.9 2c-1.7 0-3.3-1.2-3.3-3.4c0-2.1 1.5-3.5 3.1-3.5c2 0 3.1 1.4 3.1 3.4c0 .2 0 .4 0 .4c0 0-4.9 0-4.9 0c.1 1.2.9 2 2 2c1 0 1.6-.6 1.8-1.3c0 0 1.1.4 1.1.4zm6.7-4.7l1.4 0l0 1.2l-1.4 0c0 0 .05 3.35 0 3.4c0 .5.3.8.9.8c.2 0 .4 0 .5 0c0 0 0 1.1 0 1.1c-.1 0-.4.1-.8.1c-1.1 0-1.8-.7-1.8-1.9c-.02.04 0-3.5 0-3.5l-1.3 0l0-1.2c0 0 .39.03.4 0c.7 0 1-.4 1-1c-.01.03 0-1 0-1l1.1 0l0 2zm2.7 4.8c0-1.2.9-1.8 2-2c0 0 1.8-.2 1.8-.2c.4-.1.5-.3.5-.5c0-.7-.5-1.2-1.4-1.2c-.9 0-1.4.6-1.5 1.3c0 0-1.2-.3-1.2-.3c.1-1.2 1.2-2.1 2.6-2.1c2 0 2.7 1.1 2.7 2.4c0 0 0 3.3 0 3.3c0 .5.1.9.1 1c0 0-1.2 0-1.2 0c-.1-.1-.1-.4-.1-.9c-.3.5-.9 1.1-2.1 1.1c-1.3 0-2.2-.9-2.2-1.9c0 0 0 0 0 0zm4.3-1.1c-.04.04 0-.3 0-.3c0 0-2.03.34-2 .3c-.6.1-1 .4-1 1c0 .5.4 1 1.1 1c1 0 1.9-.5 1.9-2zm7.3 2c-.3.7-1.1 1-1.9 1c-1.5 0-2.4-1.1-2.4-2.6c0 .02 0-4.1 0-4.1l1.3 0c0 0-.04 3.93 0 3.9c0 .9.4 1.7 1.4 1.7c1.1 0 1.6-.7 1.6-1.7c-.02.04 0-3.9 0-3.9l1.2 0c0 0 .04 5.32 0 5.3c0 .5.1 1 .1 1.2c0 0-1.2 0-1.2 0c0-.1-.1-.5-.1-.8c0 0 0 0 0 0zm4.9-2.5l-2.4-3.2l1.6 0l1.6 2.3l1.5-2.3l1.5 0c0 0-2.27 3.21-2.3 3.2c.4.5 2 2.8 2.4 3.3c.02.02-1.5 0-1.5 0l-1.7-2.4l-1.6 2.4l-1.5 0l2.4-3.3zm11.2 2.4c1.1 0 1.8-1 1.8-2.4c0-1.3-.7-2.2-1.8-2.2c-1.2 0-1.9.9-1.9 2.3c0 1.3.7 2.3 1.9 2.3zm1.9-.1c-.4.7-1 1.2-2.1 1.2c-1.9 0-3-1.5-3-3.4c0-1.9 1.2-3.4 3-3.4c1.2 0 1.8.5 2 1c.03.05 0-4.2 0-4.2l1.3 0c0 0-.02 8.62 0 8.6c0 .6 0 1.1.1 1.2c0 0-1.3 0-1.3 0c0-.1 0-.5 0-.9c0 0 0-.1 0-.1zm7.7-2.9c0-.9-.6-1.7-1.8-1.7c-1 0-1.7.9-1.7 1.7c0 0 3.5 0 3.5 0zm1.3 2.1c-.4 1.1-1.4 2-2.9 2c-1.8 0-3.3-1.2-3.3-3.4c0-2.1 1.5-3.5 3.1-3.5c2 0 3.1 1.4 3.1 3.4c0 .2 0 .4 0 .4c0 0-4.9 0-4.9 0c.1 1.2.9 2 2 2c1 0 1.6-.6 1.8-1.3c0 0 1.1.4 1.1.4z" stroke="none" fill="#9b78ef"/></g></svg>