<?xml version="1.0" standalone="no"?><!DOCTYPE svg PUBLIC "-//W3C//DTD SVG 1.1//EN" "http://www.w3.org/Graphics/SVG/1.1/DTD/svg11.dtd"><svg xmlns="http://www.w3.org/2000/svg" version="1.1" width="213.4px" height="52.8px" viewBox="0 -3 213.4 52.8" style="top:-3px"><desc>Statut administratif</desc><defs/><g id="Polygon166559"><path d="m6.4 4.3c-.1-.6-.6-1.5-2-1.5c-1 0-1.8.7-1.8 1.4c0 .7.4 1.2 1.2 1.4c0 0 1.5.3 1.5.3c1.8.3 2.8 1.5 2.8 2.9c0 1.6-1.3 3.1-3.6 3.1c-2.6 0-3.8-1.6-4-3.1c0 0 1.6-.5 1.6-.5c.1 1.1.9 2.1 2.4 2.1c1.2 0 1.8-.6 1.8-1.4c0-.7-.5-1.2-1.3-1.4c0 0-1.5-.3-1.5-.3c-1.6-.4-2.6-1.4-2.6-2.9c0-1.7 1.6-3.2 3.5-3.2c2.4 0 3.4 1.5 3.6 2.7c0 0-1.6.4-1.6.4zm5.5.4l1.4 0l0 1.5l-1.4 0c0 0-.03 3.24 0 3.2c0 .7.3.9.9.9c.2 0 .5 0 .6 0c0 0 0 1.4 0 1.4c-.1 0-.5.1-1.1.1c-1.3 0-2.1-.8-2.1-2.1c.01.02 0-3.5 0-3.5l-1.3 0l0-1.5c0 0 .37-.03.4 0c.7 0 1.1-.5 1.1-1.1c-.05-.03 0-1.1 0-1.1l1.5 0l0 2.2zm4.9 3c0 0 1.8-.3 1.8-.3c.4 0 .5-.3.5-.5c0-.6-.4-1.1-1.3-1.1c-.9 0-1.4.6-1.5 1.3c0 0-1.5-.3-1.5-.3c.1-1.3 1.2-2.3 3-2.3c2.1 0 3 1.2 3 2.6c0 0 0 3.5 0 3.5c0 .6 0 1.1 0 1.1c0 0-1.5 0-1.5 0c0 0-.1-.3-.1-.9c-.3.6-1 1.1-2.2 1.1c-1.4 0-2.4-1-2.4-2.1c0-1.2 1-1.9 2.2-2.1zm2.3 1.1c.01 0 0-.3 0-.3c0 0-1.83.26-1.8.3c-.6 0-1 .3-1 .9c0 .5.4.9 1.1.9c.9 0 1.7-.4 1.7-1.8zm5.8-4.1l1.5 0l0 1.5l-1.5 0c0 0 0 3.24 0 3.2c0 .7.3.9.9.9c.2 0 .5 0 .6 0c0 0 0 1.4 0 1.4c-.1 0-.4.1-1.1.1c-1.3 0-2.1-.8-2.1-2.1c.03.02 0-3.5 0-3.5l-1.3 0l0-1.5c0 0 .39-.03.4 0c.7 0 1.1-.5 1.1-1.1c-.03-.03 0-1.1 0-1.1l1.5 0l0 2.2zm7.8 6.2c-.4.7-1.2 1-2 1c-1.7 0-2.7-1.2-2.7-2.8c.03.02 0-4.4 0-4.4l1.7 0c0 0 .01 4.12 0 4.1c0 .9.4 1.6 1.4 1.6c1 0 1.5-.6 1.5-1.6c.01.05 0-4.1 0-4.1l1.7 0c0 0-.01 5.74 0 5.7c0 .6 0 1.1.1 1.3c0 0-1.6 0-1.6 0c-.1-.1-.1-.5-.1-.8c0 0 0 0 0 0zm5.9-6.2l1.5 0l0 1.5l-1.5 0c0 0 0 3.24 0 3.2c0 .7.3.9.9.9c.2 0 .5 0 .6 0c0 0 0 1.4 0 1.4c-.1 0-.4.1-1.1.1c-1.3 0-2.1-.8-2.1-2.1c.03.02 0-3.5 0-3.5l-1.3 0l0-1.5c0 0 .39-.03.4 0c.7 0 1.1-.5 1.1-1.1c-.02-.03 0-1.1 0-1.1l1.5 0l0 2.2zm8.5 3c0 0 1.8-.3 1.8-.3c.4 0 .5-.3.5-.5c0-.6-.4-1.1-1.3-1.1c-.9 0-1.4.6-1.5 1.3c0 0-1.5-.3-1.5-.3c.1-1.3 1.2-2.3 2.9-2.3c2.2 0 3 1.2 3 2.6c0 0 0 3.5 0 3.5c0 .6.1 1.1.1 1.1c0 0-1.5 0-1.5 0c-.1 0-.1-.3-.1-.9c-.3.6-1 1.1-2.2 1.1c-1.5 0-2.4-1-2.4-2.1c0-1.2.9-1.9 2.2-2.1zm2.3 1.1c-.01 0 0-.3 0-.3c0 0-1.86.26-1.9.3c-.5 0-.9.3-.9.9c0 .5.4.9 1 .9c1 0 1.8-.4 1.8-1.8zm6.7 1.6c1.1 0 1.9-.9 1.9-2.2c0-1.4-.8-2.2-1.9-2.2c-1.1 0-1.9.8-1.9 2.2c0 1.3.7 2.2 1.9 2.2zm3.5 0c0 .7 0 1.2.1 1.3c0 0-1.7 0-1.7 0c0-.1 0-.6 0-.9c-.4.6-1.1 1.1-2.1 1.1c-2 0-3.4-1.6-3.4-3.7c0-2.1 1.4-3.7 3.4-3.7c1.2 0 1.8.5 2 1c.04 0 0-4.3 0-4.3l1.7 0c0 0-.02 9.24 0 9.2zm2.2 1.3l0-7l1.6 0c0 0-.01.87 0 .9c.4-.8 1.3-1.1 2.1-1.1c.9 0 1.7.4 2.1 1.2c.5-.9 1.4-1.2 2.3-1.2c1.3 0 2.5.8 2.5 2.6c-.02.05 0 4.6 0 4.6l-1.6 0c0 0-.04-4.28 0-4.3c0-.8-.5-1.4-1.4-1.4c-.9 0-1.5.7-1.5 1.5c.03.04 0 4.2 0 4.2l-1.6 0c0 0-.02-4.28 0-4.3c0-.8-.4-1.4-1.4-1.4c-.9 0-1.4.6-1.4 1.5c-.05.04 0 4.2 0 4.2l-1.7 0zm12.6 0l0-7l1.7 0l0 7l-1.7 0zm.9-10.6c.6 0 1.1.5 1.1 1.1c0 .6-.5 1.1-1.1 1.1c-.6 0-1.1-.5-1.1-1.1c0-.6.5-1.1 1.1-1.1zm4.7 10.6l-1.7 0l0-7l1.6 0c0 0 .02.91 0 .9c.5-.8 1.3-1.1 2.1-1.1c1.7 0 2.6 1.2 2.6 2.8c-.04-.04 0 4.4 0 4.4l-1.7 0c0 0-.02-4.15 0-4.1c0-.9-.4-1.6-1.5-1.6c-.9 0-1.4.7-1.4 1.7c-.03-.05 0 4 0 4zm6.6 0l0-7l1.7 0l0 7l-1.7 0zm.8-10.6c.6 0 1.1.5 1.1 1.1c0 .6-.5 1.1-1.1 1.1c-.6 0-1.1-.5-1.1-1.1c0-.6.5-1.1 1.1-1.1zm3.9 8.3c0 .6.5 1.2 1.4 1.2c.7 0 1.1-.4 1.1-.8c0-.4-.3-.7-.8-.8c0 0-1.1-.2-1.1-.2c-1.2-.3-1.9-1.1-1.9-2.1c0-1.2 1.1-2.2 2.6-2.2c2 0 2.6 1.2 2.7 1.9c0 0-1.4.4-1.4.4c0-.4-.3-1-1.3-1c-.6 0-1 .3-1 .8c0 .4.3.6.7.7c0 0 1.1.2 1.1.2c1.3.3 2 1.1 2 2.2c0 1.1-.9 2.2-2.7 2.2c-2 0-2.8-1.3-2.9-2.1c0 0 1.5-.4 1.5-.4zm7.9-4.7l1.5 0l0 1.5l-1.5 0c0 0 .01 3.24 0 3.2c0 .7.3.9.9.9c.2 0 .5 0 .6 0c0 0 0 1.4 0 1.4c-.1 0-.4.1-1 .1c-1.3 0-2.2-.8-2.2-2.1c.04.02 0-3.5 0-3.5l-1.3 0l0-1.5c0 0 .4-.03.4 0c.8 0 1.1-.5 1.1-1.1c-.01-.03 0-1.1 0-1.1l1.5 0l0 2.2zm7.2 1.6c-.2 0-.4 0-.6 0c-1.3 0-1.9.7-1.9 2.1c.05-.03 0 3.3 0 3.3l-1.6 0l0-7l1.6 0c0 0 0 1.1 0 1.1c.3-.8 1.1-1.2 2-1.2c.3 0 .4 0 .5 0c0 0 0 1.7 0 1.7zm3.1 1.4c0 0 1.8-.3 1.8-.3c.4 0 .6-.3.6-.5c0-.6-.5-1.1-1.4-1.1c-.9 0-1.4.6-1.4 1.3c0 0-1.6-.3-1.6-.3c.2-1.3 1.3-2.3 3-2.3c2.2 0 3 1.2 3 2.6c0 0 0 3.5 0 3.5c0 .6.1 1.1.1 1.1c0 0-1.6 0-1.6 0c0 0 0-.3 0-.9c-.4.6-1.1 1.1-2.2 1.1c-1.5 0-2.4-1-2.4-2.1c0-1.2.9-1.9 2.1-2.1zm2.4 1.1c-.05 0 0-.3 0-.3c0 0-1.89.26-1.9.3c-.5 0-.9.3-.9.9c0 .5.3.9 1 .9c.9 0 1.8-.4 1.8-1.8zm5.7-4.1l1.5 0l0 1.5l-1.5 0c0 0 .04 3.24 0 3.2c0 .7.3.9.9.9c.3 0 .5 0 .6 0c0 0 0 1.4 0 1.4c-.1 0-.4.1-1 .1c-1.3 0-2.1-.8-2.1-2.1c-.03.02 0-3.5 0-3.5l-1.3 0l0-1.5c0 0 .33-.03.3 0c.8 0 1.1-.5 1.1-1.1c.01-.03 0-1.1 0-1.1l1.5 0l0 2.2zm3.2 7l0-7l1.7 0l0 7l-1.7 0zm.9-10.6c.6 0 1.1.5 1.1 1.1c0 .6-.5 1.1-1.1 1.1c-.6 0-1.1-.5-1.1-1.1c0-.6.5-1.1 1.1-1.1zm5.1 2.6c-.04.04 0 1 0 1l1.6 0l0 1.4l-1.6 0l0 5.6l-1.7 0l0-5.6l-1.3 0l0-1.4l1.3 0c0 0-.04-1 0-1c0-1.6 1-2.5 2.4-2.5c.4 0 .8 0 .9.1c0 0 0 1.4 0 1.4c-.1 0-.3 0-.6 0c-.4 0-1 .2-1 1z" stroke="none" fill="#9b78ef"/></g></svg>