<?xml version="1.0" standalone="no"?><!DOCTYPE svg PUBLIC "-//W3C//DTD SVG 1.1//EN" "http://www.w3.org/Graphics/SVG/1.1/DTD/svg11.dtd"><svg xmlns="http://www.w3.org/2000/svg" version="1.1" width="194.3px" height="72.1px" viewBox="0 -10 194.3 72.1" style="top:-10px"><desc>11,8 M</desc><defs/><g id="Polygon179942"><path d="m44 15.6l9.9-6.6c0 0 .03 17.98 0 18c0 2.5 1.4 3 1.9 3.2c.04.01 0 .7 0 .7l-10.6 0c0 0 .02-.69 0-.7c.7-.2 2.1-.7 2.1-3.3c0 0 0-7.8 0-7.8c0-2.7-2.1-3.1-3.3-2.7c-.03.03 0-.8 0-.8zm13.8 0l10-6.6c0 0 0 17.98 0 18c0 2.5 1.4 3 1.9 3.2c.01.01 0 .7 0 .7l-10.6 0c0 0-.02-.69 0-.7c.7-.2 2.1-.7 2.1-3.3c0 0 0-7.8 0-7.8c0-2.7-2.1-3.1-3.4-2.7c.04.03 0-.8 0-.8zm14.6 21.3c3.1-1.6 5-4.9 5.2-6.9c0 0-.2 0-.2 0c-.3 1-1.1 1.5-2.2 1.5c-1.3 0-3.2-1.3-3.2-3.8c0-2.1 1.6-3.7 3.8-3.7c2.7 0 3.9 2.1 3.9 4.5c0 1.8-1 6-7.3 9.1c0 0 0-.7 0-.7zm29.7-14.3c0 5.5-4.4 8.9-10.4 8.9c-4.7 0-9.8-2.1-9.8-7.9c0-3.2 2-5 5.2-6.6c-2.6-1.6-4.7-3.6-4.7-7.2c0-6 4.7-9.3 9.8-9.3c5.1 0 8.5 3.4 8.5 6.6c0 3.2-2.6 5.4-4.8 6.5c3.2 1.8 6.2 4.2 6.2 9zm-14-16.7c0 3.5 3.2 5.1 6.5 7c1.4-1.8 1.8-3.7 1.8-6.5c0-3.1-2-5-4.3-5c-2.5 0-4 1.8-4 4.5zm8.1 19.2c0-4-4-5.4-7.7-7.4c-1.4 1.8-1.9 4.5-1.9 6.1c0 3.4 2 6.7 5.1 6.7c3.4 0 4.5-2 4.5-5.4zm53.9 5.2c-.05-.04 0 .6 0 .6l-11.4 0c0 0-.02-.64 0-.6c1-.3 2.3-1.4 2.2-3.4c0 0-1.1-18.9-1.1-18.9c-1.5 4.9-4.1 14.2-4.6 16.5c-.5 2.6 0 4.5.1 4.7c-2.1 1.1-4 2.3-5.9 4c.03-.04-7.1-25.6-7.1-25.6c0 0-1.51 18.09-1.5 18.1c-.3 3.8 3.1 4.3 4.1 4.6c-.04-.04 0 .6 0 .6l-9.3 0c0 0 .01-.64 0-.6c1-.3 3.8-1.4 4.1-4.6c0 0 1.8-19.4 1.8-19.4c.2-2.5-2.1-4.3-4.2-4.6c-.03-.04 0-.7 0-.7l10.4 0l6.3 23.7c0 0 4.47-15.98 4.5-16c.9-3.3 1.1-6.4 1.1-7.7c0 .04 9.4 0 9.4 0c0 0 .02.66 0 .7c-1.2.3-2.6 1.9-2.5 3.3c.2 1.8.9 15.5 1.5 21.7c.2 2.2 1 3.3 2.1 3.6z" stroke="none" fill="#ffaf7a"/></g></svg>