<?xml version="1.0" standalone="no"?><!DOCTYPE svg PUBLIC "-//W3C//DTD SVG 1.1//EN" "http://www.w3.org/Graphics/SVG/1.1/DTD/svg11.dtd"><svg xmlns="http://www.w3.org/2000/svg" version="1.1" width="42.2px" height="43.6px" viewBox="0 -3 42.2 43.6" style="top:-3px"><desc>Autres 1 %</desc><defs/><g id="Polygon165268"><path d="m2.5 27.1l0-6.1l-2.2 0c0 0 .04-.98 0-1c1.3 0 2.1-.7 2.3-1.6c-.01-.03 1.2 0 1.2 0l0 8.7l-1.3 0zm6.3-5.6c.6 0 1.1-.5 1.1-1.1c0-.6-.5-1.1-1.1-1.1c-.6 0-1 .5-1 1.1c0 .6.4 1.1 1 1.1zm0-3.2c1.2 0 2.2.9 2.2 2.1c0 1.2-1 2.1-2.2 2.1c-1.1 0-2.1-.9-2.1-2.1c0-1.2 1-2.1 2.1-2.1zm5.4 7.9c.6 0 1-.5 1-1.1c0-.6-.4-1.1-1-1.1c-.6 0-1.1.5-1.1 1.1c0 .6.5 1.1 1.1 1.1zm0-3.2c1.1 0 2.1.9 2.1 2.1c0 1.2-1 2.1-2.1 2.1c-1.2 0-2.2-.9-2.2-2.1c0-1.2 1-2.1 2.2-2.1zm-6.5 4.1l6.3-8.7l1.2 0l-6.2 8.7l-1.3 0z" stroke="none" fill="#3b6966"/></g><g id="Polygon165267"><path d="m6.8 8.2l-4.2 0l-1 2.7l-1.5 0l3.8-9.5l1.6 0l3.8 9.5l-1.5 0l-1-2.7zm-3.8-1.2l3.3 0l-1.6-4.3l-1.7 4.3zm11.4 3.1c-.3.7-1.1 1-1.9 1c-1.5 0-2.4-1.1-2.4-2.6c-.01.02 0-4.1 0-4.1l1.3 0c0 0-.05 3.93 0 3.9c0 .9.4 1.7 1.4 1.7c1.1 0 1.6-.7 1.6-1.7c-.04.04 0-3.9 0-3.9l1.2 0c0 0 .03 5.32 0 5.3c0 .5.1 1 .1 1.2c0 0-1.2 0-1.2 0c0-.1-.1-.5-.1-.8c0 0 0 0 0 0zm5.1-5.7l1.4 0l0 1.2l-1.4 0c0 0-.01 3.35 0 3.4c0 .5.2.8.9.8c.2 0 .4 0 .5 0c0 0 0 1.1 0 1.1c-.1 0-.4.1-.9.1c-1.1 0-1.8-.7-1.8-1.9c.03.04 0-3.5 0-3.5l-1.2 0l0-1.2c0 0 .33.03.3 0c.7 0 1-.4 1-1c.03.03 0-1 0-1l1.2 0l0 2zm6.6 1.3c-.2 0-.4 0-.6 0c-1.1 0-1.8.5-1.8 2c.02-.03 0 3.2 0 3.2l-1.2 0l0-6.5l1.2 0c0 0-.01 1.16 0 1.2c.5-1 1.3-1.3 1.9-1.3c.2 0 .4 0 .5.1c0 0 0 1.3 0 1.3zm5.6 1.3c0-.9-.6-1.7-1.8-1.7c-1 0-1.7.9-1.7 1.7c0 0 3.5 0 3.5 0zm1.3 2.1c-.4 1.1-1.4 2-2.9 2c-1.8 0-3.3-1.2-3.3-3.4c0-2.1 1.5-3.5 3.1-3.5c2 0 3.1 1.4 3.1 3.4c0 .2 0 .4 0 .4c0 0-4.9 0-4.9 0c0 1.2.9 2 2 2c1 0 1.6-.6 1.8-1.3c0 0 1.1.4 1.1.4zm2.2-.3c.1.7.6 1.2 1.5 1.2c.7 0 1.1-.4 1.1-.8c0-.4-.3-.7-.8-.9c0 0-1.1-.2-1.1-.2c-1-.2-1.6-.9-1.6-1.8c0-1.1 1-2.1 2.3-2.1c1.7 0 2.3 1.2 2.4 1.8c0 0-1.1.4-1.1.4c0-.4-.3-1.1-1.3-1.1c-.7 0-1.1.4-1.1.9c0 .4.2.6.7.8c0 0 1.1.2 1.1.2c1.1.2 1.8 1 1.8 1.9c0 .9-.8 2-2.4 2c-1.8 0-2.5-1.1-2.7-1.9c0 0 1.2-.4 1.2-.4z" stroke="none" fill="#fff"/></g></svg>