<?xml version="1.0" standalone="no"?><!DOCTYPE svg PUBLIC "-//W3C//DTD SVG 1.1//EN" "http://www.w3.org/Graphics/SVG/1.1/DTD/svg11.dtd"><svg xmlns="http://www.w3.org/2000/svg" version="1.1" width="65.5px" height="19px" viewBox="0 -3 65.5 19" style="top:-3px"><desc>Et</desc><defs/><g id="Polygon178014"><path d="m.9 8.5l0-7.4l4.6 0l0 .9l-3.5 0l0 2.3l3.1 0l0 1l-3.1 0l0 2.2l3.5 0l0 1l-4.6 0zm7.4-5.1l1.1 0l0 .9l-1.1 0c0 0-.04 2.66 0 2.7c0 .4.2.7.7.7c.1 0 .3-.1.4-.1c0 0 0 .9 0 .9c-.1 0-.4 0-.7 0c-.9 0-1.4-.5-1.4-1.4c-.02.01 0-2.8 0-2.8l-1 0l0-.9c0 0 .28.04.3 0c.5 0 .8-.3.8-.7c-.04-.03 0-.9 0-.9l.9 0l0 1.6z" stroke="none" fill="#144542"/></g></svg>