<?xml version="1.0" standalone="no"?><!DOCTYPE svg PUBLIC "-//W3C//DTD SVG 1.1//EN" "http://www.w3.org/Graphics/SVG/1.1/DTD/svg11.dtd"><svg xmlns="http://www.w3.org/2000/svg" version="1.1" width="148px" height="76.8px" viewBox="0 -12 148 76.8" style="top:-12px"><desc>5 000</desc><defs/><g id="Polygon164414"><path d="m40.6 35c0 5.6-4.6 13.1-12.9 13.1c-8.3 0-10.4-4.1-10.4-7.7c0-2.9 2.1-5.2 4-5.2c2.1 0 4.2 1.2 3.9 4.1c-.1 1.6-1.6 2.3-1.6 4c0 2.4 1.5 3.6 3.9 3.6c3.4 0 6-2.8 6.5-7.8c.7-6.2-3-9.5-7.1-9.5c-3.3 0-5.2 1.3-6.8 2.8c-.03-.03-.9 0-.9 0l3.5-20.3c0 0 10.53-.03 10.5 0c2.9 0 5.7-.9 6.8-3.1c-.02.02.8 0 .8 0l-2.8 10.4l-15.5 0c0 0-1.54 9.08-1.5 9.1c2.5-3.5 5.8-4.7 9.4-4.7c6.7 0 10.2 5.7 10.2 11.2zm8.2-10.6c0-7.2 5.1-13 12.7-13c8.1 0 12.7 5.8 12.7 13c0 7.1-4.6 13-12.7 13c-7.6 0-12.7-5.9-12.7-13zm16.8 0c0-6-.3-11.9-4.1-11.9c-3.8 0-4.1 5.9-4.1 11.9c0 5.9.3 11.9 4.1 11.9c3.8 0 4.1-6 4.1-11.9zm11.1 0c0-7.2 5.2-13 12.7-13c8.2 0 12.7 5.8 12.7 13c0 7.1-4.5 13-12.7 13c-7.5 0-12.7-5.9-12.7-13zm16.8 0c0-6-.3-11.9-4.1-11.9c-3.7 0-4 5.9-4 11.9c0 5.9.3 11.9 4 11.9c3.8 0 4.1-6 4.1-11.9zm11.2 0c0-7.2 5.1-13 12.7-13c8.1 0 12.7 5.8 12.7 13c0 7.1-4.6 13-12.7 13c-7.6 0-12.7-5.9-12.7-13zm16.8 0c0-6-.3-11.9-4.1-11.9c-3.8 0-4.1 5.9-4.1 11.9c0 5.9.3 11.9 4.1 11.9c3.8 0 4.1-6 4.1-11.9z" stroke="none" fill="#fff"/></g></svg>