<?xml version="1.0" standalone="no"?><!DOCTYPE svg PUBLIC "-//W3C//DTD SVG 1.1//EN" "http://www.w3.org/Graphics/SVG/1.1/DTD/svg11.dtd"><svg xmlns="http://www.w3.org/2000/svg" version="1.1" width="162px" height="44.6px" viewBox="0 -3 162 44.6" style="top:-3px"><desc>Rapprochons nous !</desc><defs/><g id="Polygon187596"><path d="m4 7.1l-1.2 0l0 3.8l-1.7 0l0-9.5c0 0 3.72-.05 3.7 0c1.9 0 3 1.2 3 2.9c0 1.3-.8 2.4-2.1 2.7c-.04-.02 2.1 3.9 2.1 3.9l-1.8 0l-2-3.8zm.5-1.4c1 0 1.7-.6 1.7-1.4c0-.9-.7-1.5-1.7-1.5c.02-.02-1.7 0-1.7 0l0 2.9c0 0 1.72.01 1.7 0zm6.4 1.5c0 0 1.7-.3 1.7-.3c.4-.1.5-.2.5-.5c0-.5-.4-1-1.3-1c-.8 0-1.3.6-1.3 1.2c0 0-1.5-.3-1.5-.3c.2-1.1 1.2-2.2 2.8-2.2c2 0 2.8 1.2 2.8 2.5c0 0 0 3.3 0 3.3c0 .6.1 1 .1 1c0 0-1.5 0-1.5 0c0 0 0-.3 0-.8c-.3.5-1 1-2.1 1c-1.3 0-2.2-.9-2.2-2c0-1.1.9-1.8 2-1.9zm2.2 1c-.03-.01 0-.3 0-.3c0 0-1.75.25-1.7.3c-.5 0-.9.3-.9.8c0 .5.3.9.9.9c.9 0 1.7-.4 1.7-1.7zm3.4 5.3l0-9.2l1.5 0c0 0 .01.94 0 .9c.3-.5 1.1-1 2.1-1c1.9 0 3 1.5 3 3.4c0 2-1.2 3.5-3.1 3.5c-.9 0-1.6-.4-2-.9c.05-.02 0 3.3 0 3.3l-1.5 0zm5.1-5.9c0-1.2-.7-2-1.8-2c-1 0-1.8.8-1.8 2c0 1.3.8 2.1 1.8 2.1c1 0 1.8-.8 1.8-2.1c0 0 0 0 0 0zm3.1 5.9l0-9.2l1.5 0c0 0-.04.94 0 .9c.3-.5 1-1 2.1-1c1.9 0 3 1.5 3 3.4c0 2-1.2 3.5-3.1 3.5c-.9 0-1.7-.4-2-.9c0-.02 0 3.3 0 3.3l-1.5 0zm5-5.9c0-1.2-.7-2-1.7-2c-1.1 0-1.8.8-1.8 2c0 1.3.7 2.1 1.8 2.1c1 0 1.7-.8 1.7-2.1c0 0 0 0 0 0zm7-1.7c-.2 0-.4 0-.6 0c-1.2 0-1.7.7-1.7 1.9c-.03-.01 0 3.1 0 3.1l-1.6 0l0-6.6l1.5 0c0 0 .03 1.1 0 1.1c.3-.7 1.1-1.1 1.9-1.1c.2 0 .4 0 .5 0c0 0 0 1.6 0 1.6zm5.9 1.7c0-1.3-.8-2-1.8-2c-1 0-1.9.7-1.9 2c0 1.4.9 2.1 1.9 2.1c1 0 1.8-.7 1.8-2.1zm1.6 0c0 2.1-1.4 3.5-3.4 3.5c-2 0-3.4-1.4-3.4-3.5c0-2 1.4-3.5 3.4-3.5c2 0 3.4 1.5 3.4 3.5zm2.6 0c0 1.4.8 2.1 1.8 2.1c1 0 1.5-.7 1.6-1.2c0 0 1.4.5 1.4.5c-.3 1-1.3 2.1-3 2.1c-1.9 0-3.4-1.5-3.4-3.5c0-2 1.5-3.5 3.4-3.5c1.7 0 2.7 1.2 3 2.2c0 0-1.4.5-1.4.5c-.2-.6-.6-1.2-1.6-1.2c-1 0-1.8.7-1.8 2zm7.8 3.3l-1.6 0l0-9.8l1.6 0c0 0-.02 3.88 0 3.9c.4-.6 1.2-.8 1.9-.8c1.6 0 2.4 1.1 2.4 2.6c-.04-.04 0 4.1 0 4.1l-1.6 0c0 0-.01-3.87 0-3.9c0-.8-.4-1.4-1.4-1.4c-.8 0-1.3.6-1.3 1.5c-.02-.04 0 3.8 0 3.8zm10.9-3.3c0-1.3-.9-2-1.8-2c-1 0-1.9.7-1.9 2c0 1.4.9 2.1 1.9 2.1c.9 0 1.8-.7 1.8-2.1zm1.6 0c0 2.1-1.5 3.5-3.4 3.5c-2 0-3.4-1.4-3.4-3.5c0-2 1.4-3.5 3.4-3.5c1.9 0 3.4 1.5 3.4 3.5zm3 3.3l-1.5 0l0-6.6l1.5 0c0 0 0 .92 0 .9c.4-.7 1.2-1 1.9-1c1.7 0 2.4 1.1 2.4 2.6c.02-.04 0 4.1 0 4.1l-1.5 0c0 0-.04-3.87 0-3.9c0-.8-.4-1.4-1.4-1.4c-.9 0-1.4.7-1.4 1.5c.04.03 0 3.8 0 3.8zm7-2.1c.1.6.5 1.1 1.3 1.1c.7 0 1-.4 1-.8c0-.3-.2-.6-.7-.7c0 0-1-.2-1-.2c-1.2-.3-1.8-1-1.8-1.9c0-1.2 1.1-2.2 2.4-2.2c1.9 0 2.5 1.2 2.6 1.9c0 0-1.3.4-1.3.4c-.1-.4-.4-1-1.3-1c-.5 0-.9.3-.9.7c0 .4.3.6.7.7c0 0 1 .2 1 .2c1.2.3 1.8 1 1.8 2c0 1-.8 2.1-2.4 2.1c-1.9 0-2.7-1.2-2.8-2c0 0 1.4-.3 1.4-.3zm5-1.1l0-1.4l3.8 0l0 1.4l-3.8 0zm7 3.2l-1.6 0l0-6.6l1.5 0c0 0 .04.92 0 .9c.5-.7 1.3-1 2-1c1.6 0 2.4 1.1 2.4 2.6c-.04-.04 0 4.1 0 4.1l-1.6 0c0 0 0-3.87 0-3.9c0-.8-.4-1.4-1.4-1.4c-.8 0-1.3.7-1.3 1.5c-.02.03 0 3.8 0 3.8zm10.9-3.3c0-1.3-.9-2-1.8-2c-1 0-1.9.7-1.9 2c0 1.4.9 2.1 1.9 2.1c.9 0 1.8-.7 1.8-2.1zm1.6 0c0 2.1-1.5 3.5-3.4 3.5c-2 0-3.4-1.4-3.4-3.5c0-2 1.4-3.5 3.4-3.5c1.9 0 3.4 1.5 3.4 3.5zm5.7 2.6c-.3.6-1.1.9-1.8.9c-1.6 0-2.5-1.2-2.5-2.6c-.02-.01 0-4.2 0-4.2l1.5 0c0 0 .04 3.91 0 3.9c0 .8.4 1.5 1.4 1.5c.9 0 1.3-.6 1.3-1.5c.04.04 0-3.9 0-3.9l1.6 0c0 0 .01 5.42 0 5.4c0 .6 0 1 .1 1.2c0 0-1.5 0-1.5 0c0-.1-.1-.4-.1-.7c0 0 0 0 0 0zm4.3-1.4c.1.6.5 1.1 1.4 1.1c.6 0 .9-.4.9-.8c0-.3-.2-.6-.7-.7c0 0-1-.2-1-.2c-1.2-.3-1.8-1-1.8-1.9c0-1.2 1.1-2.2 2.4-2.2c1.9 0 2.5 1.2 2.6 1.9c0 0-1.3.4-1.3.4c-.1-.4-.4-1-1.3-1c-.5 0-.9.3-.9.7c0 .4.3.6.7.7c0 0 1 .2 1 .2c1.2.3 1.8 1 1.8 2c0 1-.8 2.1-2.4 2.1c-1.9 0-2.7-1.2-2.7-2c0 0 1.3-.3 1.3-.3zm8.8-.7l-1.1 0l-.4-6.7l1.9 0l-.4 6.7zm-.5.9c.5 0 .9.5.9 1c0 .6-.4 1-.9 1c-.6 0-1-.4-1-1c0-.5.4-1 1-1z" stroke="none" fill="#fff"/></g></svg>