<?xml version="1.0" standalone="no"?><!DOCTYPE svg PUBLIC "-//W3C//DTD SVG 1.1//EN" "http://www.w3.org/Graphics/SVG/1.1/DTD/svg11.dtd"><svg xmlns="http://www.w3.org/2000/svg" version="1.1" width="194.3px" height="72.1px" viewBox="0 -10 194.3 72.1" style="top:-10px"><desc>35 M</desc><defs/><g id="Polygon179991"><path d="m72.6 31.5c0 7.3-7.1 9.3-11.2 9.2c-7.2-.2-9.2-3.7-9.2-6.8c0-2.2 2-3.9 3.6-3.9c1.8 0 3.6 1 3.6 3.2c0 1.6-1.2 2.4-1.2 3.5c0 1 .5 3.1 3.2 3.1c2.9 0 4.2-2.9 4.2-7.5c0-4.8-2.7-7.8-9.7-5.9c0 0-.4-.7-.4-.7c5.2-2.3 9.6-5.6 9.6-9.9c0-2.4-1-5.3-3.8-5.3c-2.1 0-3.4 1.5-3.4 2.7c0 2.1 1.8 2.5 1.8 4.3c0 1.5-1.3 2.7-2.7 2.7c-2.3 0-3.7-1.5-3.7-3.7c0-3.2 3.1-6.9 8.5-6.9c6 0 9.2 2.4 9.2 6.7c0 3.5-3.6 6.2-8.4 7.7c0 0 0 .2 0 .2c6.5-.5 10 2.8 10 7.3zm20.7-2c0 4.7-3.9 11-10.9 11c-6.9 0-8.7-3.4-8.7-6.5c0-2.4 1.7-4.3 3.4-4.3c1.7 0 3.5.9 3.3 3.4c-.2 1.4-1.4 2-1.4 3.4c0 2 1.3 3 3.3 3c2.8 0 5-2.4 5.5-6.6c.5-5.2-2.6-8-6.1-8c-2.7 0-4.3 1.1-5.7 2.4c.01-.03-.7 0-.7 0l2.9-17.1c0 0 8.89-.03 8.9 0c2.4 0 4.8-.8 5.7-2.6c-.02-.01.7 0 .7 0l-2.4 8.7l-13.1 0c0 0-1.24 7.69-1.2 7.7c2.1-2.9 4.9-4 7.9-4c5.7 0 8.6 4.9 8.6 9.5zm47.7.8c.05-.04 0 .6 0 .6l-11.3 0c0 0-.02-.64 0-.6c1-.3 2.3-1.4 2.2-3.4c0 0-1.1-18.9-1.1-18.9c-1.5 4.9-4.1 14.2-4.6 16.5c-.5 2.6 0 4.5.1 4.7c-2.1 1.1-4.1 2.3-5.9 4c.02-.04-7.1-25.6-7.1-25.6c0 0-1.51 18.09-1.5 18.1c-.3 3.8 3.1 4.3 4.1 4.6c-.04-.04 0 .6 0 .6l-9.3 0c0 0 0-.64 0-.6c1-.3 3.8-1.4 4.1-4.6c0 0 1.8-19.4 1.8-19.4c.2-2.5-2.1-4.3-4.2-4.6c-.04-.04 0-.7 0-.7l10.4 0l6.3 23.7c0 0 4.47-15.98 4.5-16c.9-3.3 1-6.4 1.1-7.7c-.01.04 9.4 0 9.4 0c0 0 .01.66 0 .7c-1.2.3-2.6 1.9-2.5 3.3c.1 1.8.9 15.5 1.5 21.7c.2 2.2 1 3.3 2 3.6z" stroke="none" fill="#ffaf7a"/></g></svg>