<?xml version="1.0" standalone="no"?><!DOCTYPE svg PUBLIC "-//W3C//DTD SVG 1.1//EN" "http://www.w3.org/Graphics/SVG/1.1/DTD/svg11.dtd"><svg xmlns="http://www.w3.org/2000/svg" version="1.1" width="107px" height="17px" viewBox="0 -3 107 17" style="top:-3px"><desc>depuis nos d buts</desc><defs/><g id="Polygon179893"><path d="m3 7.6c.8 0 1.3-.7 1.3-1.7c0-1-.5-1.6-1.3-1.6c-.8 0-1.4.6-1.4 1.6c0 1 .6 1.7 1.4 1.7zm2.5 0c0 .4.1.8.1.9c0 0-1.2 0-1.2 0c0-.1-.1-.5-.1-.7c-.2.5-.7.8-1.5.8c-1.4 0-2.4-1.1-2.4-2.7c0-1.4 1-2.7 2.4-2.7c.9 0 1.4.5 1.5.8c.03-.02 0-3.1 0-3.1l1.2 0c0 0 .01 6.66 0 6.7zm5-2.2c-.1-.6-.5-1.2-1.3-1.2c-.8 0-1.2.6-1.2 1.2c0 0 2.5 0 2.5 0zm1.1 1.6c-.2.9-1 1.7-2.3 1.7c-1.4 0-2.6-1.1-2.6-2.8c0-1.6 1.2-2.7 2.5-2.7c1.6 0 2.5 1.1 2.5 2.7c0 .2 0 .3 0 .4c0 0-3.8 0-3.8 0c.1.7.7 1.3 1.4 1.3c.8 0 1.1-.4 1.3-.9c0 0 1 .3 1 .3zm1.3 3.5l0-7.1l1.1 0c0 0 .04.67 0 .7c.3-.5.9-.8 1.7-.8c1.5 0 2.3 1.1 2.3 2.6c0 1.6-.9 2.7-2.4 2.7c-.7 0-1.3-.3-1.5-.7c-.03.02 0 2.6 0 2.6l-1.2 0zm3.9-4.6c0-.9-.5-1.6-1.4-1.6c-.8 0-1.3.7-1.3 1.6c0 1 .5 1.6 1.3 1.6c.8 0 1.4-.6 1.4-1.6c0 0 0 0 0 0zm5.7 2c-.3.5-.8.7-1.4.7c-1.3 0-2-.9-2-2c.02.01 0-3.2 0-3.2l1.2 0c0 0 .04 2.98 0 3c0 .6.3 1.2 1.1 1.2c.7 0 1-.5 1-1.2c.04.01 0-3 0-3l1.3 0c0 0-.04 4.16 0 4.2c0 .4 0 .7 0 .9c0 0-1.2 0-1.2 0c0-.1 0-.4 0-.6c0 0 0 0 0 0zm2.7.6l0-5.1l1.2 0l0 5.1l-1.2 0zm.6-7.7c.5 0 .8.3.8.8c0 .4-.3.8-.8.8c-.4 0-.8-.4-.8-.8c0-.5.4-.8.8-.8zm2.8 6c.1.5.4.9 1.1.9c.5 0 .7-.3.7-.6c0-.3-.2-.5-.6-.6c0 0-.7-.1-.7-.1c-.9-.2-1.4-.8-1.4-1.5c0-.9.8-1.7 1.9-1.7c1.4 0 1.9.9 2 1.5c0 0-1.1.2-1.1.2c0-.2-.2-.7-.9-.7c-.5 0-.8.3-.8.6c0 .2.2.4.6.5c0 0 .7.2.7.2c1 .2 1.5.8 1.5 1.5c0 .8-.6 1.7-1.9 1.7c-1.5 0-2.1-1-2.1-1.6c0 0 1-.3 1-.3zm8 1.7l-1.2 0l0-5.1l1.2 0c0 0 0 .66 0 .7c.3-.6.9-.9 1.5-.9c1.3 0 1.9.9 1.9 2.1c-.04-.04 0 3.2 0 3.2l-1.3 0c0 0 .05-3.03 0-3c0-.7-.2-1.2-1-1.2c-.7 0-1.1.6-1.1 1.2c.03.04 0 3 0 3zm8.5-2.6c0-1-.7-1.6-1.4-1.6c-.8 0-1.4.6-1.4 1.6c0 1.1.6 1.7 1.4 1.7c.7 0 1.4-.6 1.4-1.7zm1.2 0c0 1.6-1.1 2.8-2.6 2.8c-1.5 0-2.7-1.2-2.7-2.8c0-1.5 1.2-2.7 2.7-2.7c1.5 0 2.6 1.2 2.6 2.7zm1.8.9c.1.5.4.9 1.1.9c.5 0 .7-.3.7-.6c0-.3-.2-.5-.6-.6c0 0-.7-.1-.7-.1c-.9-.2-1.4-.8-1.4-1.5c0-.9.8-1.7 1.9-1.7c1.4 0 1.9.9 2 1.5c0 0-1.1.2-1.1.2c0-.2-.2-.7-.9-.7c-.4 0-.7.3-.7.6c0 .2.2.4.5.5c0 0 .7.2.7.2c1 .2 1.5.8 1.5 1.5c0 .8-.6 1.7-1.9 1.7c-1.5 0-2.1-1-2.1-1.6c0 0 1-.3 1-.3zm9 .8c.8 0 1.4-.7 1.4-1.7c0-1-.6-1.6-1.4-1.6c-.8 0-1.4.6-1.4 1.6c0 1 .6 1.7 1.4 1.7zm2.5 0c0 .4.1.8.1.9c0 0-1.2 0-1.2 0c0-.1 0-.5 0-.7c-.3.5-.8.8-1.5.8c-1.5 0-2.5-1.1-2.5-2.7c0-1.4 1-2.7 2.5-2.7c.9 0 1.3.5 1.5.8c-.04-.02 0-3.1 0-3.1l1.1 0c0 0 .05 6.66 0 6.7zm4.2-4.9l-1 0l.9-1.5l1.5 0l-1.4 1.5zm.8 2.7c0-.6-.4-1.2-1.3-1.2c-.7 0-1.2.6-1.2 1.2c0 0 2.5 0 2.5 0zm1.2 1.6c-.3.9-1.1 1.7-2.3 1.7c-1.4 0-2.7-1.1-2.7-2.8c0-1.6 1.2-2.7 2.5-2.7c1.6 0 2.5 1.1 2.5 2.7c0 .2 0 .3 0 .4c0 0-3.7 0-3.7 0c0 .7.6 1.3 1.4 1.3c.7 0 1.1-.4 1.2-.9c0 0 1.1.3 1.1.3zm1.2 1.5l0-7.6l1.2 0c0 0 0 3.11 0 3.1c.2-.4.8-.8 1.6-.8c1.5 0 2.4 1.2 2.4 2.7c0 1.6-.9 2.7-2.4 2.7c-.8 0-1.3-.3-1.6-.8c-.01.01 0 .7 0 .7l-1.2 0zm2.6-4.2c-.8 0-1.4.6-1.4 1.6c0 1 .6 1.6 1.4 1.6c.8 0 1.3-.6 1.3-1.6c0-1-.5-1.6-1.3-1.6zm7 3.6c-.2.5-.8.7-1.4.7c-1.2 0-1.9-.9-1.9-2c-.04.01 0-3.2 0-3.2l1.2 0c0 0-.03 2.98 0 3c0 .6.3 1.2 1 1.2c.7 0 1.1-.5 1.1-1.2c-.02.01 0-3 0-3l1.2 0c0 0-.01 4.16 0 4.2c0 .4 0 .7 0 .9c0 0-1.1 0-1.1 0c0-.1-.1-.4-.1-.6c0 0 0 0 0 0zm4.3-4.5l1.1 0l0 1.1l-1.1 0c0 0 .01 2.34 0 2.3c0 .5.2.7.7.7c.1 0 .3-.1.4-.1c0 0 0 1 0 1c-.1.1-.3.2-.8.2c-.9 0-1.5-.6-1.5-1.6c0 .04 0-2.5 0-2.5l-.9 0l0-1.1c0 0 .22-.02.2 0c.6 0 .8-.4.8-.8c.01-.02 0-.8 0-.8l1.1 0l0 1.6zm3 3.4c.1.5.4.9 1.1.9c.5 0 .7-.3.7-.6c0-.3-.2-.5-.6-.6c0 0-.7-.1-.7-.1c-.9-.2-1.4-.8-1.4-1.5c0-.9.8-1.7 1.9-1.7c1.4 0 1.9.9 1.9 1.5c0 0-1 .2-1 .2c0-.2-.2-.7-.9-.7c-.5 0-.8.3-.8.6c0 .2.2.4.5.5c0 0 .8.2.8.2c1 .2 1.5.8 1.5 1.5c0 .8-.6 1.7-1.9 1.7c-1.5 0-2.1-1-2.1-1.6c0 0 1-.3 1-.3z" stroke="none" fill="#ffaf7a"/></g></svg>