<?xml version="1.0" standalone="no"?><!DOCTYPE svg PUBLIC "-//W3C//DTD SVG 1.1//EN" "http://www.w3.org/Graphics/SVG/1.1/DTD/svg11.dtd"><svg xmlns="http://www.w3.org/2000/svg" version="1.1" width="317.2px" height="431.6px" viewBox="0 -3 317.2 431.6" style="top:-3px"><desc>dossier sp cial 10 ans d’impact : un mod le qui se renforce, une action qui s’amplifie dossier sp cial Aller vers les...</desc><defs/><g id="Polygon159928"><path d="m4.7 329.6l0 8.4l-1.4 0l0-8.4l-3.2 0l0-1.2l7.8 0l0 1.2l-3.2 0zm5.6 8.4l-1.2 0l0-9.8l1.2 0c0 0 .04 4.02 0 4c.5-.7 1.3-.9 2-.9c1.6 0 2.3 1.1 2.3 2.5c.03.04 0 4.2 0 4.2l-1.2 0c0 0-.03-3.95 0-3.9c0-1-.4-1.7-1.5-1.7c-1 0-1.5.8-1.6 1.7c.04.03 0 3.9 0 3.9zm6.4 0l0-6.5l1.2 0l0 6.5l-1.2 0zm.6-9.9c.5 0 .9.4.9.9c0 .5-.4.9-.9.9c-.5 0-.9-.4-.9-.9c0-.5.4-.9.9-.9zm2.8 9.9l0-9.8l1.2 0c0 0 .03 4.18 0 4.2c.3-.6 1.1-1.1 2.2-1.1c1.9 0 3 1.5 3 3.4c0 1.9-1.1 3.4-3.1 3.4c-.9 0-1.7-.4-2.1-1.1c.03.01 0 1 0 1l-1.2 0zm3.1-5.6c-1.1 0-1.9.9-1.9 2.3c0 1.4.8 2.3 1.9 2.3c1.2 0 2-.9 2-2.3c0-1.4-.8-2.3-2-2.3zm4.5 3.8c0-1.1.8-1.8 1.9-2c0 0 1.8-.2 1.8-.2c.4-.1.5-.3.5-.5c0-.6-.4-1.2-1.4-1.2c-.9 0-1.4.6-1.5 1.4c0 0-1.2-.3-1.2-.3c.1-1.3 1.3-2.1 2.7-2.1c1.9 0 2.7 1.1 2.7 2.3c0 0 0 3.3 0 3.3c0 .6 0 .9 0 1.1c0 0-1.2 0-1.2 0c0-.2-.1-.4-.1-.9c-.2.4-.9 1.1-2.1 1.1c-1.3 0-2.1-1-2.1-2c0 0 0 0 0 0zm4.2-1c0-.03 0-.3 0-.3c0 0-1.98.27-2 .3c-.5.1-.9.4-.9.9c0 .5.4 1 1 1c1.1 0 1.9-.5 1.9-1.9zm7.4 2c-.4.6-1.2 1-1.9 1c-1.5 0-2.5-1.2-2.5-2.6c.04-.05 0-4.1 0-4.1l1.3 0c0 0 .01 3.86 0 3.9c0 .9.4 1.6 1.5 1.6c1 0 1.5-.6 1.5-1.6c.02-.02 0-3.9 0-3.9l1.3 0c0 0-.01 5.25 0 5.3c0 .5 0 .9.1 1.2c0 0-1.3 0-1.3 0c0-.2 0-.6 0-.8c0 0 0 0 0 0zm5-5.7l1.5 0l0 1.1l-1.5 0c0 0 .05 3.38 0 3.4c0 .6.3.9 1 .9c.1 0 .3-.1.5-.1c0 0 0 1.1 0 1.1c-.2 0-.5.1-.9.1c-1.1 0-1.8-.7-1.8-1.8c-.02-.03 0-3.6 0-3.6l-1.3 0l0-1.1c0 0 .39-.04.4 0c.7 0 1-.5 1-1c-.01-.04 0-1.1 0-1.1l1.1 0l0 2.1zm13.9 6.5c0 0-.15-1.39-.1-1.4c-.5.8-1.5 1.6-3.1 1.6c-2.4 0-4.7-1.8-4.7-5c0-3.3 2.4-5 4.8-5c2.1 0 3.7 1.1 4.2 2.9c0 0-1.2.5-1.2.5c-.4-1.4-1.5-2.2-3-2.2c-1.7 0-3.4 1.2-3.4 3.8c0 2.5 1.6 3.8 3.3 3.8c2.2 0 2.9-1.6 3-2.5c-.02-.04-3.3 0-3.3 0l0-1.2l4.5 0l0 4.7l-1 0zm7.2-.8c-.4.6-1.2 1-2 1c-1.5 0-2.4-1.2-2.4-2.6c.01-.05 0-4.1 0-4.1l1.3 0c0 0-.03 3.86 0 3.9c0 .9.4 1.6 1.4 1.6c1.1 0 1.6-.6 1.6-1.6c-.01-.02 0-3.9 0-3.9l1.3 0c0 0-.05 5.25 0 5.3c0 .5 0 .9 0 1.2c0 0-1.2 0-1.2 0c0-.2 0-.6 0-.8c0 0 0 0 0 0zm3.3.8l0-6.5l1.3 0l0 6.5l-1.3 0zm.6-9.9c.5 0 1 .4 1 .9c0 .5-.5.9-1 .9c-.5 0-.9-.4-.9-.9c0-.5.4-.9.9-.9zm2.8 9.9l0-9.8l1.3 0l0 9.8l-1.3 0zm3.5 0l0-9.8l1.2 0l0 9.8l-1.2 0zm7.6-.8c-.4.6-1.2 1-1.9 1c-1.5 0-2.4-1.2-2.4-2.6c-.05-.05 0-4.1 0-4.1l1.2 0c0 0 .02 3.86 0 3.9c0 .9.4 1.6 1.5 1.6c1 0 1.5-.6 1.5-1.6c.03-.02 0-3.9 0-3.9l1.3 0c0 0 0 5.25 0 5.3c0 .5 0 .9.1 1.2c0 0-1.2 0-1.2 0c-.1-.2-.1-.6-.1-.8c0 0 0 0 0 0zm3.6 3.5l1.6-3.5l-2.8-5.7l1.5 0l2 4.4l1.9-4.4l1.4 0l-4.2 9.2l-1.4 0zm6.2-4.5c.6 0 1.1.4 1.1 1.3c0 1.7-1.2 2.5-2 2.6c0 0 0-.7 0-.7c.6-.2 1.1-.8 1.1-1.5c0 .1-.1.1-.3.1c-.5 0-.9-.3-.9-.9c0-.5.4-.9 1-.9zm9.9.6c1.8 0 3.3-1.2 3.3-3.6c0-2.4-1.5-3.6-3.3-3.6c.02-.04-2 0-2 0l0 7.2c0 0 2-.02 2 0zm-3.3 1.2l0-9.6c0 0 3.36-.02 3.4 0c2.4 0 4.5 1.6 4.5 4.8c0 3.1-2.1 4.8-4.6 4.8c.04-.05-3.3 0-3.3 0zm9.6 0l0-6.5l1.3 0l0 6.5l-1.3 0zm.6-9.9c.5 0 .9.4.9.9c0 .5-.4.9-.9.9c-.5 0-.9-.4-.9-.9c0-.5.4-.9.9-.9zm6.4 4.6c-.2 0-.4 0-.5 0c-1.1 0-1.8.6-1.8 2c-.02 0 0 3.3 0 3.3l-1.3 0l0-6.5l1.3 0c0 0-.04 1.09 0 1.1c.4-1 1.2-1.2 1.9-1.2c.2 0 .4 0 .4 0c0 0 0 1.3 0 1.3zm5.7 1.3c0-.9-.7-1.6-1.8-1.6c-1.1 0-1.7.8-1.8 1.6c0 0 3.6 0 3.6 0zm1.3 2.1c-.4 1.2-1.4 2.1-3 2.1c-1.7 0-3.2-1.3-3.2-3.5c0-2.1 1.4-3.4 3.1-3.4c2 0 3.1 1.3 3.1 3.4c0 .1 0 .3 0 .4c0 0-4.9 0-4.9 0c0 1.1.8 1.9 1.9 1.9c1.1 0 1.6-.5 1.9-1.3c0 0 1.1.4 1.1.4zm2.4-1.4c0 1.5.9 2.3 2 2.3c1.2 0 1.6-.8 1.8-1.4c0 0 1.1.5 1.1.5c-.3 1-1.3 2.1-2.9 2.1c-1.9 0-3.3-1.5-3.3-3.5c0-2 1.4-3.4 3.2-3.4c1.8 0 2.7 1 2.9 2c0 0-1.1.5-1.1.5c-.2-.6-.6-1.4-1.8-1.4c-1 0-1.9.8-1.9 2.3zm8.1-3.2l1.4 0l0 1.1l-1.4 0c0 0-.02 3.38 0 3.4c0 .6.2.9.9.9c.1 0 .4-.1.5-.1c0 0 0 1.1 0 1.1c-.1 0-.5.1-.9.1c-1.1 0-1.8-.7-1.8-1.8c.01-.03 0-3.6 0-3.6l-1.2 0l0-1.1c0 0 .32-.04.3 0c.7 0 1-.5 1-1c.02-.04 0-1.1 0-1.1l1.2 0l0 2.1zm7.4 2.5c-.1-.9-.7-1.6-1.8-1.6c-1.1 0-1.7.8-1.8 1.6c0 0 3.6 0 3.6 0zm1.3 2.1c-.4 1.2-1.4 2.1-3 2.1c-1.7 0-3.2-1.3-3.2-3.5c0-2.1 1.4-3.4 3.1-3.4c2 0 3.1 1.3 3.1 3.4c0 .1 0 .3 0 .4c0 0-4.9 0-4.9 0c0 1.1.8 1.9 1.9 1.9c1.1 0 1.6-.5 1.9-1.3c0 0 1.1.4 1.1.4zm5.7 1.1c-.4.6-1.2 1-1.9 1c-1.5 0-2.5-1.2-2.5-2.6c.05-.05 0-4.1 0-4.1l1.3 0c0 0 .02 3.86 0 3.9c0 .9.4 1.6 1.5 1.6c1 0 1.5-.6 1.5-1.6c.03-.02 0-3.9 0-3.9l1.3 0c0 0-.01 5.25 0 5.3c0 .5 0 .9.1 1.2c0 0-1.3 0-1.3 0c0-.2 0-.6 0-.8c0 0 0 0 0 0zm7-4.5c-.2 0-.4 0-.6 0c-1.1 0-1.8.6-1.8 2c.02 0 0 3.3 0 3.3l-1.2 0l0-6.5l1.2 0c0 0 0 1.09 0 1.1c.5-1 1.3-1.2 1.9-1.2c.2 0 .4 0 .5 0c0 0 0 1.3 0 1.3zm12 5.3c0 0-.08-1.39-.1-1.4c-.4.8-1.4 1.6-3 1.6c-2.4 0-4.7-1.8-4.7-5c0-3.3 2.4-5 4.8-5c2 0 3.6 1.1 4.2 2.9c0 0-1.2.5-1.2.5c-.4-1.4-1.6-2.2-3-2.2c-1.8 0-3.4 1.2-3.4 3.8c0 2.5 1.6 3.8 3.3 3.8c2.1 0 2.9-1.6 3-2.5c-.05-.04-3.4 0-3.4 0l0-1.2l4.6 0l0 4.7l-1.1 0zm7.4-4c0-.9-.6-1.6-1.8-1.6c-1.1 0-1.7.8-1.8 1.6c0 0 3.6 0 3.6 0zm1.3 2.1c-.4 1.2-1.4 2.1-2.9 2.1c-1.8 0-3.3-1.3-3.3-3.5c0-2.1 1.5-3.4 3.1-3.4c2 0 3.1 1.3 3.1 3.4c0 .1 0 .3 0 .4c0 0-4.9 0-4.9 0c0 1.1.9 1.9 2 1.9c1 0 1.5-.5 1.8-1.3c0 0 1.1.4 1.1.4zm-2.6-5.5l-1.1 0l1.2-1.9l1.6 0l-1.7 1.9zm5.5 7.4l-1.3 0l0-6.5l1.3 0c0 0-.03.89 0 .9c.4-.8 1.2-1.1 2-1.1c1.5 0 2.3 1.1 2.3 2.5c-.01.04 0 4.2 0 4.2l-1.3 0c0 0 .02-3.95 0-3.9c0-1-.4-1.7-1.5-1.7c-1 0-1.5.8-1.5 1.8c0 0 0 3.8 0 3.8zm10.7-4c0-.9-.6-1.6-1.8-1.6c-1.1 0-1.7.8-1.8 1.6c0 0 3.6 0 3.6 0zm1.3 2.1c-.4 1.2-1.4 2.1-2.9 2.1c-1.8 0-3.3-1.3-3.3-3.5c0-2.1 1.5-3.4 3.1-3.4c2 0 3.1 1.3 3.1 3.4c0 .1 0 .3 0 .4c0 0-4.9 0-4.9 0c0 1.1.9 1.9 2 1.9c1 0 1.5-.5 1.8-1.3c0 0 1.1.4 1.1.4zm-2.6-5.5l-1.1 0l1.2-1.9l1.6 0l-1.7 1.9zm7.8 2.1c-.2 0-.3 0-.5 0c-1.1 0-1.8.6-1.8 2c0 0 0 3.3 0 3.3l-1.3 0l0-6.5l1.3 0c0 0-.03 1.09 0 1.1c.4-1 1.3-1.2 1.9-1.2c.2 0 .4 0 .4 0c0 0 0 1.3 0 1.3zm1 3.5c0-1.1.8-1.8 2-2c0 0 1.7-.2 1.7-.2c.4-.1.5-.3.5-.5c0-.6-.4-1.2-1.4-1.2c-.9 0-1.4.6-1.5 1.4c0 0-1.2-.3-1.2-.3c.2-1.3 1.3-2.1 2.7-2.1c1.9 0 2.7 1.1 2.7 2.3c0 0 0 3.3 0 3.3c0 .6 0 .9.1 1.1c0 0-1.3 0-1.3 0c0-.2-.1-.4-.1-.9c-.2.4-.9 1.1-2 1.1c-1.4 0-2.2-1-2.2-2c0 0 0 0 0 0zm4.2-1c.01-.03 0-.3 0-.3c0 0-1.98.27-2 .3c-.5.1-.9.4-.9.9c0 .5.4 1 1 1c1.1 0 1.9-.5 1.9-1.9zm3.2 2.8l0-9.8l1.3 0l0 9.8l-1.3 0zm9.5-1c1.2 0 1.9-1 1.9-2.3c0-1.4-.7-2.3-1.9-2.3c-1.1 0-1.9 1-1.9 2.3c0 1.3.7 2.3 1.9 2.3zm1.9 0c-.3.6-1 1.1-2 1.1c-1.9 0-3.1-1.5-3.1-3.4c0-1.8 1.3-3.4 3.1-3.4c1.1 0 1.8.6 2 1.1c-.03-.02 0-4.2 0-4.2l1.2 0c0 0 .03 8.55 0 8.6c0 .6.1 1 .1 1.2c0 0-1.2 0-1.2 0c-.1-.2-.1-.5-.1-.9c0 0 0-.1 0-.1zm7.8-3c-.1-.9-.7-1.6-1.8-1.6c-1.1 0-1.7.8-1.8 1.6c0 0 3.6 0 3.6 0zm1.2 2.1c-.3 1.2-1.4 2.1-2.9 2.1c-1.7 0-3.2-1.3-3.2-3.5c0-2.1 1.4-3.4 3.1-3.4c2 0 3.1 1.3 3.1 3.4c0 .1 0 .3 0 .4c0 0-4.9 0-4.9 0c0 1.1.8 1.9 1.9 1.9c1.1 0 1.6-.5 1.9-1.3c0 0 1 .4 1 .4zm5.2 1.9l0-9.6l5.8 0l0 1.2l-4.5 0l0 3.1l4.1 0l0 1.2l-4.1 0l0 4.1l-1.3 0zm10.6-5.3c-.2 0-.4 0-.6 0c-1 0-1.7.6-1.7 2c-.05 0 0 3.3 0 3.3l-1.3 0l0-6.5l1.2 0c0 0 .02 1.09 0 1.1c.5-1 1.3-1.2 2-1.2c.1 0 .3 0 .4 0c0 0 0 1.3 0 1.3zm.9 3.5c0-1.1.9-1.8 2-2c0 0 1.8-.2 1.8-.2c.4-.1.5-.3.5-.5c0-.6-.5-1.2-1.4-1.2c-.9 0-1.4.6-1.5 1.4c0 0-1.2-.3-1.2-.3c.1-1.3 1.2-2.1 2.6-2.1c2 0 2.7 1.1 2.7 2.3c0 0 0 3.3 0 3.3c0 .6.1.9.1 1.1c0 0-1.2 0-1.2 0c-.1-.2-.1-.4-.1-.9c-.3.4-.9 1.1-2.1 1.1c-1.3 0-2.2-1-2.2-2c0 0 0 0 0 0zm4.3-1c-.04-.03 0-.3 0-.3c0 0-2.03.27-2 .3c-.6.1-1 .4-1 .9c0 .5.4 1 1.1 1c1 0 1.9-.5 1.9-1.9zm4.5 2.8l-1.3 0l0-6.5l1.2 0c0 0 .04.89 0 .9c.5-.8 1.3-1.1 2-1.1c1.6 0 2.4 1.1 2.4 2.5c-.04.04 0 4.2 0 4.2l-1.3 0c0 0-.01-3.95 0-3.9c0-1-.4-1.7-1.5-1.7c-1 0-1.5.8-1.5 1.8c-.03 0 0 3.8 0 3.8zm7-3.3c0 1.5 1 2.3 2 2.3c1.2 0 1.7-.8 1.8-1.4c0 0 1.2.5 1.2.5c-.4 1-1.3 2.1-3 2.1c-1.9 0-3.3-1.5-3.3-3.5c0-2 1.5-3.4 3.3-3.4c1.7 0 2.6 1 2.9 2c0 0-1.1.5-1.1.5c-.2-.6-.7-1.4-1.8-1.4c-1 0-2 .8-2 2.3zm10.7-.7c0-.9-.6-1.6-1.7-1.6c-1.1 0-1.8.8-1.8 1.6c0 0 3.5 0 3.5 0zm1.3 2.1c-.3 1.2-1.4 2.1-2.9 2.1c-1.7 0-3.3-1.3-3.3-3.5c0-2.1 1.5-3.4 3.2-3.4c1.9 0 3.1 1.3 3.1 3.4c0 .1 0 .3-.1.4c0 0-4.8 0-4.8 0c0 1.1.8 1.9 1.9 1.9c1.1 0 1.6-.5 1.8-1.3c0 0 1.1.4 1.1.4zm8.6-6.5l0 8.4l-1.3 0l0-8.4l-3.2 0l0-1.2l7.7 0l0 1.2l-3.2 0zm7.2 3.1c-.1 0-.3 0-.5 0c-1.1 0-1.8.6-1.8 2c.01 0 0 3.3 0 3.3l-1.3 0l0-6.5l1.3 0c0 0-.01 1.09 0 1.1c.5-1 1.3-1.2 1.9-1.2c.2 0 .4 0 .4 0c0 0 0 1.3 0 1.3zm1 3.5c0-1.1.8-1.8 2-2c0 0 1.7-.2 1.7-.2c.4-.1.5-.3.5-.5c0-.6-.4-1.2-1.4-1.2c-.9 0-1.4.6-1.5 1.4c0 0-1.2-.3-1.2-.3c.2-1.3 1.3-2.1 2.7-2.1c1.9 0 2.7 1.1 2.7 2.3c0 0 0 3.3 0 3.3c0 .6 0 .9.1 1.1c0 0-1.3 0-1.3 0c0-.2 0-.4 0-.9c-.3.4-1 1.1-2.1 1.1c-1.4 0-2.2-1-2.2-2c0 0 0 0 0 0zm4.2-1c.02-.03 0-.3 0-.3c0 0-1.96.27-2 .3c-.5.1-.9.4-.9.9c0 .5.4 1 1 1c1.1 0 1.9-.5 1.9-1.9zm6.2 2.8l-1.3 0l-2.6-6.5l1.4 0l1.9 5l1.9-5l1.3 0l-2.6 6.5zm3.4-1.8c0-1.1.8-1.8 1.9-2c0 0 1.8-.2 1.8-.2c.4-.1.5-.3.5-.5c0-.6-.4-1.2-1.4-1.2c-.9 0-1.4.6-1.5 1.4c0 0-1.2-.3-1.2-.3c.1-1.3 1.3-2.1 2.7-2.1c1.9 0 2.7 1.1 2.7 2.3c0 0 0 3.3 0 3.3c0 .6 0 .9 0 1.1c0 0-1.2 0-1.2 0c0-.2-.1-.4-.1-.9c-.3.4-.9 1.1-2.1 1.1c-1.3 0-2.1-1-2.1-2c0 0 0 0 0 0zm4.2-1c-.01-.03 0-.3 0-.3c0 0-1.99.27-2 .3c-.5.1-.9.4-.9.9c0 .5.4 1 1 1c1.1 0 1.9-.5 1.9-1.9zm3.2 2.8l0-6.5l1.3 0l0 6.5l-1.3 0zm.7-9.9c.5 0 .9.4.9.9c0 .5-.4.9-.9.9c-.5 0-1-.4-1-.9c0-.5.5-.9 1-.9zm2.7 9.9l0-9.8l1.3 0l0 9.8l-1.3 0z" stroke="none" fill="#144542"/></g><g id="Polygon159927"><path d="m.9 321.8l0-6.7l.9 0l0 6.7l-.9 0zm8.5 0l-3.6-5.5l0 5.5l-1 0l0-6.7l1.3 0l3.3 5.1l0-5.1l1 0l0 6.7l-1 0zm6.4-5.9l0 5.9l-.9 0l0-5.9l-2.2 0l0-.8l5.4 0l0 .8l-2.3 0zm4.6 5.9l0-6.7l4 0l0 .8l-3.1 0l0 2.1l2.8 0l0 .8l-2.8 0l0 2.1l3.1 0l0 .9l-4 0zm8.7-2.8l-1 0l0 2.8l-.9 0l0-6.7c0 0 2.51-.04 2.5 0c1.3 0 2.1.8 2.1 1.9c0 1-.6 1.8-1.7 1.9c.04.05 1.6 2.9 1.6 2.9l-1 0l-1.6-2.8zm.4-.8c.8 0 1.3-.5 1.3-1.2c0-.7-.5-1.1-1.3-1.1c.04-.01-1.4 0-1.4 0l0 2.3c0 0 1.44-.02 1.4 0zm9.1-3.1l1 0l-2.6 6.7l-.9 0l-2.5-6.7l1 0l2 5.5l2-5.5zm3.3 6.7l0-6.7l.9 0l0 6.7l-.9 0zm4 0l0-6.7l4.1 0l0 .8l-3.2 0l0 2.1l2.9 0l0 .8l-2.9 0l0 2.1l3.2 0l0 .9l-4.1 0zm14.4-6.7l.9 0l-1.9 6.7l-.9 0l-1.8-5.5l-1.7 5.5l-.9 0l-2-6.7l1 0l1.5 5.2l1.6-5.2l1 0l1.7 5.3l1.5-5.3z" stroke="none" fill="#144542"/></g><g id="Polygon159926"><path d="m8.4 298.5c0 0-.08-1.38-.1-1.4c-.4.8-1.4 1.6-3 1.6c-2.5 0-4.7-1.8-4.7-5c0-3.3 2.4-5 4.7-5c2.1 0 3.7 1.2 4.3 2.9c0 0-1.2.5-1.2.5c-.4-1.4-1.6-2.2-3.1-2.2c-1.7 0-3.3 1.2-3.3 3.8c0 2.5 1.6 3.8 3.3 3.8c2.1 0 2.9-1.5 2.9-2.5c.05-.03-3.3 0-3.3 0l0-1.2l4.6 0l0 4.7l-1.1 0zm6.6-5.2c-.2-.1-.4-.1-.5-.1c-1.1 0-1.8.6-1.8 2c-.02.01 0 3.3 0 3.3l-1.3 0l0-6.5l1.2 0c0 0 .05 1.11 0 1.1c.5-1 1.3-1.2 2-1.2c.2 0 .3 0 .4 0c0 0 0 1.4 0 1.4zm6.1 1.9c0-1.5-.9-2.3-2-2.3c-1.1 0-2.1.8-2.1 2.3c0 1.5 1 2.3 2.1 2.3c1.1 0 2-.8 2-2.3zm1.3 0c0 2-1.4 3.5-3.3 3.5c-2 0-3.3-1.5-3.3-3.5c0-2 1.3-3.4 3.3-3.4c1.9 0 3.3 1.4 3.3 3.4zm5.8 2.5c-.3.7-1.1 1-1.9 1c-1.5 0-2.4-1.2-2.4-2.6c-.02-.03 0-4.1 0-4.1l1.2 0c0 0 .05 3.88 0 3.9c0 .9.5 1.7 1.5 1.7c1 0 1.6-.7 1.6-1.7c-.04-.01 0-3.9 0-3.9l1.2 0c0 0 .03 5.27 0 5.3c0 .5.1.9.1 1.2c0 0-1.2 0-1.2 0c0-.2-.1-.5-.1-.8c0 0 0 0 0 0zm3.4 3.3l0-9l1.2 0c0 0 .02.99 0 1c.4-.7 1.1-1.2 2.2-1.2c1.9 0 3 1.5 3 3.4c0 1.9-1.1 3.4-3 3.4c-1 0-1.8-.4-2.2-1c.04-.01 0 3.4 0 3.4l-1.2 0zm5.1-5.8c0-1.3-.7-2.3-1.9-2.3c-1.2 0-2 1-2 2.3c0 1.4.8 2.3 2 2.3c1.1 0 1.9-.9 1.9-2.3c0 0 0 0 0 0zm7.3-.6c-.1-1-.7-1.7-1.8-1.7c-1.1 0-1.7.8-1.8 1.7c0 0 3.6 0 3.6 0zm1.3 2c-.4 1.2-1.5 2.1-3 2.1c-1.7 0-3.2-1.3-3.2-3.5c0-2 1.4-3.4 3.1-3.4c2 0 3.1 1.3 3.1 3.4c0 .1 0 .3 0 .4c0 0-4.9 0-4.9 0c0 1.1.8 2 1.9 2c1.1 0 1.6-.6 1.9-1.4c0 0 1.1.4 1.1.4zm5.1 1.9l0-9.6l5.8 0l0 1.2l-4.5 0l0 3l4.1 0l0 1.2l-4.1 0l0 2.9l4.5 0l0 1.3l-5.8 0zm11.1-1.2c1.8 0 3.3-1.2 3.3-3.6c0-2.4-1.5-3.6-3.2-3.6c-.03-.03-2 0-2 0l0 7.2c0 0 1.95-.01 1.9 0zm-3.2 1.2l0-9.6c0 0 3.31 0 3.3 0c2.4 0 4.6 1.7 4.6 4.8c0 3.1-2.2 4.8-4.6 4.8c-.01-.03-3.3 0-3.3 0zm9.7 0l0-9.6l5.8 0l0 1.2l-4.5 0l0 3.1l4.1 0l0 1.2l-4.1 0l0 4.1l-1.3 0z" stroke="none" fill="#144542"/></g><g id="Polygon159925"><path d="m6.8 279.6l-4.2 0l-1 2.7l-1.5 0l3.8-9.6l1.6 0l3.8 9.6l-1.5 0l-1-2.7zm-3.8-1.2l3.3 0l-1.6-4.3l-1.7 4.3zm7.5 3.9l0-9.8l1.3 0l0 9.8l-1.3 0zm7.8-3.9c0-1-.6-1.7-1.8-1.7c-1.1 0-1.7.8-1.8 1.7c0 0 3.6 0 3.6 0zm1.3 2c-.4 1.2-1.4 2.1-2.9 2.1c-1.8 0-3.3-1.3-3.3-3.5c0-2 1.5-3.4 3.1-3.4c2 0 3.1 1.3 3.1 3.4c0 .1 0 .3 0 .4c0 0-4.9 0-4.9 0c0 1.1.9 2 2 2c1 0 1.5-.6 1.8-1.4c0 0 1.1.4 1.1.4zm3-1.4l-2.3-3.2l1.5 0l1.6 2.3l1.6-2.3l1.5 0c0 0-2.31 3.16-2.3 3.2c.4.5 2 2.7 2.4 3.3c-.02-.03-1.5 0-1.5 0l-1.7-2.4l-1.7 2.4l-1.5 0l2.4-3.3zm4.8 1.5c0-1.1.8-1.8 2-1.9c0 0 1.7-.3 1.7-.3c.4-.1.5-.3.5-.5c0-.6-.4-1.1-1.4-1.1c-.9 0-1.4.5-1.5 1.3c0 0-1.2-.3-1.2-.3c.2-1.3 1.3-2.1 2.7-2.1c1.9 0 2.7 1.1 2.7 2.4c0 0 0 3.2 0 3.2c0 .6 0 .9.1 1.1c0 0-1.3 0-1.3 0c0-.2 0-.4 0-.9c-.3.4-1 1.1-2.1 1.1c-1.4 0-2.2-.9-2.2-2c0 0 0 0 0 0zm4.2-1c.02-.01 0-.3 0-.3c0 0-1.97.29-2 .3c-.5.1-.9.4-.9 1c0 .4.4.9 1 .9c1.1 0 1.9-.5 1.9-1.9zm4.5 2.8l-1.2 0l0-6.5l1.2 0c0 0 0 .91 0 .9c.5-.8 1.2-1.1 2-1.1c1.5 0 2.3 1.1 2.3 2.5c.02.05 0 4.2 0 4.2l-1.2 0c0 0-.05-3.93 0-3.9c0-.9-.4-1.7-1.6-1.7c-1 0-1.5.8-1.5 1.8c.02.01 0 3.8 0 3.8zm9-1c1.2 0 1.9-1 1.9-2.3c0-1.4-.7-2.3-1.9-2.3c-1.1 0-1.9 1-1.9 2.3c0 1.3.7 2.3 1.9 2.3zm1.9 0c-.3.6-1 1.1-2 1.1c-1.9 0-3.1-1.5-3.1-3.4c0-1.8 1.2-3.4 3.1-3.4c1.1 0 1.8.6 2 1.1c-.03-.01 0-4.2 0-4.2l1.2 0c0 0 .02 8.57 0 8.6c0 .6.1 1.1.1 1.2c0 0-1.2 0-1.2 0c-.1-.2-.1-.5-.1-.9c0 0 0-.1 0-.1zm7-4.2c-.2-.1-.4-.1-.6-.1c-1 0-1.8.6-1.8 2c.05.01 0 3.3 0 3.3l-1.2 0l0-6.5l1.2 0c0 0 .02 1.11 0 1.1c.5-1 1.3-1.2 2-1.2c.1 0 .3 0 .4 0c0 0 0 1.4 0 1.4zm5.6 1.3c0-1-.6-1.7-1.7-1.7c-1.1 0-1.8.8-1.8 1.7c0 0 3.5 0 3.5 0zm1.3 2c-.3 1.2-1.4 2.1-2.9 2.1c-1.7 0-3.3-1.3-3.3-3.5c0-2 1.5-3.4 3.1-3.4c2 0 3.2 1.3 3.2 3.4c0 .1 0 .3-.1.4c0 0-4.8 0-4.8 0c0 1.1.8 2 1.9 2c1.1 0 1.6-.6 1.8-1.4c0 0 1.1.4 1.1.4zm8.4-3.2c1.2 0 1.9-.7 1.9-1.7c0-1-.7-1.6-1.9-1.6c.04-.02-1.9 0-1.9 0l0 3.3c0 0 1.94-.03 1.9 0zm-1.9 1.2l0 3.9l-1.3 0l0-9.6c0 0 3.48 0 3.5 0c1.7 0 2.9 1.2 2.9 2.8c0 1.7-1.2 2.9-2.9 2.9c-.02-.05-2.2 0-2.2 0zm10.5 0c-.1-1-.7-1.7-1.8-1.7c-1.1 0-1.7.8-1.8 1.7c0 0 3.6 0 3.6 0zm1.2 2c-.3 1.2-1.4 2.1-2.9 2.1c-1.7 0-3.2-1.3-3.2-3.5c0-2 1.4-3.4 3.1-3.4c2 0 3.1 1.3 3.1 3.4c0 .1 0 .3-.1.4c0 0-4.8 0-4.8 0c0 1.1.8 2 1.9 2c1.1 0 1.6-.6 1.8-1.4c0 0 1.1.4 1.1.4zm5.3-3.3c-.2-.1-.4-.1-.6-.1c-1 0-1.7.6-1.7 2c-.03.01 0 3.3 0 3.3l-1.3 0l0-6.5l1.2 0c0 0 .04 1.11 0 1.1c.5-1 1.3-1.2 2-1.2c.2 0 .3 0 .4 0c0 0 0 1.4 0 1.4zm5 0c-.2-.1-.4-.1-.6-.1c-1.1 0-1.8.6-1.8 2c.02.01 0 3.3 0 3.3l-1.2 0l0-6.5l1.2 0c0 0-.01 1.11 0 1.1c.5-1 1.3-1.2 1.9-1.2c.2 0 .4 0 .5 0c0 0 0 1.4 0 1.4zm.9 3.4c0-1.1.9-1.8 2-1.9c0 0 1.7-.3 1.7-.3c.4-.1.5-.3.5-.5c0-.6-.4-1.1-1.4-1.1c-.9 0-1.4.5-1.5 1.3c0 0-1.2-.3-1.2-.3c.2-1.3 1.3-2.1 2.7-2.1c1.9 0 2.7 1.1 2.7 2.4c0 0 0 3.2 0 3.2c0 .6 0 .9.1 1.1c0 0-1.3 0-1.3 0c0-.2 0-.4 0-.9c-.3.4-1 1.1-2.1 1.1c-1.3 0-2.2-.9-2.2-2c0 0 0 0 0 0zm4.2-1c.03-.01 0-.3 0-.3c0 0-1.96.29-2 .3c-.5.1-.9.4-.9 1c0 .4.4.9 1 .9c1.1 0 1.9-.5 1.9-1.9zm4.1 1c.6 0 1.1.4 1.1 1.3c0 1.8-1.2 2.5-2 2.6c0 0 0-.7 0-.7c.7-.1 1.1-.8 1.1-1.4c0 0-.1 0-.3 0c-.5 0-.9-.3-.9-.9c0-.5.5-.9 1-.9zm9.9.6c1.8 0 3.3-1.2 3.3-3.6c0-2.4-1.5-3.6-3.2-3.6c-.05-.03-2 0-2 0l0 7.2c0 0 1.93-.01 1.9 0zm-3.3 1.2l0-9.6c0 0 3.39 0 3.4 0c2.4 0 4.5 1.7 4.5 4.8c0 3.1-2.1 4.8-4.5 4.8c-.03-.03-3.4 0-3.4 0zm14-3.9c0-1-.6-1.7-1.8-1.7c-1 0-1.7.8-1.7 1.7c0 0 3.5 0 3.5 0zm1.3 2c-.4 1.2-1.4 2.1-2.9 2.1c-1.8 0-3.3-1.3-3.3-3.5c0-2 1.5-3.4 3.1-3.4c2 0 3.1 1.3 3.1 3.4c0 .1 0 .3 0 .4c0 0-4.9 0-4.9 0c0 1.1.9 2 2 2c1 0 1.6-.6 1.8-1.4c0 0 1.1.4 1.1.4zm-2.6-5.5l-1 0l1.1-1.9l1.6 0l-1.7 1.9zm4.2 7.4l0-9.8l1.3 0l0 9.8l-1.3 0zm7.9-3.9c-.1-1-.7-1.7-1.8-1.7c-1.1 0-1.7.8-1.8 1.7c0 0 3.6 0 3.6 0zm1.2 2c-.3 1.2-1.4 2.1-2.9 2.1c-1.7 0-3.3-1.3-3.3-3.5c0-2 1.5-3.4 3.2-3.4c2 0 3.1 1.3 3.1 3.4c0 .1 0 .3-.1.4c0 0-4.8 0-4.8 0c0 1.1.8 2 1.9 2c1.1 0 1.6-.6 1.8-1.4c0 0 1.1.4 1.1.4zm-2.5-5.5l-1.1 0l1.2-1.9l1.6 0l-1.7 1.9zm4.9 7.4c.1.9.8 1.6 1.8 1.6c1.4 0 2-.7 2-2.1c0 0 0-.9 0-.9c-.3.6-1 1.1-2 1.1c-1.7 0-3-1.4-3-3.2c0-1.7 1.2-3.1 3-3.1c1 0 1.7.3 2 1c.02-.02 0-.9 0-.9l1.3 0c0 0-.03 5.98 0 6c0 1.6-.8 3.2-3.3 3.2c-1.6 0-2.8-1-3-2.4c0 0 1.2-.3 1.2-.3zm3.9-3.5c0-1.2-.8-2.1-1.9-2.1c-1.1 0-1.9.9-1.9 2.1c0 1.3.8 2.1 1.9 2.1c1.1 0 1.9-.8 1.9-2.1zm7.4 2.7c-.3.7-1.2 1-1.9 1c-1.5 0-2.4-1.2-2.4-2.6c-.04-.03 0-4.1 0-4.1l1.2 0c0 0 .03 3.88 0 3.9c0 .9.4 1.7 1.5 1.7c1 0 1.5-.7 1.5-1.7c.04-.01 0-3.9 0-3.9l1.3 0c0 0 .01 5.27 0 5.3c0 .5 0 .9.1 1.2c0 0-1.2 0-1.2 0c-.1-.2-.1-.5-.1-.8c0 0 0 0 0 0zm7.7-3.1c-.1-1-.7-1.7-1.8-1.7c-1.1 0-1.7.8-1.8 1.7c0 0 3.6 0 3.6 0zm1.3 2c-.4 1.2-1.4 2.1-3 2.1c-1.7 0-3.2-1.3-3.2-3.5c0-2 1.4-3.4 3.1-3.4c2 0 3.1 1.3 3.1 3.4c0 .1 0 .3 0 .4c0 0-4.9 0-4.9 0c0 1.1.8 2 1.9 2c1.1 0 1.6-.6 1.9-1.4c0 0 1.1.4 1.1.4zm-2.6-5.5l-1.1 0l1.2-1.9l1.6 0l-1.7 1.9zm15 7.4c0 0-.17-1.38-.2-1.4c-.4.8-1.4 1.6-3 1.6c-2.4 0-4.7-1.8-4.7-5c0-3.3 2.4-5 4.8-5c2 0 3.6 1.2 4.2 2.9c0 0-1.2.5-1.2.5c-.4-1.4-1.6-2.2-3-2.2c-1.8 0-3.4 1.2-3.4 3.8c0 2.5 1.6 3.8 3.3 3.8c2.1 0 2.9-1.5 3-2.5c-.04-.03-3.4 0-3.4 0l0-1.2l4.6 0l0 4.7l-1 0zm7.3-3.9c0-1-.6-1.7-1.8-1.7c-1.1 0-1.7.8-1.8 1.7c0 0 3.6 0 3.6 0zm1.3 2c-.4 1.2-1.4 2.1-2.9 2.1c-1.8 0-3.3-1.3-3.3-3.5c0-2 1.5-3.4 3.1-3.4c2 0 3.1 1.3 3.1 3.4c0 .1 0 .3 0 .4c0 0-4.9 0-4.9 0c0 1.1.9 2 2 2c1 0 1.5-.6 1.8-1.4c0 0 1.1.4 1.1.4zm-2.6-5.5l-1.1 0l1.2-1.9l1.6 0l-1.7 1.9zm5.5 7.4l-1.3 0l0-6.5l1.3 0c0 0-.02.91 0 .9c.5-.8 1.2-1.1 2-1.1c1.5 0 2.3 1.1 2.3 2.5c0 .05 0 4.2 0 4.2l-1.3 0c0 0 .03-3.93 0-3.9c0-.9-.3-1.7-1.5-1.7c-1 0-1.5.8-1.5 1.8c.01.01 0 3.8 0 3.8zm10.7-3.9c0-1-.6-1.7-1.8-1.7c-1.1 0-1.7.8-1.8 1.7c0 0 3.6 0 3.6 0zm1.3 2c-.4 1.2-1.4 2.1-2.9 2.1c-1.8 0-3.3-1.3-3.3-3.5c0-2 1.5-3.4 3.1-3.4c2 0 3.1 1.3 3.1 3.4c0 .1 0 .3 0 .4c0 0-4.9 0-4.9 0c0 1.1.9 2 2 2c1 0 1.5-.6 1.8-1.4c0 0 1.1.4 1.1.4zm-2.6-5.5l-1.1 0l1.2-1.9l1.6 0l-1.7 1.9zm7.8 2.2c-.1-.1-.3-.1-.5-.1c-1.1 0-1.8.6-1.8 2c.01.01 0 3.3 0 3.3l-1.3 0l0-6.5l1.3 0c0 0-.02 1.11 0 1.1c.5-1 1.3-1.2 1.9-1.2c.2 0 .4 0 .4 0c0 0 0 1.4 0 1.4zm1 3.4c0-1.1.8-1.8 2-1.9c0 0 1.7-.3 1.7-.3c.4-.1.5-.3.5-.5c0-.6-.4-1.1-1.4-1.1c-.9 0-1.4.5-1.5 1.3c0 0-1.2-.3-1.2-.3c.2-1.3 1.3-2.1 2.7-2.1c1.9 0 2.7 1.1 2.7 2.4c0 0 0 3.2 0 3.2c0 .6 0 .9.1 1.1c0 0-1.3 0-1.3 0c0-.2 0-.4 0-.9c-.3.4-1 1.1-2.1 1.1c-1.4 0-2.2-.9-2.2-2c0 0 0 0 0 0zm4.2-1c.02-.01 0-.3 0-.3c0 0-1.97.29-2 .3c-.5.1-.9.4-.9 1c0 .4.4.9 1 .9c1.1 0 1.9-.5 1.9-1.9zm3.3 2.8l0-9.8l1.2 0l0 9.8l-1.2 0zm9.4-1c1.2 0 1.9-1 1.9-2.3c0-1.4-.7-2.3-1.9-2.3c-1.1 0-1.9 1-1.9 2.3c0 1.3.7 2.3 1.9 2.3zm1.9 0c-.3.6-1 1.1-2 1.1c-1.9 0-3.1-1.5-3.1-3.4c0-1.8 1.3-3.4 3.1-3.4c1.1 0 1.8.6 2 1.1c-.02-.01 0-4.2 0-4.2l1.2 0c0 0 .04 8.57 0 8.6c0 .6.1 1.1.1 1.2c0 0-1.2 0-1.2 0c0-.2-.1-.5-.1-.9c0 0 0-.1 0-.1zm7.8-2.9c-.1-1-.7-1.7-1.8-1.7c-1.1 0-1.7.8-1.8 1.7c0 0 3.6 0 3.6 0zm1.3 2c-.4 1.2-1.4 2.1-3 2.1c-1.7 0-3.2-1.3-3.2-3.5c0-2 1.4-3.4 3.1-3.4c2 0 3.1 1.3 3.1 3.4c0 .1 0 .3 0 .4c0 0-4.9 0-4.9 0c0 1.1.8 2 1.9 2c1.1 0 1.6-.6 1.9-1.4c0 0 1.1.4 1.1.4zm5 1.9l0-9.8l1.3 0l0 9.8l-1.3 0zm3-1.8c0-1.1.9-1.8 2-1.9c0 0 1.7-.3 1.7-.3c.4-.1.5-.3.5-.5c0-.6-.4-1.1-1.4-1.1c-.9 0-1.4.5-1.4 1.3c0 0-1.3-.3-1.3-.3c.2-1.3 1.3-2.1 2.7-2.1c2 0 2.7 1.1 2.7 2.4c0 0 0 3.2 0 3.2c0 .6.1.9.1 1.1c0 0-1.3 0-1.3 0c0-.2 0-.4 0-.9c-.3.4-1 1.1-2.1 1.1c-1.3 0-2.2-.9-2.2-2c0 0 0 0 0 0zm4.2-1c.04-.01 0-.3 0-.3c0 0-1.95.29-1.9.3c-.6.1-1 .4-1 1c0 .4.4.9 1.1.9c1 0 1.8-.5 1.8-1.9zm6.8 2.8l0-9.6l5.8 0l0 1.2l-4.5 0l0 3.1l4.1 0l0 1.2l-4.1 0l0 4.1l-1.3 0zm11.6-3.3c0-1.5-.9-2.3-2-2.3c-1.1 0-2 .8-2 2.3c0 1.5.9 2.3 2 2.3c1.1 0 2-.8 2-2.3zm1.3 0c0 2-1.4 3.5-3.3 3.5c-1.9 0-3.3-1.5-3.3-3.5c0-2 1.4-3.4 3.3-3.4c1.9 0 3.3 1.4 3.3 3.4zm2.9 3.3l-1.3 0l0-6.5l1.3 0c0 0-.02.91 0 .9c.5-.8 1.2-1.1 2-1.1c1.5 0 2.3 1.1 2.3 2.5c0 .05 0 4.2 0 4.2l-1.3 0c0 0 .04-3.93 0-3.9c0-.9-.3-1.7-1.5-1.7c-1 0-1.5.8-1.5 1.8c.01.01 0 3.8 0 3.8zm9-1c1.2 0 1.9-1 1.9-2.3c0-1.4-.7-2.3-1.9-2.3c-1.2 0-1.9 1-1.9 2.3c0 1.3.7 2.3 1.9 2.3zm1.9 0c-.3.6-1 1.1-2 1.1c-1.9 0-3.1-1.5-3.1-3.4c0-1.8 1.2-3.4 3.1-3.4c1.1 0 1.7.6 2 1.1c-.05-.01 0-4.2 0-4.2l1.2 0c0 0 .01 8.57 0 8.6c0 .6.1 1.1.1 1.2c0 0-1.3 0-1.3 0c0-.2 0-.5 0-.9c0 0 0-.1 0-.1zm3-.8c0-1.1.8-1.8 1.9-1.9c0 0 1.8-.3 1.8-.3c.4-.1.5-.3.5-.5c0-.6-.4-1.1-1.4-1.1c-.9 0-1.4.5-1.5 1.3c0 0-1.2-.3-1.2-.3c.1-1.3 1.3-2.1 2.7-2.1c1.9 0 2.7 1.1 2.7 2.4c0 0 0 3.2 0 3.2c0 .6 0 .9 0 1.1c0 0-1.2 0-1.2 0c0-.2-.1-.4-.1-.9c-.3.4-.9 1.1-2.1 1.1c-1.3 0-2.1-.9-2.1-2c0 0 0 0 0 0zm4.2-1c-.01-.01 0-.3 0-.3c0 0-2 .29-2 .3c-.5.1-.9.4-.9 1c0 .4.4.9 1 .9c1.1 0 1.9-.5 1.9-1.9zm4.9-3.7l1.4 0l0 1.1l-1.4 0c0 0 .03 3.4 0 3.4c0 .6.3.9.9.9c.2 0 .4 0 .5-.1c0 0 0 1.1 0 1.1c-.1.1-.4.1-.8.1c-1.1 0-1.8-.6-1.8-1.8c-.04-.01 0-3.6 0-3.6l-1.3 0l0-1.1c0 0 .37-.02.4 0c.7 0 1-.5 1-1c-.03-.02 0-1.1 0-1.1l1.1 0l0 2.1zm3.1 6.5l0-6.5l1.3 0l0 6.5l-1.3 0zm.6-9.9c.6 0 1 .4 1 .9c0 .5-.4.9-1 .9c-.5 0-.9-.4-.9-.9c0-.5.4-.9.9-.9zm7.6 6.6c0-1.5-.9-2.3-2-2.3c-1.1 0-2 .8-2 2.3c0 1.5.9 2.3 2 2.3c1.1 0 2-.8 2-2.3zm1.3 0c0 2-1.3 3.5-3.3 3.5c-1.9 0-3.3-1.5-3.3-3.5c0-2 1.4-3.4 3.3-3.4c2 0 3.3 1.4 3.3 3.4zm2.9 3.3l-1.2 0l0-6.5l1.2 0c0 0 0 .91 0 .9c.5-.8 1.2-1.1 2-1.1c1.6 0 2.3 1.1 2.3 2.5c.02.05 0 4.2 0 4.2l-1.2 0c0 0-.05-3.93 0-3.9c0-.9-.4-1.7-1.6-1.7c-1 0-1.5.8-1.5 1.8c.03.01 0 3.8 0 3.8z" stroke="none" fill="#144542"/></g><g id="Polygon159924"><path d="m.9 266.1l0-6.7l.9 0l0 6.7l-.9 0zm8.5 0l-3.6-5.5l0 5.5l-1 0l0-6.7l1.3 0l3.3 5.1l0-5.1l1 0l0 6.7l-1 0zm6.4-5.9l0 5.9l-.9 0l0-5.9l-2.2 0l0-.8l5.4 0l0 .8l-2.3 0zm4.6 5.9l0-6.7l4 0l0 .8l-3.1 0l0 2.1l2.8 0l0 .9l-2.8 0l0 2l3.1 0l0 .9l-4 0zm8.7-2.8l-1 0l0 2.8l-.9 0l0-6.7c0 0 2.51-.03 2.5 0c1.3 0 2.1.9 2.1 2c0 .9-.6 1.7-1.7 1.9c.04-.04 1.6 2.8 1.6 2.8l-1 0l-1.6-2.8zm.4-.8c.8 0 1.3-.5 1.3-1.1c0-.7-.5-1.2-1.3-1.2c.04 0-1.4 0-1.4 0l0 2.3c0 0 1.44-.01 1.4 0zm9.1-3.1l1 0l-2.6 6.7l-.9 0l-2.5-6.7l1 0l2 5.5l2-5.5zm3.3 6.7l0-6.7l.9 0l0 6.7l-.9 0zm4 0l0-6.7l4.1 0l0 .8l-3.2 0l0 2.1l2.9 0l0 .9l-2.9 0l0 2l3.2 0l0 .9l-4.1 0zm14.4-6.7l.9 0l-1.9 6.7l-.9 0l-1.8-5.5l-1.7 5.5l-.9 0l-2-6.7l1 0l1.5 5.2l1.6-5.2l1 0l1.7 5.3l1.5-5.3z" stroke="none" fill="#144542"/></g><g id="Polygon159923"><path d="m4.3 233.2c1.9 0 2.9 1.1 2.9 2.6c0 1-.6 1.8-1.4 2.1c1.1.2 1.7 1.2 1.7 2.3c0 1.5-1.2 2.6-2.9 2.6c-.04-.02-3.4 0-3.4 0l0-9.6c0 0 3.13.01 3.1 0zm-.1 4.2c1.1 0 1.7-.6 1.7-1.5c0-.9-.7-1.5-1.8-1.5c.03-.03-1.6 0-1.6 0l0 3c0 0 1.68 0 1.7 0zm.2 4.2c1 0 1.8-.6 1.8-1.5c0-.9-.6-1.6-1.8-1.6c.03.03-1.9 0-1.9 0l0 3.1c0 0 1.87.02 1.9 0zm4.3-.6c0-1.1.8-1.8 1.9-1.9c0 0 1.8-.3 1.8-.3c.4 0 .5-.2.5-.5c0-.6-.4-1.1-1.4-1.1c-.9 0-1.4.5-1.5 1.3c0 0-1.2-.3-1.2-.3c.1-1.3 1.3-2.1 2.7-2.1c1.9 0 2.7 1.1 2.7 2.4c0 0 0 3.2 0 3.2c0 .6 0 .9 0 1.1c0 0-1.2 0-1.2 0c0-.2-.1-.4-.1-.9c-.2.5-.9 1.1-2.1 1.1c-1.3 0-2.1-.9-2.1-2c0 0 0 0 0 0zm4.2-1c-.01 0 0-.3 0-.3c0 0-1.99.3-2 .3c-.5.1-.9.4-.9 1c0 .5.4.9 1 .9c1.1 0 1.9-.5 1.9-1.9zm4.5 2.8l-1.3 0l0-6.5l1.3 0c0 0-.03.92 0 .9c.4-.8 1.2-1.1 2-1.1c1.5 0 2.3 1.1 2.3 2.6c-.01-.04 0 4.1 0 4.1l-1.3 0c0 0 .03-3.92 0-3.9c0-.9-.4-1.7-1.5-1.7c-1 0-1.5.8-1.5 1.8c0 .03 0 3.8 0 3.8zm10.9 2.5c0 0-.02-3.44 0-3.4c-.4.6-1.1 1.1-2 1.1c-1.9 0-3.1-1.6-3.1-3.5c0-1.8 1.1-3.4 3-3.4c1.2 0 1.8.6 2.1 1.2c.01-.01 0-1 0-1l1.2 0l0 9l-1.2 0zm-1.9-3.5c1.1 0 1.9-.9 1.9-2.3c0-1.3-.8-2.3-1.9-2.3c-1.2 0-1.9 1-1.9 2.3c0 1.4.7 2.3 1.9 2.3zm9.4.2c-.3.7-1.1 1-1.9 1c-1.5 0-2.4-1.1-2.4-2.6c0-.02 0-4.1 0-4.1l1.3 0c0 0-.04 3.89 0 3.9c0 .9.4 1.7 1.4 1.7c1.1 0 1.6-.7 1.6-1.7c-.02 0 0-3.9 0-3.9l1.2 0c0 0 .04 5.28 0 5.3c0 .5.1 1 .1 1.2c0 0-1.2 0-1.2 0c0-.2-.1-.5-.1-.8c0 0 0 0 0 0zm7.7-3.1c0-1-.6-1.7-1.8-1.7c-1 0-1.7.8-1.7 1.7c0 0 3.5 0 3.5 0zm1.3 2c-.4 1.2-1.4 2.1-2.9 2.1c-1.8 0-3.3-1.3-3.3-3.5c0-2 1.5-3.4 3.1-3.4c2 0 3.1 1.4 3.1 3.4c0 .1 0 .3 0 .4c0 0-4.9 0-4.9 0c0 1.2.9 2 2 2c1 0 1.6-.6 1.8-1.3c0 0 1.1.3 1.1.3zm2.2-.2c.1.7.6 1.2 1.5 1.2c.7 0 1.1-.4 1.1-.9c0-.4-.3-.7-.8-.8c0 0-1.1-.2-1.1-.2c-1-.3-1.7-.9-1.7-1.9c0-1.1 1.1-2 2.4-2c1.7 0 2.3 1.1 2.4 1.7c0 0-1.1.4-1.1.4c0-.3-.3-1-1.3-1c-.7 0-1.1.4-1.1.8c0 .4.2.7.7.8c0 0 1.1.2 1.1.2c1.1.3 1.8 1 1.8 2c0 .9-.8 2-2.4 2c-1.8 0-2.5-1.2-2.7-1.9c0 0 1.2-.4 1.2-.4zm8.4-3.7c0-.1 0-.2 0-.3c0-1.5 1.1-2.9 3-2.9c1.9 0 3 1.3 3 2.7c0 1.2-.7 2.1-1.6 2.7c0 0-1.8 1.1-1.8 1.1c-.5.3-.9.7-1 1.3c-.04-.05 4.5 0 4.5 0l0 1.2c0 0-6.18-.02-6.2 0c.1-1.4.6-2.5 2.1-3.5c0 0 1.5-.9 1.5-.9c.8-.6 1.2-1.2 1.2-1.9c0-.8-.6-1.5-1.7-1.5c-1.1 0-1.7.8-1.7 1.8c0 .1 0 .2.1.4c0 0-1.4-.2-1.4-.2zm9.3 4.2c.4.4.8.6 1.4.6c.7 0 1.1-.2 1.4-.6c.6-.5.8-1.5.8-2.8c0-1.3-.2-2.3-.8-2.8c-.3-.4-.7-.6-1.4-.6c-.6 0-1 .2-1.4.6c-.5.5-.7 1.5-.7 2.8c0 1.3.2 2.3.7 2.8zm-1.3-6c.6-.8 1.5-1.4 2.7-1.4c1.3 0 2.2.6 2.7 1.4c.6.9.8 2 .8 3.2c0 1.2-.2 2.3-.8 3.2c-.5.8-1.4 1.4-2.7 1.4c-1.2 0-2.1-.6-2.7-1.4c-.5-.9-.7-2-.7-3.2c0-1.2.2-2.3.7-3.2zm7.5 1.8c-.1-.1-.1-.2-.1-.3c0-1.5 1.2-2.9 3.1-2.9c1.8 0 2.9 1.3 2.9 2.7c0 1.2-.6 2.1-1.6 2.7c0 0-1.7 1.1-1.7 1.1c-.5.3-1 .7-1.1 1.3c-.01-.05 4.5 0 4.5 0l0 1.2c0 0-6.15-.02-6.1 0c0-1.4.5-2.5 2-3.5c0 0 1.5-.9 1.5-.9c.8-.6 1.2-1.2 1.2-1.9c0-.8-.5-1.5-1.7-1.5c-1.1 0-1.6.8-1.6 1.8c0 .1 0 .2 0 .4c0 0-1.3-.2-1.3-.2zm8.9.6l2.6-2.4l-4.2 0l0-1.2l5.9 0l0 1.2c0 0-2.45 2.33-2.5 2.3c1.3 0 2.7.9 2.7 2.7c0 1.5-1.1 2.8-3.1 2.8c-2.1 0-3.2-1.3-3.3-2.8c0 0 1.3-.3 1.3-.3c.1 1.2.9 1.9 2 1.9c1.2 0 1.8-.7 1.8-1.6c0-1.1-.9-1.6-1.8-1.6c-.2 0-.5 0-.7.1c-.04.02-.7-1.1-.7-1.1z" stroke="none" fill="#144542"/></g><g id="Polygon159922"><path d="m1.2 226.6l0-9.6l1.4 0l0 9.6l-1.4 0zm7.3-5.2c-.2-.1-.4-.1-.6-.1c-1.1 0-1.8.6-1.8 2c.03.03 0 3.3 0 3.3l-1.2 0l0-6.5l1.2 0c0 0 0 1.12 0 1.1c.5-1 1.3-1.2 1.9-1.2c.2 0 .4 0 .5 0c0 0 0 1.4 0 1.4zm5.6 1.3c0-1-.6-1.7-1.8-1.7c-1 0-1.7.8-1.7 1.7c0 0 3.5 0 3.5 0zm1.3 2c-.4 1.2-1.4 2.1-2.9 2.1c-1.8 0-3.3-1.3-3.3-3.5c0-2 1.5-3.4 3.1-3.4c2 0 3.1 1.4 3.1 3.4c0 .1 0 .3 0 .4c0 0-4.9 0-4.9 0c.1 1.2.9 2 2 2c1 0 1.6-.6 1.8-1.3c0 0 1.1.3 1.1.3zm-5.1-7.4l1.6 0l1.2 1.9l-1.1 0l-1.7-1.9zm8 9.3l-1.2 0l0-6.5l1.2 0c0 0 .01.92 0 .9c.5-.8 1.2-1.1 2-1.1c1.6 0 2.3 1.1 2.3 2.6c.03-.04 0 4.1 0 4.1l-1.2 0c0 0-.04-3.92 0-3.9c0-.9-.4-1.7-1.6-1.7c-1 0-1.5.8-1.5 1.8c.03.03 0 3.8 0 3.8zm10.7-3.9c0-1-.6-1.7-1.8-1.7c-1 0-1.7.8-1.7 1.7c0 0 3.5 0 3.5 0zm1.3 2c-.4 1.2-1.4 2.1-2.9 2.1c-1.8 0-3.3-1.3-3.3-3.5c0-2 1.5-3.4 3.1-3.4c2 0 3.1 1.4 3.1 3.4c0 .1 0 .3 0 .4c0 0-4.9 0-4.9 0c.1 1.2.9 2 2 2c1 0 1.6-.6 1.8-1.3c0 0 1.1.3 1.1.3zm5.2 1.9l0-9.6l5.8 0l0 1.2l-4.5 0l0 3l4.1 0l0 1.2l-4.1 0l0 3l4.5 0l0 1.2l-5.8 0zm9.4-6.5l1.4 0l0 1.1l-1.4 0c0 0-.01 3.41 0 3.4c0 .6.2.9.9.9c.2 0 .4 0 .5-.1c0 0 0 1.1 0 1.1c-.1.1-.4.1-.9.1c-1.1 0-1.8-.6-1.8-1.8c.02 0 0-3.6 0-3.6l-1.2 0l0-1.1c0 0 .33-.01.3 0c.7 0 1-.4 1-1c.03-.01 0-1.1 0-1.1l1.2 0l0 2.1zm7.4 2.6c0-1-.6-1.7-1.8-1.7c-1.1 0-1.7.8-1.8 1.7c0 0 3.6 0 3.6 0zm1.3 2c-.4 1.2-1.4 2.1-2.9 2.1c-1.8 0-3.3-1.3-3.3-3.5c0-2 1.5-3.4 3.1-3.4c2 0 3.1 1.4 3.1 3.4c0 .1 0 .3 0 .4c0 0-4.9 0-4.9 0c0 1.2.9 2 2 2c1 0 1.5-.6 1.8-1.3c0 0 1.1.3 1.1.3zm2.9 1.9l-1.3 0l0-6.5l1.3 0c0 0-.03.92 0 .9c.4-.8 1.2-1.1 2-1.1c1.5 0 2.3 1.1 2.3 2.6c-.01-.04 0 4.1 0 4.1l-1.3 0c0 0 .02-3.92 0-3.9c0-.9-.4-1.7-1.5-1.7c-1 0-1.5.8-1.5 1.8c0 .03 0 3.8 0 3.8zm9-1c1.1 0 1.9-1 1.9-2.3c0-1.3-.8-2.3-1.9-2.3c-1.2 0-1.9 1-1.9 2.3c0 1.4.7 2.3 1.9 2.3zm1.9 0c-.3.6-1 1.2-2 1.2c-2 0-3.1-1.6-3.1-3.5c0-1.8 1.2-3.4 3.1-3.4c1.1 0 1.7.6 1.9 1.1c.04 0 0-4.2 0-4.2l1.3 0c0 0-.01 8.58 0 8.6c0 .6 0 1.1.1 1.2c0 0-1.3 0-1.3 0c0-.2 0-.5 0-.9c0 0 0-.1 0-.1zm7.7-2.9c0-1-.6-1.7-1.8-1.7c-1 0-1.7.8-1.7 1.7c0 0 3.5 0 3.5 0zm1.3 2c-.4 1.2-1.4 2.1-2.9 2.1c-1.7 0-3.3-1.3-3.3-3.5c0-2 1.5-3.4 3.1-3.4c2 0 3.1 1.4 3.1 3.4c0 .1 0 .3 0 .4c0 0-4.9 0-4.9 0c.1 1.2.9 2 2 2c1 0 1.6-.6 1.8-1.3c0 0 1.1.3 1.1.3zm11.7 1.9l-5.2-7.8l0 7.8l-1.3 0l0-9.6l1.7 0l4.8 7.4l0-7.4l1.3 0l0 9.6l-1.3 0zm4.4 0c.1 1 .8 1.6 1.8 1.6c1.3 0 2-.7 2-2.1c0 0 0-.9 0-.9c-.4.6-1.1 1.1-2 1.1c-1.8 0-3-1.3-3-3.2c0-1.7 1.2-3.1 3-3.1c1 0 1.6.3 2 1c-.03-.01 0-.9 0-.9l1.2 0c0 0 .02 5.99 0 6c0 1.6-.8 3.2-3.2 3.2c-1.7 0-2.9-1-3-2.4c0 0 1.2-.3 1.2-.3zm3.8-3.5c0-1.2-.7-2.1-1.8-2.1c-1.2 0-1.9.9-1.9 2.1c0 1.3.7 2.1 1.9 2.1c1.1 0 1.8-.8 1.8-2.1zm8.1.2c0-1.5-1-2.3-2.1-2.3c-1.1 0-2 .8-2 2.3c0 1.5.9 2.4 2 2.4c1.1 0 2.1-.9 2.1-2.4zm1.2 0c0 2-1.3 3.5-3.3 3.5c-1.9 0-3.3-1.5-3.3-3.5c0-1.9 1.4-3.4 3.3-3.4c2 0 3.3 1.5 3.3 3.4zm2.9 3.3l-1.2 0l0-6.5l1.2 0c0 0 .01.92 0 .9c.5-.8 1.3-1.1 2-1.1c1.6 0 2.3 1.1 2.3 2.6c.03-.04 0 4.1 0 4.1l-1.2 0c0 0-.04-3.92 0-3.9c0-.9-.4-1.7-1.5-1.7c-1 0-1.6.8-1.6 1.8c.04.03 0 3.8 0 3.8zm9-1c1.2 0 1.9-1 1.9-2.3c0-1.3-.7-2.3-1.9-2.3c-1.1 0-1.9 1-1.9 2.3c0 1.4.7 2.3 1.9 2.3zm1.9 0c-.3.6-1 1.2-2 1.2c-1.9 0-3.1-1.6-3.1-3.5c0-1.8 1.3-3.4 3.1-3.4c1.1 0 1.8.6 2 1.1c-.02 0 0-4.2 0-4.2l1.2 0c0 0 .03 8.58 0 8.6c0 .6.1 1.1.1 1.2c0 0-1.2 0-1.2 0c-.1-.2-.1-.5-.1-.9c0 0 0-.1 0-.1zm3.4-5.5l1.3 0c0 0-.04 7.24 0 7.2c0 1.2-.7 2-1.8 2c-.5 0-.7 0-.8 0c0 0 0-1.1 0-1.1c.1 0 .2 0 .4 0c.7 0 .9-.3.9-.9c0-.02 0-7.2 0-7.2zm.6-3.4c.5 0 .9.4.9.9c0 .5-.4.9-.9.9c-.5 0-.9-.4-.9-.9c0-.5.4-.9.9-.9zm2.8 9.9l0-6.5l1.3 0l0 6.5l-1.3 0zm.6-9.9c.6 0 1 .4 1 .9c0 .5-.4.9-1 .9c-.5 0-.9-.4-.9-.9c0-.5.4-.9.9-.9zm3.7 8.1c.6 0 1.1.4 1.1 1.3c0 1.8-1.2 2.5-2 2.6c0 0 0-.7 0-.7c.6-.1 1.1-.8 1.1-1.4c0 0-.1 0-.3 0c-.5 0-.9-.3-.9-.9c0-.5.4-.9 1-.9zm12.2-.9l-4.2 0l-1 2.7l-1.5 0l3.8-9.6l1.6 0l3.8 9.6l-1.5 0l-1-2.7zm-3.8-1.2l3.3 0l-1.6-4.3l-1.7 4.3zm7.5 3.9l0-9.8l1.3 0l0 9.8l-1.3 0zm7.6-.8c-.3.7-1.1 1-1.9 1c-1.5 0-2.4-1.1-2.4-2.6c-.01-.02 0-4.1 0-4.1l1.3 0c0 0-.05 3.89 0 3.9c0 .9.4 1.7 1.4 1.7c1.1 0 1.6-.7 1.6-1.7c-.03 0 0-3.9 0-3.9l1.2 0c0 0 .03 5.28 0 5.3c0 .5.1 1 .1 1.2c0 0-1.2 0-1.2 0c0-.2-.1-.5-.1-.8c0 0 0 0 0 0zm3.4.8l0-6.5l1.2 0c0 0 .01.85 0 .9c.4-.8 1.2-1.1 2-1.1c.8 0 1.6.4 1.9 1.2c.5-.9 1.4-1.2 2.2-1.2c1.1 0 2.2.8 2.2 2.5c.04-.03 0 4.2 0 4.2l-1.2 0c0 0-.02-4.1 0-4.1c0-.8-.4-1.5-1.4-1.5c-.9 0-1.5.7-1.5 1.7c.01-.05 0 3.9 0 3.9l-1.3 0c0 0 .04-4.1 0-4.1c0-.8-.4-1.5-1.3-1.5c-.9 0-1.6.7-1.6 1.7c.05-.03 0 3.9 0 3.9l-1.2 0zm12.8 0l-1.2 0l0-6.5l1.2 0c0 0 .01.92 0 .9c.5-.8 1.2-1.1 2-1.1c1.6 0 2.3 1.1 2.3 2.6c.03-.04 0 4.1 0 4.1l-1.2 0c0 0-.04-3.92 0-3.9c0-.9-.4-1.7-1.6-1.7c-1 0-1.5.8-1.5 1.8c.03.03 0 3.8 0 3.8zm6.4 0l0-6.5l1.2 0l0 6.5l-1.2 0zm.6-9.9c.5 0 .9.4.9.9c0 .5-.4.9-.9.9c-.5 0-.9-.4-.9-.9c0-.5.4-.9.9-.9zm8.8 8.9c1.2 0 1.9-1 1.9-2.3c0-1.3-.7-2.3-1.9-2.3c-1.1 0-1.9 1-1.9 2.3c0 1.4.7 2.3 1.9 2.3zm1.9 0c-.3.6-1 1.2-2 1.2c-1.9 0-3.1-1.6-3.1-3.5c0-1.8 1.2-3.4 3.1-3.4c1.1 0 1.7.6 2 1.1c-.04 0 0-4.2 0-4.2l1.2 0c0 0 .02 8.58 0 8.6c0 .6.1 1.1.1 1.2c0 0-1.2 0-1.2 0c-.1-.2-.1-.5-.1-.9c0 0 0-.1 0-.1zm7.6.2c-.4.7-1.2 1-1.9 1c-1.5 0-2.5-1.1-2.5-2.6c.05-.02 0-4.1 0-4.1l1.3 0c0 0 .01 3.89 0 3.9c0 .9.4 1.7 1.5 1.7c1 0 1.5-.7 1.5-1.7c.03 0 0-3.9 0-3.9l1.3 0c0 0-.01 5.28 0 5.3c0 .5 0 1 .1 1.2c0 0-1.3 0-1.3 0c0-.2 0-.5 0-.8c0 0 0 0 0 0zm10.1-4.3c1.2 0 1.9-.7 1.9-1.6c0-1.1-.7-1.7-1.9-1.7c0 0-1.9 0-1.9 0l0 3.3c0 0 1.9-.02 1.9 0zm-1.9 1.2l0 3.9l-1.3 0l0-9.6c0 0 3.45.01 3.4 0c1.8 0 3 1.2 3 2.8c0 1.7-1.2 2.9-3 2.9c.05-.03-2.1 0-2.1 0zm10-1.3c-.2-.1-.4-.1-.6-.1c-1 0-1.7.6-1.7 2c-.05.03 0 3.3 0 3.3l-1.3 0l0-6.5l1.2 0c0 0 .03 1.12 0 1.1c.5-1 1.3-1.2 2-1.2c.1 0 .3 0 .4 0c0 0 0 1.4 0 1.4zm6.1 1.9c0-1.5-1-2.3-2-2.3c-1.1 0-2.1.8-2.1 2.3c0 1.5 1 2.4 2.1 2.4c1 0 2-.9 2-2.4zm1.3 0c0 2-1.4 3.5-3.3 3.5c-2 0-3.4-1.5-3.4-3.5c0-1.9 1.4-3.4 3.4-3.4c1.9 0 3.3 1.5 3.3 3.4zm2.3 3.3c.1 1 .8 1.6 1.8 1.6c1.4 0 2-.7 2-2.1c0 0 0-.9 0-.9c-.3.6-1 1.1-2 1.1c-1.7 0-3-1.3-3-3.2c0-1.7 1.2-3.1 3-3.1c1 0 1.7.3 2 1c.02-.01 0-.9 0-.9l1.3 0c0 0-.03 5.99 0 6c0 1.6-.8 3.2-3.3 3.2c-1.6 0-2.8-1-3-2.4c0 0 1.2-.3 1.2-.3zm3.9-3.5c0-1.2-.8-2.1-1.9-2.1c-1.1 0-1.9.9-1.9 2.1c0 1.3.8 2.1 1.9 2.1c1.1 0 1.9-.8 1.9-2.1zm6.8-1.7c-.2-.1-.4-.1-.6-.1c-1 0-1.7.6-1.7 2c-.04.03 0 3.3 0 3.3l-1.3 0l0-6.5l1.2 0c0 0 .04 1.12 0 1.1c.5-1 1.3-1.2 2-1.2c.2 0 .3 0 .4 0c0 0 0 1.4 0 1.4zm.9 3.4c0-1.1.9-1.8 2-1.9c0 0 1.8-.3 1.8-.3c.4 0 .5-.2.5-.5c0-.6-.4-1.1-1.4-1.1c-.9 0-1.4.5-1.5 1.3c0 0-1.2-.3-1.2-.3c.1-1.3 1.2-2.1 2.6-2.1c2 0 2.7 1.1 2.7 2.4c0 0 0 3.2 0 3.2c0 .6.1.9.1 1.1c0 0-1.2 0-1.2 0c0-.2-.1-.4-.1-.9c-.3.5-.9 1.1-2.1 1.1c-1.3 0-2.2-.9-2.2-2c0 0 0 0 0 0zm4.3-1c-.03 0 0-.3 0-.3c0 0-2.01.3-2 .3c-.6.1-1 .4-1 1c0 .5.4.9 1.1.9c1 0 1.9-.5 1.9-1.9zm3.2 2.8l0-6.5l1.2 0c0 0 .03.85 0 .9c.4-.8 1.2-1.1 2-1.1c.8 0 1.6.4 1.9 1.2c.6-.9 1.4-1.2 2.2-1.2c1.1 0 2.3.8 2.3 2.5c-.04-.03 0 4.2 0 4.2l-1.3 0c0 0 0-4.1 0-4.1c0-.8-.4-1.5-1.4-1.5c-.9 0-1.5.7-1.5 1.7c.02-.05 0 3.9 0 3.9l-1.2 0c0 0-.04-4.1 0-4.1c0-.8-.4-1.5-1.4-1.5c-.9 0-1.5.7-1.5 1.7c-.03-.03 0 3.9 0 3.9l-1.3 0zm11.6 0l0-6.5l1.2 0c0 0 0 .85 0 .9c.4-.8 1.2-1.1 2-1.1c.8 0 1.6.4 1.9 1.2c.5-.9 1.4-1.2 2.2-1.2c1.1 0 2.2.8 2.2 2.5c.02-.03 0 4.2 0 4.2l-1.2 0c0 0-.03-4.1 0-4.1c0-.8-.4-1.5-1.4-1.5c-.9 0-1.5.7-1.5 1.7c-.01-.05 0 3.9 0 3.9l-1.3 0c0 0 .03-4.1 0-4.1c0-.8-.4-1.5-1.4-1.5c-.9 0-1.5.7-1.5 1.7c.04-.03 0 3.9 0 3.9l-1.2 0zm15.9-3.9c0-1-.6-1.7-1.8-1.7c-1 0-1.7.8-1.7 1.7c0 0 3.5 0 3.5 0zm1.3 2c-.4 1.2-1.4 2.1-2.9 2.1c-1.8 0-3.3-1.3-3.3-3.5c0-2 1.5-3.4 3.1-3.4c2 0 3.1 1.4 3.1 3.4c0 .1 0 .3 0 .4c0 0-4.9 0-4.9 0c.1 1.2.9 2 2 2c1 0 1.6-.6 1.8-1.3c0 0 1.1.3 1.1.3z" stroke="none" fill="#144542"/></g><g id="Polygon159921"><path d="m.9 210.4l0-6.7l.9 0l0 6.7l-.9 0zm8.5 0l-3.6-5.5l0 5.5l-1 0l0-6.7l1.3 0l3.3 5.1l0-5.1l1 0l0 6.7l-1 0zm6.4-5.9l0 5.9l-.9 0l0-5.9l-2.2 0l0-.8l5.4 0l0 .8l-2.3 0zm4.6 5.9l0-6.7l4 0l0 .8l-3.1 0l0 2.1l2.8 0l0 .9l-2.8 0l0 2l3.1 0l0 .9l-4 0zm8.7-2.8l-1 0l0 2.8l-.9 0l0-6.7c0 0 2.51-.02 2.5 0c1.3 0 2.1.9 2.1 2c0 .9-.6 1.7-1.7 1.9c.04-.03 1.6 2.8 1.6 2.8l-1 0l-1.6-2.8zm.4-.8c.8 0 1.3-.4 1.3-1.1c0-.7-.5-1.2-1.3-1.2c.04.02-1.4 0-1.4 0l0 2.3c0 0 1.44.01 1.4 0zm9.1-3.1l1 0l-2.6 6.7l-.9 0l-2.5-6.7l1 0l2 5.5l2-5.5zm3.3 6.7l0-6.7l.9 0l0 6.7l-.9 0zm4 0l0-6.7l4.1 0l0 .8l-3.2 0l0 2.1l2.9 0l0 .9l-2.9 0l0 2l3.2 0l0 .9l-4.1 0zm14.4-6.7l.9 0l-1.9 6.7l-.9 0l-1.8-5.4l-1.7 5.4l-.9 0l-2-6.7l1 0l1.5 5.2l1.6-5.2l1 0l1.7 5.3l1.5-5.3z" stroke="none" fill="#144542"/></g><g id="Polygon159920"><path d="m1.1 173.5l0-9.1l1.2 0c0 0 .01 1.01 0 1c.4-.6 1.1-1.1 2.2-1.1c1.9 0 3 1.5 3 3.3c0 2-1.2 3.5-3.1 3.5c-1 0-1.7-.5-2.1-1.1c.03.02 0 3.5 0 3.5l-1.2 0zm5.1-5.9c0-1.3-.8-2.2-1.9-2.2c-1.2 0-2 .9-2 2.2c0 1.4.8 2.3 2 2.3c1.1 0 1.9-.9 1.9-2.3c0 0 0 0 0 0zm6.5-1.9c-.2 0-.4-.1-.6-.1c-1 0-1.7.6-1.7 2c-.05.04 0 3.3 0 3.3l-1.3 0l0-6.5l1.2 0c0 0 .03 1.13 0 1.1c.5-1 1.3-1.2 2-1.2c.1 0 .3 0 .4 0c0 0 0 1.4 0 1.4zm6.1 1.9c0-1.5-1-2.3-2-2.3c-1.1 0-2.1.8-2.1 2.3c0 1.6 1 2.4 2.1 2.4c1 0 2-.8 2-2.4zm1.3 0c0 2-1.4 3.5-3.3 3.5c-2 0-3.4-1.5-3.4-3.5c0-1.9 1.4-3.4 3.4-3.4c1.9 0 3.3 1.5 3.3 3.4zm2.3 0c0 1.5 1 2.3 2 2.3c1.2 0 1.7-.8 1.8-1.3c0 0 1.2.5 1.2.5c-.3.9-1.3 2-3 2c-1.9 0-3.2-1.5-3.2-3.5c0-2 1.4-3.4 3.2-3.4c1.7 0 2.6 1.1 2.9 2.1c0 0-1.1.4-1.1.4c-.2-.6-.7-1.3-1.8-1.3c-1 0-2 .7-2 2.2zm7.7 3.3l-1.2 0l0-9.8l1.2 0c0 0 .02 4.06 0 4.1c.5-.7 1.2-1 2-1c1.5 0 2.3 1.1 2.3 2.6c.01-.02 0 4.1 0 4.1l-1.3 0c0 0 .04-3.91 0-3.9c0-.9-.3-1.6-1.5-1.6c-.9 0-1.5.7-1.5 1.7c.02-.03 0 3.8 0 3.8zm5.9-1.7c0-1.2.9-1.9 2-2c0 0 1.8-.3 1.8-.3c.3 0 .5-.2.5-.5c0-.6-.5-1.1-1.4-1.1c-.9 0-1.4.5-1.5 1.3c0 0-1.2-.3-1.2-.3c.1-1.2 1.2-2.1 2.6-2.1c2 0 2.7 1.1 2.7 2.4c0 0 0 3.2 0 3.2c0 .6.1.9.1 1.1c0 0-1.2 0-1.2 0c-.1-.2-.1-.4-.1-.9c-.3.5-.9 1.1-2.1 1.1c-1.3 0-2.2-.9-2.2-1.9c0 0 0 0 0 0zm4.3-1.1c-.04.01 0-.3 0-.3c0 0-2.03.31-2 .3c-.6.1-1 .4-1 1c0 .5.4.9 1.1.9c1 0 1.9-.5 1.9-1.9zm3.2 2.8l0-6.5l1.3 0l0 6.5l-1.3 0zm.6-9.9c.5 0 .9.4.9.9c0 .5-.4.9-.9.9c-.5 0-.9-.4-.9-.9c0-.5.4-.9.9-.9zm4.1 9.9l-1.3 0l0-6.5l1.3 0c0 0-.05.93 0 .9c.4-.8 1.2-1.1 2-1.1c1.5 0 2.3 1.1 2.3 2.6c-.03-.02 0 4.1 0 4.1l-1.3 0c0 0 .01-3.91 0-3.9c0-.9-.4-1.6-1.5-1.6c-1 0-1.5.8-1.5 1.7c-.02.04 0 3.8 0 3.8zm6.8-2.1c.1.7.6 1.2 1.6 1.2c.7 0 1.1-.4 1.1-.8c0-.5-.3-.8-.9-.9c0 0-1.1-.2-1.1-.2c-1-.2-1.6-.9-1.6-1.8c0-1.2 1-2.1 2.3-2.1c1.8 0 2.3 1.2 2.5 1.7c0 0-1.1.5-1.1.5c-.1-.4-.4-1.1-1.4-1.1c-.6 0-1.1.4-1.1.8c0 .4.3.7.8.8c0 0 1 .3 1 .3c1.2.2 1.8.9 1.8 1.9c0 .9-.8 2-2.4 2c-1.7 0-2.5-1.1-2.6-1.9c0 0 1.1-.4 1.1-.4zm11.6 1.2c1.2 0 1.9-1.1 1.9-2.4c0-1.3-.7-2.3-1.9-2.3c-1.1 0-1.9 1-1.9 2.3c0 1.4.7 2.4 1.9 2.4zm1.9-.1c-.3.6-1 1.2-2 1.2c-1.9 0-3.1-1.5-3.1-3.5c0-1.8 1.3-3.4 3.1-3.4c1.2 0 1.8.6 2 1.1c0 .02 0-4.2 0-4.2l1.3 0c0 0-.05 8.59 0 8.6c0 .6 0 1.1 0 1.2c0 0-1.2 0-1.2 0c0-.2-.1-.5-.1-.9c0 0 0-.1 0-.1zm7.8-2.9c0-1-.6-1.7-1.8-1.7c-1.1 0-1.7.8-1.8 1.7c0 0 3.6 0 3.6 0zm1.3 2c-.4 1.2-1.4 2.1-2.9 2.1c-1.8 0-3.3-1.3-3.3-3.5c0-2 1.5-3.4 3.1-3.4c2 0 3.1 1.4 3.1 3.4c0 .2 0 .3 0 .4c0 0-4.9 0-4.9 0c0 1.2.9 2 2 2c1 0 1.5-.6 1.8-1.3c0 0 1.1.3 1.1.3zm-2.6-5.4l-1.1 0l1.2-2l1.6 0l-1.7 2zm7.5-2.4c0 0 0 1.1 0 1.1c-.1 0-.2 0-.5 0c-.5 0-1.1.2-1.1 1.1c.03-.04 0 1 0 1l4.3 0l0 6.5l-1.2 0l0-5.4l-3.1 0l0 5.4l-1.3 0l0-5.4l-1.2 0l0-1.1l1.2 0c0 0 .02-1.09 0-1.1c0-1.4 1-2.2 2.2-2.2c.4 0 .7.1.7.1zm1.2.7c0-.5.4-.9.9-.9c.5 0 .9.4.9.9c0 .5-.4.9-.9.9c-.5 0-.9-.4-.9-.9c0 0 0 0 0 0zm4.2 6.9c.1.7.6 1.2 1.5 1.2c.8 0 1.1-.4 1.1-.8c0-.5-.3-.8-.8-.9c0 0-1.1-.2-1.1-.2c-1-.2-1.6-.9-1.6-1.8c0-1.2 1-2.1 2.3-2.1c1.8 0 2.3 1.2 2.5 1.7c0 0-1.2.5-1.2.5c0-.4-.3-1.1-1.3-1.1c-.7 0-1.1.4-1.1.8c0 .4.3.7.8.8c0 0 1 .3 1 .3c1.2.2 1.8.9 1.8 1.9c0 .9-.8 2-2.4 2c-1.8 0-2.5-1.1-2.6-1.9c0 0 1.1-.4 1.1-.4z" stroke="none" fill="#144542"/></g><g id="Polygon159919"><path d="m1.2 154.7l0-9.6l1.3 0l0 8.4l4.6 0l0 1.2l-5.9 0zm11.6-3.9c0-1-.6-1.7-1.8-1.7c-1.1 0-1.7.8-1.8 1.7c0 0 3.6 0 3.6 0zm1.3 2c-.4 1.2-1.4 2.1-2.9 2.1c-1.8 0-3.3-1.3-3.3-3.5c0-2 1.5-3.4 3.1-3.4c2 0 3.1 1.4 3.1 3.4c0 .2 0 .3 0 .4c0 0-4.9 0-4.9 0c0 1.2.9 2 2 2c1 0 1.5-.6 1.8-1.3c0 0 1.1.3 1.1.3zm2.2-.2c0 .7.6 1.2 1.5 1.2c.7 0 1.1-.4 1.1-.8c0-.5-.3-.8-.9-.9c0 0-1.1-.2-1.1-.2c-1-.2-1.6-.9-1.6-1.8c0-1.2 1.1-2.1 2.3-2.1c1.8 0 2.4 1.2 2.5 1.7c0 0-1.1.5-1.1.5c-.1-.4-.3-1.1-1.4-1.1c-.6 0-1 .4-1 .8c0 .4.2.7.7.8c0 0 1 .3 1 .3c1.2.2 1.8.9 1.8 1.9c0 .9-.7 2-2.3 2c-1.8 0-2.6-1.1-2.7-1.9c0 0 1.2-.4 1.2-.4zm11.6 1.2c1.1 0 1.8-1.1 1.8-2.4c0-1.3-.7-2.3-1.8-2.3c-1.2 0-1.9 1-1.9 2.3c0 1.4.6 2.4 1.9 2.4zm1.9-.1c-.4.6-1 1.2-2.1 1.2c-1.9 0-3-1.5-3-3.5c0-1.8 1.2-3.4 3-3.4c1.2 0 1.8.6 2 1.1c.03.02 0-4.2 0-4.2l1.3 0c0 0-.02 8.59 0 8.6c0 .6 0 1.1 0 1.2c0 0-1.2 0-1.2 0c0-.2 0-.5 0-.9c0 0 0-.1 0-.1zm3.3 1l0-6.5l1.3 0l0 6.5l-1.3 0zm.7-9.9c.5 0 .9.4.9.9c0 .5-.4.9-.9.9c-.5 0-.9-.4-.9-.9c0-.5.4-.9.9-.9zm4.2 6.6l-2.3-3.2l1.5 0l1.6 2.3l1.6-2.3l1.5 0c0 0-2.32 3.19-2.3 3.2c.4.5 2 2.8 2.4 3.3c-.03-.01-1.6 0-1.6 0l-1.6-2.4l-1.7 2.4l-1.5 0l2.4-3.3zm8.6 5.9l0-9.1l1.2 0c0 0-.01 1.01 0 1c.3-.6 1.1-1.1 2.2-1.1c1.9 0 2.9 1.5 2.9 3.3c0 2-1.1 3.5-3 3.5c-1 0-1.7-.5-2.1-1.1c.02.02 0 3.5 0 3.5l-1.2 0zm5.1-5.9c0-1.3-.8-2.2-2-2.2c-1.1 0-1.9.9-1.9 2.2c0 1.4.8 2.3 1.9 2.3c1.2 0 2-.9 2-2.3c0 0 0 0 0 0zm6.5-1.9c-.2 0-.4-.1-.6-.1c-1 0-1.8.6-1.8 2c.03.04 0 3.3 0 3.3l-1.2 0l0-6.5l1.2 0c0 0 .01 1.13 0 1.1c.5-1 1.3-1.2 2-1.2c.1 0 .3 0 .4 0c0 0 0 1.4 0 1.4zm6.1 1.9c0-1.5-1-2.3-2.1-2.3c-1 0-2 .8-2 2.3c0 1.6 1 2.4 2 2.4c1.1 0 2.1-.8 2.1-2.4zm1.3 0c0 2-1.4 3.5-3.4 3.5c-1.9 0-3.3-1.5-3.3-3.5c0-1.9 1.4-3.4 3.3-3.4c2 0 3.4 1.5 3.4 3.4zm2.3 0c0 1.5 1 2.3 2 2.3c1.2 0 1.7-.8 1.8-1.3c0 0 1.1.5 1.1.5c-.3.9-1.2 2-2.9 2c-1.9 0-3.3-1.5-3.3-3.5c0-2 1.5-3.4 3.3-3.4c1.7 0 2.6 1.1 2.9 2.1c0 0-1.2.4-1.2.4c-.1-.6-.6-1.3-1.7-1.3c-1 0-2 .7-2 2.2zm7.7 3.3l-1.3 0l0-9.8l1.3 0c0 0 0 4.06 0 4.1c.5-.7 1.2-1 2-1c1.5 0 2.3 1.1 2.3 2.6c-.01-.02 0 4.1 0 4.1l-1.3 0c0 0 .02-3.91 0-3.9c0-.9-.4-1.6-1.5-1.6c-1 0-1.5.7-1.5 1.7c0-.03 0 3.8 0 3.8zm5.9-1.7c0-1.2.9-1.9 2-2c0 0 1.7-.3 1.7-.3c.4 0 .5-.2.5-.5c0-.6-.4-1.1-1.4-1.1c-.9 0-1.4.5-1.4 1.3c0 0-1.3-.3-1.3-.3c.2-1.2 1.3-2.1 2.7-2.1c2 0 2.7 1.1 2.7 2.4c0 0 0 3.2 0 3.2c0 .6.1.9.1 1.1c0 0-1.3 0-1.3 0c0-.2 0-.4 0-.9c-.3.5-1 1.1-2.1 1.1c-1.3 0-2.2-.9-2.2-1.9c0 0 0 0 0 0zm4.2-1.1c.04.01 0-.3 0-.3c0 0-1.95.31-1.9.3c-.6.1-1 .4-1 1c0 .5.4.9 1.1.9c1 0 1.8-.5 1.8-1.9zm3.3 2.8l0-6.5l1.2 0l0 6.5l-1.2 0zm.6-9.9c.5 0 .9.4.9.9c0 .5-.4.9-.9.9c-.5 0-.9-.4-.9-.9c0-.5.4-.9.9-.9zm4.1 9.9l-1.3 0l0-6.5l1.2 0c0 0 .03.93 0 .9c.5-.8 1.3-1.1 2-1.1c1.6 0 2.4 1.1 2.4 2.6c-.05-.02 0 4.1 0 4.1l-1.3 0c0 0-.01-3.91 0-3.9c0-.9-.4-1.6-1.5-1.6c-1 0-1.5.8-1.5 1.7c-.04.04 0 3.8 0 3.8zm10.7-3.9c-.1-1-.7-1.7-1.8-1.7c-1.1 0-1.7.8-1.8 1.7c0 0 3.6 0 3.6 0zm1.2 2c-.3 1.2-1.4 2.1-2.9 2.1c-1.7 0-3.2-1.3-3.2-3.5c0-2 1.4-3.4 3.1-3.4c2 0 3.1 1.4 3.1 3.4c0 .2 0 .3-.1.4c0 0-4.8 0-4.8 0c0 1.2.8 2 1.9 2c1.1 0 1.6-.6 1.8-1.3c0 0 1.1.3 1.1.3zm2.2-.2c.1.7.6 1.2 1.5 1.2c.8 0 1.2-.4 1.2-.8c0-.5-.3-.8-.9-.9c0 0-1.1-.2-1.1-.2c-1-.2-1.6-.9-1.6-1.8c0-1.2 1-2.1 2.3-2.1c1.8 0 2.3 1.2 2.5 1.7c0 0-1.1.5-1.1.5c-.1-.4-.4-1.1-1.4-1.1c-.6 0-1.1.4-1.1.8c0 .4.3.7.8.8c0 0 1 .3 1 .3c1.2.2 1.8.9 1.8 1.9c0 .9-.8 2-2.4 2c-1.7 0-2.5-1.1-2.6-1.9c0 0 1.1-.4 1.1-.4zm8.6.4c0-1.2.8-1.9 1.9-2c0 0 1.8-.3 1.8-.3c.4 0 .5-.2.5-.5c0-.6-.4-1.1-1.4-1.1c-.9 0-1.4.5-1.5 1.3c0 0-1.2-.3-1.2-.3c.1-1.2 1.3-2.1 2.7-2.1c1.9 0 2.7 1.1 2.7 2.4c0 0 0 3.2 0 3.2c0 .6 0 .9 0 1.1c0 0-1.2 0-1.2 0c0-.2-.1-.4-.1-.9c-.2.5-.9 1.1-2.1 1.1c-1.3 0-2.1-.9-2.1-1.9c0 0 0 0 0 0zm4.2-1.1c0 .01 0-.3 0-.3c0 0-1.99.31-2 .3c-.5.1-.9.4-.9 1c0 .5.4.9 1 .9c1.1 0 1.9-.5 1.9-1.9zm4.5 2.8l-1.3 0l0-6.5l1.3 0c0 0-.02.93 0 .9c.4-.8 1.2-1.1 2-1.1c1.5 0 2.3 1.1 2.3 2.6c0-.02 0 4.1 0 4.1l-1.3 0c0 0 .03-3.91 0-3.9c0-.9-.4-1.6-1.5-1.6c-1 0-1.5.8-1.5 1.7c0 .04 0 3.8 0 3.8zm7.6 0l-1.3 0l0-6.5l1.3 0c0 0-.04.93 0 .9c.4-.8 1.2-1.1 2-1.1c1.5 0 2.3 1.1 2.3 2.6c-.02-.02 0 4.1 0 4.1l-1.3 0c0 0 .02-3.91 0-3.9c0-.9-.4-1.6-1.5-1.6c-1 0-1.5.8-1.5 1.7c-.01.04 0 3.8 0 3.8zm10.7-3.9c0-1-.7-1.7-1.8-1.7c-1.1 0-1.7.8-1.8 1.7c0 0 3.6 0 3.6 0zm1.3 2c-.4 1.2-1.4 2.1-3 2.1c-1.7 0-3.2-1.3-3.2-3.5c0-2 1.5-3.4 3.1-3.4c2 0 3.1 1.4 3.1 3.4c0 .2 0 .3 0 .4c0 0-4.9 0-4.9 0c0 1.2.9 2 1.9 2c1.1 0 1.6-.6 1.9-1.3c0 0 1.1.3 1.1.3zm-2.6-5.4l-1.1 0l1.2-2l1.6 0l-1.7 2zm8.6 3.4c0-1-.6-1.7-1.8-1.7c-1 0-1.7.8-1.8 1.7c0 0 3.6 0 3.6 0zm1.3 2c-.4 1.2-1.4 2.1-2.9 2.1c-1.8 0-3.3-1.3-3.3-3.5c0-2 1.5-3.4 3.1-3.4c2 0 3.1 1.4 3.1 3.4c0 .2 0 .3 0 .4c0 0-4.9 0-4.9 0c0 1.2.9 2 2 2c1 0 1.5-.6 1.8-1.3c0 0 1.1.3 1.1.3zm2.2-.2c.1.7.6 1.2 1.5 1.2c.7 0 1.1-.4 1.1-.8c0-.5-.3-.8-.8-.9c0 0-1.1-.2-1.1-.2c-1.1-.2-1.7-.9-1.7-1.8c0-1.2 1.1-2.1 2.3-2.1c1.8 0 2.4 1.2 2.5 1.7c0 0-1.1.5-1.1.5c-.1-.4-.3-1.1-1.4-1.1c-.6 0-1 .4-1 .8c0 .4.2.7.7.8c0 0 1.1.3 1.1.3c1.1.2 1.8.9 1.8 1.9c0 .9-.8 2-2.4 2c-1.8 0-2.6-1.1-2.7-1.9c0 0 1.2-.4 1.2-.4zm9.8.3c.5 0 .9.4.9.9c0 .6-.4 1-.9 1c-.5 0-.9-.4-.9-1c0-.5.4-.9.9-.9zm0-4.8c.5 0 .9.5.9 1c0 .5-.4.9-.9.9c-.5 0-.9-.4-.9-.9c0-.5.4-1 .9-1zm6.4 9.2l0-9.1l1.2 0c0 0 .04 1.01 0 1c.4-.6 1.2-1.1 2.2-1.1c2 0 3 1.5 3 3.3c0 2-1.1 3.5-3 3.5c-1 0-1.8-.5-2.1-1.1c-.04.02 0 3.5 0 3.5l-1.3 0zm5.1-5.9c0-1.3-.7-2.2-1.9-2.2c-1.2 0-2 .9-2 2.2c0 1.4.8 2.3 2 2.3c1.2 0 1.9-.9 1.9-2.3c0 0 0 0 0 0zm6.5-1.9c-.2 0-.4-.1-.5-.1c-1.1 0-1.8.6-1.8 2c-.02.04 0 3.3 0 3.3l-1.3 0l0-6.5l1.3 0c0 0-.04 1.13 0 1.1c.4-1 1.2-1.2 1.9-1.2c.2 0 .4 0 .4 0c0 0 0 1.4 0 1.4zm5.7 1.3c-.1-1-.7-1.7-1.8-1.7c-1.1 0-1.7.8-1.8 1.7c0 0 3.6 0 3.6 0zm1.3 2c-.4 1.2-1.4 2.1-3 2.1c-1.7 0-3.2-1.3-3.2-3.5c0-2 1.4-3.4 3.1-3.4c2 0 3.1 1.4 3.1 3.4c0 .2 0 .3 0 .4c0 0-4.9 0-4.9 0c0 1.2.8 2 1.9 2c1.1 0 1.6-.6 1.9-1.3c0 0 1.1.3 1.1.3zm-2.6-5.4l-1.1 0l1.2-2l1.6 0l-1.7 2zm4.2 9.9l0-9.1l1.2 0c0 0 .05 1.01 0 1c.4-.6 1.2-1.1 2.2-1.1c2 0 3 1.5 3 3.3c0 2-1.1 3.5-3 3.5c-1 0-1.8-.5-2.1-1.1c-.03.02 0 3.5 0 3.5l-1.3 0zm5.1-5.9c0-1.3-.7-2.2-1.9-2.2c-1.2 0-1.9.9-1.9 2.2c0 1.4.7 2.3 1.9 2.3c1.2 0 1.9-.9 1.9-2.3c0 0 0 0 0 0zm2.5 1.6c0-1.2.9-1.9 2-2c0 0 1.7-.3 1.7-.3c.4 0 .5-.2.5-.5c0-.6-.4-1.1-1.4-1.1c-.9 0-1.4.5-1.4 1.3c0 0-1.2-.3-1.2-.3c.1-1.2 1.2-2.1 2.6-2.1c2 0 2.7 1.1 2.7 2.4c0 0 0 3.2 0 3.2c0 .6.1.9.1 1.1c0 0-1.2 0-1.2 0c-.1-.2-.1-.4-.1-.9c-.3.5-.9 1.1-2.1 1.1c-1.3 0-2.2-.9-2.2-1.9c0 0 0 0 0 0zm4.2-1.1c.04.01 0-.3 0-.3c0 0-1.94.31-1.9.3c-.6.1-1 .4-1 1c0 .5.4.9 1.1.9c1 0 1.8-.5 1.8-1.9zm6.9-2.4c-.2 0-.4-.1-.6-.1c-1 0-1.7.6-1.7 2c-.05.04 0 3.3 0 3.3l-1.3 0l0-6.5l1.2 0c0 0 .02 1.13 0 1.1c.5-1 1.3-1.2 2-1.2c.1 0 .3 0 .4 0c0 0 0 1.4 0 1.4zm5.6 1.3c0-1-.6-1.7-1.7-1.7c-1.1 0-1.8.8-1.8 1.7c0 0 3.5 0 3.5 0zm1.3 2c-.3 1.2-1.4 2.1-2.9 2.1c-1.7 0-3.3-1.3-3.3-3.5c0-2 1.5-3.4 3.1-3.4c2 0 3.2 1.4 3.2 3.4c0 .2 0 .3-.1.4c0 0-4.8 0-4.8 0c0 1.2.8 2 1.9 2c1.1 0 1.6-.6 1.8-1.3c0 0 1.1.3 1.1.3zm5.3-3.3c-.2 0-.4-.1-.6-.1c-1 0-1.7.6-1.7 2c-.04.04 0 3.3 0 3.3l-1.3 0l0-6.5l1.2 0c0 0 .03 1.13 0 1.1c.5-1 1.3-1.2 2-1.2c.1 0 .3 0 .4 0c0 0 0 1.4 0 1.4zm9.1 1.3c0-1-.6-1.7-1.8-1.7c-1.1 0-1.7.8-1.8 1.7c0 0 3.6 0 3.6 0zm1.3 2c-.4 1.2-1.4 2.1-2.9 2.1c-1.8 0-3.3-1.3-3.3-3.5c0-2 1.5-3.4 3.1-3.4c2 0 3.1 1.4 3.1 3.4c0 .2 0 .3 0 .4c0 0-4.9 0-4.9 0c0 1.2.9 2 2 2c1 0 1.5-.6 1.8-1.3c0 0 1.1.3 1.1.3zm3.3-4.6l1.4 0l0 1.1l-1.4 0c0 0 .03 3.42 0 3.4c0 .6.3.9.9.9c.2 0 .4 0 .5 0c0 0 0 1 0 1c-.1.1-.4.2-.8.2c-1.1 0-1.8-.7-1.8-1.9c-.03.01 0-3.6 0-3.6l-1.3 0l0-1.1c0 0 .38 0 .4 0c.7 0 1-.4 1-1c-.03 0 0-1.1 0-1.1l1.1 0l0 2.1zm6.1 4.8c0-1.2.8-1.9 2-2c0 0 1.7-.3 1.7-.3c.4 0 .5-.2.5-.5c0-.6-.4-1.1-1.4-1.1c-.9 0-1.4.5-1.5 1.3c0 0-1.2-.3-1.2-.3c.2-1.2 1.3-2.1 2.7-2.1c1.9 0 2.7 1.1 2.7 2.4c0 0 0 3.2 0 3.2c0 .6 0 .9.1 1.1c0 0-1.3 0-1.3 0c0-.2 0-.4 0-.9c-.3.5-1 1.1-2.1 1.1c-1.4 0-2.2-.9-2.2-1.9c0 0 0 0 0 0zm4.2-1.1c.02.01 0-.3 0-.3c0 0-1.96.31-2 .3c-.5.1-.9.4-.9 1c0 .5.4.9 1 .9c1.1 0 1.9-.5 1.9-1.9zm4.5 2.8l-1.2 0l0-6.5l1.2 0c0 0 0 .93 0 .9c.5-.8 1.2-1.1 2-1.1c1.6 0 2.3 1.1 2.3 2.6c.02-.02 0 4.1 0 4.1l-1.2 0c0 0-.04-3.91 0-3.9c0-.9-.4-1.6-1.6-1.6c-1 0-1.5.8-1.5 1.7c.03.04 0 3.8 0 3.8zm8-6.5l1.5 0l0 1.1l-1.5 0c0 0 .05 3.42 0 3.4c0 .6.3.9 1 .9c.1 0 .3 0 .5 0c0 0 0 1 0 1c-.2.1-.5.2-.9.2c-1.1 0-1.8-.7-1.8-1.9c-.02.01 0-3.6 0-3.6l-1.3 0l0-1.1c0 0 .39 0 .4 0c.7 0 1-.4 1-1c-.01 0 0-1.1 0-1.1l1.1 0l0 2.1zm3.1 6.5l0-6.5l1.3 0l0 6.5l-1.3 0zm.7-9.9c.5 0 .9.4.9.9c0 .5-.4.9-.9.9c-.5 0-.9-.4-.9-.9c0-.5.4-.9.9-.9zm3.5 6.6c0 1.5.9 2.3 2 2.3c1.2 0 1.7-.8 1.8-1.3c0 0 1.1.5 1.1.5c-.3.9-1.2 2-2.9 2c-1.9 0-3.3-1.5-3.3-3.5c0-2 1.4-3.4 3.3-3.4c1.7 0 2.6 1.1 2.9 2.1c0 0-1.2.4-1.2.4c-.1-.6-.6-1.3-1.7-1.3c-1 0-2 .7-2 2.2zm6.4 3.3l0-6.5l1.3 0l0 6.5l-1.3 0zm.6-9.9c.5 0 .9.4.9.9c0 .5-.4.9-.9.9c-.5 0-.9-.4-.9-.9c0-.5.4-.9.9-.9zm2.8 12.5l0-9.1l1.3 0c0 0-.05 1.01 0 1c.3-.6 1.1-1.1 2.1-1.1c2 0 3 1.5 3 3.3c0 2-1.1 3.5-3 3.5c-1 0-1.8-.5-2.1-1.1c-.02.02 0 3.5 0 3.5l-1.3 0zm5.1-5.9c0-1.3-.7-2.2-1.9-2.2c-1.2 0-1.9.9-1.9 2.2c0 1.4.7 2.3 1.9 2.3c1.2 0 1.9-.9 1.9-2.3c0 0 0 0 0 0zm7.3-.6c0-1-.6-1.7-1.8-1.7c-1 0-1.7.8-1.7 1.7c0 0 3.5 0 3.5 0zm1.3 2c-.4 1.2-1.4 2.1-2.9 2.1c-1.8 0-3.3-1.3-3.3-3.5c0-2 1.5-3.4 3.1-3.4c2 0 3.1 1.4 3.1 3.4c0 .2 0 .3 0 .4c0 0-4.9 0-4.9 0c0 1.2.9 2 2 2c1 0 1.6-.6 1.8-1.3c0 0 1.1.3 1.1.3zm5.3-3.3c-.2 0-.4-.1-.6-.1c-1.1 0-1.8.6-1.8 2c.02.04 0 3.3 0 3.3l-1.3 0l0-6.5l1.3 0c0 0-.01 1.13 0 1.1c.5-1 1.3-1.2 1.9-1.2c.2 0 .4 0 .5 0c0 0 0 1.4 0 1.4zm4.7 5.2l0-9.8l1.2 0l0 9.8l-1.2 0zm7.8-3.9c0-1-.7-1.7-1.8-1.7c-1.1 0-1.7.8-1.8 1.7c0 0 3.6 0 3.6 0zm1.3 2c-.4 1.2-1.4 2.1-3 2.1c-1.7 0-3.2-1.3-3.2-3.5c0-2 1.5-3.4 3.1-3.4c2 0 3.1 1.4 3.1 3.4c0 .2 0 .3 0 .4c0 0-4.9 0-4.9 0c0 1.2.9 2 1.9 2c1.1 0 1.6-.6 1.9-1.3c0 0 1.1.3 1.1.3zm2.2-.2c0 .7.6 1.2 1.5 1.2c.7 0 1.1-.4 1.1-.8c0-.5-.3-.8-.9-.9c0 0-1.1-.2-1.1-.2c-1-.2-1.6-.9-1.6-1.8c0-1.2 1.1-2.1 2.3-2.1c1.8 0 2.4 1.2 2.5 1.7c0 0-1.1.5-1.1.5c-.1-.4-.3-1.1-1.4-1.1c-.6 0-1.1.4-1.1.8c0 .4.3.7.8.8c0 0 1 .3 1 .3c1.2.2 1.8.9 1.8 1.9c0 .9-.7 2-2.3 2c-1.8 0-2.6-1.1-2.7-1.9c0 0 1.2-.4 1.2-.4z" stroke="none" fill="#144542"/></g><g id="Polygon159918"><path d="m.9 138.5l0-6.7l4 0l0 .9l-3.1 0l0 2l2.8 0l0 .9l-2.8 0l0 2l3.1 0l0 .9l-4 0zm11.3 0l-3.6-5.5l0 5.5l-.9 0l0-6.7l1.2 0l3.4 5.1l0-5.1l.9 0l0 6.7l-1 0zm6.5-5.8l0 5.8l-1 0l0-5.8l-2.2 0l0-.9l5.4 0l0 .9l-2.2 0zm6.4 3.1l-1 0l0 2.7l-.9 0l0-6.7c0 0 2.52 0 2.5 0c1.3 0 2.1.9 2.1 2c0 .9-.6 1.7-1.7 1.9c.04-.01 1.6 2.8 1.6 2.8l-1 0l-1.6-2.7zm.4-.9c.8 0 1.3-.4 1.3-1.1c0-.7-.5-1.2-1.3-1.2c.05.03-1.4 0-1.4 0l0 2.3c0 0 1.45.02 1.4 0zm4.9 3.6l0-6.7l4.1 0l0 .9l-3.2 0l0 2l2.9 0l0 .9l-2.9 0l0 2l3.2 0l0 .9l-4.1 0zm9.2-5.8l0 5.8l-.9 0l0-5.8l-2.2 0l0-.9l5.4 0l0 .9l-2.3 0zm4.6 5.8l0-6.7l.9 0l0 6.7l-.9 0zm4 0l0-6.7l4.1 0l0 .9l-3.2 0l0 2l2.9 0l0 .9l-2.9 0l0 2l3.2 0l0 .9l-4.1 0zm11.4 0l-3.7-5.5l0 5.5l-.9 0l0-6.7l1.3 0l3.3 5.1l0-5.1l.9 0l0 6.7l-.9 0zm12.6-1.9l-3 0l-.7 1.9l-1 0l2.7-6.7l1.1 0l2.6 6.7l-1 0l-.7-1.9zm-2.6-.8l2.3 0l-1.2-3l-1.1 3zm10.4-4l1 0l-2.6 6.7l-.9 0l-2.5-6.7l.9 0l2.1 5.5l2-5.5zm3.3 6.7l0-6.7l4.1 0l0 .9l-3.2 0l0 2l2.9 0l0 .9l-2.9 0l0 2l3.2 0l0 .9l-4.1 0zm6.3-3.4c0-2.2 1.7-3.4 3.4-3.4c1.5 0 2.6.8 2.9 2.1c0 0-.8.3-.8.3c-.3-1-1-1.6-2.1-1.6c-1.3 0-2.4.9-2.4 2.6c0 1.8 1.1 2.7 2.4 2.7c1.1 0 1.8-.7 2.1-1.6c0 0 .8.3.8.3c-.3 1.2-1.4 2.1-2.9 2.1c-1.8 0-3.4-1.2-3.4-3.5zm16-2.4l0 5.8l-.9 0l0-5.8l-2.2 0l0-.9l5.4 0l0 .9l-2.3 0zm8.9 5.8l0-3l-3.4 0l0 3l-.9 0l0-6.7l.9 0l0 2.9l3.4 0l0-2.9l1 0l0 6.7l-1 0zm4 0l0-6.7l4.1 0l0 .9l-3.2 0l0 2l2.9 0l0 .9l-2.9 0l0 2l3.2 0l0 .9l-4.1 0zm2.2-7.2l-.8 0l.9-1.1l1.2 0l-1.3 1.1zm7.5 6.5c1.3 0 2.5-.9 2.5-2.7c0-1.7-1.2-2.6-2.5-2.6c-1.2 0-2.4.9-2.4 2.6c0 1.8 1.2 2.7 2.4 2.7zm0-6.1c1.7 0 3.4 1.2 3.4 3.4c0 2.3-1.7 3.5-3.4 3.5c-1.7 0-3.3-1.2-3.3-3.5c0-2.2 1.6-3.4 3.3-3.4zm14.2 1.9c-.1-.5-.5-1.1-1.4-1.1c-.8 0-1.3.5-1.3 1.1c0 .5.3.8.8 1c0 0 1 .2 1 .2c1.2.2 1.8.9 1.8 1.9c0 1-.9 1.9-2.3 1.9c-1.7 0-2.4-1-2.5-2c0 0 .8-.2.8-.2c.1.7.6 1.4 1.7 1.4c.9 0 1.3-.5 1.3-1.1c0-.5-.3-.9-1-1c0 0-.9-.2-.9-.2c-1-.2-1.7-.8-1.7-1.8c0-1.1 1-2 2.3-2c1.5 0 2.1.9 2.2 1.6c0 0-.8.3-.8.3zm3 1.5c0-2.2 1.7-3.4 3.3-3.4c1.6 0 2.7.8 3 2.1c0 0-.9.3-.9.3c-.2-1-1-1.6-2.1-1.6c-1.2 0-2.3.9-2.3 2.6c0 1.8 1.1 2.7 2.3 2.7c1.2 0 1.9-.7 2.2-1.6c0 0 .8.3.8.3c-.4 1.2-1.4 2.1-3 2.1c-1.7 0-3.3-1.2-3.3-3.5zm8.8 1.1c0 0 0-4.4 0-4.4l.9 0c0 0 .01 4.38 0 4.4c0 1 .6 1.6 1.5 1.6c.9 0 1.5-.6 1.5-1.6c-.01-.02 0-4.4 0-4.4l.9 0c0 0 .01 4.4 0 4.4c0 1.6-1 2.4-2.4 2.4c-1.4 0-2.4-.8-2.4-2.4zm10-4.4c1.2 0 2 .8 2 1.8c0 .7-.4 1.2-1 1.5c.7.1 1.2.8 1.2 1.6c0 1-.9 1.8-2.1 1.8c.02-.01-2.3 0-2.3 0l0-6.7c0 0 2.16 0 2.2 0zm-.1 2.9c.7 0 1.1-.4 1.1-1c0-.7-.4-1.1-1.2-1.1c.01.01-1.1 0-1.1 0l0 2.1c0 0 1.15.03 1.2 0zm.1 3c.7 0 1.2-.4 1.2-1.1c0-.6-.4-1.1-1.2-1.1c.02.02-1.3 0-1.3 0l0 2.2c0 0 1.29-.02 1.3 0zm4.8.8l0-6.7l.9 0l0 5.8l3.2 0l0 .9l-4.1 0zm10.6-1.9l-2.9 0l-.7 1.9l-1 0l2.6-6.7l1.1 0l2.7 6.7l-1 0l-.8-1.9zm-2.6-.8l2.3 0l-1.2-3l-1.1 3z" stroke="none" fill="#144542"/></g><g id="Polygon159917"><path d="m4.5 120.8c1.7 0 3.1-1.1 3.1-3.3c0-2.2-1.4-3.3-3.1-3.3c.05.01-1.7 0-1.7 0l0 6.6c0 0 1.74.01 1.7 0zm-3.3 1.5l0-9.6c0 0 3.4.02 3.4 0c2.6 0 4.7 1.8 4.7 4.8c0 3.1-2.1 4.8-4.7 4.8c-.01-.01-3.4 0-3.4 0zm15.5-1.3c1.6 0 3.2-1.2 3.2-3.5c0-2.3-1.6-3.5-3.2-3.5c-1.6 0-3.2 1.2-3.2 3.5c0 2.3 1.6 3.5 3.2 3.5zm0-8.5c2.5 0 4.9 1.9 4.9 5c0 3.1-2.4 5-4.9 5c-2.5 0-4.8-1.9-4.8-5c0-3.1 2.3-5 4.8-5zm12.9 2.9c-.1-.6-.6-1.4-1.9-1.4c-1 0-1.6.6-1.6 1.3c0 .6.3 1.1 1.1 1.3c0 0 1.4.2 1.4.2c1.7.4 2.6 1.4 2.6 2.8c0 1.5-1.2 2.9-3.4 2.9c-2.5 0-3.6-1.6-3.7-2.9c0 0 1.5-.5 1.5-.5c.1 1 .8 1.9 2.2 1.9c1.1 0 1.7-.5 1.7-1.3c0-.6-.4-1.1-1.3-1.3c0 0-1.3-.3-1.3-.3c-1.5-.3-2.5-1.2-2.5-2.7c0-1.6 1.5-2.9 3.3-2.9c2.3 0 3.1 1.4 3.3 2.5c0 0-1.4.4-1.4.4zm9.6 0c-.1-.6-.6-1.4-1.9-1.4c-1 0-1.7.6-1.7 1.3c0 .6.4 1.1 1.2 1.3c0 0 1.3.2 1.3.2c1.7.4 2.6 1.4 2.6 2.8c0 1.5-1.2 2.9-3.4 2.9c-2.4 0-3.5-1.6-3.7-2.9c0 0 1.6-.5 1.6-.5c0 1 .8 1.9 2.1 1.9c1.2 0 1.8-.5 1.8-1.3c0-.6-.5-1.1-1.3-1.3c0 0-1.4-.3-1.4-.3c-1.4-.3-2.4-1.2-2.4-2.7c0-1.6 1.5-2.9 3.3-2.9c2.2 0 3.1 1.4 3.3 2.5c0 0-1.4.4-1.4.4zm4.7 6.9l0-9.6l1.6 0l0 9.6l-1.6 0zm5.4 0l0-9.6l5.9 0l0 1.5l-4.3 0l0 2.6l3.9 0l0 1.4l-3.9 0l0 2.6l4.3 0l0 1.5l-5.9 0zm12.2-3.8l-1.2 0l0 3.8l-1.6 0l0-9.6c0 0 3.64.02 3.6 0c1.9 0 3 1.3 3 2.9c0 1.4-.8 2.4-2.1 2.8c-.02-.05 2.1 3.9 2.1 3.9l-1.8 0l-2-3.8zm.5-1.4c1 0 1.7-.6 1.7-1.5c0-.9-.7-1.4-1.7-1.4c.04-.05-1.7 0-1.7 0l0 2.9c0 0 1.74-.02 1.7 0zm16.1-1.7c-.1-.6-.6-1.4-1.9-1.4c-1 0-1.6.6-1.6 1.3c0 .6.3 1.1 1.1 1.3c0 0 1.4.2 1.4.2c1.6.4 2.5 1.4 2.5 2.8c0 1.5-1.2 2.9-3.3 2.9c-2.5 0-3.6-1.6-3.7-2.9c0 0 1.5-.5 1.5-.5c.1 1 .8 1.9 2.2 1.9c1.1 0 1.7-.5 1.7-1.3c0-.6-.5-1.1-1.3-1.3c0 0-1.3-.3-1.3-.3c-1.5-.3-2.5-1.2-2.5-2.7c0-1.6 1.5-2.9 3.3-2.9c2.2 0 3.1 1.4 3.3 2.5c0 0-1.4.4-1.4.4zm8 1.7c1.1 0 1.7-.5 1.7-1.4c0-1-.6-1.5-1.7-1.5c.03-.05-1.7 0-1.7 0l0 2.9c0 0 1.73.02 1.7 0zm-1.7 1.5l0 3.7l-1.6 0l0-9.6c0 0 3.57.02 3.6 0c1.8 0 3 1.3 3 2.9c0 1.7-1.2 3-3 3c-.03-.05-2 0-2 0zm11.3-6.6l-1.4 0l1.3-1.6l2.1 0l-2 1.6zm-3.3 10.3l0-9.6l5.9 0l0 1.5l-4.3 0l0 2.6l3.9 0l0 1.4l-3.9 0l0 2.6l4.3 0l0 1.5l-5.9 0zm8.7-4.8c0-3.1 2.4-5 4.8-5c2.5 0 3.9 1.5 4.4 3.1c0 0-1.6.5-1.6.5c-.3-1.1-1.1-2.1-2.8-2.1c-1.5 0-3.1 1.2-3.1 3.5c0 2.3 1.5 3.4 3.2 3.4c1.6 0 2.5-1 2.8-2.1c0 0 1.5.5 1.5.5c-.4 1.6-1.9 3.2-4.3 3.2c-2.6 0-4.9-1.9-4.9-5zm12.3 4.8l0-9.6l1.7 0l0 9.6l-1.7 0zm11.1-2.4l-4.1 0l-.8 2.4l-1.8 0l3.8-9.6l1.8 0l3.8 9.6l-1.8 0l-.9-2.4zm-3.5-1.5l2.9 0l-1.4-3.9l-1.5 3.9zm8.9 3.9l0-9.6l1.7 0l0 8.1l4.3 0l0 1.5l-6 0z" stroke="none" fill="#144542"/></g><g id="Polygon159916"><path d="m1.1 99l0-9.8l1.2 0l0 9.8l-1.2 0zm3.8-9.7c.5 0 1 .4 1 1.2c0 1.7-1.1 2.4-1.8 2.5c0 0 0-.7 0-.7c.6-.1 1-.7 1-1.4c-.1.1-.1.1-.3.1c-.5 0-.8-.3-.8-.8c0-.5.4-.9.9-.9zm6.2 5.8c0-.9-.6-1.7-1.8-1.7c-1.1 0-1.7.9-1.8 1.7c0 0 3.6 0 3.6 0zm1.3 2.1c-.4 1.1-1.4 2-2.9 2c-1.8 0-3.3-1.3-3.3-3.5c0-2 1.5-3.4 3.1-3.4c2 0 3.1 1.4 3.1 3.4c0 .2 0 .3 0 .4c0 0-4.9 0-4.9 0c0 1.2.9 2 2 2c1 0 1.5-.6 1.8-1.3c0 0 1.1.4 1.1.4zm1.6 1.8l0-6.5l1.3 0c0 0-.05.88 0 .9c.4-.7 1.2-1.1 1.9-1.1c.8 0 1.6.4 2 1.3c.5-1 1.3-1.3 2.1-1.3c1.2 0 2.3.8 2.3 2.5c-.02 0 0 4.2 0 4.2l-1.3 0c0 0 .03-4.07 0-4.1c0-.8-.4-1.5-1.3-1.5c-.9 0-1.5.7-1.5 1.7c-.05-.02 0 3.9 0 3.9l-1.3 0c0 0-.01-4.07 0-4.1c0-.8-.4-1.5-1.4-1.5c-.9 0-1.5.7-1.5 1.7c-.01-.01 0 3.9 0 3.9l-1.3 0zm11.6 2.6l0-9.1l1.2 0c0 0 .04 1.03 0 1c.4-.6 1.2-1.1 2.2-1.1c2 0 3 1.5 3 3.4c0 1.9-1.1 3.4-3 3.4c-1 0-1.8-.5-2.1-1.1c-.04.03 0 3.5 0 3.5l-1.3 0zm5.1-5.8c0-1.3-.7-2.3-1.9-2.3c-1.2 0-1.9 1-1.9 2.3c0 1.3.7 2.3 1.9 2.3c1.2 0 1.9-1 1.9-2.3c0 0 0 0 0 0zm2.9 3.2l0-9.8l1.3 0l0 9.8l-1.3 0zm8.3-3.2c0-1.5-1-2.4-2.1-2.4c-1.1 0-2 .9-2 2.4c0 1.5.9 2.3 2 2.3c1.1 0 2.1-.8 2.1-2.3zm1.2 0c0 1.9-1.3 3.4-3.3 3.4c-1.9 0-3.3-1.5-3.3-3.4c0-2 1.4-3.5 3.3-3.5c2 0 3.3 1.5 3.3 3.5zm1.7 3.2l0-6.5l1.2 0l0 6.5l-1.2 0zm.6-9.9c.5 0 .9.4.9 1c0 .5-.4.9-.9.9c-.5 0-.9-.4-.9-.9c0-.6.4-1 .9-1z" stroke="none" fill="#144542"/></g><g id="Polygon159915"><path d="m6.8 80.1l-4.2 0l-1 2.7l-1.5 0l3.8-9.6l1.6 0l3.8 9.6l-1.5 0l-1-2.7zm-3.8-1.2l3.3 0l-1.6-4.3l-1.7 4.3zm7.5 3.9l0-9.8l1.3 0l0 9.8l-1.3 0zm3.4 0l0-9.8l1.3 0l0 9.8l-1.3 0zm7.8-3.9c0-.9-.6-1.7-1.8-1.7c-1 0-1.7.9-1.7 1.7c0 0 3.5 0 3.5 0zm1.3 2.1c-.4 1.1-1.4 2-2.9 2c-1.8 0-3.3-1.3-3.3-3.5c0-2 1.5-3.4 3.1-3.4c2 0 3.1 1.4 3.1 3.4c0 .2 0 .3 0 .4c0 0-4.9 0-4.9 0c.1 1.2.9 2 2 2c1 0 1.6-.6 1.8-1.3c0 0 1.1.4 1.1.4zm5.3-3.4c-.2 0-.4 0-.6 0c-1.1 0-1.8.5-1.8 2c.03-.05 0 3.2 0 3.2l-1.2 0l0-6.5l1.2 0c0 0 .01 1.15 0 1.1c.5-.9 1.3-1.2 1.9-1.2c.2 0 .4 0 .5 0c0 0 0 1.4 0 1.4zm7.7 5.2l-1.3 0l-2.7-6.5l1.5 0l1.8 5l1.9-5l1.4 0l-2.6 6.5zm7.9-3.9c0-.9-.6-1.7-1.7-1.7c-1.1 0-1.8.9-1.8 1.7c0 0 3.5 0 3.5 0zm1.3 2.1c-.3 1.1-1.4 2-2.9 2c-1.7 0-3.3-1.3-3.3-3.5c0-2 1.5-3.4 3.1-3.4c2 0 3.2 1.4 3.2 3.4c0 .2 0 .3-.1.4c0 0-4.8 0-4.8 0c0 1.2.8 2 1.9 2c1.1 0 1.6-.6 1.8-1.3c0 0 1.1.4 1.1.4zm5.3-3.4c-.2 0-.4 0-.6 0c-1 0-1.7.5-1.7 2c-.05-.05 0 3.2 0 3.2l-1.3 0l0-6.5l1.2 0c0 0 .03 1.15 0 1.1c.5-.9 1.3-1.2 2-1.2c.1 0 .3 0 .4 0c0 0 0 1.4 0 1.4zm1.9 3.1c.1.7.6 1.2 1.5 1.2c.7 0 1.1-.4 1.1-.8c0-.4-.3-.7-.8-.9c0 0-1.1-.2-1.1-.2c-1.1-.2-1.7-.9-1.7-1.8c0-1.1 1.1-2.1 2.3-2.1c1.8 0 2.4 1.2 2.5 1.8c0 0-1.1.4-1.1.4c-.1-.4-.3-1.1-1.4-1.1c-.6 0-1 .4-1 .9c0 .3.2.6.7.7c0 0 1.1.3 1.1.3c1.1.2 1.8.9 1.8 1.9c0 .9-.8 2-2.4 2c-1.8 0-2.6-1.1-2.7-1.9c0 0 1.2-.4 1.2-.4zm8.9 2.1l0-9.8l1.3 0l0 9.8l-1.3 0zm7.8-3.9c0-.9-.6-1.7-1.8-1.7c-1 0-1.7.9-1.7 1.7c0 0 3.5 0 3.5 0zm1.3 2.1c-.4 1.1-1.4 2-2.9 2c-1.8 0-3.3-1.3-3.3-3.5c0-2 1.5-3.4 3.1-3.4c2 0 3.1 1.4 3.1 3.4c0 .2 0 .3 0 .4c0 0-4.9 0-4.9 0c.1 1.2.9 2 2 2c1 0 1.6-.6 1.8-1.3c0 0 1.1.4 1.1.4zm2.2-.3c.1.7.6 1.2 1.5 1.2c.7 0 1.1-.4 1.1-.8c0-.4-.3-.7-.8-.9c0 0-1.1-.2-1.1-.2c-1-.2-1.6-.9-1.6-1.8c0-1.1 1-2.1 2.3-2.1c1.7 0 2.3 1.2 2.4 1.8c0 0-1.1.4-1.1.4c0-.4-.3-1.1-1.3-1.1c-.7 0-1.1.4-1.1.9c0 .3.2.6.7.7c0 0 1.1.3 1.1.3c1.2.2 1.8.9 1.8 1.9c0 .9-.8 2-2.4 2c-1.8 0-2.5-1.1-2.6-1.9c0 0 1.1-.4 1.1-.4zm8.9 4.7l0-9.1l1.3 0c0 0-.03 1.03 0 1c.3-.6 1.1-1.1 2.1-1.1c2 0 3 1.5 3 3.4c0 1.9-1.1 3.4-3 3.4c-1 0-1.8-.5-2.1-1.1c-.01.03 0 3.5 0 3.5l-1.3 0zm5.1-5.8c0-1.3-.7-2.3-1.9-2.3c-1.1 0-1.9 1-1.9 2.3c0 1.3.8 2.3 1.9 2.3c1.2 0 1.9-1 1.9-2.3c0 0 0 0 0 0zm7.2 2.4c-.4.7-1.2 1-2 1c-1.5 0-2.4-1.1-2.4-2.6c.01.01 0-4.1 0-4.1l1.3 0c0 0-.02 3.92 0 3.9c0 .9.4 1.7 1.5 1.7c1 0 1.5-.7 1.5-1.7c-.01.03 0-3.9 0-3.9l1.3 0c0 0-.04 5.31 0 5.3c0 .5 0 1 0 1.2c0 0-1.2 0-1.2 0c0-.1 0-.5 0-.8c0 0 0 0 0 0zm3.3.8l0-9.8l1.3 0c0 0-.03 4.23 0 4.2c.3-.5 1-1.1 2.1-1.1c2 0 3 1.5 3 3.4c0 2-1.1 3.5-3 3.5c-1 0-1.7-.4-2.1-1.1c-.03-.04 0 .9 0 .9l-1.3 0zm3.2-5.6c-1.1 0-1.9.9-1.9 2.3c0 1.4.8 2.4 1.9 2.4c1.2 0 1.9-1 1.9-2.4c0-1.4-.7-2.3-1.9-2.3zm4.8 5.6l0-9.8l1.3 0l0 9.8l-1.3 0zm3.5 0l0-6.5l1.2 0l0 6.5l-1.2 0zm.6-9.9c.5 0 .9.4.9 1c0 .5-.4.9-.9.9c-.5 0-.9-.4-.9-.9c0-.6.4-1 .9-1zm3.5 6.7c0 1.4 1 2.2 2 2.2c1.2 0 1.7-.8 1.8-1.3c0 0 1.1.5 1.1.5c-.3.9-1.2 2-2.9 2c-1.9 0-3.3-1.5-3.3-3.4c0-2.1 1.4-3.5 3.3-3.5c1.7 0 2.6 1.1 2.9 2.1c0 0-1.2.5-1.2.5c-.1-.7-.6-1.4-1.7-1.4c-1 0-2 .7-2 2.3zm7 1.1c0 .7.6 1.2 1.5 1.2c.7 0 1.1-.4 1.1-.8c0-.4-.3-.7-.9-.9c0 0-1.1-.2-1.1-.2c-1-.2-1.6-.9-1.6-1.8c0-1.1 1.1-2.1 2.3-2.1c1.8 0 2.4 1.2 2.5 1.8c0 0-1.1.4-1.1.4c-.1-.4-.3-1.1-1.4-1.1c-.6 0-1.1.4-1.1.9c0 .3.3.6.8.7c0 0 1 .3 1 .3c1.2.2 1.8.9 1.8 1.9c0 .9-.7 2-2.3 2c-1.8 0-2.6-1.1-2.7-1.9c0 0 1.2-.4 1.2-.4zm8.9 2.1l0-6.5l1.3 0l0 6.5l-1.3 0zm.6-9.9c.5 0 .9.4.9 1c0 .5-.4.9-.9.9c-.5 0-.9-.4-.9-.9c0-.6.4-1 .9-1zm4.1 9.9l-1.3 0l0-6.5l1.3 0c0 0-.04.95 0 .9c.4-.8 1.2-1.1 2-1.1c1.5 0 2.3 1.1 2.3 2.6c-.02-.01 0 4.1 0 4.1l-1.3 0c0 0 .01-3.89 0-3.9c0-.9-.4-1.6-1.5-1.6c-1 0-1.5.8-1.5 1.8c-.02-.05 0 3.7 0 3.7zm9.3 0l-1.3 0l-2.6-6.5l1.4 0l1.8 5l1.9-5l1.4 0l-2.6 6.5zm3.8 0l0-6.5l1.2 0l0 6.5l-1.2 0zm.6-9.9c.5 0 .9.4.9 1c0 .5-.4.9-.9.9c-.5 0-.9-.4-.9-.9c0-.6.4-1 .9-1zm3.3 7.8c.1.7.6 1.2 1.5 1.2c.8 0 1.2-.4 1.2-.8c0-.4-.3-.7-.9-.9c0 0-1.1-.2-1.1-.2c-1-.2-1.6-.9-1.6-1.8c0-1.1 1-2.1 2.3-2.1c1.8 0 2.3 1.2 2.5 1.8c0 0-1.2.4-1.2.4c0-.4-.3-1.1-1.3-1.1c-.7 0-1.1.4-1.1.9c0 .3.3.6.8.7c0 0 1 .3 1 .3c1.2.2 1.8.9 1.8 1.9c0 .9-.8 2-2.4 2c-1.7 0-2.5-1.1-2.6-1.9c0 0 1.1-.4 1.1-.4zm5.6 2.1l0-6.5l1.3 0l0 6.5l-1.3 0zm.6-9.9c.5 0 .9.4.9 1c0 .5-.4.9-.9.9c-.5 0-.9-.4-.9-.9c0-.6.4-1 .9-1zm2.8 9.9l0-9.8l1.3 0c0 0-.03 4.23 0 4.2c.3-.5 1-1.1 2.1-1.1c2 0 3 1.5 3 3.4c0 2-1.1 3.5-3 3.5c-1 0-1.7-.4-2.1-1.1c-.03-.04 0 .9 0 .9l-1.3 0zm3.2-5.6c-1.1 0-1.9.9-1.9 2.3c0 1.4.8 2.4 1.9 2.4c1.1 0 1.9-1 1.9-2.4c0-1.4-.7-2.3-1.9-2.3zm4.8 5.6l0-9.8l1.3 0l0 9.8l-1.3 0zm7.8-3.9c0-.9-.6-1.7-1.8-1.7c-1 0-1.7.9-1.7 1.7c0 0 3.5 0 3.5 0zm1.3 2.1c-.4 1.1-1.4 2-2.9 2c-1.8 0-3.3-1.3-3.3-3.5c0-2 1.5-3.4 3.1-3.4c2 0 3.1 1.4 3.1 3.4c0 .2 0 .3 0 .4c0 0-4.9 0-4.9 0c.1 1.2.9 2 2 2c1 0 1.6-.6 1.8-1.3c0 0 1.1.4 1.1.4zm2.2-.3c.1.7.6 1.2 1.5 1.2c.7 0 1.1-.4 1.1-.8c0-.4-.3-.7-.8-.9c0 0-1.1-.2-1.1-.2c-1-.2-1.6-.9-1.6-1.8c0-1.1 1-2.1 2.3-2.1c1.7 0 2.3 1.2 2.4 1.8c0 0-1.1.4-1.1.4c0-.4-.3-1.1-1.3-1.1c-.7 0-1.1.4-1.1.9c0 .3.2.6.7.7c0 0 1.1.3 1.1.3c1.2.2 1.8.9 1.8 1.9c0 .9-.8 2-2.4 2c-1.8 0-2.5-1.1-2.6-1.9c0 0 1.1-.4 1.1-.4zm13.3-1.8c0-.9-.6-1.7-1.8-1.7c-1 0-1.7.9-1.7 1.7c0 0 3.5 0 3.5 0zm1.3 2.1c-.4 1.1-1.4 2-2.9 2c-1.8 0-3.3-1.3-3.3-3.5c0-2 1.5-3.4 3.1-3.4c2 0 3.1 1.4 3.1 3.4c0 .2 0 .3 0 .4c0 0-4.9 0-4.9 0c0 1.2.9 2 2 2c1 0 1.6-.6 1.8-1.3c0 0 1.1.4 1.1.4zm3.4-4.7l1.4 0l0 1.2l-1.4 0c0 0-.04 3.34 0 3.3c0 .6.2.9.9.9c.1 0 .4 0 .5 0c0 0 0 1.1 0 1.1c-.1 0-.5.1-.9.1c-1.1 0-1.8-.7-1.8-1.9c-.01.03 0-3.5 0-3.5l-1.3 0l0-1.2c0 0 .4.02.4 0c.7 0 1-.4 1-1c0 .02 0-1 0-1l1.2 0l0 2zm6.4 6.5l0-9.8l1.3 0l0 9.8l-1.3 0zm7.8-3.9c0-.9-.6-1.7-1.8-1.7c-1 0-1.7.9-1.7 1.7c0 0 3.5 0 3.5 0zm1.3 2.1c-.4 1.1-1.4 2-2.9 2c-1.7 0-3.3-1.3-3.3-3.5c0-2 1.5-3.4 3.1-3.4c2 0 3.1 1.4 3.1 3.4c0 .2 0 .3 0 .4c0 0-4.9 0-4.9 0c.1 1.2.9 2 2 2c1 0 1.6-.6 1.8-1.3c0 0 1.1.4 1.1.4zm2.2-.3c.1.7.6 1.2 1.5 1.2c.7 0 1.1-.4 1.1-.8c0-.4-.3-.7-.8-.9c0 0-1.1-.2-1.1-.2c-1-.2-1.6-.9-1.6-1.8c0-1.1 1-2.1 2.3-2.1c1.8 0 2.3 1.2 2.4 1.8c0 0-1.1.4-1.1.4c0-.4-.3-1.1-1.3-1.1c-.7 0-1.1.4-1.1.9c0 .3.2.6.7.7c0 0 1.1.3 1.1.3c1.2.2 1.8.9 1.8 1.9c0 .9-.8 2-2.4 2c-1.8 0-2.5-1.1-2.6-1.9c0 0 1.1-.4 1.1-.4zm8.9 4.7l0-9.1l1.3 0c0 0-.03 1.03 0 1c.3-.6 1.1-1.1 2.1-1.1c2 0 3 1.5 3 3.4c0 1.9-1.1 3.4-3 3.4c-1 0-1.7-.5-2.1-1.1c0 .03 0 3.5 0 3.5l-1.3 0zm5.1-5.8c0-1.3-.7-2.3-1.9-2.3c-1.1 0-1.9 1-1.9 2.3c0 1.3.8 2.3 1.9 2.3c1.2 0 1.9-1 1.9-2.3c0 0 0 0 0 0zm6.6-2c-.2 0-.4 0-.6 0c-1.1 0-1.8.5-1.8 2c.02-.05 0 3.2 0 3.2l-1.2 0l0-6.5l1.2 0c0 0-.01 1.15 0 1.1c.5-.9 1.3-1.2 1.9-1.2c.2 0 .4 0 .5 0c0 0 0 1.4 0 1.4zm5.6 1.3c0-.9-.6-1.7-1.8-1.7c-1 0-1.7.9-1.7 1.7c0 0 3.5 0 3.5 0zm1.3 2.1c-.4 1.1-1.4 2-2.9 2c-1.8 0-3.3-1.3-3.3-3.5c0-2 1.5-3.4 3.1-3.4c2 0 3.1 1.4 3.1 3.4c0 .2 0 .3 0 .4c0 0-4.9 0-4.9 0c0 1.2.9 2 2 2c1 0 1.6-.6 1.8-1.3c0 0 1.1.4 1.1.4zm-2.6-5.5l-1 0l1.1-2l1.6 0l-1.7 2zm4.3 9.9l0-9.1l1.2 0c0 0-.02 1.03 0 1c.3-.6 1.1-1.1 2.2-1.1c1.9 0 2.9 1.5 2.9 3.4c0 1.9-1.1 3.4-3 3.4c-1 0-1.7-.5-2.1-1.1c.01.03 0 3.5 0 3.5l-1.2 0zm5-5.8c0-1.3-.7-2.3-1.9-2.3c-1.1 0-1.9 1-1.9 2.3c0 1.3.8 2.3 1.9 2.3c1.2 0 1.9-1 1.9-2.3c0 0 0 0 0 0zm2.6 1.5c0-1.2.8-1.8 1.9-2c0 0 1.8-.3 1.8-.3c.4 0 .5-.2.5-.4c0-.7-.4-1.2-1.4-1.2c-.9 0-1.4.5-1.5 1.3c0 0-1.2-.3-1.2-.3c.1-1.2 1.2-2.1 2.7-2.1c1.9 0 2.6 1.1 2.6 2.4c0 0 0 3.3 0 3.3c0 .5.1.9.1 1c0 0-1.2 0-1.2 0c0-.1-.1-.4-.1-.9c-.3.5-.9 1.1-2.1 1.1c-1.3 0-2.1-.9-2.1-1.9c0 0 0 0 0 0zm4.2-1.1c-.02.03 0-.3 0-.3c0 0-2 .33-2 .3c-.5.1-.9.4-.9 1c0 .5.4.9 1 .9c1 0 1.9-.5 1.9-1.9zm6.8-2.4c-.2 0-.4 0-.5 0c-1.1 0-1.8.5-1.8 2c-.01-.05 0 3.2 0 3.2l-1.3 0l0-6.5l1.3 0c0 0-.04 1.15 0 1.1c.4-.9 1.2-1.2 1.9-1.2c.2 0 .4 0 .4 0c0 0 0 1.4 0 1.4zm5.7 1.3c0-.9-.7-1.7-1.8-1.7c-1.1 0-1.7.9-1.8 1.7c0 0 3.6 0 3.6 0zm1.3 2.1c-.4 1.1-1.4 2-3 2c-1.7 0-3.2-1.3-3.2-3.5c0-2 1.5-3.4 3.1-3.4c2 0 3.1 1.4 3.1 3.4c0 .2 0 .3 0 .4c0 0-4.9 0-4.9 0c0 1.2.9 2 1.9 2c1.1 0 1.6-.6 1.9-1.3c0 0 1.1.4 1.1.4zm5.2-3.4c-.2 0-.3 0-.5 0c-1.1 0-1.8.5-1.8 2c-.01-.05 0 3.2 0 3.2l-1.3 0l0-6.5l1.3 0c0 0-.03 1.15 0 1.1c.4-.9 1.2-1.2 1.9-1.2c.2 0 .4 0 .4 0c0 0 0 1.4 0 1.4zm4.4 3.5c0-1.2.8-1.8 1.9-2c0 0 1.8-.3 1.8-.3c.4 0 .5-.2.5-.4c0-.7-.4-1.2-1.4-1.2c-.9 0-1.4.5-1.5 1.3c0 0-1.2-.3-1.2-.3c.1-1.2 1.2-2.1 2.6-2.1c2 0 2.7 1.1 2.7 2.4c0 0 0 3.3 0 3.3c0 .5.1.9.1 1c0 0-1.2 0-1.2 0c0-.1-.1-.4-.1-.9c-.3.5-.9 1.1-2.1 1.1c-1.3 0-2.1-.9-2.1-1.9c0 0 0 0 0 0zm4.2-1.1c-.02.03 0-.3 0-.3c0 0-2.01.33-2 .3c-.5.1-1 .4-1 1c0 .5.5.9 1.1.9c1 0 1.9-.5 1.9-1.9zm-3.5-6.5l1.6 0l1.2 2l-1.1 0l-1.7-2z" stroke="none" fill="#144542"/></g><g id="Polygon159914"><path d="m4.5 65.1c1.7 0 3.1-1 3.1-3.3c0-2.2-1.4-3.3-3.1-3.3c.05.02-1.7 0-1.7 0l0 6.6c0 0 1.74.02 1.7 0zm-3.3 1.5l0-9.6c0 0 3.4.04 3.4 0c2.6 0 4.7 1.8 4.7 4.8c0 3.1-2.1 4.8-4.7 4.8c-.01.01-3.4 0-3.4 0zm15.5-1.3c1.6 0 3.2-1.2 3.2-3.5c0-2.3-1.6-3.4-3.2-3.4c-1.6 0-3.2 1.1-3.2 3.4c0 2.3 1.6 3.5 3.2 3.5zm0-8.5c2.5 0 4.9 1.9 4.9 5c0 3.2-2.4 5-4.9 5c-2.5 0-4.8-1.8-4.8-5c0-3.1 2.3-5 4.8-5zm12.9 2.9c-.1-.6-.6-1.4-1.9-1.4c-1 0-1.6.6-1.6 1.3c0 .6.3 1.1 1.1 1.3c0 0 1.4.3 1.4.3c1.7.3 2.6 1.4 2.6 2.7c0 1.5-1.2 2.9-3.4 2.9c-2.5 0-3.6-1.6-3.7-2.9c0 0 1.5-.5 1.5-.5c.1 1 .8 2 2.2 2c1.1 0 1.7-.6 1.7-1.4c0-.6-.4-1.1-1.3-1.3c0 0-1.3-.2-1.3-.2c-1.5-.3-2.5-1.3-2.5-2.7c0-1.6 1.5-3 3.3-3c2.3 0 3.1 1.4 3.3 2.5c0 0-1.4.4-1.4.4zm9.6 0c-.1-.6-.6-1.4-1.9-1.4c-1 0-1.7.6-1.7 1.3c0 .6.4 1.1 1.2 1.3c0 0 1.3.3 1.3.3c1.7.3 2.6 1.4 2.6 2.7c0 1.5-1.2 2.9-3.4 2.9c-2.4 0-3.5-1.6-3.7-2.9c0 0 1.6-.5 1.6-.5c0 1 .8 2 2.1 2c1.2 0 1.8-.6 1.8-1.4c0-.6-.5-1.1-1.3-1.3c0 0-1.4-.2-1.4-.2c-1.4-.3-2.4-1.3-2.4-2.7c0-1.6 1.5-3 3.3-3c2.2 0 3.1 1.4 3.3 2.5c0 0-1.4.4-1.4.4zm4.7 6.9l0-9.6l1.6 0l0 9.6l-1.6 0zm5.4 0l0-9.6l5.9 0l0 1.5l-4.3 0l0 2.6l3.9 0l0 1.5l-3.9 0l0 2.5l4.3 0l0 1.5l-5.9 0zm12.2-3.8l-1.2 0l0 3.8l-1.6 0l0-9.6c0 0 3.64.04 3.6 0c1.9 0 3 1.3 3 2.9c0 1.4-.8 2.4-2.1 2.8c-.02-.03 2.1 3.9 2.1 3.9l-1.8 0l-2-3.8zm.5-1.4c1 0 1.7-.6 1.7-1.5c0-.9-.7-1.4-1.7-1.4c.04-.03-1.7 0-1.7 0l0 2.9c0 0 1.74 0 1.7 0zm16.1-1.7c-.1-.6-.6-1.4-1.9-1.4c-1 0-1.6.6-1.6 1.3c0 .6.3 1.1 1.1 1.3c0 0 1.4.3 1.4.3c1.6.3 2.5 1.4 2.5 2.7c0 1.5-1.2 2.9-3.3 2.9c-2.5 0-3.6-1.6-3.7-2.9c0 0 1.5-.5 1.5-.5c.1 1 .8 2 2.2 2c1.1 0 1.7-.6 1.7-1.4c0-.6-.5-1.1-1.3-1.3c0 0-1.3-.2-1.3-.2c-1.5-.3-2.5-1.3-2.5-2.7c0-1.6 1.5-3 3.3-3c2.2 0 3.1 1.4 3.3 2.5c0 0-1.4.4-1.4.4zm8 1.7c1.1 0 1.7-.5 1.7-1.4c0-1-.6-1.5-1.7-1.5c.03-.03-1.7 0-1.7 0l0 2.9c0 0 1.73.04 1.7 0zm-1.7 1.5l0 3.7l-1.6 0l0-9.6c0 0 3.57.04 3.6 0c1.8 0 3 1.3 3 3c0 1.6-1.2 2.9-3 2.9c-.03-.03-2 0-2 0zm11.3-6.5l-1.4 0l1.3-1.7l2.1 0l-2 1.7zm-3.3 10.2l0-9.6l5.9 0l0 1.5l-4.3 0l0 2.6l3.9 0l0 1.5l-3.9 0l0 2.5l4.3 0l0 1.5l-5.9 0zm8.7-4.8c0-3.1 2.4-5 4.8-5c2.5 0 3.9 1.5 4.4 3.1c0 0-1.6.6-1.6.6c-.3-1.2-1.1-2.1-2.8-2.1c-1.5 0-3.1 1.1-3.1 3.4c0 2.3 1.5 3.5 3.2 3.5c1.6 0 2.5-1.1 2.8-2.1c0 0 1.5.4 1.5.4c-.4 1.7-1.9 3.2-4.3 3.2c-2.6 0-4.9-1.9-4.9-5zm12.3 4.8l0-9.6l1.7 0l0 9.6l-1.7 0zm11.1-2.4l-4.1 0l-.8 2.4l-1.8 0l3.8-9.6l1.8 0l3.8 9.6l-1.8 0l-.9-2.4zm-3.5-1.5l2.9 0l-1.4-3.9l-1.5 3.9zm8.9 3.9l0-9.6l1.7 0l0 8.1l4.3 0l0 1.5l-6 0z" stroke="none" fill="#144542"/></g><g id="Polygon159913"><path d="m.7 41.6c0-1.2.8-1.8 1.9-2c0 0 1.8-.2 1.8-.2c.4-.1.5-.3.5-.5c0-.7-.4-1.2-1.4-1.2c-.9 0-1.4.6-1.5 1.3c0 0-1.2-.3-1.2-.3c.1-1.2 1.3-2.1 2.7-2.1c1.9 0 2.7 1.1 2.7 2.4c0 0 0 3.3 0 3.3c0 .5 0 .9 0 1c0 0-1.2 0-1.2 0c0-.1-.1-.4-.1-.9c-.2.5-.9 1.1-2.1 1.1c-1.3 0-2.1-.9-2.1-1.9c0 0 0 0 0 0zm4.2-1.1c0 .04 0-.3 0-.3c0 0-1.98.34-2 .3c-.5.1-.9.4-.9 1c0 .5.4 1 1 1c1.1 0 1.9-.5 1.9-2zm4-.4c0 1.5.9 2.3 2 2.3c1.2 0 1.6-.9 1.8-1.4c0 0 1.1.5 1.1.5c-.3.9-1.2 2-2.9 2c-1.9 0-3.3-1.5-3.3-3.4c0-2.1 1.4-3.5 3.3-3.5c1.7 0 2.6 1.1 2.9 2.1c0 0-1.2.5-1.2.5c-.2-.7-.6-1.4-1.7-1.4c-1.1 0-2 .8-2 2.3zm8.1-3.3l1.4 0l0 1.2l-1.4 0c0 0 0 3.35 0 3.4c0 .5.2.8.9.8c.2 0 .4 0 .5 0c0 0 0 1.1 0 1.1c-.1 0-.4.1-.9.1c-1.1 0-1.8-.7-1.8-1.9c.03.04 0-3.5 0-3.5l-1.2 0l0-1.2c0 0 .34.03.3 0c.7 0 1-.4 1-1c.04.03 0-1 0-1l1.2 0l0 2zm3.1 6.5l0-6.5l1.2 0l0 6.5l-1.2 0zm.6-9.8c.5 0 .9.4.9.9c0 .5-.4.9-.9.9c-.5 0-.9-.4-.9-.9c0-.5.4-.9.9-.9zm7.6 6.6c0-1.5-.9-2.3-2-2.3c-1.1 0-2 .8-2 2.3c0 1.5.9 2.3 2 2.3c1.1 0 2-.8 2-2.3zm1.3 0c0 2-1.4 3.4-3.3 3.4c-2 0-3.3-1.4-3.3-3.4c0-2 1.3-3.5 3.3-3.5c1.9 0 3.3 1.5 3.3 3.5zm2.9 3.2l-1.3 0l0-6.5l1.3 0c0 0-.03.96 0 1c.4-.9 1.2-1.2 2-1.2c1.5 0 2.3 1.2 2.3 2.6c-.01 0 0 4.1 0 4.1l-1.3 0c0 0 .02-3.88 0-3.9c0-.9-.4-1.6-1.5-1.6c-1 0-1.5.8-1.5 1.8c-.01-.03 0 3.7 0 3.7zm14.3 2.6c0 0-.05-3.5 0-3.5c-.4.7-1.1 1.1-2.1 1.1c-1.8 0-3.1-1.6-3.1-3.4c0-1.9 1.2-3.4 3.1-3.4c1.1 0 1.8.5 2.1 1.1c-.02.03 0-1 0-1l1.2 0l0 9.1l-1.2 0zm-2-3.5c1.2 0 2-1 2-2.3c0-1.4-.8-2.3-2-2.3c-1.1 0-1.9.9-1.9 2.3c0 1.3.8 2.3 1.9 2.3zm9.5.1c-.3.7-1.2 1-1.9 1c-1.5 0-2.4-1.1-2.4-2.6c-.04.02 0-4.1 0-4.1l1.2 0c0 0 .03 3.93 0 3.9c0 .9.4 1.7 1.5 1.7c1 0 1.5-.7 1.5-1.7c.04.04 0-3.9 0-3.9l1.3 0c0 0 .01 5.32 0 5.3c0 .5.1 1 .1 1.2c0 0-1.2 0-1.2 0c-.1-.1-.1-.5-.1-.8c0 0 0 0 0 0zm3.4.8l0-6.5l1.2 0l0 6.5l-1.2 0zm.6-9.8c.5 0 .9.4.9.9c0 .5-.4.9-.9.9c-.5 0-.9-.4-.9-.9c0-.5.4-.9.9-.9zm6.7 7.7c.1.7.6 1.2 1.5 1.2c.7 0 1.1-.4 1.1-.8c0-.4-.3-.7-.8-.9c0 0-1.1-.2-1.1-.2c-1-.2-1.6-.9-1.6-1.8c0-1.1 1-2.1 2.3-2.1c1.7 0 2.3 1.2 2.4 1.8c0 0-1.1.4-1.1.4c0-.4-.3-1.1-1.3-1.1c-.7 0-1.1.4-1.1.9c0 .4.2.6.7.8c0 0 1.1.2 1.1.2c1.2.2 1.8 1 1.8 1.9c0 .9-.8 2-2.4 2c-1.8 0-2.5-1.1-2.6-1.9c0 0 1.1-.4 1.1-.4zm5.2-7.6c.5 0 1 .4 1 1.2c0 1.7-1.1 2.4-1.8 2.5c0 0 0-.7 0-.7c.6-.1 1-.7 1-1.3c0 0-.1 0-.3 0c-.4 0-.8-.3-.8-.8c0-.5.4-.9.9-.9zm1.7 8c0-1.2.9-1.8 2-2c0 0 1.7-.2 1.7-.2c.4-.1.5-.3.5-.5c0-.7-.4-1.2-1.4-1.2c-.9 0-1.4.6-1.5 1.3c0 0-1.2-.3-1.2-.3c.2-1.2 1.3-2.1 2.7-2.1c1.9 0 2.7 1.1 2.7 2.4c0 0 0 3.3 0 3.3c0 .5 0 .9.1 1c0 0-1.3 0-1.3 0c0-.1 0-.4 0-.9c-.3.5-1 1.1-2.1 1.1c-1.3 0-2.2-.9-2.2-1.9c0 0 0 0 0 0zm4.2-1.1c.03.04 0-.3 0-.3c0 0-1.96.34-2 .3c-.5.1-.9.4-.9 1c0 .5.4 1 1 1c1.1 0 1.9-.5 1.9-2zm3.3 2.8l0-6.5l1.2 0c0 0-.02.89 0 .9c.4-.7 1.2-1.1 2-1.1c.8 0 1.5.4 1.9 1.3c.5-1 1.3-1.3 2.2-1.3c1.1 0 2.2.8 2.2 2.5c.01.01 0 4.2 0 4.2l-1.2 0c0 0-.04-4.06 0-4.1c0-.8-.5-1.4-1.4-1.4c-.9 0-1.5.7-1.5 1.6c-.02-.01 0 3.9 0 3.9l-1.3 0c0 0 .01-4.06 0-4.1c0-.8-.4-1.4-1.4-1.4c-.9 0-1.5.6-1.5 1.6c.02.01 0 3.9 0 3.9l-1.2 0zm11.5 2.6l0-9.1l1.3 0c0 0-.04 1.04 0 1c.3-.6 1.1-1.1 2.1-1.1c2 0 3 1.5 3 3.4c0 1.9-1.1 3.4-3 3.4c-1 0-1.8-.5-2.1-1.1c-.01.04 0 3.5 0 3.5l-1.3 0zm5.1-5.8c0-1.3-.7-2.3-1.9-2.3c-1.2 0-1.9 1-1.9 2.3c0 1.3.7 2.3 1.9 2.3c1.2 0 1.9-1 1.9-2.3c0 0 0 0 0 0zm2.9 3.2l0-9.8l1.3 0l0 9.8l-1.3 0zm3.5 0l0-6.5l1.2 0l0 6.5l-1.2 0zm.6-9.8c.5 0 .9.4.9.9c0 .5-.4.9-.9.9c-.5 0-.9-.4-.9-.9c0-.5.4-.9.9-.9zm6.1.1c0 0 0 1.2 0 1.2c-.1-.1-.3-.1-.6-.1c-.4 0-1 .2-1 1.1c-.01-.01 0 1 0 1l4.3 0l0 6.5l-1.3 0l0-5.3l-3 0l0 5.3l-1.3 0l0-5.3l-1.2 0l0-1.2l1.2 0c0 0-.02-1.07 0-1.1c0-1.4.9-2.2 2.1-2.2c.4 0 .7.1.8.1zm1.1.7c0-.5.4-.9.9-.9c.6 0 1 .4 1 .9c0 .5-.4.9-1 .9c-.5 0-.9-.4-.9-.9c0 0 0 0 0 0zm8.1 5.1c0-.9-.6-1.7-1.8-1.7c-1 0-1.7.9-1.7 1.7c0 0 3.5 0 3.5 0zm1.3 2.1c-.4 1.1-1.4 2-2.9 2c-1.8 0-3.3-1.2-3.3-3.4c0-2.1 1.5-3.5 3.1-3.5c2 0 3.1 1.4 3.1 3.4c0 .2 0 .4 0 .4c0 0-4.9 0-4.9 0c0 1.2.9 2 2 2c1 0 1.6-.6 1.8-1.3c0 0 1.1.4 1.1.4z" stroke="none" fill="#144542"/></g><g id="Polygon159912"><path d="m2.5 27.1l0-6.1l-2.2 0c0 0 .04-.98 0-1c1.3 0 2.1-.7 2.3-1.6c-.01-.03 1.2 0 1.2 0l0 8.7l-1.3 0zm5.1-1.5c.3.3.8.6 1.4.6c.6 0 1-.3 1.4-.6c.5-.6.7-1.5.7-2.9c0-1.3-.2-2.2-.7-2.8c-.4-.3-.8-.6-1.4-.6c-.6 0-1.1.3-1.4.6c-.5.6-.8 1.5-.8 2.8c0 1.4.3 2.3.8 2.9zm-1.3-6c.6-.9 1.4-1.4 2.7-1.4c1.2 0 2.1.5 2.7 1.4c.5.8.7 1.9.7 3.1c0 1.2-.2 2.4-.7 3.2c-.6.9-1.5 1.4-2.7 1.4c-1.3 0-2.1-.5-2.7-1.4c-.6-.8-.8-2-.8-3.2c0-1.2.2-2.3.8-3.1zm10.9 5.8c0-1.2.8-1.8 1.9-2c0 0 1.8-.2 1.8-.2c.4-.1.5-.3.5-.5c0-.7-.4-1.2-1.4-1.2c-.9 0-1.4.6-1.5 1.3c0 0-1.2-.3-1.2-.3c.1-1.2 1.3-2.1 2.7-2.1c1.9 0 2.7 1.1 2.7 2.4c0 0 0 3.3 0 3.3c0 .5 0 .9 0 1c0 0-1.2 0-1.2 0c0-.1-.1-.4-.1-.9c-.2.5-.9 1.1-2.1 1.1c-1.3 0-2.1-.9-2.1-1.9c0 0 0 0 0 0zm4.2-1.1c0 .04 0-.3 0-.3c0 0-1.99.34-2 .3c-.5.1-.9.4-.9 1c0 .5.4 1 1 1c1.1 0 1.9-.5 1.9-2zm4.5 2.8l-1.3 0l0-6.5l1.3 0c0 0-.02.96 0 1c.5-.9 1.2-1.2 2-1.2c1.5 0 2.3 1.2 2.3 2.6c0 0 0 4.1 0 4.1l-1.3 0c0 0 .03-3.88 0-3.9c0-.9-.3-1.6-1.5-1.6c-1 0-1.5.8-1.5 1.8c.01-.03 0 3.7 0 3.7zm6.9-2.1c0 .7.6 1.2 1.5 1.2c.7 0 1.1-.4 1.1-.8c0-.4-.3-.7-.9-.9c0 0-1.1-.2-1.1-.2c-1-.2-1.6-.9-1.6-1.8c0-1.1 1.1-2.1 2.3-2.1c1.8 0 2.4 1.2 2.5 1.8c0 0-1.1.4-1.1.4c-.1-.4-.3-1.1-1.4-1.1c-.6 0-1.1.4-1.1.9c0 .4.3.6.8.8c0 0 1 .2 1 .2c1.2.2 1.8 1 1.8 1.9c0 .9-.7 2-2.3 2c-1.8 0-2.6-1.1-2.7-1.9c0 0 1.2-.4 1.2-.4zm11.6 1.2c1.1 0 1.8-1 1.8-2.4c0-1.3-.7-2.2-1.8-2.2c-1.2 0-1.9.9-1.9 2.3c0 1.3.6 2.3 1.9 2.3zm1.9-.1c-.4.7-1 1.2-2.1 1.2c-1.9 0-3-1.5-3-3.4c0-1.9 1.2-3.4 3-3.4c1.2 0 1.8.5 2 1c.02.05 0-4.2 0-4.2l1.3 0c0 0-.02 8.62 0 8.6c0 .6 0 1.1 0 1.2c0 0-1.2 0-1.2 0c0-.1 0-.5 0-.9c0 0 0-.1 0-.1zm3.7-8.7c.6 0 1 .4 1 1.2c0 1.7-1 2.4-1.8 2.5c0 0 0-.7 0-.7c.6-.1 1-.7 1-1.3c0 0-.1 0-.2 0c-.5 0-.9-.3-.9-.8c0-.5.4-.9.9-.9zm2.7 9.7l0-6.5l1.2 0l0 6.5l-1.2 0zm.6-9.8c.5 0 .9.4.9.9c0 .5-.4.9-.9.9c-.5 0-.9-.4-.9-.9c0-.5.4-.9.9-.9zm2.8 9.8l0-6.5l1.2 0c0 0-.01.89 0 .9c.4-.7 1.2-1.1 2-1.1c.8 0 1.6.4 1.9 1.3c.5-1 1.4-1.3 2.2-1.3c1.1 0 2.2.8 2.2 2.5c.02.01 0 4.2 0 4.2l-1.2 0c0 0-.03-4.06 0-4.1c0-.8-.5-1.4-1.4-1.4c-.9 0-1.5.7-1.5 1.6c-.01-.01 0 3.9 0 3.9l-1.3 0c0 0 .02-4.06 0-4.1c0-.8-.4-1.4-1.4-1.4c-.9 0-1.5.6-1.5 1.6c.03.01 0 3.9 0 3.9l-1.2 0zm11.5 2.6l0-9.1l1.3 0c0 0-.02 1.04 0 1c.3-.6 1.1-1.1 2.1-1.1c2 0 3 1.5 3 3.4c0 1.9-1.1 3.4-3 3.4c-1 0-1.7-.5-2.1-1.1c0 .04 0 3.5 0 3.5l-1.3 0zm5.1-5.8c0-1.3-.7-2.3-1.9-2.3c-1.1 0-1.9 1-1.9 2.3c0 1.3.8 2.3 1.9 2.3c1.2 0 1.9-1 1.9-2.3c0 0 0 0 0 0zm2.5 1.5c0-1.2.9-1.8 2-2c0 0 1.8-.2 1.8-.2c.4-.1.5-.3.5-.5c0-.7-.4-1.2-1.4-1.2c-.9 0-1.4.6-1.5 1.3c0 0-1.2-.3-1.2-.3c.1-1.2 1.2-2.1 2.6-2.1c2 0 2.7 1.1 2.7 2.4c0 0 0 3.3 0 3.3c0 .5.1.9.1 1c0 0-1.2 0-1.2 0c0-.1-.1-.4-.1-.9c-.3.5-.9 1.1-2.1 1.1c-1.3 0-2.2-.9-2.2-1.9c0 0 0 0 0 0zm4.3-1.1c-.03.04 0-.3 0-.3c0 0-2.01.34-2 .3c-.6.1-1 .4-1 1c0 .5.4 1 1.1 1c1 0 1.9-.5 1.9-2zm4-.4c0 1.5.9 2.3 2 2.3c1.2 0 1.6-.9 1.8-1.4c0 0 1.1.5 1.1.5c-.3.9-1.3 2-2.9 2c-1.9 0-3.3-1.5-3.3-3.4c0-2.1 1.4-3.5 3.2-3.5c1.8 0 2.7 1.1 2.9 2.1c0 0-1.1.5-1.1.5c-.2-.7-.7-1.4-1.8-1.4c-1 0-1.9.8-1.9 2.3zm8.1-3.3l1.4 0l0 1.2l-1.4 0c0 0-.03 3.35 0 3.4c0 .5.2.8.9.8c.1 0 .4 0 .5 0c0 0 0 1.1 0 1.1c-.1 0-.5.1-.9.1c-1.1 0-1.8-.7-1.8-1.9c0 .04 0-3.5 0-3.5l-1.2 0l0-1.2c0 0 .31.03.3 0c.7 0 1-.4 1-1c.01.03 0-1 0-1l1.2 0l0 2zm7.3 4.7c.5 0 1 .4 1 1c0 .5-.5.9-1 .9c-.5 0-.9-.4-.9-.9c0-.6.4-1 .9-1zm0-4.7c.5 0 .9.4.9.9c0 .5-.4.9-.9.9c-.5 0-.9-.4-.9-.9c0-.5.4-.9.9-.9zm10.7 5.7c-.3.7-1.2 1-1.9 1c-1.5 0-2.4-1.1-2.4-2.6c-.04.02 0-4.1 0-4.1l1.2 0c0 0 .03 3.93 0 3.9c0 .9.4 1.7 1.5 1.7c1 0 1.5-.7 1.5-1.7c.04.04 0-3.9 0-3.9l1.3 0c0 0 .01 5.32 0 5.3c0 .5 0 1 .1 1.2c0 0-1.2 0-1.2 0c-.1-.1-.1-.5-.1-.8c0 0 0 0 0 0zm4.6.8l-1.2 0l0-6.5l1.2 0c0 0 .01.96 0 1c.5-.9 1.3-1.2 2-1.2c1.6 0 2.3 1.2 2.3 2.6c.03 0 0 4.1 0 4.1l-1.2 0c0 0-.04-3.88 0-3.9c0-.9-.4-1.6-1.6-1.6c-1 0-1.5.8-1.5 1.8c.03-.03 0 3.7 0 3.7zm9.7 0l0-6.5l1.2 0c0 0 .04.89 0 .9c.4-.7 1.3-1.1 2-1.1c.8 0 1.6.4 2 1.3c.5-1 1.3-1.3 2.1-1.3c1.2 0 2.3.8 2.3 2.5c-.03.01 0 4.2 0 4.2l-1.3 0c0 0 .02-4.06 0-4.1c0-.8-.4-1.4-1.4-1.4c-.9 0-1.5.7-1.5 1.6c.04-.01 0 3.9 0 3.9l-1.2 0c0 0-.03-4.06 0-4.1c0-.8-.4-1.4-1.4-1.4c-.9 0-1.5.6-1.5 1.6c-.02.01 0 3.9 0 3.9l-1.3 0zm16.4-3.2c0-1.5-.9-2.3-2-2.3c-1.1 0-2 .8-2 2.3c0 1.5.9 2.3 2 2.3c1.1 0 2-.8 2-2.3zm1.3 0c0 2-1.4 3.4-3.3 3.4c-2 0-3.3-1.4-3.3-3.4c0-2 1.3-3.5 3.3-3.5c1.9 0 3.3 1.5 3.3 3.5zm4.3 2.3c1.1 0 1.9-1 1.9-2.4c0-1.3-.7-2.2-1.9-2.2c-1.2 0-1.9.9-1.9 2.3c0 1.3.7 2.3 1.9 2.3zm1.9-.1c-.3.7-1 1.2-2 1.2c-1.9 0-3.1-1.5-3.1-3.4c0-1.9 1.2-3.4 3.1-3.4c1.1 0 1.7.5 1.9 1c.04.05 0-4.2 0-4.2l1.3 0c0 0 0 8.62 0 8.6c0 .6.1 1.1.1 1.2c0 0-1.3 0-1.3 0c0-.1 0-.5 0-.9c0 0 0-.1 0-.1zm7.7-2.9c0-.9-.6-1.7-1.7-1.7c-1.1 0-1.8.9-1.8 1.7c0 0 3.5 0 3.5 0zm1.3 2.1c-.4 1.1-1.4 2-2.9 2c-1.7 0-3.3-1.2-3.3-3.4c0-2.1 1.5-3.5 3.1-3.5c2 0 3.2 1.4 3.2 3.4c0 .2-.1.4-.1.4c0 0-4.9 0-4.9 0c.1 1.2.9 2 2 2c1.1 0 1.6-.6 1.8-1.3c0 0 1.1.4 1.1.4zm-5-7.5l1.5 0l1.2 2l-1 0l-1.7-2zm6.7 9.3l0-9.8l1.2 0l0 9.8l-1.2 0zm7.8-3.9c0-.9-.7-1.7-1.8-1.7c-1.1 0-1.7.9-1.8 1.7c0 0 3.6 0 3.6 0zm1.3 2.1c-.4 1.1-1.4 2-3 2c-1.7 0-3.2-1.2-3.2-3.4c0-2.1 1.4-3.5 3.1-3.5c2 0 3.1 1.4 3.1 3.4c0 .2 0 .4 0 .4c0 0-4.9 0-4.9 0c0 1.2.9 2 1.9 2c1.1 0 1.6-.6 1.9-1.3c0 0 1.1.4 1.1.4zm9.6 4.4c0 0-.04-3.5 0-3.5c-.4.7-1.1 1.1-2.1 1.1c-1.8 0-3-1.6-3-3.4c0-1.9 1.1-3.4 3-3.4c1.1 0 1.8.5 2.1 1.1c-.01.03 0-1 0-1l1.2 0l0 9.1l-1.2 0zm-1.9-3.5c1.1 0 1.9-1 1.9-2.3c0-1.4-.8-2.3-1.9-2.3c-1.2 0-1.9.9-1.9 2.3c0 1.3.7 2.3 1.9 2.3zm9.4.1c-.3.7-1.1 1-1.9 1c-1.5 0-2.4-1.1-2.4-2.6c-.03.02 0-4.1 0-4.1l1.2 0c0 0 .04 3.93 0 3.9c0 .9.4 1.7 1.5 1.7c1 0 1.6-.7 1.6-1.7c-.05.04 0-3.9 0-3.9l1.2 0c0 0 .02 5.32 0 5.3c0 .5.1 1 .1 1.2c0 0-1.2 0-1.2 0c-.1-.1-.1-.5-.1-.8c0 0 0 0 0 0zm3.4.8l0-6.5l1.2 0l0 6.5l-1.2 0zm.6-9.8c.5 0 .9.4.9.9c0 .5-.4.9-.9.9c-.5 0-.9-.4-.9-.9c0-.5.4-.9.9-.9zm6.7 7.7c.1.7.6 1.2 1.5 1.2c.7 0 1.1-.4 1.1-.8c0-.4-.3-.7-.8-.9c0 0-1.1-.2-1.1-.2c-1-.2-1.6-.9-1.6-1.8c0-1.1 1-2.1 2.3-2.1c1.8 0 2.3 1.2 2.4 1.8c0 0-1.1.4-1.1.4c0-.4-.3-1.1-1.3-1.1c-.7 0-1.1.4-1.1.9c0 .4.2.6.7.8c0 0 1.1.2 1.1.2c1.2.2 1.8 1 1.8 1.9c0 .9-.8 2-2.4 2c-1.8 0-2.5-1.1-2.6-1.9c0 0 1.1-.4 1.1-.4zm9.9-1.8c0-.9-.7-1.7-1.8-1.7c-1.1 0-1.7.9-1.8 1.7c0 0 3.6 0 3.6 0zm1.3 2.1c-.4 1.1-1.4 2-3 2c-1.7 0-3.2-1.2-3.2-3.4c0-2.1 1.4-3.5 3.1-3.5c2 0 3.1 1.4 3.1 3.4c0 .2 0 .4 0 .4c0 0-4.9 0-4.9 0c0 1.2.9 2 1.9 2c1.1 0 1.6-.6 1.9-1.3c0 0 1.1.4 1.1.4zm8.6-3.4c-.2 0-.4 0-.6 0c-1 0-1.7.5-1.7 2c-.03-.03 0 3.2 0 3.2l-1.3 0l0-6.5l1.2 0c0 0 .04 1.16 0 1.2c.5-1 1.3-1.3 2-1.3c.2 0 .3 0 .4.1c0 0 0 1.3 0 1.3zm5.7 1.3c-.1-.9-.7-1.7-1.8-1.7c-1.1 0-1.7.9-1.8 1.7c0 0 3.6 0 3.6 0zm1.2 2.1c-.3 1.1-1.4 2-2.9 2c-1.7 0-3.2-1.2-3.2-3.4c0-2.1 1.4-3.5 3.1-3.5c2 0 3.1 1.4 3.1 3.4c0 .2 0 .4 0 .4c0 0-4.9 0-4.9 0c0 1.2.8 2 1.9 2c1.1 0 1.6-.6 1.8-1.3c0 0 1.1.4 1.1.4zm3 1.8l-1.3 0l0-6.5l1.2 0c0 0 .04.96 0 1c.5-.9 1.3-1.2 2-1.2c1.6 0 2.4 1.2 2.4 2.6c-.04 0 0 4.1 0 4.1l-1.3 0c0 0-.01-3.88 0-3.9c0-.9-.4-1.6-1.5-1.6c-1 0-1.5.8-1.5 1.8c-.03-.03 0 3.7 0 3.7zm8-5.3l0 5.3l-1.3 0l0-5.3l-1.2 0l0-1.2l1.2 0c0 0-.02-1.07 0-1.1c0-1.4.9-2.2 2.1-2.2c.4 0 .7.1.8.1c0 0 0 1.2 0 1.2c-.1-.1-.3-.1-.6-.1c-.4 0-1 .2-1 1.1c-.01 0 0 1 0 1l1.6 0l0 1.2l-1.6 0zm7.5 2.1c0-1.5-1-2.3-2.1-2.3c-1.1 0-2 .8-2 2.3c0 1.5.9 2.3 2 2.3c1.1 0 2.1-.8 2.1-2.3zm1.2 0c0 2-1.3 3.4-3.3 3.4c-1.9 0-3.3-1.4-3.3-3.4c0-2 1.4-3.5 3.3-3.5c2 0 3.3 1.5 3.3 3.5zm5.3-2c-.2 0-.4 0-.6 0c-1 0-1.8.5-1.8 2c.04-.03 0 3.2 0 3.2l-1.2 0l0-6.5l1.2 0c0 0 .01 1.16 0 1.2c.5-1 1.3-1.3 2-1.3c.1 0 .3 0 .4.1c0 0 0 1.3 0 1.3zm2 2c0 1.5.9 2.3 2 2.3c1.2 0 1.7-.9 1.8-1.4c0 0 1.1.5 1.1.5c-.3.9-1.2 2-2.9 2c-1.9 0-3.3-1.5-3.3-3.4c0-2.1 1.4-3.5 3.3-3.5c1.7 0 2.6 1.1 2.9 2.1c0 0-1.2.5-1.2.5c-.1-.7-.6-1.4-1.7-1.4c-1 0-2 .8-2 2.3zm10.7-.7c0-.9-.6-1.7-1.8-1.7c-1 0-1.7.9-1.7 1.7c0 0 3.5 0 3.5 0zm1.3 2.1c-.4 1.1-1.4 2-2.9 2c-1.8 0-3.3-1.2-3.3-3.4c0-2.1 1.5-3.5 3.1-3.5c2 0 3.1 1.4 3.1 3.4c0 .2 0 .4 0 .4c0 0-4.9 0-4.9 0c.1 1.2.9 2 2 2c1 0 1.6-.6 1.8-1.3c0 0 1.1.4 1.1.4zm2.3.1c.6 0 1.1.4 1.1 1.2c0 1.8-1.2 2.6-2 2.7c0 0 0-.7 0-.7c.7-.2 1.1-.8 1.1-1.5c0 0-.1.1-.3.1c-.5 0-.9-.4-.9-.9c0-.5.4-.9 1-.9zm10.8.9c-.4.7-1.2 1-1.9 1c-1.5 0-2.5-1.1-2.5-2.6c.04.02 0-4.1 0-4.1l1.3 0c0 0 0 3.93 0 3.9c0 .9.4 1.7 1.5 1.7c1 0 1.5-.7 1.5-1.7c.02.04 0-3.9 0-3.9l1.3 0c0 0-.02 5.32 0 5.3c0 .5 0 1 .1 1.2c0 0-1.3 0-1.3 0c0-.1 0-.5 0-.8c0 0 0 0 0 0zm4.6.8l-1.3 0l0-6.5l1.3 0c0 0-.01.96 0 1c.5-.9 1.2-1.2 2-1.2c1.5 0 2.3 1.2 2.3 2.6c.01 0 0 4.1 0 4.1l-1.3 0c0 0 .04-3.88 0-3.9c0-.9-.3-1.6-1.5-1.6c-1 0-1.5.8-1.5 1.8c.01-.03 0 3.7 0 3.7zm10.7-3.9c0-.9-.6-1.7-1.8-1.7c-1 0-1.7.9-1.7 1.7c0 0 3.5 0 3.5 0zm1.3 2.1c-.4 1.1-1.4 2-2.9 2c-1.8 0-3.3-1.2-3.3-3.4c0-2.1 1.5-3.5 3.1-3.5c2 0 3.1 1.4 3.1 3.4c0 .2 0 .4 0 .4c0 0-4.9 0-4.9 0c0 1.2.9 2 2 2c1 0 1.6-.6 1.8-1.3c0 0 1.1.4 1.1.4z" stroke="none" fill="#144542"/></g><g id="Polygon159911"><path d="m4.5 9.4c1.7 0 3.1-1 3.1-3.2c0-2.3-1.4-3.4-3.1-3.4c.05.03-1.7 0-1.7 0l0 6.6c0 0 1.74.04 1.7 0zm-3.3 1.5l0-9.5c0 0 3.4-.05 3.4 0c2.6 0 4.7 1.7 4.7 4.8c0 3-2.1 4.7-4.7 4.7c-.01.02-3.4 0-3.4 0zm15.5-1.3c1.6 0 3.2-1.2 3.2-3.5c0-2.3-1.6-3.4-3.2-3.4c-1.6 0-3.2 1.1-3.2 3.4c0 2.3 1.6 3.5 3.2 3.5zm0-8.5c2.5 0 4.9 1.9 4.9 5c0 3.2-2.4 5-4.9 5c-2.5 0-4.8-1.8-4.8-5c0-3.1 2.3-5 4.8-5zm12.9 2.9c-.1-.5-.6-1.4-1.9-1.4c-1 0-1.6.6-1.6 1.4c0 .6.3 1 1.1 1.2c0 0 1.4.3 1.4.3c1.7.3 2.6 1.4 2.6 2.7c0 1.5-1.2 2.9-3.4 2.9c-2.5 0-3.6-1.5-3.7-2.9c0 0 1.5-.5 1.5-.5c.1 1 .8 2 2.2 2c1.1 0 1.7-.6 1.7-1.4c0-.6-.4-1.1-1.3-1.3c0 0-1.3-.2-1.3-.2c-1.5-.3-2.5-1.3-2.5-2.7c0-1.6 1.5-3 3.3-3c2.3 0 3.1 1.4 3.3 2.5c0 0-1.4.4-1.4.4zm9.6 0c-.1-.5-.6-1.4-1.9-1.4c-1 0-1.7.6-1.7 1.4c0 .6.4 1 1.2 1.2c0 0 1.3.3 1.3.3c1.7.3 2.6 1.4 2.6 2.7c0 1.5-1.2 2.9-3.4 2.9c-2.4 0-3.5-1.5-3.7-2.9c0 0 1.6-.5 1.6-.5c0 1 .8 2 2.1 2c1.2 0 1.8-.6 1.8-1.4c0-.6-.5-1.1-1.3-1.3c0 0-1.4-.2-1.4-.2c-1.4-.3-2.4-1.3-2.4-2.7c0-1.6 1.5-3 3.3-3c2.2 0 3.1 1.4 3.3 2.5c0 0-1.4.4-1.4.4zm4.7 6.9l0-9.5l1.6 0l0 9.5l-1.6 0zm5.4 0l0-9.5l5.9 0l0 1.5l-4.3 0l0 2.5l3.9 0l0 1.5l-3.9 0l0 2.5l4.3 0l0 1.5l-5.9 0zm12.2-3.8l-1.2 0l0 3.8l-1.6 0l0-9.5c0 0 3.64-.05 3.6 0c1.9 0 3 1.2 3 2.9c0 1.3-.8 2.4-2.1 2.7c-.02-.02 2.1 3.9 2.1 3.9l-1.8 0l-2-3.8zm.5-1.4c1 0 1.7-.6 1.7-1.4c0-.9-.7-1.5-1.7-1.5c.04-.02-1.7 0-1.7 0l0 2.9c0 0 1.74.01 1.7 0zm16.1-1.7c-.1-.5-.6-1.4-1.9-1.4c-1 0-1.6.6-1.6 1.4c0 .6.3 1 1.1 1.2c0 0 1.4.3 1.4.3c1.6.3 2.5 1.4 2.5 2.7c0 1.5-1.2 2.9-3.3 2.9c-2.5 0-3.6-1.5-3.7-2.9c0 0 1.5-.5 1.5-.5c.1 1 .8 2 2.2 2c1.1 0 1.7-.6 1.7-1.4c0-.6-.5-1.1-1.3-1.3c0 0-1.3-.2-1.3-.2c-1.5-.3-2.5-1.3-2.5-2.7c0-1.6 1.5-3 3.3-3c2.2 0 3.1 1.4 3.3 2.5c0 0-1.4.4-1.4.4zm8 1.8c1.1 0 1.7-.6 1.7-1.5c0-.9-.6-1.5-1.7-1.5c.03-.02-1.7 0-1.7 0l0 3c0 0 1.73-.05 1.7 0zm-1.7 1.4l0 3.7l-1.6 0l0-9.5c0 0 3.57-.05 3.6 0c1.8 0 3 1.2 3 2.9c0 1.7-1.2 2.9-3 2.9c-.03-.02-2 0-2 0zm11.3-6.5l-1.4 0l1.3-1.7l2.1 0l-2 1.7zm-3.3 10.2l0-9.5l5.9 0l0 1.5l-4.3 0l0 2.5l3.9 0l0 1.5l-3.9 0l0 2.5l4.3 0l0 1.5l-5.9 0zm8.7-4.8c0-3.1 2.4-5 4.8-5c2.5 0 3.9 1.5 4.4 3.2c0 0-1.6.5-1.6.5c-.3-1.2-1.1-2.1-2.8-2.1c-1.5 0-3.1 1.1-3.1 3.4c0 2.3 1.5 3.5 3.2 3.5c1.6 0 2.5-1.1 2.8-2.1c0 0 1.5.5 1.5.5c-.4 1.6-1.9 3.1-4.3 3.1c-2.6 0-4.9-1.8-4.9-5zm12.3 4.8l0-9.5l1.7 0l0 9.5l-1.7 0zm11.1-2.4l-4.1 0l-.8 2.4l-1.8 0l3.8-9.5l1.8 0l3.8 9.5l-1.8 0l-.9-2.4zm-3.5-1.5l2.9 0l-1.4-3.9l-1.5 3.9zm8.9 3.9l0-9.5l1.7 0l0 8l4.3 0l0 1.5l-6 0z" stroke="none" fill="#144542"/></g></svg>