<?xml version="1.0" standalone="no"?><!DOCTYPE svg PUBLIC "-//W3C//DTD SVG 1.1//EN" "http://www.w3.org/Graphics/SVG/1.1/DTD/svg11.dtd"><svg xmlns="http://www.w3.org/2000/svg" version="1.1" width="178px" height="65.2px" viewBox="0 -10 178 65.2" style="top:-10px"><desc>45%</desc><defs/><g id="Polygon172485"><path d="m76.4 31.3l-3 0l0 9.2l-6.7 0l0-9.2l-11.8 0l18.5-22.7l0 18.4l5 0l-2 4.3zm-9.7-4.3l0-8.8l-7.1 8.8l7.1 0zm31.8 2.9c0 4.7-3.9 11.1-11 11.1c-7 0-8.8-3.5-8.8-6.6c0-2.4 1.7-4.4 3.4-4.4c1.7 0 3.5 1 3.3 3.5c-.1 1.4-1.4 2-1.4 3.4c0 2.1 1.3 3 3.4 3c2.9 0 5.1-2.3 5.5-6.6c.6-5.3-2.6-8.1-6.1-8.1c-2.8 0-4.4 1.1-5.8 2.4c.02-.01-.7 0-.7 0l2.9-17.3c0 0 9.03-.01 9 0c2.5 0 4.9-.8 5.8-2.6c-.01-.01.7 0 .7 0l-2.4 8.8l-13.2 0c0 0-1.32 7.78-1.3 7.8c2.2-3 4.9-4 8-4c5.8 0 8.7 4.9 8.7 9.6zm4.6-25.8c0-2.8 1.8-4.7 4.3-4.7c2.6 0 4.4 1.9 4.4 4.7c0 2.8-1.8 4.8-4.4 4.8c-2.5 0-4.3-2-4.3-4.8zm6.5 8.3l4.8-7.7l3.1-5l1 0l-3.5 5.2l-4.9 7.7l-2.8 4.7l-1 0l3.3-4.9zm-.8-8.3c0-2.6-.1-4.2-1.4-4.2c-1.2 0-1.3 1.6-1.3 4.2c0 2.6.1 4.3 1.3 4.3c1.3 0 1.4-1.7 1.4-4.3zm4.4 8.7c0-2.8 1.8-4.8 4.3-4.8c2.6 0 4.4 2 4.4 4.8c0 2.8-1.8 4.8-4.4 4.8c-2.5 0-4.3-2-4.3-4.8zm5.7 0c0-2.6-.1-4.2-1.4-4.2c-1.2 0-1.3 1.6-1.3 4.2c0 2.6.1 4.3 1.3 4.3c1.3 0 1.4-1.7 1.4-4.3z" stroke="none" fill="#144542"/></g></svg>