<?xml version="1.0" standalone="no"?><!DOCTYPE svg PUBLIC "-//W3C//DTD SVG 1.1//EN" "http://www.w3.org/Graphics/SVG/1.1/DTD/svg11.dtd"><svg xmlns="http://www.w3.org/2000/svg" version="1.1" width="125px" height="28px" viewBox="0 -3 125 28" style="top:-3px"><desc>5 ans (activit 2025)</desc><defs/><g id="Polygon180040"><path d="m2 5.6c0 0 1.3-.2 1.3-.2c.3-.1.4-.2.4-.4c0-.4-.3-.8-1-.8c-.6 0-1 .4-1 .9c0 0-1.1-.2-1.1-.2c.1-.9.9-1.7 2.1-1.7c1.6 0 2.2.9 2.2 1.9c0 0 0 2.6 0 2.6c0 .4.1.7.1.8c0 0-1.2 0-1.2 0c0 0 0-.2 0-.7c-.3.4-.8.9-1.6.9c-1.1 0-1.7-.8-1.7-1.6c0-.9.6-1.4 1.5-1.5zm1.7.8c.01-.03 0-.3 0-.3c0 0-1.33.24-1.3.2c-.4.1-.7.3-.7.7c0 .4.3.7.7.7c.7 0 1.3-.3 1.3-1.3zm-2.7-5.2l1.5 0l.9 1.5l-1 0l-1.4-1.5zm8.7 5.1c.1.7.6 1.3 1.4 1.3c.7 0 1.3-.5 1.3-1.3c0-.8-.6-1.2-1.3-1.2c-.5 0-.9.2-1.2.5c.03-.05-1.2-.5-1.2-.5l.9-3.4l3.7 0l0 1.1l-2.9 0c0 0-.38 1.71-.4 1.7c.3-.3.8-.5 1.3-.5c1.4 0 2.3.9 2.3 2.3c0 1.3-.9 2.4-2.5 2.4c-1.5 0-2.5-1-2.6-2.1c0 0 1.2-.3 1.2-.3zm8.9-.7c0 0 1.3-.2 1.3-.2c.3-.1.4-.2.4-.4c0-.4-.3-.8-1-.8c-.6 0-1 .4-1 .9c0 0-1.1-.2-1.1-.2c.1-.9.8-1.7 2.1-1.7c1.6 0 2.2.9 2.2 1.9c0 0 0 2.6 0 2.6c0 .4 0 .7 0 .8c0 0-1.1 0-1.1 0c0 0 0-.2 0-.7c-.3.4-.8.9-1.6.9c-1.1 0-1.7-.8-1.7-1.6c0-.9.6-1.4 1.5-1.5zm1.7.8c-.01-.03 0-.3 0-.3c0 0-1.35.24-1.3.2c-.4.1-.7.3-.7.7c0 .4.2.7.7.7c.7 0 1.3-.3 1.3-1.3zm3.9 2.1l-1.2 0l0-5.1l1.1 0c0 0 .04.66 0 .7c.4-.6 1-.9 1.6-.9c1.2 0 1.8.9 1.8 2.1c0-.04 0 3.2 0 3.2l-1.2 0c0 0-.02-3.03 0-3c0-.7-.3-1.2-1.1-1.2c-.7 0-1 .6-1 1.2c-.03.04 0 3 0 3zm5.4-1.7c0 .5.4.9 1 .9c.5 0 .8-.3.8-.6c0-.3-.2-.5-.6-.6c0 0-.8-.1-.8-.1c-.9-.2-1.3-.8-1.3-1.5c0-.9.8-1.7 1.8-1.7c1.5 0 1.9.9 2 1.5c0 0-1 .2-1 .2c-.1-.2-.3-.7-1-.7c-.4 0-.7.3-.7.6c0 .2.2.4.5.5c0 0 .8.2.8.2c1 .2 1.5.8 1.5 1.5c0 .8-.7 1.7-2 1.7c-1.4 0-2-1-2.1-1.6c0 0 1.1-.3 1.1-.3zm8.6-6.8c0 0 .7.7.7.7c-1.1 1.2-1.8 2.6-1.8 4.4c0 1.9.7 3.3 1.8 4.5c0 0-.7.7-.7.7c-1.2-1.2-2.1-2.8-2.1-5.2c0-2.3.9-3.9 2.1-5.1zm2.7 5.6c0 0 1.3-.2 1.3-.2c.3-.1.4-.2.4-.4c0-.4-.3-.8-1-.8c-.6 0-1 .4-1 .9c0 0-1.1-.2-1.1-.2c.1-.9.9-1.7 2.1-1.7c1.6 0 2.2.9 2.2 1.9c0 0 0 2.6 0 2.6c0 .4 0 .7.1.8c0 0-1.2 0-1.2 0c0 0 0-.2 0-.7c-.3.4-.8.9-1.6.9c-1.1 0-1.7-.8-1.7-1.6c0-.9.6-1.4 1.5-1.5zm1.7.8c0-.03 0-.3 0-.3c0 0-1.34.24-1.3.2c-.4.1-.7.3-.7.7c0 .4.2.7.7.7c.7 0 1.3-.3 1.3-1.3zm3.5-.5c0 1.1.6 1.6 1.4 1.6c.8 0 1.2-.5 1.3-.9c0 0 1.1.4 1.1.4c-.3.8-1.1 1.7-2.4 1.7c-1.5 0-2.6-1.2-2.6-2.8c0-1.5 1.1-2.7 2.6-2.7c1.3 0 2.1.9 2.3 1.7c0 0-1.1.4-1.1.4c-.1-.4-.4-1-1.2-1c-.8 0-1.4.6-1.4 1.6zm6.4-2.5l1 0l0 1.1l-1 0c0 0-.02 2.34 0 2.3c0 .5.2.7.6.7c.2 0 .4-.1.4-.1c0 0 0 1 0 1c0 .1-.3.2-.7.2c-.9 0-1.5-.6-1.5-1.6c-.03.04 0-2.5 0-2.5l-1 0l0-1.1c0 0 .29-.02.3 0c.5 0 .8-.4.8-.8c-.02-.02 0-.8 0-.8l1.1 0l0 1.6zm2.3 5.1l0-5.1l1.2 0l0 5.1l-1.2 0zm.6-7.7c.4 0 .8.3.8.8c0 .4-.4.8-.8.8c-.4 0-.8-.4-.8-.8c0-.5.4-.8.8-.8zm4.8 7.7l-1.2 0l-2.1-5.1l1.3 0l1.4 3.6l1.3-3.6l1.3 0l-2 5.1zm2.9 0l0-5.1l1.2 0l0 5.1l-1.2 0zm.6-7.7c.4 0 .8.3.8.8c0 .4-.4.8-.8.8c-.4 0-.8-.4-.8-.8c0-.5.4-.8.8-.8zm3.7 2.6l1.1 0l0 1.1l-1.1 0c0 0 .01 2.34 0 2.3c0 .5.2.7.7.7c.1 0 .3-.1.4-.1c0 0 0 1 0 1c-.1.1-.3.2-.8.2c-.9 0-1.5-.6-1.5-1.6c0 .04 0-2.5 0-2.5l-.9 0l0-1.1c0 0 .22-.02.2 0c.6 0 .8-.4.8-.8c.01-.02 0-.8 0-.8l1.1 0l0 1.6zm4.8-.7l-1 0l.9-1.5l1.5 0l-1.4 1.5zm.8 2.7c0-.6-.4-1.2-1.2-1.2c-.8 0-1.2.6-1.3 1.2c0 0 2.5 0 2.5 0zm1.2 1.6c-.3.9-1.1 1.7-2.3 1.7c-1.4 0-2.6-1.1-2.6-2.8c0-1.6 1.2-2.7 2.5-2.7c1.5 0 2.5 1.1 2.5 2.7c0 .2-.1.3-.1.4c0 0-3.7 0-3.7 0c0 .7.6 1.3 1.4 1.3c.7 0 1.1-.4 1.3-.9c0 0 1 .3 1 .3zm3.5-2.8c0-.1-.1-.3-.1-.4c0-1.2.9-2.3 2.5-2.3c1.5 0 2.4 1 2.4 2.2c0 .9-.5 1.6-1.3 2.1c0 0-1.4.8-1.4.8c-.3.2-.6.4-.7.8c.04-.02 3.4 0 3.4 0l0 1.1c0 0-4.92-.01-4.9 0c0-1.2.4-2.1 1.6-2.8c0 0 1.1-.7 1.1-.7c.6-.4.9-.8.9-1.3c0-.6-.4-1.1-1.1-1.1c-.8 0-1.2.6-1.2 1.3c0 .1 0 .2 0 .3c0 0-1.2 0-1.2 0zm7.4 2.8c.2.3.5.5 1 .5c.5 0 .8-.2 1.1-.5c.3-.4.5-1 .5-1.9c0-.9-.2-1.5-.5-2c-.3-.3-.6-.5-1.1-.5c-.5 0-.8.2-1 .5c-.4.5-.5 1.1-.5 2c0 .9.2 1.5.5 1.9zm-1.1-4.4c.4-.6 1.1-1.1 2.1-1.1c1 0 1.8.5 2.2 1.1c.5.7.6 1.6.6 2.5c0 .9-.1 1.7-.6 2.4c-.4.7-1.2 1.2-2.2 1.2c-1 0-1.7-.5-2.1-1.2c-.5-.7-.7-1.5-.7-2.4c0-.9.2-1.8.7-2.5zm5.8 1.6c0-.1 0-.3 0-.4c0-1.2.8-2.3 2.4-2.3c1.5 0 2.4 1 2.4 2.2c0 .9-.5 1.6-1.3 2.1c0 0-1.4.8-1.4.8c-.3.2-.6.4-.6.8c-.05-.02 3.3 0 3.3 0l0 1.1c0 0-4.9-.01-4.9 0c0-1.2.4-2.1 1.6-2.8c0 0 1.1-.7 1.1-.7c.6-.4.9-.8.9-1.3c0-.6-.4-1.1-1.1-1.1c-.8 0-1.2.6-1.2 1.3c0 .1 0 .2 0 .3c0 0-1.2 0-1.2 0zm6.7 2.1c.1.7.6 1.3 1.4 1.3c.7 0 1.3-.5 1.3-1.3c0-.8-.6-1.2-1.3-1.2c-.5 0-.9.2-1.2.5c.03-.05-1.2-.5-1.2-.5l.9-3.4l3.7 0l0 1.1l-2.9 0c0 0-.38 1.71-.4 1.7c.3-.3.8-.5 1.3-.5c1.4 0 2.4.9 2.4 2.3c0 1.3-1 2.4-2.6 2.4c-1.5 0-2.5-1-2.6-2.1c0 0 1.2-.3 1.2-.3zm5 4c0 0-.8-.7-.8-.7c1.1-1.2 1.8-2.6 1.8-4.5c0-1.8-.7-3.2-1.8-4.4c0 0 .8-.7.8-.7c1.1 1.2 2.1 2.8 2.1 5.1c0 2.4-1 4-2.1 5.2z" stroke="none" fill="#ffaf7a"/></g></svg>