<?xml version="1.0" standalone="no"?><!DOCTYPE svg PUBLIC "-//W3C//DTD SVG 1.1//EN" "http://www.w3.org/Graphics/SVG/1.1/DTD/svg11.dtd"><svg xmlns="http://www.w3.org/2000/svg" version="1.1" width="115.4px" height="30.8px" viewBox="0 -3 115.4 30.8" style="top:-3px"><desc>Accessibles</desc><defs/><g id="Polygon172436"><path d="m7.3 9.1l-4.4 0l-.9 2.6l-1.9 0l4-10.2l2.1 0l4 10.2l-1.9 0l-1-2.6zm-3.7-1.6l3.1 0l-1.6-4.2l-1.5 4.2zm8.8.7c0 1.4.9 2.2 2 2.2c1.1 0 1.6-.8 1.7-1.3c0 0 1.5.5 1.5.5c-.3 1.1-1.4 2.3-3.2 2.3c-2.1 0-3.7-1.6-3.7-3.7c0-2.2 1.6-3.7 3.6-3.7c1.9 0 3 1.1 3.2 2.3c0 0-1.5.5-1.5.5c-.1-.6-.6-1.3-1.7-1.3c-1 0-1.9.8-1.9 2.2zm7.8 0c0 1.4.9 2.2 1.9 2.2c1.1 0 1.6-.8 1.8-1.3c0 0 1.5.5 1.5.5c-.4 1.1-1.4 2.3-3.3 2.3c-2 0-3.6-1.6-3.6-3.7c0-2.2 1.6-3.7 3.6-3.7c1.9 0 2.9 1.1 3.2 2.3c0 0-1.5.5-1.5.5c-.2-.6-.6-1.3-1.7-1.3c-1 0-1.9.8-1.9 2.2zm11.2-.8c0-.8-.5-1.5-1.7-1.5c-1.1 0-1.7.8-1.7 1.5c0 0 3.4 0 3.4 0zm1.6 2.3c-.3 1.2-1.4 2.2-3.1 2.2c-2 0-3.7-1.3-3.7-3.7c0-2.3 1.7-3.7 3.5-3.7c2.2 0 3.4 1.4 3.4 3.6c0 .3 0 .5 0 .6c0 0-5.2 0-5.2 0c.1 1 .9 1.8 2 1.8c1 0 1.5-.5 1.7-1.2c0 0 1.4.4 1.4.4zm2.6-.3c0 .6.5 1.2 1.4 1.2c.7 0 1.1-.4 1.1-.8c0-.4-.3-.7-.8-.8c0 0-1.1-.2-1.1-.2c-1.2-.3-1.9-1.1-1.9-2.1c0-1.2 1.1-2.2 2.6-2.2c2 0 2.6 1.2 2.7 1.9c0 0-1.4.4-1.4.4c0-.4-.4-1-1.3-1c-.6 0-1 .3-1 .8c0 .4.3.6.7.7c0 0 1.1.2 1.1.2c1.3.3 2 1.1 2 2.2c0 1.1-.9 2.2-2.7 2.2c-2 0-2.8-1.3-2.9-2.1c0 0 1.5-.4 1.5-.4zm6.6 0c.1.6.5 1.2 1.4 1.2c.7 0 1.1-.4 1.1-.8c0-.4-.3-.7-.8-.8c0 0-1.1-.2-1.1-.2c-1.2-.3-1.9-1.1-1.9-2.1c0-1.2 1.2-2.2 2.6-2.2c2 0 2.6 1.2 2.8 1.9c0 0-1.5.4-1.5.4c0-.4-.3-1-1.3-1c-.6 0-1 .3-1 .8c0 .4.3.6.7.7c0 0 1.1.2 1.1.2c1.3.3 2 1.1 2 2.2c0 1.1-.8 2.2-2.6 2.2c-2.1 0-2.9-1.3-3-2.1c0 0 1.5-.4 1.5-.4zm5.8 2.3l0-7l1.7 0l0 7l-1.7 0zm.8-10.6c.6 0 1.1.5 1.1 1.1c0 .6-.5 1.1-1.1 1.1c-.6 0-1.1-.5-1.1-1.1c0-.6.5-1.1 1.1-1.1zm3 10.6l0-10.5l1.7 0c0 0-.01 4.34 0 4.3c.3-.5 1.1-1 2.2-1c2.1 0 3.3 1.6 3.3 3.7c0 2.1-1.3 3.7-3.3 3.7c-1.1 0-1.8-.4-2.2-1.1c-.03-.01 0 .9 0 .9l-1.7 0zm3.6-5.7c-1.1 0-1.9.8-1.9 2.2c0 1.4.8 2.2 1.9 2.2c1.1 0 1.9-.8 1.9-2.2c0-1.4-.8-2.2-1.9-2.2zm5.2 5.7l0-10.5l1.7 0l0 10.5l-1.7 0zm8.5-4.3c0-.8-.6-1.5-1.7-1.5c-1.1 0-1.7.8-1.8 1.5c0 0 3.5 0 3.5 0zm1.6 2.3c-.4 1.2-1.5 2.2-3.2 2.2c-1.9 0-3.6-1.3-3.6-3.7c0-2.3 1.7-3.7 3.4-3.7c2.2 0 3.5 1.4 3.5 3.6c0 .3 0 .5-.1.6c0 0-5.1 0-5.1 0c0 1 .9 1.8 1.9 1.8c1 0 1.5-.5 1.8-1.2c0 0 1.4.4 1.4.4zm2.5-.3c.1.6.6 1.2 1.5 1.2c.7 0 1-.4 1-.8c0-.4-.2-.7-.8-.8c0 0-1-.2-1-.2c-1.3-.3-1.9-1.1-1.9-2.1c0-1.2 1.1-2.2 2.6-2.2c1.9 0 2.6 1.2 2.7 1.9c0 0-1.4.4-1.4.4c-.1-.4-.4-1-1.3-1c-.6 0-1.1.3-1.1.8c0 .4.3.6.8.7c0 0 1 .2 1 .2c1.4.3 2.1 1.1 2.1 2.2c0 1.1-.9 2.2-2.7 2.2c-2.1 0-2.8-1.3-2.9-2.1c0 0 1.4-.4 1.4-.4z" stroke="none" fill="#144542"/></g></svg>