<?xml version="1.0" standalone="no"?><!DOCTYPE svg PUBLIC "-//W3C//DTD SVG 1.1//EN" "http://www.w3.org/Graphics/SVG/1.1/DTD/svg11.dtd"><svg xmlns="http://www.w3.org/2000/svg" version="1.1" width="193.3px" height="72.1px" viewBox="0 -10 193.3 72.1" style="top:-10px"><desc>96%</desc><defs/><g id="Polygon178114"><path d="m86.1 22.4c0 9.5-7 17.2-18.3 18c0 0-.1-.7-.1-.7c6.1-1.1 10.8-7.7 11.6-12.5c-1.5 1.8-3.3 2.5-6 2.5c-4.7 0-8.1-4.9-8.1-9.8c0-5.9 3.4-10.3 10.3-10.3c7.7 0 10.6 6.7 10.6 12.8zm-7.1-2.4c0-4.9-1.1-9.4-4.2-9.4c-2.6 0-2.5 6-2.5 8.1c0 4.1 1.2 9.4 3.8 9.4c2.8 0 2.9-4.3 2.9-8.1zm30 1c0 5.9-3.4 10.3-10.3 10.3c-7.7 0-10.6-6.8-10.6-12.8c0-9.5 6.9-17.2 18.2-18c0 0 .1.7.1.7c-6.1 1.1-10.8 7.7-11.6 12.5c1.5-1.7 3.3-2.5 6-2.5c4.7 0 8.2 4.9 8.2 9.8zm-7.2 1.2c0-4.1-1.1-9.4-3.8-9.4c-2.7 0-2.8 4.3-2.8 8.1c0 4.9 1 9.4 4.1 9.4c2.7 0 2.5-6.1 2.5-8.1zm8.3-18.1c0-2.8 1.8-4.7 4.3-4.7c2.6 0 4.4 1.9 4.4 4.7c0 2.7-1.8 4.7-4.4 4.7c-2.5 0-4.3-2-4.3-4.7zm6.5 8.1l4.7-7.5l3-5l1.1 0l-3.5 5.2l-4.8 7.5l-2.8 4.6l-1 0l3.3-4.8zm-.8-8.1c0-2.6-.1-4.2-1.4-4.2c-1.2 0-1.3 1.6-1.3 4.2c0 2.5.1 4.2 1.3 4.2c1.3 0 1.4-1.7 1.4-4.2zm4.3 8.5c0-2.7 1.8-4.7 4.3-4.7c2.5 0 4.3 2 4.3 4.7c0 2.8-1.8 4.7-4.3 4.7c-2.5 0-4.3-1.9-4.3-4.7zm5.6 0c0-2.5-.1-4.2-1.3-4.2c-1.2 0-1.3 1.7-1.3 4.2c0 2.6.1 4.2 1.3 4.2c1.2 0 1.3-1.6 1.3-4.2z" stroke="none" fill="#144542"/></g></svg>