<?xml version="1.0" standalone="no"?><!DOCTYPE svg PUBLIC "-//W3C//DTD SVG 1.1//EN" "http://www.w3.org/Graphics/SVG/1.1/DTD/svg11.dtd"><svg xmlns="http://www.w3.org/2000/svg" version="1.1" width="106px" height="48.8px" viewBox="0 -3 106 48.8" style="top:-3px"><desc>Engagement des quipes</desc><defs/><g id="Polygon177166"><path d="m4.1 27.4c1.1 0 1.9-.9 1.9-2.2c0-1.4-.8-2.2-1.9-2.2c-1.1 0-1.9.8-1.9 2.2c0 1.3.8 2.2 1.9 2.2zm3.5 0c0 .7.1 1.2.1 1.3c0 0-1.6 0-1.6 0c-.1-.1-.1-.6-.1-.9c-.3.6-1.1 1.1-2.1 1.1c-2 0-3.4-1.6-3.4-3.7c0-2.1 1.4-3.7 3.4-3.7c1.2 0 1.9.5 2.1 1c-.03 0 0-4.3 0-4.3l1.6 0c0 0 .01 9.24 0 9.2zm6.9-3c-.1-.8-.6-1.5-1.8-1.5c-1 0-1.7.8-1.7 1.5c0 0 3.5 0 3.5 0zm1.6 2.3c-.4 1.2-1.5 2.2-3.2 2.2c-1.9 0-3.6-1.3-3.6-3.7c0-2.3 1.6-3.7 3.4-3.7c2.2 0 3.5 1.4 3.5 3.6c0 .3-.1.5-.1.6c0 0-5.2 0-5.2 0c.1 1 .9 1.8 2 1.8c1 0 1.5-.5 1.7-1.2c0 0 1.5.4 1.5.4zm2.5-.3c.1.6.5 1.2 1.4 1.2c.7 0 1.1-.4 1.1-.8c0-.4-.3-.7-.8-.8c0 0-1.1-.2-1.1-.2c-1.2-.3-1.9-1.1-1.9-2.1c0-1.2 1.2-2.2 2.6-2.2c2 0 2.6 1.2 2.7 1.9c0 0-1.4.4-1.4.4c0-.4-.3-1-1.3-1c-.6 0-1 .3-1 .8c0 .4.3.6.7.7c0 0 1.1.2 1.1.2c1.3.3 2 1.1 2 2.2c0 1.1-.8 2.2-2.6 2.2c-2.1 0-2.9-1.3-3-2.1c0 0 1.5-.4 1.5-.4zm12.9-5.6l-1.4 0l1.3-2.2l2 0l-1.9 2.2zm1.1 3.6c0-.8-.6-1.5-1.7-1.5c-1.1 0-1.7.8-1.7 1.5c0 0 3.4 0 3.4 0zm1.6 2.3c-.3 1.2-1.5 2.2-3.2 2.2c-1.9 0-3.6-1.3-3.6-3.7c0-2.3 1.7-3.7 3.5-3.7c2.1 0 3.4 1.4 3.4 3.6c0 .3 0 .5 0 .6c0 0-5.2 0-5.2 0c.1 1 .9 1.8 1.9 1.8c1.1 0 1.6-.5 1.8-1.2c0 0 1.4.4 1.4.4zm6.6 4.8c0 0 .05-3.61 0-3.6c-.3.6-1 1-2 1c-2 0-3.4-1.6-3.4-3.7c0-2.1 1.3-3.7 3.3-3.7c1.3 0 1.9.6 2.2 1.1c-.01.01 0-.9 0-.9l1.6 0l0 9.8l-1.7 0zm-1.8-4.1c1.1 0 1.9-.9 1.9-2.2c0-1.4-.8-2.2-1.9-2.2c-1.2 0-1.9.8-1.9 2.2c0 1.3.8 2.2 1.9 2.2zm10.2.5c-.4.7-1.2 1-2 1c-1.7 0-2.7-1.2-2.7-2.8c0 .02 0-4.4 0-4.4l1.7 0c0 0-.02 4.12 0 4.1c0 .9.4 1.6 1.4 1.6c1 0 1.5-.6 1.5-1.6c-.02.05 0-4.1 0-4.1l1.7 0c0 0-.04 5.74 0 5.7c0 .6 0 1.1 0 1.3c0 0-1.6 0-1.6 0c0-.1 0-.5 0-.8c0 0 0 0 0 0zm3.7.8l0-7l1.7 0l0 7l-1.7 0zm.9-10.6c.6 0 1.1.5 1.1 1.1c0 .6-.5 1.1-1.1 1.1c-.6 0-1.1-.5-1.1-1.1c0-.6.5-1.1 1.1-1.1zm3 13.4l0-9.8l1.6 0c0 0 0 .93 0 .9c.4-.6 1.2-1.1 2.3-1.1c2 0 3.2 1.6 3.2 3.7c0 2.1-1.3 3.7-3.3 3.7c-1 0-1.8-.4-2.2-1c.05.03 0 3.6 0 3.6l-1.6 0zm5.4-6.3c0-1.3-.7-2.2-1.9-2.2c-1.1 0-1.9.9-1.9 2.2c0 1.3.8 2.2 1.9 2.2c1.2 0 1.9-.9 1.9-2.2c0 0 0 0 0 0zm8-.8c0-.8-.6-1.5-1.8-1.5c-1 0-1.6.8-1.7 1.5c0 0 3.5 0 3.5 0zm1.6 2.3c-.4 1.2-1.5 2.2-3.2 2.2c-1.9 0-3.6-1.3-3.6-3.7c0-2.3 1.6-3.7 3.4-3.7c2.2 0 3.5 1.4 3.5 3.6c0 .3-.1.5-.1.6c0 0-5.1 0-5.1 0c0 1 .9 1.8 1.9 1.8c1 0 1.5-.5 1.8-1.2c0 0 1.4.4 1.4.4zm2.5-.3c.1.6.6 1.2 1.5 1.2c.7 0 1-.4 1-.8c0-.4-.2-.7-.8-.8c0 0-1.1-.2-1.1-.2c-1.2-.3-1.8-1.1-1.8-2.1c0-1.2 1.1-2.2 2.5-2.2c2 0 2.7 1.2 2.8 1.9c0 0-1.4.4-1.4.4c-.1-.4-.4-1-1.4-1c-.5 0-1 .3-1 .8c0 .4.3.6.7.7c0 0 1.1.2 1.1.2c1.3.3 2 1.1 2 2.2c0 1.1-.8 2.2-2.6 2.2c-2.1 0-2.9-1.3-2.9-2.1c0 0 1.4-.4 1.4-.4z" stroke="none" fill="#144542"/></g><g id="Polygon177165"><path d="m1.2 11.7l0-10.2l6.4 0l0 1.6l-4.6 0l0 2.7l4.1 0l0 1.6l-4.1 0l0 2.7l4.6 0l0 1.6l-6.4 0zm9.9 0l-1.7 0l0-7l1.6 0c0 0 .02.91 0 .9c.5-.8 1.3-1.1 2.1-1.1c1.7 0 2.6 1.2 2.6 2.8c-.04-.04 0 4.4 0 4.4l-1.7 0c0 0-.02-4.15 0-4.1c0-.9-.4-1.6-1.5-1.6c-.9 0-1.4.7-1.4 1.7c-.04-.05 0 4 0 4zm7.6 0c.2.9.8 1.5 1.8 1.5c1.4 0 2-.6 2-2.1c0 0 0-.7 0-.7c-.3.5-1 1-2 1c-1.9 0-3.3-1.4-3.3-3.4c0-1.9 1.3-3.5 3.3-3.5c1.1 0 1.8.5 2.1 1.1c-.04-.03 0-.9 0-.9l1.6 0c0 0-.02 6.36 0 6.4c0 1.8-1 3.6-3.6 3.6c-1.9 0-3.2-1.2-3.4-2.6c0 0 1.5-.4 1.5-.4zm3.9-3.7c0-1.2-.8-2-1.9-2c-1 0-1.8.8-1.8 2c0 1.2.7 2 1.8 2c1.1 0 1.9-.8 1.9-2zm5.3-.3c0 0 1.8-.3 1.8-.3c.4 0 .5-.3.5-.5c0-.6-.4-1.1-1.3-1.1c-.9 0-1.4.6-1.5 1.3c0 0-1.5-.3-1.5-.3c.1-1.3 1.2-2.3 3-2.3c2.1 0 3 1.2 3 2.6c0 0 0 3.5 0 3.5c0 .6 0 1.1 0 1.1c0 0-1.5 0-1.5 0c0 0-.1-.3-.1-.9c-.3.6-1 1.1-2.2 1.1c-1.4 0-2.4-1-2.4-2.1c0-1.2 1-1.9 2.2-2.1zm2.3 1.1c0 0 0-.3 0-.3c0 0-1.84.26-1.8.3c-.6 0-1 .3-1 .9c0 .5.4.9 1 .9c1 0 1.8-.4 1.8-1.8zm4.7 2.9c.1.9.8 1.5 1.8 1.5c1.3 0 2-.6 2-2.1c0 0 0-.7 0-.7c-.3.5-1 1-2.1 1c-1.8 0-3.2-1.4-3.2-3.4c0-1.9 1.3-3.5 3.2-3.5c1.1 0 1.8.5 2.1 1.1c.03-.03 0-.9 0-.9l1.7 0c0 0-.05 6.36 0 6.4c0 1.8-1 3.6-3.7 3.6c-1.8 0-3.1-1.2-3.3-2.6c0 0 1.5-.4 1.5-.4zm3.8-3.7c0-1.2-.7-2-1.8-2c-1.1 0-1.8.8-1.8 2c0 1.2.7 2 1.8 2c1.1 0 1.8-.8 1.8-2zm8.4-.6c-.1-.8-.6-1.5-1.8-1.5c-1 0-1.7.8-1.7 1.5c0 0 3.5 0 3.5 0zm1.6 2.3c-.4 1.2-1.5 2.2-3.2 2.2c-1.9 0-3.6-1.3-3.6-3.7c0-2.3 1.6-3.7 3.4-3.7c2.2 0 3.4 1.4 3.4 3.6c0 .3 0 .5 0 .6c0 0-5.2 0-5.2 0c.1 1 .9 1.8 2 1.8c1 0 1.5-.5 1.7-1.2c0 0 1.5.4 1.5.4zm1.7 2l0-7l1.6 0c0 0-.03.87 0 .9c.4-.8 1.3-1.1 2.1-1.1c.9 0 1.7.4 2.1 1.2c.5-.9 1.3-1.2 2.3-1.2c1.2 0 2.5.8 2.5 2.6c-.04.05 0 4.6 0 4.6l-1.7 0c0 0 .03-4.28 0-4.3c0-.8-.4-1.4-1.3-1.4c-.9 0-1.5.7-1.5 1.5c.01.04 0 4.2 0 4.2l-1.6 0c0 0-.05-4.28 0-4.3c0-.8-.5-1.4-1.4-1.4c-.9 0-1.5.6-1.5 1.5c.02.04 0 4.2 0 4.2l-1.6 0zm17.3-4.3c-.1-.8-.6-1.5-1.8-1.5c-1 0-1.7.8-1.7 1.5c0 0 3.5 0 3.5 0zm1.6 2.3c-.4 1.2-1.5 2.2-3.2 2.2c-1.9 0-3.6-1.3-3.6-3.7c0-2.3 1.6-3.7 3.4-3.7c2.2 0 3.5 1.4 3.5 3.6c0 .3-.1.5-.1.6c0 0-5.2 0-5.2 0c.1 1 .9 1.8 2 1.8c1 0 1.5-.5 1.7-1.2c0 0 1.5.4 1.5.4zm3.3 2l-1.6 0l0-7l1.6 0c0 0 0 .91 0 .9c.5-.8 1.3-1.1 2.1-1.1c1.7 0 2.5 1.2 2.5 2.8c.04-.04 0 4.4 0 4.4l-1.6 0c0 0-.04-4.15 0-4.1c0-.9-.4-1.6-1.5-1.6c-.9 0-1.5.7-1.5 1.7c.04-.05 0 4 0 4zm8.8-7l1.5 0l0 1.5l-1.5 0c0 0 .02 3.24 0 3.2c0 .7.3.9.9.9c.2 0 .5 0 .6 0c0 0 0 1.4 0 1.4c-.1 0-.4.1-1 .1c-1.3 0-2.2-.8-2.2-2.1c.05.02 0-3.5 0-3.5l-1.3 0l0-1.5c0 0 .41-.03.4 0c.8 0 1.1-.5 1.1-1.1c-.01-.03 0-1.1 0-1.1l1.5 0l0 2.2z" stroke="none" fill="#144542"/></g></svg>