<?xml version="1.0" standalone="no"?><!DOCTYPE svg PUBLIC "-//W3C//DTD SVG 1.1//EN" "http://www.w3.org/Graphics/SVG/1.1/DTD/svg11.dtd"><svg xmlns="http://www.w3.org/2000/svg" version="1.1" width="340.2px" height="47.6px" viewBox="0 -8 340.2 47.6" style="top:-8px"><desc>Merci nos partenaires !</desc><defs/><g id="Polygon187391"><path d="m24.7 21.9c.02-.03 0 .4 0 .4l-8.2 0c0 0 0-.43 0-.4c.7-.2 1.7-1 1.6-2.5c0 0-.8-13.6-.8-13.6c-1.1 3.5-3 10.2-3.3 11.9c-.4 1.9 0 3.3 0 3.4c-1.4.8-2.9 1.6-4.2 2.9c.01-.03-5.1-18.5-5.1-18.5c0 0-1.13 13.07-1.1 13.1c-.3 2.8 2.2 3.1 2.9 3.3c.01-.03 0 .4 0 .4l-6.7 0c0 0 .02-.43 0-.4c.7-.2 2.7-1 3-3.3c0 0 1.2-14 1.2-14c.3-1.9-1.4-3.2-3-3.4c.02 0 0-.5 0-.5l7.6 0l4.5 17.1c0 0 3.25-11.5 3.3-11.5c.6-2.4.7-4.6.8-5.6c-.04.05 6.8 0 6.8 0c0 0-.03.5 0 .5c-.9.2-1.9 1.4-1.8 2.4c.1 1.3.6 11.2 1 15.7c.2 1.6.7 2.4 1.5 2.6zm15.5-4.9c0 0 0 .8 0 .8c-.7 2.8-3 4.9-6.4 4.9c-4.1 0-7.6-3.6-7.6-7.9c0-4.4 3.6-7.8 7.6-7.8c3.2 0 6 2 6.7 5.2c0 0-9.5 2-9.5 2c.6 2.5 2 5.2 5.4 5.2c.8 0 2.8-.4 3.8-2.4zm-9.4-5.2c0 .5 0 1.1.1 1.6c0 0 2.5-.4 2.5-.4c.9-.2 1.2-.9 1.2-1.6c0-1.5-1.4-3.6-2.7-3.6c-1.3 0-1.1 3.4-1.1 4zm23.3-2.4c0 1.4-1.1 2.4-2.3 2.4c-2.2 0-1.7-2.2-2.8-2.2c-.3 0-.8.6-1.1 1.2c0 0 0 8 0 8c0 2.2 1.2 2.9 1.4 3.1c-.04-.03 0 .4 0 .4l-7.7 0c0 0 .04-.37 0-.4c.4-.2 1.6-1.2 1.6-3.1c0 0 0-7.2 0-7.2c0-2.2-1.1-2.9-1.6-3.2c.04 0 0-.5 0-.5l6.4-1.1c0 0-.66 3.67-.7 3.7c.8-2.1 2-3.5 4.2-3.5c1.4 0 2.6.9 2.6 2.4zm.3 5.5c0-4.2 3.3-7.9 8.2-7.9c2.9 0 5.8 2 5.8 4.4c0 1.6-1.3 2.8-2.4 2.8c-1.1 0-2.3-.9-2.3-2.2c0-1.1.8-1.4.8-2.4c0-.9-1.2-1.9-2.5-1.9c-2.5 0-3.5 1.7-3.5 4.5c0 4.1 2.4 7.3 5.8 7.3c1.3 0 3.2-.7 4.2-2.3c0 0 0 .9 0 .9c-1.3 3.6-4.1 4.6-6.5 4.6c-4.1 0-7.6-3.5-7.6-7.8zm16.4-12.2c0-1.5 1.3-2.8 2.7-2.8c1.5 0 2.8 1.3 2.8 2.8c0 1.4-1.3 2.7-2.8 2.7c-1.4 0-2.7-1.3-2.7-2.7zm-1.1 19.2c.5-.2 1.5-.9 1.5-3c0 0 0-7.7 0-7.7c0-1.9-1-2.6-1.5-2.8c.02-.03 0-.5 0-.5l6.3-1.1c0 0 .02 12.07 0 12.1c0 2.1 1 2.8 1.4 3c.03-.03 0 .4 0 .4l-7.7 0c0 0 .02-.43 0-.4zm20.2-21.2l5.6 0l1.9 4.6l-.7 0l-6.8-4.6zm-2.3 18c0-4.1 6.8-4.7 8.7-5.3c0 0 0-2.7 0-2.7c0-2.1-1.1-3-2.3-3c-1.4 0-1.4 1.1-1.4 1.3c0 1 .5 1.2.5 2.5c0 1.2-1 1.9-2.5 1.9c-1.4 0-2.2-1-2.2-2.3c0-2 2.7-4.1 5.9-4.1c5.1 0 6.7 2.1 6.7 6.8c0 0 0 4.3 0 4.3c0 1.8.3 2.8 2 2.2c0 0 0 .5 0 .5c-.6 1.1-2.3 1.9-3.3 1.9c-1.7 0-3.3-.8-3.3-2.1c-1.2 1.6-3.1 2.1-4.4 2.1c-2.9 0-4.4-1.3-4.4-4zm8.7-.1c0 0 0-4.6 0-4.6c-1.3.9-3.9 1.6-3.9 3.8c0 1.7.8 2.6 2.1 2.6c.7 0 1.8-.6 1.8-1.8zm33.6 3.3c-.03-.03 0 .4 0 .4l-7.8 0c0 0 .03-.43 0-.4c.5-.2 1.5-1.2 1.5-3.1c0 0 0-6.1 0-6.1c0-3.5-.4-4.4-1.8-4.4c-1 0-1.9.8-2.4 1.9c0 0 0 8.6 0 8.6c0 2.2 1.2 2.9 1.3 3.1c.05-.03 0 .4 0 .4l-7.6 0c0 0 .03-.37 0-.4c.4-.2 1.6-1.2 1.6-3.1c0 0 0-7.2 0-7.2c0-2.2-1.1-2.9-1.6-3.2c.03 0 0-.5 0-.5l6.4-1.1c0 0-.58 3.19-.6 3.2c.9-1.8 2.2-3 4.3-3c3.5 0 5.2 2.3 5.2 5.1c0 0 0 6.7 0 6.7c0 1.9 1.1 2.9 1.5 3.1zm1.1-7.1c0-4.3 3.6-7.8 8.1-7.8c4.5 0 8.2 3.5 8.2 7.8c0 4.4-3.7 7.9-8.2 7.9c-4.5 0-8.1-3.5-8.1-7.9zm11.2 3c0-3.6-2-10-4.6-10c-1.1 0-1.6 1.6-1.6 3.9c0 3.7 1.9 10.2 4.6 10.2c1.1 0 1.6-1.7 1.6-4.1zm7.7 5c-.02 0-1.4-6.4-1.4-6.4c0 0 .63.04.6 0c1.1 2.6 3.3 5.7 6.2 5.7c1.5 0 2.3-.9 2.3-2.5c0-3.3-8.7-1.9-8.7-8.4c0-2.9 2.5-4.2 5.1-4.2c2.3 0 3.1 1.1 5.4 0c.05-.04 1.2 5.7 1.2 5.7c0 0-.64-.01-.6 0c-1.3-2.7-3.9-5.1-6.1-5.1c-1.3 0-2.3.5-2 2c.4 2.5 9.4 1.7 9.4 8.6c0 2.6-2.5 4.5-6 4.5c-2.2 0-2.9-.7-5.4.1zm38.1-8.1c0 4.4-2.9 8-6.7 8c-1.5 0-2.5-.3-3.4-1c0 0 0 3.6 0 3.6c0 2.3 1.1 3 1.3 3.2c.05 0 0 .4 0 .4l-7.7 0c0 0 .04-.37 0-.4c.4-.1 1.7-1.2 1.7-3.2c0 0 0-13.8 0-13.8c0-2.2-1-3.1-1.6-3.2c.03.04 0-.4 0-.4l6.3-1.2c0 0-.57 2.99-.6 3c1.5-2.7 2.9-2.7 4.2-2.7c3.8 0 6.5 3.4 6.5 7.7zm-4.9.9c0-3.3-.9-7.4-3.1-7.4c-.6 0-1.3.3-2.1 1.7c0 0 0 9.9 0 9.9c.8 1.3 1.3 2.1 2.8 2.1c1.8 0 2.4-2.5 2.4-6.3zm6.6 3.1c0-4.1 6.7-4.7 8.7-5.3c0 0 0-2.7 0-2.7c0-2.1-1.1-3-2.4-3c-1.4 0-1.4 1.1-1.4 1.3c0 1 .5 1.2.5 2.5c0 1.2-.9 1.9-2.4 1.9c-1.5 0-2.2-1-2.2-2.3c0-2 2.6-4.1 5.9-4.1c5 0 6.7 2.1 6.7 6.8c0 0 0 4.3 0 4.3c0 1.8.3 2.8 1.9 2.2c0 0 0 .5 0 .5c-.5 1.1-2.2 1.9-3.3 1.9c-1.6 0-3.2-.8-3.3-2.1c-1.2 1.6-3 2.1-4.3 2.1c-2.9 0-4.4-1.3-4.4-4zm8.7-.1c0 0 0-4.6 0-4.6c-1.4.9-3.9 1.6-3.9 3.8c0 1.7.8 2.6 2.1 2.6c.7 0 1.8-.6 1.8-1.8zm20.1-9.2c0 1.4-1.2 2.4-2.4 2.4c-2.2 0-1.7-2.2-2.7-2.2c-.4 0-.8.6-1.1 1.2c0 0 0 8 0 8c0 2.2 1.1 2.9 1.3 3.1c.03-.03 0 .4 0 .4l-7.6 0c0 0 .01-.37 0-.4c.4-.2 1.5-1.2 1.5-3.1c0 0 0-7.2 0-7.2c0-2.2-1-2.9-1.5-3.2c.01 0 0-.5 0-.5l6.3-1.1c0 0-.59 3.67-.6 3.7c.7-2.1 2-3.5 4.2-3.5c1.4 0 2.6.9 2.6 2.4zm7.1-1.1c0 0 .03 9.49 0 9.5c0 4.3 2.8 2.9 3 3c0 0 0 .4 0 .4c-.3.3-1.8 1.5-4.4 1.5c-1.8 0-3.3-1.3-3.3-4.4c-.04-.03 0-10 0-10l-2 0c0 0-.02-.95 0-1c2.1-.8 5.1-3.6 6.2-6c.02-.04.5 0 .5 0c0 0 .03 6.05 0 6c1.1 0 2.5-.2 3.5-.5c-.02-.02-.2 1.5-.2 1.5l-3.3 0zm17.5 8.7c0 0 0 .8 0 .8c-.7 2.8-3 4.9-6.5 4.9c-4 0-7.5-3.6-7.5-7.9c0-4.4 3.5-7.8 7.6-7.8c3.2 0 5.9 2 6.7 5.2c0 0-9.5 2-9.5 2c.5 2.5 2 5.2 5.3 5.2c.9 0 2.8-.4 3.9-2.4zm-9.4-5.2c0 .5 0 1.1.1 1.6c0 0 2.4-.4 2.4-.4c.9-.2 1.2-.9 1.2-1.6c0-1.5-1.3-3.6-2.7-3.6c-1.3 0-1 3.4-1 4zm27.5 10.1c.04-.03 0 .4 0 .4l-7.7 0c0 0 0-.43 0-.4c.4-.2 1.5-1.2 1.5-3.1c0 0 0-6.1 0-6.1c0-3.5-.4-4.4-1.8-4.4c-1.1 0-1.9.8-2.4 1.9c0 0 0 8.6 0 8.6c0 2.2 1.1 2.9 1.3 3.1c.02-.03 0 .4 0 .4l-7.6 0c0 0 0-.37 0-.4c.4-.2 1.5-1.2 1.5-3.1c0 0 0-7.2 0-7.2c0-2.2-1.1-2.9-1.5-3.2c0 0 0-.5 0-.5l6.3-1.1c0 0-.51 3.19-.5 3.2c.8-1.8 2.2-3 4.2-3c3.5 0 5.2 2.3 5.2 5.1c0 0 0 6.7 0 6.7c0 1.9 1.2 2.9 1.5 3.1zm1.1-3.2c0-4.1 6.7-4.7 8.7-5.3c0 0 0-2.7 0-2.7c0-2.1-1.1-3-2.4-3c-1.4 0-1.4 1.1-1.4 1.3c0 1 .5 1.2.5 2.5c0 1.2-1 1.9-2.5 1.9c-1.4 0-2.2-1-2.2-2.3c0-2 2.7-4.1 5.9-4.1c5.1 0 6.8 2.1 6.8 6.8c0 0 0 4.3 0 4.3c0 1.8.3 2.8 1.9 2.2c0 0 0 .5 0 .5c-.6 1.1-2.3 1.9-3.3 1.9c-1.7 0-3.2-.8-3.3-2.1c-1.2 1.6-3 2.1-4.4 2.1c-2.8 0-4.3-1.3-4.3-4zm8.7-.1c0 0 0-4.6 0-4.6c-1.4.9-3.9 1.6-3.9 3.8c0 1.7.8 2.6 2 2.6c.7 0 1.9-.6 1.9-1.8zm8.7-15.9c0-1.5 1.2-2.8 2.7-2.8c1.5 0 2.7 1.3 2.7 2.8c0 1.4-1.2 2.7-2.7 2.7c-1.5 0-2.7-1.3-2.7-2.7zm-1.1 19.2c.4-.2 1.5-.9 1.5-3c0 0 0-7.7 0-7.7c0-1.9-1-2.6-1.5-2.8c-.02-.03 0-.5 0-.5l6.3-1.1c0 0-.02 12.07 0 12.1c0 2.1 1 2.8 1.4 3c-.01-.03 0 .4 0 .4l-7.7 0c0 0-.02-.43 0-.4zm21.4-12.5c0 1.4-1.1 2.4-2.3 2.4c-2.2 0-1.7-2.2-2.7-2.2c-.4 0-.9.6-1.2 1.2c0 0 0 8 0 8c0 2.2 1.2 2.9 1.4 3.1c-.03-.03 0 .4 0 .4l-7.7 0c0 0 .05-.37 0-.4c.4-.2 1.6-1.2 1.6-3.1c0 0 0-7.2 0-7.2c0-2.2-1.1-2.9-1.6-3.2c.05 0 0-.5 0-.5l6.4-1.1c0 0-.65 3.67-.7 3.7c.8-2.1 2-3.5 4.2-3.5c1.5 0 2.6.9 2.6 2.4zm14.3 7.6c0 0 0 .8 0 .8c-.7 2.8-3 4.9-6.5 4.9c-4 0-7.5-3.6-7.5-7.9c0-4.4 3.5-7.8 7.6-7.8c3.2 0 5.9 2 6.7 5.2c0 0-9.5 2-9.5 2c.5 2.5 2 5.2 5.3 5.2c.8 0 2.8-.4 3.9-2.4zm-9.4-5.2c0 .5 0 1.1.1 1.6c0 0 2.4-.4 2.4-.4c.9-.2 1.2-.9 1.2-1.6c0-1.5-1.3-3.6-2.7-3.6c-1.3 0-1 3.4-1 4zm12.3 11c-.04 0-1.4-6.4-1.4-6.4c0 0 .61.04.6 0c1.1 2.6 3.3 5.7 6.2 5.7c1.5 0 2.2-.9 2.2-2.5c0-3.3-8.6-1.9-8.6-8.4c0-2.9 2.5-4.2 5.1-4.2c2.2 0 3.1 1.1 5.4 0c.03-.04 1.2 5.7 1.2 5.7c0 0-.66-.01-.7 0c-1.3-2.7-3.8-5.1-6-5.1c-1.3 0-2.3.5-2.1 2c.5 2.5 9.5 1.7 9.5 8.6c0 2.6-2.5 4.5-6 4.5c-2.3 0-3-.7-5.4.1zm19.1-8.3c0-3-2.6-8.7-2.6-11.6c0-1.7 1.7-2.5 2.9-2.5c1.2 0 3 .8 3 2.5c0 2.9-2.7 8.6-2.7 11.6c.03.05 0 .8 0 .8l-.6 0c0 0 0-.75 0-.8zm-2.5 5.5c0-1.5 1.3-2.7 2.8-2.7c1.5 0 2.7 1.2 2.7 2.7c0 1.5-1.2 2.7-2.7 2.7c-1.5 0-2.8-1.2-2.8-2.7z" stroke="none" fill="#144542"/></g></svg>