<?xml version="1.0" standalone="no"?><!DOCTYPE svg PUBLIC "-//W3C//DTD SVG 1.1//EN" "http://www.w3.org/Graphics/SVG/1.1/DTD/svg11.dtd"><svg xmlns="http://www.w3.org/2000/svg" version="1.1" width="83.4px" height="16px" viewBox="0 -3 83.4 16" style="top:-3px"><desc>Grand d butant</desc><defs/><g id="Polygon166212"><path d="m6.6 8.5c0 0-.13-1.06-.1-1.1c-.4.6-1.2 1.3-2.4 1.3c-1.9 0-3.6-1.4-3.6-3.9c0-2.6 1.8-3.9 3.7-3.9c1.6 0 2.8.9 3.3 2.2c0 0-1 .4-1 .4c-.3-1-1.2-1.7-2.3-1.7c-1.4 0-2.7 1-2.7 3c0 1.9 1.3 2.9 2.6 2.9c1.7 0 2.3-1.2 2.3-1.9c.02-.03-2.6 0-2.6 0l0-.9l3.6 0l0 3.6l-.8 0zm5.1-4.1c-.2 0-.3 0-.5 0c-.8 0-1.3.5-1.3 1.6c-.04-.04 0 2.5 0 2.5l-1 0l0-5.1l.9 0c0 0 .04.93 0 .9c.4-.8 1-.9 1.5-.9c.2 0 .3 0 .4 0c0 0 0 1 0 1zm.7 2.7c0-.9.7-1.4 1.5-1.5c0 0 1.4-.2 1.4-.2c.3 0 .4-.2.4-.4c0-.5-.3-.9-1.1-.9c-.7 0-1.1.5-1.1 1c0 0-1-.2-1-.2c.1-.9 1-1.6 2.1-1.6c1.5 0 2.1.8 2.1 1.8c0 0 0 2.6 0 2.6c0 .4 0 .7 0 .8c0 0-.9 0-.9 0c0-.1-.1-.3-.1-.7c-.2.4-.7.9-1.6.9c-1 0-1.7-.8-1.7-1.6c0 0 0 0 0 0zm3.3-.8c0 .03 0-.2 0-.2c0 0-1.55.23-1.5.2c-.5.1-.8.3-.8.8c0 .4.3.7.8.7c.8 0 1.5-.4 1.5-1.5zm3.5 2.2l-1 0l0-5.1l1 0c0 0-.02.77 0 .8c.4-.7.9-.9 1.5-.9c1.2 0 1.8.9 1.8 2c.04-.01 0 3.2 0 3.2l-.9 0c0 0-.04-3.04 0-3c0-.7-.3-1.3-1.2-1.3c-.8 0-1.2.6-1.2 1.4c0-.03 0 2.9 0 2.9zm7-.7c.9 0 1.4-.8 1.4-1.9c0-1-.5-1.7-1.4-1.7c-.9 0-1.5.7-1.5 1.8c0 1 .5 1.8 1.5 1.8zm1.5-.1c-.3.5-.8.9-1.6.9c-1.5 0-2.4-1.1-2.4-2.6c0-1.5 1-2.7 2.4-2.7c.9 0 1.4.4 1.5.9c.04-.04 0-3.3 0-3.3l1 0c0 0 .01 6.66 0 6.7c0 .4.1.8.1.9c0 0-1 0-1 0c0-.1 0-.4 0-.7c0 0 0-.1 0-.1zm7.3.1c.9 0 1.4-.8 1.4-1.9c0-1-.5-1.7-1.4-1.7c-.9 0-1.5.7-1.5 1.8c0 1 .5 1.8 1.5 1.8zm1.5-.1c-.3.5-.8.9-1.6.9c-1.5 0-2.4-1.1-2.4-2.6c0-1.5 1-2.7 2.4-2.7c.9 0 1.4.4 1.5.9c.04-.04 0-3.3 0-3.3l1 0c0 0 .01 6.66 0 6.7c0 .4.1.8.1.9c0 0-1 0-1 0c0-.1 0-.4 0-.7c0 0 0-.1 0-.1zm6-2.2c0-.8-.5-1.3-1.4-1.3c-.8 0-1.3.6-1.4 1.3c0 0 2.8 0 2.8 0zm1 1.6c-.3.8-1.1 1.6-2.3 1.6c-1.3 0-2.5-1-2.5-2.7c0-1.6 1.1-2.7 2.4-2.7c1.6 0 2.4 1.1 2.4 2.6c0 .2 0 .3 0 .3c0 0-3.8 0-3.8 0c0 1 .7 1.6 1.5 1.6c.8 0 1.3-.5 1.4-1c0 0 .9.3.9.3zm-2-4.3l-.8 0l.9-1.5l1.2 0l-1.3 1.5zm3.3 5.7l0-7.6l1 0c0 0-.04 3.26 0 3.3c.2-.5.8-.9 1.6-.9c1.6 0 2.3 1.2 2.3 2.6c0 1.5-.8 2.7-2.3 2.7c-.7 0-1.3-.3-1.6-.8c-.04-.04 0 .7 0 .7l-1 0zm2.4-4.3c-.8 0-1.5.7-1.5 1.7c0 1.1.7 1.8 1.5 1.8c1 0 1.5-.7 1.5-1.8c0-1-.5-1.7-1.5-1.7zm7.1 3.7c-.3.5-.9.8-1.5.8c-1.2 0-1.9-.9-1.9-2.1c0 .03 0-3.2 0-3.2l1 0c0 0-.01 3.08 0 3.1c0 .7.3 1.3 1.1 1.3c.8 0 1.2-.5 1.2-1.3c.03-.01 0-3.1 0-3.1l1 0c0 0 .02 4.16 0 4.2c0 .4 0 .7.1.9c0 0-1 0-1 0c0-.1 0-.4 0-.6c0 0 0 0 0 0zm3.9-4.5l1.1 0l0 .9l-1.1 0c0 0 .02 2.66 0 2.7c0 .4.2.7.7.7c.2 0 .3-.1.4-.1c0 0 0 .9 0 .9c-.1 0-.3 0-.7 0c-.8 0-1.4-.5-1.4-1.4c.04.01 0-2.8 0-2.8l-.9 0l0-.9c0 0 .24.04.2 0c.6 0 .8-.3.8-.7c.02-.03 0-.9 0-.9l.9 0l0 1.6zm2.1 3.7c0-.9.7-1.4 1.5-1.5c0 0 1.4-.2 1.4-.2c.3 0 .4-.2.4-.4c0-.5-.3-.9-1.1-.9c-.7 0-1.1.5-1.1 1c0 0-1-.2-1-.2c.1-.9 1-1.6 2.1-1.6c1.5 0 2.1.8 2.1 1.8c0 0 0 2.6 0 2.6c0 .4 0 .7 0 .8c0 0-.9 0-.9 0c0-.1-.1-.3-.1-.7c-.2.4-.7.9-1.6.9c-1 0-1.7-.8-1.7-1.6c0 0 0 0 0 0zm3.3-.8c0 .03 0-.2 0-.2c0 0-1.55.23-1.5.2c-.5.1-.8.3-.8.8c0 .4.3.7.8.7c.8 0 1.5-.4 1.5-1.5zm3.5 2.2l-1 0l0-5.1l1 0c0 0-.02.77 0 .8c.4-.7.9-.9 1.5-.9c1.2 0 1.8.9 1.8 2c.04-.01 0 3.2 0 3.2l-.9 0c0 0-.04-3.04 0-3c0-.7-.3-1.3-1.2-1.3c-.8 0-1.2.6-1.2 1.4c0-.03 0 2.9 0 2.9zm6.2-5.1l1.1 0l0 .9l-1.1 0c0 0 .04 2.66 0 2.7c0 .4.2.7.7.7c.2 0 .3-.1.4-.1c0 0 0 .9 0 .9c-.1 0-.3 0-.6 0c-.9 0-1.4-.5-1.4-1.4c-.04.01 0-2.8 0-2.8l-1 0l0-.9c0 0 .26.04.3 0c.5 0 .7-.3.7-.7c.04-.03 0-.9 0-.9l.9 0l0 1.6z" stroke="none" fill="#144542"/></g></svg>