<?xml version="1.0" standalone="no"?><!DOCTYPE svg PUBLIC "-//W3C//DTD SVG 1.1//EN" "http://www.w3.org/Graphics/SVG/1.1/DTD/svg11.dtd"><svg xmlns="http://www.w3.org/2000/svg" version="1.1" width="170.1px" height="36.6px" viewBox="0 -3 170.1 36.6" style="top:-3px"><desc>notre engagement Rapport de mission 2025</desc><defs/><g id="Polygon160413"><path d="m4 23.2l-1.4 0l0 3.9l-1.4 0l0-9.5c0 0 3.62-.05 3.6 0c1.8 0 2.9 1.2 2.9 2.8c0 1.4-.8 2.4-2.3 2.7c.03.01 2.3 4 2.3 4l-1.5 0l-2.2-3.9zm.6-1.2c1.1 0 1.8-.6 1.8-1.6c0-1-.7-1.7-1.8-1.7c-.02.04-2 0-2 0l0 3.3c0 0 1.98.02 2 0zm4.4 3.4c0-1.2.8-1.8 1.9-2c0 0 1.8-.2 1.8-.2c.4-.1.5-.3.5-.5c0-.7-.4-1.2-1.4-1.2c-.9 0-1.4.6-1.5 1.3c0 0-1.2-.3-1.2-.3c.1-1.2 1.3-2.1 2.7-2.1c1.9 0 2.7 1.1 2.7 2.4c0 0 0 3.3 0 3.3c0 .5 0 .9 0 1c0 0-1.2 0-1.2 0c0-.1-.1-.4-.1-.9c-.3.5-.9 1.1-2.1 1.1c-1.3 0-2.1-.9-2.1-1.9c0 0 0 0 0 0zm4.2-1.1c-.01.04 0-.3 0-.3c0 0-2 .34-2 .3c-.5.1-.9.4-.9 1c0 .5.4 1 1 1c1.1 0 1.9-.5 1.9-2zm3.2 5.4l0-9.1l1.3 0c0 0-.04 1.04 0 1c.3-.6 1.1-1.1 2.1-1.1c2 0 3 1.5 3 3.4c0 1.9-1.1 3.4-3 3.4c-1 0-1.8-.5-2.1-1.1c-.02.04 0 3.5 0 3.5l-1.3 0zm5.1-5.8c0-1.3-.7-2.3-1.9-2.3c-1.2 0-1.9 1-1.9 2.3c0 1.3.7 2.3 1.9 2.3c1.2 0 1.9-1 1.9-2.3c0 0 0 0 0 0zm2.9 5.8l0-9.1l1.3 0c0 0-.04 1.04 0 1c.3-.6 1.1-1.1 2.1-1.1c2 0 3 1.5 3 3.4c0 1.9-1.1 3.4-3 3.4c-1 0-1.8-.5-2.1-1.1c-.01.04 0 3.5 0 3.5l-1.3 0zm5.1-5.8c0-1.3-.7-2.3-1.9-2.3c-1.2 0-1.9 1-1.9 2.3c0 1.3.7 2.3 1.9 2.3c1.2 0 1.9-1 1.9-2.3c0 0 0 0 0 0zm7.7 0c0-1.5-.9-2.3-2-2.3c-1.1 0-2 .8-2 2.3c0 1.5.9 2.3 2 2.3c1.1 0 2-.8 2-2.3zm1.3 0c0 2-1.3 3.4-3.3 3.4c-1.9 0-3.3-1.4-3.3-3.4c0-2 1.4-3.5 3.3-3.5c2 0 3.3 1.5 3.3 3.5zm5.3-2c-.2 0-.4 0-.6 0c-1.1 0-1.8.5-1.8 2c.03-.03 0 3.2 0 3.2l-1.2 0l0-6.5l1.2 0c0 0 0 1.16 0 1.2c.5-1 1.3-1.3 1.9-1.3c.2 0 .4 0 .5.1c0 0 0 1.3 0 1.3zm3.4-1.3l1.4 0l0 1.2l-1.4 0c0 0-.05 3.35 0 3.4c0 .5.2.8.9.8c.1 0 .3 0 .5 0c0 0 0 1.1 0 1.1c-.2 0-.5.1-.9.1c-1.1 0-1.8-.7-1.8-1.9c-.01.04 0-3.5 0-3.5l-1.3 0l0-1.2c0 0 .4.03.4 0c.7 0 1-.4 1-1c-.01.03 0-1 0-1l1.2 0l0 2zm9.1 5.6c1.1 0 1.9-1 1.9-2.4c0-1.3-.7-2.2-1.9-2.2c-1.2 0-1.9.9-1.9 2.3c0 1.3.7 2.3 1.9 2.3zm1.9-.1c-.3.7-1 1.2-2 1.2c-1.9 0-3.1-1.5-3.1-3.4c0-1.9 1.2-3.4 3.1-3.4c1.1 0 1.7.5 1.9 1c.04.05 0-4.2 0-4.2l1.3 0c0 0 0 8.62 0 8.6c0 .6.1 1.1.1 1.2c0 0-1.3 0-1.3 0c0-.1 0-.5 0-.9c0 0 0-.1 0-.1zm7.7-2.9c0-.9-.6-1.7-1.7-1.7c-1.1 0-1.8.9-1.8 1.7c0 0 3.5 0 3.5 0zm1.3 2.1c-.3 1.1-1.4 2-2.9 2c-1.7 0-3.3-1.2-3.3-3.4c0-2.1 1.5-3.5 3.1-3.5c2 0 3.2 1.4 3.2 3.4c0 .2-.1.4-.1.4c0 0-4.9 0-4.9 0c.1 1.2.9 2 2 2c1.1 0 1.6-.6 1.8-1.3c0 0 1.1.4 1.1.4zm5.1 1.8l0-6.5l1.2 0c0 0-.03.89 0 .9c.4-.7 1.2-1.1 1.9-1.1c.8 0 1.6.4 2 1.3c.5-1 1.3-1.3 2.2-1.3c1.1 0 2.2.8 2.2 2.5c-.01.01 0 4.2 0 4.2l-1.3 0c0 0 .04-4.06 0-4.1c0-.8-.4-1.4-1.3-1.4c-.9 0-1.5.7-1.5 1.6c-.04-.01 0 3.9 0 3.9l-1.3 0c0 0 0-4.06 0-4.1c0-.8-.4-1.4-1.4-1.4c-.9 0-1.5.6-1.5 1.6c.01.01 0 3.9 0 3.9l-1.2 0zm11.5 0l0-6.5l1.3 0l0 6.5l-1.3 0zm.6-9.8c.6 0 1 .4 1 .9c0 .5-.4.9-1 .9c-.5 0-.9-.4-.9-.9c0-.5.4-.9.9-.9zm3.4 7.7c.1.7.6 1.2 1.5 1.2c.7 0 1.1-.4 1.1-.8c0-.4-.3-.7-.8-.9c0 0-1.1-.2-1.1-.2c-1.1-.2-1.7-.9-1.7-1.8c0-1.1 1.1-2.1 2.3-2.1c1.8 0 2.4 1.2 2.5 1.8c0 0-1.1.4-1.1.4c-.1-.4-.3-1.1-1.4-1.1c-.6 0-1 .4-1 .9c0 .4.2.6.7.8c0 0 1.1.2 1.1.2c1.1.2 1.7 1 1.7 1.9c0 .9-.7 2-2.3 2c-1.8 0-2.6-1.1-2.7-1.9c0 0 1.2-.4 1.2-.4zm6.1 0c.1.7.6 1.2 1.5 1.2c.7 0 1.1-.4 1.1-.8c0-.4-.3-.7-.8-.9c0 0-1.1-.2-1.1-.2c-1.1-.2-1.7-.9-1.7-1.8c0-1.1 1.1-2.1 2.3-2.1c1.8 0 2.4 1.2 2.5 1.8c0 0-1.1.4-1.1.4c-.1-.4-.3-1.1-1.4-1.1c-.6 0-1 .4-1 .9c0 .4.2.6.7.8c0 0 1.1.2 1.1.2c1.1.2 1.8 1 1.8 1.9c0 .9-.8 2-2.4 2c-1.8 0-2.6-1.1-2.7-1.9c0 0 1.2-.4 1.2-.4zm5.5 2.1l0-6.5l1.3 0l0 6.5l-1.3 0zm.7-9.8c.5 0 .9.4.9.9c0 .5-.4.9-.9.9c-.5 0-.9-.4-.9-.9c0-.5.4-.9.9-.9zm7.6 6.6c0-1.5-1-2.3-2.1-2.3c-1 0-2 .8-2 2.3c0 1.5 1 2.3 2 2.3c1.1 0 2.1-.8 2.1-2.3zm1.3 0c0 2-1.4 3.4-3.4 3.4c-1.9 0-3.3-1.4-3.3-3.4c0-2 1.4-3.5 3.3-3.5c2 0 3.4 1.5 3.4 3.5zm2.8 3.2l-1.2 0l0-6.5l1.2 0c0 0 .02.96 0 1c.5-.9 1.3-1.2 2-1.2c1.6 0 2.3 1.2 2.3 2.6c.04 0 0 4.1 0 4.1l-1.2 0c0 0-.03-3.88 0-3.9c0-.9-.4-1.6-1.5-1.6c-1 0-1.6.8-1.6 1.8c.05-.03 0 3.7 0 3.7zm9.2-5.7c0-.2 0-.3 0-.4c0-1.5 1.1-2.8 3-2.8c1.9 0 3 1.2 3 2.7c0 1.1-.6 2-1.6 2.7c0 0-1.8 1.1-1.8 1.1c-.5.3-.9.7-1 1.2c-.04-.01 4.5 0 4.5 0l0 1.2c0 0-6.17.02-6.2 0c.1-1.4.6-2.5 2.1-3.5c0 0 1.5-.9 1.5-.9c.8-.5 1.2-1.2 1.2-1.8c0-.8-.6-1.6-1.7-1.6c-1.1 0-1.7.8-1.7 1.8c0 .1 0 .3.1.4c0 0-1.4-.1-1.4-.1zm9.4 4.2c.3.3.7.6 1.3.6c.7 0 1.1-.3 1.4-.6c.6-.6.8-1.5.8-2.9c0-1.3-.2-2.2-.8-2.8c-.3-.3-.7-.6-1.4-.6c-.6 0-1 .3-1.3.6c-.6.6-.8 1.5-.8 2.8c0 1.4.2 2.3.8 2.9zm-1.3-6c.5-.9 1.4-1.4 2.6-1.4c1.3 0 2.2.5 2.7 1.4c.6.8.8 1.9.8 3.1c0 1.2-.2 2.4-.8 3.2c-.5.9-1.4 1.4-2.7 1.4c-1.2 0-2.1-.5-2.6-1.4c-.6-.8-.8-2-.8-3.2c0-1.2.2-2.3.8-3.1zm7.4 1.8c0-.2 0-.3 0-.4c0-1.5 1.1-2.8 3-2.8c1.9 0 2.9 1.2 2.9 2.7c0 1.1-.6 2-1.6 2.7c0 0-1.7 1.1-1.7 1.1c-.5.3-1 .7-1.1 1.2c-.01-.01 4.5 0 4.5 0l0 1.2c0 0-6.14.02-6.1 0c0-1.4.6-2.5 2-3.5c0 0 1.5-.9 1.5-.9c.8-.5 1.2-1.2 1.2-1.8c0-.8-.5-1.6-1.6-1.6c-1.2 0-1.7.8-1.7 1.8c0 .1 0 .3 0 .4c0 0-1.3-.1-1.3-.1zm8.3 3c.1 1 .9 1.8 1.9 1.8c1.1 0 1.9-.7 1.9-1.8c0-1.2-.9-1.8-1.9-1.8c-.6 0-1.2.2-1.6.6c-.4-.1-.8-.3-1.3-.5c.04.02 1.2-4.3 1.2-4.3l4.6 0l0 1.2l-3.7 0c0 0-.7 2.5-.7 2.5c.4-.4 1.1-.6 1.8-.6c1.7 0 3 1 3 2.9c0 1.6-1.3 2.9-3.3 2.9c-1.8 0-3.1-1.2-3.2-2.6c0 0 1.3-.3 1.3-.3z" stroke="none" fill="#144542"/></g><g id="Polygon160412"><path d="m5.4 10.9l-3.6-5.4l0 5.4l-.9 0l0-6.7l1.2 0l3.3 5.2l0-5.2l1 0l0 6.7l-1 0zm6.9-.7c1.3 0 2.5-.9 2.5-2.6c0-1.8-1.2-2.7-2.5-2.7c-1.2 0-2.4.9-2.4 2.7c0 1.7 1.2 2.6 2.4 2.6zm0-6.1c1.7 0 3.4 1.2 3.4 3.5c0 2.2-1.7 3.5-3.4 3.5c-1.6 0-3.3-1.3-3.3-3.5c0-2.3 1.7-3.5 3.3-3.5zm8.2 1l0 5.8l-.9 0l0-5.8l-2.2 0l0-.9l5.4 0l0 .9l-2.3 0zm6.5 3.1l-1 0l0 2.7l-1 0l0-6.7c0 0 2.57.02 2.6 0c1.2 0 2 .9 2 2c0 1-.6 1.7-1.6 1.9c0 .01 1.6 2.8 1.6 2.8l-1.1 0l-1.5-2.7zm.4-.9c.8 0 1.3-.4 1.3-1.1c0-.7-.5-1.1-1.3-1.1c0-.04-1.4 0-1.4 0l0 2.2c0 0 1.4.05 1.4 0zm4.8 3.6l0-6.7l4.1 0l0 .9l-3.1 0l0 2l2.8 0l0 .9l-2.8 0l0 2.1l3.1 0l0 .8l-4.1 0zm11.6 0l0-6.7l4.1 0l0 .9l-3.2 0l0 2l2.9 0l0 .9l-2.9 0l0 2.1l3.2 0l0 .8l-4.1 0zm11.4 0l-3.6-5.4l0 5.4l-.9 0l0-6.7l1.2 0l3.3 5.2l0-5.2l1 0l0 6.7l-1 0zm9.1 0c0 0-.11-.93-.1-.9c-.3.5-1 1.1-2.2 1.1c-1.6 0-3.2-1.3-3.2-3.5c0-2.3 1.6-3.5 3.3-3.5c1.5 0 2.6.8 3 2c0 0-.9.4-.9.4c-.3-1-1.1-1.6-2.1-1.6c-1.2 0-2.4.9-2.4 2.7c0 1.7 1.2 2.6 2.4 2.6c1.5 0 2-1 2-1.7c.04-.02-2.3 0-2.3 0l0-.9l3.2 0l0 3.3l-.7 0zm7.4-1.8l-3 0l-.7 1.8l-1 0l2.7-6.7l1.1 0l2.6 6.7l-1 0l-.7-1.8zm-2.6-.9l2.3 0l-1.2-3l-1.1 3zm11.5 2.7c0 0-.13-.93-.1-.9c-.3.5-1.1 1.1-2.2 1.1c-1.7 0-3.2-1.3-3.2-3.5c0-2.3 1.6-3.5 3.3-3.5c1.4 0 2.6.8 3 2c0 0-.9.4-.9.4c-.3-1-1.1-1.6-2.1-1.6c-1.2 0-2.4.9-2.4 2.7c0 1.7 1.1 2.6 2.3 2.6c1.5 0 2.1-1 2.1-1.7c.02-.02-2.3 0-2.3 0l0-.9l3.2 0l0 3.3l-.7 0zm3.5 0l0-6.7l4 0l0 .9l-3.1 0l0 2l2.9 0l0 .9l-2.9 0l0 2.1l3.1 0l0 .8l-4 0zm13.1 0l0-5.2l-2.3 5.2l-.8 0l-2.3-5.2l0 5.2l-.9 0l0-6.7l1.3 0l2.3 5.5l2.4-5.5l1.2 0l0 6.7l-.9 0zm4 0l0-6.7l4.1 0l0 .9l-3.2 0l0 2l2.9 0l0 .9l-2.9 0l0 2.1l3.2 0l0 .8l-4.1 0zm11.4 0l-3.6-5.4l0 5.4l-1 0l0-6.7l1.3 0l3.3 5.2l0-5.2l.9 0l0 6.7l-.9 0zm6.4-5.8l0 5.8l-.9 0l0-5.8l-2.3 0l0-.9l5.5 0l0 .9l-2.3 0z" stroke="none" fill="#144542"/></g></svg>