<?xml version="1.0" standalone="no"?><!DOCTYPE svg PUBLIC "-//W3C//DTD SVG 1.1//EN" "http://www.w3.org/Graphics/SVG/1.1/DTD/svg11.dtd"><svg xmlns="http://www.w3.org/2000/svg" version="1.1" width="111.2px" height="84.8px" viewBox="0 -12 111.2 84.8" style="top:-12px"><desc>92 %</desc><defs/><g id="Polygon178163"><path d="m40.2 26.6c0 11.2-8.2 20.3-21.6 21.3c0 0-.1-.8-.1-.8c7.2-1.4 12.8-9.1 13.7-14.9c-1.8 2.1-3.9 3-7.1 3c-5.6 0-9.6-5.8-9.6-11.6c0-7 4-12.2 12.2-12.2c9.1 0 12.5 7.9 12.5 15.2zm-8.4-2.9c0-5.8-1.3-11.1-4.9-11.1c-3.2 0-3 7.1-3 9.5c0 4.9 1.5 11.2 4.5 11.2c3.3 0 3.4-5.1 3.4-9.6zm35.5 2.9c0 0-2.86 10.57-2.9 10.6c-1.2-.5-2.3-.7-6.7-.7c-.02-.01-16.6 0-16.6 0c0 0 12.66-11.62 12.7-11.6c1.7-1.6 3.6-4.3 3.6-7.1c0-2.9-1.7-5.4-4.7-5.4c-2.2 0-4.1 1.1-4.1 3c0 2.2 2.1 2.7 2.1 4.9c0 1.8-1.4 3.2-3.3 3.2c-2.6 0-4.4-1.8-4.4-4.4c0-3.5 3.4-7.7 10.6-7.7c6.8 0 10.7 2.2 10.7 6.9c0 3.9-1.6 7.4-12.8 11.3c0 0 8 0 8 0c4.2 0 6.1-1.6 6.7-3c-.05.04 1.1 0 1.1 0zm7.1-21.8c0-3.2 2.1-5.6 5.1-5.6c3 0 5.1 2.4 5.1 5.6c0 3.3-2.1 5.6-5.1 5.6c-3 0-5.1-2.3-5.1-5.6zm7.7 9.6l5.6-8.9l3.5-5.9l1.3 0l-4.2 6.2l-5.7 8.9l-3.2 5.5l-1.3 0l4-5.8zm-1-9.6c0-3-.2-4.9-1.6-4.9c-1.4 0-1.6 1.9-1.6 4.9c0 3 .2 5 1.6 5c1.4 0 1.6-2 1.6-5zm5.1 10.2c0-3.3 2.1-5.6 5.1-5.6c3 0 5.1 2.3 5.1 5.6c0 3.2-2.1 5.5-5.1 5.5c-3 0-5.1-2.3-5.1-5.5zm6.7 0c0-3.1-.2-5-1.6-5c-1.4 0-1.6 1.9-1.6 5c0 3 .2 4.9 1.6 4.9c1.4 0 1.6-1.9 1.6-4.9z" stroke="none" fill="#144542"/></g></svg>