<?xml version="1.0" standalone="no"?><!DOCTYPE svg PUBLIC "-//W3C//DTD SVG 1.1//EN" "http://www.w3.org/Graphics/SVG/1.1/DTD/svg11.dtd"><svg xmlns="http://www.w3.org/2000/svg" version="1.1" width="115.3px" height="14.7px" viewBox="0 -2 115.3 14.7" style="top:-2px"><desc>Rapport d’impact 2025</desc><defs/><g id="Polygon164309"><path d="m25.4 4.7l-1 0l0 2.6l-.9 0l0-6.4c0 0 2.42 0 2.4 0c1.2 0 2 .8 2 1.9c0 .9-.6 1.6-1.6 1.8c.03.01 1.5 2.7 1.5 2.7l-1 0l-1.4-2.6zm.4-.8c.7 0 1.2-.4 1.2-1.1c0-.7-.5-1.1-1.2-1.1c-.04-.01-1.4 0-1.4 0l0 2.2c0 0 1.36-.02 1.4 0zm2.9 2.2c0-.8.5-1.2 1.3-1.3c0 0 1.2-.2 1.2-.2c.2 0 .3-.1.3-.3c0-.4-.3-.8-.9-.8c-.6 0-1 .4-1 .9c0 0-.8-.2-.8-.2c.1-.8.8-1.4 1.7-1.4c1.3 0 1.8.8 1.8 1.6c0 0 0 2.2 0 2.2c0 .4.1.6.1.7c0 0-.8 0-.8 0c0-.1-.1-.3-.1-.6c-.2.3-.6.7-1.4.7c-.9 0-1.4-.6-1.4-1.3c0 0 0 0 0 0zm2.8-.7c0 .03 0-.2 0-.2c0 0-1.32.23-1.3.2c-.4.1-.7.3-.7.7c0 .3.3.6.7.6c.7 0 1.3-.3 1.3-1.3zm2.2 3.6l0-6l.8 0c0 0-.02.63 0 .6c.2-.4.7-.7 1.4-.7c1.3 0 2 1 2 2.2c0 1.3-.7 2.3-2 2.3c-.7 0-1.2-.3-1.4-.7c0 0 0 2.3 0 2.3l-.8 0zm3.4-3.9c0-.9-.5-1.5-1.3-1.5c-.8 0-1.3.6-1.3 1.5c0 .9.5 1.5 1.3 1.5c.8 0 1.3-.6 1.3-1.5c0 0 0 0 0 0zm1.9 3.9l0-6l.8 0c0 0 .02.63 0 .6c.2-.4.8-.7 1.5-.7c1.3 0 2 1 2 2.2c0 1.3-.8 2.3-2.1 2.3c-.6 0-1.1-.3-1.4-.7c.03 0 0 2.3 0 2.3l-.8 0zm3.4-3.9c0-.9-.5-1.5-1.3-1.5c-.8 0-1.3.6-1.3 1.5c0 .9.5 1.5 1.3 1.5c.8 0 1.3-.6 1.3-1.5c0 0 0 0 0 0zm5.1 0c0-1-.6-1.5-1.3-1.5c-.7 0-1.4.5-1.4 1.5c0 1 .7 1.6 1.4 1.6c.7 0 1.3-.6 1.3-1.6zm.9 0c0 1.3-.9 2.3-2.2 2.3c-1.3 0-2.2-1-2.2-2.3c0-1.3.9-2.3 2.2-2.3c1.3 0 2.2 1 2.2 2.3zm3.5-1.3c-.1 0-.3 0-.4 0c-.7 0-1.2.4-1.2 1.3c.03.01 0 2.2 0 2.2l-.8 0l0-4.3l.8 0c0 0 .01.71 0 .7c.3-.7.9-.8 1.3-.8c.1 0 .2 0 .3 0c0 0 0 .9 0 .9zm2.2-.8l1 0l0 .7l-1 0c0 0 .04 2.27 0 2.3c0 .4.2.6.6.6c.2 0 .3-.1.4-.1c0 0 0 .7 0 .7c-.1.1-.3.1-.6.1c-.7 0-1.2-.4-1.2-1.2c0-.01 0-2.4 0-2.4l-.8 0l0-.7c0 0 .2-.05.2 0c.5 0 .7-.3.7-.7c-.03-.01 0-.7 0-.7l.7 0l0 1.4zm6.1 3.7c.8 0 1.3-.7 1.3-1.6c0-.9-.5-1.5-1.3-1.5c-.7 0-1.2.6-1.2 1.5c0 .9.4 1.6 1.2 1.6zm1.3-.1c-.2.4-.7.8-1.4.8c-1.2 0-2-1-2-2.3c0-1.2.8-2.3 2-2.3c.8 0 1.2.4 1.4.8c-.03-.04 0-2.8 0-2.8l.8 0c0 0 .01 5.68 0 5.7c0 .4 0 .7.1.8c0 0-.9 0-.9 0c0-.1 0-.3 0-.6c0 0 0-.1 0-.1zm2.5-5.8c.4 0 .7.3.7.8c0 1.1-.7 1.6-1.3 1.6c0 0 0-.4 0-.4c.4-.1.7-.5.7-.9c0 0-.1.1-.1.1c-.4 0-.6-.3-.6-.6c0-.3.2-.6.6-.6zm1.8 6.5l0-4.3l.8 0l0 4.3l-.8 0zm.4-6.6c.3 0 .6.3.6.6c0 .3-.3.6-.6.6c-.4 0-.6-.3-.6-.6c0-.3.2-.6.6-.6zm1.8 6.6l0-4.3l.8 0c0 0 .05.53 0 .5c.3-.4.9-.7 1.4-.7c.5 0 1 .3 1.3.8c.3-.6.9-.8 1.4-.8c.8 0 1.5.5 1.5 1.7c0-.03 0 2.8 0 2.8l-.8 0c0 0-.03-2.74 0-2.7c0-.6-.3-1-1-1c-.5 0-1 .4-1 1.1c.05-.04 0 2.6 0 2.6l-.8 0c0 0 0-2.74 0-2.7c0-.6-.3-1-.9-1c-.6 0-1 .4-1 1.1c-.02-.03 0 2.6 0 2.6l-.9 0zm7.8 1.7l0-6l.8 0c0 0-.03.63 0 .6c.2-.4.7-.7 1.4-.7c1.3 0 2 1 2 2.2c0 1.3-.7 2.3-2 2.3c-.7 0-1.2-.3-1.4-.7c-.01 0 0 2.3 0 2.3l-.8 0zm3.3-3.9c0-.9-.4-1.5-1.2-1.5c-.8 0-1.3.6-1.3 1.5c0 .9.5 1.5 1.3 1.5c.8 0 1.2-.6 1.2-1.5c0 0 0 0 0 0zm1.7 1c0-.8.6-1.2 1.3-1.3c0 0 1.2-.2 1.2-.2c.3 0 .3-.1.3-.3c0-.4-.2-.8-.9-.8c-.6 0-.9.4-1 .9c0 0-.8-.2-.8-.2c.1-.8.8-1.4 1.8-1.4c1.3 0 1.8.8 1.8 1.6c0 0 0 2.2 0 2.2c0 .4 0 .6 0 .7c0 0-.8 0-.8 0c0-.1 0-.3 0-.6c-.2.3-.7.7-1.4.7c-.9 0-1.5-.6-1.5-1.3c0 0 0 0 0 0zm2.8-.7c.04.03 0-.2 0-.2c0 0-1.29.23-1.3.2c-.3.1-.6.3-.6.7c0 .3.3.6.7.6c.7 0 1.2-.3 1.2-1.3zm2.7-.3c0 1 .6 1.5 1.3 1.5c.8 0 1.1-.5 1.2-.9c0 0 .8.4.8.4c-.2.6-.9 1.3-2 1.3c-1.2 0-2.2-1-2.2-2.3c0-1.3 1-2.3 2.2-2.3c1.2 0 1.8.7 1.9 1.4c0 0-.7.3-.7.3c-.1-.4-.4-.9-1.2-.9c-.7 0-1.3.5-1.3 1.5zm5.4-2.1l.9 0l0 .7l-.9 0c0 0 0 2.27 0 2.3c0 .4.2.6.6.6c.1 0 .3-.1.3-.1c0 0 0 .7 0 .7c0 .1-.3.1-.5.1c-.8 0-1.2-.4-1.2-1.2c-.05-.01 0-2.4 0-2.4l-.9 0l0-.7c0 0 .26-.05.3 0c.4 0 .6-.3.6-.7c.03-.01 0-.7 0-.7l.8 0l0 1.4zm4 .4c0 0 0-.1 0-.2c0-1 .7-1.9 2-1.9c1.2 0 2 .8 2 1.8c0 .8-.5 1.4-1.1 1.8c0 0-1.2.7-1.2.7c-.3.3-.6.5-.7.9c-.01-.04 3 0 3 0l0 .8c0 0-4.09-.02-4.1 0c0-1 .4-1.7 1.4-2.3c0 0 1-.7 1-.7c.5-.3.8-.7.8-1.2c0-.5-.4-1-1.1-1c-.8 0-1.2.5-1.2 1.2c0 .1.1.2.1.2c0 0-.9-.1-.9-.1zm6.2 2.9c.2.2.5.3.9.3c.4 0 .7-.1.9-.3c.4-.4.6-1 .6-1.9c0-.9-.2-1.6-.6-1.9c-.2-.3-.5-.4-.9-.4c-.4 0-.7.1-.9.4c-.4.3-.5 1-.5 1.9c0 .9.1 1.5.5 1.9zm-.9-4.1c.4-.5 1-.9 1.8-.9c.8 0 1.4.4 1.8.9c.4.6.5 1.4.5 2.2c0 .8-.1 1.5-.5 2.1c-.4.5-1 .9-1.8.9c-.8 0-1.4-.4-1.8-.9c-.4-.6-.5-1.3-.5-2.1c0-.8.1-1.6.5-2.2zm5 1.2c0 0 0-.1 0-.2c0-1 .7-1.9 2-1.9c1.2 0 1.9.8 1.9 1.8c0 .8-.4 1.4-1.1 1.8c0 0-1.1.7-1.1.7c-.3.3-.6.5-.7.9c-.02-.04 3 0 3 0l0 .8c0 0-4.11-.02-4.1 0c0-1 .4-1.7 1.4-2.3c0 0 1-.7 1-.7c.5-.3.8-.7.8-1.2c0-.5-.4-1-1.1-1c-.8 0-1.2.5-1.2 1.2c0 .1 0 .2 0 .2c0 0-.8-.1-.8-.1zm5.5 2c.1.8.6 1.3 1.3 1.3c.7 0 1.3-.5 1.3-1.2c0-.8-.6-1.2-1.3-1.2c-.4 0-.8.1-1.1.4c-.3-.1-.5-.2-.8-.4c-.02.05.7-2.9.7-2.9l3.1 0l0 .9l-2.5 0c0 0-.41 1.63-.4 1.6c.2-.3.7-.4 1.2-.4c1.1 0 2 .7 2 1.9c0 1.1-.9 2-2.2 2c-1.2 0-2.1-.8-2.1-1.7c0 0 .8-.3.8-.3z" stroke="none" fill="#fff"/></g></svg>