<?xml version="1.0" standalone="no"?><!DOCTYPE svg PUBLIC "-//W3C//DTD SVG 1.1//EN" "http://www.w3.org/Graphics/SVG/1.1/DTD/svg11.dtd"><svg xmlns="http://www.w3.org/2000/svg" version="1.1" width="130px" height="26.6px" viewBox="0 -3 130 26.6" style="top:-3px"><desc>d penses publiques</desc><defs/><g id="Polygon179236"><path d="m17.6 10.1c1.2 0 2.2-.8 2.2-2.5c0-1.7-1-2.6-2.2-2.6c-.03.05-1.4 0-1.4 0l0 5.1c0 0 1.35 0 1.4 0zm-2.3.8l0-6.7c0 0 2.3.03 2.3 0c1.7 0 3.2 1.2 3.2 3.4c0 2.2-1.5 3.3-3.2 3.3c-.02.02-2.3 0-2.3 0zm6.8 0l0-6.7l4 0l0 .9l-3.1 0l0 2l2.8 0l0 .9l-2.8 0l0 2.1l3.1 0l0 .8l-4 0zm2.2-7.1l-.9 0l1-1.2l1.2 0l-1.3 1.2zm5.5 3.5c.8 0 1.3-.4 1.3-1.1c0-.7-.5-1.1-1.3-1.1c.02-.04-1.3 0-1.3 0l0 2.2c0 0 1.32.05 1.3 0zm-1.3.9l0 2.7l-.9 0l0-6.7c0 0 2.39.02 2.4 0c1.2 0 2.1.9 2.1 2c0 1.1-.9 2-2.1 2c-.01-.02-1.5 0-1.5 0zm4.7 2.7l0-6.7l4.1 0l0 .9l-3.2 0l0 2l2.9 0l0 .9l-2.9 0l0 2.1l3.2 0l0 .8l-4.1 0zm10 0l-3.6-5.4l0 5.4l-.9 0l0-6.7l1.2 0l3.4 5.2l0-5.2l.9 0l0 6.7l-1 0zm6.1-4.9c0-.4-.4-1.1-1.4-1.1c-.7 0-1.3.5-1.3 1.1c0 .5.3.9.9 1c0 0 1 .2 1 .2c1.1.2 1.7.9 1.7 1.9c0 1-.9 2-2.3 2c-1.6 0-2.4-1.1-2.5-2c0 0 .9-.3.9-.3c.1.7.6 1.4 1.6 1.4c.9 0 1.4-.5 1.4-1c0-.5-.4-.9-1-1.1c0 0-1-.2-1-.2c-.9-.2-1.6-.8-1.6-1.8c0-1.1 1-2 2.2-2c1.5 0 2.1.9 2.3 1.6c0 0-.9.3-.9.3zm2.2 4.9l0-6.7l4.1 0l0 .9l-3.2 0l0 2l2.9 0l0 .9l-2.9 0l0 2.1l3.2 0l0 .8l-4.1 0zm8.9-4.9c0-.4-.5-1.1-1.4-1.1c-.7 0-1.3.5-1.3 1.1c0 .5.3.9.9 1c0 0 1 .2 1 .2c1.1.2 1.7.9 1.7 1.9c0 1-.9 2-2.3 2c-1.6 0-2.4-1.1-2.5-2c0 0 .9-.3.9-.3c0 .7.6 1.4 1.6 1.4c.9 0 1.4-.5 1.4-1c0-.5-.4-.9-1-1.1c0 0-1-.2-1-.2c-.9-.2-1.6-.8-1.6-1.8c0-1.1 1-2 2.2-2c1.5 0 2.1.9 2.3 1.6c0 0-.9.3-.9.3zm7.8 1.3c.8 0 1.3-.4 1.3-1.1c0-.7-.5-1.1-1.3-1.1c.03-.04-1.3 0-1.3 0l0 2.2c0 0 1.33.05 1.3 0zm-1.3.9l0 2.7l-.9 0l0-6.7c0 0 2.4.02 2.4 0c1.2 0 2.1.9 2.1 2c0 1.1-.9 2-2.1 2c0-.02-1.5 0-1.5 0zm4.6.4c-.04.03 0-4.4 0-4.4l.9 0c0 0-.02 4.4 0 4.4c0 1 .5 1.6 1.5 1.6c.9 0 1.5-.6 1.5-1.6c-.05 0 0-4.4 0-4.4l.9 0c0 0-.02 4.43 0 4.4c0 1.6-1.1 2.5-2.4 2.5c-1.4 0-2.4-.9-2.4-2.5zm8.6-4.4c1.2 0 2 .8 2 1.8c0 .8-.4 1.3-1 1.5c.8.2 1.2.9 1.2 1.6c0 1.1-.8 1.8-2.1 1.8c.04.02-2.3 0-2.3 0l0-6.7c0 0 2.17.03 2.2 0zm-.1 3c.7 0 1.2-.5 1.2-1.1c0-.6-.5-1.1-1.3-1.1c.03.04-1.1 0-1.1 0l0 2.2c0 0 1.17-.04 1.2 0zm.1 2.9c.8 0 1.3-.4 1.3-1.1c0-.6-.4-1-1.3-1c.04-.05-1.3 0-1.3 0l0 2.1c0 0 1.3.01 1.3 0zm3.5.8l0-6.7l.9 0l0 5.9l3.2 0l0 .8l-4.1 0zm5.2 0l0-6.7l.9 0l0 6.7l-.9 0zm5.5-6.8c1.7 0 3.4 1.2 3.4 3.5c0 1-.4 1.9-.9 2.4c-.04.04.7.9.7.9l-.6.6c0 0-.8-.93-.8-.9c-.5.3-1.1.5-1.8.5c-1.6 0-3.3-1.3-3.3-3.5c0-2.3 1.7-3.5 3.3-3.5zm0 6.1c.5 0 .9-.1 1.2-.3c.01.01-1.2-1.3-1.2-1.3l.7-.5c0 0 1.17 1.28 1.2 1.3c.3-.5.6-1.1.6-1.8c0-1.8-1.2-2.7-2.5-2.7c-1.2 0-2.4.9-2.4 2.7c0 1.7 1.2 2.6 2.4 2.6zm4.6-1.6c-.01.03 0-4.4 0-4.4l.9 0c0 0 0 4.4 0 4.4c0 1 .6 1.6 1.5 1.6c.9 0 1.5-.6 1.5-1.6c-.02 0 0-4.4 0-4.4l.9 0c0 0 0 4.43 0 4.4c0 1.6-1 2.5-2.4 2.5c-1.4 0-2.4-.9-2.4-2.5zm6.4 2.3l0-6.7l4.1 0l0 .9l-3.2 0l0 2l2.9 0l0 .9l-2.9 0l0 2.1l3.2 0l0 .8l-4.1 0zm8.9-4.9c0-.4-.4-1.1-1.4-1.1c-.7 0-1.3.5-1.3 1.1c0 .5.3.9.9 1c0 0 1 .2 1 .2c1.1.2 1.7.9 1.7 1.9c0 1-.9 2-2.3 2c-1.6 0-2.4-1.1-2.5-2c0 0 .9-.3.9-.3c.1.7.6 1.4 1.6 1.4c.9 0 1.4-.5 1.4-1c0-.5-.3-.9-1-1.1c0 0-1-.2-1-.2c-.9-.2-1.6-.8-1.6-1.8c0-1.1 1-2 2.2-2c1.5 0 2.1.9 2.3 1.6c0 0-.9.3-.9.3z" stroke="none" fill="#fff"/></g></svg>