<?xml version="1.0" standalone="no"?><!DOCTYPE svg PUBLIC "-//W3C//DTD SVG 1.1//EN" "http://www.w3.org/Graphics/SVG/1.1/DTD/svg11.dtd"><svg xmlns="http://www.w3.org/2000/svg" version="1.1" width="143.5px" height="26.2px" viewBox="0 -4 143.5 26.2" style="top:-4px"><desc>Remise en emploi</desc><defs/><g id="Polygon164036"><path d="m5 9l-1.5 0l0 4.8l-2.1 0l0-12.1c0 0 4.67 0 4.7 0c2.3 0 3.7 1.6 3.7 3.7c0 1.7-1 3-2.7 3.4c.02-.01 2.7 5 2.7 5l-2.3 0l-2.5-4.8zm.7-1.8c1.3 0 2.1-.7 2.1-1.8c0-1.2-.8-1.9-2.1-1.9c0 0-2.2 0-2.2 0l0 3.7c0 0 2.2-.01 2.2 0zm11.3 1.5c0-1-.7-1.8-2-1.8c-1.3 0-2 .9-2.1 1.8c0 0 4.1 0 4.1 0zm1.9 2.7c-.5 1.4-1.8 2.6-3.8 2.6c-2.2 0-4.2-1.6-4.2-4.4c0-2.6 2-4.4 4-4.4c2.6 0 4.1 1.7 4.1 4.3c0 .3 0 .6-.1.6c0 0-6 0-6 0c0 1.3 1 2.2 2.2 2.2c1.2 0 1.8-.6 2.1-1.4c0 0 1.7.5 1.7.5zm2 2.4l0-8.3l1.9 0c0 0-.04 1.03 0 1c.4-.8 1.5-1.3 2.4-1.3c1.1 0 2.1.5 2.5 1.5c.6-1.1 1.6-1.5 2.7-1.5c1.5 0 2.9 1 2.9 3.2c0-.02 0 5.4 0 5.4l-1.9 0c0 0 0-5.1 0-5.1c0-1-.5-1.7-1.6-1.7c-1 0-1.7.8-1.7 1.8c-.02.04 0 5 0 5l-2 0c0 0 .05-5.1 0-5.1c0-.9-.4-1.7-1.6-1.7c-1 0-1.7.8-1.7 1.8c.03.04 0 5 0 5l-1.9 0zm14.8 0l0-8.3l2 0l0 8.3l-2 0zm1-12.5c.7 0 1.3.6 1.3 1.3c0 .7-.6 1.2-1.3 1.2c-.7 0-1.3-.5-1.3-1.2c0-.7.6-1.3 1.3-1.3zm4.5 9.7c.1.8.6 1.4 1.7 1.4c.8 0 1.2-.4 1.2-.9c0-.5-.3-.8-.9-.9c0 0-1.3-.3-1.3-.3c-1.4-.3-2.2-1.3-2.2-2.4c0-1.5 1.3-2.7 3.1-2.7c2.3 0 3 1.5 3.2 2.3c0 0-1.7.5-1.7.5c-.1-.5-.4-1.2-1.5-1.2c-.7 0-1.2.4-1.2.9c0 .5.3.8.8.9c0 0 1.3.2 1.3.2c1.5.4 2.3 1.3 2.3 2.6c0 1.2-1 2.6-3.1 2.6c-2.4 0-3.3-1.6-3.4-2.5c0 0 1.7-.5 1.7-.5zm12.2-2.3c-.1-1-.7-1.8-2.1-1.8c-1.2 0-1.9.9-2 1.8c0 0 4.1 0 4.1 0zm1.9 2.7c-.5 1.4-1.8 2.6-3.8 2.6c-2.2 0-4.2-1.6-4.2-4.4c0-2.6 1.9-4.4 4-4.4c2.6 0 4.1 1.7 4.1 4.3c0 .3-.1.6-.1.6c0 0-6 0-6 0c0 1.3 1 2.2 2.2 2.2c1.2 0 1.8-.6 2.1-1.4c0 0 1.7.5 1.7.5zm11.6-2.7c0-1-.7-1.8-2-1.8c-1.3 0-2 .9-2.1 1.8c0 0 4.1 0 4.1 0zm1.9 2.7c-.4 1.4-1.8 2.6-3.7 2.6c-2.3 0-4.3-1.6-4.3-4.4c0-2.6 2-4.4 4.1-4.4c2.5 0 4 1.7 4 4.3c0 .3 0 .6-.1.6c0 0-6 0-6 0c0 1.3 1 2.2 2.3 2.2c1.1 0 1.8-.6 2-1.4c0 0 1.7.5 1.7.5zm4 2.4l-2 0l0-8.3l1.9 0c0 0 .01 1.08 0 1.1c.6-1 1.5-1.4 2.5-1.4c2 0 2.9 1.5 2.9 3.3c.05.02 0 5.3 0 5.3l-1.9 0c0 0-.02-4.94 0-4.9c0-1.1-.5-1.9-1.7-1.9c-1.1 0-1.7.9-1.7 2c-.04-.02 0 4.8 0 4.8zm17.4-5.1c0-1-.7-1.8-2-1.8c-1.3 0-2 .9-2.1 1.8c0 0 4.1 0 4.1 0zm1.9 2.7c-.5 1.4-1.8 2.6-3.8 2.6c-2.2 0-4.2-1.6-4.2-4.4c0-2.6 2-4.4 4-4.4c2.6 0 4.1 1.7 4.1 4.3c0 .3 0 .6-.1.6c0 0-6 0-6 0c0 1.3 1 2.2 2.2 2.2c1.2 0 1.8-.6 2.1-1.4c0 0 1.7.5 1.7.5zm2 2.4l0-8.3l1.9 0c0 0-.04 1.03 0 1c.4-.8 1.5-1.3 2.4-1.3c1.1 0 2.1.5 2.5 1.5c.6-1.1 1.6-1.5 2.7-1.5c1.5 0 2.9 1 2.9 3.2c0-.02 0 5.4 0 5.4l-1.9 0c0 0 0-5.1 0-5.1c0-1-.5-1.7-1.6-1.7c-1 0-1.7.8-1.7 1.8c-.02.04 0 5 0 5l-2 0c0 0 .05-5.1 0-5.1c0-.9-.4-1.7-1.6-1.7c-1 0-1.7.8-1.7 1.8c.03.04 0 5 0 5l-1.9 0zm14.8 3.2l0-11.5l1.9 0c0 0 .02 1.1 0 1.1c.4-.7 1.4-1.3 2.7-1.3c2.4 0 3.8 1.9 3.8 4.3c0 2.5-1.5 4.4-3.9 4.4c-1.2 0-2.1-.6-2.5-1.2c-.03.02 0 4.2 0 4.2l-2 0zm4.2-10c-1.3 0-2.2 1.1-2.2 2.6c0 1.6.9 2.6 2.2 2.6c1.3 0 2.2-1 2.2-2.6c0-1.5-.9-2.6-2.2-2.6zm6.1 6.8l0-12.4l2 0l0 12.4l-2 0zm10.5-4.2c0-1.7-1.1-2.6-2.4-2.6c-1.2 0-2.3.9-2.3 2.6c0 1.7 1.1 2.6 2.3 2.6c1.3 0 2.4-.9 2.4-2.6zm1.9 0c0 2.6-1.8 4.4-4.3 4.4c-2.4 0-4.2-1.8-4.2-4.4c0-2.5 1.8-4.4 4.2-4.4c2.5 0 4.3 1.9 4.3 4.4zm1.9 4.2l0-8.3l2 0l0 8.3l-2 0zm1-12.5c.7 0 1.3.6 1.3 1.3c0 .7-.6 1.2-1.3 1.2c-.7 0-1.3-.5-1.3-1.2c0-.7.6-1.3 1.3-1.3z" stroke="none" fill="#144542"/></g></svg>