<?xml version="1.0" standalone="no"?><!DOCTYPE svg PUBLIC "-//W3C//DTD SVG 1.1//EN" "http://www.w3.org/Graphics/SVG/1.1/DTD/svg11.dtd"><svg xmlns="http://www.w3.org/2000/svg" version="1.1" width="70.3px" height="30.1px" viewBox="0 -3 70.3 30.1" style="top:-3px"><desc>suivi post programme</desc><defs/><g id="Polygon181777"><path d="m.8 24l0-7.4l1.2 0c0 0 .04.76 0 .8c.3-.5.9-.9 1.7-.9c1.6 0 2.5 1.2 2.5 2.8c0 1.6-1 2.8-2.5 2.8c-.8 0-1.3-.3-1.6-.7c-.02-.03 0 2.6 0 2.6l-1.3 0zm4.1-4.7c0-1-.5-1.7-1.4-1.7c-.8 0-1.4.7-1.4 1.7c0 1 .6 1.7 1.4 1.7c.8 0 1.4-.7 1.4-1.7c0 0 0 0 0 0zm5.6-1.4c-.1 0-.2 0-.4 0c-1 0-1.4.5-1.4 1.5c-.01.03 0 2.6 0 2.6l-1.3 0l0-5.4l1.3 0c0 0-.04.9 0 .9c.2-.6.8-.9 1.5-.9c.2 0 .3 0 .3 0c0 0 0 1.3 0 1.3zm4.9 1.4c0-1.1-.7-1.7-1.5-1.7c-.8 0-1.5.6-1.5 1.7c0 1.1.7 1.7 1.5 1.7c.8 0 1.5-.6 1.5-1.7zm1.3 0c0 1.6-1.2 2.8-2.8 2.8c-1.6 0-2.8-1.2-2.8-2.8c0-1.6 1.2-2.8 2.8-2.8c1.6 0 2.8 1.2 2.8 2.8zm2 2.7c.1.6.6 1.1 1.3 1.1c1 0 1.5-.5 1.5-1.6c0 0 0-.5 0-.5c-.2.4-.8.7-1.5.7c-1.5 0-2.5-1.1-2.5-2.6c0-1.4 1-2.6 2.5-2.6c.8 0 1.3.4 1.5.8c.04.02 0-.7 0-.7l1.3 0c0 0-.03 4.86 0 4.9c0 1.4-.8 2.7-2.8 2.7c-1.4 0-2.4-.9-2.5-1.9c0 0 1.2-.3 1.2-.3zm2.8-2.9c0-.9-.5-1.5-1.3-1.5c-.8 0-1.4.6-1.4 1.5c0 1 .5 1.5 1.4 1.5c.8 0 1.3-.5 1.3-1.5zm5.9-1.2c-.1 0-.2 0-.4 0c-1 0-1.4.5-1.4 1.5c-.01.03 0 2.6 0 2.6l-1.3 0l0-5.4l1.3 0c0 0-.05.9 0 .9c.2-.6.8-.9 1.5-.9c.1 0 .3 0 .3 0c0 0 0 1.3 0 1.3zm2.4 1c0 0 1.4-.2 1.4-.2c.3 0 .3-.2.3-.4c0-.4-.3-.8-1-.8c-.6 0-1 .4-1.1 1c0 0-1.1-.3-1.1-.3c.1-.9.9-1.7 2.2-1.7c1.7 0 2.3.9 2.3 2c0 0 0 2.6 0 2.6c0 .5 0 .8.1.9c0 0-1.2 0-1.2 0c0-.1-.1-.3-.1-.7c-.2.4-.8.8-1.6.8c-1.1 0-1.8-.7-1.8-1.6c0-.9.7-1.5 1.6-1.6zm1.7.9c.05-.04 0-.3 0-.3c0 0-1.34.23-1.3.2c-.4.1-.8.3-.8.7c0 .4.3.7.8.7c.7 0 1.3-.3 1.3-1.3zm2.8 2.2l0-5.4l1.2 0c0 0 .04.72 0 .7c.3-.5 1-.8 1.6-.8c.7 0 1.3.3 1.6.9c.4-.7 1-.9 1.7-.9c1 0 1.9.6 1.9 2c.02.01 0 3.5 0 3.5l-1.2 0c0 0-.01-3.28 0-3.3c0-.6-.3-1.1-1-1.1c-.7 0-1.1.6-1.1 1.2c-.04.01 0 3.2 0 3.2l-1.3 0c0 0 .01-3.28 0-3.3c0-.6-.3-1.1-1-1.1c-.7 0-1.1.5-1.1 1.2c-.02.01 0 3.2 0 3.2l-1.3 0zm9.6 0l0-5.4l1.2 0c0 0-.02.72 0 .7c.3-.5 1-.8 1.6-.8c.7 0 1.3.3 1.6.9c.4-.7 1-.9 1.7-.9c.9 0 1.9.6 1.9 2c-.04.01 0 3.5 0 3.5l-1.3 0c0 0 .04-3.28 0-3.3c0-.6-.3-1.1-1-1.1c-.7 0-1.1.6-1.1 1.2c.01.01 0 3.2 0 3.2l-1.2 0c0 0-.04-3.28 0-3.3c0-.6-.3-1.1-1.1-1.1c-.6 0-1.1.5-1.1 1.2c.03.01 0 3.2 0 3.2l-1.2 0zm13-3.3c0-.6-.4-1.2-1.3-1.2c-.8 0-1.3.7-1.3 1.2c0 0 2.6 0 2.6 0zm1.2 1.7c-.3 1-1.1 1.7-2.4 1.7c-1.4 0-2.7-1-2.7-2.8c0-1.7 1.2-2.8 2.6-2.8c1.6 0 2.6 1.1 2.6 2.7c0 .3 0 .4 0 .4c0 0-3.9 0-3.9 0c0 .9.6 1.4 1.4 1.4c.8 0 1.2-.4 1.4-.9c0 0 1 .3 1 .3z" stroke="none" fill="#144542"/></g><g id="Polygon181776"><path d="m1.5 7.1c0 .5.4.9 1 .9c.6 0 .8-.3.8-.6c0-.3-.2-.5-.6-.6c0 0-.8-.2-.8-.2c-.9-.2-1.4-.8-1.4-1.5c0-1 .8-1.7 1.9-1.7c1.5 0 2 .9 2.1 1.4c0 0-1.1.3-1.1.3c0-.3-.2-.7-1-.7c-.4 0-.7.2-.7.6c0 .2.2.5.5.5c0 0 .8.2.8.2c1 .2 1.6.8 1.6 1.6c0 .8-.7 1.7-2.1 1.7c-1.5 0-2.1-1-2.1-1.6c0 0 1.1-.3 1.1-.3zm7.7 1.2c-.2.4-.9.7-1.5.7c-1.2 0-2-.9-2-2.1c.01-.02 0-3.4 0-3.4l1.3 0c0 0-.02 3.15 0 3.1c0 .7.3 1.3 1 1.3c.8 0 1.2-.5 1.2-1.2c-.04-.03 0-3.2 0-3.2l1.2 0c0 0 .03 4.37 0 4.4c0 .4.1.7.1.9c0 0-1.2 0-1.2 0c0-.1-.1-.3-.1-.5c0 0 0 0 0 0zm2.9.5l0-5.3l1.2 0l0 5.3l-1.2 0zm.6-8c.5 0 .8.4.8.9c0 .4-.3.8-.8.8c-.5 0-.8-.4-.8-.8c0-.5.3-.9.8-.9zm5 8l-1.3 0l-2.1-5.3l1.4 0l1.4 3.8l1.3-3.8l1.4 0l-2.1 5.3zm3 0l0-5.3l1.3 0l0 5.3l-1.3 0zm.6-8c.5 0 .9.4.9.9c0 .4-.4.8-.9.8c-.4 0-.8-.4-.8-.8c0-.5.4-.9.8-.9zm5 10.1l0-7.4l1.2 0c0 0 .04.74 0 .7c.3-.4.9-.8 1.7-.8c1.6 0 2.5 1.2 2.5 2.8c0 1.6-1 2.8-2.5 2.8c-.8 0-1.3-.4-1.6-.8c-.02.05 0 2.7 0 2.7l-1.3 0zm4.1-4.7c0-1-.5-1.7-1.4-1.7c-.8 0-1.4.7-1.4 1.7c0 1 .6 1.7 1.4 1.7c.8 0 1.4-.7 1.4-1.7c0 0 0 0 0 0zm6.4 0c0-1.1-.7-1.7-1.5-1.7c-.8 0-1.5.6-1.5 1.7c0 1.1.7 1.7 1.5 1.7c.8 0 1.5-.6 1.5-1.7zm1.2 0c0 1.6-1.1 2.8-2.7 2.8c-1.6 0-2.8-1.2-2.8-2.8c0-1.7 1.2-2.8 2.8-2.8c1.6 0 2.7 1.1 2.7 2.8zm1.9.9c0 .5.4.9 1.1.9c.5 0 .8-.3.8-.6c0-.3-.2-.5-.7-.6c0 0-.7-.2-.7-.2c-1-.2-1.5-.8-1.5-1.5c0-1 .9-1.7 2-1.7c1.5 0 2 .9 2 1.4c0 0-1 .3-1 .3c-.1-.3-.3-.7-1-.7c-.5 0-.8.2-.8.6c0 .2.2.5.6.5c0 0 .8.2.8.2c1 .2 1.5.8 1.5 1.6c0 .8-.7 1.7-2 1.7c-1.6 0-2.1-1-2.2-1.6c0 0 1.1-.3 1.1-.3zm6-3.6l1.1 0l0 1.1l-1.1 0c0 0-.04 2.52 0 2.5c0 .5.2.7.6.7c.2 0 .4 0 .5-.1c0 0 0 1.1 0 1.1c-.1 0-.3.1-.8.1c-1 0-1.6-.6-1.6-1.6c0 .03 0-2.7 0-2.7l-1 0l0-1.1c0 0 .29.02.3 0c.6 0 .8-.3.8-.8c.01-.01 0-.8 0-.8l1.2 0l0 1.6zm2 2.7l0-1.1l3.1 0l0 1.1l-3.1 0z" stroke="none" fill="#144542"/></g></svg>