<?xml version="1.0" standalone="no"?><!DOCTYPE svg PUBLIC "-//W3C//DTD SVG 1.1//EN" "http://www.w3.org/Graphics/SVG/1.1/DTD/svg11.dtd"><svg xmlns="http://www.w3.org/2000/svg" version="1.1" width="102px" height="42.8px" viewBox="0 -3 102 42.8" style="top:-3px"><desc>Int gration</desc><defs/><g id="Polygon183185"><path d="m1.2 11.7l0-10.2l1.8 0l0 10.2l-1.8 0zm5.8 0l-1.7 0l0-7l1.7 0c0 0-.04.91 0 .9c.4-.8 1.3-1.1 2-1.1c1.8 0 2.6 1.2 2.6 2.8c0-.04 0 4.4 0 4.4l-1.7 0c0 0 .02-4.15 0-4.1c0-.9-.4-1.6-1.4-1.6c-1 0-1.5.7-1.5 1.7c0-.05 0 4 0 4zm8.8-7l1.4 0l0 1.5l-1.4 0c0 0-.03 3.24 0 3.2c0 .7.3.9.9.9c.2 0 .5 0 .6 0c0 0 0 1.4 0 1.4c-.1 0-.5.1-1.1.1c-1.3 0-2.1-.8-2.1-2.1c.01.02 0-3.5 0-3.5l-1.3 0l0-1.5c0 0 .37-.03.4 0c.7 0 1.1-.5 1.1-1.1c-.05-.03 0-1.1 0-1.1l1.5 0l0 2.2zm6.6-.9l-1.4 0l1.3-2.2l2 0l-1.9 2.2zm1.1 3.6c0-.8-.5-1.5-1.7-1.5c-1.1 0-1.7.8-1.7 1.5c0 0 3.4 0 3.4 0zm1.6 2.3c-.3 1.2-1.4 2.2-3.1 2.2c-2 0-3.7-1.3-3.7-3.7c0-2.3 1.7-3.7 3.5-3.7c2.2 0 3.4 1.4 3.4 3.6c0 .3 0 .5 0 .6c0 0-5.2 0-5.2 0c.1 1 .9 1.8 2 1.8c1 0 1.5-.5 1.7-1.2c0 0 1.4.4 1.4.4zm2.8 2c.1.9.8 1.5 1.8 1.5c1.3 0 2-.6 2-2.1c0 0 0-.7 0-.7c-.4.5-1.1 1-2.1 1c-1.9 0-3.3-1.4-3.3-3.4c0-1.9 1.4-3.5 3.3-3.5c1.1 0 1.8.5 2.1 1.1c0-.03 0-.9 0-.9l1.6 0c0 0 .02 6.36 0 6.4c0 1.8-1 3.6-3.6 3.6c-1.9 0-3.2-1.2-3.4-2.6c0 0 1.6-.4 1.6-.4zm3.8-3.7c0-1.2-.8-2-1.8-2c-1.1 0-1.9.8-1.9 2c0 1.2.8 2 1.9 2c1.1 0 1.8-.8 1.8-2zm7.8-1.7c-.2 0-.4 0-.5 0c-1.3 0-1.9.7-1.9 2.1c-.04-.03 0 3.3 0 3.3l-1.7 0l0-7l1.6 0c0 0 .02 1.1 0 1.1c.4-.8 1.1-1.2 2.1-1.2c.2 0 .3 0 .4 0c0 0 0 1.7 0 1.7zm3.1 1.4c0 0 1.8-.3 1.8-.3c.4 0 .6-.3.6-.5c0-.6-.4-1.1-1.4-1.1c-.9 0-1.3.6-1.4 1.3c0 0-1.6-.3-1.6-.3c.2-1.3 1.3-2.3 3-2.3c2.2 0 3 1.2 3 2.6c0 0 0 3.5 0 3.5c0 .6.1 1.1.1 1.1c0 0-1.6 0-1.6 0c0 0 0-.3 0-.9c-.4.6-1.1 1.1-2.2 1.1c-1.5 0-2.4-1-2.4-2.1c0-1.2.9-1.9 2.1-2.1zm2.4 1.1c-.04 0 0-.3 0-.3c0 0-1.88.26-1.9.3c-.5 0-.9.3-.9.9c0 .5.3.9 1 .9c1 0 1.8-.4 1.8-1.8zm5.7-4.1l1.5 0l0 1.5l-1.5 0c0 0 .05 3.24 0 3.2c0 .7.3.9.9.9c.3 0 .6 0 .6 0c0 0 0 1.4 0 1.4c-.1 0-.4.1-1 .1c-1.3 0-2.1-.8-2.1-2.1c-.02.02 0-3.5 0-3.5l-1.3 0l0-1.5c0 0 .34-.03.3 0c.8 0 1.1-.5 1.1-1.1c.03-.03 0-1.1 0-1.1l1.5 0l0 2.2zm3.2 7l0-7l1.7 0l0 7l-1.7 0zm.9-10.6c.6 0 1.1.5 1.1 1.1c0 .6-.5 1.1-1.1 1.1c-.6 0-1.1-.5-1.1-1.1c0-.6.5-1.1 1.1-1.1zm8.1 7.1c0-1.5-1-2.2-2-2.2c-1 0-2 .7-2 2.2c0 1.5 1 2.2 2 2.2c1 0 2-.7 2-2.2zm1.7 0c0 2.2-1.6 3.7-3.7 3.7c-2.1 0-3.7-1.5-3.7-3.7c0-2.2 1.6-3.7 3.7-3.7c2.1 0 3.7 1.5 3.7 3.7zm3.3 3.5l-1.7 0l0-7l1.6 0c0 0 .01.91 0 .9c.5-.8 1.3-1.1 2.1-1.1c1.7 0 2.6 1.2 2.6 2.8c-.05-.04 0 4.4 0 4.4l-1.7 0c0 0-.03-4.15 0-4.1c0-.9-.4-1.6-1.5-1.6c-.9 0-1.4.7-1.4 1.7c-.04-.05 0 4 0 4z" stroke="none" fill="#144542"/></g></svg>