<?xml version="1.0" standalone="no"?><!DOCTYPE svg PUBLIC "-//W3C//DTD SVG 1.1//EN" "http://www.w3.org/Graphics/SVG/1.1/DTD/svg11.dtd"><svg xmlns="http://www.w3.org/2000/svg" version="1.1" width="507.4px" height="109.8px" viewBox="0 -4 507.4 109.8" style="top:-4px"><desc>02</desc><defs/><g class="svg-textframe-underlines"><rect class="svg-underline" x="242.3" y="17.7" width="22.9" height="1" style="fill:#fff;"/></g><g id="Polygon173367"><path d="m246.4 13.9c.5.5 1.1.8 2 .8c.9 0 1.6-.3 2.1-.8c.8-.8 1.1-2.2 1.1-4.2c0-2-.3-3.4-1.1-4.2c-.5-.5-1.2-.8-2.1-.8c-.9 0-1.5.3-2 .8c-.8.8-1.2 2.2-1.2 4.2c0 2 .4 3.4 1.2 4.2zm-2-8.9c.9-1.3 2.2-2.1 4-2.1c1.9 0 3.2.8 4 2.1c.9 1.3 1.2 2.9 1.2 4.7c0 1.8-.3 3.4-1.2 4.7c-.8 1.3-2.1 2.1-4 2.1c-1.8 0-3.1-.8-4-2.1c-.8-1.3-1.1-2.9-1.1-4.7c0-1.8.3-3.4 1.1-4.7zm11 2.6c0-.1 0-.3 0-.5c0-2.2 1.6-4.2 4.5-4.2c2.8 0 4.4 1.8 4.4 4c0 1.7-1 3.1-2.5 4c0 0-2.5 1.6-2.5 1.6c-.8.5-1.4 1.1-1.6 1.9c-.03-.04 6.6 0 6.6 0l0 1.8c0 0-9.05-.02-9 0c0-2.1.8-3.8 3-5.2c0 0 2.2-1.4 2.2-1.4c1.2-.8 1.8-1.7 1.8-2.7c0-1.2-.8-2.3-2.5-2.3c-1.7 0-2.5 1.2-2.5 2.7c0 .2.1.4.1.6c0 0-2-.3-2-.3z" stroke="none" fill="#fff"/></g></svg>