<?xml version="1.0" standalone="no"?><!DOCTYPE svg PUBLIC "-//W3C//DTD SVG 1.1//EN" "http://www.w3.org/Graphics/SVG/1.1/DTD/svg11.dtd"><svg xmlns="http://www.w3.org/2000/svg" version="1.1" width="94px" height="122px" viewBox="0 -12 94 122" style="top:-12px"><desc>“</desc><defs/><g id="Polygon186808"><path d="m10.1 1.5c-3.6 1.9-5.9 5.8-6.2 8.2c0 0 .2 0 .2 0c.5-1.1 1.3-1.7 2.7-1.7c1.6 0 3.8 1.5 3.8 4.5c0 2.6-1.9 4.5-4.4 4.5c-3.5 0-4.8-2.6-4.8-5.4c0-2.3 1.1-7.3 8.7-11c0 0 0 .9 0 .9zm10.5 0c-3.6 1.9-5.9 5.8-6.2 8.2c0 0 .2 0 .2 0c.5-1.1 1.3-1.7 2.7-1.7c1.6 0 3.8 1.5 3.8 4.5c0 2.6-1.9 4.5-4.5 4.5c-3.4 0-4.7-2.6-4.7-5.4c0-2.3 1.2-7.3 8.7-11c0 0 0 .9 0 .9z" stroke="none" fill="#144542"/></g></svg>