<?xml version="1.0" standalone="no"?><!DOCTYPE svg PUBLIC "-//W3C//DTD SVG 1.1//EN" "http://www.w3.org/Graphics/SVG/1.1/DTD/svg11.dtd"><svg xmlns="http://www.w3.org/2000/svg" version="1.1" width="354.3px" height="56.2px" viewBox="0 -4 354.3 56.2" style="top:-4px"><desc>Notre partenariat avec France Travail c’est :</desc><defs/><g id="Polygon180546"><path d="m9.4 13.8l-5.9-9.2l0 9.2l-2.1 0l0-12.1l2.6 0l5.5 8.6l0-8.6l2.1 0l0 12.1l-2.2 0zm10.8-4.2c0-1.7-1.1-2.6-2.3-2.6c-1.2 0-2.3.9-2.3 2.6c0 1.7 1.1 2.6 2.3 2.6c1.2 0 2.3-.9 2.3-2.6zm2 0c0 2.6-1.8 4.4-4.3 4.4c-2.5 0-4.3-1.8-4.3-4.4c0-2.5 1.8-4.4 4.3-4.4c2.5 0 4.3 1.9 4.3 4.4zm4.3-4.1l1.8 0l0 1.7l-1.8 0c0 0 .04 3.87 0 3.9c0 .7.4 1 1.1 1c.3 0 .6 0 .7-.1c0 0 0 1.7 0 1.7c-.1 0-.5.2-1.2.2c-1.6 0-2.5-1-2.5-2.5c-.02-.01 0-4.2 0-4.2l-1.5 0l0-1.7c0 0 .38-.03.4 0c.9 0 1.3-.6 1.3-1.3c-.05-.02 0-1.3 0-1.3l1.7 0l0 2.6zm8.5 1.9c-.3 0-.5 0-.7 0c-1.5 0-2.2.9-2.2 2.4c0 .01 0 4 0 4l-2 0l0-8.3l1.9 0c0 0 .05 1.3 0 1.3c.4-.9 1.4-1.4 2.4-1.4c.3 0 .5 0 .6 0c0 0 0 2 0 2zm7 1.3c-.1-1-.7-1.8-2.1-1.8c-1.2 0-1.9.9-2 1.8c0 0 4.1 0 4.1 0zm1.9 2.7c-.5 1.4-1.8 2.6-3.8 2.6c-2.2 0-4.2-1.6-4.2-4.4c0-2.6 1.9-4.4 4-4.4c2.6 0 4.1 1.7 4.1 4.3c0 .3-.1.6-.1.6c0 0-6 0-6 0c0 1.3 1 2.2 2.2 2.2c1.2 0 1.8-.6 2.1-1.4c0 0 1.7.5 1.7.5zm6.2 5.6l0-11.5l1.9 0c0 0-.03 1.1 0 1.1c.4-.7 1.3-1.3 2.6-1.3c2.5 0 3.8 1.9 3.8 4.3c0 2.5-1.5 4.4-3.9 4.4c-1.2 0-2.1-.6-2.5-1.2c.02.02 0 4.2 0 4.2l-1.9 0zm4.1-10c-1.3 0-2.2 1.1-2.2 2.6c0 1.6.9 2.6 2.2 2.6c1.3 0 2.3-1 2.3-2.6c0-1.5-.9-2.6-2.3-2.6zm8.1 2c0 0 2.1-.3 2.1-.3c.5-.1.7-.3.7-.6c0-.7-.5-1.3-1.6-1.3c-1 0-1.6.7-1.7 1.5c0 0-1.8-.4-1.8-.4c.1-1.4 1.4-2.7 3.5-2.7c2.5 0 3.5 1.5 3.5 3.1c0 0 0 4.1 0 4.1c0 .8.1 1.3.1 1.4c0 0-1.8 0-1.8 0c-.1-.1-.1-.4-.1-1.1c-.4.6-1.2 1.3-2.6 1.3c-1.7 0-2.8-1.2-2.8-2.5c0-1.5 1.1-2.3 2.5-2.5zm2.8 1.3c-.04.02 0-.4 0-.4c0 0-2.2.37-2.2.4c-.6.1-1.1.4-1.1 1.1c0 .6.4 1.1 1.2 1.1c1.1 0 2.1-.6 2.1-2.2zm9.1-2.9c-.2 0-.4 0-.6 0c-1.6 0-2.3.9-2.3 2.4c.05.01 0 4 0 4l-1.9 0l0-8.3l1.9 0c0 0 0 1.3 0 1.3c.4-.9 1.3-1.4 2.4-1.4c.2 0 .4 0 .5 0c0 0 0 2 0 2zm4.5-1.9l1.7 0l0 1.7l-1.7 0c0 0 .03 3.87 0 3.9c0 .7.3 1 1.1 1c.3 0 .6 0 .7-.1c0 0 0 1.7 0 1.7c-.2 0-.5.2-1.2.2c-1.6 0-2.5-1-2.5-2.5c-.03-.01 0-4.2 0-4.2l-1.6 0l0-1.7c0 0 .47-.03.5 0c.9 0 1.2-.6 1.2-1.3c.04-.02 0-1.3 0-1.3l1.8 0l0 2.6zm9.1 3.2c0-1-.7-1.8-2-1.8c-1.3 0-2 .9-2 1.8c0 0 4 0 4 0zm1.9 2.7c-.4 1.4-1.7 2.6-3.7 2.6c-2.3 0-4.3-1.6-4.3-4.4c0-2.6 2-4.4 4.1-4.4c2.5 0 4 1.7 4 4.3c0 .3 0 .6 0 .6c0 0-6.1 0-6.1 0c.1 1.3 1 2.2 2.3 2.2c1.2 0 1.8-.6 2-1.4c0 0 1.7.5 1.7.5zm4 2.4l-2 0l0-8.3l1.9 0c0 0 .02 1.08 0 1.1c.6-1 1.5-1.4 2.5-1.4c2 0 3 1.5 3 3.3c-.04.02 0 5.3 0 5.3l-2 0c0 0-.01-4.94 0-4.9c0-1.1-.5-1.9-1.7-1.9c-1.1 0-1.7.9-1.7 2c-.03-.02 0 4.8 0 4.8zm9.7-4.8c0 0 2.2-.3 2.2-.3c.4-.1.6-.3.6-.6c0-.7-.5-1.3-1.6-1.3c-1 0-1.6.7-1.7 1.5c0 0-1.8-.4-1.8-.4c.2-1.4 1.5-2.7 3.5-2.7c2.5 0 3.5 1.5 3.5 3.1c0 0 0 4.1 0 4.1c0 .8.1 1.3.1 1.4c0 0-1.8 0-1.8 0c0-.1-.1-.4-.1-1.1c-.4.6-1.2 1.3-2.6 1.3c-1.7 0-2.8-1.2-2.8-2.5c0-1.5 1.1-2.3 2.5-2.5zm2.8 1.3c-.02.02 0-.4 0-.4c0 0-2.18.37-2.2.4c-.6.1-1.1.4-1.1 1.1c0 .6.4 1.1 1.2 1.1c1.1 0 2.1-.6 2.1-2.2zm9.1-2.9c-.2 0-.4 0-.6 0c-1.5 0-2.2.9-2.2 2.4c-.03.01 0 4 0 4l-2 0l0-8.3l1.9 0c0 0 .02 1.3 0 1.3c.4-.9 1.3-1.4 2.4-1.4c.3 0 .5 0 .5 0c0 0 0 2 0 2zm1.7 6.4l0-8.3l1.9 0l0 8.3l-1.9 0zm1-12.5c.7 0 1.3.6 1.3 1.3c0 .7-.6 1.2-1.3 1.2c-.7 0-1.3-.5-1.3-1.2c0-.7.6-1.3 1.3-1.3zm5.5 7.7c0 0 2.1-.3 2.1-.3c.5-.1.6-.3.6-.6c0-.7-.5-1.3-1.5-1.3c-1.1 0-1.7.7-1.7 1.5c0 0-1.8-.4-1.8-.4c.1-1.4 1.4-2.7 3.4-2.7c2.6 0 3.6 1.5 3.6 3.1c0 0 0 4.1 0 4.1c0 .8 0 1.3.1 1.4c0 0-1.9 0-1.9 0c0-.1-.1-.4-.1-1.1c-.3.6-1.2 1.3-2.5 1.3c-1.7 0-2.8-1.2-2.8-2.5c0-1.5 1.1-2.3 2.5-2.5zm2.7 1.3c.02.02 0-.4 0-.4c0 0-2.14.37-2.1.4c-.6.1-1.1.4-1.1 1.1c0 .6.4 1.1 1.2 1.1c1.1 0 2-.6 2-2.2zm6.8-4.8l1.7 0l0 1.7l-1.7 0c0 0 .01 3.87 0 3.9c0 .7.3 1 1.1 1c.2 0 .6 0 .6-.1c0 0 0 1.7 0 1.7c-.1 0-.5.2-1.2.2c-1.5 0-2.4-1-2.4-2.5c-.05-.01 0-4.2 0-4.2l-1.6 0l0-1.7c0 0 .45-.03.4 0c.9 0 1.3-.6 1.3-1.3c.02-.02 0-1.3 0-1.3l1.8 0l0 2.6zm9.9 3.5c0 0 2.1-.3 2.1-.3c.5-.1.7-.3.7-.6c0-.7-.5-1.3-1.6-1.3c-1 0-1.6.7-1.7 1.5c0 0-1.8-.4-1.8-.4c.1-1.4 1.4-2.7 3.5-2.7c2.5 0 3.5 1.5 3.5 3.1c0 0 0 4.1 0 4.1c0 .8.1 1.3.1 1.4c0 0-1.8 0-1.8 0c-.1-.1-.1-.4-.1-1.1c-.4.6-1.2 1.3-2.6 1.3c-1.7 0-2.8-1.2-2.8-2.5c0-1.5 1.1-2.3 2.5-2.5zm2.8 1.3c-.05.02 0-.4 0-.4c0 0-2.2.37-2.2.4c-.6.1-1.1.4-1.1 1.1c0 .6.4 1.1 1.2 1.1c1.1 0 2.1-.6 2.1-2.2zm8.4 3.5l-2 0l-3.3-8.3l2.2 0l2.2 5.9l2.1-5.9l2.1 0l-3.3 8.3zm9.9-5.1c0-1-.7-1.8-2-1.8c-1.3 0-2 .9-2.1 1.8c0 0 4.1 0 4.1 0zm1.9 2.7c-.5 1.4-1.8 2.6-3.8 2.6c-2.2 0-4.2-1.6-4.2-4.4c0-2.6 1.9-4.4 4-4.4c2.6 0 4.1 1.7 4.1 4.3c0 .3 0 .6-.1.6c0 0-6 0-6 0c0 1.3 1 2.2 2.2 2.2c1.2 0 1.8-.6 2.1-1.4c0 0 1.7.5 1.7.5zm3.3-1.8c0 1.7 1.1 2.6 2.3 2.6c1.3 0 1.9-.9 2.1-1.5c0 0 1.7.6 1.7.6c-.4 1.3-1.6 2.7-3.8 2.7c-2.4 0-4.3-1.9-4.3-4.4c0-2.5 1.9-4.4 4.3-4.4c2.2 0 3.4 1.4 3.8 2.7c0 0-1.8.7-1.8.7c-.2-.7-.8-1.6-2-1.6c-1.2 0-2.3.9-2.3 2.6zm12.3 4.2l0-12.1l7.5 0l0 1.9l-5.5 0l0 3.4l4.9 0l0 1.9l-4.9 0l0 4.9l-2 0zm13.6-6.4c-.2 0-.5 0-.7 0c-1.5 0-2.2.9-2.2 2.4c.02.01 0 4 0 4l-2 0l0-8.3l2 0c0 0-.03 1.3 0 1.3c.4-.9 1.3-1.4 2.4-1.4c.2 0 .4 0 .5 0c0 0 0 2 0 2zm3.6 1.6c0 0 2.2-.3 2.2-.3c.4-.1.6-.3.6-.6c0-.7-.5-1.3-1.6-1.3c-1 0-1.6.7-1.7 1.5c0 0-1.8-.4-1.8-.4c.2-1.4 1.5-2.7 3.5-2.7c2.6 0 3.5 1.5 3.5 3.1c0 0 0 4.1 0 4.1c0 .8.1 1.3.1 1.4c0 0-1.8 0-1.8 0c0-.1-.1-.4-.1-1.1c-.4.6-1.2 1.3-2.5 1.3c-1.8 0-2.9-1.2-2.9-2.5c0-1.5 1.1-2.3 2.5-2.5zm2.8 1.3c-.02.02 0-.4 0-.4c0 0-2.18.37-2.2.4c-.6.1-1.1.4-1.1 1.1c0 .6.4 1.1 1.2 1.1c1.1 0 2.1-.6 2.1-2.2zm6.3 3.5l-2 0l0-8.3l1.9 0c0 0 .02 1.08 0 1.1c.6-1 1.5-1.4 2.5-1.4c2 0 3 1.5 3 3.3c-.04.02 0 5.3 0 5.3l-2 0c0 0-.01-4.94 0-4.9c0-1.1-.5-1.9-1.7-1.9c-1.1 0-1.7.9-1.7 2c-.03-.02 0 4.8 0 4.8zm9.1-4.2c0 1.7 1.1 2.6 2.3 2.6c1.3 0 1.9-.9 2.1-1.5c0 0 1.7.6 1.7.6c-.4 1.3-1.6 2.7-3.8 2.7c-2.4 0-4.3-1.9-4.3-4.4c0-2.5 1.9-4.4 4.2-4.4c2.3 0 3.5 1.4 3.8 2.7c0 0-1.7.7-1.7.7c-.2-.7-.8-1.6-2-1.6c-1.2 0-2.3.9-2.3 2.6zm13.2-.9c0-1-.7-1.8-2-1.8c-1.3 0-2 .9-2.1 1.8c0 0 4.1 0 4.1 0zm1.9 2.7c-.4 1.4-1.8 2.6-3.7 2.6c-2.3 0-4.3-1.6-4.3-4.4c0-2.6 2-4.4 4.1-4.4c2.5 0 4 1.7 4 4.3c0 .3 0 .6-.1.6c0 0-6 0-6 0c0 1.3 1 2.2 2.3 2.2c1.1 0 1.8-.6 2-1.4c0 0 1.7.5 1.7.5zm11.1-7.8l0 10.2l-2 0l0-10.2l-4 0l0-1.9l9.9 0l0 1.9l-3.9 0zm9.1 3.8c-.2 0-.4 0-.6 0c-1.6 0-2.2.9-2.2 2.4c-.05.01 0 4 0 4l-2 0l0-8.3l1.9 0c0 0 0 1.3 0 1.3c.4-.9 1.3-1.4 2.4-1.4c.2 0 .4 0 .5 0c0 0 0 2 0 2zm3.7 1.6c0 0 2.1-.3 2.1-.3c.5-.1.6-.3.6-.6c0-.7-.5-1.3-1.5-1.3c-1.1 0-1.7.7-1.7 1.5c0 0-1.8-.4-1.8-.4c.1-1.4 1.4-2.7 3.4-2.7c2.6 0 3.6 1.5 3.6 3.1c0 0 0 4.1 0 4.1c0 .8 0 1.3.1 1.4c0 0-1.9 0-1.9 0c0-.1-.1-.4-.1-1.1c-.4.6-1.2 1.3-2.5 1.3c-1.7 0-2.8-1.2-2.8-2.5c0-1.5 1.1-2.3 2.5-2.5zm2.7 1.3c.02.02 0-.4 0-.4c0 0-2.14.37-2.1.4c-.7.1-1.1.4-1.1 1.1c0 .6.4 1.1 1.2 1.1c1.1 0 2-.6 2-2.2zm8.5 3.5l-2 0l-3.4-8.3l2.2 0l2.2 5.9l2.2-5.9l2 0l-3.2 8.3zm6.6-4.8c0 0 2.1-.3 2.1-.3c.5-.1.7-.3.7-.6c0-.7-.5-1.3-1.6-1.3c-1.1 0-1.6.7-1.7 1.5c0 0-1.8-.4-1.8-.4c.1-1.4 1.4-2.7 3.5-2.7c2.5 0 3.5 1.5 3.5 3.1c0 0 0 4.1 0 4.1c0 .8.1 1.3.1 1.4c0 0-1.8 0-1.8 0c-.1-.1-.1-.4-.1-1.1c-.4.6-1.2 1.3-2.6 1.3c-1.7 0-2.8-1.2-2.8-2.5c0-1.5 1.1-2.3 2.5-2.5zm2.8 1.3c-.05.02 0-.4 0-.4c0 0-2.21.37-2.2.4c-.6.1-1.1.4-1.1 1.1c0 .6.4 1.1 1.2 1.1c1.1 0 2.1-.6 2.1-2.2zm4.3 3.5l0-8.3l1.9 0l0 8.3l-1.9 0zm.9-12.5c.8 0 1.3.6 1.3 1.3c0 .7-.5 1.2-1.3 1.2c-.7 0-1.2-.5-1.2-1.2c0-.7.5-1.3 1.2-1.3zm3.6 12.5l0-12.4l1.9 0l0 12.4l-1.9 0zm10-4.2c0 1.7 1.1 2.6 2.3 2.6c1.3 0 1.9-.9 2.1-1.5c0 0 1.8.6 1.8.6c-.4 1.3-1.7 2.7-3.9 2.7c-2.4 0-4.2-1.9-4.2-4.4c0-2.5 1.8-4.4 4.2-4.4c2.2 0 3.4 1.4 3.8 2.7c0 0-1.8.7-1.8.7c-.2-.7-.7-1.6-2-1.6c-1.2 0-2.3.9-2.3 2.6zm8.3-8c.8 0 1.4.6 1.4 1.5c0 2.3-1.5 3.1-2.5 3.2c0 0 0-.9 0-.9c.7-.2 1.3-.8 1.4-1.6c-.1 0-.2.1-.4.1c-.7 0-1.2-.5-1.2-1.2c0-.6.6-1.1 1.3-1.1zm7.6 7.1c0-1-.7-1.8-2-1.8c-1.3 0-2 .9-2.1 1.8c0 0 4.1 0 4.1 0zm1.9 2.7c-.5 1.4-1.8 2.6-3.8 2.6c-2.2 0-4.2-1.6-4.2-4.4c0-2.6 2-4.4 4-4.4c2.6 0 4.1 1.7 4.1 4.3c0 .3 0 .6-.1.6c0 0-6 0-6 0c0 1.3 1 2.2 2.2 2.2c1.2 0 1.8-.6 2.1-1.4c0 0 1.7.5 1.7.5zm3-.4c0 .8.6 1.4 1.6 1.4c.9 0 1.3-.4 1.3-.9c0-.5-.3-.8-1-.9c0 0-1.2-.3-1.2-.3c-1.5-.3-2.2-1.3-2.2-2.4c0-1.5 1.3-2.7 3-2.7c2.3 0 3.1 1.5 3.2 2.3c0 0-1.7.5-1.7.5c0-.5-.4-1.2-1.5-1.2c-.7 0-1.2.4-1.2.9c0 .5.3.8.8.9c0 0 1.3.2 1.3.2c1.6.4 2.4 1.3 2.4 2.6c0 1.2-1 2.6-3.1 2.6c-2.4 0-3.4-1.6-3.5-2.5c0 0 1.8-.5 1.8-.5zm9.2-5.5l1.8 0l0 1.7l-1.8 0c0 0 .04 3.87 0 3.9c0 .7.4 1 1.1 1c.3 0 .6 0 .7-.1c0 0 0 1.7 0 1.7c-.1 0-.5.2-1.2.2c-1.6 0-2.5-1-2.5-2.5c-.01-.01 0-4.2 0-4.2l-1.5 0l0-1.7c0 0 .38-.03.4 0c.9 0 1.3-.6 1.3-1.3c-.04-.02 0-1.3 0-1.3l1.7 0l0 2.6zm9.3 5.6c.7 0 1.3.6 1.3 1.4c0 .7-.6 1.4-1.3 1.4c-.8 0-1.4-.7-1.4-1.4c0-.8.6-1.4 1.4-1.4zm0-5.7c.7 0 1.3.6 1.3 1.3c0 .8-.6 1.4-1.3 1.4c-.8 0-1.4-.6-1.4-1.4c0-.7.6-1.3 1.4-1.3z" stroke="none" fill="#144542"/></g></svg>