<?xml version="1.0" standalone="no"?><!DOCTYPE svg PUBLIC "-//W3C//DTD SVG 1.1//EN" "http://www.w3.org/Graphics/SVG/1.1/DTD/svg11.dtd"><svg xmlns="http://www.w3.org/2000/svg" version="1.1" width="238.1px" height="58.6px" viewBox="0 -3 238.1 58.6" style="top:-3px"><desc>Ne manquez pas :</desc><defs/><g id="Polygon187646"><path d="m7.7 10.9l-5.2-7.8l0 7.8l-1.3 0l0-9.5l1.8 0l4.8 7.3l0-7.3l1.3 0l0 9.5l-1.4 0zm8.1-3.9c-.1-.9-.7-1.7-1.8-1.7c-1.1 0-1.7.9-1.8 1.7c0 0 3.6 0 3.6 0zm1.2 2.1c-.3 1.1-1.4 2-2.9 2c-1.7 0-3.2-1.2-3.2-3.4c0-2.1 1.4-3.5 3.1-3.5c2 0 3.1 1.4 3.1 3.4c0 .2 0 .4-.1.4c0 0-4.8 0-4.8 0c0 1.2.8 2 1.9 2c1.1 0 1.6-.6 1.8-1.3c0 0 1.1.4 1.1.4zm5.1 1.8l0-6.5l1.2 0c0 0-.01.89 0 .9c.4-.7 1.2-1.1 2-1.1c.8 0 1.6.4 1.9 1.3c.5-1 1.4-1.3 2.2-1.3c1.1 0 2.2.8 2.2 2.5c.02.01 0 4.2 0 4.2l-1.2 0c0 0-.04-4.06 0-4.1c0-.8-.5-1.4-1.4-1.4c-.9 0-1.5.7-1.5 1.6c-.02-.01 0 3.9 0 3.9l-1.3 0c0 0 .02-4.06 0-4.1c0-.8-.4-1.4-1.4-1.4c-.9 0-1.5.6-1.5 1.6c.03.01 0 3.9 0 3.9l-1.2 0zm11.1-1.7c0-1.2.9-1.8 2-2c0 0 1.8-.2 1.8-.2c.4-.1.5-.3.5-.5c0-.7-.5-1.2-1.4-1.2c-.9 0-1.4.6-1.5 1.3c0 0-1.2-.3-1.2-.3c.1-1.2 1.2-2.1 2.6-2.1c2 0 2.7 1.1 2.7 2.4c0 0 0 3.3 0 3.3c0 .5.1.9.1 1c0 0-1.2 0-1.2 0c-.1-.1-.1-.4-.1-.9c-.3.5-.9 1.1-2.1 1.1c-1.3 0-2.2-.9-2.2-1.9c0 0 0 0 0 0zm4.3-1.1c-.04.04 0-.3 0-.3c0 0-2.02.34-2 .3c-.6.1-1 .4-1 1c0 .5.4 1 1.1 1c1 0 1.9-.5 1.9-2zm4.5 2.8l-1.3 0l0-6.5l1.2 0c0 0 .04.96 0 1c.5-.9 1.3-1.2 2-1.2c1.6 0 2.4 1.2 2.4 2.6c-.04 0 0 4.1 0 4.1l-1.3 0c0 0 0-3.88 0-3.9c0-.9-.4-1.6-1.5-1.6c-1 0-1.5.8-1.5 1.8c-.03-.03 0 3.7 0 3.7zm10.9 2.6c0 0-.05-3.5 0-3.5c-.4.7-1.1 1.1-2.1 1.1c-1.8 0-3.1-1.6-3.1-3.4c0-1.9 1.2-3.4 3.1-3.4c1.1 0 1.8.5 2.1 1.1c-.02.03 0-1 0-1l1.2 0l0 9.1l-1.2 0zm-2-3.5c1.2 0 2-1 2-2.3c0-1.4-.8-2.3-2-2.3c-1.1 0-1.9.9-1.9 2.3c0 1.3.8 2.3 1.9 2.3zm9.5.1c-.3.7-1.1 1-1.9 1c-1.5 0-2.4-1.1-2.4-2.6c-.03.02 0-4.1 0-4.1l1.2 0c0 0 .03 3.93 0 3.9c0 .9.4 1.7 1.5 1.7c1 0 1.5-.7 1.5-1.7c.05.04 0-3.9 0-3.9l1.3 0c0 0 .01 5.32 0 5.3c0 .5.1 1 .1 1.2c0 0-1.2 0-1.2 0c-.1-.1-.1-.5-.1-.8c0 0 0 0 0 0zm7.7-3.1c0-.9-.7-1.7-1.8-1.7c-1.1 0-1.7.9-1.8 1.7c0 0 3.6 0 3.6 0zm1.3 2.1c-.4 1.1-1.4 2-3 2c-1.7 0-3.2-1.2-3.2-3.4c0-2.1 1.5-3.5 3.1-3.5c2 0 3.1 1.4 3.1 3.4c0 .2 0 .4 0 .4c0 0-4.9 0-4.9 0c0 1.2.9 2 1.9 2c1.1 0 1.6-.6 1.9-1.3c0 0 1.1.4 1.1.4zm1.1 1.8l0-1.1l3.5-4.2l-3.5 0l0-1.2l5.1 0l0 1.1l-3.5 4.3l3.6 0l0 1.1l-5.2 0zm10.2 2.6l0-9.1l1.2 0c0 0 .02 1.04 0 1c.4-.6 1.1-1.1 2.2-1.1c1.9 0 3 1.5 3 3.4c0 1.9-1.1 3.4-3 3.4c-1 0-1.8-.5-2.2-1.1c.04.04 0 3.5 0 3.5l-1.2 0zm5.1-5.8c0-1.3-.8-2.3-1.9-2.3c-1.2 0-2 1-2 2.3c0 1.3.8 2.3 2 2.3c1.1 0 1.9-1 1.9-2.3c0 0 0 0 0 0zm2.5 1.5c0-1.2.8-1.8 2-2c0 0 1.7-.2 1.7-.2c.4-.1.5-.3.5-.5c0-.7-.4-1.2-1.4-1.2c-.9 0-1.4.6-1.5 1.3c0 0-1.2-.3-1.2-.3c.2-1.2 1.3-2.1 2.7-2.1c1.9 0 2.7 1.1 2.7 2.4c0 0 0 3.3 0 3.3c0 .5 0 .9.1 1c0 0-1.3 0-1.3 0c0-.1 0-.4 0-.9c-.3.5-1 1.1-2.1 1.1c-1.4 0-2.2-.9-2.2-1.9c0 0 0 0 0 0zm4.2-1.1c.02.04 0-.3 0-.3c0 0-1.97.34-2 .3c-.5.1-.9.4-.9 1c0 .5.4 1 1 1c1.1 0 1.9-.5 1.9-2zm3.8.7c.1.7.6 1.2 1.5 1.2c.7 0 1.1-.4 1.1-.8c0-.4-.3-.7-.8-.9c0 0-1.1-.2-1.1-.2c-1-.2-1.6-.9-1.6-1.8c0-1.1 1-2.1 2.3-2.1c1.7 0 2.3 1.2 2.4 1.8c0 0-1.1.4-1.1.4c0-.4-.3-1.1-1.3-1.1c-.7 0-1.1.4-1.1.9c0 .4.2.6.7.8c0 0 1.1.2 1.1.2c1.1.2 1.8 1 1.8 1.9c0 .9-.8 2-2.4 2c-1.8 0-2.5-1.1-2.7-1.9c0 0 1.2-.4 1.2-.4zm9.8.3c.5 0 1 .4 1 1c0 .5-.5.9-1 .9c-.5 0-.9-.4-.9-.9c0-.6.4-1 .9-1zm0-4.7c.5 0 .9.4.9.9c0 .5-.4.9-.9.9c-.5 0-.9-.4-.9-.9c0-.5.4-.9.9-.9z" stroke="none" fill="#fff"/></g></svg>