<?xml version="1.0" standalone="no"?><!DOCTYPE svg PUBLIC "-//W3C//DTD SVG 1.1//EN" "http://www.w3.org/Graphics/SVG/1.1/DTD/svg11.dtd"><svg xmlns="http://www.w3.org/2000/svg" version="1.1" width="28.1px" height="20.6px" viewBox="0 -3 28.1 20.6" style="top:-3px"><desc>21 %</desc><defs/><g id="Polygon165967"><path d="m.6 5.2c0-.2 0-.3 0-.4c0-1.5 1.1-2.8 3-2.8c1.9 0 2.9 1.2 2.9 2.7c0 1.1-.6 2-1.6 2.7c0 0-1.7 1.1-1.7 1.1c-.5.3-1 .7-1.1 1.2c.01-.01 4.5 0 4.5 0l0 1.2c0 0-6.13.02-6.1 0c0-1.4.6-2.5 2.1-3.5c0 0 1.4-.9 1.4-.9c.8-.5 1.2-1.2 1.2-1.8c0-.8-.5-1.6-1.6-1.6c-1.2 0-1.7.8-1.7 1.8c0 .1 0 .3 0 .4c0 0-1.3-.1-1.3-.1zm9.1 5.7l0-6.1l-2.1 0c0 0 .01-.98 0-1c1.2 0 2.1-.7 2.3-1.6c-.03-.03 1.1 0 1.1 0l0 8.7l-1.3 0zm6.4-5.6c.6 0 1-.5 1-1.1c0-.6-.4-1.1-1-1.1c-.6 0-1 .5-1 1.1c0 .6.4 1.1 1 1.1zm0-3.2c1.2 0 2.2.9 2.2 2.1c0 1.2-1 2.1-2.2 2.1c-1.2 0-2.2-.9-2.2-2.1c0-1.2 1-2.1 2.2-2.1zm5.3 7.9c.6 0 1.1-.5 1.1-1.1c0-.6-.5-1.1-1.1-1.1c-.5 0-1 .5-1 1.1c0 .6.5 1.1 1 1.1zm0-3.2c1.2 0 2.2.9 2.2 2.1c0 1.2-1 2.1-2.2 2.1c-1.1 0-2.1-.9-2.1-2.1c0-1.2 1-2.1 2.1-2.1zm-6.4 4.1l6.3-8.7l1.2 0l-6.2 8.7l-1.3 0z" stroke="none" fill="#9b78ef"/></g></svg>