<?xml version="1.0" standalone="no"?><!DOCTYPE svg PUBLIC "-//W3C//DTD SVG 1.1//EN" "http://www.w3.org/Graphics/SVG/1.1/DTD/svg11.dtd"><svg xmlns="http://www.w3.org/2000/svg" version="1.1" width="30.3px" height="21.6px" viewBox="0 -3 30.3 21.6" style="top:-3px"><desc>51 %</desc><defs/><g id="Polygon166813"><path d="m1.7 8.2c.1 1 .9 1.8 2 1.8c1.1 0 1.9-.7 1.9-1.8c0-1.2-.9-1.8-1.9-1.8c-.6 0-1.2.2-1.6.6c-.5-.1-.8-.3-1.3-.5c.01.02 1.1-4.3 1.1-4.3l4.7 0l0 1.2l-3.8 0c0 0-.63 2.5-.6 2.5c.4-.4 1.1-.6 1.8-.6c1.7 0 2.9 1 2.9 2.9c0 1.6-1.2 2.9-3.2 2.9c-1.8 0-3.1-1.2-3.2-2.6c0 0 1.2-.3 1.2-.3zm8.2 2.7l0-6.1l-2.2 0c0 0 .04-.98 0-1c1.3 0 2.1-.7 2.3-1.6c-.01-.03 1.1 0 1.1 0l0 8.7l-1.2 0zm6.3-5.6c.6 0 1.1-.5 1.1-1.1c0-.6-.5-1.1-1.1-1.1c-.6 0-1 .5-1 1.1c0 .6.4 1.1 1 1.1zm0-3.2c1.2 0 2.2.9 2.2 2.1c0 1.2-1 2.1-2.2 2.1c-1.1 0-2.1-.9-2.1-2.1c0-1.2 1-2.1 2.1-2.1zm5.4 7.9c.6 0 1-.5 1-1.1c0-.6-.4-1.1-1-1.1c-.6 0-1.1.5-1.1 1.1c0 .6.5 1.1 1.1 1.1zm0-3.2c1.1 0 2.1.9 2.1 2.1c0 1.2-1 2.1-2.1 2.1c-1.2 0-2.2-.9-2.2-2.1c0-1.2 1-2.1 2.2-2.1zm-6.5 4.1l6.3-8.7l1.2 0l-6.2 8.7l-1.3 0z" stroke="none" fill="#144542"/></g></svg>