<?xml version="1.0" standalone="no"?><!DOCTYPE svg PUBLIC "-//W3C//DTD SVG 1.1//EN" "http://www.w3.org/Graphics/SVG/1.1/DTD/svg11.dtd"><svg xmlns="http://www.w3.org/2000/svg" version="1.1" width="116.2px" height="112.3px" viewBox="0 -3 116.2 112.3" style="top:-3px"><desc>Jeanne Babinet — Directrice Campus de l’inclusion Experte Inclusion</desc><defs/><g id="Polygon184404"><path d="m.2 68.3l1.8-8.5l5.1 0l-.2 1.1l-4 0l-.5 2.6l3.5 0l-.2 1.1l-3.6 0l-.5 2.6l3.9 0l-.2 1.1l-5.1 0zm7.4 0l-1.5 0l2.9-3l-1.6-2.8c0 0 1.28.02 1.3 0c.3.7.7 1.4 1 2c.01.03 1.8-2 1.8-2l1.5 0c0 0-2.75 2.88-2.8 2.9c.6 1 1.1 1.9 1.6 2.9c.02-.01-1.2 0-1.2 0l-1.1-2.1l-1.9 2.1zm6.8-2.5c0 1.1.6 1.6 1.5 1.6c.9 0 1.9-.9 1.9-2.4c0-1-.5-1.6-1.5-1.6c-.9 0-1.9.9-1.9 2.4zm2.4-3.4c1.5 0 2.2 1.1 2.2 2.4c0 2.1-1.2 3.6-3.1 3.6c-.8 0-1.5-.3-1.9-1c.04.01-.6 3.2-.6 3.2l-1.1 0c0 0 1.45-7.06 1.5-7.1c.1-.5.1-.9.1-1c0 0 1.1 0 1.1 0c0 .1 0 .4-.1.7c.5-.6 1.2-.8 1.9-.8zm7.3 2.4c0 0 0-.1 0-.2c0-.6-.3-1.3-1.2-1.3c-1 0-1.6.8-1.9 1.5c0 0 3.1 0 3.1 0zm-3.2.9c0 .1 0 .2 0 .2c0 1 .6 1.6 1.4 1.6c.9 0 1.5-.5 1.7-1c0 0 .9.6.9.6c-.4.7-1.3 1.4-2.5 1.4c-1.5 0-2.6-.9-2.6-2.7c0-2.1 1.5-3.5 3.1-3.5c1.6 0 2.4 1 2.4 2.4c0 .4-.1.8-.2 1c0 0-4.2 0-4.2 0zm8.8-2.1c-.9 0-1.7.6-2 2c.03-.04-.6 2.7-.6 2.7l-1.1 0c0 0 1.04-4.76 1-4.8c.1-.5.2-.9.2-1c0 0 1.1 0 1.1 0c0 .3-.1.7-.1.9c.4-.7 1.2-1 1.9-1c.1 0 .2 0 .3.1c0 0-.3 1.2-.3 1.2c-.1 0-.2-.1-.4-.1zm1.8 3c-.05.04.6-3.1.6-3.1l-1 0l.2-1c0 0 .14.02.1 0c.7 0 1.1-.3 1.2-.9c.03-.01.2-.9.2-.9l1.1 0l-.4 1.8l1.1 0l-.2 1l-1.2 0c0 0-.6 3.08-.6 3.1c0 .1 0 .2 0 .3c0 .3.2.5.6.5c.1 0 .3 0 .4-.1c0 0-.2 1-.2 1c-.1 0-.3.1-.6.1c-.8 0-1.4-.5-1.4-1.3c0-.2 0-.3.1-.5zm7.7-1.8c0 0 .1-.1.1-.2c0-.6-.4-1.3-1.3-1.3c-1 0-1.6.8-1.8 1.5c0 0 3 0 3 0zm-3.2.9c0 .1 0 .2 0 .2c0 1 .6 1.6 1.5 1.6c.9 0 1.4-.5 1.7-1c0 0 .8.6.8.6c-.4.7-1.3 1.4-2.5 1.4c-1.5 0-2.6-.9-2.6-2.7c0-2.1 1.5-3.5 3.1-3.5c1.6 0 2.4 1 2.4 2.4c0 .4-.1.8-.2 1c0 0-4.2 0-4.2 0zm8.4 2.6l1.8-8.5l1.2 0l-1.8 8.5l-1.2 0zm6.9 0c0 0 .79-3.5.8-3.5c0-.1 0-.3 0-.4c0-.7-.3-1.1-1-1.1c-.9 0-1.5.9-1.6 1.6c-.02.03-.7 3.4-.7 3.4l-1.2 0c0 0 1.04-4.76 1-4.8c.2-.5.2-1 .2-1c0 0 1.1 0 1.1 0c0 .1 0 .4-.1.7c.5-.6 1.1-.8 1.8-.8c1 0 1.7.6 1.7 1.7c0 .1 0 .3 0 .5c-.05.03-.8 3.7-.8 3.7l-1.2 0zm7.5-3.8c-.1-.6-.6-1.2-1.4-1.2c-1 0-2 .9-2 2.5c0 1 .7 1.7 1.6 1.7c.9 0 1.3-.6 1.6-1.1c0 0 1 .4 1 .4c-.5.9-1.3 1.7-2.6 1.7c-1.7 0-2.7-1.2-2.7-2.7c0-2 1.4-3.5 3.1-3.5c1.6 0 2.2 1 2.4 1.9c0 0-1 .3-1 .3zm1.5 3.8l1.8-8.7l1.1 0l-1.8 8.7l-1.1 0zm6.8-.7c-.4.6-1.1.8-1.6.8c-1.2 0-1.9-.7-1.9-1.8c0-.2.1-.5.1-.7c.02 0 .7-3.4.7-3.4l1.2 0c0 0-.74 3.37-.7 3.4c-.1.2-.1.3-.1.5c0 .6.3 1.1 1 1.1c.9 0 1.4-.8 1.6-1.6c-.03-.01.7-3.4.7-3.4l1.1 0c0 0-.91 4.29-.9 4.3c-.1.6-.1 1.1-.1 1.3c0 0 0 .1 0 .2c0 0-1.1 0-1.1 0c0-.1 0-.2 0-.3c0-.1 0-.2 0-.4c0 0 0 0 0 0zm3.6-1.3c0 .7.4 1.2 1.2 1.2c.7 0 1-.4 1-.8c0-.2-.2-.5-.6-.6c0 0-.8-.4-.8-.4c-.7-.3-1.1-.8-1.1-1.5c0-1 .8-1.9 2.2-1.9c1.5 0 1.9 1.1 2 1.7c0 0-1 .3-1 .3c-.1-.5-.3-1-1.2-1c-.5 0-.9.3-.9.7c0 .4.2.6.5.7c0 0 .8.4.8.4c.7.3 1.2.9 1.2 1.6c0 .7-.6 1.8-2.1 1.8c-1.6 0-2.2-1.2-2.2-2c0 0 1-.2 1-.2zm6.8-6.8c.4 0 .7.3.7.7c0 .5-.5.9-.9.9c-.4 0-.7-.3-.7-.7c0-.5.4-.9.9-.9zm-2.4 8.8l1.3-5.8l1.1 0l-1.2 5.8l-1.2 0zm4.3-2.5c0 1 .6 1.7 1.5 1.7c1 0 1.9-.9 1.9-2.5c0-1-.5-1.7-1.4-1.7c-1 0-2 .9-2 2.5zm1.5 2.7c-1.7 0-2.6-1.2-2.6-2.7c0-2 1.3-3.5 3.1-3.5c1.7 0 2.6 1.2 2.6 2.7c0 1.9-1.3 3.5-3.1 3.5zm7.5-.2c0 0 .78-3.5.8-3.5c0-.1 0-.3 0-.4c0-.7-.3-1.1-1-1.1c-.9 0-1.5.9-1.6 1.6c-.03.03-.8 3.4-.8 3.4l-1.1 0c0 0 1.03-4.76 1-4.8c.1-.5.2-1 .2-1c0 0 1.1 0 1.1 0c0 .1 0 .4-.1.7c.4-.6 1.1-.8 1.8-.8c1 0 1.7.6 1.7 1.7c0 .1 0 .3-.1.5c.05.03-.7 3.7-.7 3.7l-1.2 0z" stroke="none" fill="#144542"/></g><g id="Polygon184403"><path d="m3.3 46c1.1 0 1.7-.9 1.7-2.1c0-1.2-.6-2-1.7-2c-1 0-1.7.8-1.7 2c0 1.2.6 2.1 1.7 2.1zm1.7-.1c-.3.6-.9 1.1-1.8 1.1c-1.7 0-2.7-1.4-2.7-3.1c0-1.6 1.1-3 2.7-3c1 0 1.6.5 1.8 1c-.02-.05 0-3.8 0-3.8l1.1 0c0 0 0 7.64 0 7.6c0 .6 0 1 .1 1.1c0 0-1.1 0-1.1 0c-.1-.1-.1-.4-.1-.8c0 0 0-.1 0-.1zm6.9-2.6c0-.8-.6-1.4-1.6-1.4c-.9 0-1.5.7-1.6 1.4c0 0 3.2 0 3.2 0zm1.1 1.9c-.3 1-1.2 1.8-2.5 1.8c-1.6 0-3-1.1-3-3.1c0-1.8 1.4-3 2.8-3c1.8 0 2.8 1.2 2.8 3c0 .1 0 .3 0 .3c0 0-4.4 0-4.4 0c0 1.1.8 1.8 1.8 1.8c.9 0 1.4-.5 1.6-1.2c0 0 .9.4.9.4zm4.5 1.6l0-8.7l1.1 0l0 8.7l-1.1 0zm3.4-8.6c.5 0 .9.4.9 1c0 1.5-.9 2.1-1.6 2.2c0 0 0-.5 0-.5c.5-.2.9-.7.9-1.3c-.1.1-.1.1-.3.1c-.4 0-.7-.3-.7-.8c0-.4.3-.7.8-.7zm2.4 8.6l0-5.8l1.1 0l0 5.8l-1.1 0zm.5-8.8c.5 0 .8.4.8.9c0 .4-.3.8-.8.8c-.4 0-.8-.4-.8-.8c0-.5.4-.9.8-.9zm3.6 8.8l-1.1 0l0-5.8l1.1 0c0 0 0 .86 0 .9c.4-.8 1.1-1 1.8-1c1.4 0 2 1 2 2.2c.03.05 0 3.7 0 3.7l-1.1 0c0 0 .01-3.46 0-3.5c0-.8-.3-1.4-1.3-1.4c-.9 0-1.4.7-1.4 1.6c.02-.03 0 3.3 0 3.3zm6.3-2.9c0 1.3.8 2 1.8 2c1.1 0 1.4-.7 1.6-1.1c0 0 1 .4 1 .4c-.3.8-1.1 1.8-2.6 1.8c-1.7 0-2.9-1.3-2.9-3.1c0-1.8 1.2-3 2.9-3c1.5 0 2.3.9 2.5 1.8c0 0-1 .4-1 .4c-.1-.5-.6-1.2-1.5-1.2c-1 0-1.8.7-1.8 2zm5.7 2.9l0-8.7l1.1 0l0 8.7l-1.1 0zm6.8-.7c-.3.6-1 .9-1.7.9c-1.4 0-2.2-1-2.2-2.3c.02-.03 0-3.7 0-3.7l1.2 0c0 0-.05 3.5 0 3.5c0 .8.3 1.5 1.3 1.5c.9 0 1.3-.6 1.3-1.5c.03.02 0-3.5 0-3.5l1.2 0c0 0-.04 4.74 0 4.7c0 .5 0 .9 0 1.1c0 0-1.1 0-1.1 0c0-.1 0-.4 0-.7c0 0 0 0 0 0zm3.5-1.2c0 .6.5 1.1 1.3 1.1c.6 0 1-.3 1-.7c0-.4-.3-.7-.8-.8c0 0-.9-.2-.9-.2c-.9-.2-1.5-.8-1.5-1.6c0-1 .9-1.8 2.1-1.8c1.6 0 2 1 2.2 1.5c0 0-1 .4-1 .4c-.1-.3-.3-1-1.2-1c-.6 0-1 .4-1 .8c0 .3.2.6.7.7c0 0 .9.2.9.2c1 .2 1.6.8 1.6 1.7c0 .8-.7 1.8-2.1 1.8c-1.6 0-2.3-1-2.4-1.7c0 0 1.1-.4 1.1-.4zm4.9 1.9l0-5.8l1.1 0l0 5.8l-1.1 0zm.6-8.8c.4 0 .8.4.8.9c0 .4-.4.8-.8.8c-.5 0-.9-.4-.9-.8c0-.5.4-.9.9-.9zm6.7 5.9c0-1.3-.8-2-1.8-2c-1 0-1.8.7-1.8 2c0 1.4.8 2.1 1.8 2.1c1 0 1.8-.7 1.8-2.1zm1.2 0c0 1.8-1.3 3.1-3 3.1c-1.7 0-2.9-1.3-2.9-3.1c0-1.7 1.2-3 2.9-3c1.7 0 3 1.3 3 3zm2.5 2.9l-1.1 0l0-5.8l1.1 0c0 0 0 .86 0 .9c.4-.8 1.1-1 1.8-1c1.4 0 2 1 2 2.2c.04.05 0 3.7 0 3.7l-1.1 0c0 0 .02-3.46 0-3.5c0-.8-.3-1.4-1.3-1.4c-.9 0-1.4.7-1.4 1.6c.03-.03 0 3.3 0 3.3z" stroke="none" fill="#144542"/></g><g id="Polygon184402"><path d="m.9 29.5l0-1l11.4 0l0 1l-11.4 0zm18.6 1.9c1.6 0 2.9-1.1 2.9-3.2c0-2.2-1.3-3.3-2.9-3.3c.02.04-1.7 0-1.7 0l0 6.5c0 0 1.69-.04 1.7 0zm-2.9 1l0-8.5c0 0 2.95 0 3 0c2.1 0 4 1.5 4 4.3c0 2.8-1.9 4.2-4.1 4.2c.03.01-2.9 0-2.9 0zm8.5 0l0-5.8l1.1 0l0 5.8l-1.1 0zm.6-8.8c.4 0 .8.4.8.9c0 .4-.4.8-.8.8c-.5 0-.9-.4-.9-.8c0-.5.4-.9.9-.9zm5.6 4.2c-.1 0-.3-.1-.5-.1c-.9 0-1.5.5-1.5 1.8c-.04.02 0 2.9 0 2.9l-1.2 0l0-5.8l1.1 0c0 0 .04 1.04 0 1c.5-.8 1.2-1.1 1.8-1.1c.1 0 .3.1.3.1c0 0 0 1.2 0 1.2zm5.1 1.1c-.1-.8-.6-1.4-1.6-1.4c-1 0-1.5.7-1.6 1.4c0 0 3.2 0 3.2 0zm1.1 1.9c-.3 1-1.2 1.8-2.6 1.8c-1.5 0-2.9-1.1-2.9-3.1c0-1.8 1.3-3 2.8-3c1.7 0 2.7 1.2 2.7 3c0 .1 0 .3 0 .3c0 0-4.3 0-4.3 0c0 1.1.7 1.8 1.7 1.8c1 0 1.4-.5 1.6-1.2c0 0 1 .4 1 .4zm2.2-1.3c0 1.3.8 2 1.7 2c1.1 0 1.5-.7 1.6-1.1c0 0 1 .4 1 .4c-.3.8-1.1 1.8-2.6 1.8c-1.7 0-2.9-1.3-2.9-3.1c0-1.8 1.3-3 2.9-3c1.5 0 2.3.9 2.6 1.8c0 0-1 .4-1 .4c-.2-.5-.6-1.2-1.6-1.2c-.9 0-1.7.7-1.7 2zm7.2-2.9l1.2 0l0 1.1l-1.2 0c0 0-.05 2.96 0 3c0 .5.2.7.8.7c.1 0 .3 0 .4 0c0 0 0 1 0 1c-.1 0-.4.1-.8.1c-.9 0-1.6-.6-1.6-1.7c.03.02 0-3.1 0-3.1l-1.1 0l0-1.1c0 0 .34.04.3 0c.7 0 .9-.3.9-.9c.02.05 0-.9 0-.9l1.1 0l0 1.8zm5.8 1.2c-.2 0-.4-.1-.5-.1c-1 0-1.6.5-1.6 1.8c.01.02 0 2.9 0 2.9l-1.1 0l0-5.8l1.1 0c0 0-.01 1.04 0 1c.4-.8 1.1-1.1 1.7-1.1c.2 0 .3.1.4.1c0 0 0 1.2 0 1.2zm1.2 4.6l0-5.8l1.1 0l0 5.8l-1.1 0zm.5-8.8c.5 0 .9.4.9.9c0 .4-.4.8-.9.8c-.4 0-.8-.4-.8-.8c0-.5.4-.9.8-.9zm3.2 5.9c0 1.3.8 2 1.8 2c1 0 1.4-.7 1.6-1.1c0 0 1 .4 1 .4c-.3.8-1.1 1.8-2.6 1.8c-1.7 0-3-1.3-3-3.1c0-1.8 1.3-3 2.9-3c1.6 0 2.4.9 2.6 1.8c0 0-1 .4-1 .4c-.2-.5-.6-1.2-1.6-1.2c-.9 0-1.7.7-1.7 2zm9.5-.6c0-.8-.6-1.4-1.6-1.4c-.9 0-1.5.7-1.5 1.4c0 0 3.1 0 3.1 0zm1.1 1.9c-.3 1-1.2 1.8-2.5 1.8c-1.6 0-2.9-1.1-2.9-3.1c0-1.8 1.3-3 2.7-3c1.8 0 2.8 1.2 2.8 3c0 .1 0 .3 0 .3c0 0-4.4 0-4.4 0c0 1.1.8 1.8 1.8 1.8c.9 0 1.4-.5 1.6-1.2c0 0 .9.4.9.4zm4-2.7c0-2.8 2.1-4.4 4.2-4.4c1.9 0 3.3 1.1 3.7 2.7c0 0-1.1.4-1.1.4c-.3-1.3-1.2-2-2.6-2c-1.6 0-3 1.1-3 3.3c0 2.3 1.4 3.4 3 3.4c1.4 0 2.4-.9 2.7-2c0 0 1 .4 1 .4c-.4 1.5-1.8 2.7-3.7 2.7c-2.2 0-4.2-1.6-4.2-4.5zm8.8 2.8c0-1.1.7-1.6 1.7-1.8c0 0 1.6-.2 1.6-.2c.3-.1.4-.2.4-.5c0-.5-.3-1-1.2-1c-.8 0-1.2.5-1.3 1.2c0 0-1.1-.3-1.1-.3c.1-1.1 1.1-1.8 2.4-1.8c1.7 0 2.4.9 2.4 2.1c0 0 0 2.9 0 2.9c0 .5 0 .8 0 .9c0 0-1.1 0-1.1 0c0-.1 0-.3 0-.8c-.3.4-.8 1-1.9 1c-1.2 0-1.9-.8-1.9-1.7c0 0 0 0 0 0zm3.7-1c.05.04 0-.2 0-.2c0 0-1.72.24-1.7.2c-.5.1-.9.4-.9.9c0 .4.4.8 1 .8c.9 0 1.6-.4 1.6-1.7zm2.9 2.5l0-5.8l1.1 0c0 0 0 .8 0 .8c.4-.6 1.1-.9 1.8-.9c.7 0 1.4.3 1.7 1.1c.4-.9 1.2-1.1 1.9-1.1c1 0 2 .7 2 2.2c.01-.04 0 3.7 0 3.7l-1.1 0c0 0-.01-3.62 0-3.6c0-.8-.4-1.3-1.2-1.3c-.8 0-1.4.6-1.4 1.4c.04.02 0 3.5 0 3.5l-1.1 0c0 0 .01-3.62 0-3.6c0-.8-.4-1.3-1.2-1.3c-.8 0-1.4.6-1.4 1.4c.04.03 0 3.5 0 3.5l-1.1 0zm10.3 2.3l0-8.1l1.1 0c0 0 0 .94 0 .9c.3-.5 1-1 1.9-1c1.8 0 2.7 1.3 2.7 3c0 1.7-1 3.1-2.7 3.1c-.9 0-1.6-.5-1.9-1c.02.03 0 3.1 0 3.1l-1.1 0zm4.5-5.2c0-1.1-.6-2-1.7-2c-1 0-1.7.9-1.7 2c0 1.2.7 2.1 1.7 2.1c1.1 0 1.7-.9 1.7-2.1c0 0 0 0 0 0zm6.4 2.2c-.3.6-1.1.9-1.7.9c-1.4 0-2.2-1-2.2-2.3c.01-.03 0-3.7 0-3.7l1.1 0c0 0 .03 3.5 0 3.5c0 .8.4 1.5 1.3 1.5c1 0 1.4-.6 1.4-1.5c.01.02 0-3.5 0-3.5l1.1 0c0 0 .04 4.74 0 4.7c0 .5.1.9.1 1.1c0 0-1.1 0-1.1 0c0-.1 0-.4 0-.7c0 0 0 0 0 0zm3.4-1.2c.1.6.6 1.1 1.4 1.1c.6 0 1-.3 1-.7c0-.4-.3-.7-.8-.8c0 0-1-.2-1-.2c-.9-.2-1.4-.8-1.4-1.6c0-1 .9-1.8 2-1.8c1.6 0 2.1 1 2.2 1.5c0 0-1 .4-1 .4c0-.3-.2-1-1.2-1c-.5 0-.9.4-.9.8c0 .3.2.6.6.7c0 0 1 .2 1 .2c1 .2 1.6.8 1.6 1.7c0 .8-.7 1.8-2.1 1.8c-1.6 0-2.3-1-2.4-1.7c0 0 1-.4 1-.4z" stroke="none" fill="#144542"/></g><g id="Polygon184401"><path d="m.3 7.5l1.3-.3c0 0-.01.86 0 .9c0 1.2.7 1.8 1.6 1.8c1 0 1.6-.6 1.6-1.7c.01-.05 0-6.8 0-6.8l1.3 0c0 0 .03 6.66 0 6.7c0 1.6-1.1 3-2.8 3c-1.9 0-3-1.2-3-3c-.03-.03 0-.6 0-.6zm12.3-.5c0-.9-.6-1.7-1.8-1.7c-1.1 0-1.7.9-1.8 1.7c0 0 3.6 0 3.6 0zm1.3 2.1c-.4 1.1-1.4 2-2.9 2c-1.8 0-3.3-1.2-3.3-3.4c0-2.1 1.5-3.5 3.1-3.5c2 0 3.1 1.4 3.1 3.4c0 .2 0 .4 0 .4c0 0-4.9 0-4.9 0c0 1.2.9 2 2 2c1 0 1.5-.6 1.8-1.3c0 0 1.1.4 1.1.4zm1.2.1c0-1.2.9-1.8 2-2c0 0 1.8-.2 1.8-.2c.4-.1.5-.3.5-.5c0-.7-.5-1.2-1.4-1.2c-.9 0-1.4.6-1.5 1.3c0 0-1.2-.3-1.2-.3c.1-1.2 1.2-2.1 2.6-2.1c2 0 2.7 1.1 2.7 2.4c0 0 0 3.3 0 3.3c0 .5.1.9.1 1c0 0-1.2 0-1.2 0c-.1-.1-.1-.4-.1-.9c-.3.5-.9 1.1-2.1 1.1c-1.3 0-2.2-.9-2.2-1.9c0 0 0 0 0 0zm4.3-1.1c-.04.04 0-.3 0-.3c0 0-2.03.34-2 .3c-.6.1-1 .4-1 1c0 .5.4 1 1.1 1c1 0 1.9-.5 1.9-2zm4.5 2.8l-1.3 0l0-6.5l1.2 0c0 0 .04.96 0 1c.5-.9 1.3-1.2 2-1.2c1.6 0 2.4 1.2 2.4 2.6c-.04 0 0 4.1 0 4.1l-1.3 0c0 0-.01-3.88 0-3.9c0-.9-.4-1.6-1.5-1.6c-1 0-1.5.8-1.5 1.8c-.03-.03 0 3.7 0 3.7zm7.6 0l-1.3 0l0-6.5l1.2 0c0 0 .03.96 0 1c.5-.9 1.3-1.2 2-1.2c1.6 0 2.3 1.2 2.3 2.6c.05 0 0 4.1 0 4.1l-1.2 0c0 0-.02-3.88 0-3.9c0-.9-.4-1.6-1.5-1.6c-1 0-1.5.8-1.5 1.8c-.05-.03 0 3.7 0 3.7zm10.6-3.9c0-.9-.6-1.7-1.7-1.7c-1.1 0-1.8.9-1.8 1.7c0 0 3.5 0 3.5 0zm1.3 2.1c-.3 1.1-1.4 2-2.9 2c-1.7 0-3.3-1.2-3.3-3.4c0-2.1 1.5-3.5 3.2-3.5c1.9 0 3.1 1.4 3.1 3.4c0 .2 0 .4-.1.4c0 0-4.8 0-4.8 0c0 1.2.8 2 1.9 2c1.1 0 1.6-.6 1.8-1.3c0 0 1.1.4 1.1.4zm8.3-7.7c1.8 0 2.9 1 2.9 2.5c0 1.1-.6 1.8-1.4 2.1c1.1.3 1.7 1.2 1.7 2.3c0 1.5-1.2 2.6-3 2.6c.05.02-3.3 0-3.3 0l0-9.5c0 0 3.12-.05 3.1 0zm-.1 4.1c1 0 1.7-.6 1.7-1.5c0-.9-.7-1.5-1.8-1.5c.02.01-1.6 0-1.6 0l0 3c0 0 1.67.04 1.7 0zm.2 4.3c1 0 1.8-.6 1.8-1.6c0-.9-.6-1.5-1.8-1.5c.01-.03-1.9 0-1.9 0l0 3.1c0 0 1.86-.04 1.9 0zm4.3-.6c0-1.2.8-1.8 1.9-2c0 0 1.8-.2 1.8-.2c.4-.1.5-.3.5-.5c0-.7-.4-1.2-1.4-1.2c-.9 0-1.4.6-1.5 1.3c0 0-1.2-.3-1.2-.3c.1-1.2 1.2-2.1 2.6-2.1c2 0 2.7 1.1 2.7 2.4c0 0 0 3.3 0 3.3c0 .5.1.9.1 1c0 0-1.2 0-1.2 0c0-.1-.1-.4-.1-.9c-.3.5-.9 1.1-2.1 1.1c-1.3 0-2.1-.9-2.1-1.9c0 0 0 0 0 0zm4.2-1.1c-.02.04 0-.3 0-.3c0 0-2.01.34-2 .3c-.5.1-1 .4-1 1c0 .5.5 1 1.1 1c1 0 1.9-.5 1.9-2zm3.2 2.8l0-9.8l1.3 0c0 0-.03 4.25 0 4.2c.3-.5 1-1.1 2.1-1.1c2 0 3 1.6 3 3.4c0 2-1.1 3.5-3 3.5c-1 0-1.7-.4-2.1-1.1c-.03-.02 0 .9 0 .9l-1.3 0zm3.2-5.5c-1.1 0-1.9.8-1.9 2.2c0 1.4.8 2.4 1.9 2.4c1.2 0 1.9-1 1.9-2.4c0-1.4-.7-2.2-1.9-2.2zm4.8 5.5l0-6.5l1.3 0l0 6.5l-1.3 0zm.6-9.8c.6 0 1 .4 1 .9c0 .5-.4.9-1 .9c-.5 0-.9-.4-.9-.9c0-.5.4-.9.9-.9zm4.1 9.8l-1.3 0l0-6.5l1.3 0c0 0-.02.96 0 1c.5-.9 1.2-1.2 2-1.2c1.5 0 2.3 1.2 2.3 2.6c0 0 0 4.1 0 4.1l-1.3 0c0 0 .03-3.88 0-3.9c0-.9-.3-1.6-1.5-1.6c-1 0-1.5.8-1.5 1.8c.01-.03 0 3.7 0 3.7zm10.7-3.9c0-.9-.6-1.7-1.8-1.7c-1.1 0-1.7.9-1.8 1.7c0 0 3.6 0 3.6 0zm1.3 2.1c-.4 1.1-1.4 2-2.9 2c-1.8 0-3.3-1.2-3.3-3.4c0-2.1 1.5-3.5 3.1-3.5c2 0 3.1 1.4 3.1 3.4c0 .2 0 .4 0 .4c0 0-4.9 0-4.9 0c0 1.2.9 2 2 2c1 0 1.5-.6 1.8-1.3c0 0 1.1.4 1.1.4zm3.3-4.7l1.4 0l0 1.2l-1.4 0c0 0 .04 3.35 0 3.4c0 .5.3.8.9.8c.2 0 .4 0 .5 0c0 0 0 1.1 0 1.1c-.1 0-.4.1-.8.1c-1.1 0-1.8-.7-1.8-1.9c-.03.04 0-3.5 0-3.5l-1.3 0l0-1.2c0 0 .38.03.4 0c.7 0 1-.4 1-1c-.02.03 0-1 0-1l1.1 0l0 2z" stroke="none" fill="#144542"/></g></svg>