<?xml version="1.0" standalone="no"?><!DOCTYPE svg PUBLIC "-//W3C//DTD SVG 1.1//EN" "http://www.w3.org/Graphics/SVG/1.1/DTD/svg11.dtd"><svg xmlns="http://www.w3.org/2000/svg" version="1.1" width="205px" height="46.6px" viewBox="0 -3 205 46.6" style="top:-3px"><desc>Ils nous ont soutenu via la taxe d’apprentissage*</desc><defs/><g id="Polygon187327"><path d="m3.7 26.2c1.2 0 1.9-1 1.9-2.4c0-1.3-.7-2.2-1.8-2.2c-1.2 0-2 .9-2 2.3c0 1.3.7 2.3 1.9 2.3zm1.9-.1c-.3.7-1 1.2-2 1.2c-1.9 0-3.1-1.5-3.1-3.4c0-1.9 1.3-3.4 3.1-3.4c1.2 0 1.8.5 2 1c0 .05 0-4.2 0-4.2l1.3 0c0 0-.04 8.62 0 8.6c0 .6 0 1.1 0 1.2c0 0-1.2 0-1.2 0c0-.1-.1-.5-.1-.9c0 0 0-.1 0-.1zm3.8-8.7c.5 0 1 .4 1 1.2c0 1.7-1.1 2.4-1.8 2.5c0 0 0-.7 0-.7c.6-.1 1-.7 1-1.3c0 0-.1 0-.3 0c-.4 0-.8-.3-.8-.8c0-.5.4-.9.9-.9zm1.7 8c0-1.2.8-1.8 2-2c0 0 1.7-.2 1.7-.2c.4-.1.5-.3.5-.5c0-.7-.4-1.2-1.4-1.2c-.9 0-1.4.6-1.5 1.3c0 0-1.2-.3-1.2-.3c.2-1.2 1.3-2.1 2.7-2.1c1.9 0 2.7 1.1 2.7 2.4c0 0 0 3.3 0 3.3c0 .5 0 .9.1 1c0 0-1.3 0-1.3 0c0-.1 0-.4 0-.9c-.3.5-1 1.1-2.1 1.1c-1.4 0-2.2-.9-2.2-1.9c0 0 0 0 0 0zm4.2-1.1c.02.04 0-.3 0-.3c0 0-1.96.34-2 .3c-.5.1-.9.4-.9 1c0 .5.4 1 1 1c1.1 0 1.9-.5 1.9-2zm3.3 5.4l0-9.1l1.2 0c0 0-.01 1.04 0 1c.3-.6 1.1-1.1 2.2-1.1c1.9 0 2.9 1.5 2.9 3.4c0 1.9-1.1 3.4-3 3.4c-1 0-1.7-.5-2.1-1.1c.02.04 0 3.5 0 3.5l-1.2 0zm5.1-5.8c0-1.3-.8-2.3-2-2.3c-1.1 0-1.9 1-1.9 2.3c0 1.3.8 2.3 1.9 2.3c1.2 0 2-1 2-2.3c0 0 0 0 0 0zm2.9 5.8l0-9.1l1.2 0c0 0 0 1.04 0 1c.3-.6 1.1-1.1 2.2-1.1c1.9 0 3 1.5 3 3.4c0 1.9-1.2 3.4-3.1 3.4c-1 0-1.7-.5-2.1-1.1c.02.04 0 3.5 0 3.5l-1.2 0zm5.1-5.8c0-1.3-.8-2.3-2-2.3c-1.1 0-1.9 1-1.9 2.3c0 1.3.8 2.3 1.9 2.3c1.2 0 2-1 2-2.3c0 0 0 0 0 0zm6.5-2c-.2 0-.4 0-.6 0c-1 0-1.8.5-1.8 2c.04-.03 0 3.2 0 3.2l-1.2 0l0-6.5l1.2 0c0 0 .01 1.16 0 1.2c.5-1 1.3-1.3 2-1.3c.1 0 .3 0 .4.1c0 0 0 1.3 0 1.3zm5.6 1.3c0-.9-.6-1.7-1.7-1.7c-1.1 0-1.8.9-1.8 1.7c0 0 3.5 0 3.5 0zm1.3 2.1c-.3 1.1-1.4 2-2.9 2c-1.7 0-3.3-1.2-3.3-3.4c0-2.1 1.5-3.5 3.1-3.5c2 0 3.2 1.4 3.2 3.4c0 .2-.1.4-.1.4c0 0-4.9 0-4.9 0c.1 1.2.9 2 2 2c1.1 0 1.6-.6 1.8-1.3c0 0 1.1.4 1.1.4zm2.9 1.8l-1.2 0l0-6.5l1.2 0c0 0 .02.96 0 1c.5-.9 1.3-1.2 2-1.2c1.6 0 2.3 1.2 2.3 2.6c.04 0 0 4.1 0 4.1l-1.2 0c0 0-.03-3.88 0-3.9c0-.9-.4-1.6-1.5-1.6c-1 0-1.6.8-1.6 1.8c.05-.03 0 3.7 0 3.7zm8.1-6.5l1.4 0l0 1.2l-1.4 0c0 0-.04 3.35 0 3.4c0 .5.2.8.9.8c.1 0 .4 0 .5 0c0 0 0 1.1 0 1.1c-.1 0-.5.1-.9.1c-1.1 0-1.8-.7-1.8-1.9c0 .04 0-3.5 0-3.5l-1.2 0l0-1.2c0 0 .31.03.3 0c.7 0 1-.4 1-1c0 .03 0-1 0-1l1.2 0l0 2zm3.1 6.5l0-6.5l1.2 0l0 6.5l-1.2 0zm.6-9.8c.5 0 .9.4.9.9c0 .5-.4.9-.9.9c-.5 0-.9-.4-.9-.9c0-.5.4-.9.9-.9zm3.3 7.7c.1.7.6 1.2 1.5 1.2c.7 0 1.1-.4 1.1-.8c0-.4-.3-.7-.8-.9c0 0-1.1-.2-1.1-.2c-1-.2-1.6-.9-1.6-1.8c0-1.1 1-2.1 2.3-2.1c1.8 0 2.3 1.2 2.4 1.8c0 0-1.1.4-1.1.4c0-.4-.3-1.1-1.3-1.1c-.7 0-1.1.4-1.1.9c0 .4.2.6.7.8c0 0 1.1.2 1.1.2c1.2.2 1.8 1 1.8 1.9c0 .9-.8 2-2.4 2c-1.8 0-2.5-1.1-2.6-1.9c0 0 1.1-.4 1.1-.4zm6.1 0c.1.7.6 1.2 1.5 1.2c.7 0 1.1-.4 1.1-.8c0-.4-.3-.7-.8-.9c0 0-1.1-.2-1.1-.2c-1-.2-1.6-.9-1.6-1.8c0-1.1 1-2.1 2.3-2.1c1.8 0 2.3 1.2 2.4 1.8c0 0-1.1.4-1.1.4c0-.4-.3-1.1-1.3-1.1c-.7 0-1.1.4-1.1.9c0 .4.2.6.7.8c0 0 1.1.2 1.1.2c1.2.2 1.8 1 1.8 1.9c0 .9-.8 2-2.4 2c-1.8 0-2.5-1.1-2.6-1.9c0 0 1.1-.4 1.1-.4zm5 .4c0-1.2.9-1.8 2-2c0 0 1.8-.2 1.8-.2c.4-.1.5-.3.5-.5c0-.7-.5-1.2-1.4-1.2c-.9 0-1.4.6-1.5 1.3c0 0-1.2-.3-1.2-.3c.1-1.2 1.2-2.1 2.6-2.1c2 0 2.7 1.1 2.7 2.4c0 0 0 3.3 0 3.3c0 .5.1.9.1 1c0 0-1.2 0-1.2 0c-.1-.1-.1-.4-.1-.9c-.3.5-.9 1.1-2.1 1.1c-1.3 0-2.2-.9-2.2-1.9c0 0 0 0 0 0zm4.3-1.1c-.04.04 0-.3 0-.3c0 0-2.02.34-2 .3c-.6.1-1 .4-1 1c0 .5.4 1 1.1 1c1 0 1.9-.5 1.9-2zm4 2.9c.1.9.7 1.6 1.7 1.6c1.4 0 2-.7 2-2.1c0 0 0-1 0-1c-.3.6-1 1.1-2 1.1c-1.7 0-3-1.3-3-3.1c0-1.8 1.2-3.2 3-3.2c1 0 1.7.4 2 1c.02.03 0-.9 0-.9l1.3 0c0 0-.02 6.03 0 6c0 1.7-.8 3.3-3.3 3.3c-1.6 0-2.8-1-3-2.4c0 0 1.3-.3 1.3-.3zm3.8-3.5c0-1.3-.8-2.1-1.9-2.1c-1.1 0-1.9.8-1.9 2.1c0 1.2.8 2 1.9 2c1.1 0 1.9-.8 1.9-2zm7.6-.5c0-.9-.7-1.7-1.8-1.7c-1.1 0-1.7.9-1.8 1.7c0 0 3.6 0 3.6 0zm1.3 2.1c-.4 1.1-1.4 2-3 2c-1.7 0-3.2-1.2-3.2-3.4c0-2.1 1.4-3.5 3.1-3.5c2 0 3.1 1.4 3.1 3.4c0 .2 0 .4 0 .4c0 0-4.9 0-4.9 0c0 1.2.9 2 1.9 2c1.1 0 1.6-.6 1.9-1.3c0 0 1.1.4 1.1.4zm3.8-5.9l1.6-.6l.3 1l-1.6.5l1.1 1.4l-.9.7l-1.1-1.5l-1 1.4l-.8-.6l1-1.4l-1.7-.5l.4-1l1.6.6l0-1.8l1.1 0l0 1.8z" stroke="none" fill="#144542"/></g><g id="Polygon187326"><path d="m1.2 10.9l0-9.5l1.4 0l0 9.5l-1.4 0zm3.7 0l0-9.8l1.2 0l0 9.8l-1.2 0zm3.9-2.1c.1.7.6 1.2 1.5 1.2c.8 0 1.1-.4 1.1-.8c0-.4-.2-.7-.8-.9c0 0-1.1-.2-1.1-.2c-1-.2-1.6-.9-1.6-1.8c0-1.1 1-2.1 2.3-2.1c1.8 0 2.3 1.2 2.5 1.8c0 0-1.2.4-1.2.4c0-.4-.3-1.1-1.3-1.1c-.7 0-1.1.4-1.1.9c0 .4.3.6.8.8c0 0 1 .2 1 .2c1.2.2 1.8 1 1.8 1.9c0 .9-.8 2-2.4 2c-1.8 0-2.5-1.1-2.6-1.9c0 0 1.1-.4 1.1-.4zm10.2 2.1l-1.2 0l0-6.5l1.2 0c0 0 .01.96 0 1c.5-.9 1.2-1.2 2-1.2c1.6 0 2.3 1.2 2.3 2.6c.03 0 0 4.1 0 4.1l-1.2 0c0 0-.04-3.88 0-3.9c0-.9-.4-1.6-1.6-1.6c-1 0-1.5.8-1.5 1.8c.03-.03 0 3.7 0 3.7zm11.2-3.2c0-1.5-1-2.3-2.1-2.3c-1 0-2 .8-2 2.3c0 1.5 1 2.3 2 2.3c1.1 0 2.1-.8 2.1-2.3zm1.3 0c0 2-1.4 3.4-3.4 3.4c-1.9 0-3.3-1.4-3.3-3.4c0-2 1.4-3.5 3.3-3.5c2 0 3.4 1.5 3.4 3.5zm5.8 2.4c-.4.7-1.2 1-1.9 1c-1.5 0-2.5-1.1-2.5-2.6c.04.02 0-4.1 0-4.1l1.3 0c0 0 .01 3.93 0 3.9c0 .9.4 1.7 1.5 1.7c1 0 1.5-.7 1.5-1.7c.02.04 0-3.9 0-3.9l1.3 0c0 0-.01 5.32 0 5.3c0 .5 0 1 .1 1.2c0 0-1.3 0-1.3 0c0-.1 0-.5 0-.8c0 0 0 0 0 0zm3.9-1.3c.1.7.6 1.2 1.5 1.2c.7 0 1.1-.4 1.1-.8c0-.4-.3-.7-.8-.9c0 0-1.1-.2-1.1-.2c-1-.2-1.7-.9-1.7-1.8c0-1.1 1.1-2.1 2.4-2.1c1.7 0 2.3 1.2 2.4 1.8c0 0-1.1.4-1.1.4c-.1-.4-.3-1.1-1.3-1.1c-.7 0-1.1.4-1.1.9c0 .4.2.6.7.8c0 0 1.1.2 1.1.2c1.1.2 1.8 1 1.8 1.9c0 .9-.8 2-2.4 2c-1.8 0-2.6-1.1-2.7-1.9c0 0 1.2-.4 1.2-.4zm13.7-1.1c0-1.5-.9-2.3-2-2.3c-1.1 0-2 .8-2 2.3c0 1.5.9 2.3 2 2.3c1.1 0 2-.8 2-2.3zm1.3 0c0 2-1.3 3.4-3.3 3.4c-1.9 0-3.3-1.4-3.3-3.4c0-2 1.4-3.5 3.3-3.5c2 0 3.3 1.5 3.3 3.5zm2.9 3.2l-1.3 0l0-6.5l1.3 0c0 0-.01.96 0 1c.5-.9 1.2-1.2 2-1.2c1.5 0 2.3 1.2 2.3 2.6c.01 0 0 4.1 0 4.1l-1.3 0c0 0 .04-3.88 0-3.9c0-.9-.3-1.6-1.5-1.6c-1 0-1.5.8-1.5 1.8c.02-.03 0 3.7 0 3.7zm8-6.5l1.4 0l0 1.2l-1.4 0c0 0 .03 3.35 0 3.4c0 .5.3.8.9.8c.2 0 .4 0 .5 0c0 0 0 1.1 0 1.1c-.1 0-.4.1-.8.1c-1.1 0-1.8-.7-1.8-1.9c-.03.04 0-3.5 0-3.5l-1.3 0l0-1.2c0 0 .38.03.4 0c.7 0 1-.4 1-1c-.03.03 0-1 0-1l1.1 0l0 2zm7 4.4c.1.7.6 1.2 1.6 1.2c.7 0 1.1-.4 1.1-.8c0-.4-.3-.7-.9-.9c0 0-1.1-.2-1.1-.2c-1-.2-1.6-.9-1.6-1.8c0-1.1 1-2.1 2.3-2.1c1.8 0 2.3 1.2 2.5 1.8c0 0-1.1.4-1.1.4c-.1-.4-.4-1.1-1.4-1.1c-.6 0-1.1.4-1.1.9c0 .4.3.6.8.8c0 0 1 .2 1 .2c1.2.2 1.8 1 1.8 1.9c0 .9-.8 2-2.4 2c-1.7 0-2.5-1.1-2.6-1.9c0 0 1.1-.4 1.1-.4zm10.3-1.1c0-1.5-.9-2.3-2-2.3c-1.1 0-2 .8-2 2.3c0 1.5.9 2.3 2 2.3c1.1 0 2-.8 2-2.3zm1.3 0c0 2-1.3 3.4-3.3 3.4c-1.9 0-3.3-1.4-3.3-3.4c0-2 1.4-3.5 3.3-3.5c2 0 3.3 1.5 3.3 3.5zm5.9 2.4c-.4.7-1.2 1-1.9 1c-1.6 0-2.5-1.1-2.5-2.6c.02.02 0-4.1 0-4.1l1.3 0c0 0-.01 3.93 0 3.9c0 .9.4 1.7 1.5 1.7c1 0 1.5-.7 1.5-1.7c0 .04 0-3.9 0-3.9l1.3 0c0 0-.03 5.32 0 5.3c0 .5 0 1 0 1.2c0 0-1.2 0-1.2 0c0-.1 0-.5 0-.8c0 0 0 0 0 0zm5-5.7l1.4 0l0 1.2l-1.4 0c0 0 .03 3.35 0 3.4c0 .5.3.8.9.8c.2 0 .4 0 .5 0c0 0 0 1.1 0 1.1c-.1 0-.4.1-.8.1c-1.1 0-1.8-.7-1.8-1.9c-.04.04 0-3.5 0-3.5l-1.3 0l0-1.2c0 0 .37.03.4 0c.7 0 1-.4 1-1c-.03.03 0-1 0-1l1.1 0l0 2zm7.4 2.6c0-.9-.6-1.7-1.8-1.7c-1 0-1.7.9-1.7 1.7c0 0 3.5 0 3.5 0zm1.3 2.1c-.4 1.1-1.4 2-2.9 2c-1.7 0-3.3-1.2-3.3-3.4c0-2.1 1.5-3.5 3.1-3.5c2 0 3.2 1.4 3.2 3.4c0 .2-.1.4-.1.4c0 0-4.9 0-4.9 0c.1 1.2.9 2 2 2c1.1 0 1.6-.6 1.8-1.3c0 0 1.1.4 1.1.4zm2.9 1.8l-1.2 0l0-6.5l1.2 0c0 0 .01.96 0 1c.5-.9 1.3-1.2 2-1.2c1.6 0 2.3 1.2 2.3 2.6c.03 0 0 4.1 0 4.1l-1.2 0c0 0-.03-3.88 0-3.9c0-.9-.4-1.6-1.5-1.6c-1 0-1.6.8-1.6 1.8c.04-.03 0 3.7 0 3.7zm10.5-.8c-.3.7-1.2 1-1.9 1c-1.5 0-2.4-1.1-2.4-2.6c-.04.02 0-4.1 0-4.1l1.2 0c0 0 .03 3.93 0 3.9c0 .9.4 1.7 1.5 1.7c1 0 1.5-.7 1.5-1.7c.04.04 0-3.9 0-3.9l1.3 0c0 0 .01 5.32 0 5.3c0 .5 0 1 .1 1.2c0 0-1.2 0-1.2 0c-.1-.1-.1-.5-.1-.8c0 0 0 0 0 0zm9.7.8l-1.3 0l-2.6-6.5l1.4 0l1.9 5l1.8-5l1.4 0l-2.6 6.5zm3.8 0l0-6.5l1.3 0l0 6.5l-1.3 0zm.6-9.8c.6 0 1 .4 1 .9c0 .5-.4.9-1 .9c-.5 0-.9-.4-.9-.9c0-.5.4-.9.9-.9zm2.4 8.1c0-1.2.9-1.8 2-2c0 0 1.8-.2 1.8-.2c.3-.1.5-.3.5-.5c0-.7-.5-1.2-1.4-1.2c-.9 0-1.4.6-1.5 1.3c0 0-1.2-.3-1.2-.3c.1-1.2 1.2-2.1 2.6-2.1c2 0 2.7 1.1 2.7 2.4c0 0 0 3.3 0 3.3c0 .5.1.9.1 1c0 0-1.2 0-1.2 0c-.1-.1-.1-.4-.1-.9c-.3.5-.9 1.1-2.1 1.1c-1.3 0-2.2-.9-2.2-1.9c0 0 0 0 0 0zm4.3-1.1c-.04.04 0-.3 0-.3c0 0-2.03.34-2 .3c-.6.1-1 .4-1 1c0 .5.4 1 1.1 1c1 0 1.9-.5 1.9-2zm6.6 2.8l0-9.8l1.2 0l0 9.8l-1.2 0zm3-1.7c0-1.2.8-1.8 2-2c0 0 1.7-.2 1.7-.2c.4-.1.5-.3.5-.5c0-.7-.4-1.2-1.4-1.2c-.9 0-1.4.6-1.5 1.3c0 0-1.2-.3-1.2-.3c.2-1.2 1.3-2.1 2.7-2.1c1.9 0 2.7 1.1 2.7 2.4c0 0 0 3.3 0 3.3c0 .5 0 .9.1 1c0 0-1.3 0-1.3 0c0-.1 0-.4 0-.9c-.3.5-1 1.1-2.1 1.1c-1.4 0-2.2-.9-2.2-1.9c0 0 0 0 0 0zm4.2-1.1c.02.04 0-.3 0-.3c0 0-1.97.34-2 .3c-.5.1-.9.4-.9 1c0 .5.4 1 1 1c1.1 0 1.9-.5 1.9-2zm8.3-3.7l1.4 0l0 1.2l-1.4 0c0 0 .03 3.35 0 3.4c0 .5.3.8.9.8c.2 0 .4 0 .5 0c0 0 0 1.1 0 1.1c-.1 0-.4.1-.8.1c-1.1 0-1.8-.7-1.8-1.9c-.03.04 0-3.5 0-3.5l-1.3 0l0-1.2c0 0 .38.03.4 0c.7 0 1-.4 1-1c-.03.03 0-1 0-1l1.1 0l0 2zm2.7 4.8c0-1.2.9-1.8 2-2c0 0 1.7-.2 1.7-.2c.4-.1.5-.3.5-.5c0-.7-.4-1.2-1.4-1.2c-.8 0-1.3.6-1.4 1.3c0 0-1.2-.3-1.2-.3c.1-1.2 1.2-2.1 2.6-2.1c2 0 2.7 1.1 2.7 2.4c0 0 0 3.3 0 3.3c0 .5.1.9.1 1c0 0-1.2 0-1.2 0c-.1-.1-.1-.4-.1-.9c-.3.5-.9 1.1-2.1 1.1c-1.3 0-2.2-.9-2.2-1.9c0 0 0 0 0 0zm4.2-1.1c.05.04 0-.3 0-.3c0 0-1.94.34-1.9.3c-.6.1-1 .4-1 1c0 .5.4 1 1.1 1c1 0 1.8-.5 1.8-2zm4.8-.5l-2.4-3.2l1.6 0l1.6 2.3l1.5-2.3l1.5 0c0 0-2.29 3.21-2.3 3.2c.4.5 2 2.8 2.4 3.3c0 .02-1.5 0-1.5 0l-1.7-2.4l-1.6 2.4l-1.6 0l2.5-3.3zm9.4-.6c-.1-.9-.7-1.7-1.8-1.7c-1.1 0-1.7.9-1.8 1.7c0 0 3.6 0 3.6 0zm1.2 2.1c-.3 1.1-1.4 2-2.9 2c-1.7 0-3.2-1.2-3.2-3.4c0-2.1 1.4-3.5 3.1-3.5c2 0 3.1 1.4 3.1 3.4c0 .2 0 .4-.1.4c0 0-4.8 0-4.8 0c0 1.2.8 2 1.9 2c1.1 0 1.6-.6 1.8-1.3c0 0 1.1.4 1.1.4z" stroke="none" fill="#144542"/></g></svg>