<?xml version="1.0" standalone="no"?><!DOCTYPE svg PUBLIC "-//W3C//DTD SVG 1.1//EN" "http://www.w3.org/Graphics/SVG/1.1/DTD/svg11.dtd"><svg xmlns="http://www.w3.org/2000/svg" version="1.1" width="27px" height="20.6px" viewBox="0 -3 27 20.6" style="top:-3px"><desc>+ de</desc><defs/><g id="Polygon181525"><path d="m3.2 6.3l0-2.6l1.4 0l0 2.6l2.5 0l0 1.3l-2.5 0l0 2.7l-1.4 0l0-2.7l-2.5 0l0-1.3l2.5 0zm11.8 3.4c1 0 1.7-.8 1.7-2.1c0-1.3-.7-2-1.7-2c-1 0-1.8.8-1.8 2c0 1.3.7 2.1 1.8 2.1zm3.3 0c0 .6 0 1.1 0 1.2c0 0-1.5 0-1.5 0c0-.1 0-.6 0-.8c-.4.5-1 1-2 1c-1.9 0-3.1-1.5-3.1-3.5c0-1.9 1.2-3.4 3.1-3.4c1.1 0 1.7.5 1.9.9c.03.02 0-4 0-4l1.6 0c0 0-.05 8.62 0 8.6zm6.3-2.8c0-.8-.5-1.4-1.6-1.4c-1 0-1.5.7-1.6 1.4c0 0 3.2 0 3.2 0zm1.5 2.1c-.3 1.2-1.4 2.1-2.9 2.1c-1.8 0-3.4-1.3-3.4-3.5c0-2.1 1.5-3.5 3.2-3.5c2 0 3.2 1.4 3.2 3.5c0 .2 0 .4 0 .5c0 0-4.8 0-4.8 0c0 1 .8 1.7 1.8 1.7c.9 0 1.4-.5 1.6-1.2c0 0 1.3.4 1.3.4z" stroke="none" fill="#ffaf7a"/></g></svg>