<?xml version="1.0" standalone="no"?><!DOCTYPE svg PUBLIC "-//W3C//DTD SVG 1.1//EN" "http://www.w3.org/Graphics/SVG/1.1/DTD/svg11.dtd"><svg xmlns="http://www.w3.org/2000/svg" version="1.1" width="167.1px" height="49px" viewBox="0 -3 167.1 49" style="top:-3px"><desc>des apprenants d clarent tre plus satisfaits avec les liens sociaux cr s en France apr s la formation</desc><defs/><g id="Polygon182885"><path d="m3.8 31.2c0 1.1.7 1.7 1.5 1.7c1 0 1.3-.6 1.4-1c0 0 .9.4.9.4c-.2.7-1 1.6-2.3 1.6c-1.4 0-2.5-1.2-2.5-2.7c0-1.6 1.1-2.7 2.5-2.7c1.4 0 2.1.8 2.3 1.6c0 0-.9.4-.9.4c-.1-.5-.5-1.1-1.4-1.1c-.8 0-1.5.6-1.5 1.8zm7.8-1.6c-.2 0-.3 0-.5 0c-.8 0-1.3.5-1.3 1.6c-.04-.04 0 2.5 0 2.5l-1 0l0-5.1l.9 0c0 0 .03.93 0 .9c.4-.8 1-.9 1.5-.9c.2 0 .3 0 .4 0c0 0 0 1 0 1zm4.4 1.1c0-.8-.5-1.3-1.4-1.3c-.8 0-1.3.6-1.4 1.3c0 0 2.8 0 2.8 0zm1 1.6c-.3.8-1.1 1.6-2.3 1.6c-1.4 0-2.5-1-2.5-2.7c0-1.6 1.1-2.7 2.4-2.7c1.5 0 2.4 1.1 2.4 2.6c0 .2 0 .3 0 .3c0 0-3.8 0-3.8 0c0 1 .7 1.6 1.5 1.6c.8 0 1.2-.5 1.4-1c0 0 .9.3.9.3zm-2-4.3l-.9 0l1-1.5l1.2 0l-1.3 1.5zm6.7 2.7c-.1-.8-.5-1.3-1.4-1.3c-.9 0-1.4.6-1.4 1.3c0 0 2.8 0 2.8 0zm1 1.6c-.3.8-1.1 1.6-2.3 1.6c-1.4 0-2.5-1-2.5-2.7c0-1.6 1.1-2.7 2.4-2.7c1.5 0 2.4 1.1 2.4 2.6c0 .2 0 .3 0 .3c0 0-3.8 0-3.8 0c0 1 .6 1.6 1.5 1.6c.8 0 1.2-.5 1.4-1c0 0 .9.3.9.3zm-2-4.3l-.9 0l.9-1.5l1.3 0l-1.3 1.5zm3.7 4.1c0 .5.4.9 1.1.9c.6 0 .9-.3.9-.7c0-.3-.2-.5-.6-.6c0 0-.9-.2-.9-.2c-.8-.2-1.3-.7-1.3-1.4c0-.9.8-1.6 1.8-1.6c1.4 0 1.8.9 2 1.3c0 0-.9.4-.9.4c-.1-.3-.3-.9-1.1-.9c-.5 0-.8.4-.8.7c0 .3.2.5.6.6c0 0 .8.2.8.2c.9.2 1.4.7 1.4 1.5c0 .7-.6 1.6-1.9 1.6c-1.3 0-1.9-.9-2-1.5c0 0 .9-.3.9-.3zm10.3-1.4c0-.8-.5-1.3-1.4-1.3c-.8 0-1.3.6-1.3 1.3c0 0 2.7 0 2.7 0zm1 1.6c-.3.8-1.1 1.6-2.2 1.6c-1.4 0-2.6-1-2.6-2.7c0-1.6 1.2-2.7 2.4-2.7c1.6 0 2.5 1.1 2.5 2.6c0 .2-.1.3-.1.3c0 0-3.8 0-3.8 0c.1 1 .7 1.6 1.6 1.6c.8 0 1.2-.5 1.4-1c0 0 .8.3.8.3zm2.3 1.4l-1 0l0-5.1l1 0c0 0-.02.77 0 .8c.3-.7.9-.9 1.5-.9c1.2 0 1.8.9 1.8 2c.04-.01 0 3.2 0 3.2l-.9 0c0 0-.05-3.04 0-3c0-.7-.3-1.3-1.2-1.3c-.8 0-1.2.6-1.2 1.4c0-.03 0 2.9 0 2.9zm7.6 0l0-7.4l4.6 0l0 .9l-3.5 0l0 2.4l3.1 0l0 1l-3.1 0l0 3.1l-1.1 0zm8.3-4.1c-.2 0-.3 0-.5 0c-.8 0-1.4.5-1.4 1.6c.05-.04 0 2.5 0 2.5l-.9 0l0-5.1l.9 0c0 0 .03.93 0 .9c.4-.8 1-.9 1.5-.9c.2 0 .3 0 .4 0c0 0 0 1 0 1zm.7 2.7c0-.9.7-1.4 1.5-1.5c0 0 1.4-.2 1.4-.2c.3 0 .4-.2.4-.4c0-.5-.3-.9-1.1-.9c-.7 0-1.1.5-1.1 1c0 0-1-.2-1-.2c.1-.9 1-1.6 2.1-1.6c1.5 0 2.1.8 2.1 1.8c0 0 0 2.6 0 2.6c0 .4 0 .7 0 .8c0 0-.9 0-.9 0c0-.1-.1-.3-.1-.7c-.2.4-.7.9-1.6.9c-1 0-1.7-.8-1.7-1.6c0 0 0 0 0 0zm3.3-.8c-.01.03 0-.2 0-.2c0 0-1.56.23-1.6.2c-.4.1-.7.3-.7.8c0 .4.3.7.8.7c.8 0 1.5-.4 1.5-1.5zm3.5 2.2l-1 0l0-5.1l1 0c0 0-.03.77 0 .8c.3-.7.9-.9 1.5-.9c1.2 0 1.8.9 1.8 2c.03-.01 0 3.2 0 3.2l-1 0c0 0 .05-3.04 0-3c0-.7-.2-1.3-1.1-1.3c-.8 0-1.2.6-1.2 1.4c-.01-.03 0 2.9 0 2.9zm5.5-2.5c0 1.1.7 1.7 1.5 1.7c1 0 1.3-.6 1.4-1c0 0 .9.4.9.4c-.2.7-.9 1.6-2.3 1.6c-1.4 0-2.5-1.2-2.5-2.7c0-1.6 1.1-2.7 2.5-2.7c1.4 0 2.1.8 2.3 1.6c0 0-.9.4-.9.4c-.1-.5-.5-1.1-1.4-1.1c-.8 0-1.5.6-1.5 1.8zm8.3-.5c0-.8-.5-1.3-1.4-1.3c-.8 0-1.3.6-1.3 1.3c0 0 2.7 0 2.7 0zm1 1.6c-.3.8-1.1 1.6-2.2 1.6c-1.4 0-2.6-1-2.6-2.7c0-1.6 1.2-2.7 2.4-2.7c1.6 0 2.5 1.1 2.5 2.6c0 .2-.1.3-.1.3c0 0-3.8 0-3.8 0c.1 1 .7 1.6 1.6 1.6c.8 0 1.2-.5 1.4-1c0 0 .8.3.8.3zm3.6 0c0-.9.7-1.4 1.6-1.5c0 0 1.3-.2 1.3-.2c.3 0 .4-.2.4-.4c0-.5-.3-.9-1.1-.9c-.7 0-1.1.5-1.1 1c0 0-1-.2-1-.2c.1-.9 1-1.6 2.1-1.6c1.5 0 2.1.8 2.1 1.8c0 0 0 2.6 0 2.6c0 .4 0 .7.1.8c0 0-1 0-1 0c0-.1-.1-.3-.1-.7c-.2.4-.7.9-1.6.9c-1 0-1.7-.8-1.7-1.6c0 0 0 0 0 0zm3.3-.8c.01.03 0-.2 0-.2c0 0-1.54.23-1.5.2c-.5.1-.8.3-.8.8c0 .4.3.7.8.7c.9 0 1.5-.4 1.5-1.5zm2.5 4.2l0-7.1l1 0c0 0-.02.83 0 .8c.3-.5.9-.9 1.7-.9c1.5 0 2.3 1.2 2.3 2.7c0 1.5-.9 2.6-2.4 2.6c-.7 0-1.3-.3-1.6-.8c0 .01 0 2.7 0 2.7l-1 0zm4-4.5c0-1-.6-1.8-1.5-1.8c-.9 0-1.5.8-1.5 1.8c0 1 .6 1.7 1.5 1.7c.9 0 1.5-.7 1.5-1.7c0 0 0 0 0 0zm5.1-1.6c-.2 0-.3 0-.5 0c-.8 0-1.4.5-1.4 1.6c.04-.04 0 2.5 0 2.5l-.9 0l0-5.1l.9 0c0 0 .02.93 0 .9c.4-.8 1-.9 1.5-.9c.2 0 .3 0 .4 0c0 0 0 1 0 1zm4.4 1.1c-.1-.8-.5-1.3-1.4-1.3c-.9 0-1.4.6-1.4 1.3c0 0 2.8 0 2.8 0zm1 1.6c-.3.8-1.1 1.6-2.3 1.6c-1.4 0-2.6-1-2.6-2.7c0-1.6 1.2-2.7 2.5-2.7c1.5 0 2.4 1.1 2.4 2.6c0 .2 0 .3 0 .3c0 0-3.8 0-3.8 0c0 1 .6 1.6 1.5 1.6c.8 0 1.2-.5 1.4-1c0 0 .9.3.9.3zm-4-5.8l1.3 0l.9 1.5l-.9 0l-1.3-1.5zm5.7 5.6c0 .5.4.9 1.1.9c.6 0 .9-.3.9-.7c0-.3-.2-.5-.6-.6c0 0-.9-.2-.9-.2c-.8-.2-1.3-.7-1.3-1.4c0-.9.8-1.6 1.8-1.6c1.4 0 1.8.9 1.9 1.3c0 0-.8.4-.8.4c-.1-.3-.3-.9-1.1-.9c-.5 0-.8.4-.8.7c0 .3.2.5.6.6c0 0 .8.2.8.2c.9.2 1.4.7 1.4 1.5c0 .7-.6 1.6-1.9 1.6c-1.4 0-1.9-.9-2-1.5c0 0 .9-.3.9-.3zm6.9 1.6l0-7.6l1 0l0 7.6l-1 0zm2.4-1.4c0-.9.6-1.4 1.5-1.5c0 0 1.4-.2 1.4-.2c.3 0 .4-.2.4-.4c0-.5-.4-.9-1.1-.9c-.7 0-1.1.5-1.2 1c0 0-.9-.2-.9-.2c.1-.9 1-1.6 2-1.6c1.6 0 2.1.8 2.1 1.8c0 0 0 2.6 0 2.6c0 .4.1.7.1.8c0 0-1 0-1 0c0-.1 0-.3 0-.7c-.2.4-.7.9-1.6.9c-1.1 0-1.7-.8-1.7-1.6c0 0 0 0 0 0zm3.3-.8c-.04.03 0-.2 0-.2c0 0-1.59.23-1.6.2c-.4.1-.7.3-.7.8c0 .4.3.7.8.7c.8 0 1.5-.4 1.5-1.5zm6.4-2l0 4.2l-1 0l0-4.2l-.9 0l0-.9l.9 0c0 0 .01-.81 0-.8c0-1.1.8-1.7 1.7-1.7c.3 0 .5 0 .6.1c0 0 0 .8 0 .8c-.1 0-.2 0-.5 0c-.3 0-.8.2-.8.8c.02.05 0 .8 0 .8l1.2 0l0 .9l-1.2 0zm5.8 1.7c0-1.2-.7-1.8-1.5-1.8c-.9 0-1.6.6-1.6 1.8c0 1.1.7 1.8 1.6 1.8c.8 0 1.5-.7 1.5-1.8zm1 0c0 1.5-1 2.7-2.5 2.7c-1.6 0-2.6-1.2-2.6-2.7c0-1.6 1-2.7 2.6-2.7c1.5 0 2.5 1.1 2.5 2.7zm4.1-1.6c-.1 0-.3 0-.4 0c-.9 0-1.4.5-1.4 1.6c-.02-.04 0 2.5 0 2.5l-1 0l0-5.1l1 0c0 0-.04.93 0 .9c.3-.8 1-.9 1.5-.9c.1 0 .2 0 .3 0c0 0 0 1 0 1zm1.1 4.1l0-5.1l.9 0c0 0 0 .72 0 .7c.3-.5.9-.8 1.5-.8c.7 0 1.3.3 1.5 1c.4-.8 1.1-1 1.7-1c.9 0 1.8.6 1.8 1.9c-.03.02 0 3.3 0 3.3l-1 0c0 0 0-3.18 0-3.2c0-.6-.3-1.1-1.1-1.1c-.7 0-1.1.5-1.1 1.2c-.04.04 0 3.1 0 3.1l-1 0c0 0-.02-3.18 0-3.2c0-.6-.3-1.1-1.1-1.1c-.7 0-1.2.5-1.2 1.2c.03.05 0 3.1 0 3.1l-.9 0zm8.6-1.4c0-.9.7-1.4 1.6-1.5c0 0 1.3-.2 1.3-.2c.3 0 .4-.2.4-.4c0-.5-.3-.9-1.1-.9c-.7 0-1.1.5-1.1 1c0 0-1-.2-1-.2c.1-.9 1-1.6 2.1-1.6c1.5 0 2.1.8 2.1 1.8c0 0 0 2.6 0 2.6c0 .4 0 .7.1.8c0 0-1 0-1 0c0-.1 0-.3 0-.7c-.3.4-.8.9-1.7.9c-1 0-1.7-.8-1.7-1.6c0 0 0 0 0 0zm3.3-.8c.02.03 0-.2 0-.2c0 0-1.52.23-1.5.2c-.4.1-.8.3-.8.8c0 .4.4.7.9.7c.8 0 1.4-.4 1.4-1.5zm3.9-2.9l1.1 0l0 .9l-1.1 0c0 0-.04 2.66 0 2.7c0 .4.2.7.7.7c.1 0 .3-.1.4-.1c0 0 0 .9 0 .9c-.1 0-.4 0-.7 0c-.9 0-1.4-.5-1.4-1.4c-.02.01 0-2.8 0-2.8l-1 0l0-.9c0 0 .29.04.3 0c.5 0 .8-.3.8-.7c-.04-.03 0-.9 0-.9l.9 0l0 1.6zm2.4 5.1l0-5.1l.9 0l0 5.1l-.9 0zm.5-7.7c.4 0 .7.3.7.7c0 .4-.3.7-.7.7c-.4 0-.8-.3-.8-.7c0-.4.4-.7.8-.7zm5.9 5.2c0-1.2-.8-1.8-1.6-1.8c-.9 0-1.6.6-1.6 1.8c0 1.1.7 1.8 1.6 1.8c.8 0 1.6-.7 1.6-1.8zm1 0c0 1.5-1.1 2.7-2.6 2.7c-1.5 0-2.6-1.2-2.6-2.7c0-1.6 1.1-2.7 2.6-2.7c1.5 0 2.6 1.1 2.6 2.7zm2.2 2.5l-1 0l0-5.1l1 0c0 0 0 .77 0 .8c.4-.7 1-.9 1.6-.9c1.2 0 1.8.9 1.8 2c-.04-.01 0 3.2 0 3.2l-1 0c0 0-.03-3.04 0-3c0-.7-.3-1.3-1.2-1.3c-.8 0-1.2.6-1.2 1.4c.02-.03 0 2.9 0 2.9z" stroke="none" fill="#144542"/></g><g id="Polygon182884"><path d="m12.8 19.5c.1.5.5.9 1.2.9c.6 0 .9-.3.9-.7c0-.3-.3-.5-.7-.6c0 0-.8-.2-.8-.2c-.8-.2-1.3-.7-1.3-1.4c0-.9.8-1.6 1.8-1.6c1.4 0 1.8.9 1.9 1.3c0 0-.9.4-.9.4c0-.3-.2-.9-1-.9c-.5 0-.8.4-.8.7c0 .3.1.5.5.6c0 0 .8.2.8.2c1 .2 1.4.7 1.4 1.5c0 .7-.6 1.6-1.8 1.6c-1.4 0-2-.9-2.1-1.5c0 0 .9-.3.9-.3zm3.9.2c0-.9.7-1.4 1.6-1.5c0 0 1.3-.2 1.3-.2c.3 0 .4-.2.4-.4c0-.5-.3-.9-1.1-.9c-.7 0-1 .5-1.1 1c0 0-1-.2-1-.2c.1-.9 1-1.6 2.1-1.6c1.5 0 2.1.8 2.1 1.8c0 0 0 2.6 0 2.6c0 .4.1.7.1.8c0 0-1 0-1 0c0-.1 0-.3 0-.7c-.3.4-.8.9-1.7.9c-1 0-1.7-.8-1.7-1.6c0 0 0 0 0 0zm3.3-.8c.03.03 0-.2 0-.2c0 0-1.52.23-1.5.2c-.4.1-.8.3-.8.8c0 .4.4.7.9.7c.8 0 1.4-.4 1.4-1.5zm3.9-2.9l1.1 0l0 .9l-1.1 0c0 0-.03 2.66 0 2.7c0 .4.2.7.7.7c.1 0 .3-.1.4-.1c0 0 0 .9 0 .9c-.1 0-.4 0-.7 0c-.9 0-1.4-.5-1.4-1.4c-.02.01 0-2.8 0-2.8l-1 0l0-.9c0 0 .29.04.3 0c.5 0 .8-.3.8-.7c-.03-.03 0-.9 0-.9l.9 0l0 1.6zm2.4 5.1l0-5.1l.9 0l0 5.1l-.9 0zm.5-7.7c.4 0 .7.3.7.7c0 .4-.3.7-.7.7c-.4 0-.7-.3-.7-.7c0-.4.3-.7.7-.7zm2.5 6.1c.1.5.5.9 1.2.9c.6 0 .9-.3.9-.7c0-.3-.2-.5-.7-.6c0 0-.8-.2-.8-.2c-.8-.2-1.3-.7-1.3-1.4c0-.9.8-1.6 1.8-1.6c1.4 0 1.8.9 1.9 1.3c0 0-.8.4-.8.4c-.1-.3-.3-.9-1.1-.9c-.5 0-.8.4-.8.7c0 .3.2.5.5.6c0 0 .9.2.9.2c.9.2 1.4.7 1.4 1.5c0 .7-.6 1.6-1.9 1.6c-1.4 0-2-.9-2-1.5c0 0 .8-.3.8-.3zm5.7-2.6l0 4.2l-1 0l0-4.2l-1 0l0-.9l1 0c0 0-.02-.81 0-.8c0-1.1.7-1.7 1.6-1.7c.4 0 .6 0 .6.1c0 0 0 .8 0 .8c0 0-.2 0-.4 0c-.4 0-.8.2-.8.8c0 .05 0 .8 0 .8l1.2 0l0 .9l-1.2 0zm1.8 2.8c0-.9.7-1.4 1.5-1.5c0 0 1.4-.2 1.4-.2c.3 0 .4-.2.4-.4c0-.5-.3-.9-1.1-.9c-.7 0-1.1.5-1.1 1c0 0-1-.2-1-.2c.1-.9 1-1.6 2.1-1.6c1.5 0 2.1.8 2.1 1.8c0 0 0 2.6 0 2.6c0 .4 0 .7 0 .8c0 0-.9 0-.9 0c0-.1-.1-.3-.1-.7c-.2.4-.7.9-1.6.9c-1 0-1.7-.8-1.7-1.6c0 0 0 0 0 0zm3.3-.8c-.01.03 0-.2 0-.2c0 0-1.55.23-1.6.2c-.4.1-.7.3-.7.8c0 .4.3.7.8.7c.8 0 1.5-.4 1.5-1.5zm2.5 2.2l0-5.1l1 0l0 5.1l-1 0zm.5-7.7c.4 0 .7.3.7.7c0 .4-.3.7-.7.7c-.4 0-.7-.3-.7-.7c0-.4.3-.7.7-.7zm3.5 2.6l1.1 0l0 .9l-1.1 0c0 0-.01 2.66 0 2.7c0 .4.2.7.7.7c.1 0 .3-.1.4-.1c0 0 0 .9 0 .9c-.1 0-.4 0-.7 0c-.9 0-1.4-.5-1.4-1.4c0 .01 0-2.8 0-2.8l-1 0l0-.9c0 0 .31.04.3 0c.6 0 .8-.3.8-.7c-.01-.03 0-.9 0-.9l.9 0l0 1.6zm2.9 3.5c0 .5.4.9 1.1.9c.6 0 .9-.3.9-.7c0-.3-.2-.5-.6-.6c0 0-.9-.2-.9-.2c-.8-.2-1.3-.7-1.3-1.4c0-.9.8-1.6 1.8-1.6c1.4 0 1.8.9 1.9 1.3c0 0-.8.4-.8.4c-.1-.3-.3-.9-1.1-.9c-.5 0-.8.4-.8.7c0 .3.2.5.6.6c0 0 .8.2.8.2c.9.2 1.4.7 1.4 1.5c0 .7-.6 1.6-1.9 1.6c-1.4 0-1.9-.9-2-1.5c0 0 .9-.3.9-.3zm6.6.2c0-.9.7-1.4 1.5-1.5c0 0 1.4-.2 1.4-.2c.3 0 .4-.2.4-.4c0-.5-.3-.9-1.1-.9c-.7 0-1.1.5-1.1 1c0 0-1-.2-1-.2c.1-.9 1-1.6 2.1-1.6c1.5 0 2.1.8 2.1 1.8c0 0 0 2.6 0 2.6c0 .4 0 .7 0 .8c0 0-.9 0-.9 0c0-.1-.1-.3-.1-.7c-.2.4-.7.9-1.6.9c-1 0-1.7-.8-1.7-1.6c0 0 0 0 0 0zm3.3-.8c-.01.03 0-.2 0-.2c0 0-1.56.23-1.6.2c-.4.1-.7.3-.7.8c0 .4.3.7.8.7c.8 0 1.5-.4 1.5-1.5zm4.8 2.2l-1 0l-2-5.1l1.1 0l1.4 3.9l1.5-3.9l1 0l-2 5.1zm6.2-3c0-.8-.5-1.3-1.4-1.3c-.8 0-1.3.6-1.3 1.3c0 0 2.7 0 2.7 0zm1 1.6c-.3.8-1.1 1.6-2.2 1.6c-1.4 0-2.6-1-2.6-2.7c0-1.6 1.2-2.7 2.4-2.7c1.6 0 2.5 1.1 2.5 2.6c0 .2-.1.3-.1.3c0 0-3.8 0-3.8 0c.1 1 .7 1.6 1.6 1.6c.8 0 1.2-.5 1.4-1c0 0 .8.3.8.3zm1.9-1.1c0 1.1.7 1.7 1.5 1.7c1 0 1.3-.6 1.5-1c0 0 .8.4.8.4c-.2.7-.9 1.6-2.3 1.6c-1.4 0-2.5-1.2-2.5-2.7c0-1.6 1.1-2.7 2.5-2.7c1.4 0 2.1.8 2.3 1.6c0 0-.9.4-.9.4c-.1-.5-.5-1.1-1.4-1.1c-.8 0-1.5.6-1.5 1.8zm7.6 2.5l0-7.6l1 0l0 7.6l-1 0zm6.1-3c0-.8-.5-1.3-1.4-1.3c-.8 0-1.3.6-1.4 1.3c0 0 2.8 0 2.8 0zm1 1.6c-.3.8-1.1 1.6-2.3 1.6c-1.4 0-2.5-1-2.5-2.7c0-1.6 1.1-2.7 2.4-2.7c1.5 0 2.4 1.1 2.4 2.6c0 .2 0 .3 0 .3c0 0-3.8 0-3.8 0c0 1 .7 1.6 1.5 1.6c.8 0 1.2-.5 1.4-1c0 0 .9.3.9.3zm1.7-.2c0 .5.4.9 1.2.9c.5 0 .8-.3.8-.7c0-.3-.2-.5-.6-.6c0 0-.9-.2-.9-.2c-.8-.2-1.3-.7-1.3-1.4c0-.9.9-1.6 1.8-1.6c1.4 0 1.9.9 2 1.3c0 0-.9.4-.9.4c-.1-.3-.3-.9-1.1-.9c-.5 0-.8.4-.8.7c0 .3.2.5.6.6c0 0 .8.2.8.2c.9.2 1.4.7 1.4 1.5c0 .7-.6 1.6-1.9 1.6c-1.3 0-1.9-.9-2-1.5c0 0 .9-.3.9-.3zm6.9 1.6l0-7.6l1 0l0 7.6l-1 0zm2.7 0l0-5.1l1 0l0 5.1l-1 0zm.5-7.7c.4 0 .7.3.7.7c0 .4-.3.7-.7.7c-.4 0-.7-.3-.7-.7c0-.4.3-.7.7-.7zm5.6 4.7c-.1-.8-.5-1.3-1.4-1.3c-.9 0-1.4.6-1.4 1.3c0 0 2.8 0 2.8 0zm1 1.6c-.3.8-1.1 1.6-2.3 1.6c-1.4 0-2.6-1-2.6-2.7c0-1.6 1.2-2.7 2.5-2.7c1.5 0 2.4 1.1 2.4 2.6c0 .2 0 .3 0 .3c0 0-3.8 0-3.8 0c0 1 .6 1.6 1.5 1.6c.8 0 1.2-.5 1.4-1c0 0 .9.3.9.3zm2.2 1.4l-1 0l0-5.1l1 0c0 0 .01.77 0 .8c.4-.7 1-.9 1.6-.9c1.2 0 1.8.9 1.8 2c-.03-.01 0 3.2 0 3.2l-1 0c0 0-.01-3.04 0-3c0-.7-.3-1.3-1.2-1.3c-.8 0-1.2.6-1.2 1.4c.03-.03 0 2.9 0 2.9zm5.4-1.6c0 .5.4.9 1.1.9c.6 0 .9-.3.9-.7c0-.3-.2-.5-.6-.6c0 0-.9-.2-.9-.2c-.8-.2-1.3-.7-1.3-1.4c0-.9.8-1.6 1.8-1.6c1.4 0 1.8.9 1.9 1.3c0 0-.8.4-.8.4c-.1-.3-.3-.9-1.1-.9c-.5 0-.8.4-.8.7c0 .3.2.5.6.6c0 0 .8.2.8.2c.9.2 1.4.7 1.4 1.5c0 .7-.6 1.6-1.9 1.6c-1.4 0-1.9-.9-2-1.5c0 0 .9-.3.9-.3zm7.3 0c.1.5.5.9 1.2.9c.6 0 .9-.3.9-.7c0-.3-.3-.5-.7-.6c0 0-.8-.2-.8-.2c-.8-.2-1.3-.7-1.3-1.4c0-.9.8-1.6 1.8-1.6c1.4 0 1.8.9 1.9 1.3c0 0-.9.4-.9.4c0-.3-.2-.9-1-.9c-.5 0-.8.4-.8.7c0 .3.1.5.5.6c0 0 .9.2.9.2c.9.2 1.4.7 1.4 1.5c0 .7-.6 1.6-1.9 1.6c-1.4 0-2-.9-2.1-1.5c0 0 .9-.3.9-.3zm8.1-.9c0-1.2-.8-1.8-1.6-1.8c-.9 0-1.6.6-1.6 1.8c0 1.1.7 1.8 1.6 1.8c.8 0 1.6-.7 1.6-1.8zm1 0c0 1.5-1.1 2.7-2.6 2.7c-1.5 0-2.6-1.2-2.6-2.7c0-1.6 1.1-2.7 2.6-2.7c1.5 0 2.6 1.1 2.6 2.7zm1.8 0c0 1.1.7 1.7 1.5 1.7c1 0 1.3-.6 1.5-1c0 0 .8.4.8.4c-.2.7-.9 1.6-2.3 1.6c-1.4 0-2.5-1.2-2.5-2.7c0-1.6 1.1-2.7 2.5-2.7c1.4 0 2.1.8 2.3 1.6c0 0-.9.4-.9.4c-.1-.5-.5-1.1-1.4-1.1c-.8 0-1.5.6-1.5 1.8zm5 2.5l0-5.1l1 0l0 5.1l-1 0zm.5-7.7c.4 0 .7.3.7.7c0 .4-.3.7-.7.7c-.4 0-.7-.3-.7-.7c0-.4.3-.7.7-.7zm1.8 6.3c0-.9.7-1.4 1.6-1.5c0 0 1.3-.2 1.3-.2c.3 0 .4-.2.4-.4c0-.5-.3-.9-1.1-.9c-.7 0-1.1.5-1.1 1c0 0-1-.2-1-.2c.1-.9 1-1.6 2.1-1.6c1.5 0 2.1.8 2.1 1.8c0 0 0 2.6 0 2.6c0 .4 0 .7.1.8c0 0-1 0-1 0c0-.1-.1-.3-.1-.7c-.2.4-.7.9-1.6.9c-1 0-1.7-.8-1.7-1.6c0 0 0 0 0 0zm3.3-.8c.01.03 0-.2 0-.2c0 0-1.53.23-1.5.2c-.5.1-.8.3-.8.8c0 .4.3.7.9.7c.8 0 1.4-.4 1.4-1.5zm5.8 1.6c-.3.5-.9.8-1.5.8c-1.2 0-1.9-.9-1.9-2.1c-.03.03 0-3.2 0-3.2l1 0c0 0-.04 3.08 0 3.1c0 .7.3 1.3 1.1 1.3c.8 0 1.2-.5 1.2-1.3c0-.01 0-3.1 0-3.1l1 0c0 0-.01 4.16 0 4.2c0 .4 0 .7 0 .9c0 0-.9 0-.9 0c0-.1 0-.4 0-.6c0 0 0 0 0 0zm3.7-2l-1.8-2.5l1.2 0l1.2 1.8l1.3-1.8l1.1 0c0 0-1.78 2.52-1.8 2.5c.3.4 1.6 2.2 1.9 2.6c-.02-.01-1.2 0-1.2 0l-1.3-1.9l-1.3 1.9l-1.2 0l1.9-2.6z" stroke="none" fill="#144542"/></g><g id="Polygon182883"><path d="m4.7 7.8c.9 0 1.5-.8 1.5-1.9c0-1-.6-1.7-1.5-1.7c-.9 0-1.4.7-1.4 1.8c0 1 .5 1.8 1.4 1.8zm1.5-.1c-.2.5-.8.9-1.6.9c-1.4 0-2.4-1.1-2.4-2.6c0-1.5 1-2.7 2.4-2.7c.9 0 1.4.4 1.6.9c-.02-.04 0-3.3 0-3.3l1 0c0 0-.04 6.66 0 6.7c0 .4 0 .8 0 .9c0 0-.9 0-.9 0c-.1-.1-.1-.4-.1-.7c0 0 0-.1 0-.1zm6-2.2c0-.8-.5-1.3-1.3-1.3c-.9 0-1.4.6-1.4 1.3c0 0 2.7 0 2.7 0zm1 1.6c-.2.8-1.1 1.6-2.2 1.6c-1.4 0-2.6-1-2.6-2.7c0-1.6 1.2-2.7 2.4-2.7c1.6 0 2.5 1.1 2.5 2.6c0 .2 0 .3-.1.3c0 0-3.8 0-3.8 0c.1 1 .7 1.6 1.6 1.6c.8 0 1.2-.5 1.4-1c0 0 .8.3.8.3zm1.7-.2c.1.5.5.9 1.2.9c.6 0 .9-.3.9-.7c0-.3-.2-.5-.7-.6c0 0-.8-.2-.8-.2c-.8-.2-1.3-.7-1.3-1.4c0-.9.8-1.6 1.8-1.6c1.4 0 1.8.9 1.9 1.3c0 0-.8.4-.8.4c-.1-.3-.3-.9-1.1-.9c-.5 0-.8.4-.8.7c0 .3.2.5.5.6c0 0 .9.2.9.2c.9.2 1.4.7 1.4 1.5c0 .7-.6 1.6-1.9 1.6c-1.4 0-2-.9-2-1.5c0 0 .8-.3.8-.3zm6.7.2c0-.9.6-1.4 1.5-1.5c0 0 1.4-.2 1.4-.2c.3 0 .4-.2.4-.4c0-.5-.4-.9-1.1-.9c-.7 0-1.1.5-1.2 1c0 0-.9-.2-.9-.2c.1-.9 1-1.6 2.1-1.6c1.5 0 2.1.8 2.1 1.8c0 0 0 2.6 0 2.6c0 .4 0 .7 0 .8c0 0-.9 0-.9 0c-.1-.1-.1-.3-.1-.7c-.2.4-.7.9-1.6.9c-1.1 0-1.7-.8-1.7-1.6c0 0 0 0 0 0zm3.3-.8c-.03.03 0-.2 0-.2c0 0-1.57.23-1.6.2c-.4.1-.7.3-.7.8c0 .4.3.7.8.7c.8 0 1.5-.4 1.5-1.5zm2.5 4.2l0-7.1l.9 0c0 0 .05.83 0 .8c.3-.5.9-.9 1.7-.9c1.5 0 2.4 1.2 2.4 2.7c0 1.5-.9 2.6-2.4 2.6c-.8 0-1.4-.3-1.6-.8c-.03.01 0 2.7 0 2.7l-1 0zm3.9-4.5c0-1-.5-1.8-1.4-1.8c-.9 0-1.5.8-1.5 1.8c0 1 .6 1.7 1.5 1.7c.9 0 1.4-.7 1.4-1.7c0 0 0 0 0 0zm2.3 4.5l0-7.1l1 0c0 0-.03.83 0 .8c.2-.5.8-.9 1.7-.9c1.5 0 2.3 1.2 2.3 2.7c0 1.5-.9 2.6-2.4 2.6c-.7 0-1.3-.3-1.6-.8c-.01.01 0 2.7 0 2.7l-1 0zm4-4.5c0-1-.6-1.8-1.5-1.8c-.9 0-1.5.8-1.5 1.8c0 1 .6 1.7 1.5 1.7c.9 0 1.5-.7 1.5-1.7c0 0 0 0 0 0zm5-1.6c-.1 0-.2 0-.4 0c-.8 0-1.4.5-1.4 1.6c.03-.04 0 2.5 0 2.5l-1 0l0-5.1l1 0c0 0 .01.93 0 .9c.4-.8 1-.9 1.5-.9c.2 0 .3 0 .3 0c0 0 0 1 0 1zm4.4 1.1c0-.8-.4-1.3-1.3-1.3c-.9 0-1.4.6-1.4 1.3c0 0 2.7 0 2.7 0zm1 1.6c-.2.8-1 1.6-2.2 1.6c-1.4 0-2.6-1-2.6-2.7c0-1.6 1.2-2.7 2.4-2.7c1.6 0 2.5 1.1 2.5 2.6c0 .2 0 .3 0 .3c0 0-3.8 0-3.8 0c0 1 .6 1.6 1.5 1.6c.8 0 1.2-.5 1.4-1c0 0 .8.3.8.3zm2.3 1.4l-1 0l0-5.1l1 0c0 0 0 .77 0 .8c.4-.7 1-.9 1.6-.9c1.2 0 1.8.9 1.8 2c-.04-.01 0 3.2 0 3.2l-1 0c0 0-.03-3.04 0-3c0-.7-.3-1.3-1.2-1.3c-.8 0-1.2.6-1.2 1.4c.02-.03 0 2.9 0 2.9zm4.6-1.4c0-.9.7-1.4 1.6-1.5c0 0 1.3-.2 1.3-.2c.3 0 .4-.2.4-.4c0-.5-.3-.9-1.1-.9c-.7 0-1.1.5-1.1 1c0 0-1-.2-1-.2c.1-.9 1-1.6 2.1-1.6c1.5 0 2.1.8 2.1 1.8c0 0 0 2.6 0 2.6c0 .4 0 .7.1.8c0 0-1 0-1 0c0-.1-.1-.3-.1-.7c-.2.4-.7.9-1.6.9c-1 0-1.7-.8-1.7-1.6c0 0 0 0 0 0zm3.3-.8c.01.03 0-.2 0-.2c0 0-1.54.23-1.5.2c-.5.1-.8.3-.8.8c0 .4.3.7.8.7c.9 0 1.5-.4 1.5-1.5zm3.5 2.2l-1 0l0-5.1l1 0c0 0-.01.77 0 .8c.4-.7 1-.9 1.5-.9c1.3 0 1.9.9 1.9 2c-.05-.01 0 3.2 0 3.2l-1 0c0 0-.03-3.04 0-3c0-.7-.3-1.3-1.2-1.3c-.8 0-1.2.6-1.2 1.4c.01-.03 0 2.9 0 2.9zm6.3-5.1l1 0l0 .9l-1 0c0 0-.05 2.66 0 2.7c0 .4.1.7.7.7c.1 0 .3-.1.3-.1c0 0 0 .9 0 .9c0 0-.3 0-.6 0c-.9 0-1.4-.5-1.4-1.4c-.04.01 0-2.8 0-2.8l-1 0l0-.9c0 0 .27.04.3 0c.5 0 .7-.3.7-.7c.05-.03 0-.9 0-.9l1 0l0 1.6zm2.8 3.5c.1.5.5.9 1.2.9c.6 0 .9-.3.9-.7c0-.3-.3-.5-.7-.6c0 0-.8-.2-.8-.2c-.8-.2-1.3-.7-1.3-1.4c0-.9.8-1.6 1.8-1.6c1.4 0 1.8.9 1.9 1.3c0 0-.9.4-.9.4c0-.3-.2-.9-1-.9c-.5 0-.9.4-.9.7c0 .3.2.5.6.6c0 0 .8.2.8.2c1 .2 1.4.7 1.4 1.5c0 .7-.6 1.6-1.8 1.6c-1.4 0-2-.9-2.1-1.5c0 0 .9-.3.9-.3zm9 .9c1 0 1.5-.8 1.5-1.9c0-1-.5-1.7-1.4-1.7c-.9 0-1.5.7-1.5 1.8c0 1 .5 1.8 1.4 1.8zm1.5-.1c-.2.5-.8.9-1.5.9c-1.5 0-2.4-1.1-2.4-2.6c0-1.5.9-2.7 2.4-2.7c.8 0 1.3.4 1.5.9c0-.04 0-3.3 0-3.3l1 0c0 0-.03 6.66 0 6.7c0 .4 0 .8 0 .9c0 0-.9 0-.9 0c-.1-.1-.1-.4-.1-.7c0 0 0-.1 0-.1zm6.1-2.2c-.1-.8-.5-1.3-1.4-1.3c-.9 0-1.4.6-1.4 1.3c0 0 2.8 0 2.8 0zm1 1.6c-.3.8-1.1 1.6-2.3 1.6c-1.4 0-2.6-1-2.6-2.7c0-1.6 1.2-2.7 2.5-2.7c1.5 0 2.4 1.1 2.4 2.6c0 .2 0 .3 0 .3c0 0-3.8 0-3.8 0c0 1 .6 1.6 1.5 1.6c.8 0 1.2-.5 1.4-1c0 0 .9.3.9.3zm-2-4.3l-.9 0l.9-1.5l1.3 0l-1.3 1.5zm3.8 3.2c0 1.1.8 1.7 1.6 1.7c.9 0 1.3-.6 1.4-1c0 0 .9.4.9.4c-.3.7-1 1.6-2.3 1.6c-1.5 0-2.6-1.2-2.6-2.7c0-1.6 1.1-2.7 2.6-2.7c1.3 0 2 .8 2.2 1.6c0 0-.9.4-.9.4c-.1-.5-.5-1.1-1.3-1.1c-.8 0-1.6.6-1.6 1.8zm5 2.5l0-7.6l1 0l0 7.6l-1 0zm2.4-1.4c0-.9.6-1.4 1.5-1.5c0 0 1.4-.2 1.4-.2c.3 0 .3-.2.3-.4c0-.5-.3-.9-1-.9c-.7 0-1.1.5-1.2 1c0 0-.9-.2-.9-.2c.1-.9.9-1.6 2-1.6c1.5 0 2.1.8 2.1 1.8c0 0 0 2.6 0 2.6c0 .4.1.7.1.8c0 0-1 0-1 0c0-.1 0-.3 0-.7c-.2.4-.7.9-1.6.9c-1.1 0-1.7-.8-1.7-1.6c0 0 0 0 0 0zm3.2-.8c.05.03 0-.2 0-.2c0 0-1.5.23-1.5.2c-.4.1-.7.3-.7.8c0 .4.3.7.8.7c.8 0 1.4-.4 1.4-1.5zm5.4-1.9c-.2 0-.3 0-.5 0c-.8 0-1.3.5-1.3 1.6c-.05-.04 0 2.5 0 2.5l-1 0l0-5.1l.9 0c0 0 .03.93 0 .9c.4-.8 1-.9 1.5-.9c.2 0 .3 0 .4 0c0 0 0 1 0 1zm4.4 1.1c0-.8-.5-1.3-1.4-1.3c-.8 0-1.3.6-1.4 1.3c0 0 2.8 0 2.8 0zm1 1.6c-.3.8-1.1 1.6-2.3 1.6c-1.4 0-2.5-1-2.5-2.7c0-1.6 1.1-2.7 2.4-2.7c1.5 0 2.4 1.1 2.4 2.6c0 .2 0 .3 0 .3c0 0-3.8 0-3.8 0c0 1 .6 1.6 1.5 1.6c.8 0 1.2-.5 1.4-1c0 0 .9.3.9.3zm2.2 1.4l-.9 0l0-5.1l.9 0c0 0 .02.77 0 .8c.4-.7 1-.9 1.6-.9c1.2 0 1.8.9 1.8 2c-.02-.01 0 3.2 0 3.2l-1 0c0 0 0-3.04 0-3c0-.7-.3-1.3-1.2-1.3c-.8 0-1.2.6-1.2 1.4c.05-.03 0 2.9 0 2.9zm6.3-5.1l1.1 0l0 .9l-1.1 0c0 0-.02 2.66 0 2.7c0 .4.2.7.7.7c.1 0 .3-.1.4-.1c0 0 0 .9 0 .9c-.1 0-.4 0-.7 0c-.9 0-1.4-.5-1.4-1.4c0 .01 0-2.8 0-2.8l-1 0l0-.9c0 0 .3.04.3 0c.5 0 .8-.3.8-.7c-.02-.03 0-.9 0-.9l.9 0l0 1.6zm8.4 2.1c0-.8-.5-1.3-1.4-1.3c-.8 0-1.3.6-1.3 1.3c0 0 2.7 0 2.7 0zm1 1.6c-.3.8-1.1 1.6-2.3 1.6c-1.3 0-2.5-1-2.5-2.7c0-1.6 1.1-2.7 2.4-2.7c1.6 0 2.4 1.1 2.4 2.6c0 .2 0 .3 0 .3c0 0-3.8 0-3.8 0c0 1 .7 1.6 1.5 1.6c.9 0 1.3-.5 1.5-1c0 0 .8.3.8.3zm-3.9-4.3l1-1.5l1.2 0l1.1 1.5l-1 0l-.7-.9l-.7.9l-.9 0zm6.5.6l1.1 0l0 .9l-1.1 0c0 0 .03 2.66 0 2.7c0 .4.2.7.7.7c.2 0 .3-.1.4-.1c0 0 0 .9 0 .9c-.1 0-.3 0-.7 0c-.8 0-1.4-.5-1.4-1.4c.04.01 0-2.8 0-2.8l-.9 0l0-.9c0 0 .25.04.2 0c.6 0 .8-.3.8-.7c.02-.03 0-.9 0-.9l.9 0l0 1.6zm5.1 1c-.1 0-.3 0-.4 0c-.8 0-1.4.5-1.4 1.6c.01-.04 0 2.5 0 2.5l-1 0l0-5.1l1 0c0 0-.01.93 0 .9c.4-.8 1-.9 1.5-.9c.1 0 .3 0 .3 0c0 0 0 1 0 1zm4.4 1.1c0-.8-.5-1.3-1.4-1.3c-.8 0-1.3.6-1.3 1.3c0 0 2.7 0 2.7 0zm1 1.6c-.3.8-1.1 1.6-2.2 1.6c-1.4 0-2.6-1-2.6-2.7c0-1.6 1.2-2.7 2.4-2.7c1.6 0 2.5 1.1 2.5 2.6c0 .2-.1.3-.1.3c0 0-3.8 0-3.8 0c.1 1 .7 1.6 1.6 1.6c.8 0 1.2-.5 1.4-1c0 0 .8.3.8.3zm3.9 3.4l0-7.1l1 0c0 0 0 .83 0 .8c.3-.5.9-.9 1.7-.9c1.5 0 2.3 1.2 2.3 2.7c0 1.5-.9 2.6-2.3 2.6c-.8 0-1.4-.3-1.7-.8c.02.01 0 2.7 0 2.7l-1 0zm4-4.5c0-1-.6-1.8-1.5-1.8c-.9 0-1.5.8-1.5 1.8c0 1 .6 1.7 1.5 1.7c.9 0 1.5-.7 1.5-1.7c0 0 0 0 0 0zm2.3 2.5l0-7.6l1 0l0 7.6l-1 0zm5.9-.6c-.3.5-.9.8-1.5.8c-1.2 0-1.9-.9-1.9-2.1c.03.03 0-3.2 0-3.2l1 0c0 0 .02 3.08 0 3.1c0 .7.3 1.3 1.2 1.3c.8 0 1.2-.5 1.2-1.3c-.04-.01 0-3.1 0-3.1l.9 0c0 0 .05 4.16 0 4.2c0 .4.1.7.1.9c0 0-.9 0-.9 0c-.1-.1-.1-.4-.1-.6c0 0 0 0 0 0zm3-1c.1.5.5.9 1.2.9c.6 0 .9-.3.9-.7c0-.3-.2-.5-.7-.6c0 0-.8-.2-.8-.2c-.8-.2-1.3-.7-1.3-1.4c0-.9.8-1.6 1.8-1.6c1.4 0 1.8.9 1.9 1.3c0 0-.8.4-.8.4c-.1-.3-.3-.9-1.1-.9c-.5 0-.8.4-.8.7c0 .3.2.5.5.6c0 0 .9.2.9.2c.9.2 1.4.7 1.4 1.5c0 .7-.6 1.6-1.9 1.6c-1.4 0-2-.9-2-1.5c0 0 .8-.3.8-.3z" stroke="none" fill="#144542"/></g></svg>