<?xml version="1.0" standalone="no"?><!DOCTYPE svg PUBLIC "-//W3C//DTD SVG 1.1//EN" "http://www.w3.org/Graphics/SVG/1.1/DTD/svg11.dtd"><svg xmlns="http://www.w3.org/2000/svg" version="1.1" width="361px" height="123.8px" viewBox="0 -3 361 123.8" style="top:-3px"><desc>En d veloppant des parcours individualis s, centr s sur les comp tences m tiers, each One s curise la mont e en comp ...</desc><defs/><g id="Polygon164364"><path d="m3 106.8l1.5 0l0 1.2l-1.5 0c0 0-.01 3.61 0 3.6c0 .7.2 1 1 1c.1 0 .4-.1.5-.1c0 0 0 1.2 0 1.2c-.1 0-.5.1-.9.1c-1.2 0-2-.7-2-2c.02.02 0-3.8 0-3.8l-1.3 0l0-1.2c0 0 .37-.04.4 0c.7 0 1-.5 1-1.1c.04-.02 0-1.1 0-1.1l1.3 0l0 2.2zm2.9 5.1c0-1.3.9-2 2.1-2.2c0 0 1.9-.2 1.9-.2c.4-.1.5-.3.5-.6c0-.6-.4-1.2-1.5-1.2c-1 0-1.5.6-1.6 1.4c0 0-1.3-.3-1.3-.3c.2-1.3 1.4-2.3 2.9-2.3c2.1 0 2.9 1.2 2.9 2.6c0 0 0 3.5 0 3.5c0 .6 0 1 .1 1.1c0 0-1.4 0-1.4 0c0-.1 0-.4 0-.9c-.3.5-1 1.1-2.3 1.1c-1.4 0-2.3-.9-2.3-2c0 0 0 0 0 0zm4.5-1.2c.01.04 0-.3 0-.3c0 0-2.12.34-2.1.3c-.6.1-1 .5-1 1.1c0 .5.4 1 1.1 1c1.1 0 2-.5 2-2.1zm4.9 3l-1.4 0l0-6.9l1.3 0c0 0 .02.96 0 1c.5-.9 1.4-1.2 2.2-1.2c1.6 0 2.5 1.2 2.5 2.7c-.04.01 0 4.4 0 4.4l-1.4 0c0 0 0-4.16 0-4.2c0-.9-.4-1.7-1.6-1.7c-1.1 0-1.6.8-1.6 1.9c-.05 0 0 4 0 4zm7.6.1c.1 1 .8 1.7 1.9 1.7c1.4 0 2.1-.7 2.1-2.2c0 0 0-1 0-1c-.3.6-1.1 1.1-2.1 1.1c-1.9 0-3.3-1.4-3.3-3.4c0-1.9 1.3-3.4 3.3-3.4c1 0 1.8.4 2.1 1.1c0 .03 0-.9 0-.9l1.3 0c0 0 .04 6.41 0 6.4c0 1.8-.8 3.5-3.4 3.5c-1.8 0-3.1-1.1-3.3-2.6c0 0 1.4-.3 1.4-.3zm4-3.8c0-1.3-.8-2.2-1.9-2.2c-1.2 0-2.1.9-2.1 2.2c0 1.4.8 2.3 2.1 2.3c1.1 0 1.9-.9 1.9-2.3zm3.5 3.7l0-6.9l1.4 0l0 6.9l-1.4 0zm.7-10.6c.5 0 1 .5 1 1c0 .6-.5 1-1 1c-.5 0-1-.4-1-1c0-.5.5-1 1-1zm3 10.6l0-10.5l1.3 0c0 0 .04 4.54 0 4.5c.4-.6 1.2-1.1 2.3-1.1c2.2 0 3.2 1.6 3.2 3.6c0 2.1-1.1 3.7-3.2 3.7c-1 0-1.8-.4-2.3-1.2c.04.02 0 1 0 1l-1.3 0zm3.4-5.9c-1.2 0-2.1.9-2.1 2.4c0 1.5.9 2.5 2.1 2.5c1.2 0 2.1-1 2.1-2.5c0-1.5-.8-2.4-2.1-2.4zm5.2 5.9l0-10.5l1.3 0l0 10.5l-1.3 0zm8.4-4.2c-.1-1-.7-1.8-1.9-1.8c-1.2 0-1.9.9-1.9 1.8c0 0 3.8 0 3.8 0zm1.3 2.2c-.3 1.3-1.5 2.2-3.1 2.2c-1.9 0-3.5-1.3-3.5-3.7c0-2.2 1.6-3.7 3.3-3.7c2.2 0 3.4 1.5 3.4 3.7c0 .2 0 .3 0 .4c0 0-5.3 0-5.3 0c0 1.3.9 2.1 2.1 2.1c1.1 0 1.7-.6 2-1.4c0 0 1.1.4 1.1.4zm5.5 4.8l0-9.7l1.3 0c0 0-.03 1.04 0 1c.3-.7 1.2-1.2 2.3-1.2c2.1 0 3.2 1.6 3.2 3.6c0 2.1-1.2 3.7-3.2 3.7c-1.1 0-1.9-.5-2.3-1.1c0-.01 0 3.7 0 3.7l-1.3 0zm5.4-6.3c0-1.4-.8-2.4-2-2.4c-1.3 0-2.1 1-2.1 2.4c0 1.5.8 2.5 2.1 2.5c1.2 0 2-1 2-2.5c0 0 0 0 0 0zm8.3 0c0-1.6-1-2.4-2.2-2.4c-1.1 0-2.1.8-2.1 2.4c0 1.7 1 2.5 2.1 2.5c1.2 0 2.2-.8 2.2-2.5zm1.4 0c0 2.2-1.5 3.7-3.6 3.7c-2 0-3.5-1.5-3.5-3.7c0-2.1 1.5-3.7 3.5-3.7c2.1 0 3.6 1.6 3.6 3.7zm6.3 2.7c-.4.7-1.3 1-2.1 1c-1.6 0-2.6-1.2-2.6-2.7c0-.05 0-4.4 0-4.4l1.4 0c0 0-.04 4.15 0 4.1c0 1 .4 1.8 1.5 1.8c1.1 0 1.7-.7 1.7-1.7c0-.04 0-4.2 0-4.2l1.4 0c0 0-.04 5.64 0 5.6c0 .6 0 1.1 0 1.3c0 0-1.3 0-1.3 0c0-.1 0-.5 0-.8c0 0 0 0 0 0zm7.5-4.8c-.3 0-.5 0-.6 0c-1.2 0-2 .6-2 2.1c.04.04 0 3.5 0 3.5l-1.3 0l0-6.9l1.3 0c0 0 .01 1.17 0 1.2c.5-1.1 1.4-1.4 2.1-1.4c.2 0 .4.1.5.1c0 0 0 1.4 0 1.4zm5 5.6l0-10.5l1.4 0l0 10.5l-1.4 0zm8.4-4.2c0-1-.7-1.8-1.9-1.8c-1.2 0-1.8.9-1.9 1.8c0 0 3.8 0 3.8 0zm1.4 2.2c-.4 1.3-1.5 2.2-3.1 2.2c-1.9 0-3.6-1.3-3.6-3.7c0-2.2 1.6-3.7 3.4-3.7c2.1 0 3.3 1.5 3.3 3.7c0 .2 0 .3 0 .4c0 0-5.2 0-5.2 0c0 1.3.9 2.1 2.1 2.1c1.1 0 1.7-.6 1.9-1.4c0 0 1.2.4 1.2.4zm2.3-.2c.1.7.7 1.3 1.7 1.3c.7 0 1.2-.4 1.2-.9c0-.5-.4-.8-.9-.9c0 0-1.2-.3-1.2-.3c-1.1-.2-1.8-1-1.8-2c0-1.1 1.1-2.2 2.5-2.2c1.9 0 2.5 1.3 2.7 1.9c0 0-1.2.5-1.2.5c-.1-.4-.4-1.2-1.5-1.2c-.7 0-1.1.4-1.1.9c0 .4.2.8.8.9c0 0 1.1.2 1.1.2c1.2.3 1.9 1.1 1.9 2.1c0 1-.8 2.1-2.5 2.1c-2 0-2.8-1.2-2.9-2c0 0 1.2-.4 1.2-.4zm9.2.4c0-1.3.9-2 2.1-2.2c0 0 1.9-.2 1.9-.2c.4-.1.6-.3.6-.6c0-.6-.5-1.2-1.6-1.2c-.9 0-1.5.6-1.5 1.4c0 0-1.3-.3-1.3-.3c.1-1.3 1.3-2.3 2.8-2.3c2.1 0 2.9 1.2 2.9 2.6c0 0 0 3.5 0 3.5c0 .6.1 1 .1 1.1c0 0-1.3 0-1.3 0c-.1-.1-.1-.4-.1-.9c-.3.5-1 1.1-2.3 1.1c-1.4 0-2.3-.9-2.3-2c0 0 0 0 0 0zm4.6-1.2c-.05.04 0-.3 0-.3c0 0-2.18.34-2.2.3c-.6.1-1 .5-1 1.1c0 .5.4 1 1.1 1c1.2 0 2.1-.5 2.1-2.1zm3.4 5.8l0-9.7l1.4 0c0 0-.05 1.04 0 1c.3-.7 1.2-1.2 2.3-1.2c2.1 0 3.2 1.6 3.2 3.6c0 2.1-1.2 3.7-3.3 3.7c-1 0-1.8-.5-2.2-1.1c-.02-.01 0 3.7 0 3.7l-1.4 0zm5.5-6.3c0-1.4-.8-2.4-2.1-2.4c-1.2 0-2 1-2 2.4c0 1.5.8 2.5 2 2.5c1.3 0 2.1-1 2.1-2.5c0 0 0 0 0 0zm3.1 6.3l0-9.7l1.3 0c0 0 .05 1.04 0 1c.4-.7 1.3-1.2 2.4-1.2c2.1 0 3.2 1.6 3.2 3.6c0 2.1-1.2 3.7-3.3 3.7c-1 0-1.8-.5-2.2-1.1c-.02-.01 0 3.7 0 3.7l-1.4 0zm5.5-6.3c0-1.4-.8-2.4-2.1-2.4c-1.2 0-2 1-2 2.4c0 1.5.8 2.5 2 2.5c1.3 0 2.1-1 2.1-2.5c0 0 0 0 0 0zm7-2.1c-.2 0-.4 0-.6 0c-1.1 0-1.9.6-1.9 2.1c-.01.04 0 3.5 0 3.5l-1.4 0l0-6.9l1.4 0c0 0-.04 1.17 0 1.2c.5-1.1 1.3-1.4 2-1.4c.2 0 .4.1.5.1c0 0 0 1.4 0 1.4zm6.1 1.4c-.1-1-.7-1.8-1.9-1.8c-1.2 0-1.9.9-1.9 1.8c0 0 3.8 0 3.8 0zm1.4 2.2c-.4 1.3-1.6 2.2-3.2 2.2c-1.9 0-3.5-1.3-3.5-3.7c0-2.2 1.6-3.7 3.3-3.7c2.2 0 3.4 1.5 3.4 3.7c0 .2 0 .3 0 .4c0 0-5.3 0-5.3 0c0 1.3.9 2.1 2.1 2.1c1.2 0 1.7-.6 2-1.4c0 0 1.2.4 1.2.4zm3.1 2l-1.4 0l0-6.9l1.4 0c0 0-.03.96 0 1c.5-.9 1.3-1.2 2.1-1.2c1.7 0 2.5 1.2 2.5 2.7c.01.01 0 4.4 0 4.4l-1.4 0c0 0 .05-4.16 0-4.2c0-.9-.4-1.7-1.6-1.7c-1.1 0-1.6.8-1.6 1.9c0 0 0 4 0 4zm6.4-1.8c0-1.3.9-2 2.1-2.2c0 0 1.9-.2 1.9-.2c.4-.1.5-.3.5-.6c0-.6-.5-1.2-1.5-1.2c-1 0-1.5.6-1.6 1.4c0 0-1.3-.3-1.3-.3c.1-1.3 1.3-2.3 2.9-2.3c2 0 2.9 1.2 2.9 2.6c0 0 0 3.5 0 3.5c0 .6 0 1 0 1.1c0 0-1.3 0-1.3 0c0-.1-.1-.4-.1-.9c-.3.5-1 1.1-2.2 1.1c-1.4 0-2.3-.9-2.3-2c0 0 0 0 0 0zm4.5-1.2c-.01.04 0-.3 0-.3c0 0-2.14.34-2.1.3c-.6.1-1.1.5-1.1 1.1c0 .5.5 1 1.2 1c1.1 0 2-.5 2-2.1zm4.8 3l-1.3 0l0-6.9l1.3 0c0 0 0 .96 0 1c.5-.9 1.3-1.2 2.1-1.2c1.7 0 2.5 1.2 2.5 2.7c.04.01 0 4.4 0 4.4l-1.3 0c0 0-.02-4.16 0-4.2c0-.9-.4-1.7-1.6-1.7c-1.1 0-1.7.8-1.7 1.9c.03 0 0 4 0 4zm8.6-6.9l1.6 0l0 1.2l-1.6 0c0 0 .04 3.61 0 3.6c0 .7.3 1 1 1c.2 0 .4-.1.6-.1c0 0 0 1.2 0 1.2c-.2 0-.5.1-1 .1c-1.2 0-1.9-.7-1.9-2c-.02.02 0-3.8 0-3.8l-1.4 0l0-1.2c0 0 .43-.04.4 0c.8 0 1.1-.5 1.1-1.1c0-.02 0-1.1 0-1.1l1.2 0l0 2.2zm4 4.7c.1.7.7 1.3 1.6 1.3c.8 0 1.2-.4 1.2-.9c0-.5-.3-.8-.9-.9c0 0-1.2-.3-1.2-.3c-1-.2-1.7-1-1.7-2c0-1.1 1.1-2.2 2.5-2.2c1.9 0 2.5 1.3 2.6 1.9c0 0-1.2.5-1.2.5c0-.4-.3-1.2-1.4-1.2c-.7 0-1.2.4-1.2.9c0 .4.3.8.8.9c0 0 1.2.2 1.2.2c1.2.3 1.9 1.1 1.9 2.1c0 1-.8 2.1-2.6 2.1c-1.9 0-2.7-1.2-2.8-2c0 0 1.2-.4 1.2-.4zm10.4-1.3c0 1.6 1 2.5 2.2 2.5c1.3 0 1.7-.9 1.9-1.4c0 0 1.2.5 1.2.5c-.3 1-1.3 2.1-3.1 2.1c-2.1 0-3.6-1.5-3.6-3.7c0-2.1 1.6-3.7 3.5-3.7c1.9 0 2.9 1.2 3.1 2.3c0 0-1.2.5-1.2.5c-.2-.7-.7-1.5-1.9-1.5c-1.1 0-2.1.8-2.1 2.4zm12 0c0-1.6-1-2.4-2.2-2.4c-1.1 0-2.2.8-2.2 2.4c0 1.7 1.1 2.5 2.2 2.5c1.2 0 2.2-.8 2.2-2.5zm1.4 0c0 2.2-1.5 3.7-3.6 3.7c-2.1 0-3.6-1.5-3.6-3.7c0-2.1 1.5-3.7 3.6-3.7c2.1 0 3.6 1.6 3.6 3.7zm1.7 3.5l0-6.9l1.3 0c0 0 .03.88 0 .9c.5-.8 1.3-1.1 2.1-1.1c.9 0 1.8.4 2.1 1.3c.6-1 1.5-1.3 2.4-1.3c1.2 0 2.4.8 2.4 2.6c-.03.01 0 4.5 0 4.5l-1.4 0c0 0 .03-4.35 0-4.3c0-1-.4-1.6-1.5-1.6c-.9 0-1.6.7-1.6 1.7c.04.01 0 4.2 0 4.2l-1.3 0c0 0-.03-4.35 0-4.3c0-.9-.5-1.6-1.5-1.6c-1 0-1.6.7-1.6 1.7c-.03.02 0 4.2 0 4.2l-1.4 0zm12.4 0l0-6.9l1.4 0c0 0-.05.88 0 .9c.4-.8 1.3-1.1 2.1-1.1c.8 0 1.7.4 2.1 1.3c.5-1 1.4-1.3 2.3-1.3c1.2 0 2.4.8 2.4 2.6c0 .01 0 4.5 0 4.5l-1.3 0c0 0-.05-4.35 0-4.3c0-1-.5-1.6-1.5-1.6c-1 0-1.6.7-1.6 1.7c-.04.01 0 4.2 0 4.2l-1.4 0c0 0 0-4.35 0-4.3c0-.9-.4-1.6-1.5-1.6c-1 0-1.6.7-1.6 1.7c0 .02 0 4.2 0 4.2l-1.4 0zm17.2-4.2c-.1-1-.7-1.8-1.9-1.8c-1.2 0-1.9.9-1.9 1.8c0 0 3.8 0 3.8 0zm1.3 2.2c-.3 1.3-1.5 2.2-3.1 2.2c-1.9 0-3.5-1.3-3.5-3.7c0-2.2 1.6-3.7 3.3-3.7c2.2 0 3.4 1.5 3.4 3.7c0 .2 0 .3 0 .4c0 0-5.3 0-5.3 0c0 1.3.9 2.1 2.1 2.1c1.2 0 1.7-.6 2-1.4c0 0 1.1.4 1.1.4zm5.5 4.8l0-9.7l1.3 0c0 0-.02 1.04 0 1c.4-.7 1.2-1.2 2.3-1.2c2.1 0 3.2 1.6 3.2 3.6c0 2.1-1.2 3.7-3.2 3.7c-1.1 0-1.9-.5-2.3-1.1c.01-.01 0 3.7 0 3.7l-1.3 0zm5.4-6.3c0-1.4-.8-2.4-2-2.4c-1.3 0-2.1 1-2.1 2.4c0 1.5.8 2.5 2.1 2.5c1.2 0 2-1 2-2.5c0 0 0 0 0 0zm8.3 0c0-1.6-1-2.4-2.2-2.4c-1.1 0-2.1.8-2.1 2.4c0 1.7 1 2.5 2.1 2.5c1.2 0 2.2-.8 2.2-2.5zm1.4 0c0 2.2-1.5 3.7-3.6 3.7c-2 0-3.5-1.5-3.5-3.7c0-2.1 1.5-3.7 3.5-3.7c2.1 0 3.6 1.6 3.6 3.7zm6.3 2.7c-.4.7-1.3 1-2.1 1c-1.6 0-2.6-1.2-2.6-2.7c.01-.05 0-4.4 0-4.4l1.4 0c0 0-.03 4.15 0 4.1c0 1 .4 1.8 1.5 1.8c1.2 0 1.7-.7 1.7-1.7c0-.04 0-4.2 0-4.2l1.4 0c0 0-.03 5.64 0 5.6c0 .6 0 1.1 0 1.3c0 0-1.3 0-1.3 0c0-.1 0-.5 0-.8c0 0 0 0 0 0zm7.5-4.8c-.2 0-.4 0-.6 0c-1.2 0-2 .6-2 2.1c.05.04 0 3.5 0 3.5l-1.3 0l0-6.9l1.3 0c0 0 .02 1.17 0 1.2c.5-1.1 1.4-1.4 2.1-1.4c.2 0 .4.1.5.1c0 0 0 1.4 0 1.4zm5 5.6l0-10.5l1.4 0l0 10.5l-1.4 0zm3.3-1.8c0-1.3.9-2 2.1-2.2c0 0 1.9-.2 1.9-.2c.4-.1.5-.3.5-.6c0-.6-.4-1.2-1.5-1.2c-.9 0-1.5.6-1.6 1.4c0 0-1.3-.3-1.3-.3c.2-1.3 1.4-2.3 2.9-2.3c2.1 0 2.9 1.2 2.9 2.6c0 0 0 3.5 0 3.5c0 .6 0 1 .1 1.1c0 0-1.4 0-1.4 0c0-.1 0-.4 0-.9c-.3.5-1 1.1-2.3 1.1c-1.4 0-2.3-.9-2.3-2c0 0 0 0 0 0zm4.5-1.2c.02.04 0-.3 0-.3c0 0-2.11.34-2.1.3c-.6.1-1 .5-1 1.1c0 .5.4 1 1.1 1c1.1 0 2-.5 2-2.1zm7.7.8c.1.7.6 1.3 1.6 1.3c.8 0 1.2-.4 1.2-.9c0-.5-.3-.8-.9-.9c0 0-1.2-.3-1.2-.3c-1.1-.2-1.7-1-1.7-2c0-1.1 1.1-2.2 2.5-2.2c1.9 0 2.5 1.3 2.6 1.9c0 0-1.2.5-1.2.5c0-.4-.3-1.2-1.4-1.2c-.7 0-1.2.4-1.2.9c0 .4.3.8.8.9c0 0 1.1.2 1.1.2c1.3.3 2 1.1 2 2.1c0 1-.9 2.1-2.6 2.1c-1.9 0-2.7-1.2-2.8-2c0 0 1.2-.4 1.2-.4zm11.1-1.3c0-1.6-1-2.4-2.2-2.4c-1.2 0-2.2.8-2.2 2.4c0 1.7 1 2.5 2.2 2.5c1.2 0 2.2-.8 2.2-2.5zm1.4 0c0 2.2-1.5 3.7-3.6 3.7c-2.1 0-3.6-1.5-3.6-3.7c0-2.1 1.5-3.7 3.6-3.7c2.1 0 3.6 1.6 3.6 3.7zm2.5 0c0 1.6 1 2.5 2.1 2.5c1.3 0 1.8-.9 2-1.4c0 0 1.2.5 1.2.5c-.3 1-1.3 2.1-3.2 2.1c-2 0-3.5-1.5-3.5-3.7c0-2.1 1.5-3.7 3.5-3.7c1.9 0 2.8 1.2 3.1 2.3c0 0-1.2.5-1.2.5c-.2-.7-.7-1.5-1.9-1.5c-1.1 0-2.1.8-2.1 2.4zm6.9 3.5l0-6.9l1.3 0l0 6.9l-1.3 0zm.7-10.6c.5 0 .9.5.9 1c0 .6-.4 1-.9 1c-.6 0-1-.4-1-1c0-.5.4-1 1-1zm7.7 6.4c-.1-1-.7-1.8-2-1.8c-1.1 0-1.8.9-1.9 1.8c0 0 3.9 0 3.9 0zm1.3 2.2c-.4 1.3-1.5 2.2-3.1 2.2c-1.9 0-3.5-1.3-3.5-3.7c0-2.2 1.6-3.7 3.3-3.7c2.2 0 3.4 1.5 3.4 3.7c0 .2 0 .3-.1.4c0 0-5.2 0-5.2 0c0 1.3.9 2.1 2.1 2.1c1.1 0 1.7-.6 2-1.4c0 0 1.1.4 1.1.4zm-2.7-5.8l-1.2 0l1.3-2.2l1.7 0l-1.8 2.2zm6.3.9l1.5 0l0 1.2l-1.5 0c0 0 .04 3.61 0 3.6c0 .7.3 1 1 1c.2 0 .4-.1.5-.1c0 0 0 1.2 0 1.2c-.1 0-.4.1-.9.1c-1.2 0-1.9-.7-1.9-2c-.02.02 0-3.8 0-3.8l-1.4 0l0-1.2c0 0 .42-.04.4 0c.8 0 1.1-.5 1.1-1.1c-.01-.02 0-1.1 0-1.1l1.2 0l0 2.2zm8 2.7c0-1-.7-1.8-1.9-1.8c-1.2 0-1.9.9-1.9 1.8c0 0 3.8 0 3.8 0zm1.4 2.2c-.4 1.3-1.5 2.2-3.2 2.2c-1.8 0-3.5-1.3-3.5-3.7c0-2.2 1.6-3.7 3.4-3.7c2.1 0 3.3 1.5 3.3 3.7c0 .2 0 .3 0 .4c0 0-5.3 0-5.3 0c.1 1.3 1 2.1 2.1 2.1c1.2 0 1.7-.6 2-1.4c0 0 1.2.4 1.2.4zm-2.8-5.8l-1.1 0l1.2-2.2l1.7 0l-1.8 2.2zm5.2 5.9c.5 0 1 .4 1 1c0 .6-.5 1-1 1c-.6 0-1-.4-1-1c0-.6.4-1 1-1z" stroke="none" fill="#fff"/></g><g id="Polygon164363"><path d="m4 95.7c1.3 0 2-1.1 2-2.5c0-1.4-.7-2.4-2-2.4c-1.2 0-2 1-2 2.4c0 1.5.7 2.5 2 2.5zm2 0c-.3.6-1 1.2-2.1 1.2c-2.1 0-3.3-1.6-3.3-3.7c0-2 1.3-3.6 3.3-3.6c1.2 0 1.9.6 2.1 1.1c.02.04 0-4.5 0-4.5l1.4 0c0 0-.03 9.24 0 9.2c0 .7 0 1.2 0 1.3c0 0-1.3 0-1.3 0c0-.1-.1-.5-.1-.9c0 0 0-.1 0-.1zm8.4-3.2c0-1-.7-1.8-1.9-1.8c-1.2 0-1.9.9-1.9 1.8c0 0 3.8 0 3.8 0zm1.4 2.2c-.4 1.3-1.5 2.2-3.2 2.2c-1.8 0-3.5-1.3-3.5-3.7c0-2.2 1.6-3.7 3.4-3.7c2.1 0 3.3 1.5 3.3 3.7c0 .2 0 .3 0 .4c0 0-5.3 0-5.3 0c.1 1.3 1 2.1 2.1 2.1c1.2 0 1.7-.6 2-1.4c0 0 1.2.4 1.2.4zm6.2-1.5c0 1.6 1 2.5 2.1 2.5c1.3 0 1.8-.9 2-1.4c0 0 1.2.5 1.2.5c-.4 1-1.4 2.1-3.2 2.1c-2 0-3.5-1.5-3.5-3.7c0-2.1 1.5-3.7 3.5-3.7c1.9 0 2.8 1.2 3.1 2.3c0 0-1.2.5-1.2.5c-.2-.7-.7-1.5-1.9-1.5c-1.1 0-2.1.8-2.1 2.4zm8.2 3.5l-1.3 0l0-10.5l1.3 0c0 0 .02 4.37 0 4.4c.5-.8 1.3-1 2.1-1c1.7 0 2.5 1.2 2.5 2.7c.03.01 0 4.4 0 4.4l-1.3 0c0 0-.03-4.16 0-4.2c0-.9-.4-1.7-1.7-1.7c-1 0-1.6.8-1.6 1.8c.02.03 0 4.1 0 4.1zm6.4-1.8c0-1.3.9-2 2.1-2.2c0 0 1.9-.2 1.9-.2c.4-.1.5-.3.5-.6c0-.6-.4-1.2-1.5-1.2c-1 0-1.5.6-1.6 1.4c0 0-1.3-.3-1.3-.3c.2-1.3 1.4-2.3 2.9-2.3c2.1 0 2.9 1.2 2.9 2.6c0 0 0 3.5 0 3.5c0 .6 0 1 .1 1.1c0 0-1.4 0-1.4 0c0-.1 0-.4 0-.9c-.4.5-1 1.1-2.3 1.1c-1.4 0-2.3-.9-2.3-2c0 0 0 0 0 0zm4.5-1.2c.01.04 0-.3 0-.3c0 0-2.12.34-2.1.3c-.6.1-1 .5-1 1.1c0 .5.4 1 1.1 1c1.1 0 2-.5 2-2.1zm8.4 5.8c0 0-.01-3.75 0-3.8c-.4.8-1.2 1.2-2.2 1.2c-2 0-3.3-1.6-3.3-3.7c0-2 1.2-3.6 3.3-3.6c1.2 0 1.9.6 2.2 1.2c.02.03 0-1 0-1l1.3 0l0 9.7l-1.3 0zm-2.1-3.8c1.3 0 2.1-1 2.1-2.5c0-1.4-.8-2.4-2.1-2.4c-1.2 0-2 1-2 2.4c0 1.5.8 2.5 2 2.5zm10.2.2c-.4.7-1.2 1-2.1 1c-1.6 0-2.6-1.2-2.6-2.7c.04-.05 0-4.4 0-4.4l1.4 0c0 0 0 4.15 0 4.1c0 1 .4 1.8 1.6 1.8c1.1 0 1.6-.7 1.6-1.7c.04-.04 0-4.2 0-4.2l1.4 0c0 0 0 5.64 0 5.6c0 .6 0 1.1.1 1.3c0 0-1.3 0-1.3 0c-.1-.1-.1-.5-.1-.8c0 0 0 0 0 0zm8.2-3.4c0-1-.6-1.8-1.9-1.8c-1.1 0-1.8.9-1.9 1.8c0 0 3.8 0 3.8 0zm1.4 2.2c-.4 1.3-1.5 2.2-3.1 2.2c-1.9 0-3.5-1.3-3.5-3.7c0-2.2 1.6-3.7 3.3-3.7c2.2 0 3.4 1.5 3.4 3.7c0 .2-.1.3-.1.4c0 0-5.2 0-5.2 0c0 1.3.9 2.1 2.1 2.1c1.1 0 1.7-.6 1.9-1.4c0 0 1.2.4 1.2.4zm6.8 2l-1.4 0l0-10.5l1.4 0c0 0-.01 4.37 0 4.4c.5-.8 1.3-1 2.1-1c1.7 0 2.5 1.2 2.5 2.7c0 .01 0 4.4 0 4.4l-1.4 0c0 0 .04-4.16 0-4.2c0-.9-.4-1.7-1.6-1.7c-1 0-1.6.8-1.6 1.8c-.01.03 0 4.1 0 4.1zm11.5-4.2c-.1-1-.7-1.8-1.9-1.8c-1.2 0-1.9.9-1.9 1.8c0 0 3.8 0 3.8 0zm1.4 2.2c-.4 1.3-1.6 2.2-3.2 2.2c-1.8 0-3.5-1.3-3.5-3.7c0-2.2 1.6-3.7 3.3-3.7c2.2 0 3.4 1.5 3.4 3.7c0 .2 0 .3 0 .4c0 0-5.3 0-5.3 0c0 1.3.9 2.1 2.1 2.1c1.2 0 1.7-.6 2-1.4c0 0 1.2.4 1.2.4zm6.1 1.2c-.4.7-1.2 1-2 1c-1.7 0-2.7-1.2-2.7-2.7c.05-.05 0-4.4 0-4.4l1.4 0c0 0 .01 4.15 0 4.1c0 1 .4 1.8 1.6 1.8c1.1 0 1.6-.7 1.6-1.7c.05-.04 0-4.2 0-4.2l1.4 0c0 0 .01 5.64 0 5.6c0 .6 0 1.1.1 1.3c0 0-1.3 0-1.3 0c-.1-.1-.1-.5-.1-.8c0 0 0 0 0 0zm7.5-4.8c-.2 0-.4 0-.6 0c-1.1 0-1.9.6-1.9 2.1c-.01.04 0 3.5 0 3.5l-1.4 0l0-6.9l1.4 0c0 0-.04 1.17 0 1.2c.5-1.1 1.3-1.4 2-1.4c.2 0 .4.1.5.1c0 0 0 1.4 0 1.4zm6.1 1.4c-.1-1-.7-1.8-1.9-1.8c-1.2 0-1.9.9-1.9 1.8c0 0 3.8 0 3.8 0zm1.4 2.2c-.4 1.3-1.6 2.2-3.2 2.2c-1.9 0-3.5-1.3-3.5-3.7c0-2.2 1.6-3.7 3.3-3.7c2.2 0 3.4 1.5 3.4 3.7c0 .2 0 .3 0 .4c0 0-5.3 0-5.3 0c0 1.3.9 2.1 2.1 2.1c1.2 0 1.7-.6 2-1.4c0 0 1.2.4 1.2.4zm8.2 1c1.3 0 2-1.1 2-2.5c0-1.4-.7-2.4-2-2.4c-1.2 0-2 1-2 2.4c0 1.5.7 2.5 2 2.5zm2 0c-.3.6-1 1.2-2.1 1.2c-2.1 0-3.3-1.6-3.3-3.7c0-2 1.3-3.6 3.3-3.6c1.2 0 1.9.6 2.1 1.1c.02.04 0-4.5 0-4.5l1.4 0c0 0-.03 9.24 0 9.2c0 .7 0 1.2 0 1.3c0 0-1.3 0-1.3 0c0-.1-.1-.5-.1-.9c0 0 0-.1 0-.1zm8.4-3.2c0-1-.7-1.8-1.9-1.8c-1.2 0-1.9.9-1.9 1.8c0 0 3.8 0 3.8 0zm1.4 2.2c-.4 1.3-1.5 2.2-3.2 2.2c-1.8 0-3.5-1.3-3.5-3.7c0-2.2 1.6-3.7 3.4-3.7c2.1 0 3.3 1.5 3.3 3.7c0 .2 0 .3 0 .4c0 0-5.3 0-5.3 0c.1 1.3 1 2.1 2.1 2.1c1.2 0 1.7-.6 2-1.4c0 0 1.2.4 1.2.4zm7.2-3.7l0 5.7l-1.4 0l0-5.7l-1.3 0l0-1.2l1.3 0c0 0-.01-1.22 0-1.2c0-1.6 1-2.4 2.3-2.4c.4 0 .7.1.8.1c0 0 0 1.3 0 1.3c-.1-.1-.3-.1-.6-.1c-.5 0-1.1.2-1.1 1.2c0-.05 0 1.1 0 1.1l1.7 0l0 1.2l-1.7 0zm8 2.2c0-1.6-1-2.4-2.2-2.4c-1.1 0-2.1.8-2.1 2.4c0 1.7 1 2.5 2.1 2.5c1.2 0 2.2-.8 2.2-2.5zm1.4 0c0 2.2-1.5 3.7-3.6 3.7c-2 0-3.5-1.5-3.5-3.7c0-2.1 1.5-3.7 3.5-3.7c2.1 0 3.6 1.6 3.6 3.7zm5.6-2.1c-.2 0-.4 0-.6 0c-1.1 0-1.9.6-1.9 2.1c.01.04 0 3.5 0 3.5l-1.4 0l0-6.9l1.4 0c0 0-.02 1.17 0 1.2c.5-1.1 1.4-1.4 2.1-1.4c.2 0 .3.1.4.1c0 0 0 1.4 0 1.4zm1.5 5.6l0-6.9l1.3 0c0 0-.03.88 0 .9c.4-.8 1.3-1.1 2.1-1.1c.9 0 1.7.4 2.1 1.3c.5-1 1.4-1.3 2.3-1.3c1.2 0 2.4.8 2.4 2.6c.02.01 0 4.5 0 4.5l-1.3 0c0 0-.03-4.35 0-4.3c0-1-.5-1.6-1.5-1.6c-1 0-1.6.7-1.6 1.7c-.02.01 0 4.2 0 4.2l-1.4 0c0 0 .02-4.35 0-4.3c0-.9-.4-1.6-1.5-1.6c-.9 0-1.6.7-1.6 1.7c.02.02 0 4.2 0 4.2l-1.3 0zm12-1.8c0-1.3.9-2 2.1-2.2c0 0 1.9-.2 1.9-.2c.4-.1.5-.3.5-.6c0-.6-.5-1.2-1.5-1.2c-1 0-1.5.6-1.6 1.4c0 0-1.3-.3-1.3-.3c.2-1.3 1.4-2.3 2.9-2.3c2 0 2.9 1.2 2.9 2.6c0 0 0 3.5 0 3.5c0 .6 0 1 0 1.1c0 0-1.3 0-1.3 0c0-.1-.1-.4-.1-.9c-.3.5-1 1.1-2.2 1.1c-1.4 0-2.3-.9-2.3-2c0 0 0 0 0 0zm4.5-1.2c0 .04 0-.3 0-.3c0 0-2.13.34-2.1.3c-.6.1-1 .5-1 1.1c0 .5.4 1 1.1 1c1.1 0 2-.5 2-2.1zm5.3-3.9l1.5 0l0 1.2l-1.5 0c0 0 0 3.61 0 3.6c0 .7.3 1 1 1c.2 0 .4-.1.5-.1c0 0 0 1.2 0 1.2c-.1 0-.5.1-.9.1c-1.2 0-2-.7-2-2c.04.02 0-3.8 0-3.8l-1.3 0l0-1.2c0 0 .39-.04.4 0c.7 0 1.1-.5 1.1-1.1c-.04-.02 0-1.1 0-1.1l1.2 0l0 2.2zm3.3 6.9l0-6.9l1.4 0l0 6.9l-1.4 0zm.7-10.6c.5 0 1 .5 1 1c0 .6-.5 1-1 1c-.5 0-1-.4-1-1c0-.5.5-1 1-1zm8.2 7.1c0-1.6-1.1-2.4-2.2-2.4c-1.2 0-2.2.8-2.2 2.4c0 1.7 1 2.5 2.2 2.5c1.1 0 2.2-.8 2.2-2.5zm1.3 0c0 2.2-1.4 3.7-3.5 3.7c-2.1 0-3.6-1.5-3.6-3.7c0-2.1 1.5-3.7 3.6-3.7c2.1 0 3.5 1.6 3.5 3.7zm3.2 3.5l-1.4 0l0-6.9l1.3 0c0 0 .02.96 0 1c.5-.9 1.4-1.2 2.2-1.2c1.6 0 2.5 1.2 2.5 2.7c-.04.01 0 4.4 0 4.4l-1.4 0c0 0 0-4.16 0-4.2c0-.9-.4-1.7-1.6-1.7c-1.1 0-1.6.8-1.6 1.9c-.05 0 0 4 0 4zm15.1-4.2c-.1-1-.7-1.8-2-1.8c-1.1 0-1.8.9-1.9 1.8c0 0 3.9 0 3.9 0zm1.3 2.2c-.4 1.3-1.5 2.2-3.1 2.2c-1.9 0-3.5-1.3-3.5-3.7c0-2.2 1.6-3.7 3.3-3.7c2.2 0 3.4 1.5 3.4 3.7c0 .2 0 .3 0 .4c0 0-5.3 0-5.3 0c0 1.3.9 2.1 2.1 2.1c1.1 0 1.7-.6 2-1.4c0 0 1.1.4 1.1.4zm3.6-4.9l1.6 0l0 1.2l-1.6 0c0 0 .05 3.61 0 3.6c0 .7.3 1 1 1c.2 0 .4-.1.6-.1c0 0 0 1.2 0 1.2c-.2 0-.5.1-1 .1c-1.2 0-1.9-.7-1.9-2c-.01.02 0-3.8 0-3.8l-1.3 0l0-1.2c0 0 .33-.04.3 0c.8 0 1.1-.5 1.1-1.1c0-.02 0-1.1 0-1.1l1.2 0l0 2.2zm9.8 5.9c1.3 0 2.1-1.1 2.1-2.5c0-1.4-.8-2.4-2-2.4c-1.3 0-2.1 1-2.1 2.4c0 1.5.7 2.5 2 2.5zm2.1 0c-.4.6-1.1 1.2-2.2 1.2c-2 0-3.3-1.6-3.3-3.7c0-2 1.3-3.6 3.3-3.6c1.3 0 1.9.6 2.2 1.1c-.05.04 0-4.5 0-4.5l1.3 0c0 0 0 9.24 0 9.2c0 .7.1 1.2.1 1.3c0 0-1.3 0-1.3 0c-.1-.1-.1-.5-.1-.9c0 0 0-.1 0-.1zm8.3-3.2c0-1-.7-1.8-1.9-1.8c-1.1 0-1.8.9-1.9 1.8c0 0 3.8 0 3.8 0zm1.4 2.2c-.4 1.3-1.5 2.2-3.1 2.2c-1.9 0-3.5-1.3-3.5-3.7c0-2.2 1.5-3.7 3.3-3.7c2.1 0 3.3 1.5 3.3 3.7c0 .2 0 .3 0 .4c0 0-5.2 0-5.2 0c0 1.3.9 2.1 2.1 2.1c1.1 0 1.7-.6 1.9-1.4c0 0 1.2.4 1.2.4zm6.2-1.5c0 1.6 1 2.5 2.1 2.5c1.4 0 1.8-.9 2-1.4c0 0 1.2.5 1.2.5c-.3 1-1.3 2.1-3.2 2.1c-2 0-3.5-1.5-3.5-3.7c0-2.1 1.5-3.7 3.5-3.7c1.9 0 2.8 1.2 3.1 2.3c0 0-1.2.5-1.2.5c-.2-.7-.7-1.5-1.9-1.5c-1.1 0-2.1.8-2.1 2.4zm10.8-2.1c-.2 0-.4 0-.6 0c-1.2 0-1.9.6-1.9 2.1c-.05.04 0 3.5 0 3.5l-1.4 0l0-6.9l1.3 0c0 0 .02 1.17 0 1.2c.5-1.1 1.4-1.4 2.1-1.4c.2 0 .4.1.5.1c0 0 0 1.4 0 1.4zm6 1.4c0-1-.6-1.8-1.9-1.8c-1.1 0-1.8.9-1.9 1.8c0 0 3.8 0 3.8 0zm1.4 2.2c-.4 1.3-1.5 2.2-3.1 2.2c-1.9 0-3.5-1.3-3.5-3.7c0-2.2 1.6-3.7 3.3-3.7c2.2 0 3.4 1.5 3.4 3.7c0 .2-.1.3-.1.4c0 0-5.2 0-5.2 0c0 1.3.9 2.1 2.1 2.1c1.1 0 1.7-.6 1.9-1.4c0 0 1.2.4 1.2.4zm-2.7-5.8l-1.2 0l1.3-2.2l1.7 0l-1.8 2.2zm9.2 3.6c0-1-.7-1.8-1.9-1.8c-1.2 0-1.9.9-1.9 1.8c0 0 3.8 0 3.8 0zm1.4 2.2c-.4 1.3-1.5 2.2-3.2 2.2c-1.8 0-3.5-1.3-3.5-3.7c0-2.2 1.6-3.7 3.4-3.7c2.1 0 3.3 1.5 3.3 3.7c0 .2 0 .3 0 .4c0 0-5.3 0-5.3 0c.1 1.3 1 2.1 2.1 2.1c1.2 0 1.7-.6 2-1.4c0 0 1.2.4 1.2.4zm5.6-3.6c-.2 0-.4 0-.6 0c-1.1 0-1.9.6-1.9 2.1c.02.04 0 3.5 0 3.5l-1.3 0l0-6.9l1.3 0c0 0-.01 1.17 0 1.2c.5-1.1 1.4-1.4 2.1-1.4c.2 0 .4.1.4.1c0 0 0 1.4 0 1.4zm9.7 4.8c-.4.7-1.2 1-2.1 1c-1.6 0-2.6-1.2-2.6-2.7c.03-.05 0-4.4 0-4.4l1.4 0c0 0-.01 4.15 0 4.1c0 1 .4 1.8 1.6 1.8c1.1 0 1.6-.7 1.6-1.7c.03-.04 0-4.2 0-4.2l1.4 0c0 0-.01 5.64 0 5.6c0 .6 0 1.1.1 1.3c0 0-1.3 0-1.3 0c-.1-.1-.1-.5-.1-.8c0 0 0 0 0 0zm5 .8l-1.4 0l0-6.9l1.3 0c0 0 .04.96 0 1c.5-.9 1.4-1.2 2.2-1.2c1.7 0 2.5 1.2 2.5 2.7c-.02.01 0 4.4 0 4.4l-1.4 0c0 0 .02-4.16 0-4.2c0-.9-.4-1.7-1.6-1.7c-1.1 0-1.6.8-1.6 1.9c-.03 0 0 4 0 4zm11.5-4.2c-.1-1-.7-1.8-2-1.8c-1.1 0-1.8.9-1.9 1.8c0 0 3.9 0 3.9 0zm1.3 2.2c-.4 1.3-1.5 2.2-3.1 2.2c-1.9 0-3.5-1.3-3.5-3.7c0-2.2 1.6-3.7 3.3-3.7c2.2 0 3.4 1.5 3.4 3.7c0 .2 0 .3-.1.4c0 0-5.2 0-5.2 0c0 1.3.9 2.1 2.1 2.1c1.1 0 1.7-.6 2-1.4c0 0 1.1.4 1.1.4zm8.6 2l-1.3 0l-2.9-6.9l1.6 0l1.9 5.3l2.1-5.3l1.4 0l-2.8 6.9zm3.6-1.8c0-1.3.9-2 2.1-2.2c0 0 1.9-.2 1.9-.2c.4-.1.6-.3.6-.6c0-.6-.5-1.2-1.6-1.2c-.9 0-1.5.6-1.5 1.4c0 0-1.3-.3-1.3-.3c.1-1.3 1.3-2.3 2.8-2.3c2.1 0 2.9 1.2 2.9 2.6c0 0 0 3.5 0 3.5c0 .6.1 1 .1 1.1c0 0-1.3 0-1.3 0c-.1-.1-.1-.4-.1-.9c-.3.5-1 1.1-2.3 1.1c-1.4 0-2.3-.9-2.3-2c0 0 0 0 0 0zm4.6-1.2c-.05.04 0-.3 0-.3c0 0-2.18.34-2.2.3c-.6.1-1 .5-1 1.1c0 .5.4 1 1.1 1c1.2 0 2.1-.5 2.1-2.1zm3.4 3l0-10.5l1.4 0l0 10.5l-1.4 0zm8.4-4.2c0-1-.7-1.8-1.9-1.8c-1.1 0-1.8.9-1.9 1.8c0 0 3.8 0 3.8 0zm1.4 2.2c-.4 1.3-1.5 2.2-3.1 2.2c-1.9 0-3.6-1.3-3.6-3.7c0-2.2 1.6-3.7 3.4-3.7c2.1 0 3.3 1.5 3.3 3.7c0 .2 0 .3 0 .4c0 0-5.2 0-5.2 0c0 1.3.9 2.1 2.1 2.1c1.1 0 1.7-.6 1.9-1.4c0 0 1.2.4 1.2.4zm6.2 1.2c-.4.7-1.3 1-2.1 1c-1.6 0-2.6-1.2-2.6-2.7c-.02-.05 0-4.4 0-4.4l1.3 0c0 0 .05 4.15 0 4.1c0 1 .5 1.8 1.6 1.8c1.1 0 1.7-.7 1.7-1.7c-.02-.04 0-4.2 0-4.2l1.3 0c0 0 .04 5.64 0 5.6c0 .6.1 1.1.1 1.3c0 0-1.3 0-1.3 0c0-.1 0-.5 0-.8c0 0 0 0 0 0zm7.4-4.8c-.2 0-.4 0-.6 0c-1.1 0-1.9.6-1.9 2.1c.02.04 0 3.5 0 3.5l-1.3 0l0-6.9l1.3 0c0 0 0 1.17 0 1.2c.5-1.1 1.4-1.4 2.1-1.4c.2 0 .4.1.4.1c0 0 0 1.4 0 1.4z" stroke="none" fill="#fff"/></g><g id="Polygon164362"><path d="m.7 74.6c0-3.5 2.5-5.4 5.1-5.4c2.3 0 4 1.3 4.5 3.3c0 0-1.3.5-1.3.5c-.4-1.6-1.6-2.5-3.2-2.5c-1.9 0-3.7 1.4-3.7 4.1c0 2.7 1.8 4 3.7 4c1.7 0 2.8-1 3.2-2.4c0 0 1.3.4 1.3.4c-.6 2-2.2 3.3-4.5 3.3c-2.7 0-5.1-1.9-5.1-5.3zm15.7.9c0-1-.6-1.8-1.9-1.8c-1.1 0-1.8.9-1.9 1.8c0 0 3.8 0 3.8 0zm1.4 2.2c-.4 1.3-1.5 2.2-3.1 2.2c-1.9 0-3.5-1.3-3.5-3.7c0-2.2 1.6-3.7 3.3-3.7c2.2 0 3.4 1.5 3.4 3.7c0 .2-.1.3-.1.4c0 0-5.2 0-5.2 0c0 1.3.9 2.1 2.1 2.1c1.1 0 1.7-.6 1.9-1.4c0 0 1.2.4 1.2.4zm3.6-4.9l1.5 0l0 1.2l-1.5 0c0 0 .03 3.61 0 3.6c0 .7.3 1 1 1c.2 0 .4-.1.5-.1c0 0 0 1.2 0 1.2c-.1 0-.4.1-.9.1c-1.2 0-1.9-.7-1.9-2c-.03.02 0-3.8 0-3.8l-1.4 0l0-1.2c0 0 .41-.04.4 0c.8 0 1.1-.5 1.1-1.1c-.02-.02 0-1.1 0-1.1l1.2 0l0 2.2zm5.2 0l1.5 0l0 1.2l-1.5 0c0 0-.02 3.61 0 3.6c0 .7.2 1 .9 1c.2 0 .5-.1.6-.1c0 0 0 1.2 0 1.2c-.1 0-.5.1-.9.1c-1.2 0-2-.7-2-2c.02.02 0-3.8 0-3.8l-1.3 0l0-1.2c0 0 .36-.04.4 0c.7 0 1-.5 1-1.1c.03-.02 0-1.1 0-1.1l1.3 0l0 2.2zm7.9 2.7c0-1-.7-1.8-1.9-1.8c-1.1 0-1.8.9-1.9 1.8c0 0 3.8 0 3.8 0zm1.4 2.2c-.4 1.3-1.5 2.2-3.1 2.2c-1.9 0-3.5-1.3-3.5-3.7c0-2.2 1.5-3.7 3.3-3.7c2.1 0 3.3 1.5 3.3 3.7c0 .2 0 .3 0 .4c0 0-5.2 0-5.2 0c0 1.3.9 2.1 2.1 2.1c1.1 0 1.7-.6 1.9-1.4c0 0 1.2.4 1.2.4zm5 .2c0-1.3.9-2 2.1-2.2c0 0 1.9-.2 1.9-.2c.4-.1.5-.3.5-.6c0-.6-.4-1.2-1.5-1.2c-1 0-1.5.6-1.6 1.4c0 0-1.3-.3-1.3-.3c.2-1.3 1.4-2.3 2.9-2.3c2.1 0 2.9 1.2 2.9 2.6c0 0 0 3.5 0 3.5c0 .6 0 1 .1 1.1c0 0-1.4 0-1.4 0c0-.1 0-.4 0-.9c-.3.5-1 1.1-2.3 1.1c-1.4 0-2.3-.9-2.3-2c0 0 0 0 0 0zm4.5-1.2c.01.04 0-.3 0-.3c0 0-2.12.34-2.1.3c-.6.1-1 .5-1 1.1c0 .5.4 1 1.1 1c1.1 0 2-.5 2-2.1zm3.5 5.8l0-9.7l1.3 0c0 0 .01 1.04 0 1c.4-.7 1.2-1.2 2.3-1.2c2.1 0 3.3 1.6 3.3 3.6c0 2.1-1.3 3.7-3.3 3.7c-1.1 0-1.9-.5-2.3-1.1c.04-.01 0 3.7 0 3.7l-1.3 0zm5.5-6.3c0-1.4-.8-2.4-2.1-2.4c-1.2 0-2.1 1-2.1 2.4c0 1.5.9 2.5 2.1 2.5c1.3 0 2.1-1 2.1-2.5c0 0 0 0 0 0zm3.1 6.3l0-9.7l1.3 0c0 0 .01 1.04 0 1c.4-.7 1.2-1.2 2.3-1.2c2.1 0 3.2 1.6 3.2 3.6c0 2.1-1.2 3.7-3.2 3.7c-1.1 0-1.9-.5-2.3-1.1c.04-.01 0 3.7 0 3.7l-1.3 0zm5.5-6.3c0-1.4-.8-2.4-2.1-2.4c-1.2 0-2.1 1-2.1 2.4c0 1.5.9 2.5 2.1 2.5c1.3 0 2.1-1 2.1-2.5c0 0 0 0 0 0zm7-2.1c-.2 0-.4 0-.6 0c-1.2 0-1.9.6-1.9 2.1c-.05.04 0 3.5 0 3.5l-1.4 0l0-6.9l1.3 0c0 0 .02 1.17 0 1.2c.5-1.1 1.4-1.4 2.1-1.4c.2 0 .4.1.5.1c0 0 0 1.4 0 1.4zm6.5 2.1c0-1.6-1-2.4-2.2-2.4c-1.1 0-2.1.8-2.1 2.4c0 1.7 1 2.5 2.1 2.5c1.2 0 2.2-.8 2.2-2.5zm1.4 0c0 2.2-1.5 3.7-3.6 3.7c-2.1 0-3.5-1.5-3.5-3.7c0-2.1 1.4-3.7 3.5-3.7c2.1 0 3.6 1.6 3.6 3.7zm2.5 0c0 1.6 1 2.5 2.2 2.5c1.3 0 1.8-.9 1.9-1.4c0 0 1.2.5 1.2.5c-.3 1-1.3 2.1-3.1 2.1c-2.1 0-3.5-1.5-3.5-3.7c0-2.1 1.5-3.7 3.5-3.7c1.8 0 2.8 1.2 3.1 2.3c0 0-1.3.5-1.3.5c-.1-.7-.6-1.5-1.8-1.5c-1.1 0-2.2.8-2.2 2.4zm8.3 3.5l-1.4 0l0-10.5l1.4 0c0 0-.02 4.37 0 4.4c.5-.8 1.3-1 2.1-1c1.7 0 2.5 1.2 2.5 2.7c-.01.01 0 4.4 0 4.4l-1.4 0c0 0 .03-4.16 0-4.2c0-.9-.4-1.7-1.6-1.7c-1 0-1.6.8-1.6 1.8c-.02.03 0 4.1 0 4.1zm11.5-4.2c-.1-1-.7-1.8-1.9-1.8c-1.2 0-1.9.9-1.9 1.8c0 0 3.8 0 3.8 0zm1.3 2.2c-.3 1.3-1.5 2.2-3.1 2.2c-1.9 0-3.5-1.3-3.5-3.7c0-2.2 1.6-3.7 3.3-3.7c2.2 0 3.4 1.5 3.4 3.7c0 .2 0 .3 0 .4c0 0-5.3 0-5.3 0c0 1.3.9 2.1 2.1 2.1c1.1 0 1.7-.6 2-1.4c0 0 1.1.4 1.1.4zm6.3 2.1c.1 1 .8 1.7 1.9 1.7c1.4 0 2.1-.7 2.1-2.2c0 0 0-1 0-1c-.3.6-1.1 1.1-2.1 1.1c-1.9 0-3.2-1.4-3.2-3.4c0-1.9 1.2-3.4 3.2-3.4c1 0 1.8.4 2.1 1.1c.01.03 0-.9 0-.9l1.4 0c0 0-.04 6.41 0 6.4c0 1.8-.9 3.5-3.5 3.5c-1.8 0-3.1-1.1-3.3-2.6c0 0 1.4-.3 1.4-.3zm4.1-3.8c0-1.3-.9-2.2-2-2.2c-1.2 0-2.1.9-2.1 2.2c0 1.4.8 2.3 2.1 2.3c1.1 0 2-.9 2-2.3zm3.4 3.7l0-10.5l1.4 0l0 10.5l-1.4 0zm8.9-3.5c0-1.6-1-2.4-2.2-2.4c-1.2 0-2.2.8-2.2 2.4c0 1.7 1 2.5 2.2 2.5c1.2 0 2.2-.8 2.2-2.5zm1.4 0c0 2.2-1.5 3.7-3.6 3.7c-2.1 0-3.6-1.5-3.6-3.7c0-2.1 1.5-3.7 3.6-3.7c2.1 0 3.6 1.6 3.6 3.7zm1.7 3.5l0-10.5l1.4 0c0 0-.04 4.54 0 4.5c.3-.6 1.1-1.1 2.3-1.1c2.1 0 3.2 1.6 3.2 3.6c0 2.1-1.2 3.7-3.3 3.7c-1 0-1.8-.4-2.2-1.2c-.04.02 0 1 0 1l-1.4 0zm3.4-5.9c-1.2 0-2.1.9-2.1 2.4c0 1.5.9 2.5 2.1 2.5c1.3 0 2.1-1 2.1-2.5c0-1.5-.8-2.4-2.1-2.4zm4.8 4.1c0-1.3.9-2 2.1-2.2c0 0 1.9-.2 1.9-.2c.4-.1.5-.3.5-.6c0-.6-.4-1.2-1.5-1.2c-1 0-1.5.6-1.6 1.4c0 0-1.3-.3-1.3-.3c.2-1.3 1.4-2.3 2.9-2.3c2.1 0 2.9 1.2 2.9 2.6c0 0 0 3.5 0 3.5c0 .6 0 1 .1 1.1c0 0-1.4 0-1.4 0c0-.1 0-.4 0-.9c-.3.5-1 1.1-2.3 1.1c-1.4 0-2.3-.9-2.3-2c0 0 0 0 0 0zm4.5-1.2c.01.04 0-.3 0-.3c0 0-2.12.34-2.1.3c-.6.1-1 .5-1 1.1c0 .5.4 1 1.1 1c1.1 0 2-.5 2-2.1zm3.5 3l0-10.5l1.4 0l0 10.5l-1.4 0zm8.4-4.2c-.1-1-.7-1.8-1.9-1.8c-1.2 0-1.9.9-1.9 1.8c0 0 3.8 0 3.8 0zm1.3 2.2c-.3 1.3-1.5 2.2-3.1 2.2c-1.9 0-3.5-1.3-3.5-3.7c0-2.2 1.6-3.7 3.3-3.7c2.2 0 3.4 1.5 3.4 3.7c0 .2 0 .3 0 .4c0 0-5.3 0-5.3 0c0 1.3.9 2.1 2.1 2.1c1.1 0 1.7-.6 2-1.4c0 0 1.1.4 1.1.4zm5.5 4.8l0-9.7l1.3 0c0 0-.02 1.04 0 1c.4-.7 1.2-1.2 2.3-1.2c2.1 0 3.2 1.6 3.2 3.6c0 2.1-1.2 3.7-3.2 3.7c-1.1 0-1.9-.5-2.3-1.1c.01-.01 0 3.7 0 3.7l-1.3 0zm5.4-6.3c0-1.4-.8-2.4-2-2.4c-1.3 0-2.1 1-2.1 2.4c0 1.5.8 2.5 2.1 2.5c1.2 0 2-1 2-2.5c0 0 0 0 0 0zm7.9-.7c-.1-1-.7-1.8-2-1.8c-1.1 0-1.8.9-1.9 1.8c0 0 3.9 0 3.9 0zm1.3 2.2c-.4 1.3-1.5 2.2-3.1 2.2c-1.9 0-3.5-1.3-3.5-3.7c0-2.2 1.6-3.7 3.3-3.7c2.2 0 3.4 1.5 3.4 3.7c0 .2 0 .3-.1.4c0 0-5.2 0-5.2 0c0 1.3.9 2.1 2.1 2.1c1.1 0 1.7-.6 2-1.4c0 0 1.1.4 1.1.4zm5.7-3.6c-.2 0-.4 0-.6 0c-1.2 0-1.9.6-1.9 2.1c-.02.04 0 3.5 0 3.5l-1.4 0l0-6.9l1.3 0c0 0 .05 1.17 0 1.2c.6-1.1 1.4-1.4 2.1-1.4c.2 0 .4.1.5.1c0 0 0 1.4 0 1.4zm1.4 5.6l0-6.9l1.3 0c0 0 .04.88 0 .9c.5-.8 1.3-1.1 2.2-1.1c.8 0 1.7.4 2 1.3c.6-1 1.5-1.3 2.4-1.3c1.2 0 2.4.8 2.4 2.6c-.01.01 0 4.5 0 4.5l-1.4 0c0 0 .04-4.35 0-4.3c0-1-.4-1.6-1.4-1.6c-1 0-1.7.7-1.7 1.7c.05.01 0 4.2 0 4.2l-1.3 0c0 0-.01-4.35 0-4.3c0-.9-.4-1.6-1.5-1.6c-1 0-1.6.7-1.6 1.7c-.02.02 0 4.2 0 4.2l-1.4 0zm17.2-4.2c-.1-1-.7-1.8-2-1.8c-1.1 0-1.8.9-1.9 1.8c0 0 3.9 0 3.9 0zm1.3 2.2c-.4 1.3-1.5 2.2-3.1 2.2c-1.9 0-3.5-1.3-3.5-3.7c0-2.2 1.6-3.7 3.3-3.7c2.2 0 3.4 1.5 3.4 3.7c0 .2 0 .3 0 .4c0 0-5.3 0-5.3 0c0 1.3.9 2.1 2.1 2.1c1.1 0 1.7-.6 2-1.4c0 0 1.1.4 1.1.4zm3.6-4.9l1.6 0l0 1.2l-1.6 0c0 0 .05 3.61 0 3.6c0 .7.3 1 1 1c.2 0 .4-.1.6-.1c0 0 0 1.2 0 1.2c-.2 0-.5.1-1 .1c-1.2 0-1.9-.7-1.9-2c-.01.02 0-3.8 0-3.8l-1.3 0l0-1.2c0 0 .33-.04.3 0c.8 0 1.1-.5 1.1-1.1c0-.02 0-1.1 0-1.1l1.2 0l0 2.2zm9.9 5.9c1.2 0 2-1.1 2-2.5c0-1.4-.8-2.4-2-2.4c-1.3 0-2.1 1-2.1 2.4c0 1.5.7 2.5 2.1 2.5zm2 0c-.4.6-1.1 1.2-2.2 1.2c-2 0-3.3-1.6-3.3-3.7c0-2 1.3-3.6 3.3-3.6c1.3 0 1.9.6 2.2 1.1c-.05.04 0-4.5 0-4.5l1.3 0c0 0 0 9.24 0 9.2c0 .7.1 1.2.1 1.3c0 0-1.3 0-1.3 0c-.1-.1-.1-.5-.1-.9c0 0 0-.1 0-.1zm8.3-3.2c0-1-.7-1.8-1.9-1.8c-1.1 0-1.8.9-1.9 1.8c0 0 3.8 0 3.8 0zm1.4 2.2c-.4 1.3-1.5 2.2-3.1 2.2c-1.9 0-3.5-1.3-3.5-3.7c0-2.2 1.5-3.7 3.3-3.7c2.1 0 3.3 1.5 3.3 3.7c0 .2 0 .3 0 .4c0 0-5.2 0-5.2 0c0 1.3.9 2.1 2.1 2.1c1.1 0 1.7-.6 1.9-1.4c0 0 1.2.4 1.2.4zm5.4 2l0-6.9l1.3 0c0 0 .01.88 0 .9c.4-.8 1.3-1.1 2.1-1.1c.9 0 1.7.4 2.1 1.3c.6-1 1.5-1.3 2.3-1.3c1.3 0 2.5.8 2.5 2.6c-.05.01 0 4.5 0 4.5l-1.4 0c0 0 .01-4.35 0-4.3c0-1-.4-1.6-1.5-1.6c-.9 0-1.6.7-1.6 1.7c.02.01 0 4.2 0 4.2l-1.3 0c0 0-.04-4.35 0-4.3c0-.9-.5-1.6-1.5-1.6c-1 0-1.6.7-1.6 1.7c-.05.02 0 4.2 0 4.2l-1.4 0zm12-1.8c0-1.3.9-2 2.1-2.2c0 0 1.9-.2 1.9-.2c.4-.1.5-.3.5-.6c0-.6-.4-1.2-1.5-1.2c-.9 0-1.5.6-1.6 1.4c0 0-1.3-.3-1.3-.3c.2-1.3 1.4-2.3 2.9-2.3c2.1 0 2.9 1.2 2.9 2.6c0 0 0 3.5 0 3.5c0 .6.1 1 .1 1.1c0 0-1.3 0-1.3 0c-.1-.1-.1-.4-.1-.9c-.3.5-1 1.1-2.3 1.1c-1.4 0-2.3-.9-2.3-2c0 0 0 0 0 0zm4.5-1.2c.03.04 0-.3 0-.3c0 0-2.1.34-2.1.3c-.6.1-1 .5-1 1.1c0 .5.4 1 1.1 1c1.1 0 2-.5 2-2.1zm5.1-.5l-2.5-3.4l1.6 0l1.7 2.4l1.7-2.4l1.6 0c0 0-2.44 3.38-2.4 3.4c.4.5 2.1 3 2.5 3.5c.03.03-1.6 0-1.6 0l-1.8-2.5l-1.8 2.5l-1.6 0l2.6-3.5zm5.5 3.5l0-6.9l1.4 0l0 6.9l-1.4 0zm.7-10.6c.6 0 1 .5 1 1c0 .6-.4 1-1 1c-.5 0-1-.4-1-1c0-.5.5-1 1-1zm3 10.6l0-6.9l1.3 0c0 0 .01.88 0 .9c.4-.8 1.3-1.1 2.1-1.1c.9 0 1.7.4 2.1 1.3c.6-1 1.5-1.3 2.3-1.3c1.3 0 2.5.8 2.5 2.6c-.05.01 0 4.5 0 4.5l-1.4 0c0 0 .01-4.35 0-4.3c0-1-.4-1.6-1.5-1.6c-.9 0-1.6.7-1.6 1.7c.01.01 0 4.2 0 4.2l-1.3 0c0 0-.05-4.35 0-4.3c0-.9-.5-1.6-1.5-1.6c-1 0-1.7.7-1.7 1.7c.05.02 0 4.2 0 4.2l-1.3 0zm12.4 0l0-6.9l1.4 0l0 6.9l-1.4 0zm.7-10.6c.5 0 1 .5 1 1c0 .6-.5 1-1 1c-.5 0-1-.4-1-1c0-.5.5-1 1-1zm3.6 8.4c.1.7.6 1.3 1.6 1.3c.8 0 1.2-.4 1.2-.9c0-.5-.3-.8-.9-.9c0 0-1.2-.3-1.2-.3c-1.1-.2-1.7-1-1.7-2c0-1.1 1.1-2.2 2.4-2.2c2 0 2.5 1.3 2.7 1.9c0 0-1.2.5-1.2.5c-.1-.4-.4-1.2-1.5-1.2c-.7 0-1.1.4-1.1.9c0 .4.2.8.8.9c0 0 1.1.2 1.1.2c1.3.3 1.9 1.1 1.9 2.1c0 1-.8 2.1-2.5 2.1c-1.9 0-2.7-1.2-2.9-2c0 0 1.3-.4 1.3-.4zm10.6-2c-.1-1-.7-1.8-1.9-1.8c-1.2 0-1.9.9-1.9 1.8c0 0 3.8 0 3.8 0zm1.4 2.2c-.4 1.3-1.6 2.2-3.2 2.2c-1.9 0-3.5-1.3-3.5-3.7c0-2.2 1.6-3.7 3.3-3.7c2.2 0 3.4 1.5 3.4 3.7c0 .2 0 .3 0 .4c0 0-5.3 0-5.3 0c0 1.3.9 2.1 2.1 2.1c1.2 0 1.7-.6 2-1.4c0 0 1.2.4 1.2.4zm5.6-3.6c-.2 0-.4 0-.6 0c-1.1 0-1.9.6-1.9 2.1c0 .04 0 3.5 0 3.5l-1.4 0l0-6.9l1.4 0c0 0-.03 1.17 0 1.2c.5-1.1 1.3-1.4 2.1-1.4c.1 0 .3.1.4.1c0 0 0 1.4 0 1.4zm5.1 5.6l0-10.5l1.3 0l0 10.5l-1.3 0zm4.1-10.4c.6 0 1.1.5 1.1 1.3c0 1.8-1.2 2.5-2 2.6c0 0 0-.7 0-.7c.6-.1 1.1-.8 1.1-1.4c-.1 0-.2 0-.3 0c-.5 0-.9-.3-.9-.9c0-.5.4-.9 1-.9zm2.8 10.4l0-6.9l1.4 0l0 6.9l-1.4 0zm.7-10.6c.5 0 1 .5 1 1c0 .6-.5 1-1 1c-.6 0-1-.4-1-1c0-.5.4-1 1-1zm3 10.6l0-6.9l1.3 0c0 0-.01.88 0 .9c.4-.8 1.3-1.1 2.1-1.1c.9 0 1.7.4 2.1 1.3c.5-1 1.4-1.3 2.3-1.3c1.2 0 2.4.8 2.4 2.6c.03.01 0 4.5 0 4.5l-1.3 0c0 0-.01-4.35 0-4.3c0-1-.5-1.6-1.5-1.6c-1 0-1.6.7-1.6 1.7c0 .01 0 4.2 0 4.2l-1.4 0c0 0 .03-4.35 0-4.3c0-.9-.4-1.6-1.4-1.6c-1 0-1.7.7-1.7 1.7c.03.02 0 4.2 0 4.2l-1.3 0zm12.4 2.8l0-9.7l1.3 0c0 0 .03 1.04 0 1c.4-.7 1.2-1.2 2.4-1.2c2.1 0 3.2 1.6 3.2 3.6c0 2.1-1.2 3.7-3.3 3.7c-1.1 0-1.9-.5-2.2-1.1c-.04-.01 0 3.7 0 3.7l-1.4 0zm5.5-6.3c0-1.4-.8-2.4-2.1-2.4c-1.2 0-2.1 1-2.1 2.4c0 1.5.9 2.5 2.1 2.5c1.3 0 2.1-1 2.1-2.5c0 0 0 0 0 0zm2.7 1.7c0-1.3.9-2 2.1-2.2c0 0 1.9-.2 1.9-.2c.4-.1.5-.3.5-.6c0-.6-.4-1.2-1.5-1.2c-1 0-1.5.6-1.6 1.4c0 0-1.3-.3-1.3-.3c.2-1.3 1.4-2.3 2.9-2.3c2.1 0 2.9 1.2 2.9 2.6c0 0 0 3.5 0 3.5c0 .6 0 1 .1 1.1c0 0-1.4 0-1.4 0c0-.1 0-.4 0-.9c-.3.5-1 1.1-2.3 1.1c-1.4 0-2.3-.9-2.3-2c0 0 0 0 0 0zm4.5-1.2c.01.04 0-.3 0-.3c0 0-2.12.34-2.1.3c-.6.1-1 .5-1 1.1c0 .5.4 1 1.1 1c1.1 0 2-.5 2-2.1zm4.3-.5c0 1.6 1 2.5 2.1 2.5c1.3 0 1.8-.9 2-1.4c0 0 1.2.5 1.2.5c-.4 1-1.4 2.1-3.2 2.1c-2 0-3.5-1.5-3.5-3.7c0-2.1 1.5-3.7 3.5-3.7c1.9 0 2.8 1.2 3.1 2.3c0 0-1.2.5-1.2.5c-.2-.7-.7-1.5-1.9-1.5c-1.1 0-2.1.8-2.1 2.4zm8.7-3.4l1.5 0l0 1.2l-1.5 0c0 0 0 3.61 0 3.6c0 .7.3 1 1 1c.1 0 .4-.1.5-.1c0 0 0 1.2 0 1.2c-.1 0-.5.1-.9.1c-1.2 0-2-.7-2-2c.04.02 0-3.8 0-3.8l-1.3 0l0-1.2c0 0 .38-.04.4 0c.7 0 1.1-.5 1.1-1.1c-.04-.02 0-1.1 0-1.1l1.2 0l0 2.2z" stroke="none" fill="#fff"/></g><g id="Polygon164361"><path d="m1.2 62.7l0-10.5l1.3 0l0 10.5l-1.3 0zm4-10.4c.6 0 1.2.5 1.2 1.3c0 1.8-1.2 2.5-2 2.6c0 0 0-.7 0-.7c.6-.1 1.1-.8 1.1-1.4c-.1 0-.2 0-.3 0c-.5 0-.9-.3-.9-.9c0-.5.4-.9.9-.9zm6.7 6.2c0-1-.7-1.8-1.9-1.8c-1.1 0-1.8.9-1.9 1.8c0 0 3.8 0 3.8 0zm1.4 2.2c-.4 1.3-1.5 2.2-3.1 2.2c-1.9 0-3.5-1.3-3.5-3.7c0-2.2 1.5-3.7 3.3-3.7c2.1 0 3.3 1.5 3.3 3.7c0 .2 0 .3 0 .4c0 0-5.2 0-5.2 0c0 1.3.9 2.1 2.1 2.1c1.1 0 1.7-.6 1.9-1.4c0 0 1.2.4 1.2.4zm1.8 2l0-6.9l1.3 0c0 0-.02.88 0 .9c.4-.8 1.3-1.1 2.1-1.1c.9 0 1.7.4 2.1 1.3c.5-1 1.4-1.3 2.3-1.3c1.2 0 2.4.8 2.4 2.6c.03.01 0 4.5 0 4.5l-1.3 0c0 0-.02-4.35 0-4.3c0-1-.5-1.6-1.5-1.6c-1 0-1.6.7-1.6 1.7c-.01.01 0 4.2 0 4.2l-1.4 0c0 0 .03-4.35 0-4.3c0-.9-.4-1.6-1.4-1.6c-1 0-1.7.7-1.7 1.7c.03.02 0 4.2 0 4.2l-1.3 0zm12.4 2.8l0-9.7l1.3 0c0 0 .02 1.04 0 1c.4-.7 1.2-1.2 2.4-1.2c2 0 3.2 1.6 3.2 3.6c0 2.1-1.2 3.7-3.3 3.7c-1.1 0-1.9-.5-2.2-1.1c-.05-.01 0 3.7 0 3.7l-1.4 0zm5.5-6.3c0-1.4-.8-2.4-2.1-2.4c-1.2 0-2.1 1-2.1 2.4c0 1.5.9 2.5 2.1 2.5c1.3 0 2.1-1 2.1-2.5c0 0 0 0 0 0zm3.1 3.5l0-10.5l1.4 0l0 10.5l-1.4 0zm8.9-3.5c0-1.6-1.1-2.4-2.2-2.4c-1.2 0-2.2.8-2.2 2.4c0 1.7 1 2.5 2.2 2.5c1.1 0 2.2-.8 2.2-2.5zm1.3 0c0 2.2-1.4 3.7-3.5 3.7c-2.1 0-3.6-1.5-3.6-3.7c0-2.1 1.5-3.7 3.6-3.7c2.1 0 3.5 1.6 3.5 3.7zm1.8 3.5l0-6.9l1.3 0l0 6.9l-1.3 0zm.6-10.6c.6 0 1 .5 1 1c0 .6-.4 1-1 1c-.5 0-.9-.4-.9-1c0-.5.4-1 .9-1zm11.4 6.4c-.1-1-.7-1.8-1.9-1.8c-1.2 0-1.9.9-1.9 1.8c0 0 3.8 0 3.8 0zm1.3 2.2c-.3 1.3-1.5 2.2-3.1 2.2c-1.9 0-3.5-1.3-3.5-3.7c0-2.2 1.6-3.7 3.3-3.7c2.2 0 3.4 1.5 3.4 3.7c0 .2 0 .3 0 .4c0 0-5.3 0-5.3 0c0 1.3.9 2.1 2.1 2.1c1.1 0 1.7-.6 2-1.4c0 0 1.1.4 1.1.4zm3.7-4.9l1.5 0l0 1.2l-1.5 0c0 0-.04 3.61 0 3.6c0 .7.2 1 .9 1c.2 0 .5-.1.6-.1c0 0 0 1.2 0 1.2c-.1 0-.5.1-1 .1c-1.1 0-1.9-.7-1.9-2c0 .02 0-3.8 0-3.8l-1.3 0l0-1.2c0 0 .34-.04.3 0c.8 0 1.1-.5 1.1-1.1c.01-.02 0-1.1 0-1.1l1.3 0l0 2.2zm8.7 1.2l0 5.7l-1.4 0l0-5.7l-1.3 0l0-1.2l1.3 0c0 0 .03-1.22 0-1.2c0-1.6 1.1-2.4 2.3-2.4c.5 0 .8.1.8.1c0 0 0 1.3 0 1.3c0-.1-.2-.1-.6-.1c-.4 0-1.1.2-1.1 1.2c.03-.05 0 1.1 0 1.1l1.7 0l0 1.2l-1.7 0zm2.5 3.9c0-1.3.9-2 2.1-2.2c0 0 1.9-.2 1.9-.2c.5-.1.6-.3.6-.6c0-.6-.5-1.2-1.5-1.2c-1 0-1.5.6-1.6 1.4c0 0-1.3-.3-1.3-.3c.1-1.3 1.3-2.3 2.8-2.3c2.1 0 2.9 1.2 2.9 2.6c0 0 0 3.5 0 3.5c0 .6.1 1 .1 1.1c0 0-1.3 0-1.3 0c0-.1-.1-.4-.1-.9c-.3.5-1 1.1-2.2 1.1c-1.5 0-2.4-.9-2.4-2c0 0 0 0 0 0zm4.6-1.2c-.03.04 0-.3 0-.3c0 0-2.17.34-2.2.3c-.5.1-1 .5-1 1.1c0 .5.5 1 1.1 1c1.2 0 2.1-.5 2.1-2.1zm4.3-.5c0 1.6 1 2.5 2.1 2.5c1.3 0 1.8-.9 1.9-1.4c0 0 1.2.5 1.2.5c-.3 1-1.3 2.1-3.1 2.1c-2 0-3.5-1.5-3.5-3.7c0-2.1 1.5-3.7 3.5-3.7c1.8 0 2.8 1.2 3.1 2.3c0 0-1.3.5-1.3.5c-.1-.7-.6-1.5-1.8-1.5c-1.1 0-2.1.8-2.1 2.4zm6.8 3.5l0-6.9l1.4 0l0 6.9l-1.4 0zm.7-10.6c.5 0 1 .5 1 1c0 .6-.5 1-1 1c-.5 0-1-.4-1-1c0-.5.5-1 1-1zm3 10.6l0-10.5l1.4 0l0 10.5l-1.4 0zm3.7 0l0-6.9l1.3 0l0 6.9l-1.3 0zm.6-10.6c.6 0 1 .5 1 1c0 .6-.4 1-1 1c-.5 0-.9-.4-.9-1c0-.5.4-1 .9-1zm4.9 3.7l1.5 0l0 1.2l-1.5 0c0 0-.02 3.61 0 3.6c0 .7.2 1 .9 1c.2 0 .5-.1.6-.1c0 0 0 1.2 0 1.2c-.1 0-.5.1-.9.1c-1.2 0-2-.7-2-2c.01.02 0-3.8 0-3.8l-1.3 0l0-1.2c0 0 .36-.04.4 0c.7 0 1-.5 1-1.1c.03-.02 0-1.1 0-1.1l1.3 0l0 2.2zm7.9 2.7c0-1-.7-1.8-1.9-1.8c-1.1 0-1.8.9-1.9 1.8c0 0 3.8 0 3.8 0zm1.4 2.2c-.4 1.3-1.5 2.2-3.1 2.2c-1.9 0-3.5-1.3-3.5-3.7c0-2.2 1.5-3.7 3.3-3.7c2.1 0 3.3 1.5 3.3 3.7c0 .2 0 .3 0 .4c0 0-5.2 0-5.2 0c0 1.3.9 2.1 2.1 2.1c1.1 0 1.7-.6 1.9-1.4c0 0 1.2.4 1.2.4zm5.4 2l0-10.5l1.4 0l0 10.5l-1.4 0zm8.4-4.2c0-1-.7-1.8-1.9-1.8c-1.2 0-1.9.9-1.9 1.8c0 0 3.8 0 3.8 0zm1.4 2.2c-.4 1.3-1.5 2.2-3.2 2.2c-1.8 0-3.5-1.3-3.5-3.7c0-2.2 1.6-3.7 3.4-3.7c2.1 0 3.3 1.5 3.3 3.7c0 .2 0 .3 0 .4c0 0-5.3 0-5.3 0c.1 1.3 1 2.1 2.1 2.1c1.2 0 1.7-.6 2-1.4c0 0 1.2.4 1.2.4zm6.1 1.2c-.3.7-1.2 1-2 1c-1.7 0-2.6-1.2-2.6-2.7c-.04-.05 0-4.4 0-4.4l1.3 0c0 0 .02 4.15 0 4.1c0 1 .5 1.8 1.6 1.8c1.1 0 1.7-.7 1.7-1.7c-.04-.04 0-4.2 0-4.2l1.3 0c0 0 .02 5.64 0 5.6c0 .6.1 1.1.1 1.3c0 0-1.3 0-1.3 0c0-.1-.1-.5-.1-.8c0 0 0 0 0 0zm7.5-4.8c-.2 0-.4 0-.6 0c-1.1 0-1.9.6-1.9 2.1c0 .04 0 3.5 0 3.5l-1.4 0l0-6.9l1.4 0c0 0-.03 1.17 0 1.2c.5-1.1 1.4-1.4 2.1-1.4c.1 0 .3.1.4.1c0 0 0 1.4 0 1.4zm4.7 3.8c0-1.3.9-2 2.1-2.2c0 0 1.9-.2 1.9-.2c.4-.1.5-.3.5-.6c0-.6-.5-1.2-1.5-1.2c-1 0-1.5.6-1.6 1.4c0 0-1.3-.3-1.3-.3c.1-1.3 1.3-2.3 2.9-2.3c2 0 2.9 1.2 2.9 2.6c0 0 0 3.5 0 3.5c0 .6 0 1 0 1.1c0 0-1.3 0-1.3 0c0-.1-.1-.4-.1-.9c-.3.5-1 1.1-2.2 1.1c-1.4 0-2.3-.9-2.3-2c0 0 0 0 0 0zm4.5-1.2c-.01.04 0-.3 0-.3c0 0-2.14.34-2.1.3c-.6.1-1.1.5-1.1 1.1c0 .5.5 1 1.2 1c1.1 0 2-.5 2-2.1zm4.3-.5c0 1.6 1 2.5 2.1 2.5c1.3 0 1.8-.9 2-1.4c0 0 1.2.5 1.2.5c-.4 1-1.4 2.1-3.2 2.1c-2 0-3.5-1.5-3.5-3.7c0-2.1 1.5-3.7 3.5-3.7c1.9 0 2.8 1.2 3.1 2.3c0 0-1.2.5-1.2.5c-.2-.7-.7-1.5-1.9-1.5c-1.1 0-2.1.8-2.1 2.4zm7.6 0c0 1.6 1 2.5 2.1 2.5c1.3 0 1.8-.9 2-1.4c0 0 1.2.5 1.2.5c-.4 1-1.4 2.1-3.2 2.1c-2 0-3.5-1.5-3.5-3.7c0-2.1 1.5-3.7 3.5-3.7c1.9 0 2.8 1.2 3.1 2.3c0 0-1.2.5-1.2.5c-.2-.7-.7-1.5-1.9-1.5c-1.1 0-2.1.8-2.1 2.4zm11.5-.7c0-1-.7-1.8-1.9-1.8c-1.2 0-1.9.9-1.9 1.8c0 0 3.8 0 3.8 0zm1.4 2.2c-.4 1.3-1.5 2.2-3.2 2.2c-1.8 0-3.5-1.3-3.5-3.7c0-2.2 1.6-3.7 3.4-3.7c2.1 0 3.3 1.5 3.3 3.7c0 .2 0 .3 0 .4c0 0-5.3 0-5.3 0c.1 1.3 1 2.1 2.1 2.1c1.2 0 1.7-.6 2-1.4c0 0 1.2.4 1.2.4zm-5.5-8l1.7 0l1.3 2.2l-1.1 0l-1.9-2.2zm7.8 7.8c.1.7.7 1.3 1.7 1.3c.7 0 1.1-.4 1.1-.9c0-.5-.3-.8-.9-.9c0 0-1.1-.3-1.1-.3c-1.1-.2-1.8-1-1.8-2c0-1.1 1.1-2.2 2.5-2.2c1.9 0 2.5 1.3 2.7 1.9c0 0-1.3.5-1.3.5c0-.4-.3-1.2-1.4-1.2c-.7 0-1.2.4-1.2.9c0 .4.3.8.8.9c0 0 1.2.2 1.2.2c1.2.3 1.9 1.1 1.9 2.1c0 1-.8 2.1-2.6 2.1c-1.9 0-2.7-1.2-2.8-2c0 0 1.2-.4 1.2-.4zm9.2.4c0-1.3.9-2 2.1-2.2c0 0 1.9-.2 1.9-.2c.4-.1.5-.3.5-.6c0-.6-.4-1.2-1.5-1.2c-.9 0-1.5.6-1.6 1.4c0 0-1.3-.3-1.3-.3c.2-1.3 1.4-2.3 2.9-2.3c2.1 0 2.9 1.2 2.9 2.6c0 0 0 3.5 0 3.5c0 .6.1 1 .1 1.1c0 0-1.3 0-1.3 0c-.1-.1-.1-.4-.1-.9c-.3.5-1 1.1-2.3 1.1c-1.4 0-2.3-.9-2.3-2c0 0 0 0 0 0zm4.5-1.2c.04.04 0-.3 0-.3c0 0-2.1.34-2.1.3c-.6.1-1 .5-1 1.1c0 .5.4 1 1.1 1c1.1 0 2-.5 2-2.1zm-3.6-7l1.7 0l1.2 2.2l-1.1 0l-1.8-2.2zm13.6 9c1.2 0 2-1.1 2-2.5c0-1.4-.7-2.4-2-2.4c-1.2 0-2 1-2 2.4c0 1.5.7 2.5 2 2.5zm2 0c-.3.6-1 1.2-2.1 1.2c-2.1 0-3.3-1.6-3.3-3.7c0-2 1.3-3.6 3.3-3.6c1.2 0 1.9.6 2.1 1.1c0 .04 0-4.5 0-4.5l1.3 0c0 0 .05 9.24 0 9.2c0 .7.1 1.2.1 1.3c0 0-1.3 0-1.3 0c0-.1-.1-.5-.1-.9c0 0 0-.1 0-.1zm8.4-3.2c-.1-1-.7-1.8-1.9-1.8c-1.2 0-1.9.9-1.9 1.8c0 0 3.8 0 3.8 0zm1.3 2.2c-.3 1.3-1.5 2.2-3.1 2.2c-1.9 0-3.5-1.3-3.5-3.7c0-2.2 1.6-3.7 3.3-3.7c2.2 0 3.4 1.5 3.4 3.7c0 .2 0 .3 0 .4c0 0-5.3 0-5.3 0c0 1.3.9 2.1 2.1 2.1c1.1 0 1.7-.6 2-1.4c0 0 1.1.4 1.1.4zm2.4-.2c.1.7.6 1.3 1.6 1.3c.8 0 1.2-.4 1.2-.9c0-.5-.3-.8-.9-.9c0 0-1.2-.3-1.2-.3c-1.1-.2-1.7-1-1.7-2c0-1.1 1.1-2.2 2.5-2.2c1.9 0 2.5 1.3 2.6 1.9c0 0-1.2.5-1.2.5c0-.4-.3-1.2-1.4-1.2c-.7 0-1.2.4-1.2.9c0 .4.3.8.8.9c0 0 1.1.2 1.1.2c1.3.3 2 1.1 2 2.1c0 1-.9 2.1-2.6 2.1c-1.9 0-2.7-1.2-2.8-2c0 0 1.2-.4 1.2-.4zm14.3-2c0-1-.7-1.8-1.9-1.8c-1.2 0-1.9.9-1.9 1.8c0 0 3.8 0 3.8 0zm1.4 2.2c-.4 1.3-1.5 2.2-3.2 2.2c-1.8 0-3.5-1.3-3.5-3.7c0-2.2 1.6-3.7 3.4-3.7c2.1 0 3.3 1.5 3.3 3.7c0 .2 0 .3 0 .4c0 0-5.3 0-5.3 0c.1 1.3 1 2.1 2.1 2.1c1.2 0 1.7-.6 2-1.4c0 0 1.2.4 1.2.4zm1.8 2l0-6.9l1.3 0c0 0-.03.88 0 .9c.4-.8 1.3-1.1 2.1-1.1c.9 0 1.7.4 2.1 1.3c.5-1 1.4-1.3 2.3-1.3c1.2 0 2.4.8 2.4 2.6c.01.01 0 4.5 0 4.5l-1.3 0c0 0-.03-4.35 0-4.3c0-1-.5-1.6-1.5-1.6c-1 0-1.6.7-1.6 1.7c-.02.01 0 4.2 0 4.2l-1.4 0c0 0 .02-4.35 0-4.3c0-.9-.4-1.6-1.5-1.6c-.9 0-1.6.7-1.6 1.7c.01.02 0 4.2 0 4.2l-1.3 0zm12.4 2.8l0-9.7l1.3 0c0 0 .01 1.04 0 1c.4-.7 1.2-1.2 2.3-1.2c2.1 0 3.2 1.6 3.2 3.6c0 2.1-1.2 3.7-3.2 3.7c-1.1 0-1.9-.5-2.3-1.1c.04-.01 0 3.7 0 3.7l-1.3 0zm5.5-6.3c0-1.4-.8-2.4-2.1-2.4c-1.2 0-2.1 1-2.1 2.4c0 1.5.9 2.5 2.1 2.5c1.3 0 2.1-1 2.1-2.5c0 0 0 0 0 0zm3.1 3.5l0-10.5l1.4 0l0 10.5l-1.4 0zm8.8-3.5c0-1.6-1-2.4-2.1-2.4c-1.2 0-2.2.8-2.2 2.4c0 1.7 1 2.5 2.2 2.5c1.1 0 2.1-.8 2.1-2.5zm1.4 0c0 2.2-1.5 3.7-3.5 3.7c-2.1 0-3.6-1.5-3.6-3.7c0-2.1 1.5-3.7 3.6-3.7c2 0 3.5 1.6 3.5 3.7zm1.8 3.5l0-6.9l1.3 0l0 6.9l-1.3 0zm.6-10.6c.6 0 1 .5 1 1c0 .6-.4 1-1 1c-.5 0-.9-.4-.9-1c0-.5.4-1 .9-1zm3.6 8.4c.1.7.7 1.3 1.6 1.3c.8 0 1.2-.4 1.2-.9c0-.5-.3-.8-.9-.9c0 0-1.2-.3-1.2-.3c-1-.2-1.7-1-1.7-2c0-1.1 1.1-2.2 2.5-2.2c1.9 0 2.5 1.3 2.6 1.9c0 0-1.2.5-1.2.5c0-.4-.3-1.2-1.4-1.2c-.7 0-1.2.4-1.2.9c0 .4.3.8.8.9c0 0 1.1.2 1.1.2c1.3.3 2 1.1 2 2.1c0 1-.9 2.1-2.6 2.1c-1.9 0-2.7-1.2-2.8-2c0 0 1.2-.4 1.2-.4zm12.5 1.2c1.2 0 2-1.1 2-2.5c0-1.4-.8-2.4-2-2.4c-1.3 0-2.1 1-2.1 2.4c0 1.5.8 2.5 2.1 2.5zm2 0c-.3.6-1.1 1.2-2.2 1.2c-2 0-3.3-1.6-3.3-3.7c0-2 1.4-3.6 3.3-3.6c1.3 0 1.9.6 2.2 1.1c-.03.04 0-4.5 0-4.5l1.3 0c0 0 .02 9.24 0 9.2c0 .7.1 1.2.1 1.3c0 0-1.3 0-1.3 0c-.1-.1-.1-.5-.1-.9c0 0 0-.1 0-.1zm8.2.2c-.4.7-1.3 1-2.1 1c-1.6 0-2.6-1.2-2.6-2.7c0-.05 0-4.4 0-4.4l1.4 0c0 0-.04 4.15 0 4.1c0 1 .4 1.8 1.5 1.8c1.1 0 1.7-.7 1.7-1.7c-.01-.04 0-4.2 0-4.2l1.4 0c0 0-.05 5.64 0 5.6c0 .6 0 1.1 0 1.3c0 0-1.3 0-1.3 0c0-.1 0-.5 0-.8c0 0 0 0 0 0zm7.4-4.8c-.2 0-.4 0-.6 0c-1.1 0-1.9.6-1.9 2.1c.04.04 0 3.5 0 3.5l-1.3 0l0-6.9l1.3 0c0 0 .01 1.17 0 1.2c.5-1.1 1.4-1.4 2.1-1.4c.2 0 .4.1.4.1c0 0 0 1.4 0 1.4zm1.1 3.8c0-1.3.9-2 2.1-2.2c0 0 1.9-.2 1.9-.2c.4-.1.5-.3.5-.6c0-.6-.5-1.2-1.5-1.2c-1 0-1.5.6-1.6 1.4c0 0-1.3-.3-1.3-.3c.2-1.3 1.4-2.3 2.9-2.3c2 0 2.9 1.2 2.9 2.6c0 0 0 3.5 0 3.5c0 .6 0 1 0 1.1c0 0-1.3 0-1.3 0c0-.1-.1-.4-.1-.9c-.3.5-1 1.1-2.2 1.1c-1.4 0-2.3-.9-2.3-2c0 0 0 0 0 0zm4.5-1.2c0 .04 0-.3 0-.3c0 0-2.13.34-2.1.3c-.6.1-1 .5-1 1.1c0 .5.4 1 1.1 1c1.1 0 2-.5 2-2.1zm3.5 3l0-10.5l1.3 0c0 0 .03 4.54 0 4.5c.4-.6 1.2-1.1 2.3-1.1c2.1 0 3.2 1.6 3.2 3.6c0 2.1-1.1 3.7-3.2 3.7c-1 0-1.8-.4-2.3-1.2c.03.02 0 1 0 1l-1.3 0zm3.4-5.9c-1.2 0-2.1.9-2.1 2.4c0 1.5.9 2.5 2.1 2.5c1.2 0 2-1 2-2.5c0-1.5-.8-2.4-2-2.4zm5.2 5.9l0-10.5l1.3 0l0 10.5l-1.3 0zm8.4-4.2c-.1-1-.7-1.8-2-1.8c-1.1 0-1.8.9-1.9 1.8c0 0 3.9 0 3.9 0zm1.3 2.2c-.4 1.3-1.5 2.2-3.1 2.2c-1.9 0-3.5-1.3-3.5-3.7c0-2.2 1.6-3.7 3.3-3.7c2.2 0 3.4 1.5 3.4 3.7c0 .2 0 .3-.1.4c0 0-5.2 0-5.2 0c0 1.3.9 2.1 2.1 2.1c1.1 0 1.7-.6 2-1.4c0 0 1.1.4 1.1.4zm2.4-.2c.1.7.6 1.3 1.6 1.3c.8 0 1.2-.4 1.2-.9c0-.5-.3-.8-.9-.9c0 0-1.2-.3-1.2-.3c-1.1-.2-1.7-1-1.7-2c0-1.1 1.1-2.2 2.5-2.2c1.9 0 2.5 1.3 2.6 1.9c0 0-1.2.5-1.2.5c0-.4-.3-1.2-1.4-1.2c-.7 0-1.2.4-1.2.9c0 .4.3.8.8.9c0 0 1.1.2 1.1.2c1.3.3 2 1.1 2 2.1c0 1-.9 2.1-2.6 2.1c-1.9 0-2.7-1.2-2.8-2c0 0 1.2-.4 1.2-.4zm6.8.3c.6 0 1 .4 1 1c0 .6-.4 1-1 1c-.5 0-1-.4-1-1c0-.6.5-1 1-1z" stroke="none" fill="#fff"/></g><g id="Polygon164360"><path d="m1.2 45.7l0-6.9l1.3 0c0 0-.04.88 0 .9c.4-.8 1.3-1.1 2.1-1.1c.9 0 1.7.4 2.1 1.3c.5-1 1.4-1.3 2.3-1.3c1.2 0 2.4.8 2.4 2.6c.01.01 0 4.5 0 4.5l-1.3 0c0 0-.04-4.35 0-4.3c0-1-.5-1.6-1.5-1.6c-1 0-1.6.7-1.6 1.7c-.03.01 0 4.2 0 4.2l-1.4 0c0 0 .01-4.35 0-4.3c0-.9-.4-1.6-1.5-1.6c-.9 0-1.6.7-1.6 1.7c.01.02 0 4.2 0 4.2l-1.3 0zm17.5-3.5c0-1.6-1-2.4-2.1-2.4c-1.2 0-2.2.8-2.2 2.4c0 1.7 1 2.5 2.2 2.5c1.1 0 2.1-.8 2.1-2.5zm1.4 0c0 2.2-1.4 3.7-3.5 3.7c-2.1 0-3.6-1.5-3.6-3.7c0-2.1 1.5-3.7 3.6-3.7c2.1 0 3.5 1.6 3.5 3.7zm3.1 3.5l-1.3 0l0-6.9l1.3 0c0 0 .01.96 0 1c.5-.9 1.3-1.2 2.2-1.2c1.6 0 2.5 1.2 2.5 2.7c-.05.01 0 4.4 0 4.4l-1.4 0c0 0-.01-4.16 0-4.2c0-.9-.4-1.7-1.6-1.7c-1.1 0-1.7.8-1.7 1.9c.04 0 0 4 0 4zm8.7-6.9l1.5 0l0 1.2l-1.5 0c0 0-.04 3.61 0 3.6c0 .7.2 1 .9 1c.2 0 .4-.1.6-.1c0 0 0 1.2 0 1.2c-.2 0-.5.1-1 .1c-1.2 0-1.9-.7-1.9-2c-.01.02 0-3.8 0-3.8l-1.3 0l0-1.2c0 0 .34-.04.3 0c.8 0 1.1-.5 1.1-1.1c.01-.02 0-1.1 0-1.1l1.3 0l0 2.2zm7.9 2.7c0-1-.7-1.8-1.9-1.8c-1.2 0-1.9.9-1.9 1.8c0 0 3.8 0 3.8 0zm1.4 2.2c-.4 1.3-1.5 2.2-3.2 2.2c-1.8 0-3.5-1.3-3.5-3.7c0-2.2 1.6-3.7 3.4-3.7c2.1 0 3.3 1.5 3.3 3.7c0 .2 0 .3 0 .4c0 0-5.3 0-5.3 0c.1 1.3 1 2.1 2.1 2.1c1.2 0 1.7-.6 2-1.4c0 0 1.2.4 1.2.4zm-2.8-5.8l-1.1 0l1.2-2.2l1.8 0l-1.9 2.2zm9.3 3.6c-.1-1-.7-1.8-2-1.8c-1.1 0-1.8.9-1.9 1.8c0 0 3.9 0 3.9 0zm1.3 2.2c-.4 1.3-1.5 2.2-3.1 2.2c-1.9 0-3.5-1.3-3.5-3.7c0-2.2 1.6-3.7 3.3-3.7c2.2 0 3.4 1.5 3.4 3.7c0 .2 0 .3 0 .4c0 0-5.3 0-5.3 0c0 1.3.9 2.1 2.1 2.1c1.1 0 1.7-.6 2-1.4c0 0 1.1.4 1.1.4zm10.1-2.2c0-1-.6-1.8-1.9-1.8c-1.1 0-1.8.9-1.9 1.8c0 0 3.8 0 3.8 0zm1.4 2.2c-.4 1.3-1.5 2.2-3.1 2.2c-1.9 0-3.5-1.3-3.5-3.7c0-2.2 1.6-3.7 3.3-3.7c2.2 0 3.4 1.5 3.4 3.7c0 .2 0 .3-.1.4c0 0-5.2 0-5.2 0c0 1.3.9 2.1 2.1 2.1c1.1 0 1.7-.6 1.9-1.4c0 0 1.2.4 1.2.4zm3.2 2l-1.4 0l0-6.9l1.3 0c0 0 .04.96 0 1c.5-.9 1.4-1.2 2.2-1.2c1.7 0 2.5 1.2 2.5 2.7c-.02.01 0 4.4 0 4.4l-1.4 0c0 0 .02-4.16 0-4.2c0-.9-.4-1.7-1.6-1.7c-1.1 0-1.6.8-1.6 1.9c-.03 0 0 4 0 4zm11.2-3.5c0 1.6 1 2.5 2.1 2.5c1.3 0 1.8-.9 2-1.4c0 0 1.2.5 1.2.5c-.4 1-1.4 2.1-3.2 2.1c-2 0-3.5-1.5-3.5-3.7c0-2.1 1.5-3.7 3.5-3.7c1.9 0 2.8 1.2 3.1 2.3c0 0-1.2.5-1.2.5c-.2-.7-.7-1.5-1.9-1.5c-1.1 0-2.1.8-2.1 2.4zm12 0c0-1.6-1.1-2.4-2.2-2.4c-1.2 0-2.2.8-2.2 2.4c0 1.7 1 2.5 2.2 2.5c1.1 0 2.2-.8 2.2-2.5zm1.3 0c0 2.2-1.4 3.7-3.5 3.7c-2.1 0-3.6-1.5-3.6-3.7c0-2.1 1.5-3.7 3.6-3.7c2.1 0 3.5 1.6 3.5 3.7zm1.8 3.5l0-6.9l1.3 0c0 0-.01.88 0 .9c.4-.8 1.3-1.1 2.1-1.1c.9 0 1.7.4 2.1 1.3c.5-1 1.4-1.3 2.3-1.3c1.2 0 2.4.8 2.4 2.6c.04.01 0 4.5 0 4.5l-1.3 0c0 0-.01-4.35 0-4.3c0-1-.5-1.6-1.5-1.6c-.9 0-1.6.7-1.6 1.7c0 .01 0 4.2 0 4.2l-1.4 0c0 0 .04-4.35 0-4.3c0-.9-.4-1.6-1.4-1.6c-1 0-1.7.7-1.7 1.7c.03.02 0 4.2 0 4.2l-1.3 0zm12.4 2.8l0-9.7l1.3 0c0 0 .03 1.04 0 1c.4-.7 1.2-1.2 2.4-1.2c2.1 0 3.2 1.6 3.2 3.6c0 2.1-1.2 3.7-3.3 3.7c-1.1 0-1.9-.5-2.2-1.1c-.04-.01 0 3.7 0 3.7l-1.4 0zm5.5-6.3c0-1.4-.8-2.4-2.1-2.4c-1.2 0-2.1 1-2.1 2.4c0 1.5.9 2.5 2.1 2.5c1.3 0 2.1-1 2.1-2.5c0 0 0 0 0 0zm7.8-.7c0-1-.7-1.8-1.9-1.8c-1.2 0-1.8.9-1.9 1.8c0 0 3.8 0 3.8 0zm1.4 2.2c-.4 1.3-1.5 2.2-3.1 2.2c-1.9 0-3.6-1.3-3.6-3.7c0-2.2 1.6-3.7 3.4-3.7c2.1 0 3.3 1.5 3.3 3.7c0 .2 0 .3 0 .4c0 0-5.2 0-5.2 0c0 1.3.9 2.1 2.1 2.1c1.1 0 1.7-.6 1.9-1.4c0 0 1.2.4 1.2.4zm-2.8-5.8l-1.1 0l1.2-2.2l1.8 0l-1.9 2.2zm6.4.9l1.5 0l0 1.2l-1.5 0c0 0 0 3.61 0 3.6c0 .7.3 1 1 1c.1 0 .4-.1.5-.1c0 0 0 1.2 0 1.2c-.1 0-.5.1-.9.1c-1.2 0-2-.7-2-2c.03.02 0-3.8 0-3.8l-1.3 0l0-1.2c0 0 .38-.04.4 0c.7 0 1.1-.5 1.1-1.1c-.05-.02 0-1.1 0-1.1l1.2 0l0 2.2zm7.9 2.7c0-1-.6-1.8-1.9-1.8c-1.1 0-1.8.9-1.9 1.8c0 0 3.8 0 3.8 0zm1.4 2.2c-.4 1.3-1.5 2.2-3.1 2.2c-1.9 0-3.5-1.3-3.5-3.7c0-2.2 1.6-3.7 3.3-3.7c2.2 0 3.4 1.5 3.4 3.7c0 .2-.1.3-.1.4c0 0-5.2 0-5.2 0c0 1.3.9 2.1 2.1 2.1c1.1 0 1.7-.6 1.9-1.4c0 0 1.2.4 1.2.4zm3.2 2l-1.4 0l0-6.9l1.3 0c0 0 .04.96 0 1c.5-.9 1.4-1.2 2.2-1.2c1.7 0 2.5 1.2 2.5 2.7c-.02.01 0 4.4 0 4.4l-1.4 0c0 0 .02-4.16 0-4.2c0-.9-.4-1.7-1.6-1.7c-1.1 0-1.6.8-1.6 1.9c-.03 0 0 4 0 4zm7.6-3.5c0 1.6 1 2.5 2.1 2.5c1.3 0 1.8-.9 1.9-1.4c0 0 1.2.5 1.2.5c-.3 1-1.3 2.1-3.1 2.1c-2 0-3.5-1.5-3.5-3.7c0-2.1 1.5-3.7 3.5-3.7c1.8 0 2.8 1.2 3.1 2.3c0 0-1.2.5-1.2.5c-.2-.7-.7-1.5-1.9-1.5c-1.1 0-2.1.8-2.1 2.4zm11.5-.7c-.1-1-.7-1.8-2-1.8c-1.1 0-1.8.9-1.9 1.8c0 0 3.9 0 3.9 0zm1.3 2.2c-.4 1.3-1.5 2.2-3.1 2.2c-1.9 0-3.5-1.3-3.5-3.7c0-2.2 1.6-3.7 3.3-3.7c2.2 0 3.4 1.5 3.4 3.7c0 .2 0 .3 0 .4c0 0-5.3 0-5.3 0c0 1.3.9 2.1 2.1 2.1c1.1 0 1.7-.6 2-1.4c0 0 1.1.4 1.1.4zm2.4-.2c.1.7.6 1.3 1.6 1.3c.8 0 1.2-.4 1.2-.9c0-.5-.3-.8-.9-.9c0 0-1.2-.3-1.2-.3c-1.1-.2-1.7-1-1.7-2c0-1.1 1.1-2.2 2.5-2.2c1.9 0 2.5 1.3 2.6 1.9c0 0-1.2.5-1.2.5c0-.4-.3-1.2-1.4-1.2c-.7 0-1.2.4-1.2.9c0 .4.3.8.8.9c0 0 1.1.2 1.1.2c1.3.3 2 1.1 2 2.1c0 1-.9 2.1-2.6 2.1c-1.9 0-2.7-1.2-2.8-2c0 0 1.2-.4 1.2-.4zm12.5 1.2c1.2 0 2-1.1 2-2.5c0-1.4-.8-2.4-2-2.4c-1.3 0-2.1 1-2.1 2.4c0 1.5.8 2.5 2.1 2.5zm2 0c-.3.6-1.1 1.2-2.2 1.2c-2 0-3.3-1.6-3.3-3.7c0-2 1.4-3.6 3.3-3.6c1.3 0 1.9.6 2.2 1.1c-.04.04 0-4.5 0-4.5l1.3 0c0 0 .01 9.24 0 9.2c0 .7.1 1.2.1 1.3c0 0-1.3 0-1.3 0c-.1-.1-.1-.5-.1-.9c0 0 0-.1 0-.1zm8.3-3.2c0-1-.7-1.8-1.9-1.8c-1.1 0-1.8.9-1.9 1.8c0 0 3.8 0 3.8 0zm1.4 2.2c-.4 1.3-1.5 2.2-3.1 2.2c-1.9 0-3.5-1.3-3.5-3.7c0-2.2 1.5-3.7 3.3-3.7c2.1 0 3.3 1.5 3.3 3.7c0 .2 0 .3 0 .4c0 0-5.2 0-5.2 0c0 1.3.9 2.1 2.1 2.1c1.1 0 1.7-.6 1.9-1.4c0 0 1.2.4 1.2.4zm2.4-.2c.1.7.6 1.3 1.6 1.3c.8 0 1.2-.4 1.2-.9c0-.5-.3-.8-.9-.9c0 0-1.2-.3-1.2-.3c-1.1-.2-1.7-1-1.7-2c0-1.1 1.1-2.2 2.4-2.2c1.9 0 2.5 1.3 2.7 1.9c0 0-1.2.5-1.2.5c-.1-.4-.4-1.2-1.5-1.2c-.7 0-1.1.4-1.1.9c0 .4.2.8.8.9c0 0 1.1.2 1.1.2c1.3.3 1.9 1.1 1.9 2.1c0 1-.8 2.1-2.5 2.1c-1.9 0-2.7-1.2-2.9-2c0 0 1.3-.4 1.3-.4zm9.6 5l0-9.7l1.3 0c0 0-.01 1.04 0 1c.4-.7 1.2-1.2 2.3-1.2c2.1 0 3.2 1.6 3.2 3.6c0 2.1-1.2 3.7-3.2 3.7c-1.1 0-1.9-.5-2.3-1.1c.01-.01 0 3.7 0 3.7l-1.3 0zm5.4-6.3c0-1.4-.7-2.4-2-2.4c-1.3 0-2.1 1-2.1 2.4c0 1.5.8 2.5 2.1 2.5c1.2 0 2-1 2-2.5c0 0 0 0 0 0zm7.9-.7c-.1-1-.7-1.8-2-1.8c-1.1 0-1.8.9-1.9 1.8c0 0 3.9 0 3.9 0zm1.3 2.2c-.4 1.3-1.5 2.2-3.1 2.2c-1.9 0-3.5-1.3-3.5-3.7c0-2.2 1.6-3.7 3.3-3.7c2.2 0 3.4 1.5 3.4 3.7c0 .2 0 .3 0 .4c0 0-5.3 0-5.3 0c0 1.3.9 2.1 2.1 2.1c1.1 0 1.7-.6 2-1.4c0 0 1.1.4 1.1.4zm5.7-3.6c-.2 0-.4 0-.6 0c-1.1 0-1.9.6-1.9 2.1c-.01.04 0 3.5 0 3.5l-1.4 0l0-6.9l1.4 0c0 0-.04 1.17 0 1.2c.5-1.1 1.3-1.4 2-1.4c.2 0 .4.1.5.1c0 0 0 1.4 0 1.4zm2 3.4c.1.7.7 1.3 1.6 1.3c.8 0 1.2-.4 1.2-.9c0-.5-.3-.8-.9-.9c0 0-1.1-.3-1.1-.3c-1.1-.2-1.8-1-1.8-2c0-1.1 1.1-2.2 2.5-2.2c1.9 0 2.5 1.3 2.6 1.9c0 0-1.2.5-1.2.5c0-.4-.3-1.2-1.4-1.2c-.7 0-1.2.4-1.2.9c0 .4.3.8.8.9c0 0 1.2.2 1.2.2c1.2.3 1.9 1.1 1.9 2.1c0 1-.8 2.1-2.6 2.1c-1.9 0-2.7-1.2-2.8-2c0 0 1.2-.4 1.2-.4zm11.1-1.3c0-1.6-1-2.4-2.2-2.4c-1.1 0-2.2.8-2.2 2.4c0 1.7 1.1 2.5 2.2 2.5c1.2 0 2.2-.8 2.2-2.5zm1.4 0c0 2.2-1.5 3.7-3.6 3.7c-2.1 0-3.6-1.5-3.6-3.7c0-2.1 1.5-3.7 3.6-3.7c2.1 0 3.6 1.6 3.6 3.7zm3.1 3.5l-1.4 0l0-6.9l1.4 0c0 0-.05.96 0 1c.5-.9 1.3-1.2 2.1-1.2c1.7 0 2.5 1.2 2.5 2.7c-.01.01 0 4.4 0 4.4l-1.4 0c0 0 .03-4.16 0-4.2c0-.9-.4-1.7-1.6-1.7c-1.1 0-1.6.8-1.6 1.9c-.02 0 0 4 0 4zm8.1 0l-1.3 0l0-6.9l1.3 0c0 0 0 .96 0 1c.5-.9 1.3-1.2 2.2-1.2c1.6 0 2.4 1.2 2.4 2.7c.04.01 0 4.4 0 4.4l-1.3 0c0 0-.02-4.16 0-4.2c0-.9-.4-1.7-1.6-1.7c-1.1 0-1.7.8-1.7 1.9c.03 0 0 4 0 4zm11.5-4.2c0-1-.7-1.8-1.9-1.8c-1.1 0-1.8.9-1.9 1.8c0 0 3.8 0 3.8 0zm1.4 2.2c-.4 1.3-1.5 2.2-3.1 2.2c-1.9 0-3.5-1.3-3.5-3.7c0-2.2 1.5-3.7 3.3-3.7c2.1 0 3.3 1.5 3.3 3.7c0 .2 0 .3 0 .4c0 0-5.2 0-5.2 0c0 1.3.9 2.1 2.1 2.1c1.1 0 1.7-.6 1.9-1.4c0 0 1.2.4 1.2.4zm2.4-.2c0 .7.6 1.3 1.6 1.3c.8 0 1.2-.4 1.2-.9c0-.5-.3-.8-.9-.9c0 0-1.2-.3-1.2-.3c-1.1-.2-1.8-1-1.8-2c0-1.1 1.2-2.2 2.5-2.2c1.9 0 2.5 1.3 2.7 1.9c0 0-1.2.5-1.2.5c-.1-.4-.4-1.2-1.5-1.2c-.7 0-1.1.4-1.1.9c0 .4.2.8.8.9c0 0 1.1.2 1.1.2c1.3.3 1.9 1.1 1.9 2.1c0 1-.8 2.1-2.5 2.1c-1.9 0-2.8-1.2-2.9-2c0 0 1.3-.4 1.3-.4zm14.3-2c-.1-1-.7-1.8-2-1.8c-1.1 0-1.8.9-1.9 1.8c0 0 3.9 0 3.9 0zm1.3 2.2c-.4 1.3-1.5 2.2-3.1 2.2c-1.9 0-3.5-1.3-3.5-3.7c0-2.2 1.6-3.7 3.3-3.7c2.2 0 3.4 1.5 3.4 3.7c0 .2 0 .3-.1.4c0 0-5.2 0-5.2 0c0 1.3.9 2.1 2.1 2.1c1.1 0 1.7-.6 2-1.4c0 0 1.1.4 1.1.4zm-2.7-5.8l-1.2 0l1.3-2.2l1.7 0l-1.8 2.2zm4.5 7.8l0-10.5l1.4 0l0 10.5l-1.4 0zm8.9-3.5c0-1.6-1.1-2.4-2.2-2.4c-1.2 0-2.2.8-2.2 2.4c0 1.7 1 2.5 2.2 2.5c1.1 0 2.2-.8 2.2-2.5zm1.4 0c0 2.2-1.5 3.7-3.6 3.7c-2.1 0-3.6-1.5-3.6-3.7c0-2.1 1.5-3.7 3.6-3.7c2.1 0 3.6 1.6 3.6 3.7zm1.7 3.5l0-6.9l1.3 0l0 6.9l-1.3 0zm.7-10.6c.5 0 .9.5.9 1c0 .6-.4 1-.9 1c-.6 0-1-.4-1-1c0-.5.4-1 1-1zm3.8 10.7c.1 1 .8 1.7 1.9 1.7c1.4 0 2.1-.7 2.1-2.2c0 0 0-1 0-1c-.3.6-1.1 1.1-2.1 1.1c-1.9 0-3.2-1.4-3.2-3.4c0-1.9 1.3-3.4 3.2-3.4c1 0 1.8.4 2.1 1.1c.02.03 0-.9 0-.9l1.4 0c0 0-.03 6.41 0 6.4c0 1.8-.9 3.5-3.5 3.5c-1.8 0-3.1-1.1-3.2-2.6c0 0 1.3-.3 1.3-.3zm4.1-3.8c0-1.3-.8-2.2-2-2.2c-1.2 0-2 .9-2 2.2c0 1.4.7 2.3 2 2.3c1.2 0 2-.9 2-2.3zm4.8 3.7l-1.4 0l0-6.9l1.4 0c0 0-.03.96 0 1c.5-.9 1.3-1.2 2.1-1.2c1.7 0 2.5 1.2 2.5 2.7c.01.01 0 4.4 0 4.4l-1.3 0c0 0-.05-4.16 0-4.2c0-.9-.5-1.7-1.7-1.7c-1 0-1.6.8-1.6 1.9c0 0 0 4 0 4zm11.5-4.2c0-1-.7-1.8-1.9-1.8c-1.2 0-1.9.9-1.9 1.8c0 0 3.8 0 3.8 0zm1.4 2.2c-.4 1.3-1.5 2.2-3.2 2.2c-1.8 0-3.5-1.3-3.5-3.7c0-2.2 1.6-3.7 3.4-3.7c2.1 0 3.3 1.5 3.3 3.7c0 .2 0 .3 0 .4c0 0-5.3 0-5.3 0c.1 1.3 1 2.1 2.1 2.1c1.2 0 1.7-.6 2-1.4c0 0 1.2.4 1.2.4zm-2.8-5.8l-1.1 0l1.2-2.2l1.7 0l-1.8 2.2zm9.2 3.6c0-1-.6-1.8-1.9-1.8c-1.1 0-1.8.9-1.9 1.8c0 0 3.8 0 3.8 0zm1.4 2.2c-.4 1.3-1.5 2.2-3.1 2.2c-1.9 0-3.5-1.3-3.5-3.7c0-2.2 1.6-3.7 3.3-3.7c2.2 0 3.4 1.5 3.4 3.7c0 .2 0 .3-.1.4c0 0-5.2 0-5.2 0c0 1.3.9 2.1 2.1 2.1c1.1 0 1.7-.6 2-1.4c0 0 1.1.4 1.1.4zm2.4-.2c.1.7.6 1.3 1.6 1.3c.8 0 1.2-.4 1.2-.9c0-.5-.3-.8-.9-.9c0 0-1.2-.3-1.2-.3c-1.1-.2-1.7-1-1.7-2c0-1.1 1.1-2.2 2.5-2.2c1.9 0 2.5 1.3 2.6 1.9c0 0-1.2.5-1.2.5c-.1-.4-.3-1.2-1.4-1.2c-.7 0-1.2.4-1.2.9c0 .4.3.8.8.9c0 0 1.1.2 1.1.2c1.3.3 1.9 1.1 1.9 2.1c0 1-.8 2.1-2.5 2.1c-1.9 0-2.7-1.2-2.8-2c0 0 1.2-.4 1.2-.4zm12.4 1.2c1.3 0 2.1-1.1 2.1-2.5c0-1.4-.8-2.4-2-2.4c-1.3 0-2.1 1-2.1 2.4c0 1.5.7 2.5 2 2.5zm2.1 0c-.4.6-1.1 1.2-2.2 1.2c-2 0-3.3-1.6-3.3-3.7c0-2 1.3-3.6 3.3-3.6c1.2 0 1.9.6 2.1 1.1c.05.04 0-4.5 0-4.5l1.4 0c0 0-.01 9.24 0 9.2c0 .7.1 1.2.1 1.3c0 0-1.4 0-1.4 0c0-.1 0-.5 0-.9c0 0 0-.1 0-.1zm8.3-3.2c0-1-.7-1.8-1.9-1.8c-1.1 0-1.8.9-1.9 1.8c0 0 3.8 0 3.8 0zm1.4 2.2c-.4 1.3-1.5 2.2-3.1 2.2c-1.9 0-3.6-1.3-3.6-3.7c0-2.2 1.6-3.7 3.4-3.7c2.1 0 3.3 1.5 3.3 3.7c0 .2 0 .3 0 .4c0 0-5.2 0-5.2 0c0 1.3.9 2.1 2.1 2.1c1.1 0 1.7-.6 1.9-1.4c0 0 1.2.4 1.2.4z" stroke="none" fill="#fff"/></g><g id="Polygon164359"><path d="m1.7 26.5c.1.7.7 1.3 1.7 1.3c.7 0 1.2-.4 1.2-.9c0-.5-.4-.8-.9-.9c0 0-1.2-.3-1.2-.3c-1.1-.2-1.8-1-1.8-2c0-1.1 1.1-2.2 2.5-2.2c1.9 0 2.5 1.3 2.7 1.9c0 0-1.2.5-1.2.5c-.1-.4-.4-1.2-1.5-1.2c-.7 0-1.2.4-1.2.9c0 .4.3.8.8.9c0 0 1.2.2 1.2.2c1.2.3 1.9 1.1 1.9 2.1c0 1-.8 2.1-2.6 2.1c-1.9 0-2.7-1.2-2.8-2c0 0 1.2-.4 1.2-.4zm10.5 1.4c-.3.7-1.2 1-2 1c-1.6 0-2.6-1.2-2.6-2.7c-.03-.05 0-4.4 0-4.4l1.3 0c0 0 .03 4.15 0 4.1c0 1 .5 1.8 1.6 1.8c1.1 0 1.7-.7 1.7-1.7c-.03-.04 0-4.2 0-4.2l1.3 0c0 0 .03 5.64 0 5.6c0 .6.1 1.1.1 1.3c0 0-1.3 0-1.3 0c0-.1-.1-.5-.1-.8c0 0 0 0 0 0zm7.5-4.8c-.2 0-.4 0-.6 0c-1.1 0-1.9.6-1.9 2.1c.01.04 0 3.5 0 3.5l-1.4 0l0-6.9l1.4 0c0 0-.02 1.17 0 1.2c.5-1.1 1.4-1.4 2.1-1.4c.2 0 .3.1.4.1c0 0 0 1.4 0 1.4zm5.1 5.6l0-10.5l1.4 0l0 10.5l-1.4 0zm8.4-4.2c-.1-1-.7-1.8-1.9-1.8c-1.2 0-1.9.9-1.9 1.8c0 0 3.8 0 3.8 0zm1.4 2.2c-.4 1.3-1.6 2.2-3.2 2.2c-1.8 0-3.5-1.3-3.5-3.7c0-2.2 1.6-3.7 3.3-3.7c2.2 0 3.4 1.5 3.4 3.7c0 .2 0 .3 0 .4c0 0-5.3 0-5.3 0c0 1.3.9 2.1 2.1 2.1c1.2 0 1.7-.6 2-1.4c0 0 1.2.4 1.2.4zm2.3-.2c.1.7.7 1.3 1.6 1.3c.8 0 1.2-.4 1.2-.9c0-.5-.3-.8-.9-.9c0 0-1.2-.3-1.2-.3c-1-.2-1.7-1-1.7-2c0-1.1 1.1-2.2 2.5-2.2c1.9 0 2.5 1.3 2.6 1.9c0 0-1.2.5-1.2.5c0-.4-.3-1.2-1.4-1.2c-.7 0-1.2.4-1.2.9c0 .4.3.8.8.9c0 0 1.2.2 1.2.2c1.2.3 1.9 1.1 1.9 2.1c0 1-.8 2.1-2.6 2.1c-1.9 0-2.7-1.2-2.8-2c0 0 1.2-.4 1.2-.4zm10.4-1.3c0 1.6 1 2.5 2.2 2.5c1.3 0 1.7-.9 1.9-1.4c0 0 1.2.5 1.2.5c-.3 1-1.3 2.1-3.1 2.1c-2.1 0-3.6-1.5-3.6-3.7c0-2.1 1.6-3.7 3.5-3.7c1.9 0 2.9 1.2 3.1 2.3c0 0-1.2.5-1.2.5c-.2-.7-.7-1.5-1.9-1.5c-1.1 0-2.1.8-2.1 2.4zm12 0c0-1.6-1-2.4-2.2-2.4c-1.1 0-2.2.8-2.2 2.4c0 1.7 1.1 2.5 2.2 2.5c1.2 0 2.2-.8 2.2-2.5zm1.4 0c0 2.2-1.5 3.7-3.6 3.7c-2.1 0-3.6-1.5-3.6-3.7c0-2.1 1.5-3.7 3.6-3.7c2.1 0 3.6 1.6 3.6 3.7zm1.7 3.5l0-6.9l1.3 0c0 0 .03.88 0 .9c.5-.8 1.3-1.1 2.1-1.1c.9 0 1.8.4 2.1 1.3c.6-1 1.5-1.3 2.4-1.3c1.2 0 2.4.8 2.4 2.6c-.03.01 0 4.5 0 4.5l-1.4 0c0 0 .03-4.35 0-4.3c0-1-.4-1.6-1.5-1.6c-.9 0-1.6.7-1.6 1.7c.04.01 0 4.2 0 4.2l-1.3 0c0 0-.03-4.35 0-4.3c0-.9-.5-1.6-1.5-1.6c-1 0-1.6.7-1.6 1.7c-.03.02 0 4.2 0 4.2l-1.4 0zm12.4 2.8l0-9.7l1.4 0c0 0-.03 1.04 0 1c.3-.7 1.2-1.2 2.3-1.2c2.1 0 3.2 1.6 3.2 3.6c0 2.1-1.2 3.7-3.2 3.7c-1.1 0-1.9-.5-2.3-1.1c0-.01 0 3.7 0 3.7l-1.4 0zm5.5-6.3c0-1.4-.8-2.4-2-2.4c-1.3 0-2.1 1-2.1 2.4c0 1.5.8 2.5 2.1 2.5c1.2 0 2-1 2-2.5c0 0 0 0 0 0zm7.8-.7c0-1-.6-1.8-1.9-1.8c-1.1 0-1.8.9-1.9 1.8c0 0 3.8 0 3.8 0zm1.4 2.2c-.4 1.3-1.5 2.2-3.1 2.2c-1.9 0-3.5-1.3-3.5-3.7c0-2.2 1.6-3.7 3.3-3.7c2.2 0 3.4 1.5 3.4 3.7c0 .2 0 .3-.1.4c0 0-5.2 0-5.2 0c0 1.3.9 2.1 2.1 2.1c1.1 0 1.7-.6 1.9-1.4c0 0 1.2.4 1.2.4zm-2.7-5.8l-1.2 0l1.3-2.2l1.7 0l-1.8 2.2zm6.3.9l1.5 0l0 1.2l-1.5 0c0 0 .03 3.61 0 3.6c0 .7.3 1 1 1c.2 0 .4-.1.5-.1c0 0 0 1.2 0 1.2c-.1 0-.4.1-.9.1c-1.2 0-1.9-.7-1.9-2c-.03.02 0-3.8 0-3.8l-1.4 0l0-1.2c0 0 .41-.04.4 0c.8 0 1.1-.5 1.1-1.1c-.01-.02 0-1.1 0-1.1l1.2 0l0 2.2zm8 2.7c0-1-.7-1.8-1.9-1.8c-1.2 0-1.9.9-1.9 1.8c0 0 3.8 0 3.8 0zm1.4 2.2c-.4 1.3-1.6 2.2-3.2 2.2c-1.8 0-3.5-1.3-3.5-3.7c0-2.2 1.6-3.7 3.4-3.7c2.1 0 3.3 1.5 3.3 3.7c0 .2 0 .3 0 .4c0 0-5.3 0-5.3 0c0 1.3.9 2.1 2.1 2.1c1.2 0 1.7-.6 2-1.4c0 0 1.2.4 1.2.4zm3.1 2l-1.4 0l0-6.9l1.4 0c0 0-.03.96 0 1c.5-.9 1.3-1.2 2.1-1.2c1.7 0 2.5 1.2 2.5 2.7c.01.01 0 4.4 0 4.4l-1.3 0c0 0-.05-4.16 0-4.2c0-.9-.5-1.7-1.7-1.7c-1 0-1.6.8-1.6 1.9c0 0 0 4 0 4zm7.6-3.5c0 1.6 1 2.5 2.1 2.5c1.3 0 1.8-.9 2-1.4c0 0 1.2.5 1.2.5c-.4 1-1.4 2.1-3.2 2.1c-2 0-3.5-1.5-3.5-3.7c0-2.1 1.5-3.7 3.5-3.7c1.9 0 2.8 1.2 3.1 2.3c0 0-1.2.5-1.2.5c-.2-.7-.7-1.5-1.9-1.5c-1.1 0-2.1.8-2.1 2.4zm11.5-.7c0-1-.7-1.8-1.9-1.8c-1.2 0-1.9.9-1.9 1.8c0 0 3.8 0 3.8 0zm1.4 2.2c-.4 1.3-1.5 2.2-3.2 2.2c-1.8 0-3.5-1.3-3.5-3.7c0-2.2 1.6-3.7 3.4-3.7c2.1 0 3.3 1.5 3.3 3.7c0 .2 0 .3 0 .4c0 0-5.3 0-5.3 0c.1 1.3 1 2.1 2.1 2.1c1.2 0 1.7-.6 2-1.4c0 0 1.2.4 1.2.4zm2.3-.2c.1.7.7 1.3 1.7 1.3c.7 0 1.2-.4 1.2-.9c0-.5-.4-.8-.9-.9c0 0-1.2-.3-1.2-.3c-1.1-.2-1.8-1-1.8-2c0-1.1 1.1-2.2 2.5-2.2c1.9 0 2.5 1.3 2.7 1.9c0 0-1.2.5-1.2.5c-.1-.4-.4-1.2-1.5-1.2c-.7 0-1.2.4-1.2.9c0 .4.3.8.8.9c0 0 1.2.2 1.2.2c1.2.3 1.9 1.1 1.9 2.1c0 1-.8 2.1-2.6 2.1c-1.9 0-2.7-1.2-2.8-2c0 0 1.2-.4 1.2-.4zm9.6 2.2l0-6.9l1.3 0c0 0 .04.88 0 .9c.5-.8 1.3-1.1 2.2-1.1c.8 0 1.7.4 2 1.3c.6-1 1.5-1.3 2.4-1.3c1.2 0 2.4.8 2.4 2.6c-.01.01 0 4.5 0 4.5l-1.4 0c0 0 .04-4.35 0-4.3c0-1-.4-1.6-1.4-1.6c-1 0-1.6.7-1.6 1.7c-.05.01 0 4.2 0 4.2l-1.4 0c0 0-.01-4.35 0-4.3c0-.9-.4-1.6-1.5-1.6c-1 0-1.6.7-1.6 1.7c-.01.02 0 4.2 0 4.2l-1.4 0zm17.2-4.2c-.1-1-.7-1.8-2-1.8c-1.1 0-1.8.9-1.9 1.8c0 0 3.9 0 3.9 0zm1.3 2.2c-.4 1.3-1.5 2.2-3.1 2.2c-1.9 0-3.5-1.3-3.5-3.7c0-2.2 1.6-3.7 3.3-3.7c2.2 0 3.4 1.5 3.4 3.7c0 .2 0 .3 0 .4c0 0-5.3 0-5.3 0c0 1.3.9 2.1 2.1 2.1c1.1 0 1.7-.6 2-1.4c0 0 1.1.4 1.1.4zm-2.7-5.8l-1.2 0l1.3-2.2l1.7 0l-1.8 2.2zm6.4.9l1.5 0l0 1.2l-1.5 0c0 0-.05 3.61 0 3.6c0 .7.2 1 .9 1c.2 0 .4-.1.6-.1c0 0 0 1.2 0 1.2c-.2 0-.5.1-1 .1c-1.2 0-1.9-.7-1.9-2c-.01.02 0-3.8 0-3.8l-1.3 0l0-1.2c0 0 .33-.04.3 0c.8 0 1.1-.5 1.1-1.1c.01-.02 0-1.1 0-1.1l1.3 0l0 2.2zm3.3 6.9l0-6.9l1.3 0l0 6.9l-1.3 0zm.6-10.6c.6 0 1 .5 1 1c0 .6-.4 1-1 1c-.5 0-.9-.4-.9-1c0-.5.4-1 .9-1zm7.7 6.4c0-1-.6-1.8-1.9-1.8c-1.1 0-1.8.9-1.9 1.8c0 0 3.8 0 3.8 0zm1.4 2.2c-.4 1.3-1.5 2.2-3.1 2.2c-1.9 0-3.5-1.3-3.5-3.7c0-2.2 1.6-3.7 3.3-3.7c2.2 0 3.4 1.5 3.4 3.7c0 .2-.1.3-.1.4c0 0-5.2 0-5.2 0c0 1.3.9 2.1 2.1 2.1c1.1 0 1.7-.6 1.9-1.4c0 0 1.2.4 1.2.4zm5.7-3.6c-.2 0-.4 0-.6 0c-1.2 0-1.9.6-1.9 2.1c-.04.04 0 3.5 0 3.5l-1.4 0l0-6.9l1.3 0c0 0 .03 1.17 0 1.2c.5-1.1 1.4-1.4 2.1-1.4c.2 0 .4.1.5.1c0 0 0 1.4 0 1.4zm2 3.4c.1.7.6 1.3 1.6 1.3c.8 0 1.2-.4 1.2-.9c0-.5-.3-.8-.9-.9c0 0-1.2-.3-1.2-.3c-1.1-.2-1.7-1-1.7-2c0-1.1 1.1-2.2 2.5-2.2c1.9 0 2.5 1.3 2.6 1.9c0 0-1.2.5-1.2.5c0-.4-.3-1.2-1.4-1.2c-.7 0-1.2.4-1.2.9c0 .4.3.8.8.9c0 0 1.1.2 1.1.2c1.3.3 2 1.1 2 2.1c0 1-.9 2.1-2.6 2.1c-1.9 0-2.7-1.2-2.8-2c0 0 1.2-.4 1.2-.4zm6.9.3c.6 0 1.2.5 1.2 1.4c0 1.9-1.3 2.7-2.2 2.8c0 0 0-.7 0-.7c.7-.2 1.2-.9 1.2-1.6c0 0-.1.1-.3.1c-.5 0-1-.4-1-1c0-.5.5-1 1.1-1zm11.7-2.3c-.1-1-.7-1.8-2-1.8c-1.1 0-1.8.9-1.9 1.8c0 0 3.9 0 3.9 0zm1.3 2.2c-.4 1.3-1.5 2.2-3.1 2.2c-1.9 0-3.5-1.3-3.5-3.7c0-2.2 1.6-3.7 3.3-3.7c2.2 0 3.4 1.5 3.4 3.7c0 .2 0 .3 0 .4c0 0-5.3 0-5.3 0c0 1.3.9 2.1 2.1 2.1c1.1 0 1.7-.6 2-1.4c0 0 1.1.4 1.1.4zm1.4.2c0-1.3.9-2 2.1-2.2c0 0 1.9-.2 1.9-.2c.4-.1.5-.3.5-.6c0-.6-.4-1.2-1.5-1.2c-.9 0-1.5.6-1.6 1.4c0 0-1.3-.3-1.3-.3c.2-1.3 1.4-2.3 2.9-2.3c2.1 0 2.9 1.2 2.9 2.6c0 0 0 3.5 0 3.5c0 .6 0 1 .1 1.1c0 0-1.4 0-1.4 0c0-.1 0-.4 0-.9c-.3.5-1 1.1-2.3 1.1c-1.4 0-2.3-.9-2.3-2c0 0 0 0 0 0zm4.5-1.2c.03.04 0-.3 0-.3c0 0-2.11.34-2.1.3c-.6.1-1 .5-1 1.1c0 .5.4 1 1.1 1c1.1 0 2-.5 2-2.1zm4.3-.5c0 1.6 1 2.5 2.1 2.5c1.4 0 1.8-.9 2-1.4c0 0 1.2.5 1.2.5c-.3 1-1.3 2.1-3.2 2.1c-2 0-3.5-1.5-3.5-3.7c0-2.1 1.5-3.7 3.5-3.7c1.9 0 2.8 1.2 3.1 2.3c0 0-1.2.5-1.2.5c-.2-.7-.7-1.5-1.9-1.5c-1.1 0-2.1.8-2.1 2.4zm8.3 3.5l-1.4 0l0-10.5l1.4 0c0 0-.05 4.37 0 4.4c.5-.8 1.3-1 2.1-1c1.6 0 2.5 1.2 2.5 2.7c-.04.01 0 4.4 0 4.4l-1.4 0c0 0 0-4.16 0-4.2c0-.9-.4-1.7-1.6-1.7c-1.1 0-1.6.8-1.6 1.8c-.05.03 0 4.1 0 4.1zm15-1.1c1.9 0 3.7-1.3 3.7-4c0-2.7-1.8-4.1-3.7-4.1c-1.9 0-3.7 1.4-3.7 4.1c0 2.7 1.8 4 3.7 4zm0-9.4c2.6 0 5.2 1.9 5.2 5.4c0 3.4-2.6 5.3-5.2 5.3c-2.6 0-5.1-1.9-5.1-5.3c0-3.5 2.5-5.4 5.1-5.4zm8.4 10.5l-1.4 0l0-6.9l1.3 0c0 0 .03.96 0 1c.5-.9 1.4-1.2 2.2-1.2c1.6 0 2.5 1.2 2.5 2.7c-.03.01 0 4.4 0 4.4l-1.4 0c0 0 0-4.16 0-4.2c0-.9-.4-1.7-1.6-1.7c-1.1 0-1.6.8-1.6 1.9c-.05 0 0 4 0 4zm11.4-4.2c0-1-.6-1.8-1.9-1.8c-1.1 0-1.8.9-1.9 1.8c0 0 3.8 0 3.8 0zm1.4 2.2c-.4 1.3-1.5 2.2-3.1 2.2c-1.9 0-3.5-1.3-3.5-3.7c0-2.2 1.6-3.7 3.3-3.7c2.2 0 3.4 1.5 3.4 3.7c0 .2-.1.3-.1.4c0 0-5.2 0-5.2 0c0 1.3.9 2.1 2.1 2.1c1.1 0 1.7-.6 1.9-1.4c0 0 1.2.4 1.2.4zm6-.2c.1.7.6 1.3 1.6 1.3c.8 0 1.2-.4 1.2-.9c0-.5-.3-.8-.9-.9c0 0-1.2-.3-1.2-.3c-1.1-.2-1.7-1-1.7-2c0-1.1 1.1-2.2 2.5-2.2c1.9 0 2.5 1.3 2.6 1.9c0 0-1.2.5-1.2.5c0-.4-.3-1.2-1.4-1.2c-.7 0-1.2.4-1.2.9c0 .4.3.8.8.9c0 0 1.1.2 1.1.2c1.3.3 2 1.1 2 2.1c0 1-.9 2.1-2.6 2.1c-1.9 0-2.7-1.2-2.8-2c0 0 1.2-.4 1.2-.4zm10.6-2c0-1-.7-1.8-1.9-1.8c-1.2 0-1.9.9-1.9 1.8c0 0 3.8 0 3.8 0zm1.4 2.2c-.4 1.3-1.5 2.2-3.1 2.2c-1.9 0-3.6-1.3-3.6-3.7c0-2.2 1.6-3.7 3.4-3.7c2.1 0 3.3 1.5 3.3 3.7c0 .2 0 .3 0 .4c0 0-5.3 0-5.3 0c.1 1.3 1 2.1 2.2 2.1c1.1 0 1.6-.6 1.9-1.4c0 0 1.2.4 1.2.4zm-2.8-5.8l-1.1 0l1.2-2.2l1.8 0l-1.9 2.2zm5.4 4.3c0 1.6 1 2.5 2.1 2.5c1.3 0 1.8-.9 2-1.4c0 0 1.2.5 1.2.5c-.4 1-1.4 2.1-3.2 2.1c-2 0-3.5-1.5-3.5-3.7c0-2.1 1.5-3.7 3.5-3.7c1.8 0 2.8 1.2 3.1 2.3c0 0-1.2.5-1.2.5c-.2-.7-.7-1.5-1.9-1.5c-1.1 0-2.1.8-2.1 2.4zm11.4 2.7c-.4.7-1.3 1-2.1 1c-1.6 0-2.6-1.2-2.6-2.7c.01-.05 0-4.4 0-4.4l1.4 0c0 0-.03 4.15 0 4.1c0 1 .4 1.8 1.5 1.8c1.2 0 1.7-.7 1.7-1.7c0-.04 0-4.2 0-4.2l1.4 0c0 0-.04 5.64 0 5.6c0 .6 0 1.1 0 1.3c0 0-1.3 0-1.3 0c0-.1 0-.5 0-.8c0 0 0 0 0 0zm7.5-4.8c-.2 0-.5 0-.6 0c-1.2 0-2 .6-2 2.1c.05.04 0 3.5 0 3.5l-1.3 0l0-6.9l1.3 0c0 0 .02 1.17 0 1.2c.5-1.1 1.4-1.4 2.1-1.4c.2 0 .4.1.5.1c0 0 0 1.4 0 1.4zm1.4 5.6l0-6.9l1.4 0l0 6.9l-1.4 0zm.7-10.6c.5 0 1 .5 1 1c0 .6-.5 1-1 1c-.6 0-1-.4-1-1c0-.5.4-1 1-1zm3.6 8.4c0 .7.6 1.3 1.6 1.3c.7 0 1.2-.4 1.2-.9c0-.5-.4-.8-.9-.9c0 0-1.2-.3-1.2-.3c-1.1-.2-1.8-1-1.8-2c0-1.1 1.2-2.2 2.5-2.2c1.9 0 2.5 1.3 2.7 1.9c0 0-1.2.5-1.2.5c-.1-.4-.4-1.2-1.5-1.2c-.7 0-1.1.4-1.1.9c0 .4.2.8.8.9c0 0 1.1.2 1.1.2c1.2.3 1.9 1.1 1.9 2.1c0 1-.8 2.1-2.5 2.1c-1.9 0-2.8-1.2-2.9-2c0 0 1.3-.4 1.3-.4zm10.6-2c-.1-1-.7-1.8-2-1.8c-1.1 0-1.8.9-1.9 1.8c0 0 3.9 0 3.9 0zm1.3 2.2c-.4 1.3-1.5 2.2-3.1 2.2c-1.9 0-3.5-1.3-3.5-3.7c0-2.2 1.6-3.7 3.3-3.7c2.2 0 3.4 1.5 3.4 3.7c0 .2 0 .3-.1.4c0 0-5.2 0-5.2 0c0 1.3.9 2.1 2.1 2.1c1.1 0 1.7-.6 2-1.4c0 0 1.1.4 1.1.4zm5.4 2l0-10.5l1.4 0l0 10.5l-1.4 0zm3.3-1.8c0-1.3.9-2 2.1-2.2c0 0 1.9-.2 1.9-.2c.4-.1.5-.3.5-.6c0-.6-.4-1.2-1.5-1.2c-.9 0-1.5.6-1.6 1.4c0 0-1.3-.3-1.3-.3c.2-1.3 1.4-2.3 2.9-2.3c2.1 0 2.9 1.2 2.9 2.6c0 0 0 3.5 0 3.5c0 .6 0 1 .1 1.1c0 0-1.4 0-1.4 0c0-.1 0-.4 0-.9c-.3.5-1 1.1-2.3 1.1c-1.4 0-2.3-.9-2.3-2c0 0 0 0 0 0zm4.5-1.2c.03.04 0-.3 0-.3c0 0-2.11.34-2.1.3c-.6.1-1 .5-1 1.1c0 .5.4 1 1.1 1c1.1 0 2-.5 2-2.1z" stroke="none" fill="#fff"/></g><g id="Polygon164358"><path d="m1.3 11.7l0-10.2l6.3 0l0 1.3l-4.9 0l0 3.1l4.4 0l0 1.4l-4.4 0l0 3.1l4.9 0l0 1.3l-6.3 0zm9.4 0l-1.3 0l0-6.9l1.3 0c0 0 0 .96 0 1c.5-.9 1.3-1.2 2.1-1.2c1.7 0 2.5 1.2 2.5 2.7c.04.01 0 4.4 0 4.4l-1.3 0c0 0-.02-4.16 0-4.2c0-.9-.4-1.7-1.6-1.7c-1.1 0-1.7.8-1.7 1.9c.03 0 0 4 0 4zm13.3-1c1.2 0 2-1.1 2-2.5c0-1.4-.7-2.4-2-2.4c-1.2 0-2 1-2 2.4c0 1.5.7 2.5 2 2.5zm2 0c-.3.6-1 1.2-2.1 1.2c-2.1 0-3.3-1.6-3.3-3.7c0-2 1.3-3.6 3.3-3.6c1.2 0 1.9.6 2.1 1.1c0 .04 0-4.5 0-4.5l1.3 0c0 0 .05 9.24 0 9.2c0 .7.1 1.2.1 1.3c0 0-1.3 0-1.3 0c0-.1-.1-.5-.1-.9c0 0 0-.1 0-.1zm8.4-3.2c-.1-1-.7-1.8-1.9-1.8c-1.2 0-1.9.9-1.9 1.8c0 0 3.8 0 3.8 0zm1.3 2.2c-.3 1.3-1.5 2.2-3.1 2.2c-1.9 0-3.5-1.3-3.5-3.7c0-2.2 1.6-3.7 3.3-3.7c2.2 0 3.4 1.5 3.4 3.7c0 .2 0 .3 0 .4c0 0-5.3 0-5.3 0c0 1.3.9 2.1 2.1 2.1c1.1 0 1.7-.6 2-1.4c0 0 1.1.4 1.1.4zm-2.7-5.8l-1.2 0l1.3-2.2l1.7 0l-1.8 2.2zm7.6 7.8l-1.4 0l-2.8-6.9l1.5 0l2 5.3l2-5.3l1.5 0l-2.8 6.9zm8.5-4.2c0-1-.6-1.8-1.9-1.8c-1.1 0-1.8.9-1.9 1.8c0 0 3.8 0 3.8 0zm1.4 2.2c-.4 1.3-1.5 2.2-3.1 2.2c-1.9 0-3.5-1.3-3.5-3.7c0-2.2 1.6-3.7 3.3-3.7c2.2 0 3.4 1.5 3.4 3.7c0 .2-.1.3-.1.4c0 0-5.2 0-5.2 0c0 1.3.9 2.1 2.1 2.1c1.1 0 1.7-.6 1.9-1.4c0 0 1.2.4 1.2.4zm1.8 2l0-10.5l1.4 0l0 10.5l-1.4 0zm8.8-3.5c0-1.6-1-2.4-2.1-2.4c-1.2 0-2.2.8-2.2 2.4c0 1.7 1 2.5 2.2 2.5c1.1 0 2.1-.8 2.1-2.5zm1.4 0c0 2.2-1.4 3.7-3.5 3.7c-2.1 0-3.6-1.5-3.6-3.7c0-2.1 1.5-3.7 3.6-3.7c2.1 0 3.5 1.6 3.5 3.7zm1.8 6.3l0-9.7l1.3 0c0 0 0 1.04 0 1c.4-.7 1.2-1.2 2.3-1.2c2.1 0 3.2 1.6 3.2 3.6c0 2.1-1.2 3.7-3.2 3.7c-1.1 0-1.9-.5-2.3-1.1c.03-.01 0 3.7 0 3.7l-1.3 0zm5.4-6.3c0-1.4-.7-2.4-2-2.4c-1.3 0-2.1 1-2.1 2.4c0 1.5.8 2.5 2.1 2.5c1.2 0 2-1 2-2.5c0 0 0 0 0 0zm3.2 6.3l0-9.7l1.3 0c0 0-.01 1.04 0 1c.4-.7 1.2-1.2 2.3-1.2c2.1 0 3.2 1.6 3.2 3.6c0 2.1-1.2 3.7-3.2 3.7c-1.1 0-1.9-.5-2.3-1.1c.02-.01 0 3.7 0 3.7l-1.3 0zm5.4-6.3c0-1.4-.7-2.4-2-2.4c-1.3 0-2.1 1-2.1 2.4c0 1.5.8 2.5 2.1 2.5c1.2 0 2-1 2-2.5c0 0 0 0 0 0zm2.7 1.7c0-1.3 1-2 2.2-2.2c0 0 1.8-.2 1.8-.2c.5-.1.6-.3.6-.6c0-.6-.5-1.2-1.5-1.2c-1 0-1.5.6-1.6 1.4c0 0-1.3-.3-1.3-.3c.1-1.3 1.3-2.3 2.8-2.3c2.1 0 2.9 1.2 2.9 2.6c0 0 0 3.5 0 3.5c0 .6.1 1 .1 1.1c0 0-1.3 0-1.3 0c0-.1-.1-.4-.1-.9c-.3.5-1 1.1-2.2 1.1c-1.4 0-2.4-.9-2.4-2c0 0 0 0 0 0zm4.6-1.2c-.02.04 0-.3 0-.3c0 0-2.15.34-2.2.3c-.5.1-1 .5-1 1.1c0 .5.5 1 1.2 1c1.1 0 2-.5 2-2.1zm4.8 3l-1.3 0l0-6.9l1.3 0c0 0-.01.96 0 1c.5-.9 1.3-1.2 2.1-1.2c1.7 0 2.5 1.2 2.5 2.7c.03.01 0 4.4 0 4.4l-1.3 0c0 0-.03-4.16 0-4.2c0-.9-.4-1.7-1.7-1.7c-1 0-1.6.8-1.6 1.9c.02 0 0 4 0 4zm8.6-6.9l1.5 0l0 1.2l-1.5 0c0 0 .03 3.61 0 3.6c0 .7.3 1 1 1c.2 0 .4-.1.5-.1c0 0 0 1.2 0 1.2c-.1 0-.4.1-.9.1c-1.2 0-1.9-.7-1.9-2c-.03.02 0-3.8 0-3.8l-1.4 0l0-1.2c0 0 .41-.04.4 0c.8 0 1.1-.5 1.1-1.1c-.01-.02 0-1.1 0-1.1l1.2 0l0 2.2zm9.8 5.9c1.3 0 2.1-1.1 2.1-2.5c0-1.4-.8-2.4-2-2.4c-1.3 0-2.1 1-2.1 2.4c0 1.5.7 2.5 2 2.5zm2.1 0c-.4.6-1.1 1.2-2.2 1.2c-2 0-3.3-1.6-3.3-3.7c0-2 1.3-3.6 3.3-3.6c1.2 0 1.9.6 2.1 1.1c.04.04 0-4.5 0-4.5l1.4 0c0 0-.02 9.24 0 9.2c0 .7 0 1.2.1 1.3c0 0-1.4 0-1.4 0c0-.1 0-.5 0-.9c0 0 0-.1 0-.1zm8.3-3.2c0-1-.7-1.8-1.9-1.8c-1.2 0-1.9.9-1.9 1.8c0 0 3.8 0 3.8 0zm1.4 2.2c-.4 1.3-1.5 2.2-3.2 2.2c-1.8 0-3.5-1.3-3.5-3.7c0-2.2 1.6-3.7 3.4-3.7c2.1 0 3.3 1.5 3.3 3.7c0 .2 0 .3 0 .4c0 0-5.3 0-5.3 0c.1 1.3 1 2.1 2.1 2.1c1.2 0 1.7-.6 2-1.4c0 0 1.2.4 1.2.4zm2.3-.2c.1.7.7 1.3 1.7 1.3c.7 0 1.2-.4 1.2-.9c0-.5-.4-.8-.9-.9c0 0-1.2-.3-1.2-.3c-1.1-.2-1.8-1-1.8-2c0-1.1 1.1-2.2 2.5-2.2c1.9 0 2.5 1.3 2.7 1.9c0 0-1.2.5-1.2.5c-.1-.4-.4-1.2-1.5-1.2c-.7 0-1.2.4-1.2.9c0 .4.3.8.8.9c0 0 1.2.2 1.2.2c1.2.3 1.9 1.1 1.9 2.1c0 1-.8 2.1-2.5 2.1c-2 0-2.8-1.2-2.9-2c0 0 1.2-.4 1.2-.4zm9.6 5l0-9.7l1.4 0c0 0-.04 1.04 0 1c.3-.7 1.2-1.2 2.3-1.2c2.1 0 3.2 1.6 3.2 3.6c0 2.1-1.2 3.7-3.2 3.7c-1.1 0-1.9-.5-2.3-1.1c-.01-.01 0 3.7 0 3.7l-1.4 0zm5.5-6.3c0-1.4-.8-2.4-2-2.4c-1.3 0-2.1 1-2.1 2.4c0 1.5.8 2.5 2.1 2.5c1.2 0 2-1 2-2.5c0 0 0 0 0 0zm2.7 1.7c0-1.3.9-2 2.1-2.2c0 0 1.9-.2 1.9-.2c.4-.1.5-.3.5-.6c0-.6-.4-1.2-1.5-1.2c-.9 0-1.5.6-1.5 1.4c0 0-1.3-.3-1.3-.3c.1-1.3 1.3-2.3 2.8-2.3c2.1 0 2.9 1.2 2.9 2.6c0 0 0 3.5 0 3.5c0 .6.1 1 .1 1.1c0 0-1.3 0-1.3 0c-.1-.1-.1-.4-.1-.9c-.3.5-1 1.1-2.3 1.1c-1.4 0-2.3-.9-2.3-2c0 0 0 0 0 0zm4.5-1.2c.05.04 0-.3 0-.3c0 0-2.09.34-2.1.3c-.6.1-1 .5-1 1.1c0 .5.4 1 1.1 1c1.1 0 2-.5 2-2.1zm7.4-2.6c-.2 0-.4 0-.6 0c-1.1 0-1.9.6-1.9 2.1c-.01.04 0 3.5 0 3.5l-1.4 0l0-6.9l1.4 0c0 0-.04 1.17 0 1.2c.5-1.1 1.3-1.4 2-1.4c.2 0 .4.1.5.1c0 0 0 1.4 0 1.4zm2.2 2.1c0 1.6 1 2.5 2.1 2.5c1.3 0 1.8-.9 2-1.4c0 0 1.2.5 1.2.5c-.4 1-1.4 2.1-3.2 2.1c-2 0-3.5-1.5-3.5-3.7c0-2.1 1.5-3.7 3.5-3.7c1.9 0 2.8 1.2 3.1 2.3c0 0-1.2.5-1.2.5c-.2-.7-.7-1.5-1.9-1.5c-1.1 0-2.1.8-2.1 2.4zm11.9 0c0-1.6-1-2.4-2.1-2.4c-1.2 0-2.2.8-2.2 2.4c0 1.7 1 2.5 2.2 2.5c1.1 0 2.1-.8 2.1-2.5zm1.4 0c0 2.2-1.4 3.7-3.5 3.7c-2.1 0-3.6-1.5-3.6-3.7c0-2.1 1.5-3.7 3.6-3.7c2.1 0 3.5 1.6 3.5 3.7zm6.3 2.7c-.4.7-1.2 1-2.1 1c-1.6 0-2.6-1.2-2.6-2.7c.04-.05 0-4.4 0-4.4l1.4 0c0 0 0 4.15 0 4.1c0 1 .4 1.8 1.6 1.8c1.1 0 1.6-.7 1.6-1.7c.03-.04 0-4.2 0-4.2l1.4 0c0 0-.01 5.64 0 5.6c0 .6 0 1.1.1 1.3c0 0-1.3 0-1.3 0c-.1-.1-.1-.5-.1-.8c0 0 0 0 0 0zm7.5-4.8c-.2 0-.4 0-.6 0c-1.2 0-1.9.6-1.9 2.1c-.02.04 0 3.5 0 3.5l-1.4 0l0-6.9l1.3 0c0 0 .05 1.17 0 1.2c.6-1.1 1.4-1.4 2.1-1.4c.2 0 .4.1.5.1c0 0 0 1.4 0 1.4zm2 3.4c.1.7.7 1.3 1.6 1.3c.8 0 1.2-.4 1.2-.9c0-.5-.3-.8-.9-.9c0 0-1.2-.3-1.2-.3c-1-.2-1.7-1-1.7-2c0-1.1 1.1-2.2 2.5-2.2c1.9 0 2.5 1.3 2.6 1.9c0 0-1.2.5-1.2.5c0-.4-.3-1.2-1.4-1.2c-.7 0-1.2.4-1.2.9c0 .4.3.8.8.9c0 0 1.1.2 1.1.2c1.3.3 2 1.1 2 2.1c0 1-.8 2.1-2.6 2.1c-1.9 0-2.7-1.2-2.8-2c0 0 1.2-.4 1.2-.4zm9.6 2.2l0-6.9l1.4 0l0 6.9l-1.4 0zm.7-10.6c.5 0 1 .5 1 1c0 .6-.5 1-1 1c-.6 0-1-.4-1-1c0-.5.4-1 1-1zm4.3 10.6l-1.3 0l0-6.9l1.3 0c0 0 .02.96 0 1c.5-.9 1.4-1.2 2.2-1.2c1.6 0 2.5 1.2 2.5 2.7c-.04.01 0 4.4 0 4.4l-1.4 0c0 0 0-4.16 0-4.2c0-.9-.4-1.7-1.6-1.7c-1.1 0-1.7.8-1.7 1.9c.05 0 0 4 0 4zm9.7-1c1.2 0 2-1.1 2-2.5c0-1.4-.7-2.4-2-2.4c-1.2 0-2.1 1-2.1 2.4c0 1.5.8 2.5 2.1 2.5zm2 0c-.3.6-1.1 1.2-2.1 1.2c-2.1 0-3.3-1.6-3.3-3.7c0-2 1.3-3.6 3.3-3.6c1.2 0 1.9.6 2.1 1.1c-.01.04 0-4.5 0-4.5l1.3 0c0 0 .04 9.24 0 9.2c0 .7.1 1.2.1 1.3c0 0-1.3 0-1.3 0c0-.1-.1-.5-.1-.9c0 0 0-.1 0-.1zm3.7 1l0-6.9l1.3 0l0 6.9l-1.3 0zm.6-10.6c.6 0 1 .5 1 1c0 .6-.4 1-1 1c-.5 0-.9-.4-.9-1c0-.5.4-1 .9-1zm6.2 10.6l-1.4 0l-2.8-6.9l1.5 0l2 5.3l2-5.3l1.5 0l-2.8 6.9zm4.1 0l0-6.9l1.4 0l0 6.9l-1.4 0zm.7-10.6c.5 0 1 .5 1 1c0 .6-.5 1-1 1c-.6 0-1-.4-1-1c0-.5.4-1 1-1zm5.8 9.6c1.3 0 2-1.1 2-2.5c0-1.4-.7-2.4-2-2.4c-1.2 0-2 1-2 2.4c0 1.5.7 2.5 2 2.5zm2.1 0c-.4.6-1.1 1.2-2.2 1.2c-2 0-3.3-1.6-3.3-3.7c0-2 1.3-3.6 3.3-3.6c1.2 0 1.9.6 2.1 1.1c.03.04 0-4.5 0-4.5l1.4 0c0 0-.02 9.24 0 9.2c0 .7 0 1.2.1 1.3c0 0-1.4 0-1.4 0c0-.1 0-.5 0-.9c0 0 0-.1 0-.1zm8.1.2c-.4.7-1.2 1-2 1c-1.7 0-2.6-1.2-2.6-2.7c-.04-.05 0-4.4 0-4.4l1.3 0c0 0 .02 4.15 0 4.1c0 1 .5 1.8 1.6 1.8c1.1 0 1.7-.7 1.7-1.7c-.05-.04 0-4.2 0-4.2l1.3 0c0 0 .01 5.64 0 5.6c0 .6.1 1.1.1 1.3c0 0-1.3 0-1.3 0c0-.1-.1-.5-.1-.8c0 0 0 0 0 0zm3.2-1c0-1.3.9-2 2.1-2.2c0 0 1.9-.2 1.9-.2c.4-.1.5-.3.5-.6c0-.6-.4-1.2-1.5-1.2c-.9 0-1.5.6-1.6 1.4c0 0-1.3-.3-1.3-.3c.2-1.3 1.4-2.3 2.9-2.3c2.1 0 2.9 1.2 2.9 2.6c0 0 0 3.5 0 3.5c0 .6.1 1 .1 1.1c0 0-1.3 0-1.3 0c-.1-.1-.1-.4-.1-.9c-.3.5-1 1.1-2.3 1.1c-1.4 0-2.3-.9-2.3-2c0 0 0 0 0 0zm4.5-1.2c.04.04 0-.3 0-.3c0 0-2.09.34-2.1.3c-.6.1-1 .5-1 1.1c0 .5.4 1 1.1 1c1.1 0 2-.5 2-2.1zm3.5 3l0-10.5l1.4 0l0 10.5l-1.4 0zm3.7 0l0-6.9l1.3 0l0 6.9l-1.3 0zm.7-10.6c.5 0 1 .5 1 1c0 .6-.5 1-1 1c-.6 0-1-.4-1-1c0-.5.4-1 1-1zm3.5 8.4c.1.7.7 1.3 1.7 1.3c.7 0 1.2-.4 1.2-.9c0-.5-.4-.8-.9-.9c0 0-1.2-.3-1.2-.3c-1.1-.2-1.8-1-1.8-2c0-1.1 1.2-2.2 2.5-2.2c1.9 0 2.5 1.3 2.7 1.9c0 0-1.2.5-1.2.5c-.1-.4-.4-1.2-1.5-1.2c-.7 0-1.1.4-1.1.9c0 .4.2.8.8.9c0 0 1.1.2 1.1.2c1.2.3 1.9 1.1 1.9 2.1c0 1-.8 2.1-2.5 2.1c-2 0-2.8-1.2-2.9-2c0 0 1.2-.4 1.2-.4zm10.7-2c-.1-1-.7-1.8-2-1.8c-1.1 0-1.8.9-1.9 1.8c0 0 3.9 0 3.9 0zm1.3 2.2c-.4 1.3-1.5 2.2-3.1 2.2c-1.9 0-3.5-1.3-3.5-3.7c0-2.2 1.6-3.7 3.3-3.7c2.2 0 3.4 1.5 3.4 3.7c0 .2 0 .3-.1.4c0 0-5.2 0-5.2 0c0 1.3.9 2.1 2.1 2.1c1.1 0 1.7-.6 2-1.4c0 0 1.1.4 1.1.4zm-2.7-5.8l-1.2 0l1.3-2.2l1.7 0l-1.8 2.2zm5.1 5.6c.1.7.6 1.3 1.6 1.3c.8 0 1.2-.4 1.2-.9c0-.5-.3-.8-.9-.9c0 0-1.2-.3-1.2-.3c-1.1-.2-1.7-1-1.7-2c0-1.1 1.1-2.2 2.5-2.2c1.9 0 2.5 1.3 2.6 1.9c0 0-1.2.5-1.2.5c-.1-.4-.3-1.2-1.4-1.2c-.7 0-1.2.4-1.2.9c0 .4.3.8.8.9c0 0 1.1.2 1.1.2c1.3.3 2 1.1 2 2.1c0 1-.9 2.1-2.6 2.1c-1.9 0-2.7-1.2-2.8-2c0 0 1.2-.4 1.2-.4zm6.9.3c.6 0 1.2.5 1.2 1.4c0 1.9-1.3 2.7-2.2 2.8c0 0 0-.7 0-.7c.7-.2 1.2-.9 1.2-1.6c0 0-.1.1-.3.1c-.5 0-1-.4-1-1c0-.5.5-1 1.1-1zm7.8-1.6c0 1.6 1 2.5 2.1 2.5c1.3 0 1.8-.9 1.9-1.4c0 0 1.2.5 1.2.5c-.3 1-1.3 2.1-3.1 2.1c-2 0-3.5-1.5-3.5-3.7c0-2.1 1.5-3.7 3.5-3.7c1.8 0 2.8 1.2 3.1 2.3c0 0-1.2.5-1.2.5c-.2-.7-.7-1.5-1.9-1.5c-1.1 0-2.1.8-2.1 2.4zm11.5-.7c-.1-1-.7-1.8-2-1.8c-1.1 0-1.8.9-1.9 1.8c0 0 3.9 0 3.9 0zm1.3 2.2c-.4 1.3-1.5 2.2-3.1 2.2c-1.9 0-3.5-1.3-3.5-3.7c0-2.2 1.6-3.7 3.3-3.7c2.2 0 3.4 1.5 3.4 3.7c0 .2 0 .3 0 .4c0 0-5.3 0-5.3 0c0 1.3.9 2.1 2.1 2.1c1.1 0 1.7-.6 2-1.4c0 0 1.1.4 1.1.4zm3.2 2l-1.4 0l0-6.9l1.4 0c0 0-.04.96 0 1c.5-.9 1.3-1.2 2.1-1.2c1.7 0 2.5 1.2 2.5 2.7c0 .01 0 4.4 0 4.4l-1.4 0c0 0 .04-4.16 0-4.2c0-.9-.4-1.7-1.6-1.7c-1.1 0-1.6.8-1.6 1.9c-.01 0 0 4 0 4zm8.6-6.9l1.5 0l0 1.2l-1.5 0c0 0 0 3.61 0 3.6c0 .7.3 1 1 1c.1 0 .4-.1.5-.1c0 0 0 1.2 0 1.2c-.1 0-.5.1-.9.1c-1.2 0-2-.7-2-2c.04.02 0-3.8 0-3.8l-1.3 0l0-1.2c0 0 .38-.04.4 0c.7 0 1.1-.5 1.1-1.1c-.05-.02 0-1.1 0-1.1l1.2 0l0 2.2zm7 1.3c-.2 0-.4 0-.5 0c-1.2 0-2 .6-2 2.1c.04.04 0 3.5 0 3.5l-1.3 0l0-6.9l1.3 0c0 0 .01 1.17 0 1.2c.5-1.1 1.4-1.4 2.1-1.4c.2 0 .4.1.4.1c0 0 0 1.4 0 1.4zm6.1 1.4c0-1-.7-1.8-1.9-1.8c-1.1 0-1.8.9-1.9 1.8c0 0 3.8 0 3.8 0zm1.4 2.2c-.4 1.3-1.5 2.2-3.1 2.2c-1.9 0-3.5-1.3-3.5-3.7c0-2.2 1.5-3.7 3.3-3.7c2.1 0 3.3 1.5 3.3 3.7c0 .2 0 .3 0 .4c0 0-5.2 0-5.2 0c0 1.3.9 2.1 2.1 2.1c1.1 0 1.7-.6 1.9-1.4c0 0 1.2.4 1.2.4zm-2.8-5.8l-1.1 0l1.3-2.2l1.7 0l-1.9 2.2zm5.2 5.6c0 .7.6 1.3 1.6 1.3c.8 0 1.2-.4 1.2-.9c0-.5-.3-.8-.9-.9c0 0-1.2-.3-1.2-.3c-1.1-.2-1.8-1-1.8-2c0-1.1 1.2-2.2 2.5-2.2c1.9 0 2.5 1.3 2.7 1.9c0 0-1.2.5-1.2.5c-.1-.4-.4-1.2-1.5-1.2c-.7 0-1.1.4-1.1.9c0 .4.2.8.8.9c0 0 1.1.2 1.1.2c1.3.3 1.9 1.1 1.9 2.1c0 1-.8 2.1-2.5 2.1c-1.9 0-2.8-1.2-2.9-2c0 0 1.3-.4 1.3-.4z" stroke="none" fill="#fff"/></g></svg>