<?xml version="1.0" standalone="no"?><!DOCTYPE svg PUBLIC "-//W3C//DTD SVG 1.1//EN" "http://www.w3.org/Graphics/SVG/1.1/DTD/svg11.dtd"><svg xmlns="http://www.w3.org/2000/svg" version="1.1" width="168px" height="76.8px" viewBox="0 -12 168 76.8" style="top:-12px"><desc>+ 100</desc><defs/><g id="Polygon173474"><path d="m53.2 20.8l0 1.6l-6.9-.2l-2.1 0l0 3.9l.3 5l-1.7 0l.3-6.7l0-2.2l-3.9 0l-5.1.2l0-1.6l6.7.2l2.3 0l0-4.1l-.3-4.8l1.7 0l-.3 6.9l0 2l4.2 0l4.8-.2zm11.1-2.3l11.8-7.8c0 0 0 21.33 0 21.3c0 3 1.7 3.6 2.3 3.9c-.04-.03 0 .8 0 .8l-12.7 0c0 0 .05-.83 0-.8c.9-.3 2.6-.9 2.6-3.9c0 0 0-9.3 0-9.3c0-3.2-2.6-3.7-4-3.2c-.03.01 0-1 0-1zm16.3 5.9c0-7.2 5.2-13 12.7-13c8.2 0 12.7 5.8 12.7 13c0 7.1-4.5 13-12.7 13c-7.5 0-12.7-5.9-12.7-13zm16.8 0c0-6-.3-11.9-4.1-11.9c-3.8 0-4 5.9-4 11.9c0 5.9.2 11.9 4 11.9c3.8 0 4.1-6 4.1-11.9zm11.2 0c0-7.2 5.1-13 12.7-13c8.1 0 12.6 5.8 12.6 13c0 7.1-4.5 13-12.6 13c-7.6 0-12.7-5.9-12.7-13zm16.8 0c0-6-.3-11.9-4.1-11.9c-3.8 0-4.1 5.9-4.1 11.9c0 5.9.3 11.9 4.1 11.9c3.8 0 4.1-6 4.1-11.9z" stroke="none" fill="#fff"/></g></svg>