<?xml version="1.0" standalone="no"?><!DOCTYPE svg PUBLIC "-//W3C//DTD SVG 1.1//EN" "http://www.w3.org/Graphics/SVG/1.1/DTD/svg11.dtd"><svg xmlns="http://www.w3.org/2000/svg" version="1.1" width="111.2px" height="45.8px" viewBox="0 -3 111.2 45.8" style="top:-3px"><desc>Relais Woork et Duo for a Job</desc><defs/><g id="Polygon181948"><path d="m4.8 27.1c1.8 0 3.3-1.1 3.3-3.5c0-2.4-1.5-3.6-3.3-3.6c.01.04-1.8 0-1.8 0l0 7.1c0 0 1.8.04 1.8 0zm-3.6 1.6l0-10.2c0 0 3.67-.05 3.7 0c2.8 0 5 1.8 5 5.1c0 3.3-2.3 5.1-5 5.1c-.04.03-3.7 0-3.7 0zm15-.8c-.4.7-1.2 1-2 1c-1.7 0-2.7-1.2-2.7-2.8c-.02.02 0-4.4 0-4.4l1.7 0c0 0-.04 4.12 0 4.1c0 .9.4 1.6 1.4 1.6c1 0 1.5-.6 1.5-1.6c-.03.05 0-4.1 0-4.1l1.6 0c0 0 .05 5.74 0 5.7c0 .6.1 1.1.1 1.3c0 0-1.6 0-1.6 0c0-.1 0-.5 0-.8c0 0 0 0 0 0zm8.8-2.7c0-1.5-1-2.2-2-2.2c-1 0-2 .7-2 2.2c0 1.5 1 2.2 2 2.2c1 0 2-.7 2-2.2zm1.6 0c0 2.2-1.5 3.7-3.6 3.7c-2.1 0-3.7-1.5-3.7-3.7c0-2.2 1.6-3.7 3.7-3.7c2.1 0 3.6 1.5 3.6 3.7zm7.4-4.5c-.04.04 0 1 0 1l1.6 0l0 1.4l-1.6 0l0 5.6l-1.7 0l0-5.6l-1.3 0l0-1.4l1.3 0c0 0-.04-1 0-1c0-1.6 1-2.5 2.4-2.5c.4 0 .8 0 .9.1c0 0 0 1.4 0 1.4c-.1 0-.3 0-.6 0c-.4 0-1 .2-1 1zm7.8 4.5c0-1.5-.9-2.2-2-2.2c-1 0-1.9.7-1.9 2.2c0 1.5.9 2.2 1.9 2.2c1.1 0 2-.7 2-2.2zm1.7 0c0 2.2-1.6 3.7-3.7 3.7c-2.1 0-3.6-1.5-3.6-3.7c0-2.2 1.5-3.7 3.6-3.7c2.1 0 3.7 1.5 3.7 3.7zm5.8-1.9c-.2 0-.4 0-.6 0c-1.3 0-1.9.7-1.9 2.1c0-.03 0 3.3 0 3.3l-1.7 0l0-7l1.7 0c0 0-.04 1.1 0 1.1c.3-.8 1.1-1.2 2-1.2c.2 0 .4 0 .5 0c0 0 0 1.7 0 1.7zm6.6 1.4c0 0 1.8-.3 1.8-.3c.4 0 .6-.3.6-.5c0-.6-.4-1.1-1.4-1.1c-.9 0-1.4.6-1.4 1.3c0 0-1.6-.3-1.6-.3c.2-1.3 1.3-2.3 3-2.3c2.2 0 3 1.2 3 2.6c0 0 0 3.5 0 3.5c0 .6.1 1.1.1 1.1c0 0-1.6 0-1.6 0c0 0 0-.3 0-.9c-.4.6-1.1 1.1-2.2 1.1c-1.5 0-2.4-1-2.4-2.1c0-1.2.9-1.9 2.1-2.1zm2.4 1.1c-.04 0 0-.3 0-.3c0 0-1.88.26-1.9.3c-.5 0-.9.3-.9.9c0 .5.3.9 1 .9c.9 0 1.8-.4 1.8-1.8zm6.4-.8l1.7-.4c0 0 .04.97 0 1c0 1.2.7 1.7 1.6 1.7c.9 0 1.5-.6 1.5-1.7c.03.04 0-7.1 0-7.1l1.8 0c0 0-.03 7.1 0 7.1c0 1.8-1.3 3.3-3.3 3.3c-2 0-3.3-1.3-3.3-3.3c.04.03 0-.6 0-.6zm13.8.2c0-1.5-1-2.2-2-2.2c-1 0-2 .7-2 2.2c0 1.5 1 2.2 2 2.2c1 0 2-.7 2-2.2zm1.7 0c0 2.2-1.6 3.7-3.7 3.7c-2.1 0-3.7-1.5-3.7-3.7c0-2.2 1.6-3.7 3.7-3.7c2.1 0 3.7 1.5 3.7 3.7zm1.6 3.5l0-10.5l1.6 0c0 0 .05 4.34 0 4.3c.4-.5 1.2-1 2.3-1c2.1 0 3.2 1.6 3.2 3.7c0 2.1-1.2 3.7-3.3 3.7c-1 0-1.8-.4-2.2-1.1c.03-.01 0 .9 0 .9l-1.6 0zm3.5-5.7c-1 0-1.9.8-1.9 2.2c0 1.4.9 2.2 1.9 2.2c1.1 0 1.9-.8 1.9-2.2c0-1.4-.8-2.2-1.9-2.2z" stroke="none" fill="#ffaf7a"/></g><g id="Polygon181947"><path d="m4.3 7.7l-1.3 0l0 4l-1.8 0l0-10.2c0 0 3.98-.05 4 0c2 0 3.2 1.3 3.2 3.1c0 1.4-.9 2.5-2.3 2.9c-.02 0 2.3 4.2 2.3 4.2l-2 0l-2.1-4zm.6-1.6c1 0 1.7-.6 1.7-1.5c0-1-.7-1.6-1.7-1.6c-.04-.01-1.9 0-1.9 0l0 3.1c0 0 1.86.03 1.9 0zm9.6 1.3c0-.8-.6-1.5-1.7-1.5c-1.1 0-1.7.8-1.8 1.5c0 0 3.5 0 3.5 0zm1.6 2.3c-.4 1.2-1.5 2.2-3.2 2.2c-1.9 0-3.6-1.3-3.6-3.7c0-2.3 1.7-3.7 3.4-3.7c2.2 0 3.5 1.4 3.5 3.6c0 .3 0 .5 0 .6c0 0-5.2 0-5.2 0c0 1 .9 1.8 1.9 1.8c1 0 1.6-.5 1.8-1.2c0 0 1.4.4 1.4.4zm1.7 2l0-10.5l1.7 0l0 10.5l-1.7 0zm5.5-4c0 0 1.8-.3 1.8-.3c.4 0 .6-.3.6-.5c0-.6-.4-1.1-1.4-1.1c-.9 0-1.3.6-1.4 1.3c0 0-1.6-.3-1.6-.3c.2-1.3 1.3-2.3 3-2.3c2.2 0 3 1.2 3 2.6c0 0 0 3.5 0 3.5c0 .6.1 1.1.1 1.1c0 0-1.6 0-1.6 0c0 0 0-.3 0-.9c-.4.6-1.1 1.1-2.2 1.1c-1.5 0-2.4-1-2.4-2.1c0-1.2.9-1.9 2.1-2.1zm2.4 1.1c-.03 0 0-.3 0-.3c0 0-1.88.26-1.9.3c-.5 0-.9.3-.9.9c0 .5.3.9 1 .9c1 0 1.8-.4 1.8-1.8zm3.6 2.9l0-7l1.7 0l0 7l-1.7 0zm.9-10.6c.6 0 1.1.5 1.1 1.1c0 .6-.5 1.1-1.1 1.1c-.6 0-1.1-.5-1.1-1.1c0-.6.5-1.1 1.1-1.1zm3.8 8.3c.1.6.6 1.2 1.5 1.2c.7 0 1-.4 1-.8c0-.4-.2-.7-.8-.8c0 0-1-.2-1-.2c-1.3-.3-1.9-1.1-1.9-2.1c0-1.2 1.1-2.2 2.6-2.2c1.9 0 2.6 1.2 2.7 1.9c0 0-1.4.4-1.4.4c-.1-.4-.4-1-1.3-1c-.6 0-1.1.3-1.1.8c0 .4.3.6.7.7c0 0 1.1.2 1.1.2c1.4.3 2 1.1 2 2.2c0 1.1-.8 2.2-2.6 2.2c-2.1 0-2.8-1.3-2.9-2.1c0 0 1.4-.4 1.4-.4zm21.1-7.9l1.8 0l-2.9 10.2l-1.8 0l-2.5-7.7l-2.5 7.7l-1.8 0l-2.9-10.2l1.8 0l2.1 7.5l2.4-7.5l1.8 0l2.5 7.5l2-7.5zm7.6 6.7c0-1.5-.9-2.2-2-2.2c-1 0-1.9.7-1.9 2.2c0 1.5.9 2.2 1.9 2.2c1.1 0 2-.7 2-2.2zm1.7 0c0 2.2-1.6 3.7-3.7 3.7c-2.1 0-3.6-1.5-3.6-3.7c0-2.2 1.5-3.7 3.6-3.7c2.1 0 3.7 1.5 3.7 3.7zm6.7 0c0-1.5-.9-2.2-2-2.2c-1 0-2 .7-2 2.2c0 1.5 1 2.2 2 2.2c1.1 0 2-.7 2-2.2zm1.7 0c0 2.2-1.6 3.7-3.7 3.7c-2.1 0-3.6-1.5-3.6-3.7c0-2.2 1.5-3.7 3.6-3.7c2.1 0 3.7 1.5 3.7 3.7zm5.7-1.9c-.1 0-.3 0-.5 0c-1.3 0-1.9.7-1.9 2.1c-.01-.03 0 3.3 0 3.3l-1.7 0l0-7l1.7 0c0 0-.05 1.1 0 1.1c.3-.8 1.1-1.2 2-1.2c.2 0 .4 0 .4 0c0 0 0 1.7 0 1.7zm5.2 1.4l2.9 4l-2 0l-2.1-2.9l-.9 1l0 1.9l-1.6 0l0-10.5l1.6 0l0 6.3l2.7-2.8l2.3 0l-2.9 3zm12.4-.3c-.1-.8-.6-1.5-1.8-1.5c-1 0-1.6.8-1.7 1.5c0 0 3.5 0 3.5 0zm1.6 2.3c-.4 1.2-1.5 2.2-3.2 2.2c-1.9 0-3.6-1.3-3.6-3.7c0-2.3 1.6-3.7 3.4-3.7c2.2 0 3.5 1.4 3.5 3.6c0 .3-.1.5-.1.6c0 0-5.1 0-5.1 0c0 1 .9 1.8 1.9 1.8c1 0 1.5-.5 1.8-1.2c0 0 1.4.4 1.4.4zm3.8-5l1.5 0l0 1.5l-1.5 0c0 0 .01 3.24 0 3.2c0 .7.3.9.9.9c.2 0 .5 0 .6 0c0 0 0 1.4 0 1.4c-.1 0-.4.1-1 .1c-1.3 0-2.2-.8-2.2-2.1c.05.02 0-3.5 0-3.5l-1.3 0l0-1.5c0 0 .4-.03.4 0c.8 0 1.1-.5 1.1-1.1c-.01-.03 0-1.1 0-1.1l1.5 0l0 2.2z" stroke="none" fill="#ffaf7a"/></g></svg>