<?xml version="1.0" standalone="no"?><!DOCTYPE svg PUBLIC "-//W3C//DTD SVG 1.1//EN" "http://www.w3.org/Graphics/SVG/1.1/DTD/svg11.dtd"><svg xmlns="http://www.w3.org/2000/svg" version="1.1" width="105.4px" height="16px" viewBox="0 -3 105.4 16" style="top:-3px"><desc>C1 C2 avanc</desc><defs/><g id="Polygon166310"><path d="m.5 4.8c0-2.5 1.8-3.9 3.7-3.9c1.7 0 2.9.9 3.2 2.4c0 0-.9.3-.9.3c-.3-1.1-1.1-1.8-2.3-1.8c-1.4 0-2.7 1-2.7 3c0 1.9 1.3 2.9 2.7 2.9c1.2 0 2-.8 2.3-1.8c0 0 1 .4 1 .4c-.4 1.4-1.6 2.4-3.3 2.4c-2 0-3.7-1.4-3.7-3.9zm9.3 3.7l0-4.8l-1.7 0c0 0 .04-.73 0-.7c1 0 1.6-.6 1.8-1.3c-.01-.01.9 0 .9 0l0 6.8l-1 0zm2.3-2.6l0-.8l2.8 0l0 .8l-2.8 0zm3.7-1.1c0-2.5 1.9-3.9 3.7-3.9c1.7 0 2.9.9 3.3 2.4c0 0-.9.3-.9.3c-.3-1.1-1.1-1.8-2.4-1.8c-1.3 0-2.6 1-2.6 3c0 1.9 1.3 2.9 2.6 2.9c1.3 0 2.1-.8 2.4-1.8c0 0 .9.4.9.4c-.4 1.4-1.5 2.4-3.3 2.4c-1.9 0-3.7-1.4-3.7-3.9zm7.9-.8c0-.1 0-.2 0-.3c0-1.1.8-2.2 2.3-2.2c1.5 0 2.3 1 2.3 2.1c0 .9-.5 1.6-1.2 2.1c0 0-1.4.9-1.4.9c-.4.2-.7.5-.8.9c-.02.04 3.5 0 3.5 0l0 1c0 0-4.78-.01-4.8 0c0-1.1.5-2 1.6-2.7c0 0 1.2-.7 1.2-.7c.6-.5.9-.9.9-1.5c0-.6-.4-1.2-1.3-1.2c-.9 0-1.3.7-1.3 1.4c0 .1 0 .2 0 .3c0 0-1-.1-1-.1zm8.3 3.1c0-.9.6-1.4 1.5-1.5c0 0 1.3-.2 1.3-.2c.4 0 .4-.2.4-.4c0-.5-.3-.9-1.1-.9c-.6 0-1 .5-1.1 1c0 0-.9-.2-.9-.2c.1-.9.9-1.6 2-1.6c1.5 0 2.1.8 2.1 1.8c0 0 0 2.6 0 2.6c0 .4.1.7.1.8c0 0-1 0-1 0c0-.1 0-.3 0-.7c-.3.4-.8.9-1.7.9c-1 0-1.6-.8-1.6-1.6c0 0 0 0 0 0zm3.2-.8c.04.03 0-.2 0-.2c0 0-1.51.23-1.5.2c-.4.1-.7.3-.7.8c0 .4.3.7.8.7c.8 0 1.4-.4 1.4-1.5zm4.9 2.2l-1 0l-2.1-5.1l1.1 0l1.5 3.9l1.4-3.9l1.1 0l-2 5.1zm2.6-1.4c0-.9.6-1.4 1.5-1.5c0 0 1.4-.2 1.4-.2c.3 0 .3-.2.3-.4c0-.5-.3-.9-1-.9c-.7 0-1.1.5-1.2 1c0 0-.9-.2-.9-.2c.1-.9.9-1.6 2-1.6c1.5 0 2.1.8 2.1 1.8c0 0 0 2.6 0 2.6c0 .4.1.7.1.8c0 0-1 0-1 0c0-.1 0-.3 0-.7c-.2.4-.7.9-1.6.9c-1.1 0-1.7-.8-1.7-1.6c0 0 0 0 0 0zm3.2-.8c.05.03 0-.2 0-.2c0 0-1.5.23-1.5.2c-.4.1-.7.3-.7.8c0 .4.3.7.8.7c.8 0 1.4-.4 1.4-1.5zm3.6 2.2l-1 0l0-5.1l.9 0c0 0 .03.77 0 .8c.4-.7 1-.9 1.6-.9c1.2 0 1.8.9 1.8 2c-.01-.01 0 3.2 0 3.2l-1 0c0 0 .01-3.04 0-3c0-.7-.3-1.3-1.2-1.3c-.7 0-1.1.6-1.1 1.4c-.05-.03 0 2.9 0 2.9zm5.5-2.5c0 1.1.7 1.7 1.5 1.7c.9 0 1.3-.6 1.4-1c0 0 .9.4.9.4c-.3.7-1 1.6-2.3 1.6c-1.5 0-2.6-1.2-2.6-2.7c0-1.6 1.2-2.7 2.6-2.7c1.3 0 2 .8 2.2 1.6c0 0-.9.4-.9.4c-.1-.5-.4-1.1-1.3-1.1c-.8 0-1.5.6-1.5 1.8zm8.3-.5c0-.8-.5-1.3-1.4-1.3c-.8 0-1.3.6-1.4 1.3c0 0 2.8 0 2.8 0zm1 1.6c-.3.8-1.1 1.6-2.3 1.6c-1.3 0-2.5-1-2.5-2.7c0-1.6 1.1-2.7 2.4-2.7c1.5 0 2.4 1.1 2.4 2.6c0 .2 0 .3 0 .3c0 0-3.8 0-3.8 0c0 1 .7 1.6 1.5 1.6c.8 0 1.2-.5 1.4-1c0 0 .9.3.9.3zm-2-4.3l-.8 0l.9-1.5l1.2 0l-1.3 1.5z" stroke="none" fill="#144542"/></g></svg>