<?xml version="1.0" standalone="no"?><!DOCTYPE svg PUBLIC "-//W3C//DTD SVG 1.1//EN" "http://www.w3.org/Graphics/SVG/1.1/DTD/svg11.dtd"><svg xmlns="http://www.w3.org/2000/svg" version="1.1" width="55.2px" height="47.3px" viewBox="0 -6 55.2 47.3" style="top:-6px"><desc>2</desc><defs/><g id="Polygon169351"><path d="m12.7 13c0 0-1.4 5.22-1.4 5.2c-.6-.2-1.1-.3-3.3-.3c-.01-.02-8.1 0-8.1 0c0 0 5.5-7.56 5.5-7.6c1.4-1.9 2.9-3.9 2.9-6c0-1.8-.7-3.4-2.3-3.4c-1.7 0-2.5.9-2.5 1.8c0 1 1.5 2 1.5 3.2c0 1-1 2-2 2c-1.3 0-2.3-1.1-2.3-2.3c0-2.1 1.7-5.3 5.6-5.3c2.4 0 5.8 1.4 5.8 4.7c0 3-1.9 4.5-4.6 6.5c.01.04-4 2.9-4 2.9c0 0 4.4 0 4.4 0c2.9 0 4-1.3 4.3-1.4c.02-.04.5 0 .5 0z" stroke="none" fill="#9b78ef"/></g></svg>