<?xml version="1.0" standalone="no"?><!DOCTYPE svg PUBLIC "-//W3C//DTD SVG 1.1//EN" "http://www.w3.org/Graphics/SVG/1.1/DTD/svg11.dtd"><svg xmlns="http://www.w3.org/2000/svg" version="1.1" width="148.2px" height="56px" viewBox="0 -8 148.2 56" style="top:-8px"><desc>35</desc><defs/><g id="Polygon181199"><path d="m73.7 24c0 5.6-5.4 7.1-8.5 7c-5.5-.1-7-2.8-7-5.1c0-1.7 1.5-3 2.8-3c1.3 0 2.7.8 2.7 2.4c0 1.2-.9 1.9-.9 2.7c0 .8.4 2.3 2.4 2.3c2.2 0 3.2-2.1 3.2-5.7c0-3.6-2.1-5.9-7.4-4.4c0 0-.3-.6-.3-.6c4-1.8 7.3-4.2 7.3-7.6c0-1.8-.8-4-2.9-4c-1.5 0-2.6 1.2-2.6 2.1c0 1.6 1.4 1.9 1.4 3.2c0 1.2-1 2.1-2.1 2.1c-1.7 0-2.8-1.2-2.8-2.8c0-2.5 2.4-5.3 6.5-5.3c4.6 0 7 1.9 7 5.1c0 2.7-2.7 4.7-6.4 5.9c0 0 0 .2 0 .2c5-.4 7.6 2.1 7.6 5.5zm15.8-1.5c0 3.6-2.9 8.4-8.3 8.4c-5.3 0-6.6-2.6-6.6-4.9c0-1.9 1.3-3.4 2.5-3.4c1.4 0 2.7.8 2.6 2.6c-.1 1.1-1.1 1.6-1.1 2.6c0 1.6 1 2.3 2.5 2.3c2.2 0 3.9-1.8 4.2-5c.4-4-1.9-6.1-4.6-6.1c-2.1 0-3.3.9-4.4 1.8c.05 0-.5 0-.5 0l2.2-13c0 0 6.8-.04 6.8 0c1.9 0 3.6-.6 4.3-2c.04-.01.6 0 .6 0l-1.8 6.6l-10 0c0 0-.98 5.9-1 5.9c1.7-2.2 3.8-3 6.1-3c4.3 0 6.5 3.7 6.5 7.2z" stroke="none" fill="#144542"/></g></svg>