<?xml version="1.0" standalone="no"?><!DOCTYPE svg PUBLIC "-//W3C//DTD SVG 1.1//EN" "http://www.w3.org/Graphics/SVG/1.1/DTD/svg11.dtd"><svg xmlns="http://www.w3.org/2000/svg" version="1.1" width="440.3px" height="145.6px" viewBox="0 -8 440.3 145.6" style="top:-8px"><desc>Notre priorit : assurer et d montrer l’efficience de la d pense publique</desc><defs/><g id="Polygon180189"><path d="m17.1 89.8c0 .04 0 .5 0 .5l-6 0c0 0 .33-1.81.3-1.8c-1.3 1.8-2.5 2.2-4.1 2.2c-4 0-6.7-3.6-6.7-7.8c0-4.3 2.9-7.9 6.9-7.9c1.2 0 2.3.4 3.3 1.1c0 0 0-3.9 0-3.9c0-2.1-1.1-3-1.5-3.2c-.03.05 0-.4 0-.4l6.2-1.1c0 0 .04 19.37 0 19.4c0 1.9 1.1 2.8 1.6 2.9zm-6.3-1.8c0 0 0-9.7 0-9.7c-.7-1.6-1.9-2.6-3-2.6c-2.4 0-2.3 3-2.3 5.6c0 4.3.9 8.2 3.2 8.2c.7 0 1.4-.5 2.1-1.5zm12.7-14.7l-.7 0l1.9-4.6l5.5 0l-6.7 4.6zm9 11.7c0 0 0 .8 0 .8c-.7 2.8-3 4.9-6.5 4.9c-4 0-7.6-3.6-7.6-7.9c0-4.4 3.6-7.8 7.6-7.8c3.2 0 6 2 6.8 5.2c0 0-9.5 2-9.5 2c.5 2.5 2 5.2 5.3 5.2c.8 0 2.8-.4 3.9-2.4zm-9.5-5.2c0 .5.1 1.1.2 1.6c0 0 2.4-.4 2.4-.4c.9-.2 1.2-.9 1.2-1.6c0-1.5-1.4-3.6-2.7-3.6c-1.3 0-1.1 3.4-1.1 4zm26.9 2.9c0 4.4-2.8 8-6.6 8c-1.6 0-2.5-.3-3.4-1c0 0 0 3.6 0 3.6c0 2.3 1 3 1.3 3.2c-.01 0 0 .4 0 .4l-7.7 0c0 0-.02-.37 0-.4c.3-.1 1.6-1.2 1.6-3.2c0 0 0-13.8 0-13.8c0-2.2-1-3.1-1.5-3.2c-.03.04 0-.4 0-.4l6.2-1.2c0 0-.53 2.99-.5 3c1.4-2.7 2.9-2.7 4.1-2.7c3.8 0 6.5 3.4 6.5 7.7zm-4.9.9c0-3.3-.8-7.4-3.1-7.4c-.6 0-1.3.3-2 1.7c0 0 0 9.9 0 9.9c.7 1.3 1.3 2.1 2.7 2.1c1.9 0 2.4-2.5 2.4-6.3zm20.5 1.4c0 0 0 .8 0 .8c-.7 2.8-3 4.9-6.4 4.9c-4.1 0-7.6-3.6-7.6-7.9c0-4.4 3.5-7.8 7.6-7.8c3.2 0 6 2 6.7 5.2c0 0-9.5 2-9.5 2c.5 2.5 2 5.2 5.3 5.2c.9 0 2.9-.4 3.9-2.4zm-9.4-5.2c0 .5 0 1.1.1 1.6c0 0 2.5-.4 2.5-.4c.8-.2 1.2-.9 1.2-1.6c0-1.5-1.4-3.6-2.7-3.6c-1.3 0-1.1 3.4-1.1 4zm27.6 10.1c-.03-.03 0 .4 0 .4l-7.8 0c0 0 .03-.43 0-.4c.5-.2 1.5-1.2 1.5-3.1c0 0 0-6.1 0-6.1c0-3.5-.4-4.4-1.8-4.4c-1 0-1.9.8-2.4 1.9c0 0 0 8.6 0 8.6c0 2.2 1.2 2.9 1.3 3.1c.05-.03 0 .4 0 .4l-7.6 0c0 0 .03-.37 0-.4c.4-.2 1.6-1.2 1.6-3.1c0 0 0-7.2 0-7.2c0-2.2-1.1-2.9-1.6-3.2c.03 0 0-.5 0-.5l6.4-1.1c0 0-.58 3.19-.6 3.2c.9-1.8 2.2-3 4.3-3c3.5 0 5.2 2.3 5.2 5.1c0 0 0 6.7 0 6.7c0 1.9 1.1 2.9 1.5 3.1zm2.4.9c0 0-1.4-6.4-1.4-6.4c0 0 .65.04.6 0c1.1 2.6 3.3 5.7 6.2 5.7c1.5 0 2.3-.9 2.3-2.5c0-3.3-8.7-1.9-8.7-8.4c0-2.9 2.6-4.2 5.2-4.2c2.2 0 3.1 1.1 5.4 0c-.03-.04 1.1 5.7 1.1 5.7c0 0-.62-.01-.6 0c-1.3-2.7-3.8-5.1-6.1-5.1c-1.3 0-2.2.5-2 2c.4 2.5 9.4 1.7 9.4 8.6c0 2.6-2.5 4.5-5.9 4.5c-2.3 0-3-.7-5.5.1zm26.7-5.8c0 0 0 .8 0 .8c-.7 2.8-3 4.9-6.4 4.9c-4.1 0-7.6-3.6-7.6-7.9c0-4.4 3.6-7.8 7.6-7.8c3.2 0 6 2 6.7 5.2c0 0-9.5 2-9.5 2c.6 2.5 2 5.2 5.4 5.2c.8 0 2.8-.4 3.8-2.4zm-9.4-5.2c0 .5 0 1.1.1 1.6c0 0 2.5-.4 2.5-.4c.9-.2 1.2-.9 1.2-1.6c0-1.5-1.4-3.6-2.7-3.6c-1.3 0-1.1 3.4-1.1 4zm36.1 2.9c0 4.4-2.9 8-6.7 8c-1.5 0-2.5-.3-3.4-1c0 0 0 3.6 0 3.6c0 2.3 1.1 3 1.3 3.2c.04 0 0 .4 0 .4l-7.7 0c0 0 .03-.37 0-.4c.4-.1 1.6-1.2 1.6-3.2c0 0 0-13.8 0-13.8c0-2.2-.9-3.1-1.5-3.2c.02.04 0-.4 0-.4l6.3-1.2c0 0-.58 2.99-.6 3c1.5-2.7 2.9-2.7 4.2-2.7c3.8 0 6.5 3.4 6.5 7.7zm-5 .9c0-3.3-.8-7.4-3-7.4c-.6 0-1.3.3-2.1 1.7c0 0 0 9.9 0 9.9c.8 1.3 1.3 2.1 2.8 2.1c1.8 0 2.3-2.5 2.3-6.3zm7.7.3c0 0 0-4.9 0-4.9c0-1.8-1.1-2.5-1.4-2.6c-.04 0 0-.5 0-.5l6.2-1.1c0 0 .03 9.13 0 9.1c0 2.7.8 4.2 2.4 4.2c1.4 0 2-1.9 1.8-3.2c0 0 0-5.9 0-5.9c0-1.9-1.1-2.5-1.4-2.6c-.04 0 0-.5 0-.5l6.3-1.1c0 0-.04 12.37 0 12.4c0 2.1 1.1 2.5 1.4 2.7c0-.03 0 .4 0 .4l-6.2 0c0 0 .26-3.46.3-3.5c-.9 2.9-3 3.9-4.9 3.9c-3.5 0-4.5-2.9-4.5-6.8zm32.5-1.2c0 4.1-2.6 8-6.8 8c-2.2 0-3.4-1.5-5.1-1.5c-1.7 0-2.2 1.1-2.5 1.5c-.01.04-.5 0-.5 0c0 0 .04-18.56 0-18.6c0-2.1-1-2.9-1.5-3c.01-.02 0-.5 0-.5l6.3-1.1c0 0 .01 9.14 0 9.1c.9-1.3 2.3-1.6 3.6-1.6c4.1 0 6.5 3.6 6.5 7.7zm-4.9.4c0-2.1-.6-6.9-3.2-6.9c-.5 0-1.3.4-2 1.7c0 0 0 7.1 0 7.1c0 3.2.8 4.9 2.9 4.9c2.6 0 2.3-4.7 2.3-6.8zm6.3 6.8c.4-.2 1.5-1.1 1.5-3c0 0 0-14.7 0-14.7c0-2.1-1.1-3-1.5-3.2c-.03.05 0-.4 0-.4l6.3-1.1c0 0-.03 19.37 0 19.4c0 2.1 1 2.8 1.4 3c.04-.03 0 .4 0 .4l-7.7 0c0 0-.03-.43 0-.4zm10.3-19.2c0-1.5 1.3-2.8 2.7-2.8c1.5 0 2.8 1.3 2.8 2.8c0 1.4-1.3 2.7-2.8 2.7c-1.4 0-2.7-1.3-2.7-2.7zm-1.1 19.2c.5-.2 1.5-.9 1.5-3c0 0 0-7.7 0-7.7c0-1.9-1-2.6-1.5-2.8c.04-.03 0-.5 0-.5l6.3-1.1c0 0 .04 12.07 0 12.1c0 2.1 1.1 2.8 1.4 3c.05-.03 0 .4 0 .4l-7.7 0c0 0 .04-.43 0-.4zm25.1 6.6c.05 0 0 .4 0 .4l-8 0c0 0 .04-.37 0-.4c.8-.2 1.9-1.2 1.9-3c0 0 0-4.2 0-4.2c-1.4 1.5-2.9 1.4-3.5 1.4c-4.1 0-6.6-3.7-6.6-7.9c0-4.1 2.7-7.8 6.8-7.8c2.4 0 3.3 1.5 5.1 1.5c1.3 0 2-.7 2.5-1.5c.05-.04.4 0 .4 0c0 0 .04 18.47 0 18.5c0 2.1 1 2.8 1.4 3zm-6.1-8.4c0 0 0-7.4 0-7.4c0-3.9-1.3-5-2.8-5c-2.1 0-2.2 2.2-2.2 5.2c0 3.8.8 8.5 2.9 8.5c1.4 0 1.9-.9 2.1-1.3zm8.7-4.2c0 0 0-4.9 0-4.9c0-1.8-1.1-2.5-1.4-2.6c-.04 0 0-.5 0-.5l6.2-1.1c0 0 .03 9.13 0 9.1c0 2.7.8 4.2 2.4 4.2c1.4 0 2-1.9 1.8-3.2c0 0 0-5.9 0-5.9c0-1.9-1.1-2.5-1.4-2.6c-.04 0 0-.5 0-.5l6.3-1.1c0 0-.04 12.37 0 12.4c0 2.1 1.1 2.5 1.4 2.7c0-.03 0 .4 0 .4l-6.2 0c0 0 .26-3.46.3-3.5c-.9 2.9-3 3.9-4.9 3.9c-3.5 0-4.5-2.9-4.5-6.8zm30.6 1.1c0 0 0 .8 0 .8c-.7 2.8-3 4.9-6.5 4.9c-4 0-7.5-3.6-7.5-7.9c0-4.4 3.5-7.8 7.5-7.8c3.3 0 6 2 6.8 5.2c0 0-9.5 2-9.5 2c.5 2.5 2 5.2 5.3 5.2c.8 0 2.8-.4 3.9-2.4zm-9.5-5.2c0 .5.1 1.1.2 1.6c0 0 2.4-.4 2.4-.4c.9-.2 1.2-.9 1.2-1.6c0-1.5-1.4-3.6-2.7-3.6c-1.3 0-1.1 3.4-1.1 4z" stroke="none" fill="#144542"/></g><g id="Polygon180188"><path d="m17.1 55.8c0 .04 0 .5 0 .5l-6 0c0 0 .33-1.81.3-1.8c-1.3 1.8-2.5 2.2-4.1 2.2c-4 0-6.7-3.6-6.7-7.8c0-4.3 2.9-7.9 6.9-7.9c1.2 0 2.3.4 3.3 1.1c0 0 0-3.9 0-3.9c0-2.1-1.1-3-1.5-3.2c-.03.05 0-.4 0-.4l6.2-1.1c0 0 .04 19.37 0 19.4c0 1.9 1.1 2.8 1.6 2.9zm-6.3-1.8c0 0 0-9.7 0-9.7c-.7-1.6-1.9-2.6-3-2.6c-2.4 0-2.3 3-2.3 5.6c0 4.3.9 8.2 3.2 8.2c.7 0 1.4-.5 2.1-1.5zm12.7-14.7l-.7 0l1.9-4.6l5.5 0l-6.7 4.6zm9 11.7c0 0 0 .8 0 .8c-.7 2.8-3 4.9-6.5 4.9c-4 0-7.6-3.6-7.6-7.9c0-4.4 3.6-7.8 7.6-7.8c3.2 0 6 2 6.8 5.2c0 0-9.5 2-9.5 2c.5 2.5 2 5.2 5.3 5.2c.8 0 2.8-.4 3.9-2.4zm-9.5-5.2c0 .5.1 1.1.2 1.6c0 0 2.4-.4 2.4-.4c.9-.2 1.2-.9 1.2-1.6c0-1.5-1.4-3.6-2.7-3.6c-1.3 0-1.1 3.4-1.1 4zm36.6 10.1c.01-.03 0 .4 0 .4l-7.7 0c0 0 0-.43 0-.4c.4-.2 1.5-1.2 1.5-3.1c0 0 0-6.1 0-6.1c0-3.5-.4-4.4-1.8-4.4c-1.1 0-2 .9-2.5 2.1c0 0 0 8.4 0 8.4c0 1.9 1.1 2.9 1.5 3.1c.01-.03 0 .4 0 .4l-7.7 0c0 0-.03-.43 0-.4c.4-.2 1.4-1.2 1.4-3.1c0 0 0-6.1 0-6.1c0-3.5-.4-4.4-1.8-4.4c-1 0-1.8.8-2.3 1.9c0 0 0 8.6 0 8.6c0 2.2 1.1 2.9 1.3 3.1c-.01-.03 0 .4 0 .4l-7.6 0c0 0-.03-.37 0-.4c.3-.2 1.5-1.2 1.5-3.1c0 0 0-7.2 0-7.2c0-2.2-1.1-2.9-1.5-3.2c-.03 0 0-.5 0-.5l6.3-1.1c0 0-.54 3.19-.5 3.2c.8-1.8 2.2-3 4.2-3c2.5 0 4.1 1.2 4.8 2.9c.8-1.7 2.2-2.9 4.2-2.9c3.5 0 5.2 2.3 5.2 5.1c0 0 0 6.7 0 6.7c0 1.9 1.1 2.9 1.5 3.1zm1.1-7.1c0-4.3 3.7-7.8 8.2-7.8c4.5 0 8.1 3.5 8.1 7.8c0 4.4-3.6 7.9-8.1 7.9c-4.5 0-8.2-3.5-8.2-7.9zm11.3 3c0-3.6-2-10-4.7-10c-1 0-1.5 1.6-1.5 3.9c0 3.7 1.9 10.2 4.5 10.2c1.1 0 1.7-1.7 1.7-4.1zm23.2 4.1c.02-.03 0 .4 0 .4l-7.7 0c0 0-.02-.43 0-.4c.4-.2 1.4-1.2 1.4-3.1c0 0 0-6.1 0-6.1c0-3.5-.3-4.4-1.8-4.4c-1 0-1.8.8-2.3 1.9c0 0 0 8.6 0 8.6c0 2.2 1.1 2.9 1.3 3.1c0-.03 0 .4 0 .4l-7.6 0c0 0-.02-.37 0-.4c.3-.2 1.5-1.2 1.5-3.1c0 0 0-7.2 0-7.2c0-2.2-1.1-2.9-1.5-3.2c-.02 0 0-.5 0-.5l6.3-1.1c0 0-.53 3.19-.5 3.2c.8-1.8 2.2-3 4.2-3c3.5 0 5.2 2.3 5.2 5.1c0 0 0 6.7 0 6.7c0 1.9 1.2 2.9 1.5 3.1zm7.6-13.6c0 0 .01 9.49 0 9.5c0 4.3 2.8 2.9 2.9 3c0 0 0 .4 0 .4c-.3.3-1.7 1.5-4.3 1.5c-1.8 0-3.4-1.3-3.4-4.4c.04-.03 0-10 0-10l-1.9 0c0 0-.04-.95 0-1c2.1-.8 5.1-3.6 6.2-6c0-.04.5 0 .5 0c0 0 .01 6.05 0 6c1.1 0 2.4-.2 3.5-.5c-.04-.02-.2 1.5-.2 1.5l-3.3 0zm16.9 1.1c0 1.4-1.1 2.4-2.3 2.4c-2.2 0-1.7-2.2-2.7-2.2c-.4 0-.9.6-1.2 1.2c0 0 0 8 0 8c0 2.2 1.2 2.9 1.4 3.1c-.03-.03 0 .4 0 .4l-7.7 0c0 0 .05-.37 0-.4c.4-.2 1.6-1.2 1.6-3.1c0 0 0-7.2 0-7.2c0-2.2-1.1-2.9-1.6-3.2c.05 0 0-.5 0-.5l6.4-1.1c0 0-.65 3.67-.7 3.7c.8-2.1 2-3.5 4.2-3.5c1.5 0 2.6.9 2.6 2.4zm14.3 7.6c0 0 0 .8 0 .8c-.7 2.8-3 4.9-6.5 4.9c-4 0-7.5-3.6-7.5-7.9c0-4.4 3.5-7.8 7.6-7.8c3.2 0 5.9 2 6.7 5.2c0 0-9.5 2-9.5 2c.5 2.5 2 5.2 5.3 5.2c.8 0 2.8-.4 3.9-2.4zm-9.4-5.2c0 .5 0 1.1.1 1.6c0 0 2.4-.4 2.4-.4c.9-.2 1.2-.9 1.2-1.6c0-1.5-1.3-3.6-2.7-3.6c-1.3 0-1 3.4-1 4zm23.2-2.4c0 1.4-1.1 2.4-2.3 2.4c-2.2 0-1.7-2.2-2.7-2.2c-.4 0-.8.6-1.1 1.2c0 0 0 8 0 8c0 2.2 1.1 2.9 1.3 3.1c.01-.03 0 .4 0 .4l-7.6 0c0 0-.01-.37 0-.4c.3-.2 1.5-1.2 1.5-3.1c0 0 0-7.2 0-7.2c0-2.2-1.1-2.9-1.5-3.2c-.01 0 0-.5 0-.5l6.3-1.1c0 0-.61 3.67-.6 3.7c.7-2.1 1.9-3.5 4.2-3.5c1.4 0 2.5.9 2.5 2.4zm10.2 12.5c.4-.2 1.5-1.1 1.5-3c0 0 0-14.7 0-14.7c0-2.1-1.1-3-1.5-3.2c-.02.05 0-.4 0-.4l6.3-1.1c0 0-.02 19.37 0 19.4c0 2.1 1 2.8 1.4 3c.05-.03 0 .4 0 .4l-7.7 0c0 0-.02-.43 0-.4zm9.7-12.2c2.2-1.2 3.6-3.6 3.7-5c0 0-.1 0-.1 0c-.3.7-.8 1.1-1.6 1.1c-1 0-2.3-1-2.3-2.8c0-1.5 1.1-2.6 2.7-2.6c2 0 2.8 1.5 2.8 3.2c0 1.3-.7 4.3-5.2 6.6c0 0 0-.5 0-.5zm20.7 7.3c0 0 0 .8 0 .8c-.7 2.8-3 4.9-6.5 4.9c-4 0-7.5-3.6-7.5-7.9c0-4.4 3.5-7.8 7.6-7.8c3.2 0 5.9 2 6.7 5.2c0 0-9.5 2-9.5 2c.5 2.5 2 5.2 5.3 5.2c.9 0 2.8-.4 3.9-2.4zm-9.4-5.2c0 .5 0 1.1.1 1.6c0 0 2.5-.4 2.5-.4c.8-.2 1.2-.9 1.2-1.6c0-1.5-1.4-3.6-2.7-3.6c-1.4 0-1.1 3.4-1.1 4zm17.2-8.7c0-.6.1-1.1.1-1.6c0-.6-.3-1-1-1c-.5 0-1.1.3-1.1 1.2c0 1.4 1.6 3.8 1.9 5.6c.01.05 2.9 0 2.9 0l0 .8l-2.9 0c0 0 .04 11.07 0 11.1c0 1.9.8 2.5 1.3 2.7c.03-.03 0 .4 0 .4l-7.6 0c0 0 .01-.43 0-.4c.6-.2 1.5-1 1.5-2.7c.04-.03 0-11.2 0-11.2l-1.5 0c0 0 .01-.65 0-.7c1.3 0 1.8-2.1 2.1-3.5c.6-3.3 2.6-4.3 4.6-4.3c2.2 0 4.4 1.7 4.4 3.8c0 1.3-1.1 2.2-2.4 2.2c-1.4 0-2.3-1.1-2.3-2.4zm10.4 0c0-.6.1-1.1.1-1.6c0-.6-.3-1-1-1c-.5 0-1 .3-1 1.2c0 1.4 1.5 3.8 1.8 5.6c.02.05 2.9 0 2.9 0l0 .8l-2.9 0c0 0 .05 11.07 0 11.1c0 1.9.8 2.5 1.3 2.7c.04-.03 0 .4 0 .4l-7.6 0c0 0 .02-.43 0-.4c.6-.2 1.5-1 1.5-2.7c.05-.03 0-11.2 0-11.2l-1.5 0c0 0 .02-.65 0-.7c1.3 0 1.8-2.1 2.1-3.5c.6-3.3 2.7-4.3 4.6-4.3c2.3 0 4.4 1.7 4.4 3.8c0 1.3-1.1 2.2-2.4 2.2c-1.4 0-2.3-1.1-2.3-2.4zm4.9-.4c0-1.5 1.2-2.8 2.7-2.8c1.5 0 2.7 1.3 2.7 2.8c0 1.4-1.2 2.7-2.7 2.7c-1.5 0-2.7-1.3-2.7-2.7zm-1.1 19.2c.4-.2 1.5-.9 1.5-3c0 0 0-7.7 0-7.7c0-1.9-1-2.6-1.5-2.8c-.01-.03 0-.5 0-.5l6.3-1.1c0 0-.01 12.07 0 12.1c0 2.1 1 2.8 1.4 3c0-.03 0 .4 0 .4l-7.7 0c0 0-.01-.43 0-.4zm8.8-7c0-4.2 3.4-7.9 8.3-7.9c2.9 0 5.8 2 5.8 4.4c0 1.6-1.3 2.8-2.4 2.8c-1.1 0-2.3-.9-2.3-2.2c0-1.1.7-1.4.7-2.4c0-.9-1.2-1.9-2.5-1.9c-2.5 0-3.4 1.7-3.4 4.5c0 4.1 2.3 7.3 5.7 7.3c1.4 0 3.2-.7 4.2-2.3c0 0 0 .9 0 .9c-1.2 3.6-4.1 4.6-6.5 4.6c-4 0-7.6-3.5-7.6-7.8zm16.4-12.2c0-1.5 1.3-2.8 2.8-2.8c1.4 0 2.7 1.3 2.7 2.8c0 1.4-1.3 2.7-2.7 2.7c-1.5 0-2.8-1.3-2.8-2.7zm-1 19.2c.4-.2 1.5-.9 1.5-3c0 0 0-7.7 0-7.7c0-1.9-1.1-2.6-1.5-2.8c-.03-.03 0-.5 0-.5l6.3-1.1c0 0-.03 12.07 0 12.1c0 2.1 1 2.8 1.4 3c-.02-.03 0 .4 0 .4l-7.7 0c0 0-.03-.43 0-.4zm22.8-4.9c0 0 0 .8 0 .8c-.7 2.8-3 4.9-6.5 4.9c-4 0-7.5-3.6-7.5-7.9c0-4.4 3.5-7.8 7.6-7.8c3.2 0 5.9 2 6.7 5.2c0 0-9.5 2-9.5 2c.5 2.5 2 5.2 5.3 5.2c.9 0 2.8-.4 3.9-2.4zm-9.4-5.2c0 .5 0 1.1.1 1.6c0 0 2.5-.4 2.5-.4c.8-.2 1.2-.9 1.2-1.6c0-1.5-1.4-3.6-2.7-3.6c-1.4 0-1.1 3.4-1.1 4zm27.5 10.1c.05-.03 0 .4 0 .4l-7.7 0c0 0 .01-.43 0-.4c.5-.2 1.5-1.2 1.5-3.1c0 0 0-6.1 0-6.1c0-3.5-.4-4.4-1.8-4.4c-1 0-1.9.8-2.4 1.9c0 0 0 8.6 0 8.6c0 2.2 1.1 2.9 1.3 3.1c.03-.03 0 .4 0 .4l-7.6 0c0 0 .01-.37 0-.4c.4-.2 1.5-1.2 1.5-3.1c0 0 0-7.2 0-7.2c0-2.2-1-2.9-1.5-3.2c.01 0 0-.5 0-.5l6.3-1.1c0 0-.5 3.19-.5 3.2c.8-1.8 2.2-3 4.3-3c3.4 0 5.1 2.3 5.1 5.1c0 0 0 6.7 0 6.7c0 1.9 1.2 2.9 1.5 3.1zm1.2-7c0-4.2 3.3-7.9 8.2-7.9c2.9 0 5.8 2 5.8 4.4c0 1.6-1.3 2.8-2.4 2.8c-1.1 0-2.3-.9-2.3-2.2c0-1.1.8-1.4.8-2.4c0-.9-1.2-1.9-2.5-1.9c-2.5 0-3.5 1.7-3.5 4.5c0 4.1 2.4 7.3 5.8 7.3c1.3 0 3.2-.7 4.2-2.3c0 0 0 .9 0 .9c-1.3 3.6-4.1 4.6-6.5 4.6c-4.1 0-7.6-3.5-7.6-7.8zm29.2 2.1c0 0 0 .8 0 .8c-.7 2.8-3 4.9-6.5 4.9c-4 0-7.5-3.6-7.5-7.9c0-4.4 3.5-7.8 7.6-7.8c3.2 0 5.9 2 6.7 5.2c0 0-9.5 2-9.5 2c.5 2.5 2 5.2 5.3 5.2c.8 0 2.8-.4 3.9-2.4zm-9.4-5.2c0 .5 0 1.1.1 1.6c0 0 2.4-.4 2.4-.4c.9-.2 1.2-.9 1.2-1.6c0-1.5-1.3-3.6-2.7-3.6c-1.3 0-1 3.4-1 4zm36.3 10c-.02.04 0 .5 0 .5l-6 0c0 0 .31-1.81.3-1.8c-1.3 1.8-2.5 2.2-4.1 2.2c-4 0-6.7-3.6-6.7-7.8c0-4.3 2.9-7.9 6.9-7.9c1.2 0 2.3.4 3.3 1.1c0 0 0-3.9 0-3.9c0-2.1-1.2-3-1.5-3.2c-.05.05 0-.4 0-.4l6.2-1.1c0 0 .02 19.37 0 19.4c0 1.9 1.1 2.8 1.6 2.9zm-6.3-1.8c0 0 0-9.7 0-9.7c-.8-1.6-1.9-2.6-3-2.6c-2.4 0-2.3 3-2.3 5.6c0 4.3.8 8.2 3.2 8.2c.7 0 1.4-.5 2.1-1.5zm21.6-3c0 0 0 .8 0 .8c-.6 2.8-3 4.9-6.4 4.9c-4.1 0-7.6-3.6-7.6-7.9c0-4.4 3.6-7.8 7.6-7.8c3.2 0 6 2 6.7 5.2c0 0-9.4 2-9.4 2c.5 2.5 1.9 5.2 5.3 5.2c.8 0 2.8-.4 3.8-2.4zm-9.4-5.2c0 .5.1 1.1.1 1.6c0 0 2.5-.4 2.5-.4c.9-.2 1.2-.9 1.2-1.6c0-1.5-1.4-3.6-2.7-3.6c-1.3 0-1.1 3.4-1.1 4zm20 10.1c.4-.2 1.5-1.1 1.5-3c0 0 0-14.7 0-14.7c0-2.1-1.1-3-1.5-3.2c-.03.05 0-.4 0-.4l6.3-1.1c0 0-.03 19.37 0 19.4c0 2.1 1 2.8 1.4 3c.04-.03 0 .4 0 .4l-7.7 0c0 0-.03-.43 0-.4zm9-3.2c0-4.1 6.8-4.7 8.7-5.3c0 0 0-2.7 0-2.7c0-2.1-1.1-3-2.4-3c-1.3 0-1.3 1.1-1.3 1.3c0 1 .5 1.2.5 2.5c0 1.2-1 1.9-2.5 1.9c-1.4 0-2.2-1-2.2-2.3c0-2 2.7-4.1 5.9-4.1c5.1 0 6.7 2.1 6.7 6.8c0 0 0 4.3 0 4.3c0 1.8.3 2.8 2 2.2c0 0 0 .5 0 .5c-.6 1.1-2.3 1.9-3.3 1.9c-1.7 0-3.3-.8-3.3-2.1c-1.2 1.6-3.1 2.1-4.4 2.1c-2.9 0-4.4-1.3-4.4-4zm8.7-.1c0 0 0-4.6 0-4.6c-1.3.9-3.9 1.6-3.9 3.8c0 1.7.8 2.6 2.1 2.6c.7 0 1.8-.6 1.8-1.8z" stroke="none" fill="#144542"/></g><g id="Polygon180187"><path d="m20.4.7c0 0-.03.56 0 .6c-.6.2-2.4.9-2.4 3.3c0 0-.1 12.2-.1 12.2c0 1.9.3 3 1 4.3c-1.3.6-3 1.7-4.2 2.9c.03-.03-10.6-18.6-10.6-18.6c0 0 .1 12.96.1 13c0 2.7 2.1 3.2 2.7 3.4c0 .01 0 .5 0 .5l-6.4 0c0 0-.02-.49 0-.5c.5-.2 2.7-.7 2.7-3.4c0 0 .2-13.8.2-13.8c0-2.3-1.8-3.1-3-3.3c-.01-.04 0-.6 0-.6l6.8 0l10 17.1c0 0-.19-13.15-.2-13.2c-.1-2.4-2-3.1-2.5-3.3c-.04-.04 0-.6 0-.6l5.9 0zm.8 14.1c0-4.3 3.6-7.8 8.1-7.8c4.5 0 8.2 3.5 8.2 7.8c0 4.4-3.7 7.9-8.2 7.9c-4.5 0-8.1-3.5-8.1-7.9zm11.2 3c0-3.6-2-10-4.6-10c-1 0-1.5 1.6-1.5 3.9c0 3.7 1.8 10.2 4.5 10.2c1.1 0 1.6-1.7 1.6-4.1zm12.7-9.5c0 0-.01 9.49 0 9.5c0 4.3 2.8 2.9 2.9 3c0 0 0 .4 0 .4c-.3.3-1.7 1.5-4.3 1.5c-1.8 0-3.4-1.3-3.4-4.4c.02-.03 0-10 0-10l-2 0c0 0 .04-.95 0-1c2.1-.8 5.2-3.6 6.3-6c-.02-.04.5 0 .5 0c0 0-.01 6.05 0 6c1.1 0 2.4-.2 3.4-.5c.04-.02-.1 1.5-.1 1.5l-3.3 0zm16.9 1.1c0 1.4-1.1 2.4-2.3 2.4c-2.3 0-1.7-2.2-2.8-2.2c-.4 0-.8.6-1.1 1.2c0 0 0 8 0 8c0 2.2 1.2 2.9 1.3 3.1c.05-.03 0 .4 0 .4l-7.6 0c0 0 .03-.37 0-.4c.4-.2 1.6-1.2 1.6-3.1c0 0 0-7.2 0-7.2c0-2.2-1.1-2.9-1.6-3.2c.03 0 0-.5 0-.5l6.4-1.1c0 0-.67 3.67-.7 3.7c.7-2.1 2-3.5 4.2-3.5c1.4 0 2.6.9 2.6 2.4zm14.3 7.6c0 0 0 .8 0 .8c-.7 2.8-3 4.9-6.5 4.9c-4 0-7.6-3.6-7.6-7.9c0-4.4 3.6-7.8 7.6-7.8c3.2 0 6 2 6.8 5.2c0 0-9.5 2-9.5 2c.5 2.5 2 5.2 5.3 5.2c.8 0 2.8-.4 3.9-2.4zm-9.5-5.2c0 .5.1 1.1.2 1.6c0 0 2.4-.4 2.4-.4c.9-.2 1.2-.9 1.2-1.6c0-1.5-1.4-3.6-2.7-3.6c-1.3 0-1.1 3.4-1.1 4zm36.1 2.9c0 4.4-2.9 8-6.7 8c-1.5 0-2.5-.3-3.4-1c0 0 0 3.6 0 3.6c0 2.3 1.1 3 1.4 3.2c-.03 0 0 .4 0 .4l-7.7 0c0 0-.04-.37 0-.4c.3-.1 1.6-1.2 1.6-3.2c0 0 0-13.8 0-13.8c0-2.2-1-3.1-1.6-3.2c.05.04 0-.4 0-.4l6.3-1.2c0 0-.55 2.99-.6 3c1.5-2.7 3-2.7 4.2-2.7c3.8 0 6.5 3.4 6.5 7.7zm-4.9.9c0-3.3-.9-7.4-3.1-7.4c-.6 0-1.3.3-2.1 1.7c0 0 0 9.9 0 9.9c.8 1.3 1.4 2.1 2.8 2.1c1.8 0 2.4-2.5 2.4-6.3zm18.8-6.2c0 1.4-1.1 2.4-2.3 2.4c-2.2 0-1.7-2.2-2.8-2.2c-.3 0-.8.6-1.1 1.2c0 0 0 8 0 8c0 2.2 1.2 2.9 1.4 3.1c-.04-.03 0 .4 0 .4l-7.7 0c0 0 .04-.37 0-.4c.4-.2 1.6-1.2 1.6-3.1c0 0 0-7.2 0-7.2c0-2.2-1.1-2.9-1.6-3.2c.04 0 0-.5 0-.5l6.4-1.1c0 0-.66 3.67-.7 3.7c.8-2.1 2-3.5 4.2-3.5c1.4 0 2.6.9 2.6 2.4zm2.1-6.7c0-1.5 1.2-2.8 2.7-2.8c1.5 0 2.7 1.3 2.7 2.8c0 1.4-1.2 2.7-2.7 2.7c-1.5 0-2.7-1.3-2.7-2.7zm-1.1 19.2c.5-.2 1.5-.9 1.5-3c0 0 0-7.7 0-7.7c0-1.9-1-2.6-1.5-2.8c.01-.03 0-.5 0-.5l6.3-1.1c0 0 .01 12.07 0 12.1c0 2.1 1 2.8 1.4 3c.02-.03 0 .4 0 .4l-7.7 0c0 0 .01-.43 0-.4zm8.8-7.1c0-4.3 3.7-7.8 8.2-7.8c4.5 0 8.1 3.5 8.1 7.8c0 4.4-3.6 7.9-8.1 7.9c-4.5 0-8.2-3.5-8.2-7.9zm11.2 3c0-3.6-1.9-10-4.6-10c-1 0-1.5 1.6-1.5 3.9c0 3.7 1.9 10.2 4.5 10.2c1.1 0 1.6-1.7 1.6-4.1zm19-8.4c0 1.4-1.1 2.4-2.3 2.4c-2.2 0-1.7-2.2-2.7-2.2c-.4 0-.8.6-1.1 1.2c0 0 0 8 0 8c0 2.2 1.1 2.9 1.3 3.1c-.02-.03 0 .4 0 .4l-7.6 0c0 0-.04-.37 0-.4c.3-.2 1.5-1.2 1.5-3.1c0 0 0-7.2 0-7.2c0-2.2-1.1-2.9-1.5-3.2c-.04 0 0-.5 0-.5l6.3-1.1c0 0-.64 3.67-.6 3.7c.7-2.1 1.9-3.5 4.1-3.5c1.5 0 2.6.9 2.6 2.4zm2.1-6.7c0-1.5 1.3-2.8 2.7-2.8c1.5 0 2.8 1.3 2.8 2.8c0 1.4-1.3 2.7-2.8 2.7c-1.4 0-2.7-1.3-2.7-2.7zm-1.1 19.2c.5-.2 1.5-.9 1.5-3c0 0 0-7.7 0-7.7c0-1.9-1-2.6-1.5-2.8c.03-.03 0-.5 0-.5l6.3-1.1c0 0 .03 12.07 0 12.1c0 2.1 1 2.8 1.4 3c.04-.03 0 .4 0 .4l-7.7 0c0 0 .03-.43 0-.4zm15.1-13.6c0 0 .05 9.49 0 9.5c0 4.3 2.8 2.9 3 3c0 0 0 .4 0 .4c-.3.3-1.8 1.5-4.3 1.5c-1.9 0-3.4-1.3-3.4-4.4c-.02-.03 0-10 0-10l-2 0c0 0 0-.95 0-1c2.1-.8 5.2-3.6 6.2-6c.04-.04.5 0 .5 0c0 0 .05 6.05 0 6c1.2 0 2.5-.2 3.5-.5c0-.02-.2 1.5-.2 1.5l-3.3 0zm8.5-3l-.7 0l1.9-4.6l5.6 0l-6.8 4.6zm9 11.7c0 0 0 .8 0 .8c-.7 2.8-3 4.9-6.4 4.9c-4.1 0-7.6-3.6-7.6-7.9c0-4.4 3.5-7.8 7.6-7.8c3.2 0 6 2 6.7 5.2c0 0-9.5 2-9.5 2c.5 2.5 2 5.2 5.3 5.2c.9 0 2.9-.4 3.9-2.4zm-9.4-5.2c0 .5 0 1.1.1 1.6c0 0 2.5-.4 2.5-.4c.8-.2 1.2-.9 1.2-1.6c0-1.5-1.4-3.6-2.7-3.6c-1.4 0-1.1 3.4-1.1 4zm20.2-2.1c0-1.5 1.3-2.7 2.8-2.7c1.5 0 2.7 1.2 2.7 2.7c0 1.5-1.2 2.7-2.7 2.7c-1.5 0-2.8-1.2-2.8-2.7zm0 10.3c0-1.5 1.3-2.7 2.8-2.7c1.5 0 2.7 1.2 2.7 2.7c0 1.5-1.2 2.7-2.7 2.7c-1.5 0-2.8-1.2-2.8-2.7zm16.2-1.3c0-4.1 6.8-4.7 8.7-5.3c0 0 0-2.7 0-2.7c0-2.1-1-3-2.3-3c-1.4 0-1.4 1.1-1.4 1.3c0 1 .5 1.2.5 2.5c0 1.2-1 1.9-2.5 1.9c-1.4 0-2.2-1-2.2-2.3c0-2 2.7-4.1 5.9-4.1c5.1 0 6.7 2.1 6.7 6.8c0 0 0 4.3 0 4.3c0 1.8.3 2.8 2 2.2c0 0 0 .5 0 .5c-.6 1.1-2.3 1.9-3.3 1.9c-1.7 0-3.2-.8-3.3-2.1c-1.2 1.6-3.1 2.1-4.4 2.1c-2.9 0-4.4-1.3-4.4-4zm8.7-.1c0 0 0-4.6 0-4.6c-1.3.9-3.9 1.6-3.9 3.8c0 1.7.8 2.6 2.1 2.6c.7 0 1.8-.6 1.8-1.8zm8.8 4.2c.03 0-1.4-6.4-1.4-6.4c0 0 .68.04.7 0c1 2.6 3.2 5.7 6.1 5.7c1.5 0 2.3-.9 2.3-2.5c0-3.3-8.6-1.9-8.6-8.4c0-2.9 2.5-4.2 5.1-4.2c2.2 0 3.1 1.1 5.4 0c0-.04 1.1 5.7 1.1 5.7c0 0-.59-.01-.6 0c-1.3-2.7-3.8-5.1-6-5.1c-1.4 0-2.3.5-2.1 2c.4 2.5 9.5 1.7 9.5 8.6c0 2.6-2.6 4.5-6 4.5c-2.3 0-3-.7-5.5.1zm14.1 0c-.03 0-1.4-6.4-1.4-6.4c0 0 .62.04.6 0c1.1 2.6 3.3 5.7 6.2 5.7c1.5 0 2.2-.9 2.2-2.5c0-3.3-8.6-1.9-8.6-8.4c0-2.9 2.5-4.2 5.1-4.2c2.3 0 3.1 1.1 5.4 0c.04-.04 1.2 5.7 1.2 5.7c0 0-.65-.01-.7 0c-1.2-2.7-3.8-5.1-6-5.1c-1.3 0-2.3.5-2.1 2c.5 2.5 9.5 1.7 9.5 8.6c0 2.6-2.5 4.5-6 4.5c-2.3 0-2.9-.7-5.4.1zm14.2-6.9c0 0 0-4.9 0-4.9c0-1.8-1.2-2.5-1.5-2.6c-.01 0 0-.5 0-.5l6.3-1.1c0 0-.04 9.13 0 9.1c0 2.7.7 4.2 2.3 4.2c1.4 0 2.1-1.9 1.9-3.2c0 0 0-5.9 0-5.9c0-1.9-1.1-2.5-1.5-2.6c-.01 0 0-.5 0-.5l6.3-1.1c0 0-.01 12.37 0 12.4c0 2.1 1.2 2.5 1.4 2.7c.03-.03 0 .4 0 .4l-6.2 0c0 0 .29-3.46.3-3.5c-.9 2.9-3 3.9-4.9 3.9c-3.5 0-4.4-2.9-4.4-6.8zm29.1-6.5c0 1.4-1.1 2.4-2.3 2.4c-2.2 0-1.7-2.2-2.8-2.2c-.3 0-.8.6-1.1 1.2c0 0 0 8 0 8c0 2.2 1.2 2.9 1.4 3.1c-.04-.03 0 .4 0 .4l-7.7 0c0 0 .04-.37 0-.4c.4-.2 1.6-1.2 1.6-3.1c0 0 0-7.2 0-7.2c0-2.2-1.1-2.9-1.6-3.2c.04 0 0-.5 0-.5l6.4-1.1c0 0-.66 3.67-.7 3.7c.8-2.1 2-3.5 4.2-3.5c1.4 0 2.6.9 2.6 2.4zm14.3 7.6c0 0 0 .8 0 .8c-.7 2.8-3 4.9-6.5 4.9c-4 0-7.5-3.6-7.5-7.9c0-4.4 3.5-7.8 7.5-7.8c3.3 0 6 2 6.8 5.2c0 0-9.5 2-9.5 2c.5 2.5 2 5.2 5.3 5.2c.8 0 2.8-.4 3.9-2.4zm-9.5-5.2c0 .5.1 1.1.2 1.6c0 0 2.4-.4 2.4-.4c.9-.2 1.2-.9 1.2-1.6c0-1.5-1.4-3.6-2.7-3.6c-1.3 0-1.1 3.4-1.1 4zm23.3-2.4c0 1.4-1.1 2.4-2.3 2.4c-2.2 0-1.7-2.2-2.7-2.2c-.4 0-.8.6-1.1 1.2c0 0 0 8 0 8c0 2.2 1.1 2.9 1.3 3.1c0-.03 0 .4 0 .4l-7.6 0c0 0-.02-.37 0-.4c.3-.2 1.5-1.2 1.5-3.1c0 0 0-7.2 0-7.2c0-2.2-1.1-2.9-1.5-3.2c-.02 0 0-.5 0-.5l6.3-1.1c0 0-.62 3.67-.6 3.7c.7-2.1 1.9-3.5 4.1-3.5c1.5 0 2.6.9 2.6 2.4zm24.1 7.6c0 0 0 .8 0 .8c-.7 2.8-3 4.9-6.5 4.9c-4 0-7.5-3.6-7.5-7.9c0-4.4 3.5-7.8 7.6-7.8c3.2 0 5.9 2 6.7 5.2c0 0-9.5 2-9.5 2c.5 2.5 2 5.2 5.3 5.2c.9 0 2.8-.4 3.9-2.4zm-9.4-5.2c0 .5 0 1.1.1 1.6c0 0 2.4-.4 2.4-.4c.9-.2 1.2-.9 1.2-1.6c0-1.5-1.3-3.6-2.7-3.6c-1.3 0-1 3.4-1 4zm16.9-3.5c0 0 .05 9.49 0 9.5c0 4.3 2.8 2.9 3 3c0 0 0 .4 0 .4c-.3.3-1.8 1.5-4.3 1.5c-1.9 0-3.4-1.3-3.4-4.4c-.02-.03 0-10 0-10l-2 0c0 0 0-.95 0-1c2.1-.8 5.2-3.6 6.2-6c.04-.04.5 0 .5 0c0 0 .05 6.05 0 6c1.2 0 2.5-.2 3.5-.5c0-.02-.2 1.5-.2 1.5l-3.3 0z" stroke="none" fill="#144542"/></g></svg>