<?xml version="1.0" standalone="no"?><!DOCTYPE svg PUBLIC "-//W3C//DTD SVG 1.1//EN" "http://www.w3.org/Graphics/SVG/1.1/DTD/svg11.dtd"><svg xmlns="http://www.w3.org/2000/svg" version="1.1" width="440.3px" height="145.8px" viewBox="0 -8 440.3 145.8" style="top:-8px"><desc>Rapport de mission 2025</desc><defs/><g id="Polygon184025"><path d="m16.4 51.1c0 0-1.77 6.64-1.8 6.6c-.7-.3-1.4-.4-4.2-.4c-.04.01-10.5 0-10.5 0c0 0 7.99-7.33 8-7.3c1.1-1 2.3-2.8 2.3-4.5c0-1.8-1.1-3.4-3-3.4c-1.4 0-2.6.7-2.6 1.9c0 1.4 1.4 1.7 1.4 3.1c0 1.1-1 2-2.1 2c-1.7 0-2.8-1.1-2.8-2.8c0-2.2 2.1-4.9 6.7-4.9c4.3 0 6.7 1.4 6.7 4.4c0 2.5-1 4.7-8 7.2c0 0 5 0 5 0c2.6 0 3.9-1.1 4.2-1.9c.02-.01.7 0 .7 0zm1.1-1.5c0-4.5 3.2-8.2 8-8.2c5.1 0 7.9 3.7 7.9 8.2c0 4.4-2.8 8.1-7.9 8.1c-4.8 0-8-3.7-8-8.1zm10.5 0c0-3.8-.2-7.5-2.5-7.5c-2.4 0-2.6 3.7-2.6 7.5c0 3.7.2 7.4 2.6 7.4c2.3 0 2.5-3.7 2.5-7.4zm22.5 1.5c0 0-1.8 6.64-1.8 6.6c-.8-.3-1.5-.4-4.3-.4c.03.01-10.5 0-10.5 0c0 0 8.05-7.33 8.1-7.3c1.1-1 2.2-2.8 2.2-4.5c0-1.8-1-3.4-2.9-3.4c-1.4 0-2.6.7-2.6 1.9c0 1.4 1.3 1.7 1.3 3.1c0 1.1-.9 2-2 2c-1.7 0-2.8-1.1-2.8-2.8c0-2.2 2.1-4.9 6.6-4.9c4.3 0 6.8 1.4 6.8 4.4c0 2.5-1 4.7-8.1 7.2c0 0 5.1 0 5.1 0c2.6 0 3.8-1.1 4.2-1.9c-.02-.01.7 0 .7 0zm15.3 5.2c0 3.4-2.8 8.2-8.1 8.2c-5.1 0-6.5-2.6-6.5-4.9c0-1.8 1.3-3.2 2.5-3.2c1.3 0 2.7.7 2.5 2.5c-.1 1.1-1 1.5-1 2.6c0 1.5 1 2.2 2.4 2.2c2.2 0 3.8-1.8 4.1-4.9c.4-3.9-1.9-6-4.5-6c-2 0-3.2.9-4.2 1.8c-.03-.02-.6 0-.6 0l2.2-12.8c0 0 6.63.04 6.6 0c1.9 0 3.6-.5 4.3-1.9c-.03.02.5 0 .5 0l-1.8 6.5l-9.7 0c0 0-.97 5.74-1 5.7c1.6-2.1 3.7-2.9 6-2.9c4.2 0 6.3 3.6 6.3 7.1z" stroke="none" fill="#144542"/></g><g id="Polygon184024"><path d="m21.4 22.6c.01-.04 0 .5 0 .5c0 0-4.69-.05-4.7 0c-1.3 0-2.4-.7-2.9-1.6c-.03-.03-5.1-8.8-5.1-8.8l-.7 0c0 0-.05 6.82 0 6.8c0 2.1 1 2.9 1.4 3.1c.04-.04 0 .5 0 .5l-8.4 0c0 0-.04-.54 0-.5c.4-.2 1.5-1 1.5-3.1c0 0 0-14.9 0-14.9c0-2.6-1.1-3.1-1.5-3.3c-.04-.03 0-.5 0-.5c0 0 9.06-.03 9.1 0c4.8 0 9 2 9 6.2c0 3.8-3.3 5.7-7.6 5.7c-.02-.01-.8 0-.8 0l0 .4l4.1.2c0 0 4.1 7.06 4.1 7.1c1 1.8 2.1 2 2.5 2.2zm-13.4-10.7c.4.1 1.5.3 2.6.3c1.5 0 3-2.1 3-5.2c0-3.5-2.8-5.6-5.6-5.6c0 0 0 10.5 0 10.5zm13.4 7.4c0-4.3 6.9-4.9 9-5.5c0 0 0-2.8 0-2.8c0-2.1-1.2-3.1-2.5-3.1c-1.4 0-1.4 1.1-1.4 1.4c0 1.1.5 1.3.5 2.6c0 1.2-1 2-2.6 2c-1.4 0-2.2-1.1-2.2-2.5c0-2 2.7-4.2 6.1-4.2c5.2 0 6.9 2.2 6.9 7.1c0 0 0 4.4 0 4.4c0 1.8.3 2.8 2 2.3c0 0 0 .4 0 .4c-.6 1.2-2.3 2.1-3.4 2.1c-1.7 0-3.3-.9-3.4-2.2c-1.2 1.6-3.1 2.2-4.5 2.2c-3 0-4.5-1.5-4.5-4.2zm9-.1c0 0 0-4.7 0-4.7c-1.4.8-4.1 1.6-4.1 3.9c0 1.7.9 2.7 2.2 2.7c.7 0 1.9-.7 1.9-1.9zm24.4-4c0 4.5-3 8.3-6.9 8.3c-1.6 0-2.6-.4-3.5-1.2c0 0 0 3.8 0 3.8c0 2.3 1.1 3.1 1.4 3.3c-.04-.01 0 .5 0 .5l-8 0c0 0 .01-.48 0-.5c.4-.1 1.7-1.2 1.7-3.3c0 0 0-14.3 0-14.3c0-2.2-1-3.1-1.6-3.2c0 0 0-.5 0-.5l6.4-1.1c0 0-.52 2.99-.5 3c1.5-2.7 3-2.8 4.3-2.8c3.9 0 6.7 3.5 6.7 8zm-5.1.9c0-3.4-.9-7.6-3.2-7.6c-.6 0-1.3.3-2.1 1.7c0 0 0 10.2 0 10.2c.8 1.4 1.4 2.2 2.8 2.2c1.9 0 2.5-2.6 2.5-6.5zm23.1-.9c0 4.5-2.9 8.3-6.9 8.3c-1.5 0-2.5-.4-3.5-1.2c0 0 0 3.8 0 3.8c0 2.3 1.2 3.1 1.4 3.3c0-.01 0 .5 0 .5l-8 0c0 0 .05-.48 0-.5c.4-.1 1.7-1.2 1.7-3.3c0 0 0-14.3 0-14.3c0-2.2-1-3.1-1.6-3.2c.04 0 0-.5 0-.5l6.5-1.1c0 0-.58 2.99-.6 3c1.5-2.7 3-2.8 4.3-2.8c3.9 0 6.7 3.5 6.7 8zm-5.1.9c0-3.4-.8-7.6-3.1-7.6c-.6 0-1.4.3-2.2 1.7c0 0 0 10.2 0 10.2c.8 1.4 1.4 2.2 2.9 2.2c1.9 0 2.4-2.6 2.4-6.5zm6.7-.8c0-4.4 3.8-8.1 8.4-8.1c4.7 0 8.4 3.7 8.4 8.1c0 4.5-3.7 8.2-8.4 8.2c-4.6 0-8.4-3.7-8.4-8.2zm11.6 3c0-3.7-2-10.2-4.8-10.2c-1 0-1.5 1.6-1.5 4c0 3.8 1.9 10.5 4.6 10.5c1.2 0 1.7-1.7 1.7-4.3zm19.6-8.6c0 1.4-1.2 2.4-2.4 2.4c-2.3 0-1.8-2.2-2.8-2.2c-.4 0-.9.7-1.2 1.2c0 0 0 8.3 0 8.3c0 2.3 1.2 3 1.4 3.2c-.02-.04 0 .5 0 .5l-7.9 0c0 0 .03-.48 0-.5c.4-.2 1.6-1.2 1.6-3.2c0 0 0-7.5 0-7.5c0-2.2-1.1-2.9-1.6-3.2c.03-.04 0-.5 0-.5l6.6-1.2c0 0-.7 3.8-.7 3.8c.7-2.1 2-3.6 4.3-3.6c1.5 0 2.7 1 2.7 2.5zm7.4-1.2c0 0-.04 9.85 0 9.8c0 4.5 2.8 3 3 3.1c0 0 0 .5 0 .5c-.3.3-1.8 1.5-4.5 1.5c-1.9 0-3.5-1.3-3.5-4.6c.04.04 0-10.3 0-10.3l-2 0c0 0 0-.92 0-.9c2.2-.9 5.3-3.8 6.4-6.3c.03 0 .6 0 .6 0c0 0-.04 6.28 0 6.3c1.1-.1 2.5-.3 3.5-.6c.02-.01-.2 1.5-.2 1.5l-3.3 0zm30.8 14c.04.02 0 .6 0 .6l-6.1 0c0 0 .29-1.97.3-2c-1.4 1.9-2.6 2.4-4.3 2.4c-4.1 0-6.8-3.8-6.8-8.2c0-4.4 3-8.1 7-8.1c1.3 0 2.5.5 3.4 1.2c0 0 0-4.1 0-4.1c0-2.2-1.1-3.1-1.5-3.2c-.04-.02 0-.5 0-.5l6.4-1.1c0 0 .03 19.96 0 20c0 2 1.1 2.9 1.6 3zm-6.5-1.8c0 0 0-10.1 0-10.1c-.7-1.6-1.9-2.6-3.1-2.6c-2.4 0-2.3 3.1-2.3 5.8c0 4.4.9 8.4 3.2 8.4c.8 0 1.5-.6 2.2-1.5zm22.4-3.1c0 0 0 .8 0 .8c-.7 2.8-3.1 5.1-6.7 5.1c-4.1 0-7.8-3.8-7.8-8.3c0-4.4 3.7-8 7.9-8c3.3 0 6.1 2.1 6.9 5.4c0 0-9.8 2-9.8 2c.5 2.7 2.1 5.4 5.5 5.4c.9 0 2.9-.4 4-2.4zm-9.7-5.4c0 .5 0 1.1.1 1.7c0 0 2.5-.5 2.5-.5c.9-.2 1.3-.9 1.3-1.6c0-1.6-1.5-3.7-2.8-3.7c-1.4 0-1.1 3.4-1.1 4.1zm47.1 10.4c.05-.04 0 .5 0 .5l-7.9 0c0 0 0-.54 0-.5c.4-.2 1.5-1.3 1.5-3.2c0 0 0-6.3 0-6.3c0-3.6-.4-4.6-1.8-4.6c-1.2 0-2.1 1-2.6 2.2c0 0 0 8.7 0 8.7c0 1.9 1.2 3 1.6 3.2c-.03-.04 0 .5 0 .5l-8 0c0 0-.02-.54 0-.5c.4-.2 1.5-1.3 1.5-3.2c0 0 0-6.3 0-6.3c0-3.6-.4-4.6-1.9-4.6c-1 0-1.9.9-2.4 2c0 0 0 8.9 0 8.9c0 2.3 1.2 3 1.4 3.2c-.04-.04 0 .5 0 .5l-7.9 0c0 0 0-.48 0-.5c.4-.2 1.6-1.2 1.6-3.2c0 0 0-7.5 0-7.5c0-2.2-1.1-2.9-1.6-3.2c0-.04 0-.5 0-.5l6.5-1.2c0 0-.53 3.3-.5 3.3c.8-1.9 2.3-3.1 4.4-3.1c2.6 0 4.2 1.2 4.9 3c.9-1.8 2.3-3 4.4-3c3.5 0 5.3 2.4 5.3 5.3c0 0 0 6.9 0 6.9c0 1.9 1.2 3 1.5 3.2zm2.5-19.8c0-1.6 1.3-2.9 2.8-2.9c1.5 0 2.8 1.3 2.8 2.9c0 1.5-1.3 2.7-2.8 2.7c-1.5 0-2.8-1.2-2.8-2.7zm-1.1 19.8c.4-.2 1.5-.9 1.5-3.1c0 0 0-7.9 0-7.9c0-2-1-2.7-1.5-3c-.02.03 0-.5 0-.5l6.5-1.1c0 0-.03 12.46 0 12.5c0 2.2 1 2.9 1.4 3.1c.03-.04 0 .5 0 .5l-7.9 0c0 0-.02-.54 0-.5zm10.4.9c.03.01-1.4-6.5-1.4-6.5c0 0 .66-.05.7 0c1 2.6 3.3 5.8 6.3 5.8c1.6 0 2.4-.9 2.4-2.6c0-3.4-9-2-9-8.7c0-2.9 2.6-4.3 5.3-4.3c2.3 0 3.2 1.2 5.6 0c0-.02 1.2 5.9 1.2 5.9c0 0-.67-.01-.7 0c-1.3-2.8-3.9-5.3-6.2-5.3c-1.4 0-2.3.6-2.1 2.1c.4 2.6 9.7 1.8 9.7 8.9c0 2.7-2.6 4.7-6.1 4.7c-2.4 0-3.1-.8-5.7 0zm14.5 0c.01.01-1.4-6.5-1.4-6.5c0 0 .64-.05.6 0c1.1 2.6 3.4 5.8 6.4 5.8c1.5 0 2.3-.9 2.3-2.6c0-3.4-8.9-2-8.9-8.7c0-2.9 2.6-4.3 5.3-4.3c2.3 0 3.2 1.2 5.6 0c-.02-.02 1.2 5.9 1.2 5.9c0 0-.69-.01-.7 0c-1.3-2.8-3.9-5.3-6.2-5.3c-1.4 0-2.4.6-2.1 2.1c.4 2.6 9.7 1.8 9.7 8.9c0 2.7-2.6 4.7-6.2 4.7c-2.3 0-3-.8-5.6 0zm14.4-20.7c0-1.6 1.3-2.9 2.8-2.9c1.5 0 2.8 1.3 2.8 2.9c0 1.5-1.3 2.7-2.8 2.7c-1.5 0-2.8-1.2-2.8-2.7zm-1.1 19.8c.5-.2 1.5-.9 1.5-3.1c0 0 0-7.9 0-7.9c0-2-1-2.7-1.5-3c-.01.03 0-.5 0-.5l6.5-1.1c0 0-.02 12.46 0 12.5c0 2.2 1 2.9 1.4 3.1c.04-.04 0 .5 0 .5l-7.9 0c0 0-.01-.54 0-.5zm9.1-7.3c0-4.4 3.7-8.1 8.4-8.1c4.6 0 8.4 3.7 8.4 8.1c0 4.5-3.8 8.2-8.4 8.2c-4.7 0-8.4-3.7-8.4-8.2zm11.6 3c0-3.7-2.1-10.2-4.8-10.2c-1.1 0-1.6 1.6-1.6 4c0 3.8 1.9 10.5 4.7 10.5c1.1 0 1.7-1.7 1.7-4.3zm23.9 4.3c.03-.04 0 .5 0 .5l-7.9 0c0 0-.05-.54 0-.5c.4-.2 1.5-1.3 1.5-3.2c0 0 0-6.3 0-6.3c0-3.6-.4-4.6-1.9-4.6c-1 0-1.9.9-2.4 2c0 0 0 8.9 0 8.9c0 2.3 1.1 3 1.3 3.2c.03-.04 0 .5 0 .5l-7.8 0c0 0-.03-.48 0-.5c.3-.2 1.5-1.2 1.5-3.2c0 0 0-7.5 0-7.5c0-2.2-1.1-2.9-1.5-3.2c-.03-.04 0-.5 0-.5l6.5-1.2c0 0-.56 3.3-.6 3.3c.9-1.9 2.3-3.1 4.4-3.1c3.6 0 5.4 2.4 5.4 5.3c0 0 0 6.9 0 6.9c0 1.9 1.2 3 1.5 3.2z" stroke="none" fill="#144542"/></g></svg>