<?xml version="1.0" standalone="no"?><!DOCTYPE svg PUBLIC "-//W3C//DTD SVG 1.1//EN" "http://www.w3.org/Graphics/SVG/1.1/DTD/svg11.dtd"><svg xmlns="http://www.w3.org/2000/svg" version="1.1" width="101.2px" height="35.8px" viewBox="0 -3 101.2 35.8" style="top:-3px"><desc>Dipl mes vis s</desc><defs/><g id="Polygon172134"><path d="m4.8 10.1c1.8 0 3.3-1.1 3.3-3.5c0-2.4-1.5-3.6-3.3-3.6c.01.04-1.8 0-1.8 0l0 7.1c0 0 1.8.04 1.8 0zm-3.6 1.6l0-10.2c0 0 3.67-.05 3.7 0c2.8 0 5 1.8 5 5.1c0 3.3-2.3 5.1-5 5.1c-.04.03-3.7 0-3.7 0zm10.4 0l0-7l1.6 0l0 7l-1.6 0zm.8-10.6c.6 0 1.1.5 1.1 1.1c0 .6-.5 1.1-1.1 1.1c-.6 0-1.1-.5-1.1-1.1c0-.6.5-1.1 1.1-1.1zm3 13.4l0-9.8l1.6 0c0 0 .02.93 0 .9c.4-.6 1.2-1.1 2.3-1.1c2.1 0 3.2 1.6 3.2 3.7c0 2.1-1.3 3.7-3.3 3.7c-1 0-1.8-.4-2.1-1c-.03.03 0 3.6 0 3.6l-1.7 0zm5.5-6.3c0-1.3-.8-2.2-1.9-2.2c-1.2 0-1.9.9-1.9 2.2c0 1.3.7 2.2 1.9 2.2c1.1 0 1.9-.9 1.9-2.2c0 0 0 0 0 0zm3.3 3.5l0-10.5l1.6 0l0 10.5l-1.6 0zm4.5-7.9l1.6-2.1l1.7 0l1.6 2.1l-1.5 0l-1-1.1l-1 1.1l-1.4 0zm4.4 4.4c0-1.5-.9-2.2-2-2.2c-1 0-2 .7-2 2.2c0 1.5 1 2.2 2 2.2c1.1 0 2-.7 2-2.2zm1.7 0c0 2.2-1.6 3.7-3.7 3.7c-2.1 0-3.6-1.5-3.6-3.7c0-2.2 1.5-3.7 3.6-3.7c2.1 0 3.7 1.5 3.7 3.7zm1.6 3.5l0-7l1.6 0c0 0 .02.87 0 .9c.4-.8 1.3-1.1 2.1-1.1c.9 0 1.7.4 2.1 1.2c.6-.9 1.4-1.2 2.3-1.2c1.3 0 2.5.8 2.5 2.6c.01.05 0 4.6 0 4.6l-1.6 0c0 0-.01-4.28 0-4.3c0-.8-.4-1.4-1.4-1.4c-.9 0-1.4.7-1.4 1.5c-.04.04 0 4.2 0 4.2l-1.7 0c0 0 0-4.28 0-4.3c0-.8-.4-1.4-1.4-1.4c-.9 0-1.4.6-1.4 1.5c-.02.04 0 4.2 0 4.2l-1.7 0zm17.3-4.3c0-.8-.6-1.5-1.7-1.5c-1.1 0-1.7.8-1.8 1.5c0 0 3.5 0 3.5 0zm1.6 2.3c-.4 1.2-1.5 2.2-3.2 2.2c-1.9 0-3.6-1.3-3.6-3.7c0-2.3 1.7-3.7 3.5-3.7c2.1 0 3.4 1.4 3.4 3.6c0 .3 0 .5 0 .6c0 0-5.2 0-5.2 0c0 1 .9 1.8 1.9 1.8c1 0 1.6-.5 1.8-1.2c0 0 1.4.4 1.4.4zm2.6-.3c0 .6.5 1.2 1.4 1.2c.7 0 1-.4 1-.8c0-.4-.2-.7-.8-.8c0 0-1-.2-1-.2c-1.3-.3-1.9-1.1-1.9-2.1c0-1.2 1.1-2.2 2.6-2.2c1.9 0 2.6 1.2 2.7 1.9c0 0-1.4.4-1.4.4c-.1-.4-.4-1-1.3-1c-.6 0-1 .3-1 .8c0 .4.2.6.7.7c0 0 1 .2 1 .2c1.4.3 2.1 1.1 2.1 2.2c0 1.1-.9 2.2-2.7 2.2c-2 0-2.8-1.3-2.9-2.1c0 0 1.5-.4 1.5-.4zm12.9 2.3l-1.6 0l-2.9-7l1.8 0l1.9 5l1.8-5l1.8 0l-2.8 7zm4 0l0-7l1.7 0l0 7l-1.7 0zm.9-10.6c.6 0 1.1.5 1.1 1.1c0 .6-.5 1.1-1.1 1.1c-.6 0-1.1-.5-1.1-1.1c0-.6.5-1.1 1.1-1.1zm3.8 8.3c.1.6.6 1.2 1.5 1.2c.7 0 1-.4 1-.8c0-.4-.2-.7-.8-.8c0 0-1-.2-1-.2c-1.3-.3-1.9-1.1-1.9-2.1c0-1.2 1.1-2.2 2.6-2.2c1.9 0 2.6 1.2 2.7 1.9c0 0-1.4.4-1.4.4c-.1-.4-.4-1-1.3-1c-.6 0-1.1.3-1.1.8c0 .4.3.6.7.7c0 0 1.1.2 1.1.2c1.4.3 2 1.1 2 2.2c0 1.1-.8 2.2-2.6 2.2c-2.1 0-2.8-1.3-2.9-2.1c0 0 1.4-.4 1.4-.4zm9.3-5.6l-1.4 0l1.3-2.2l2 0l-1.9 2.2zm1.1 3.6c0-.8-.6-1.5-1.7-1.5c-1.1 0-1.7.8-1.8 1.5c0 0 3.5 0 3.5 0zm1.6 2.3c-.4 1.2-1.5 2.2-3.2 2.2c-1.9 0-3.6-1.3-3.6-3.7c0-2.3 1.7-3.7 3.5-3.7c2.1 0 3.4 1.4 3.4 3.6c0 .3 0 .5 0 .6c0 0-5.2 0-5.2 0c0 1 .9 1.8 1.9 1.8c1 0 1.6-.5 1.8-1.2c0 0 1.4.4 1.4.4zm2.6-.3c0 .6.5 1.2 1.4 1.2c.7 0 1.1-.4 1.1-.8c0-.4-.3-.7-.9-.8c0 0-1-.2-1-.2c-1.3-.3-1.9-1.1-1.9-2.1c0-1.2 1.1-2.2 2.6-2.2c2 0 2.6 1.2 2.7 1.9c0 0-1.4.4-1.4.4c-.1-.4-.4-1-1.3-1c-.6 0-1 .3-1 .8c0 .4.2.6.7.7c0 0 1 .2 1 .2c1.4.3 2.1 1.1 2.1 2.2c0 1.1-.9 2.2-2.7 2.2c-2 0-2.8-1.3-2.9-2.1c0 0 1.5-.4 1.5-.4z" stroke="none" fill="#9b78ef"/></g></svg>