<?xml version="1.0" standalone="no"?><!DOCTYPE svg PUBLIC "-//W3C//DTD SVG 1.1//EN" "http://www.w3.org/Graphics/SVG/1.1/DTD/svg11.dtd"><svg xmlns="http://www.w3.org/2000/svg" version="1.1" width="133px" height="240.6px" viewBox="0 -3 133 240.6" style="top:-3px"><desc>Le Comit de Mission met un avis tr s favorable sur l’accomplissement de la mission pour l’ann e 2025. Il salue la p...</desc><defs/><g id="Polygon186607"><path d="m3.7 220.6c1.2 0 1.9-1 1.9-2.4c0-1.3-.7-2.2-1.8-2.2c-1.2 0-2 .9-2 2.3c0 1.3.7 2.3 1.9 2.3zm1.9-.1c-.3.7-1 1.2-2 1.2c-1.9 0-3.1-1.5-3.1-3.4c0-1.9 1.3-3.4 3.1-3.4c1.2 0 1.8.5 2 1c0 .05 0-4.2 0-4.2l1.3 0c0 0-.04 8.62 0 8.6c0 .6 0 1.1 0 1.2c0 0-1.2 0-1.2 0c0-.1-.1-.5-.1-.9c0 0 0-.1 0-.1zm7.8-2.9c0-.9-.6-1.7-1.8-1.7c-1.1 0-1.7.9-1.8 1.7c0 0 3.6 0 3.6 0zm1.3 2.1c-.4 1.1-1.4 2-2.9 2c-1.8 0-3.3-1.2-3.3-3.4c0-2.1 1.5-3.5 3.1-3.5c2 0 3.1 1.4 3.1 3.4c0 .2 0 .4 0 .4c0 0-4.9 0-4.9 0c0 1.2.9 2 2 2c1 0 1.5-.6 1.8-1.3c0 0 1.1.4 1.1.4zm-2.6-5.5l-1.1 0l1.2-2l1.6 0l-1.7 2zm4.2 7.3l0-9.8l1.3 0c0 0-.01 4.25 0 4.2c.3-.5 1.1-1.1 2.1-1.1c2 0 3 1.6 3 3.4c0 2-1.1 3.5-3 3.5c-1 0-1.7-.4-2.1-1.1c-.01-.02 0 .9 0 .9l-1.3 0zm3.2-5.5c-1.1 0-1.9.8-1.9 2.2c0 1.4.8 2.4 1.9 2.4c1.2 0 1.9-1 1.9-2.4c0-1.4-.7-2.2-1.9-2.2zm9.1 4.7c-.4.7-1.2 1-2 1c-1.5 0-2.4-1.1-2.4-2.6c.01.02 0-4.1 0-4.1l1.3 0c0 0-.03 3.93 0 3.9c0 .9.4 1.7 1.4 1.7c1.1 0 1.6-.7 1.6-1.7c-.01.04 0-3.9 0-3.9l1.3 0c0 0-.05 5.32 0 5.3c0 .5 0 1 0 1.2c0 0-1.2 0-1.2 0c0-.1 0-.5 0-.8c0 0 0 0 0 0zm5-5.7l1.4 0l0 1.2l-1.4 0c0 0 .01 3.35 0 3.4c0 .5.3.8.9.8c.2 0 .4 0 .5 0c0 0 0 1.1 0 1.1c-.1 0-.4.1-.8.1c-1.2 0-1.9-.7-1.9-1.9c.05.04 0-3.5 0-3.5l-1.2 0l0-1.2c0 0 .36.03.4 0c.7 0 1-.4 1-1c-.05.03 0-1 0-1l1.1 0l0 2zm9.1 5.6c1.2 0 1.9-1 1.9-2.4c0-1.3-.7-2.2-1.8-2.2c-1.2 0-2 .9-2 2.3c0 1.3.7 2.3 1.9 2.3zm1.9-.1c-.3.7-1 1.2-2 1.2c-1.9 0-3.1-1.5-3.1-3.4c0-1.9 1.3-3.4 3.1-3.4c1.2 0 1.8.5 2 1c0 .05 0-4.2 0-4.2l1.3 0c0 0-.04 8.62 0 8.6c0 .6 0 1.1 0 1.2c0 0-1.2 0-1.2 0c0-.1-.1-.5-.1-.9c0 0 0-.1 0-.1zm3.8-8.7c.5 0 1 .4 1 1.2c0 1.7-1.1 2.4-1.8 2.5c0 0 0-.7 0-.7c.6-.1 1-.7 1-1.3c0 0-.1 0-.3 0c-.4 0-.8-.3-.8-.8c0-.5.4-.9.9-.9zm6.2 5.8c0-.9-.6-1.7-1.8-1.7c-1 0-1.7.9-1.7 1.7c0 0 3.5 0 3.5 0zm1.3 2.1c-.4 1.1-1.4 2-2.9 2c-1.8 0-3.3-1.2-3.3-3.4c0-2.1 1.5-3.5 3.1-3.5c2 0 3.1 1.4 3.1 3.4c0 .2 0 .4 0 .4c0 0-4.9 0-4.9 0c0 1.2.9 2 2 2c1 0 1.6-.6 1.8-1.3c0 0 1.1.4 1.1.4zm3.1-1.5l-2.4-3.2l1.6 0l1.6 2.3l1.5-2.3l1.5 0c0 0-2.29 3.21-2.3 3.2c.4.5 2 2.8 2.4 3.3c0 .02-1.5 0-1.5 0l-1.7-2.4l-1.7 2.4l-1.5 0l2.5-3.3zm9.4-.6c-.1-.9-.7-1.7-1.8-1.7c-1.1 0-1.7.9-1.8 1.7c0 0 3.6 0 3.6 0zm1.2 2.1c-.3 1.1-1.4 2-2.9 2c-1.7 0-3.2-1.2-3.2-3.4c0-2.1 1.4-3.5 3.1-3.5c2 0 3.1 1.4 3.1 3.4c0 .2 0 .4-.1.4c0 0-4.8 0-4.8 0c0 1.2.8 2 1.9 2c1.1 0 1.6-.6 1.8-1.3c0 0 1.1.4 1.1.4zm5.3-3.4c-.2 0-.4 0-.6 0c-1 0-1.7.5-1.7 2c-.04-.03 0 3.2 0 3.2l-1.3 0l0-6.5l1.2 0c0 0 .03 1.16 0 1.2c.5-1 1.3-1.3 2-1.3c.2 0 .3 0 .4.1c0 0 0 1.3 0 1.3zm2 2c0 1.5 1 2.3 2 2.3c1.2 0 1.7-.9 1.8-1.4c0 0 1.1.5 1.1.5c-.3.9-1.2 2-2.9 2c-1.9 0-3.3-1.5-3.3-3.4c0-2.1 1.5-3.5 3.3-3.5c1.7 0 2.6 1.1 2.9 2.1c0 0-1.2.5-1.2.5c-.1-.7-.6-1.4-1.7-1.4c-1 0-2 .8-2 2.3zm6.4 3.2l0-6.5l1.3 0l0 6.5l-1.3 0zm.7-9.8c.5 0 .9.4.9.9c0 .5-.4.9-.9.9c-.5 0-.9-.4-.9-.9c0-.5.4-.9.9-.9zm3.5 6.6c0 1.5.9 2.3 2 2.3c1.2 0 1.7-.9 1.8-1.4c0 0 1.1.5 1.1.5c-.3.9-1.2 2-2.9 2c-1.9 0-3.3-1.5-3.3-3.4c0-2.1 1.4-3.5 3.3-3.5c1.7 0 2.6 1.1 2.9 2.1c0 0-1.2.5-1.2.5c-.1-.7-.6-1.4-1.7-1.4c-1 0-2 .8-2 2.3zm10.7-.7c0-.9-.6-1.7-1.8-1.7c-1 0-1.7.9-1.7 1.7c0 0 3.5 0 3.5 0zm1.3 2.1c-.4 1.1-1.4 2-2.9 2c-1.8 0-3.3-1.2-3.3-3.4c0-2.1 1.5-3.5 3.1-3.5c2 0 3.1 1.4 3.1 3.4c0 .2 0 .4 0 .4c0 0-4.9 0-4.9 0c0 1.2.9 2 2 2c1 0 1.6-.6 1.8-1.3c0 0 1.1.4 1.1.4zm2.2 0c.6 0 1 .4 1 1c0 .5-.4.9-1 .9c-.5 0-.9-.4-.9-.9c0-.6.4-1 .9-1z" stroke="none" fill="#144542"/></g><g id="Polygon186606"><path d="m4.7 200.1c-.2 0-.4 0-.6 0c-1 0-1.8.5-1.8 2c.05-.03 0 3.2 0 3.2l-1.2 0l0-6.5l1.2 0c0 0 .02 1.16 0 1.2c.5-1 1.3-1.3 2-1.3c.1 0 .3 0 .4.1c0 0 0 1.3 0 1.3zm5.6 1.3c0-.9-.6-1.7-1.7-1.7c-1.1 0-1.8.9-1.8 1.7c0 0 3.5 0 3.5 0zm1.3 2.1c-.3 1.1-1.4 2-2.9 2c-1.7 0-3.3-1.2-3.3-3.4c0-2.1 1.5-3.5 3.1-3.5c2 0 3.2 1.4 3.2 3.4c0 .2-.1.4-.1.4c0 0-4.9 0-4.9 0c.1 1.2.9 2 2 2c1.1 0 1.6-.6 1.8-1.3c0 0 1.1.4 1.1.4zm4.5 1.8l-1.3 0l-2.6-6.5l1.4 0l1.9 5l1.8-5l1.4 0l-2.6 6.5zm8.1-.8c-.3.7-1.2 1-1.9 1c-1.5 0-2.4-1.1-2.4-2.6c-.04.02 0-4.1 0-4.1l1.2 0c0 0 .03 3.93 0 3.9c0 .9.4 1.7 1.5 1.7c1 0 1.5-.7 1.5-1.7c.04.04 0-3.9 0-3.9l1.3 0c0 0 .01 5.32 0 5.3c0 .5 0 1 .1 1.2c0 0-1.2 0-1.2 0c-.1-.1-.1-.5-.1-.8c0 0 0 0 0 0zm3.9-1.3c.1.7.6 1.2 1.5 1.2c.7 0 1.1-.4 1.1-.8c0-.4-.3-.7-.8-.9c0 0-1.1-.2-1.1-.2c-1-.2-1.6-.9-1.6-1.8c0-1.1 1-2.1 2.3-2.1c1.8 0 2.3 1.2 2.4 1.8c0 0-1.1.4-1.1.4c0-.4-.3-1.1-1.3-1.1c-.7 0-1.1.4-1.1.9c0 .4.2.6.7.8c0 0 1.1.2 1.1.2c1.2.2 1.8 1 1.8 1.9c0 .9-.8 2-2.4 2c-1.8 0-2.5-1.1-2.6-1.9c0 0 1.1-.4 1.1-.4zm8.5.4c0-1.2.9-1.8 2-2c0 0 1.8-.2 1.8-.2c.4-.1.5-.3.5-.5c0-.7-.5-1.2-1.4-1.2c-.9 0-1.4.6-1.5 1.3c0 0-1.2-.3-1.2-.3c.1-1.2 1.2-2.1 2.6-2.1c2 0 2.7 1.1 2.7 2.4c0 0 0 3.3 0 3.3c0 .5.1.9.1 1c0 0-1.2 0-1.2 0c-.1-.1-.1-.4-.1-.9c-.3.5-.9 1.1-2.1 1.1c-1.3 0-2.2-.9-2.2-1.9c0 0 0 0 0 0zm4.3-1.1c-.03.04 0-.3 0-.3c0 0-2.02.34-2 .3c-.6.1-1 .4-1 1c0 .5.4 1 1.1 1c1 0 1.9-.5 1.9-2zm-3.5-6.5l1.6 0l1.2 2l-1.1 0l-1.7-2zm10.1 9.3l0-9.8l1.2 0l0 9.8l-1.2 0zm3-1.7c0-1.2.9-1.8 2-2c0 0 1.7-.2 1.7-.2c.4-.1.5-.3.5-.5c0-.7-.4-1.2-1.4-1.2c-.9 0-1.4.6-1.4 1.3c0 0-1.3-.3-1.3-.3c.2-1.2 1.3-2.1 2.7-2.1c1.9 0 2.7 1.1 2.7 2.4c0 0 0 3.3 0 3.3c0 .5.1.9.1 1c0 0-1.3 0-1.3 0c0-.1 0-.4 0-.9c-.3.5-1 1.1-2.1 1.1c-1.3 0-2.2-.9-2.2-1.9c0 0 0 0 0 0zm4.2-1.1c.03.04 0-.3 0-.3c0 0-1.96.34-2 .3c-.5.1-.9.4-.9 1c0 .5.4 1 1.1 1c1 0 1.8-.5 1.8-2zm7.9 2.8l-1.3 0l0-9.8l1.3 0c0 0 .01 4.08 0 4.1c.5-.7 1.2-1 2-1c1.5 0 2.3 1.2 2.3 2.6c0 0 0 4.1 0 4.1l-1.3 0c0 0 .04-3.88 0-3.9c0-.9-.3-1.6-1.5-1.6c-.9 0-1.5.7-1.5 1.7c.01 0 0 3.8 0 3.8zm5.9-1.7c0-1.2.9-1.8 2-2c0 0 1.8-.2 1.8-.2c.3-.1.5-.3.5-.5c0-.7-.5-1.2-1.5-1.2c-.8 0-1.3.6-1.4 1.3c0 0-1.2-.3-1.2-.3c.1-1.2 1.2-2.1 2.6-2.1c2 0 2.7 1.1 2.7 2.4c0 0 0 3.3 0 3.3c0 .5.1.9.1 1c0 0-1.2 0-1.2 0c-.1-.1-.1-.4-.1-.9c-.3.5-.9 1.1-2.1 1.1c-1.3 0-2.2-.9-2.2-1.9c0 0 0 0 0 0zm4.3-1.1c-.05.04 0-.3 0-.3c0 0-2.03.34-2 .3c-.6.1-1 .4-1 1c0 .5.4 1 1.1 1c1 0 1.9-.5 1.9-2zm7.3 2c-.3.7-1.1 1-1.9 1c-1.5 0-2.4-1.1-2.4-2.6c-.01.02 0-4.1 0-4.1l1.3 0c0 0-.04 3.93 0 3.9c0 .9.4 1.7 1.4 1.7c1.1 0 1.6-.7 1.6-1.7c-.03.04 0-3.9 0-3.9l1.2 0c0 0 .04 5.32 0 5.3c0 .5.1 1 .1 1.2c0 0-1.2 0-1.2 0c0-.1-.1-.5-.1-.8c0 0 0 0 0 0zm3.9-1.3c.1.7.6 1.2 1.5 1.2c.8 0 1.2-.4 1.2-.8c0-.4-.3-.7-.9-.9c0 0-1.1-.2-1.1-.2c-1-.2-1.6-.9-1.6-1.8c0-1.1 1-2.1 2.3-2.1c1.8 0 2.3 1.2 2.5 1.8c0 0-1.1.4-1.1.4c-.1-.4-.4-1.1-1.4-1.1c-.6 0-1.1.4-1.1.9c0 .4.3.6.8.8c0 0 1 .2 1 .2c1.2.2 1.8 1 1.8 1.9c0 .9-.8 2-2.4 2c-1.7 0-2.5-1.1-2.6-1.9c0 0 1.1-.4 1.1-.4zm6.1 0c.1.7.6 1.2 1.6 1.2c.7 0 1.1-.4 1.1-.8c0-.4-.3-.7-.9-.9c0 0-1.1-.2-1.1-.2c-1-.2-1.6-.9-1.6-1.8c0-1.1 1-2.1 2.3-2.1c1.8 0 2.3 1.2 2.5 1.8c0 0-1.1.4-1.1.4c-.1-.4-.4-1.1-1.4-1.1c-.6 0-1.1.4-1.1.9c0 .4.3.6.8.8c0 0 1 .2 1 .2c1.2.2 1.8 1 1.8 1.9c0 .9-.8 2-2.4 2c-1.7 0-2.5-1.1-2.6-1.9c0 0 1.1-.4 1.1-.4zm9.9-1.8c0-.9-.6-1.7-1.8-1.7c-1 0-1.7.9-1.7 1.7c0 0 3.5 0 3.5 0zm1.3 2.1c-.4 1.1-1.4 2-2.9 2c-1.8 0-3.3-1.2-3.3-3.4c0-2.1 1.5-3.5 3.1-3.5c2 0 3.1 1.4 3.1 3.4c0 .2 0 .4 0 .4c0 0-4.9 0-4.9 0c0 1.2.9 2 2 2c1 0 1.6-.6 1.8-1.3c0 0 1.1.4 1.1.4zm9.4-2.1c0-.9-.6-1.7-1.8-1.7c-1 0-1.7.9-1.8 1.7c0 0 3.6 0 3.6 0zm1.3 2.1c-.4 1.1-1.4 2-2.9 2c-1.8 0-3.3-1.2-3.3-3.4c0-2.1 1.5-3.5 3.1-3.5c2 0 3.1 1.4 3.1 3.4c0 .2 0 .4 0 .4c0 0-4.9 0-4.9 0c0 1.2.9 2 2 2c1 0 1.5-.6 1.8-1.3c0 0 1.1.4 1.1.4zm2.9 1.8l-1.3 0l0-6.5l1.3 0c0 0-.02.96 0 1c.5-.9 1.2-1.2 2-1.2c1.5 0 2.3 1.2 2.3 2.6c0 0 0 4.1 0 4.1l-1.3 0c0 0 .04-3.88 0-3.9c0-.9-.3-1.6-1.5-1.6c-1 0-1.5.8-1.5 1.8c.01-.03 0 3.7 0 3.7z" stroke="none" fill="#144542"/></g><g id="Polygon186605"><path d="m5.5 185.2c-.1-.9-.7-1.7-1.8-1.7c-1.1 0-1.7.9-1.8 1.7c0 0 3.6 0 3.6 0zm1.2 2.1c-.3 1.1-1.4 2-2.9 2c-1.7 0-3.2-1.2-3.2-3.4c0-2.1 1.4-3.5 3.1-3.5c2 0 3.1 1.4 3.1 3.4c0 .2 0 .4-.1.4c0 0-4.8 0-4.8 0c0 1.2.8 2 1.9 2c1.1 0 1.6-.6 1.8-1.3c0 0 1.1.4 1.1.4zm-2.5-5.5l-1.1 0l1.2-2l1.6 0l-1.7 2zm5.9.8l1.4 0l0 1.2l-1.4 0c0 0 0 3.35 0 3.4c0 .5.2.8.9.8c.2 0 .4 0 .5 0c0 0 0 1.1 0 1.1c-.1 0-.4.1-.9.1c-1.1 0-1.8-.7-1.8-1.9c.03.04 0-3.5 0-3.5l-1.2 0l0-1.2c0 0 .34.03.3 0c.7 0 1-.4 1-1c.04.03 0-1 0-1l1.2 0l0 2zm7.4 2.6c0-.9-.6-1.7-1.8-1.7c-1.1 0-1.7.9-1.8 1.7c0 0 3.6 0 3.6 0zm1.3 2.1c-.4 1.1-1.4 2-2.9 2c-1.8 0-3.3-1.2-3.3-3.4c0-2.1 1.5-3.5 3.1-3.5c2 0 3.1 1.4 3.1 3.4c0 .2 0 .4 0 .4c0 0-4.9 0-4.9 0c0 1.2.9 2 2 2c1 0 1.5-.6 1.8-1.3c0 0 1.1.4 1.1.4zm-2.6-5.5l-1.1 0l1.2-2l1.6 0l-1.7 2zm8.2 5.2c0 .7.5 1.2 1.5 1.2c.7 0 1.1-.4 1.1-.8c0-.4-.3-.7-.9-.9c0 0-1.1-.2-1.1-.2c-1-.2-1.6-.9-1.6-1.8c0-1.1 1-2.1 2.3-2.1c1.8 0 2.4 1.2 2.5 1.8c0 0-1.1.4-1.1.4c-.1-.4-.4-1.1-1.4-1.1c-.6 0-1.1.4-1.1.9c0 .4.3.6.8.8c0 0 1 .2 1 .2c1.2.2 1.8 1 1.8 1.9c0 .9-.7 2-2.3 2c-1.8 0-2.6-1.1-2.7-1.9c0 0 1.2-.4 1.2-.4zm5.5 2.1l0-6.5l1.3 0l0 6.5l-1.3 0zm.6-9.8c.5 0 1 .4 1 .9c0 .5-.5.9-1 .9c-.5 0-.9-.4-.9-.9c0-.5.4-.9.9-.9zm3.6 9.9c.1.9.8 1.6 1.8 1.6c1.3 0 1.9-.7 1.9-2.1c0 0 0-1 0-1c-.3.6-1 1.1-1.9 1.1c-1.8 0-3-1.3-3-3.1c0-1.8 1.2-3.2 3-3.2c1 0 1.6.4 2 1c-.05.03 0-.9 0-.9l1.2 0c0 0 .01 6.03 0 6c0 1.7-.8 3.3-3.2 3.3c-1.7 0-2.9-1-3-2.4c0 0 1.2-.3 1.2-.3zm3.8-3.5c0-1.3-.8-2.1-1.9-2.1c-1.1 0-1.8.8-1.8 2.1c0 1.2.7 2 1.8 2c1.1 0 1.9-.8 1.9-2zm4.5 3.4l-1.3 0l0-6.5l1.3 0c0 0-.02.96 0 1c.4-.9 1.2-1.2 2-1.2c1.5 0 2.3 1.2 2.3 2.6c0 0 0 4.1 0 4.1l-1.3 0c0 0 .03-3.88 0-3.9c0-.9-.4-1.6-1.5-1.6c-1 0-1.5.8-1.5 1.8c0-.03 0 3.7 0 3.7zm6.3 0l0-6.5l1.3 0l0 6.5l-1.3 0zm.6-9.8c.6 0 1 .4 1 .9c0 .5-.4.9-1 .9c-.5 0-.9-.4-.9-.9c0-.5.4-.9.9-.9zm6.1.1c0 0 0 1.2 0 1.2c-.1-.1-.2-.1-.5-.1c-.5 0-1.1.2-1.1 1.1c.04-.01 0 1 0 1l4.3 0l0 6.5l-1.2 0l0-5.3l-3.1 0l0 5.3l-1.3 0l0-5.3l-1.2 0l0-1.2l1.2 0c0 0 .03-1.07 0-1.1c0-1.4 1-2.2 2.2-2.2c.4 0 .7.1.7.1zm1.2.7c0-.5.4-.9.9-.9c.5 0 .9.4.9.9c0 .5-.4.9-.9.9c-.5 0-.9-.4-.9-.9c0 0 0 0 0 0zm4.4 5.8c0 1.5 1 2.3 2 2.3c1.2 0 1.7-.9 1.8-1.4c0 0 1.2.5 1.2.5c-.4.9-1.3 2-3 2c-1.9 0-3.2-1.5-3.2-3.4c0-2.1 1.4-3.5 3.2-3.5c1.7 0 2.6 1.1 2.9 2.1c0 0-1.1.5-1.1.5c-.2-.7-.7-1.4-1.8-1.4c-1 0-2 .8-2 2.3zm6 1.5c0-1.2.8-1.8 1.9-2c0 0 1.8-.2 1.8-.2c.4-.1.5-.3.5-.5c0-.7-.4-1.2-1.4-1.2c-.9 0-1.4.6-1.5 1.3c0 0-1.2-.3-1.2-.3c.1-1.2 1.3-2.1 2.7-2.1c1.9 0 2.7 1.1 2.7 2.4c0 0 0 3.3 0 3.3c0 .5 0 .9 0 1c0 0-1.2 0-1.2 0c0-.1-.1-.4-.1-.9c-.2.5-.9 1.1-2.1 1.1c-1.3 0-2.1-.9-2.1-1.9c0 0 0 0 0 0zm4.2-1.1c0 .04 0-.3 0-.3c0 0-1.99.34-2 .3c-.5.1-.9.4-.9 1c0 .5.4 1 1 1c1.1 0 1.9-.5 1.9-2zm4.9-3.7l1.4 0l0 1.2l-1.4 0c0 0 .04 3.35 0 3.4c0 .5.3.8.9.8c.2 0 .4 0 .5 0c0 0 0 1.1 0 1.1c-.1 0-.4.1-.8.1c-1.1 0-1.8-.7-1.8-1.9c-.03.04 0-3.5 0-3.5l-1.3 0l0-1.2c0 0 .38.03.4 0c.7 0 1-.4 1-1c-.02.03 0-1 0-1l1.1 0l0 2zm3.1 6.5l0-6.5l1.3 0l0 6.5l-1.3 0zm.7-9.8c.5 0 .9.4.9.9c0 .5-.4.9-.9.9c-.5 0-1-.4-1-.9c0-.5.5-.9 1-.9zm5.7 9.8l-1.3 0l-2.6-6.5l1.4 0l1.9 5l1.8-5l1.4 0l-2.6 6.5zm8-3.9c0-.9-.6-1.7-1.8-1.7c-1.1 0-1.7.9-1.8 1.7c0 0 3.6 0 3.6 0zm1.3 2.1c-.4 1.1-1.4 2-2.9 2c-1.8 0-3.3-1.2-3.3-3.4c0-2.1 1.5-3.5 3.1-3.5c2 0 3.1 1.4 3.1 3.4c0 .2 0 .4 0 .4c0 0-4.9 0-4.9 0c0 1.2.9 2 2 2c1 0 1.5-.6 1.8-1.3c0 0 1.1.4 1.1.4zm1.6 1.8l0-6.5l1.3 0c0 0-.05.89 0 .9c.4-.7 1.2-1.1 1.9-1.1c.8 0 1.6.4 2 1.3c.5-1 1.3-1.3 2.1-1.3c1.2 0 2.3.8 2.3 2.5c-.02.01 0 4.2 0 4.2l-1.3 0c0 0 .03-4.06 0-4.1c0-.8-.4-1.4-1.4-1.4c-.8 0-1.4.7-1.4 1.6c-.05-.01 0 3.9 0 3.9l-1.3 0c0 0-.02-4.06 0-4.1c0-.8-.4-1.4-1.4-1.4c-.9 0-1.5.6-1.5 1.6c-.01.01 0 3.9 0 3.9l-1.3 0zm16-3.9c0-.9-.7-1.7-1.8-1.7c-1.1 0-1.7.9-1.8 1.7c0 0 3.6 0 3.6 0zm1.3 2.1c-.4 1.1-1.4 2-3 2c-1.7 0-3.2-1.2-3.2-3.4c0-2.1 1.5-3.5 3.1-3.5c2 0 3.1 1.4 3.1 3.4c0 .2 0 .4 0 .4c0 0-4.9 0-4.9 0c0 1.2.9 2 1.9 2c1.1 0 1.6-.6 1.9-1.3c0 0 1.1.4 1.1.4zm2.9 1.8l-1.3 0l0-6.5l1.3 0c0 0-.04.96 0 1c.4-.9 1.2-1.2 2-1.2c1.5 0 2.3 1.2 2.3 2.6c-.02 0 0 4.1 0 4.1l-1.3 0c0 0 .02-3.88 0-3.9c0-.9-.4-1.6-1.5-1.6c-1 0-1.5.8-1.5 1.8c-.01-.03 0 3.7 0 3.7zm8-6.5l1.4 0l0 1.2l-1.4 0c0 0 .01 3.35 0 3.4c0 .5.3.8.9.8c.2 0 .4 0 .5 0c0 0 0 1.1 0 1.1c-.1 0-.4.1-.8.1c-1.2 0-1.9-.7-1.9-1.9c.04.04 0-3.5 0-3.5l-1.2 0l0-1.2c0 0 .35.03.4 0c.7 0 1-.4 1-1c-.05.03 0-1 0-1l1.1 0l0 2z" stroke="none" fill="#144542"/></g><g id="Polygon186604"><path d="m5.9 169.7c0-1.5-1-2.3-2-2.3c-1.1 0-2.1.8-2.1 2.3c0 1.5 1 2.3 2.1 2.3c1 0 2-.8 2-2.3zm1.3 0c0 2-1.4 3.4-3.3 3.4c-2 0-3.4-1.4-3.4-3.4c0-2 1.4-3.5 3.4-3.5c1.9 0 3.3 1.5 3.3 3.5zm1.6 3.2l0-9.8l1.3 0c0 0-.04 4.25 0 4.2c.3-.5 1-1.1 2.1-1.1c2 0 3 1.6 3 3.4c0 2-1.1 3.5-3 3.5c-1 0-1.7-.4-2.1-1.1c-.04-.02 0 .9 0 .9l-1.3 0zm3.2-5.5c-1.1 0-2 .8-2 2.2c0 1.4.9 2.4 2 2.4c1.1 0 1.9-1 1.9-2.4c0-1.4-.8-2.2-1.9-2.2zm4.8-1l1.3 0c0 0-.02 7.28 0 7.3c0 1.2-.7 2-1.8 2c-.5 0-.7-.1-.8-.1c0 0 0-1.1 0-1.1c.1 0 .2.1.4.1c.7 0 .9-.4.9-1c.01.02 0-7.2 0-7.2zm.6-3.4c.5 0 .9.4.9.9c0 .5-.4.9-.9.9c-.5 0-.9-.4-.9-.9c0-.5.4-.9.9-.9zm7.2 6c0-.9-.6-1.7-1.8-1.7c-1 0-1.7.9-1.7 1.7c0 0 3.5 0 3.5 0zm1.3 2.1c-.4 1.1-1.4 2-2.9 2c-1.8 0-3.3-1.2-3.3-3.4c0-2.1 1.5-3.5 3.1-3.5c2 0 3.1 1.4 3.1 3.4c0 .2 0 .4 0 .4c0 0-4.9 0-4.9 0c0 1.2.9 2 2 2c1 0 1.6-.6 1.8-1.3c0 0 1.1.4 1.1.4zm2.4-1.4c0 1.5.9 2.3 2 2.3c1.2 0 1.7-.9 1.8-1.4c0 0 1.1.5 1.1.5c-.3.9-1.2 2-2.9 2c-1.9 0-3.3-1.5-3.3-3.4c0-2.1 1.4-3.5 3.3-3.5c1.7 0 2.6 1.1 2.9 2.1c0 0-1.2.5-1.2.5c-.1-.7-.6-1.4-1.7-1.4c-1 0-2 .8-2 2.3zm8.1-3.3l1.4 0l0 1.2l-1.4 0c0 0 .01 3.35 0 3.4c0 .5.3.8.9.8c.2 0 .4 0 .5 0c0 0 0 1.1 0 1.1c-.1 0-.4.1-.9.1c-1.1 0-1.8-.7-1.8-1.9c.04.04 0-3.5 0-3.5l-1.2 0l0-1.2c0 0 .35.03.3 0c.8 0 1-.4 1-1c.05.03 0-1 0-1l1.2 0l0 2zm3.1 6.5l0-6.5l1.3 0l0 6.5l-1.3 0zm.6-9.8c.5 0 .9.4.9.9c0 .5-.4.9-.9.9c-.5 0-.9-.4-.9-.9c0-.5.4-.9.9-.9zm4.5 4.5l0 5.3l-1.3 0l0-5.3l-1.2 0l0-1.2l1.2 0c0 0 .01-1.07 0-1.1c0-1.4 1-2.2 2.1-2.2c.5 0 .7.1.8.1c0 0 0 1.2 0 1.2c-.1-.1-.2-.1-.6-.1c-.4 0-1 .2-1 1.1c.02 0 0 1 0 1l1.6 0l0 1.2l-1.6 0zm3.5 3.2c.1.7.6 1.2 1.5 1.2c.7 0 1.1-.4 1.1-.8c0-.4-.3-.7-.8-.9c0 0-1.1-.2-1.1-.2c-1.1-.2-1.7-.9-1.7-1.8c0-1.1 1.1-2.1 2.3-2.1c1.8 0 2.4 1.2 2.5 1.8c0 0-1.1.4-1.1.4c-.1-.4-.3-1.1-1.4-1.1c-.6 0-1 .4-1 .9c0 .4.2.6.7.8c0 0 1.1.2 1.1.2c1.1.2 1.8 1 1.8 1.9c0 .9-.8 2-2.4 2c-1.8 0-2.6-1.1-2.7-1.9c0 0 1.2-.4 1.2-.4zm13.5 4.7c0 0-.01-3.5 0-3.5c-.4.7-1.1 1.1-2 1.1c-1.9 0-3.1-1.6-3.1-3.4c0-1.9 1.1-3.4 3-3.4c1.2 0 1.8.5 2.1 1.1c.01.03 0-1 0-1l1.2 0l0 9.1l-1.2 0zm-1.9-3.5c1.1 0 1.9-1 1.9-2.3c0-1.4-.8-2.3-1.9-2.3c-1.2 0-1.9.9-1.9 2.3c0 1.3.7 2.3 1.9 2.3zm9.4.1c-.3.7-1.1 1-1.9 1c-1.5 0-2.4-1.1-2.4-2.6c0 .02 0-4.1 0-4.1l1.3 0c0 0-.03 3.93 0 3.9c0 .9.4 1.7 1.4 1.7c1.1 0 1.6-.7 1.6-1.7c-.02.04 0-3.9 0-3.9l1.2 0c0 0 .05 5.32 0 5.3c0 .5.1 1 .1 1.2c0 0-1.2 0-1.2 0c0-.1-.1-.5-.1-.8c0 0 0 0 0 0zm3.4.8l0-6.5l1.3 0l0 6.5l-1.3 0zm.6-9.8c.5 0 .9.4.9.9c0 .5-.4.9-.9.9c-.5 0-.9-.4-.9-.9c0-.5.4-.9.9-.9zm5.8 8.1c0-1.2.8-1.8 2-2c0 0 1.7-.2 1.7-.2c.4-.1.5-.3.5-.5c0-.7-.4-1.2-1.4-1.2c-.9 0-1.4.6-1.5 1.3c0 0-1.2-.3-1.2-.3c.2-1.2 1.3-2.1 2.7-2.1c1.9 0 2.7 1.1 2.7 2.4c0 0 0 3.3 0 3.3c0 .5 0 .9.1 1c0 0-1.3 0-1.3 0c0-.1 0-.4 0-.9c-.3.5-1 1.1-2.1 1.1c-1.4 0-2.2-.9-2.2-1.9c0 0 0 0 0 0zm4.2-1.1c.02.04 0-.3 0-.3c0 0-1.97.34-2 .3c-.5.1-.9.4-.9 1c0 .5.4 1 1 1c1.1 0 1.9-.5 1.9-2zm6.2 2.8l-1.3 0l-2.6-6.5l1.4 0l1.9 5l1.9-5l1.3 0l-2.6 6.5zm3.4-1.7c0-1.2.8-1.8 1.9-2c0 0 1.8-.2 1.8-.2c.4-.1.5-.3.5-.5c0-.7-.4-1.2-1.4-1.2c-.9 0-1.4.6-1.5 1.3c0 0-1.2-.3-1.2-.3c.1-1.2 1.3-2.1 2.7-2.1c1.9 0 2.7 1.1 2.7 2.4c0 0 0 3.3 0 3.3c0 .5 0 .9 0 1c0 0-1.2 0-1.2 0c0-.1-.1-.4-.1-.9c-.3.5-.9 1.1-2.1 1.1c-1.3 0-2.1-.9-2.1-1.9c0 0 0 0 0 0zm4.2-1.1c-.01.04 0-.3 0-.3c0 0-2 .34-2 .3c-.5.1-.9.4-.9 1c0 .5.4 1 1 1c1.1 0 1.9-.5 1.9-2zm3.2 2.8l0-6.5l1.3 0l0 6.5l-1.3 0zm.6-9.8c.6 0 1 .4 1 .9c0 .5-.4.9-1 .9c-.4 0-.9-.4-.9-.9c0-.5.5-.9.9-.9zm7.2 5.9c0-.9-.6-1.7-1.8-1.7c-1 0-1.7.9-1.7 1.7c0 0 3.5 0 3.5 0zm1.3 2.1c-.4 1.1-1.4 2-2.9 2c-1.8 0-3.3-1.2-3.3-3.4c0-2.1 1.5-3.5 3.1-3.5c2 0 3.1 1.4 3.1 3.4c0 .2 0 .4 0 .4c0 0-4.9 0-4.9 0c.1 1.2.9 2 2 2c1 0 1.6-.6 1.8-1.3c0 0 1.1.4 1.1.4zm2.9 1.8l-1.2 0l0-6.5l1.2 0c0 0 0 .96 0 1c.5-.9 1.2-1.2 2-1.2c1.6 0 2.3 1.2 2.3 2.6c.02 0 0 4.1 0 4.1l-1.2 0c0 0-.05-3.88 0-3.9c0-.9-.4-1.6-1.6-1.6c-1 0-1.5.8-1.5 1.8c.03-.03 0 3.7 0 3.7zm8-6.5l1.5 0l0 1.2l-1.5 0c0 0 .05 3.35 0 3.4c0 .5.3.8 1 .8c.1 0 .3 0 .5 0c0 0 0 1.1 0 1.1c-.2 0-.5.1-.9.1c-1.1 0-1.8-.7-1.8-1.9c-.02.04 0-3.5 0-3.5l-1.3 0l0-1.2c0 0 .39.03.4 0c.7 0 1-.4 1-1c-.01.03 0-1 0-1l1.1 0l0 2z" stroke="none" fill="#144542"/></g><g id="Polygon186603"><path d="m4.1 156.7l-1.3 0l-2.7-6.5l1.5 0l1.8 5l1.9-5l1.3 0l-2.5 6.5zm8.4-3.2c0-1.5-1-2.3-2.1-2.3c-1 0-2 .8-2 2.3c0 1.5 1 2.3 2 2.3c1.1 0 2.1-.8 2.1-2.3zm1.3 0c0 2-1.4 3.4-3.4 3.4c-1.9 0-3.3-1.4-3.3-3.4c0-2 1.4-3.5 3.3-3.5c2 0 3.4 1.5 3.4 3.5zm1.6 3.2l0-6.5l1.2 0l0 6.5l-1.2 0zm.6-9.8c.5 0 .9.4.9.9c0 .5-.4.9-.9.9c-.5 0-.9-.4-.9-.9c0-.5.4-.9.9-.9zm6.4 4.6c-.2 0-.4 0-.6 0c-1 0-1.7.5-1.7 2c-.04-.03 0 3.2 0 3.2l-1.3 0l0-6.5l1.2 0c0 0 .03 1.16 0 1.2c.5-1 1.3-1.3 2-1.3c.2 0 .3 0 .4.1c0 0 0 1.3 0 1.3zm5.7 1.3c-.1-.9-.7-1.7-1.8-1.7c-1.1 0-1.7.9-1.8 1.7c0 0 3.6 0 3.6 0zm1.2 2.1c-.3 1.1-1.4 2-2.9 2c-1.7 0-3.2-1.2-3.2-3.4c0-2.1 1.4-3.5 3.1-3.5c2 0 3.1 1.4 3.1 3.4c0 .2 0 .4-.1.4c0 0-4.8 0-4.8 0c0 1.2.8 2 1.9 2c1.1 0 1.6-.6 1.8-1.3c0 0 1.1.4 1.1.4zm7.7.9c1.2 0 1.9-1 1.9-2.4c0-1.3-.7-2.2-1.9-2.2c-1.1 0-1.9.9-1.9 2.3c0 1.3.7 2.3 1.9 2.3zm1.9-.1c-.3.7-1 1.2-2 1.2c-1.9 0-3.1-1.5-3.1-3.4c0-1.9 1.3-3.4 3.1-3.4c1.2 0 1.8.5 2 1c-.01.05 0-4.2 0-4.2l1.2 0c0 0 .05 8.62 0 8.6c0 .6.1 1.1.1 1.2c0 0-1.2 0-1.2 0c0-.1-.1-.5-.1-.9c0 0 0-.1 0-.1zm7.8-2.9c0-.9-.7-1.7-1.8-1.7c-1.1 0-1.7.9-1.8 1.7c0 0 3.6 0 3.6 0zm1.3 2.1c-.4 1.1-1.4 2-3 2c-1.7 0-3.2-1.2-3.2-3.4c0-2.1 1.5-3.5 3.1-3.5c2 0 3.1 1.4 3.1 3.4c0 .2 0 .4 0 .4c0 0-4.9 0-4.9 0c0 1.2.9 2 1.9 2c1.1 0 1.6-.6 1.9-1.3c0 0 1.1.4 1.1.4zm-2.6-5.5l-1.1 0l1.2-2l1.6 0l-1.7 2zm4.2 9.9l0-9.1l1.3 0c0 0-.05 1.04 0 1c.3-.6 1.1-1.1 2.1-1.1c2 0 3 1.5 3 3.4c0 1.9-1.1 3.4-3 3.4c-1 0-1.8-.5-2.1-1.1c-.02.04 0 3.5 0 3.5l-1.3 0zm5.1-5.8c0-1.3-.7-2.3-1.9-2.3c-1.2 0-1.9 1-1.9 2.3c0 1.3.7 2.3 1.9 2.3c1.2 0 1.9-1 1.9-2.3c0 0 0 0 0 0zm2.5 1.5c0-1.2.9-1.8 2-2c0 0 1.8-.2 1.8-.2c.3-.1.5-.3.5-.5c0-.7-.5-1.2-1.5-1.2c-.8 0-1.3.6-1.4 1.3c0 0-1.2-.3-1.2-.3c.1-1.2 1.2-2.1 2.6-2.1c2 0 2.7 1.1 2.7 2.4c0 0 0 3.3 0 3.3c0 .5.1.9.1 1c0 0-1.2 0-1.2 0c-.1-.1-.1-.4-.1-.9c-.3.5-.9 1.1-2.1 1.1c-1.3 0-2.2-.9-2.2-1.9c0 0 0 0 0 0zm4.3-1.1c-.05.04 0-.3 0-.3c0 0-2.03.34-2 .3c-.6.1-1 .4-1 1c0 .5.4 1 1.1 1c1 0 1.9-.5 1.9-2zm3.7.7c.1.7.6 1.2 1.5 1.2c.8 0 1.2-.4 1.2-.8c0-.4-.3-.7-.9-.9c0 0-1.1-.2-1.1-.2c-1-.2-1.6-.9-1.6-1.8c0-1.1 1-2.1 2.3-2.1c1.8 0 2.3 1.2 2.5 1.8c0 0-1.2.4-1.2.4c0-.4-.3-1.1-1.3-1.1c-.7 0-1.1.4-1.1.9c0 .4.3.6.8.8c0 0 1 .2 1 .2c1.2.2 1.8 1 1.8 1.9c0 .9-.8 2-2.4 2c-1.8 0-2.5-1.1-2.6-1.9c0 0 1.1-.4 1.1-.4zm6.1 0c.1.7.6 1.2 1.5 1.2c.8 0 1.2-.4 1.2-.8c0-.4-.3-.7-.9-.9c0 0-1.1-.2-1.1-.2c-1-.2-1.6-.9-1.6-1.8c0-1.1 1-2.1 2.3-2.1c1.8 0 2.3 1.2 2.5 1.8c0 0-1.2.4-1.2.4c0-.4-.3-1.1-1.3-1.1c-.7 0-1.1.4-1.1.9c0 .4.3.6.8.8c0 0 1 .2 1 .2c1.2.2 1.8 1 1.8 1.9c0 .9-.8 2-2.4 2c-1.8 0-2.5-1.1-2.6-1.9c0 0 1.1-.4 1.1-.4zm9.9-1.8c0-.9-.6-1.7-1.8-1.7c-1 0-1.7.9-1.7 1.7c0 0 3.5 0 3.5 0zm1.3 2.1c-.4 1.1-1.4 2-2.9 2c-1.8 0-3.3-1.2-3.3-3.4c0-2.1 1.5-3.5 3.1-3.5c2 0 3.1 1.4 3.1 3.4c0 .2 0 .4 0 .4c0 0-4.9 0-4.9 0c0 1.2.9 2 2 2c1 0 1.5-.6 1.8-1.3c0 0 1.1.4 1.1.4zm-2.6-5.5l-1 0l1.1-2l1.6 0l-1.7 2zm4.9 5.6c.6 0 1.1.4 1.1 1.2c0 1.8-1.2 2.6-2 2.7c0 0 0-.7 0-.7c.7-.2 1.1-.8 1.1-1.5c0 0-.1.1-.3.1c-.5 0-.9-.4-.9-.9c0-.5.4-.9 1-.9zm9.1.8c1.2 0 1.9-1 1.9-2.4c0-1.3-.7-2.2-1.8-2.2c-1.2 0-2 .9-2 2.3c0 1.3.7 2.3 1.9 2.3zm1.9-.1c-.3.7-1 1.2-2 1.2c-1.9 0-3.1-1.5-3.1-3.4c0-1.9 1.3-3.4 3.1-3.4c1.2 0 1.8.5 2 1c.01.05 0-4.2 0-4.2l1.3 0c0 0-.04 8.62 0 8.6c0 .6 0 1.1 0 1.2c0 0-1.2 0-1.2 0c0-.1-.1-.5-.1-.9c0 0 0-.1 0-.1zm7.8-2.9c0-.9-.6-1.7-1.8-1.7c-1.1 0-1.7.9-1.8 1.7c0 0 3.6 0 3.6 0zm1.3 2.1c-.4 1.1-1.4 2-2.9 2c-1.8 0-3.3-1.2-3.3-3.4c0-2.1 1.5-3.5 3.1-3.5c2 0 3.1 1.4 3.1 3.4c0 .2 0 .4 0 .4c0 0-4.9 0-4.9 0c0 1.2.9 2 2 2c1 0 1.5-.6 1.8-1.3c0 0 1.1.4 1.1.4zm2.2-.3c.1.7.6 1.2 1.5 1.2c.7 0 1.1-.4 1.1-.8c0-.4-.3-.7-.8-.9c0 0-1.1-.2-1.1-.2c-1.1-.2-1.7-.9-1.7-1.8c0-1.1 1.1-2.1 2.3-2.1c1.8 0 2.4 1.2 2.5 1.8c0 0-1.1.4-1.1.4c-.1-.4-.3-1.1-1.4-1.1c-.6 0-1 .4-1 .9c0 .4.2.6.7.8c0 0 1.1.2 1.1.2c1.1.2 1.8 1 1.8 1.9c0 .9-.8 2-2.4 2c-1.8 0-2.6-1.1-2.7-1.9c0 0 1.2-.4 1.2-.4z" stroke="none" fill="#144542"/></g><g id="Polygon186602"><path d="m5.4 139.5c1.8 0 3.5-1.3 3.5-3.8c0-2.5-1.7-3.7-3.5-3.7c-1.8 0-3.4 1.2-3.4 3.7c0 2.5 1.6 3.8 3.4 3.8zm0-8.8c2.4 0 4.8 1.8 4.8 5c0 3.2-2.4 5-4.8 5c-2.4 0-4.8-1.8-4.8-5c0-3.2 2.4-5 4.8-5zm7.8 9.8l-1.3 0l0-6.5l1.2 0c0 0 .05.96 0 1c.5-.9 1.3-1.2 2-1.2c1.6 0 2.4 1.2 2.4 2.6c-.03 0 0 4.1 0 4.1l-1.3 0c0 0 0-3.88 0-3.9c0-.9-.4-1.6-1.5-1.6c-1 0-1.5.8-1.5 1.8c-.03-.03 0 3.7 0 3.7zm10.7-3.9c-.1-.9-.7-1.7-1.8-1.7c-1.1 0-1.7.9-1.8 1.7c0 0 3.6 0 3.6 0zm1.2 2.1c-.3 1.1-1.4 2-2.9 2c-1.7 0-3.2-1.2-3.2-3.4c0-2.1 1.4-3.5 3.1-3.5c2 0 3.1 1.4 3.1 3.4c0 .2 0 .4 0 .4c0 0-4.9 0-4.9 0c0 1.2.8 2 1.9 2c1.1 0 1.6-.6 1.9-1.3c0 0 1 .4 1 .4zm9.6 4.4c0 0 .05-3.5 0-3.5c-.3.7-1 1.1-2 1.1c-1.8 0-3.1-1.6-3.1-3.4c0-1.9 1.2-3.4 3.1-3.4c1.1 0 1.8.5 2.1 1.1c-.02.03 0-1 0-1l1.2 0l0 9.1l-1.3 0zm-1.9-3.5c1.2 0 2-1 2-2.3c0-1.4-.8-2.3-2-2.3c-1.1 0-1.9.9-1.9 2.3c0 1.3.8 2.3 1.9 2.3zm9.5.1c-.3.7-1.2 1-1.9 1c-1.5 0-2.4-1.1-2.4-2.6c-.04.02 0-4.1 0-4.1l1.2 0c0 0 .03 3.93 0 3.9c0 .9.4 1.7 1.5 1.7c1 0 1.5-.7 1.5-1.7c.04.04 0-3.9 0-3.9l1.3 0c0 0 .01 5.32 0 5.3c0 .5 0 1 .1 1.2c0 0-1.2 0-1.2 0c-.1-.1-.1-.5-.1-.8c0 0 0 0 0 0zm3.4.8l0-6.5l1.2 0l0 6.5l-1.2 0zm.6-9.8c.5 0 .9.4.9.9c0 .5-.4.9-.9.9c-.5 0-.9-.4-.9-.9c0-.5.4-.9.9-.9zm5.8 8.1c0-1.2.8-1.8 1.9-2c0 0 1.8-.2 1.8-.2c.4-.1.5-.3.5-.5c0-.7-.4-1.2-1.4-1.2c-.9 0-1.4.6-1.5 1.3c0 0-1.2-.3-1.2-.3c.1-1.2 1.2-2.1 2.6-2.1c2 0 2.7 1.1 2.7 2.4c0 0 0 3.3 0 3.3c0 .5.1.9.1 1c0 0-1.2 0-1.2 0c0-.1-.1-.4-.1-.9c-.3.5-.9 1.1-2.1 1.1c-1.3 0-2.1-.9-2.1-1.9c0 0 0 0 0 0zm4.2-1.1c-.02.04 0-.3 0-.3c0 0-2 .34-2 .3c-.5.1-.9.4-.9 1c0 .5.4 1 1 1c1 0 1.9-.5 1.9-2zm6.2 1.1c0-1.2.8-1.8 2-2c0 0 1.7-.2 1.7-.2c.4-.1.5-.3.5-.5c0-.7-.4-1.2-1.4-1.2c-.9 0-1.4.6-1.5 1.3c0 0-1.2-.3-1.2-.3c.2-1.2 1.3-2.1 2.7-2.1c1.9 0 2.7 1.1 2.7 2.4c0 0 0 3.3 0 3.3c0 .5 0 .9.1 1c0 0-1.3 0-1.3 0c0-.1 0-.4 0-.9c-.3.5-1 1.1-2.1 1.1c-1.4 0-2.2-.9-2.2-1.9c0 0 0 0 0 0zm4.2-1.1c.02.04 0-.3 0-.3c0 0-1.97.34-2 .3c-.5.1-.9.4-.9 1c0 .5.4 1 1 1c1.1 0 1.9-.5 1.9-2zm5-3.7l1.4 0l0 1.2l-1.4 0c0 0-.04 3.35 0 3.4c0 .5.2.8.9.8c.1 0 .4 0 .5 0c0 0 0 1.1 0 1.1c-.1 0-.5.1-.9.1c-1.1 0-1.8-.7-1.8-1.9c-.01.04 0-3.5 0-3.5l-1.3 0l0-1.2c0 0 .4.03.4 0c.7 0 1-.4 1-1c0 .03 0-1 0-1l1.2 0l0 2zm4.7 0l1.5 0l0 1.2l-1.5 0c0 0 .05 3.35 0 3.4c0 .5.3.8 1 .8c.1 0 .3 0 .5 0c0 0 0 1.1 0 1.1c-.2 0-.5.1-.9.1c-1.1 0-1.8-.7-1.8-1.9c-.02.04 0-3.5 0-3.5l-1.3 0l0-1.2c0 0 .39.03.4 0c.7 0 1-.4 1-1c-.01.03 0-1 0-1l1.1 0l0 2zm7.4 2.6c0-.9-.6-1.7-1.7-1.7c-1.1 0-1.7.9-1.8 1.7c0 0 3.5 0 3.5 0zm1.3 2.1c-.3 1.1-1.4 2-2.9 2c-1.7 0-3.3-1.2-3.3-3.4c0-2.1 1.5-3.5 3.2-3.5c2 0 3.1 1.4 3.1 3.4c0 .2 0 .4-.1.4c0 0-4.8 0-4.8 0c0 1.2.8 2 1.9 2c1.1 0 1.6-.6 1.8-1.3c0 0 1.1.4 1.1.4zm1.7 1.8l0-6.5l1.2 0l0 6.5l-1.2 0zm.6-9.8c.5 0 .9.4.9.9c0 .5-.4.9-.9.9c-.5 0-.9-.4-.9-.9c0-.5.4-.9.9-.9zm4.1 9.8l-1.3 0l0-6.5l1.2 0c0 0 .05.96 0 1c.5-.9 1.3-1.2 2-1.2c1.6 0 2.4 1.2 2.4 2.6c-.03 0 0 4.1 0 4.1l-1.3 0c0 0 0-3.88 0-3.9c0-.9-.4-1.6-1.5-1.6c-1 0-1.5.8-1.5 1.8c-.03-.03 0 3.7 0 3.7zm8-6.5l1.4 0l0 1.2l-1.4 0c0 0-.01 3.35 0 3.4c0 .5.2.8.9.8c.2 0 .4 0 .5 0c0 0 0 1.1 0 1.1c-.1 0-.4.1-.9.1c-1.1 0-1.8-.7-1.8-1.9c.03.04 0-3.5 0-3.5l-1.2 0l0-1.2c0 0 .33.03.3 0c.7 0 1-.4 1-1c.03.03 0-1 0-1l1.2 0l0 2zm3.9 4.8c.6 0 1.1.4 1.1 1.2c0 1.8-1.1 2.6-2 2.7c0 0 0-.7 0-.7c.7-.2 1.1-.8 1.2-1.5c-.1 0-.2.1-.3.1c-.5 0-.9-.4-.9-.9c0-.5.4-.9.9-.9z" stroke="none" fill="#144542"/></g><g id="Polygon186601"><path d="m4.7 119.1c-.2 0-.4 0-.6 0c-1 0-1.8.5-1.8 2c.05-.03 0 3.2 0 3.2l-1.2 0l0-6.5l1.2 0c0 0 .02 1.16 0 1.2c.5-1 1.3-1.3 2-1.3c.1 0 .3 0 .4.1c0 0 0 1.3 0 1.3zm5.6 1.3c0-.9-.6-1.7-1.7-1.7c-1.1 0-1.8.9-1.8 1.7c0 0 3.5 0 3.5 0zm1.3 2.1c-.3 1.1-1.4 2-2.9 2c-1.7 0-3.3-1.2-3.3-3.4c0-2.1 1.5-3.5 3.1-3.5c2 0 3.2 1.4 3.2 3.4c0 .2-.1.4-.1.4c0 0-4.9 0-4.9 0c.1 1.2.9 2 2 2c1.1 0 1.6-.6 1.8-1.3c0 0 1.1.4 1.1.4zm1.7 1.8l0-6.5l1.2 0c0 0 0 .89 0 .9c.4-.7 1.2-1.1 2-1.1c.8 0 1.6.4 1.9 1.3c.5-1 1.4-1.3 2.2-1.3c1.1 0 2.2.8 2.2 2.5c.03.01 0 4.2 0 4.2l-1.2 0c0 0-.03-4.06 0-4.1c0-.8-.4-1.4-1.4-1.4c-.9 0-1.5.7-1.5 1.6c0-.01 0 3.9 0 3.9l-1.3 0c0 0 .03-4.06 0-4.1c0-.8-.4-1.4-1.3-1.4c-1 0-1.6.6-1.6 1.6c.04.01 0 3.9 0 3.9l-1.2 0zm11.1-1.7c0-1.2.9-1.8 2-2c0 0 1.8-.2 1.8-.2c.4-.1.5-.3.5-.5c0-.7-.4-1.2-1.4-1.2c-.9 0-1.4.6-1.5 1.3c0 0-1.2-.3-1.2-.3c.1-1.2 1.2-2.1 2.6-2.1c2 0 2.7 1.1 2.7 2.4c0 0 0 3.3 0 3.3c0 .5.1.9.1 1c0 0-1.2 0-1.2 0c0-.1-.1-.4-.1-.9c-.3.5-.9 1.1-2.1 1.1c-1.3 0-2.2-.9-2.2-1.9c0 0 0 0 0 0zm4.3-1.1c-.03.04 0-.3 0-.3c0 0-2.01.34-2 .3c-.6.1-1 .4-1 1c0 .5.4 1 1.1 1c1 0 1.9-.5 1.9-2zm6.8-2.4c-.2 0-.4 0-.5 0c-1.1 0-1.8.5-1.8 2c-.02-.03 0 3.2 0 3.2l-1.3 0l0-6.5l1.3 0c0 0-.05 1.16 0 1.2c.4-1 1.2-1.3 1.9-1.3c.2 0 .3 0 .4.1c0 0 0 1.3 0 1.3zm5.9 7.8c0 0-.04-3.5 0-3.5c-.4.7-1.1 1.1-2.1 1.1c-1.8 0-3-1.6-3-3.4c0-1.9 1.1-3.4 3-3.4c1.1 0 1.8.5 2.1 1.1c-.01.03 0-1 0-1l1.2 0l0 9.1l-1.2 0zm-1.9-3.5c1.1 0 1.9-1 1.9-2.3c0-1.4-.8-2.3-1.9-2.3c-1.2 0-1.9.9-1.9 2.3c0 1.3.7 2.3 1.9 2.3zm9.4.1c-.3.7-1.1 1-1.9 1c-1.5 0-2.4-1.1-2.4-2.6c-.02.02 0-4.1 0-4.1l1.2 0c0 0 .04 3.93 0 3.9c0 .9.5 1.7 1.5 1.7c1 0 1.6-.7 1.6-1.7c-.04.04 0-3.9 0-3.9l1.2 0c0 0 .02 5.32 0 5.3c0 .5.1 1 .1 1.2c0 0-1.2 0-1.2 0c0-.1-.1-.5-.1-.8c0 0 0 0 0 0zm3-.9c0-1.2.8-1.8 2-2c0 0 1.7-.2 1.7-.2c.4-.1.5-.3.5-.5c0-.7-.4-1.2-1.4-1.2c-.9 0-1.4.6-1.5 1.3c0 0-1.2-.3-1.2-.3c.2-1.2 1.3-2.1 2.7-2.1c1.9 0 2.7 1.1 2.7 2.4c0 0 0 3.3 0 3.3c0 .5 0 .9.1 1c0 0-1.3 0-1.3 0c0-.1-.1-.4-.1-.9c-.2.5-.9 1.1-2 1.1c-1.4 0-2.2-.9-2.2-1.9c0 0 0 0 0 0zm4.2-1.1c.01.04 0-.3 0-.3c0 0-1.98.34-2 .3c-.5.1-.9.4-.9 1c0 .5.4 1 1 1c1.1 0 1.9-.5 1.9-2zm3.2 2.8l0-9.8l1.3 0c0 0 0 4.25 0 4.2c.3-.5 1.1-1.1 2.1-1.1c2 0 3 1.6 3 3.4c0 2-1.1 3.5-3 3.5c-1 0-1.7-.4-2.1-1.1c0-.02 0 .9 0 .9l-1.3 0zm3.2-5.5c-1.1 0-1.9.8-1.9 2.2c0 1.4.8 2.4 1.9 2.4c1.2 0 1.9-1 1.9-2.4c0-1.4-.7-2.2-1.9-2.2zm4.9 5.5l0-9.8l1.2 0l0 9.8l-1.2 0zm7.8-3.9c-.1-.9-.7-1.7-1.8-1.7c-1.1 0-1.7.9-1.8 1.7c0 0 3.6 0 3.6 0zm1.2 2.1c-.3 1.1-1.4 2-2.9 2c-1.7 0-3.2-1.2-3.2-3.4c0-2.1 1.4-3.5 3.1-3.5c2 0 3.1 1.4 3.1 3.4c0 .2 0 .4-.1.4c0 0-4.8 0-4.8 0c0 1.2.8 2 1.9 2c1.1 0 1.6-.6 1.8-1.3c0 0 1.1.4 1.1.4zm7.7.9c1.2 0 1.9-1 1.9-2.4c0-1.3-.7-2.2-1.9-2.2c-1.1 0-1.9.9-1.9 2.3c0 1.3.7 2.3 1.9 2.3zm1.9-.1c-.3.7-1 1.2-2 1.2c-1.9 0-3.1-1.5-3.1-3.4c0-1.9 1.3-3.4 3.1-3.4c1.2 0 1.8.5 2 1c0 .05 0-4.2 0-4.2l1.2 0c0 0 .05 8.62 0 8.6c0 .6.1 1.1.1 1.2c0 0-1.2 0-1.2 0c0-.1-.1-.5-.1-.9c0 0 0-.1 0-.1zm3.8-8.7c.5 0 1 .4 1 1.2c0 1.7-1.1 2.4-1.8 2.5c0 0 0-.7 0-.7c.6-.1 1-.7 1-1.3c0 0-.1 0-.3 0c-.5 0-.8-.3-.8-.8c0-.5.4-.9.9-.9zm6.2 5.8c0-.9-.6-1.7-1.8-1.7c-1.1 0-1.7.9-1.8 1.7c0 0 3.6 0 3.6 0zm1.3 2.1c-.4 1.1-1.4 2-2.9 2c-1.8 0-3.3-1.2-3.3-3.4c0-2.1 1.5-3.5 3.1-3.5c2 0 3.1 1.4 3.1 3.4c0 .2 0 .4 0 .4c0 0-4.9 0-4.9 0c0 1.2.9 2 2 2c1 0 1.5-.6 1.8-1.3c0 0 1.1.4 1.1.4zm1.2.1c0-1.2.9-1.8 2-2c0 0 1.8-.2 1.8-.2c.4-.1.5-.3.5-.5c0-.7-.5-1.2-1.4-1.2c-.9 0-1.4.6-1.5 1.3c0 0-1.2-.3-1.2-.3c.1-1.2 1.2-2.1 2.6-2.1c2 0 2.7 1.1 2.7 2.4c0 0 0 3.3 0 3.3c0 .5.1.9.1 1c0 0-1.2 0-1.2 0c-.1-.1-.1-.4-.1-.9c-.3.5-.9 1.1-2.1 1.1c-1.3 0-2.2-.9-2.2-1.9c0 0 0 0 0 0zm4.3-1.1c-.04.04 0-.3 0-.3c0 0-2.02.34-2 .3c-.6.1-1 .4-1 1c0 .5.4 1 1.1 1c1 0 1.9-.5 1.9-2zm4-.4c0 1.5.9 2.3 1.9 2.3c1.3 0 1.7-.9 1.8-1.4c0 0 1.2.5 1.2.5c-.3.9-1.3 2-3 2c-1.8 0-3.2-1.5-3.2-3.4c0-2.1 1.4-3.5 3.2-3.5c1.8 0 2.6 1.1 2.9 2.1c0 0-1.1.5-1.1.5c-.2-.7-.7-1.4-1.8-1.4c-1 0-1.9.8-1.9 2.3zm7.6 3.2l-1.2 0l0-9.8l1.2 0c0 0 .02 4.08 0 4.1c.5-.7 1.3-1 2-1c1.5 0 2.3 1.2 2.3 2.6c.02 0 0 4.1 0 4.1l-1.3 0c0 0 .05-3.88 0-3.9c0-.9-.3-1.6-1.5-1.6c-.9 0-1.4.7-1.5 1.7c.02 0 0 3.8 0 3.8z" stroke="none" fill="#144542"/></g><g id="Polygon186600"><path d="m1.1 108.1l0-9.8l1.2 0l0 9.8l-1.2 0zm3-1.7c0-1.2.9-1.8 2-2c0 0 1.7-.2 1.7-.2c.4-.1.5-.3.5-.5c0-.7-.4-1.2-1.4-1.2c-.9 0-1.4.6-1.4 1.3c0 0-1.3-.3-1.3-.3c.2-1.2 1.3-2.1 2.7-2.1c1.9 0 2.7 1.1 2.7 2.4c0 0 0 3.3 0 3.3c0 .5.1.9.1 1c0 0-1.3 0-1.3 0c0-.1 0-.4 0-.9c-.3.5-1 1.1-2.1 1.1c-1.3 0-2.2-.9-2.2-1.9c0 0 0 0 0 0zm4.2-1.1c.03.04 0-.3 0-.3c0 0-1.96.34-2 .3c-.5.1-.9.4-.9 1c0 .5.4 1 1.1 1c1 0 1.8-.5 1.8-2zm6.6 5.4l0-9.1l1.3 0c0 0-.03 1.04 0 1c.3-.6 1.1-1.1 2.1-1.1c2 0 3 1.5 3 3.4c0 1.9-1.1 3.4-3 3.4c-1 0-1.7-.5-2.1-1.1c0 .04 0 3.5 0 3.5l-1.3 0zm5.1-5.8c0-1.3-.7-2.3-1.9-2.3c-1.1 0-1.9 1-1.9 2.3c0 1.3.8 2.3 1.9 2.3c1.2 0 1.9-1 1.9-2.3c0 0 0 0 0 0zm7.3-.7c0-.9-.6-1.7-1.8-1.7c-1 0-1.7.9-1.7 1.7c0 0 3.5 0 3.5 0zm1.3 2.1c-.4 1.1-1.4 2-2.9 2c-1.8 0-3.3-1.2-3.3-3.4c0-2.1 1.5-3.5 3.1-3.5c2 0 3.1 1.4 3.1 3.4c0 .2 0 .4 0 .4c0 0-4.9 0-4.9 0c.1 1.2.9 2 2 2c1 0 1.6-.6 1.8-1.3c0 0 1.1.4 1.1.4zm5.3-3.4c-.2 0-.4 0-.6 0c-1 0-1.8.5-1.8 2c.03-.03 0 3.2 0 3.2l-1.2 0l0-6.5l1.2 0c0 0 .01 1.16 0 1.2c.5-1 1.3-1.3 2-1.3c.1 0 .3 0 .4.1c0 0 0 1.3 0 1.3zm3.4-.1l0 5.3l-1.3 0l0-5.3l-1.3 0l0-1.2l1.3 0c0 0-.05-1.07 0-1.1c0-1.4.9-2.2 2.1-2.2c.4 0 .7.1.7.1c0 0 0 1.2 0 1.2c0-.1-.2-.1-.5-.1c-.5 0-1 .2-1 1.1c-.04 0 0 1 0 1l1.5 0l0 1.2l-1.5 0zm7.4 2.1c0-1.5-.9-2.3-2-2.3c-1.1 0-2 .8-2 2.3c0 1.5.9 2.3 2 2.3c1.1 0 2-.8 2-2.3zm1.3 0c0 2-1.4 3.4-3.3 3.4c-1.9 0-3.3-1.4-3.3-3.4c0-2 1.4-3.5 3.3-3.5c1.9 0 3.3 1.5 3.3 3.5zm5.2-2c-.1 0-.3 0-.5 0c-1.1 0-1.8.5-1.8 2c.01-.03 0 3.2 0 3.2l-1.3 0l0-6.5l1.3 0c0 0-.02 1.16 0 1.2c.5-1 1.3-1.3 1.9-1.3c.2 0 .4 0 .4.1c0 0 0 1.3 0 1.3zm1.4 5.2l0-6.5l1.2 0c0 0 .01.89 0 .9c.4-.7 1.2-1.1 2-1.1c.8 0 1.6.4 1.9 1.3c.5-1 1.4-1.3 2.2-1.3c1.1 0 2.2.8 2.2 2.5c.04.01 0 4.2 0 4.2l-1.2 0c0 0-.02-4.06 0-4.1c0-.8-.4-1.4-1.4-1.4c-.9 0-1.5.7-1.5 1.6c.01-.01 0 3.9 0 3.9l-1.3 0c0 0 .04-4.06 0-4.1c0-.8-.4-1.4-1.3-1.4c-.9 0-1.6.6-1.6 1.6c.05.01 0 3.9 0 3.9l-1.2 0zm11.2-1.7c0-1.2.8-1.8 1.9-2c0 0 1.8-.2 1.8-.2c.4-.1.5-.3.5-.5c0-.7-.4-1.2-1.4-1.2c-.9 0-1.4.6-1.5 1.3c0 0-1.2-.3-1.2-.3c.1-1.2 1.2-2.1 2.7-2.1c1.9 0 2.7 1.1 2.7 2.4c0 0 0 3.3 0 3.3c0 .5 0 .9 0 1c0 0-1.2 0-1.2 0c0-.1-.1-.4-.1-.9c-.3.5-.9 1.1-2.1 1.1c-1.3 0-2.1-.9-2.1-1.9c0 0 0 0 0 0zm4.2-1.1c-.01.04 0-.3 0-.3c0 0-2 .34-2 .3c-.5.1-.9.4-.9 1c0 .5.4 1 1 1c1 0 1.9-.5 1.9-2zm4.5 2.8l-1.3 0l0-6.5l1.3 0c0 0-.03.96 0 1c.4-.9 1.2-1.2 2-1.2c1.5 0 2.3 1.2 2.3 2.6c-.01 0 0 4.1 0 4.1l-1.3 0c0 0 .02-3.88 0-3.9c0-.9-.4-1.6-1.5-1.6c-1 0-1.5.8-1.5 1.8c-.01-.03 0 3.7 0 3.7zm7.1-3.2c0 1.5.9 2.3 2 2.3c1.2 0 1.6-.9 1.8-1.4c0 0 1.1.5 1.1.5c-.3.9-1.3 2-2.9 2c-1.9 0-3.3-1.5-3.3-3.4c0-2.1 1.4-3.5 3.2-3.5c1.8 0 2.7 1.1 2.9 2.1c0 0-1.1.5-1.1.5c-.2-.7-.7-1.4-1.8-1.4c-1 0-1.9.8-1.9 2.3zm10.7-.7c-.1-.9-.7-1.7-1.8-1.7c-1.1 0-1.7.9-1.8 1.7c0 0 3.6 0 3.6 0zm1.3 2.1c-.4 1.1-1.4 2-3 2c-1.7 0-3.2-1.2-3.2-3.4c0-2.1 1.4-3.5 3.1-3.5c2 0 3.1 1.4 3.1 3.4c0 .2 0 .4 0 .4c0 0-4.9 0-4.9 0c0 1.2.8 2 1.9 2c1.1 0 1.6-.6 1.9-1.3c0 0 1.1.4 1.1.4z" stroke="none" fill="#144542"/></g><g id="Polygon186599"><path d="m1.1 91.9l0-9.8l1.2 0l0 9.8l-1.2 0zm3.8-9.7c.5 0 1 .4 1 1.2c0 1.7-1.1 2.4-1.8 2.5c0 0 0-.7 0-.7c.6-.1 1-.7 1-1.3c-.1 0-.1 0-.3 0c-.5 0-.8-.3-.8-.8c0-.5.4-.9.9-.9zm1.7 8c0-1.2.8-1.8 2-2c0 0 1.7-.2 1.7-.2c.4-.1.5-.3.5-.5c0-.7-.4-1.2-1.4-1.2c-.9 0-1.4.6-1.5 1.3c0 0-1.2-.3-1.2-.3c.2-1.2 1.3-2.1 2.7-2.1c1.9 0 2.7 1.1 2.7 2.4c0 0 0 3.3 0 3.3c0 .5 0 .9.1 1c0 0-1.3 0-1.3 0c0-.1 0-.4 0-.9c-.3.5-1 1.1-2.1 1.1c-1.4 0-2.2-.9-2.2-1.9c0 0 0 0 0 0zm4.2-1.1c.01.04 0-.3 0-.3c0 0-1.97.34-2 .3c-.5.1-.9.4-.9 1c0 .5.4 1 1 1c1.1 0 1.9-.5 1.9-2zm4.5 2.8l-1.2 0l0-6.5l1.2 0c0 0-.01.96 0 1c.5-.9 1.2-1.2 2-1.2c1.5 0 2.3 1.2 2.3 2.6c.01 0 0 4.1 0 4.1l-1.3 0c0 0 .05-3.88 0-3.9c0-.9-.3-1.6-1.5-1.6c-1 0-1.5.8-1.5 1.8c.02-.03 0 3.7 0 3.7zm7.6 0l-1.3 0l0-6.5l1.3 0c0 0-.02.96 0 1c.5-.9 1.2-1.2 2-1.2c1.5 0 2.3 1.2 2.3 2.6c0 0 0 4.1 0 4.1l-1.3 0c0 0 .03-3.88 0-3.9c0-.9-.3-1.6-1.5-1.6c-1 0-1.5.8-1.5 1.8c.01-.03 0 3.7 0 3.7zm10.7-3.9c0-.9-.6-1.7-1.8-1.7c-1 0-1.7.9-1.7 1.7c0 0 3.5 0 3.5 0zm1.3 2.1c-.4 1.1-1.4 2-2.9 2c-1.8 0-3.3-1.2-3.3-3.4c0-2.1 1.5-3.5 3.1-3.5c2 0 3.1 1.4 3.1 3.4c0 .2 0 .4 0 .4c0 0-4.9 0-4.9 0c0 1.2.9 2 2 2c1 0 1.5-.6 1.8-1.3c0 0 1.1.4 1.1.4zm-2.6-5.5l-1 0l1.1-2l1.6 0l-1.7 2zm8.6 3.4c0-.9-.6-1.7-1.8-1.7c-1 0-1.7.9-1.7 1.7c0 0 3.5 0 3.5 0zm1.3 2.1c-.4 1.1-1.4 2-2.9 2c-1.8 0-3.3-1.2-3.3-3.4c0-2.1 1.5-3.5 3.1-3.5c2 0 3.1 1.4 3.1 3.4c0 .2 0 .4 0 .4c0 0-4.9 0-4.9 0c.1 1.2.9 2 2 2c1 0 1.6-.6 1.8-1.3c0 0 1.1.4 1.1.4zm4.5-3.9c0-.2 0-.3 0-.4c0-1.5 1.1-2.8 3-2.8c1.9 0 3 1.2 3 2.7c0 1.1-.6 2-1.6 2.7c0 0-1.8 1.1-1.8 1.1c-.5.3-.9.7-1 1.2c-.04-.01 4.5 0 4.5 0l0 1.2c0 0-6.17.02-6.2 0c.1-1.4.6-2.5 2.1-3.5c0 0 1.5-.9 1.5-.9c.8-.5 1.2-1.2 1.2-1.8c0-.8-.6-1.6-1.7-1.6c-1.1 0-1.7.8-1.7 1.8c0 .1 0 .3.1.4c0 0-1.4-.1-1.4-.1zm9.4 4.2c.3.3.7.6 1.3.6c.7 0 1.1-.3 1.4-.6c.6-.6.8-1.5.8-2.9c0-1.3-.2-2.2-.8-2.8c-.3-.3-.7-.6-1.4-.6c-.6 0-1 .3-1.3.6c-.6.6-.8 1.5-.8 2.8c0 1.4.2 2.3.8 2.9zm-1.3-6c.5-.9 1.4-1.4 2.6-1.4c1.3 0 2.2.5 2.7 1.4c.6.8.8 1.9.8 3.1c0 1.2-.2 2.4-.8 3.2c-.5.9-1.4 1.4-2.7 1.4c-1.2 0-2.1-.5-2.6-1.4c-.6-.8-.8-2-.8-3.2c0-1.2.2-2.3.8-3.1zm7.4 1.8c0-.2 0-.3 0-.4c0-1.5 1.1-2.8 3-2.8c1.9 0 2.9 1.2 2.9 2.7c0 1.1-.6 2-1.6 2.7c0 0-1.7 1.1-1.7 1.1c-.5.3-1 .7-1.1 1.2c-.01-.01 4.5 0 4.5 0l0 1.2c0 0-6.14.02-6.1 0c0-1.4.6-2.5 2-3.5c0 0 1.5-.9 1.5-.9c.8-.5 1.2-1.2 1.2-1.8c0-.8-.5-1.6-1.6-1.6c-1.2 0-1.7.8-1.7 1.8c0 .1 0 .3 0 .4c0 0-1.3-.1-1.3-.1zm8.3 3c.1 1 .8 1.8 1.9 1.8c1.1 0 1.9-.7 1.9-1.8c0-1.2-.9-1.8-1.9-1.8c-.6 0-1.2.2-1.6.6c-.4-.1-.8-.3-1.3-.5c.04.02 1.2-4.3 1.2-4.3l4.6 0l0 1.2l-3.7 0c0 0-.7 2.5-.7 2.5c.4-.4 1.1-.6 1.8-.6c1.7 0 3 1 3 2.9c0 1.6-1.3 2.9-3.3 2.9c-1.8 0-3.1-1.2-3.2-2.6c0 0 1.3-.3 1.3-.3zm7.4.9c.5 0 .9.4.9 1c0 .5-.4.9-.9.9c-.6 0-1-.4-1-.9c0-.6.4-1 1-1zm6.4 1.8l0-9.5l1.4 0l0 9.5l-1.4 0zm3.7 0l0-9.8l1.3 0l0 9.8l-1.3 0zm7.3-2.1c.1.7.6 1.2 1.5 1.2c.8 0 1.2-.4 1.2-.8c0-.4-.3-.7-.9-.9c0 0-1.1-.2-1.1-.2c-1-.2-1.6-.9-1.6-1.8c0-1.1 1-2.1 2.3-2.1c1.8 0 2.3 1.2 2.5 1.8c0 0-1.1.4-1.1.4c-.1-.4-.4-1.1-1.4-1.1c-.6 0-1.1.4-1.1.9c0 .4.3.6.8.8c0 0 1 .2 1 .2c1.2.2 1.8 1 1.8 1.9c0 .9-.8 2-2.4 2c-1.7 0-2.5-1.1-2.6-1.9c0 0 1.1-.4 1.1-.4zm5.1.4c0-1.2.8-1.8 1.9-2c0 0 1.8-.2 1.8-.2c.4-.1.5-.3.5-.5c0-.7-.4-1.2-1.4-1.2c-.9 0-1.4.6-1.5 1.3c0 0-1.2-.3-1.2-.3c.1-1.2 1.2-2.1 2.7-2.1c1.9 0 2.7 1.1 2.7 2.4c0 0 0 3.3 0 3.3c0 .5 0 .9 0 1c0 0-1.2 0-1.2 0c0-.1-.1-.4-.1-.9c-.3.5-.9 1.1-2.1 1.1c-1.3 0-2.1-.9-2.1-1.9c0 0 0 0 0 0zm4.2-1.1c-.02.04 0-.3 0-.3c0 0-2 .34-2 .3c-.5.1-.9.4-.9 1c0 .5.4 1 1 1c1 0 1.9-.5 1.9-2zm3.2 2.8l0-9.8l1.3 0l0 9.8l-1.3 0zm7.7-.8c-.4.7-1.2 1-2 1c-1.5 0-2.4-1.1-2.4-2.6c.02.02 0-4.1 0-4.1l1.3 0c0 0-.01 3.93 0 3.9c0 .9.4 1.7 1.5 1.7c1 0 1.5-.7 1.5-1.7c0 .04 0-3.9 0-3.9l1.3 0c0 0-.03 5.32 0 5.3c0 .5 0 1 0 1.2c0 0-1.2 0-1.2 0c0-.1 0-.5 0-.8c0 0 0 0 0 0zm7.6-3.1c0-.9-.6-1.7-1.7-1.7c-1.1 0-1.8.9-1.8 1.7c0 0 3.5 0 3.5 0zm1.3 2.1c-.3 1.1-1.4 2-2.9 2c-1.7 0-3.3-1.2-3.3-3.4c0-2.1 1.5-3.5 3.1-3.5c2 0 3.2 1.4 3.2 3.4c0 .2-.1.4-.1.4c0 0-4.9 0-4.9 0c.1 1.2.9 2 2 2c1.1 0 1.6-.6 1.8-1.3c0 0 1.1.4 1.1.4z" stroke="none" fill="#144542"/></g><g id="Polygon186598"><path d="m3.7 74.8c1.2 0 1.9-1 1.9-2.4c0-1.3-.7-2.2-1.8-2.2c-1.2 0-2 .9-2 2.3c0 1.3.7 2.3 1.9 2.3zm1.9-.1c-.3.7-1 1.2-2 1.2c-1.9 0-3.1-1.5-3.1-3.4c0-1.9 1.3-3.4 3.1-3.4c1.2 0 1.8.5 2 1c0 .05 0-4.2 0-4.2l1.3 0c0 0-.04 8.62 0 8.6c0 .6 0 1.1 0 1.2c0 0-1.2 0-1.2 0c0-.1-.1-.5-.1-.9c0 0 0-.1 0-.1zm7.8-2.9c0-.9-.6-1.7-1.8-1.7c-1.1 0-1.7.9-1.8 1.7c0 0 3.6 0 3.6 0zm1.3 2.1c-.4 1.1-1.4 2-2.9 2c-1.8 0-3.3-1.2-3.3-3.4c0-2.1 1.5-3.5 3.1-3.5c2 0 3.1 1.4 3.1 3.4c0 .2 0 .4 0 .4c0 0-4.9 0-4.9 0c0 1.2.9 2 2 2c1 0 1.5-.6 1.8-1.3c0 0 1.1.4 1.1.4zm5 1.8l0-9.8l1.3 0l0 9.8l-1.3 0zm3-1.7c0-1.2.9-1.8 2-2c0 0 1.8-.2 1.8-.2c.4-.1.5-.3.5-.5c0-.7-.5-1.2-1.4-1.2c-.9 0-1.4.6-1.5 1.3c0 0-1.2-.3-1.2-.3c.1-1.2 1.2-2.1 2.6-2.1c2 0 2.7 1.1 2.7 2.4c0 0 0 3.3 0 3.3c0 .5.1.9.1 1c0 0-1.2 0-1.2 0c-.1-.1-.1-.4-.1-.9c-.3.5-.9 1.1-2.1 1.1c-1.3 0-2.2-.9-2.2-1.9c0 0 0 0 0 0zm4.3-1.1c-.04.04 0-.3 0-.3c0 0-2.03.34-2 .3c-.6.1-1 .4-1 1c0 .5.4 1 1.1 1c1 0 1.9-.5 1.9-2zm6.6 2.8l0-6.5l1.2 0c0 0-.01.89 0 .9c.4-.7 1.2-1.1 2-1.1c.8 0 1.6.4 1.9 1.3c.5-1 1.4-1.3 2.2-1.3c1.1 0 2.2.8 2.2 2.5c.02.01 0 4.2 0 4.2l-1.2 0c0 0-.04-4.06 0-4.1c0-.8-.5-1.4-1.4-1.4c-.9 0-1.5.7-1.5 1.6c-.01-.01 0 3.9 0 3.9l-1.3 0c0 0 .02-4.06 0-4.1c0-.8-.4-1.4-1.4-1.4c-.9 0-1.5.6-1.5 1.6c.03.01 0 3.9 0 3.9l-1.2 0zm11.5 0l0-6.5l1.3 0l0 6.5l-1.3 0zm.7-9.8c.5 0 .9.4.9.9c0 .5-.4.9-.9.9c-.5 0-.9-.4-.9-.9c0-.5.4-.9.9-.9zm3.3 7.7c.1.7.6 1.2 1.5 1.2c.7 0 1.1-.4 1.1-.8c0-.4-.3-.7-.8-.9c0 0-1.1-.2-1.1-.2c-1-.2-1.6-.9-1.6-1.8c0-1.1 1-2.1 2.3-2.1c1.7 0 2.3 1.2 2.4 1.8c0 0-1.1.4-1.1.4c0-.4-.3-1.1-1.3-1.1c-.7 0-1.1.4-1.1.9c0 .4.2.6.7.8c0 0 1.1.2 1.1.2c1.2.2 1.8 1 1.8 1.9c0 .9-.8 2-2.4 2c-1.8 0-2.5-1.1-2.6-1.9c0 0 1.1-.4 1.1-.4zm6.1 0c.1.7.6 1.2 1.5 1.2c.7 0 1.1-.4 1.1-.8c0-.4-.3-.7-.8-.9c0 0-1.1-.2-1.1-.2c-1-.2-1.6-.9-1.6-1.8c0-1.1 1-2.1 2.3-2.1c1.7 0 2.3 1.2 2.4 1.8c0 0-1.1.4-1.1.4c0-.4-.3-1.1-1.3-1.1c-.7 0-1.1.4-1.1.9c0 .4.2.6.7.8c0 0 1.1.2 1.1.2c1.2.2 1.8 1 1.8 1.9c0 .9-.8 2-2.4 2c-1.8 0-2.5-1.1-2.6-1.9c0 0 1.1-.4 1.1-.4zm5.6 2.1l0-6.5l1.2 0l0 6.5l-1.2 0zm.6-9.8c.5 0 .9.4.9.9c0 .5-.4.9-.9.9c-.5 0-.9-.4-.9-.9c0-.5.4-.9.9-.9zm7.6 6.6c0-1.5-1-2.3-2-2.3c-1.1 0-2.1.8-2.1 2.3c0 1.5 1 2.3 2.1 2.3c1 0 2-.8 2-2.3zm1.3 0c0 2-1.4 3.4-3.3 3.4c-2 0-3.4-1.4-3.4-3.4c0-2 1.4-3.5 3.4-3.5c1.9 0 3.3 1.5 3.3 3.5zm2.9 3.2l-1.3 0l0-6.5l1.2 0c0 0 .04.96 0 1c.5-.9 1.3-1.2 2-1.2c1.6 0 2.4 1.2 2.4 2.6c-.04 0 0 4.1 0 4.1l-1.3 0c0 0-.01-3.88 0-3.9c0-.9-.4-1.6-1.5-1.6c-1 0-1.5.8-1.5 1.8c-.03-.03 0 3.7 0 3.7zm9.7 2.6l0-9.1l1.2 0c0 0-.01 1.04 0 1c.3-.6 1.1-1.1 2.2-1.1c1.9 0 2.9 1.5 2.9 3.4c0 1.9-1.1 3.4-3 3.4c-1 0-1.7-.5-2.1-1.1c.02.04 0 3.5 0 3.5l-1.2 0zm5.1-5.8c0-1.3-.8-2.3-2-2.3c-1.1 0-1.9 1-1.9 2.3c0 1.3.8 2.3 1.9 2.3c1.2 0 2-1 2-2.3c0 0 0 0 0 0zm7.7 0c0-1.5-1-2.3-2.1-2.3c-1 0-2 .8-2 2.3c0 1.5 1 2.3 2 2.3c1.1 0 2.1-.8 2.1-2.3zm1.3 0c0 2-1.4 3.4-3.4 3.4c-1.9 0-3.3-1.4-3.3-3.4c0-2 1.4-3.5 3.3-3.5c2 0 3.4 1.5 3.4 3.5zm5.8 2.4c-.3.7-1.2 1-1.9 1c-1.5 0-2.4-1.1-2.4-2.6c-.04.02 0-4.1 0-4.1l1.2 0c0 0 .02 3.93 0 3.9c0 .9.4 1.7 1.5 1.7c1 0 1.5-.7 1.5-1.7c.03.04 0-3.9 0-3.9l1.3 0c0 0 0 5.32 0 5.3c0 .5 0 1 .1 1.2c0 0-1.2 0-1.2 0c-.1-.1-.1-.5-.1-.8c0 0 0 0 0 0zm7-4.4c-.2 0-.4 0-.6 0c-1.1 0-1.8.5-1.8 2c.03-.03 0 3.2 0 3.2l-1.2 0l0-6.5l1.2 0c0 0 0 1.16 0 1.2c.5-1 1.3-1.3 1.9-1.3c.2 0 .4 0 .5.1c0 0 0 1.3 0 1.3z" stroke="none" fill="#144542"/></g><g id="Polygon186597"><path d="m1.1 59.5l0-9.8l1.2 0l0 9.8l-1.2 0zm3.8-9.7c.5 0 1 .4 1 1.2c0 1.7-1.1 2.4-1.8 2.5c0 0 0-.7 0-.7c.6-.1 1-.7 1-1.3c-.1 0-.1 0-.3 0c-.5 0-.8-.3-.8-.8c0-.5.4-.9.9-.9zm1.7 8c0-1.2.8-1.8 2-2c0 0 1.7-.2 1.7-.2c.4-.1.5-.3.5-.5c0-.7-.4-1.2-1.4-1.2c-.9 0-1.4.6-1.5 1.3c0 0-1.2-.3-1.2-.3c.2-1.2 1.3-2.1 2.7-2.1c1.9 0 2.7 1.1 2.7 2.4c0 0 0 3.3 0 3.3c0 .5 0 .9.1 1c0 0-1.3 0-1.3 0c0-.1 0-.4 0-.9c-.3.5-1 1.1-2.1 1.1c-1.4 0-2.2-.9-2.2-1.9c0 0 0 0 0 0zm4.2-1.1c.01.04 0-.3 0-.3c0 0-1.97.34-2 .3c-.5.1-.9.4-.9 1c0 .5.4 1 1 1c1.1 0 1.9-.5 1.9-2zm4-.4c0 1.5.9 2.3 2 2.3c1.2 0 1.7-.9 1.8-1.4c0 0 1.1.5 1.1.5c-.3.9-1.2 2-2.9 2c-1.9 0-3.3-1.5-3.3-3.4c0-2.1 1.4-3.5 3.3-3.5c1.7 0 2.6 1.1 2.9 2.1c0 0-1.2.5-1.2.5c-.1-.7-.6-1.4-1.7-1.4c-1 0-2 .8-2 2.3zm7.1 0c0 1.5.9 2.3 2 2.3c1.2 0 1.6-.9 1.8-1.4c0 0 1.1.5 1.1.5c-.3.9-1.2 2-2.9 2c-1.9 0-3.3-1.5-3.3-3.4c0-2.1 1.4-3.5 3.3-3.5c1.7 0 2.6 1.1 2.9 2.1c0 0-1.2.5-1.2.5c-.2-.7-.6-1.4-1.7-1.4c-1.1 0-2 .8-2 2.3zm11.1 0c0-1.5-.9-2.3-2-2.3c-1.1 0-2 .8-2 2.3c0 1.5.9 2.3 2 2.3c1.1 0 2-.8 2-2.3zm1.3 0c0 2-1.3 3.4-3.3 3.4c-1.9 0-3.3-1.4-3.3-3.4c0-2 1.4-3.5 3.3-3.5c2 0 3.3 1.5 3.3 3.5zm1.7 3.2l0-6.5l1.2 0c0 0-.04.89 0 .9c.4-.7 1.2-1.1 1.9-1.1c.8 0 1.6.4 2 1.3c.5-1 1.3-1.3 2.2-1.3c1.1 0 2.2.8 2.2 2.5c-.01.01 0 4.2 0 4.2l-1.3 0c0 0 .04-4.06 0-4.1c0-.8-.4-1.4-1.3-1.4c-.9 0-1.5.7-1.5 1.6c-.04-.01 0 3.9 0 3.9l-1.3 0c0 0 0-4.06 0-4.1c0-.8-.4-1.4-1.4-1.4c-.9 0-1.5.6-1.5 1.6c.01.01 0 3.9 0 3.9l-1.2 0zm11.5 2.6l0-9.1l1.2 0c0 0 .05 1.04 0 1c.4-.6 1.2-1.1 2.2-1.1c2 0 3 1.5 3 3.4c0 1.9-1.1 3.4-3 3.4c-1 0-1.8-.5-2.1-1.1c-.03.04 0 3.5 0 3.5l-1.3 0zm5.1-5.8c0-1.3-.7-2.3-1.9-2.3c-1.2 0-1.9 1-1.9 2.3c0 1.3.7 2.3 1.9 2.3c1.2 0 1.9-1 1.9-2.3c0 0 0 0 0 0zm2.9 3.2l0-9.8l1.3 0l0 9.8l-1.3 0zm3.5 0l0-6.5l1.2 0l0 6.5l-1.2 0zm.6-9.8c.5 0 .9.4.9.9c0 .5-.4.9-.9.9c-.5 0-.9-.4-.9-.9c0-.5.4-.9.9-.9zm3.3 7.7c.1.7.6 1.2 1.5 1.2c.7 0 1.1-.4 1.1-.8c0-.4-.3-.7-.8-.9c0 0-1.1-.2-1.1-.2c-1-.2-1.6-.9-1.6-1.8c0-1.1 1-2.1 2.3-2.1c1.8 0 2.3 1.2 2.4 1.8c0 0-1.1.4-1.1.4c0-.4-.3-1.1-1.3-1.1c-.7 0-1.1.4-1.1.9c0 .4.2.6.7.8c0 0 1.1.2 1.1.2c1.2.2 1.8 1 1.8 1.9c0 .9-.8 2-2.4 2c-1.8 0-2.5-1.1-2.6-1.9c0 0 1.1-.4 1.1-.4zm6.1 0c.1.7.6 1.2 1.5 1.2c.7 0 1.1-.4 1.1-.8c0-.4-.3-.7-.8-.9c0 0-1.1-.2-1.1-.2c-1-.2-1.6-.9-1.6-1.8c0-1.1 1-2.1 2.3-2.1c1.8 0 2.3 1.2 2.4 1.8c0 0-1.1.4-1.1.4c0-.4-.3-1.1-1.3-1.1c-.7 0-1.1.4-1.1.9c0 .4.2.6.7.8c0 0 1.1.2 1.1.2c1.2.2 1.8 1 1.8 1.9c0 .9-.8 2-2.4 2c-1.8 0-2.5-1.1-2.6-1.9c0 0 1.1-.4 1.1-.4zm9.9-1.8c0-.9-.7-1.7-1.8-1.7c-1.1 0-1.7.9-1.8 1.7c0 0 3.6 0 3.6 0zm1.3 2.1c-.4 1.1-1.4 2-3 2c-1.7 0-3.2-1.2-3.2-3.4c0-2.1 1.5-3.5 3.1-3.5c2 0 3.1 1.4 3.1 3.4c0 .2 0 .4 0 .4c0 0-4.9 0-4.9 0c0 1.2.9 2 1.9 2c1.1 0 1.6-.6 1.9-1.3c0 0 1.1.4 1.1.4zm1.6 1.8l0-6.5l1.2 0c0 0 .04.89 0 .9c.4-.7 1.3-1.1 2-1.1c.8 0 1.6.4 2 1.3c.5-1 1.3-1.3 2.1-1.3c1.2 0 2.3.8 2.3 2.5c-.03.01 0 4.2 0 4.2l-1.3 0c0 0 .01-4.06 0-4.1c0-.8-.4-1.4-1.4-1.4c-.9 0-1.5.7-1.5 1.6c.04-.01 0 3.9 0 3.9l-1.2 0c0 0-.03-4.06 0-4.1c0-.8-.4-1.4-1.4-1.4c-.9 0-1.5.6-1.5 1.6c-.02.01 0 3.9 0 3.9l-1.3 0zm16-3.9c-.1-.9-.7-1.7-1.8-1.7c-1.1 0-1.7.9-1.8 1.7c0 0 3.6 0 3.6 0zm1.2 2.1c-.3 1.1-1.4 2-2.9 2c-1.7 0-3.2-1.2-3.2-3.4c0-2.1 1.4-3.5 3.1-3.5c2 0 3.1 1.4 3.1 3.4c0 .2 0 .4 0 .4c0 0-4.9 0-4.9 0c0 1.2.8 2 1.9 2c1.1 0 1.6-.6 1.9-1.3c0 0 1 .4 1 .4zm3 1.8l-1.3 0l0-6.5l1.3 0c0 0-.05.96 0 1c.4-.9 1.2-1.2 1.9-1.2c1.6 0 2.4 1.2 2.4 2.6c-.03 0 0 4.1 0 4.1l-1.3 0c0 0 0-3.88 0-3.9c0-.9-.4-1.6-1.5-1.6c-1 0-1.5.8-1.5 1.8c-.02-.03 0 3.7 0 3.7zm8-6.5l1.4 0l0 1.2l-1.4 0c0 0 0 3.35 0 3.4c0 .5.2.8.9.8c.2 0 .4 0 .5 0c0 0 0 1.1 0 1.1c-.1 0-.4.1-.9.1c-1.1 0-1.8-.7-1.8-1.9c.03.04 0-3.5 0-3.5l-1.2 0l0-1.2c0 0 .34.03.3 0c.7 0 1-.4 1-1c.04.03 0-1 0-1l1.2 0l0 2z" stroke="none" fill="#144542"/></g><g id="Polygon186596"><path d="m2.8 36.8l1.4 0l0 1.2l-1.4 0c0 0-.02 3.35 0 3.4c0 .5.2.8.9.8c.1 0 .4 0 .5 0c0 0 0 1.1 0 1.1c-.1 0-.4.1-.9.1c-1.1 0-1.8-.7-1.8-1.9c.01.04 0-3.5 0-3.5l-1.2 0l0-1.2c0 0 .32.03.3 0c.7 0 1-.4 1-1c.02.03 0-1 0-1l1.2 0l0 2zm6.5 1.3c-.1 0-.3 0-.5 0c-1.1 0-1.8.5-1.8 2c.01-.03 0 3.2 0 3.2l-1.3 0l0-6.5l1.3 0c0 0-.02 1.16 0 1.2c.5-1 1.3-1.3 1.9-1.3c.2 0 .4 0 .4.1c0 0 0 1.3 0 1.3zm5.7 1.3c0-.9-.6-1.7-1.8-1.7c-1.1 0-1.7.9-1.8 1.7c0 0 3.6 0 3.6 0zm1.3 2.1c-.4 1.1-1.4 2-2.9 2c-1.8 0-3.3-1.2-3.3-3.4c0-2.1 1.5-3.5 3.1-3.5c2 0 3.1 1.4 3.1 3.4c0 .2 0 .4 0 .4c0 0-4.9 0-4.9 0c0 1.2.9 2 2 2c1 0 1.5-.6 1.8-1.3c0 0 1.1.4 1.1.4zm-5.1-7.5l1.6 0l1.2 2l-1.1 0l-1.7-2zm7.3 7.2c.1.7.6 1.2 1.5 1.2c.7 0 1.1-.4 1.1-.8c0-.4-.3-.7-.8-.9c0 0-1.1-.2-1.1-.2c-1.1-.2-1.7-.9-1.7-1.8c0-1.1 1.1-2.1 2.3-2.1c1.8 0 2.4 1.2 2.5 1.8c0 0-1.1.4-1.1.4c-.1-.4-.3-1.1-1.4-1.1c-.6 0-1 .4-1 .9c0 .4.2.6.7.8c0 0 1.1.2 1.1.2c1.1.2 1.8 1 1.8 1.9c0 .9-.8 2-2.4 2c-1.8 0-2.6-1.1-2.7-1.9c0 0 1.2-.4 1.2-.4zm10.6-3.2l0 5.3l-1.3 0l0-5.3l-1.2 0l0-1.2l1.2 0c0 0 .01-1.07 0-1.1c0-1.4 1-2.2 2.1-2.2c.5 0 .7.1.8.1c0 0 0 1.2 0 1.2c-.1-.1-.2-.1-.6-.1c-.4 0-1 .2-1 1.1c.02 0 0 1 0 1l1.6 0l0 1.2l-1.6 0zm2.3 3.6c0-1.2.9-1.8 2-2c0 0 1.8-.2 1.8-.2c.4-.1.5-.3.5-.5c0-.7-.5-1.2-1.4-1.2c-.9 0-1.4.6-1.5 1.3c0 0-1.2-.3-1.2-.3c.1-1.2 1.2-2.1 2.6-2.1c2 0 2.7 1.1 2.7 2.4c0 0 0 3.3 0 3.3c0 .5.1.9.1 1c0 0-1.2 0-1.2 0c-.1-.1-.1-.4-.1-.9c-.3.5-.9 1.1-2.1 1.1c-1.3 0-2.2-.9-2.2-1.9c0 0 0 0 0 0zm4.3-1.1c-.03.04 0-.3 0-.3c0 0-2.02.34-2 .3c-.6.1-1 .4-1 1c0 .5.4 1 1.1 1c1 0 1.9-.5 1.9-2zm6.2 2.8l-1.3 0l-2.6-6.5l1.4 0l1.8 5l1.9-5l1.4 0l-2.6 6.5zm8.4-3.2c0-1.5-1-2.3-2-2.3c-1.1 0-2.1.8-2.1 2.3c0 1.5 1 2.3 2.1 2.3c1 0 2-.8 2-2.3zm1.3 0c0 2-1.4 3.4-3.3 3.4c-2 0-3.4-1.4-3.4-3.4c0-2 1.4-3.5 3.4-3.5c1.9 0 3.3 1.5 3.3 3.5zm5.2-2c-.2 0-.4 0-.5 0c-1.1 0-1.8.5-1.8 2c-.03-.03 0 3.2 0 3.2l-1.3 0l0-6.5l1.2 0c0 0 .04 1.16 0 1.2c.5-1 1.3-1.3 2-1.3c.2 0 .3 0 .4.1c0 0 0 1.3 0 1.3zm1 3.5c0-1.2.8-1.8 1.9-2c0 0 1.8-.2 1.8-.2c.4-.1.5-.3.5-.5c0-.7-.4-1.2-1.4-1.2c-.9 0-1.4.6-1.5 1.3c0 0-1.2-.3-1.2-.3c.1-1.2 1.2-2.1 2.6-2.1c2 0 2.7 1.1 2.7 2.4c0 0 0 3.3 0 3.3c0 .5.1.9.1 1c0 0-1.2 0-1.2 0c0-.1-.1-.4-.1-.9c-.3.5-.9 1.1-2.1 1.1c-1.3 0-2.1-.9-2.1-1.9c0 0 0 0 0 0zm4.2-1.1c-.02.04 0-.3 0-.3c0 0-2.01.34-2 .3c-.5.1-1 .4-1 1c0 .5.5 1 1.1 1c1 0 1.9-.5 1.9-2zm3.2 2.8l0-9.8l1.3 0c0 0-.03 4.25 0 4.2c.3-.5 1-1.1 2.1-1.1c2 0 3 1.6 3 3.4c0 2-1.1 3.5-3 3.5c-1 0-1.7-.4-2.1-1.1c-.03-.02 0 .9 0 .9l-1.3 0zm3.2-5.5c-1.1 0-1.9.8-1.9 2.2c0 1.4.8 2.4 1.9 2.4c1.2 0 1.9-1 1.9-2.4c0-1.4-.7-2.2-1.9-2.2zm4.8 5.5l0-9.8l1.3 0l0 9.8l-1.3 0zm7.8-3.9c0-.9-.6-1.7-1.8-1.7c-1 0-1.7.9-1.7 1.7c0 0 3.5 0 3.5 0zm1.3 2.1c-.4 1.1-1.4 2-2.9 2c-1.7 0-3.3-1.2-3.3-3.4c0-2.1 1.5-3.5 3.1-3.5c2 0 3.1 1.4 3.1 3.4c0 .2 0 .4 0 .4c0 0-4.9 0-4.9 0c.1 1.2.9 2 2 2c1 0 1.6-.6 1.8-1.3c0 0 1.1.4 1.1.4zm5.6-.3c.1.7.6 1.2 1.5 1.2c.7 0 1.1-.4 1.1-.8c0-.4-.3-.7-.8-.9c0 0-1.1-.2-1.1-.2c-1.1-.2-1.7-.9-1.7-1.8c0-1.1 1.1-2.1 2.3-2.1c1.8 0 2.4 1.2 2.5 1.8c0 0-1.1.4-1.1.4c-.1-.4-.3-1.1-1.4-1.1c-.6 0-1 .4-1 .9c0 .4.2.6.7.8c0 0 1.1.2 1.1.2c1.1.2 1.8 1 1.8 1.9c0 .9-.8 2-2.4 2c-1.8 0-2.6-1.1-2.7-1.9c0 0 1.2-.4 1.2-.4zm9.8 1.3c-.4.7-1.2 1-2 1c-1.5 0-2.4-1.1-2.4-2.6c.01.02 0-4.1 0-4.1l1.3 0c0 0-.02 3.93 0 3.9c0 .9.4 1.7 1.5 1.7c1 0 1.5-.7 1.5-1.7c-.01.04 0-3.9 0-3.9l1.3 0c0 0-.04 5.32 0 5.3c0 .5 0 1 0 1.2c0 0-1.2 0-1.2 0c0-.1 0-.5 0-.8c0 0 0 0 0 0zm6.9-4.4c-.2 0-.4 0-.5 0c-1.1 0-1.8.5-1.8 2c-.01-.03 0 3.2 0 3.2l-1.3 0l0-6.5l1.3 0c0 0-.04 1.16 0 1.2c.4-1 1.2-1.3 1.9-1.3c.2 0 .4 0 .4.1c0 0 0 1.3 0 1.3z" stroke="none" fill="#144542"/></g><g id="Polygon186595"><path d="m10.2 27.1l0-7.4l-3.2 7.4l-1.2 0l-3.3-7.4l0 7.4l-1.3 0l0-9.5l1.8 0l3.4 7.7l3.4-7.7l1.8 0l0 9.5l-1.4 0zm3.7 0l0-6.5l1.2 0l0 6.5l-1.2 0zm.6-9.8c.5 0 .9.4.9.9c0 .5-.4.9-.9.9c-.5 0-.9-.4-.9-.9c0-.5.4-.9.9-.9zm3.3 7.7c.1.7.6 1.2 1.5 1.2c.7 0 1.1-.4 1.1-.8c0-.4-.3-.7-.8-.9c0 0-1.1-.2-1.1-.2c-1-.2-1.6-.9-1.6-1.8c0-1.1 1-2.1 2.3-2.1c1.8 0 2.3 1.2 2.4 1.8c0 0-1.1.4-1.1.4c0-.4-.3-1.1-1.3-1.1c-.7 0-1.1.4-1.1.9c0 .4.2.6.7.8c0 0 1.1.2 1.1.2c1.2.2 1.8 1 1.8 1.9c0 .9-.8 2-2.4 2c-1.8 0-2.5-1.1-2.6-1.9c0 0 1.1-.4 1.1-.4zm6.1 0c.1.7.6 1.2 1.5 1.2c.7 0 1.1-.4 1.1-.8c0-.4-.3-.7-.8-.9c0 0-1.1-.2-1.1-.2c-1-.2-1.6-.9-1.6-1.8c0-1.1 1-2.1 2.3-2.1c1.8 0 2.3 1.2 2.4 1.8c0 0-1.1.4-1.1.4c0-.4-.3-1.1-1.3-1.1c-.7 0-1.1.4-1.1.9c0 .4.2.6.7.8c0 0 1.1.2 1.1.2c1.2.2 1.8 1 1.8 1.9c0 .9-.8 2-2.4 2c-1.8 0-2.5-1.1-2.6-1.9c0 0 1.1-.4 1.1-.4zm5.6 2.1l0-6.5l1.2 0l0 6.5l-1.2 0zm.6-9.8c.5 0 .9.4.9.9c0 .5-.4.9-.9.9c-.5 0-.9-.4-.9-.9c0-.5.4-.9.9-.9zm7.6 6.6c0-1.5-1-2.3-2-2.3c-1.1 0-2.1.8-2.1 2.3c0 1.5 1 2.3 2.1 2.3c1 0 2-.8 2-2.3zm1.3 0c0 2-1.4 3.4-3.3 3.4c-2 0-3.4-1.4-3.4-3.4c0-2 1.4-3.5 3.4-3.5c1.9 0 3.3 1.5 3.3 3.5zm2.9 3.2l-1.3 0l0-6.5l1.2 0c0 0 .05.96 0 1c.5-.9 1.3-1.2 2-1.2c1.6 0 2.4 1.2 2.4 2.6c-.03 0 0 4.1 0 4.1l-1.3 0c0 0 0-3.88 0-3.9c0-.9-.4-1.6-1.5-1.6c-1 0-1.5.8-1.5 1.8c-.02-.03 0 3.7 0 3.7zm14-3.9c0-.9-.6-1.7-1.7-1.7c-1.1 0-1.8.9-1.8 1.7c0 0 3.5 0 3.5 0zm1.3 2.1c-.3 1.1-1.4 2-2.9 2c-1.7 0-3.3-1.2-3.3-3.4c0-2.1 1.5-3.5 3.1-3.5c2 0 3.2 1.4 3.2 3.4c0 .2 0 .4-.1.4c0 0-4.8 0-4.8 0c0 1.2.8 2 1.9 2c1.1 0 1.6-.6 1.8-1.3c0 0 1.1.4 1.1.4zm-2.5-5.5l-1.1 0l1.2-2l1.6 0l-1.7 2zm4.2 7.3l0-6.5l1.2 0c0 0 0 .89 0 .9c.4-.7 1.2-1.1 2-1.1c.8 0 1.6.4 1.9 1.3c.5-1 1.4-1.3 2.2-1.3c1.1 0 2.2.8 2.2 2.5c.03.01 0 4.2 0 4.2l-1.2 0c0 0-.02-4.06 0-4.1c0-.8-.4-1.4-1.4-1.4c-.9 0-1.5.7-1.5 1.6c0-.01 0 3.9 0 3.9l-1.3 0c0 0 .03-4.06 0-4.1c0-.8-.4-1.4-1.3-1.4c-1 0-1.6.6-1.6 1.6c.04.01 0 3.9 0 3.9l-1.2 0zm15.9-3.9c0-.9-.6-1.7-1.8-1.7c-1 0-1.7.9-1.7 1.7c0 0 3.5 0 3.5 0zm1.3 2.1c-.4 1.1-1.4 2-2.9 2c-1.7 0-3.3-1.2-3.3-3.4c0-2.1 1.5-3.5 3.1-3.5c2 0 3.2 1.4 3.2 3.4c0 .2-.1.4-.1.4c0 0-4.9 0-4.9 0c.1 1.2.9 2 2 2c1 0 1.6-.6 1.8-1.3c0 0 1.1.4 1.1.4zm3.4-4.7l1.4 0l0 1.2l-1.4 0c0 0-.03 3.35 0 3.4c0 .5.2.8.9.8c.1 0 .4 0 .5 0c0 0 0 1.1 0 1.1c-.1 0-.5.1-.9.1c-1.1 0-1.8-.7-1.8-1.9c.01.04 0-3.5 0-3.5l-1.2 0l0-1.2c0 0 .31.03.3 0c.7 0 1-.4 1-1c.01.03 0-1 0-1l1.2 0l0 2zm10.7 5.7c-.3.7-1.1 1-1.9 1c-1.5 0-2.4-1.1-2.4-2.6c-.03.02 0-4.1 0-4.1l1.2 0c0 0 .04 3.93 0 3.9c0 .9.4 1.7 1.5 1.7c1 0 1.6-.7 1.6-1.7c-.05.04 0-3.9 0-3.9l1.2 0c0 0 .02 5.32 0 5.3c0 .5.1 1 .1 1.2c0 0-1.2 0-1.2 0c-.1-.1-.1-.5-.1-.8c0 0 0 0 0 0zm4.6.8l-1.2 0l0-6.5l1.2 0c0 0 .02.96 0 1c.5-.9 1.3-1.2 2-1.2c1.6 0 2.3 1.2 2.3 2.6c.04 0 0 4.1 0 4.1l-1.2 0c0 0-.03-3.88 0-3.9c0-.9-.4-1.6-1.5-1.6c-1 0-1.6.8-1.6 1.8c.05-.03 0 3.7 0 3.7zm9.3-1.7c0-1.2.9-1.8 2-2c0 0 1.8-.2 1.8-.2c.4-.1.5-.3.5-.5c0-.7-.5-1.2-1.4-1.2c-.9 0-1.4.6-1.5 1.3c0 0-1.2-.3-1.2-.3c.1-1.2 1.2-2.1 2.6-2.1c2 0 2.7 1.1 2.7 2.4c0 0 0 3.3 0 3.3c0 .5.1.9.1 1c0 0-1.2 0-1.2 0c-.1-.1-.1-.4-.1-.9c-.3.5-.9 1.1-2.1 1.1c-1.3 0-2.2-.9-2.2-1.9c0 0 0 0 0 0zm4.3-1.1c-.04.04 0-.3 0-.3c0 0-2.02.34-2 .3c-.6.1-1 .4-1 1c0 .5.4 1 1.1 1c1 0 1.9-.5 1.9-2zm6.2 2.8l-1.3 0l-2.6-6.5l1.4 0l1.8 5l1.9-5l1.4 0l-2.6 6.5zm3.8 0l0-6.5l1.2 0l0 6.5l-1.2 0zm.6-9.8c.5 0 .9.4.9.9c0 .5-.4.9-.9.9c-.5 0-.9-.4-.9-.9c0-.5.4-.9.9-.9zm3.3 7.7c.1.7.6 1.2 1.5 1.2c.8 0 1.2-.4 1.2-.8c0-.4-.3-.7-.9-.9c0 0-1.1-.2-1.1-.2c-1-.2-1.6-.9-1.6-1.8c0-1.1 1-2.1 2.3-2.1c1.8 0 2.3 1.2 2.5 1.8c0 0-1.2.4-1.2.4c0-.4-.3-1.1-1.3-1.1c-.6 0-1.1.4-1.1.9c0 .4.3.6.8.8c0 0 1 .2 1 .2c1.2.2 1.8 1 1.8 1.9c0 .9-.8 2-2.4 2c-1.7 0-2.5-1.1-2.6-1.9c0 0 1.1-.4 1.1-.4z" stroke="none" fill="#144542"/></g><g id="Polygon186594"><path d="m1.2 10.9l0-9.5l1.3 0l0 8.3l4.6 0l0 1.2l-5.9 0zm11.6-3.9c0-.9-.6-1.7-1.8-1.7c-1.1 0-1.7.9-1.8 1.7c0 0 3.6 0 3.6 0zm1.3 2.1c-.4 1.1-1.4 2-2.9 2c-1.8 0-3.3-1.2-3.3-3.4c0-2.1 1.5-3.5 3.1-3.5c2 0 3.1 1.4 3.1 3.4c0 .2 0 .4 0 .4c0 0-4.9 0-4.9 0c0 1.2.9 2 2 2c1 0 1.5-.6 1.8-1.3c0 0 1.1.4 1.1.4zm4.5-3c0-3.2 2.4-5 4.8-5c2.2 0 3.7 1.2 4.2 3.1c0 0-1.2.4-1.2.4c-.4-1.4-1.5-2.2-3-2.2c-1.8 0-3.4 1.2-3.4 3.7c0 2.5 1.6 3.8 3.4 3.8c1.6 0 2.6-1 3-2.3c0 0 1.2.4 1.2.4c-.5 1.8-2 3.1-4.2 3.1c-2.5 0-4.8-1.8-4.8-5zm15.2 1.6c0-1.5-1-2.3-2.1-2.3c-1 0-2 .8-2 2.3c0 1.5 1 2.3 2 2.3c1.1 0 2.1-.8 2.1-2.3zm1.3 0c0 2-1.4 3.4-3.4 3.4c-1.9 0-3.3-1.4-3.3-3.4c0-2 1.4-3.5 3.3-3.5c2 0 3.4 1.5 3.4 3.5zm1.6 3.2l0-6.5l1.2 0c0 0-.01.89 0 .9c.4-.7 1.2-1.1 2-1.1c.8 0 1.6.4 1.9 1.3c.5-1 1.4-1.3 2.2-1.3c1.1 0 2.2.8 2.2 2.5c.02.01 0 4.2 0 4.2l-1.2 0c0 0-.03-4.06 0-4.1c0-.8-.4-1.4-1.4-1.4c-.9 0-1.5.7-1.5 1.6c-.01-.01 0 3.9 0 3.9l-1.3 0c0 0 .02-4.06 0-4.1c0-.8-.4-1.4-1.4-1.4c-.9 0-1.5.6-1.5 1.6c.03.01 0 3.9 0 3.9l-1.2 0zm11.5 0l0-6.5l1.3 0l0 6.5l-1.3 0zm.7-9.8c.5 0 .9.4.9.9c0 .5-.4.9-.9.9c-.5 0-.9-.4-.9-.9c0-.5.4-.9.9-.9zm4.5 3.3l1.4 0l0 1.2l-1.4 0c0 0-.04 3.35 0 3.4c0 .5.2.8.9.8c.1 0 .4 0 .5 0c0 0 0 1.1 0 1.1c-.1 0-.5.1-.9.1c-1.1 0-1.8-.7-1.8-1.9c0 .04 0-3.5 0-3.5l-1.2 0l0-1.2c0 0 .31.03.3 0c.7 0 1-.4 1-1c0 .03 0-1 0-1l1.2 0l0 2zm7.4 2.6c-.1-.9-.7-1.7-1.8-1.7c-1.1 0-1.7.9-1.8 1.7c0 0 3.6 0 3.6 0zm1.2 2.1c-.3 1.1-1.4 2-2.9 2c-1.7 0-3.2-1.2-3.2-3.4c0-2.1 1.4-3.5 3.1-3.5c2 0 3.1 1.4 3.1 3.4c0 .2 0 .4 0 .4c0 0-4.9 0-4.9 0c0 1.2.8 2 1.9 2c1.1 0 1.6-.6 1.9-1.3c0 0 1 .4 1 .4zm-2.5-5.5l-1.1 0l1.2-2l1.6 0l-1.7 2zm10.2 6.4c1.2 0 1.9-1 1.9-2.4c0-1.3-.7-2.2-1.8-2.2c-1.2 0-2 .9-2 2.3c0 1.3.7 2.3 1.9 2.3zm1.9-.1c-.3.7-1 1.2-2 1.2c-1.9 0-3.1-1.5-3.1-3.4c0-1.9 1.3-3.4 3.1-3.4c1.2 0 1.8.5 2 1c0 .05 0-4.2 0-4.2l1.3 0c0 0-.04 8.62 0 8.6c0 .6 0 1.1 0 1.2c0 0-1.2 0-1.2 0c0-.1-.1-.5-.1-.9c0 0 0-.1 0-.1zm7.8-2.9c0-.9-.6-1.7-1.8-1.7c-1.1 0-1.7.9-1.8 1.7c0 0 3.6 0 3.6 0zm1.3 2.1c-.4 1.1-1.4 2-2.9 2c-1.8 0-3.3-1.2-3.3-3.4c0-2.1 1.5-3.5 3.1-3.5c2 0 3.1 1.4 3.1 3.4c0 .2 0 .4 0 .4c0 0-4.9 0-4.9 0c0 1.2.9 2 2 2c1 0 1.5-.6 1.8-1.3c0 0 1.1.4 1.1.4z" stroke="none" fill="#144542"/></g></svg>