<?xml version="1.0" standalone="no"?><!DOCTYPE svg PUBLIC "-//W3C//DTD SVG 1.1//EN" "http://www.w3.org/Graphics/SVG/1.1/DTD/svg11.dtd"><svg xmlns="http://www.w3.org/2000/svg" version="1.1" width="157.4px" height="164.6px" viewBox="0 -3 157.4 164.6" style="top:-3px"><desc>Num rique Data Analystes…</desc><defs/><g id="Polygon168636"><path d="m4.5 33c1.8 0 3.2-1.2 3.2-3.6c0-2.4-1.4-3.6-3.2-3.6c.01-.05-2 0-2 0l0 7.2c0 0 1.99-.04 2 0zm-3.3 1.1l0-9.5c0 0 3.35-.02 3.4 0c2.4 0 4.5 1.6 4.5 4.8c0 3.1-2.1 4.7-4.6 4.7c.03.03-3.3 0-3.3 0zm9.2-1.7c0-1.2.8-1.8 1.9-2c0 0 1.8-.2 1.8-.2c.4-.1.5-.3.5-.5c0-.6-.4-1.2-1.4-1.2c-.9 0-1.4.6-1.5 1.3c0 0-1.2-.2-1.2-.2c.1-1.3 1.3-2.1 2.7-2.1c1.9 0 2.7 1.1 2.7 2.3c0 0 0 3.3 0 3.3c0 .5 0 .9 0 1c0 0-1.2 0-1.2 0c0-.1-.1-.4-.1-.8c-.3.4-.9 1-2.1 1c-1.3 0-2.1-.9-2.1-1.9c0 0 0 0 0 0zm4.2-1c-.01-.04 0-.3 0-.3c0 0-1.99.26-2 .3c-.5 0-.9.3-.9.9c0 .5.4 1 1 1c1.1 0 1.9-.5 1.9-1.9zm4.9-3.7l1.4 0l0 1.1l-1.4 0c0 0 .02 3.36 0 3.4c0 .6.3.9.9.9c.2 0 .4-.1.5-.1c0 0 0 1.1 0 1.1c-.1 0-.4.1-.8.1c-1.1 0-1.8-.7-1.8-1.8c-.05-.05 0-3.6 0-3.6l-1.3 0l0-1.1c0 0 .36-.05.4 0c.7 0 1-.5 1-1c-.04-.04 0-1.1 0-1.1l1.1 0l0 2.1zm2.7 4.7c0-1.2.8-1.8 2-2c0 0 1.7-.2 1.7-.2c.4-.1.5-.3.5-.5c0-.6-.4-1.2-1.4-1.2c-.9 0-1.4.6-1.5 1.3c0 0-1.2-.2-1.2-.2c.2-1.3 1.3-2.1 2.7-2.1c1.9 0 2.7 1.1 2.7 2.3c0 0 0 3.3 0 3.3c0 .5 0 .9.1 1c0 0-1.3 0-1.3 0c0-.1 0-.4 0-.8c-.3.4-1 1-2.1 1c-1.4 0-2.2-.9-2.2-1.9c0 0 0 0 0 0zm4.2-1c.01-.04 0-.3 0-.3c0 0-1.97.26-2 .3c-.5 0-.9.3-.9.9c0 .5.4 1 1 1c1.1 0 1.9-.5 1.9-1.9zm12.3.1l-4.2 0l-1 2.6l-1.4 0l3.8-9.5l1.5 0l3.8 9.5l-1.4 0l-1.1-2.6zm-3.7-1.3l3.3 0l-1.7-4.2l-1.6 4.2zm8.6 3.9l-1.3 0l0-6.4l1.3 0c0 0-.03.88 0 .9c.4-.8 1.2-1.1 2-1.1c1.5 0 2.3 1.1 2.3 2.5c-.02.02 0 4.1 0 4.1l-1.3 0c0 0 .02-3.86 0-3.9c0-.9-.4-1.6-1.5-1.6c-1 0-1.5.8-1.5 1.8c0-.02 0 3.7 0 3.7zm5.9-1.7c0-1.2.8-1.8 2-2c0 0 1.7-.2 1.7-.2c.4-.1.5-.3.5-.5c0-.6-.4-1.2-1.4-1.2c-.9 0-1.4.6-1.5 1.3c0 0-1.2-.2-1.2-.2c.2-1.3 1.3-2.1 2.7-2.1c1.9 0 2.7 1.1 2.7 2.3c0 0 0 3.3 0 3.3c0 .5 0 .9.1 1c0 0-1.3 0-1.3 0c0-.1 0-.4 0-.8c-.3.4-1 1-2.1 1c-1.4 0-2.2-.9-2.2-1.9c0 0 0 0 0 0zm4.2-1c.02-.04 0-.3 0-.3c0 0-1.97.26-2 .3c-.5 0-.9.3-.9.9c0 .5.4 1 1 1c1.1 0 1.9-.5 1.9-1.9zm3.2 2.7l0-9.7l1.3 0l0 9.7l-1.3 0zm3.7 2.7l1.6-3.4l-2.8-5.7l1.5 0l2 4.4l1.9-4.4l1.4 0l-4.2 9.1l-1.4 0zm7.2-4.8c.1.7.6 1.3 1.5 1.3c.7 0 1.1-.4 1.1-.9c0-.4-.3-.7-.8-.8c0 0-1.1-.3-1.1-.3c-1-.2-1.6-.9-1.6-1.8c0-1.1 1-2 2.3-2c1.8 0 2.3 1.1 2.4 1.7c0 0-1.1.4-1.1.4c0-.3-.3-1.1-1.3-1.1c-.7 0-1.1.4-1.1.9c0 .4.2.7.7.8c0 0 1.1.2 1.1.2c1.2.3 1.8 1 1.8 1.9c0 .9-.8 2-2.4 2c-1.8 0-2.5-1.1-2.6-1.9c0 0 1.1-.4 1.1-.4zm7.3-4.3l1.4 0l0 1.1l-1.4 0c0 0-.04 3.36 0 3.4c0 .6.2.9.9.9c.1 0 .4-.1.5-.1c0 0 0 1.1 0 1.1c-.1 0-.5.1-.9.1c-1.1 0-1.8-.7-1.8-1.8c0-.05 0-3.6 0-3.6l-1.2 0l0-1.1c0 0 .31-.05.3 0c.7 0 1-.5 1-1c.01-.04 0-1.1 0-1.1l1.2 0l0 2.1zm7.3 2.5c0-.9-.6-1.6-1.7-1.6c-1.1 0-1.7.8-1.8 1.6c0 0 3.5 0 3.5 0zm1.3 2.1c-.3 1.1-1.4 2-2.9 2c-1.7 0-3.2-1.2-3.2-3.4c0-2.1 1.4-3.4 3.1-3.4c1.9 0 3.1 1.3 3.1 3.3c0 .2 0 .4-.1.4c0 0-4.8 0-4.8 0c0 1.2.8 2 1.9 2c1.1 0 1.6-.6 1.8-1.3c0 0 1.1.4 1.1.4zm2.2-.3c.1.7.6 1.3 1.5 1.3c.7 0 1.1-.4 1.1-.9c0-.4-.3-.7-.8-.8c0 0-1.1-.3-1.1-.3c-1-.2-1.6-.9-1.6-1.8c0-1.1 1-2 2.3-2c1.8 0 2.3 1.1 2.4 1.7c0 0-1.1.4-1.1.4c0-.3-.3-1.1-1.3-1.1c-.7 0-1.1.4-1.1.9c0 .4.2.7.7.8c0 0 1.1.2 1.1.2c1.2.3 1.8 1 1.8 1.9c0 .9-.8 2-2.4 2c-1.8 0-2.5-1.1-2.6-1.9c0 0 1.1-.4 1.1-.4zm15 2.2c-.5 0-.9-.4-.9-.9c0-.4.4-.8.9-.8c.5 0 .8.4.8.8c0 .5-.3.9-.8.9zm-4.2 0c-.5 0-.9-.4-.9-.9c0-.4.4-.8.9-.8c.5 0 .8.4.8.8c0 .5-.3.9-.8.9zm-4.2 0c-.5 0-.9-.4-.9-.9c0-.4.4-.8.9-.8c.5 0 .8.4.8.8c0 .5-.3.9-.8.9z" stroke="none" fill="#144542"/></g><g id="Polygon168635"><path d="m7.5 10.9l-4.7-7.2l0 7.2l-1.6 0l0-9.6l2.1 0l4.3 6.8l0-6.8l1.6 0l0 9.6l-1.7 0zm4.7-3.3c.02-.03 0-6.3 0-6.3l1.6 0c0 0 .02 6.18 0 6.2c0 1.3.8 2.1 2 2.1c1.2 0 1.9-.8 1.9-2.1c.03-.02 0-6.2 0-6.2l1.6 0c0 0 .04 6.27 0 6.3c0 2.3-1.5 3.5-3.5 3.5c-2 0-3.6-1.2-3.6-3.5zm19 3.3l0-7l-2.9 7l-1.4 0l-3-7l0 7l-1.6 0l0-9.6l2.2 0l3.1 7.3l3-7.3l2.2 0l0 9.6l-1.6 0zm8.1-10.2l-1.5 0l1.4-1.7l2 0l-1.9 1.7zm-3.4 10.2l0-9.6l5.9 0l0 1.6l-4.2 0l0 2.5l3.8 0l0 1.5l-3.8 0l0 2.5l4.2 0l0 1.5l-5.9 0zm11.5-3.8l-1.2 0l0 3.8l-1.6 0l0-9.6c0 0 3.65.05 3.6 0c1.9 0 3 1.3 3 2.9c0 1.4-.8 2.4-2.1 2.8c-.02-.04 2.1 3.9 2.1 3.9l-1.8 0l-2-3.8zm.5-1.4c1 0 1.7-.6 1.7-1.5c0-.8-.7-1.4-1.7-1.4c.05-.03-1.7 0-1.7 0l0 2.9c0 0 1.75 0 1.7 0zm5.9 5.2l0-9.6l1.6 0l0 9.6l-1.6 0zm9-9.8c2.5 0 4.8 1.9 4.8 5c0 1.4-.4 2.6-1.2 3.4c0 .02 1.1 1.3 1.1 1.3l-1.1.9c0 0-1.13-1.26-1.1-1.3c-.8.5-1.6.7-2.5.7c-2.5 0-4.9-1.8-4.9-5c0-3.1 2.4-5 4.9-5zm0 8.5c.5 0 1-.1 1.4-.3c.01-.05-1.6-1.8-1.6-1.8l1.1-.9c0 0 1.63 1.72 1.6 1.7c.4-.5.7-1.3.7-2.2c0-2.3-1.6-3.4-3.2-3.4c-1.6 0-3.2 1.1-3.2 3.4c0 2.3 1.6 3.5 3.2 3.5zm7.3-2c-.05-.03 0-6.3 0-6.3l1.6 0c0 0-.05 6.18 0 6.2c0 1.3.7 2.1 1.9 2.1c1.2 0 2-.8 2-2.1c-.04-.02 0-6.2 0-6.2l1.6 0c0 0-.02 6.27 0 6.3c0 2.3-1.6 3.5-3.6 3.5c-2 0-3.5-1.2-3.5-3.5zm10.1 3.3l0-9.6l5.9 0l0 1.6l-4.3 0l0 2.5l3.9 0l0 1.5l-3.9 0l0 2.5l4.3 0l0 1.5l-5.9 0z" stroke="none" fill="#9b78ef"/></g></svg>