<?xml version="1.0" standalone="no"?><!DOCTYPE svg PUBLIC "-//W3C//DTD SVG 1.1//EN" "http://www.w3.org/Graphics/SVG/1.1/DTD/svg11.dtd"><svg xmlns="http://www.w3.org/2000/svg" version="1.1" width="124.5px" height="35.2px" viewBox="0 -4 124.5 35.2" style="top:-4px"><desc>Apprenants</desc><defs/><g id="Polygon163046"><path d="m8.6 10.7l-5.1 0l-1.2 3.1l-2.1 0l4.7-12.1l2.3 0l4.7 12.1l-2.2 0l-1.1-3.1zm-4.4-1.9l3.6 0l-1.8-4.9l-1.8 4.9zm9.1 8.2l0-11.5l1.9 0c0 0 .02 1.1 0 1.1c.4-.7 1.4-1.3 2.7-1.3c2.4 0 3.8 1.9 3.8 4.3c0 2.5-1.5 4.4-3.9 4.4c-1.2 0-2.1-.6-2.5-1.2c-.03.02 0 4.2 0 4.2l-2 0zm4.2-10c-1.3 0-2.3 1.1-2.3 2.6c0 1.6 1 2.6 2.3 2.6c1.3 0 2.2-1 2.2-2.6c0-1.5-.9-2.6-2.2-2.6zm6.1 10l0-11.5l1.9 0c0 0-.02 1.1 0 1.1c.4-.7 1.3-1.3 2.6-1.3c2.5 0 3.8 1.9 3.8 4.3c0 2.5-1.5 4.4-3.9 4.4c-1.1 0-2-.6-2.5-1.2c.03.02 0 4.2 0 4.2l-1.9 0zm4.1-10c-1.2 0-2.2 1.1-2.2 2.6c0 1.6 1 2.6 2.2 2.6c1.4 0 2.3-1 2.3-2.6c0-1.5-.9-2.6-2.3-2.6zm11 .4c-.2 0-.5 0-.7 0c-1.5 0-2.2.9-2.2 2.4c.02.01 0 4 0 4l-2 0l0-8.3l2 0c0 0-.03 1.3 0 1.3c.4-.9 1.3-1.4 2.4-1.4c.2 0 .4 0 .5 0c0 0 0 2 0 2zm7 1.3c0-1-.7-1.8-2-1.8c-1.3 0-2 .9-2.1 1.8c0 0 4.1 0 4.1 0zm1.9 2.7c-.5 1.4-1.8 2.6-3.8 2.6c-2.2 0-4.2-1.6-4.2-4.4c0-2.6 1.9-4.4 4-4.4c2.6 0 4.1 1.7 4.1 4.3c0 .3 0 .6-.1.6c0 0-6 0-6 0c0 1.3 1 2.2 2.2 2.2c1.2 0 1.8-.6 2.1-1.4c0 0 1.7.5 1.7.5zm3.9 2.4l-1.9 0l0-8.3l1.9 0c0 0-.01 1.08 0 1.1c.5-1 1.5-1.4 2.4-1.4c2.1 0 3 1.5 3 3.3c.03.02 0 5.3 0 5.3l-1.9 0c0 0-.04-4.94 0-4.9c0-1.1-.5-1.9-1.7-1.9c-1.2 0-1.8.9-1.8 2c.04-.02 0 4.8 0 4.8zm9.8-4.8c0 0 2.1-.3 2.1-.3c.5-.1.7-.3.7-.6c0-.7-.5-1.3-1.6-1.3c-1 0-1.6.7-1.7 1.5c0 0-1.8-.4-1.8-.4c.1-1.4 1.4-2.7 3.5-2.7c2.5 0 3.5 1.5 3.5 3.1c0 0 0 4.1 0 4.1c0 .8.1 1.3.1 1.4c0 0-1.8 0-1.8 0c-.1-.1-.1-.4-.1-1.1c-.4.6-1.2 1.3-2.6 1.3c-1.7 0-2.8-1.2-2.8-2.5c0-1.5 1.1-2.3 2.5-2.5zm2.8 1.3c-.04.02 0-.4 0-.4c0 0-2.2.37-2.2.4c-.6.1-1.1.4-1.1 1.1c0 .6.4 1.1 1.2 1.1c1.1 0 2.1-.6 2.1-2.2zm6.2 3.5l-1.9 0l0-8.3l1.9 0c0 0-.01 1.08 0 1.1c.5-1 1.5-1.4 2.4-1.4c2.1 0 3 1.5 3 3.3c.03.02 0 5.3 0 5.3l-1.9 0c0 0-.04-4.94 0-4.9c0-1.1-.5-1.9-1.7-1.9c-1.2 0-1.8.9-1.8 2c.05-.02 0 4.8 0 4.8zm10.3-8.3l1.7 0l0 1.7l-1.7 0c0 0 .03 3.87 0 3.9c0 .7.4 1 1.1 1c.3 0 .6 0 .7-.1c0 0 0 1.7 0 1.7c-.2 0-.5.2-1.2.2c-1.6 0-2.5-1-2.5-2.5c-.02-.01 0-4.2 0-4.2l-1.6 0l0-1.7c0 0 .47-.03.5 0c.9 0 1.2-.6 1.2-1.3c.05-.02 0-1.3 0-1.3l1.8 0l0 2.6zm4.9 5.5c.1.8.6 1.4 1.7 1.4c.8 0 1.2-.4 1.2-.9c0-.5-.3-.8-1-.9c0 0-1.2-.3-1.2-.3c-1.4-.3-2.2-1.3-2.2-2.4c0-1.5 1.3-2.7 3-2.7c2.4 0 3.1 1.5 3.2 2.3c0 0-1.6.5-1.6.5c-.1-.5-.5-1.2-1.6-1.2c-.7 0-1.2.4-1.2.9c0 .5.4.8.9.9c0 0 1.2.2 1.2.2c1.6.4 2.4 1.3 2.4 2.6c0 1.2-1 2.6-3.1 2.6c-2.4 0-3.3-1.6-3.4-2.5c0 0 1.7-.5 1.7-.5z" stroke="none" fill="#144542"/></g></svg>