<?xml version="1.0" standalone="no"?><!DOCTYPE svg PUBLIC "-//W3C//DTD SVG 1.1//EN" "http://www.w3.org/Graphics/SVG/1.1/DTD/svg11.dtd"><svg xmlns="http://www.w3.org/2000/svg" version="1.1" width="157.3px" height="68.9px" viewBox="0 -9 157.3 68.9" style="top:-9px"><desc>4,3/5</desc><defs/><g id="Polygon167083"><path d="m55.3 26.8l-2.6 0l0 7.9l-5.7 0l0-7.9l-10.1 0l15.8-19.5l0 15.9l4.3 0l-1.7 3.6zm-8.3-3.6l0-7.6l-6.1 7.6l6.1 0zm11.8 8.8c2.7-1.4 4.3-4.2 4.5-6c0 0-.1 0-.1 0c-.4.9-1 1.3-2 1.3c-1.1 0-2.7-1.1-2.7-3.3c0-1.8 1.3-3.2 3.2-3.2c2.4 0 3.4 1.8 3.4 3.9c0 1.6-.8 5.2-6.3 7.9c0 0 0-.6 0-.6zm25.1-4.7c0 6.4-6.1 8.1-9.7 8c-6.2-.1-8-3.2-8-5.9c0-1.9 1.8-3.4 3.2-3.4c1.6 0 3.1.9 3.1 2.8c0 1.4-1 2.1-1 3.1c0 .8.4 2.6 2.7 2.6c2.6 0 3.7-2.5 3.7-6.5c0-4.2-2.4-6.7-8.4-5.1c0 0-.4-.6-.4-.6c4.5-2 8.3-4.8 8.3-8.6c0-2.1-.9-4.6-3.3-4.6c-1.7 0-2.9 1.3-2.9 2.4c0 1.7 1.6 2.1 1.6 3.7c0 1.3-1.2 2.3-2.4 2.3c-2 0-3.2-1.3-3.2-3.2c0-2.8 2.7-5.9 7.4-5.9c5.2 0 8 2 8 5.7c0 3-3.1 5.4-7.4 6.7c0 0 0 .2 0 .2c5.7-.4 8.7 2.4 8.7 6.3zm5.3-3.6l6.8-13.7l4.4-9.1l1.4 0l-5 9.4l-6.9 13.9l-4 8.3l-1.5 0l4.8-8.8zm29.9 1.9c0 4.1-3.3 9.5-9.4 9.5c-6 0-7.6-3-7.6-5.6c0-2.1 1.5-3.8 3-3.8c1.5 0 3 .9 2.8 3c-.1 1.2-1.2 1.7-1.2 2.9c0 1.8 1.2 2.6 2.9 2.6c2.5 0 4.4-2 4.7-5.7c.5-4.5-2.2-6.9-5.2-6.9c-2.4 0-3.7 1-4.9 2.1c-.05-.05-.7 0-.7 0l2.6-14.9c0 0 7.67.02 7.7 0c2.1 0 4.1-.6 4.9-2.2c0-.01.6 0 .6 0l-2 7.5l-11.4 0c0 0-1.1 6.71-1.1 6.7c1.9-2.5 4.2-3.4 6.9-3.4c4.9 0 7.4 4.2 7.4 8.2z" stroke="none" fill="#9b78ef"/></g></svg>