<?xml version="1.0" standalone="no"?><!DOCTYPE svg PUBLIC "-//W3C//DTD SVG 1.1//EN" "http://www.w3.org/Graphics/SVG/1.1/DTD/svg11.dtd"><svg xmlns="http://www.w3.org/2000/svg" version="1.1" width="75px" height="16px" viewBox="0 -3 75 16" style="top:-3px"><desc>de publics PRIC</desc><defs/><g id="Polygon163544"><path d="m2.9 7.8c.9 0 1.5-.8 1.5-1.9c0-1-.6-1.7-1.5-1.7c-.9 0-1.5.7-1.5 1.8c0 1 .6 1.8 1.5 1.8zm1.5-.1c-.3.5-.8.9-1.6.9c-1.5 0-2.4-1.1-2.4-2.6c0-1.5 1-2.7 2.4-2.7c.9 0 1.4.4 1.6.9c-.04-.04 0-3.3 0-3.3l.9 0c0 0 .03 6.66 0 6.7c0 .4.1.8.1.9c0 0-1 0-1 0c0-.1 0-.4 0-.7c0 0 0-.1 0-.1zm6-2.2c0-.8-.5-1.3-1.4-1.3c-.8 0-1.3.6-1.3 1.3c0 0 2.7 0 2.7 0zm1 1.6c-.3.8-1.1 1.6-2.3 1.6c-1.3 0-2.5-1-2.5-2.7c0-1.6 1.1-2.7 2.4-2.7c1.6 0 2.4 1.1 2.4 2.6c0 .2 0 .3 0 .3c0 0-3.8 0-3.8 0c0 1 .7 1.6 1.5 1.6c.9 0 1.3-.5 1.5-1c0 0 .8.3.8.3zm3.9 3.4l0-7.1l1 0c0 0-.02.83 0 .8c.3-.5.9-.9 1.7-.9c1.5 0 2.3 1.2 2.3 2.7c0 1.5-.9 2.6-2.4 2.6c-.7 0-1.3-.3-1.6-.8c.01.01 0 2.7 0 2.7l-1 0zm4-4.5c0-1-.6-1.8-1.5-1.8c-.9 0-1.5.8-1.5 1.8c0 1 .6 1.7 1.5 1.7c.9 0 1.5-.7 1.5-1.7c0 0 0 0 0 0zm5.5 1.9c-.2.5-.9.8-1.5.8c-1.1 0-1.8-.9-1.8-2.1c-.05.03 0-3.2 0-3.2l.9 0c0 0 .04 3.08 0 3.1c0 .7.4 1.3 1.2 1.3c.8 0 1.2-.5 1.2-1.3c-.02-.01 0-3.1 0-3.1l1 0c0 0-.03 4.16 0 4.2c0 .4 0 .7 0 .9c0 0-.9 0-.9 0c0-.1-.1-.4-.1-.6c0 0 0 0 0 0zm2.6.6l0-7.6l1 0c0 0 .02 3.26 0 3.3c.3-.5.9-.9 1.7-.9c1.5 0 2.3 1.2 2.3 2.6c0 1.5-.8 2.7-2.3 2.7c-.8 0-1.4-.3-1.7-.8c.02-.04 0 .7 0 .7l-1 0zm2.5-4.3c-.9 0-1.5.7-1.5 1.7c0 1.1.6 1.8 1.5 1.8c.9 0 1.5-.7 1.5-1.8c0-1-.6-1.7-1.5-1.7zm3.8 4.3l0-7.6l1 0l0 7.6l-1 0zm2.6 0l0-5.1l1 0l0 5.1l-1 0zm.5-7.7c.4 0 .7.3.7.7c0 .4-.3.7-.7.7c-.4 0-.7-.3-.7-.7c0-.4.3-.7.7-.7zm2.8 5.2c0 1.1.7 1.7 1.5 1.7c1 0 1.3-.6 1.4-1c0 0 .9.4.9.4c-.2.7-1 1.6-2.3 1.6c-1.4 0-2.5-1.2-2.5-2.7c0-1.6 1.1-2.7 2.5-2.7c1.4 0 2.1.8 2.3 1.6c0 0-.9.4-.9.4c-.2-.5-.5-1.1-1.4-1.1c-.8 0-1.5.6-1.5 1.8zm5.4.9c0 .5.4.9 1.2.9c.5 0 .8-.3.8-.7c0-.3-.2-.5-.6-.6c0 0-.9-.2-.9-.2c-.8-.2-1.3-.7-1.3-1.4c0-.9.9-1.6 1.8-1.6c1.4 0 1.9.9 2 1.3c0 0-.9.4-.9.4c0-.3-.3-.9-1.1-.9c-.5 0-.8.4-.8.7c0 .3.2.5.6.6c0 0 .8.2.8.2c.9.2 1.4.7 1.4 1.5c0 .7-.6 1.6-1.9 1.6c-1.3 0-1.9-.9-2-1.5c0 0 .9-.3.9-.3zm9.6-2.4c.9 0 1.4-.5 1.4-1.2c0-.8-.5-1.3-1.4-1.3c-.04-.03-1.5 0-1.5 0l0 2.5c0 0 1.46.03 1.5 0zm-1.5.9l0 3.1l-1.1 0l0-7.4c0 0 2.75-.05 2.7 0c1.4 0 2.3.9 2.3 2.2c0 1.2-.9 2.1-2.3 2.1c.05.05-1.6 0-1.6 0zm7.4 0l-1.2 0l0 3.1l-1 0l0-7.4c0 0 2.81-.05 2.8 0c1.4 0 2.3.9 2.3 2.2c0 1-.7 1.9-1.8 2.1c-.02-.02 1.8 3.1 1.8 3.1l-1.2 0l-1.7-3.1zm.4-.9c.9 0 1.4-.5 1.4-1.2c0-.8-.5-1.3-1.4-1.3c.02-.03-1.6 0-1.6 0l0 2.5c0 0 1.62.03 1.6 0zm3.9 4l0-7.4l1.1 0l0 7.4l-1.1 0zm2.5-3.7c0-2.5 1.8-3.9 3.7-3.9c1.7 0 2.9.9 3.2 2.4c0 0-.9.3-.9.3c-.3-1.1-1.1-1.8-2.3-1.8c-1.4 0-2.7 1-2.7 3c0 1.9 1.3 2.9 2.7 2.9c1.2 0 2-.8 2.3-1.8c0 0 1 .4 1 .4c-.4 1.4-1.6 2.4-3.3 2.4c-2 0-3.7-1.4-3.7-3.9z" stroke="none" fill="#fff"/></g></svg>