<?xml version="1.0" standalone="no"?><!DOCTYPE svg PUBLIC "-//W3C//DTD SVG 1.1//EN" "http://www.w3.org/Graphics/SVG/1.1/DTD/svg11.dtd"><svg xmlns="http://www.w3.org/2000/svg" version="1.1" width="204px" height="76.2px" viewBox="0 -4 204 76.2" style="top:-4px"><desc>Renforcer l’apprentissage par la pratique</desc><defs/><g id="Polygon168901"><path d="m1.3 37.4l0-11.5l1.9 0c0 0-.02 1.1 0 1.1c.4-.7 1.3-1.3 2.6-1.3c2.5 0 3.8 1.9 3.8 4.3c0 2.5-1.5 4.4-3.9 4.4c-1.1 0-2-.6-2.5-1.2c.03.02 0 4.2 0 4.2l-1.9 0zm4.1-10c-1.3 0-2.2 1.1-2.2 2.6c0 1.6.9 2.6 2.2 2.6c1.3 0 2.3-1 2.3-2.6c0-1.5-.9-2.6-2.3-2.6zm8.1 2c0 0 2.2-.3 2.2-.3c.4-.1.6-.3.6-.6c0-.7-.5-1.3-1.6-1.3c-1 0-1.6.7-1.7 1.5c0 0-1.8-.4-1.8-.4c.2-1.4 1.4-2.7 3.5-2.7c2.5 0 3.5 1.5 3.5 3.1c0 0 0 4.1 0 4.1c0 .8.1 1.3.1 1.4c0 0-1.8 0-1.8 0c0-.1-.1-.4-.1-1.1c-.4.6-1.2 1.3-2.6 1.3c-1.7 0-2.8-1.2-2.8-2.5c0-1.5 1.1-2.3 2.5-2.5zm2.8 1.3c-.03.02 0-.4 0-.4c0 0-2.19.37-2.2.4c-.6.1-1.1.4-1.1 1.1c0 .6.4 1.1 1.2 1.1c1.1 0 2.1-.6 2.1-2.2zm9.1-2.9c-.2 0-.4 0-.6 0c-1.5 0-2.2.9-2.2 2.4c-.04.01 0 4 0 4l-2 0l0-8.3l1.9 0c0 0 .01 1.3 0 1.3c.4-.9 1.3-1.4 2.4-1.4c.2 0 .4 0 .5 0c0 0 0 2 0 2zm5.9 6.4l0-12.4l1.9 0l0 12.4l-1.9 0zm6.4-4.8c0 0 2.2-.3 2.2-.3c.4-.1.6-.3.6-.6c0-.7-.5-1.3-1.6-1.3c-1 0-1.6.7-1.7 1.5c0 0-1.8-.4-1.8-.4c.2-1.4 1.5-2.7 3.5-2.7c2.5 0 3.5 1.5 3.5 3.1c0 0 0 4.1 0 4.1c0 .8.1 1.3.1 1.4c0 0-1.8 0-1.8 0c0-.1-.1-.4-.1-1.1c-.4.6-1.2 1.3-2.6 1.3c-1.7 0-2.8-1.2-2.8-2.5c0-1.5 1.1-2.3 2.5-2.5zm2.8 1.3c-.02.02 0-.4 0-.4c0 0-2.18.37-2.2.4c-.6.1-1.1.4-1.1 1.1c0 .6.4 1.1 1.2 1.1c1.1 0 2.1-.6 2.1-2.2zm8.5 6.7l0-11.5l1.9 0c0 0 .01 1.1 0 1.1c.4-.7 1.4-1.3 2.6-1.3c2.5 0 3.9 1.9 3.9 4.3c0 2.5-1.5 4.4-3.9 4.4c-1.2 0-2.1-.6-2.5-1.2c-.04.02 0 4.2 0 4.2l-2 0zm4.2-10c-1.3 0-2.3 1.1-2.3 2.6c0 1.6 1 2.6 2.3 2.6c1.3 0 2.2-1 2.2-2.6c0-1.5-.9-2.6-2.2-2.6zm10.9.4c-.2 0-.4 0-.6 0c-1.6 0-2.3.9-2.3 2.4c.05.01 0 4 0 4l-1.9 0l0-8.3l1.9 0c0 0 0 1.3 0 1.3c.4-.9 1.3-1.4 2.4-1.4c.2 0 .4 0 .5 0c0 0 0 2 0 2zm3.7 1.6c0 0 2.1-.3 2.1-.3c.5-.1.6-.3.6-.6c0-.7-.5-1.3-1.5-1.3c-1.1 0-1.7.7-1.7 1.5c0 0-1.9-.4-1.9-.4c.2-1.4 1.5-2.7 3.5-2.7c2.6 0 3.6 1.5 3.6 3.1c0 0 0 4.1 0 4.1c0 .8 0 1.3.1 1.4c0 0-1.9 0-1.9 0c0-.1-.1-.4-.1-1.1c-.4.6-1.2 1.3-2.5 1.3c-1.8 0-2.8-1.2-2.8-2.5c0-1.5 1.1-2.3 2.5-2.5zm2.7 1.3c.01.02 0-.4 0-.4c0 0-2.14.37-2.1.4c-.7.1-1.1.4-1.1 1.1c0 .6.4 1.1 1.2 1.1c1.1 0 2-.6 2-2.2zm6.8-4.8l1.7 0l0 1.7l-1.7 0c0 0 0 3.87 0 3.9c0 .7.3 1 1.1 1c.2 0 .5 0 .6-.1c0 0 0 1.7 0 1.7c-.1 0-.5.2-1.2.2c-1.5 0-2.5-1-2.5-2.5c.04-.01 0-4.2 0-4.2l-1.5 0l0-1.7c0 0 .44-.03.4 0c.9 0 1.3-.6 1.3-1.3c.01-.02 0-1.3 0-1.3l1.8 0l0 2.6zm3.7 8.3l0-8.3l2 0l0 8.3l-2 0zm1-12.5c.7 0 1.3.6 1.3 1.3c0 .7-.6 1.2-1.3 1.2c-.7 0-1.3-.5-1.3-1.2c0-.7.6-1.3 1.3-1.3zm9.3 15.7c0 0 .01-4.23 0-4.2c-.4.7-1.3 1.2-2.4 1.2c-2.4 0-4-1.9-4-4.4c0-2.4 1.5-4.3 3.9-4.3c1.5 0 2.3.7 2.6 1.3c-.04-.02 0-1.1 0-1.1l1.8 0l0 11.5l-1.9 0zm-2.2-4.8c1.3 0 2.2-1 2.2-2.6c0-1.6-.9-2.6-2.2-2.6c-1.3 0-2.2 1-2.2 2.6c0 1.6.9 2.6 2.2 2.6zm9.6 1.8c-2 0-3.1-1.5-3.1-3.3c-.01-.01 0-5.2 0-5.2l2 0c0 0-.04 4.84 0 4.8c0 1.1.4 1.9 1.6 1.9c1.2 0 1.8-.7 1.8-1.8c-.04-.03 0-4.9 0-4.9l1.9 0c0 0 .03 6.74 0 6.7c0 .7.1 1.2.1 1.6c0 0-1.9 0-1.9 0c0-.2 0-.6 0-1c-.4.8-1.4 1.2-2.4 1.2zm12.2-5.3c-.1-1-.7-1.8-2.1-1.8c-1.2 0-1.9.9-2 1.8c0 0 4.1 0 4.1 0zm1.9 2.7c-.5 1.4-1.8 2.6-3.8 2.6c-2.2 0-4.2-1.6-4.2-4.4c0-2.6 1.9-4.4 4-4.4c2.6 0 4.1 1.7 4.1 4.3c0 .3-.1.6-.1.6c0 0-6 0-6 0c0 1.3 1 2.2 2.2 2.2c1.2 0 1.8-.6 2.1-1.4c0 0 1.7.5 1.7.5z" stroke="none" fill="#9b78ef"/></g><g id="Polygon168900"><path d="m5 9l-1.5 0l0 4.8l-2.1 0l0-12.1c0 0 4.67 0 4.7 0c2.3 0 3.7 1.6 3.7 3.7c0 1.7-1 3-2.7 3.4c.02-.01 2.7 5 2.7 5l-2.3 0l-2.5-4.8zm.7-1.8c1.3 0 2.1-.7 2.1-1.8c0-1.2-.8-1.9-2.1-1.9c0 0-2.2 0-2.2 0l0 3.7c0 0 2.2-.01 2.2 0zm11.3 1.5c0-1-.7-1.8-2-1.8c-1.3 0-2 .9-2.1 1.8c0 0 4.1 0 4.1 0zm1.9 2.7c-.5 1.4-1.8 2.6-3.8 2.6c-2.2 0-4.2-1.6-4.2-4.4c0-2.6 2-4.4 4-4.4c2.6 0 4.1 1.7 4.1 4.3c0 .3 0 .6-.1.6c0 0-6 0-6 0c0 1.3 1 2.2 2.2 2.2c1.2 0 1.8-.6 2.1-1.4c0 0 1.7.5 1.7.5zm3.9 2.4l-1.9 0l0-8.3l1.9 0c0 0 0 1.08 0 1.1c.5-1 1.5-1.4 2.4-1.4c2.1 0 3 1.5 3 3.3c.04.02 0 5.3 0 5.3l-1.9 0c0 0-.04-4.94 0-4.9c0-1.1-.5-1.9-1.7-1.9c-1.2 0-1.8.9-1.8 2c.05-.02 0 4.8 0 4.8zm10.3-9.4c-.02-.01 0 1.1 0 1.1l1.9 0l0 1.7l-1.9 0l0 6.6l-2 0l0-6.6l-1.5 0l0-1.7l1.5 0c0 0-.01-1.17 0-1.2c0-1.8 1.2-2.9 2.9-2.9c.5 0 .9.1 1 .1c0 0 0 1.7 0 1.7c-.1 0-.3-.1-.7-.1c-.5 0-1.2.3-1.2 1.3zm9.2 5.2c0-1.7-1.1-2.6-2.3-2.6c-1.2 0-2.3.9-2.3 2.6c0 1.7 1.1 2.6 2.3 2.6c1.2 0 2.3-.9 2.3-2.6zm2 0c0 2.6-1.9 4.4-4.3 4.4c-2.5 0-4.3-1.8-4.3-4.4c0-2.5 1.8-4.4 4.3-4.4c2.4 0 4.3 1.9 4.3 4.4zm6.7-2.2c-.2 0-.4 0-.6 0c-1.6 0-2.3.9-2.3 2.4c.04.01 0 4 0 4l-1.9 0l0-8.3l1.9 0c0 0-.01 1.3 0 1.3c.4-.9 1.3-1.4 2.4-1.4c.2 0 .4 0 .5 0c0 0 0 2 0 2zm2.9 2.2c0 1.7 1.1 2.6 2.3 2.6c1.3 0 1.9-.9 2.1-1.5c0 0 1.7.6 1.7.6c-.4 1.3-1.6 2.7-3.8 2.7c-2.4 0-4.3-1.9-4.3-4.4c0-2.5 1.9-4.4 4.3-4.4c2.2 0 3.4 1.4 3.8 2.7c0 0-1.8.7-1.8.7c-.2-.7-.8-1.6-2-1.6c-1.2 0-2.3.9-2.3 2.6zm13.2-.9c0-1-.6-1.8-2-1.8c-1.2 0-2 .9-2 1.8c0 0 4 0 4 0zm1.9 2.7c-.4 1.4-1.7 2.6-3.7 2.6c-2.3 0-4.3-1.6-4.3-4.4c0-2.6 2-4.4 4.1-4.4c2.5 0 4 1.7 4 4.3c0 .3 0 .6 0 .6c0 0-6.1 0-6.1 0c.1 1.3 1.1 2.2 2.3 2.2c1.2 0 1.8-.6 2.1-1.4c0 0 1.6.5 1.6.5zm6.9-4c-.3 0-.5 0-.7 0c-1.5 0-2.2.9-2.2 2.4c-.02.01 0 4 0 4l-2 0l0-8.3l1.9 0c0 0 .03 1.3 0 1.3c.4-.9 1.3-1.4 2.4-1.4c.3 0 .5 0 .6 0c0 0 0 2 0 2zm5.8 6.4l0-12.4l2 0l0 12.4l-2 0zm5.1-12.2c.8 0 1.4.6 1.4 1.5c0 2.3-1.5 3.1-2.5 3.2c0 0 0-.9 0-.9c.7-.2 1.3-.8 1.4-1.6c-.1 0-.2.1-.4.1c-.7 0-1.1-.5-1.1-1.2c0-.6.5-1.1 1.2-1.1zm4.7 7.4c0 0 2.1-.3 2.1-.3c.5-.1.6-.3.6-.6c0-.7-.5-1.3-1.6-1.3c-1 0-1.6.7-1.7 1.5c0 0-1.8-.4-1.8-.4c.2-1.4 1.5-2.7 3.5-2.7c2.6 0 3.6 1.5 3.6 3.1c0 0 0 4.1 0 4.1c0 .8 0 1.3.1 1.4c0 0-1.9 0-1.9 0c0-.1-.1-.4-.1-1.1c-.4.6-1.2 1.3-2.5 1.3c-1.8 0-2.8-1.2-2.8-2.5c0-1.5 1.1-2.3 2.5-2.5zm2.7 1.3c.01.02 0-.4 0-.4c0 0-2.15.37-2.1.4c-.7.1-1.2.4-1.2 1.1c0 .6.5 1.1 1.3 1.1c1.1 0 2-.6 2-2.2zm4.3 6.7l0-11.5l1.9 0c0 0 .03 1.1 0 1.1c.4-.7 1.4-1.3 2.7-1.3c2.4 0 3.8 1.9 3.8 4.3c0 2.5-1.5 4.4-3.9 4.4c-1.2 0-2.1-.6-2.5-1.2c-.01.02 0 4.2 0 4.2l-2 0zm4.2-10c-1.3 0-2.2 1.1-2.2 2.6c0 1.6.9 2.6 2.2 2.6c1.3 0 2.2-1 2.2-2.6c0-1.5-.9-2.6-2.2-2.6zm6.1 10l0-11.5l1.9 0c0 0 0 1.1 0 1.1c.4-.7 1.4-1.3 2.6-1.3c2.5 0 3.9 1.9 3.9 4.3c0 2.5-1.6 4.4-3.9 4.4c-1.2 0-2.1-.6-2.5-1.2c-.05.02 0 4.2 0 4.2l-2 0zm4.2-10c-1.3 0-2.3 1.1-2.3 2.6c0 1.6 1 2.6 2.3 2.6c1.3 0 2.2-1 2.2-2.6c0-1.5-.9-2.6-2.2-2.6zm10.9.4c-.2 0-.4 0-.6 0c-1.6 0-2.3.9-2.3 2.4c.04.01 0 4 0 4l-1.9 0l0-8.3l1.9 0c0 0-.01 1.3 0 1.3c.4-.9 1.3-1.4 2.4-1.4c.2 0 .4 0 .5 0c0 0 0 2 0 2zm7 1.3c0-1-.7-1.8-2-1.8c-1.3 0-2 .9-2 1.8c0 0 4 0 4 0zm1.9 2.7c-.4 1.4-1.7 2.6-3.7 2.6c-2.3 0-4.3-1.6-4.3-4.4c0-2.6 2-4.4 4.1-4.4c2.5 0 4 1.7 4 4.3c0 .3 0 .6 0 .6c0 0-6.1 0-6.1 0c.1 1.3 1 2.2 2.3 2.2c1.2 0 1.8-.6 2-1.4c0 0 1.7.5 1.7.5zm4 2.4l-2 0l0-8.3l1.9 0c0 0 .01 1.08 0 1.1c.6-1 1.5-1.4 2.5-1.4c2 0 3 1.5 3 3.3c-.05.02 0 5.3 0 5.3l-2 0c0 0-.02-4.94 0-4.9c0-1.1-.5-1.9-1.7-1.9c-1.1 0-1.7.9-1.7 2c-.04-.02 0 4.8 0 4.8zm10.2-8.3l1.8 0l0 1.7l-1.8 0c0 0 .05 3.87 0 3.9c0 .7.4 1 1.1 1c.3 0 .6 0 .7-.1c0 0 0 1.7 0 1.7c-.1 0-.5.2-1.2.2c-1.6 0-2.5-1-2.5-2.5c-.01-.01 0-4.2 0-4.2l-1.5 0l0-1.7c0 0 .39-.03.4 0c.9 0 1.3-.6 1.3-1.3c-.04-.02 0-1.3 0-1.3l1.7 0l0 2.6zm3.8 8.3l0-8.3l1.9 0l0 8.3l-1.9 0zm1-12.5c.7 0 1.2.6 1.2 1.3c0 .7-.5 1.2-1.2 1.2c-.7 0-1.3-.5-1.3-1.2c0-.7.6-1.3 1.3-1.3zm4.5 9.7c0 .8.6 1.4 1.7 1.4c.8 0 1.2-.4 1.2-.9c0-.5-.3-.8-1-.9c0 0-1.2-.3-1.2-.3c-1.5-.3-2.2-1.3-2.2-2.4c0-1.5 1.3-2.7 3-2.7c2.3 0 3.1 1.5 3.2 2.3c0 0-1.6.5-1.6.5c-.1-.5-.5-1.2-1.6-1.2c-.7 0-1.2.4-1.2.9c0 .5.4.8.9.9c0 0 1.2.2 1.2.2c1.6.4 2.4 1.3 2.4 2.6c0 1.2-1 2.6-3.1 2.6c-2.4 0-3.3-1.6-3.4-2.5c0 0 1.7-.5 1.7-.5zm7.7 0c.1.8.7 1.4 1.7 1.4c.8 0 1.3-.4 1.3-.9c0-.5-.3-.8-1-.9c0 0-1.2-.3-1.2-.3c-1.5-.3-2.2-1.3-2.2-2.4c0-1.5 1.3-2.7 3-2.7c2.3 0 3.1 1.5 3.2 2.3c0 0-1.7.5-1.7.5c0-.5-.4-1.2-1.5-1.2c-.7 0-1.2.4-1.2.9c0 .5.3.8.8.9c0 0 1.3.2 1.3.2c1.6.4 2.4 1.3 2.4 2.6c0 1.2-1 2.6-3.2 2.6c-2.3 0-3.3-1.6-3.4-2.5c0 0 1.7-.5 1.7-.5zm8.7-2c0 0 2.1-.3 2.1-.3c.5-.1.6-.3.6-.6c0-.7-.4-1.3-1.5-1.3c-1.1 0-1.6.7-1.7 1.5c0 0-1.8-.4-1.8-.4c.1-1.4 1.4-2.7 3.5-2.7c2.5 0 3.5 1.5 3.5 3.1c0 0 0 4.1 0 4.1c0 .8.1 1.3.1 1.4c0 0-1.9 0-1.9 0c0-.1 0-.4 0-1.1c-.4.6-1.3 1.3-2.6 1.3c-1.7 0-2.8-1.2-2.8-2.5c0-1.5 1.1-2.3 2.5-2.5zm2.7 1.3c.04.02 0-.4 0-.4c0 0-2.12.37-2.1.4c-.6.1-1.1.4-1.1 1.1c0 .6.4 1.1 1.2 1.1c1.1 0 2-.6 2-2.2zm5.6 3.4c.1 1.1.9 1.8 2 1.8c1.6 0 2.4-.8 2.4-2.5c0 0 0-.8 0-.8c-.4.6-1.2 1.2-2.4 1.2c-2.2 0-3.8-1.7-3.8-4.1c0-2.2 1.5-4 3.8-4c1.3 0 2.1.5 2.4 1.2c.03.03 0-1 0-1l1.9 0c0 0 .04 7.47 0 7.5c0 2.2-1.1 4.2-4.2 4.2c-2.2 0-3.7-1.3-4-3c0 0 1.9-.5 1.9-.5zm4.4-4.4c0-1.4-.9-2.3-2.1-2.3c-1.2 0-2.2.9-2.2 2.3c0 1.5.9 2.4 2.2 2.4c1.3 0 2.1-.9 2.1-2.4zm9.8-.6c0-1-.7-1.8-2-1.8c-1.3 0-2 .9-2.1 1.8c0 0 4.1 0 4.1 0zm1.9 2.7c-.5 1.4-1.8 2.6-3.8 2.6c-2.2 0-4.2-1.6-4.2-4.4c0-2.6 1.9-4.4 4-4.4c2.6 0 4.1 1.7 4.1 4.3c0 .3-.1.6-.1.6c0 0-6 0-6 0c0 1.3 1 2.2 2.2 2.2c1.2 0 1.8-.6 2.1-1.4c0 0 1.7.5 1.7.5z" stroke="none" fill="#9b78ef"/></g></svg>