<?xml version="1.0" standalone="no"?><!DOCTYPE svg PUBLIC "-//W3C//DTD SVG 1.1//EN" "http://www.w3.org/Graphics/SVG/1.1/DTD/svg11.dtd"><svg xmlns="http://www.w3.org/2000/svg" version="1.1" width="44px" height="17px" viewBox="0 -3 44 17" style="top:-3px"><desc>+ 50 ans</desc><defs/><g id="Polygon165418"><path d="m2.5 5.1l0-2.1l.9 0l0 2.1l2 0l0 .8l-2 0l0 2.1l-.9 0l0-2.1l-1.9 0l0-.8l1.9 0zm7.4 1.3c.1.8.7 1.4 1.6 1.4c.8 0 1.4-.6 1.4-1.4c0-1-.7-1.4-1.4-1.4c-.5 0-1 .2-1.3.5c-.3-.2-.6-.3-1-.4c.01-.03.9-3.4.9-3.4l3.6 0l0 .9l-2.9 0c0 0-.53 1.99-.5 2c.3-.3.8-.5 1.4-.5c1.3 0 2.3.8 2.3 2.2c0 1.3-1 2.4-2.5 2.4c-1.5 0-2.5-1-2.6-2.1c0 0 1-.2 1-.2zm6.6.9c.2.3.6.4 1.1.4c.4 0 .8-.1 1-.4c.4-.4.6-1.2.6-2.2c0-1-.2-1.8-.6-2.2c-.2-.3-.6-.5-1-.5c-.5 0-.9.2-1.1.5c-.4.4-.6 1.2-.6 2.2c0 1 .2 1.8.6 2.2zm-1-4.7c.4-.6 1.1-1.1 2.1-1.1c.9 0 1.6.5 2 1.1c.5.7.7 1.6.7 2.5c0 .9-.2 1.8-.7 2.5c-.4.6-1.1 1.1-2 1.1c-1 0-1.7-.5-2.1-1.1c-.5-.7-.6-1.6-.6-2.5c0-.9.1-1.8.6-2.5zm8.4 4.5c0-.9.7-1.4 1.6-1.5c0 0 1.3-.2 1.3-.2c.3 0 .4-.2.4-.4c0-.5-.3-.9-1.1-.9c-.7 0-1.1.5-1.1 1c0 0-1-.2-1-.2c.1-.9 1-1.6 2.1-1.6c1.5 0 2.1.8 2.1 1.8c0 0 0 2.6 0 2.6c0 .4 0 .7.1.8c0 0-1 0-1 0c0-.1-.1-.3-.1-.7c-.2.4-.7.9-1.6.9c-1 0-1.7-.8-1.7-1.6c0 0 0 0 0 0zm3.3-.8c.02.03 0-.2 0-.2c0 0-1.53.23-1.5.2c-.4.1-.8.3-.8.8c0 .4.4.7.9.7c.8 0 1.4-.4 1.4-1.5zm3.5 2.2l-1 0l0-5.1l1 0c0 0 0 .77 0 .8c.4-.7 1-.9 1.6-.9c1.2 0 1.8.9 1.8 2c-.04-.01 0 3.2 0 3.2l-1 0c0 0-.02-3.04 0-3c0-.7-.3-1.3-1.2-1.3c-.8 0-1.2.6-1.2 1.4c.02-.03 0 2.9 0 2.9zm5.4-1.6c0 .5.4.9 1.1.9c.6 0 .9-.3.9-.7c0-.3-.2-.5-.7-.6c0 0-.8-.2-.8-.2c-.8-.2-1.3-.7-1.3-1.4c0-.9.8-1.6 1.8-1.6c1.4 0 1.8.9 1.9 1.3c0 0-.8.4-.8.4c-.1-.3-.3-.9-1.1-.9c-.5 0-.8.4-.8.7c0 .3.2.5.6.6c0 0 .8.2.8.2c.9.2 1.4.7 1.4 1.5c0 .7-.6 1.6-1.9 1.6c-1.4 0-2-.9-2-1.5c0 0 .9-.3.9-.3z" stroke="none" fill="#144542"/></g></svg>