<?xml version="1.0" standalone="no"?><!DOCTYPE svg PUBLIC "-//W3C//DTD SVG 1.1//EN" "http://www.w3.org/Graphics/SVG/1.1/DTD/svg11.dtd"><svg xmlns="http://www.w3.org/2000/svg" version="1.1" width="81px" height="76.1px" viewBox="0 -10 81 76.1" style="top:-10px"><desc>92%</desc><defs/><g id="Polygon163193"><path d="m21.8 22.5c0 9.5-6.9 17.2-18.3 18c0 0-.1-.7-.1-.7c6.1-1.1 10.8-7.7 11.6-12.6c-1.5 1.8-3.3 2.5-6 2.5c-4.7 0-8.1-4.9-8.1-9.7c0-6 3.4-10.4 10.3-10.4c7.7 0 10.6 6.8 10.6 12.9zm-7.1-2.5c0-4.8-1.1-9.4-4.2-9.4c-2.6 0-2.5 6.1-2.5 8.1c0 4.2 1.2 9.5 3.8 9.5c2.8 0 2.9-4.4 2.9-8.2zm30 2.5c0 0-2.43 8.92-2.4 8.9c-1.1-.4-2-.6-5.7-.6c-.04.04-14.1 0-14.1 0c0 0 10.74-9.77 10.7-9.8c1.5-1.3 3.1-3.6 3.1-5.9c0-2.5-1.4-4.6-4-4.6c-1.8 0-3.4.9-3.4 2.5c0 1.9 1.8 2.3 1.8 4.1c0 1.6-1.3 2.7-2.8 2.7c-2.3 0-3.7-1.4-3.7-3.7c0-2.9 2.8-6.5 8.9-6.5c5.7 0 9 1.9 9 5.8c0 3.4-1.3 6.3-10.8 9.6c0 0 6.8 0 6.8 0c3.5 0 5.2-1.4 5.6-2.5c.02.02 1 0 1 0zm2.5-18.4c0-2.8 1.8-4.7 4.3-4.7c2.5 0 4.3 1.9 4.3 4.7c0 2.7-1.8 4.7-4.3 4.7c-2.5 0-4.3-2-4.3-4.7zm6.4 8.1l4.8-7.5l3-5l1 0l-3.5 5.2l-4.8 7.5l-2.7 4.7l-1.1 0l3.3-4.9zm-.8-8.1c0-2.6-.1-4.2-1.3-4.2c-1.2 0-1.4 1.6-1.4 4.2c0 2.5.2 4.2 1.4 4.2c1.2 0 1.3-1.7 1.3-4.2zm4.3 8.5c0-2.7 1.8-4.7 4.4-4.7c2.5 0 4.3 2 4.3 4.7c0 2.8-1.8 4.8-4.3 4.8c-2.6 0-4.4-2-4.4-4.8zm5.7 0c0-2.5-.1-4.1-1.3-4.1c-1.2 0-1.4 1.6-1.4 4.1c0 2.6.2 4.2 1.4 4.2c1.2 0 1.3-1.6 1.3-4.2z" stroke="none" fill="#fff"/></g></svg>