<?xml version="1.0" standalone="no"?><!DOCTYPE svg PUBLIC "-//W3C//DTD SVG 1.1//EN" "http://www.w3.org/Graphics/SVG/1.1/DTD/svg11.dtd"><svg xmlns="http://www.w3.org/2000/svg" version="1.1" width="162.1px" height="164.6px" viewBox="0 -3 162.1 164.6" style="top:-3px"><desc>Commerce, Vente &amp; Grande Distribution Employ s polyvalents, Employ s en libre service, Vendeurs sp cialis s ( quipeme...</desc><defs/><g id="Polygon168361"><path d="m10.2 147.3l0-7.5l-3.2 7.5l-1.2 0l-3.3-7.5l0 7.5l-1.3 0l0-9.6l1.8 0l3.4 7.8l3.4-7.8l1.7 0l0 9.6l-1.3 0zm8-3.9c0-1-.6-1.7-1.8-1.7c-1.1 0-1.7.8-1.8 1.7c0 0 3.6 0 3.6 0zm1.3 2c-.4 1.2-1.4 2.1-2.9 2.1c-1.8 0-3.3-1.3-3.3-3.5c0-2 1.5-3.4 3.1-3.4c2 0 3.1 1.4 3.1 3.4c0 .1 0 .3 0 .4c0 0-4.9 0-4.9 0c0 1.1.9 2 2 2c1 0 1.5-.6 1.8-1.4c0 0 1.1.4 1.1.4zm-2.6-5.4l-1.1 0l1.2-2l1.6 0l-1.7 2zm5.9.8l1.4 0l0 1.1l-1.4 0c0 0 .02 3.41 0 3.4c0 .6.3.9.9.9c.2 0 .4 0 .5-.1c0 0 0 1.1 0 1.1c-.1.1-.4.1-.8.1c-1.1 0-1.8-.6-1.8-1.8c-.05-.01 0-3.6 0-3.6l-1.3 0l0-1.1c0 0 .36-.01.4 0c.7 0 1-.4 1-1c-.04 0 0-1.1 0-1.1l1.1 0l0 2.1zm3.1 6.5l0-6.5l1.3 0l0 6.5l-1.3 0zm.6-9.9c.5 0 .9.4.9.9c0 .5-.4.9-.9.9c-.5 0-.9-.4-.9-.9c0-.5.4-.9.9-.9zm7.2 6c-.1-1-.7-1.7-1.8-1.7c-1.1 0-1.7.8-1.8 1.7c0 0 3.6 0 3.6 0zm1.3 2c-.4 1.2-1.4 2.1-3 2.1c-1.7 0-3.2-1.3-3.2-3.5c0-2 1.5-3.4 3.1-3.4c2 0 3.1 1.4 3.1 3.4c0 .1 0 .3 0 .4c0 0-4.9 0-4.9 0c0 1.1.9 2 1.9 2c1.1 0 1.6-.6 1.9-1.4c0 0 1.1.4 1.1.4zm5.2-3.3c-.2-.1-.4-.1-.5-.1c-1.1 0-1.8.6-1.8 2c-.03.03 0 3.3 0 3.3l-1.3 0l0-6.5l1.2 0c0 0 .05 1.12 0 1.1c.5-1 1.3-1.2 2-1.2c.2 0 .3 0 .4 0c0 0 0 1.4 0 1.4zm1.9 3.1c.1.7.6 1.2 1.5 1.2c.7 0 1.1-.4 1.1-.9c0-.4-.3-.7-.8-.8c0 0-1.1-.2-1.1-.2c-1-.3-1.7-.9-1.7-1.9c0-1.1 1.1-2 2.4-2c1.7 0 2.3 1.1 2.4 1.7c0 0-1.1.4-1.1.4c-.1-.3-.3-1-1.3-1c-.7 0-1.1.4-1.1.8c0 .4.2.7.7.8c0 0 1.1.2 1.1.2c1.1.3 1.8 1 1.8 2c0 .9-.8 2-2.4 2c-1.8 0-2.5-1.2-2.7-1.9c0 0 1.2-.4 1.2-.4zm11.6 1.1c1.1 0 1.8-1 1.8-2.3c0-1.3-.7-2.3-1.8-2.3c-1.2 0-1.9 1-1.9 2.3c0 1.3.6 2.3 1.9 2.3zm1.8 0c-.3.6-1 1.1-2 1.1c-1.9 0-3-1.5-3-3.4c0-1.8 1.2-3.4 3-3.4c1.2 0 1.8.6 2 1.1c.02.01 0-4.2 0-4.2l1.3 0c0 0-.03 8.57 0 8.6c0 .6 0 1.1 0 1.2c0 0-1.2 0-1.2 0c0-.2-.1-.5-.1-.9c0 0 0-.1 0-.1zm7.8-2.9c0-1-.6-1.7-1.8-1.7c-1.1 0-1.7.8-1.8 1.7c0 0 3.6 0 3.6 0zm1.3 2c-.4 1.2-1.4 2.1-2.9 2.1c-1.8 0-3.3-1.3-3.3-3.5c0-2 1.5-3.4 3.1-3.4c2 0 3.1 1.4 3.1 3.4c0 .1 0 .3 0 .4c0 0-4.9 0-4.9 0c0 1.1.9 2 2 2c1 0 1.5-.6 1.8-1.4c0 0 1.1.4 1.1.4zm5 1.9l0-9.8l1.2 0c0 0 .05 4.21 0 4.2c.4-.6 1.1-1.1 2.2-1.1c2 0 3 1.5 3 3.4c0 1.9-1.1 3.4-3.1 3.4c-.9 0-1.6-.4-2.1-1.1c.05.03 0 1 0 1l-1.2 0zm3.2-5.6c-1.2 0-2 .9-2 2.3c0 1.4.8 2.3 2 2.3c1.1 0 1.9-.9 1.9-2.3c0-1.4-.8-2.3-1.9-2.3zm9.6 2.3c0-1.5-1-2.3-2-2.3c-1.1 0-2.1.8-2.1 2.3c0 1.5 1 2.3 2.1 2.3c1 0 2-.8 2-2.3zm1.3 0c0 2-1.4 3.5-3.3 3.5c-2 0-3.4-1.5-3.4-3.5c0-1.9 1.4-3.4 3.4-3.4c1.9 0 3.3 1.5 3.3 3.4zm5.8 2.5c-.4.7-1.2 1-1.9 1c-1.5 0-2.4-1.2-2.4-2.6c-.05-.03 0-4.1 0-4.1l1.2 0c0 0 .02 3.89 0 3.9c0 .9.4 1.7 1.5 1.7c1 0 1.5-.7 1.5-1.7c.02 0 0-3.9 0-3.9l1.3 0c0 0-.01 5.27 0 5.3c0 .5 0 .9.1 1.2c0 0-1.3 0-1.3 0c0-.2 0-.5 0-.8c0 0 0 0 0 0zm4-2.5c0 1.5 1 2.3 2 2.3c1.2 0 1.7-.8 1.8-1.3c0 0 1.1.5 1.1.5c-.3.9-1.2 2-2.9 2c-1.9 0-3.3-1.5-3.3-3.5c0-2 1.4-3.4 3.3-3.4c1.7 0 2.6 1.1 2.9 2.1c0 0-1.2.4-1.2.4c-.1-.6-.6-1.3-1.7-1.3c-1 0-2 .7-2 2.2zm7.7 3.3l-1.3 0l0-9.8l1.3 0c0 0-.02 4.05 0 4c.5-.6 1.2-.9 1.9-.9c1.6 0 2.4 1.1 2.4 2.6c-.04-.04 0 4.1 0 4.1l-1.3 0c0 0 0-3.92 0-3.9c0-.9-.4-1.7-1.5-1.7c-1 0-1.5.8-1.5 1.8c-.02-.04 0 3.8 0 3.8zm10.6-3.9c0-1-.6-1.7-1.7-1.7c-1.1 0-1.7.8-1.8 1.7c0 0 3.5 0 3.5 0zm1.3 2c-.3 1.2-1.4 2.1-2.9 2.1c-1.7 0-3.2-1.3-3.2-3.5c0-2 1.4-3.4 3.1-3.4c1.9 0 3.1 1.4 3.1 3.4c0 .1 0 .3-.1.4c0 0-4.8 0-4.8 0c0 1.1.8 2 1.9 2c1.1 0 1.6-.6 1.8-1.4c0 0 1.1.4 1.1.4zm10.9 1.9c-.5 0-.9-.3-.9-.8c0-.5.4-.9.9-.9c.5 0 .8.4.8.9c0 .5-.3.8-.8.8zm-4.2 0c-.5 0-.9-.3-.9-.8c0-.5.4-.9.9-.9c.5 0 .8.4.8.9c0 .5-.3.8-.8.8zm-4.2 0c-.5 0-.9-.3-.9-.8c0-.5.4-.9.9-.9c.5 0 .9.4.9.9c0 .5-.4.8-.9.8z" stroke="none" fill="#144542"/></g><g id="Polygon168360"><path d="m1.1 133.7l0-9.1l1.2 0c0 0 0 1.04 0 1c.4-.6 1.1-1.1 2.2-1.1c1.9 0 2.9 1.5 2.9 3.4c0 1.9-1.1 3.4-3 3.4c-1 0-1.7-.5-2.1-1.1c.03.03 0 3.5 0 3.5l-1.2 0zm5.1-5.8c0-1.3-.8-2.3-2-2.3c-1.1 0-1.9 1-1.9 2.3c0 1.3.8 2.3 1.9 2.3c1.2 0 2-1 2-2.3c0 0 0 0 0 0zm6.5-2c-.2 0-.4 0-.6 0c-1.1 0-1.8.5-1.8 2c.03-.04 0 3.2 0 3.2l-1.2 0l0-6.5l1.2 0c0 0 0 1.16 0 1.2c.5-1 1.3-1.3 1.9-1.3c.2 0 .4 0 .5.1c0 0 0 1.3 0 1.3zm5.6 1.3c0-.9-.6-1.7-1.8-1.7c-1 0-1.7.9-1.7 1.7c0 0 3.5 0 3.5 0zm1.3 2.1c-.4 1.1-1.4 2-2.9 2c-1.8 0-3.3-1.3-3.3-3.5c0-2 1.5-3.4 3.1-3.4c2 0 3.1 1.4 3.1 3.4c0 .2 0 .3 0 .4c0 0-4.9 0-4.9 0c0 1.2.9 2 2 2c1 0 1.6-.6 1.8-1.3c0 0 1.1.4 1.1.4zm-5.1-5.5l1.4-1.9l1.4 0l1.4 1.9l-1.1 0l-1-1.1l-.9 1.1l-1.2 0zm8.4.8l1.4 0l0 1.2l-1.4 0c0 0 .04 3.34 0 3.3c0 .6.3.9.9.9c.2 0 .4 0 .5 0c0 0 0 1.1 0 1.1c-.1 0-.4.1-.8.1c-1.1 0-1.8-.7-1.8-1.9c-.03.03 0-3.5 0-3.5l-1.3 0l0-1.2c0 0 .38.03.4 0c.7 0 1-.4 1-1c-.02.03 0-1 0-1l1.1 0l0 2zm2.7 3.2l0-1.1l3.6 0l0 1.1l-3.6 0zm4.9 1.6c0-1.2.8-1.8 1.9-2c0 0 1.8-.2 1.8-.2c.4-.1.5-.3.5-.5c0-.7-.4-1.2-1.4-1.2c-.9 0-1.4.6-1.5 1.3c0 0-1.2-.3-1.2-.3c.2-1.2 1.3-2.1 2.7-2.1c1.9 0 2.7 1.1 2.7 2.4c0 0 0 3.3 0 3.3c0 .5 0 .9 0 1c0 0-1.2 0-1.2 0c0-.1-.1-.4-.1-.9c-.2.5-.9 1.1-2.1 1.1c-1.3 0-2.1-.9-2.1-1.9c0 0 0 0 0 0zm4.2-1.1c0 .03 0-.3 0-.3c0 0-1.98.33-2 .3c-.5.1-.9.4-.9 1c0 .5.4.9 1 .9c1.1 0 1.9-.5 1.9-1.9zm-3.4-6.5l1.6 0l1.1 2l-1 0l-1.7-2zm6.2 6l0-1.1l3.6 0l0 1.1l-3.6 0zm5.3 5.9l0-9.1l1.2 0c0 0 .02 1.04 0 1c.4-.6 1.1-1.1 2.2-1.1c1.9 0 3 1.5 3 3.4c0 1.9-1.2 3.4-3.1 3.4c-1 0-1.7-.5-2.1-1.1c.04.03 0 3.5 0 3.5l-1.2 0zm5.1-5.8c0-1.3-.8-2.3-1.9-2.3c-1.2 0-2 1-2 2.3c0 1.3.8 2.3 2 2.3c1.1 0 1.9-1 1.9-2.3c0 0 0 0 0 0zm7.7 0c0-1.5-1-2.3-2-2.3c-1.1 0-2.1.8-2.1 2.3c0 1.5 1 2.3 2.1 2.3c1 0 2-.8 2-2.3zm1.3 0c0 1.9-1.4 3.4-3.3 3.4c-2 0-3.4-1.5-3.4-3.4c0-2 1.4-3.5 3.4-3.5c1.9 0 3.3 1.5 3.3 3.5zm5.2-2c-.2 0-.4 0-.6 0c-1 0-1.8.5-1.8 2c.05-.04 0 3.2 0 3.2l-1.2 0l0-6.5l1.2 0c0 0 .02 1.16 0 1.2c.5-1 1.3-1.3 2-1.3c.1 0 .3 0 .4.1c0 0 0 1.3 0 1.3zm3.4-1.3l1.4 0l0 1.2l-1.4 0c0 0-.04 3.34 0 3.3c0 .6.2.9.9.9c.1 0 .4 0 .5 0c0 0 0 1.1 0 1.1c-.1 0-.5.1-.9.1c-1.1 0-1.8-.7-1.8-1.9c-.01.03 0-3.5 0-3.5l-1.2 0l0-1.2c0 0 .3.03.3 0c.7 0 1-.4 1-1c0 .03 0-1 0-1l1.2 0l0 2zm7.3 2.6c0-.9-.6-1.7-1.7-1.7c-1.1 0-1.7.9-1.8 1.7c0 0 3.5 0 3.5 0zm1.3 2.1c-.3 1.1-1.4 2-2.9 2c-1.7 0-3.2-1.3-3.2-3.5c0-2 1.4-3.4 3-3.4c2 0 3.2 1.4 3.2 3.4c0 .2-.1.3-.1.4c0 0-4.8 0-4.8 0c0 1.2.8 2 1.9 2c1.1 0 1.6-.6 1.8-1.3c0 0 1.1.4 1.1.4zm5.3-3.4c-.2 0-.4 0-.6 0c-1 0-1.8.5-1.8 2c.04-.04 0 3.2 0 3.2l-1.2 0l0-6.5l1.2 0c0 0 .01 1.16 0 1.2c.5-1 1.3-1.3 2-1.3c.1 0 .3 0 .4.1c0 0 0 1.3 0 1.3zm9.1 1.3c-.1-.9-.7-1.7-1.8-1.7c-1.1 0-1.7.9-1.8 1.7c0 0 3.6 0 3.6 0zm1.2 2.1c-.3 1.1-1.4 2-2.9 2c-1.7 0-3.2-1.3-3.2-3.5c0-2 1.4-3.4 3.1-3.4c2 0 3.1 1.4 3.1 3.4c0 .2 0 .3-.1.4c0 0-4.8 0-4.8 0c0 1.2.8 2 1.9 2c1.1 0 1.6-.6 1.8-1.3c0 0 1.1.4 1.1.4zm3.4-4.7l1.4 0l0 1.2l-1.4 0c0 0-.02 3.34 0 3.3c0 .6.2.9.9.9c.1 0 .4 0 .5 0c0 0 0 1.1 0 1.1c-.1 0-.4.1-.9.1c-1.1 0-1.8-.7-1.8-1.9c.02.03 0-3.5 0-3.5l-1.2 0l0-1.2c0 0 .33.03.3 0c.7 0 1-.4 1-1c.03.03 0-1 0-1l1.2 0l0 2zm6.4 6.5l0-9.7l1.3 0l0 9.7l-1.3 0zm7.7-.8c-.4.7-1.2 1-2 1c-1.5 0-2.4-1.1-2.4-2.6c.02.01 0-4.1 0-4.1l1.3 0c0 0-.01 3.92 0 3.9c0 .9.4 1.7 1.5 1.7c1 0 1.5-.7 1.5-1.7c-.01.04 0-3.9 0-3.9l1.3 0c0 0-.04 5.31 0 5.3c0 .5 0 1 0 1.2c0 0-1.2 0-1.2 0c0-.1 0-.5 0-.8c0 0 0 0 0 0zm4.8-2.5l-2.3-3.2l1.5 0l1.6 2.3l1.5-2.3l1.5 0c0 0-2.27 3.21-2.3 3.2c.4.5 2 2.8 2.4 3.3c.01.01-1.5 0-1.5 0l-1.7-2.4l-1.6 2.4l-1.5 0l2.4-3.3zm9.4-.6c-.1-.9-.7-1.7-1.8-1.7c-1.1 0-1.7.9-1.8 1.7c0 0 3.6 0 3.6 0zm1.2 2.1c-.3 1.1-1.4 2-2.9 2c-1.7 0-3.2-1.3-3.2-3.5c0-2 1.4-3.4 3.1-3.4c2 0 3.1 1.4 3.1 3.4c0 .2 0 .3-.1.4c0 0-4.8 0-4.8 0c0 1.2.8 2 1.9 2c1.1 0 1.6-.6 1.8-1.3c0 0 1.1.4 1.1.4zm1.2 4c0 0-.7-.7-.7-.7c1.4-1.5 2.2-3.4 2.2-5.8c0-2.3-.8-4.2-2.2-5.7c0 0 .7-.7.7-.7c1.5 1.5 2.6 3.5 2.6 6.4c0 3-1.1 5-2.6 6.5zm5.3-4c.6 0 1.1.5 1.1 1.3c0 1.8-1.2 2.5-2 2.6c0 0 0-.7 0-.7c.6-.1 1.1-.8 1.1-1.4c-.1 0-.2.1-.3.1c-.5 0-.9-.4-.9-1c0-.4.4-.9 1-.9z" stroke="none" fill="#144542"/></g><g id="Polygon168359"><path d="m3.3 104.3c0 0 .8.6.8.6c-1.4 1.6-2.3 3.4-2.3 5.8c0 2.3.9 4.2 2.3 5.7c0 0-.8.7-.8.7c-1.4-1.5-2.6-3.5-2.6-6.4c0-3 1.2-5 2.6-6.4zm5.9 6.7c0-.9-.6-1.6-1.7-1.6c-1.1 0-1.7.8-1.8 1.6c0 0 3.5 0 3.5 0zm1.3 2.1c-.3 1.1-1.4 2-2.9 2c-1.7 0-3.2-1.2-3.2-3.4c0-2 1.4-3.4 3-3.4c2 0 3.2 1.3 3.2 3.4c0 .1-.1.3-.1.4c0 0-4.8 0-4.8 0c0 1.1.8 1.9 1.9 1.9c1.1 0 1.6-.5 1.8-1.3c0 0 1.1.4 1.1.4zm-2.5-5.5l-1.1 0l1.2-1.9l1.6 0l-1.7 1.9zm8.7 9.9c0 0 .03-3.47 0-3.5c-.3.7-1 1.1-2 1.1c-1.9 0-3.1-1.5-3.1-3.4c0-1.8 1.2-3.4 3.1-3.4c1.1 0 1.8.6 2.1 1.2c-.04-.04 0-1 0-1l1.2 0l0 9l-1.3 0zm-1.9-3.5c1.2 0 1.9-1 1.9-2.3c0-1.3-.7-2.3-1.9-2.3c-1.1 0-1.9 1-1.9 2.3c0 1.3.8 2.3 1.9 2.3zm9.5.2c-.4.6-1.2.9-1.9.9c-1.6 0-2.5-1.1-2.5-2.6c.04.05 0-4 0-4l1.3 0c0 0 0 3.86 0 3.9c0 .8.4 1.6 1.5 1.6c1 0 1.5-.6 1.5-1.6c0-.03 0-3.9 0-3.9l1.3 0c0 0-.03 5.25 0 5.2c0 .6 0 1 0 1.2c0 0-1.2 0-1.2 0c0-.1 0-.5 0-.7c0 0 0 0 0 0zm3.3.7l0-6.4l1.3 0l0 6.4l-1.3 0zm.6-9.8c.6 0 1 .4 1 .9c0 .5-.4.9-1 .9c-.5 0-.9-.4-.9-.9c0-.5.4-.9.9-.9zm2.8 12.4l0-9l1.3 0c0 0-.04.98 0 1c.3-.7 1.1-1.2 2.1-1.2c2 0 3 1.5 3 3.4c0 1.9-1.1 3.4-3 3.4c-1 0-1.8-.5-2.1-1c-.02-.03 0 3.4 0 3.4l-1.3 0zm5.1-5.8c0-1.3-.7-2.3-1.9-2.3c-1.2 0-1.9 1-1.9 2.3c0 1.3.7 2.3 1.9 2.3c1.2 0 1.9-1 1.9-2.3c0 0 0 0 0 0zm7.3-.7c0-.9-.6-1.6-1.8-1.6c-1.1 0-1.7.8-1.8 1.6c0 0 3.6 0 3.6 0zm1.3 2.1c-.4 1.1-1.4 2-2.9 2c-1.8 0-3.3-1.2-3.3-3.4c0-2 1.5-3.4 3.1-3.4c2 0 3.1 1.3 3.1 3.4c0 .1 0 .3 0 .4c0 0-4.9 0-4.9 0c0 1.1.9 1.9 2 1.9c1 0 1.5-.5 1.8-1.3c0 0 1.1.4 1.1.4zm1.6 1.8l0-6.4l1.2 0c0 0 .03.83 0 .8c.4-.7 1.2-1 2-1c.8 0 1.6.4 1.9 1.2c.5-.9 1.4-1.2 2.2-1.2c1.1 0 2.2.7 2.2 2.4c.04.04 0 4.2 0 4.2l-1.2 0c0 0-.01-4.02 0-4c0-.9-.4-1.5-1.4-1.5c-.9 0-1.5.7-1.5 1.6c.02.02 0 3.9 0 3.9l-1.2 0c0 0-.04-4.02 0-4c0-.9-.4-1.5-1.4-1.5c-.9 0-1.5.7-1.5 1.6c-.03.04 0 3.9 0 3.9l-1.3 0zm15.9-3.9c0-.9-.6-1.6-1.8-1.6c-1 0-1.7.8-1.7 1.6c0 0 3.5 0 3.5 0zm1.3 2.1c-.4 1.1-1.4 2-2.9 2c-1.7 0-3.3-1.2-3.3-3.4c0-2 1.5-3.4 3.1-3.4c2 0 3.1 1.3 3.1 3.4c0 .1 0 .3 0 .4c0 0-4.9 0-4.9 0c.1 1.1.9 1.9 2 1.9c1 0 1.6-.5 1.8-1.3c0 0 1.1.4 1.1.4zm2.9 1.8l-1.2 0l0-6.4l1.2 0c0 0 0 .89 0 .9c.5-.8 1.2-1.1 2-1.1c1.5 0 2.3 1.1 2.3 2.5c.01.04 0 4.1 0 4.1l-1.3 0c0 0 .05-3.85 0-3.8c0-1-.3-1.7-1.5-1.7c-1 0-1.5.8-1.5 1.8c.03 0 0 3.7 0 3.7zm8-6.4l1.4 0l0 1.1l-1.4 0c0 0 .03 3.38 0 3.4c0 .6.3.9.9.9c.2 0 .4-.1.5-.1c0 0 0 1.1 0 1.1c-.1 0-.4.1-.8.1c-1.1 0-1.8-.7-1.8-1.8c-.04-.03 0-3.6 0-3.6l-1.3 0l0-1.1c0 0 .38-.03.4 0c.7 0 1-.5 1-1c-.03-.03 0-1.1 0-1.1l1.1 0l0 2.1zm9.1 5.5c1.2 0 1.9-1 1.9-2.3c0-1.4-.7-2.3-1.9-2.3c-1.1 0-1.9 1-1.9 2.3c0 1.3.7 2.3 1.9 2.3zm1.9 0c-.3.6-1 1.1-2 1.1c-1.9 0-3.1-1.5-3.1-3.4c0-1.8 1.3-3.4 3.1-3.4c1.2 0 1.8.6 2 1.1c-.01-.02 0-4.2 0-4.2l1.2 0c0 0 .05 8.55 0 8.5c0 .7.1 1.1.1 1.2c0 0-1.2 0-1.2 0c0-.1-.1-.4-.1-.8c0 0 0-.1 0-.1zm7.8-3c-.1-.9-.7-1.6-1.8-1.6c-1.1 0-1.7.8-1.8 1.6c0 0 3.6 0 3.6 0zm1.2 2.1c-.3 1.1-1.4 2-2.9 2c-1.7 0-3.2-1.2-3.2-3.4c0-2 1.4-3.4 3.1-3.4c2 0 3.1 1.3 3.1 3.4c0 .1 0 .3 0 .4c0 0-4.9 0-4.9 0c0 1.1.8 1.9 1.9 1.9c1.1 0 1.6-.5 1.9-1.3c0 0 1 .4 1 .4zm5.1 1.8l0-9.7l1.2 0l0 9.7l-1.2 0zm3-1.7c0-1.1.8-1.8 2-2c0 0 1.7-.2 1.7-.2c.4-.1.5-.3.5-.5c0-.6-.4-1.2-1.4-1.2c-.9 0-1.4.6-1.5 1.4c0 0-1.2-.3-1.2-.3c.2-1.3 1.3-2.1 2.7-2.1c1.9 0 2.7 1.1 2.7 2.3c0 0 0 3.3 0 3.3c0 .6 0 .9 0 1.1c0 0-1.2 0-1.2 0c0-.2-.1-.4-.1-.9c-.2.4-.9 1-2 1c-1.4 0-2.2-.9-2.2-1.9c0 0 0 0 0 0zm4.2-1c0-.03 0-.3 0-.3c0 0-1.98.27-2 .3c-.5.1-.9.4-.9.9c0 .5.4 1 1 1c1.1 0 1.9-.5 1.9-1.9zm6.6 2.7l0-6.4l1.2 0c0 0 .01.83 0 .8c.4-.7 1.2-1 2-1c.8 0 1.6.4 1.9 1.2c.5-.9 1.4-1.2 2.2-1.2c1.1 0 2.2.7 2.2 2.4c.02.04 0 4.2 0 4.2l-1.2 0c0 0-.03-4.02 0-4c0-.9-.4-1.5-1.4-1.5c-.9 0-1.5.7-1.5 1.6c0 .02 0 3.9 0 3.9l-1.3 0c0 0 .04-4.02 0-4c0-.9-.4-1.5-1.3-1.5c-.9 0-1.5.7-1.5 1.6c-.05.04 0 3.9 0 3.9l-1.3 0zm11.1-1.7c0-1.1.9-1.8 2-2c0 0 1.8-.2 1.8-.2c.3-.1.5-.3.5-.5c0-.6-.5-1.2-1.4-1.2c-.9 0-1.4.6-1.5 1.4c0 0-1.2-.3-1.2-.3c.1-1.3 1.2-2.1 2.6-2.1c2 0 2.7 1.1 2.7 2.3c0 0 0 3.3 0 3.3c0 .6.1.9.1 1.1c0 0-1.2 0-1.2 0c-.1-.2-.1-.4-.1-.9c-.3.4-.9 1-2.1 1c-1.3 0-2.2-.9-2.2-1.9c0 0 0 0 0 0zm4.3-1c-.04-.03 0-.3 0-.3c0 0-2.02.27-2 .3c-.6.1-1 .4-1 .9c0 .5.4 1 1.1 1c1 0 1.9-.5 1.9-1.9zm3.2 2.7l0-6.4l1.2 0l0 6.4l-1.2 0zm.6-9.8c.5 0 .9.4.9.9c0 .5-.4.9-.9.9c-.5 0-.9-.4-.9-.9c0-.5.4-.9.9-.9zm3.3 7.8c.1.6.6 1.2 1.5 1.2c.8 0 1.1-.4 1.1-.9c0-.4-.2-.7-.8-.8c0 0-1.1-.3-1.1-.3c-1-.2-1.6-.9-1.6-1.8c0-1.1 1-2 2.3-2c1.8 0 2.3 1.1 2.5 1.7c0 0-1.2.4-1.2.4c0-.3-.3-1.1-1.3-1.1c-.7 0-1.1.5-1.1.9c0 .4.3.7.8.8c0 0 1 .2 1 .2c1.2.3 1.8 1 1.8 1.9c0 1-.8 2-2.4 2c-1.7 0-2.5-1.1-2.6-1.8c0 0 1.1-.4 1.1-.4zm10.3-1.2c0-1.5-.9-2.3-2-2.3c-1.1 0-2 .8-2 2.3c0 1.5.9 2.3 2 2.3c1.1 0 2-.8 2-2.3zm1.3 0c0 2-1.4 3.4-3.3 3.4c-1.9 0-3.3-1.4-3.3-3.4c0-2 1.4-3.4 3.3-3.4c1.9 0 3.3 1.4 3.3 3.4zm2.9 3.2l-1.3 0l0-6.4l1.3 0c0 0-.04.89 0 .9c.4-.8 1.2-1.1 2-1.1c1.5 0 2.3 1.1 2.3 2.5c-.03.04 0 4.1 0 4.1l-1.3 0c0 0 .01-3.85 0-3.8c0-1-.4-1.7-1.5-1.7c-1 0-1.5.8-1.5 1.8c-.01 0 0 3.7 0 3.7zm7.1-1.7c.6 0 1.1.4 1.1 1.3c0 1.7-1.1 2.5-2 2.6c0 0 0-.7 0-.7c.7-.2 1.1-.8 1.2-1.5c-.1.1-.2.1-.3.1c-.5 0-.9-.3-.9-.9c0-.5.4-.9.9-.9z" stroke="none" fill="#144542"/></g><g id="Polygon168358"><path d="m7.3 89.2l1.4 0l-3.7 9.6l-1.3 0l-3.6-9.6l1.4 0l2.9 7.9l2.9-7.9zm6.3 5.7c-.1-1-.7-1.7-1.8-1.7c-1.1 0-1.7.8-1.8 1.7c0 0 3.6 0 3.6 0zm1.2 2c-.3 1.2-1.4 2.1-2.9 2.1c-1.7 0-3.2-1.3-3.2-3.5c0-2 1.4-3.4 3.1-3.4c2 0 3.1 1.4 3.1 3.4c0 .2 0 .3-.1.4c0 0-4.8 0-4.8 0c0 1.2.8 2 1.9 2c1.1 0 1.6-.6 1.8-1.3c0 0 1.1.3 1.1.3zm3 1.9l-1.3 0l0-6.5l1.2 0c0 0 .02.93 0 .9c.5-.8 1.3-1.1 2-1.1c1.6 0 2.3 1.1 2.3 2.6c.03-.03 0 4.1 0 4.1l-1.2 0c0 0-.03-3.91 0-3.9c0-.9-.4-1.6-1.5-1.6c-1 0-1.5.8-1.5 1.7c-.05.04 0 3.8 0 3.8zm8.9-1c1.2 0 1.9-1 1.9-2.3c0-1.3-.7-2.3-1.9-2.3c-1.1 0-1.9 1-1.9 2.3c0 1.4.7 2.3 1.9 2.3zm1.9 0c-.3.6-1 1.2-2 1.2c-1.9 0-3.1-1.6-3.1-3.5c0-1.8 1.3-3.4 3.1-3.4c1.1 0 1.8.6 2 1.1c-.03.02 0-4.2 0-4.2l1.2 0c0 0 .02 8.58 0 8.6c0 .6.1 1.1.1 1.2c0 0-1.2 0-1.2 0c-.1-.2-.1-.5-.1-.9c0 0 0-.1 0-.1zm7.7-2.9c0-1-.6-1.7-1.7-1.7c-1.1 0-1.7.8-1.8 1.7c0 0 3.5 0 3.5 0zm1.3 2c-.3 1.2-1.4 2.1-2.9 2.1c-1.7 0-3.2-1.3-3.2-3.5c0-2 1.4-3.4 3-3.4c2 0 3.2 1.4 3.2 3.4c0 .2-.1.3-.1.4c0 0-4.8 0-4.8 0c0 1.2.8 2 1.9 2c1.1 0 1.6-.6 1.8-1.3c0 0 1.1.3 1.1.3zm5.7 1.1c-.3.7-1.1 1-1.9 1c-1.5 0-2.4-1.1-2.4-2.6c.01-.01 0-4.1 0-4.1l1.3 0c0 0-.03 3.9 0 3.9c0 .9.4 1.7 1.4 1.7c1.1 0 1.6-.7 1.6-1.7c-.02.01 0-3.9 0-3.9l1.2 0c0 0 .04 5.28 0 5.3c0 .5.1 1 .1 1.2c0 0-1.2 0-1.2 0c0-.2-.1-.5-.1-.8c0 0 0 0 0 0zm7-4.4c-.2 0-.4-.1-.6-.1c-1 0-1.7.6-1.7 2c-.04.04 0 3.3 0 3.3l-1.3 0l0-6.5l1.2 0c0 0 .04 1.13 0 1.1c.5-1 1.3-1.2 2-1.2c.2 0 .3 0 .4 0c0 0 0 1.4 0 1.4zm1.9 3.1c.1.7.6 1.2 1.5 1.2c.7 0 1.1-.4 1.1-.9c0-.4-.3-.7-.8-.8c0 0-1.1-.2-1.1-.2c-1.1-.2-1.7-.9-1.7-1.9c0-1.1 1.1-2 2.3-2c1.8 0 2.4 1.2 2.5 1.7c0 0-1.1.5-1.1.5c-.1-.4-.3-1.1-1.4-1.1c-.6 0-1 .4-1 .8c0 .4.2.7.7.8c0 0 1.1.3 1.1.3c1.1.2 1.7.9 1.7 1.9c0 .9-.7 2-2.3 2c-1.8 0-2.6-1.2-2.7-1.9c0 0 1.2-.4 1.2-.4zm9.4 0c.1.7.6 1.2 1.5 1.2c.8 0 1.1-.4 1.1-.9c0-.4-.2-.7-.8-.8c0 0-1.1-.2-1.1-.2c-1-.2-1.6-.9-1.6-1.9c0-1.1 1-2 2.3-2c1.8 0 2.3 1.2 2.5 1.7c0 0-1.2.5-1.2.5c0-.4-.3-1.1-1.3-1.1c-.7 0-1.1.4-1.1.8c0 .4.3.7.8.8c0 0 1 .3 1 .3c1.2.2 1.8.9 1.8 1.9c0 .9-.8 2-2.4 2c-1.7 0-2.5-1.2-2.6-1.9c0 0 1.1-.4 1.1-.4zm5.6 4.6l0-9l1.2 0c0 0 .01 1.01 0 1c.4-.6 1.1-1.1 2.2-1.1c1.9 0 3 1.4 3 3.3c0 2-1.2 3.5-3.1 3.5c-1 0-1.7-.5-2.1-1.1c.04.01 0 3.4 0 3.4l-1.2 0zm5.1-5.8c0-1.3-.8-2.2-2-2.2c-1.1 0-1.9.9-1.9 2.2c0 1.4.8 2.3 1.9 2.3c1.2 0 2-.9 2-2.3c0 0 0 0 0 0zm7.2-.6c0-1-.6-1.7-1.7-1.7c-1.1 0-1.8.8-1.8 1.7c0 0 3.5 0 3.5 0zm1.3 2c-.3 1.2-1.4 2.1-2.9 2.1c-1.7 0-3.3-1.3-3.3-3.5c0-2 1.5-3.4 3.1-3.4c2 0 3.2 1.4 3.2 3.4c0 .2-.1.3-.1.4c0 0-4.8 0-4.8 0c0 1.2.8 2 1.9 2c1.1 0 1.6-.6 1.8-1.3c0 0 1.1.3 1.1.3zm-2.5-5.4l-1.1 0l1.2-2l1.6 0l-1.7 2zm4.9 4c0 1.5 1 2.3 2 2.3c1.2 0 1.7-.8 1.8-1.3c0 0 1.1.5 1.1.5c-.3.9-1.2 2-2.9 2c-1.9 0-3.3-1.5-3.3-3.5c0-2 1.4-3.4 3.3-3.4c1.7 0 2.6 1.1 2.9 2.1c0 0-1.2.4-1.2.4c-.1-.6-.6-1.3-1.7-1.3c-1 0-2 .7-2 2.2zm6.4 3.3l0-6.5l1.3 0l0 6.5l-1.3 0zm.6-9.9c.5 0 .9.4.9 1c0 .5-.4.9-.9.9c-.5 0-.9-.4-.9-.9c0-.6.4-1 .9-1zm2.4 8.2c0-1.2.9-1.9 2-2c0 0 1.7-.3 1.7-.3c.4 0 .5-.2.5-.5c0-.6-.4-1.1-1.4-1.1c-.9 0-1.4.5-1.4 1.3c0 0-1.3-.3-1.3-.3c.2-1.2 1.3-2.1 2.7-2.1c1.9 0 2.7 1.1 2.7 2.4c0 0 0 3.2 0 3.2c0 .6 0 .9.1 1.1c0 0-1.3 0-1.3 0c0-.2 0-.4 0-.9c-.3.5-1 1.1-2.1 1.1c-1.3 0-2.2-.9-2.2-2c0 0 0 .1 0 .1zm4.2-1.1c.03.01 0-.3 0-.3c0 0-1.95.31-2 .3c-.5.1-.9.4-.9 1c0 .5.4.9 1.1.9c1 0 1.8-.5 1.8-1.9zm3.3 2.8l0-9.8l1.2 0l0 9.8l-1.2 0zm3.4 0l0-6.5l1.2 0l0 6.5l-1.2 0zm.6-9.9c.5 0 .9.4.9 1c0 .5-.4.9-.9.9c-.5 0-.9-.4-.9-.9c0-.6.4-1 .9-1zm3.3 7.8c.1.7.6 1.2 1.5 1.2c.8 0 1.1-.4 1.1-.9c0-.4-.3-.7-.8-.8c0 0-1.1-.2-1.1-.2c-1-.2-1.6-.9-1.6-1.9c0-1.1 1-2 2.3-2c1.8 0 2.3 1.2 2.5 1.7c0 0-1.2.5-1.2.5c0-.4-.3-1.1-1.3-1.1c-.7 0-1.1.4-1.1.8c0 .4.3.7.8.8c0 0 1 .3 1 .3c1.2.2 1.8.9 1.8 1.9c0 .9-.8 2-2.4 2c-1.8 0-2.5-1.2-2.6-1.9c0 0 1.1-.4 1.1-.4zm9.9-1.8c-.1-1-.7-1.7-1.8-1.7c-1.1 0-1.7.8-1.8 1.7c0 0 3.6 0 3.6 0zm1.3 2c-.4 1.2-1.4 2.1-3 2.1c-1.7 0-3.2-1.3-3.2-3.5c0-2 1.5-3.4 3.1-3.4c2 0 3.1 1.4 3.1 3.4c0 .2 0 .3 0 .4c0 0-4.9 0-4.9 0c0 1.2.9 2 1.9 2c1.1 0 1.6-.6 1.9-1.3c0 0 1.1.3 1.1.3zm-2.6-5.4l-1.1 0l1.2-2l1.6 0l-1.7 2zm4.7 5.2c.1.7.6 1.2 1.6 1.2c.7 0 1.1-.4 1.1-.9c0-.4-.3-.7-.9-.8c0 0-1.1-.2-1.1-.2c-1-.2-1.6-.9-1.6-1.9c0-1.1 1-2 2.3-2c1.8 0 2.3 1.2 2.5 1.7c0 0-1.1.5-1.1.5c-.1-.4-.4-1.1-1.4-1.1c-.6 0-1.1.4-1.1.8c0 .4.3.7.8.8c0 0 1 .3 1 .3c1.2.2 1.8.9 1.8 1.9c0 .9-.8 2-2.4 2c-1.7 0-2.5-1.2-2.6-1.9c0 0 1.1-.4 1.1-.4z" stroke="none" fill="#144542"/></g><g id="Polygon168357"><path d="m1.2 82.6l0-9.5l5.8 0l0 1.2l-4.5 0l0 2.9l4.1 0l0 1.3l-4.1 0l0 2.9l4.5 0l0 1.2l-5.8 0zm7.5 0l0-6.5l1.2 0c0 0 .01.9 0 .9c.4-.7 1.2-1 2-1c.8 0 1.6.3 1.9 1.2c.5-1 1.4-1.2 2.2-1.2c1.1 0 2.2.7 2.2 2.4c.02.02 0 4.2 0 4.2l-1.2 0c0 0-.03-4.05 0-4c0-.9-.4-1.5-1.4-1.5c-.9 0-1.5.7-1.5 1.6c0 0 0 3.9 0 3.9l-1.3 0c0 0 .04-4.05 0-4c0-.9-.4-1.5-1.3-1.5c-.9 0-1.5.6-1.5 1.6c-.05.01 0 3.9 0 3.9l-1.3 0zm11.5 2.6l0-9.1l1.3 0c0 0-.03 1.05 0 1c.3-.6 1.1-1.1 2.1-1.1c2 0 3 1.5 3 3.4c0 1.9-1.1 3.4-3 3.4c-1 0-1.8-.5-2.1-1.1c0 .04 0 3.5 0 3.5l-1.3 0zm5.1-5.8c0-1.3-.7-2.3-1.9-2.3c-1.1 0-1.9 1-1.9 2.3c0 1.3.8 2.3 1.9 2.3c1.2 0 1.9-1 1.9-2.3c0 0 0 0 0 0zm2.9 3.2l0-9.7l1.3 0l0 9.7l-1.3 0zm8.2-3.2c0-1.5-.9-2.3-2-2.3c-1.1 0-2 .8-2 2.3c0 1.5.9 2.3 2 2.3c1.1 0 2-.8 2-2.3zm1.3 0c0 2-1.3 3.4-3.3 3.4c-1.9 0-3.3-1.4-3.3-3.4c0-2 1.4-3.5 3.3-3.5c2 0 3.3 1.5 3.3 3.5zm1.6 5.9l1.6-3.4l-2.8-5.8l1.5 0l2 4.5l2-4.5l1.3 0l-4.2 9.2l-1.4 0zm10.9-6.6c0-.9-.6-1.6-1.8-1.6c-1 0-1.7.8-1.7 1.6c0 0 3.5 0 3.5 0zm1.3 2.1c-.4 1.1-1.4 2-2.9 2c-1.7 0-3.3-1.2-3.3-3.4c0-2.1 1.5-3.5 3.1-3.5c2 0 3.1 1.4 3.1 3.4c0 .2 0 .4 0 .4c0 0-4.9 0-4.9 0c.1 1.2.9 2 2 2c1 0 1.6-.6 1.8-1.3c0 0 1.1.4 1.1.4zm-2.6-5.5l-1 0l1.2-2l1.5 0l-1.7 2zm4.8 5.2c.1.7.6 1.2 1.5 1.2c.7 0 1.1-.4 1.1-.8c0-.4-.3-.7-.8-.9c0 0-1.1-.2-1.1-.2c-1-.2-1.6-.9-1.6-1.8c0-1.1 1-2.1 2.3-2.1c1.7 0 2.3 1.2 2.4 1.8c0 0-1.1.4-1.1.4c0-.3-.3-1.1-1.3-1.1c-.7 0-1.1.4-1.1.9c0 .4.2.7.7.8c0 0 1.1.2 1.1.2c1.1.2 1.8 1 1.8 1.9c0 .9-.8 2-2.4 2c-1.8 0-2.5-1.1-2.6-1.9c0 0 1.1-.4 1.1-.4zm13.3-1.8c0-.9-.7-1.6-1.8-1.6c-1.1 0-1.7.8-1.8 1.6c0 0 3.6 0 3.6 0zm1.3 2.1c-.4 1.1-1.4 2-2.9 2c-1.8 0-3.3-1.2-3.3-3.4c0-2.1 1.5-3.5 3.1-3.5c2 0 3.1 1.4 3.1 3.4c0 .2 0 .4 0 .4c0 0-4.9 0-4.9 0c0 1.2.9 2 2 2c1 0 1.5-.6 1.8-1.3c0 0 1.1.4 1.1.4zm2.9 1.8l-1.3 0l0-6.5l1.3 0c0 0-.04.97 0 1c.4-.8 1.2-1.1 2-1.1c1.5 0 2.3 1.1 2.3 2.5c-.03.01 0 4.1 0 4.1l-1.3 0c0 0 0-3.87 0-3.9c0-.9-.4-1.6-1.5-1.6c-1 0-1.5.8-1.5 1.8c-.02-.03 0 3.7 0 3.7zm9.7 0l0-9.7l1.2 0l0 9.7l-1.2 0zm3.4 0l0-6.5l1.2 0l0 6.5l-1.2 0zm.6-9.8c.5 0 .9.4.9.9c0 .5-.4.9-.9.9c-.5 0-.9-.4-.9-.9c0-.5.4-.9.9-.9zm2.8 9.8l0-9.7l1.2 0c0 0 .04 4.16 0 4.2c.3-.6 1.1-1.1 2.2-1.1c1.9 0 3 1.5 3 3.3c0 2-1.1 3.5-3.1 3.5c-.9 0-1.7-.4-2.1-1.1c.04-.02 0 .9 0 .9l-1.2 0zm3.1-5.5c-1.1 0-1.9.8-1.9 2.2c0 1.4.8 2.4 1.9 2.4c1.2 0 2-1 2-2.4c0-1.4-.8-2.2-2-2.2zm8.5.3c-.2 0-.4 0-.6 0c-1.1 0-1.8.5-1.8 2c.04-.03 0 3.2 0 3.2l-1.2 0l0-6.5l1.2 0c0 0 .01 1.17 0 1.2c.5-1 1.3-1.3 1.9-1.3c.2 0 .4.1.5.1c0 0 0 1.3 0 1.3zm5.6 1.3c0-.9-.6-1.6-1.8-1.6c-1 0-1.7.8-1.7 1.6c0 0 3.5 0 3.5 0zm1.3 2.1c-.4 1.1-1.4 2-2.9 2c-1.8 0-3.3-1.2-3.3-3.4c0-2.1 1.5-3.5 3.1-3.5c2 0 3.1 1.4 3.1 3.4c0 .2 0 .4 0 .4c0 0-4.9 0-4.9 0c.1 1.2.9 2 2 2c1 0 1.6-.6 1.8-1.3c0 0 1.1.4 1.1.4zm1.2-1.5l0-1.1l3.6 0l0 1.1l-3.6 0zm5.8 1.2c.1.7.6 1.2 1.6 1.2c.7 0 1.1-.4 1.1-.8c0-.4-.3-.7-.9-.9c0 0-1.1-.2-1.1-.2c-1-.2-1.6-.9-1.6-1.8c0-1.1 1-2.1 2.3-2.1c1.8 0 2.3 1.2 2.5 1.8c0 0-1.1.4-1.1.4c-.1-.3-.4-1.1-1.4-1.1c-.6 0-1.1.4-1.1.9c0 .4.3.7.8.8c0 0 1 .2 1 .2c1.2.2 1.8 1 1.8 1.9c0 .9-.8 2-2.4 2c-1.7 0-2.5-1.1-2.6-1.9c0 0 1.1-.4 1.1-.4zm9.9-1.8c0-.9-.6-1.6-1.8-1.6c-1 0-1.7.8-1.7 1.6c0 0 3.5 0 3.5 0zm1.3 2.1c-.4 1.1-1.4 2-2.9 2c-1.8 0-3.3-1.2-3.3-3.4c0-2.1 1.5-3.5 3.1-3.5c2 0 3.1 1.4 3.1 3.4c0 .2 0 .4 0 .4c0 0-4.9 0-4.9 0c0 1.2.9 2 2 2c1 0 1.5-.6 1.8-1.3c0 0 1.1.4 1.1.4zm5.2-3.4c-.2 0-.4 0-.5 0c-1.1 0-1.8.5-1.8 2c0-.03 0 3.2 0 3.2l-1.3 0l0-6.5l1.3 0c0 0-.03 1.17 0 1.2c.4-1 1.2-1.3 1.9-1.3c.2 0 .4.1.4.1c0 0 0 1.3 0 1.3zm4.5 5.2l-1.2 0l-2.7-6.5l1.5 0l1.8 5l1.9-5l1.3 0l-2.6 6.5zm3.8 0l0-6.5l1.3 0l0 6.5l-1.3 0zm.7-9.8c.5 0 .9.4.9.9c0 .5-.4.9-.9.9c-.5 0-.9-.4-.9-.9c0-.5.4-.9.9-.9zm3.5 6.6c0 1.5.9 2.3 2 2.3c1.2 0 1.6-.9 1.8-1.4c0 0 1.1.5 1.1.5c-.3.9-1.2 2-2.9 2c-1.9 0-3.3-1.5-3.3-3.4c0-2 1.4-3.5 3.3-3.5c1.7 0 2.6 1.1 2.8 2.1c0 0-1.1.5-1.1.5c-.2-.6-.6-1.4-1.7-1.4c-1.1 0-2 .8-2 2.3zm10.7-.7c0-.9-.7-1.6-1.8-1.6c-1.1 0-1.7.8-1.8 1.6c0 0 3.6 0 3.6 0zm1.3 2.1c-.4 1.1-1.4 2-2.9 2c-1.8 0-3.3-1.2-3.3-3.4c0-2.1 1.5-3.5 3.1-3.5c2 0 3.1 1.4 3.1 3.4c0 .2 0 .4 0 .4c0 0-4.9 0-4.9 0c0 1.2.9 2 2 2c1 0 1.5-.6 1.8-1.3c0 0 1.1.4 1.1.4zm2.3.1c.5 0 1.1.4 1.1 1.2c0 1.8-1.2 2.6-2 2.7c0 0 0-.7 0-.7c.6-.2 1.1-.8 1.1-1.5c-.1 0-.2.1-.3.1c-.5 0-.9-.4-.9-.9c0-.5.4-.9 1-.9z" stroke="none" fill="#144542"/></g><g id="Polygon168356"><path d="m1.2 66.5l0-9.6l5.8 0l0 1.2l-4.5 0l0 3l4.1 0l0 1.2l-4.1 0l0 2.9l4.5 0l0 1.3l-5.8 0zm7.5 0l0-6.5l1.2 0c0 0 .01.84 0 .8c.4-.7 1.2-1 2-1c.8 0 1.6.4 1.9 1.2c.5-.9 1.4-1.2 2.2-1.2c1.1 0 2.2.8 2.2 2.5c.02-.05 0 4.2 0 4.2l-1.2 0c0 0-.03-4.11 0-4.1c0-.9-.4-1.5-1.4-1.5c-.9 0-1.5.7-1.5 1.6c0 .04 0 4 0 4l-1.3 0c0 0 .04-4.11 0-4.1c0-.8-.4-1.5-1.3-1.5c-.9 0-1.5.7-1.5 1.6c-.05.05 0 4 0 4l-1.3 0zm11.5 2.5l0-9l1.3 0c0 0-.03.99 0 1c.3-.7 1.1-1.2 2.1-1.2c2 0 3 1.5 3 3.4c0 1.9-1.1 3.4-3 3.4c-1 0-1.8-.4-2.1-1c0-.02 0 3.4 0 3.4l-1.3 0zm5.1-5.8c0-1.3-.7-2.3-1.9-2.3c-1.1 0-1.9 1-1.9 2.3c0 1.3.8 2.3 1.9 2.3c1.2 0 1.9-1 1.9-2.3c0 0 0 0 0 0zm2.9 3.3l0-9.8l1.3 0l0 9.8l-1.3 0zm8.2-3.3c0-1.5-.9-2.3-2-2.3c-1.1 0-2 .8-2 2.3c0 1.5.9 2.3 2 2.3c1.1 0 2-.8 2-2.3zm1.3 0c0 2-1.3 3.5-3.3 3.5c-1.9 0-3.3-1.5-3.3-3.5c0-2 1.4-3.4 3.3-3.4c2 0 3.3 1.4 3.3 3.4zm1.6 6l1.6-3.5l-2.8-5.7l1.5 0l2 4.4l2-4.4l1.3 0l-4.2 9.2l-1.4 0zm10.9-6.6c0-1-.6-1.7-1.8-1.7c-1 0-1.7.8-1.7 1.7c0 0 3.5 0 3.5 0zm1.3 2c-.4 1.2-1.4 2.1-2.9 2.1c-1.7 0-3.3-1.3-3.3-3.5c0-2 1.5-3.4 3.1-3.4c2 0 3.1 1.3 3.1 3.4c0 .1 0 .3 0 .4c0 0-4.9 0-4.9 0c.1 1.1.9 1.9 2 1.9c1 0 1.6-.5 1.8-1.3c0 0 1.1.4 1.1.4zm-2.6-5.5l-1 0l1.2-1.9l1.5 0l-1.7 1.9zm4.8 5.3c.1.6.6 1.2 1.5 1.2c.7 0 1.1-.4 1.1-.9c0-.4-.3-.7-.8-.8c0 0-1.1-.3-1.1-.3c-1-.2-1.6-.9-1.6-1.8c0-1.1 1-2 2.3-2c1.7 0 2.3 1.1 2.4 1.7c0 0-1.1.4-1.1.4c0-.3-.3-1-1.3-1c-.7 0-1.1.4-1.1.8c0 .4.2.7.7.8c0 0 1.1.2 1.1.2c1.1.3 1.8 1 1.8 2c0 .9-.8 2-2.4 2c-1.8 0-2.5-1.2-2.6-1.9c0 0 1.1-.4 1.1-.4zm8.9 4.6l0-9l1.2 0c0 0 .04.99 0 1c.4-.7 1.2-1.2 2.2-1.2c2 0 3 1.5 3 3.4c0 1.9-1.1 3.4-3 3.4c-1 0-1.8-.4-2.1-1c-.03-.02 0 3.4 0 3.4l-1.3 0zm5.1-5.8c0-1.3-.7-2.3-1.9-2.3c-1.2 0-1.9 1-1.9 2.3c0 1.3.7 2.3 1.9 2.3c1.2 0 1.9-1 1.9-2.3c0 0 0 0 0 0zm7.7 0c0-1.5-.9-2.3-2-2.3c-1.1 0-2 .8-2 2.3c0 1.5.9 2.3 2 2.3c1.1 0 2-.8 2-2.3zm1.3 0c0 2-1.4 3.5-3.3 3.5c-2 0-3.3-1.5-3.3-3.5c0-2 1.3-3.4 3.3-3.4c1.9 0 3.3 1.4 3.3 3.4zm1.6 3.3l0-9.8l1.3 0l0 9.8l-1.3 0zm3.7 2.7l1.6-3.5l-2.8-5.7l1.4 0l2.1 4.4l1.9-4.4l1.4 0l-4.3 9.2l-1.3 0zm9.8-2.7l-1.3 0l-2.6-6.5l1.4 0l1.9 5l1.8-5l1.4 0l-2.6 6.5zm3.3-1.8c0-1.1.9-1.8 2-1.9c0 0 1.8-.3 1.8-.3c.3-.1.4-.3.4-.5c0-.6-.4-1.1-1.4-1.1c-.8 0-1.3.5-1.4 1.3c0 0-1.2-.3-1.2-.3c.1-1.3 1.2-2.1 2.6-2.1c2 0 2.7 1.1 2.7 2.3c0 0 0 3.3 0 3.3c0 .6.1.9.1 1.1c0 0-1.2 0-1.2 0c-.1-.2-.1-.4-.1-.9c-.3.4-.9 1.1-2.1 1.1c-1.3 0-2.2-1-2.2-2c0 0 0 0 0 0zm4.2-1c.05-.02 0-.3 0-.3c0 0-1.93.28-1.9.3c-.6.1-1 .4-1 1c0 .4.4.9 1.1.9c1 0 1.8-.5 1.8-1.9zm3.3 2.8l0-9.8l1.2 0l0 9.8l-1.2 0zm7.8-3.9c-.1-1-.7-1.7-1.8-1.7c-1.1 0-1.7.8-1.8 1.7c0 0 3.6 0 3.6 0zm1.2 2c-.3 1.2-1.4 2.1-2.9 2.1c-1.7 0-3.2-1.3-3.2-3.5c0-2 1.4-3.4 3.1-3.4c2 0 3.1 1.3 3.1 3.4c0 .1 0 .3 0 .4c0 0-4.9 0-4.9 0c0 1.1.8 1.9 1.9 1.9c1.1 0 1.6-.5 1.9-1.3c0 0 1 .4 1 .4zm3 1.9l-1.3 0l0-6.5l1.2 0c0 0 .04.91 0 .9c.5-.8 1.3-1.1 2-1.1c1.6 0 2.4 1.1 2.4 2.5c-.05.05 0 4.2 0 4.2l-1.3 0c0 0-.01-3.94 0-3.9c0-.9-.4-1.7-1.5-1.7c-1 0-1.5.8-1.5 1.8c-.03.01 0 3.8 0 3.8zm8-6.5l1.4 0l0 1.1l-1.4 0c0 0-.03 3.39 0 3.4c0 .6.2.9.9.9c.1 0 .4 0 .5-.1c0 0 0 1.1 0 1.1c-.1 0-.5.1-.9.1c-1.1 0-1.8-.6-1.8-1.8c0-.02 0-3.6 0-3.6l-1.2 0l0-1.1c0 0 .31-.02.3 0c.7 0 1-.5 1-1c.01-.02 0-1.1 0-1.1l1.2 0l0 2.1zm3.7 4.4c0 .6.6 1.2 1.5 1.2c.7 0 1.1-.4 1.1-.9c0-.4-.3-.7-.9-.8c0 0-1.1-.3-1.1-.3c-1-.2-1.6-.9-1.6-1.8c0-1.1 1.1-2 2.3-2c1.8 0 2.3 1.1 2.5 1.7c0 0-1.1.4-1.1.4c-.1-.3-.4-1-1.4-1c-.6 0-1.1.4-1.1.8c0 .4.3.7.8.8c0 0 1 .2 1 .2c1.2.3 1.8 1 1.8 2c0 .9-.7 2-2.3 2c-1.8 0-2.6-1.2-2.7-1.9c0 0 1.2-.4 1.2-.4zm6.4.3c.5 0 1 .4 1 1.3c0 1.7-1.1 2.5-1.9 2.6c0 0 0-.7 0-.7c.6-.2 1.1-.8 1.1-1.5c-.1.1-.2.1-.3.1c-.5 0-.9-.3-.9-.9c0-.5.4-.9 1-.9z" stroke="none" fill="#144542"/></g><g id="Polygon168355"><path d="m4.5 41.7c1.7 0 3.1-1 3.1-3.2c0-2.3-1.4-3.3-3.1-3.3c.04-.05-1.7 0-1.7 0l0 6.5c0 0 1.73.04 1.7 0zm-3.3 1.5l0-9.5c0 0 3.39-.03 3.4 0c2.6 0 4.6 1.7 4.6 4.8c0 3-2 4.7-4.6 4.7c-.02.02-3.4 0-3.4 0zm10.4 0l0-9.5l1.7 0l0 9.5l-1.7 0zm9.4-6.8c-.1-.6-.6-1.5-1.8-1.5c-1 0-1.7.6-1.7 1.4c0 .6.4 1 1.1 1.2c0 0 1.4.3 1.4.3c1.7.3 2.6 1.4 2.6 2.7c0 1.5-1.2 2.9-3.4 2.9c-2.4 0-3.5-1.5-3.7-2.9c0 0 1.5-.4 1.5-.4c.1 1 .8 1.9 2.2 1.9c1.2 0 1.8-.6 1.8-1.3c0-.7-.5-1.2-1.3-1.3c0 0-1.4-.3-1.4-.3c-1.4-.3-2.4-1.3-2.4-2.7c0-1.6 1.5-2.9 3.3-2.9c2.2 0 3.1 1.3 3.3 2.4c0 0-1.5.5-1.5.5zm7.7-1.2l0 8l-1.7 0l0-8l-3.1 0l0-1.5l7.9 0l0 1.5l-3.1 0zm7.9 4.3l-1.2 0l0 3.7l-1.6 0l0-9.5c0 0 3.63-.03 3.6 0c1.9 0 3 1.3 3 2.9c0 1.3-.8 2.4-2.1 2.7c-.03-.01 2.1 3.9 2.1 3.9l-1.8 0l-2-3.7zm.5-1.5c1 0 1.7-.6 1.7-1.4c0-.9-.7-1.5-1.7-1.5c.03 0-1.7 0-1.7 0l0 2.9c0 0 1.73.02 1.7 0zm5.7 5.2l0-9.5l1.7 0l0 9.5l-1.7 0zm7.9-9.5c1.8 0 2.9 1 2.9 2.5c0 1.1-.6 1.8-1.4 2.1c1 .3 1.7 1.2 1.7 2.3c0 1.5-1.2 2.6-2.9 2.6c-.05.02-3.6 0-3.6 0l0-9.5c0 0 3.31-.03 3.3 0zm-.2 4c.9 0 1.5-.5 1.5-1.3c0-.8-.6-1.4-1.5-1.4c-.05.05-1.5 0-1.5 0l0 2.7c0 0 1.49.01 1.5 0zm.2 4.1c.9 0 1.6-.5 1.6-1.3c0-.8-.6-1.4-1.6-1.4c.02-.03-1.7 0-1.7 0l0 2.7c0 0 1.67.05 1.7 0zm5.5-1.9c-.03 0 0-6.2 0-6.2l1.6 0c0 0-.03 6.1 0 6.1c0 1.3.7 2.1 1.9 2.1c1.2 0 2-.8 2-2.1c-.02 0 0-6.1 0-6.1l1.6 0c0 0-.01 6.2 0 6.2c0 2.3-1.6 3.5-3.6 3.5c-2 0-3.5-1.2-3.5-3.5zm13.7-4.7l0 8l-1.6 0l0-8l-3.1 0l0-1.5l7.8 0l0 1.5l-3.1 0zm5.1 8l0-9.5l1.7 0l0 9.5l-1.7 0zm8.9-1.3c1.6 0 3.2-1.2 3.2-3.5c0-2.3-1.6-3.4-3.2-3.4c-1.6 0-3.2 1.1-3.2 3.4c0 2.3 1.6 3.5 3.2 3.5zm0-8.4c2.5 0 4.9 1.8 4.9 4.9c0 3.2-2.4 5-4.9 5c-2.5 0-4.9-1.8-4.9-5c0-3.1 2.4-4.9 4.9-4.9zm13.6 9.7l-4.7-7.2l0 7.2l-1.7 0l0-9.5l2.1 0l4.3 6.7l0-6.7l1.7 0l0 9.5l-1.7 0z" stroke="none" fill="#9b78ef"/></g><g id="Polygon168354"><path d="m7.3 17.5l1.7 0l-3.6 9.6l-1.6 0l-3.6-9.6l1.8 0l2.6 7.4l2.7-7.4zm3.7 9.6l0-9.6l5.9 0l0 1.5l-4.3 0l0 2.6l3.9 0l0 1.4l-3.9 0l0 2.6l4.3 0l0 1.5l-5.9 0zm14.8 0l-4.7-7.3l0 7.3l-1.6 0l0-9.6l2 0l4.4 6.8l0-6.8l1.6 0l0 9.6l-1.7 0zm8.4-8.1l0 8.1l-1.6 0l0-8.1l-3.1 0l0-1.5l7.8 0l0 1.5l-3.1 0zm5.1 8.1l0-9.6l5.9 0l0 1.5l-4.3 0l0 2.6l3.9 0l0 1.4l-3.9 0l0 2.6l4.3 0l0 1.5l-5.9 0zm17-1.2c-.7.8-1.6 1.3-2.6 1.3c-1.8 0-2.8-1.2-2.8-2.5c0-1.2.6-1.9 1.6-2.6c.01-.01.1-.1.1-.1c0 0-.15-.15-.2-.2c-.4-.4-1-1.2-1-2.1c0-1.5 1.3-2.4 2.5-2.4c1.5 0 2.6 1 2.6 2.4c0 .9-.6 1.6-1.3 2.1c-.02.03-.4.3-.4.3l1.6 1.7l2.2-2.5l0 2.1l-1.3 1.4l2.2 2.3l-2.1 0c0 0-1.09-1.17-1.1-1.2zm-1-1c.02.02 0 0 0 0l-1.7-1.9c0 0-.36.27-.4.3c-.4.3-.7.7-.7 1.3c0 .6.4 1.2 1.2 1.2c.7 0 1.1-.4 1.6-.9zm-1.8-4.1c.03.05.3.3.3.3c0 0 .55-.36.5-.4c.5-.3.7-.7.7-1c0-.6-.5-1.1-1.1-1.1c-.5 0-1 .4-1 1.1c0 .4.3.8.6 1.1zm18.2 6.3c0 0-.09-1.25-.1-1.3c-.4.7-1.4 1.5-2.9 1.5c-2.5 0-4.7-1.9-4.7-5c0-3.2 2.3-5 4.8-5c2.3 0 3.8 1.3 4.3 2.9c0 0-1.5.6-1.5.6c-.3-1.1-1.3-2-2.8-2c-1.6 0-3.2 1.1-3.2 3.5c0 2.3 1.5 3.5 3.2 3.5c1.9 0 2.6-1.3 2.7-2.2c.02.04-3.1 0-3.1 0l0-1.4l4.6 0l0 4.9l-1.3 0zm6.8-3.8l-1.2 0l0 3.8l-1.6 0l0-9.6c0 0 3.63.01 3.6 0c1.9 0 3 1.3 3 2.9c0 1.4-.8 2.4-2.1 2.7c-.03.03 2.1 4 2.1 4l-1.8 0l-2-3.8zm.5-1.4c1 0 1.7-.6 1.7-1.5c0-.9-.7-1.5-1.7-1.5c.04.04-1.7 0-1.7 0l0 3c0 0 1.74-.04 1.7 0zm11.3 2.8l-4 0l-.9 2.4l-1.7 0l3.7-9.6l1.9 0l3.7 9.6l-1.8 0l-.9-2.4zm-3.5-1.5l2.9 0l-1.4-3.9l-1.5 3.9zm14.5 3.9l-4.8-7.3l0 7.3l-1.6 0l0-9.6l2.1 0l4.3 6.8l0-6.8l1.6 0l0 9.6l-1.6 0zm7.9-1.5c1.7 0 3.1-1.1 3.1-3.3c0-2.2-1.4-3.3-3.1-3.3c.03-.01-1.7 0-1.7 0l0 6.6c0 0 1.72-.02 1.7 0zm-3.3 1.5l0-9.6c0 0 3.39.01 3.4 0c2.6 0 4.6 1.7 4.6 4.8c0 3.1-2 4.8-4.6 4.8c-.03-.04-3.4 0-3.4 0zm10.4 0l0-9.6l5.9 0l0 1.5l-4.3 0l0 2.6l3.9 0l0 1.4l-3.9 0l0 2.6l4.3 0l0 1.5l-5.9 0z" stroke="none" fill="#9b78ef"/></g><g id="Polygon168353"><path d="m.6 6.1c0-3.1 2.4-5 4.8-5c2.5 0 3.9 1.5 4.3 3.1c0 0-1.5.6-1.5.6c-.3-1.2-1.2-2.1-2.8-2.1c-1.5 0-3.1 1.1-3.1 3.4c0 2.3 1.5 3.5 3.2 3.5c1.6 0 2.5-1.1 2.8-2.2c0 0 1.5.5 1.5.5c-.5 1.7-1.9 3.2-4.3 3.2c-2.6 0-4.9-1.9-4.9-5zm15.7 3.5c1.6 0 3.2-1.2 3.2-3.5c0-2.3-1.6-3.4-3.2-3.4c-1.6 0-3.2 1.1-3.2 3.4c0 2.3 1.6 3.5 3.2 3.5zm0-8.5c2.5 0 4.8 1.9 4.8 5c0 3.2-2.3 5-4.8 5c-2.5 0-4.9-1.8-4.9-5c0-3.1 2.4-5 4.9-5zm16.1 9.8l0-7l-3 7l-1.4 0l-2.9-7l0 7l-1.6 0l0-9.6l2.2 0l3.1 7.3l3-7.3l2.2 0l0 9.6l-1.6 0zm13.5 0l0-7l-3 7l-1.4 0l-3-7l0 7l-1.5 0l0-9.6l2.1 0l3.1 7.3l3.1-7.3l2.2 0l0 9.6l-1.6 0zm4.5 0l0-9.6l5.9 0l0 1.6l-4.2 0l0 2.5l3.8 0l0 1.5l-3.8 0l0 2.5l4.2 0l0 1.5l-5.9 0zm11.4-3.8l-1.2 0l0 3.8l-1.6 0l0-9.6c0 0 3.62.05 3.6 0c1.9 0 3 1.3 3 2.9c0 1.4-.8 2.4-2.1 2.8c-.05-.04 2.1 3.9 2.1 3.9l-1.8 0l-2-3.8zm.5-1.4c1 0 1.7-.6 1.7-1.5c0-.8-.7-1.4-1.7-1.4c.02-.03-1.7 0-1.7 0l0 2.9c0 0 1.72 0 1.7 0zm5.1.4c0-3.1 2.3-5 4.8-5c2.4 0 3.8 1.5 4.3 3.1c0 0-1.6.6-1.6.6c-.2-1.2-1.1-2.1-2.7-2.1c-1.6 0-3.2 1.1-3.2 3.4c0 2.3 1.5 3.5 3.2 3.5c1.6 0 2.5-1.1 2.8-2.2c0 0 1.5.5 1.5.5c-.4 1.7-1.9 3.2-4.3 3.2c-2.6 0-4.8-1.9-4.8-5zm11.4 4.8l0-9.6l5.9 0l0 1.6l-4.3 0l0 2.5l3.9 0l0 1.5l-3.9 0l0 2.5l4.3 0l0 1.5l-5.9 0zm9.3-2c.7 0 1.2.6 1.2 1.4c0 1.9-1.2 2.7-2.2 2.8c0 0 0-.8 0-.8c.7-.1 1.2-.7 1.2-1.4c0 0-.1 0-.3 0c-.6 0-1-.4-1-1c0-.6.5-1 1.1-1z" stroke="none" fill="#9b78ef"/></g></svg>