<?xml version="1.0" standalone="no"?><!DOCTYPE svg PUBLIC "-//W3C//DTD SVG 1.1//EN" "http://www.w3.org/Graphics/SVG/1.1/DTD/svg11.dtd"><svg xmlns="http://www.w3.org/2000/svg" version="1.1" width="34px" height="38.3px" viewBox="0 -6 34 38.3" style="top:-6px"><desc>4</desc><defs/><g id="Polygon169302"><path d="m9.8 12.3c0 0-.03 2.87 0 2.9c0 1.8.8 2.2 1.1 2.3c-.03-.03 0 .4 0 .4l-6.3 0c0 0-.02-.4 0-.4c.3-.1 1.4-.5 1.4-2.4c-.05.04 0-2.8 0-2.8l-5.9 0l0-1.5l7.8-10.2l1.9 0c0 0-.03 9.84 0 9.8c1.2-.1 1.9-.4 2.2-1.2c.02.04.4 0 .4 0l-.7 3.1l-1.9 0zm-3.8-1.8l0-6.5l-5.1 6.5l5.1 0z" stroke="none" fill="#9b78ef"/></g></svg>