<?xml version="1.0" standalone="no"?><!DOCTYPE svg PUBLIC "-//W3C//DTD SVG 1.1//EN" "http://www.w3.org/Graphics/SVG/1.1/DTD/svg11.dtd"><svg xmlns="http://www.w3.org/2000/svg" version="1.1" width="393.1px" height="62.2px" viewBox="0 -4 393.1 62.2" style="top:-4px"><desc>En 2025, nous avons renouvel les membres et avons le plaisir d’accueillir au sein du Comit :</desc><defs/><g id="Polygon184561"><path d="m3.3 29.4c0 0 2.1-.3 2.1-.3c.5-.1.6-.3.6-.6c0-.7-.5-1.3-1.6-1.3c-1 0-1.6.7-1.7 1.5c0 0-1.8-.4-1.8-.4c.2-1.4 1.5-2.7 3.5-2.7c2.6 0 3.5 1.5 3.5 3.1c0 0 0 4.1 0 4.1c0 .8.1 1.3.1 1.4c0 0-1.8 0-1.8 0c0-.1-.1-.4-.1-1.1c-.4.6-1.2 1.3-2.5 1.3c-1.8 0-2.8-1.2-2.8-2.5c0-1.5 1.1-2.3 2.5-2.5zm2.7 1.3c0 .02 0-.4 0-.4c0 0-2.16.37-2.2.4c-.6.1-1.1.4-1.1 1.1c0 .6.5 1.1 1.2 1.1c1.1 0 2.1-.6 2.1-2.2zm8.5 3.5l-2 0l-3.4-8.3l2.2 0l2.2 5.9l2.1-5.9l2.1 0l-3.2 8.3zm10.4-4.2c0-1.7-1.1-2.6-2.4-2.6c-1.2 0-2.3.9-2.3 2.6c0 1.7 1.1 2.6 2.3 2.6c1.3 0 2.4-.9 2.4-2.6zm1.9 0c0 2.6-1.8 4.4-4.3 4.4c-2.4 0-4.2-1.8-4.2-4.4c0-2.5 1.8-4.4 4.2-4.4c2.5 0 4.3 1.9 4.3 4.4zm3.9 4.2l-2 0l0-8.3l2 0c0 0-.03 1.08 0 1.1c.5-1 1.5-1.4 2.4-1.4c2 0 3 1.5 3 3.3c.01.02 0 5.3 0 5.3l-2 0c0 0 .04-4.94 0-4.9c0-1.1-.4-1.9-1.7-1.9c-1.1 0-1.7.9-1.7 2c.02-.02 0 4.8 0 4.8zm8.8-2.8c.1.8.6 1.4 1.7 1.4c.8 0 1.2-.4 1.2-.9c0-.5-.3-.8-1-.9c0 0-1.2-.3-1.2-.3c-1.4-.3-2.2-1.3-2.2-2.4c0-1.5 1.3-2.7 3-2.7c2.3 0 3.1 1.5 3.2 2.3c0 0-1.6.5-1.6.5c-.1-.5-.5-1.2-1.6-1.2c-.7 0-1.2.4-1.2.9c0 .5.4.8.9.9c0 0 1.2.2 1.2.2c1.6.4 2.4 1.3 2.4 2.6c0 1.2-1 2.6-3.1 2.6c-2.4 0-3.3-1.6-3.4-2.5c0 0 1.7-.5 1.7-.5zm11 2.8l0-12.4l2 0l0 12.4l-2 0zm10-5.1c-.1-1-.7-1.8-2.1-1.8c-1.2 0-1.9.9-2 1.8c0 0 4.1 0 4.1 0zm1.8 2.7c-.4 1.4-1.7 2.6-3.7 2.6c-2.2 0-4.2-1.6-4.2-4.4c0-2.6 1.9-4.4 4-4.4c2.5 0 4 1.7 4 4.3c0 .3 0 .6 0 .6c0 0-6.1 0-6.1 0c.1 1.3 1.1 2.2 2.3 2.2c1.2 0 1.8-.6 2.1-1.4c0 0 1.6.5 1.6.5zm6.2 5.6l0-11.5l1.9 0c0 0 .05 1.1 0 1.1c.5-.7 1.4-1.3 2.7-1.3c2.4 0 3.8 1.9 3.8 4.3c0 2.5-1.5 4.4-3.9 4.4c-1.2 0-2.1-.6-2.5-1.2c0 .02 0 4.2 0 4.2l-2 0zm4.2-10c-1.3 0-2.2 1.1-2.2 2.6c0 1.6.9 2.6 2.2 2.6c1.3 0 2.2-1 2.2-2.6c0-1.5-.9-2.6-2.2-2.6zm6.1 6.8l0-12.4l2 0l0 12.4l-2 0zm6.5-4.8c0 0 2.1-.3 2.1-.3c.5-.1.6-.3.6-.6c0-.7-.5-1.3-1.5-1.3c-1.1 0-1.7.7-1.7 1.5c0 0-1.8-.4-1.8-.4c.1-1.4 1.4-2.7 3.4-2.7c2.6 0 3.6 1.5 3.6 3.1c0 0 0 4.1 0 4.1c0 .8 0 1.3.1 1.4c0 0-1.9 0-1.9 0c0-.1-.1-.4-.1-1.1c-.3.6-1.2 1.3-2.5 1.3c-1.7 0-2.8-1.2-2.8-2.5c0-1.5 1.1-2.3 2.5-2.5zm2.7 1.3c.02.02 0-.4 0-.4c0 0-2.13.37-2.1.4c-.6.1-1.1.4-1.1 1.1c0 .6.4 1.1 1.2 1.1c1.1 0 2-.6 2-2.2zm4.3 3.5l0-8.3l2 0l0 8.3l-2 0zm1-12.5c.7 0 1.3.6 1.3 1.3c0 .7-.6 1.2-1.3 1.2c-.7 0-1.3-.5-1.3-1.2c0-.7.6-1.3 1.3-1.3zm4.5 9.7c.1.8.7 1.4 1.7 1.4c.8 0 1.3-.4 1.3-.9c0-.5-.3-.8-1-.9c0 0-1.2-.3-1.2-.3c-1.5-.3-2.3-1.3-2.3-2.4c0-1.5 1.4-2.7 3.1-2.7c2.3 0 3 1.5 3.2 2.3c0 0-1.7.5-1.7.5c-.1-.5-.4-1.2-1.5-1.2c-.7 0-1.2.4-1.2.9c0 .5.3.8.8.9c0 0 1.3.2 1.3.2c1.5.4 2.4 1.3 2.4 2.6c0 1.2-1.1 2.6-3.2 2.6c-2.4 0-3.3-1.6-3.4-2.5c0 0 1.7-.5 1.7-.5zm6.8 2.8l0-8.3l2 0l0 8.3l-2 0zm1-12.5c.7 0 1.3.6 1.3 1.3c0 .7-.6 1.2-1.3 1.2c-.7 0-1.3-.5-1.3-1.2c0-.7.6-1.3 1.3-1.3zm8.4 6.1c-.3 0-.5 0-.7 0c-1.5 0-2.2.9-2.2 2.4c-.01.01 0 4 0 4l-2 0l0-8.3l1.9 0c0 0 .04 1.3 0 1.3c.4-.9 1.4-1.4 2.4-1.4c.3 0 .5 0 .6 0c0 0 0 2 0 2zm9.3 4.8c1.3 0 2.2-1 2.2-2.6c0-1.6-.8-2.6-2.1-2.6c-1.3 0-2.3 1-2.3 2.6c0 1.6.9 2.6 2.2 2.6zm4.1 0c0 .8.1 1.4.1 1.6c0 0-1.9 0-1.9 0c0-.2 0-.8 0-1.1c-.4.7-1.3 1.3-2.5 1.3c-2.4 0-3.9-1.9-3.9-4.4c0-2.4 1.6-4.3 3.9-4.3c1.4 0 2.2.6 2.4 1.1c.03.04 0-5 0-5l1.9 0c0 0 .05 10.84 0 10.8zm3.2-10.6c.9 0 1.5.6 1.5 1.5c0 2.3-1.5 3.1-2.6 3.2c0 0 0-.9 0-.9c.7-.2 1.4-.8 1.4-1.6c0 0-.2.1-.4.1c-.6 0-1.1-.5-1.1-1.2c0-.6.5-1.1 1.2-1.1zm4.7 7.4c0 0 2.1-.3 2.1-.3c.5-.1.6-.3.6-.6c0-.7-.4-1.3-1.5-1.3c-1.1 0-1.6.7-1.7 1.5c0 0-1.8-.4-1.8-.4c.1-1.4 1.4-2.7 3.5-2.7c2.5 0 3.5 1.5 3.5 3.1c0 0 0 4.1 0 4.1c0 .8.1 1.3.1 1.4c0 0-1.9 0-1.9 0c0-.1 0-.4 0-1.1c-.4.6-1.3 1.3-2.6 1.3c-1.7 0-2.8-1.2-2.8-2.5c0-1.5 1.1-2.3 2.5-2.5zm2.7 1.3c.04.02 0-.4 0-.4c0 0-2.12.37-2.1.4c-.6.1-1.1.4-1.1 1.1c0 .6.4 1.1 1.2 1.1c1.1 0 2-.6 2-2.2zm5.7-.7c0 1.7 1 2.6 2.3 2.6c1.3 0 1.9-.9 2.1-1.5c0 0 1.7.6 1.7.6c-.4 1.3-1.6 2.7-3.8 2.7c-2.5 0-4.3-1.9-4.3-4.4c0-2.5 1.8-4.4 4.2-4.4c2.3 0 3.5 1.4 3.8 2.7c0 0-1.8.7-1.8.7c-.1-.7-.7-1.6-2-1.6c-1.2 0-2.2.9-2.2 2.6zm9.1 0c0 1.7 1 2.6 2.3 2.6c1.3 0 1.9-.9 2.1-1.5c0 0 1.7.6 1.7.6c-.4 1.3-1.6 2.7-3.8 2.7c-2.4 0-4.3-1.9-4.3-4.4c0-2.5 1.9-4.4 4.2-4.4c2.3 0 3.5 1.4 3.8 2.7c0 0-1.7.7-1.7.7c-.2-.7-.8-1.6-2-1.6c-1.3 0-2.3.9-2.3 2.6zm10.8 4.4c-2 0-3.2-1.5-3.2-3.3c.04-.01 0-5.2 0-5.2l2 0c0 0 .02 4.84 0 4.8c0 1.1.5 1.9 1.7 1.9c1.1 0 1.7-.7 1.7-1.8c.02-.03 0-4.9 0-4.9l2 0c0 0-.01 6.74 0 6.7c0 .7 0 1.2.1 1.6c0 0-1.9 0-1.9 0c0-.2-.1-.6-.1-1c-.4.8-1.4 1.2-2.3 1.2zm12.1-5.3c0-1-.7-1.8-2-1.8c-1.3 0-2 .9-2 1.8c0 0 4 0 4 0zm1.9 2.7c-.4 1.4-1.7 2.6-3.7 2.6c-2.3 0-4.3-1.6-4.3-4.4c0-2.6 2-4.4 4.1-4.4c2.5 0 4 1.7 4 4.3c0 .3 0 .6 0 .6c0 0-6.1 0-6.1 0c.1 1.3 1 2.2 2.3 2.2c1.2 0 1.8-.6 2-1.4c0 0 1.7.5 1.7.5zm2 2.4l0-8.3l2 0l0 8.3l-2 0zm1-12.5c.7 0 1.3.6 1.3 1.3c0 .7-.6 1.2-1.3 1.2c-.7 0-1.3-.5-1.3-1.2c0-.7.6-1.3 1.3-1.3zm3.5 12.5l0-12.4l2 0l0 12.4l-2 0zm4.5 0l0-12.4l2 0l0 12.4l-2 0zm4.6 0l0-8.3l1.9 0l0 8.3l-1.9 0zm.9-12.5c.7 0 1.3.6 1.3 1.3c0 .7-.6 1.2-1.3 1.2c-.7 0-1.3-.5-1.3-1.2c0-.7.6-1.3 1.3-1.3zm8.4 6.1c-.2 0-.4 0-.6 0c-1.6 0-2.3.9-2.3 2.4c.03.01 0 4 0 4l-1.9 0l0-8.3l1.9 0c0 0-.02 1.3 0 1.3c.4-.9 1.3-1.4 2.4-1.4c.2 0 .4 0 .5 0c0 0 0 2 0 2zm7.8 1.6c0 0 2.1-.3 2.1-.3c.5-.1.7-.3.7-.6c0-.7-.5-1.3-1.6-1.3c-1 0-1.6.7-1.7 1.5c0 0-1.8-.4-1.8-.4c.1-1.4 1.4-2.7 3.5-2.7c2.5 0 3.5 1.5 3.5 3.1c0 0 0 4.1 0 4.1c0 .8.1 1.3.1 1.4c0 0-1.8 0-1.8 0c-.1-.1-.1-.4-.1-1.1c-.4.6-1.2 1.3-2.6 1.3c-1.7 0-2.8-1.2-2.8-2.5c0-1.5 1.1-2.3 2.5-2.5zm2.8 1.3c-.04.02 0-.4 0-.4c0 0-2.2.37-2.2.4c-.6.1-1.1.4-1.1 1.1c0 .6.4 1.1 1.2 1.1c1.1 0 2.1-.6 2.1-2.2zm7.2 3.7c-2 0-3.1-1.5-3.1-3.3c-.05-.01 0-5.2 0-5.2l1.9 0c0 0 .03 4.84 0 4.8c0 1.1.5 1.9 1.7 1.9c1.1 0 1.7-.7 1.7-1.8c.03-.03 0-4.9 0-4.9l2 0c0 0 0 6.74 0 6.7c0 .7 0 1.2.1 1.6c0 0-1.9 0-1.9 0c0-.2-.1-.6-.1-1c-.4.8-1.3 1.2-2.3 1.2zm12-3c0 .8.6 1.4 1.6 1.4c.8 0 1.3-.4 1.3-.9c0-.5-.3-.8-1-.9c0 0-1.2-.3-1.2-.3c-1.5-.3-2.2-1.3-2.2-2.4c0-1.5 1.3-2.7 3-2.7c2.3 0 3.1 1.5 3.2 2.3c0 0-1.7.5-1.7.5c0-.5-.4-1.2-1.5-1.2c-.7 0-1.2.4-1.2.9c0 .5.3.8.8.9c0 0 1.3.2 1.3.2c1.6.4 2.4 1.3 2.4 2.6c0 1.2-1 2.6-3.1 2.6c-2.4 0-3.4-1.6-3.5-2.5c0 0 1.8-.5 1.8-.5zm12.1-2.3c0-1-.7-1.8-2-1.8c-1.3 0-2 .9-2 1.8c0 0 4 0 4 0zm1.9 2.7c-.4 1.4-1.7 2.6-3.7 2.6c-2.3 0-4.3-1.6-4.3-4.4c0-2.6 2-4.4 4.1-4.4c2.5 0 4 1.7 4 4.3c0 .3 0 .6 0 .6c0 0-6.1 0-6.1 0c.1 1.3 1 2.2 2.3 2.2c1.2 0 1.8-.6 2-1.4c0 0 1.7.5 1.7.5zm2 2.4l0-8.3l2 0l0 8.3l-2 0zm1-12.5c.7 0 1.3.6 1.3 1.3c0 .7-.6 1.2-1.3 1.2c-.7 0-1.3-.5-1.3-1.2c0-.7.6-1.3 1.3-1.3zm5.5 12.5l-2 0l0-8.3l1.9 0c0 0 .02 1.08 0 1.1c.6-1 1.6-1.4 2.5-1.4c2 0 3 1.5 3 3.3c-.04.02 0 5.3 0 5.3l-2 0c0 0-.01-4.94 0-4.9c0-1.1-.5-1.9-1.7-1.9c-1.1 0-1.7.9-1.7 2c-.02-.02 0 4.8 0 4.8zm15.5-1.6c1.3 0 2.2-1 2.2-2.6c0-1.6-.9-2.6-2.2-2.6c-1.2 0-2.2 1-2.2 2.6c0 1.6.9 2.6 2.2 2.6zm4.1 0c0 .8.1 1.4.1 1.6c0 0-1.9 0-1.9 0c0-.2-.1-.8-.1-1.1c-.4.7-1.2 1.3-2.4 1.3c-2.4 0-4-1.9-4-4.4c0-2.4 1.6-4.3 4-4.3c1.4 0 2.2.6 2.4 1.1c.01.04 0-5 0-5l1.9 0c0 0 .03 10.84 0 10.8zm5.6 1.8c-2 0-3.1-1.5-3.1-3.3c-.03-.01 0-5.2 0-5.2l1.9 0c0 0 .05 4.84 0 4.8c0 1.1.5 1.9 1.7 1.9c1.2 0 1.7-.7 1.7-1.8c.05-.03 0-4.9 0-4.9l2 0c0 0 .02 6.74 0 6.7c0 .7.1 1.2.1 1.6c0 0-1.9 0-1.9 0c0-.2-.1-.6-.1-1c-.4.8-1.3 1.2-2.3 1.2zm10.4-6.3c0-3.9 3-6.3 6.1-6.3c3.1 0 4.9 1.8 5.4 4c0 0-1.9.6-1.9.6c-.4-1.5-1.5-2.6-3.5-2.6c-2 0-4 1.4-4 4.3c0 2.9 2 4.4 4 4.4c2 0 3.2-1.3 3.6-2.7c0 0 1.9.6 1.9.6c-.6 2.1-2.4 4-5.5 4c-3.2 0-6.1-2.3-6.1-6.3zm19.1 1.9c0-1.7-1.1-2.6-2.3-2.6c-1.2 0-2.3.9-2.3 2.6c0 1.7 1.1 2.6 2.3 2.6c1.2 0 2.3-.9 2.3-2.6zm2 0c0 2.6-1.8 4.4-4.3 4.4c-2.5 0-4.3-1.8-4.3-4.4c0-2.5 1.8-4.4 4.3-4.4c2.5 0 4.3 1.9 4.3 4.4zm1.9 4.2l0-8.3l1.9 0c0 0-.01 1.03 0 1c.5-.8 1.5-1.3 2.4-1.3c1.1 0 2.1.5 2.5 1.5c.7-1.1 1.6-1.5 2.7-1.5c1.5 0 2.9 1 2.9 3.2c.03-.02 0 5.4 0 5.4l-1.9 0c0 0 .03-5.1 0-5.1c0-1-.5-1.7-1.6-1.7c-1 0-1.7.8-1.7 1.8c.02.04 0 5 0 5l-1.9 0c0 0-.02-5.1 0-5.1c0-.9-.5-1.7-1.6-1.7c-1.1 0-1.7.8-1.7 1.8c-.04.04 0 5 0 5l-2 0zm14.8 0l0-8.3l2 0l0 8.3l-2 0zm1-12.5c.7 0 1.3.6 1.3 1.3c0 .7-.6 1.2-1.3 1.2c-.7 0-1.3-.5-1.3-1.2c0-.7.6-1.3 1.3-1.3zm6.1 4.2l1.7 0l0 1.7l-1.7 0c0 0-.05 3.87 0 3.9c0 .7.3 1 1 1c.3 0 .6 0 .7-.1c0 0 0 1.7 0 1.7c-.1 0-.5.2-1.2.2c-1.6 0-2.5-1-2.5-2.5c0-.01 0-4.2 0-4.2l-1.5 0l0-1.7c0 0 .39-.03.4 0c.9 0 1.3-.6 1.3-1.3c-.03-.02 0-1.3 0-1.3l1.8 0l0 2.6zm7.7-1.1l-1.6 0l1.5-2.5l2.3 0l-2.2 2.5zm1.3 4.3c0-1-.6-1.8-2-1.8c-1.2 0-1.9.9-2 1.8c0 0 4 0 4 0zm1.9 2.7c-.4 1.4-1.7 2.6-3.7 2.6c-2.2 0-4.2-1.6-4.2-4.4c0-2.6 1.9-4.4 4-4.4c2.5 0 4 1.7 4 4.3c0 .3 0 .6 0 .6c0 0-6.1 0-6.1 0c.1 1.3 1.1 2.2 2.3 2.2c1.2 0 1.8-.6 2.1-1.4c0 0 1.6.5 1.6.5zm7.5-.3c.8 0 1.4.6 1.4 1.4c0 .7-.6 1.4-1.4 1.4c-.7 0-1.3-.7-1.3-1.4c0-.8.6-1.4 1.3-1.4zm0-5.7c.8 0 1.4.6 1.4 1.3c0 .8-.6 1.4-1.4 1.4c-.7 0-1.3-.6-1.3-1.4c0-.7.6-1.3 1.3-1.3z" stroke="none" fill="#144542"/></g><g id="Polygon184560"><path d="m1.4 13.8l0-12.1l7.5 0l0 1.9l-5.4 0l0 3.2l4.9 0l0 1.9l-4.9 0l0 3.1l5.4 0l0 2l-7.5 0zm11.6 0l-2 0l0-8.3l1.9 0c0 0 .02 1.08 0 1.1c.6-1 1.5-1.4 2.5-1.4c2 0 3 1.5 3 3.3c-.04.02 0 5.3 0 5.3l-2 0c0 0-.01-4.94 0-4.9c0-1.1-.5-1.9-1.7-1.9c-1.1 0-1.7.9-1.7 2c-.03-.02 0 4.8 0 4.8zm11.4-7.1c0-.1 0-.4 0-.6c0-1.9 1.4-3.6 3.9-3.6c2.4 0 3.9 1.6 3.9 3.4c0 1.5-.8 2.7-2.2 3.5c0 0-2.1 1.3-2.1 1.3c-.5.3-1 .7-1.1 1.3c-.03-.05 5.4 0 5.4 0l0 1.8c0 0-7.94-.05-7.9 0c0-1.9.7-3.4 2.6-4.6c0 0 1.8-1.1 1.8-1.1c1-.7 1.4-1.3 1.4-2.1c0-.9-.6-1.7-1.8-1.7c-1.3 0-2 .9-2 2c0 .2.1.4.1.6c0 0-2-.2-2-.2zm12 4.7c.4.5.9.8 1.7.8c.8 0 1.3-.3 1.7-.8c.5-.7.8-1.8.8-3.2c0-1.3-.3-2.4-.8-3.1c-.4-.5-.9-.8-1.7-.8c-.8 0-1.3.3-1.7.8c-.5.7-.8 1.8-.8 3.1c0 1.4.3 2.5.8 3.2zm-1.8-7.1c.7-1.1 1.8-1.8 3.5-1.8c1.6 0 2.8.7 3.5 1.8c.7 1.1 1 2.5 1 3.9c0 1.5-.3 2.9-1 4c-.7 1.1-1.9 1.8-3.5 1.8c-1.7 0-2.8-.7-3.5-1.8c-.8-1.1-1-2.5-1-4c0-1.4.2-2.8 1-3.9zm9.4 2.4c0-.1 0-.4 0-.6c0-1.9 1.4-3.6 3.9-3.6c2.4 0 3.9 1.6 3.9 3.4c0 1.5-.8 2.7-2.1 3.5c0 0-2.2 1.3-2.2 1.3c-.5.3-1 .7-1.1 1.3c-.01-.05 5.4 0 5.4 0l0 1.8c0 0-7.92-.05-7.9 0c0-1.9.7-3.4 2.6-4.6c0 0 1.8-1.1 1.8-1.1c1-.7 1.4-1.3 1.4-2.1c0-.9-.6-1.7-1.8-1.7c-1.3 0-1.9.9-1.9 2c0 .2 0 .4 0 .6c0 0-2-.2-2-.2zm10.9 3.5c.1 1.2 1 2.1 2.2 2.1c1.2 0 2.1-.8 2.1-2c0-1.4-1-2.1-2.1-2.1c-.8 0-1.4.4-1.8.8c-.03-.01-2-.7-2-.7l1.4-5.6l6 0l0 1.8l-4.6 0c0 0-.7 2.81-.7 2.8c.5-.5 1.3-.8 2.1-.8c2.2 0 3.8 1.4 3.8 3.7c0 2.1-1.6 3.8-4.2 3.8c-2.3 0-4-1.6-4.1-3.3c0 0 1.9-.5 1.9-.5zm9.3 1c.9 0 1.5.7 1.5 1.8c0 2.4-1.6 3.4-2.8 3.6c0 0 0-1 0-1c.8-.2 1.5-1 1.5-1.9c0 .1-.1.1-.4.1c-.7 0-1.3-.5-1.3-1.3c0-.7.7-1.3 1.5-1.3zm10.1 2.6l-2 0l0-8.3l1.9 0c0 0 .02 1.08 0 1.1c.6-1 1.6-1.4 2.5-1.4c2 0 3 1.5 3 3.3c-.04.02 0 5.3 0 5.3l-2 0c0 0-.01-4.94 0-4.9c0-1.1-.5-1.9-1.7-1.9c-1.1 0-1.7.9-1.7 2c-.03-.02 0 4.8 0 4.8zm13.7-4.2c0-1.7-1.1-2.6-2.3-2.6c-1.2 0-2.3.9-2.3 2.6c0 1.7 1.1 2.6 2.3 2.6c1.2 0 2.3-.9 2.3-2.6zm2 0c0 2.6-1.8 4.4-4.3 4.4c-2.5 0-4.3-1.8-4.3-4.4c0-2.5 1.8-4.4 4.3-4.4c2.5 0 4.3 1.9 4.3 4.4zm4.9 4.4c-2 0-3.1-1.5-3.1-3.3c-.04-.01 0-5.2 0-5.2l1.9 0c0 0 .04 4.84 0 4.8c0 1.1.5 1.9 1.7 1.9c1.1 0 1.7-.7 1.7-1.8c.04-.03 0-4.9 0-4.9l2 0c0 0 .01 6.74 0 6.7c0 .7.1 1.2.1 1.6c0 0-1.9 0-1.9 0c0-.2-.1-.6-.1-1c-.4.8-1.3 1.2-2.3 1.2zm7.7-3c.1.8.7 1.4 1.7 1.4c.8 0 1.3-.4 1.3-.9c0-.5-.3-.8-1-.9c0 0-1.2-.3-1.2-.3c-1.5-.3-2.3-1.3-2.3-2.4c0-1.5 1.4-2.7 3.1-2.7c2.3 0 3.1 1.5 3.2 2.3c0 0-1.7.5-1.7.5c0-.5-.4-1.2-1.5-1.2c-.7 0-1.2.4-1.2.9c0 .5.3.8.8.9c0 0 1.3.2 1.3.2c1.6.4 2.4 1.3 2.4 2.6c0 1.2-1 2.6-3.2 2.6c-2.4 0-3.3-1.6-3.4-2.5c0 0 1.7-.5 1.7-.5zm13-2c0 0 2.2-.3 2.2-.3c.4-.1.6-.3.6-.6c0-.7-.5-1.3-1.6-1.3c-1 0-1.6.7-1.7 1.5c0 0-1.8-.4-1.8-.4c.2-1.4 1.4-2.7 3.5-2.7c2.5 0 3.5 1.5 3.5 3.1c0 0 0 4.1 0 4.1c0 .8.1 1.3.1 1.4c0 0-1.8 0-1.8 0c0-.1-.1-.4-.1-1.1c-.4.6-1.2 1.3-2.6 1.3c-1.7 0-2.8-1.2-2.8-2.5c0-1.5 1.1-2.3 2.5-2.5zm2.8 1.3c-.03.02 0-.4 0-.4c0 0-2.19.37-2.2.4c-.6.1-1.1.4-1.1 1.1c0 .6.4 1.1 1.2 1.1c1.1 0 2.1-.6 2.1-2.2zm8.4 3.5l-1.9 0l-3.4-8.3l2.2 0l2.2 5.9l2.1-5.9l2.1 0l-3.3 8.3zm10.4-4.2c0-1.7-1.1-2.6-2.3-2.6c-1.2 0-2.3.9-2.3 2.6c0 1.7 1.1 2.6 2.3 2.6c1.2 0 2.3-.9 2.3-2.6zm2 0c0 2.6-1.8 4.4-4.3 4.4c-2.5 0-4.3-1.8-4.3-4.4c0-2.5 1.8-4.4 4.3-4.4c2.5 0 4.3 1.9 4.3 4.4zm3.9 4.2l-2 0l0-8.3l1.9 0c0 0 .04 1.08 0 1.1c.6-1 1.6-1.4 2.5-1.4c2 0 3 1.5 3 3.3c-.02.02 0 5.3 0 5.3l-2 0c0 0 0-4.94 0-4.9c0-1.1-.5-1.9-1.7-1.9c-1.1 0-1.7.9-1.7 2c-.01-.02 0 4.8 0 4.8zm8.8-2.8c0 .8.6 1.4 1.6 1.4c.9 0 1.3-.4 1.3-.9c0-.5-.3-.8-1-.9c0 0-1.2-.3-1.2-.3c-1.5-.3-2.2-1.3-2.2-2.4c0-1.5 1.3-2.7 3-2.7c2.3 0 3.1 1.5 3.2 2.3c0 0-1.7.5-1.7.5c0-.5-.4-1.2-1.5-1.2c-.7 0-1.2.4-1.2.9c0 .5.3.8.8.9c0 0 1.3.2 1.3.2c1.6.4 2.4 1.3 2.4 2.6c0 1.2-1 2.6-3.1 2.6c-2.4 0-3.4-1.6-3.5-2.5c0 0 1.8-.5 1.8-.5zm15.8-3.6c-.2 0-.4 0-.6 0c-1.6 0-2.3.9-2.3 2.4c.03.01 0 4 0 4l-1.9 0l0-8.3l1.9 0c0 0-.02 1.3 0 1.3c.4-.9 1.3-1.4 2.4-1.4c.2 0 .4 0 .5 0c0 0 0 2 0 2zm7 1.3c0-1-.7-1.8-2-1.8c-1.3 0-2 .9-2.1 1.8c0 0 4.1 0 4.1 0zm1.9 2.7c-.4 1.4-1.8 2.6-3.7 2.6c-2.3 0-4.3-1.6-4.3-4.4c0-2.6 2-4.4 4-4.4c2.6 0 4.1 1.7 4.1 4.3c0 .3 0 .6-.1.6c0 0-6 0-6 0c0 1.3 1 2.2 2.3 2.2c1.1 0 1.8-.6 2-1.4c0 0 1.7.5 1.7.5zm4 2.4l-2 0l0-8.3l1.9 0c0 0 0 1.08 0 1.1c.5-1 1.5-1.4 2.5-1.4c2 0 2.9 1.5 2.9 3.3c.04.02 0 5.3 0 5.3l-1.9 0c0 0-.03-4.94 0-4.9c0-1.1-.5-1.9-1.7-1.9c-1.2 0-1.7.9-1.7 2c-.05-.02 0 4.8 0 4.8zm13.7-4.2c0-1.7-1.1-2.6-2.3-2.6c-1.2 0-2.3.9-2.3 2.6c0 1.7 1.1 2.6 2.3 2.6c1.2 0 2.3-.9 2.3-2.6zm2 0c0 2.6-1.8 4.4-4.3 4.4c-2.5 0-4.3-1.8-4.3-4.4c0-2.5 1.8-4.4 4.3-4.4c2.5 0 4.3 1.9 4.3 4.4zm4.9 4.4c-2 0-3.2-1.5-3.2-3.3c.05-.01 0-5.2 0-5.2l2 0c0 0 .02 4.84 0 4.8c0 1.1.5 1.9 1.7 1.9c1.1 0 1.7-.7 1.7-1.8c.02-.03 0-4.9 0-4.9l2 0c0 0-.01 6.74 0 6.7c0 .7 0 1.2.1 1.6c0 0-1.9 0-1.9 0c0-.2-.1-.6-.1-1c-.4.8-1.4 1.2-2.3 1.2zm11-.2l-2 0l-3.4-8.3l2.2 0l2.2 5.9l2.1-5.9l2.1 0l-3.2 8.3zm9.9-5.1c-.1-1-.7-1.8-2.1-1.8c-1.2 0-1.9.9-2 1.8c0 0 4.1 0 4.1 0zm1.8 2.7c-.4 1.4-1.7 2.6-3.7 2.6c-2.2 0-4.2-1.6-4.2-4.4c0-2.6 1.9-4.4 4-4.4c2.5 0 4 1.7 4 4.3c0 .3 0 .6 0 .6c0 0-6.1 0-6.1 0c.1 1.3 1.1 2.2 2.3 2.2c1.2 0 1.8-.6 2.1-1.4c0 0 1.6.5 1.6.5zm2 2.4l0-12.4l2 0l0 12.4l-2 0zm8.7-9.4l-1.7 0l1.6-2.5l2.3 0l-2.2 2.5zm1.3 4.3c0-1-.7-1.8-2.1-1.8c-1.2 0-1.9.9-2 1.8c0 0 4.1 0 4.1 0zm1.9 2.7c-.5 1.4-1.8 2.6-3.8 2.6c-2.2 0-4.2-1.6-4.2-4.4c0-2.6 1.9-4.4 4-4.4c2.6 0 4.1 1.7 4.1 4.3c0 .3-.1.6-.1.6c0 0-6 0-6 0c0 1.3 1 2.2 2.2 2.2c1.2 0 1.8-.6 2.1-1.4c0 0 1.7.5 1.7.5zm6.2 2.4l0-12.4l2 0l0 12.4l-2 0zm9.9-5.1c0-1-.6-1.8-2-1.8c-1.2 0-2 .9-2 1.8c0 0 4 0 4 0zm1.9 2.7c-.4 1.4-1.7 2.6-3.7 2.6c-2.3 0-4.2-1.6-4.2-4.4c0-2.6 1.9-4.4 4-4.4c2.5 0 4 1.7 4 4.3c0 .3 0 .6 0 .6c0 0-6.1 0-6.1 0c.1 1.3 1.1 2.2 2.3 2.2c1.2 0 1.8-.6 2.1-1.4c0 0 1.6.5 1.6.5zm3-.4c.1.8.6 1.4 1.7 1.4c.8 0 1.2-.4 1.2-.9c0-.5-.3-.8-.9-.9c0 0-1.3-.3-1.3-.3c-1.4-.3-2.2-1.3-2.2-2.4c0-1.5 1.3-2.7 3.1-2.7c2.3 0 3 1.5 3.1 2.3c0 0-1.6.5-1.6.5c-.1-.5-.4-1.2-1.5-1.2c-.7 0-1.2.4-1.2.9c0 .5.3.8.8.9c0 0 1.3.2 1.3.2c1.5.4 2.3 1.3 2.3 2.6c0 1.2-1 2.6-3.1 2.6c-2.4 0-3.3-1.6-3.4-2.5c0 0 1.7-.5 1.7-.5zm11 2.8l0-8.3l1.9 0c0 0-.01 1.03 0 1c.5-.8 1.5-1.3 2.4-1.3c1.1 0 2.1.5 2.5 1.5c.7-1.1 1.6-1.5 2.7-1.5c1.5 0 2.9 1 2.9 3.2c.03-.02 0 5.4 0 5.4l-1.9 0c0 0 .02-5.1 0-5.1c0-1-.5-1.7-1.6-1.7c-1 0-1.7.8-1.7 1.8c.01.04 0 5 0 5l-1.9 0c0 0-.03-5.1 0-5.1c0-.9-.5-1.7-1.6-1.7c-1.1 0-1.7.8-1.7 1.8c-.04.04 0 5 0 5l-2 0zm20.3-5.1c-.1-1-.7-1.8-2.1-1.8c-1.2 0-1.9.9-2 1.8c0 0 4.1 0 4.1 0zm1.9 2.7c-.5 1.4-1.8 2.6-3.8 2.6c-2.2 0-4.2-1.6-4.2-4.4c0-2.6 1.9-4.4 4-4.4c2.6 0 4.1 1.7 4.1 4.3c0 .3-.1.6-.1.6c0 0-6 0-6 0c0 1.3 1 2.2 2.2 2.2c1.2 0 1.8-.6 2.1-1.4c0 0 1.7.5 1.7.5zm2 2.4l0-8.3l1.8 0c0 0 .05 1.03 0 1c.5-.8 1.6-1.3 2.5-1.3c1.1 0 2 .5 2.5 1.5c.6-1.1 1.6-1.5 2.7-1.5c1.5 0 2.9 1 2.9 3.2c-.01-.02 0 5.4 0 5.4l-1.9 0c0 0-.02-5.1 0-5.1c0-1-.5-1.7-1.6-1.7c-1.1 0-1.7.8-1.7 1.8c-.03.04 0 5 0 5l-2 0c0 0 .03-5.1 0-5.1c0-.9-.4-1.7-1.6-1.7c-1 0-1.7.8-1.7 1.8c.01.04 0 5 0 5l-1.9 0zm14.8 0l0-12.4l1.9 0c0 0 .04 5.09 0 5.1c.4-.7 1.4-1.2 2.6-1.2c2.5 0 3.9 1.8 3.9 4.3c0 2.5-1.5 4.4-3.9 4.4c-1.2 0-2.1-.6-2.6-1.4c.02.05 0 1.2 0 1.2l-1.9 0zm4.1-6.8c-1.2 0-2.2.9-2.2 2.6c0 1.6 1 2.6 2.2 2.6c1.3 0 2.3-1 2.3-2.6c0-1.7-.9-2.6-2.3-2.6zm11 .4c-.2 0-.4 0-.6 0c-1.6 0-2.3.9-2.3 2.4c.04.01 0 4 0 4l-1.9 0l0-8.3l1.9 0c0 0-.01 1.3 0 1.3c.4-.9 1.3-1.4 2.4-1.4c.2 0 .4 0 .5 0c0 0 0 2 0 2zm7 1.3c0-1-.7-1.8-2-1.8c-1.3 0-2 .9-2 1.8c0 0 4 0 4 0zm1.9 2.7c-.4 1.4-1.7 2.6-3.7 2.6c-2.3 0-4.3-1.6-4.3-4.4c0-2.6 2-4.4 4.1-4.4c2.5 0 4 1.7 4 4.3c0 .3 0 .6 0 .6c0 0-6.1 0-6.1 0c.1 1.3 1 2.2 2.3 2.2c1.2 0 1.8-.6 2-1.4c0 0 1.7.5 1.7.5zm3-.4c0 .8.6 1.4 1.7 1.4c.8 0 1.2-.4 1.2-.9c0-.5-.3-.8-1-.9c0 0-1.2-.3-1.2-.3c-1.5-.3-2.2-1.3-2.2-2.4c0-1.5 1.3-2.7 3-2.7c2.3 0 3.1 1.5 3.2 2.3c0 0-1.6.5-1.6.5c-.1-.5-.5-1.2-1.6-1.2c-.7 0-1.2.4-1.2.9c0 .5.4.8.9.9c0 0 1.2.2 1.2.2c1.6.4 2.4 1.3 2.4 2.6c0 1.2-1 2.6-3.1 2.6c-2.4 0-3.3-1.6-3.4-2.5c0 0 1.7-.5 1.7-.5zm16.4-2.3c0-1-.7-1.8-2-1.8c-1.3 0-2 .9-2 1.8c0 0 4 0 4 0zm1.9 2.7c-.4 1.4-1.7 2.6-3.7 2.6c-2.3 0-4.3-1.6-4.3-4.4c0-2.6 2-4.4 4.1-4.4c2.5 0 4 1.7 4 4.3c0 .3 0 .6 0 .6c0 0-6.1 0-6.1 0c.1 1.3 1 2.2 2.3 2.2c1.2 0 1.8-.6 2-1.4c0 0 1.7.5 1.7.5zm4.5-5.9l1.7 0l0 1.7l-1.7 0c0 0-.01 3.87 0 3.9c0 .7.3 1 1 1c.3 0 .6 0 .7-.1c0 0 0 1.7 0 1.7c-.1 0-.5.2-1.2.2c-1.5 0-2.5-1-2.5-2.5c.04-.01 0-4.2 0-4.2l-1.5 0l0-1.7c0 0 .43-.03.4 0c.9 0 1.3-.6 1.3-1.3c.01-.02 0-1.3 0-1.3l1.8 0l0 2.6z" stroke="none" fill="#144542"/></g></svg>