<?xml version="1.0" standalone="no"?><!DOCTYPE svg PUBLIC "-//W3C//DTD SVG 1.1//EN" "http://www.w3.org/Graphics/SVG/1.1/DTD/svg11.dtd"><svg xmlns="http://www.w3.org/2000/svg" version="1.1" width="145px" height="229.6px" viewBox="0 -3 145 229.6" style="top:-3px"><desc>Pour l’ tat et les collectivit s nous offrons un moyen simple, adapt et efficace pour accompagner des personnes tr s...</desc><defs/><g id="Polygon162528"><path d="m3.7 195.3c1.2 0 1.9-1 1.9-2.4c0-1.3-.7-2.2-1.8-2.2c-1.2 0-2 .9-2 2.2c0 1.4.7 2.4 1.9 2.4zm1.9-.1c-.3.6-1 1.2-2 1.2c-1.9 0-3.1-1.5-3.1-3.5c0-1.8 1.3-3.4 3.1-3.4c1.2 0 1.8.6 2 1.1c0 .03 0-4.2 0-4.2l1.3 0c0 0-.04 8.61 0 8.6c0 .6 0 1.1 0 1.2c0 0-1.2 0-1.2 0c0-.1-.1-.5-.1-.9c0 0 0-.1 0-.1zm7.8-2.9c0-.9-.6-1.7-1.8-1.7c-1.1 0-1.7.9-1.8 1.7c0 0 3.6 0 3.6 0zm1.3 2.1c-.4 1.1-1.4 2-2.9 2c-1.8 0-3.3-1.3-3.3-3.5c0-2 1.5-3.4 3.1-3.4c2 0 3.1 1.4 3.1 3.4c0 .2 0 .3 0 .4c0 0-4.9 0-4.9 0c0 1.2.9 2 2 2c1 0 1.5-.6 1.8-1.3c0 0 1.1.4 1.1.4zm5 4.4l0-9.1l1.2 0c0 0 .04 1.03 0 1c.4-.6 1.2-1.1 2.2-1.1c2 0 3 1.5 3 3.4c0 1.9-1.1 3.4-3 3.4c-1 0-1.8-.5-2.1-1.1c-.04.03 0 3.5 0 3.5l-1.3 0zm5.1-5.8c0-1.3-.7-2.3-1.9-2.3c-1.2 0-1.9 1-1.9 2.3c0 1.3.7 2.3 1.9 2.3c1.2 0 1.9-1 1.9-2.3c0 0 0 0 0 0zm2.9 3.2l0-9.8l1.3 0l0 9.8l-1.3 0zm7.8-3.9c0-.9-.6-1.7-1.8-1.7c-1 0-1.7.9-1.7 1.7c0 0 3.5 0 3.5 0zm1.3 2.1c-.4 1.1-1.4 2-2.9 2c-1.8 0-3.3-1.3-3.3-3.5c0-2 1.5-3.4 3.1-3.4c2 0 3.1 1.4 3.1 3.4c0 .2 0 .3 0 .4c0 0-4.9 0-4.9 0c.1 1.2.9 2 2 2c1 0 1.6-.6 1.8-1.3c0 0 1.1.4 1.1.4zm1.7 1.8l0-6.5l1.2 0l0 6.5l-1.2 0zm.6-9.9c.5 0 .9.4.9 1c0 .5-.4.9-.9.9c-.5 0-.9-.4-.9-.9c0-.6.4-1 .9-1zm4 9.9l-1.2 0l0-6.5l1.2 0c0 0 .02.95 0 .9c.5-.8 1.3-1.1 2-1.1c1.6 0 2.3 1.1 2.3 2.6c.04-.01 0 4.1 0 4.1l-1.2 0c0 0-.03-3.89 0-3.9c0-.9-.4-1.6-1.5-1.6c-1 0-1.6.8-1.6 1.8c.04-.05 0 3.7 0 3.7zm14.1-3.9c0-.9-.6-1.7-1.8-1.7c-1 0-1.7.9-1.7 1.7c0 0 3.5 0 3.5 0zm1.3 2.1c-.4 1.1-1.4 2-2.9 2c-1.8 0-3.3-1.3-3.3-3.5c0-2 1.5-3.4 3.1-3.4c2 0 3.1 1.4 3.1 3.4c0 .2 0 .3 0 .4c0 0-4.9 0-4.9 0c0 1.2.9 2 2 2c1 0 1.6-.6 1.8-1.3c0 0 1.1.4 1.1.4zm1.7 1.8l0-6.5l1.2 0c0 0-.03.88 0 .9c.4-.7 1.2-1.1 1.9-1.1c.9 0 1.6.4 2 1.3c.5-1 1.3-1.3 2.2-1.3c1.1 0 2.2.8 2.2 2.5c0 0 0 4.2 0 4.2l-1.3 0c0 0 .05-4.07 0-4.1c0-.8-.4-1.5-1.3-1.5c-.9 0-1.5.7-1.5 1.7c-.03-.02 0 3.9 0 3.9l-1.3 0c0 0 0-4.07 0-4.1c0-.8-.4-1.5-1.4-1.5c-.9 0-1.5.7-1.5 1.7c.01-.01 0 3.9 0 3.9l-1.2 0zm11.5 2.6l0-9.1l1.3 0c0 0-.05 1.03 0 1c.3-.6 1.1-1.1 2.1-1.1c2 0 3 1.5 3 3.4c0 1.9-1.1 3.4-3 3.4c-1 0-1.8-.5-2.1-1.1c-.02.03 0 3.5 0 3.5l-1.3 0zm5.1-5.8c0-1.3-.7-2.3-1.9-2.3c-1.2 0-1.9 1-1.9 2.3c0 1.3.7 2.3 1.9 2.3c1.2 0 1.9-1 1.9-2.3c0 0 0 0 0 0zm2.9 3.2l0-9.8l1.3 0l0 9.8l-1.3 0zm8.3-3.2c0-1.5-1-2.4-2.1-2.4c-1 0-2 .9-2 2.4c0 1.5 1 2.3 2 2.3c1.1 0 2.1-.8 2.1-2.3zm1.3 0c0 1.9-1.4 3.4-3.4 3.4c-1.9 0-3.3-1.5-3.3-3.4c0-2 1.4-3.5 3.3-3.5c2 0 3.4 1.5 3.4 3.5zm1.6 3.2l0-6.5l1.2 0l0 6.5l-1.2 0zm.6-9.9c.5 0 .9.4.9 1c0 .5-.4.9-.9.9c-.5 0-.9-.4-.9-.9c0-.6.4-1 .9-1zm3.6 8.1c.5 0 .9.4.9.9c0 .6-.4 1-.9 1c-.5 0-.9-.4-.9-1c0-.5.4-.9.9-.9z" stroke="none" fill="#144542"/></g><g id="Polygon162527"><path d="m1.8 176.8c0 1.4 1 2.2 2 2.2c1.2 0 1.7-.8 1.8-1.3c0 0 1.1.5 1.1.5c-.3.9-1.2 2-2.9 2c-1.9 0-3.3-1.5-3.3-3.4c0-2.1 1.5-3.5 3.3-3.5c1.7 0 2.6 1.1 2.9 2.1c0 0-1.2.5-1.2.5c-.1-.7-.6-1.4-1.7-1.4c-1 0-2 .7-2 2.3zm11.2 0c0-1.5-1-2.4-2.1-2.4c-1 0-2 .9-2 2.4c0 1.5 1 2.3 2 2.3c1.1 0 2.1-.8 2.1-2.3zm1.3 0c0 1.9-1.4 3.4-3.4 3.4c-1.9 0-3.3-1.5-3.3-3.4c0-2 1.4-3.5 3.3-3.5c2 0 3.4 1.5 3.4 3.5zm2.9 3.2l-1.3 0l0-6.5l1.2 0c0 0 .03.95 0 .9c.5-.8 1.3-1.1 2-1.1c1.6 0 2.4 1.1 2.4 2.6c-.05-.01 0 4.1 0 4.1l-1.3 0c0 0-.02-3.89 0-3.9c0-.9-.4-1.6-1.5-1.6c-1 0-1.5.8-1.5 1.8c-.04-.05 0 3.7 0 3.7zm8-6.5l1.4 0l0 1.2l-1.4 0c0 0-.02 3.34 0 3.3c0 .6.2.9.9.9c.1 0 .4 0 .5 0c0 0 0 1.1 0 1.1c-.1 0-.5.1-.9.1c-1.1 0-1.8-.7-1.8-1.9c.01.03 0-3.5 0-3.5l-1.2 0l0-1.2c0 0 .32.02.3 0c.7 0 1-.4 1-1c.02.02 0-1 0-1l1.2 0l0 2zm6.5 1.3c-.2 0-.3 0-.5 0c-1.1 0-1.8.5-1.8 2c0-.05 0 3.2 0 3.2l-1.3 0l0-6.5l1.3 0c0 0-.02 1.15 0 1.1c.4-.9 1.3-1.2 1.9-1.2c.2 0 .4 0 .4 0c0 0 0 1.4 0 1.4zm1.4 5.2l0-6.5l1.2 0l0 6.5l-1.2 0zm.6-9.9c.5 0 .9.4.9 1c0 .5-.4.9-.9.9c-.5 0-.9-.4-.9-.9c0-.6.4-1 .9-1zm2.8 9.9l0-9.8l1.3 0c0 0-.04 4.23 0 4.2c.3-.5 1-1.1 2.1-1.1c2 0 3 1.5 3 3.4c0 2-1.1 3.5-3 3.5c-1 0-1.7-.4-2.1-1.1c-.04-.04 0 .9 0 .9l-1.3 0zm3.2-5.6c-1.1 0-2 .9-2 2.3c0 1.4.9 2.4 2 2.4c1.1 0 1.9-1 1.9-2.4c0-1.4-.7-2.3-1.9-2.3zm9 4.8c-.3.7-1.1 1-1.9 1c-1.5 0-2.4-1.1-2.4-2.6c-.02.01 0-4.1 0-4.1l1.2 0c0 0 .04 3.92 0 3.9c0 .9.4 1.7 1.5 1.7c1 0 1.6-.7 1.6-1.7c-.05.03 0-3.9 0-3.9l1.2 0c0 0 .02 5.31 0 5.3c0 .5.1 1 .1 1.2c0 0-1.2 0-1.2 0c-.1-.1-.1-.5-.1-.8c0 0 0 0 0 0zm7.7-3.1c0-.9-.6-1.7-1.8-1.7c-1.1 0-1.7.9-1.8 1.7c0 0 3.6 0 3.6 0zm1.3 2.1c-.4 1.1-1.4 2-2.9 2c-1.8 0-3.3-1.3-3.3-3.5c0-2 1.5-3.4 3.1-3.4c2 0 3.1 1.4 3.1 3.4c0 .2 0 .3 0 .4c0 0-4.9 0-4.9 0c0 1.2.9 2 2 2c1 0 1.5-.6 1.8-1.3c0 0 1.1.4 1.1.4zm5.2-3.4c-.2 0-.3 0-.5 0c-1.1 0-1.8.5-1.8 2c0-.05 0 3.2 0 3.2l-1.3 0l0-6.5l1.3 0c0 0-.03 1.15 0 1.1c.4-.9 1.3-1.2 1.9-1.2c.2 0 .4 0 .4 0c0 0 0 1.4 0 1.4zm4.4 3.5c0-1.2.8-1.8 1.9-2c0 0 1.8-.3 1.8-.3c.4 0 .5-.2.5-.4c0-.7-.4-1.2-1.4-1.2c-.9 0-1.4.5-1.5 1.3c0 0-1.2-.3-1.2-.3c.1-1.2 1.2-2.1 2.7-2.1c1.9 0 2.7 1.1 2.7 2.4c0 0 0 3.3 0 3.3c0 .5 0 .9 0 1c0 0-1.2 0-1.2 0c0-.1-.1-.4-.1-.9c-.3.5-.9 1.1-2.1 1.1c-1.3 0-2.1-.9-2.1-1.9c0 0 0 0 0 0zm4.2-1.1c-.02.03 0-.3 0-.3c0 0-2 .33-2 .3c-.5.1-.9.4-.9 1c0 .5.4.9 1 .9c1 0 1.9-.5 1.9-1.9zm-3.4-6.5l1.5 0l1.2 2l-1 0l-1.7-2zm10 9.3l0-9.8l1.3 0l0 9.8l-1.3 0zm3.8-9.7c.5 0 1 .4 1 1.2c0 1.7-1 2.4-1.8 2.5c0 0 0-.7 0-.7c.6-.1 1-.7 1-1.4c0 .1-.1.1-.3.1c-.4 0-.8-.3-.8-.8c0-.5.4-.9.9-.9zm6.6 6.5c0-1.5-.9-2.4-2-2.4c-1.1 0-2 .9-2 2.4c0 1.5.9 2.3 2 2.3c1.1 0 2-.8 2-2.3zm1.3 0c0 1.9-1.3 3.4-3.3 3.4c-1.9 0-3.3-1.5-3.3-3.4c0-2 1.4-3.5 3.3-3.5c2 0 3.3 1.5 3.3 3.5zm1.7 3.2l0-9.8l1.2 0c0 0 .02 4.23 0 4.2c.3-.5 1.1-1.1 2.2-1.1c1.9 0 2.9 1.5 2.9 3.4c0 2-1 3.5-3 3.5c-.9 0-1.7-.4-2.1-1.1c.02-.04 0 .9 0 .9l-1.2 0zm3.1-5.6c-1.1 0-1.9.9-1.9 2.3c0 1.4.8 2.4 1.9 2.4c1.2 0 2-1 2-2.4c0-1.4-.8-2.3-2-2.3zm4.9-.9l1.2 0c0 0 .04 7.26 0 7.3c0 1.1-.6 2-1.8 2c-.4 0-.6-.1-.7-.1c0 0 0-1.1 0-1.1c.1 0 .2.1.4.1c.7 0 .9-.4.9-1c-.03.01 0-7.2 0-7.2zm.6-3.4c.5 0 .9.4.9.9c0 .5-.4.9-.9.9c-.5 0-.9-.4-.9-.9c0-.5.4-.9.9-.9zm7.2 6c-.1-.9-.7-1.7-1.8-1.7c-1.1 0-1.7.9-1.8 1.7c0 0 3.6 0 3.6 0zm1.3 2.1c-.4 1.1-1.5 2-3 2c-1.7 0-3.2-1.3-3.2-3.5c0-2 1.4-3.4 3.1-3.4c2 0 3.1 1.4 3.1 3.4c0 .2 0 .3 0 .4c0 0-4.9 0-4.9 0c0 1.2.8 2 1.9 2c1.1 0 1.6-.6 1.9-1.3c0 0 1.1.4 1.1.4zm2.4-1.4c0 1.4.9 2.2 2 2.2c1.2 0 1.6-.8 1.8-1.3c0 0 1.1.5 1.1.5c-.3.9-1.3 2-2.9 2c-1.9 0-3.3-1.5-3.3-3.4c0-2.1 1.4-3.5 3.2-3.5c1.8 0 2.7 1.1 2.9 2.1c0 0-1.1.5-1.1.5c-.2-.7-.7-1.4-1.8-1.4c-1 0-1.9.7-1.9 2.3zm8.1-3.3l1.4 0l0 1.2l-1.4 0c0 0-.03 3.34 0 3.3c0 .6.2.9.9.9c.1 0 .4 0 .5 0c0 0 0 1.1 0 1.1c-.1 0-.5.1-.9.1c-1.1 0-1.8-.7-1.8-1.9c0 .03 0-3.5 0-3.5l-1.2 0l0-1.2c0 0 .31.02.3 0c.7 0 1-.4 1-1c.01.02 0-1 0-1l1.2 0l0 2zm3.1 6.5l0-6.5l1.2 0l0 6.5l-1.2 0zm.6-9.9c.5 0 .9.4.9 1c0 .5-.4.9-.9.9c-.5 0-.9-.4-.9-.9c0-.6.4-1 .9-1zm4.5 4.6l0 5.3l-1.3 0l0-5.3l-1.2 0l0-1.2l1.2 0c0 0-.03-1.08 0-1.1c0-1.4.9-2.2 2.1-2.2c.4 0 .7.1.8.1c0 0 0 1.2 0 1.2c-.1-.1-.3-.1-.6-.1c-.4 0-1 .2-1 1.1c-.02-.01 0 1 0 1l1.5 0l0 1.2l-1.5 0z" stroke="none" fill="#144542"/></g><g id="Polygon162526"><path d="m3.7 162.9c1.2 0 1.9-1 1.9-2.4c0-1.3-.7-2.2-1.8-2.2c-1.2 0-2 .9-2 2.2c0 1.4.7 2.4 1.9 2.4zm1.9-.1c-.3.6-1 1.2-2 1.2c-1.9 0-3.1-1.5-3.1-3.5c0-1.8 1.3-3.4 3.1-3.4c1.2 0 1.8.6 2 1.1c0 .03 0-4.2 0-4.2l1.3 0c0 0-.04 8.61 0 8.6c0 .6 0 1.1 0 1.2c0 0-1.2 0-1.2 0c0-.1-.1-.5-.1-.9c0 0 0-.1 0-.1zm3.4 1l0-6.5l1.3 0l0 6.5l-1.3 0zm.6-9.9c.6 0 1 .4 1 1c0 .5-.4.9-1 .9c-.5 0-.9-.4-.9-.9c0-.6.4-1 .9-1zm3.4 7.8c.1.7.6 1.2 1.5 1.2c.7 0 1.1-.4 1.1-.8c0-.4-.3-.7-.8-.9c0 0-1.2-.2-1.2-.2c-1-.2-1.6-.9-1.6-1.8c0-1.1 1.1-2.1 2.3-2.1c1.8 0 2.4 1.2 2.5 1.8c0 0-1.1.4-1.1.4c-.1-.4-.3-1.1-1.4-1.1c-.6 0-1 .4-1 .9c0 .3.2.6.7.7c0 0 1.1.3 1.1.3c1.1.2 1.7.9 1.7 1.9c0 .9-.7 2-2.3 2c-1.8 0-2.6-1.1-2.7-1.9c0 0 1.2-.4 1.2-.4zm5.5 4.7l0-9.1l1.3 0c0 0-.04 1.03 0 1c.3-.6 1.1-1.1 2.1-1.1c2 0 3 1.5 3 3.4c0 1.9-1.1 3.4-3 3.4c-1 0-1.8-.5-2.1-1.1c-.01.03 0 3.5 0 3.5l-1.3 0zm5.1-5.8c0-1.3-.7-2.3-1.9-2.3c-1.2 0-1.9 1-1.9 2.3c0 1.3.7 2.3 1.9 2.3c1.2 0 1.9-1 1.9-2.3c0 0 0 0 0 0zm7.7 0c0-1.5-.9-2.4-2-2.4c-1.1 0-2 .9-2 2.4c0 1.5.9 2.3 2 2.3c1.1 0 2-.8 2-2.3zm1.3 0c0 1.9-1.3 3.4-3.3 3.4c-1.9 0-3.3-1.5-3.3-3.4c0-2 1.4-3.5 3.3-3.5c2 0 3.3 1.5 3.3 3.5zm2.2 1.1c.1.7.6 1.2 1.5 1.2c.7 0 1.1-.4 1.1-.8c0-.4-.3-.7-.8-.9c0 0-1.1-.2-1.1-.2c-1-.2-1.6-.9-1.6-1.8c0-1.1 1-2.1 2.3-2.1c1.7 0 2.3 1.2 2.4 1.8c0 0-1.1.4-1.1.4c0-.4-.3-1.1-1.3-1.1c-.7 0-1.1.4-1.1.9c0 .3.2.6.7.7c0 0 1.1.3 1.1.3c1.2.2 1.8.9 1.8 1.9c0 .9-.8 2-2.4 2c-1.8 0-2.5-1.1-2.6-1.9c0 0 1.1-.4 1.1-.4zm5.6 2.1l0-6.5l1.2 0l0 6.5l-1.2 0zm.6-9.9c.5 0 .9.4.9 1c0 .5-.4.9-.9.9c-.5 0-.9-.4-.9-.9c0-.6.4-1 .9-1zm4.5 3.4l1.4 0l0 1.2l-1.4 0c0 0-.02 3.34 0 3.3c0 .6.2.9.9.9c.1 0 .4 0 .5 0c0 0 0 1.1 0 1.1c-.1 0-.4.1-.9.1c-1.1 0-1.8-.7-1.8-1.9c.01.03 0-3.5 0-3.5l-1.2 0l0-1.2c0 0 .32.02.3 0c.7 0 1-.4 1-1c.02.02 0-1 0-1l1.2 0l0 2zm3.1 6.5l0-6.5l1.2 0l0 6.5l-1.2 0zm.6-9.9c.5 0 .9.4.9 1c0 .5-.4.9-.9.9c-.5 0-.9-.4-.9-.9c0-.6.4-1 .9-1zm4.5 4.6l0 5.3l-1.3 0l0-5.3l-1.2 0l0-1.2l1.2 0c0 0-.02-1.08 0-1.1c0-1.4.9-2.2 2.1-2.2c.4 0 .7.1.8.1c0 0 0 1.2 0 1.2c-.1-.1-.3-.1-.6-.1c-.4 0-1 .2-1 1.1c-.01-.01 0 1 0 1l1.6 0l0 1.2l-1.6 0zm3.5 3.2c0 .7.6 1.2 1.5 1.2c.7 0 1.1-.4 1.1-.8c0-.4-.3-.7-.9-.9c0 0-1.1-.2-1.1-.2c-1-.2-1.6-.9-1.6-1.8c0-1.1 1.1-2.1 2.3-2.1c1.8 0 2.4 1.2 2.5 1.8c0 0-1.1.4-1.1.4c-.1-.4-.4-1.1-1.4-1.1c-.6 0-1.1.4-1.1.9c0 .3.3.6.8.7c0 0 1 .3 1 .3c1.2.2 1.8.9 1.8 1.9c0 .9-.7 2-2.3 2c-1.8 0-2.6-1.1-2.7-1.9c0 0 1.2-.4 1.2-.4zm13.3-1.8c-.1-.9-.7-1.7-1.8-1.7c-1.1 0-1.7.9-1.8 1.7c0 0 3.6 0 3.6 0zm1.3 2.1c-.4 1.1-1.5 2-3 2c-1.7 0-3.2-1.3-3.2-3.5c0-2 1.4-3.4 3.1-3.4c2 0 3.1 1.4 3.1 3.4c0 .2 0 .3 0 .4c0 0-4.9 0-4.9 0c0 1.2.8 2 1.9 2c1.1 0 1.6-.6 1.9-1.3c0 0 1.1.4 1.1.4zm3-1.5l-2.3-3.2l1.5 0l1.6 2.3l1.6-2.3l1.5 0c0 0-2.33 3.2-2.3 3.2c.4.5 2 2.8 2.4 3.3c-.04.01-1.6 0-1.6 0l-1.6-2.4l-1.7 2.4l-1.5 0l2.4-3.3zm5.2 3.3l0-6.5l1.2 0l0 6.5l-1.2 0zm.6-9.9c.5 0 .9.4.9 1c0 .5-.4.9-.9.9c-.5 0-.9-.4-.9-.9c0-.6.4-1 .9-1zm3.3 7.8c.1.7.6 1.2 1.5 1.2c.8 0 1.1-.4 1.1-.8c0-.4-.2-.7-.8-.9c0 0-1.1-.2-1.1-.2c-1-.2-1.6-.9-1.6-1.8c0-1.1 1-2.1 2.3-2.1c1.8 0 2.3 1.2 2.5 1.8c0 0-1.2.4-1.2.4c0-.4-.3-1.1-1.3-1.1c-.7 0-1.1.4-1.1.9c0 .3.3.6.8.7c0 0 1 .3 1 .3c1.2.2 1.8.9 1.8 1.9c0 .9-.8 2-2.4 2c-1.8 0-2.5-1.1-2.6-1.9c0 0 1.1-.4 1.1-.4zm7.3-4.4l1.4 0l0 1.2l-1.4 0c0 0-.01 3.34 0 3.3c0 .6.2.9.9.9c.2 0 .4 0 .5 0c0 0 0 1.1 0 1.1c-.1 0-.4.1-.9.1c-1.1 0-1.8-.7-1.8-1.9c.02.03 0-3.5 0-3.5l-1.2 0l0-1.2c0 0 .33.02.3 0c.7 0 1-.4 1-1c.03.02 0-1 0-1l1.2 0l0 2zm2.7 4.8c0-1.2.8-1.8 1.9-2c0 0 1.8-.3 1.8-.3c.4 0 .5-.2.5-.4c0-.7-.4-1.2-1.4-1.2c-.9 0-1.4.5-1.5 1.3c0 0-1.2-.3-1.2-.3c.1-1.2 1.3-2.1 2.7-2.1c1.9 0 2.7 1.1 2.7 2.4c0 0 0 3.3 0 3.3c0 .5 0 .9.1 1c0 0-1.3 0-1.3 0c0-.1-.1-.4-.1-.9c-.2.5-.9 1.1-2 1.1c-1.4 0-2.2-.9-2.2-1.9c0 0 0 0 0 0zm4.2-1.1c0 .03 0-.3 0-.3c0 0-1.98.33-2 .3c-.5.1-.9.4-.9 1c0 .5.4.9 1 .9c1.1 0 1.9-.5 1.9-1.9zm4.5 2.8l-1.3 0l0-6.5l1.3 0c0 0-.02.95 0 .9c.5-.8 1.2-1.1 2-1.1c1.5 0 2.3 1.1 2.3 2.6c0-.01 0 4.1 0 4.1l-1.3 0c0 0 .04-3.89 0-3.9c0-.9-.3-1.6-1.5-1.6c-1 0-1.5.8-1.5 1.8c.01-.05 0 3.7 0 3.7zm8-6.5l1.4 0l0 1.2l-1.4 0c0 0 .03 3.34 0 3.3c0 .6.3.9.9.9c.2 0 .4 0 .5 0c0 0 0 1.1 0 1.1c-.1 0-.4.1-.8.1c-1.1 0-1.8-.7-1.8-1.9c-.04.03 0-3.5 0-3.5l-1.3 0l0-1.2c0 0 .37.02.4 0c.7 0 1-.4 1-1c-.03.02 0-1 0-1l1.1 0l0 2zm3.7 4.4c.1.7.6 1.2 1.5 1.2c.8 0 1.1-.4 1.1-.8c0-.4-.2-.7-.8-.9c0 0-1.1-.2-1.1-.2c-1-.2-1.6-.9-1.6-1.8c0-1.1 1-2.1 2.3-2.1c1.8 0 2.3 1.2 2.5 1.8c0 0-1.2.4-1.2.4c0-.4-.3-1.1-1.3-1.1c-.7 0-1.1.4-1.1.9c0 .3.3.6.8.7c0 0 1 .3 1 .3c1.2.2 1.8.9 1.8 1.9c0 .9-.8 2-2.4 2c-1.8 0-2.5-1.1-2.6-1.9c0 0 1.1-.4 1.1-.4zm5.3 4.3c0 0-.8-.7-.8-.7c1.4-1.5 2.3-3.4 2.3-5.8c0-2.3-.9-4.2-2.3-5.7c0 0 .8-.7.8-.7c1.4 1.5 2.5 3.5 2.5 6.4c0 3-1.1 5-2.5 6.5zm12.1-6.1c0-.9-.6-1.7-1.8-1.7c-1 0-1.7.9-1.7 1.7c0 0 3.5 0 3.5 0zm1.3 2.1c-.4 1.1-1.4 2-2.9 2c-1.8 0-3.3-1.3-3.3-3.5c0-2 1.5-3.4 3.1-3.4c2 0 3.1 1.4 3.1 3.4c0 .2 0 .3 0 .4c0 0-4.9 0-4.9 0c.1 1.2.9 2 2 2c1 0 1.6-.6 1.8-1.3c0 0 1.1.4 1.1.4zm3.4-4.7l1.4 0l0 1.2l-1.4 0c0 0-.04 3.34 0 3.3c0 .6.2.9.9.9c.1 0 .4 0 .5 0c0 0 0 1.1 0 1.1c-.1 0-.5.1-.9.1c-1.1 0-1.8-.7-1.8-1.9c-.01.03 0-3.5 0-3.5l-1.2 0l0-1.2c0 0 .3.02.3 0c.7 0 1-.4 1-1c0 .02 0-1 0-1l1.2 0l0 2z" stroke="none" fill="#144542"/></g><g id="Polygon162525"><path d="m3.3 136.9c0 0 .8.7.8.7c-1.4 1.5-2.3 3.4-2.3 5.7c0 2.4.9 4.3 2.3 5.8c0 0-.8.7-.8.7c-1.4-1.5-2.6-3.5-2.6-6.5c0-2.9 1.2-4.9 2.6-6.4zm2.4 8.6c.1.7.6 1.2 1.5 1.2c.7 0 1.1-.4 1.1-.8c0-.4-.3-.7-.8-.9c0 0-1.1-.2-1.1-.2c-1-.2-1.6-.9-1.6-1.8c0-1.1 1-2.1 2.3-2.1c1.7 0 2.3 1.2 2.4 1.8c0 0-1.1.4-1.1.4c0-.4-.3-1.1-1.3-1.1c-.7 0-1.1.4-1.1.9c0 .3.2.6.7.7c0 0 1.1.3 1.1.3c1.2.2 1.8.9 1.8 1.9c0 .9-.8 2-2.4 2c-1.8 0-2.5-1.1-2.6-1.9c0 0 1.1-.4 1.1-.4zm10.3-1.1c0-1.5-.9-2.4-2-2.4c-1.1 0-2.1.9-2.1 2.4c0 1.5 1 2.3 2.1 2.3c1.1 0 2-.8 2-2.3zm1.3 0c0 1.9-1.4 3.4-3.3 3.4c-2 0-3.3-1.5-3.3-3.4c0-2 1.3-3.5 3.3-3.5c1.9 0 3.3 1.5 3.3 3.5zm5.8 2.4c-.3.7-1.1 1-1.9 1c-1.5 0-2.4-1.1-2.4-2.6c-.02.01 0-4.1 0-4.1l1.2 0c0 0 .05 3.92 0 3.9c0 .9.5 1.7 1.5 1.7c1 0 1.6-.7 1.6-1.7c-.04.03 0-3.9 0-3.9l1.2 0c0 0 .03 5.31 0 5.3c0 .5.1 1 .1 1.2c0 0-1.2 0-1.2 0c0-.1-.1-.5-.1-.8c0 0 0 0 0 0zm6.4.8l-1.3 0l-2.7-6.5l1.5 0l1.8 5l1.9-5l1.3 0l-2.5 6.5zm7.9-3.9c0-.9-.6-1.7-1.7-1.7c-1.1 0-1.8.9-1.8 1.7c0 0 3.5 0 3.5 0zm1.3 2.1c-.3 1.1-1.4 2-2.9 2c-1.7 0-3.3-1.3-3.3-3.5c0-2 1.5-3.4 3.1-3.4c2 0 3.2 1.4 3.2 3.4c0 .2-.1.3-.1.4c0 0-4.9 0-4.9 0c.1 1.2.9 2 2 2c1.1 0 1.6-.6 1.8-1.3c0 0 1.1.4 1.1.4zm2.9 1.8l-1.2 0l0-6.5l1.2 0c0 0 .02.95 0 .9c.5-.8 1.3-1.1 2-1.1c1.6 0 2.3 1.1 2.3 2.6c.04-.01 0 4.1 0 4.1l-1.2 0c0 0-.03-3.89 0-3.9c0-.9-.4-1.6-1.5-1.6c-1 0-1.6.8-1.6 1.8c.05-.05 0 3.7 0 3.7zm8.1-6.5l1.4 0l0 1.2l-1.4 0c0 0-.03 3.34 0 3.3c0 .6.2.9.9.9c.1 0 .4 0 .5 0c0 0 0 1.1 0 1.1c-.1 0-.5.1-.9.1c-1.1 0-1.8-.7-1.8-1.9c0 .03 0-3.5 0-3.5l-1.2 0l0-1.2c0 0 .31.02.3 0c.7 0 1-.4 1-1c.01.02 0-1 0-1l1.2 0l0 2zm10.8 2.6c0-.9-.6-1.7-1.8-1.7c-1 0-1.7.9-1.7 1.7c0 0 3.5 0 3.5 0zm1.3 2.1c-.4 1.1-1.4 2-2.9 2c-1.8 0-3.3-1.3-3.3-3.5c0-2 1.5-3.4 3.1-3.4c2 0 3.1 1.4 3.1 3.4c0 .2 0 .3 0 .4c0 0-4.9 0-4.9 0c0 1.2.9 2 2 2c1 0 1.6-.6 1.8-1.3c0 0 1.1.4 1.1.4zm3.1-1.5l-2.4-3.2l1.6 0l1.6 2.3l1.5-2.3l1.5 0c0 0-2.29 3.2-2.3 3.2c.4.5 2 2.8 2.4 3.3c0 .01-1.5 0-1.5 0l-1.7-2.4l-1.7 2.4l-1.5 0l2.5-3.3zm5.7.1c0 1.4 1 2.2 2 2.2c1.2 0 1.7-.8 1.8-1.3c0 0 1.1.5 1.1.5c-.3.9-1.2 2-2.9 2c-1.9 0-3.3-1.5-3.3-3.4c0-2.1 1.5-3.5 3.3-3.5c1.7 0 2.6 1.1 2.9 2.1c0 0-1.2.5-1.2.5c-.1-.7-.6-1.4-1.7-1.4c-1 0-2 .7-2 2.3zm6.4 3.2l0-9.8l1.3 0l0 9.8l-1.3 0zm7.7-.8c-.4.7-1.2 1-1.9 1c-1.6 0-2.5-1.1-2.5-2.6c.03.01 0-4.1 0-4.1l1.3 0c0 0-.01 3.92 0 3.9c0 .9.4 1.7 1.5 1.7c1 0 1.5-.7 1.5-1.7c.01.03 0-3.9 0-3.9l1.3 0c0 0-.03 5.31 0 5.3c0 .5 0 1 0 1.2c0 0-1.2 0-1.2 0c0-.1 0-.5 0-.8c0 0 0 0 0 0zm7.6-3.1c0-.9-.6-1.7-1.7-1.7c-1.1 0-1.8.9-1.8 1.7c0 0 3.5 0 3.5 0zm1.3 2.1c-.3 1.1-1.4 2-2.9 2c-1.7 0-3.3-1.3-3.3-3.5c0-2 1.5-3.4 3.1-3.4c2 0 3.2 1.4 3.2 3.4c0 .2-.1.3-.1.4c0 0-4.9 0-4.9 0c.1 1.2.9 2 2 2c1.1 0 1.6-.6 1.8-1.3c0 0 1.1.4 1.1.4zm2.2-.3c.1.7.6 1.2 1.5 1.2c.8 0 1.1-.4 1.1-.8c0-.4-.3-.7-.8-.9c0 0-1.1-.2-1.1-.2c-1-.2-1.6-.9-1.6-1.8c0-1.1 1-2.1 2.3-2.1c1.8 0 2.3 1.2 2.5 1.8c0 0-1.2.4-1.2.4c0-.4-.3-1.1-1.3-1.1c-.7 0-1.1.4-1.1.9c0 .3.2.6.7.7c0 0 1.1.3 1.1.3c1.2.2 1.8.9 1.8 1.9c0 .9-.8 2-2.4 2c-1.8 0-2.5-1.1-2.6-1.9c0 0 1.1-.4 1.1-.4zm11.6 1.2c1.2 0 1.9-1 1.9-2.4c0-1.3-.7-2.2-1.9-2.2c-1.1 0-1.9.9-1.9 2.2c0 1.4.7 2.4 1.9 2.4zm1.9-.1c-.3.6-1 1.2-2 1.2c-1.9 0-3.1-1.5-3.1-3.5c0-1.8 1.3-3.4 3.1-3.4c1.1 0 1.8.6 2 1.1c-.02.03 0-4.2 0-4.2l1.2 0c0 0 .04 8.61 0 8.6c0 .6.1 1.1.1 1.2c0 0-1.2 0-1.2 0c0-.1-.1-.5-.1-.9c0 0 0-.1 0-.1zm7.8-2.9c-.1-.9-.7-1.7-1.8-1.7c-1.1 0-1.7.9-1.8 1.7c0 0 3.6 0 3.6 0zm1.3 2.1c-.4 1.1-1.4 2-3 2c-1.7 0-3.2-1.3-3.2-3.5c0-2 1.4-3.4 3.1-3.4c2 0 3.1 1.4 3.1 3.4c0 .2 0 .3 0 .4c0 0-4.9 0-4.9 0c0 1.2.8 2 1.9 2c1.1 0 1.6-.6 1.9-1.3c0 0 1.1.4 1.1.4zm2.2-.3c0 .7.5 1.2 1.5 1.2c.7 0 1.1-.4 1.1-.8c0-.4-.3-.7-.9-.9c0 0-1.1-.2-1.1-.2c-1-.2-1.6-.9-1.6-1.8c0-1.1 1-2.1 2.3-2.1c1.8 0 2.4 1.2 2.5 1.8c0 0-1.1.4-1.1.4c-.1-.4-.4-1.1-1.4-1.1c-.6 0-1.1.4-1.1.9c0 .3.3.6.8.7c0 0 1 .3 1 .3c1.2.2 1.8.9 1.8 1.9c0 .9-.7 2-2.3 2c-1.8 0-2.6-1.1-2.7-1.9c0 0 1.2-.4 1.2-.4z" stroke="none" fill="#144542"/></g><g id="Polygon162524"><path d="m5.5 127.5c-.1-.9-.7-1.7-1.8-1.7c-1.1 0-1.7.9-1.8 1.7c0 0 3.6 0 3.6 0zm1.2 2.1c-.3 1.1-1.4 2-2.9 2c-1.7 0-3.2-1.3-3.2-3.5c0-2 1.4-3.4 3.1-3.4c2 0 3.1 1.4 3.1 3.4c0 .2 0 .3-.1.4c0 0-4.8 0-4.8 0c0 1.2.8 2 1.9 2c1.1 0 1.6-.6 1.8-1.3c0 0 1.1.4 1.1.4zm-2.5-5.5l-1.1 0l1.2-2l1.6 0l-1.7 2zm4.2 7.3l0-9.8l1.3 0l0 9.8l-1.3 0zm8.2-3.2c0-1.5-.9-2.4-2-2.4c-1.1 0-2 .9-2 2.4c0 1.5.9 2.3 2 2.3c1.1 0 2-.8 2-2.3zm1.3 0c0 1.9-1.3 3.4-3.3 3.4c-1.9 0-3.3-1.5-3.3-3.4c0-2 1.4-3.5 3.3-3.5c2 0 3.3 1.5 3.3 3.5zm1.6 3.2l0-6.5l1.3 0l0 6.5l-1.3 0zm.7-9.9c.5 0 .9.4.9 1c0 .5-.4.9-.9.9c-.5 0-.9-.4-.9-.9c0-.6.4-1 .9-1zm3.5 10c.1.9.8 1.6 1.8 1.6c1.4 0 2-.7 2-2.1c0 0 0-1 0-1c-.3.6-1 1.1-2 1.1c-1.7 0-3-1.3-3-3.1c0-1.8 1.2-3.2 3-3.2c1 0 1.7.4 2 1c-.01.02 0-.9 0-.9l1.2 0c0 0 .04 6.02 0 6c0 1.7-.8 3.3-3.2 3.3c-1.6 0-2.8-1-3-2.4c0 0 1.2-.3 1.2-.3zm3.8-3.5c0-1.3-.7-2.1-1.8-2.1c-1.1 0-1.9.8-1.9 2.1c0 1.2.7 2 1.9 2c1.1 0 1.8-.8 1.8-2zm4.5 3.4l-1.2 0l0-6.5l1.2 0c0 0 .01.95 0 .9c.5-.8 1.2-1.1 2-1.1c1.6 0 2.3 1.1 2.3 2.6c.03-.01 0 4.1 0 4.1l-1.2 0c0 0-.04-3.89 0-3.9c0-.9-.4-1.6-1.6-1.6c-1 0-1.5.8-1.5 1.8c.03-.05 0 3.7 0 3.7zm10.7-3.9c0-.9-.6-1.7-1.8-1.7c-1 0-1.7.9-1.7 1.7c0 0 3.5 0 3.5 0zm1.3 2.1c-.4 1.1-1.4 2-2.9 2c-1.7 0-3.3-1.3-3.3-3.5c0-2 1.5-3.4 3.1-3.4c2 0 3.1 1.4 3.1 3.4c0 .2 0 .3 0 .4c0 0-4.9 0-4.9 0c.1 1.2.9 2 2 2c1 0 1.6-.6 1.8-1.3c0 0 1.1.4 1.1.4zm-2.6-5.5l-1 0l1.2-2l1.5 0l-1.7 2zm8.6 3.4c0-.9-.6-1.7-1.7-1.7c-1.1 0-1.8.9-1.8 1.7c0 0 3.5 0 3.5 0zm1.3 2.1c-.3 1.1-1.4 2-2.9 2c-1.7 0-3.3-1.3-3.3-3.5c0-2 1.5-3.4 3.1-3.4c2 0 3.2 1.4 3.2 3.4c0 .2 0 .3-.1.4c0 0-4.8 0-4.8 0c0 1.2.8 2 1.9 2c1.1 0 1.6-.6 1.8-1.3c0 0 1.1.4 1.1.4zm2.2-.3c.1.7.6 1.2 1.5 1.2c.8 0 1.1-.4 1.1-.8c0-.4-.3-.7-.8-.9c0 0-1.1-.2-1.1-.2c-1-.2-1.6-.9-1.6-1.8c0-1.1 1-2.1 2.3-2.1c1.8 0 2.3 1.2 2.5 1.8c0 0-1.2.4-1.2.4c0-.4-.3-1.1-1.3-1.1c-.7 0-1.1.4-1.1.9c0 .3.3.6.8.7c0 0 1 .3 1 .3c1.2.2 1.8.9 1.8 1.9c0 .9-.8 2-2.4 2c-1.8 0-2.5-1.1-2.6-1.9c0 0 1.1-.4 1.1-.4zm11.6 1.2c1.2 0 1.9-1 1.9-2.4c0-1.3-.7-2.2-1.9-2.2c-1.1 0-1.9.9-1.9 2.2c0 1.4.7 2.4 1.9 2.4zm1.9-.1c-.3.6-1 1.2-2 1.2c-1.9 0-3.1-1.5-3.1-3.5c0-1.8 1.3-3.4 3.1-3.4c1.1 0 1.8.6 2 1.1c-.01.03 0-4.2 0-4.2l1.2 0c0 0 .04 8.61 0 8.6c0 .6.1 1.1.1 1.2c0 0-1.2 0-1.2 0c0-.1-.1-.5-.1-.9c0 0 0-.1 0-.1zm7.8-2.9c-.1-.9-.7-1.7-1.8-1.7c-1.1 0-1.7.9-1.8 1.7c0 0 3.6 0 3.6 0zm1.3 2.1c-.4 1.1-1.4 2-3 2c-1.7 0-3.2-1.3-3.2-3.5c0-2 1.4-3.4 3.1-3.4c2 0 3.1 1.4 3.1 3.4c0 .2 0 .3 0 .4c0 0-4.9 0-4.9 0c0 1.2.8 2 1.9 2c1.1 0 1.6-.6 1.9-1.3c0 0 1.1.4 1.1.4zm5 1.8l0-9.8l1.3 0l0 9.8l-1.3 0zm3.8-9.7c.5 0 1 .4 1 1.2c0 1.7-1.1 2.4-1.8 2.5c0 0 0-.7 0-.7c.6-.1 1-.7 1-1.4c0 .1-.1.1-.3.1c-.4 0-.8-.3-.8-.8c0-.5.4-.9.9-.9zm6.2 5.8c0-.9-.6-1.7-1.8-1.7c-1 0-1.7.9-1.7 1.7c0 0 3.5 0 3.5 0zm1.3 2.1c-.4 1.1-1.4 2-2.9 2c-1.8 0-3.3-1.3-3.3-3.5c0-2 1.5-3.4 3.1-3.4c2 0 3.1 1.4 3.1 3.4c0 .2 0 .3 0 .4c0 0-4.9 0-4.9 0c0 1.2.9 2 2 2c1 0 1.6-.6 1.8-1.3c0 0 1.1.4 1.1.4zm1.7 1.8l0-6.5l1.2 0c0 0-.03.88 0 .9c.4-.7 1.2-1.1 1.9-1.1c.9 0 1.6.4 2 1.3c.5-1 1.3-1.3 2.2-1.3c1.1 0 2.2.8 2.2 2.5c0 0 0 4.2 0 4.2l-1.3 0c0 0 .04-4.07 0-4.1c0-.8-.4-1.5-1.3-1.5c-.9 0-1.5.7-1.5 1.7c-.03-.02 0 3.9 0 3.9l-1.3 0c0 0 0-4.07 0-4.1c0-.8-.4-1.5-1.4-1.5c-.9 0-1.5.7-1.5 1.7c.01-.01 0 3.9 0 3.9l-1.2 0zm11.5 2.6l0-9.1l1.3 0c0 0-.05 1.03 0 1c.3-.6 1.1-1.1 2.1-1.1c2 0 3 1.5 3 3.4c0 1.9-1.1 3.4-3 3.4c-1 0-1.8-.5-2.1-1.1c-.02.03 0 3.5 0 3.5l-1.3 0zm5.1-5.8c0-1.3-.7-2.3-1.9-2.3c-1.2 0-1.9 1-1.9 2.3c0 1.3.7 2.3 1.9 2.3c1.2 0 1.9-1 1.9-2.3c0 0 0 0 0 0zm2.9 3.2l0-9.8l1.3 0l0 9.8l-1.3 0zm8.3-3.2c0-1.5-1-2.4-2.1-2.4c-1 0-2 .9-2 2.4c0 1.5 1 2.3 2 2.3c1.1 0 2.1-.8 2.1-2.3zm1.3 0c0 1.9-1.4 3.4-3.4 3.4c-1.9 0-3.3-1.5-3.3-3.4c0-2 1.4-3.5 3.3-3.5c2 0 3.4 1.5 3.4 3.5zm1.6 3.2l0-6.5l1.2 0l0 6.5l-1.2 0zm.6-9.9c.5 0 .9.4.9 1c0 .5-.4.9-.9.9c-.5 0-.9-.4-.9-.9c0-.6.4-1 .9-1z" stroke="none" fill="#144542"/></g><g id="Polygon162523"><path d="m3.7 114.3c1.2 0 1.9-1 1.9-2.4c0-1.3-.7-2.2-1.8-2.2c-1.2 0-2 .9-2 2.2c0 1.4.7 2.4 1.9 2.4zm1.9-.1c-.3.6-1 1.2-2 1.2c-1.9 0-3.1-1.5-3.1-3.5c0-1.8 1.3-3.4 3.1-3.4c1.2 0 1.8.6 2 1.1c0 .03 0-4.2 0-4.2l1.3 0c0 0-.04 8.61 0 8.6c0 .6 0 1.1 0 1.2c0 0-1.2 0-1.2 0c0-.1-.1-.5-.1-.9c0 0 0-.1 0-.1zm7.8-2.9c0-.9-.6-1.7-1.8-1.7c-1.1 0-1.7.9-1.8 1.7c0 0 3.6 0 3.6 0zm1.3 2.1c-.4 1.1-1.4 2-2.9 2c-1.8 0-3.3-1.3-3.3-3.5c0-2 1.5-3.4 3.1-3.4c2 0 3.1 1.4 3.1 3.4c0 .2 0 .3 0 .4c0 0-4.9 0-4.9 0c0 1.2.9 2 2 2c1 0 1.5-.6 1.8-1.3c0 0 1.1.4 1.1.4zm2.2-.3c.1.7.6 1.2 1.5 1.2c.7 0 1.1-.4 1.1-.8c0-.4-.3-.7-.8-.9c0 0-1.2-.2-1.2-.2c-1-.2-1.6-.9-1.6-1.8c0-1.1 1.1-2.1 2.3-2.1c1.8 0 2.4 1.2 2.5 1.8c0 0-1.1.4-1.1.4c-.1-.4-.3-1.1-1.4-1.1c-.6 0-1 .4-1 .9c0 .3.2.6.7.7c0 0 1.1.3 1.1.3c1.1.2 1.7.9 1.7 1.9c0 .9-.7 2-2.3 2c-1.8 0-2.6-1.1-2.7-1.9c0 0 1.2-.4 1.2-.4zm8.9 4.7l0-9.1l1.2 0c0 0 .04 1.03 0 1c.4-.6 1.2-1.1 2.2-1.1c2 0 3 1.5 3 3.4c0 1.9-1.1 3.4-3 3.4c-1 0-1.8-.5-2.1-1.1c-.03.03 0 3.5 0 3.5l-1.3 0zm5.1-5.8c0-1.3-.7-2.3-1.9-2.3c-1.2 0-1.9 1-1.9 2.3c0 1.3.7 2.3 1.9 2.3c1.2 0 1.9-1 1.9-2.3c0 0 0 0 0 0zm7.3-.7c0-.9-.6-1.7-1.8-1.7c-1.1 0-1.7.9-1.8 1.7c0 0 3.6 0 3.6 0zm1.3 2.1c-.4 1.1-1.4 2-2.9 2c-1.8 0-3.3-1.3-3.3-3.5c0-2 1.5-3.4 3.1-3.4c2 0 3.1 1.4 3.1 3.4c0 .2 0 .3 0 .4c0 0-4.9 0-4.9 0c0 1.2.9 2 2 2c1 0 1.5-.6 1.8-1.3c0 0 1.1.4 1.1.4zm5.2-3.4c-.2 0-.3 0-.5 0c-1.1 0-1.8.5-1.8 2c0-.05 0 3.2 0 3.2l-1.3 0l0-6.5l1.3 0c0 0-.02 1.15 0 1.1c.4-.9 1.3-1.2 1.9-1.2c.2 0 .4 0 .4 0c0 0 0 1.4 0 1.4zm1.9 3.1c.1.7.6 1.2 1.5 1.2c.8 0 1.1-.4 1.1-.8c0-.4-.2-.7-.8-.9c0 0-1.1-.2-1.1-.2c-1-.2-1.6-.9-1.6-1.8c0-1.1 1-2.1 2.3-2.1c1.8 0 2.3 1.2 2.5 1.8c0 0-1.2.4-1.2.4c0-.4-.3-1.1-1.3-1.1c-.7 0-1.1.4-1.1.9c0 .3.3.6.8.7c0 0 1 .3 1 .3c1.2.2 1.8.9 1.8 1.9c0 .9-.8 2-2.4 2c-1.8 0-2.5-1.1-2.6-1.9c0 0 1.1-.4 1.1-.4zm10.3-1.1c0-1.5-.9-2.4-2-2.4c-1.1 0-2 .9-2 2.4c0 1.5.9 2.3 2 2.3c1.1 0 2-.8 2-2.3zm1.3 0c0 1.9-1.4 3.4-3.3 3.4c-1.9 0-3.3-1.5-3.3-3.4c0-2 1.4-3.5 3.3-3.5c1.9 0 3.3 1.5 3.3 3.5zm2.9 3.2l-1.3 0l0-6.5l1.3 0c0 0-.01.95 0 .9c.5-.8 1.2-1.1 2-1.1c1.5 0 2.3 1.1 2.3 2.6c.01-.01 0 4.1 0 4.1l-1.3 0c0 0 .04-3.89 0-3.9c0-.9-.3-1.6-1.5-1.6c-1 0-1.5.8-1.5 1.8c.01-.05 0 3.7 0 3.7zm7.6 0l-1.3 0l0-6.5l1.3 0c0 0-.03.95 0 .9c.4-.8 1.2-1.1 2-1.1c1.5 0 2.3 1.1 2.3 2.6c-.01-.01 0 4.1 0 4.1l-1.3 0c0 0 .03-3.89 0-3.9c0-.9-.4-1.6-1.5-1.6c-1 0-1.5.8-1.5 1.8c0-.05 0 3.7 0 3.7zm10.7-3.9c0-.9-.6-1.7-1.8-1.7c-1.1 0-1.7.9-1.8 1.7c0 0 3.6 0 3.6 0zm1.3 2.1c-.4 1.1-1.4 2-2.9 2c-1.8 0-3.3-1.3-3.3-3.5c0-2 1.5-3.4 3.1-3.4c2 0 3.1 1.4 3.1 3.4c0 .2 0 .3 0 .4c0 0-4.9 0-4.9 0c0 1.2.9 2 2 2c1 0 1.5-.6 1.8-1.3c0 0 1.1.4 1.1.4zm2.2-.3c.1.7.6 1.2 1.5 1.2c.7 0 1.1-.4 1.1-.8c0-.4-.3-.7-.8-.9c0 0-1.1-.2-1.1-.2c-1.1-.2-1.7-.9-1.7-1.8c0-1.1 1.1-2.1 2.3-2.1c1.8 0 2.4 1.2 2.5 1.8c0 0-1.1.4-1.1.4c-.1-.4-.3-1.1-1.4-1.1c-.6 0-1 .4-1 .9c0 .3.2.6.7.7c0 0 1.1.3 1.1.3c1.1.2 1.7.9 1.7 1.9c0 .9-.7 2-2.3 2c-1.8 0-2.6-1.1-2.7-1.9c0 0 1.2-.4 1.2-.4zm10.6-4.4l1.4 0l0 1.2l-1.4 0c0 0 .01 3.34 0 3.3c0 .6.3.9.9.9c.2 0 .4 0 .5 0c0 0 0 1.1 0 1.1c-.1 0-.4.1-.8.1c-1.2 0-1.9-.7-1.9-1.9c.05.03 0-3.5 0-3.5l-1.2 0l0-1.2c0 0 .35.02.4 0c.7 0 1-.4 1-1c-.05.02 0-1 0-1l1.1 0l0 2zm6.6 1.3c-.2 0-.4 0-.6 0c-1 0-1.8.5-1.8 2c.04-.05 0 3.2 0 3.2l-1.2 0l0-6.5l1.2 0c0 0 .01 1.15 0 1.1c.5-.9 1.3-1.2 2-1.2c.1 0 .3 0 .4 0c0 0 0 1.4 0 1.4zm5.6 1.3c0-.9-.6-1.7-1.8-1.7c-1 0-1.7.9-1.7 1.7c0 0 3.5 0 3.5 0zm1.3 2.1c-.4 1.1-1.4 2-2.9 2c-1.7 0-3.3-1.3-3.3-3.5c0-2 1.5-3.4 3.1-3.4c2 0 3.2 1.4 3.2 3.4c0 .2-.1.3-.1.4c0 0-4.9 0-4.9 0c.1 1.2.9 2 2 2c1.1 0 1.6-.6 1.8-1.3c0 0 1.1.4 1.1.4zm-5-7.5l1.5 0l1.2 2l-1 0l-1.7-2zm7.2 7.2c.1.7.6 1.2 1.5 1.2c.7 0 1.1-.4 1.1-.8c0-.4-.3-.7-.8-.9c0 0-1.1-.2-1.1-.2c-1-.2-1.6-.9-1.6-1.8c0-1.1 1-2.1 2.3-2.1c1.8 0 2.3 1.2 2.4 1.8c0 0-1.1.4-1.1.4c0-.4-.3-1.1-1.3-1.1c-.7 0-1.1.4-1.1.9c0 .3.2.6.7.7c0 0 1.1.3 1.1.3c1.2.2 1.8.9 1.8 1.9c0 .9-.8 2-2.4 2c-1.8 0-2.5-1.1-2.6-1.9c0 0 1.1-.4 1.1-.4z" stroke="none" fill="#144542"/></g><g id="Polygon162522"><path d="m1.1 101.6l0-9.1l1.2 0c0 0 .01 1.03 0 1c.4-.6 1.1-1.1 2.2-1.1c1.9 0 3 1.5 3 3.4c0 1.9-1.2 3.4-3.1 3.4c-1 0-1.7-.5-2.1-1.1c.03.03 0 3.5 0 3.5l-1.2 0zm5.1-5.8c0-1.3-.8-2.3-1.9-2.3c-1.2 0-2 1-2 2.3c0 1.3.8 2.3 2 2.3c1.1 0 1.9-1 1.9-2.3c0 0 0 0 0 0zm7.7 0c0-1.5-1-2.4-2-2.4c-1.1 0-2.1.9-2.1 2.4c0 1.5 1 2.3 2.1 2.3c1 0 2-.8 2-2.3zm1.3 0c0 1.9-1.4 3.4-3.3 3.4c-2 0-3.4-1.5-3.4-3.4c0-2 1.4-3.5 3.4-3.5c1.9 0 3.3 1.5 3.3 3.5zm5.8 2.4c-.3.7-1.1 1-1.9 1c-1.5 0-2.4-1.1-2.4-2.6c-.03.01 0-4.1 0-4.1l1.2 0c0 0 .04 3.92 0 3.9c0 .9.4 1.7 1.5 1.7c1 0 1.6-.7 1.6-1.7c-.05.03 0-3.9 0-3.9l1.2 0c0 0 .02 5.31 0 5.3c0 .5.1 1 .1 1.2c0 0-1.2 0-1.2 0c-.1-.1-.1-.5-.1-.8c0 0 0 0 0 0zm7-4.4c-.2 0-.4 0-.6 0c-1 0-1.8.5-1.8 2c.05-.05 0 3.2 0 3.2l-1.2 0l0-6.5l1.2 0c0 0 .02 1.15 0 1.1c.5-.9 1.3-1.2 2-1.2c.1 0 .3 0 .4 0c0 0 0 1.4 0 1.4zm4.3 3.5c0-1.2.9-1.8 2-2c0 0 1.7-.3 1.7-.3c.4 0 .5-.2.5-.4c0-.7-.4-1.2-1.4-1.2c-.9 0-1.4.5-1.4 1.3c0 0-1.3-.3-1.3-.3c.2-1.2 1.3-2.1 2.7-2.1c1.9 0 2.7 1.1 2.7 2.4c0 0 0 3.3 0 3.3c0 .5.1.9.1 1c0 0-1.3 0-1.3 0c0-.1 0-.4 0-.9c-.3.5-1 1.1-2.1 1.1c-1.3 0-2.2-.9-2.2-1.9c0 0 0 0 0 0zm4.2-1.1c.03.03 0-.3 0-.3c0 0-1.95.33-2 .3c-.5.1-.9.4-.9 1c0 .5.4.9 1.1.9c1 0 1.8-.5 1.8-1.9zm4-.4c0 1.4 1 2.2 2 2.2c1.2 0 1.7-.8 1.8-1.3c0 0 1.1.5 1.1.5c-.3.9-1.2 2-2.9 2c-1.9 0-3.3-1.5-3.3-3.4c0-2.1 1.4-3.5 3.3-3.5c1.7 0 2.6 1.1 2.9 2.1c0 0-1.2.5-1.2.5c-.1-.7-.6-1.4-1.7-1.4c-1 0-2 .7-2 2.3zm7.1 0c0 1.4.9 2.2 2 2.2c1.2 0 1.7-.8 1.8-1.3c0 0 1.1.5 1.1.5c-.3.9-1.2 2-2.9 2c-1.9 0-3.3-1.5-3.3-3.4c0-2.1 1.4-3.5 3.3-3.5c1.7 0 2.6 1.1 2.9 2.1c0 0-1.2.5-1.2.5c-.1-.7-.6-1.4-1.7-1.4c-1 0-2 .7-2 2.3zm11.2 0c0-1.5-1-2.4-2.1-2.4c-1.1 0-2 .9-2 2.4c0 1.5.9 2.3 2 2.3c1.1 0 2.1-.8 2.1-2.3zm1.2 0c0 1.9-1.3 3.4-3.3 3.4c-1.9 0-3.3-1.5-3.3-3.4c0-2 1.4-3.5 3.3-3.5c2 0 3.3 1.5 3.3 3.5zm1.7 3.2l0-6.5l1.2 0c0 0-.02.88 0 .9c.4-.7 1.2-1.1 2-1.1c.8 0 1.5.4 1.9 1.3c.5-1 1.3-1.3 2.2-1.3c1.1 0 2.2.8 2.2 2.5c.01 0 0 4.2 0 4.2l-1.2 0c0 0-.04-4.07 0-4.1c0-.8-.5-1.5-1.4-1.5c-.9 0-1.5.7-1.5 1.7c-.02-.02 0 3.9 0 3.9l-1.3 0c0 0 .01-4.07 0-4.1c0-.8-.4-1.5-1.4-1.5c-.9 0-1.5.7-1.5 1.7c.02-.01 0 3.9 0 3.9l-1.2 0zm11.5 2.6l0-9.1l1.3 0c0 0-.04 1.03 0 1c.3-.6 1.1-1.1 2.1-1.1c2 0 3 1.5 3 3.4c0 1.9-1.1 3.4-3 3.4c-1 0-1.8-.5-2.1-1.1c-.01.03 0 3.5 0 3.5l-1.3 0zm5.1-5.8c0-1.3-.7-2.3-1.9-2.3c-1.2 0-1.9 1-1.9 2.3c0 1.3.7 2.3 1.9 2.3c1.2 0 1.9-1 1.9-2.3c0 0 0 0 0 0zm2.5 1.5c0-1.2.9-1.8 2-2c0 0 1.8-.3 1.8-.3c.4 0 .5-.2.5-.4c0-.7-.5-1.2-1.4-1.2c-.9 0-1.4.5-1.5 1.3c0 0-1.2-.3-1.2-.3c.1-1.2 1.2-2.1 2.6-2.1c2 0 2.7 1.1 2.7 2.4c0 0 0 3.3 0 3.3c0 .5.1.9.1 1c0 0-1.2 0-1.2 0c-.1-.1-.1-.4-.1-.9c-.3.5-.9 1.1-2.1 1.1c-1.3 0-2.2-.9-2.2-1.9c0 0 0 0 0 0zm4.3-1.1c-.04.03 0-.3 0-.3c0 0-2.02.33-2 .3c-.6.1-1 .4-1 1c0 .5.4.9 1.1.9c1 0 1.9-.5 1.9-1.9zm4 2.9c.1.9.7 1.6 1.7 1.6c1.4 0 2-.7 2-2.1c0 0 0-1 0-1c-.3.6-1 1.1-2 1.1c-1.7 0-3-1.3-3-3.1c0-1.8 1.2-3.2 3-3.2c1 0 1.7.4 2 1c.03.02 0-.9 0-.9l1.3 0c0 0-.02 6.02 0 6c0 1.7-.8 3.3-3.3 3.3c-1.6 0-2.8-1-3-2.4c0 0 1.3-.3 1.3-.3zm3.8-3.5c0-1.3-.8-2.1-1.9-2.1c-1.1 0-1.9.8-1.9 2.1c0 1.2.8 2 1.9 2c1.1 0 1.9-.8 1.9-2zm4.5 3.4l-1.3 0l0-6.5l1.2 0c0 0 .05.95 0 .9c.5-.8 1.3-1.1 2-1.1c1.6 0 2.4 1.1 2.4 2.6c-.03-.01 0 4.1 0 4.1l-1.3 0c0 0 0-3.89 0-3.9c0-.9-.4-1.6-1.5-1.6c-1 0-1.5.8-1.5 1.8c-.03-.05 0 3.7 0 3.7zm10.7-3.9c-.1-.9-.7-1.7-1.8-1.7c-1.1 0-1.7.9-1.8 1.7c0 0 3.6 0 3.6 0zm1.2 2.1c-.3 1.1-1.4 2-2.9 2c-1.7 0-3.2-1.3-3.2-3.5c0-2 1.4-3.4 3.1-3.4c2 0 3.1 1.4 3.1 3.4c0 .2 0 .3 0 .4c0 0-4.9 0-4.9 0c0 1.2.8 2 1.9 2c1.1 0 1.6-.6 1.9-1.3c0 0 1 .4 1 .4zm5.3-3.4c-.2 0-.4 0-.5 0c-1.1 0-1.8.5-1.8 2c-.02-.05 0 3.2 0 3.2l-1.3 0l0-6.5l1.3 0c0 0-.05 1.15 0 1.1c.4-.9 1.2-1.2 1.9-1.2c.2 0 .3 0 .4 0c0 0 0 1.4 0 1.4z" stroke="none" fill="#144542"/></g><g id="Polygon162521"><path d="m.7 81.1c0-1.2.8-1.8 1.9-2c0 0 1.8-.3 1.8-.3c.4 0 .5-.2.5-.4c0-.7-.4-1.2-1.4-1.2c-.9 0-1.4.5-1.5 1.3c0 0-1.2-.3-1.2-.3c.1-1.2 1.3-2.1 2.7-2.1c1.9 0 2.7 1.1 2.7 2.4c0 0 0 3.3 0 3.3c0 .5 0 .9 0 1c0 0-1.2 0-1.2 0c0-.1-.1-.4-.1-.9c-.2.5-.9 1.1-2.1 1.1c-1.3 0-2.1-.9-2.1-1.9c0 0 0 0 0 0zm4.2-1.1c0 .03 0-.3 0-.3c0 0-1.98.33-2 .3c-.5.1-.9.4-.9 1c0 .5.4.9 1 .9c1.1 0 1.9-.5 1.9-1.9zm5.9 1.9c1.2 0 1.9-1 1.9-2.4c0-1.3-.7-2.2-1.9-2.2c-1.1 0-1.9.9-1.9 2.2c0 1.4.7 2.4 1.9 2.4zm1.9-.1c-.3.6-1 1.2-2 1.2c-1.9 0-3.1-1.5-3.1-3.5c0-1.8 1.2-3.4 3.1-3.4c1.1 0 1.7.6 2 1.1c-.04.03 0-4.2 0-4.2l1.2 0c0 0 .02 8.61 0 8.6c0 .6.1 1.1.1 1.2c0 0-1.2 0-1.2 0c-.1-.1-.1-.5-.1-.9c0 0 0-.1 0-.1zm3-.7c0-1.2.8-1.8 1.9-2c0 0 1.8-.3 1.8-.3c.4 0 .5-.2.5-.4c0-.7-.4-1.2-1.4-1.2c-.9 0-1.4.5-1.5 1.3c0 0-1.2-.3-1.2-.3c.1-1.2 1.3-2.1 2.7-2.1c1.9 0 2.7 1.1 2.7 2.4c0 0 0 3.3 0 3.3c0 .5 0 .9 0 1c0 0-1.2 0-1.2 0c0-.1-.1-.4-.1-.9c-.2.5-.9 1.1-2.1 1.1c-1.3 0-2.1-.9-2.1-1.9c0 0 0 0 0 0zm4.2-1.1c0 .03 0-.3 0-.3c0 0-1.99.33-2 .3c-.5.1-.9.4-.9 1c0 .5.4.9 1 .9c1.1 0 1.9-.5 1.9-1.9zm3.2 5.4l0-9.1l1.3 0c0 0-.03 1.03 0 1c.3-.6 1.1-1.1 2.1-1.1c2 0 3 1.5 3 3.4c0 1.9-1.1 3.4-3 3.4c-1 0-1.8-.5-2.1-1.1c-.01.03 0 3.5 0 3.5l-1.3 0zm5.1-5.8c0-1.3-.7-2.3-1.9-2.3c-1.2 0-1.9 1-1.9 2.3c0 1.3.7 2.3 1.9 2.3c1.2 0 1.9-1 1.9-2.3c0 0 0 0 0 0zm4.6-3.3l1.4 0l0 1.2l-1.4 0c0 0-.02 3.34 0 3.3c0 .6.2.9.9.9c.1 0 .4 0 .5 0c0 0 0 1.1 0 1.1c-.1 0-.5.1-.9.1c-1.1 0-1.8-.7-1.8-1.9c.01.03 0-3.5 0-3.5l-1.2 0l0-1.2c0 0 .32.02.3 0c.7 0 1-.4 1-1c.02.02 0-1 0-1l1.2 0l0 2zm7.4 2.6c-.1-.9-.7-1.7-1.8-1.7c-1.1 0-1.7.9-1.8 1.7c0 0 3.6 0 3.6 0zm1.3 2.1c-.4 1.1-1.4 2-3 2c-1.7 0-3.2-1.3-3.2-3.5c0-2 1.4-3.4 3.1-3.4c2 0 3.1 1.4 3.1 3.4c0 .2 0 .3 0 .4c0 0-4.9 0-4.9 0c0 1.2.8 2 1.9 2c1.1 0 1.6-.6 1.9-1.3c0 0 1.1.4 1.1.4zm-2.6-5.5l-1.1 0l1.2-2l1.6 0l-1.7 2zm12 3.4c-.1-.9-.7-1.7-1.8-1.7c-1.1 0-1.7.9-1.8 1.7c0 0 3.6 0 3.6 0zm1.2 2.1c-.3 1.1-1.4 2-2.9 2c-1.7 0-3.2-1.3-3.2-3.5c0-2 1.4-3.4 3.1-3.4c2 0 3.1 1.4 3.1 3.4c0 .2 0 .3 0 .4c0 0-4.9 0-4.9 0c0 1.2.8 2 1.9 2c1.1 0 1.6-.6 1.9-1.3c0 0 1 .4 1 .4zm3.4-4.7l1.4 0l0 1.2l-1.4 0c0 0 .01 3.34 0 3.3c0 .6.3.9.9.9c.2 0 .4 0 .5 0c0 0 0 1.1 0 1.1c-.1 0-.4.1-.8.1c-1.2 0-1.9-.7-1.9-1.9c.04.03 0-3.5 0-3.5l-1.2 0l0-1.2c0 0 .35.02.4 0c.7 0 1-.4 1-1c-.05.02 0-1 0-1l1.1 0l0 2zm10.9 2.6c-.1-.9-.7-1.7-1.8-1.7c-1.1 0-1.7.9-1.8 1.7c0 0 3.6 0 3.6 0zm1.2 2.1c-.3 1.1-1.4 2-2.9 2c-1.7 0-3.2-1.3-3.2-3.5c0-2 1.4-3.4 3.1-3.4c2 0 3.1 1.4 3.1 3.4c0 .2 0 .3-.1.4c0 0-4.8 0-4.8 0c0 1.2.8 2 1.9 2c1.1 0 1.6-.6 1.8-1.3c0 0 1.1.4 1.1.4zm2.1-5.8c0-1.4.9-2.2 2.1-2.2c.5 0 .7.1.8.1c0 0 0 1.2 0 1.2c-.1-.1-.3-.1-.6-.1c-.4 0-1 .2-1 1.1c0-.01 0 1 0 1l3 0c0 0-.05-1.08 0-1.1c0-1.4.9-2.2 2.1-2.2c.4 0 .7.1.7.1c0 0 0 1.2 0 1.2c0-.1-.2-.1-.5-.1c-.5 0-1 .2-1 1.1c-.04-.01 0 1 0 1l4.3 0l0 6.5l-1.3 0l0-5.3l-3 0l0 5.3l-1.3 0l0-5.3l-3 0l0 5.3l-1.3 0l0-5.3l-1.2 0l0-1.2l1.2 0c0 0-.01-1.08 0-1.1zm8.3-1.4c0-.5.4-.9.9-.9c.5 0 .9.4.9.9c0 .5-.4.9-.9.9c-.5 0-.9-.4-.9-.9c0 0 0 0 0 0zm4.5 5.8c0 1.4.9 2.2 2 2.2c1.2 0 1.6-.8 1.8-1.3c0 0 1.1.5 1.1.5c-.3.9-1.3 2-2.9 2c-1.9 0-3.3-1.5-3.3-3.4c0-2.1 1.4-3.5 3.2-3.5c1.8 0 2.7 1.1 2.9 2.1c0 0-1.1.5-1.1.5c-.2-.7-.7-1.4-1.8-1.4c-1 0-1.9.7-1.9 2.3zm5.9 1.5c0-1.2.8-1.8 2-2c0 0 1.7-.3 1.7-.3c.4 0 .5-.2.5-.4c0-.7-.4-1.2-1.4-1.2c-.9 0-1.4.5-1.5 1.3c0 0-1.2-.3-1.2-.3c.2-1.2 1.3-2.1 2.7-2.1c1.9 0 2.7 1.1 2.7 2.4c0 0 0 3.3 0 3.3c0 .5 0 .9.1 1c0 0-1.3 0-1.3 0c0-.1 0-.4 0-.9c-.3.5-1 1.1-2.1 1.1c-1.4 0-2.2-.9-2.2-1.9c0 0 0 0 0 0zm4.2-1.1c.02.03 0-.3 0-.3c0 0-1.96.33-2 .3c-.5.1-.9.4-.9 1c0 .5.4.9 1 .9c1.1 0 1.9-.5 1.9-1.9zm4-.4c0 1.4.9 2.2 2 2.2c1.2 0 1.7-.8 1.8-1.3c0 0 1.1.5 1.1.5c-.3.9-1.2 2-2.9 2c-1.9 0-3.3-1.5-3.3-3.4c0-2.1 1.4-3.5 3.3-3.5c1.7 0 2.6 1.1 2.9 2.1c0 0-1.2.5-1.2.5c-.1-.7-.6-1.4-1.7-1.4c-1 0-2 .7-2 2.3zm10.7-.7c0-.9-.6-1.7-1.8-1.7c-1 0-1.7.9-1.7 1.7c0 0 3.5 0 3.5 0zm1.3 2.1c-.4 1.1-1.4 2-2.9 2c-1.8 0-3.3-1.3-3.3-3.5c0-2 1.5-3.4 3.1-3.4c2 0 3.1 1.4 3.1 3.4c0 .2 0 .3 0 .4c0 0-4.9 0-4.9 0c.1 1.2.9 2 2 2c1 0 1.6-.6 1.8-1.3c0 0 1.1.4 1.1.4z" stroke="none" fill="#144542"/></g><g id="Polygon162520"><path d="m1.1 66.6l0-6.5l1.2 0c0 0-.01.88 0 .9c.4-.7 1.2-1.1 2-1.1c.8 0 1.6.4 1.9 1.3c.5-1 1.4-1.3 2.2-1.3c1.1 0 2.2.8 2.2 2.5c.02 0 0 4.2 0 4.2l-1.2 0c0 0-.03-4.07 0-4.1c0-.8-.4-1.5-1.4-1.5c-.9 0-1.5.7-1.5 1.7c-.01-.02 0 3.9 0 3.9l-1.3 0c0 0 .03-4.07 0-4.1c0-.8-.4-1.5-1.4-1.5c-.9 0-1.5.7-1.5 1.7c.03-.01 0 3.9 0 3.9l-1.2 0zm16.4-3.2c0-1.5-1-2.4-2.1-2.4c-1.1 0-2 .9-2 2.4c0 1.5.9 2.3 2 2.3c1.1 0 2.1-.8 2.1-2.3zm1.3 0c0 1.9-1.4 3.4-3.4 3.4c-1.9 0-3.3-1.5-3.3-3.4c0-2 1.4-3.5 3.3-3.5c2 0 3.4 1.5 3.4 3.5zm1.5 5.9l1.7-3.4l-2.8-5.8l1.4 0l2 4.5l2-4.5l1.3 0l-4.2 9.2l-1.4 0zm11-6.6c-.1-.9-.7-1.7-1.8-1.7c-1.1 0-1.7.9-1.8 1.7c0 0 3.6 0 3.6 0zm1.2 2.1c-.3 1.1-1.4 2-2.9 2c-1.7 0-3.2-1.3-3.2-3.5c0-2 1.4-3.4 3.1-3.4c2 0 3.1 1.4 3.1 3.4c0 .2 0 .3 0 .4c0 0-4.9 0-4.9 0c0 1.2.8 2 1.9 2c1.1 0 1.6-.6 1.9-1.3c0 0 1 .4 1 .4zm3 1.8l-1.3 0l0-6.5l1.3 0c0 0-.05.95 0 .9c.4-.8 1.2-1.1 1.9-1.1c1.6 0 2.4 1.1 2.4 2.6c-.03-.01 0 4.1 0 4.1l-1.3 0c0 0 0-3.89 0-3.9c0-.9-.4-1.6-1.5-1.6c-1 0-1.5.8-1.5 1.8c-.02-.05 0 3.7 0 3.7zm10.2-2.1c.1.7.6 1.2 1.5 1.2c.7 0 1.1-.4 1.1-.8c0-.4-.3-.7-.8-.9c0 0-1.1-.2-1.1-.2c-1-.2-1.6-.9-1.6-1.8c0-1.1 1-2.1 2.3-2.1c1.8 0 2.3 1.2 2.4 1.8c0 0-1.1.4-1.1.4c0-.4-.3-1.1-1.3-1.1c-.7 0-1.1.4-1.1.9c0 .3.2.6.7.7c0 0 1.1.3 1.1.3c1.2.2 1.8.9 1.8 1.9c0 .9-.8 2-2.4 2c-1.8 0-2.5-1.1-2.6-1.9c0 0 1.1-.4 1.1-.4zm5.6 2.1l0-6.5l1.2 0l0 6.5l-1.2 0zm.6-9.9c.5 0 .9.4.9 1c0 .5-.4.9-.9.9c-.5 0-.9-.4-.9-.9c0-.6.4-1 .9-1zm2.8 9.9l0-6.5l1.2 0c0 0 0 .88 0 .9c.4-.7 1.2-1.1 2-1.1c.8 0 1.6.4 1.9 1.3c.5-1 1.4-1.3 2.2-1.3c1.1 0 2.2.8 2.2 2.5c.03 0 0 4.2 0 4.2l-1.2 0c0 0-.02-4.07 0-4.1c0-.8-.4-1.5-1.4-1.5c-.9 0-1.5.7-1.5 1.7c0-.02 0 3.9 0 3.9l-1.3 0c0 0 .03-4.07 0-4.1c0-.8-.4-1.5-1.3-1.5c-.9 0-1.6.7-1.6 1.7c.04-.01 0 3.9 0 3.9l-1.2 0zm11.6 2.6l0-9.1l1.2 0c0 0-.01 1.03 0 1c.3-.6 1.1-1.1 2.2-1.1c1.9 0 2.9 1.5 2.9 3.4c0 1.9-1.1 3.4-3 3.4c-1 0-1.7-.5-2.1-1.1c.01.03 0 3.5 0 3.5l-1.2 0zm5-5.8c0-1.3-.7-2.3-1.9-2.3c-1.1 0-1.9 1-1.9 2.3c0 1.3.8 2.3 1.9 2.3c1.2 0 1.9-1 1.9-2.3c0 0 0 0 0 0zm3 3.2l0-9.8l1.2 0l0 9.8l-1.2 0zm7.8-3.9c-.1-.9-.7-1.7-1.8-1.7c-1.1 0-1.7.9-1.8 1.7c0 0 3.6 0 3.6 0zm1.2 2.1c-.3 1.1-1.4 2-2.9 2c-1.7 0-3.2-1.3-3.2-3.5c0-2 1.4-3.4 3.1-3.4c2 0 3.1 1.4 3.1 3.4c0 .2 0 .3 0 .4c0 0-4.9 0-4.9 0c0 1.2.8 2 1.9 2c1.1 0 1.6-.6 1.9-1.3c0 0 1 .4 1 .4zm2.4 0c.5 0 1 .5 1 1.3c0 1.8-1.1 2.5-1.9 2.7c0 0 0-.7 0-.7c.6-.2 1.1-.9 1.1-1.5c-.1 0-.2.1-.3.1c-.5 0-.9-.4-.9-1c0-.4.4-.9 1-.9z" stroke="none" fill="#144542"/></g><g id="Polygon162519"><path d="m2.3 50.4l-1.2 0l0-6.5l1.2 0c0 0 .02.95 0 .9c.5-.8 1.3-1.1 2-1.1c1.6 0 2.3 1.1 2.3 2.6c.04-.01 0 4.1 0 4.1l-1.2 0c0 0-.03-3.89 0-3.9c0-.9-.4-1.6-1.5-1.6c-1 0-1.6.8-1.6 1.8c.05-.05 0 3.7 0 3.7zm11.2-3.2c0-1.5-1-2.4-2.1-2.4c-1 0-2 .9-2 2.4c0 1.5 1 2.3 2 2.3c1.1 0 2.1-.8 2.1-2.3zm1.3 0c0 1.9-1.4 3.4-3.4 3.4c-1.9 0-3.3-1.5-3.3-3.4c0-2 1.4-3.5 3.3-3.5c2 0 3.4 1.5 3.4 3.5zm5.8 2.4c-.3.7-1.2 1-1.9 1c-1.5 0-2.4-1.1-2.4-2.6c-.05.01 0-4.1 0-4.1l1.2 0c0 0 .02 3.92 0 3.9c0 .9.4 1.7 1.5 1.7c1 0 1.5-.7 1.5-1.7c.03.03 0-3.9 0-3.9l1.3 0c0 0 0 5.31 0 5.3c0 .5 0 1 .1 1.2c0 0-1.2 0-1.2 0c-.1-.1-.1-.5-.1-.8c0 0 0 0 0 0zm3.9-1.3c.1.7.6 1.2 1.5 1.2c.7 0 1.1-.4 1.1-.8c0-.4-.3-.7-.8-.9c0 0-1.1-.2-1.1-.2c-1-.2-1.6-.9-1.6-1.8c0-1.1 1-2.1 2.3-2.1c1.7 0 2.3 1.2 2.4 1.8c0 0-1.1.4-1.1.4c0-.4-.3-1.1-1.3-1.1c-.7 0-1.1.4-1.1.9c0 .3.2.6.7.7c0 0 1.1.3 1.1.3c1.2.2 1.8.9 1.8 1.9c0 .9-.8 2-2.4 2c-1.8 0-2.5-1.1-2.6-1.9c0 0 1.1-.4 1.1-.4zm13.7-1.1c0-1.5-.9-2.4-2-2.4c-1.1 0-2 .9-2 2.4c0 1.5.9 2.3 2 2.3c1.1 0 2-.8 2-2.3zm1.3 0c0 1.9-1.3 3.4-3.3 3.4c-1.9 0-3.3-1.5-3.3-3.4c0-2 1.4-3.5 3.3-3.5c2 0 3.3 1.5 3.3 3.5zm7.6-4.3c.03-.01 0 1 0 1l1.6 0l0 1.2l-1.6 0l0 5.3l-1.3 0l0-5.3l-2.9 0l0 5.3l-1.3 0l0-5.3l-1.2 0l0-1.2l1.2 0c0 0-.05-1.08 0-1.1c0-1.4.9-2.2 2.1-2.2c.4 0 .7.1.7.1c0 0 0 1.2 0 1.2c0-.1-.2-.1-.5-.1c-.5 0-1 .2-1 1.1c-.04-.01 0 1 0 1l2.9 0c0 0 .02-1.08 0-1.1c0-1.4 1-2.2 2.2-2.2c.4 0 .7.1.7.1c0 0 0 1.2 0 1.2c-.1-.1-.2-.1-.5-.1c-.5 0-1.1.2-1.1 1.1zm6.6 2.3c-.2 0-.4 0-.6 0c-1.1 0-1.8.5-1.8 2c.03-.05 0 3.2 0 3.2l-1.2 0l0-6.5l1.2 0c0 0 0 1.15 0 1.1c.5-.9 1.3-1.2 1.9-1.2c.2 0 .4 0 .5 0c0 0 0 1.4 0 1.4zm6.1 2c0-1.5-1-2.4-2.1-2.4c-1.1 0-2 .9-2 2.4c0 1.5.9 2.3 2 2.3c1.1 0 2.1-.8 2.1-2.3zm1.2 0c0 1.9-1.3 3.4-3.3 3.4c-1.9 0-3.3-1.5-3.3-3.4c0-2 1.4-3.5 3.3-3.5c2 0 3.3 1.5 3.3 3.5zm2.9 3.2l-1.2 0l0-6.5l1.2 0c0 0 .01.95 0 .9c.5-.8 1.3-1.1 2-1.1c1.6 0 2.3 1.1 2.3 2.6c.03-.01 0 4.1 0 4.1l-1.2 0c0 0-.04-3.89 0-3.9c0-.9-.4-1.6-1.6-1.6c-1 0-1.5.8-1.5 1.8c.03-.05 0 3.7 0 3.7zm6.9-2.1c.1.7.6 1.2 1.5 1.2c.7 0 1.1-.4 1.1-.8c0-.4-.3-.7-.8-.9c0 0-1.1-.2-1.1-.2c-1-.2-1.7-.9-1.7-1.8c0-1.1 1.1-2.1 2.4-2.1c1.7 0 2.3 1.2 2.4 1.8c0 0-1.1.4-1.1.4c0-.4-.3-1.1-1.3-1.1c-.7 0-1.1.4-1.1.9c0 .3.2.6.7.7c0 0 1.1.3 1.1.3c1.1.2 1.8.9 1.8 1.9c0 .9-.8 2-2.4 2c-1.8 0-2.5-1.1-2.7-1.9c0 0 1.2-.4 1.2-.4zm13.2 1.3c-.3.7-1.2 1-1.9 1c-1.5 0-2.4-1.1-2.4-2.6c-.04.01 0-4.1 0-4.1l1.2 0c0 0 .03 3.92 0 3.9c0 .9.4 1.7 1.5 1.7c1 0 1.5-.7 1.5-1.7c.04.03 0-3.9 0-3.9l1.3 0c0 0 .01 5.31 0 5.3c0 .5.1 1 .1 1.2c0 0-1.2 0-1.2 0c-.1-.1-.1-.5-.1-.8c0 0 0 0 0 0zm4.6.8l-1.2 0l0-6.5l1.2 0c0 0 .01.95 0 .9c.5-.8 1.3-1.1 2-1.1c1.6 0 2.3 1.1 2.3 2.6c.03-.01 0 4.1 0 4.1l-1.2 0c0 0-.03-3.89 0-3.9c0-.9-.4-1.6-1.5-1.6c-1 0-1.6.8-1.6 1.8c.04-.05 0 3.7 0 3.7z" stroke="none" fill="#144542"/></g><g id="Polygon162518"><path d="m2.1 23.8c0 1.4.8 2.1 1.8 2.1c1 0 1.5-.7 1.6-1.2c0 0 1.4.5 1.4.5c-.3 1-1.3 2.1-3 2.1c-1.9 0-3.4-1.5-3.4-3.5c0-2 1.5-3.5 3.4-3.5c1.7 0 2.7 1.2 3 2.2c0 0-1.4.5-1.4.5c-.2-.6-.6-1.2-1.6-1.2c-1 0-1.8.7-1.8 2zm10.9 0c0-1.3-.9-2-1.9-2c-.9 0-1.8.7-1.8 2c0 1.4.9 2.1 1.8 2.1c1 0 1.9-.7 1.9-2.1zm1.6 0c0 2.1-1.5 3.5-3.5 3.5c-1.9 0-3.4-1.4-3.4-3.5c0-2 1.5-3.5 3.4-3.5c2 0 3.5 1.5 3.5 3.5zm1.5 3.3l0-9.8l1.5 0l0 9.8l-1.5 0zm3.6 0l0-9.8l1.5 0l0 9.8l-1.5 0zm7.9-4c-.1-.8-.6-1.4-1.7-1.4c-.9 0-1.5.7-1.6 1.4c0 0 3.3 0 3.3 0zm1.5 2.1c-.4 1.2-1.4 2.1-3 2.1c-1.8 0-3.4-1.3-3.4-3.5c0-2.1 1.6-3.5 3.2-3.5c2.1 0 3.2 1.4 3.2 3.5c0 .2 0 .4 0 .5c0 0-4.8 0-4.8 0c0 1 .8 1.7 1.8 1.7c.9 0 1.4-.5 1.6-1.2c0 0 1.4.4 1.4.4zm2.6-1.4c0 1.4.8 2.1 1.8 2.1c1.1 0 1.5-.7 1.7-1.2c0 0 1.4.5 1.4.5c-.4 1-1.3 2.1-3.1 2.1c-1.9 0-3.4-1.5-3.4-3.5c0-2 1.5-3.5 3.4-3.5c1.8 0 2.7 1.2 3 2.2c0 0-1.4.5-1.4.5c-.1-.6-.6-1.2-1.6-1.2c-1 0-1.8.7-1.8 2zm8.2-3.3l1.4 0l0 1.4l-1.4 0c0 0 .03 3.09 0 3.1c0 .6.3.8.9.8c.2 0 .4 0 .5 0c0 0 0 1.3 0 1.3c-.1 0-.4.1-1 .1c-1.2 0-1.9-.7-1.9-2c-.02.05 0-3.3 0-3.3l-1.2 0l0-1.4c0 0 .3.05.3 0c.7 0 1-.4 1-1c.02.02 0-1 0-1l1.4 0l0 2zm3 6.6l0-6.6l1.6 0l0 6.6l-1.6 0zm.8-9.9c.5 0 1 .5 1 1c0 .6-.5 1.1-1 1.1c-.6 0-1-.5-1-1.1c0-.5.4-1 1-1zm6.1 9.9l-1.5 0l-2.7-6.6l1.7 0l1.8 4.7l1.7-4.7l1.6 0l-2.6 6.6zm3.8 0l0-6.6l1.5 0l0 6.6l-1.5 0zm.7-9.9c.6 0 1.1.5 1.1 1c0 .6-.5 1.1-1.1 1.1c-.5 0-1-.5-1-1.1c0-.5.5-1 1-1zm4.8 3.3l1.4 0l0 1.4l-1.4 0c0 0 .03 3.09 0 3.1c0 .6.3.8.9.8c.2 0 .4 0 .5 0c0 0 0 1.3 0 1.3c-.1 0-.4.1-1 .1c-1.2 0-1.9-.7-1.9-2c-.02.05 0-3.3 0-3.3l-1.2 0l0-1.4c0 0 .3.05.3 0c.7 0 1-.4 1-1c.01.02 0-1 0-1l1.4 0l0 2zm6.2-.8l-1.3 0l1.2-2l1.9 0l-1.8 2zm1.1 3.4c-.1-.8-.6-1.4-1.7-1.4c-1 0-1.5.7-1.6 1.4c0 0 3.3 0 3.3 0zm1.4 2.1c-.3 1.2-1.3 2.1-2.9 2.1c-1.8 0-3.4-1.3-3.4-3.5c0-2.1 1.6-3.5 3.2-3.5c2 0 3.2 1.4 3.2 3.5c0 .2 0 .4 0 .5c0 0-4.8 0-4.8 0c0 1 .8 1.7 1.8 1.7c.9 0 1.4-.5 1.6-1.2c0 0 1.3.4 1.3.4zm2.4-.2c.1.6.5 1.1 1.3 1.1c.7 0 1-.4 1-.8c0-.3-.2-.6-.7-.7c0 0-1-.2-1-.2c-1.2-.3-1.8-1-1.8-1.9c0-1.2 1.1-2.2 2.4-2.2c1.9 0 2.5 1.2 2.6 1.9c0 0-1.3.4-1.3.4c-.1-.4-.4-1-1.3-1c-.5 0-.9.3-.9.7c0 .4.3.6.7.7c0 0 1 .2 1 .2c1.2.3 1.8 1 1.8 2c0 1-.8 2.1-2.4 2.1c-1.9 0-2.7-1.2-2.8-2c0 0 1.4-.3 1.4-.3z" stroke="none" fill="#144542"/></g><g id="Polygon162517"><path d="m4.5 5.8c1 0 1.6-.6 1.6-1.5c0-.9-.6-1.5-1.6-1.5c-.04-.02-1.7 0-1.7 0l0 3c0 0 1.66-.05 1.7 0zm-1.7 1.4l0 3.7l-1.7 0l0-9.5c0 0 3.6-.05 3.6 0c1.8 0 3 1.2 3 2.9c0 1.7-1.2 2.9-3 2.9c0-.02-1.9 0-1.9 0zm10.6.4c0-1.3-.9-2-1.8-2c-1 0-1.9.7-1.9 2c0 1.4.9 2.1 1.9 2.1c.9 0 1.8-.7 1.8-2.1zm1.6 0c0 2.1-1.5 3.5-3.4 3.5c-2 0-3.4-1.4-3.4-3.5c0-2 1.4-3.5 3.4-3.5c1.9 0 3.4 1.5 3.4 3.5zm5.7 2.6c-.3.6-1.1.9-1.8.9c-1.6 0-2.5-1.2-2.5-2.6c-.02-.01 0-4.2 0-4.2l1.5 0c0 0 .04 3.91 0 3.9c0 .8.4 1.5 1.4 1.5c.9 0 1.3-.6 1.3-1.5c.04.04 0-3.9 0-3.9l1.6 0c0 0 .01 5.42 0 5.4c0 .6 0 1 .1 1.2c0 0-1.5 0-1.5 0c0-.1-.1-.4-.1-.7c0 0 0 0 0 0zm7.4-4.3c-.2 0-.4 0-.5 0c-1.2 0-1.8.7-1.8 1.9c0-.01 0 3.1 0 3.1l-1.6 0l0-6.6l1.6 0c0 0-.04 1.1 0 1.1c.3-.7 1-1.1 1.9-1.1c.1 0 .3 0 .4 0c0 0 0 1.6 0 1.6zm4.6 5l0-9.8l1.6 0l0 9.8l-1.6 0zm4.1-9.7c.6 0 1.1.6 1.1 1.3c0 1.8-1.2 2.4-2 2.5c0 0 0-.7 0-.7c.6-.1 1.1-.7 1.1-1.3c0 0-.2.1-.3.1c-.5 0-.9-.4-.9-.9c0-.5.4-1 1-1zm6.1-.5l-1.5 0l1.4-1.7l2 0l-1.9 1.7zm-3.4 10.2l0-9.5l6 0l0 1.5l-4.3 0l0 2.5l3.8 0l0 1.5l-3.8 0l0 2.5l4.3 0l0 1.5l-6 0zm9.7-6.6l1.4 0l0 1.4l-1.4 0c0 0 .05 3.09 0 3.1c0 .6.3.8.9.8c.2 0 .5 0 .5 0c0 0 0 1.3 0 1.3c-.1 0-.4.1-.9.1c-1.2 0-2-.7-2-2c0 .05 0-3.3 0-3.3l-1.2 0l0-1.4c0 0 .32.05.3 0c.7 0 1-.4 1-1c.03.02 0-1 0-1l1.4 0l0 2zm4.6 2.9c0 0 1.7-.3 1.7-.3c.4-.1.5-.2.5-.5c0-.5-.4-1-1.3-1c-.8 0-1.2.6-1.3 1.2c0 0-1.4-.3-1.4-.3c.1-1.1 1.1-2.2 2.7-2.2c2.1 0 2.8 1.2 2.8 2.5c0 0 0 3.3 0 3.3c0 .6.1 1 .1 1c0 0-1.5 0-1.5 0c0 0 0-.3 0-.8c-.3.5-1 1-2 1c-1.4 0-2.3-.9-2.3-2c0-1.1.9-1.8 2-1.9zm2.2 1c-.02-.01 0-.3 0-.3c0 0-1.73.25-1.7.3c-.5 0-.9.3-.9.8c0 .5.3.9.9.9c.9 0 1.7-.4 1.7-1.7zm5.4-3.9l1.3 0l0 1.4l-1.3 0c0 0-.03 3.09 0 3.1c0 .6.2.8.8.8c.2 0 .5 0 .5 0c0 0 0 1.3 0 1.3c0 0-.3.1-.9.1c-1.2 0-2-.7-2-2c.02.05 0-3.3 0-3.3l-1.2 0l0-1.4c0 0 .34.05.3 0c.7 0 1.1-.4 1.1-1c-.05.02 0-1 0-1l1.4 0l0 2zm10.6 2.6c0-.8-.6-1.4-1.6-1.4c-1 0-1.6.7-1.6 1.4c0 0 3.2 0 3.2 0zm1.5 2.1c-.4 1.2-1.4 2.1-3 2.1c-1.8 0-3.4-1.3-3.4-3.5c0-2.1 1.6-3.5 3.2-3.5c2.1 0 3.3 1.4 3.3 3.5c0 .2-.1.4-.1.5c0 0-4.8 0-4.8 0c.1 1 .8 1.7 1.8 1.7c1 0 1.4-.5 1.7-1.2c0 0 1.3.4 1.3.4zm3.5-4.7l1.4 0l0 1.4l-1.4 0c0 0 .04 3.09 0 3.1c0 .6.3.8.9.8c.2 0 .5 0 .5 0c0 0 0 1.3 0 1.3c-.1 0-.4.1-.9.1c-1.3 0-2-.7-2-2c-.01.05 0-3.3 0-3.3l-1.2 0l0-1.4c0 0 .31.05.3 0c.7 0 1-.4 1-1c.03.02 0-1 0-1l1.4 0l0 2zm6.3 6.6l0-9.8l1.6 0l0 9.8l-1.6 0zm7.9-4c0-.8-.5-1.4-1.6-1.4c-1 0-1.5.7-1.6 1.4c0 0 3.2 0 3.2 0zm1.5 2.1c-.3 1.2-1.3 2.1-2.9 2.1c-1.8 0-3.4-1.3-3.4-3.5c0-2.1 1.5-3.5 3.2-3.5c2 0 3.2 1.4 3.2 3.5c0 .2 0 .4 0 .5c0 0-4.8 0-4.8 0c0 1 .8 1.7 1.8 1.7c.9 0 1.4-.5 1.6-1.2c0 0 1.3.4 1.3.4zm2.4-.2c.1.6.5 1.1 1.3 1.1c.7 0 1-.4 1-.8c0-.3-.2-.6-.7-.7c0 0-1-.2-1-.2c-1.2-.3-1.8-1-1.8-1.9c0-1.2 1.1-2.2 2.4-2.2c1.9 0 2.5 1.2 2.6 1.9c0 0-1.4.4-1.4.4c0-.4-.3-1-1.2-1c-.5 0-.9.3-.9.7c0 .4.2.6.7.7c0 0 .9.2.9.2c1.3.3 1.9 1 1.9 2c0 1-.8 2.1-2.4 2.1c-1.9 0-2.7-1.2-2.8-2c0 0 1.4-.3 1.4-.3z" stroke="none" fill="#144542"/></g></svg>