<?xml version="1.0" standalone="no"?><!DOCTYPE svg PUBLIC "-//W3C//DTD SVG 1.1//EN" "http://www.w3.org/Graphics/SVG/1.1/DTD/svg11.dtd"><svg xmlns="http://www.w3.org/2000/svg" version="1.1" width="157.4px" height="164.6px" viewBox="0 -3 157.4 164.6" style="top:-3px"><desc>H tellerie &amp; Restauration Cuisiniers, Commis de cuisine, Employ s de restauration collective, r ceptionnistes, h tes ...</desc><defs/><g id="Polygon168475"><path d="m5.4 111c0-.9-.6-1.6-1.7-1.6c-1.1 0-1.7.8-1.8 1.6c0 0 3.5 0 3.5 0zm1.3 2.1c-.3 1.1-1.4 2-2.9 2c-1.7 0-3.2-1.2-3.2-3.4c0-2 1.4-3.4 3.1-3.4c1.9 0 3.1 1.3 3.1 3.4c0 .1-.1.3-.1.4c0 0-4.8 0-4.8 0c0 1.1.8 1.9 1.9 1.9c1.1 0 1.6-.5 1.8-1.3c0 0 1.1.4 1.1.4zm3.4-4.6l1.4 0l0 1.1l-1.4 0c0 0-.03 3.38 0 3.4c0 .6.2.9.9.9c.1 0 .4-.1.5-.1c0 0 0 1.1 0 1.1c-.1 0-.5.1-.9.1c-1.1 0-1.8-.7-1.8-1.8c.01-.03 0-3.6 0-3.6l-1.2 0l0-1.1c0 0 .32-.03.3 0c.7 0 1-.5 1-1c.02-.03 0-1.1 0-1.1l1.2 0l0 2.1zm7.7 6.4l-1.3 0l0-9.7l1.3 0c0 0-.01 4.02 0 4c.5-.7 1.2-.9 2-.9c1.5 0 2.3 1.1 2.3 2.5c-.03.04 0 4.1 0 4.1l-1.3 0c0 0 .01-3.85 0-3.8c0-1-.4-1.7-1.5-1.7c-1 0-1.5.8-1.5 1.7c-.01.03 0 3.8 0 3.8zm11.1-3.2c0-1.5-1-2.3-2-2.3c-1.1 0-2.1.8-2.1 2.3c0 1.5 1 2.3 2.1 2.3c1 0 2-.8 2-2.3zm1.3 0c0 2-1.4 3.4-3.3 3.4c-2 0-3.3-1.4-3.3-3.4c0-2 1.3-3.4 3.3-3.4c1.9 0 3.3 1.4 3.3 3.4zm-5.4-4.1l1.4-1.9l1.4 0l1.4 1.9l-1.2 0l-.9-1.1l-1 1.1l-1.1 0zm8.6.9l1.4 0l0 1.1l-1.4 0c0 0 .03 3.38 0 3.4c0 .6.3.9.9.9c.2 0 .4-.1.5-.1c0 0 0 1.1 0 1.1c-.1 0-.4.1-.8.1c-1.1 0-1.8-.7-1.8-1.8c-.03-.03 0-3.6 0-3.6l-1.3 0l0-1.1c0 0 .38-.03.4 0c.7 0 1-.5 1-1c-.03-.03 0-1.1 0-1.1l1.1 0l0 2.1zm7.4 2.5c0-.9-.6-1.6-1.8-1.6c-1 0-1.7.8-1.7 1.6c0 0 3.5 0 3.5 0zm1.3 2.1c-.4 1.1-1.4 2-2.9 2c-1.8 0-3.3-1.2-3.3-3.4c0-2 1.5-3.4 3.1-3.4c2 0 3.1 1.3 3.1 3.4c0 .1 0 .3 0 .4c0 0-4.9 0-4.9 0c.1 1.1.9 1.9 2 1.9c1 0 1.6-.5 1.8-1.3c0 0 1.1.4 1.1.4zm2.2-.2c.1.6.6 1.2 1.5 1.2c.7 0 1.1-.4 1.1-.9c0-.4-.3-.7-.8-.8c0 0-1.1-.3-1.1-.3c-1.1-.2-1.7-.9-1.7-1.8c0-1.1 1.1-2 2.3-2c1.8 0 2.4 1.1 2.5 1.7c0 0-1.1.4-1.1.4c-.1-.3-.3-1.1-1.4-1.1c-.6 0-1 .5-1 .9c0 .4.2.7.7.8c0 0 1.1.2 1.1.2c1.1.3 1.8 1 1.8 1.9c0 1-.8 2-2.4 2c-1.8 0-2.5-1.1-2.7-1.8c0 0 1.2-.4 1.2-.4zm6.1 0c.1.6.6 1.2 1.5 1.2c.7 0 1.1-.4 1.1-.9c0-.4-.3-.7-.8-.8c0 0-1.2-.3-1.2-.3c-1-.2-1.6-.9-1.6-1.8c0-1.1 1.1-2 2.3-2c1.8 0 2.4 1.1 2.5 1.7c0 0-1.1.4-1.1.4c-.1-.3-.3-1.1-1.4-1.1c-.6 0-1 .5-1 .9c0 .4.2.7.7.8c0 0 1 .2 1 .2c1.2.3 1.8 1 1.8 1.9c0 1-.7 2-2.3 2c-1.8 0-2.6-1.1-2.7-1.8c0 0 1.2-.4 1.2-.4zm9.8-1.9c0-.9-.6-1.6-1.8-1.6c-1 0-1.7.8-1.7 1.6c0 0 3.5 0 3.5 0zm1.3 2.1c-.4 1.1-1.4 2-2.9 2c-1.7 0-3.3-1.2-3.3-3.4c0-2 1.5-3.4 3.1-3.4c2 0 3.1 1.3 3.1 3.4c0 .1 0 .3 0 .4c0 0-4.9 0-4.9 0c.1 1.1.9 1.9 2 1.9c1 0 1.6-.5 1.8-1.3c0 0 1.1.4 1.1.4zm2.2-.2c.1.6.6 1.2 1.5 1.2c.7 0 1.1-.4 1.1-.9c0-.4-.3-.7-.8-.8c0 0-1.1-.3-1.1-.3c-1-.2-1.6-.9-1.6-1.8c0-1.1 1-2 2.3-2c1.7 0 2.3 1.1 2.4 1.7c0 0-1.1.4-1.1.4c-.1-.3-.3-1.1-1.3-1.1c-.7 0-1.1.5-1.1.9c0 .4.2.7.7.8c0 0 1.1.2 1.1.2c1.1.3 1.8 1 1.8 1.9c0 1-.8 2-2.4 2c-1.8 0-2.5-1.1-2.6-1.8c0 0 1.1-.4 1.1-.4zm11.6 1.1c1.1 0 1.8-1 1.8-2.3c0-1.4-.7-2.3-1.8-2.3c-1.2 0-1.9 1-1.9 2.3c0 1.3.7 2.3 1.9 2.3zm1.9 0c-.4.6-1 1.1-2.1 1.1c-1.9 0-3-1.5-3-3.4c0-1.8 1.2-3.4 3-3.4c1.2 0 1.8.6 2 1.1c.03-.02 0-4.2 0-4.2l1.3 0c0 0-.02 8.55 0 8.5c0 .7 0 1.1 0 1.2c0 0-1.2 0-1.2 0c0-.1 0-.4 0-.8c0 0 0-.1 0-.1zm3.7-8.7c.5 0 1 .4 1 1.2c0 1.6-1 2.3-1.8 2.4c0 0 0-.6 0-.6c.6-.2 1-.8 1-1.4c0 0-.1.1-.3.1c-.4 0-.8-.4-.8-.9c0-.4.4-.8.9-.8zm1.7 7.9c0-1.1.9-1.8 2-2c0 0 1.7-.2 1.7-.2c.4-.1.5-.3.5-.5c0-.6-.4-1.2-1.4-1.2c-.9 0-1.4.6-1.4 1.4c0 0-1.3-.3-1.3-.3c.2-1.3 1.3-2.1 2.7-2.1c1.9 0 2.7 1.1 2.7 2.3c0 0 0 3.3 0 3.3c0 .6 0 .9.1 1.1c0 0-1.3 0-1.3 0c0-.2 0-.4 0-.9c-.3.4-1 1-2.1 1c-1.3 0-2.2-.9-2.2-1.9c0 0 0 0 0 0zm4.2-1c.02-.03 0-.3 0-.3c0 0-1.96.27-2 .3c-.5.1-.9.4-.9.9c0 .5.4 1 1 1c1.1 0 1.9-.5 1.9-1.9zm4-.5c0 1.5.9 2.3 2 2.3c1.2 0 1.6-.8 1.8-1.4c0 0 1.1.5 1.1.5c-.3 1-1.2 2-2.9 2c-1.9 0-3.3-1.4-3.3-3.4c0-2 1.4-3.4 3.3-3.4c1.7 0 2.6 1 2.9 2c0 0-1.2.5-1.2.5c-.1-.6-.6-1.4-1.7-1.4c-1 0-2 .8-2 2.3zm7.1 0c0 1.5.9 2.3 2 2.3c1.2 0 1.6-.8 1.8-1.4c0 0 1.1.5 1.1.5c-.3 1-1.3 2-2.9 2c-1.9 0-3.3-1.4-3.3-3.4c0-2 1.4-3.4 3.2-3.4c1.8 0 2.7 1 2.9 2c0 0-1.1.5-1.1.5c-.2-.6-.6-1.4-1.8-1.4c-1 0-1.9.8-1.9 2.3zm10.6 2.5c-.4.6-1.2.9-1.9.9c-1.6 0-2.5-1.1-2.5-2.6c.03.05 0-4 0-4l1.3 0c0 0 0 3.86 0 3.9c0 .8.4 1.6 1.5 1.6c1 0 1.5-.6 1.5-1.6c0-.03 0-3.9 0-3.9l1.3 0c0 0-.03 5.25 0 5.2c0 .6 0 1 0 1.2c0 0-1.2 0-1.2 0c0-.1 0-.5 0-.7c0 0 0 0 0 0zm7.6-3.2c0-.9-.6-1.6-1.8-1.6c-1 0-1.7.8-1.7 1.6c0 0 3.5 0 3.5 0zm1.3 2.1c-.4 1.1-1.4 2-2.9 2c-1.8 0-3.3-1.2-3.3-3.4c0-2 1.5-3.4 3.1-3.4c2 0 3.1 1.3 3.1 3.4c0 .1 0 .3 0 .4c0 0-4.9 0-4.9 0c.1 1.1.9 1.9 2 1.9c1 0 1.6-.5 1.8-1.3c0 0 1.1.4 1.1.4zm1.7 1.8l0-6.4l1.2 0l0 6.4l-1.2 0zm.6-9.8c.5 0 .9.4.9.9c0 .5-.4.9-.9.9c-.5 0-.9-.4-.9-.9c0-.5.4-.9.9-.9zm2.8 9.8l0-9.7l1.2 0l0 9.7l-1.2 0zm12.8.1c-.5 0-.9-.4-.9-.8c0-.5.4-.9.9-.9c.5 0 .8.4.8.9c0 .4-.3.8-.8.8zm-4.2 0c-.5 0-.9-.4-.9-.8c0-.5.4-.9.9-.9c.5 0 .8.4.8.9c0 .4-.3.8-.8.8zm-4.2 0c-.5 0-.9-.4-.9-.8c0-.5.4-.9.9-.9c.5 0 .9.4.9.9c0 .4-.4.8-.9.8z" stroke="none" fill="#144542"/></g><g id="Polygon168474"><path d="m4.7 93.6c-.2 0-.4-.1-.6-.1c-1 0-1.8.6-1.8 2c.04.04 0 3.3 0 3.3l-1.2 0l0-6.5l1.2 0c0 0 .02 1.13 0 1.1c.5-1 1.3-1.2 2-1.2c.1 0 .3 0 .4 0c0 0 0 1.4 0 1.4zm5.6 1.3c0-1-.6-1.7-1.8-1.7c-1 0-1.7.8-1.7 1.7c0 0 3.5 0 3.5 0zm1.3 2c-.4 1.2-1.4 2.1-2.9 2.1c-1.8 0-3.3-1.3-3.3-3.5c0-2 1.5-3.4 3.1-3.4c2 0 3.1 1.4 3.1 3.4c0 .2 0 .3 0 .4c0 0-4.9 0-4.9 0c.1 1.2.9 2 2 2c1 0 1.6-.6 1.8-1.3c0 0 1.1.3 1.1.3zm-2.6-5.4l-1 0l1.1-2l1.6 0l-1.7 2zm5 4c0 1.5.9 2.3 2 2.3c1.2 0 1.6-.8 1.8-1.3c0 0 1.1.5 1.1.5c-.3.9-1.2 2-2.9 2c-1.9 0-3.3-1.5-3.3-3.5c0-2 1.4-3.4 3.3-3.4c1.7 0 2.6 1.1 2.9 2.1c0 0-1.2.4-1.2.4c-.2-.6-.6-1.3-1.7-1.3c-1.1 0-2 .7-2 2.2zm10.7-.6c0-1-.6-1.7-1.8-1.7c-1.1 0-1.7.8-1.8 1.7c0 0 3.6 0 3.6 0zm1.3 2c-.4 1.2-1.4 2.1-2.9 2.1c-1.8 0-3.3-1.3-3.3-3.5c0-2 1.5-3.4 3.1-3.4c2 0 3.1 1.4 3.1 3.4c0 .2 0 .3 0 .4c0 0-4.9 0-4.9 0c0 1.2.9 2 2 2c1 0 1.5-.6 1.8-1.3c0 0 1.1.3 1.1.3zm1.6 4.4l0-9l1.3 0c0 0-.05 1.01 0 1c.3-.6 1.1-1.1 2.1-1.1c2 0 3 1.4 3 3.3c0 2-1.1 3.5-3 3.5c-1 0-1.8-.5-2.1-1.1c-.02.01 0 3.4 0 3.4l-1.3 0zm5.1-5.8c0-1.3-.7-2.2-1.9-2.2c-1.2 0-1.9.9-1.9 2.2c0 1.4.7 2.3 1.9 2.3c1.2 0 1.9-.9 1.9-2.3c0 0 0 0 0 0zm4.5-3.2l1.4 0l0 1.1l-1.4 0c0 0 .04 3.42 0 3.4c0 .6.3.9.9.9c.2 0 .4 0 .5 0c0 0 0 1 0 1c-.1.1-.4.1-.8.1c-1.1 0-1.8-.6-1.8-1.8c-.02 0 0-3.6 0-3.6l-1.3 0l0-1.1c0 0 .39 0 .4 0c.7 0 1-.4 1-1c-.02.01 0-1 0-1l1.1 0l0 2zm3.1 6.5l0-6.5l1.3 0l0 6.5l-1.3 0zm.6-9.9c.6 0 1 .4 1 1c0 .5-.4.9-1 .9c-.5 0-.9-.4-.9-.9c0-.6.4-1 .9-1zm7.6 6.6c0-1.5-.9-2.3-2-2.3c-1.1 0-2 .8-2 2.3c0 1.5.9 2.4 2 2.4c1.1 0 2-.9 2-2.4zm1.3 0c0 2-1.4 3.5-3.3 3.5c-1.9 0-3.3-1.5-3.3-3.5c0-1.9 1.4-3.4 3.3-3.4c1.9 0 3.3 1.5 3.3 3.4zm2.9 3.3l-1.3 0l0-6.5l1.3 0c0 0-.02.93 0 .9c.4-.8 1.2-1.1 2-1.1c1.5 0 2.3 1.1 2.3 2.6c-.01-.03 0 4.1 0 4.1l-1.3 0c0 0 .02-3.91 0-3.9c0-.9-.4-1.6-1.5-1.6c-1 0-1.5.8-1.5 1.7c0 .04 0 3.8 0 3.8zm7.6 0l-1.3 0l0-6.5l1.2 0c0 0 .05.93 0 .9c.5-.8 1.3-1.1 2-1.1c1.6 0 2.4 1.1 2.4 2.6c-.04-.03 0 4.1 0 4.1l-1.3 0c0 0-.01-3.91 0-3.9c0-.9-.4-1.6-1.5-1.6c-1 0-1.5.8-1.5 1.7c-.03.04 0 3.8 0 3.8zm6.3 0l0-6.5l1.2 0l0 6.5l-1.2 0zm.6-9.9c.5 0 .9.4.9 1c0 .5-.4.9-.9.9c-.5 0-.9-.4-.9-.9c0-.6.4-1 .9-1zm3.3 7.8c.1.7.6 1.2 1.5 1.2c.7 0 1.1-.4 1.1-.9c0-.4-.3-.7-.8-.8c0 0-1.1-.2-1.1-.2c-1-.2-1.6-.9-1.6-1.9c0-1.1 1-2 2.3-2c1.8 0 2.3 1.2 2.4 1.7c0 0-1.1.5-1.1.5c0-.4-.3-1.1-1.3-1.1c-.7 0-1.1.4-1.1.8c0 .4.2.7.7.8c0 0 1.1.3 1.1.3c1.2.2 1.8.9 1.8 1.9c0 .9-.8 2-2.4 2c-1.8 0-2.5-1.2-2.6-1.9c0 0 1.1-.4 1.1-.4zm7.3-4.4l1.4 0l0 1.1l-1.4 0c0 0-.03 3.42 0 3.4c0 .6.2.9.9.9c.1 0 .4 0 .5 0c0 0 0 1 0 1c-.1.1-.5.1-.9.1c-1.1 0-1.8-.6-1.8-1.8c.01 0 0-3.6 0-3.6l-1.2 0l0-1.1c0 0 .32 0 .3 0c.7 0 1-.4 1-1c.01.01 0-1 0-1l1.2 0l0 2zm7.4 2.6c-.1-1-.7-1.7-1.8-1.7c-1.1 0-1.7.8-1.8 1.7c0 0 3.6 0 3.6 0zm1.2 2c-.3 1.2-1.4 2.1-2.9 2.1c-1.7 0-3.2-1.3-3.2-3.5c0-2 1.4-3.4 3.1-3.4c2 0 3.1 1.4 3.1 3.4c0 .2 0 .3-.1.4c0 0-4.8 0-4.8 0c0 1.2.8 2 1.9 2c1.1 0 1.6-.6 1.8-1.3c0 0 1.1.3 1.1.3zm2.2-.2c.1.7.6 1.2 1.5 1.2c.7 0 1.1-.4 1.1-.9c0-.4-.3-.7-.8-.8c0 0-1.1-.2-1.1-.2c-1-.2-1.6-.9-1.6-1.9c0-1.1 1-2 2.3-2c1.8 0 2.3 1.2 2.5 1.7c0 0-1.2.5-1.2.5c0-.4-.3-1.1-1.3-1.1c-.7 0-1.1.4-1.1.8c0 .4.3.7.7.8c0 0 1.1.3 1.1.3c1.2.2 1.8.9 1.8 1.9c0 .9-.8 2-2.4 2c-1.8 0-2.5-1.2-2.6-1.9c0 0 1.1-.4 1.1-.4zm6.4.3c.6 0 1.1.4 1.1 1.3c0 1.8-1.1 2.5-2 2.6c0 0 0-.7 0-.7c.7-.1 1.1-.8 1.1-1.4c0 0-.1 0-.3 0c-.5 0-.9-.3-.9-.9c0-.5.5-.9 1-.9zm7.8 1.8l-1.3 0l0-9.8l1.3 0c0 0-.03 4.06 0 4.1c.4-.7 1.2-1 1.9-1c1.6 0 2.4 1.1 2.4 2.6c-.05-.03 0 4.1 0 4.1l-1.3 0c0 0-.01-3.91 0-3.9c0-.9-.4-1.6-1.5-1.6c-1 0-1.5.7-1.5 1.7c-.03-.03 0 3.8 0 3.8zm11.1-3.3c0-1.5-1-2.3-2.1-2.3c-1 0-2 .8-2 2.3c0 1.5 1 2.4 2 2.4c1.1 0 2.1-.9 2.1-2.4zm1.3 0c0 2-1.4 3.5-3.4 3.5c-1.9 0-3.3-1.5-3.3-3.5c0-1.9 1.4-3.4 3.3-3.4c2 0 3.4 1.5 3.4 3.4zm-5.5-4.1l1.4-1.8l1.5 0l1.4 1.8l-1.2 0l-1-1l-.9 1l-1.2 0zm8.7.9l1.4 0l0 1.1l-1.4 0c0 0 .01 3.42 0 3.4c0 .6.2.9.9.9c.2 0 .4 0 .5 0c0 0 0 1 0 1c-.1.1-.4.1-.9.1c-1.1 0-1.8-.6-1.8-1.8c.04 0 0-3.6 0-3.6l-1.2 0l0-1.1c0 0 .35 0 .4 0c.7 0 .9-.4.9-1c.05.01 0-1 0-1l1.2 0l0 2zm7.4 2.6c0-1-.6-1.7-1.8-1.7c-1.1 0-1.7.8-1.8 1.7c0 0 3.6 0 3.6 0zm1.3 2c-.4 1.2-1.4 2.1-2.9 2.1c-1.8 0-3.3-1.3-3.3-3.5c0-2 1.5-3.4 3.1-3.4c2 0 3.1 1.4 3.1 3.4c0 .2 0 .3 0 .4c0 0-4.9 0-4.9 0c0 1.2.9 2 2 2c1 0 1.5-.6 1.8-1.3c0 0 1.1.3 1.1.3zm2.2-.2c0 .7.6 1.2 1.5 1.2c.7 0 1.1-.4 1.1-.9c0-.4-.3-.7-.9-.8c0 0-1.1-.2-1.1-.2c-1-.2-1.6-.9-1.6-1.9c0-1.1 1.1-2 2.3-2c1.8 0 2.4 1.2 2.5 1.7c0 0-1.1.5-1.1.5c-.1-.4-.4-1.1-1.4-1.1c-.6 0-1.1.4-1.1.8c0 .4.3.7.8.8c0 0 1 .3 1 .3c1.2.2 1.8.9 1.8 1.9c0 .9-.7 2-2.3 2c-1.8 0-2.6-1.2-2.7-1.9c0 0 1.2-.4 1.2-.4z" stroke="none" fill="#144542"/></g><g id="Polygon168473"><path d="m4.7 77.4c-.2 0-.4 0-.6 0c-1 0-1.8.5-1.8 2c.04-.03 0 3.2 0 3.2l-1.2 0l0-6.5l1.2 0c0 0 .02 1.17 0 1.2c.5-1 1.3-1.3 2-1.3c.1 0 .3.1.4.1c0 0 0 1.3 0 1.3zm5.6 1.3c0-.9-.6-1.6-1.8-1.6c-1 0-1.7.8-1.7 1.6c0 0 3.5 0 3.5 0zm1.3 2.1c-.4 1.1-1.4 2-2.9 2c-1.8 0-3.3-1.2-3.3-3.4c0-2.1 1.5-3.5 3.1-3.5c2 0 3.1 1.4 3.1 3.4c0 .2 0 .4 0 .4c0 0-4.9 0-4.9 0c.1 1.2.9 2 2 2c1 0 1.6-.6 1.8-1.3c0 0 1.1.4 1.1.4zm2.2-.3c.1.7.6 1.2 1.5 1.2c.7 0 1.1-.4 1.1-.8c0-.4-.3-.7-.8-.9c0 0-1.1-.2-1.1-.2c-1-.2-1.6-.9-1.6-1.8c0-1.1 1-2.1 2.3-2.1c1.7 0 2.3 1.2 2.4 1.8c0 0-1.1.4-1.1.4c-.1-.3-.3-1.1-1.3-1.1c-.7 0-1.1.4-1.1.9c0 .4.2.7.7.8c0 0 1.1.2 1.1.2c1.1.2 1.8 1 1.8 1.9c0 .9-.8 2-2.4 2c-1.8 0-2.5-1.1-2.7-1.9c0 0 1.2-.4 1.2-.4zm7.2-4.4l1.4 0l0 1.2l-1.4 0c0 0 .04 3.35 0 3.4c0 .5.3.8.9.8c.2 0 .4 0 .5 0c0 0 0 1.1 0 1.1c-.1 0-.4.1-.8.1c-1.1 0-1.8-.7-1.8-1.9c-.03.04 0-3.5 0-3.5l-1.3 0l0-1.2c0 0 .38.04.4 0c.7 0 1-.4 1-1c-.02.04 0-1 0-1l1.1 0l0 2zm2.7 4.8c0-1.2.9-1.8 2-2c0 0 1.7-.2 1.7-.2c.4-.1.5-.3.5-.5c0-.7-.4-1.2-1.4-1.2c-.9 0-1.4.6-1.4 1.3c0 0-1.2-.3-1.2-.3c.1-1.2 1.2-2.1 2.6-2.1c1.9 0 2.7 1.1 2.7 2.4c0 0 0 3.3 0 3.3c0 .5.1.9.1 1c0 0-1.3 0-1.3 0c0-.1 0-.4 0-.9c-.3.5-1 1.1-2.1 1.1c-1.3 0-2.2-.9-2.2-1.9c0 0 0 0 0 0zm4.2-1.1c.04.04 0-.3 0-.3c0 0-1.95.34-1.9.3c-.6.1-1 .4-1 1c0 .5.4 1 1.1 1c1 0 1.8-.5 1.8-2zm7.4 2c-.3.7-1.2 1-1.9 1c-1.5 0-2.4-1.1-2.4-2.6c-.03.02 0-4.1 0-4.1l1.2 0c0 0 .03 3.93 0 3.9c0 .9.4 1.7 1.5 1.7c1 0 1.5-.7 1.5-1.7c.04.05 0-3.9 0-3.9l1.3 0c0 0 0 5.32 0 5.3c0 .5 0 1 .1 1.2c0 0-1.2 0-1.2 0c-.1-.1-.1-.5-.1-.8c0 0 0 0 0 0zm7-4.4c-.2 0-.4 0-.6 0c-1.1 0-1.8.5-1.8 2c.02-.03 0 3.2 0 3.2l-1.2 0l0-6.5l1.2 0c0 0-.01 1.17 0 1.2c.5-1 1.3-1.3 1.9-1.3c.2 0 .4.1.5.1c0 0 0 1.3 0 1.3zm.9 3.5c0-1.2.8-1.8 2-2c0 0 1.7-.2 1.7-.2c.4-.1.5-.3.5-.5c0-.7-.4-1.2-1.4-1.2c-.9 0-1.4.6-1.5 1.3c0 0-1.2-.3-1.2-.3c.2-1.2 1.3-2.1 2.7-2.1c1.9 0 2.7 1.1 2.7 2.4c0 0 0 3.3 0 3.3c0 .5 0 .9.1 1c0 0-1.3 0-1.3 0c0-.1 0-.4 0-.9c-.3.5-1 1.1-2.1 1.1c-1.4 0-2.2-.9-2.2-1.9c0 0 0 0 0 0zm4.2-1.1c.01.04 0-.3 0-.3c0 0-1.97.34-2 .3c-.5.1-.9.4-.9 1c0 .5.4 1 1 1c1.1 0 1.9-.5 1.9-2zm4.9-3.7l1.4 0l0 1.2l-1.4 0c0 0 .04 3.35 0 3.4c0 .5.3.8.9.8c.2 0 .4 0 .5 0c0 0 0 1.1 0 1.1c-.1 0-.4.1-.8.1c-1.1 0-1.8-.7-1.8-1.9c-.02.04 0-3.5 0-3.5l-1.3 0l0-1.2c0 0 .39.04.4 0c.7 0 1-.4 1-1c-.02.04 0-1 0-1l1.1 0l0 2zm3.1 6.5l0-6.5l1.3 0l0 6.5l-1.3 0zm.6-9.8c.6 0 1 .4 1 .9c0 .5-.4.9-1 .9c-.5 0-.9-.4-.9-.9c0-.5.4-.9.9-.9zm7.6 6.6c0-1.5-.9-2.3-2-2.3c-1.1 0-2 .8-2 2.3c0 1.5.9 2.3 2 2.3c1.1 0 2-.8 2-2.3zm1.3 0c0 2-1.4 3.4-3.3 3.4c-1.9 0-3.3-1.4-3.3-3.4c0-2 1.4-3.5 3.3-3.5c1.9 0 3.3 1.5 3.3 3.5zm2.9 3.2l-1.3 0l0-6.5l1.3 0c0 0-.02.97 0 1c.4-.8 1.2-1.1 2-1.1c1.5 0 2.3 1.1 2.3 2.5c-.01.01 0 4.1 0 4.1l-1.3 0c0 0 .02-3.87 0-3.9c0-.9-.4-1.6-1.5-1.6c-1 0-1.5.8-1.5 1.8c0-.03 0 3.7 0 3.7zm10.4-3.2c0 1.5 1 2.3 2 2.3c1.2 0 1.7-.9 1.8-1.4c0 0 1.1.5 1.1.5c-.3.9-1.2 2-2.9 2c-1.9 0-3.3-1.5-3.3-3.4c0-2 1.4-3.5 3.3-3.5c1.7 0 2.6 1.1 2.9 2.1c0 0-1.2.5-1.2.5c-.1-.6-.6-1.4-1.7-1.4c-1 0-2 .8-2 2.3zm11.1 0c0-1.5-.9-2.3-2-2.3c-1.1 0-2 .8-2 2.3c0 1.5.9 2.3 2 2.3c1.1 0 2-.8 2-2.3zm1.3 0c0 2-1.3 3.4-3.3 3.4c-1.9 0-3.3-1.4-3.3-3.4c0-2 1.4-3.5 3.3-3.5c2 0 3.3 1.5 3.3 3.5zm1.7 3.2l0-9.7l1.2 0l0 9.7l-1.2 0zm3.4 0l0-9.7l1.2 0l0 9.7l-1.2 0zm7.8-3.9c-.1-.9-.7-1.6-1.8-1.6c-1.1 0-1.7.8-1.8 1.6c0 0 3.6 0 3.6 0zm1.2 2.1c-.3 1.1-1.4 2-2.9 2c-1.7 0-3.2-1.2-3.2-3.4c0-2.1 1.4-3.5 3.1-3.5c2 0 3.1 1.4 3.1 3.4c0 .2 0 .4-.1.4c0 0-4.8 0-4.8 0c0 1.2.8 2 1.9 2c1.1 0 1.6-.6 1.8-1.3c0 0 1.1.4 1.1.4zm2.4-1.4c0 1.5 1 2.3 2 2.3c1.2 0 1.7-.9 1.8-1.4c0 0 1.1.5 1.1.5c-.3.9-1.2 2-2.9 2c-1.9 0-3.2-1.5-3.2-3.4c0-2 1.4-3.5 3.2-3.5c1.7 0 2.6 1.1 2.9 2.1c0 0-1.2.5-1.2.5c-.1-.6-.6-1.4-1.7-1.4c-1 0-2 .8-2 2.3zm8.1-3.3l1.4 0l0 1.2l-1.4 0c0 0 .03 3.35 0 3.4c0 .5.3.8.9.8c.2 0 .4 0 .5 0c0 0 0 1.1 0 1.1c-.1 0-.4.1-.8.1c-1.1 0-1.8-.7-1.8-1.9c-.04.04 0-3.5 0-3.5l-1.3 0l0-1.2c0 0 .37.04.4 0c.7 0 1-.4 1-1c-.03.04 0-1 0-1l1.1 0l0 2zm3.1 6.5l0-6.5l1.3 0l0 6.5l-1.3 0zm.6-9.8c.5 0 .9.4.9.9c0 .5-.4.9-.9.9c-.5 0-.9-.4-.9-.9c0-.5.4-.9.9-.9zm5.8 9.8l-1.3 0l-2.6-6.5l1.4 0l1.8 5l1.9-5l1.4 0l-2.6 6.5zm7.9-3.9c0-.9-.6-1.6-1.7-1.6c-1.1 0-1.7.8-1.8 1.6c0 0 3.5 0 3.5 0zm1.3 2.1c-.3 1.1-1.4 2-2.9 2c-1.7 0-3.2-1.2-3.2-3.4c0-2.1 1.4-3.5 3.1-3.5c1.9 0 3.1 1.4 3.1 3.4c0 .2-.1.4-.1.4c0 0-4.8 0-4.8 0c0 1.2.8 2 1.9 2c1.1 0 1.6-.6 1.8-1.3c0 0 1.1.4 1.1.4zm2.3.1c.6 0 1.1.4 1.1 1.2c0 1.8-1.1 2.6-2 2.7c0 0 0-.7 0-.7c.7-.2 1.1-.8 1.1-1.5c0 0-.1.1-.3.1c-.5 0-.9-.4-.9-.9c0-.5.5-.9 1-.9z" stroke="none" fill="#144542"/></g><g id="Polygon168472"><path d="m1.8 63.2c0 1.5 1 2.3 2 2.3c1.2 0 1.7-.8 1.8-1.3c0 0 1.1.4 1.1.4c-.3 1-1.2 2.1-2.9 2.1c-1.9 0-3.3-1.5-3.3-3.5c0-2 1.5-3.4 3.3-3.4c1.7 0 2.6 1.1 2.9 2c0 0-1.2.5-1.2.5c-.1-.6-.6-1.4-1.7-1.4c-1 0-2 .8-2 2.3zm10.6 2.5c-.3.6-1.1 1-1.9 1c-1.5 0-2.4-1.2-2.4-2.6c-.02-.04 0-4.1 0-4.1l1.2 0c0 0 .05 3.87 0 3.9c0 .9.5 1.6 1.5 1.6c1 0 1.6-.6 1.6-1.6c-.05-.02 0-3.9 0-3.9l1.2 0c0 0 .02 5.26 0 5.3c0 .5.1.9.1 1.2c0 0-1.2 0-1.2 0c-.1-.2-.1-.6-.1-.8c0 0 0 0 0 0zm3.4.8l0-6.5l1.2 0l0 6.5l-1.2 0zm.6-9.9c.5 0 .9.4.9.9c0 .5-.4.9-.9.9c-.5 0-.9-.4-.9-.9c0-.5.4-.9.9-.9zm3.3 7.8c.1.6.6 1.2 1.5 1.2c.7 0 1.1-.4 1.1-.9c0-.4-.3-.7-.8-.8c0 0-1.1-.3-1.1-.3c-1-.2-1.6-.9-1.6-1.8c0-1.1 1-2 2.3-2c1.8 0 2.3 1.1 2.4 1.7c0 0-1.1.4-1.1.4c0-.3-.3-1-1.3-1c-.7 0-1.1.4-1.1.8c0 .4.2.7.7.8c0 0 1.1.2 1.1.2c1.2.3 1.8 1 1.8 2c0 .9-.8 2-2.4 2c-1.8 0-2.5-1.2-2.6-1.9c0 0 1.1-.4 1.1-.4zm5.6 2.1l0-6.5l1.2 0l0 6.5l-1.2 0zm.6-9.9c.5 0 .9.4.9.9c0 .5-.4.9-.9.9c-.5 0-.9-.4-.9-.9c0-.5.4-.9.9-.9zm4 9.9l-1.2 0l0-6.5l1.2 0c0 0 .01.91 0 .9c.5-.8 1.3-1.1 2-1.1c1.6 0 2.3 1.1 2.3 2.5c.02.05 0 4.2 0 4.2l-1.2 0c0 0-.04-3.94 0-3.9c0-.9-.4-1.7-1.5-1.7c-1 0-1.6.8-1.6 1.8c.04.01 0 3.8 0 3.8zm10.7-3.9c0-1-.6-1.7-1.8-1.7c-1 0-1.7.8-1.7 1.7c0 0 3.5 0 3.5 0zm1.3 2c-.4 1.2-1.4 2.1-2.9 2.1c-1.8 0-3.3-1.3-3.3-3.5c0-2 1.5-3.4 3.1-3.4c2 0 3.1 1.3 3.1 3.4c0 .1 0 .3 0 .4c0 0-4.9 0-4.9 0c.1 1.1.9 1.9 2 1.9c1 0 1.6-.5 1.8-1.3c0 0 1.1.4 1.1.4zm2.3.1c.6 0 1.1.4 1.1 1.3c0 1.7-1.2 2.5-2 2.6c0 0 0-.7 0-.7c.7-.2 1.1-.8 1.1-1.5c0 .1-.1.1-.3.1c-.5 0-.9-.3-.9-.9c0-.5.4-.9 1-.9zm6.6 1.8l0-9.6l5.8 0l0 1.2l-4.5 0l0 3l4.1 0l0 1.2l-4.1 0l0 2.9l4.5 0l0 1.3l-5.8 0zm7.5 0l0-6.5l1.2 0c0 0 .01.84 0 .8c.4-.7 1.2-1 2-1c.8 0 1.6.4 1.9 1.2c.5-.9 1.4-1.2 2.2-1.2c1.1 0 2.2.8 2.2 2.5c.02-.05 0 4.2 0 4.2l-1.2 0c0 0-.04-4.11 0-4.1c0-.9-.5-1.5-1.4-1.5c-.9 0-1.5.7-1.5 1.6c-.01.04 0 4 0 4l-1.3 0c0 0 .03-4.11 0-4.1c0-.8-.4-1.5-1.3-1.5c-.9 0-1.6.7-1.6 1.6c.05.05 0 4 0 4l-1.2 0zm11.5 2.5l0-9l1.3 0c0 0-.04.99 0 1c.3-.7 1.1-1.2 2.1-1.2c2 0 3 1.5 3 3.4c0 1.9-1.1 3.4-3 3.4c-1 0-1.8-.4-2.1-1c-.01-.02 0 3.4 0 3.4l-1.3 0zm5.1-5.8c0-1.3-.7-2.3-1.9-2.3c-1.2 0-1.9 1-1.9 2.3c0 1.3.7 2.3 1.9 2.3c1.2 0 1.9-1 1.9-2.3c0 0 0 0 0 0zm2.9 3.3l0-9.8l1.3 0l0 9.8l-1.3 0zm8.2-3.3c0-1.5-.9-2.3-2-2.3c-1.1 0-2 .8-2 2.3c0 1.5.9 2.3 2 2.3c1.1 0 2-.8 2-2.3zm1.3 0c0 2-1.3 3.5-3.3 3.5c-1.9 0-3.3-1.5-3.3-3.5c0-2 1.4-3.4 3.3-3.4c2 0 3.3 1.4 3.3 3.4zm1.6 6l1.6-3.5l-2.8-5.7l1.5 0l2 4.4l2-4.4l1.3 0l-4.2 9.2l-1.4 0zm10.9-6.6c0-1-.6-1.7-1.8-1.7c-1 0-1.7.8-1.7 1.7c0 0 3.5 0 3.5 0zm1.3 2c-.4 1.2-1.4 2.1-2.9 2.1c-1.7 0-3.3-1.3-3.3-3.5c0-2 1.5-3.4 3.1-3.4c2 0 3.1 1.3 3.1 3.4c0 .1 0 .3 0 .4c0 0-4.9 0-4.9 0c.1 1.1.9 1.9 2 1.9c1 0 1.6-.5 1.8-1.3c0 0 1.1.4 1.1.4zm-2.6-5.5l-1 0l1.1-1.9l1.6 0l-1.7 1.9zm4.8 5.3c.1.6.6 1.2 1.5 1.2c.7 0 1.1-.4 1.1-.9c0-.4-.3-.7-.8-.8c0 0-1.1-.3-1.1-.3c-1-.2-1.6-.9-1.6-1.8c0-1.1 1-2 2.3-2c1.7 0 2.3 1.1 2.4 1.7c0 0-1.1.4-1.1.4c-.1-.3-.3-1-1.3-1c-.7 0-1.1.4-1.1.8c0 .4.2.7.7.8c0 0 1.1.2 1.1.2c1.1.3 1.8 1 1.8 2c0 .9-.8 2-2.4 2c-1.8 0-2.5-1.2-2.6-1.9c0 0 1.1-.4 1.1-.4zm11.6 1.1c1.1 0 1.8-1 1.8-2.3c0-1.4-.7-2.3-1.8-2.3c-1.2 0-1.9 1-1.9 2.3c0 1.3.7 2.3 1.9 2.3zm1.9 0c-.4.6-1 1.1-2.1 1.1c-1.9 0-3-1.5-3-3.4c0-1.8 1.2-3.4 3-3.4c1.2 0 1.8.6 2 1.1c.02-.01 0-4.2 0-4.2l1.3 0c0 0-.03 8.56 0 8.6c0 .6 0 1 0 1.2c0 0-1.2 0-1.2 0c0-.2 0-.5 0-.9c0 0 0-.1 0-.1zm7.7-2.9c0-1-.6-1.7-1.8-1.7c-1 0-1.7.8-1.7 1.7c0 0 3.5 0 3.5 0zm1.3 2c-.4 1.2-1.4 2.1-2.9 2.1c-1.8 0-3.3-1.3-3.3-3.5c0-2 1.5-3.4 3.1-3.4c2 0 3.1 1.3 3.1 3.4c0 .1 0 .3 0 .4c0 0-4.9 0-4.9 0c0 1.1.9 1.9 2 1.9c1 0 1.5-.5 1.8-1.3c0 0 1.1.4 1.1.4z" stroke="none" fill="#144542"/></g><g id="Polygon168471"><path d="m.6 45.5c0-3.2 2.4-5 4.7-5c2.2 0 3.8 1.2 4.2 3.1c0 0-1.2.4-1.2.4c-.3-1.4-1.4-2.2-3-2.2c-1.7 0-3.3 1.2-3.3 3.7c0 2.5 1.6 3.8 3.3 3.8c1.7 0 2.7-1 3.1-2.3c0 0 1.2.4 1.2.4c-.5 1.8-2.1 3.1-4.3 3.1c-2.4 0-4.7-1.8-4.7-5zm14.6 4c-.4.7-1.2 1-1.9 1c-1.5 0-2.5-1.1-2.5-2.6c.04 0 0-4.1 0-4.1l1.3 0c0 0 .01 3.91 0 3.9c0 .9.4 1.7 1.5 1.7c1 0 1.5-.7 1.5-1.7c.01.02 0-3.9 0-3.9l1.3 0c0 0-.02 5.3 0 5.3c0 .5 0 1 0 1.2c0 0-1.2 0-1.2 0c0-.2 0-.5 0-.8c0 0 0 0 0 0zm3.3.8l0-6.5l1.3 0l0 6.5l-1.3 0zm.7-9.9c.5 0 .9.5.9 1c0 .5-.4.9-.9.9c-.5 0-.9-.4-.9-.9c0-.5.4-1 .9-1zm3.3 7.8c.1.7.6 1.2 1.5 1.2c.7 0 1.1-.4 1.1-.8c0-.4-.3-.8-.8-.9c0 0-1.1-.2-1.1-.2c-1.1-.2-1.7-.9-1.7-1.8c0-1.1 1.1-2.1 2.3-2.1c1.8 0 2.4 1.2 2.5 1.7c0 0-1.1.5-1.1.5c-.1-.4-.3-1.1-1.4-1.1c-.6 0-1 .4-1 .9c0 .3.2.6.7.7c0 0 1.1.3 1.1.3c1.1.2 1.7.9 1.7 1.9c0 .9-.7 2-2.3 2c-1.8 0-2.6-1.1-2.7-1.9c0 0 1.2-.4 1.2-.4zm5.5 2.1l0-6.5l1.3 0l0 6.5l-1.3 0zm.6-9.9c.6 0 1 .5 1 1c0 .5-.4.9-1 .9c-.4 0-.9-.4-.9-.9c0-.5.5-1 .9-1zm4.1 9.9l-1.3 0l0-6.5l1.3 0c0 0-.02.94 0 .9c.4-.8 1.2-1.1 2-1.1c1.5 0 2.3 1.1 2.3 2.6c-.01-.02 0 4.1 0 4.1l-1.3 0c0 0 .02-3.9 0-3.9c0-.9-.4-1.6-1.5-1.6c-1 0-1.5.8-1.5 1.7c0 .05 0 3.8 0 3.8zm6.3 0l0-6.5l1.3 0l0 6.5l-1.3 0zm.6-9.9c.5 0 .9.5.9 1c0 .5-.4.9-.9.9c-.5 0-.9-.4-.9-.9c0-.5.4-1 .9-1zm7.2 6c0-.9-.7-1.7-1.8-1.7c-1.1 0-1.7.9-1.8 1.7c0 0 3.6 0 3.6 0zm1.3 2c-.4 1.2-1.4 2.1-3 2.1c-1.7 0-3.2-1.3-3.2-3.5c0-2 1.5-3.4 3.1-3.4c2 0 3.1 1.4 3.1 3.4c0 .2 0 .3 0 .4c0 0-4.9 0-4.9 0c0 1.2.9 2 1.9 2c1.1 0 1.6-.6 1.9-1.3c0 0 1.1.3 1.1.3zm5.2-3.3c-.2 0-.4 0-.5 0c-1.1 0-1.8.5-1.8 1.9c-.02.05 0 3.3 0 3.3l-1.3 0l0-6.5l1.3 0c0 0-.05 1.14 0 1.1c.4-1 1.2-1.2 1.9-1.2c.2 0 .3 0 .4 0c0 0 0 1.4 0 1.4zm1.9 3.1c.1.7.6 1.2 1.5 1.2c.7 0 1.1-.4 1.1-.8c0-.4-.3-.8-.8-.9c0 0-1.1-.2-1.1-.2c-1-.2-1.6-.9-1.6-1.8c0-1.1 1-2.1 2.3-2.1c1.7 0 2.3 1.2 2.4 1.7c0 0-1.1.5-1.1.5c0-.4-.3-1.1-1.3-1.1c-.7 0-1.1.4-1.1.9c0 .3.2.6.7.7c0 0 1.1.3 1.1.3c1.1.2 1.8.9 1.8 1.9c0 .9-.8 2-2.4 2c-1.8 0-2.5-1.1-2.6-1.9c0 0 1.1-.4 1.1-.4zm6.4.3c.6 0 1.1.5 1.1 1.3c0 1.8-1.2 2.5-2 2.6c0 0 0-.7 0-.7c.7-.1 1.1-.8 1.1-1.4c0 0-.1 0-.3 0c-.5 0-.9-.3-.9-.9c0-.5.4-.9 1-.9zm6-3c0-3.2 2.4-5 4.7-5c2.2 0 3.8 1.2 4.2 3.1c0 0-1.2.4-1.2.4c-.3-1.4-1.4-2.2-3-2.2c-1.7 0-3.4 1.2-3.4 3.7c0 2.5 1.7 3.8 3.4 3.8c1.7 0 2.7-1 3.1-2.3c0 0 1.2.4 1.2.4c-.6 1.8-2.1 3.1-4.3 3.1c-2.4 0-4.7-1.8-4.7-5zm15.1 1.5c0-1.4-.9-2.3-2-2.3c-1.1 0-2 .9-2 2.3c0 1.6.9 2.4 2 2.4c1.1 0 2-.8 2-2.4zm1.3 0c0 2-1.4 3.5-3.3 3.5c-2 0-3.3-1.5-3.3-3.5c0-1.9 1.3-3.4 3.3-3.4c1.9 0 3.3 1.5 3.3 3.4zm1.6 3.3l0-6.5l1.2 0c0 0 .02.88 0 .9c.4-.7 1.2-1.1 2-1.1c.8 0 1.6.4 1.9 1.3c.5-1 1.4-1.3 2.2-1.3c1.1 0 2.2.8 2.2 2.5c.03-.01 0 4.2 0 4.2l-1.2 0c0 0-.02-4.08 0-4.1c0-.8-.4-1.5-1.4-1.5c-.9 0-1.5.7-1.5 1.7c.01-.03 0 3.9 0 3.9l-1.3 0c0 0 .05-4.08 0-4.1c0-.8-.4-1.5-1.3-1.5c-.9 0-1.5.7-1.5 1.7c-.04-.01 0 3.9 0 3.9l-1.3 0zm11.6 0l0-6.5l1.2 0c0 0-.04.88 0 .9c.4-.7 1.2-1.1 1.9-1.1c.8 0 1.6.4 2 1.3c.5-1 1.3-1.3 2.1-1.3c1.2 0 2.3.8 2.3 2.5c-.03-.01 0 4.2 0 4.2l-1.3 0c0 0 .02-4.08 0-4.1c0-.8-.4-1.5-1.4-1.5c-.8 0-1.4.7-1.4 1.7c-.05-.03 0 3.9 0 3.9l-1.3 0c0 0-.01-4.08 0-4.1c0-.8-.4-1.5-1.4-1.5c-.9 0-1.5.7-1.5 1.7c0-.01 0 3.9 0 3.9l-1.2 0zm11.5 0l0-6.5l1.2 0l0 6.5l-1.2 0zm.6-9.9c.5 0 .9.5.9 1c0 .5-.4.9-.9.9c-.5 0-.9-.4-.9-.9c0-.5.4-1 .9-1zm3.3 7.8c.1.7.6 1.2 1.6 1.2c.7 0 1.1-.4 1.1-.8c0-.4-.3-.8-.9-.9c0 0-1.1-.2-1.1-.2c-1-.2-1.6-.9-1.6-1.8c0-1.1 1-2.1 2.3-2.1c1.8 0 2.3 1.2 2.5 1.7c0 0-1.2.5-1.2.5c0-.4-.3-1.1-1.3-1.1c-.6 0-1.1.4-1.1.9c0 .3.3.6.8.7c0 0 1 .3 1 .3c1.2.2 1.8.9 1.8 1.9c0 .9-.8 2-2.4 2c-1.7 0-2.5-1.1-2.6-1.9c0 0 1.1-.4 1.1-.4zm11.6 1.2c1.2 0 1.9-1.1 1.9-2.4c0-1.3-.7-2.2-1.9-2.2c-1.1 0-1.9.9-1.9 2.2c0 1.4.7 2.4 1.9 2.4zm1.9-.1c-.3.6-1 1.2-2 1.2c-1.9 0-3.1-1.5-3.1-3.5c0-1.8 1.3-3.4 3.1-3.4c1.1 0 1.8.6 2 1.1c-.03.03 0-4.2 0-4.2l1.2 0c0 0 .02 8.59 0 8.6c0 .6.1 1.1.1 1.2c0 0-1.2 0-1.2 0c-.1-.2-.1-.5-.1-.9c0 0 0-.1 0-.1zm7.7-2.9c0-.9-.6-1.7-1.7-1.7c-1.1 0-1.7.9-1.8 1.7c0 0 3.5 0 3.5 0zm1.3 2c-.3 1.2-1.4 2.1-2.9 2.1c-1.7 0-3.2-1.3-3.2-3.5c0-2 1.4-3.4 3.1-3.4c1.9 0 3.1 1.4 3.1 3.4c0 .2-.1.3-.1.4c0 0-4.8 0-4.8 0c0 1.2.8 2 1.9 2c1.1 0 1.6-.6 1.8-1.3c0 0 1.1.3 1.1.3z" stroke="none" fill="#144542"/></g><g id="Polygon168470"><path d="m4 23.3l-1.2 0l0 3.8l-1.6 0l0-9.6c0 0 3.68.01 3.7 0c1.8 0 3 1.3 3 2.9c0 1.4-.9 2.4-2.2 2.7c.01.03 2.2 4 2.2 4l-1.9 0l-2-3.8zm.6-1.4c1 0 1.6-.6 1.6-1.5c0-.9-.6-1.5-1.6-1.5c-.02.04-1.8 0-1.8 0l0 3c0 0 1.78-.04 1.8 0zm5.8 5.2l0-9.6l5.9 0l0 1.5l-4.3 0l0 2.6l3.9 0l0 1.4l-3.9 0l0 2.6l4.3 0l0 1.5l-5.9 0zm13.5-6.9c-.1-.6-.6-1.5-1.9-1.5c-1 0-1.6.7-1.6 1.4c0 .6.3 1.1 1.1 1.2c0 0 1.3.3 1.3.3c1.7.4 2.6 1.4 2.6 2.8c0 1.4-1.2 2.9-3.4 2.9c-2.4 0-3.5-1.6-3.6-3c0 0 1.5-.4 1.5-.4c.1 1 .8 1.9 2.1 1.9c1.2 0 1.8-.6 1.8-1.3c0-.6-.5-1.1-1.3-1.3c0 0-1.3-.3-1.3-.3c-1.5-.3-2.5-1.2-2.5-2.7c0-1.6 1.5-2.9 3.3-2.9c2.2 0 3.1 1.4 3.3 2.4c0 0-1.4.5-1.4.5zm7.7-1.2l0 8.1l-1.6 0l0-8.1l-3.1 0l0-1.5l7.8 0l0 1.5l-3.1 0zm10 5.7l-4 0l-.9 2.4l-1.7 0l3.7-9.6l1.9 0l3.7 9.6l-1.8 0l-.9-2.4zm-3.5-1.5l3 0l-1.5-3.9l-1.5 3.9zm7.9.5c.02.03 0-6.2 0-6.2l1.6 0c0 0 .03 6.14 0 6.1c0 1.4.8 2.1 2 2.1c1.2 0 1.9-.7 1.9-2.1c.03.04 0-6.1 0-6.1l1.6 0c0 0 .05 6.23 0 6.2c0 2.3-1.5 3.6-3.5 3.6c-2 0-3.6-1.3-3.6-3.6zm13-.4l-1.2 0l0 3.8l-1.7 0l0-9.6c0 0 3.7.01 3.7 0c1.8 0 3 1.3 3 2.9c0 1.4-.8 2.4-2.2 2.7c.04.03 2.2 4 2.2 4l-1.8 0l-2-3.8zm.5-1.4c1 0 1.7-.6 1.7-1.5c0-.9-.7-1.5-1.7-1.5c.01.04-1.7 0-1.7 0l0 3c0 0 1.71-.04 1.7 0zm11.4 2.8l-4 0l-.9 2.4l-1.7 0l3.7-9.6l1.9 0l3.7 9.6l-1.8 0l-.9-2.4zm-3.5-1.5l2.9 0l-1.4-3.9l-1.5 3.9zm11.1-4.2l0 8.1l-1.6 0l0-8.1l-3.1 0l0-1.5l7.8 0l0 1.5l-3.1 0zm5.3 8.1l0-9.6l1.6 0l0 9.6l-1.6 0zm9-1.4c1.6 0 3.2-1.1 3.2-3.4c0-2.3-1.6-3.5-3.2-3.5c-1.6 0-3.2 1.2-3.2 3.5c0 2.3 1.6 3.4 3.2 3.4zm0-8.4c2.5 0 4.8 1.9 4.8 5c0 3.1-2.3 5-4.8 5c-2.5 0-4.9-1.9-4.9-5c0-3.1 2.4-5 4.9-5zm13.7 9.8l-4.7-7.3l0 7.3l-1.6 0l0-9.6l2 0l4.4 6.8l0-6.8l1.6 0l0 9.6l-1.7 0z" stroke="none" fill="#9b78ef"/></g><g id="Polygon168469"><path d="m7.3 10.9l0-4.1l-4.5 0l0 4.1l-1.6 0l0-9.6l1.6 0l0 4l4.5 0l0-4l1.6 0l0 9.6l-1.6 0zm6.6-10.2l1.5-1.7l1.8 0l1.6 1.7l-1.5 0l-1-.9l-1 .9l-1.4 0zm2.4 8.9c1.6 0 3.2-1.2 3.2-3.5c0-2.3-1.6-3.4-3.2-3.4c-1.6 0-3.2 1.1-3.2 3.4c0 2.3 1.6 3.5 3.2 3.5zm0-8.5c2.5 0 4.9 1.9 4.9 5c0 3.2-2.4 5-4.9 5c-2.5 0-4.8-1.8-4.8-5c0-3.1 2.3-5 4.8-5zm10.8 1.8l0 8l-1.6 0l0-8l-3.1 0l0-1.6l7.9 0l0 1.6l-3.2 0zm5.3 8l0-9.6l5.9 0l0 1.6l-4.3 0l0 2.5l3.9 0l0 1.5l-3.9 0l0 2.5l4.3 0l0 1.5l-5.9 0zm8.6 0l0-9.6l1.6 0l0 8.1l4.4 0l0 1.5l-6 0zm8.3 0l0-9.6l1.6 0l0 8.1l4.4 0l0 1.5l-6 0zm8.3 0l0-9.6l5.9 0l0 1.6l-4.3 0l0 2.5l3.9 0l0 1.5l-3.9 0l0 2.5l4.3 0l0 1.5l-5.9 0zm11.5-3.8l-1.2 0l0 3.8l-1.7 0l0-9.6c0 0 3.7.05 3.7 0c1.8 0 3 1.3 3 2.9c0 1.4-.8 2.4-2.2 2.8c.04-.04 2.2 3.9 2.2 3.9l-1.8 0l-2-3.8zm.5-1.4c1 0 1.7-.6 1.7-1.5c0-.8-.7-1.4-1.7-1.4c.01-.03-1.7 0-1.7 0l0 2.9c0 0 1.71 0 1.7 0zm5.8 5.2l0-9.6l1.7 0l0 9.6l-1.7 0zm4.8 0l0-9.6l5.9 0l0 1.6l-4.3 0l0 2.5l3.9 0l0 1.5l-3.9 0l0 2.5l4.3 0l0 1.5l-5.9 0zm17.2-1.1c-.7.8-1.5 1.3-2.6 1.3c-1.8 0-2.8-1.3-2.8-2.5c0-1.3.7-1.9 1.6-2.7c.05.03.1 0 .1 0c0 0-.12-.22-.1-.2c-.5-.5-1.1-1.2-1.1-2.1c0-1.6 1.3-2.5 2.6-2.5c1.4 0 2.6 1 2.6 2.4c0 1-.7 1.7-1.4 2.2c.02-.03-.4.3-.4.3l1.6 1.6l2.3-2.4l0 2l-1.3 1.4l2.1 2.3l-2.1 0c0 0-1.05-1.13-1.1-1.1zm-.9-1c-.05-.04 0-.1 0-.1l-1.8-1.8c0 0-.32.21-.3.2c-.5.3-.8.7-.8 1.4c0 .6.5 1.2 1.3 1.2c.6 0 1.1-.4 1.6-.9zm-1.8-4.1c-.04-.01.2.3.2.3c0 0 .58-.42.6-.4c.5-.4.6-.7.6-1.1c0-.6-.4-1-1-1c-.5 0-1.1.3-1.1 1c0 .4.3.8.7 1.2z" stroke="none" fill="#9b78ef"/></g></svg>