<?xml version="1.0" standalone="no"?><!DOCTYPE svg PUBLIC "-//W3C//DTD SVG 1.1//EN" "http://www.w3.org/Graphics/SVG/1.1/DTD/svg11.dtd"><svg xmlns="http://www.w3.org/2000/svg" version="1.1" width="101.2px" height="191.3px" viewBox="0 -3 101.2 191.3" style="top:-3px"><desc>TP Employ Commercial TP Conseiller de vente TP Manager d’ tablissement marchant TP ADVF TP Charg d’accueil TP Data...</desc><defs/><g id="Polygon172084"><path d="m.5 179.2l0-1.3l3.4 0l0 1.3l-3.4 0zm10.7-4.3l0 7.2l-1.4 0l0-7.2l-2.8 0l0-1.4l7 0l0 1.4l-2.8 0zm6.9 2.6c.9 0 1.4-.5 1.4-1.3c0-.9-.5-1.4-1.4-1.4c-.02.02-1.5 0-1.5 0l0 2.7c0 0 1.48-.04 1.5 0zm-1.5 1.2l0 3.4l-1.5 0l0-8.6c0 0 3.2.05 3.2 0c1.6 0 2.7 1.1 2.7 2.6c0 1.5-1.1 2.6-2.7 2.6c0 .03-1.7 0-1.7 0zm11.7 2c1.5 0 2.7-.9 2.7-2.9c0-2-1.2-2.9-2.7-2.9c.01-.03-1.5 0-1.5 0l0 5.8c0 0 1.5.04 1.5 0zm-3 1.4l0-8.6c0 0 3.06.05 3.1 0c2.3 0 4.1 1.6 4.1 4.3c0 2.7-1.9 4.3-4.2 4.3c.04-.05-3 0-3 0zm10-3.4c0 0 1.5-.2 1.5-.2c.3-.1.4-.2.4-.4c0-.5-.3-.9-1.1-.9c-.7 0-1.1.4-1.2 1c0 0-1.3-.3-1.3-.3c.2-1 1.1-1.9 2.5-1.9c1.8 0 2.5 1 2.5 2.2c0 0 0 2.9 0 2.9c0 .5.1.9.1 1c0 0-1.3 0-1.3 0c0-.1-.1-.3-.1-.8c-.3.5-.8.9-1.8.9c-1.2 0-2-.8-2-1.7c0-1.1.8-1.6 1.8-1.8zm1.9.9c.02.03 0-.2 0-.2c0 0-1.5.19-1.5.2c-.4.1-.8.3-.8.8c0 .4.3.7.9.7c.8 0 1.4-.3 1.4-1.5zm4.8-3.4l1.2 0l0 1.2l-1.2 0c0 0 .01 2.76 0 2.8c0 .5.2.7.8.7c.1 0 .4 0 .4-.1c0 0 0 1.2 0 1.2c0 0-.3.1-.8.1c-1.1 0-1.8-.6-1.8-1.7c.03-.01 0-3 0-3l-1 0l0-1.2c0 0 .25.01.3 0c.6 0 .9-.4.9-.9c-.05 0 0-.9 0-.9l1.2 0l0 1.8zm4.1 2.5c0 0 1.5-.2 1.5-.2c.3-.1.4-.2.4-.4c0-.5-.3-.9-1.1-.9c-.7 0-1.1.4-1.2 1c0 0-1.3-.3-1.3-.3c.1-1 1-1.9 2.5-1.9c1.8 0 2.5 1 2.5 2.2c0 0 0 2.9 0 2.9c0 .5 0 .9 0 1c0 0-1.3 0-1.3 0c0-.1 0-.3 0-.8c-.3.5-.9.9-1.8.9c-1.2 0-2-.8-2-1.7c0-1.1.8-1.6 1.8-1.8zm1.9.9c0 .03 0-.2 0-.2c0 0-1.53.19-1.5.2c-.5.1-.8.3-.8.8c0 .4.3.7.8.7c.8 0 1.5-.3 1.5-1.5zm7.4-.9c0 0 1.5-.2 1.5-.2c.4-.1.5-.2.5-.4c0-.5-.4-.9-1.1-.9c-.8 0-1.2.4-1.2 1c0 0-1.3-.3-1.3-.3c.1-1 1-1.9 2.4-1.9c1.8 0 2.5 1 2.5 2.2c0 0 0 2.9 0 2.9c0 .5.1.9.1 1c0 0-1.3 0-1.3 0c0-.1-.1-.3-.1-.8c-.2.5-.8.9-1.8.9c-1.2 0-1.9-.8-1.9-1.7c0-1.1.7-1.6 1.7-1.8zm2 .9c-.04.03 0-.2 0-.2c0 0-1.57.19-1.6.2c-.4.1-.7.3-.7.8c0 .4.3.7.8.7c.8 0 1.5-.3 1.5-1.5zm4.4 2.5l-1.4 0l0-5.9l1.4 0c0 0-.04.79 0 .8c.3-.7 1-1 1.7-1c1.4 0 2.1 1.1 2.1 2.4c0-.04 0 3.7 0 3.7l-1.4 0c0 0 .01-3.5 0-3.5c0-.7-.3-1.3-1.2-1.3c-.8 0-1.2.6-1.2 1.4c0-.02 0 3.4 0 3.4zm6.9-3.4c0 0 1.5-.2 1.5-.2c.3-.1.4-.2.4-.4c0-.5-.3-.9-1.1-.9c-.7 0-1.1.4-1.2 1c0 0-1.2-.3-1.2-.3c.1-1 1-1.9 2.4-1.9c1.8 0 2.5 1 2.5 2.2c0 0 0 2.9 0 2.9c0 .5.1.9.1 1c0 0-1.3 0-1.3 0c0-.1-.1-.3-.1-.8c-.3.5-.8.9-1.8.9c-1.2 0-2-.8-2-1.7c0-1.1.8-1.6 1.8-1.8zm1.9.9c.03.03 0-.2 0-.2c0 0-1.49.19-1.5.2c-.4.1-.8.3-.8.8c0 .4.3.7.9.7c.8 0 1.4-.3 1.4-1.5zm3.1 2.5l0-8.7l1.4 0l0 8.7l-1.4 0zm3.5 2.3l1.4-3l-2.5-5.2l1.5 0l1.7 3.7l1.6-3.7l1.5 0l-3.8 8.2l-1.4 0zm6.8-4.3c0 .6.4 1 1.2 1c.6 0 .9-.3.9-.6c0-.4-.3-.6-.7-.7c0 0-.9-.2-.9-.2c-1-.2-1.6-.9-1.6-1.7c0-1 1-1.9 2.2-1.9c1.6 0 2.1 1.1 2.2 1.7c0 0-1.1.3-1.1.3c-.1-.3-.3-.9-1.1-.9c-.5 0-.9.3-.9.7c0 .3.3.5.6.6c0 0 .9.2.9.2c1.1.2 1.7.9 1.7 1.8c0 .9-.7 1.8-2.2 1.8c-1.7 0-2.4-1.1-2.4-1.7c0 0 1.2-.4 1.2-.4zm6.5-3.9l1.2 0l0 1.2l-1.2 0c0 0 .04 2.76 0 2.8c0 .5.3.7.8.7c.2 0 .4 0 .5-.1c0 0 0 1.2 0 1.2c-.1 0-.4.1-.9.1c-1.1 0-1.7-.6-1.7-1.7c-.04-.01 0-3 0-3l-1.1 0l0-1.2c0 0 .28.01.3 0c.6 0 .9-.4.9-.9c-.02 0 0-.9 0-.9l1.2 0l0 1.8zm6.5 2.3c-.1-.7-.5-1.3-1.5-1.3c-.9 0-1.4.7-1.4 1.3c0 0 2.9 0 2.9 0zm1.3 1.9c-.3 1-1.2 1.8-2.6 1.8c-1.6 0-3-1.1-3-3.1c0-1.8 1.3-3.1 2.8-3.1c1.8 0 2.9 1.2 2.9 3.1c0 .2-.1.4-.1.4c0 0-4.2 0-4.2 0c0 .9.7 1.5 1.6 1.5c.8 0 1.2-.4 1.4-1c0 0 1.2.4 1.2.4z" stroke="none" fill="#9b78ef"/></g><g id="Polygon172083"><path d="m9.1 160.9c.9 0 1.5-.8 1.5-1.9c0-1.1-.6-1.8-1.5-1.8c-.9 0-1.6.7-1.6 1.8c0 1.2.6 1.9 1.6 1.9zm2.9 0c0 .5 0 1 0 1.1c0 0-1.3 0-1.3 0c0-.1-.1-.5-.1-.8c-.2.5-.9.9-1.7.9c-1.7 0-2.8-1.3-2.8-3.1c0-1.6 1.2-3 2.8-3c1 0 1.5.5 1.7.8c.01.02 0-3.5 0-3.5l1.4 0c0 0-.03 7.62 0 7.6zm2.2-7.5c.6 0 1 .4 1 1.1c0 1.6-1 2.2-1.8 2.2c0 0 0-.6 0-.6c.5-.1 1-.6 1-1.1c0 0-.1 0-.2 0c-.5 0-.9-.3-.9-.8c0-.4.4-.8.9-.8zm3.3 5.2c0 0 1.5-.2 1.5-.2c.3 0 .4-.2.4-.4c0-.5-.3-.9-1.1-.9c-.7 0-1.1.5-1.2 1.1c0 0-1.2-.3-1.2-.3c.1-1 1-1.9 2.4-1.9c1.8 0 2.5 1 2.5 2.1c0 0 0 2.9 0 2.9c0 .6.1.9.1 1c0 0-1.3 0-1.3 0c0-.1-.1-.3-.1-.8c-.2.5-.8 1-1.8 1c-1.2 0-1.9-.9-1.9-1.8c0-1 .7-1.6 1.7-1.8zm1.9 1c.05-.04 0-.3 0-.3c0 0-1.48.23-1.5.2c-.4.1-.8.3-.8.8c0 .4.3.8.9.8c.8 0 1.4-.4 1.4-1.5zm4-.5c0 1.1.8 1.8 1.6 1.8c1 0 1.4-.6 1.5-1.1c0 0 1.2.5 1.2.5c-.2.9-1.1 1.9-2.7 1.9c-1.7 0-3-1.4-3-3.1c0-1.8 1.3-3.1 3-3.1c1.6 0 2.4.9 2.7 1.9c0 0-1.3.4-1.3.4c-.1-.5-.5-1.1-1.4-1.1c-.8 0-1.6.7-1.6 1.9zm6.4 0c0 1.1.8 1.8 1.7 1.8c.9 0 1.3-.6 1.4-1.1c0 0 1.3.5 1.3.5c-.3.9-1.2 1.9-2.7 1.9c-1.7 0-3-1.4-3-3.1c0-1.8 1.3-3.1 2.9-3.1c1.6 0 2.5.9 2.7 1.9c0 0-1.2.4-1.2.4c-.2-.5-.6-1.1-1.4-1.1c-.9 0-1.7.7-1.7 1.9zm9.3 2.2c-.3.6-.9.9-1.6.9c-1.4 0-2.2-1.1-2.2-2.4c-.04.03 0-3.7 0-3.7l1.4 0c0 0-.05 3.47 0 3.5c0 .7.3 1.3 1.1 1.3c.8 0 1.3-.5 1.3-1.3c-.05 0 0-3.5 0-3.5l1.3 0c0 0 .04 4.82 0 4.8c0 .5.1.9.1 1.1c0 0-1.3 0-1.3 0c-.1-.1-.1-.4-.1-.7c0 0 0 0 0 0zm7-2.9c-.1-.7-.5-1.3-1.5-1.3c-.9 0-1.4.7-1.4 1.3c0 0 2.9 0 2.9 0zm1.3 1.9c-.3 1-1.3 1.9-2.7 1.9c-1.5 0-2.9-1.2-2.9-3.2c0-1.8 1.3-3 2.8-3c1.8 0 2.9 1.1 2.9 3c0 .2-.1.4-.1.4c0 0-4.3 0-4.3 0c.1.9.8 1.6 1.6 1.6c.9 0 1.3-.5 1.5-1.1c0 0 1.2.4 1.2.4zm1.4 1.7l0-5.9l1.4 0l0 5.9l-1.4 0zm.7-8.8c.5 0 .9.4.9.9c0 .5-.4.9-.9.9c-.5 0-.9-.4-.9-.9c0-.5.4-.9.9-.9zm2.5 8.8l0-8.7l1.4 0l0 8.7l-1.4 0z" stroke="none" fill="#9b78ef"/></g><g id="Polygon172082"><path d="m.5 144.7l0-1.2l3.4 0l0 1.2l-3.4 0zm10.7-4.3l0 7.2l-1.4 0l0-7.2l-2.8 0l0-1.3l7 0l0 1.3l-2.8 0zm6.9 2.6c.9 0 1.4-.5 1.4-1.3c0-.8-.5-1.4-1.4-1.4c-.02.05-1.5 0-1.5 0l0 2.7c0 0 1.48-.01 1.5 0zm-1.5 1.3l0 3.3l-1.5 0l0-8.5c0 0 3.2-.02 3.2 0c1.6 0 2.7 1.1 2.7 2.6c0 1.5-1.1 2.6-2.7 2.6c0-.04-1.7 0-1.7 0zm8.2-1c0-2.7 2.1-4.4 4.3-4.4c2.2 0 3.5 1.3 3.8 2.8c0 0-1.3.4-1.3.4c-.3-1-1.1-1.8-2.5-1.8c-1.4 0-2.8 1-2.8 3c0 2 1.4 3.1 2.8 3.1c1.5 0 2.3-.9 2.6-1.9c0 0 1.3.4 1.3.4c-.4 1.5-1.7 2.9-3.9 2.9c-2.3 0-4.3-1.7-4.3-4.5zm10.8 4.3l-1.4 0l0-8.7l1.4 0c0 0-.01 3.4 0 3.4c.4-.5 1-.7 1.7-.7c1.4 0 2.1 1 2.1 2.3c-.01-.01 0 3.7 0 3.7l-1.4 0c0 0 0-3.47 0-3.5c0-.7-.3-1.3-1.2-1.3c-.8 0-1.2.6-1.2 1.4c-.01-.05 0 3.4 0 3.4zm6.9-3.4c0 0 1.5-.2 1.5-.2c.3 0 .4-.2.4-.4c0-.5-.3-.9-1.1-.9c-.7 0-1.1.5-1.2 1.1c0 0-1.3-.3-1.3-.3c.2-1 1.1-1.9 2.5-1.9c1.8 0 2.5 1 2.5 2.1c0 0 0 2.9 0 2.9c0 .6.1.9.1 1c0 0-1.3 0-1.3 0c0-.1-.1-.3-.1-.8c-.3.5-.8 1-1.8 1c-1.2 0-2-.9-2-1.8c0-1 .8-1.6 1.8-1.8zm1.9 1c.02-.04 0-.3 0-.3c0 0-1.5.23-1.5.2c-.4.1-.8.3-.8.8c0 .4.3.8.9.8c.8 0 1.4-.4 1.4-1.5zm6.5-2.1c-.2 0-.3 0-.5 0c-1 0-1.5.6-1.5 1.7c-.04 0 0 2.8 0 2.8l-1.4 0l0-5.9l1.3 0c0 0 .03.98 0 1c.3-.7 1-1 1.7-1c.2 0 .3 0 .4 0c0 0 0 1.4 0 1.4zm2 4.5c.1.7.6 1.2 1.4 1.2c1.1 0 1.7-.5 1.7-1.7c0 0 0-.6 0-.6c-.3.4-.9.8-1.7.8c-1.6 0-2.7-1.2-2.7-2.8c0-1.6 1.1-2.9 2.7-2.9c.9 0 1.5.4 1.7.9c.02-.01 0-.8 0-.8l1.4 0c0 0-.04 5.33 0 5.3c0 1.6-.8 3-3 3c-1.6 0-2.7-.9-2.8-2.1c0 0 1.3-.3 1.3-.3zm3.1-3.1c0-1-.6-1.7-1.5-1.7c-.9 0-1.5.7-1.5 1.7c0 1 .6 1.6 1.5 1.6c.9 0 1.5-.6 1.5-1.6zm6-3.5l-1.2 0l1.1-1.8l1.6 0l-1.5 1.8zm.9 3c0-.7-.5-1.3-1.4-1.3c-.9 0-1.4.7-1.5 1.3c0 0 2.9 0 2.9 0zm1.3 1.9c-.3 1-1.2 1.9-2.6 1.9c-1.6 0-3-1.2-3-3.2c0-1.8 1.4-3 2.9-3c1.8 0 2.8 1.1 2.8 3c0 .2 0 .4 0 .4c0 0-4.3 0-4.3 0c0 .9.7 1.6 1.6 1.6c.8 0 1.3-.5 1.5-1.1c0 0 1.1.4 1.1.4z" stroke="none" fill="#9b78ef"/></g><g id="Polygon172081"><path d="m.5 124.6l0-1.2l3.4 0l0 1.2l-3.4 0zm10.7-4.2l0 7.1l-1.4 0l0-7.1l-2.8 0l0-1.4l7 0l0 1.4l-2.8 0zm6.9 2.5c.9 0 1.4-.5 1.4-1.3c0-.8-.5-1.3-1.4-1.3c-.02-.02-1.5 0-1.5 0l0 2.6c0 0 1.48.02 1.5 0zm-1.5 1.3l0 3.3l-1.5 0l0-8.5c0 0 3.2.01 3.2 0c1.6 0 2.7 1.1 2.7 2.6c0 1.5-1.1 2.6-2.7 2.6c0-.01-1.7 0-1.7 0zm13.8 1.2l-3.6 0l-.8 2.1l-1.6 0l3.4-8.5l1.6 0l3.3 8.5l-1.5 0l-.8-2.1zm-3.1-1.4l2.6 0l-1.3-3.4l-1.3 3.4zm9.5 2.2c1.5 0 2.7-1 2.7-2.9c0-2-1.2-3-2.7-3c.04.03-1.5 0-1.5 0l0 5.9c0 0 1.53 0 1.5 0zm-2.9 1.3l0-8.5c0 0 2.99.01 3 0c2.3 0 4.1 1.5 4.1 4.3c0 2.7-1.8 4.2-4.1 4.2c-.02.02-3 0-3 0zm13.8-8.5l1.5 0l-3.2 8.5l-1.5 0l-3.2-8.5l1.6 0l2.4 6.6l2.4-6.6zm2.6 8.5l0-8.5l5.3 0l0 1.4l-3.8 0l0 2.4l3.4 0l0 1.3l-3.4 0l0 3.4l-1.5 0z" stroke="none" fill="#9b78ef"/></g><g id="Polygon172080"><path d="m6.6 107.4l0-5.8l1.3 0c0 0 0 .75 0 .7c.3-.6 1.1-.9 1.7-.9c.8 0 1.5.4 1.8 1.1c.4-.8 1.1-1.1 1.9-1.1c1 0 2 .7 2 2.3c.04-.05 0 3.7 0 3.7l-1.3 0c0 0 0-3.52 0-3.5c0-.7-.4-1.2-1.1-1.2c-.8 0-1.2.6-1.2 1.3c-.04-.02 0 3.4 0 3.4l-1.4 0c0 0-.01-3.52 0-3.5c0-.7-.3-1.2-1.1-1.2c-.8 0-1.3.5-1.3 1.3c.05-.02 0 3.4 0 3.4l-1.3 0zm11.8-3.3c0 0 1.5-.2 1.5-.2c.4-.1.5-.2.5-.4c0-.5-.4-.9-1.1-.9c-.8 0-1.2.4-1.2 1c0 0-1.3-.3-1.3-.3c.1-1 1-1.9 2.5-1.9c1.8 0 2.4 1 2.4 2.2c0 0 0 2.9 0 2.9c0 .5.1.9.1.9c0 0-1.3 0-1.3 0c0 0 0-.2 0-.7c-.3.4-.9.9-1.8.9c-1.3 0-2-.8-2-1.7c0-1.1.8-1.7 1.7-1.8zm2 .9c-.02.02 0-.2 0-.2c0 0-1.54.19-1.5.2c-.5.1-.8.3-.8.8c0 .4.3.7.8.7c.8 0 1.5-.3 1.5-1.5zm6.4-2c-.1 0-.3-.1-.4-.1c-1.1 0-1.6.7-1.6 1.8c.02-.04 0 2.7 0 2.7l-1.4 0l0-5.8l1.4 0c0 0-.02.94 0 .9c.3-.6.9-1 1.7-1c.1 0 .3.1.3.1c0 0 0 1.4 0 1.4zm2.1 1.5c0 1.2.7 1.9 1.6 1.9c.9 0 1.4-.7 1.5-1.1c0 0 1.2.4 1.2.4c-.3.9-1.1 1.9-2.7 1.9c-1.7 0-3-1.3-3-3.1c0-1.8 1.3-3.1 3-3.1c1.6 0 2.4 1 2.7 1.9c0 0-1.3.5-1.3.5c-.1-.5-.5-1.1-1.4-1.1c-.9 0-1.6.6-1.6 1.8zm6.9 2.9l-1.4 0l0-8.6l1.4 0c0 0 .04 3.37 0 3.4c.4-.5 1.1-.8 1.7-.8c1.4 0 2.1 1.1 2.1 2.3c.04.05 0 3.7 0 3.7l-1.4 0c0 0 .05-3.41 0-3.4c0-.7-.3-1.3-1.2-1.3c-.7 0-1.1.6-1.2 1.3c.04.01 0 3.4 0 3.4zm6.9-3.3c0 0 1.5-.2 1.5-.2c.4-.1.5-.2.5-.4c0-.5-.4-.9-1.1-.9c-.8 0-1.2.4-1.2 1c0 0-1.3-.3-1.3-.3c.1-1 1-1.9 2.5-1.9c1.8 0 2.4 1 2.4 2.2c0 0 0 2.9 0 2.9c0 .5.1.9.1.9c0 0-1.3 0-1.3 0c0 0 0-.2 0-.7c-.3.4-.9.9-1.8.9c-1.3 0-2-.8-2-1.7c0-1.1.7-1.7 1.7-1.8zm2 .9c-.03.02 0-.2 0-.2c0 0-1.56.19-1.6.2c-.4.1-.7.3-.7.8c0 .4.3.7.8.7c.8 0 1.5-.3 1.5-1.5zm4.4 2.4l-1.4 0l0-5.8l1.4 0c0 0-.03.78 0 .8c.4-.7 1.1-1 1.7-1c1.4 0 2.1 1.1 2.1 2.3c.01.05 0 3.7 0 3.7l-1.4 0c0 0 .02-3.41 0-3.4c0-.7-.3-1.3-1.2-1.3c-.8 0-1.2.6-1.2 1.4c.01-.03 0 3.3 0 3.3zm7.3-5.8l1.2 0l0 1.2l-1.2 0c0 0-.03 2.75 0 2.8c0 .5.2.7.7.7c.2 0 .4-.1.5-.1c0 0 0 1.2 0 1.2c-.1 0-.4.1-.9.1c-1 0-1.7-.6-1.7-1.7c-.01-.02 0-3 0-3l-1.1 0l0-1.2c0 0 .31 0 .3 0c.6 0 .9-.4.9-.9c.01-.01 0-.9 0-.9l1.3 0l0 1.8z" stroke="none" fill="#9b78ef"/></g><g id="Polygon172079"><path d="m9.1 92c.9 0 1.5-.8 1.5-1.9c0-1.1-.6-1.8-1.5-1.8c-.9 0-1.6.7-1.6 1.8c0 1.1.6 1.9 1.6 1.9zm2.9 0c0 .5 0 .9 0 1c0 0-1.3 0-1.3 0c0-.1-.1-.5-.1-.7c-.2.5-.9.9-1.7.9c-1.7 0-2.8-1.3-2.8-3.1c0-1.7 1.2-3.1 2.8-3.1c1 0 1.5.5 1.7.9c.01-.01 0-3.5 0-3.5l1.4 0c0 0-.03 7.58 0 7.6zm2.2-7.6c.6 0 1 .5 1 1.2c0 1.5-1 2.1-1.8 2.2c0 0 0-.7 0-.7c.5-.1 1-.5 1-1.1c0 0-.1.1-.2.1c-.5 0-.9-.3-.9-.8c0-.5.4-.9.9-.9zm4.5 2.1l-1.2 0l1.1-1.8l1.6 0l-1.5 1.8zm.9 3c0-.7-.5-1.3-1.5-1.3c-.8 0-1.3.7-1.4 1.3c0 0 2.9 0 2.9 0zm1.3 1.9c-.3 1-1.2 1.8-2.6 1.8c-1.6 0-3-1.1-3-3.1c0-1.9 1.4-3.1 2.8-3.1c1.8 0 2.9 1.2 2.9 3.1c0 .2 0 .4 0 .4c0 0-4.3 0-4.3 0c0 .9.7 1.5 1.6 1.5c.8 0 1.3-.4 1.4-1c0 0 1.2.4 1.2.4zm3.2-4.2l1.2 0l0 1.2l-1.2 0c0 0-.01 2.75 0 2.8c0 .5.2.7.7.7c.2 0 .5-.1.5-.1c0 0 0 1.2 0 1.2c-.1 0-.3.1-.8.1c-1.1 0-1.8-.6-1.8-1.7c.01-.02 0-3 0-3l-1.1 0l0-1.2c0 0 .33 0 .3 0c.7 0 .9-.4.9-.9c.03-.01 0-.9 0-.9l1.3 0l0 1.8zm4 2.5c0 0 1.5-.2 1.5-.2c.4-.1.5-.2.5-.4c0-.5-.4-.9-1.1-.9c-.8 0-1.2.4-1.2 1c0 0-1.3-.3-1.3-.3c.1-1 1-1.9 2.5-1.9c1.8 0 2.4 1 2.4 2.2c0 0 0 2.9 0 2.9c0 .5.1.9.1.9c0 0-1.3 0-1.3 0c0 0 0-.2 0-.7c-.3.4-.9.9-1.8.9c-1.3 0-2-.8-2-1.7c0-1.1.7-1.7 1.7-1.8zm2 .9c-.02.02 0-.2 0-.2c0 0-1.55.19-1.5.2c-.5.1-.8.3-.8.8c0 .4.3.7.8.7c.8 0 1.5-.3 1.5-1.5zm3 2.4l0-8.6l1.4 0c0 0-.01 3.52 0 3.5c.3-.4.9-.9 1.8-.9c1.8 0 2.7 1.4 2.7 3.1c0 1.8-1 3.1-2.7 3.1c-.8 0-1.5-.4-1.8-.9c-.02-.03 0 .7 0 .7l-1.4 0zm3-4.7c-.9 0-1.6.6-1.6 1.8c0 1.2.7 1.9 1.6 1.9c.9 0 1.5-.7 1.5-1.9c0-1.2-.6-1.8-1.5-1.8zm4.3 4.7l0-8.6l1.4 0l0 8.6l-1.4 0zm3.2 0l0-5.8l1.3 0l0 5.8l-1.3 0zm.6-8.8c.6 0 1 .4 1 1c0 .5-.4.9-1 .9c-.4 0-.9-.4-.9-.9c0-.6.5-1 .9-1zm3.2 6.9c.1.6.5 1 1.2 1c.6 0 .9-.3.9-.6c0-.4-.2-.6-.7-.7c0 0-.8-.2-.8-.2c-1.1-.2-1.6-.9-1.6-1.7c0-1 .9-1.9 2.1-1.9c1.7 0 2.2 1.1 2.3 1.7c0 0-1.2.3-1.2.3c0-.3-.3-.9-1.1-.9c-.5 0-.8.3-.8.7c0 .3.2.5.6.6c0 0 .9.2.9.2c1.1.2 1.6.9 1.6 1.8c0 .8-.7 1.8-2.2 1.8c-1.7 0-2.3-1.1-2.4-1.7c0 0 1.2-.4 1.2-.4zm5.5 0c.1.6.5 1 1.2 1c.6 0 .9-.3.9-.6c0-.4-.2-.6-.7-.7c0 0-.9-.2-.9-.2c-1-.2-1.5-.9-1.5-1.7c0-1 .9-1.9 2.1-1.9c1.6 0 2.2 1.1 2.3 1.7c0 0-1.2.3-1.2.3c-.1-.3-.3-.9-1.1-.9c-.5 0-.8.3-.8.7c0 .3.2.5.6.6c0 0 .9.2.9.2c1.1.2 1.6.9 1.6 1.8c0 .8-.7 1.8-2.2 1.8c-1.7 0-2.3-1.1-2.4-1.7c0 0 1.2-.4 1.2-.4zm8.6-1.6c0-.7-.5-1.3-1.4-1.3c-.9 0-1.4.7-1.5 1.3c0 0 2.9 0 2.9 0zm1.3 1.9c-.3 1-1.2 1.8-2.6 1.8c-1.6 0-3-1.1-3-3.1c0-1.9 1.4-3.1 2.9-3.1c1.8 0 2.8 1.2 2.8 3.1c0 .2 0 .4 0 .4c0 0-4.3 0-4.3 0c0 .9.7 1.5 1.6 1.5c.8 0 1.3-.4 1.5-1c0 0 1.1.4 1.1.4zm1.5 1.6l0-5.8l1.3 0c0 0-.02.75 0 .7c.3-.6 1.1-.9 1.7-.9c.8 0 1.5.4 1.8 1.1c.4-.8 1.1-1.1 1.9-1.1c1 0 2 .7 2 2.3c.02-.05 0 3.7 0 3.7l-1.3 0c0 0-.02-3.52 0-3.5c0-.7-.4-1.2-1.1-1.2c-.8 0-1.3.6-1.3 1.3c.04-.02 0 3.4 0 3.4l-1.3 0c0 0-.03-3.52 0-3.5c0-.7-.4-1.2-1.2-1.2c-.7 0-1.2.5-1.2 1.3c.03-.02 0 3.4 0 3.4l-1.3 0zm14.3-3.5c-.1-.7-.5-1.3-1.5-1.3c-.8 0-1.4.7-1.4 1.3c0 0 2.9 0 2.9 0zm1.3 1.9c-.3 1-1.2 1.8-2.6 1.8c-1.6 0-3-1.1-3-3.1c0-1.9 1.3-3.1 2.8-3.1c1.8 0 2.9 1.2 2.9 3.1c0 .2-.1.4-.1.4c0 0-4.2 0-4.2 0c0 .9.7 1.5 1.6 1.5c.8 0 1.2-.4 1.4-1c0 0 1.2.4 1.2.4zm2.8 1.6l-1.4 0l0-5.8l1.4 0c0 0-.04.78 0 .8c.3-.7 1-1 1.7-1c1.4 0 2.1 1.1 2.1 2.3c0 .05 0 3.7 0 3.7l-1.4 0c0 0 .01-3.41 0-3.4c0-.7-.3-1.3-1.2-1.3c-.8 0-1.2.6-1.2 1.4c0-.03 0 3.3 0 3.3zm7.3-5.8l1.2 0l0 1.2l-1.2 0c0 0-.04 2.75 0 2.8c0 .5.2.7.7.7c.2 0 .4-.1.5-.1c0 0 0 1.2 0 1.2c-.1 0-.4.1-.9.1c-1.1 0-1.7-.6-1.7-1.7c-.02-.02 0-3 0-3l-1.1 0l0-1.2c0 0 .3 0 .3 0c.6 0 .9-.4.9-.9c0-.01 0-.9 0-.9l1.3 0l0 1.8z" stroke="none" fill="#9b78ef"/></g><g id="Polygon172078"><path d="m.5 75.8l0-1.3l3.4 0l0 1.3l-3.4 0zm10.7-4.3l0 7.1l-1.4 0l0-7.1l-2.8 0l0-1.4l7 0l0 1.4l-2.8 0zm6.9 2.6c.9 0 1.4-.6 1.4-1.4c0-.8-.5-1.3-1.4-1.3c-.02.01-1.5 0-1.5 0l0 2.7c0 0 1.48-.05 1.5 0zm-1.5 1.2l0 3.3l-1.5 0l0-8.5c0 0 3.2.04 3.2 0c1.6 0 2.7 1.1 2.7 2.6c0 1.5-1.1 2.6-2.7 2.6c0 .02-1.7 0-1.7 0zm16.7 3.3l0-6.2l-2.7 6.2l-1.2 0l-2.7-6.2l0 6.2l-1.4 0l0-8.5l2 0l2.7 6.5l2.7-6.5l2 0l0 8.5l-1.4 0zm4.7-3.3c0 0 1.5-.2 1.5-.2c.3-.1.4-.2.4-.4c0-.5-.3-.9-1.1-.9c-.7 0-1.1.4-1.2 1c0 0-1.3-.3-1.3-.3c.2-1 1.1-1.9 2.5-1.9c1.8 0 2.5 1 2.5 2.2c0 0 0 2.9 0 2.9c0 .5.1.9.1.9c0 0-1.3 0-1.3 0c0 0-.1-.2-.1-.7c-.3.4-.8.9-1.8.9c-1.2 0-2-.8-2-1.7c0-1.1.8-1.7 1.8-1.8zm1.9.9c.02.02 0-.2 0-.2c0 0-1.5.19-1.5.2c-.4.1-.8.3-.8.8c0 .4.3.7.9.7c.8 0 1.4-.3 1.4-1.5zm4.5 2.4l-1.4 0l0-5.8l1.3 0c0 0 .03.78 0 .8c.4-.7 1.1-1 1.8-1c1.4 0 2.1 1.1 2.1 2.3c-.03.05 0 3.7 0 3.7l-1.4 0c0 0-.02-3.41 0-3.4c0-.7-.3-1.3-1.2-1.3c-.8 0-1.2.6-1.2 1.4c-.04-.03 0 3.3 0 3.3zm6.9-3.3c0 0 1.5-.2 1.5-.2c.3-.1.4-.2.4-.4c0-.5-.3-.9-1.1-.9c-.7 0-1.1.4-1.2 1c0 0-1.3-.3-1.3-.3c.1-1 1-1.9 2.5-1.9c1.8 0 2.5 1 2.5 2.2c0 0 0 2.9 0 2.9c0 .5 0 .9 0 .9c0 0-1.3 0-1.3 0c0 0 0-.2 0-.7c-.3.4-.9.9-1.8.9c-1.2 0-2-.8-2-1.7c0-1.1.8-1.7 1.8-1.8zm1.9.9c0 .02 0-.2 0-.2c0 0-1.53.19-1.5.2c-.5.1-.8.3-.8.8c0 .4.3.7.8.7c.8 0 1.5-.3 1.5-1.5zm3.9 2.4c.1.8.7 1.3 1.5 1.3c1.1 0 1.6-.6 1.6-1.8c0 0 0-.6 0-.6c-.2.5-.8.9-1.7.9c-1.5 0-2.7-1.2-2.7-2.9c0-1.5 1.1-2.8 2.7-2.8c.9 0 1.5.4 1.8.8c-.05.05 0-.7 0-.7l1.3 0c0 0-.01 5.29 0 5.3c0 1.6-.8 3-3 3c-1.6 0-2.6-1-2.8-2.1c0 0 1.3-.4 1.3-.4zm3.2-3.1c0-1-.7-1.6-1.5-1.6c-.9 0-1.6.6-1.6 1.6c0 1.1.6 1.7 1.6 1.7c.8 0 1.5-.7 1.5-1.7zm6.8-.4c0-.7-.4-1.3-1.4-1.3c-.9 0-1.4.7-1.4 1.3c0 0 2.8 0 2.8 0zm1.4 1.9c-.3 1-1.3 1.8-2.7 1.8c-1.6 0-3-1.1-3-3.1c0-1.9 1.4-3.1 2.9-3.1c1.8 0 2.8 1.2 2.8 3.1c0 .2 0 .4 0 .4c0 0-4.3 0-4.3 0c.1.9.8 1.5 1.6 1.5c.9 0 1.3-.4 1.5-1c0 0 1.2.4 1.2.4zm4.8-2.8c-.2 0-.3-.1-.5-.1c-1 0-1.5.7-1.5 1.8c-.03-.04 0 2.7 0 2.7l-1.4 0l0-5.8l1.3 0c0 0 .03.94 0 .9c.3-.6 1-1 1.7-1c.2 0 .3.1.4.1c0 0 0 1.4 0 1.4z" stroke="none" fill="#9b78ef"/></g><g id="Polygon172077"><path d="m9.6 58.6l-1.4 0l-2.4-5.9l1.5 0l1.6 4.2l1.5-4.2l1.4 0l-2.2 5.9zm6.9-3.6c0-.7-.5-1.3-1.4-1.3c-.9 0-1.4.7-1.4 1.3c0 0 2.8 0 2.8 0zm1.4 1.9c-.4 1-1.3 1.9-2.7 1.9c-1.6 0-3-1.2-3-3.2c0-1.8 1.4-3 2.9-3c1.8 0 2.8 1.1 2.8 3c0 .2 0 .4 0 .4c0 0-4.3 0-4.3 0c.1.9.8 1.6 1.6 1.6c.9 0 1.3-.5 1.5-1.1c0 0 1.2.4 1.2.4zm2.8 1.7l-1.4 0l0-5.9l1.3 0c0 0 .02.81 0 .8c.4-.7 1.1-.9 1.7-.9c1.5 0 2.2 1 2.2 2.3c-.04-.02 0 3.7 0 3.7l-1.4 0c0 0-.03-3.48 0-3.5c0-.7-.4-1.3-1.2-1.3c-.8 0-1.2.6-1.2 1.4c-.04 0 0 3.4 0 3.4zm7.2-5.9l1.2 0l0 1.3l-1.2 0c0 0 .02 2.68 0 2.7c0 .5.2.7.8.7c.2 0 .4 0 .4 0c0 0 0 1.1 0 1.1c0 .1-.3.1-.8.1c-1.1 0-1.8-.6-1.8-1.7c.04.01 0-2.9 0-2.9l-1 0l0-1.3c0 0 .26.03.3 0c.6 0 .9-.4.9-.9c-.04.02 0-.9 0-.9l1.2 0l0 1.8zm6.4 2.3c0-.7-.4-1.3-1.4-1.3c-.9 0-1.4.7-1.4 1.3c0 0 2.8 0 2.8 0zm1.4 1.9c-.3 1-1.3 1.9-2.7 1.9c-1.6 0-3-1.2-3-3.2c0-1.8 1.4-3 2.9-3c1.8 0 2.8 1.1 2.8 3c0 .2 0 .4 0 .4c0 0-4.3 0-4.3 0c.1.9.8 1.6 1.6 1.6c.9 0 1.3-.5 1.5-1.1c0 0 1.2.4 1.2.4z" stroke="none" fill="#9b78ef"/></g><g id="Polygon172076"><path d="m.5 41.3l0-1.3l3.4 0l0 1.3l-3.4 0zm10.7-4.3l0 7.2l-1.4 0l0-7.2l-2.8 0l0-1.3l7 0l0 1.3l-2.8 0zm6.9 2.6c.9 0 1.4-.5 1.4-1.3c0-.8-.5-1.4-1.4-1.4c-.02.04-1.5 0-1.5 0l0 2.7c0 0 1.48-.02 1.5 0zm-1.5 1.3l0 3.3l-1.5 0l0-8.5c0 0 3.2-.03 3.2 0c1.6 0 2.7 1.1 2.7 2.6c0 1.5-1.1 2.6-2.7 2.6c0-.05-1.7 0-1.7 0zm8.2-1c0-2.7 2.1-4.4 4.3-4.4c2.2 0 3.5 1.3 3.8 2.7c0 0-1.3.5-1.3.5c-.3-1-1.1-1.9-2.5-1.9c-1.4 0-2.8 1.1-2.8 3.1c0 2 1.4 3.1 2.8 3.1c1.5 0 2.3-.9 2.6-1.9c0 0 1.3.4 1.3.4c-.4 1.5-1.7 2.9-3.9 2.9c-2.3 0-4.3-1.7-4.3-4.5zm13.5 1.3c0-1.2-.8-1.8-1.6-1.8c-.9 0-1.7.6-1.7 1.8c0 1.3.8 1.9 1.7 1.9c.8 0 1.6-.6 1.6-1.9zm1.4 0c0 1.8-1.3 3.2-3 3.2c-1.8 0-3.1-1.4-3.1-3.2c0-1.7 1.3-3 3.1-3c1.7 0 3 1.3 3 3zm2.7 3l-1.3 0l0-5.9l1.3 0c0 0 .01.81 0 .8c.4-.7 1.1-.9 1.7-.9c1.5 0 2.1 1 2.1 2.3c.05-.02 0 3.7 0 3.7l-1.3 0c0 0-.04-3.48 0-3.5c0-.7-.4-1.3-1.2-1.3c-.8 0-1.3.6-1.3 1.4c.04 0 0 3.4 0 3.4zm6.2-1.9c.1.5.5 1 1.2 1c.6 0 .9-.4.9-.7c0-.3-.2-.6-.7-.7c0 0-.8-.2-.8-.2c-1.1-.2-1.6-.9-1.6-1.7c0-1 .9-1.8 2.1-1.8c1.7 0 2.2 1 2.3 1.6c0 0-1.2.3-1.2.3c0-.3-.3-.9-1.1-.9c-.5 0-.8.4-.8.7c0 .3.2.6.6.6c0 0 .9.2.9.2c1.1.2 1.6.9 1.6 1.8c0 .9-.7 1.9-2.2 1.9c-1.7 0-2.3-1.1-2.4-1.8c0 0 1.2-.3 1.2-.3zm8.6-1.7c0-.7-.5-1.3-1.4-1.3c-.9 0-1.4.7-1.4 1.3c0 0 2.8 0 2.8 0zm1.4 1.9c-.4 1-1.3 1.9-2.7 1.9c-1.6 0-3-1.2-3-3.2c0-1.8 1.4-3 2.9-3c1.8 0 2.8 1.1 2.8 3c0 .2 0 .4 0 .4c0 0-4.3 0-4.3 0c.1.9.8 1.6 1.6 1.6c.9 0 1.3-.5 1.5-1.1c0 0 1.2.4 1.2.4zm1.4 1.7l0-5.9l1.3 0l0 5.9l-1.3 0zm.6-8.8c.6 0 1 .4 1 .9c0 .5-.4.9-1 .9c-.4 0-.9-.4-.9-.9c0-.5.5-.9.9-.9zm2.5 8.8l0-8.7l1.4 0l0 8.7l-1.4 0zm3.2 0l0-8.7l1.4 0l0 8.7l-1.4 0zm7.1-3.6c-.1-.7-.5-1.3-1.5-1.3c-.8 0-1.4.7-1.4 1.3c0 0 2.9 0 2.9 0zm1.3 1.9c-.3 1-1.2 1.9-2.6 1.9c-1.6 0-3-1.2-3-3.2c0-1.8 1.3-3 2.8-3c1.8 0 2.9 1.1 2.9 3c0 .2-.1.4-.1.4c0 0-4.2 0-4.2 0c0 .9.7 1.6 1.6 1.6c.8 0 1.2-.5 1.4-1.1c0 0 1.2.4 1.2.4zm4.8-2.8c-.1 0-.3 0-.4 0c-1.1 0-1.6.6-1.6 1.7c-.01-.01 0 2.8 0 2.8l-1.4 0l0-5.9l1.4 0c0 0-.04.97 0 1c.2-.7.9-1 1.7-1c.1 0 .3 0 .3 0c0 0 0 1.4 0 1.4zm6.6 3.4c1 0 1.6-.8 1.6-1.9c0-1.1-.6-1.8-1.5-1.8c-1 0-1.6.7-1.6 1.8c0 1.2.6 1.9 1.5 1.9zm2.9 0c0 .5.1 1 .1 1.1c0 0-1.3 0-1.3 0c-.1-.2-.1-.5-.1-.8c-.3.5-.9.9-1.7.9c-1.7 0-2.8-1.3-2.8-3.1c0-1.6 1.1-3 2.8-3c1 0 1.5.4 1.7.8c-.02.02 0-3.5 0-3.5l1.3 0c0 0 .04 7.61 0 7.6zm5.7-2.5c0-.7-.5-1.3-1.4-1.3c-.9 0-1.4.7-1.5 1.3c0 0 2.9 0 2.9 0zm1.3 1.9c-.3 1-1.2 1.9-2.6 1.9c-1.6 0-3-1.2-3-3.2c0-1.8 1.4-3 2.9-3c1.8 0 2.8 1.1 2.8 3c0 .2 0 .4 0 .4c0 0-4.3 0-4.3 0c0 .9.7 1.6 1.6 1.6c.8 0 1.3-.5 1.5-1.1c0 0 1.1.4 1.1.4z" stroke="none" fill="#9b78ef"/></g><g id="Polygon172075"><path d="m6.2 19.9c0-2.8 2-4.5 4.3-4.5c2.1 0 3.4 1.3 3.8 2.8c0 0-1.4.4-1.4.4c-.2-1-1-1.8-2.4-1.8c-1.4 0-2.9 1-2.9 3.1c0 2 1.4 3 2.9 3c1.4 0 2.2-.9 2.5-1.9c0 0 1.3.5 1.3.5c-.4 1.4-1.7 2.8-3.8 2.8c-2.3 0-4.3-1.7-4.3-4.4zm13.5 1.3c0-1.2-.8-1.9-1.7-1.9c-.8 0-1.6.7-1.6 1.9c0 1.2.8 1.8 1.6 1.8c.9 0 1.7-.6 1.7-1.8zm1.4 0c0 1.8-1.3 3.1-3.1 3.1c-1.7 0-3-1.3-3-3.1c0-1.8 1.3-3.1 3-3.1c1.8 0 3.1 1.3 3.1 3.1zm1.3 2.9l0-5.8l1.3 0c0 0 .03.71 0 .7c.4-.6 1.1-.9 1.8-.9c.7 0 1.4.3 1.7 1c.5-.7 1.1-1 1.9-1c1.1 0 2.1.7 2.1 2.2c-.03.02 0 3.8 0 3.8l-1.4 0c0 0 .03-3.56 0-3.6c0-.6-.3-1.2-1.1-1.2c-.7 0-1.2.6-1.2 1.3c-.02.04 0 3.5 0 3.5l-1.4 0c0 0 .02-3.56 0-3.6c0-.6-.3-1.2-1.1-1.2c-.8 0-1.2.6-1.2 1.3c-.02.04 0 3.5 0 3.5l-1.4 0zm10.5 0l0-5.8l1.3 0c0 0 0 .71 0 .7c.3-.6 1.1-.9 1.7-.9c.8 0 1.5.3 1.8 1c.4-.7 1.1-1 1.9-1c1 0 2 .7 2 2.2c.04.02 0 3.8 0 3.8l-1.3 0c0 0 0-3.56 0-3.6c0-.6-.3-1.2-1.1-1.2c-.8 0-1.2.6-1.2 1.3c-.04.04 0 3.5 0 3.5l-1.4 0c0 0-.01-3.56 0-3.6c0-.6-.3-1.2-1.1-1.2c-.8 0-1.2.6-1.2 1.3c-.05.04 0 3.5 0 3.5l-1.4 0zm14.3-3.6c0-.6-.5-1.3-1.5-1.3c-.8 0-1.3.7-1.4 1.3c0 0 2.9 0 2.9 0zm1.3 1.9c-.3 1.1-1.2 1.9-2.6 1.9c-1.6 0-3-1.2-3-3.1c0-1.9 1.4-3.1 2.8-3.1c1.8 0 2.9 1.2 2.9 3c0 .2 0 .4 0 .5c0 0-4.3 0-4.3 0c0 .9.7 1.5 1.6 1.5c.8 0 1.3-.5 1.4-1c0 0 1.2.3 1.2.3zm4.8-2.8c-.1 0-.3 0-.4 0c-1.1 0-1.6.6-1.6 1.7c.02.02 0 2.8 0 2.8l-1.4 0l0-5.8l1.4 0c0 0-.02.9 0 .9c.3-.6.9-1 1.7-1c.1 0 .3 0 .3 0c0 0 0 1.4 0 1.4zm2.1 1.6c0 1.2.7 1.8 1.6 1.8c.9 0 1.3-.6 1.5-1.1c0 0 1.2.5 1.2.5c-.3.9-1.1 1.9-2.7 1.9c-1.7 0-3-1.3-3-3.1c0-1.8 1.3-3.1 3-3.1c1.6 0 2.4 1 2.7 1.9c0 0-1.3.5-1.3.5c-.1-.6-.5-1.1-1.4-1.1c-.9 0-1.6.6-1.6 1.8zm5.5 2.9l0-5.8l1.4 0l0 5.8l-1.4 0zm.7-8.8c.5 0 .9.4.9.9c0 .5-.4.9-.9.9c-.5 0-.9-.4-.9-.9c0-.5.4-.9.9-.9zm3.9 5.5c0 0 1.5-.3 1.5-.3c.4 0 .5-.2.5-.4c0-.5-.4-.9-1.1-.9c-.8 0-1.2.5-1.2 1.1c0 0-1.3-.3-1.3-.3c.1-1 1-1.9 2.4-1.9c1.8 0 2.5 1 2.5 2.2c0 0 0 2.9 0 2.9c0 .5.1.8.1.9c0 0-1.3 0-1.3 0c0 0-.1-.3-.1-.7c-.2.4-.8.9-1.8.9c-1.2 0-1.9-.9-1.9-1.8c0-1 .7-1.6 1.7-1.7zm2 .9c-.04-.02 0-.3 0-.3c0 0-1.57.25-1.6.2c-.4.1-.7.4-.7.8c0 .4.3.8.8.8c.8 0 1.5-.4 1.5-1.5zm3 2.4l0-8.7l1.4 0l0 8.7l-1.4 0z" stroke="none" fill="#9b78ef"/></g><g id="Polygon172074"><path d="m.5 6.8l0-1.2l3.4 0l0 1.2l-3.4 0zm10.7-4.2l0 7.1l-1.4 0l0-7.1l-2.8 0l0-1.4l7 0l0 1.4l-2.8 0zm6.9 2.5c.9 0 1.4-.5 1.4-1.3c0-.8-.5-1.3-1.4-1.3c-.02-.03-1.5 0-1.5 0l0 2.6c0 0 1.48.01 1.5 0zm-1.5 1.3l0 3.3l-1.5 0l0-8.5c0 0 3.2 0 3.2 0c1.6 0 2.7 1.1 2.7 2.6c0 1.5-1.1 2.6-2.7 2.6c0-.02-1.7 0-1.7 0zm8.7 3.3l0-8.5l5.3 0l0 1.3l-3.8 0l0 2.3l3.4 0l0 1.3l-3.4 0l0 2.3l3.8 0l0 1.3l-5.3 0zm6.8 0l0-5.8l1.3 0c0 0 .02.71 0 .7c.4-.6 1.1-.9 1.7-.9c.8 0 1.5.3 1.8 1c.5-.7 1.1-1 1.9-1c1.1 0 2.1.7 2.1 2.2c-.04.02 0 3.8 0 3.8l-1.4 0c0 0 .02-3.56 0-3.6c0-.6-.3-1.2-1.1-1.2c-.7 0-1.2.6-1.2 1.3c-.03.04 0 3.5 0 3.5l-1.4 0c0 0 .01-3.56 0-3.6c0-.6-.3-1.2-1.1-1.2c-.8 0-1.2.6-1.2 1.3c-.03.04 0 3.5 0 3.5l-1.4 0zm10.5 2.3l0-8.1l1.3 0c0 0 .01.76 0 .8c.3-.5 1-1 1.9-1c1.7 0 2.7 1.4 2.7 3.1c0 1.7-1.1 3.1-2.8 3.1c-.8 0-1.5-.4-1.8-.9c.04.05 0 3 0 3l-1.3 0zm4.5-5.2c0-1.1-.7-1.8-1.6-1.8c-.9 0-1.6.7-1.6 1.8c0 1.1.7 1.8 1.6 1.8c.9 0 1.6-.7 1.6-1.8c0 0 0 0 0 0zm2.7 2.9l0-8.7l1.4 0l0 8.7l-1.4 0zm7.4-2.9c0-1.2-.8-1.9-1.6-1.9c-.9 0-1.7.7-1.7 1.9c0 1.2.8 1.8 1.7 1.8c.8 0 1.6-.6 1.6-1.8zm1.4 0c0 1.8-1.3 3.1-3 3.1c-1.8 0-3.1-1.3-3.1-3.1c0-1.8 1.3-3.1 3.1-3.1c1.7 0 3 1.3 3 3.1zm1.4 5.3l1.4-3.1l-2.5-5.1l1.6 0l1.6 3.7l1.6-3.7l1.5 0l-3.7 8.2l-1.5 0zm8.8-9l-1.1 0l1.1-1.7l1.6 0l-1.6 1.7zm1 3c0-.6-.5-1.3-1.5-1.3c-.8 0-1.3.7-1.4 1.3c0 0 2.9 0 2.9 0zm1.3 1.9c-.3 1.1-1.2 1.9-2.6 1.9c-1.6 0-3-1.2-3-3.1c0-1.9 1.4-3.1 2.8-3.1c1.8 0 2.9 1.2 2.9 3c0 .2 0 .4-.1.5c0 0-4.2 0-4.2 0c0 .9.7 1.5 1.6 1.5c.8 0 1.2-.5 1.4-1c0 0 1.2.3 1.2.3z" stroke="none" fill="#9b78ef"/></g></svg>