<?xml version="1.0" standalone="no"?><!DOCTYPE svg PUBLIC "-//W3C//DTD SVG 1.1//EN" "http://www.w3.org/Graphics/SVG/1.1/DTD/svg11.dtd"><svg xmlns="http://www.w3.org/2000/svg" version="1.1" width="87.3px" height="174.1px" viewBox="0 -26 87.3 174.1" style="top:-26px"><desc>“</desc><defs/><g id="Polygon170612"><path d="m23 3.4c-8.3 4.4-13.4 13.4-14.2 18.8c0 0 .5 0 .5 0c1.1-2.6 3-4 6.2-4c3.5 0 8.7 3.6 8.7 10.4c0 5.8-4.4 10.2-10.2 10.2c-7.7 0-10.8-6-10.8-12.4c0-5.1 2.6-16.5 19.8-25c0 0 0 2 0 2zm24 0c-8.4 4.4-13.5 13.4-14.3 18.8c0 0 .6 0 .6 0c1-2.6 3-4 6.1-4c3.6 0 8.7 3.6 8.7 10.4c0 5.8-4.3 10.2-10.1 10.2c-7.8 0-10.9-6-10.9-12.4c0-5.1 2.7-16.5 19.9-25c0 0 0 2 0 2z" stroke="none" fill="#144542"/></g></svg>