<?xml version="1.0" standalone="no"?><!DOCTYPE svg PUBLIC "-//W3C//DTD SVG 1.1//EN" "http://www.w3.org/Graphics/SVG/1.1/DTD/svg11.dtd"><svg xmlns="http://www.w3.org/2000/svg" version="1.1" width="27px" height="20.6px" viewBox="0 -3 27 20.6" style="top:-3px"><desc>19 %</desc><defs/><g id="Polygon166911"><path d="m2.5 10.9l0-6.1l-2.2 0c0 0 .04-.98 0-1c1.3 0 2.1-.7 2.3-1.6c-.01-.03 1.2 0 1.2 0l0 8.7l-1.3 0zm3.5-1.4c.3.2 1 .4 1.6.4c2.1 0 2.9-1.4 3-3.1c-.3.6-1.1 1.2-2.3 1.2c-1.5 0-3-1.1-3-3c0-1.8 1.5-3 3.2-3c1.7 0 3.4 1.2 3.4 4c0 3.2-1.4 5.1-4.3 5.1c-.7 0-1.6-.2-2.1-.5c0 0 .5-1.1.5-1.1zm2.5-6.4c-.9 0-1.9.7-1.9 1.9c0 1.2.9 1.8 1.9 1.8c1 0 1.9-.7 1.9-1.8c0-1.2-.9-1.9-1.9-1.9zm8.2 2.2c.6 0 1-.5 1-1.1c0-.6-.4-1.1-1-1.1c-.6 0-1.1.5-1.1 1.1c0 .6.5 1.1 1.1 1.1zm0-3.2c1.1 0 2.1.9 2.1 2.1c0 1.2-1 2.1-2.1 2.1c-1.2 0-2.2-.9-2.2-2.1c0-1.2 1-2.1 2.2-2.1zm5.3 7.9c.6 0 1-.5 1-1.1c0-.6-.4-1.1-1-1.1c-.6 0-1 .5-1 1.1c0 .6.4 1.1 1 1.1zm0-3.2c1.2 0 2.2.9 2.2 2.1c0 1.2-1 2.1-2.2 2.1c-1.2 0-2.2-.9-2.2-2.1c0-1.2 1-2.1 2.2-2.1zm-6.4 4.1l6.3-8.7l1.2 0l-6.3 8.7l-1.2 0z" stroke="none" fill="#3b6966"/></g></svg>