<?xml version="1.0" standalone="no"?><!DOCTYPE svg PUBLIC "-//W3C//DTD SVG 1.1//EN" "http://www.w3.org/Graphics/SVG/1.1/DTD/svg11.dtd"><svg xmlns="http://www.w3.org/2000/svg" version="1.1" width="67px" height="23.8px" viewBox="0 -3 67 23.8" style="top:-3px"><desc>niveau 1</desc><defs/><g id="Polygon169004"><path d="m.7 8.2l0-1.2l3.9 0l0 1.2l-3.9 0zm13.2 3.5l-3.9-5.8l0 5.8l-.9 0l0-7.2l1.3 0l3.6 5.6l0-5.6l1 0l0 7.2l-1.1 0zm2.9 0l0-7.2l1 0l0 7.2l-1 0zm7.4-7.2l1.1 0l-2.8 7.2l-1 0l-2.7-7.2l1.1 0l2.2 6l2.1-6zm2.1 7.2l0-7.2l4.4 0l0 1l-3.4 0l0 2.2l3.1 0l0 .9l-3.1 0l0 2.2l3.4 0l0 .9l-4.4 0zm10.1-2l-3.2 0l-.7 2l-1.1 0l2.8-7.2l1.2 0l2.9 7.2l-1.1 0l-.8-2zm-2.8-.9l2.4 0l-1.2-3.2l-1.2 3.2zm5.4.5c.02-.03 0-4.8 0-4.8l1 0c0 0 .01 4.74 0 4.7c0 1.1.6 1.8 1.6 1.8c1 0 1.6-.7 1.6-1.8c0 .04 0-4.7 0-4.7l1 0c0 0-.01 4.77 0 4.8c0 1.7-1.1 2.6-2.6 2.6c-1.5 0-2.6-.9-2.6-2.6zm12.3 2.4l0-6.6l-2.3 0c0 0 0-1 0-1c1.3 0 2.2-.7 2.4-1.8c.02.04 1.3 0 1.3 0l0 9.4l-1.4 0z" stroke="none" fill="#9b78ef"/></g></svg>