<?xml version="1.0" standalone="no"?><!DOCTYPE svg PUBLIC "-//W3C//DTD SVG 1.1//EN" "http://www.w3.org/Graphics/SVG/1.1/DTD/svg11.dtd"><svg xmlns="http://www.w3.org/2000/svg" version="1.1" width="136px" height="61.6px" viewBox="0 -9 136 61.6" style="top:-9px"><desc>4,5/5</desc><defs/><g id="Polygon174131"><path d="m45.6 25.7l-2.5 0l0 7.6l-5.5 0l0-7.6l-9.7 0l15.2-18.7l0 15.2l4.1 0l-1.6 3.5zm-8-3.5l0-7.2l-5.8 7.2l5.8 0zm11.3 8.4c2.6-1.3 4.1-4 4.4-5.7c0 0-.2 0-.2 0c-.3.8-.9 1.2-1.9 1.2c-1 0-2.6-1-2.6-3.1c0-1.8 1.3-3.1 3.1-3.1c2.3 0 3.3 1.8 3.3 3.8c0 1.5-.8 5-6.1 7.5c0 0 0-.6 0-.6zm23.7-6.1c0 3.9-3.2 9.2-9.1 9.2c-5.7 0-7.2-2.9-7.2-5.4c0-2 1.4-3.6 2.8-3.6c1.4 0 2.9.8 2.7 2.8c-.1 1.2-1.1 1.6-1.1 2.8c0 1.7 1.1 2.5 2.7 2.5c2.4 0 4.2-1.9 4.6-5.5c.4-4.3-2.1-6.6-5-6.6c-2.3 0-3.6.9-4.8 2c.02-.04-.6 0-.6 0l2.5-14.3c0 0 7.33.05 7.3 0c2.1 0 4-.6 4.8-2.1c-.04.01.5 0 .5 0l-1.9 7.3l-10.9 0c0 0-1.06 6.33-1.1 6.3c1.8-2.4 4.1-3.2 6.7-3.2c4.7 0 7.1 4 7.1 7.8zm5.2-1.8l6.5-13.1l4.2-8.7l1.4 0l-4.8 9l-6.7 13.2l-3.7 8.1l-1.5 0l4.6-8.5zm28.7 1.8c0 3.9-3.2 9.2-9.1 9.2c-5.7 0-7.2-2.9-7.2-5.4c0-2 1.4-3.6 2.8-3.6c1.4 0 2.9.8 2.7 2.8c-.1 1.2-1.1 1.6-1.1 2.8c0 1.7 1.1 2.5 2.7 2.5c2.4 0 4.2-1.9 4.6-5.5c.4-4.3-2.1-6.6-5-6.6c-2.3 0-3.6.9-4.8 2c.02-.04-.6 0-.6 0l2.5-14.3c0 0 7.33.05 7.3 0c2.1 0 4-.6 4.8-2.1c-.04.01.5 0 .5 0l-1.9 7.3l-10.9 0c0 0-1.06 6.33-1.1 6.3c1.8-2.4 4.1-3.2 6.7-3.2c4.7 0 7.1 4 7.1 7.8z" stroke="none" fill="#144542"/></g></svg>