<?xml version="1.0" standalone="no"?><!DOCTYPE svg PUBLIC "-//W3C//DTD SVG 1.1//EN" "http://www.w3.org/Graphics/SVG/1.1/DTD/svg11.dtd"><svg xmlns="http://www.w3.org/2000/svg" version="1.1" width="291px" height="67px" viewBox="0 -3 291 67" style="top:-3px"><desc>2# Offrir des formations individualis es qui r pondent aux attentes des b n ficiaires tout en assurant leur ad quatio...</desc><defs/><g id="Polygon185453"><path d="m1 58.9l0-7.4l1 0l0 6.4l3.5 0l0 1l-4.5 0zm5.4-7.5c.4 0 .8.3.8.9c0 1.3-.9 1.8-1.5 1.9c0 0 0-.5 0-.5c.5-.1.8-.6.8-1.1c0 0-.1.1-.2.1c-.4 0-.7-.3-.7-.7c0-.3.4-.6.8-.6zm2.2 7.5l0-7.4l4.5 0l0 .9l-3.5 0l0 2.3l3.2 0l0 1l-3.2 0l0 2.2l3.5 0l0 1l-4.5 0zm13.2 0l0-5.8l-2.5 5.8l-1 0l-2.5-5.8l0 5.8l-1 0l0-7.4l1.4 0l2.6 6l2.7-6l1.3 0l0 7.4l-1 0zm5.5-4c.9 0 1.5-.5 1.5-1.2c0-.8-.6-1.3-1.5-1.3c.04-.03-1.5 0-1.5 0l0 2.5c0 0 1.54.03 1.5 0zm-1.5.9l0 3.1l-1 0l0-7.4c0 0 2.73-.05 2.7 0c1.4 0 2.3.9 2.3 2.2c0 1.2-.9 2.1-2.3 2.1c.03.05-1.7 0-1.7 0zm5.4 3.1l0-7.4l1 0l0 6.4l3.5 0l0 1l-4.5 0zm8.8-.8c1.3 0 2.6-1 2.6-2.9c0-2-1.3-3-2.6-3c-1.4 0-2.7 1-2.7 3c0 1.9 1.3 2.9 2.7 2.9zm0-6.8c1.8 0 3.7 1.4 3.7 3.9c0 2.5-1.9 3.9-3.7 3.9c-1.9 0-3.8-1.4-3.8-3.9c0-2.5 1.9-3.9 3.8-3.9zm5.2 7.6l0-7.4l1.1 0l0 7.4l-1.1 0zm5.7 0l0-7.4l4.5 0l0 .9l-3.5 0l0 2.4l3.2 0l0 1l-3.2 0l0 3.1l-1 0zm8-3.1l-1.1 0l0 3.1l-1 0l0-7.4c0 0 2.78-.05 2.8 0c1.4 0 2.3.9 2.3 2.2c0 1-.7 1.9-1.9 2.1c.05-.02 1.8 3.1 1.8 3.1l-1.2 0l-1.7-3.1zm.5-.9c.8 0 1.4-.5 1.4-1.2c0-.8-.6-1.3-1.4-1.3c-.01-.03-1.6 0-1.6 0l0 2.5c0 0 1.59.03 1.6 0zm8.3 1.9l-3.3 0l-.8 2.1l-1.1 0l2.9-7.4l1.2 0l3 7.4l-1.1 0l-.8-2.1zm-3-.9l2.6 0l-1.3-3.4l-1.3 3.4zm11.1 3l-4-6.1l0 6.1l-1.1 0l0-7.4l1.4 0l3.7 5.7l0-5.7l1.1 0l0 7.4l-1.1 0zm5.7.6c0 0 .28-.46.3-.5c-1.8-.1-3.4-1.5-3.4-3.8c0-2.5 1.8-3.9 3.7-3.9c1.7 0 2.9.9 3.3 2.4c0 0-1 .3-1 .3c-.3-1.1-1.1-1.8-2.3-1.8c-1.4 0-2.7 1-2.7 3c0 1.9 1.3 2.9 2.7 2.9c1.2 0 2.1-.8 2.4-1.8c0 0 .9.4.9.4c-.4 1.2-1.4 2.2-2.9 2.3c0 0-.2.4-.2.4c.6 0 1 .3 1 .8c0 .5-.4 1-1.2 1c-.5 0-.9-.2-1.2-.5c0 0 .4-.5.4-.5c.2.2.4.4.8.4c.2 0 .5-.1.5-.4c0-.2-.2-.3-.5-.3c-.1 0-.2 0-.3.1c.01-.05-.3-.5-.3-.5zm9.5-2.7l-3.3 0l-.8 2.1l-1.1 0l3-7.4l1.1 0l3 7.4l-1.1 0l-.8-2.1zm-2.9-.9l2.5 0l-1.3-3.4l-1.2 3.4zm6 3l0-7.4l1 0l0 7.4l-1 0zm6.8-5.4c-.1-.6-.5-1.3-1.6-1.3c-.8 0-1.4.5-1.4 1.2c0 .6.3 1 1 1.1c0 0 1.1.3 1.1.3c1.2.2 1.9 1 1.9 2c0 1.2-1 2.3-2.6 2.3c-1.8 0-2.6-1.2-2.7-2.3c0 0 .9-.3.9-.3c.1.9.7 1.6 1.8 1.6c1.1 0 1.6-.5 1.6-1.2c0-.5-.4-1-1.2-1.1c0 0-1-.3-1-.3c-1.1-.2-1.8-.9-1.8-2c0-1.2 1.1-2.2 2.4-2.2c1.7 0 2.4 1 2.5 1.8c0 0-.9.4-.9.4zm3 4c.4 0 .7.3.7.7c0 .4-.3.7-.7.7c-.4 0-.7-.3-.7-.7c0-.4.3-.7.7-.7z" stroke="none" fill="#9b78ef"/></g><g id="Polygon185452"><path d="m.5 42.6c0-2.5 1.9-3.9 3.7-3.9c1.7 0 2.9.9 3.3 2.4c0 0-1 .3-1 .3c-.2-1.1-1.1-1.8-2.3-1.8c-1.3 0-2.6 1-2.6 3c0 1.9 1.3 2.9 2.6 2.9c1.3 0 2.1-.8 2.4-1.8c0 0 .9.4.9.4c-.4 1.4-1.6 2.4-3.3 2.4c-1.9 0-3.7-1.4-3.7-3.9zm11.6 2.9c1.4 0 2.7-1 2.7-2.9c0-2-1.3-3-2.7-3c-1.3 0-2.7 1-2.7 3c0 1.9 1.4 2.9 2.7 2.9zm0-6.8c1.9 0 3.8 1.4 3.8 3.9c0 2.5-1.9 3.9-3.8 3.9c-1.8 0-3.7-1.4-3.7-3.9c0-2.5 1.9-3.9 3.7-3.9zm12.3 7.6l0-5.8l-2.5 5.8l-1 0l-2.5-5.8l0 5.8l-1 0l0-7.4l1.4 0l2.6 6l2.7-6l1.3 0l0 7.4l-1 0zm5.6-4c.8 0 1.4-.5 1.4-1.2c0-.8-.6-1.3-1.4-1.3c-.04-.03-1.5 0-1.5 0l0 2.5c0 0 1.46.03 1.5 0zm-1.5.9l0 3.1l-1.1 0l0-7.4c0 0 2.75-.05 2.7 0c1.4 0 2.3.9 2.3 2.2c0 1.2-.9 2.1-2.3 2.1c.05.05-1.6 0-1.6 0zm5.3 3.1l0-7.4l4.5 0l0 .9l-3.5 0l0 2.3l3.2 0l0 1l-3.2 0l0 2.2l3.5 0l0 1l-4.5 0zm2.5-8l-1 0l1.1-1.2l1.3 0l-1.4 1.2zm6.4 1.5l0 6.5l-1 0l0-6.5l-2.5 0l0-.9l6 0l0 .9l-2.5 0zm3.6 6.5l0-7.4l4.6 0l0 .9l-3.5 0l0 2.3l3.1 0l0 1l-3.1 0l0 2.2l3.5 0l0 1l-4.6 0zm11.3 0l-4-6.1l0 6.1l-1.1 0l0-7.4l1.4 0l3.7 5.7l0-5.7l1.1 0l0 7.4l-1.1 0zm2.6-3.7c0-2.5 1.8-3.9 3.7-3.9c1.7 0 2.9.9 3.3 2.4c0 0-1 .3-1 .3c-.3-1.1-1.1-1.8-2.3-1.8c-1.4 0-2.7 1-2.7 3c0 1.9 1.3 2.9 2.7 2.9c1.3 0 2-.8 2.4-1.8c0 0 .9.4.9.4c-.4 1.4-1.6 2.4-3.3 2.4c-1.9 0-3.7-1.4-3.7-3.9zm8.4 3.7l0-7.4l4.6 0l0 .9l-3.5 0l0 2.3l3.1 0l0 1l-3.1 0l0 2.2l3.5 0l0 1l-4.6 0zm10.1-5.4c-.1-.6-.6-1.3-1.6-1.3c-.9 0-1.4.5-1.4 1.2c0 .6.3 1 .9 1.1c0 0 1.1.3 1.1.3c1.3.2 2 1 2 2c0 1.2-1 2.3-2.6 2.3c-1.8 0-2.7-1.2-2.8-2.3c0 0 1-.3 1-.3c.1.9.6 1.6 1.8 1.6c1 0 1.5-.5 1.5-1.2c0-.5-.4-1-1.1-1.1c0 0-1.1-.3-1.1-.3c-1-.2-1.8-.9-1.8-2c0-1.2 1.1-2.2 2.5-2.2c1.6 0 2.3 1 2.5 1.8c0 0-.9.4-.9.4zm7.3 2.3l-1.2 0l0 3.1l-1 0l0-7.4c0 0 2.8-.05 2.8 0c1.4 0 2.3.9 2.3 2.2c0 1-.7 1.9-1.8 2.1c-.02-.02 1.7 3.1 1.7 3.1l-1.1 0l-1.7-3.1zm.4-.9c.9 0 1.4-.5 1.4-1.2c0-.8-.5-1.3-1.4-1.3c.01-.03-1.6 0-1.6 0l0 2.5c0 0 1.61.03 1.6 0zm4 4l0-7.4l4.5 0l0 .9l-3.5 0l0 2.3l3.2 0l0 1l-3.2 0l0 2.2l3.5 0l0 1l-4.5 0zm5.7-3.7c0-2.5 1.8-3.9 3.7-3.9c1.7 0 2.9.9 3.3 2.4c0 0-1 .3-1 .3c-.3-1.1-1.1-1.8-2.3-1.8c-1.4 0-2.7 1-2.7 3c0 1.9 1.3 2.9 2.7 2.9c1.2 0 2-.8 2.4-1.8c0 0 .9.4.9.4c-.4 1.4-1.6 2.4-3.3 2.4c-1.9 0-3.7-1.4-3.7-3.9zm13.3 3.7l0-3.3l-3.8 0l0 3.3l-1.1 0l0-7.4l1.1 0l0 3.1l3.8 0l0-3.1l1 0l0 7.4l-1 0zm3 0l0-7.4l4.5 0l0 .9l-3.5 0l0 2.3l3.2 0l0 1l-3.2 0l0 2.2l3.5 0l0 1l-4.5 0zm8.3-3.1l-1.1 0l0 3.1l-1 0l0-7.4c0 0 2.8-.05 2.8 0c1.4 0 2.3.9 2.3 2.2c0 1-.7 1.9-1.8 2.1c-.03-.02 1.7 3.1 1.7 3.1l-1.2 0l-1.7-3.1zm.5-.9c.9 0 1.4-.5 1.4-1.2c0-.8-.5-1.3-1.4-1.3c.01-.03-1.6 0-1.6 0l0 2.5c0 0 1.61.03 1.6 0zm3.5.3c0-2.5 1.8-3.9 3.7-3.9c1.7 0 2.9.9 3.2 2.4c0 0-.9.3-.9.3c-.3-1.1-1.1-1.8-2.3-1.8c-1.4 0-2.7 1-2.7 3c0 1.9 1.3 2.9 2.7 2.9c1.2 0 2-.8 2.3-1.8c0 0 1 .4 1 .4c-.4 1.4-1.6 2.4-3.3 2.4c-2 0-3.7-1.4-3.7-3.9zm13.3 3.7l0-3.3l-3.8 0l0 3.3l-1.1 0l0-7.4l1.1 0l0 3.1l3.8 0l0-3.1l1 0l0 7.4l-1 0zm3 0l0-7.4l4.5 0l0 .9l-3.5 0l0 2.3l3.2 0l0 1l-3.2 0l0 2.2l3.5 0l0 1l-4.5 0zm2.5-8l-1 0l1.1-1.2l1.3 0l-1.4 1.2zm3.7 8l0-7.4l4.5 0l0 .9l-3.5 0l0 2.3l3.2 0l0 1l-3.2 0l0 2.2l3.5 0l0 1l-4.5 0zm10-5.4c-.1-.6-.5-1.3-1.6-1.3c-.8 0-1.4.5-1.4 1.2c0 .6.3 1 1 1.1c0 0 1.1.3 1.1.3c1.2.2 1.9 1 1.9 2c0 1.2-1 2.3-2.6 2.3c-1.8 0-2.6-1.2-2.8-2.3c0 0 1-.3 1-.3c.1.9.7 1.6 1.8 1.6c1 0 1.6-.5 1.6-1.2c0-.5-.4-1-1.2-1.1c0 0-1-.3-1-.3c-1.1-.2-1.8-.9-1.8-2c0-1.2 1-2.2 2.4-2.2c1.7 0 2.4 1 2.5 1.8c0 0-.9.4-.9.4zm9 0c-.1-.6-.6-1.3-1.6-1.3c-.8 0-1.4.5-1.4 1.2c0 .6.3 1 .9 1.1c0 0 1.1.3 1.1.3c1.3.2 2 1 2 2c0 1.2-1 2.3-2.6 2.3c-1.8 0-2.7-1.2-2.8-2.3c0 0 1-.3 1-.3c.1.9.6 1.6 1.8 1.6c1 0 1.5-.5 1.5-1.2c0-.5-.4-1-1.1-1.1c0 0-1.1-.3-1.1-.3c-1-.2-1.8-.9-1.8-2c0-1.2 1.1-2.2 2.5-2.2c1.7 0 2.3 1 2.5 1.8c0 0-.9.4-.9.4zm2.3 2.9c.02-.05 0-4.9 0-4.9l1 0c0 0 .04 4.82 0 4.8c0 1.2.7 1.8 1.7 1.8c1 0 1.6-.6 1.6-1.8c.05.02 0-4.8 0-4.8l1.1 0c0 0-.02 4.85 0 4.9c0 1.7-1.2 2.7-2.7 2.7c-1.5 0-2.7-1-2.7-2.7zm9.4-.6l-1.1 0l0 3.1l-1 0l0-7.4c0 0 2.77-.05 2.8 0c1.4 0 2.2.9 2.2 2.2c0 1-.6 1.9-1.8 2.1c.04-.02 1.8 3.1 1.8 3.1l-1.2 0l-1.7-3.1zm.5-.9c.8 0 1.4-.5 1.4-1.2c0-.8-.6-1.3-1.4-1.3c-.02-.03-1.6 0-1.6 0l0 2.5c0 0 1.58.03 1.6 0zm6.6 4l0-7.4l1 0l0 6.4l3.5 0l0 1l-4.5 0zm5.9 0l0-7.4l4.5 0l0 .9l-3.5 0l0 2.3l3.2 0l0 1l-3.2 0l0 2.2l3.5 0l0 1l-4.5 0zm15.8 0l0-5.8l-2.5 5.8l-1 0l-2.5-5.8l0 5.8l-1 0l0-7.4l1.4 0l2.6 6l2.7-6l1.3 0l0 7.4l-1 0zm7.4-2.1l-3.3 0l-.8 2.1l-1.1 0l2.9-7.4l1.2 0l3 7.4l-1.1 0l-.8-2.1zm-3-.9l2.6 0l-1.3-3.4l-1.3 3.4zm8.2-.1l-1.1 0l0 3.1l-1.1 0l0-7.4c0 0 2.85-.05 2.9 0c1.4 0 2.2.9 2.2 2.2c0 1-.7 1.9-1.8 2.1c.02-.02 1.8 3.1 1.8 3.1l-1.2 0l-1.7-3.1zm.5-.9c.8 0 1.4-.5 1.4-1.2c0-.8-.6-1.3-1.4-1.3c-.04-.03-1.6 0-1.6 0l0 2.5c0 0 1.56.03 1.6 0zm3.4.3c0-2.5 1.9-3.9 3.7-3.9c1.7 0 2.9.9 3.3 2.4c0 0-1 .3-1 .3c-.2-1.1-1.1-1.8-2.3-1.8c-1.3 0-2.6 1-2.6 3c0 1.9 1.3 2.9 2.6 2.9c1.3 0 2.1-.8 2.4-1.8c0 0 .9.4.9.4c-.4 1.4-1.6 2.4-3.3 2.4c-1.9 0-3.7-1.4-3.7-3.9zm13.3 3.7l0-3.3l-3.8 0l0 3.3l-1 0l0-7.4l1 0l0 3.1l3.8 0l0-3.1l1 0l0 7.4l-1 0zm3 0l0-7.4l4.6 0l0 .9l-3.5 0l0 2.3l3.1 0l0 1l-3.1 0l0 2.2l3.5 0l0 1l-4.6 0zm2.5-8l-1 0l1.1-1.2l1.4 0l-1.5 1.2zm8.9 7.1c1.4 0 2.5-.9 2.5-2.8c0-1.9-1.1-2.8-2.5-2.8c.03-.04-1.5 0-1.5 0l0 5.6c0 0 1.51-.02 1.5 0zm-2.5.9l0-7.4c0 0 2.57-.05 2.6 0c1.9 0 3.5 1.2 3.5 3.7c0 2.4-1.7 3.7-3.6 3.7c.05-.01-2.5 0-2.5 0zm7.6 0l0-7.4l4.6 0l0 .9l-3.5 0l0 2.3l3.1 0l0 1l-3.1 0l0 2.2l3.5 0l0 1l-4.6 0z" stroke="none" fill="#9b78ef"/></g><g id="Polygon185451"><path d="m3.7 27.2l0 6.5l-1.1 0l0-6.5l-2.4 0l0-.9l6 0l0 .9l-2.5 0zm6.6 5.7c1.4 0 2.7-1 2.7-2.9c0-2-1.3-3-2.7-3c-1.4 0-2.7 1-2.7 3c0 1.9 1.3 2.9 2.7 2.9zm0-6.8c1.9 0 3.8 1.4 3.8 3.9c0 2.5-1.9 3.9-3.8 3.9c-1.8 0-3.7-1.4-3.7-3.9c0-2.5 1.9-3.9 3.7-3.9zm5.2 5.1c-.02-.05 0-4.9 0-4.9l1 0c0 0-.01 4.82 0 4.8c0 1.2.6 1.8 1.7 1.8c1 0 1.6-.6 1.6-1.8c0 .02 0-4.8 0-4.8l1 0c0 0 .03 4.85 0 4.9c0 1.7-1.1 2.7-2.6 2.7c-1.6 0-2.7-1-2.7-2.7zm9.9-4l0 6.5l-1 0l0-6.5l-2.5 0l0-.9l6 0l0 .9l-2.5 0zm6.3 6.5l0-7.4l4.5 0l0 .9l-3.5 0l0 2.3l3.2 0l0 1l-3.2 0l0 2.2l3.5 0l0 1l-4.5 0zm11.2 0l-4-6.1l0 6.1l-1 0l0-7.4l1.3 0l3.8 5.7l0-5.7l1 0l0 7.4l-1.1 0zm10.1-2.1l-3.3 0l-.8 2.1l-1.1 0l2.9-7.4l1.2 0l3 7.4l-1.1 0l-.8-2.1zm-3-.9l2.6 0l-1.3-3.4l-1.3 3.4zm9.8-2.4c-.1-.6-.6-1.3-1.6-1.3c-.9 0-1.5.5-1.5 1.2c0 .6.4 1 1 1.1c0 0 1.1.3 1.1.3c1.2.2 1.9 1 1.9 2c0 1.2-.9 2.3-2.5 2.3c-1.8 0-2.7-1.2-2.8-2.3c0 0 1-.3 1-.3c0 .9.6 1.6 1.8 1.6c1 0 1.5-.5 1.5-1.2c0-.5-.4-1-1.1-1.1c0 0-1.1-.3-1.1-.3c-1-.2-1.8-.9-1.8-2c0-1.2 1.1-2.2 2.5-2.2c1.6 0 2.3 1 2.5 1.8c0 0-.9.4-.9.4zm6.3 0c-.1-.6-.5-1.3-1.6-1.3c-.8 0-1.4.5-1.4 1.2c0 .6.3 1 .9 1.1c0 0 1.1.3 1.1.3c1.3.2 2 1 2 2c0 1.2-1 2.3-2.6 2.3c-1.8 0-2.6-1.2-2.8-2.3c0 0 1-.3 1-.3c.1.9.7 1.6 1.8 1.6c1 0 1.5-.5 1.5-1.2c0-.5-.3-1-1.1-1.1c0 0-1.1-.3-1.1-.3c-1-.2-1.8-.9-1.8-2c0-1.2 1.1-2.2 2.5-2.2c1.7 0 2.3 1 2.5 1.8c0 0-.9.4-.9.4zm2.3 2.9c.04-.05 0-4.9 0-4.9l1.1 0c0 0-.04 4.82 0 4.8c0 1.2.6 1.8 1.6 1.8c1.1 0 1.7-.6 1.7-1.8c-.04.02 0-4.8 0-4.8l1 0c0 0-.01 4.85 0 4.9c0 1.7-1.2 2.7-2.7 2.7c-1.5 0-2.7-1-2.7-2.7zm9.4-.6l-1.1 0l0 3.1l-1 0l0-7.4c0 0 2.79-.05 2.8 0c1.4 0 2.3.9 2.3 2.2c0 1-.7 1.9-1.8 2.1c-.04-.02 1.7 3.1 1.7 3.1l-1.2 0l-1.7-3.1zm.5-.9c.8 0 1.4-.5 1.4-1.2c0-.8-.6-1.3-1.4-1.3c0-.03-1.6 0-1.6 0l0 2.5c0 0 1.6.03 1.6 0zm8.3 1.9l-3.3 0l-.8 2.1l-1.1 0l3-7.4l1.1 0l3 7.4l-1.1 0l-.8-2.1zm-2.9-.9l2.5 0l-1.3-3.4l-1.2 3.4zm11 3l-4-6.1l0 6.1l-1 0l0-7.4l1.3 0l3.8 5.7l0-5.7l1 0l0 7.4l-1.1 0zm5.8-6.5l0 6.5l-1.1 0l0-6.5l-2.5 0l0-.9l6 0l0 .9l-2.4 0zm6.2 6.5l0-7.4l1 0l0 6.4l3.6 0l0 1l-4.6 0zm5.9 0l0-7.4l4.5 0l0 .9l-3.5 0l0 2.3l3.2 0l0 1l-3.2 0l0 2.2l3.5 0l0 1l-4.5 0zm6.1-2.5c-.02-.05 0-4.9 0-4.9l1 0c0 0 0 4.82 0 4.8c0 1.2.6 1.8 1.7 1.8c1 0 1.6-.6 1.6-1.8c.01.02 0-4.8 0-4.8l1 0c0 0 .03 4.85 0 4.9c0 1.7-1.1 2.7-2.6 2.7c-1.6 0-2.7-1-2.7-2.7zm9.4-.6l-1.1 0l0 3.1l-1.1 0l0-7.4c0 0 2.83-.05 2.8 0c1.4 0 2.3.9 2.3 2.2c0 1-.7 1.9-1.8 2.1c0-.02 1.8 3.1 1.8 3.1l-1.2 0l-1.7-3.1zm.4-.9c.9 0 1.4-.5 1.4-1.2c0-.8-.5-1.3-1.4-1.3c.04-.03-1.5 0-1.5 0l0 2.5c0 0 1.54.03 1.5 0zm11 1.9l-3.3 0l-.8 2.1l-1.1 0l3-7.4l1.2 0l2.9 7.4l-1.1 0l-.8-2.1zm-2.9-.9l2.5 0l-1.3-3.4l-1.2 3.4zm8.5 2.1c1.4 0 2.6-.9 2.6-2.8c0-1.9-1.2-2.8-2.6-2.8c.05-.04-1.5 0-1.5 0l0 5.6c0 0 1.53-.02 1.5 0zm-2.5.9l0-7.4c0 0 2.58-.05 2.6 0c1.9 0 3.5 1.2 3.5 3.7c0 2.4-1.6 3.7-3.5 3.7c-.04-.01-2.6 0-2.6 0zm7.6 0l0-7.4l4.6 0l0 .9l-3.5 0l0 2.3l3.1 0l0 1l-3.1 0l0 2.2l3.5 0l0 1l-4.6 0zm2.5-8l-.9 0l1-1.2l1.4 0l-1.5 1.2zm7 .4c1.8 0 3.7 1.4 3.7 3.9c0 1.1-.4 2.1-1.1 2.7c.05.02.9 1 .9 1l-.7.6c0 0-.89-.98-.9-1c-.6.4-1.3.6-1.9.6c-1.9 0-3.8-1.4-3.8-3.9c0-2.5 1.9-3.9 3.8-3.9zm0 6.8c.4 0 .9-.1 1.3-.3c-.04-.02-1.3-1.5-1.3-1.5l.7-.6c0 0 1.29 1.48 1.3 1.5c.4-.5.6-1.2.6-2c0-2-1.3-3-2.6-3c-1.4 0-2.7 1-2.7 3c0 1.9 1.3 2.9 2.7 2.9zm5.1-1.7c.02-.05 0-4.9 0-4.9l1 0c0 0 .03 4.82 0 4.8c0 1.2.7 1.8 1.7 1.8c1 0 1.6-.6 1.6-1.8c.04.02 0-4.8 0-4.8l1.1 0c0 0-.03 4.85 0 4.9c0 1.7-1.2 2.7-2.7 2.7c-1.5 0-2.7-1-2.7-2.7zm11.3.4l-3.3 0l-.8 2.1l-1.1 0l3-7.4l1.2 0l2.9 7.4l-1.1 0l-.8-2.1zm-2.9-.9l2.5 0l-1.3-3.4l-1.2 3.4zm8-3.5l0 6.5l-1.1 0l0-6.5l-2.5 0l0-.9l6.1 0l0 .9l-2.5 0zm3.6 6.5l0-7.4l1.1 0l0 7.4l-1.1 0zm6.3-.8c1.4 0 2.7-1 2.7-2.9c0-2-1.3-3-2.7-3c-1.4 0-2.7 1-2.7 3c0 1.9 1.3 2.9 2.7 2.9zm0-6.8c1.9 0 3.8 1.4 3.8 3.9c0 2.5-1.9 3.9-3.8 3.9c-1.9 0-3.7-1.4-3.7-3.9c0-2.5 1.8-3.9 3.7-3.9zm10.3 7.6l-4-6.1l0 6.1l-1 0l0-7.4l1.4 0l3.7 5.7l0-5.7l1 0l0 7.4l-1.1 0zm10.1-2.1l-3.3 0l-.8 2.1l-1.1 0l2.9-7.4l1.2 0l3 7.4l-1.1 0l-.8-2.1zm-3-.9l2.6 0l-1.3-3.4l-1.3 3.4zm10.2-4.4l1.1 0l-2.9 7.4l-1 0l-2.8-7.4l1.1 0l2.3 6.1l2.2-6.1zm2.3 7.4l0-7.4l4.5 0l0 .9l-3.5 0l0 2.3l3.2 0l0 1l-3.2 0l0 2.2l3.5 0l0 1l-4.5 0zm5.6-3.7c0-2.5 1.9-3.9 3.7-3.9c1.7 0 2.9.9 3.3 2.4c0 0-.9.3-.9.3c-.3-1.1-1.1-1.8-2.4-1.8c-1.3 0-2.6 1-2.6 3c0 1.9 1.3 2.9 2.6 2.9c1.3 0 2.1-.8 2.4-1.8c0 0 .9.4.9.4c-.4 1.4-1.5 2.4-3.3 2.4c-1.9 0-3.7-1.4-3.7-3.9zm11.1 3.7l0-7.4l1.1 0l0 6.4l3.5 0l0 1l-4.6 0zm5.9 0l0-7.4l4.5 0l0 .9l-3.5 0l0 2.3l3.2 0l0 1l-3.2 0l0 2.2l3.5 0l0 1l-4.5 0zm10-5.4c-.1-.6-.5-1.3-1.6-1.3c-.8 0-1.4.5-1.4 1.2c0 .6.3 1 1 1.1c0 0 1.1.3 1.1.3c1.2.2 1.9 1 1.9 2c0 1.2-1 2.3-2.6 2.3c-1.8 0-2.6-1.2-2.8-2.3c0 0 1-.3 1-.3c.1.9.7 1.6 1.8 1.6c1 0 1.6-.5 1.6-1.2c0-.5-.4-1-1.2-1.1c0 0-1-.3-1-.3c-1.1-.2-1.8-.9-1.8-2c0-1.2 1-2.2 2.4-2.2c1.7 0 2.4 1 2.5 1.8c0 0-.9.4-.9.4z" stroke="none" fill="#9b78ef"/></g><g id="Polygon185450"><path d="m3.1 18l-1.1 0l0 3.1l-1 0l0-7.4c0 0 2.8-.05 2.8 0c1.4 0 2.3.9 2.3 2.2c0 1-.7 1.9-1.8 2.1c-.03-.02 1.7 3.1 1.7 3.1l-1.1 0l-1.8-3.1zm.5-.9c.9 0 1.4-.5 1.4-1.2c0-.8-.5-1.3-1.4-1.3c.01-.03-1.6 0-1.6 0l0 2.5c0 0 1.61.03 1.6 0zm4 4l0-7.4l4.5 0l0 .9l-3.5 0l0 2.3l3.2 0l0 1l-3.2 0l0 2.2l3.5 0l0 1l-4.5 0zm2.5-8l-1 0l1.1-1.2l1.3 0l-1.4 1.2zm6.2 4c.9 0 1.5-.5 1.5-1.2c0-.8-.6-1.3-1.5-1.3c.03-.03-1.5 0-1.5 0l0 2.5c0 0 1.53.03 1.5 0zm-1.5.9l0 3.1l-1 0l0-7.4c0 0 2.72-.05 2.7 0c1.4 0 2.3.9 2.3 2.2c0 1.2-.9 2.1-2.3 2.1c.02.05-1.7 0-1.7 0zm8.6 2.3c1.4 0 2.7-1 2.7-2.9c0-2-1.3-3-2.7-3c-1.3 0-2.6 1-2.6 3c0 1.9 1.3 2.9 2.6 2.9zm0-6.8c1.9 0 3.8 1.4 3.8 3.9c0 2.5-1.9 3.9-3.8 3.9c-1.8 0-3.7-1.4-3.7-3.9c0-2.5 1.9-3.9 3.7-3.9zm10.4 7.6l-4.1-6.1l0 6.1l-1 0l0-7.4l1.4 0l3.7 5.7l0-5.7l1 0l0 7.4l-1 0zm5.6-.9c1.3 0 2.5-.9 2.5-2.8c0-1.9-1.1-2.8-2.5-2.8c-.01-.04-1.5 0-1.5 0l0 5.6c0 0 1.47-.02 1.5 0zm-2.6.9l0-7.4c0 0 2.63-.05 2.6 0c1.9 0 3.6 1.2 3.6 3.7c0 2.4-1.7 3.7-3.6 3.7c.01-.01-2.6 0-2.6 0zm7.7 0l0-7.4l4.5 0l0 .9l-3.5 0l0 2.3l3.2 0l0 1l-3.2 0l0 2.2l3.5 0l0 1l-4.5 0zm11.2 0l-4-6.1l0 6.1l-1 0l0-7.4l1.4 0l3.7 5.7l0-5.7l1 0l0 7.4l-1.1 0zm5.8-6.5l0 6.5l-1 0l0-6.5l-2.5 0l0-.9l6 0l0 .9l-2.5 0zm10.6 4.4l-3.3 0l-.8 2.1l-1.1 0l3-7.4l1.2 0l2.9 7.4l-1.1 0l-.8-2.1zm-2.9-.9l2.5 0l-1.3-3.4l-1.2 3.4zm5.7.5c.02-.05 0-4.9 0-4.9l1 0c0 0 .03 4.82 0 4.8c0 1.2.7 1.8 1.7 1.8c1 0 1.6-.6 1.6-1.8c.04.02 0-4.8 0-4.8l1.1 0c0 0-.03 4.85 0 4.9c0 1.7-1.2 2.7-2.7 2.7c-1.5 0-2.7-1-2.7-2.7zm10.2-1.2l2.5 3.7l-1.3 0l-1.9-2.9l-1.9 2.9l-1.2 0l2.6-3.7l-2.6-3.7l1.3 0l1.9 2.9l1.9-2.9l1.2 0l-2.5 3.7zm10.6 1.6l-3.3 0l-.8 2.1l-1.1 0l3-7.4l1.2 0l2.9 7.4l-1.1 0l-.8-2.1zm-2.9-.9l2.5 0l-1.2-3.4l-1.3 3.4zm8-3.5l0 6.5l-1 0l0-6.5l-2.5 0l0-.9l6 0l0 .9l-2.5 0zm6.5 0l0 6.5l-1 0l0-6.5l-2.5 0l0-.9l6 0l0 .9l-2.5 0zm3.7 6.5l0-7.4l4.5 0l0 .9l-3.5 0l0 2.3l3.2 0l0 1l-3.2 0l0 2.2l3.5 0l0 1l-4.5 0zm11.2 0l-4-6.1l0 6.1l-1 0l0-7.4l1.3 0l3.8 5.7l0-5.7l1 0l0 7.4l-1.1 0zm5.8-6.5l0 6.5l-1.1 0l0-6.5l-2.5 0l0-.9l6 0l0 .9l-2.4 0zm3.6 6.5l0-7.4l4.5 0l0 .9l-3.5 0l0 2.3l3.2 0l0 1l-3.2 0l0 2.2l3.5 0l0 1l-4.5 0zm10-5.4c-.1-.6-.5-1.3-1.5-1.3c-.9 0-1.5.5-1.5 1.2c0 .6.3 1 1 1.1c0 0 1.1.3 1.1.3c1.2.2 1.9 1 1.9 2c0 1.2-1 2.3-2.6 2.3c-1.7 0-2.6-1.2-2.7-2.3c0 0 1-.3 1-.3c0 .9.6 1.6 1.7 1.6c1.1 0 1.6-.5 1.6-1.2c0-.5-.4-1-1.1-1.1c0 0-1.1-.3-1.1-.3c-1.1-.2-1.8-.9-1.8-2c0-1.2 1.1-2.2 2.4-2.2c1.7 0 2.4 1 2.6 1.8c0 0-1 .4-1 .4zm7.7 4.5c1.4 0 2.5-.9 2.5-2.8c0-1.9-1.1-2.8-2.5-2.8c.04-.04-1.5 0-1.5 0l0 5.6c0 0 1.52-.02 1.5 0zm-2.5.9l0-7.4c0 0 2.57-.05 2.6 0c1.9 0 3.5 1.2 3.5 3.7c0 2.4-1.7 3.7-3.6 3.7c.05-.01-2.5 0-2.5 0zm7.6 0l0-7.4l4.6 0l0 .9l-3.5 0l0 2.3l3.1 0l0 1l-3.1 0l0 2.2l3.5 0l0 1l-4.6 0zm10.1-5.4c-.1-.6-.6-1.3-1.6-1.3c-.9 0-1.5.5-1.5 1.2c0 .6.4 1 1 1.1c0 0 1.1.3 1.1.3c1.3.2 1.9 1 1.9 2c0 1.2-.9 2.3-2.5 2.3c-1.8 0-2.7-1.2-2.8-2.3c0 0 1-.3 1-.3c0 .9.6 1.6 1.8 1.6c1 0 1.5-.5 1.5-1.2c0-.5-.4-1-1.1-1.1c0 0-1.1-.3-1.1-.3c-1-.2-1.8-.9-1.8-2c0-1.2 1.1-2.2 2.5-2.2c1.6 0 2.3 1 2.5 1.8c0 0-.9.4-.9.4zm7.5-2c1.4 0 2.3.8 2.3 2c0 .8-.5 1.3-1.1 1.6c.8.2 1.3.9 1.3 1.8c0 1.1-.9 2-2.3 2c0-.01-2.6 0-2.6 0l0-7.4c0 0 2.42-.05 2.4 0zm-.1 3.2c.8 0 1.3-.5 1.3-1.2c0-.7-.5-1.1-1.3-1.1c-.04-.05-1.3 0-1.3 0l0 2.3c0 0 1.3.01 1.3 0zm.1 3.3c.9 0 1.4-.5 1.4-1.2c0-.7-.4-1.2-1.3-1.2c-.01-.01-1.5 0-1.5 0l0 2.4c0 0 1.45-.01 1.4 0zm4 .9l0-7.4l4.5 0l0 .9l-3.5 0l0 2.3l3.2 0l0 1l-3.2 0l0 2.2l3.5 0l0 1l-4.5 0zm2.5-8l-1 0l1.1-1.2l1.4 0l-1.5 1.2zm8.8 8l-4-6.1l0 6.1l-1.1 0l0-7.4l1.4 0l3.7 5.7l0-5.7l1 0l0 7.4l-1 0zm3 0l0-7.4l4.6 0l0 .9l-3.5 0l0 2.3l3.1 0l0 1l-3.1 0l0 2.2l3.5 0l0 1l-4.6 0zm2.5-8l-.9 0l1-1.2l1.4 0l-1.5 1.2zm3.7 8l0-7.4l4.6 0l0 .9l-3.5 0l0 2.4l3.1 0l0 1l-3.1 0l0 3.1l-1.1 0zm5.9 0l0-7.4l1.1 0l0 7.4l-1.1 0zm2.6-3.7c0-2.5 1.9-3.9 3.7-3.9c1.7 0 2.9.9 3.3 2.4c0 0-1 .3-1 .3c-.3-1.1-1.1-1.8-2.3-1.8c-1.4 0-2.6 1-2.6 3c0 1.9 1.2 2.9 2.6 2.9c1.3 0 2.1-.8 2.4-1.8c0 0 .9.4.9.4c-.4 1.4-1.6 2.4-3.3 2.4c-1.9 0-3.7-1.4-3.7-3.9zm8.5 3.7l0-7.4l1 0l0 7.4l-1 0zm7.4-2.1l-3.3 0l-.8 2.1l-1.1 0l2.9-7.4l1.2 0l3 7.4l-1.1 0l-.8-2.1zm-3-.9l2.6 0l-1.3-3.4l-1.3 3.4zm6 3l0-7.4l1.1 0l0 7.4l-1.1 0zm5.2-3.1l-1.1 0l0 3.1l-1 0l0-7.4c0 0 2.78-.05 2.8 0c1.4 0 2.3.9 2.3 2.2c0 1-.7 1.9-1.9 2.1c.05-.02 1.8 3.1 1.8 3.1l-1.2 0l-1.7-3.1zm.5-.9c.8 0 1.4-.5 1.4-1.2c0-.8-.6-1.3-1.4-1.3c-.01-.03-1.6 0-1.6 0l0 2.5c0 0 1.59.03 1.6 0zm4 4l0-7.4l4.5 0l0 .9l-3.5 0l0 2.3l3.2 0l0 1l-3.2 0l0 2.2l3.5 0l0 1l-4.5 0zm10-5.4c-.1-.6-.5-1.3-1.6-1.3c-.8 0-1.4.5-1.4 1.2c0 .6.3 1 .9 1.1c0 0 1.2.3 1.2.3c1.2.2 1.9 1 1.9 2c0 1.2-1 2.3-2.6 2.3c-1.8 0-2.6-1.2-2.8-2.3c0 0 1-.3 1-.3c.1.9.7 1.6 1.8 1.6c1 0 1.5-.5 1.5-1.2c0-.5-.3-1-1.1-1.1c0 0-1-.3-1-.3c-1.1-.2-1.8-.9-1.8-2c0-1.2 1-2.2 2.4-2.2c1.7 0 2.4 1 2.5 1.8c0 0-.9.4-.9.4z" stroke="none" fill="#9b78ef"/></g><g id="Polygon185449"><path d="m21.9 7.7c1.4 0 2.7-1 2.7-2.9c0-2-1.3-3-2.7-3c-1.4 0-2.7 1-2.7 3c0 1.9 1.3 2.9 2.7 2.9zm0-6.8c1.8 0 3.7 1.4 3.7 3.9c0 2.5-1.9 3.9-3.7 3.9c-1.9 0-3.8-1.4-3.8-3.9c0-2.5 1.9-3.9 3.8-3.9zm5.2 7.6l0-7.4l4.6 0l0 .9l-3.5 0l0 2.4l3.1 0l0 1l-3.1 0l0 3.1l-1.1 0zm5.9 0l0-7.4l4.5 0l0 .9l-3.4 0l0 2.4l3.1 0l0 1l-3.1 0l0 3.1l-1.1 0zm8.1-3.1l-1.1 0l0 3.1l-1.1 0l0-7.4c0 0 2.82-.05 2.8 0c1.4 0 2.3.9 2.3 2.2c0 1-.7 1.9-1.8 2.1c-.01-.02 1.8 3.1 1.8 3.1l-1.2 0l-1.7-3.1zm.4-.9c.9 0 1.4-.5 1.4-1.2c0-.8-.5-1.3-1.4-1.3c.03-.03-1.5 0-1.5 0l0 2.5c0 0 1.53.03 1.5 0zm4 4l0-7.4l1.1 0l0 7.4l-1.1 0zm5.2-3.1l-1.1 0l0 3.1l-1 0l0-7.4c0 0 2.77-.05 2.8 0c1.4 0 2.2.9 2.2 2.2c0 1-.6 1.9-1.8 2.1c.04-.02 1.8 3.1 1.8 3.1l-1.2 0l-1.7-3.1zm.5-.9c.8 0 1.4-.5 1.4-1.2c0-.8-.6-1.3-1.4-1.3c-.02-.03-1.6 0-1.6 0l0 2.5c0 0 1.58.03 1.6 0zm9.1 3.1c1.4 0 2.6-.9 2.6-2.8c0-1.9-1.2-2.8-2.5-2.8c-.04-.04-1.6 0-1.6 0l0 5.6c0 0 1.54-.02 1.5 0zm-2.5.9l0-7.4c0 0 2.59-.05 2.6 0c1.9 0 3.5 1.2 3.5 3.7c0 2.4-1.6 3.7-3.5 3.7c-.03-.01-2.6 0-2.6 0zm7.7 0l0-7.4l4.5 0l0 .9l-3.5 0l0 2.3l3.2 0l0 1l-3.2 0l0 2.2l3.5 0l0 1l-4.5 0zm10-5.4c-.1-.6-.6-1.3-1.6-1.3c-.8 0-1.4.5-1.4 1.2c0 .6.3 1 .9 1.1c0 0 1.1.3 1.1.3c1.3.2 2 1 2 2c0 1.2-1 2.3-2.6 2.3c-1.8 0-2.6-1.2-2.8-2.3c0 0 1-.3 1-.3c.1.9.7 1.6 1.8 1.6c1 0 1.5-.5 1.5-1.2c0-.5-.3-1-1.1-1.1c0 0-1.1-.3-1.1-.3c-1-.2-1.8-.9-1.8-2c0-1.2 1.1-2.2 2.5-2.2c1.7 0 2.3 1 2.5 1.8c0 0-.9.4-.9.4zm5.1 5.4l0-7.4l4.5 0l0 .9l-3.5 0l0 2.4l3.2 0l0 1l-3.2 0l0 3.1l-1 0zm9.1-.8c1.4 0 2.7-1 2.7-2.9c0-2-1.3-3-2.7-3c-1.4 0-2.7 1-2.7 3c0 1.9 1.3 2.9 2.7 2.9zm0-6.8c1.9 0 3.8 1.4 3.8 3.9c0 2.5-1.9 3.9-3.8 3.9c-1.8 0-3.7-1.4-3.7-3.9c0-2.5 1.9-3.9 3.7-3.9zm7.4 4.5l-1.1 0l0 3.1l-1 0l0-7.4c0 0 2.78-.05 2.8 0c1.4 0 2.3.9 2.3 2.2c0 1-.7 1.9-1.8 2.1c-.04-.02 1.7 3.1 1.7 3.1l-1.2 0l-1.7-3.1zm.5-.9c.8 0 1.4-.5 1.4-1.2c0-.8-.6-1.3-1.4-1.3c0-.03-1.6 0-1.6 0l0 2.5c0 0 1.6.03 1.6 0zm11 4l0-5.8l-2.5 5.8l-1 0l-2.5-5.8l0 5.8l-1 0l0-7.4l1.4 0l2.6 6l2.7-6l1.3 0l0 7.4l-1 0zm7.4-2.1l-3.3 0l-.8 2.1l-1.1 0l2.9-7.4l1.2 0l3 7.4l-1.1 0l-.8-2.1zm-3-.9l2.6 0l-1.3-3.4l-1.3 3.4zm8-3.5l0 6.5l-1 0l0-6.5l-2.5 0l0-.9l6 0l0 .9l-2.5 0zm3.7 6.5l0-7.4l1 0l0 7.4l-1 0zm6.3-.8c1.4 0 2.7-1 2.7-2.9c0-2-1.3-3-2.7-3c-1.4 0-2.7 1-2.7 3c0 1.9 1.3 2.9 2.7 2.9zm0-6.8c1.9 0 3.7 1.4 3.7 3.9c0 2.5-1.8 3.9-3.7 3.9c-1.9 0-3.7-1.4-3.7-3.9c0-2.5 1.8-3.9 3.7-3.9zm10.3 7.6l-4-6.1l0 6.1l-1 0l0-7.4l1.3 0l3.7 5.7l0-5.7l1.1 0l0 7.4l-1.1 0zm6.9-5.4c-.1-.6-.5-1.3-1.6-1.3c-.8 0-1.4.5-1.4 1.2c0 .6.3 1 .9 1.1c0 0 1.1.3 1.1.3c1.3.2 2 1 2 2c0 1.2-1 2.3-2.6 2.3c-1.8 0-2.6-1.2-2.8-2.3c0 0 1-.3 1-.3c.1.9.7 1.6 1.8 1.6c1 0 1.5-.5 1.5-1.2c0-.5-.3-1-1.1-1.1c0 0-1-.3-1-.3c-1.1-.2-1.9-.9-1.9-2c0-1.2 1.1-2.2 2.5-2.2c1.7 0 2.3 1 2.5 1.8c0 0-.9.4-.9.4zm5.1 5.4l0-7.4l1.1 0l0 7.4l-1.1 0zm8.1 0l-4-6.1l0 6.1l-1 0l0-7.4l1.3 0l3.8 5.7l0-5.7l1 0l0 7.4l-1.1 0zm5.6-.9c1.4 0 2.6-.9 2.6-2.8c0-1.9-1.2-2.8-2.5-2.8c-.04-.04-1.6 0-1.6 0l0 5.6c0 0 1.54-.02 1.5 0zm-2.5.9l0-7.4c0 0 2.59-.05 2.6 0c1.9 0 3.5 1.2 3.5 3.7c0 2.4-1.6 3.7-3.5 3.7c-.03-.01-2.6 0-2.6 0zm7.7 0l0-7.4l1 0l0 7.4l-1 0zm7.8-7.4l1 0l-2.8 7.4l-1 0l-2.8-7.4l1.1 0l2.2 6.1l2.3-6.1zm2.2 7.4l0-7.4l1.1 0l0 7.4l-1.1 0zm5.6-.9c1.4 0 2.5-.9 2.5-2.8c0-1.9-1.1-2.8-2.5-2.8c.02-.04-1.5 0-1.5 0l0 5.6c0 0 1.5-.02 1.5 0zm-2.6.9l0-7.4c0 0 2.65-.05 2.7 0c1.8 0 3.5 1.2 3.5 3.7c0 2.4-1.7 3.7-3.6 3.7c.03-.01-2.6 0-2.6 0zm7.6-2.5c.01-.05 0-4.9 0-4.9l1 0c0 0 .03 4.82 0 4.8c0 1.2.6 1.8 1.7 1.8c1 0 1.6-.6 1.6-1.8c.03.02 0-4.8 0-4.8l1.1 0c0 0-.04 4.85 0 4.9c0 1.7-1.2 2.7-2.7 2.7c-1.5 0-2.7-1-2.7-2.7zm11.3.4l-3.3 0l-.8 2.1l-1.1 0l3-7.4l1.1 0l3 7.4l-1.1 0l-.8-2.1zm-2.9-.9l2.5 0l-1.3-3.4l-1.2 3.4zm6 3l0-7.4l1 0l0 6.4l3.5 0l0 1l-4.5 0zm5.8 0l0-7.4l1.1 0l0 7.4l-1.1 0zm6.9-5.4c-.1-.6-.5-1.3-1.6-1.3c-.8 0-1.4.5-1.4 1.2c0 .6.3 1 .9 1.1c0 0 1.1.3 1.1.3c1.3.2 2 1 2 2c0 1.2-1 2.3-2.6 2.3c-1.8 0-2.6-1.2-2.8-2.3c0 0 1-.3 1-.3c.1.9.7 1.6 1.8 1.6c1 0 1.5-.5 1.5-1.2c0-.5-.3-1-1.1-1.1c0 0-1.1-.3-1.1-.3c-1-.2-1.8-.9-1.8-2c0-1.2 1.1-2.2 2.5-2.2c1.7 0 2.3 1 2.5 1.8c0 0-.9.4-.9.4zm2.5 5.4l0-7.4l4.5 0l0 .9l-3.5 0l0 2.3l3.2 0l0 1l-3.2 0l0 2.2l3.5 0l0 1l-4.5 0zm2.5-8l-1 0l1.1-1.2l1.3 0l-1.4 1.2zm3.7 8l0-7.4l4.5 0l0 .9l-3.5 0l0 2.3l3.2 0l0 1l-3.2 0l0 2.2l3.5 0l0 1l-4.5 0zm10-5.4c-.1-.6-.5-1.3-1.5-1.3c-.9 0-1.5.5-1.5 1.2c0 .6.3 1 1 1.1c0 0 1.1.3 1.1.3c1.2.2 1.9 1 1.9 2c0 1.2-1 2.3-2.6 2.3c-1.8 0-2.6-1.2-2.7-2.3c0 0 .9-.3.9-.3c.1.9.7 1.6 1.8 1.6c1.1 0 1.6-.5 1.6-1.2c0-.5-.4-1-1.1-1.1c0 0-1.1-.3-1.1-.3c-1.1-.2-1.8-.9-1.8-2c0-1.2 1.1-2.2 2.4-2.2c1.7 0 2.4 1 2.6 1.8c0 0-1 .4-1 .4zm8.4-2.2c1.9 0 3.8 1.4 3.8 3.9c0 1.1-.5 2.1-1.1 2.7c.02.02.9 1 .9 1l-.7.6c0 0-.92-.98-.9-1c-.6.4-1.3.6-2 .6c-1.8 0-3.7-1.4-3.7-3.9c0-2.5 1.9-3.9 3.7-3.9zm0 6.8c.5 0 .9-.1 1.3-.3c.03-.02-1.3-1.5-1.3-1.5l.8-.6c0 0 1.26 1.48 1.3 1.5c.4-.5.6-1.2.6-2c0-2-1.3-3-2.7-3c-1.4 0-2.7 1-2.7 3c0 1.9 1.3 2.9 2.7 2.9zm5.2-1.7c-.02-.05 0-4.9 0-4.9l1 0c0 0 0 4.82 0 4.8c0 1.2.6 1.8 1.7 1.8c1 0 1.6-.6 1.6-1.8c.01.02 0-4.8 0-4.8l1 0c0 0 .04 4.85 0 4.9c0 1.7-1.1 2.7-2.6 2.7c-1.6 0-2.7-1-2.7-2.7zm7.2 2.5l0-7.4l1.1 0l0 7.4l-1.1 0z" stroke="none" fill="#9b78ef"/></g><g id="Polygon185448"><path d="m.4 4.2c0-.1 0-.3 0-.4c0-1.2.9-2.3 2.4-2.3c1.5 0 2.4 1 2.4 2.2c0 .9-.5 1.6-1.3 2.1c0 0-1.3.8-1.3.8c-.3.2-.6.4-.7.8c0-.02 3.4 0 3.4 0l0 1.1c0 0-4.95-.01-5 0c.1-1.2.5-2.1 1.7-2.8c0 0 1.1-.7 1.1-.7c.6-.4.9-.8.9-1.3c0-.6-.4-1.1-1.2-1.1c-.8 0-1.2.6-1.2 1.3c0 .1 0 .2.1.3c0 0-1.3 0-1.3 0zm6.8-.8l1.5 0l.3-1.7l1 0l-.3 1.7l1.4 0l.4-1.7l1 0l-.4 1.7l1.4 0l0 .9l-1.6 0l-.3 1.6l1.3 0l0 .9l-1.5 0l-.4 1.7l-1 0l.4-1.7l-1.5 0l-.3 1.7l-1 0l.3-1.7l-1.3 0l0-.9l1.5 0l.4-1.6l-1.3 0l0-.9zm1.9 2.5l1.5 0l.3-1.6l-1.4 0l-.4 1.6z" stroke="none" fill="#144542"/></g></svg>