<?xml version="1.0" standalone="no"?><!DOCTYPE svg PUBLIC "-//W3C//DTD SVG 1.1//EN" "http://www.w3.org/Graphics/SVG/1.1/DTD/svg11.dtd"><svg xmlns="http://www.w3.org/2000/svg" version="1.1" width="192px" height="28.7px" viewBox="0 -3 192 28.7" style="top:-3px"><desc>La mission en g n ral</desc><defs/><g id="Polygon186110"><path d="m1.3 11.3l0-9.9l1.3 0l0 8.6l4.7 0l0 1.3l-6 0zm7.8-1.8c0-1.2.9-1.9 2-2c0 0 1.8-.3 1.8-.3c.4 0 .6-.3.6-.5c0-.7-.5-1.2-1.5-1.2c-.9 0-1.4.6-1.5 1.4c0 0-1.3-.3-1.3-.3c.2-1.3 1.3-2.2 2.8-2.2c2 0 2.8 1.1 2.8 2.4c0 0 0 3.4 0 3.4c0 .6 0 1 .1 1.1c0 0-1.3 0-1.3 0c-.1-.1-.1-.4-.1-.9c-.3.5-1 1.1-2.2 1.1c-1.3 0-2.2-.9-2.2-2c0 0 0 0 0 0zm4.4-1.1c-.05.04 0-.3 0-.3c0 0-2.1.34-2.1.3c-.6.1-1 .4-1 1.1c0 .5.4.9 1.1.9c1.1 0 2-.5 2-2zm8.2 2.9l0-6.7l1.3 0c0 0-.03.89 0 .9c.4-.8 1.2-1.1 2-1.1c.9 0 1.7.4 2 1.3c.6-1 1.4-1.3 2.3-1.3c1.2 0 2.3.8 2.3 2.6c.01-.04 0 4.3 0 4.3l-1.3 0c0 0 .01-4.2 0-4.2c0-.9-.4-1.5-1.4-1.5c-.9 0-1.6.7-1.6 1.7c.03-.05 0 4 0 4l-1.3 0c0 0 .01-4.2 0-4.2c0-.9-.4-1.5-1.4-1.5c-1 0-1.6.7-1.6 1.7c.01-.04 0 4 0 4l-1.3 0zm12.7 0l0-6.7l1.3 0l0 6.7l-1.3 0zm.7-10.2c.5 0 .9.4.9.9c0 .6-.4 1-.9 1c-.6 0-1-.4-1-1c0-.5.4-.9 1-.9zm4.1 8.1c.1.7.6 1.2 1.6 1.2c.7 0 1.1-.4 1.1-.9c0-.4-.3-.7-.8-.8c0 0-1.2-.3-1.2-.3c-1-.2-1.7-.9-1.7-1.9c0-1.1 1.1-2.1 2.4-2.1c1.9 0 2.4 1.2 2.6 1.8c0 0-1.2.4-1.2.4c0-.3-.3-1.1-1.4-1.1c-.6 0-1.1.4-1.1.9c0 .4.3.7.8.8c0 0 1.1.2 1.1.2c1.2.3 1.8 1.1 1.8 2.1c0 .9-.8 2-2.4 2c-1.9 0-2.7-1.2-2.8-1.9c0 0 1.2-.4 1.2-.4zm7 0c.1.7.7 1.2 1.6 1.2c.8 0 1.2-.4 1.2-.9c0-.4-.3-.7-.9-.8c0 0-1.2-.3-1.2-.3c-1-.2-1.6-.9-1.6-1.9c0-1.1 1-2.1 2.4-2.1c1.8 0 2.4 1.2 2.5 1.8c0 0-1.1.4-1.1.4c-.1-.3-.4-1.1-1.4-1.1c-.7 0-1.2.4-1.2.9c0 .4.3.7.8.8c0 0 1.1.2 1.1.2c1.2.3 1.9 1.1 1.9 2.1c0 .9-.8 2-2.5 2c-1.9 0-2.6-1.2-2.7-1.9c0 0 1.1-.4 1.1-.4zm6.5 2.1l0-6.7l1.3 0l0 6.7l-1.3 0zm.7-10.2c.5 0 .9.4.9.9c0 .6-.4 1-.9 1c-.6 0-1-.4-1-1c0-.5.4-.9 1-.9zm8.5 6.9c0-1.6-.9-2.4-2.1-2.4c-1.1 0-2.1.8-2.1 2.4c0 1.5 1 2.4 2.1 2.4c1.2 0 2.1-.9 2.1-2.4zm1.4 0c0 2-1.4 3.5-3.5 3.5c-2 0-3.4-1.5-3.4-3.5c0-2.1 1.4-3.6 3.4-3.6c2.1 0 3.5 1.5 3.5 3.6zm3.7 3.3l-1.3 0l0-6.7l1.2 0c0 0 .05.96 0 1c.5-.9 1.3-1.2 2.1-1.2c1.6 0 2.4 1.2 2.4 2.7c.03-.05 0 4.2 0 4.2l-1.3 0c0 0 .01-4.02 0-4c0-1-.4-1.7-1.6-1.7c-1 0-1.5.8-1.5 1.8c-.03.03 0 3.9 0 3.9zm16-4c-.1-1-.7-1.8-1.9-1.8c-1.1 0-1.8.9-1.8 1.8c0 0 3.7 0 3.7 0zm1.3 2.1c-.4 1.2-1.5 2.1-3 2.1c-1.8 0-3.4-1.3-3.4-3.6c0-2.1 1.5-3.5 3.2-3.5c2.1 0 3.2 1.4 3.2 3.5c0 .2 0 .3 0 .4c0 0-5.1 0-5.1 0c.1 1.2.9 2.1 2.1 2.1c1.1 0 1.6-.6 1.9-1.4c0 0 1.1.4 1.1.4zm3.7 1.9l-1.3 0l0-6.7l1.3 0c0 0 0 .96 0 1c.5-.9 1.3-1.2 2.1-1.2c1.6 0 2.4 1.2 2.4 2.7c-.02-.05 0 4.2 0 4.2l-1.3 0c0 0-.03-4.02 0-4c0-1-.4-1.7-1.6-1.7c-1 0-1.6.8-1.6 1.8c.03.03 0 3.9 0 3.9zm12.3.1c.1.9.8 1.6 1.8 1.6c1.4 0 2.1-.7 2.1-2.1c0 0 0-1 0-1c-.4.6-1.1 1.1-2.1 1.1c-1.8 0-3.1-1.4-3.1-3.3c0-1.8 1.3-3.2 3.1-3.2c1 0 1.7.4 2.1 1c-.03.03 0-.9 0-.9l1.3 0c0 0-.03 6.22 0 6.2c0 1.7-.9 3.4-3.4 3.4c-1.7 0-2.9-1.1-3.1-2.5c0 0 1.3-.3 1.3-.3zm3.9-3.7c0-1.3-.8-2.1-1.9-2.1c-1.2 0-1.9.8-1.9 2.1c0 1.4.7 2.2 1.9 2.2c1.1 0 1.9-.9 1.9-2.2zm8.6-.4c0-1-.6-1.8-1.8-1.8c-1.1 0-1.8.9-1.9 1.8c0 0 3.7 0 3.7 0zm1.3 2.1c-.3 1.2-1.4 2.1-3 2.1c-1.8 0-3.4-1.3-3.4-3.6c0-2.1 1.6-3.5 3.2-3.5c2.1 0 3.3 1.4 3.3 3.5c0 .2 0 .3 0 .4c0 0-5.1 0-5.1 0c0 1.2.9 2.1 2 2.1c1.1 0 1.7-.6 1.9-1.4c0 0 1.1.4 1.1.4zm-2.6-5.7l-1.1 0l1.2-2l1.6 0l-1.7 2zm6.4 7.6l-1.3 0l0-6.7l1.2 0c0 0 .05.96 0 1c.5-.9 1.3-1.2 2.1-1.2c1.6 0 2.4 1.2 2.4 2.7c.03-.05 0 4.2 0 4.2l-1.3 0c0 0 .02-4.02 0-4c0-1-.4-1.7-1.6-1.7c-1 0-1.5.8-1.5 1.8c-.02.03 0 3.9 0 3.9zm11.8-4c-.1-1-.7-1.8-1.9-1.8c-1.1 0-1.8.9-1.8 1.8c0 0 3.7 0 3.7 0zm1.3 2.1c-.4 1.2-1.5 2.1-3 2.1c-1.8 0-3.4-1.3-3.4-3.6c0-2.1 1.5-3.5 3.2-3.5c2.1 0 3.2 1.4 3.2 3.5c0 .2 0 .3 0 .4c0 0-5.1 0-5.1 0c.1 1.2.9 2.1 2.1 2.1c1.1 0 1.6-.6 1.9-1.4c0 0 1.1.4 1.1.4zm-2.7-5.7l-1.1 0l1.2-2l1.7 0l-1.8 2zm8.9 2.2c-.2 0-.4 0-.6 0c-1.1 0-1.9.6-1.9 2.1c.03-.05 0 3.3 0 3.3l-1.3 0l0-6.7l1.3 0c0 0 .01 1.17 0 1.2c.5-1.1 1.3-1.3 2-1.3c.2 0 .4 0 .5 0c0 0 0 1.4 0 1.4zm1.6 3.6c0-1.2.9-1.9 2.1-2c0 0 1.8-.3 1.8-.3c.4 0 .5-.3.5-.5c0-.7-.4-1.2-1.4-1.2c-1 0-1.5.6-1.6 1.4c0 0-1.2-.3-1.2-.3c.1-1.3 1.3-2.2 2.7-2.2c2.1 0 2.8 1.1 2.8 2.4c0 0 0 3.4 0 3.4c0 .6.1 1 .1 1.1c0 0-1.3 0-1.3 0c0-.1 0-.4 0-.9c-.3.5-1 1.1-2.2 1.1c-1.4 0-2.3-.9-2.3-2c0 0 0 0 0 0zm4.4-1.1c.02.04 0-.3 0-.3c0 0-2.04.34-2 .3c-.6.1-1 .4-1 1.1c0 .5.4.9 1.1.9c1.1 0 1.9-.5 1.9-2zm4.1 2.9l0-10.1l1.3 0l0 10.1l-1.3 0z" stroke="none" fill="#144542"/></g></svg>