<?xml version="1.0" standalone="no"?><!DOCTYPE svg PUBLIC "-//W3C//DTD SVG 1.1//EN" "http://www.w3.org/Graphics/SVG/1.1/DTD/svg11.dtd"><svg xmlns="http://www.w3.org/2000/svg" version="1.1" width="46px" height="29.9px" viewBox="0 -4 46 29.9" style="top:-4px"><desc>IKEA</desc><defs/><g id="Polygon175388"><path d="m1.8 16.6l0-14.5l2.1 0l0 14.5l-2.1 0zm9.9-6.6l-2.1 2.2l0 4.4l-2 0l0-14.5l2 0l0 7.4l6.8-7.4l2.7 0l-6.1 6.4l6.2 8.1l-2.6 0l-4.9-6.6zm9.6 6.6l0-14.5l8.9 0l0 1.8l-6.9 0l0 4.5l6.2 0l0 1.9l-6.2 0l0 4.4l6.9 0l0 1.9l-8.9 0zm20.4-4.1l-6.4 0l-1.5 4.1l-2.2 0l5.8-14.5l2.3 0l5.8 14.5l-2.2 0l-1.6-4.1zm-5.7-1.8l5 0l-2.5-6.6l-2.5 6.6z" stroke="none" fill="#144542"/></g></svg>