<?xml version="1.0" standalone="no"?><!DOCTYPE svg PUBLIC "-//W3C//DTD SVG 1.1//EN" "http://www.w3.org/Graphics/SVG/1.1/DTD/svg11.dtd"><svg xmlns="http://www.w3.org/2000/svg" version="1.1" width="47px" height="17px" viewBox="0 -3 47 17" style="top:-3px"><desc>Pr s de</desc><defs/><g id="Polygon163593"><path d="m3.5 4.5c.9 0 1.4-.5 1.4-1.2c0-.8-.5-1.3-1.4-1.3c-.03-.03-1.5 0-1.5 0l0 2.5c0 0 1.47.03 1.5 0zm-1.5.9l0 3.1l-1.1 0l0-7.4c0 0 2.75-.05 2.8 0c1.3 0 2.3.9 2.3 2.2c0 1.2-1 2.1-2.3 2.1c-.05.05-1.7 0-1.7 0zm7.8-1c-.2 0-.3 0-.5 0c-.8 0-1.4.5-1.4 1.6c.04-.04 0 2.5 0 2.5l-.9 0l0-5.1l.9 0c0 0 .02.93 0 .9c.4-.8 1-.9 1.5-.9c.2 0 .3 0 .4 0c0 0 0 1 0 1zm4.4 1.1c-.1-.8-.5-1.3-1.4-1.3c-.9 0-1.4.6-1.4 1.3c0 0 2.8 0 2.8 0zm1 1.6c-.3.8-1.1 1.6-2.3 1.6c-1.4 0-2.6-1-2.6-2.7c0-1.6 1.2-2.7 2.5-2.7c1.5 0 2.4 1.1 2.4 2.6c0 .2 0 .3 0 .3c0 0-3.8 0-3.8 0c0 1 .6 1.6 1.5 1.6c.8 0 1.2-.5 1.4-1c0 0 .9.3.9.3zm-4-5.8l1.3 0l.9 1.5l-.9 0l-1.3-1.5zm5.7 5.6c0 .5.4.9 1.1.9c.6 0 .9-.3.9-.7c0-.3-.2-.5-.7-.6c0 0-.8-.2-.8-.2c-.8-.2-1.3-.7-1.3-1.4c0-.9.8-1.6 1.8-1.6c1.4 0 1.8.9 1.9 1.3c0 0-.8.4-.8.4c-.1-.3-.3-.9-1.1-.9c-.5 0-.8.4-.8.7c0 .3.2.5.6.6c0 0 .8.2.8.2c.9.2 1.4.7 1.4 1.5c0 .7-.6 1.6-1.9 1.6c-1.4 0-1.9-.9-2-1.5c0 0 .9-.3.9-.3zm9 .9c.9 0 1.4-.8 1.4-1.9c0-1-.5-1.7-1.4-1.7c-.9 0-1.5.7-1.5 1.8c0 1 .5 1.8 1.5 1.8zm1.5-.1c-.3.5-.8.9-1.6.9c-1.5 0-2.4-1.1-2.4-2.6c0-1.5 1-2.7 2.4-2.7c.9 0 1.4.4 1.5.9c.03-.04 0-3.3 0-3.3l1 0c0 0 .01 6.66 0 6.7c0 .4 0 .8.1.9c0 0-1 0-1 0c0-.1 0-.4 0-.7c0 0 0-.1 0-.1zm6-2.2c0-.8-.5-1.3-1.4-1.3c-.8 0-1.3.6-1.4 1.3c0 0 2.8 0 2.8 0zm1 1.6c-.3.8-1.1 1.6-2.3 1.6c-1.3 0-2.5-1-2.5-2.7c0-1.6 1.1-2.7 2.4-2.7c1.5 0 2.4 1.1 2.4 2.6c0 .2 0 .3 0 .3c0 0-3.8 0-3.8 0c0 1 .7 1.6 1.5 1.6c.8 0 1.2-.5 1.4-1c0 0 .9.3.9.3z" stroke="none" fill="#fff"/></g></svg>