<?xml version="1.0" standalone="no"?><!DOCTYPE svg PUBLIC "-//W3C//DTD SVG 1.1//EN" "http://www.w3.org/Graphics/SVG/1.1/DTD/svg11.dtd"><svg xmlns="http://www.w3.org/2000/svg" version="1.1" width="439px" height="99.9px" viewBox="0 -4 439 99.9" style="top:-4px"><desc>Pour moi, trois l ments caract risent le cadre propos par each One : la motivation des apprenants pour s’int grer ;...</desc><defs/><g id="Polygon171153"><path d="m7.4 87.5c.01-.04 0 .2 0 .2l-2.6 0c0 0 .15-.82.2-.8c-.6.7-1.2 1-1.8 1c-1.8 0-2.9-1.6-2.9-3.5c0-1.8 1.2-3.4 2.9-3.4c.6 0 1.1.2 1.5.5c0 0 0-1.7 0-1.7c0-.9-.5-1.3-.7-1.3c.02-.05 0-.3 0-.3l2.7-.4c0 0 .03 8.38 0 8.4c0 .8.5 1.2.7 1.3zm-2.7-.8c0 0 0-4.2 0-4.2c-.3-.7-.9-1.1-1.3-1.1c-1 0-1 1.3-1 2.4c0 1.8.4 3.5 1.4 3.5c.3 0 .6-.2.9-.6zm3.6-4.5c.9-.5 1.5-1.5 1.6-2.2c0 0-.1 0-.1 0c-.1.3-.3.5-.7.5c-.4 0-1-.4-1-1.2c0-.7.5-1.1 1.2-1.1c.9 0 1.2.6 1.2 1.3c0 .6-.3 1.9-2.2 2.9c0 0 0-.2 0-.2zm8.9 3.2c0 0 0 .3 0 .3c-.3 1.2-1.3 2.2-2.8 2.2c-1.7 0-3.2-1.6-3.2-3.5c0-1.9 1.5-3.4 3.2-3.4c1.4 0 2.6.9 3 2.3c0 0-4.2.8-4.2.8c.3 1.2.9 2.3 2.3 2.3c.4 0 1.3-.2 1.7-1zm-4.1-2.3c0 .2.1.5.1.7c0 0 1.1-.2 1.1-.2c.3-.1.5-.3.5-.6c0-.7-.6-1.6-1.2-1.6c-.6 0-.5 1.4-.5 1.7zm12 4.4c-.01-.02 0 .2 0 .2l-3.4 0c0 0 .04-.22 0-.2c.2-.1.7-.5.7-1.4c0 0 0-2.6 0-2.6c0-1.5-.2-1.9-.8-1.9c-.4 0-.8.4-1 .8c0 0 0 3.7 0 3.7c0 1 .5 1.3.5 1.4c.04-.02 0 .2 0 .2l-3.3 0c0 0 .04-.2 0-.2c.2-.1.7-.5.7-1.4c0 0 0-3.1 0-3.1c0-.9-.5-1.2-.7-1.4c.04.04 0-.2 0-.2l2.8-.4c0 0-.26 1.33-.3 1.3c.4-.8 1-1.3 1.9-1.3c1.5 0 2.2 1 2.2 2.3c0 0 0 2.8 0 2.8c0 .9.5 1.3.7 1.4zm3.3-5.9c0 0-.02 4.11 0 4.1c0 1.9 1.2 1.3 1.3 1.3c0 0 0 .2 0 .2c-.2.1-.8.6-1.9.6c-.8 0-1.5-.5-1.5-1.9c.01.02 0-4.3 0-4.3l-.8 0c0 0-.05-.42 0-.4c.9-.4 2.2-1.6 2.7-2.7c-.04.05.2 0 .2 0c0 0-.02 2.68 0 2.7c.5 0 1-.1 1.5-.3c-.03.04-.1.7-.1.7l-1.4 0zm7.3.5c0 .6-.5 1-1 1c-1 0-.7-.9-1.2-.9c-.2 0-.3.2-.5.5c0 0 0 3.4 0 3.4c0 1 .5 1.3.6 1.4c0-.02 0 .2 0 .2l-3.3 0c0 0 0-.2 0-.2c.2-.1.7-.5.7-1.4c0 0 0-3.1 0-3.1c0-.9-.5-1.2-.7-1.4c0 .04 0-.2 0-.2l2.7-.4c0 0-.23 1.54-.2 1.5c.3-.8.8-1.5 1.8-1.5c.6 0 1.1.4 1.1 1.1zm6.2 3.3c0 0 0 .3 0 .3c-.3 1.2-1.3 2.2-2.8 2.2c-1.8 0-3.3-1.6-3.3-3.5c0-1.9 1.5-3.4 3.3-3.4c1.4 0 2.6.9 2.9 2.3c0 0-4.1.8-4.1.8c.2 1.2.9 2.3 2.3 2.3c.4 0 1.2-.2 1.7-1zm-4.1-2.3c0 .2 0 .5.1.7c0 0 1-.2 1-.2c.4-.1.5-.3.5-.6c0-.7-.6-1.6-1.1-1.6c-.6 0-.5 1.4-.5 1.7zm14.7 2.3c0 0 0 .3 0 .3c-.3 1.2-1.3 2.2-2.8 2.2c-1.8 0-3.3-1.6-3.3-3.5c0-1.9 1.5-3.4 3.3-3.4c1.4 0 2.6.9 2.9 2.3c0 0-4.1.8-4.1.8c.2 1.2.9 2.3 2.3 2.3c.4 0 1.2-.2 1.7-1zm-4.1-2.3c0 .2 0 .5.1.7c0 0 1-.2 1-.2c.4-.1.5-.3.5-.6c0-.7-.6-1.6-1.1-1.6c-.6 0-.5 1.4-.5 1.7zm5.3 1.8c0 0 0-2.1 0-2.1c0-.8-.5-1.1-.7-1.2c.03.04 0-.2 0-.2l2.7-.4c0 0 .04 3.9 0 3.9c0 1.1.4 1.8 1.1 1.8c.6 0 .9-.8.8-1.4c0 0 0-2.5 0-2.5c0-.9-.5-1.1-.7-1.2c.03.04 0-.2 0-.2l2.8-.4c0 0-.04 5.31 0 5.3c0 .9.5 1.1.6 1.2c-.02-.02 0 .2 0 .2l-2.7 0c0 0 .11-1.54.1-1.5c-.4 1.2-1.3 1.7-2.1 1.7c-1.5 0-1.9-1.3-1.9-3zm13.9 2.6c.03-.02 0 .2 0 .2l-3.6 0c0 0-.01-.22 0-.2c.1-.1.7-.5.2-1.2c-.02-.03-.8-1.3-.8-1.3c0 0-.75.89-.8.9c-.6.8-.1 1.5.2 1.6c0-.02 0 .2 0 .2l-2.4 0c0 0-.02-.22 0-.2c.4-.1 1.1-.7 1.7-1.4c-.03 0 1.1-1.4 1.1-1.4c0 0-1.11-1.71-1.1-1.7c-.6-.9-1.1-1.4-1.5-1.6c-.01-.02 0-.2 0-.2l3.7 0c0 0-.02.18 0 .2c-.3.1-.7.4-.1 1.3c-.01.03.4.7.4.7c0 0 .59-.69.6-.7c.5-.6.1-1.2-.2-1.3c0-.02 0-.2 0-.2l2.2 0c0 0 .05.18 0 .2c-.4.1-1.1.7-1.7 1.5c-.01-.04-.7.8-.7.8c0 0 1.3 1.97 1.3 2c.5.8 1 1.7 1.5 1.8zm10.2-2.1c0 0 0 .3 0 .3c-.3 1.2-1.3 2.2-2.8 2.2c-1.7 0-3.2-1.6-3.2-3.5c0-1.9 1.5-3.4 3.3-3.4c1.4 0 2.5.9 2.9 2.3c0 0-4.1.8-4.1.8c.2 1.2.8 2.3 2.3 2.3c.3 0 1.2-.2 1.6-1zm-4-2.3c0 .2 0 .5 0 .7c0 0 1.1-.2 1.1-.2c.4-.1.5-.3.5-.6c0-.7-.6-1.6-1.2-1.6c-.5 0-.4 1.4-.4 1.7zm7.3-1.5c0 0 .02 4.11 0 4.1c0 1.9 1.2 1.3 1.3 1.3c0 0 0 .2 0 .2c-.1.1-.8.6-1.9.6c-.8 0-1.4-.5-1.4-1.9c-.05.02 0-4.3 0-4.3l-.9 0c0 0-.01-.42 0-.4c.9-.4 2.2-1.6 2.7-2.7c0 .05.2 0 .2 0c0 0 .02 2.68 0 2.7c.5 0 1.1-.1 1.5-.3c.01.04-.1.7-.1.7l-1.4 0zm5.9 2.8c0-1.8 1.5-3.4 3.5-3.4c1.9 0 3.5 1.6 3.5 3.4c0 1.9-1.6 3.5-3.5 3.5c-2 0-3.5-1.6-3.5-3.5zm4.8 1.3c0-1.6-.8-4.3-2-4.3c-.4 0-.6.7-.6 1.7c0 1.6.8 4.4 1.9 4.4c.5 0 .7-.7.7-1.8zm3.4-.8c0 0 0-2.1 0-2.1c0-.8-.5-1.1-.6-1.2c-.03.04 0-.2 0-.2l2.7-.4c0 0-.01 3.9 0 3.9c0 1.1.3 1.8 1 1.8c.6 0 .9-.8.8-1.4c0 0 0-2.5 0-2.5c0-.9-.5-1.1-.6-1.2c-.03.04 0-.2 0-.2l2.7-.4c0 0 0 5.31 0 5.3c0 .9.5 1.1.6 1.2c.03-.02 0 .2 0 .2l-2.7 0c0 0 .15-1.54.2-1.5c-.4 1.2-1.3 1.7-2.2 1.7c-1.5 0-1.9-1.3-1.9-3zm14.1-3.7c0 0-.05.18 0 .2c-.6.1-1 .6-1.5 1.6c-.2.4-.4.8-.5 1c-.7 1.8-1.1 2.5-.9 3.4c-.6 0-1.3.3-1.6.6c-.6-2-1.4-3.9-1.8-5c-.4-1.1-.8-1.4-1.2-1.6c-.01-.02 0-.2 0-.2l3.6 0c0 0 0 .18 0 .2c-.3.1-.7.4-.2 1.9c.2.6.9 2.5 1 2.9c.2-.5.4-1.1.8-2.3c.1-.2.3-.5.4-1c.3-1-.2-1.4-.6-1.5c.03-.03 0-.2 0-.2l2.5 0zm5.3.9c0 .6-.4 1-1 1c-.9 0-.7-.9-1.2-.9c-.1 0-.3.2-.4.5c0 0 0 3.4 0 3.4c0 1 .5 1.3.5 1.4c.04-.02 0 .2 0 .2l-3.3 0c0 0 .04-.2 0-.2c.2-.1.7-.5.7-1.4c0 0 0-3.1 0-3.1c0-.9-.5-1.2-.7-1.4c.04.04 0-.2 0-.2l2.8-.4c0 0-.29 1.54-.3 1.5c.3-.8.9-1.5 1.8-1.5c.6 0 1.1.4 1.1 1.1zm6.2 3.3c0 0 0 .3 0 .3c-.3 1.2-1.3 2.2-2.8 2.2c-1.7 0-3.3-1.6-3.3-3.5c0-1.9 1.6-3.4 3.3-3.4c1.4 0 2.6.9 3 2.3c0 0-4.2.8-4.2.8c.3 1.2.9 2.3 2.3 2.3c.4 0 1.3-.2 1.7-1zm-4.1-2.3c0 .2.1.5.1.7c0 0 1.1-.2 1.1-.2c.3-.1.5-.3.5-.6c0-.7-.6-1.6-1.2-1.6c-.6 0-.5 1.4-.5 1.7zm9.6-4.8l2.4 0l.8 2l-.3 0l-2.9-2zm-1 7.8c0-1.8 2.9-2 3.8-2.3c0 0 0-1.2 0-1.2c0-.9-.5-1.3-1.1-1.3c-.5 0-.5.5-.5.6c0 .5.2.5.2 1.1c0 .5-.5.8-1.1.8c-.6 0-1-.4-1-1c0-.8 1.2-1.8 2.6-1.8c2.2 0 2.9 1 2.9 3c0 0 0 1.8 0 1.8c0 .8.1 1.2.9 1c0 0 0 .2 0 .2c-.3.5-1 .9-1.5.9c-.7 0-1.4-.4-1.4-1c-.5.7-1.3 1-1.9 1c-1.2 0-1.9-.6-1.9-1.8zm3.8 0c0 0 0-2 0-2c-.6.3-1.7.6-1.7 1.6c0 .7.3 1.2.9 1.2c.3 0 .8-.3.8-.8zm14.3 1.4c.03-.04 0 .2 0 .2l-2.6 0c0 0 .17-.82.2-.8c-.6.7-1.1 1-1.8 1c-1.8 0-2.9-1.6-2.9-3.5c0-1.8 1.3-3.4 3-3.4c.5 0 1 .2 1.4.5c0 0 0-1.7 0-1.7c0-.9-.5-1.3-.7-1.3c.03-.05 0-.3 0-.3l2.8-.4c0 0-.05 8.38 0 8.4c0 .8.4 1.2.6 1.3zm-2.7-.8c0 0 0-4.2 0-4.2c-.3-.7-.8-1.1-1.3-1.1c-1 0-1 1.3-1 2.4c0 1.8.4 3.5 1.4 3.5c.3 0 .6-.2.9-.6zm9.4-1.3c0 0 0 .3 0 .3c-.3 1.2-1.3 2.2-2.8 2.2c-1.8 0-3.3-1.6-3.3-3.5c0-1.9 1.5-3.4 3.3-3.4c1.4 0 2.6.9 2.9 2.3c0 0-4.1.8-4.1.8c.2 1.2.9 2.3 2.3 2.3c.4 0 1.2-.2 1.7-1zm-4.1-2.3c0 .2 0 .5.1.7c0 0 1-.2 1-.2c.4-.1.5-.3.5-.6c0-.7-.6-1.6-1.1-1.6c-.6 0-.5 1.4-.5 1.7zm5.3 4.8c.03-.02-.6-2.8-.6-2.8c0 0 .31.02.3 0c.5 1.1 1.4 2.5 2.7 2.5c.6 0 1-.4 1-1.1c0-1.4-3.8-.8-3.8-3.7c0-1.2 1.1-1.8 2.2-1.8c1 0 1.4.5 2.4 0c-.02.02.5 2.5.5 2.5c0 0-.3 0-.3 0c-.6-1.2-1.7-2.2-2.6-2.2c-.6 0-1 .2-.9.8c.2 1.1 4.1.8 4.1 3.8c0 1.1-1.1 2-2.6 2c-1 0-1.3-.3-2.4 0zm11.7-7.6l-.3 0l.8-2l2.4 0l-2.9 2zm3.9 5.1c0 0 0 .3 0 .3c-.3 1.2-1.3 2.2-2.8 2.2c-1.8 0-3.3-1.6-3.3-3.5c0-1.9 1.6-3.4 3.3-3.4c1.4 0 2.6.9 2.9 2.3c0 0-4.1.8-4.1.8c.2 1.2.9 2.3 2.3 2.3c.4 0 1.2-.2 1.7-1zm-4.1-2.3c0 .2 0 .5.1.7c0 0 1-.2 1-.2c.4-.1.5-.3.5-.6c0-.7-.5-1.6-1.1-1.6c-.6 0-.5 1.4-.5 1.7zm4.6 1.4c0-1.8 1.5-3.5 3.6-3.5c1.3 0 2.5.9 2.5 2c0 .7-.5 1.1-1 1.1c-.5 0-1-.3-1-.9c0-.5.3-.6.3-1c0-.4-.5-.9-1.1-.9c-1.1 0-1.5.8-1.5 2c0 1.8 1.1 3.1 2.5 3.1c.6 0 1.4-.2 1.8-1c0 0 0 .5 0 .5c-.5 1.5-1.7 2-2.8 2c-1.7 0-3.3-1.6-3.3-3.4zm13.9 3c.05-.02 0 .2 0 .2l-3.3 0c0 0-.01-.22 0-.2c.2-.1.6-.5.6-1.4c0 0 0-2.6 0-2.6c0-1.5-.1-1.9-.7-1.9c-.5 0-.9.4-1.1.8c0 0 0 3.8 0 3.8c0 .9.5 1.2.6 1.3c0-.02 0 .2 0 .2l-3.3 0c0 0-.01-.2 0-.2c.1-.1.7-.4.7-1.3c0 0 0-6.4 0-6.4c0-.8-.3-1.2-.7-1.3c-.01-.05 0-.3 0-.3l2.7-.4c0 0 .02 4.13 0 4.1c.4-.5.9-.9 1.6-.9c1.6 0 2.3 1 2.3 2.3c0 0 0 2.8 0 2.8c0 .9.5 1.3.6 1.4zm.5-1.4c0-1.8 2.9-2 3.8-2.3c0 0 0-1.2 0-1.2c0-.9-.5-1.3-1.1-1.3c-.6 0-.6.5-.6.6c0 .5.3.5.3 1.1c0 .5-.5.8-1.1.8c-.6 0-1-.4-1-1c0-.8 1.2-1.8 2.6-1.8c2.2 0 2.9 1 2.9 3c0 0 0 1.8 0 1.8c0 .8.1 1.2.8 1c0 0 0 .2 0 .2c-.2.5-.9.9-1.4.9c-.7 0-1.4-.4-1.4-1c-.5.7-1.3 1-1.9 1c-1.3 0-1.9-.6-1.9-1.8zm3.8 0c0 0 0-2 0-2c-.6.3-1.7.6-1.7 1.6c0 .7.3 1.2.9 1.2c.3 0 .8-.3.8-.8zm10.5 1.4c.02-.02 0 .2 0 .2l-3.3 0c0 0-.04-.22 0-.2c.2-.1.6-.5.6-1.4c0 0 0-2.6 0-2.6c0-1.5-.2-1.9-.8-1.9c-.4 0-.8.4-1 .8c0 0 0 3.7 0 3.7c0 1 .5 1.3.6 1.4c-.04-.02 0 .2 0 .2l-3.3 0c0 0-.04-.2 0-.2c.1-.1.6-.5.6-1.4c0 0 0-3.1 0-3.1c0-.9-.4-1.2-.6-1.4c-.04.04 0-.2 0-.2l2.7-.4c0 0-.23 1.33-.2 1.3c.3-.8.9-1.3 1.8-1.3c1.5 0 2.3 1 2.3 2.3c0 0 0 2.8 0 2.8c0 .9.5 1.3.6 1.4zm7.4 1.1c0 1.5-1.4 2.1-3.5 2.1c-2.4 0-3.4-.5-3.4-1.5c0-.4.4-.7.9-.9c-.5-.4-.7-.8-.7-1.4c0-.7.5-1.3 1-1.6c-.6-.4-.9-1.1-.9-1.8c0-1.5 1.4-2.5 2.9-2.5c.6 0 1.2.2 1.7.5c0 0 0-.1 0-.1c0-.7.5-1.2 1.2-1.2c.5 0 .8.4.8.8c0 .5-.3.9-.8.9c-.4 0-.5-.5-.7-.5c-.2 0-.2.1-.2.2c0 .2.9.7.9 1.9c0 1.4-1.4 2.5-2.9 2.5c-.7 0-1.3-.2-1.8-.5c-.1.1-.1.3-.1.4c0 .6.4.8.9.8c.6 0 1.8-.1 2.5-.1c1.1 0 2.2.4 2.2 2zm-4.5-6.4c0 1.1.4 3.4 1.2 3.4c.4 0 .4-.7.4-.9c0-.9-.5-3.3-1.3-3.3c-.3 0-.3.3-.3.8zm3.2 7c0-.6-.5-.7-1.1-.7c-.6 0-1.7.2-2.3.2c-.3 0-.5-.1-.8-.1c-.1.1-.2.4-.2.5c0 .9 1 1.3 2.1 1.3c1.3 0 2.3-.5 2.3-1.2zm7.5-3.8c0 0 0 .3 0 .3c-.3 1.2-1.3 2.2-2.8 2.2c-1.8 0-3.3-1.6-3.3-3.5c0-1.9 1.6-3.4 3.3-3.4c1.4 0 2.6.9 2.9 2.3c0 0-4.1.8-4.1.8c.2 1.2.9 2.3 2.3 2.3c.4 0 1.2-.2 1.7-1zm-4.1-2.3c0 .2 0 .5.1.7c0 0 1-.2 1-.2c.4-.1.5-.3.5-.6c0-.7-.6-1.6-1.1-1.6c-.6 0-.5 1.4-.5 1.7zm5.3 4.8c.04-.02-.6-2.8-.6-2.8c0 0 .31.02.3 0c.5 1.1 1.4 2.5 2.7 2.5c.6 0 1-.4 1-1.1c0-1.4-3.8-.8-3.8-3.7c0-1.2 1.1-1.8 2.2-1.8c1 0 1.4.5 2.4 0c-.02.02.5 2.5.5 2.5c0 0-.3 0-.3 0c-.6-1.2-1.6-2.2-2.6-2.2c-.6 0-1 .2-.9.8c.2 1.1 4.1.8 4.1 3.8c0 1.1-1.1 2-2.6 2c-1 0-1.3-.3-2.4 0zm12.4-8.5c0-.3 0-.5 0-.8c0-.2-.1-.4-.4-.4c-.3 0-.5.2-.5.5c0 .7.7 1.7.8 2.5c.02-.02 1.3 0 1.3 0l0 .3l-1.3 0c0 0 .03 4.81 0 4.8c0 .8.4 1.1.6 1.2c-.01-.02 0 .2 0 .2l-3.3 0c0 0-.01-.22 0-.2c.3-.1.7-.4.7-1.2c-.05.01 0-4.8 0-4.8l-.7 0c0 0-.01-.32 0-.3c.6 0 .8-1 .9-1.5c.3-1.5 1.1-1.9 2-1.9c1 0 1.9.7 1.9 1.6c0 .6-.5 1-1 1c-.6 0-1-.5-1-1zm7.1 2.7c0 .6-.5 1-1 1c-1 0-.7-.9-1.2-.9c-.2 0-.3.2-.5.5c0 0 0 3.4 0 3.4c0 1 .5 1.3.6 1.4c0-.02 0 .2 0 .2l-3.3 0c0 0 0-.2 0-.2c.2-.1.7-.5.7-1.4c0 0 0-3.1 0-3.1c0-.9-.5-1.2-.7-1.4c0 .04 0-.2 0-.2l2.7-.4c0 0-.23 1.54-.2 1.5c.3-.8.8-1.5 1.8-1.5c.6 0 1.1.4 1.1 1.1zm1 2.8c0 0 0-2.1 0-2.1c0-.8-.5-1.1-.6-1.2c-.03.04 0-.2 0-.2l2.7-.4c0 0-.01 3.9 0 3.9c0 1.1.3 1.8 1 1.8c.6 0 .9-.8.8-1.4c0 0 0-2.5 0-2.5c0-.9-.5-1.1-.6-1.2c-.03.04 0-.2 0-.2l2.7-.4c0 0 0 5.31 0 5.3c0 .9.5 1.1.6 1.2c.03-.02 0 .2 0 .2l-2.7 0c0 0 .15-1.54.2-1.5c-.4 1.2-1.3 1.7-2.2 1.7c-1.5 0-1.9-1.3-1.9-3zm7.2-.4c0-1.8 1.4-3.5 3.5-3.5c1.3 0 2.6.9 2.6 2c0 .7-.6 1.1-1.1 1.1c-.5 0-1-.3-1-.9c0-.5.4-.6.4-1c0-.4-.6-.9-1.1-.9c-1.1 0-1.5.8-1.5 2c0 1.8 1 3.1 2.5 3.1c.6 0 1.4-.2 1.8-1c0 0 0 .5 0 .5c-.6 1.5-1.8 2-2.8 2c-1.8 0-3.3-1.6-3.3-3.4zm9.3-2.9c0 0-.01 4.11 0 4.1c0 1.9 1.2 1.3 1.3 1.3c0 0 0 .2 0 .2c-.2.1-.8.6-1.9.6c-.8 0-1.5-.5-1.5-1.9c.03.02 0-4.3 0-4.3l-.8 0c0 0-.03-.42 0-.4c.9-.4 2.2-1.6 2.7-2.7c-.03.05.2 0 .2 0c0 0-.01 2.68 0 2.7c.5 0 1-.1 1.5-.3c-.01.04-.1.7-.1.7l-1.4 0zm2.5 3.3c0 0 0-2.1 0-2.1c0-.8-.5-1.1-.6-1.2c-.05.04 0-.2 0-.2l2.7-.4c0 0-.03 3.9 0 3.9c0 1.1.3 1.8 1 1.8c.6 0 .9-.8.8-1.4c0 0 0-2.5 0-2.5c0-.9-.5-1.1-.6-1.2c-.05.04 0-.2 0-.2l2.7-.4c0 0-.02 5.31 0 5.3c0 .9.5 1.1.6 1.2c.01-.02 0 .2 0 .2l-2.7 0c0 0 .13-1.54.1-1.5c-.3 1.2-1.3 1.7-2.1 1.7c-1.5 0-1.9-1.3-1.9-3zm13.2.5c0 0 0 .3 0 .3c-.3 1.2-1.3 2.2-2.8 2.2c-1.7 0-3.2-1.6-3.2-3.5c0-1.9 1.5-3.4 3.2-3.4c1.4 0 2.6.9 3 2.3c0 0-4.2.8-4.2.8c.3 1.2.9 2.3 2.3 2.3c.4 0 1.3-.2 1.7-1zm-4.1-2.3c0 .2.1.5.1.7c0 0 1.1-.2 1.1-.2c.3-.1.5-.3.5-.6c0-.7-.6-1.6-1.2-1.6c-.6 0-.5 1.4-.5 1.7zm5.3 1.8c0 0 0-2.1 0-2.1c0-.8-.5-1.1-.6-1.2c-.03.04 0-.2 0-.2l2.7-.4c0 0-.01 3.9 0 3.9c0 1.1.3 1.8 1 1.8c.6 0 .9-.8.8-1.4c0 0 0-2.5 0-2.5c0-.9-.5-1.1-.6-1.2c-.03.04 0-.2 0-.2l2.7-.4c0 0 0 5.31 0 5.3c0 .9.5 1.1.6 1.2c.02-.02 0 .2 0 .2l-2.7 0c0 0 .15-1.54.1-1.5c-.3 1.2-1.3 1.7-2.1 1.7c-1.5 0-1.9-1.3-1.9-3zm14 2.6c-.03-.02 0 .2 0 .2l-3.7 0c0 0 .03-.22 0-.2c.2-.1.7-.5.2-1.2c.02-.03-.8-1.3-.8-1.3c0 0-.71.89-.7.9c-.6.8-.1 1.5.1 1.6c.04-.02 0 .2 0 .2l-2.4 0c0 0 .03-.22 0-.2c.4-.1 1.2-.7 1.7-1.4c.02 0 1.1-1.4 1.1-1.4c0 0-1.07-1.71-1.1-1.7c-.5-.9-1-1.4-1.5-1.6c.03-.02 0-.2 0-.2l3.7 0c0 0 .03.18 0 .2c-.3.1-.7.4-.1 1.3c.04.03.5.7.5.7c0 0 .54-.69.5-.7c.5-.6.1-1.2-.2-1.3c.04-.02 0-.2 0-.2l2.3 0c0 0-.01.18 0 .2c-.4.1-1.2.7-1.8 1.5c.04-.04-.6.8-.6.8c0 0 1.25 1.97 1.2 2c.6.8 1 1.7 1.6 1.8zm.3-.8c0-.7.5-1.2 1.2-1.2c.7 0 1.2.5 1.2 1.2c0 .6-.5 1.2-1.2 1.2c-.7 0-1.2-.6-1.2-1.2zm3.3-4.5c1-.5 1.6-1.5 1.7-2.2c0 0-.1 0-.1 0c-.1.3-.3.5-.7.5c-.4 0-1-.4-1-1.2c0-.7.5-1.1 1.2-1.1c.9 0 1.2.6 1.2 1.3c0 .6-.3 1.9-2.3 2.9c0 0 0-.2 0-.2zm2.8 0c.9-.5 1.5-1.5 1.6-2.2c0 0-.1 0-.1 0c-.1.3-.3.5-.7.5c-.4 0-1-.4-1-1.2c0-.7.5-1.1 1.2-1.1c.9 0 1.3.6 1.3 1.3c0 .6-.4 1.9-2.3 2.9c0 0 0-.2 0-.2z" stroke="none" fill="#144542"/></g><g id="Polygon171152"><path d="m3 66c0 0 0 4.11 0 4.1c0 1.9 1.2 1.3 1.3 1.3c0 0 0 .2 0 .2c-.2.1-.8.6-1.9.6c-.8 0-1.5-.5-1.5-1.9c.04.02 0-4.3 0-4.3l-.8 0c0 0-.02-.42 0-.4c.9-.4 2.2-1.6 2.7-2.7c-.02.05.2 0 .2 0c0 0 0 2.68 0 2.7c.5 0 1.1-.1 1.5-.3c0 .04-.1.7-.1.7l-1.4 0zm7.3.5c0 .6-.5 1-1 1c-.9 0-.7-.9-1.2-.9c-.1 0-.3.2-.4.5c0 0 0 3.4 0 3.4c0 1 .5 1.3.5 1.4c.03-.02 0 .2 0 .2l-3.3 0c0 0 .03-.2 0-.2c.2-.1.7-.5.7-1.4c0 0 0-3.1 0-3.1c0-.9-.5-1.2-.7-1.4c.03.04 0-.2 0-.2l2.8-.4c0 0-.3 1.54-.3 1.5c.3-.8.8-1.5 1.8-1.5c.6 0 1.1.4 1.1 1.1zm3.9-1.8l-2.9-2l2.4 0l.8 2l-.3 0zm2.3 5.1c0 0 0 .3 0 .3c-.3 1.2-1.3 2.2-2.8 2.2c-1.7 0-3.3-1.6-3.3-3.5c0-1.9 1.6-3.4 3.3-3.4c1.4 0 2.6.9 2.9 2.3c0 0-4.1.8-4.1.8c.3 1.2.9 2.3 2.3 2.3c.4 0 1.3-.2 1.7-1zm-4.1-2.3c0 .2 0 .5.1.7c0 0 1-.2 1-.2c.4-.1.6-.3.6-.6c0-.7-.6-1.6-1.2-1.6c-.6 0-.5 1.4-.5 1.7zm5.4 4.8c-.04-.02-.6-2.8-.6-2.8c0 0 .23.02.2 0c.5 1.1 1.4 2.5 2.7 2.5c.6 0 1-.4 1-1.1c0-1.4-3.8-.8-3.8-3.7c0-1.2 1.1-1.8 2.3-1.8c.9 0 1.3.5 2.3 0c0 .02.5 2.5.5 2.5c0 0-.27 0-.3 0c-.5-1.2-1.6-2.2-2.6-2.2c-.6 0-1 .2-.9.8c.2 1.1 4.1.8 4.1 3.8c0 1.1-1.1 2-2.6 2c-1 0-1.3-.3-2.3 0zm16.6-.4c-.02-.04 0 .2 0 .2l-2.6 0c0 0 .13-.82.1-.8c-.5.7-1.1 1-1.8 1c-1.7 0-2.9-1.6-2.9-3.5c0-1.8 1.3-3.4 3-3.4c.6 0 1 .2 1.4.5c0 0 0-1.7 0-1.7c0-.9-.4-1.3-.6-1.3c-.01-.05 0-.3 0-.3l2.7-.4c0 0 .01 8.38 0 8.4c0 .8.5 1.2.7 1.3zm-2.8-.8c0 0 0-4.2 0-4.2c-.3-.7-.8-1.1-1.3-1.1c-1 0-.9 1.3-.9 2.4c0 1.8.3 3.5 1.3 3.5c.3 0 .6-.2.9-.6zm9.4-1.3c0 0 0 .3 0 .3c-.3 1.2-1.3 2.2-2.8 2.2c-1.7 0-3.2-1.6-3.2-3.5c0-1.9 1.5-3.4 3.3-3.4c1.3 0 2.5.9 2.9 2.3c0 0-4.1.8-4.1.8c.2 1.2.8 2.3 2.3 2.3c.3 0 1.2-.2 1.6-1zm-4-2.3c0 .2 0 .5 0 .7c0 0 1.1-.2 1.1-.2c.4-.1.5-.3.5-.6c0-.7-.6-1.6-1.2-1.6c-.5 0-.4 1.4-.4 1.7zm15.8 4.4c.01-.02 0 .2 0 .2l-3.3 0c0 0-.04-.22 0-.2c.1-.1.6-.5.6-1.4c0 0 0-2.6 0-2.6c0-1.5-.2-1.9-.8-1.9c-.5 0-.8.4-1 .9c0 0 0 3.6 0 3.6c0 .9.4 1.3.6 1.4c.01-.02 0 .2 0 .2l-3.3 0c0 0-.05-.22 0-.2c.1-.1.6-.5.6-1.4c0 0 0-2.6 0-2.6c0-1.5-.2-1.9-.8-1.9c-.4 0-.8.4-1 .8c0 0 0 3.7 0 3.7c0 1 .5 1.3.6 1.4c-.05-.02 0 .2 0 .2l-3.3 0c0 0-.05-.2 0-.2c.1-.1.6-.5.6-1.4c0 0 0-3.1 0-3.1c0-.9-.5-1.2-.6-1.4c-.05.04 0-.2 0-.2l2.7-.4c0 0-.24 1.33-.2 1.3c.3-.8.9-1.3 1.8-1.3c1.1 0 1.8.5 2.1 1.3c.3-.8.9-1.3 1.8-1.3c1.5 0 2.3 1 2.3 2.3c0 0 0 2.8 0 2.8c0 .9.4 1.3.6 1.4zm.5-1.4c0-1.8 2.9-2 3.7-2.3c0 0 0-1.2 0-1.2c0-.9-.4-1.3-1-1.3c-.6 0-.6.5-.6.6c0 .5.2.5.2 1.1c0 .5-.4.8-1.1.8c-.6 0-.9-.4-.9-1c0-.8 1.2-1.8 2.6-1.8c2.2 0 2.9 1 2.9 3c0 0 0 1.8 0 1.8c0 .8.1 1.2.8 1c0 0 0 .2 0 .2c-.2.5-1 .9-1.4.9c-.7 0-1.4-.4-1.4-1c-.6.7-1.4 1-1.9 1c-1.3 0-1.9-.6-1.9-1.8zm3.7 0c0 0 0-2 0-2c-.6.3-1.7.6-1.7 1.6c0 .7.4 1.2.9 1.2c.3 0 .8-.3.8-.8zm10.6 1.4c-.01-.02 0 .2 0 .2l-3.4 0c0 0 .03-.22 0-.2c.2-.1.7-.5.7-1.4c0 0 0-2.6 0-2.6c0-1.5-.2-1.9-.8-1.9c-.5 0-.8.4-1 .8c0 0 0 3.7 0 3.7c0 1 .5 1.3.5 1.4c.03-.02 0 .2 0 .2l-3.3 0c0 0 .03-.2 0-.2c.2-.1.7-.5.7-1.4c0 0 0-3.1 0-3.1c0-.9-.5-1.2-.7-1.4c.03.04 0-.2 0-.2l2.8-.4c0 0-.26 1.33-.3 1.3c.4-.8 1-1.3 1.9-1.3c1.5 0 2.2 1 2.2 2.3c0 0 0 2.8 0 2.8c0 .9.5 1.3.7 1.4zm7.6 0c0-.04 0 .2 0 .2l-2.6 0c0 0 .15-.82.1-.8c-.5.7-1.1 1-1.7 1c-1.8 0-2.9-1.6-2.9-3.5c0-1.8 1.2-3.4 2.9-3.4c.6 0 1.1.2 1.5.5c0 0 0-1.7 0-1.7c0-.9-.5-1.3-.7-1.3c.01-.05 0-.3 0-.3l2.7-.4c0 0 .03 8.38 0 8.4c0 .8.5 1.2.7 1.3zm-2.7-.8c0 0 0-4.2 0-4.2c-.4-.7-.9-1.1-1.3-1.1c-1.1 0-1 1.3-1 2.4c0 1.8.3 3.5 1.4 3.5c.3 0 .6-.2.9-.6zm9.4-1.3c0 0 0 .3 0 .3c-.3 1.2-1.3 2.2-2.8 2.2c-1.8 0-3.3-1.6-3.3-3.5c0-1.9 1.5-3.4 3.3-3.4c1.4 0 2.6.9 2.9 2.3c0 0-4.1.8-4.1.8c.2 1.2.8 2.3 2.3 2.3c.3 0 1.2-.2 1.7-1zm-4.1-2.3c0 .2 0 .5 0 .7c0 0 1.1-.2 1.1-.2c.4-.1.5-.3.5-.6c0-.7-.6-1.6-1.2-1.6c-.5 0-.4 1.4-.4 1.7zm5.2 1.8c0 0 0-2.1 0-2.1c0-.8-.5-1.1-.6-1.2c.01.04 0-.2 0-.2l2.7-.4c0 0 .02 3.9 0 3.9c0 1.1.4 1.8 1 1.8c.7 0 .9-.8.8-1.4c0 0 0-2.5 0-2.5c0-.9-.4-1.1-.6-1.2c.01.04 0-.2 0-.2l2.7-.4c0 0 .04 5.31 0 5.3c0 .9.5 1.1.7 1.2c-.04-.02 0 .2 0 .2l-2.7 0c0 0 .09-1.54.1-1.5c-.4 1.2-1.3 1.7-2.1 1.7c-1.6 0-2-1.3-2-3zm12.7-2.8c0 .6-.5 1-1 1c-1 0-.8-.9-1.2-.9c-.2 0-.4.2-.5.5c0 0 0 3.4 0 3.4c0 1 .5 1.3.6 1.4c-.03-.02 0 .2 0 .2l-3.3 0c0 0-.03-.2 0-.2c.1-.1.6-.5.6-1.4c0 0 0-3.1 0-3.1c0-.9-.4-1.2-.6-1.4c-.03.04 0-.2 0-.2l2.7-.4c0 0-.26 1.54-.3 1.5c.4-.8.9-1.5 1.8-1.5c.7 0 1.2.4 1.2 1.1zm.9 5.8c.01-.02-.6-2.8-.6-2.8c0 0 .29.02.3 0c.4 1.1 1.4 2.5 2.7 2.5c.6 0 .9-.4.9-1.1c0-1.4-3.7-.8-3.7-3.7c0-1.2 1.1-1.8 2.2-1.8c1 0 1.4.5 2.4 0c-.04.02.5 2.5.5 2.5c0 0-.32 0-.3 0c-.6-1.2-1.7-2.2-2.6-2.2c-.6 0-1 .2-.9.8c.2 1.1 4.1.8 4.1 3.8c0 1.1-1.1 2-2.6 2c-1 0-1.3-.3-2.4 0zm16.6-.4c.04-.04 0 .2 0 .2l-2.5 0c0 0 .08-.82.1-.8c-.6.7-1.1 1-1.8 1c-1.8 0-2.9-1.6-2.9-3.5c0-1.8 1.3-3.4 3-3.4c.5 0 1 .2 1.4.5c0 0 0-1.7 0-1.7c0-.9-.5-1.3-.7-1.3c.05-.05 0-.3 0-.3l2.8-.4c0 0-.03 8.38 0 8.4c0 .8.4 1.2.6 1.3zm-2.7-.8c0 0 0-4.2 0-4.2c-.3-.7-.8-1.1-1.3-1.1c-1 0-1 1.3-1 2.4c0 1.8.4 3.5 1.4 3.5c.3 0 .6-.2.9-.6zm9.4-1.3c0 0 0 .3 0 .3c-.3 1.2-1.3 2.2-2.8 2.2c-1.8 0-3.3-1.6-3.3-3.5c0-1.9 1.6-3.4 3.3-3.4c1.4 0 2.6.9 2.9 2.3c0 0-4.1.8-4.1.8c.2 1.2.9 2.3 2.3 2.3c.4 0 1.2-.2 1.7-1zm-4.1-2.3c0 .2 0 .5.1.7c0 0 1-.2 1-.2c.4-.1.6-.3.6-.6c0-.7-.6-1.6-1.2-1.6c-.6 0-.5 1.4-.5 1.7zm8.6 1.4c0-1.8 1.5-3.5 3.6-3.5c1.3 0 2.5.9 2.5 2c0 .7-.6 1.1-1 1.1c-.5 0-1-.3-1-.9c0-.5.3-.6.3-1c0-.4-.5-.9-1.1-.9c-1.1 0-1.5.8-1.5 2c0 1.8 1 3.1 2.5 3.1c.6 0 1.4-.2 1.8-1c0 0 0 .5 0 .5c-.5 1.5-1.7 2-2.8 2c-1.7 0-3.3-1.6-3.3-3.4zm6.6-.1c0-1.8 1.6-3.4 3.5-3.4c2 0 3.6 1.6 3.6 3.4c0 1.9-1.6 3.5-3.6 3.5c-1.9 0-3.5-1.6-3.5-3.5zm4.9 1.3c0-1.6-.9-4.3-2-4.3c-.5 0-.7.7-.7 1.7c0 1.6.8 4.4 2 4.4c.4 0 .7-.7.7-1.8zm10 1.8c.05-.02 0 .2 0 .2l-3.3 0c0 0-.01-.22 0-.2c.2-.1.6-.5.6-1.4c0 0 0-2.6 0-2.6c0-1.5-.1-1.9-.7-1.9c-.5 0-.9.4-1.1.8c0 0 0 3.7 0 3.7c0 1 .5 1.3.6 1.4c0-.02 0 .2 0 .2l-3.3 0c0 0-.01-.2 0-.2c.2-.1.7-.5.7-1.4c0 0 0-3.1 0-3.1c0-.9-.5-1.2-.7-1.4c-.01.04 0-.2 0-.2l2.7-.4c0 0-.2 1.33-.2 1.3c.4-.8 1-1.3 1.8-1.3c1.6 0 2.3 1 2.3 2.3c0 0 0 2.8 0 2.8c0 .9.5 1.3.6 1.4zm7.8 0c.05-.02 0 .2 0 .2l-3.3 0c0 0-.01-.22 0-.2c.2-.1.6-.5.6-1.4c0 0 0-2.6 0-2.6c0-1.5-.1-1.9-.7-1.9c-.5 0-.9.4-1.1.8c0 0 0 3.7 0 3.7c0 1 .5 1.3.6 1.4c0-.02 0 .2 0 .2l-3.3 0c0 0-.01-.2 0-.2c.2-.1.7-.5.7-1.4c0 0 0-3.1 0-3.1c0-.9-.5-1.2-.7-1.4c-.01.04 0-.2 0-.2l2.7-.4c0 0-.2 1.33-.2 1.3c.4-.8 1-1.3 1.8-1.3c1.6 0 2.3 1 2.3 2.3c0 0 0 2.8 0 2.8c0 .9.5 1.3.6 1.4zm.5-1.4c0-1.8 2.9-2 3.8-2.3c0 0 0-1.2 0-1.2c0-.9-.5-1.3-1.1-1.3c-.6 0-.6.5-.6.6c0 .5.3.5.3 1.1c0 .5-.5.8-1.1.8c-.6 0-1-.4-1-1c0-.8 1.2-1.8 2.6-1.8c2.2 0 2.9 1 2.9 3c0 0 0 1.8 0 1.8c0 .8.1 1.2.8 1c0 0 0 .2 0 .2c-.2.5-.9.9-1.4.9c-.7 0-1.4-.4-1.4-1c-.5.7-1.3 1-1.9 1c-1.3 0-1.9-.6-1.9-1.8zm3.8 0c0 0 0-2 0-2c-.6.3-1.7.6-1.7 1.6c0 .7.3 1.2.9 1.2c.3 0 .8-.3.8-.8zm3.7-6.9c0-.7.6-1.2 1.2-1.2c.7 0 1.2.5 1.2 1.2c0 .6-.5 1.1-1.2 1.1c-.6 0-1.2-.5-1.2-1.1zm-.4 8.3c.2-.1.6-.4.6-1.3c0 0 0-3.3 0-3.3c0-.9-.4-1.2-.6-1.3c-.04.03 0-.2 0-.2l2.7-.4c0 0-.01 5.18 0 5.2c0 .9.4 1.2.6 1.3c0-.02 0 .2 0 .2l-3.3 0c0 0-.04-.22 0-.2zm4.4.4c-.04-.02-.6-2.8-.6-2.8c0 0 .23.02.2 0c.5 1.1 1.4 2.5 2.7 2.5c.6 0 1-.4 1-1.1c0-1.4-3.8-.8-3.8-3.7c0-1.2 1.1-1.8 2.3-1.8c.9 0 1.3.5 2.3 0c0 .02.5 2.5.5 2.5c0 0-.28 0-.3 0c-.5-1.2-1.6-2.2-2.6-2.2c-.6 0-1 .2-.9.8c.2 1.1 4.1.8 4.1 3.8c0 1.1-1.1 2-2.6 2c-1 0-1.3-.3-2.3 0zm6 0c.04-.02-.6-2.8-.6-2.8c0 0 .32.02.3 0c.5 1.1 1.4 2.5 2.7 2.5c.6 0 1-.4 1-1.1c0-1.4-3.8-.8-3.8-3.7c0-1.2 1.1-1.8 2.2-1.8c1 0 1.4.5 2.4 0c-.01.02.5 2.5.5 2.5c0 0-.29 0-.3 0c-.6-1.2-1.6-2.2-2.6-2.2c-.6 0-1 .2-.9.8c.2 1.1 4.1.8 4.1 3.8c0 1.1-1.1 2-2.6 2c-1 0-1.3-.3-2.4 0zm5.5-1.8c0-1.8 2.9-2 3.8-2.3c0 0 0-1.2 0-1.2c0-.9-.5-1.3-1-1.3c-.6 0-.6.5-.6.6c0 .5.2.5.2 1.1c0 .5-.4.8-1.1.8c-.6 0-.9-.4-.9-1c0-.8 1.1-1.8 2.5-1.8c2.2 0 2.9 1 2.9 3c0 0 0 1.8 0 1.8c0 .8.2 1.2.9 1c0 0 0 .2 0 .2c-.3.5-1 .9-1.5.9c-.7 0-1.4-.4-1.4-1c-.5.7-1.3 1-1.9 1c-1.2 0-1.9-.6-1.9-1.8zm3.8 0c0 0 0-2 0-2c-.6.3-1.7.6-1.7 1.6c0 .7.3 1.2.9 1.2c.3 0 .8-.3.8-.8zm10.5 1.4c.04-.02 0 .2 0 .2l-3.3 0c0 0-.01-.22 0-.2c.2-.1.6-.5.6-1.4c0 0 0-2.6 0-2.6c0-1.5-.1-1.9-.8-1.9c-.4 0-.8.4-1 .8c0 0 0 3.7 0 3.7c0 1 .5 1.3.6 1.4c-.01-.02 0 .2 0 .2l-3.3 0c0 0-.01-.2 0-.2c.1-.1.6-.5.6-1.4c0 0 0-3.1 0-3.1c0-.9-.4-1.2-.6-1.4c-.01.04 0-.2 0-.2l2.7-.4c0 0-.21 1.33-.2 1.3c.4-.8 1-1.3 1.8-1.3c1.5 0 2.3 1 2.3 2.3c0 0 0 2.8 0 2.8c0 .9.5 1.3.6 1.4zm.5-3c0-1.8 1.5-3.5 3.6-3.5c1.3 0 2.5.9 2.5 2c0 .7-.6 1.1-1 1.1c-.5 0-1-.3-1-.9c0-.5.3-.6.3-1c0-.4-.5-.9-1.1-.9c-1.1 0-1.5.8-1.5 2c0 1.8 1 3.1 2.5 3.1c.6 0 1.4-.2 1.8-1c0 0 0 .5 0 .5c-.5 1.5-1.7 2-2.8 2c-1.7 0-3.3-1.6-3.3-3.4zm12.7.9c0 0 0 .3 0 .3c-.3 1.2-1.3 2.2-2.8 2.2c-1.8 0-3.3-1.6-3.3-3.5c0-1.9 1.5-3.4 3.3-3.4c1.4 0 2.6.9 2.9 2.3c0 0-4.1.8-4.1.8c.2 1.2.9 2.3 2.3 2.3c.4 0 1.2-.2 1.7-1zm-4.1-2.3c0 .2 0 .5.1.7c0 0 1-.2 1-.2c.4-.1.5-.3.5-.6c0-.7-.6-1.6-1.1-1.6c-.6 0-.5 1.4-.5 1.7zm15.6 1.3c0 1.9-1.2 3.5-2.9 3.5c-.6 0-1-.2-1.4-.5c0 0 0 1.6 0 1.6c0 .9.4 1.3.5 1.3c.04.05 0 .2 0 .2l-3.3 0c0 0 0-.14 0-.1c.2-.1.7-.6.7-1.4c0 0 0-6 0-6c0-1-.4-1.4-.7-1.4c.04.01 0-.2 0-.2l2.7-.5c0 0-.19 1.3-.2 1.3c.6-1.1 1.3-1.2 1.8-1.2c1.7 0 2.8 1.5 2.8 3.4zm-2.1.3c0-1.4-.4-3.1-1.3-3.1c-.3 0-.6.1-.9.7c0 0 0 4.3 0 4.3c.3.6.5.9 1.2.9c.8 0 1-1.1 1-2.8zm8.9.7c0 0 0 .3 0 .3c-.3 1.2-1.3 2.2-2.8 2.2c-1.8 0-3.3-1.6-3.3-3.5c0-1.9 1.5-3.4 3.3-3.4c1.4 0 2.6.9 2.9 2.3c0 0-4.1.8-4.1.8c.2 1.2.9 2.3 2.3 2.3c.4 0 1.2-.2 1.7-1zm-4.1-2.3c0 .2 0 .5.1.7c0 0 1-.2 1-.2c.4-.1.5-.3.5-.6c0-.7-.6-1.6-1.1-1.6c-.6 0-.5 1.4-.5 1.7zm10.1-1c0 .6-.5 1-1 1c-1 0-.8-.9-1.2-.9c-.2 0-.3.2-.5.5c0 0 0 3.4 0 3.4c0 1 .5 1.3.6 1.4c0-.02 0 .2 0 .2l-3.3 0c0 0 0-.2 0-.2c.2-.1.7-.5.7-1.4c0 0 0-3.1 0-3.1c0-.9-.5-1.2-.7-1.4c0 .04 0-.2 0-.2l2.7-.4c0 0-.23 1.54-.2 1.5c.3-.8.8-1.5 1.8-1.5c.6 0 1.1.4 1.1 1.1zm11.6 5.4c-.01-.02 0 .2 0 .2l-3.4 0c0 0 .05-.22 0-.2c.2-.1.7-.5.7-1.4c0 0 0-2.6 0-2.6c0-1.5-.2-1.9-.8-1.9c-.5 0-.8.4-1.1.9c0 0 0 3.6 0 3.6c0 .9.5 1.3.7 1.4c-.01-.02 0 .2 0 .2l-3.4 0c0 0 .03-.22 0-.2c.2-.1.7-.5.7-1.4c0 0 0-2.6 0-2.6c0-1.5-.2-1.9-.8-1.9c-.5 0-.8.4-1 .8c0 0 0 3.7 0 3.7c0 1 .5 1.3.5 1.4c.04-.02 0 .2 0 .2l-3.3 0c0 0 .03-.2 0-.2c.2-.1.7-.5.7-1.4c0 0 0-3.1 0-3.1c0-.9-.5-1.2-.7-1.4c.03.04 0-.2 0-.2l2.8-.4c0 0-.26 1.33-.3 1.3c.4-.8 1-1.3 1.9-1.3c1.1 0 1.8.5 2.1 1.3c.3-.8.9-1.3 1.8-1.3c1.5 0 2.3 1 2.3 2.3c0 0 0 2.8 0 2.8c0 .9.4 1.3.6 1.4zm6.6-2.1c0 0 0 .3 0 .3c-.3 1.2-1.3 2.2-2.8 2.2c-1.8 0-3.3-1.6-3.3-3.5c0-1.9 1.5-3.4 3.3-3.4c1.4 0 2.6.9 2.9 2.3c0 0-4.1.8-4.1.8c.2 1.2.8 2.3 2.3 2.3c.3 0 1.2-.2 1.7-1zm-4.1-2.3c0 .2 0 .5 0 .7c0 0 1.1-.2 1.1-.2c.4-.1.5-.3.5-.6c0-.7-.6-1.6-1.2-1.6c-.5 0-.4 1.4-.4 1.7zm7.3-1.5c0 0 .03 4.11 0 4.1c0 1.9 1.2 1.3 1.3 1.3c0 0 0 .2 0 .2c-.1.1-.8.6-1.9.6c-.8 0-1.4-.5-1.4-1.9c-.04.02 0-4.3 0-4.3l-.9 0c0 0 0-.42 0-.4c.9-.4 2.2-1.6 2.7-2.7c.01.05.2 0 .2 0c0 0 .03 2.68 0 2.7c.5 0 1.1-.1 1.5-.3c.02.04-.1.7-.1.7l-1.4 0zm6.5 3.3c0 0 0-2.1 0-2.1c0-.8-.5-1.1-.6-1.2c-.04.04 0-.2 0-.2l2.7-.4c0 0-.02 3.9 0 3.9c0 1.1.3 1.8 1 1.8c.6 0 .9-.8.8-1.4c0 0 0-2.5 0-2.5c0-.9-.5-1.1-.6-1.2c-.04.04 0-.2 0-.2l2.7-.4c0 0-.01 5.31 0 5.3c0 .9.5 1.1.6 1.2c.02-.02 0 .2 0 .2l-2.7 0c0 0 .14-1.54.1-1.5c-.3 1.2-1.3 1.7-2.1 1.7c-1.5 0-1.9-1.3-1.9-3zm14.5 2.6c-.02-.02 0 .2 0 .2l-3.4 0c0 0 .03-.22 0-.2c.2-.1.7-.5.7-1.4c0 0 0-2.6 0-2.6c0-1.5-.2-1.9-.8-1.9c-.5 0-.8.4-1 .8c0 0 0 3.7 0 3.7c0 1 .5 1.3.5 1.4c.03-.02 0 .2 0 .2l-3.3 0c0 0 .03-.2 0-.2c.2-.1.7-.5.7-1.4c0 0 0-3.1 0-3.1c0-.9-.5-1.2-.7-1.4c.03.04 0-.2 0-.2l2.8-.4c0 0-.26 1.33-.3 1.3c.4-.8 1-1.3 1.9-1.3c1.5 0 2.2 1 2.2 2.3c0 0 0 2.8 0 2.8c0 .9.5 1.3.7 1.4zm6.5-2.1c0 0 0 .3 0 .3c-.3 1.2-1.3 2.2-2.8 2.2c-1.7 0-3.2-1.6-3.2-3.5c0-1.9 1.5-3.4 3.3-3.4c1.3 0 2.5.9 2.9 2.3c0 0-4.1.8-4.1.8c.2 1.2.8 2.3 2.3 2.3c.3 0 1.2-.2 1.6-1zm-4-2.3c0 .2 0 .5 0 .7c0 0 1.1-.2 1.1-.2c.3-.1.5-.3.5-.6c0-.7-.6-1.6-1.2-1.6c-.6 0-.4 1.4-.4 1.7zm14-1c0 .6-.5 1-1 1c-.9 0-.7-.9-1.2-.9c-.1 0-.3.2-.4.5c0 0 0 3.4 0 3.4c0 1 .4 1.3.5 1.4c.03-.02 0 .2 0 .2l-3.3 0c0 0 .02-.2 0-.2c.2-.1.7-.5.7-1.4c0 0 0-3.1 0-3.1c0-.9-.5-1.2-.7-1.4c.02.04 0-.2 0-.2l2.8-.4c0 0-.31 1.54-.3 1.5c.3-.8.8-1.5 1.8-1.5c.6 0 1.1.4 1.1 1.1zm6.2 3.3c0 0 0 .3 0 .3c-.3 1.2-1.3 2.2-2.8 2.2c-1.7 0-3.3-1.6-3.3-3.5c0-1.9 1.6-3.4 3.3-3.4c1.4 0 2.6.9 2.9 2.3c0 0-4.1.8-4.1.8c.3 1.2.9 2.3 2.3 2.3c.4 0 1.3-.2 1.7-1zm-4.1-2.3c0 .2 0 .5.1.7c0 0 1-.2 1-.2c.4-.1.6-.3.6-.6c0-.7-.6-1.6-1.2-1.6c-.6 0-.5 1.4-.5 1.7zm12 4.4c-.03-.02 0 .2 0 .2l-3.4 0c0 0 .02-.22 0-.2c.2-.1.7-.5.7-1.4c0 0 0-2.6 0-2.6c0-1.5-.2-1.9-.8-1.9c-.5 0-.8.4-1.1.8c0 0 0 3.7 0 3.7c0 1 .5 1.3.6 1.4c.02-.02 0 .2 0 .2l-3.3 0c0 0 .02-.2 0-.2c.2-.1.7-.5.7-1.4c0 0 0-3.1 0-3.1c0-.9-.5-1.2-.7-1.4c.02.04 0-.2 0-.2l2.8-.4c0 0-.27 1.33-.3 1.3c.4-.8 1-1.3 1.9-1.3c1.5 0 2.2 1 2.2 2.3c0 0 0 2.8 0 2.8c0 .9.5 1.3.7 1.4zm.5-3c0-1.8 1.4-3.5 3.5-3.5c1.3 0 2.6.9 2.6 2c0 .7-.6 1.1-1.1 1.1c-.5 0-1-.3-1-.9c0-.5.3-.6.3-1c0-.4-.5-.9-1-.9c-1.1 0-1.5.8-1.5 2c0 1.8 1 3.1 2.5 3.1c.5 0 1.3-.2 1.8-1c0 0 0 .5 0 .5c-.6 1.5-1.8 2-2.8 2c-1.8 0-3.3-1.6-3.3-3.4zm6.5-.1c0-1.8 1.6-3.4 3.6-3.4c1.9 0 3.5 1.6 3.5 3.4c0 1.9-1.6 3.5-3.5 3.5c-2 0-3.6-1.6-3.6-3.5zm4.9 1.3c0-1.6-.9-4.3-2-4.3c-.5 0-.7.7-.7 1.7c0 1.6.8 4.4 2 4.4c.5 0 .7-.7.7-1.8zm10.1 1.8c-.02-.02 0 .2 0 .2l-3.4 0c0 0 .03-.22 0-.2c.2-.1.7-.5.7-1.4c0 0 0-2.6 0-2.6c0-1.5-.2-1.9-.8-1.9c-.5 0-.8.4-1 .8c0 0 0 3.7 0 3.7c0 1 .5 1.3.5 1.4c.03-.02 0 .2 0 .2l-3.3 0c0 0 .03-.2 0-.2c.2-.1.7-.5.7-1.4c0 0 0-3.1 0-3.1c0-.9-.5-1.2-.7-1.4c.03.04 0-.2 0-.2l2.8-.4c0 0-.26 1.33-.3 1.3c.4-.8 1-1.3 1.9-1.3c1.5 0 2.2 1 2.2 2.3c0 0 0 2.8 0 2.8c0 .9.5 1.3.7 1.4zm3.3-5.9c0 0-.03 4.11 0 4.1c0 1.9 1.2 1.3 1.2 1.3c0 0 0 .2 0 .2c-.1.1-.7.6-1.8.6c-.8 0-1.5-.5-1.5-1.9c0 .02 0-4.3 0-4.3l-.9 0c0 0 .04-.42 0-.4c1-.4 2.3-1.6 2.7-2.7c.05.05.3 0 .3 0c0 0-.03 2.68 0 2.7c.5 0 1-.1 1.5-.3c-.04.04-.1.7-.1.7l-1.4 0zm7.3.5c0 .6-.5 1-1 1c-1 0-.8-.9-1.2-.9c-.2 0-.3.2-.5.5c0 0 0 3.4 0 3.4c0 1 .5 1.3.6 1.4c0-.02 0 .2 0 .2l-3.3 0c0 0-.01-.2 0-.2c.1-.1.7-.5.7-1.4c0 0 0-3.1 0-3.1c0-.9-.5-1.2-.7-1.4c-.01.04 0-.2 0-.2l2.7-.4c0 0-.24 1.54-.2 1.5c.3-.8.8-1.5 1.8-1.5c.6 0 1.1.4 1.1 1.1zm6.2 3.3c0 0 0 .3 0 .3c-.3 1.2-1.3 2.2-2.8 2.2c-1.8 0-3.3-1.6-3.3-3.5c0-1.9 1.5-3.4 3.3-3.4c1.4 0 2.6.9 2.9 2.3c0 0-4.1.8-4.1.8c.2 1.2.9 2.3 2.3 2.3c.4 0 1.2-.2 1.7-1zm-4.1-2.3c0 .2 0 .5 0 .7c0 0 1.1-.2 1.1-.2c.4-.1.5-.3.5-.6c0-.7-.6-1.6-1.1-1.6c-.6 0-.5 1.4-.5 1.7zm8.6 3c0-1.8 2.9-2 3.7-2.3c0 0 0-1.2 0-1.2c0-.9-.4-1.3-1-1.3c-.6 0-.6.5-.6.6c0 .5.2.5.2 1.1c0 .5-.4.8-1.1.8c-.6 0-.9-.4-.9-1c0-.8 1.2-1.8 2.6-1.8c2.2 0 2.9 1 2.9 3c0 0 0 1.8 0 1.8c0 .8.1 1.2.8 1c0 0 0 .2 0 .2c-.2.5-1 .9-1.4.9c-.7 0-1.4-.4-1.4-1c-.6.7-1.4 1-1.9 1c-1.3 0-1.9-.6-1.9-1.8zm3.7 0c0 0 0-2 0-2c-.6.3-1.7.6-1.7 1.6c0 .7.4 1.2.9 1.2c.4 0 .8-.3.8-.8zm10.2-4.9c0 0 0 .18 0 .2c-.5.1-1 .6-1.4 1.6c-.3.4-.4.8-.5 1c-.7 1.8-1.1 2.5-1 3.4c-.5 0-1.2.3-1.6.6c-.6-2-1.4-3.9-1.8-5c-.4-1.1-.8-1.4-1.2-1.6c.04-.02 0-.2 0-.2l3.6 0c0 0 .05.18 0 .2c-.2.1-.7.4-.2 1.9c.2.6 1 2.5 1 2.9c.2-.5.4-1.1.9-2.3c.1-.2.2-.5.3-1c.3-1-.1-1.4-.5-1.5c-.02-.03 0-.2 0-.2l2.4 0zm5.7 4.2c0 0 0 .3 0 .3c-.3 1.2-1.3 2.2-2.8 2.2c-1.7 0-3.2-1.6-3.2-3.5c0-1.9 1.5-3.4 3.2-3.4c1.4 0 2.6.9 3 2.3c0 0-4.1.8-4.1.8c.2 1.2.8 2.3 2.3 2.3c.3 0 1.2-.2 1.6-1zm-4.1-2.3c0 .2.1.5.1.7c0 0 1.1-.2 1.1-.2c.3-.1.5-.3.5-.6c0-.7-.6-1.6-1.2-1.6c-.6 0-.5 1.4-.5 1.7zm4.7 1.4c0-1.8 1.4-3.5 3.6-3.5c1.2 0 2.5.9 2.5 2c0 .7-.6 1.1-1.1 1.1c-.4 0-1-.3-1-.9c0-.5.4-.6.4-1c0-.4-.6-.9-1.1-.9c-1.1 0-1.5.8-1.5 2c0 1.8 1 3.1 2.5 3.1c.6 0 1.4-.2 1.8-1c0 0 0 .5 0 .5c-.5 1.5-1.8 2-2.8 2c-1.8 0-3.3-1.6-3.3-3.4zm10.5 0c0-1.8 1.5-3.5 3.6-3.5c1.3 0 2.5.9 2.5 2c0 .7-.5 1.1-1 1.1c-.5 0-1-.3-1-.9c0-.5.3-.6.3-1c0-.4-.5-.9-1.1-.9c-1 0-1.4.8-1.4 2c0 1.8 1 3.1 2.4 3.1c.6 0 1.4-.2 1.9-1c0 0 0 .5 0 .5c-.6 1.5-1.8 2-2.9 2c-1.7 0-3.3-1.6-3.3-3.4zm14 3c-.04-.02 0 .2 0 .2l-3.4 0c0 0 0-.22 0-.2c.2-.1.6-.5.6-1.4c0 0 0-2.6 0-2.6c0-1.5-.1-1.9-.7-1.9c-.5 0-.8.4-1.1.8c0 0 0 3.8 0 3.8c0 .9.5 1.2.6 1.3c0-.02 0 .2 0 .2l-3.3 0c0 0 0-.2 0-.2c.2-.1.7-.4.7-1.3c0 0 0-6.4 0-6.4c0-.8-.3-1.2-.7-1.3c0-.05 0-.3 0-.3l2.7-.4c0 0 .03 4.13 0 4.1c.4-.5.9-.9 1.7-.9c1.5 0 2.2 1 2.2 2.3c0 0 0 2.8 0 2.8c0 .9.5 1.3.7 1.4zm.4-1.4c0-1.8 2.9-2 3.8-2.3c0 0 0-1.2 0-1.2c0-.9-.5-1.3-1.1-1.3c-.6 0-.6.5-.6.6c0 .5.3.5.3 1.1c0 .5-.5.8-1.1.8c-.6 0-1-.4-1-1c0-.8 1.2-1.8 2.6-1.8c2.2 0 2.9 1 2.9 3c0 0 0 1.8 0 1.8c0 .8.1 1.2.9 1c0 0 0 .2 0 .2c-.3.5-1 .9-1.5.9c-.7 0-1.4-.4-1.4-1c-.5.7-1.3 1-1.9 1c-1.3 0-1.9-.6-1.9-1.8zm3.8 0c0 0 0-2 0-2c-.6.3-1.7.6-1.7 1.6c0 .7.3 1.2.9 1.2c.3 0 .8-.3.8-.8zm3.2-1.6c0-1.8 1.5-3.5 3.6-3.5c1.2 0 2.5.9 2.5 2c0 .7-.6 1.1-1 1.1c-.5 0-1-.3-1-.9c0-.5.3-.6.3-1c0-.4-.5-.9-1.1-.9c-1.1 0-1.5.8-1.5 2c0 1.8 1 3.1 2.5 3.1c.6 0 1.4-.2 1.8-1c0 0 0 .5 0 .5c-.5 1.5-1.8 2-2.8 2c-1.7 0-3.3-1.6-3.3-3.4zm7.2.4c0 0 0-2.1 0-2.1c0-.8-.5-1.1-.6-1.2c0 .04 0-.2 0-.2l2.7-.4c0 0 .01 3.9 0 3.9c0 1.1.4 1.8 1 1.8c.7 0 .9-.8.8-1.4c0 0 0-2.5 0-2.5c0-.9-.4-1.1-.6-1.2c0 .04 0-.2 0-.2l2.7-.4c0 0 .03 5.31 0 5.3c0 .9.5 1.1.6 1.2c.05-.02 0 .2 0 .2l-2.7 0c0 0 .18-1.54.2-1.5c-.4 1.2-1.3 1.7-2.1 1.7c-1.6 0-2-1.3-2-3zm14.5 2.6c.01-.02 0 .2 0 .2l-3.3 0c0 0-.04-.22 0-.2c.2-.1.6-.5.6-1.4c0 0 0-2.6 0-2.6c0-1.5-.2-1.9-.8-1.9c-.4 0-.8.4-1 .8c0 0 0 3.7 0 3.7c0 1 .5 1.3.6 1.4c-.04-.02 0 .2 0 .2l-3.3 0c0 0-.04-.2 0-.2c.1-.1.6-.5.6-1.4c0 0 0-3.1 0-3.1c0-.9-.4-1.2-.6-1.4c-.04.04 0-.2 0-.2l2.7-.4c0 0-.23 1.33-.2 1.3c.3-.8.9-1.3 1.8-1.3c1.5 0 2.3 1 2.3 2.3c0 0 0 2.8 0 2.8c0 .9.5 1.3.6 1.4z" stroke="none" fill="#144542"/></g><g id="Polygon171151"><path d="m7.3 53.2c0 1.9-1.2 3.5-2.9 3.5c-.7 0-1.1-.2-1.5-.5c0 0 0 1.6 0 1.6c0 .9.5 1.3.6 1.3c.01.05 0 .2 0 .2l-3.3 0c0 0-.03-.14 0-.1c.1-.1.7-.6.7-1.4c0 0 0-6 0-6c0-1-.4-1.4-.7-1.4c.01.01 0-.2 0-.2l2.7-.5c0 0-.22 1.3-.2 1.3c.6-1.1 1.2-1.2 1.8-1.2c1.6 0 2.8 1.5 2.8 3.4zm-2.1.3c0-1.4-.4-3.1-1.4-3.1c-.2 0-.5.1-.9.7c0 0 0 4.3 0 4.3c.4.6.6.9 1.2.9c.8 0 1.1-1.1 1.1-2.8zm2.7 2.8c.2-.1.7-.5.7-1.3c0 0 0-6.4 0-6.4c0-.9-.5-1.3-.7-1.3c-.01-.05 0-.3 0-.3l2.7-.4c0 0 .02 8.38 0 8.4c0 .9.5 1.2.7 1.3c-.04-.02 0 .2 0 .2l-3.4 0c0 0-.01-.22 0-.2zm4.6-2.6c0 0 0-2.1 0-2.1c0-.8-.5-1.1-.7-1.2c.04.04 0-.2 0-.2l2.8-.4c0 0-.04 3.9 0 3.9c0 1.1.3 1.8 1 1.8c.6 0 .9-.8.8-1.4c0 0 0-2.5 0-2.5c0-.9-.5-1.1-.7-1.2c.04.04 0-.2 0-.2l2.8-.4c0 0-.03 5.31 0 5.3c0 .9.5 1.1.6 1.2c0-.02 0 .2 0 .2l-2.7 0c0 0 .12-1.54.1-1.5c-.4 1.2-1.3 1.7-2.1 1.7c-1.5 0-1.9-1.3-1.9-3zm7.7 3c.01-.02-.6-2.8-.6-2.8c0 0 .29.02.3 0c.4 1.1 1.4 2.5 2.7 2.5c.6 0 .9-.4.9-1.1c0-1.4-3.7-.8-3.7-3.7c0-1.2 1.1-1.8 2.2-1.8c1 0 1.4.5 2.4 0c-.04.02.5 2.5.5 2.5c0 0-.32 0-.3 0c-.6-1.2-1.7-2.2-2.6-2.2c-.6 0-1 .2-.9.8c.2 1.1 4.1.8 4.1 3.8c0 1.1-1.1 2-2.6 2c-1 0-1.3-.3-2.4 0zm6.1-8.7c0-.7.5-1.2 1.1-1.2c.7 0 1.2.5 1.2 1.2c0 .6-.5 1.1-1.2 1.1c-.6 0-1.1-.5-1.1-1.1zm-.5 8.3c.2-.1.6-.4.6-1.3c0 0 0-3.3 0-3.3c0-.9-.4-1.2-.6-1.3c-.01.03 0-.2 0-.2l2.7-.4c0 0 .02 5.18 0 5.2c0 .9.5 1.2.6 1.3c.03-.02 0 .2 0 .2l-3.3 0c0 0-.01-.22 0-.2zm9.9-2.1c0 0 0 .3 0 .3c-.3 1.2-1.3 2.2-2.8 2.2c-1.8 0-3.3-1.6-3.3-3.5c0-1.9 1.5-3.4 3.3-3.4c1.4 0 2.6.9 2.9 2.3c0 0-4.1.8-4.1.8c.2 1.2.9 2.3 2.3 2.3c.4 0 1.2-.2 1.7-1zm-4.1-2.3c0 .2 0 .5.1.7c0 0 1-.2 1-.2c.4-.1.5-.3.5-.6c0-.7-.6-1.6-1.1-1.6c-.6 0-.5 1.4-.5 1.7zm5.3 1.8c0 0 0-2.1 0-2.1c0-.8-.5-1.1-.7-1.2c.03.04 0-.2 0-.2l2.7-.4c0 0 .05 3.9 0 3.9c0 1.1.4 1.8 1.1 1.8c.6 0 .9-.8.8-1.4c0 0 0-2.5 0-2.5c0-.9-.5-1.1-.7-1.2c.03.04 0-.2 0-.2l2.8-.4c0 0-.04 5.31 0 5.3c0 .9.5 1.1.6 1.2c-.02-.02 0 .2 0 .2l-2.7 0c0 0 .11-1.54.1-1.5c-.4 1.2-1.3 1.7-2.1 1.7c-1.5 0-1.9-1.3-1.9-3zm12.6-2.8c0 .6-.5 1-1 1c-1 0-.8-.9-1.2-.9c-.2 0-.3.2-.5.5c0 0 0 3.4 0 3.4c0 1 .5 1.3.6 1.4c0-.02 0 .2 0 .2l-3.3 0c0 0 0-.2 0-.2c.2-.1.7-.5.7-1.4c0 0 0-3.1 0-3.1c0-.9-.5-1.2-.7-1.4c0 .04 0-.2 0-.2l2.7-.4c0 0-.23 1.54-.2 1.5c.3-.8.8-1.5 1.8-1.5c.6 0 1.1.4 1.1 1.1zm.9 5.8c.04-.02-.6-2.8-.6-2.8c0 0 .31.02.3 0c.5 1.1 1.4 2.5 2.7 2.5c.6 0 1-.4 1-1.1c0-1.4-3.8-.8-3.8-3.7c0-1.2 1.1-1.8 2.2-1.8c1 0 1.4.5 2.4 0c-.01.02.5 2.5.5 2.5c0 0-.29 0-.3 0c-.6-1.2-1.6-2.2-2.6-2.2c-.6 0-1 .2-.9.8c.2 1.1 4.1.8 4.1 3.8c0 1.1-1.1 2-2.6 2c-1 0-1.3-.3-2.4 0zm10.2-8.7c0-.7.5-1.2 1.2-1.2c.6 0 1.2.5 1.2 1.2c0 .6-.6 1.1-1.2 1.1c-.7 0-1.2-.5-1.2-1.1zm-1.9 10c0-.7.5-1.1 1-1.1c.6 0 1 .3 1 .9c0 .4-.2.6-.2.8c0 .3.2.5.5.5c.1 0 .6 0 .6-.7c0-.4-.9-1.5-.9-2.7c0 0 0-4 0-4c0-.8-.3-1.2-.6-1.2c0-.05 0-.3 0-.3l2.7-.4c0 0 .01 6.44 0 6.4c0 2.3-1.1 3.3-2.2 3.3c-1.1 0-1.9-.7-1.9-1.5zm5.1-4.8c0-1.8 1.6-3.4 3.6-3.4c1.9 0 3.5 1.6 3.5 3.4c0 1.9-1.6 3.5-3.5 3.5c-2 0-3.6-1.6-3.6-3.5zm4.9 1.3c0-1.6-.9-4.3-2-4.3c-.5 0-.7.7-.7 1.7c0 1.6.8 4.4 2 4.4c.5 0 .7-.7.7-1.8zm3.4-.8c0 0 0-2.1 0-2.1c0-.8-.5-1.1-.7-1.2c.05.04 0-.2 0-.2l2.8-.4c0 0-.04 3.9 0 3.9c0 1.1.3 1.8 1 1.8c.6 0 .9-.8.8-1.4c0 0 0-2.5 0-2.5c0-.9-.5-1.1-.7-1.2c.05.04 0-.2 0-.2l2.8-.4c0 0-.02 5.31 0 5.3c0 .9.5 1.1.6 1.2c0-.02 0 .2 0 .2l-2.7 0c0 0 .13-1.54.1-1.5c-.4 1.2-1.3 1.7-2.1 1.7c-1.5 0-1.9-1.3-1.9-3zm12.6-2.8c0 .6-.5 1-1 1c-1 0-.7-.9-1.2-.9c-.1 0-.3.2-.5.5c0 0 0 3.4 0 3.4c0 1 .5 1.3.6 1.4c.01-.02 0 .2 0 .2l-3.3 0c0 0 .01-.2 0-.2c.2-.1.7-.5.7-1.4c0 0 0-3.1 0-3.1c0-.9-.5-1.2-.7-1.4c.01.04 0-.2 0-.2l2.8-.4c0 0-.32 1.54-.3 1.5c.3-.8.8-1.5 1.8-1.5c.6 0 1.1.4 1.1 1.1zm7.7 5.4c0-.02 0 .2 0 .2l-3.4 0c0 0 .05-.22 0-.2c.2-.1.7-.5.7-1.4c0 0 0-2.6 0-2.6c0-1.5-.2-1.9-.8-1.9c-.4 0-.8.4-1 .8c0 0 0 3.7 0 3.7c0 1 .5 1.3.6 1.4c-.05-.02 0 .2 0 .2l-3.4 0c0 0 .05-.2 0-.2c.2-.1.7-.5.7-1.4c0 0 0-3.1 0-3.1c0-.9-.5-1.2-.7-1.4c.05.04 0-.2 0-.2l2.8-.4c0 0-.24 1.33-.2 1.3c.3-.8.9-1.3 1.8-1.3c1.5 0 2.3 1 2.3 2.3c0 0 0 2.8 0 2.8c0 .9.4 1.3.6 1.4zm2.7-7.2l-.3 0l.8-2l2.4 0l-2.9 2zm3.9 5.1c0 0 0 .3 0 .3c-.3 1.2-1.3 2.2-2.8 2.2c-1.8 0-3.3-1.6-3.3-3.5c0-1.9 1.5-3.4 3.3-3.4c1.4 0 2.6.9 2.9 2.3c0 0-4.1.8-4.1.8c.2 1.2.8 2.3 2.3 2.3c.3 0 1.2-.2 1.7-1zm-4.1-2.3c0 .2 0 .5 0 .7c0 0 1.1-.2 1.1-.2c.4-.1.5-.3.5-.6c0-.7-.6-1.6-1.2-1.6c-.5 0-.4 1.4-.4 1.7zm10.7 2.3c0 0 0 .3 0 .3c-.3 1.2-1.3 2.2-2.8 2.2c-1.8 0-3.3-1.6-3.3-3.5c0-1.9 1.5-3.4 3.3-3.4c1.4 0 2.6.9 2.9 2.3c0 0-4.1.8-4.1.8c.2 1.2.9 2.3 2.3 2.3c.4 0 1.2-.2 1.7-1zm-4.1-2.3c0 .2 0 .5 0 .7c0 0 1.1-.2 1.1-.2c.4-.1.5-.3.5-.6c0-.7-.6-1.6-1.1-1.6c-.6 0-.5 1.4-.5 1.7zm5.3 4.8c.02-.02-.6-2.8-.6-2.8c0 0 .29.02.3 0c.4 1.1 1.4 2.5 2.7 2.5c.6 0 .9-.4.9-1.1c0-1.4-3.7-.8-3.7-3.7c0-1.2 1.1-1.8 2.2-1.8c1 0 1.4.5 2.4 0c-.03.02.5 2.5.5 2.5c0 0-.31 0-.3 0c-.6-1.2-1.7-2.2-2.6-2.2c-.6 0-1 .2-.9.8c.2 1.1 4.1.8 4.1 3.8c0 1.1-1.1 2-2.6 2c-1 0-1.3-.3-2.4 0zm12.3-8.5c0-.3.1-.5.1-.8c0-.2-.1-.4-.4-.4c-.3 0-.5.2-.5.5c0 .7.7 1.7.8 2.5c0-.02 1.2 0 1.2 0l0 .3l-1.2 0c0 0 .02 4.81 0 4.8c0 .8.3 1.1.6 1.2c-.02-.02 0 .2 0 .2l-3.3 0c0 0-.03-.22 0-.2c.2-.1.6-.4.6-1.2c.04.01 0-4.8 0-4.8l-.6 0c0 0-.03-.32 0-.3c.5 0 .7-1 .9-1.5c.3-1.5 1.1-1.9 2-1.9c.9 0 1.9.7 1.9 1.6c0 .6-.5 1-1.1 1c-.6 0-1-.5-1-1zm1.7 6.7c0-1.8 2.9-2 3.8-2.3c0 0 0-1.2 0-1.2c0-.9-.5-1.3-1.1-1.3c-.6 0-.6.5-.6.6c0 .5.2.5.2 1.1c0 .5-.4.8-1 .8c-.6 0-1-.4-1-1c0-.8 1.2-1.8 2.6-1.8c2.2 0 2.9 1 2.9 3c0 0 0 1.8 0 1.8c0 .8.1 1.2.8 1c0 0 0 .2 0 .2c-.2.5-1 .9-1.4.9c-.7 0-1.4-.4-1.4-1c-.5.7-1.3 1-1.9 1c-1.3 0-1.9-.6-1.9-1.8zm3.8 0c0 0 0-2 0-2c-.6.3-1.7.6-1.7 1.6c0 .7.3 1.2.9 1.2c.3 0 .8-.3.8-.8zm3.2-1.6c0-1.8 1.4-3.5 3.6-3.5c1.2 0 2.5.9 2.5 2c0 .7-.6 1.1-1.1 1.1c-.4 0-1-.3-1-.9c0-.5.4-.6.4-1c0-.4-.6-.9-1.1-.9c-1.1 0-1.5.8-1.5 2c0 1.8 1 3.1 2.5 3.1c.6 0 1.4-.2 1.8-1c0 0 0 .5 0 .5c-.5 1.5-1.8 2-2.8 2c-1.8 0-3.3-1.6-3.3-3.4zm12.6.9c0 0 0 .3 0 .3c-.2 1.2-1.3 2.2-2.7 2.2c-1.8 0-3.3-1.6-3.3-3.5c0-1.9 1.5-3.4 3.3-3.4c1.4 0 2.6.9 2.9 2.3c0 0-4.1.8-4.1.8c.2 1.2.8 2.3 2.3 2.3c.3 0 1.2-.2 1.6-1zm-4-2.3c0 .2 0 .5 0 .7c0 0 1.1-.2 1.1-.2c.4-.1.5-.3.5-.6c0-.7-.6-1.6-1.2-1.6c-.5 0-.4 1.4-.4 1.7zm9.5-4.8l2.4 0l.9 2l-.4 0l-2.9-2zm-1 7.8c0-1.8 3-2 3.8-2.3c0 0 0-1.2 0-1.2c0-.9-.5-1.3-1-1.3c-.6 0-.6.5-.6.6c0 .5.2.5.2 1.1c0 .5-.4.8-1.1.8c-.6 0-.9-.4-.9-1c0-.8 1.1-1.8 2.5-1.8c2.2 0 2.9 1 2.9 3c0 0 0 1.8 0 1.8c0 .8.2 1.2.9 1c0 0 0 .2 0 .2c-.3.5-1 .9-1.4.9c-.8 0-1.4-.4-1.5-1c-.5.7-1.3 1-1.9 1c-1.2 0-1.9-.6-1.9-1.8zm3.8 0c0 0 0-2 0-2c-.6.3-1.7.6-1.7 1.6c0 .7.4 1.2.9 1.2c.3 0 .8-.3.8-.8zm14.4 1.4c-.04-.04 0 .2 0 .2l-2.6 0c0 0 .1-.82.1-.8c-.6.7-1.1 1-1.8 1c-1.7 0-2.9-1.6-2.9-3.5c0-1.8 1.3-3.4 3-3.4c.5 0 1 .2 1.4.5c0 0 0-1.7 0-1.7c0-.9-.5-1.3-.6-1.3c-.04-.05 0-.3 0-.3l2.7-.4c0 0-.02 8.38 0 8.4c0 .8.4 1.2.7 1.3zm-2.8-.8c0 0 0-4.2 0-4.2c-.3-.7-.8-1.1-1.3-1.1c-1 0-1 1.3-1 2.4c0 1.8.4 3.5 1.4 3.5c.3 0 .6-.2.9-.6zm9.4-1.3c0 0 0 .3 0 .3c-.3 1.2-1.3 2.2-2.8 2.2c-1.7 0-3.3-1.6-3.3-3.5c0-1.9 1.6-3.4 3.3-3.4c1.4 0 2.6.9 2.9 2.3c0 0-4.1.8-4.1.8c.3 1.2.9 2.3 2.3 2.3c.4 0 1.3-.2 1.7-1zm-4.1-2.3c0 .2 0 .5.1.7c0 0 1-.2 1-.2c.4-.1.6-.3.6-.6c0-.7-.6-1.6-1.2-1.6c-.6 0-.5 1.4-.5 1.7zm15.7 1.3c0 1.9-1.3 3.5-2.9 3.5c-.7 0-1.1-.2-1.5-.5c0 0 0 1.6 0 1.6c0 .9.5 1.3.6 1.3c-.03.05 0 .2 0 .2l-3.4 0c0 0 .03-.14 0-.1c.2-.1.7-.6.7-1.4c0 0 0-6 0-6c0-1-.4-1.4-.6-1.4c-.03.01 0-.2 0-.2l2.7-.5c0 0-.26 1.3-.3 1.3c.7-1.1 1.3-1.2 1.8-1.2c1.7 0 2.9 1.5 2.9 3.4zm-2.2.3c0-1.4-.3-3.1-1.3-3.1c-.3 0-.6.1-.9.7c0 0 0 4.3 0 4.3c.3.6.6.9 1.2.9c.8 0 1-1.1 1-2.8zm8.9.7c0 0 0 .3 0 .3c-.3 1.2-1.3 2.2-2.8 2.2c-1.7 0-3.3-1.6-3.3-3.5c0-1.9 1.6-3.4 3.3-3.4c1.4 0 2.6.9 2.9 2.3c0 0-4.1.8-4.1.8c.3 1.2.9 2.3 2.3 2.3c.4 0 1.3-.2 1.7-1zm-4.1-2.3c0 .2 0 .5.1.7c0 0 1.1-.2 1.1-.2c.3-.1.5-.3.5-.6c0-.7-.6-1.6-1.2-1.6c-.6 0-.5 1.4-.5 1.7zm7.4-1.5c0 0-.01 4.11 0 4.1c0 1.9 1.2 1.3 1.3 1.3c0 0 0 .2 0 .2c-.2.1-.8.6-1.9.6c-.8 0-1.5-.5-1.5-1.9c.02.02 0-4.3 0-4.3l-.8 0c0 0-.03-.42 0-.4c.9-.4 2.2-1.6 2.7-2.7c-.03.05.2 0 .2 0c0 0-.01 2.68 0 2.7c.5 0 1-.1 1.5-.3c-.01.04-.1.7-.1.7l-1.4 0zm2.4-2.4c0-.7.5-1.2 1.2-1.2c.6 0 1.1.5 1.1 1.2c0 .6-.5 1.1-1.1 1.1c-.7 0-1.2-.5-1.2-1.1zm-.5 8.3c.2-.1.7-.4.7-1.3c0 0 0-3.3 0-3.3c0-.9-.5-1.2-.7-1.3c.02.03 0-.2 0-.2l2.7-.4c0 0 .05 5.18 0 5.2c0 .9.5 1.2.7 1.3c-.04-.02 0 .2 0 .2l-3.4 0c0 0 .02-.22 0-.2zm6.6-5.9c0 0-.03 4.11 0 4.1c0 1.9 1.2 1.3 1.2 1.3c0 0 0 .2 0 .2c-.1.1-.7.6-1.8.6c-.8 0-1.5-.5-1.5-1.9c0 .02 0-4.3 0-4.3l-.9 0c0 0 .04-.42 0-.4c1-.4 2.3-1.6 2.7-2.7c.05.05.3 0 .3 0c0 0-.03 2.68 0 2.7c.4 0 1-.1 1.5-.3c-.04.04-.1.7-.1.7l-1.4 0zm2.4 6.3c0-.02-.6-2.8-.6-2.8c0 0 .27.02.3 0c.4 1.1 1.4 2.5 2.6 2.5c.7 0 1-.4 1-1.1c0-1.4-3.7-.8-3.7-3.7c0-1.2 1.1-1.8 2.2-1.8c1 0 1.3.5 2.3 0c.05.02.5 2.5.5 2.5c0 0-.23 0-.2 0c-.6-1.2-1.7-2.2-2.6-2.2c-.6 0-1 .2-.9.8c.1 1.1 4.1.8 4.1 3.8c0 1.1-1.1 2-2.6 2c-1 0-1.3-.3-2.4 0zm16.4.7c0 1.5-1.4 2.1-3.6 2.1c-2.3 0-3.3-.5-3.3-1.5c0-.4.4-.7.8-.9c-.4-.4-.6-.8-.6-1.4c0-.7.5-1.3 1-1.6c-.6-.4-.9-1.1-.9-1.8c0-1.5 1.4-2.5 2.8-2.5c.7 0 1.3.2 1.8.5c0 0 0-.1 0-.1c0-.7.5-1.2 1.2-1.2c.5 0 .8.4.8.8c0 .5-.3.9-.8.9c-.5 0-.5-.5-.7-.5c-.2 0-.2.1-.2.2c0 .2.9.7.9 1.9c0 1.4-1.4 2.5-3 2.5c-.6 0-1.2-.2-1.7-.5c-.1.1-.1.3-.1.4c0 .6.4.8.9.8c.6 0 1.8-.1 2.4-.1c1.2 0 2.3.4 2.3 2zm-4.5-6.4c0 1.1.4 3.4 1.2 3.4c.4 0 .4-.7.4-.9c0-.9-.5-3.3-1.3-3.3c-.3 0-.3.3-.3.8zm3.2 7c0-.6-.5-.7-1.1-.7c-.6 0-1.7.2-2.4.2c-.2 0-.4-.1-.7-.1c-.1.1-.2.4-.2.5c0 .9.9 1.3 2.1 1.3c1.3 0 2.3-.5 2.3-1.2zm7.2-7.1c0 .6-.4 1-1 1c-.9 0-.7-.9-1.2-.9c-.1 0-.3.2-.4.5c0 0 0 3.4 0 3.4c0 1 .5 1.3.5 1.4c.04-.02 0 .2 0 .2l-3.3 0c0 0 .04-.2 0-.2c.2-.1.7-.5.7-1.4c0 0 0-3.1 0-3.1c0-.9-.5-1.2-.7-1.4c.04.04 0-.2 0-.2l2.8-.4c0 0-.29 1.54-.3 1.5c.3-.8.9-1.5 1.8-1.5c.6 0 1.1.4 1.1 1.1zm.1 2.3c0-1.8 1.6-3.4 3.6-3.4c1.9 0 3.5 1.6 3.5 3.4c0 1.9-1.6 3.5-3.5 3.5c-2 0-3.6-1.6-3.6-3.5zm4.9 1.3c0-1.6-.8-4.3-2-4.3c-.4 0-.7.7-.7 1.7c0 1.6.9 4.4 2 4.4c.5 0 .7-.7.7-1.8zm3.4-.8c0 0 0-2.1 0-2.1c0-.8-.5-1.1-.6-1.2c-.03.04 0-.2 0-.2l2.7-.4c0 0-.02 3.9 0 3.9c0 1.1.3 1.8 1 1.8c.6 0 .9-.8.8-1.4c0 0 0-2.5 0-2.5c0-.9-.5-1.1-.6-1.2c-.03.04 0-.2 0-.2l2.7-.4c0 0 0 5.31 0 5.3c0 .9.5 1.1.6 1.2c.02-.02 0 .2 0 .2l-2.7 0c0 0 .15-1.54.1-1.5c-.3 1.2-1.3 1.7-2.1 1.7c-1.5 0-1.9-1.3-1.9-3zm14.2-.5c0 1.9-1.2 3.5-2.9 3.5c-.7 0-1.1-.2-1.5-.5c0 0 0 1.6 0 1.6c0 .9.5 1.3.6 1.3c0 .05 0 .2 0 .2l-3.3 0c0 0-.04-.14 0-.1c.1-.1.7-.6.7-1.4c0 0 0-6 0-6c0-1-.5-1.4-.7-1.4c0 .01 0-.2 0-.2l2.7-.5c0 0-.23 1.3-.2 1.3c.6-1.1 1.2-1.2 1.8-1.2c1.6 0 2.8 1.5 2.8 3.4zm-2.1.3c0-1.4-.4-3.1-1.4-3.1c-.2 0-.5.1-.9.7c0 0 0 4.3 0 4.3c.4.6.6.9 1.2.9c.8 0 1.1-1.1 1.1-2.8zm8.8.7c0 0 0 .3 0 .3c-.3 1.2-1.3 2.2-2.7 2.2c-1.8 0-3.3-1.6-3.3-3.5c0-1.9 1.5-3.4 3.3-3.4c1.4 0 2.6.9 2.9 2.3c0 0-4.1.8-4.1.8c.2 1.2.8 2.3 2.3 2.3c.3 0 1.2-.2 1.6-1zm-4-2.3c0 .2 0 .5 0 .7c0 0 1.1-.2 1.1-.2c.4-.1.5-.3.5-.6c0-.7-.6-1.6-1.2-1.6c-.5 0-.4 1.4-.4 1.7zm5.3 4.8c-.01-.02-.6-2.8-.6-2.8c0 0 .27.02.3 0c.4 1.1 1.4 2.5 2.6 2.5c.7 0 1-.4 1-1.1c0-1.4-3.7-.8-3.7-3.7c0-1.2 1.1-1.8 2.2-1.8c1 0 1.3.5 2.3 0c.04.02.5 2.5.5 2.5c0 0-.24 0-.2 0c-.6-1.2-1.7-2.2-2.7-2.2c-.5 0-.9.2-.8.8c.1 1.1 4 .8 4 3.8c0 1.1-1 2-2.5 2c-1 0-1.3-.3-2.4 0zm16.6-.4c.02-.04 0 .2 0 .2l-2.6 0c0 0 .16-.82.2-.8c-.6.7-1.1 1-1.8 1c-1.8 0-2.9-1.6-2.9-3.5c0-1.8 1.2-3.4 2.9-3.4c.6 0 1.1.2 1.5.5c0 0 0-1.7 0-1.7c0-.9-.5-1.3-.7-1.3c.03-.05 0-.3 0-.3l2.7-.4c0 0 .05 8.38 0 8.4c0 .8.5 1.2.7 1.3zm-2.7-.8c0 0 0-4.2 0-4.2c-.3-.7-.8-1.1-1.3-1.1c-1 0-1 1.3-1 2.4c0 1.8.4 3.5 1.4 3.5c.3 0 .6-.2.9-.6zm3.6-4.5c.9-.5 1.5-1.5 1.6-2.2c0 0-.1 0-.1 0c-.1.3-.3.5-.7.5c-.4 0-1-.4-1-1.2c0-.7.5-1.1 1.2-1.1c.9 0 1.2.6 1.2 1.3c0 .6-.3 1.9-2.2 2.9c0 0 0-.2 0-.2zm2.8 3.9c0-1.8 3-2 3.8-2.3c0 0 0-1.2 0-1.2c0-.9-.5-1.3-1-1.3c-.6 0-.6.5-.6.6c0 .5.2.5.2 1.1c0 .5-.4.8-1.1.8c-.6 0-.9-.4-.9-1c0-.8 1.1-1.8 2.5-1.8c2.2 0 2.9 1 2.9 3c0 0 0 1.8 0 1.8c0 .8.2 1.2.9 1c0 0 0 .2 0 .2c-.3.5-1 .9-1.4.9c-.8 0-1.5-.4-1.5-1c-.5.7-1.3 1-1.9 1c-1.2 0-1.9-.6-1.9-1.8zm3.8 0c0 0 0-2 0-2c-.6.3-1.7.6-1.7 1.6c0 .7.4 1.2.9 1.2c.3 0 .8-.3.8-.8zm10.3-1.7c0 1.9-1.3 3.5-2.9 3.5c-.7 0-1.1-.2-1.5-.5c0 0 0 1.6 0 1.6c0 .9.5 1.3.6 1.3c-.03.05 0 .2 0 .2l-3.4 0c0 0 .03-.14 0-.1c.2-.1.7-.6.7-1.4c0 0 0-6 0-6c0-1-.4-1.4-.6-1.4c-.03.01 0-.2 0-.2l2.7-.5c0 0-.26 1.3-.3 1.3c.7-1.1 1.3-1.2 1.8-1.2c1.7 0 2.9 1.5 2.9 3.4zm-2.2.3c0-1.4-.3-3.1-1.3-3.1c-.3 0-.6.1-.9.7c0 0 0 4.3 0 4.3c.3.6.6.9 1.2.9c.8 0 1-1.1 1-2.8zm9.7-.3c0 1.9-1.2 3.5-2.9 3.5c-.6 0-1-.2-1.4-.5c0 0 0 1.6 0 1.6c0 .9.4 1.3.5 1.3c.05.05 0 .2 0 .2l-3.3 0c0 0 .01-.14 0-.1c.2-.1.7-.6.7-1.4c0 0 0-6 0-6c0-1-.4-1.4-.7-1.4c.05.01 0-.2 0-.2l2.8-.5c0 0-.28 1.3-.3 1.3c.7-1.1 1.3-1.2 1.8-1.2c1.7 0 2.8 1.5 2.8 3.4zm-2.1.3c0-1.4-.4-3.1-1.3-3.1c-.3 0-.6.1-.9.7c0 0 0 4.3 0 4.3c.3.6.5.9 1.2.9c.8 0 1-1.1 1-2.8zm8.2-2.6c0 .6-.5 1-1 1c-1 0-.8-.9-1.2-.9c-.2 0-.4.2-.5.5c0 0 0 3.4 0 3.4c0 1 .5 1.3.6 1.4c-.04-.02 0 .2 0 .2l-3.3 0c0 0-.04-.2 0-.2c.1-.1.6-.5.6-1.4c0 0 0-3.1 0-3.1c0-.9-.4-1.2-.6-1.4c-.04.04 0-.2 0-.2l2.7-.4c0 0-.27 1.54-.3 1.5c.3-.8.9-1.5 1.8-1.5c.7 0 1.2.4 1.2 1.1zm6.1 3.3c0 0 0 .3 0 .3c-.3 1.2-1.3 2.2-2.8 2.2c-1.7 0-3.2-1.6-3.2-3.5c0-1.9 1.5-3.4 3.3-3.4c1.3 0 2.5.9 2.9 2.3c0 0-4.1.8-4.1.8c.2 1.2.8 2.3 2.3 2.3c.3 0 1.2-.2 1.6-1zm-4-2.3c0 .2 0 .5 0 .7c0 0 1.1-.2 1.1-.2c.4-.1.5-.3.5-.6c0-.7-.6-1.6-1.2-1.6c-.5 0-.4 1.4-.4 1.7zm11.9 4.4c0-.02 0 .2 0 .2l-3.4 0c0 0 .05-.22 0-.2c.2-.1.7-.5.7-1.4c0 0 0-2.6 0-2.6c0-1.5-.2-1.9-.8-1.9c-.4 0-.8.4-1 .8c0 0 0 3.7 0 3.7c0 1 .5 1.3.6 1.4c-.05-.02 0 .2 0 .2l-3.4 0c0 0 .05-.2 0-.2c.2-.1.7-.5.7-1.4c0 0 0-3.1 0-3.1c0-.9-.5-1.2-.7-1.4c.05.04 0-.2 0-.2l2.8-.4c0 0-.24 1.33-.2 1.3c.3-.8.9-1.3 1.8-1.3c1.5 0 2.3 1 2.3 2.3c0 0 0 2.8 0 2.8c0 .9.4 1.3.6 1.4zm.4-1.4c0-1.8 3-2 3.8-2.3c0 0 0-1.2 0-1.2c0-.9-.5-1.3-1-1.3c-.6 0-.6.5-.6.6c0 .5.2.5.2 1.1c0 .5-.4.8-1.1.8c-.6 0-.9-.4-.9-1c0-.8 1.1-1.8 2.5-1.8c2.2 0 3 1 3 3c0 0 0 1.8 0 1.8c0 .8.1 1.2.8 1c0 0 0 .2 0 .2c-.2.5-1 .9-1.4.9c-.8 0-1.4-.4-1.5-1c-.5.7-1.3 1-1.9 1c-1.2 0-1.9-.6-1.9-1.8zm3.8 0c0 0 0-2 0-2c-.6.3-1.7.6-1.7 1.6c0 .7.4 1.2.9 1.2c.3 0 .8-.3.8-.8zm10.6 1.4c-.03-.02 0 .2 0 .2l-3.4 0c0 0 .02-.22 0-.2c.2-.1.7-.5.7-1.4c0 0 0-2.6 0-2.6c0-1.5-.2-1.9-.8-1.9c-.5 0-.8.4-1.1.8c0 0 0 3.7 0 3.7c0 1 .5 1.3.6 1.4c.02-.02 0 .2 0 .2l-3.3 0c0 0 .02-.2 0-.2c.2-.1.7-.5.7-1.4c0 0 0-3.1 0-3.1c0-.9-.5-1.2-.7-1.4c.02.04 0-.2 0-.2l2.8-.4c0 0-.27 1.33-.3 1.3c.4-.8 1-1.3 1.9-1.3c1.5 0 2.2 1 2.2 2.3c0 0 0 2.8 0 2.8c0 .9.5 1.3.7 1.4zm3.3-5.9c0 0-.04 4.11 0 4.1c0 1.9 1.2 1.3 1.2 1.3c0 0 0 .2 0 .2c-.1.1-.7.6-1.8.6c-.8 0-1.5-.5-1.5-1.9c-.01.02 0-4.3 0-4.3l-.9 0c0 0 .04-.42 0-.4c.9-.4 2.3-1.6 2.7-2.7c.04.05.3 0 .3 0c0 0-.04 2.68 0 2.7c.4 0 1-.1 1.5-.3c-.04.04-.1.7-.1.7l-1.4 0zm2.4 6.3c-.01-.02-.6-2.8-.6-2.8c0 0 .27.02.3 0c.4 1.1 1.4 2.5 2.6 2.5c.7 0 1-.4 1-1.1c0-1.4-3.7-.8-3.7-3.7c0-1.2 1.1-1.8 2.2-1.8c1 0 1.3.5 2.3 0c.04.02.5 2.5.5 2.5c0 0-.24 0-.2 0c-.6-1.2-1.7-2.2-2.7-2.2c-.5 0-.9.2-.9.8c.2 1.1 4.1.8 4.1 3.8c0 1.1-1 2-2.5 2c-1 0-1.3-.3-2.4 0zm12.2-6.3c0 0 .01 4.11 0 4.1c0 1.9 1.2 1.3 1.3 1.3c0 0 0 .2 0 .2c-.1.1-.8.6-1.9.6c-.8 0-1.5-.5-1.5-1.9c.04.02 0-4.3 0-4.3l-.8 0c0 0-.01-.42 0-.4c.9-.4 2.2-1.6 2.7-2.7c-.01.05.2 0 .2 0c0 0 .01 2.68 0 2.7c.5 0 1.1-.1 1.5-.3c.01.04-.1.7-.1.7l-1.4 0zm7.3.5c0 .6-.5 1-1 1c-.9 0-.7-.9-1.2-.9c-.1 0-.3.2-.4.5c0 0 0 3.4 0 3.4c0 1 .5 1.3.5 1.4c.04-.02 0 .2 0 .2l-3.3 0c0 0 .04-.2 0-.2c.2-.1.7-.5.7-1.4c0 0 0-3.1 0-3.1c0-.9-.5-1.2-.7-1.4c.04.04 0-.2 0-.2l2.8-.4c0 0-.29 1.54-.3 1.5c.3-.8.9-1.5 1.8-1.5c.6 0 1.1.4 1.1 1.1zm3.9-1.8l-2.9-2l2.4 0l.8 2l-.3 0zm2.3 5.1c0 0 0 .3 0 .3c-.3 1.2-1.3 2.2-2.8 2.2c-1.7 0-3.3-1.6-3.3-3.5c0-1.9 1.6-3.4 3.3-3.4c1.4 0 2.6.9 2.9 2.3c0 0-4.1.8-4.1.8c.3 1.2.9 2.3 2.3 2.3c.4 0 1.3-.2 1.7-1zm-4.1-2.3c0 .2 0 .5.1.7c0 0 1.1-.2 1.1-.2c.3-.1.5-.3.5-.6c0-.7-.6-1.6-1.2-1.6c-.6 0-.5 1.4-.5 1.7zm5.4 4.8c-.03-.02-.6-2.8-.6-2.8c0 0 .24.02.2 0c.5 1.1 1.5 2.5 2.7 2.5c.7 0 1-.4 1-1.1c0-1.4-3.7-.8-3.7-3.7c0-1.2 1-1.8 2.2-1.8c.9 0 1.3.5 2.3 0c.01.02.5 2.5.5 2.5c0 0-.27 0-.3 0c-.5-1.2-1.6-2.2-2.6-2.2c-.6 0-1 .2-.9.8c.2 1.1 4.1.8 4.1 3.8c0 1.1-1.1 2-2.6 2c-1 0-1.3-.3-2.3 0zm10-8.7c0-.7.5-1.2 1.2-1.2c.6 0 1.2.5 1.2 1.2c0 .6-.6 1.1-1.2 1.1c-.7 0-1.2-.5-1.2-1.1zm-.5 8.3c.2-.1.7-.4.7-1.3c0 0 0-3.3 0-3.3c0-.9-.5-1.2-.7-1.3c.02.03 0-.2 0-.2l2.8-.4c0 0-.05 5.18 0 5.2c0 .9.4 1.2.6 1.3c-.04-.02 0 .2 0 .2l-3.4 0c0 0 .02-.22 0-.2zm15.1 0c-.04-.02 0 .2 0 .2l-3.4 0c0 0 .02-.22 0-.2c.2-.1.7-.5.7-1.4c0 0 0-2.6 0-2.6c0-1.5-.2-1.9-.8-1.9c-.5 0-.9.4-1.1.9c0 0 0 3.6 0 3.6c0 .9.5 1.3.7 1.4c-.04-.02 0 .2 0 .2l-3.4 0c0 0 .01-.22 0-.2c.2-.1.6-.5.6-1.4c0 0 0-2.6 0-2.6c0-1.5-.1-1.9-.7-1.9c-.5 0-.8.4-1.1.8c0 0 0 3.7 0 3.7c0 1 .5 1.3.6 1.4c.01-.02 0 .2 0 .2l-3.3 0c0 0 .01-.2 0-.2c.2-.1.7-.5.7-1.4c0 0 0-3.1 0-3.1c0-.9-.5-1.2-.7-1.4c.01.04 0-.2 0-.2l2.8-.4c0 0-.28 1.33-.3 1.3c.4-.8 1-1.3 1.9-1.3c1.1 0 1.7.5 2 1.3c.4-.8 1-1.3 1.9-1.3c1.5 0 2.2 1 2.2 2.3c0 0 0 2.8 0 2.8c0 .9.5 1.3.7 1.4zm7.5-3.1c0 1.9-1.3 3.5-2.9 3.5c-.7 0-1.1-.2-1.5-.5c0 0 0 1.6 0 1.6c0 .9.5 1.3.6 1.3c-.01.05 0 .2 0 .2l-3.3 0c0 0-.05-.14 0-.1c.1-.1.7-.6.7-1.4c0 0 0-6 0-6c0-1-.5-1.4-.7-1.4c-.01.01 0-.2 0-.2l2.7-.5c0 0-.24 1.3-.2 1.3c.6-1.1 1.2-1.2 1.8-1.2c1.6 0 2.8 1.5 2.8 3.4zm-2.2.3c0-1.4-.3-3.1-1.3-3.1c-.2 0-.6.1-.9.7c0 0 0 4.3 0 4.3c.4.6.6.9 1.2.9c.8 0 1-1.1 1-2.8zm2.8 2.8c.2-.1.6-.5.6-1.3c0 0 0-6.4 0-6.4c0-.9-.4-1.3-.6-1.3c-.03-.05 0-.3 0-.3l2.7-.4c0 0 0 8.38 0 8.4c0 .9.5 1.2.6 1.3c.04-.02 0 .2 0 .2l-3.3 0c0 0-.03-.22 0-.2zm4.5-8.3c0-.7.5-1.2 1.1-1.2c.7 0 1.2.5 1.2 1.2c0 .6-.5 1.1-1.2 1.1c-.6 0-1.1-.5-1.1-1.1zm-.5 8.3c.2-.1.6-.4.6-1.3c0 0 0-3.3 0-3.3c0-.9-.4-1.2-.6-1.3c-.01.03 0-.2 0-.2l2.7-.4c0 0 .02 5.18 0 5.2c0 .9.5 1.2.6 1.3c.03-.02 0 .2 0 .2l-3.3 0c0 0-.01-.22 0-.2zm10.9 2.8c-.03.05 0 .2 0 .2l-3.5 0c0 0 0-.14 0-.1c.4-.1.8-.6.8-1.4c0 0 0-1.8 0-1.8c-.6.7-1.2.7-1.5.7c-1.8 0-2.9-1.7-2.9-3.5c0-1.8 1.2-3.4 3-3.4c1 0 1.4.7 2.2.7c.5 0 .8-.3 1.1-.7c-.01.02.2 0 .2 0c0 0-.04 8.04 0 8c0 .9.4 1.3.6 1.3zm-2.7-3.6c0 0 0-3.2 0-3.2c0-1.7-.5-2.2-1.2-2.2c-.9 0-.9 1-.9 2.3c0 1.6.3 3.7 1.2 3.7c.6 0 .8-.4.9-.6zm3.8-1.8c0 0 0-2.1 0-2.1c0-.8-.5-1.1-.6-1.2c-.05.04 0-.2 0-.2l2.7-.4c0 0-.03 3.9 0 3.9c0 1.1.3 1.8 1 1.8c.6 0 .9-.8.8-1.4c0 0 0-2.5 0-2.5c0-.9-.5-1.1-.6-1.2c-.05.04 0-.2 0-.2l2.7-.4c0 0-.02 5.31 0 5.3c0 .9.5 1.1.6 1.2c.01-.02 0 .2 0 .2l-2.7 0c0 0 .13-1.54.1-1.5c-.3 1.2-1.3 1.7-2.1 1.7c-1.5 0-1.9-1.3-1.9-3zm9.3-4.6l-.3 0l.8-2l2.4 0l-2.9 2zm3.9 5.1c0 0 0 .3 0 .3c-.3 1.2-1.3 2.2-2.8 2.2c-1.7 0-3.2-1.6-3.2-3.5c0-1.9 1.5-3.4 3.2-3.4c1.4 0 2.6.9 3 2.3c0 0-4.2.8-4.2.8c.3 1.2.9 2.3 2.3 2.3c.4 0 1.3-.2 1.7-1zm-4.1-2.3c0 .2.1.5.1.7c0 0 1.1-.2 1.1-.2c.3-.1.5-.3.5-.6c0-.7-.6-1.6-1.2-1.6c-.6 0-.5 1.4-.5 1.7zm5.4 4.8c-.03-.02-.6-2.8-.6-2.8c0 0 .25.02.2 0c.5 1.1 1.5 2.5 2.7 2.5c.7 0 1-.4 1-1.1c0-1.4-3.7-.8-3.7-3.7c0-1.2 1-1.8 2.2-1.8c.9 0 1.3.5 2.3 0c.02.02.5 2.5.5 2.5c0 0-.26 0-.3 0c-.5-1.2-1.6-2.2-2.6-2.2c-.6 0-1 .2-.9.8c.2 1.1 4.1.8 4.1 3.8c0 1.1-1.1 2-2.6 2c-1 0-1.3-.3-2.3 0zm5.7 1.6c1-.5 1.6-1.5 1.7-2.1c0 0-.1 0-.1 0c-.1.3-.3.5-.7.5c-.4 0-1-.4-1-1.2c0-.7.5-1.2 1.2-1.2c.9 0 1.2.7 1.2 1.4c0 .6-.3 1.9-2.3 2.9c0 0 0-.3 0-.3z" stroke="none" fill="#144542"/></g><g id="Polygon171150"><path d="m.3 40.7c.2-.1.7-.5.7-1.3c0 0 0-6.4 0-6.4c0-.9-.5-1.3-.7-1.3c.01-.05 0-.3 0-.3l2.7-.4c0 0 .04 8.38 0 8.4c0 .9.5 1.2.7 1.3c-.02-.02 0 .2 0 .2l-3.4 0c0 0 .01-.22 0-.2zm10-2.1c0 0 0 .3 0 .3c-.3 1.2-1.3 2.2-2.8 2.2c-1.7 0-3.2-1.6-3.2-3.5c0-1.9 1.5-3.4 3.3-3.4c1.3 0 2.5.9 2.9 2.3c0 0-4.1.8-4.1.8c.2 1.2.8 2.3 2.3 2.3c.3 0 1.2-.2 1.6-1zm-4-2.3c0 .2 0 .5 0 .7c0 0 1.1-.2 1.1-.2c.3-.1.5-.3.5-.6c0-.7-.6-1.6-1.2-1.6c-.6 0-.4 1.4-.4 1.7zm15.9 4.4c-.02-.02 0 .2 0 .2l-3.4 0c0 0 .02-.22 0-.2c.2-.1.7-.5.7-1.4c0 0 0-2.6 0-2.6c0-1.5-.2-1.9-.8-1.9c-.5 0-.8.4-1 .8c0 0 0 3.7 0 3.7c0 1 .4 1.3.5 1.4c.03-.02 0 .2 0 .2l-3.3 0c0 0 .02-.2 0-.2c.2-.1.7-.5.7-1.4c0 0 0-3.1 0-3.1c0-.9-.5-1.2-.7-1.4c.02.04 0-.2 0-.2l2.8-.4c0 0-.27 1.33-.3 1.3c.4-.8 1-1.3 1.9-1.3c1.5 0 2.2 1 2.2 2.3c0 0 0 2.8 0 2.8c0 .9.5 1.3.7 1.4zm.5-3.1c0-1.8 1.5-3.4 3.5-3.4c1.9 0 3.5 1.6 3.5 3.4c0 1.9-1.6 3.5-3.5 3.5c-2 0-3.5-1.6-3.5-3.5zm4.8 1.3c0-1.6-.8-4.3-2-4.3c-.4 0-.6.7-.6 1.7c0 1.6.8 4.4 1.9 4.4c.5 0 .7-.7.7-1.8zm14 1.8c0-.02 0 .2 0 .2l-3.3 0c0 0-.05-.22 0-.2c.1-.1.6-.5.6-1.4c0 0 0-2.6 0-2.6c0-1.5-.2-1.9-.8-1.9c-.5 0-.8.4-1.1.9c0 0 0 3.6 0 3.6c0 .9.5 1.3.7 1.4c0-.02 0 .2 0 .2l-3.4 0c0 0 .04-.22 0-.2c.2-.1.7-.5.7-1.4c0 0 0-2.6 0-2.6c0-1.5-.2-1.9-.8-1.9c-.4 0-.8.4-1 .8c0 0 0 3.7 0 3.7c0 1 .5 1.3.5 1.4c.04-.02 0 .2 0 .2l-3.3 0c0 0 .04-.2 0-.2c.2-.1.7-.5.7-1.4c0 0 0-3.1 0-3.1c0-.9-.5-1.2-.7-1.4c.04.04 0-.2 0-.2l2.8-.4c0 0-.25 1.33-.2 1.3c.3-.8.9-1.3 1.8-1.3c1.1 0 1.8.5 2.1 1.3c.3-.8.9-1.3 1.8-1.3c1.5 0 2.3 1 2.3 2.3c0 0 0 2.8 0 2.8c0 .9.4 1.3.6 1.4zm7.4-3.1c0 1.8-1.1 3.5-2.9 3.5c-1 0-1.5-.7-2.3-.7c-.7 0-.9.5-1 .7c-.05-.05-.2 0-.2 0c0 0-.04-8.11 0-8.1c0-.9-.5-1.3-.7-1.3c-.01-.03 0-.3 0-.3l2.7-.4c0 0 .02 3.94 0 3.9c.4-.5 1-.7 1.6-.7c1.7 0 2.8 1.6 2.8 3.4zm-2.1.1c0-.8-.3-2.9-1.4-2.9c-.2 0-.6.1-.9.7c0 0 0 3.1 0 3.1c0 1.4.4 2.1 1.3 2.1c1.1 0 1-2 1-3zm8.1-2.4c0 .6-.5 1-1 1c-1 0-.7-.9-1.2-.9c-.1 0-.3.2-.5.5c0 0 0 3.4 0 3.4c0 1 .5 1.3.6 1.4c.02-.02 0 .2 0 .2l-3.3 0c0 0 .02-.2 0-.2c.2-.1.7-.5.7-1.4c0 0 0-3.1 0-3.1c0-.9-.5-1.2-.7-1.4c.02.04 0-.2 0-.2l2.8-.4c0 0-.31 1.54-.3 1.5c.3-.8.8-1.5 1.8-1.5c.6 0 1.1.4 1.1 1.1zm6.2 3.3c0 0 0 .3 0 .3c-.3 1.2-1.3 2.2-2.8 2.2c-1.8 0-3.3-1.6-3.3-3.5c0-1.9 1.6-3.4 3.3-3.4c1.4 0 2.6.9 2.9 2.3c0 0-4.1.8-4.1.8c.2 1.2.9 2.3 2.3 2.3c.4 0 1.2-.2 1.7-1zm-4.1-2.3c0 .2 0 .5.1.7c0 0 1-.2 1-.2c.4-.1.6-.3.6-.6c0-.7-.6-1.6-1.2-1.6c-.6 0-.5 1.4-.5 1.7zm15.8 4.4c-.04-.04 0 .2 0 .2l-2.6 0c0 0 .1-.82.1-.8c-.6.7-1.1 1-1.8 1c-1.7 0-2.9-1.6-2.9-3.5c0-1.8 1.3-3.4 3-3.4c.5 0 1 .2 1.4.5c0 0 0-1.7 0-1.7c0-.9-.5-1.3-.6-1.3c-.03-.05 0-.3 0-.3l2.7-.4c0 0-.02 8.38 0 8.4c0 .8.4 1.2.7 1.3zm-2.8-.8c0 0 0-4.2 0-4.2c-.3-.7-.8-1.1-1.3-1.1c-1 0-1 1.3-1 2.4c0 1.8.4 3.5 1.4 3.5c.3 0 .6-.2.9-.6zm9.4-1.3c0 0 0 .3 0 .3c-.3 1.2-1.3 2.2-2.8 2.2c-1.7 0-3.3-1.6-3.3-3.5c0-1.9 1.6-3.4 3.3-3.4c1.4 0 2.6.9 2.9 2.3c0 0-4.1.8-4.1.8c.3 1.2.9 2.3 2.3 2.3c.4 0 1.3-.2 1.7-1zm-4.1-2.3c0 .2 0 .5.1.7c0 0 1.1-.2 1.1-.2c.3-.1.5-.3.5-.6c0-.7-.6-1.6-1.2-1.6c-.6 0-.5 1.4-.5 1.7zm9.2 4.8c.01-.02-.6-2.8-.6-2.8c0 0 .29.02.3 0c.4 1.1 1.4 2.5 2.7 2.5c.6 0 .9-.4.9-1.1c0-1.4-3.7-.8-3.7-3.7c0-1.2 1.1-1.8 2.2-1.8c1 0 1.4.5 2.4 0c-.04.02.5 2.5.5 2.5c0 0-.32 0-.3 0c-.6-1.2-1.7-2.2-2.6-2.2c-.6 0-1 .2-.9.8c.2 1.1 4.1.8 4.1 3.8c0 1.1-1.1 2-2.6 2c-1 0-1.3-.3-2.4 0zm7.7-7.6l-.3 0l.8-2l2.4 0l-2.9 2zm3.9 5.1c0 0 0 .3 0 .3c-.3 1.2-1.3 2.2-2.8 2.2c-1.8 0-3.3-1.6-3.3-3.5c0-1.9 1.6-3.4 3.3-3.4c1.4 0 2.6.9 2.9 2.3c0 0-4.1.8-4.1.8c.2 1.2.9 2.3 2.3 2.3c.4 0 1.2-.2 1.7-1zm-4.1-2.3c0 .2 0 .5.1.7c0 0 1-.2 1-.2c.4-.1.6-.3.6-.6c0-.7-.6-1.6-1.2-1.6c-.6 0-.5 1.4-.5 1.7zm4.6 3c0-1.8 2.9-2 3.8-2.3c0 0 0-1.2 0-1.2c0-.9-.5-1.3-1.1-1.3c-.6 0-.6.5-.6.6c0 .5.3.5.3 1.1c0 .5-.5.8-1.1.8c-.6 0-1-.4-1-1c0-.8 1.2-1.8 2.6-1.8c2.2 0 2.9 1 2.9 3c0 0 0 1.8 0 1.8c0 .8.1 1.2.9 1c0 0 0 .2 0 .2c-.3.5-1 .9-1.5.9c-.7 0-1.4-.4-1.4-1c-.5.7-1.3 1-1.9 1c-1.2 0-1.9-.6-1.9-1.8zm3.8 0c0 0 0-2 0-2c-.6.3-1.7.6-1.7 1.6c0 .7.3 1.2.9 1.2c.3 0 .8-.3.8-.8zm10.5 1.4c.03-.02 0 .2 0 .2l-3.3 0c0 0-.03-.22 0-.2c.2-.1.6-.5.6-1.4c0 0 0-2.6 0-2.6c0-1.5-.2-1.9-.8-1.9c-.4 0-.8.4-1 .8c0 0 0 3.7 0 3.7c0 1 .5 1.3.6 1.4c-.02-.02 0 .2 0 .2l-3.3 0c0 0-.03-.2 0-.2c.1-.1.6-.5.6-1.4c0 0 0-3.1 0-3.1c0-.9-.4-1.2-.6-1.4c-.03.04 0-.2 0-.2l2.7-.4c0 0-.22 1.33-.2 1.3c.3-.8.9-1.3 1.8-1.3c1.5 0 2.3 1 2.3 2.3c0 0 0 2.8 0 2.8c0 .9.5 1.3.6 1.4zm.5-3c0-1.8 1.5-3.5 3.6-3.5c1.2 0 2.5.9 2.5 2c0 .7-.6 1.1-1 1.1c-.5 0-1-.3-1-.9c0-.5.3-.6.3-1c0-.4-.5-.9-1.1-.9c-1.1 0-1.5.8-1.5 2c0 1.8 1 3.1 2.5 3.1c.6 0 1.4-.2 1.8-1c0 0 0 .5 0 .5c-.5 1.5-1.7 2-2.8 2c-1.7 0-3.3-1.6-3.3-3.4zm12.7.9c0 0 0 .3 0 .3c-.3 1.2-1.3 2.2-2.8 2.2c-1.8 0-3.3-1.6-3.3-3.5c0-1.9 1.5-3.4 3.3-3.4c1.4 0 2.6.9 2.9 2.3c0 0-4.1.8-4.1.8c.2 1.2.9 2.3 2.3 2.3c.4 0 1.2-.2 1.7-1zm-4.1-2.3c0 .2 0 .5 0 .7c0 0 1.1-.2 1.1-.2c.4-.1.5-.3.5-.6c0-.7-.6-1.6-1.1-1.6c-.6 0-.5 1.4-.5 1.7zm5.3 4.8c.02-.02-.6-2.8-.6-2.8c0 0 .29.02.3 0c.4 1.1 1.4 2.5 2.7 2.5c.6 0 .9-.4.9-1.1c0-1.4-3.7-.8-3.7-3.7c0-1.2 1.1-1.8 2.2-1.8c1 0 1.4.5 2.4 0c-.04.02.5 2.5.5 2.5c0 0-.31 0-.3 0c-.6-1.2-1.7-2.2-2.6-2.2c-.6 0-1 .2-.9.8c.2 1.1 4.1.8 4.1 3.8c0 1.1-1.1 2-2.6 2c-1 0-1.3-.3-2.4 0zm15.6-2.5c0 0 0 .3 0 .3c-.3 1.2-1.3 2.2-2.8 2.2c-1.8 0-3.3-1.6-3.3-3.5c0-1.9 1.5-3.4 3.3-3.4c1.4 0 2.6.9 2.9 2.3c0 0-4.1.8-4.1.8c.2 1.2.9 2.3 2.3 2.3c.4 0 1.2-.2 1.7-1zm-4.1-2.3c0 .2 0 .5 0 .7c0 0 1.1-.2 1.1-.2c.4-.1.5-.3.5-.6c0-.7-.6-1.6-1.1-1.6c-.6 0-.5 1.4-.5 1.7zm11.9 4.4c.04-.02 0 .2 0 .2l-3.3 0c0 0-.01-.22 0-.2c.2-.1.6-.5.6-1.4c0 0 0-2.6 0-2.6c0-1.5-.1-1.9-.8-1.9c-.4 0-.8.4-1 .8c0 0 0 3.7 0 3.7c0 1 .5 1.3.6 1.4c-.01-.02 0 .2 0 .2l-3.3 0c0 0-.01-.2 0-.2c.1-.1.7-.5.7-1.4c0 0 0-3.1 0-3.1c0-.9-.5-1.2-.7-1.4c-.01.04 0-.2 0-.2l2.7-.4c0 0-.2 1.33-.2 1.3c.4-.8 1-1.3 1.8-1.3c1.6 0 2.3 1 2.3 2.3c0 0 0 2.8 0 2.8c0 .9.5 1.3.6 1.4zm7.3-8.1c0-.3.1-.5.1-.8c0-.2-.1-.4-.5-.4c-.2 0-.4.2-.4.5c0 .7.7 1.7.8 2.5c0-.02 1.2 0 1.2 0l0 .3l-1.2 0c0 0 .01 4.81 0 4.8c0 .8.3 1.1.6 1.2c-.03-.02 0 .2 0 .2l-3.3 0c0 0-.03-.22 0-.2c.2-.1.6-.4.6-1.2c.03.01 0-4.8 0-4.8l-.6 0c0 0-.03-.32 0-.3c.5 0 .7-1 .9-1.5c.3-1.5 1.1-1.9 2-1.9c.9 0 1.9.7 1.9 1.6c0 .6-.5 1-1.1 1c-.6 0-1-.5-1-1zm1.7 6.7c0-1.8 2.9-2 3.7-2.3c0 0 0-1.2 0-1.2c0-.9-.4-1.3-1-1.3c-.6 0-.6.5-.6.6c0 .5.2.5.2 1.1c0 .5-.4.8-1 .8c-.6 0-1-.4-1-1c0-.8 1.2-1.8 2.6-1.8c2.2 0 2.9 1 2.9 3c0 0 0 1.8 0 1.8c0 .8.1 1.2.8 1c0 0 0 .2 0 .2c-.2.5-1 .9-1.4.9c-.7 0-1.4-.4-1.4-1c-.5.7-1.4 1-1.9 1c-1.3 0-1.9-.6-1.9-1.8zm3.7 0c0 0 0-2 0-2c-.5.3-1.6.6-1.6 1.6c0 .7.3 1.2.9 1.2c.3 0 .7-.3.7-.8zm3.3-1.6c0-1.8 1.4-3.5 3.6-3.5c1.2 0 2.5.9 2.5 2c0 .7-.6 1.1-1.1 1.1c-.4 0-1-.3-1-.9c0-.5.4-.6.4-1c0-.4-.6-.9-1.1-.9c-1.1 0-1.5.8-1.5 2c0 1.8 1 3.1 2.5 3.1c.6 0 1.4-.2 1.8-1c0 0 0 .5 0 .5c-.5 1.5-1.8 2-2.8 2c-1.8 0-3.3-1.6-3.3-3.4zm12.6.9c0 0 0 .3 0 .3c-.3 1.2-1.3 2.2-2.8 2.2c-1.7 0-3.2-1.6-3.2-3.5c0-1.9 1.5-3.4 3.3-3.4c1.4 0 2.5.9 2.9 2.3c0 0-4.1.8-4.1.8c.2 1.2.8 2.3 2.3 2.3c.3 0 1.2-.2 1.6-1zm-4-2.3c0 .2 0 .5 0 .7c0 0 1.1-.2 1.1-.2c.4-.1.5-.3.5-.6c0-.7-.6-1.6-1.2-1.6c-.5 0-.4 1.4-.4 1.7zm9.5-4.8l2.4 0l.9 2l-.4 0l-2.9-2zm-1 7.8c0-1.8 3-2 3.8-2.3c0 0 0-1.2 0-1.2c0-.9-.5-1.3-1-1.3c-.6 0-.6.5-.6.6c0 .5.2.5.2 1.1c0 .5-.4.8-1.1.8c-.6 0-.9-.4-.9-1c0-.8 1.1-1.8 2.5-1.8c2.2 0 2.9 1 2.9 3c0 0 0 1.8 0 1.8c0 .8.2 1.2.9 1c0 0 0 .2 0 .2c-.3.5-1 .9-1.4.9c-.8 0-1.5-.4-1.5-1c-.5.7-1.3 1-1.9 1c-1.2 0-1.9-.6-1.9-1.8zm3.8 0c0 0 0-2 0-2c-.6.3-1.7.6-1.7 1.6c0 .7.4 1.2.9 1.2c.3 0 .8-.3.8-.8zm10-6.7c0-.3.1-.5.1-.8c0-.2-.1-.4-.4-.4c-.3 0-.5.2-.5.5c0 .7.7 1.7.8 2.5c.01-.02 1.2 0 1.2 0l0 .3l-1.2 0c0 0 .02 4.81 0 4.8c0 .8.3 1.1.6 1.2c-.02-.02 0 .2 0 .2l-3.3 0c0 0-.02-.22 0-.2c.3-.1.6-.4.6-1.2c.04.01 0-4.8 0-4.8l-.6 0c0 0-.02-.32 0-.3c.5 0 .7-1 .9-1.5c.3-1.5 1.1-1.9 2-1.9c1 0 1.9.7 1.9 1.6c0 .6-.5 1-1.1 1c-.6 0-1-.5-1-1zm1.7 6.7c0-1.8 2.9-2 3.8-2.3c0 0 0-1.2 0-1.2c0-.9-.5-1.3-1.1-1.3c-.6 0-.6.5-.6.6c0 .5.3.5.3 1.1c0 .5-.5.8-1.1.8c-.6 0-1-.4-1-1c0-.8 1.2-1.8 2.6-1.8c2.2 0 2.9 1 2.9 3c0 0 0 1.8 0 1.8c0 .8.1 1.2.8 1c0 0 0 .2 0 .2c-.2.5-.9.9-1.4.9c-.7 0-1.4-.4-1.4-1c-.5.7-1.3 1-1.9 1c-1.3 0-1.9-.6-1.9-1.8zm3.8 0c0 0 0-2 0-2c-.6.3-1.7.6-1.7 1.6c0 .7.3 1.2.9 1.2c.3 0 .8-.3.8-.8zm3.2-1.6c0-1.8 1.4-3.5 3.6-3.5c1.2 0 2.5.9 2.5 2c0 .7-.6 1.1-1.1 1.1c-.4 0-1-.3-1-.9c0-.5.4-.6.4-1c0-.4-.5-.9-1.1-.9c-1.1 0-1.5.8-1.5 2c0 1.8 1 3.1 2.5 3.1c.6 0 1.4-.2 1.8-1c0 0 0 .5 0 .5c-.5 1.5-1.8 2-2.8 2c-1.8 0-3.3-1.6-3.3-3.4zm12.7.9c0 0 0 .3 0 .3c-.3 1.2-1.3 2.2-2.8 2.2c-1.8 0-3.3-1.6-3.3-3.5c0-1.9 1.5-3.4 3.3-3.4c1.4 0 2.6.9 2.9 2.3c0 0-4.1.8-4.1.8c.2 1.2.8 2.3 2.3 2.3c.3 0 1.2-.2 1.7-1zm-4.1-2.3c0 .2 0 .5 0 .7c0 0 1.1-.2 1.1-.2c.4-.1.5-.3.5-.6c0-.7-.6-1.6-1.2-1.6c-.5 0-.4 1.4-.4 1.7zm8.5 3c0-1.8 3-2 3.8-2.3c0 0 0-1.2 0-1.2c0-.9-.5-1.3-1-1.3c-.6 0-.6.5-.6.6c0 .5.2.5.2 1.1c0 .5-.4.8-1.1.8c-.6 0-.9-.4-.9-1c0-.8 1.1-1.8 2.5-1.8c2.2 0 2.9 1 2.9 3c0 0 0 1.8 0 1.8c0 .8.2 1.2.9 1c0 0 0 .2 0 .2c-.3.5-1 .9-1.4.9c-.8 0-1.4-.4-1.5-1c-.5.7-1.3 1-1.9 1c-1.2 0-1.9-.6-1.9-1.8zm3.8 0c0 0 0-2 0-2c-.6.3-1.7.6-1.7 1.6c0 .7.4 1.2.9 1.2c.3 0 .8-.3.8-.8zm10.2-4.9c0 0-.03.18 0 .2c-.6.1-1 .6-1.5 1.6c-.2.4-.4.8-.4 1c-.8 1.8-1.1 2.5-1 3.4c-.6 0-1.2.3-1.6.6c-.6-2-1.4-3.9-1.8-5c-.4-1.1-.8-1.4-1.2-1.6c.01-.02 0-.2 0-.2l3.6 0c0 0 .03.18 0 .2c-.3.1-.7.4-.2 1.9c.2.6.9 2.5 1 2.9c.2-.5.4-1.1.9-2.3c.1-.2.2-.5.3-1c.3-1-.1-1.4-.5-1.5c-.04-.03 0-.2 0-.2l2.4 0zm5.7 4.2c0 0 0 .3 0 .3c-.3 1.2-1.3 2.2-2.8 2.2c-1.7 0-3.3-1.6-3.3-3.5c0-1.9 1.6-3.4 3.3-3.4c1.4 0 2.6.9 2.9 2.3c0 0-4.1.8-4.1.8c.3 1.2.9 2.3 2.3 2.3c.4 0 1.3-.2 1.7-1zm-4.1-2.3c0 .2 0 .5.1.7c0 0 1-.2 1-.2c.4-.1.6-.3.6-.6c0-.7-.6-1.6-1.2-1.6c-.6 0-.5 1.4-.5 1.7zm4.7 1.4c0-1.8 1.4-3.5 3.5-3.5c1.3 0 2.6.9 2.6 2c0 .7-.6 1.1-1.1 1.1c-.5 0-1-.3-1-.9c0-.5.3-.6.3-1c0-.4-.5-.9-1-.9c-1.1 0-1.5.8-1.5 2c0 1.8 1 3.1 2.5 3.1c.5 0 1.3-.2 1.8-1c0 0 0 .5 0 .5c-.6 1.5-1.8 2-2.8 2c-1.8 0-3.3-1.6-3.3-3.4zm16.6.9c0 0 0 .3 0 .3c-.3 1.2-1.3 2.2-2.8 2.2c-1.8 0-3.3-1.6-3.3-3.5c0-1.9 1.6-3.4 3.3-3.4c1.4 0 2.6.9 2.9 2.3c0 0-4.1.8-4.1.8c.2 1.2.9 2.3 2.3 2.3c.4 0 1.2-.2 1.7-1zm-4.1-2.3c0 .2 0 .5.1.7c0 0 1-.2 1-.2c.4-.1.5-.3.5-.6c0-.7-.5-1.6-1.1-1.6c-.6 0-.5 1.4-.5 1.7zm5.3 1.8c0 0 0-2.1 0-2.1c0-.8-.5-1.1-.7-1.2c.04.04 0-.2 0-.2l2.8-.4c0 0-.04 3.9 0 3.9c0 1.1.3 1.8 1 1.8c.6 0 .9-.8.8-1.4c0 0 0-2.5 0-2.5c0-.9-.5-1.1-.7-1.2c.04.04 0-.2 0-.2l2.8-.4c0 0-.03 5.31 0 5.3c0 .9.5 1.1.6 1.2c-.01-.02 0 .2 0 .2l-2.7 0c0 0 .12-1.54.1-1.5c-.4 1.2-1.3 1.7-2.1 1.7c-1.5 0-1.9-1.3-1.9-3zm13.9 2.6c.04-.02 0 .2 0 .2l-3.6 0c0 0 0-.22 0-.2c.1-.1.7-.5.2-1.2c-.01-.03-.8-1.3-.8-1.3c0 0-.74.89-.7.9c-.6.8-.2 1.5.1 1.6c.01-.02 0 .2 0 .2l-2.4 0c0 0 0-.22 0-.2c.4-.1 1.2-.7 1.7-1.4c-.01 0 1.1-1.4 1.1-1.4c0 0-1.1-1.71-1.1-1.7c-.6-.9-1.1-1.4-1.5-1.6c0-.02 0-.2 0-.2l3.7 0c0 0 0 .18 0 .2c-.3.1-.7.4-.1 1.3c.01.03.4.7.4.7c0 0 .61-.69.6-.7c.5-.6.1-1.2-.2-1.3c.01-.02 0-.2 0-.2l2.3 0c0 0-.04.18 0 .2c-.4.1-1.2.7-1.8 1.5c.01-.04-.7.8-.7.8c0 0 1.32 1.97 1.3 2c.5.8 1 1.7 1.5 1.8zm.4-.8c0-.7.5-1.2 1.2-1.2c.6 0 1.1.5 1.1 1.2c0 .6-.5 1.2-1.1 1.2c-.7 0-1.2-.6-1.2-1.2zm15.3-5.5c0 0-.3-.04-.3 0c-.2-.8-.8-2.6-2.8-2.6c-.03-.02-.1 0-.1 0c0 0 .04 7.59 0 7.6c0 .9.5 1.2.7 1.3c-.01-.04 0 .2 0 .2l-3.6 0c0 0-.01-.22 0-.2c.2-.1.7-.4.7-1.3c0 0 0-7.6 0-7.6c-2.1 0-2.7 1.8-2.9 2.6c.01-.04-.3 0-.3 0c0 0 .58-3.3.6-3.3c.3.2 1 .4 2 .4c0 0 3.4 0 3.4 0c.9 0 1.8-.2 2-.4c.03 0 .6 3.3.6 3.3zm5.7.9c0 .6-.5 1-1 1c-1 0-.8-.9-1.2-.9c-.2 0-.4.2-.5.5c0 0 0 3.4 0 3.4c0 1 .5 1.3.6 1.4c-.01-.02 0 .2 0 .2l-3.3 0c0 0-.01-.2 0-.2c.1-.1.7-.5.7-1.4c0 0 0-3.1 0-3.1c0-.9-.5-1.2-.7-1.4c-.01.04 0-.2 0-.2l2.7-.4c0 0-.24 1.54-.2 1.5c.3-.8.8-1.5 1.8-1.5c.6 0 1.1.4 1.1 1.1zm.3 4c0-1.8 2.9-2 3.8-2.3c0 0 0-1.2 0-1.2c0-.9-.5-1.3-1-1.3c-.6 0-.6.5-.6.6c0 .5.2.5.2 1.1c0 .5-.4.8-1.1.8c-.6 0-.9-.4-.9-1c0-.8 1.1-1.8 2.5-1.8c2.2 0 2.9 1 2.9 3c0 0 0 1.8 0 1.8c0 .8.2 1.2.9 1c0 0 0 .2 0 .2c-.3.5-1 .9-1.5.9c-.7 0-1.4-.4-1.4-1c-.5.7-1.3 1-1.9 1c-1.2 0-1.9-.6-1.9-1.8zm3.8 0c0 0 0-2 0-2c-.6.3-1.7.6-1.7 1.6c0 .7.4 1.2.9 1.2c.3 0 .8-.3.8-.8zm10.5 1.4c.05-.02 0 .2 0 .2l-3.3 0c0 0-.01-.22 0-.2c.2-.1.6-.5.6-1.4c0 0 0-2.6 0-2.6c0-1.5-.1-1.9-.7-1.9c-.5 0-.9.4-1.1.8c0 0 0 3.7 0 3.7c0 1 .5 1.3.6 1.4c0-.02 0 .2 0 .2l-3.3 0c0 0-.01-.2 0-.2c.1-.1.7-.5.7-1.4c0 0 0-3.1 0-3.1c0-.9-.5-1.2-.7-1.4c-.01.04 0-.2 0-.2l2.7-.4c0 0-.2 1.33-.2 1.3c.4-.8 1-1.3 1.8-1.3c1.6 0 2.3 1 2.3 2.3c0 0 0 2.8 0 2.8c0 .9.5 1.3.6 1.4zm1.1.4c0-.02-.6-2.8-.6-2.8c0 0 .28.02.3 0c.4 1.1 1.4 2.5 2.6 2.5c.7 0 1-.4 1-1.1c0-1.4-3.7-.8-3.7-3.7c0-1.2 1.1-1.8 2.2-1.8c1 0 1.3.5 2.3 0c.05.02.5 2.5.5 2.5c0 0-.23 0-.2 0c-.6-1.2-1.7-2.2-2.6-2.2c-.6 0-1 .2-.9.8c.1 1.1 4.1.8 4.1 3.8c0 1.1-1.1 2-2.6 2c-1 0-1.3-.3-2.4 0zm16.7-.4c.03-.02 0 .2 0 .2l-3.3 0c0 0-.01-.22 0-.2c.2-.1.6-.5.6-1.4c0 0 0-2.6 0-2.6c0-1.5-.1-1.9-.8-1.9c-.4 0-.8.4-1 .9c0 0 0 3.6 0 3.6c0 .9.5 1.3.6 1.4c.03-.02 0 .2 0 .2l-3.3 0c0 0-.02-.22 0-.2c.2-.1.6-.5.6-1.4c0 0 0-2.6 0-2.6c0-1.5-.2-1.9-.8-1.9c-.4 0-.8.4-1 .8c0 0 0 3.7 0 3.7c0 1 .5 1.3.6 1.4c-.02-.02 0 .2 0 .2l-3.3 0c0 0-.02-.2 0-.2c.1-.1.6-.5.6-1.4c0 0 0-3.1 0-3.1c0-.9-.4-1.2-.6-1.4c-.02.04 0-.2 0-.2l2.7-.4c0 0-.21 1.33-.2 1.3c.4-.8.9-1.3 1.8-1.3c1.1 0 1.8.5 2.1 1.3c.4-.8 1-1.3 1.8-1.3c1.5 0 2.3 1 2.3 2.3c0 0 0 2.8 0 2.8c0 .9.5 1.3.6 1.4zm6.6-2.1c0 0 0 .3 0 .3c-.3 1.2-1.3 2.2-2.8 2.2c-1.8 0-3.3-1.6-3.3-3.5c0-1.9 1.6-3.4 3.3-3.4c1.4 0 2.6.9 2.9 2.3c0 0-4.1.8-4.1.8c.2 1.2.9 2.3 2.3 2.3c.4 0 1.2-.2 1.7-1zm-4.1-2.3c0 .2 0 .5.1.7c0 0 1-.2 1-.2c.4-.1.6-.3.6-.6c0-.7-.6-1.6-1.2-1.6c-.6 0-.5 1.4-.5 1.7zm7.4-1.5c0 0-.03 4.11 0 4.1c0 1.9 1.2 1.3 1.2 1.3c0 0 0 .2 0 .2c-.1.1-.7.6-1.8.6c-.8 0-1.5-.5-1.5-1.9c.01.02 0-4.3 0-4.3l-.9 0c0 0 .05-.42 0-.4c1-.4 2.3-1.6 2.8-2.7c-.05.05.2 0 .2 0c0 0-.03 2.68 0 2.7c.5 0 1-.1 1.5-.3c-.03.04-.1.7-.1.7l-1.4 0zm4.6 0c0 0-.04 4.11 0 4.1c0 1.9 1.2 1.3 1.2 1.3c0 0 0 .2 0 .2c-.1.1-.7.6-1.8.6c-.8 0-1.5-.5-1.5-1.9c-.01.02 0-4.3 0-4.3l-.9 0c0 0 .04-.42 0-.4c.9-.4 2.3-1.6 2.7-2.7c.04.05.3 0 .3 0c0 0-.04 2.68 0 2.7c.4 0 1-.1 1.5-.3c-.04.04-.1.7-.1.7l-1.4 0zm7.3.5c0 .6-.5 1-1 1c-1 0-.8-.9-1.2-.9c-.2 0-.4.2-.5.5c0 0 0 3.4 0 3.4c0 1 .5 1.3.6 1.4c-.01-.02 0 .2 0 .2l-3.3 0c0 0-.02-.2 0-.2c.1-.1.6-.5.6-1.4c0 0 0-3.1 0-3.1c0-.9-.4-1.2-.6-1.4c-.02.04 0-.2 0-.2l2.7-.4c0 0-.25 1.54-.2 1.5c.3-.8.8-1.5 1.8-1.5c.6 0 1.1.4 1.1 1.1zm6.2 3.3c0 0 0 .3 0 .3c-.3 1.2-1.3 2.2-2.8 2.2c-1.8 0-3.3-1.6-3.3-3.5c0-1.9 1.5-3.4 3.3-3.4c1.4 0 2.6.9 2.9 2.3c0 0-4.1.8-4.1.8c.2 1.2.8 2.3 2.3 2.3c.4 0 1.2-.2 1.7-1zm-4.1-2.3c0 .2 0 .5 0 .7c0 0 1.1-.2 1.1-.2c.4-.1.5-.3.5-.6c0-.7-.6-1.6-1.1-1.6c-.6 0-.5 1.4-.5 1.7zm15.6 1.3c0 1.9-1.2 3.5-2.9 3.5c-.6 0-1.1-.2-1.4-.5c0 0 0 1.6 0 1.6c0 .9.4 1.3.5 1.3c.03.05 0 .2 0 .2l-3.3 0c0 0-.01-.14 0-.1c.1-.1.7-.6.7-1.4c0 0 0-6 0-6c0-1-.4-1.4-.7-1.4c.03.01 0-.2 0-.2l2.7-.5c0 0-.2 1.3-.2 1.3c.6-1.1 1.3-1.2 1.8-1.2c1.7 0 2.8 1.5 2.8 3.4zm-2.1.3c0-1.4-.4-3.1-1.3-3.1c-.3 0-.6.1-.9.7c0 0 0 4.3 0 4.3c.3.6.5.9 1.2.9c.7 0 1-1.1 1-2.8zm8.9.7c0 0 0 .3 0 .3c-.3 1.2-1.3 2.2-2.8 2.2c-1.8 0-3.3-1.6-3.3-3.5c0-1.9 1.5-3.4 3.3-3.4c1.4 0 2.6.9 2.9 2.3c0 0-4.1.8-4.1.8c.2 1.2.9 2.3 2.3 2.3c.4 0 1.2-.2 1.7-1zm-4.1-2.3c0 .2 0 .5 0 .7c0 0 1.1-.2 1.1-.2c.4-.1.5-.3.5-.6c0-.7-.6-1.6-1.1-1.6c-.6 0-.5 1.4-.5 1.7zm11.9 4.4c.04-.02 0 .2 0 .2l-3.3 0c0 0-.02-.22 0-.2c.2-.1.6-.5.6-1.4c0 0 0-2.6 0-2.6c0-1.5-.1-1.9-.8-1.9c-.4 0-.8.4-1 .8c0 0 0 3.7 0 3.7c0 1 .5 1.3.6 1.4c-.02-.02 0 .2 0 .2l-3.3 0c0 0-.02-.2 0-.2c.1-.1.6-.5.6-1.4c0 0 0-3.1 0-3.1c0-.9-.4-1.2-.6-1.4c-.02.04 0-.2 0-.2l2.7-.4c0 0-.21 1.33-.2 1.3c.4-.8 1-1.3 1.8-1.3c1.5 0 2.3 1 2.3 2.3c0 0 0 2.8 0 2.8c0 .9.5 1.3.6 1.4zm7.7 0c-.05-.04 0 .2 0 .2l-2.6 0c0 0 .1-.82.1-.8c-.6.7-1.1 1-1.8 1c-1.7 0-2.9-1.6-2.9-3.5c0-1.8 1.3-3.4 3-3.4c.5 0 1 .2 1.4.5c0 0 0-1.7 0-1.7c0-.9-.5-1.3-.6-1.3c-.04-.05 0-.3 0-.3l2.7-.4c0 0-.02 8.38 0 8.4c0 .8.4 1.2.7 1.3zm-2.8-.8c0 0 0-4.2 0-4.2c-.3-.7-.8-1.1-1.3-1.1c-1 0-1 1.3-1 2.4c0 1.8.4 3.5 1.4 3.5c.3 0 .6-.2.9-.6zm3.3-.6c0-1.8 2.9-2 3.8-2.3c0 0 0-1.2 0-1.2c0-.9-.5-1.3-1.1-1.3c-.6 0-.6.5-.6.6c0 .5.3.5.3 1.1c0 .5-.5.8-1.1.8c-.6 0-1-.4-1-1c0-.8 1.2-1.8 2.6-1.8c2.2 0 2.9 1 2.9 3c0 0 0 1.8 0 1.8c0 .8.1 1.2.9 1c0 0 0 .2 0 .2c-.3.5-1 .9-1.5.9c-.7 0-1.4-.4-1.4-1c-.5.7-1.3 1-1.9 1c-1.2 0-1.9-.6-1.9-1.8zm3.8 0c0 0 0-2 0-2c-.6.3-1.7.6-1.7 1.6c0 .7.3 1.2.9 1.2c.3 0 .8-.3.8-.8zm10.5 1.4c.03-.02 0 .2 0 .2l-3.3 0c0 0-.03-.22 0-.2c.2-.1.6-.5.6-1.4c0 0 0-2.6 0-2.6c0-1.5-.2-1.9-.8-1.9c-.4 0-.8.4-1 .8c0 0 0 3.7 0 3.7c0 1 .5 1.3.6 1.4c-.03-.02 0 .2 0 .2l-3.3 0c0 0-.03-.2 0-.2c.1-.1.6-.5.6-1.4c0 0 0-3.1 0-3.1c0-.9-.4-1.2-.6-1.4c-.03.04 0-.2 0-.2l2.7-.4c0 0-.22 1.33-.2 1.3c.3-.8.9-1.3 1.8-1.3c1.5 0 2.3 1 2.3 2.3c0 0 0 2.8 0 2.8c0 .9.5 1.3.6 1.4zm3.3-5.9c0 0 .01 4.11 0 4.1c0 1.9 1.2 1.3 1.3 1.3c0 0 0 .2 0 .2c-.1.1-.8.6-1.9.6c-.8 0-1.5-.5-1.5-1.9c.05.02 0-4.3 0-4.3l-.8 0c0 0-.01-.42 0-.4c.9-.4 2.2-1.6 2.7-2.7c-.01.05.2 0 .2 0c0 0 .01 2.68 0 2.7c.5 0 1.1-.1 1.5-.3c.01.04-.1.7-.1.7l-1.4 0z" stroke="none" fill="#144542"/></g><g id="Polygon171149"><path d="m.3 25.1c.2-.1.7-.5.7-1.3c0 0 0-6.4 0-6.4c0-.9-.5-1.3-.7-1.3c.01-.05 0-.3 0-.3l2.7-.4c0 0 .04 8.38 0 8.4c0 .9.5 1.2.7 1.3c-.02-.02 0 .2 0 .2l-3.4 0c0 0 .01-.22 0-.2zm3.9-1.4c0-1.8 2.9-2 3.8-2.3c0 0 0-1.2 0-1.2c0-.9-.5-1.3-1-1.3c-.6 0-.6.5-.6.6c0 .5.2.5.2 1.1c0 .5-.4.8-1.1.8c-.6 0-.9-.4-.9-1c0-.8 1.1-1.8 2.5-1.8c2.2 0 2.9 1 2.9 3c0 0 0 1.8 0 1.8c0 .8.2 1.2.9 1c0 0 0 .2 0 .2c-.3.5-1 .9-1.4.9c-.8 0-1.5-.4-1.5-1c-.5.7-1.3 1-1.9 1c-1.2 0-1.9-.6-1.9-1.8zm3.8 0c0 0 0-2 0-2c-.6.3-1.7.6-1.7 1.6c0 .7.4 1.2.9 1.2c.3 0 .8-.3.8-.8zm18.4 1.4c.03-.02 0 .2 0 .2l-3.3 0c0 0-.01-.22 0-.2c.2-.1.6-.5.6-1.4c0 0 0-2.6 0-2.6c0-1.5-.1-1.9-.8-1.9c-.4 0-.8.4-1 .9c0 0 0 3.6 0 3.6c0 .9.5 1.3.6 1.4c.03-.02 0 .2 0 .2l-3.3 0c0 0-.03-.22 0-.2c.2-.1.6-.5.6-1.4c0 0 0-2.6 0-2.6c0-1.5-.2-1.9-.8-1.9c-.4 0-.8.4-1 .8c0 0 0 3.7 0 3.7c0 1 .5 1.3.6 1.4c-.02-.02 0 .2 0 .2l-3.3 0c0 0-.03-.2 0-.2c.1-.1.6-.5.6-1.4c0 0 0-3.1 0-3.1c0-.9-.4-1.2-.6-1.4c-.03.04 0-.2 0-.2l2.7-.4c0 0-.22 1.33-.2 1.3c.3-.8.9-1.3 1.8-1.3c1.1 0 1.8.5 2.1 1.3c.4-.8 1-1.3 1.8-1.3c1.5 0 2.3 1 2.3 2.3c0 0 0 2.8 0 2.8c0 .9.5 1.3.6 1.4zm.5-3.1c0-1.8 1.6-3.4 3.5-3.4c2 0 3.6 1.6 3.6 3.4c0 1.9-1.6 3.5-3.6 3.5c-1.9 0-3.5-1.6-3.5-3.5zm4.9 1.3c0-1.6-.9-4.3-2-4.3c-.5 0-.7.7-.7 1.7c0 1.6.8 4.4 2 4.4c.5 0 .7-.7.7-1.8zm5.5-4.1c0 0-.03 4.11 0 4.1c0 1.9 1.2 1.3 1.2 1.3c0 0 0 .2 0 .2c-.1.1-.7.6-1.8.6c-.8 0-1.5-.5-1.5-1.9c0 .02 0-4.3 0-4.3l-.9 0c0 0 .05-.42 0-.4c1-.4 2.3-1.6 2.7-2.7c.05.05.3 0 .3 0c0 0-.03 2.68 0 2.7c.5 0 1-.1 1.5-.3c-.03.04-.1.7-.1.7l-1.4 0zm2.4-2.4c0-.7.5-1.2 1.1-1.2c.7 0 1.2.5 1.2 1.2c0 .6-.5 1.1-1.2 1.1c-.6 0-1.1-.5-1.1-1.1zm-.5 8.3c.2-.1.6-.4.6-1.3c0 0 0-3.3 0-3.3c0-.9-.4-1.2-.6-1.3c-.01.03 0-.2 0-.2l2.7-.4c0 0 .02 5.18 0 5.2c0 .9.5 1.2.6 1.3c.04-.02 0 .2 0 .2l-3.3 0c0 0-.01-.22 0-.2zm11-6.3c0 0-.05.18 0 .2c-.6.1-1 .6-1.5 1.6c-.2.4-.4.8-.5 1c-.7 1.8-1 2.5-.9 3.4c-.6 0-1.3.3-1.6.6c-.6-2-1.4-3.9-1.8-5c-.4-1.1-.8-1.4-1.2-1.6c-.01-.02 0-.2 0-.2l3.6 0c0 0 .01.18 0 .2c-.3.1-.7.4-.2 1.9c.2.6.9 2.5 1 2.9c.2-.5.4-1.1.8-2.3c.1-.2.3-.5.4-1c.3-1-.2-1.4-.6-1.5c.04-.03 0-.2 0-.2l2.5 0zm-.1 4.9c0-1.8 2.9-2 3.8-2.3c0 0 0-1.2 0-1.2c0-.9-.5-1.3-1.1-1.3c-.6 0-.6.5-.6.6c0 .5.3.5.3 1.1c0 .5-.5.8-1.1.8c-.6 0-1-.4-1-1c0-.8 1.2-1.8 2.6-1.8c2.2 0 2.9 1 2.9 3c0 0 0 1.8 0 1.8c0 .8.1 1.2.8 1c0 0 0 .2 0 .2c-.2.5-.9.9-1.4.9c-.7 0-1.4-.4-1.4-1c-.5.7-1.3 1-1.9 1c-1.3 0-1.9-.6-1.9-1.8zm3.8 0c0 0 0-2 0-2c-.6.3-1.7.6-1.7 1.6c0 .7.3 1.2.9 1.2c.3 0 .8-.3.8-.8zm5.9-4.5c0 0 .03 4.11 0 4.1c0 1.9 1.2 1.3 1.3 1.3c0 0 0 .2 0 .2c-.1.1-.8.6-1.9.6c-.8 0-1.4-.5-1.4-1.9c-.04.02 0-4.3 0-4.3l-.9 0c0 0 0-.42 0-.4c.9-.4 2.2-1.6 2.7-2.7c0 .05.2 0 .2 0c0 0 .03 2.68 0 2.7c.5 0 1.1-.1 1.5-.3c.02.04-.1.7-.1.7l-1.4 0zm2.4-2.4c0-.7.6-1.2 1.2-1.2c.6 0 1.2.5 1.2 1.2c0 .6-.6 1.1-1.2 1.1c-.6 0-1.2-.5-1.2-1.1zm-.5 8.3c.2-.1.7-.4.7-1.3c0 0 0-3.3 0-3.3c0-.9-.4-1.2-.7-1.3c.05.03 0-.2 0-.2l2.8-.4c0 0-.02 5.18 0 5.2c0 .9.4 1.2.6 1.3c-.01-.02 0 .2 0 .2l-3.4 0c0 0 .05-.22 0-.2zm3.9-3.1c0-1.8 1.5-3.4 3.5-3.4c1.9 0 3.5 1.6 3.5 3.4c0 1.9-1.6 3.5-3.5 3.5c-2 0-3.5-1.6-3.5-3.5zm4.8 1.3c0-1.6-.8-4.3-2-4.3c-.4 0-.6.7-.6 1.7c0 1.6.8 4.4 1.9 4.4c.5 0 .7-.7.7-1.8zm10.1 1.8c.01-.02 0 .2 0 .2l-3.3 0c0 0-.05-.22 0-.2c.1-.1.6-.5.6-1.4c0 0 0-2.6 0-2.6c0-1.5-.2-1.9-.8-1.9c-.4 0-.8.4-1 .8c0 0 0 3.7 0 3.7c0 1 .5 1.3.6 1.4c-.04-.02 0 .2 0 .2l-3.3 0c0 0-.05-.2 0-.2c.1-.1.6-.5.6-1.4c0 0 0-3.1 0-3.1c0-.9-.5-1.2-.6-1.4c-.05.04 0-.2 0-.2l2.7-.4c0 0-.24 1.33-.2 1.3c.3-.8.9-1.3 1.8-1.3c1.5 0 2.3 1 2.3 2.3c0 0 0 2.8 0 2.8c0 .9.5 1.3.6 1.4zm11.6 0c0-.04 0 .2 0 .2l-2.6 0c0 0 .15-.82.1-.8c-.5.7-1.1 1-1.7 1c-1.8 0-2.9-1.6-2.9-3.5c0-1.8 1.2-3.4 2.9-3.4c.6 0 1.1.2 1.5.5c0 0 0-1.7 0-1.7c0-.9-.5-1.3-.7-1.3c.01-.05 0-.3 0-.3l2.7-.4c0 0 .03 8.38 0 8.4c0 .8.5 1.2.7 1.3zm-2.7-.8c0 0 0-4.2 0-4.2c-.4-.7-.9-1.1-1.3-1.1c-1.1 0-1 1.3-1 2.4c0 1.8.4 3.5 1.4 3.5c.3 0 .6-.2.9-.6zm9.4-1.3c0 0 0 .3 0 .3c-.3 1.2-1.3 2.2-2.8 2.2c-1.8 0-3.3-1.6-3.3-3.5c0-1.9 1.5-3.4 3.3-3.4c1.4 0 2.6.9 2.9 2.3c0 0-4.1.8-4.1.8c.2 1.2.8 2.3 2.3 2.3c.3 0 1.2-.2 1.7-1zm-4.1-2.3c0 .2 0 .5 0 .7c0 0 1.1-.2 1.1-.2c.4-.1.5-.3.5-.6c0-.7-.6-1.6-1.2-1.6c-.5 0-.4 1.4-.4 1.7zm5.3 4.8c.01-.02-.6-2.8-.6-2.8c0 0 .28.02.3 0c.4 1.1 1.4 2.5 2.6 2.5c.7 0 1-.4 1-1.1c0-1.4-3.7-.8-3.7-3.7c0-1.2 1.1-1.8 2.2-1.8c1 0 1.4.5 2.4 0c-.05.02.4 2.5.4 2.5c0 0-.22 0-.2 0c-.6-1.2-1.7-2.2-2.6-2.2c-.6 0-1 .2-.9.8c.1 1.1 4.1.8 4.1 3.8c0 1.1-1.1 2-2.6 2c-1 0-1.3-.3-2.4 0zm9.5-1.8c0-1.8 2.9-2 3.7-2.3c0 0 0-1.2 0-1.2c0-.9-.4-1.3-1-1.3c-.6 0-.6.5-.6.6c0 .5.2.5.2 1.1c0 .5-.4.8-1.1.8c-.6 0-.9-.4-.9-1c0-.8 1.2-1.8 2.6-1.8c2.2 0 2.9 1 2.9 3c0 0 0 1.8 0 1.8c0 .8.1 1.2.8 1c0 0 0 .2 0 .2c-.2.5-1 .9-1.4.9c-.7 0-1.4-.4-1.4-1c-.6.7-1.4 1-1.9 1c-1.3 0-1.9-.6-1.9-1.8zm3.7 0c0 0 0-2 0-2c-.6.3-1.7.6-1.7 1.6c0 .7.4 1.2.9 1.2c.3 0 .8-.3.8-.8zm10.3-1.7c0 1.9-1.2 3.5-2.9 3.5c-.7 0-1.1-.2-1.5-.5c0 0 0 1.6 0 1.6c0 .9.5 1.3.6 1.3c0 .05 0 .2 0 .2l-3.3 0c0 0-.04-.14 0-.1c.1-.1.7-.6.7-1.4c0 0 0-6 0-6c0-1-.5-1.4-.7-1.4c0 .01 0-.2 0-.2l2.7-.5c0 0-.23 1.3-.2 1.3c.6-1.1 1.2-1.2 1.8-1.2c1.6 0 2.8 1.5 2.8 3.4zm-2.1.3c0-1.4-.4-3.1-1.4-3.1c-.2 0-.5.1-.9.7c0 0 0 4.3 0 4.3c.4.6.6.9 1.2.9c.8 0 1.1-1.1 1.1-2.8zm9.7-.3c0 1.9-1.3 3.5-2.9 3.5c-.7 0-1.1-.2-1.5-.5c0 0 0 1.6 0 1.6c0 .9.5 1.3.6 1.3c-.02.05 0 .2 0 .2l-3.4 0c0 0 .04-.14 0-.1c.2-.1.7-.6.7-1.4c0 0 0-6 0-6c0-1-.4-1.4-.6-1.4c-.02.01 0-.2 0-.2l2.7-.5c0 0-.25 1.3-.3 1.3c.7-1.1 1.3-1.2 1.9-1.2c1.6 0 2.8 1.5 2.8 3.4zm-2.2.3c0-1.4-.3-3.1-1.3-3.1c-.3 0-.6.1-.9.7c0 0 0 4.3 0 4.3c.3.6.6.9 1.2.9c.8 0 1-1.1 1-2.8zm8.2-2.6c0 .6-.5 1-1 1c-1 0-.8-.9-1.2-.9c-.2 0-.4.2-.5.5c0 0 0 3.4 0 3.4c0 1 .5 1.3.6 1.4c-.01-.02 0 .2 0 .2l-3.3 0c0 0-.01-.2 0-.2c.1-.1.7-.5.7-1.4c0 0 0-3.1 0-3.1c0-.9-.5-1.2-.7-1.4c-.01.04 0-.2 0-.2l2.7-.4c0 0-.24 1.54-.2 1.5c.3-.8.8-1.5 1.8-1.5c.6 0 1.1.4 1.1 1.1zm6.2 3.3c0 0 0 .3 0 .3c-.3 1.2-1.3 2.2-2.8 2.2c-1.8 0-3.3-1.6-3.3-3.5c0-1.9 1.5-3.4 3.3-3.4c1.4 0 2.6.9 2.9 2.3c0 0-4.1.8-4.1.8c.2 1.2.9 2.3 2.3 2.3c.4 0 1.2-.2 1.7-1zm-4.1-2.3c0 .2 0 .5 0 .7c0 0 1.1-.2 1.1-.2c.4-.1.5-.3.5-.6c0-.7-.6-1.6-1.1-1.6c-.6 0-.5 1.4-.5 1.7zm11.9 4.4c.04-.02 0 .2 0 .2l-3.3 0c0 0-.02-.22 0-.2c.2-.1.6-.5.6-1.4c0 0 0-2.6 0-2.6c0-1.5-.1-1.9-.8-1.9c-.4 0-.8.4-1 .8c0 0 0 3.7 0 3.7c0 1 .5 1.3.6 1.4c-.02-.02 0 .2 0 .2l-3.3 0c0 0-.02-.2 0-.2c.1-.1.6-.5.6-1.4c0 0 0-3.1 0-3.1c0-.9-.4-1.2-.6-1.4c-.02.04 0-.2 0-.2l2.7-.4c0 0-.21 1.33-.2 1.3c.4-.8 1-1.3 1.8-1.3c1.5 0 2.3 1 2.3 2.3c0 0 0 2.8 0 2.8c0 .9.5 1.3.6 1.4zm.5-1.4c0-1.8 2.9-2 3.7-2.3c0 0 0-1.2 0-1.2c0-.9-.4-1.3-1-1.3c-.6 0-.6.5-.6.6c0 .5.2.5.2 1.1c0 .5-.4.8-1 .8c-.6 0-1-.4-1-1c0-.8 1.2-1.8 2.6-1.8c2.2 0 2.9 1 2.9 3c0 0 0 1.8 0 1.8c0 .8.1 1.2.8 1c0 0 0 .2 0 .2c-.2.5-1 .9-1.4.9c-.7 0-1.4-.4-1.4-1c-.5.7-1.4 1-1.9 1c-1.3 0-1.9-.6-1.9-1.8zm3.7 0c0 0 0-2 0-2c-.5.3-1.6.6-1.6 1.6c0 .7.3 1.2.9 1.2c.3 0 .7-.3.7-.8zm10.6 1.4c0-.02 0 .2 0 .2l-3.3 0c0 0-.05-.22 0-.2c.1-.1.6-.5.6-1.4c0 0 0-2.6 0-2.6c0-1.5-.2-1.9-.8-1.9c-.4 0-.8.4-1 .8c0 0 0 3.7 0 3.7c0 1 .5 1.3.6 1.4c-.05-.02 0 .2 0 .2l-3.3 0c0 0-.05-.2 0-.2c.1-.1.6-.5.6-1.4c0 0 0-3.1 0-3.1c0-.9-.5-1.2-.6-1.4c-.05.04 0-.2 0-.2l2.7-.4c0 0-.24 1.33-.2 1.3c.3-.8.9-1.3 1.8-1.3c1.5 0 2.3 1 2.3 2.3c0 0 0 2.8 0 2.8c0 .9.4 1.3.6 1.4zm3.3-5.9c0 0-.01 4.11 0 4.1c0 1.9 1.2 1.3 1.3 1.3c0 0 0 .2 0 .2c-.2.1-.8.6-1.9.6c-.8 0-1.5-.5-1.5-1.9c.03.02 0-4.3 0-4.3l-.8 0c0 0-.03-.42 0-.4c.9-.4 2.2-1.6 2.7-2.7c-.03.05.2 0 .2 0c0 0-.01 2.68 0 2.7c.5 0 1-.1 1.5-.3c-.01.04-.1.7-.1.7l-1.4 0zm2.4 6.3c.02-.02-.6-2.8-.6-2.8c0 0 .3.02.3 0c.5 1.1 1.4 2.5 2.7 2.5c.6 0 1-.4 1-1.1c0-1.4-3.8-.8-3.8-3.7c0-1.2 1.1-1.8 2.2-1.8c1 0 1.4.5 2.4 0c-.03.02.5 2.5.5 2.5c0 0-.31 0-.3 0c-.6-1.2-1.7-2.2-2.6-2.2c-.6 0-1 .2-.9.8c.2 1.1 4.1.8 4.1 3.8c0 1.1-1.1 2-2.6 2c-1 0-1.3-.3-2.4 0zm16.5-3.5c0 1.9-1.2 3.5-2.9 3.5c-.6 0-1-.2-1.4-.5c0 0 0 1.6 0 1.6c0 .9.4 1.3.6 1.3c-.05.05 0 .2 0 .2l-3.4 0c0 0 .01-.14 0-.1c.2-.1.7-.6.7-1.4c0 0 0-6 0-6c0-1-.4-1.4-.7-1.4c.05.01 0-.2 0-.2l2.8-.5c0 0-.28 1.3-.3 1.3c.7-1.1 1.3-1.2 1.8-1.2c1.7 0 2.8 1.5 2.8 3.4zm-2.1.3c0-1.4-.4-3.1-1.3-3.1c-.3 0-.6.1-.9.7c0 0 0 4.3 0 4.3c.3.6.6.9 1.2.9c.8 0 1-1.1 1-2.8zm2.8-.3c0-1.8 1.6-3.4 3.5-3.4c2 0 3.6 1.6 3.6 3.4c0 1.9-1.6 3.5-3.6 3.5c-1.9 0-3.5-1.6-3.5-3.5zm4.9 1.3c0-1.6-.9-4.3-2-4.3c-.5 0-.7.7-.7 1.7c0 1.6.8 4.4 2 4.4c.5 0 .7-.7.7-1.8zm3.4-.8c0 0 0-2.1 0-2.1c0-.8-.5-1.1-.7-1.2c.04.04 0-.2 0-.2l2.8-.4c0 0-.04 3.9 0 3.9c0 1.1.3 1.8 1 1.8c.6 0 .9-.8.8-1.4c0 0 0-2.5 0-2.5c0-.9-.5-1.1-.7-1.2c.04.04 0-.2 0-.2l2.8-.4c0 0-.03 5.31 0 5.3c0 .9.5 1.1.6 1.2c-.01-.02 0 .2 0 .2l-2.7 0c0 0 .12-1.54.1-1.5c-.4 1.2-1.3 1.7-2.1 1.7c-1.5 0-1.9-1.3-1.9-3zm12.6-2.8c0 .6-.5 1-1 1c-1 0-.7-.9-1.2-.9c-.2 0-.3.2-.5.5c0 0 0 3.4 0 3.4c0 1 .5 1.3.6 1.4c.01-.02 0 .2 0 .2l-3.3 0c0 0 .01-.2 0-.2c.2-.1.7-.5.7-1.4c0 0 0-3.1 0-3.1c0-.9-.5-1.2-.7-1.4c.01.04 0-.2 0-.2l2.7-.4c0 0-.22 1.54-.2 1.5c.3-.8.8-1.5 1.8-1.5c.6 0 1.1.4 1.1 1.1zm4.9 5.8c.03-.02-.6-2.8-.6-2.8c0 0 .3.02.3 0c.5 1.1 1.4 2.5 2.7 2.5c.6 0 1-.4 1-1.1c0-1.4-3.8-.8-3.8-3.7c0-1.2 1.1-1.8 2.2-1.8c1 0 1.4.5 2.4 0c-.03.02.5 2.5.5 2.5c0 0-.3 0-.3 0c-.6-1.2-1.7-2.2-2.6-2.2c-.6 0-1 .2-.9.8c.2 1.1 4.1.8 4.1 3.8c0 1.1-1.1 2-2.6 2c-1 0-1.3-.3-2.4 0zm5.8-5.7c1-.5 1.5-1.5 1.6-2.2c0 0 0 0 0 0c-.2.3-.4.5-.7.5c-.4 0-1-.4-1-1.2c0-.7.5-1.1 1.1-1.1c.9 0 1.3.6 1.3 1.3c0 .6-.3 1.9-2.3 2.9c0 0 0-.2 0-.2zm3.4-3c0-.7.6-1.2 1.2-1.2c.7 0 1.2.5 1.2 1.2c0 .6-.5 1.1-1.2 1.1c-.6 0-1.2-.5-1.2-1.1zm-.4 8.3c.2-.1.6-.4.6-1.3c0 0 0-3.3 0-3.3c0-.9-.4-1.2-.6-1.3c-.04.03 0-.2 0-.2l2.7-.4c0 0-.01 5.18 0 5.2c0 .9.4 1.2.6 1.3c0-.02 0 .2 0 .2l-3.3 0c0 0-.04-.22 0-.2zm11.1 0c0-.02 0 .2 0 .2l-3.3 0c0 0-.05-.22 0-.2c.1-.1.6-.5.6-1.4c0 0 0-2.6 0-2.6c0-1.5-.2-1.9-.8-1.9c-.4 0-.8.4-1 .8c0 0 0 3.7 0 3.7c0 1 .5 1.3.6 1.4c-.05-.02 0 .2 0 .2l-3.3 0c0 0-.05-.2 0-.2c.1-.1.6-.5.6-1.4c0 0 0-3.1 0-3.1c0-.9-.5-1.2-.6-1.4c-.05.04 0-.2 0-.2l2.7-.4c0 0-.24 1.33-.2 1.3c.3-.8.9-1.3 1.8-1.3c1.5 0 2.3 1 2.3 2.3c0 0 0 2.8 0 2.8c0 .9.4 1.3.6 1.4zm3.3-5.9c0 0-.01 4.11 0 4.1c0 1.9 1.2 1.3 1.3 1.3c0 0 0 .2 0 .2c-.2.1-.8.6-1.9.6c-.8 0-1.5-.5-1.5-1.9c.03.02 0-4.3 0-4.3l-.8 0c0 0-.03-.42 0-.4c.9-.4 2.2-1.6 2.7-2.7c-.03.05.2 0 .2 0c0 0-.01 2.68 0 2.7c.5 0 1-.1 1.5-.3c-.01.04-.1.7-.1.7l-1.4 0zm3.7-1.3l-.3 0l.8-2l2.4 0l-2.9 2zm3.9 5.1c0 0 0 .3 0 .3c-.3 1.2-1.3 2.2-2.8 2.2c-1.8 0-3.3-1.6-3.3-3.5c0-1.9 1.5-3.4 3.3-3.4c1.4 0 2.6.9 2.9 2.3c0 0-4.1.8-4.1.8c.2 1.2.8 2.3 2.3 2.3c.3 0 1.2-.2 1.7-1zm-4.1-2.3c0 .2 0 .5 0 .7c0 0 1.1-.2 1.1-.2c.4-.1.5-.3.5-.6c0-.7-.6-1.6-1.2-1.6c-.5 0-.4 1.4-.4 1.7zm11.5 5.5c0 1.5-1.4 2.1-3.5 2.1c-2.4 0-3.4-.5-3.4-1.5c0-.4.4-.7.9-.9c-.5-.4-.7-.8-.7-1.4c0-.7.5-1.3 1-1.6c-.6-.4-.9-1.1-.9-1.8c0-1.5 1.4-2.5 2.9-2.5c.6 0 1.2.2 1.7.5c0 0 0-.1 0-.1c0-.7.6-1.2 1.3-1.2c.4 0 .7.4.7.8c0 .5-.3.9-.8.9c-.4 0-.5-.5-.7-.5c-.1 0-.2.1-.2.2c0 .2.9.7.9 1.9c0 1.4-1.4 2.5-2.9 2.5c-.7 0-1.3-.2-1.8-.5c0 .1-.1.3-.1.4c0 .6.4.8 1 .8c.5 0 1.7-.1 2.4-.1c1.1 0 2.2.4 2.2 2zm-4.5-6.4c0 1.1.5 3.4 1.2 3.4c.4 0 .4-.7.4-.9c0-.9-.5-3.3-1.3-3.3c-.3 0-.3.3-.3.8zm3.2 7c0-.6-.4-.7-1.1-.7c-.6 0-1.6.2-2.3.2c-.3 0-.5-.1-.8-.1c-.1.1-.1.4-.1.5c0 .9.9 1.3 2 1.3c1.3 0 2.3-.5 2.3-1.2zm7.2-7.1c0 .6-.4 1-1 1c-.9 0-.7-.9-1.1-.9c-.2 0-.4.2-.5.5c0 0 0 3.4 0 3.4c0 1 .5 1.3.6 1.4c-.04-.02 0 .2 0 .2l-3.3 0c0 0-.05-.2 0-.2c.1-.1.6-.5.6-1.4c0 0 0-3.1 0-3.1c0-.9-.5-1.2-.6-1.4c-.05.04 0-.2 0-.2l2.7-.4c0 0-.28 1.54-.3 1.5c.3-.8.9-1.5 1.8-1.5c.7 0 1.1.4 1.1 1.1zm6.2 3.3c0 0 0 .3 0 .3c-.3 1.2-1.3 2.2-2.8 2.2c-1.7 0-3.2-1.6-3.2-3.5c0-1.9 1.5-3.4 3.3-3.4c1.3 0 2.5.9 2.9 2.3c0 0-4.1.8-4.1.8c.2 1.2.8 2.3 2.3 2.3c.3 0 1.2-.2 1.6-1zm-4-2.3c0 .2 0 .5 0 .7c0 0 1.1-.2 1.1-.2c.3-.1.5-.3.5-.6c0-.7-.6-1.6-1.2-1.6c-.5 0-.4 1.4-.4 1.7zm10-1c0 .6-.4 1-1 1c-.9 0-.7-.9-1.1-.9c-.2 0-.4.2-.5.5c0 0 0 3.4 0 3.4c0 1 .5 1.3.5 1.4c.05-.02 0 .2 0 .2l-3.3 0c0 0 .05-.2 0-.2c.2-.1.7-.5.7-1.4c0 0 0-3.1 0-3.1c0-.9-.5-1.2-.7-1.4c.05.04 0-.2 0-.2l2.8-.4c0 0-.28 1.54-.3 1.5c.3-.8.9-1.5 1.8-1.5c.6 0 1.1.4 1.1 1.1zm4.5.1c0-.7.5-1.2 1.2-1.2c.6 0 1.2.5 1.2 1.2c0 .6-.6 1.2-1.2 1.2c-.7 0-1.2-.6-1.2-1.2zm.2 7.3c.9-.5 1.5-1.5 1.6-2.1c0 0-.1 0-.1 0c-.1.3-.3.5-.7.5c-.4 0-1-.4-1-1.2c0-.7.5-1.2 1.2-1.2c.9 0 1.2.7 1.2 1.4c0 .6-.3 1.9-2.2 2.9c0 0 0-.3 0-.3zm6.9-2c.2-.1.6-.5.6-1.3c0 0 0-6.4 0-6.4c0-.9-.4-1.3-.6-1.3c-.03-.05 0-.3 0-.3l2.7-.4c0 0 0 8.38 0 8.4c0 .9.5 1.2.6 1.3c.04-.02 0 .2 0 .2l-3.3 0c0 0-.03-.22 0-.2zm3.9-1.4c0-1.8 2.9-2 3.8-2.3c0 0 0-1.2 0-1.2c0-.9-.5-1.3-1.1-1.3c-.6 0-.6.5-.6.6c0 .5.3.5.3 1.1c0 .5-.5.8-1.1.8c-.6 0-1-.4-1-1c0-.8 1.2-1.8 2.6-1.8c2.2 0 2.9 1 2.9 3c0 0 0 1.8 0 1.8c0 .8.1 1.2.8 1c0 0 0 .2 0 .2c-.2.5-.9.9-1.4.9c-.7 0-1.4-.4-1.4-1c-.5.7-1.3 1-1.9 1c-1.3 0-1.9-.6-1.9-1.8zm3.8 0c0 0 0-2 0-2c-.6.3-1.7.6-1.7 1.6c0 .7.3 1.2.9 1.2c.3 0 .8-.3.8-.8zm9.9-4.5c0 0 0 4.11 0 4.1c0 1.9 1.2 1.3 1.3 1.3c0 0 0 .2 0 .2c-.2.1-.8.6-1.9.6c-.8 0-1.5-.5-1.5-1.9c.03.02 0-4.3 0-4.3l-.8 0c0 0-.02-.42 0-.4c.9-.4 2.2-1.6 2.7-2.7c-.02.05.2 0 .2 0c0 0 0 2.68 0 2.7c.5 0 1.1-.1 1.5-.3c0 .04-.1.7-.1.7l-1.4 0zm1.8 4.5c0-1.8 2.9-2 3.8-2.3c0 0 0-1.2 0-1.2c0-.9-.5-1.3-1-1.3c-.6 0-.6.5-.6.6c0 .5.2.5.2 1.1c0 .5-.4.8-1.1.8c-.6 0-.9-.4-.9-1c0-.8 1.1-1.8 2.5-1.8c2.2 0 2.9 1 2.9 3c0 0 0 1.8 0 1.8c0 .8.2 1.2.9 1c0 0 0 .2 0 .2c-.3.5-1 .9-1.5.9c-.7 0-1.4-.4-1.4-1c-.5.7-1.3 1-1.9 1c-1.2 0-1.9-.6-1.9-1.8zm3.8 0c0 0 0-2 0-2c-.6.3-1.7.6-1.7 1.6c0 .7.4 1.2.9 1.2c.3 0 .8-.3.8-.8zm3.8-6.9c0-.7.5-1.2 1.1-1.2c.7 0 1.2.5 1.2 1.2c0 .6-.5 1.1-1.2 1.1c-.6 0-1.1-.5-1.1-1.1zm-.5 8.3c.2-.1.6-.4.6-1.3c0 0 0-3.3 0-3.3c0-.9-.4-1.2-.6-1.3c-.01.03 0-.2 0-.2l2.7-.4c0 0 .02 5.18 0 5.2c0 .9.5 1.2.6 1.3c.03-.02 0 .2 0 .2l-3.3 0c0 0-.01-.22 0-.2zm3.9 0c.1-.1.6-.5.6-1.3c0 0 0-6.4 0-6.4c0-.9-.5-1.3-.6-1.3c-.05-.05 0-.3 0-.3l2.7-.4c0 0-.02 8.38 0 8.4c0 .9.4 1.2.6 1.3c.02-.02 0 .2 0 .2l-3.3 0c0 0-.05-.22 0-.2zm3.9 0c.2-.1.7-.5.7-1.3c0 0 0-6.4 0-6.4c0-.9-.5-1.3-.7-1.3c.04-.05 0-.3 0-.3l2.8-.4c0 0-.03 8.38 0 8.4c0 .9.4 1.2.6 1.3c.01-.02 0 .2 0 .2l-3.4 0c0 0 .04-.22 0-.2zm10.1-2.1c0 0 0 .3 0 .3c-.3 1.2-1.3 2.2-2.8 2.2c-1.8 0-3.3-1.6-3.3-3.5c0-1.9 1.5-3.4 3.3-3.4c1.4 0 2.6.9 2.9 2.3c0 0-4.1.8-4.1.8c.2 1.2.8 2.3 2.3 2.3c.4 0 1.2-.2 1.7-1zm-4.1-2.3c0 .2 0 .5 0 .7c0 0 1.1-.2 1.1-.2c.4-.1.5-.3.5-.6c0-.7-.6-1.6-1.1-1.6c-.6 0-.5 1.4-.5 1.7zm15.7 4.4c.03-.04 0 .2 0 .2l-2.6 0c0 0 .17-.82.2-.8c-.6.7-1.1 1-1.8 1c-1.8 0-2.9-1.6-2.9-3.5c0-1.8 1.3-3.4 3-3.4c.5 0 1 .2 1.4.5c0 0 0-1.7 0-1.7c0-.9-.5-1.3-.7-1.3c.04-.05 0-.3 0-.3l2.8-.4c0 0-.05 8.38 0 8.4c0 .8.4 1.2.6 1.3zm-2.7-.8c0 0 0-4.2 0-4.2c-.3-.7-.8-1.1-1.3-1.1c-1 0-1 1.3-1 2.4c0 1.8.4 3.5 1.4 3.5c.3 0 .6-.2.9-.6zm9.4-1.3c0 0 0 .3 0 .3c-.3 1.2-1.3 2.2-2.8 2.2c-1.8 0-3.3-1.6-3.3-3.5c0-1.9 1.5-3.4 3.3-3.4c1.4 0 2.6.9 2.9 2.3c0 0-4.1.8-4.1.8c.2 1.2.9 2.3 2.3 2.3c.4 0 1.2-.2 1.7-1zm-4.1-2.3c0 .2 0 .5.1.7c0 0 1-.2 1-.2c.4-.1.5-.3.5-.6c0-.7-.6-1.6-1.1-1.6c-.6 0-.5 1.4-.5 1.7zm5.3 4.8c.03-.02-.6-2.8-.6-2.8c0 0 .31.02.3 0c.5 1.1 1.4 2.5 2.7 2.5c.6 0 1-.4 1-1.1c0-1.4-3.8-.8-3.8-3.7c0-1.2 1.1-1.8 2.2-1.8c1 0 1.4.5 2.4 0c-.02.02.5 2.5.5 2.5c0 0-.3 0-.3 0c-.6-1.2-1.7-2.2-2.6-2.2c-.6 0-1 .2-.9.8c.2 1.1 4.1.8 4.1 3.8c0 1.1-1.1 2-2.6 2c-1 0-1.3-.3-2.4 0zm16.4.7c0 1.5-1.3 2.1-3.5 2.1c-2.4 0-3.4-.5-3.4-1.5c0-.4.4-.7.9-.9c-.4-.4-.7-.8-.7-1.4c0-.7.5-1.3 1-1.6c-.5-.4-.9-1.1-.9-1.8c0-1.5 1.4-2.5 2.9-2.5c.6 0 1.2.2 1.7.5c0 0 0-.1 0-.1c0-.7.6-1.2 1.3-1.2c.4 0 .8.4.8.8c0 .5-.3.9-.9.9c-.4 0-.5-.5-.7-.5c-.1 0-.2.1-.2.2c0 .2.9.7.9 1.9c0 1.4-1.3 2.5-2.9 2.5c-.7 0-1.2-.2-1.7-.5c-.1.1-.2.3-.2.4c0 .6.4.8 1 .8c.5 0 1.7-.1 2.4-.1c1.1 0 2.2.4 2.2 2zm-4.5-6.4c0 1.1.5 3.4 1.2 3.4c.4 0 .4-.7.4-.9c0-.9-.5-3.3-1.2-3.3c-.4 0-.4.3-.4.8zm3.2 7c0-.6-.4-.7-1.1-.7c-.6 0-1.6.2-2.3.2c-.3 0-.5-.1-.7-.1c-.2.1-.2.4-.2.5c0 .9.9 1.3 2.1 1.3c1.3 0 2.2-.5 2.2-1.2zm7.3-7.1c0 .6-.5 1-1 1c-1 0-.8-.9-1.2-.9c-.2 0-.4.2-.5.5c0 0 0 3.4 0 3.4c0 1 .5 1.3.6 1.4c-.03-.02 0 .2 0 .2l-3.3 0c0 0-.03-.2 0-.2c.1-.1.6-.5.6-1.4c0 0 0-3.1 0-3.1c0-.9-.4-1.2-.6-1.4c-.03.04 0-.2 0-.2l2.7-.4c0 0-.26 1.54-.3 1.5c.4-.8.9-1.5 1.8-1.5c.7 0 1.2.4 1.2 1.1zm.1 2.3c0-1.8 1.6-3.4 3.5-3.4c2 0 3.5 1.6 3.5 3.4c0 1.9-1.5 3.5-3.5 3.5c-1.9 0-3.5-1.6-3.5-3.5zm4.8 1.3c0-1.6-.8-4.3-2-4.3c-.4 0-.6.7-.6 1.7c0 1.6.8 4.4 1.9 4.4c.5 0 .7-.7.7-1.8zm3.4-.8c0 0 0-2.1 0-2.1c0-.8-.5-1.1-.6-1.2c0 .04 0-.2 0-.2l2.7-.4c0 0 .02 3.9 0 3.9c0 1.1.4 1.8 1 1.8c.7 0 .9-.8.8-1.4c0 0 0-2.5 0-2.5c0-.9-.4-1.1-.6-1.2c0 .04 0-.2 0-.2l2.7-.4c0 0 .03 5.31 0 5.3c0 .9.5 1.1.7 1.2c-.05-.02 0 .2 0 .2l-2.7 0c0 0 .08-1.54.1-1.5c-.4 1.2-1.3 1.7-2.1 1.7c-1.6 0-2-1.3-2-3zm14.2-.5c0 1.9-1.2 3.5-2.9 3.5c-.6 0-1-.2-1.4-.5c0 0 0 1.6 0 1.6c0 .9.4 1.3.5 1.3c.04.05 0 .2 0 .2l-3.3 0c0 0 0-.14 0-.1c.2-.1.7-.6.7-1.4c0 0 0-6 0-6c0-1-.4-1.4-.7-1.4c.04.01 0-.2 0-.2l2.7-.5c0 0-.19 1.3-.2 1.3c.6-1.1 1.3-1.2 1.8-1.2c1.7 0 2.8 1.5 2.8 3.4zm-2.1.3c0-1.4-.4-3.1-1.3-3.1c-.3 0-.6.1-.9.7c0 0 0 4.3 0 4.3c.3.6.5.9 1.2.9c.8 0 1-1.1 1-2.8zm8.9.7c0 0 0 .3 0 .3c-.3 1.2-1.3 2.2-2.8 2.2c-1.8 0-3.3-1.6-3.3-3.5c0-1.9 1.5-3.4 3.3-3.4c1.4 0 2.6.9 2.9 2.3c0 0-4.1.8-4.1.8c.2 1.2.9 2.3 2.3 2.3c.4 0 1.2-.2 1.7-1zm-4.1-2.3c0 .2 0 .5.1.7c0 0 1-.2 1-.2c.4-.1.5-.3.5-.6c0-.7-.6-1.6-1.1-1.6c-.6 0-.5 1.4-.5 1.7zm5.3 4.8c.03-.02-.6-2.8-.6-2.8c0 0 .3.02.3 0c.5 1.1 1.4 2.5 2.7 2.5c.6 0 1-.4 1-1.1c0-1.4-3.8-.8-3.8-3.7c0-1.2 1.1-1.8 2.2-1.8c1 0 1.4.5 2.4 0c-.02.02.5 2.5.5 2.5c0 0-.3 0-.3 0c-.6-1.2-1.7-2.2-2.6-2.2c-.6 0-1 .2-.9.8c.2 1.1 4.1.8 4.1 3.8c0 1.1-1.1 2-2.6 2c-1 0-1.3-.3-2.4 0zm9.6-5.7c0-.7.5-1.2 1.2-1.2c.7 0 1.2.5 1.2 1.2c0 .6-.5 1.2-1.2 1.2c-.7 0-1.2-.6-1.2-1.2zm.2 7.3c.9-.5 1.5-1.5 1.6-2.1c0 0-.1 0-.1 0c-.1.3-.3.5-.7.5c-.4 0-1-.4-1-1.2c0-.7.5-1.2 1.2-1.2c.9 0 1.3.7 1.3 1.4c0 .6-.4 1.9-2.3 2.9c0 0 0-.3 0-.3z" stroke="none" fill="#144542"/></g><g id="Polygon171148"><path d="m8 3c0 1.6-1.6 2.6-3.4 2.6c0 .04-1.3 0-1.3 0c0 0 .04 2.6 0 2.6c0 .9.5 1.2.7 1.3c-.03-.02 0 .2 0 .2l-3.6 0c0 0 0-.22 0-.2c.2-.1.7-.5.7-1.3c0 0 0-6.3 0-6.3c0-1-.5-1.3-.7-1.4c0 .05 0-.2 0-.2c0 0 3.68.02 3.7 0c2.5 0 3.9 1 3.9 2.7zm-2.3 0c0-1.4-1.1-2.4-2.1-2.4c0 0-.3 0-.3 0c0 0 .04 4.63 0 4.6c.2.1.3.2.8.2c1.1 0 1.6-1 1.6-2.4zm2.1 3.4c0-1.8 1.5-3.4 3.5-3.4c1.9 0 3.5 1.6 3.5 3.4c0 1.9-1.6 3.5-3.5 3.5c-2 0-3.5-1.6-3.5-3.5zm4.8 1.3c0-1.6-.8-4.3-2-4.3c-.4 0-.6.7-.6 1.7c0 1.6.8 4.4 1.9 4.4c.5 0 .7-.7.7-1.8zm3.4-.8c0 0 0-2.1 0-2.1c0-.8-.5-1.1-.6-1.2c-.01.04 0-.2 0-.2l2.7-.4c0 0 .01 3.9 0 3.9c0 1.1.3 1.8 1 1.8c.6 0 .9-.8.8-1.4c0 0 0-2.5 0-2.5c0-.9-.4-1.1-.6-1.2c-.01.04 0-.2 0-.2l2.7-.4c0 0 .02 5.31 0 5.3c0 .9.5 1.1.6 1.2c.05-.02 0 .2 0 .2l-2.7 0c0 0 .17-1.54.2-1.5c-.4 1.2-1.3 1.7-2.1 1.7c-1.6 0-2-1.3-2-3zm12.7-2.8c0 .6-.5 1-1 1c-1 0-.8-.9-1.2-.9c-.2 0-.4.2-.5.5c0 0 0 3.4 0 3.4c0 1 .5 1.3.6 1.4c-.04-.02 0 .2 0 .2l-3.3 0c0 0-.04-.2 0-.2c.1-.1.6-.5.6-1.4c0 0 0-3.1 0-3.1c0-.9-.4-1.2-.6-1.4c-.04.04 0-.2 0-.2l2.7-.4c0 0-.27 1.54-.3 1.5c.3-.8.9-1.5 1.8-1.5c.7 0 1.2.4 1.2 1.1zm15.5 5.4c.03-.02 0 .2 0 .2l-3.3 0c0 0-.02-.22 0-.2c.2-.1.6-.5.6-1.4c0 0 0-2.6 0-2.6c0-1.5-.1-1.9-.8-1.9c-.4 0-.8.4-1 .9c0 0 0 3.6 0 3.6c0 .9.5 1.3.6 1.4c.03-.02 0 .2 0 .2l-3.3 0c0 0-.03-.22 0-.2c.2-.1.6-.5.6-1.4c0 0 0-2.6 0-2.6c0-1.5-.2-1.9-.8-1.9c-.4 0-.8.4-1 .8c0 0 0 3.7 0 3.7c0 1 .5 1.3.6 1.4c-.03-.02 0 .2 0 .2l-3.3 0c0 0-.03-.2 0-.2c.1-.1.6-.5.6-1.4c0 0 0-3.1 0-3.1c0-.9-.4-1.2-.6-1.4c-.03.04 0-.2 0-.2l2.7-.4c0 0-.22 1.33-.2 1.3c.3-.8.9-1.3 1.8-1.3c1.1 0 1.8.5 2.1 1.3c.4-.8 1-1.3 1.8-1.3c1.5 0 2.3 1 2.3 2.3c0 0 0 2.8 0 2.8c0 .9.5 1.3.6 1.4zm.5-3.1c0-1.8 1.6-3.4 3.5-3.4c2 0 3.6 1.6 3.6 3.4c0 1.9-1.6 3.5-3.6 3.5c-1.9 0-3.5-1.6-3.5-3.5zm4.9 1.3c0-1.6-.9-4.3-2-4.3c-.5 0-.7.7-.7 1.7c0 1.6.8 4.4 2 4.4c.4 0 .7-.7.7-1.8zm3.3-6.5c0-.7.5-1.2 1.2-1.2c.6 0 1.1.5 1.1 1.2c0 .6-.5 1.1-1.1 1.1c-.7 0-1.2-.5-1.2-1.1zm-.5 8.3c.2-.1.7-.4.7-1.3c0 0 0-3.3 0-3.3c0-.9-.5-1.2-.7-1.3c0 .03 0-.2 0-.2l2.7-.4c0 0 .03 5.18 0 5.2c0 .9.5 1.2.6 1.3c.04-.02 0 .2 0 .2l-3.3 0c0 0 0-.22 0-.2zm4.1 2c.9-.5 1.5-1.5 1.6-2.1c0 0-.1 0-.1 0c-.1.3-.3.5-.7.5c-.4 0-.9-.4-.9-1.2c0-.7.4-1.2 1.1-1.2c.9 0 1.3.7 1.3 1.4c0 .6-.4 1.9-2.3 2.9c0 0 0-.3 0-.3zm9.6-7.9c0 0-.01 4.11 0 4.1c0 1.9 1.2 1.3 1.3 1.3c0 0 0 .2 0 .2c-.2.1-.8.6-1.9.6c-.8 0-1.5-.5-1.5-1.9c.02.02 0-4.3 0-4.3l-.8 0c0 0-.03-.42 0-.4c.9-.4 2.2-1.6 2.7-2.7c-.03.05.2 0 .2 0c0 0-.01 2.68 0 2.7c.5 0 1-.1 1.5-.3c-.01.04-.1.7-.1.7l-1.4 0zm7.3.5c0 .6-.5 1-1 1c-1 0-.7-.9-1.2-.9c-.1 0-.3.2-.5.5c0 0 0 3.4 0 3.4c0 1 .5 1.3.6 1.4c.02-.02 0 .2 0 .2l-3.3 0c0 0 .02-.2 0-.2c.2-.1.7-.5.7-1.4c0 0 0-3.1 0-3.1c0-.9-.5-1.2-.7-1.4c.02.04 0-.2 0-.2l2.8-.4c0 0-.31 1.54-.3 1.5c.3-.8.8-1.5 1.8-1.5c.6 0 1.1.4 1.1 1.1zm.1 2.3c0-1.8 1.6-3.4 3.6-3.4c1.9 0 3.5 1.6 3.5 3.4c0 1.9-1.6 3.5-3.5 3.5c-2 0-3.6-1.6-3.6-3.5zm4.9 1.3c0-1.6-.9-4.3-2-4.3c-.5 0-.7.7-.7 1.7c0 1.6.8 4.4 2 4.4c.5 0 .7-.7.7-1.8zm3.3-6.5c0-.7.5-1.2 1.2-1.2c.6 0 1.1.5 1.1 1.2c0 .6-.5 1.1-1.1 1.1c-.7 0-1.2-.5-1.2-1.1zm-.5 8.3c.2-.1.7-.4.7-1.3c0 0 0-3.3 0-3.3c0-.9-.5-1.2-.7-1.3c.01.03 0-.2 0-.2l2.7-.4c0 0 .04 5.18 0 5.2c0 .9.5 1.2.7 1.3c-.05-.02 0 .2 0 .2l-3.4 0c0 0 .01-.22 0-.2zm4.4.4c0-.02-.6-2.8-.6-2.8c0 0 .28.02.3 0c.4 1.1 1.4 2.5 2.6 2.5c.7 0 1-.4 1-1.1c0-1.4-3.7-.8-3.7-3.7c0-1.2 1.1-1.8 2.2-1.8c1 0 1.4.5 2.4 0c-.05.02.4 2.5.4 2.5c0 0-.23 0-.2 0c-.6-1.2-1.7-2.2-2.6-2.2c-.6 0-1 .2-.9.8c.1 1.1 4.1.8 4.1 3.8c0 1.1-1.1 2-2.6 2c-1 0-1.3-.3-2.4 0zm11.7-7.6l-.3 0l.8-2l2.4 0l-2.9 2zm3.9 5.1c0 0 0 .3 0 .3c-.3 1.2-1.3 2.2-2.8 2.2c-1.8 0-3.3-1.6-3.3-3.5c0-1.9 1.5-3.4 3.3-3.4c1.4 0 2.6.9 2.9 2.3c0 0-4.1.8-4.1.8c.2 1.2.8 2.3 2.3 2.3c.4 0 1.2-.2 1.7-1zm-4.1-2.3c0 .2 0 .5 0 .7c0 0 1.1-.2 1.1-.2c.4-.1.5-.3.5-.6c0-.7-.6-1.6-1.1-1.6c-.6 0-.5 1.4-.5 1.7zm4.7 4.4c.1-.1.6-.5.6-1.3c0 0 0-6.4 0-6.4c0-.9-.5-1.3-.6-1.3c-.05-.05 0-.3 0-.3l2.7-.4c0 0-.02 8.38 0 8.4c0 .9.4 1.2.6 1.3c.02-.02 0 .2 0 .2l-3.3 0c0 0-.05-.22 0-.2zm6.1-7.2l-.3 0l.8-2l2.4 0l-2.9 2zm3.9 5.1c0 0 0 .3 0 .3c-.3 1.2-1.3 2.2-2.8 2.2c-1.8 0-3.3-1.6-3.3-3.5c0-1.9 1.5-3.4 3.3-3.4c1.4 0 2.6.9 2.9 2.3c0 0-4.1.8-4.1.8c.2 1.2.9 2.3 2.3 2.3c.4 0 1.2-.2 1.7-1zm-4.1-2.3c0 .2 0 .5 0 .7c0 0 1.1-.2 1.1-.2c.4-.1.5-.3.5-.6c0-.7-.6-1.6-1.1-1.6c-.6 0-.5 1.4-.5 1.7zm15.8 4.4c.04-.02 0 .2 0 .2l-3.3 0c0 0 0-.22 0-.2c.2-.1.6-.5.6-1.4c0 0 0-2.6 0-2.6c0-1.5-.1-1.9-.7-1.9c-.5 0-.9.4-1.1.9c0 0 0 3.6 0 3.6c0 .9.5 1.3.6 1.4c.04-.02 0 .2 0 .2l-3.3 0c0 0-.02-.22 0-.2c.2-.1.6-.5.6-1.4c0 0 0-2.6 0-2.6c0-1.5-.1-1.9-.8-1.9c-.4 0-.8.4-1 .8c0 0 0 3.7 0 3.7c0 1 .5 1.3.6 1.4c-.01-.02 0 .2 0 .2l-3.3 0c0 0-.02-.2 0-.2c.1-.1.6-.5.6-1.4c0 0 0-3.1 0-3.1c0-.9-.4-1.2-.6-1.4c-.02.04 0-.2 0-.2l2.7-.4c0 0-.21 1.33-.2 1.3c.4-.8 1-1.3 1.8-1.3c1.1 0 1.8.5 2.1 1.3c.4-.8 1-1.3 1.9-1.3c1.4 0 2.2 1 2.2 2.3c0 0 0 2.8 0 2.8c0 .9.5 1.3.6 1.4zm6.6-2.1c0 0 0 .3 0 .3c-.3 1.2-1.3 2.2-2.8 2.2c-1.7 0-3.3-1.6-3.3-3.5c0-1.9 1.6-3.4 3.3-3.4c1.4 0 2.6.9 2.9 2.3c0 0-4.1.8-4.1.8c.2 1.2.9 2.3 2.3 2.3c.4 0 1.2-.2 1.7-1zm-4.1-2.3c0 .2 0 .5.1.7c0 0 1-.2 1-.2c.4-.1.6-.3.6-.6c0-.7-.6-1.6-1.2-1.6c-.6 0-.5 1.4-.5 1.7zm12 4.4c-.03-.02 0 .2 0 .2l-3.4 0c0 0 .01-.22 0-.2c.2-.1.7-.5.7-1.4c0 0 0-2.6 0-2.6c0-1.5-.2-1.9-.8-1.9c-.5 0-.8.4-1.1.8c0 0 0 3.7 0 3.7c0 1 .5 1.3.6 1.4c.02-.02 0 .2 0 .2l-3.3 0c0 0 .01-.2 0-.2c.2-.1.7-.5.7-1.4c0 0 0-3.1 0-3.1c0-.9-.5-1.2-.7-1.4c.01.04 0-.2 0-.2l2.8-.4c0 0-.28 1.33-.3 1.3c.4-.8 1-1.3 1.9-1.3c1.5 0 2.2 1 2.2 2.3c0 0 0 2.8 0 2.8c0 .9.5 1.3.7 1.4zm3.3-5.9c0 0-.04 4.11 0 4.1c0 1.9 1.2 1.3 1.2 1.3c0 0 0 .2 0 .2c-.1.1-.7.6-1.8.6c-.8 0-1.5-.5-1.5-1.9c-.01.02 0-4.3 0-4.3l-.9 0c0 0 .03-.42 0-.4c.9-.4 2.3-1.6 2.7-2.7c.04.05.3 0 .3 0c0 0-.04 2.68 0 2.7c.4 0 1-.1 1.5-.3c-.05.04-.1.7-.1.7l-1.4 0zm2.4 6.3c-.01-.02-.6-2.8-.6-2.8c0 0 .26.02.3 0c.4 1.1 1.4 2.5 2.6 2.5c.7 0 1-.4 1-1.1c0-1.4-3.7-.8-3.7-3.7c0-1.2 1.1-1.8 2.2-1.8c1 0 1.3.5 2.3 0c.03.02.5 2.5.5 2.5c0 0-.24 0-.2 0c-.6-1.2-1.7-2.2-2.7-2.2c-.5 0-.9.2-.9.8c.2 1.1 4.1.8 4.1 3.8c0 1.1-1.1 2-2.5 2c-1 0-1.3-.3-2.4 0zm9.5-3.4c0-1.8 1.4-3.5 3.6-3.5c1.2 0 2.5.9 2.5 2c0 .7-.6 1.1-1.1 1.1c-.4 0-1-.3-1-.9c0-.5.4-.6.4-1c0-.4-.6-.9-1.1-.9c-1.1 0-1.5.8-1.5 2c0 1.8 1 3.1 2.5 3.1c.6 0 1.4-.2 1.8-1c0 0 0 .5 0 .5c-.5 1.5-1.8 2-2.8 2c-1.8 0-3.3-1.6-3.3-3.4zm6.5 1.6c0-1.8 3-2 3.8-2.3c0 0 0-1.2 0-1.2c0-.9-.5-1.3-1-1.3c-.6 0-.6.5-.6.6c0 .5.2.5.2 1.1c0 .5-.4.8-1.1.8c-.6 0-.9-.4-.9-1c0-.8 1.1-1.8 2.5-1.8c2.2 0 2.9 1 2.9 3c0 0 0 1.8 0 1.8c0 .8.2 1.2.9 1c0 0 0 .2 0 .2c-.3.5-1 .9-1.4.9c-.8 0-1.4-.4-1.5-1c-.5.7-1.3 1-1.9 1c-1.2 0-1.9-.6-1.9-1.8zm3.8 0c0 0 0-2 0-2c-.6.3-1.7.6-1.7 1.6c0 .7.4 1.2.9 1.2c.3 0 .8-.3.8-.8zm8.7-4c0 .6-.5 1-1 1c-1 0-.7-.9-1.2-.9c-.2 0-.3.2-.5.5c0 0 0 3.4 0 3.4c0 1 .5 1.3.6 1.4c0-.02 0 .2 0 .2l-3.3 0c0 0 0-.2 0-.2c.2-.1.7-.5.7-1.4c0 0 0-3.1 0-3.1c0-.9-.5-1.2-.7-1.4c0 .04 0-.2 0-.2l2.7-.4c0 0-.23 1.54-.2 1.5c.3-.8.8-1.5 1.8-1.5c.6 0 1.1.4 1.1 1.1zm.3 4c0-1.8 3-2 3.8-2.3c0 0 0-1.2 0-1.2c0-.9-.5-1.3-1-1.3c-.6 0-.6.5-.6.6c0 .5.2.5.2 1.1c0 .5-.4.8-1.1.8c-.6 0-.9-.4-.9-1c0-.8 1.1-1.8 2.5-1.8c2.2 0 2.9 1 2.9 3c0 0 0 1.8 0 1.8c0 .8.2 1.2.9 1c0 0 0 .2 0 .2c-.3.5-1 .9-1.4.9c-.8 0-1.4-.4-1.5-1c-.5.7-1.3 1-1.9 1c-1.2 0-1.9-.6-1.9-1.8zm3.8 0c0 0 0-2 0-2c-.6.3-1.7.6-1.7 1.6c0 .7.4 1.2.9 1.2c.3 0 .8-.3.8-.8zm3.2-1.6c0-1.8 1.5-3.5 3.6-3.5c1.3 0 2.5.9 2.5 2c0 .7-.5 1.1-1 1.1c-.5 0-1-.3-1-.9c0-.5.3-.6.3-1c0-.4-.5-.9-1.1-.9c-1 0-1.5.8-1.5 2c0 1.8 1.1 3.1 2.5 3.1c.6 0 1.4-.2 1.9-1c0 0 0 .5 0 .5c-.6 1.5-1.8 2-2.9 2c-1.7 0-3.3-1.6-3.3-3.4zm9.4-2.9c0 0-.04 4.11 0 4.1c0 1.9 1.2 1.3 1.2 1.3c0 0 0 .2 0 .2c-.1.1-.7.6-1.8.6c-.8 0-1.5-.5-1.5-1.9c-.01.02 0-4.3 0-4.3l-.9 0c0 0 .04-.42 0-.4c.9-.4 2.3-1.6 2.7-2.7c.04.05.3 0 .3 0c0 0-.04 2.68 0 2.7c.4 0 1-.1 1.5-.3c-.04.04-.1.7-.1.7l-1.4 0zm3.6-1.3l-.3 0l.8-2l2.5 0l-3 2zm3.9 5.1c0 0 0 .3 0 .3c-.3 1.2-1.3 2.2-2.8 2.2c-1.7 0-3.2-1.6-3.2-3.5c0-1.9 1.5-3.4 3.2-3.4c1.4 0 2.6.9 3 2.3c0 0-4.2.8-4.2.8c.3 1.2.9 2.3 2.4 2.3c.3 0 1.2-.2 1.6-1zm-4.1-2.3c0 .2.1.5.1.7c0 0 1.1-.2 1.1-.2c.3-.1.5-.3.5-.6c0-.7-.6-1.6-1.2-1.6c-.6 0-.5 1.4-.5 1.7zm10.1-1c0 .6-.4 1-1 1c-.9 0-.7-.9-1.2-.9c-.1 0-.3.2-.4.5c0 0 0 3.4 0 3.4c0 1 .5 1.3.5 1.4c.04-.02 0 .2 0 .2l-3.3 0c0 0 .04-.2 0-.2c.2-.1.7-.5.7-1.4c0 0 0-3.1 0-3.1c0-.9-.5-1.2-.7-1.4c.04.04 0-.2 0-.2l2.8-.4c0 0-.29 1.54-.3 1.5c.3-.8.9-1.5 1.8-1.5c.6 0 1.1.4 1.1 1.1zm.9-2.9c0-.7.6-1.2 1.2-1.2c.7 0 1.2.5 1.2 1.2c0 .6-.5 1.1-1.2 1.1c-.6 0-1.2-.5-1.2-1.1zm-.4 8.3c.2-.1.6-.4.6-1.3c0 0 0-3.3 0-3.3c0-.9-.4-1.2-.6-1.3c-.02.03 0-.2 0-.2l2.7-.4c0 0 .01 5.18 0 5.2c0 .9.4 1.2.6 1.3c.02-.02 0 .2 0 .2l-3.3 0c0 0-.02-.22 0-.2zm4.4.4c-.03-.02-.6-2.8-.6-2.8c0 0 .24.02.2 0c.5 1.1 1.5 2.5 2.7 2.5c.7 0 1-.4 1-1.1c0-1.4-3.7-.8-3.7-3.7c0-1.2 1-1.8 2.2-1.8c.9 0 1.3.5 2.3 0c.02.02.5 2.5.5 2.5c0 0-.26 0-.3 0c-.5-1.2-1.6-2.2-2.6-2.2c-.6 0-1 .2-.9.8c.2 1.1 4.1.8 4.1 3.8c0 1.1-1.1 2-2.6 2c-1 0-1.3-.3-2.3 0zm11.6-2.5c0 0 0 .3 0 .3c-.3 1.2-1.3 2.2-2.8 2.2c-1.8 0-3.3-1.6-3.3-3.5c0-1.9 1.5-3.4 3.3-3.4c1.4 0 2.6.9 2.9 2.3c0 0-4.1.8-4.1.8c.2 1.2.8 2.3 2.3 2.3c.3 0 1.2-.2 1.7-1zm-4.1-2.3c0 .2 0 .5 0 .7c0 0 1.1-.2 1.1-.2c.4-.1.5-.3.5-.6c0-.7-.6-1.6-1.2-1.6c-.5 0-.4 1.4-.4 1.7zm11.9 4.4c.02-.02 0 .2 0 .2l-3.3 0c0 0-.04-.22 0-.2c.2-.1.6-.5.6-1.4c0 0 0-2.6 0-2.6c0-1.5-.2-1.9-.8-1.9c-.4 0-.8.4-1 .8c0 0 0 3.7 0 3.7c0 1 .5 1.3.6 1.4c-.04-.02 0 .2 0 .2l-3.3 0c0 0-.04-.2 0-.2c.1-.1.6-.5.6-1.4c0 0 0-3.1 0-3.1c0-.9-.4-1.2-.6-1.4c-.04.04 0-.2 0-.2l2.7-.4c0 0-.23 1.33-.2 1.3c.3-.8.9-1.3 1.8-1.3c1.5 0 2.3 1 2.3 2.3c0 0 0 2.8 0 2.8c0 .9.5 1.3.6 1.4zm3.3-5.9c0 0 .01 4.11 0 4.1c0 1.9 1.2 1.3 1.3 1.3c0 0 0 .2 0 .2c-.2.1-.8.6-1.9.6c-.8 0-1.5-.5-1.5-1.9c.04.02 0-4.3 0-4.3l-.8 0c0 0-.02-.42 0-.4c.9-.4 2.2-1.6 2.7-2.7c-.02.05.2 0 .2 0c0 0 .01 2.68 0 2.7c.5 0 1.1-.1 1.5-.3c0 .04-.1.7-.1.7l-1.4 0zm5.9 5.9c.2-.1.6-.5.6-1.3c0 0 0-6.4 0-6.4c0-.9-.4-1.3-.6-1.3c-.02-.05 0-.3 0-.3l2.7-.4c0 0 .01 8.38 0 8.4c0 .9.5 1.2.6 1.3c.05-.02 0 .2 0 .2l-3.3 0c0 0-.02-.22 0-.2zm10-2.1c0 0 0 .3 0 .3c-.3 1.2-1.3 2.2-2.8 2.2c-1.7 0-3.3-1.6-3.3-3.5c0-1.9 1.6-3.4 3.3-3.4c1.4 0 2.6.9 2.9 2.3c0 0-4.1.8-4.1.8c.2 1.2.9 2.3 2.3 2.3c.4 0 1.2-.2 1.7-1zm-4.1-2.3c0 .2 0 .5.1.7c0 0 1-.2 1-.2c.4-.1.6-.3.6-.6c0-.7-.6-1.6-1.2-1.6c-.6 0-.5 1.4-.5 1.7zm8.6 1.4c0-1.8 1.5-3.5 3.6-3.5c1.3 0 2.5.9 2.5 2c0 .7-.5 1.1-1 1.1c-.5 0-1-.3-1-.9c0-.5.3-.6.3-1c0-.4-.5-.9-1.1-.9c-1.1 0-1.5.8-1.5 2c0 1.8 1 3.1 2.5 3.1c.6 0 1.4-.2 1.8-1c0 0 0 .5 0 .5c-.5 1.5-1.7 2-2.8 2c-1.7 0-3.3-1.6-3.3-3.4zm6.6 1.6c0-1.8 2.9-2 3.8-2.3c0 0 0-1.2 0-1.2c0-.9-.5-1.3-1.1-1.3c-.6 0-.6.5-.6.6c0 .5.2.5.2 1.1c0 .5-.4.8-1 .8c-.6 0-1-.4-1-1c0-.8 1.2-1.8 2.6-1.8c2.2 0 2.9 1 2.9 3c0 0 0 1.8 0 1.8c0 .8.1 1.2.8 1c0 0 0 .2 0 .2c-.2.5-1 .9-1.4.9c-.7 0-1.4-.4-1.4-1c-.5.7-1.3 1-1.9 1c-1.3 0-1.9-.6-1.9-1.8zm3.8 0c0 0 0-2 0-2c-.6.3-1.7.6-1.7 1.6c0 .7.3 1.2.9 1.2c.3 0 .8-.3.8-.8zm10.3 1.4c.02-.04 0 .2 0 .2l-2.6 0c0 0 .17-.82.2-.8c-.6.7-1.1 1-1.8 1c-1.8 0-2.9-1.6-2.9-3.5c0-1.8 1.2-3.4 3-3.4c.5 0 1 .2 1.4.5c0 0 0-1.7 0-1.7c0-.9-.5-1.3-.7-1.3c.03-.05 0-.3 0-.3l2.7-.4c0 0 .05 8.38 0 8.4c0 .8.5 1.2.7 1.3zm-2.7-.8c0 0 0-4.2 0-4.2c-.3-.7-.8-1.1-1.3-1.1c-1 0-1 1.3-1 2.4c0 1.8.4 3.5 1.4 3.5c.3 0 .6-.2.9-.6zm8.8-4.6c0 .6-.5 1-1 1c-1 0-.8-.9-1.2-.9c-.2 0-.4.2-.5.5c0 0 0 3.4 0 3.4c0 1 .5 1.3.6 1.4c-.02-.02 0 .2 0 .2l-3.3 0c0 0-.03-.2 0-.2c.1-.1.6-.5.6-1.4c0 0 0-3.1 0-3.1c0-.9-.4-1.2-.6-1.4c-.03.04 0-.2 0-.2l2.7-.4c0 0-.26 1.54-.3 1.5c.4-.8.9-1.5 1.9-1.5c.6 0 1.1.4 1.1 1.1zm6.2 3.3c0 0 0 .3 0 .3c-.3 1.2-1.3 2.2-2.8 2.2c-1.8 0-3.3-1.6-3.3-3.5c0-1.9 1.5-3.4 3.3-3.4c1.4 0 2.6.9 2.9 2.3c0 0-4.1.8-4.1.8c.2 1.2.8 2.3 2.3 2.3c.3 0 1.2-.2 1.7-1zm-4.1-2.3c0 .2 0 .5 0 .7c0 0 1.1-.2 1.1-.2c.4-.1.5-.3.5-.6c0-.7-.6-1.6-1.2-1.6c-.5 0-.4 1.4-.4 1.7zm15.6 1.3c0 1.9-1.2 3.5-2.9 3.5c-.6 0-1.1-.2-1.5-.5c0 0 0 1.6 0 1.6c0 .9.5 1.3.6 1.3c.02.05 0 .2 0 .2l-3.3 0c0 0-.02-.14 0-.1c.1-.1.7-.6.7-1.4c0 0 0-6 0-6c0-1-.4-1.4-.7-1.4c.02.01 0-.2 0-.2l2.7-.5c0 0-.21 1.3-.2 1.3c.6-1.1 1.2-1.2 1.8-1.2c1.6 0 2.8 1.5 2.8 3.4zm-2.1.3c0-1.4-.4-3.1-1.4-3.1c-.2 0-.5.1-.9.7c0 0 0 4.3 0 4.3c.4.6.6.9 1.2.9c.8 0 1.1-1.1 1.1-2.8zm8.1-2.6c0 .6-.5 1-1 1c-.9 0-.7-.9-1.2-.9c-.1 0-.3.2-.4.5c0 0 0 3.4 0 3.4c0 1 .4 1.3.5 1.4c.03-.02 0 .2 0 .2l-3.3 0c0 0 .02-.2 0-.2c.2-.1.7-.5.7-1.4c0 0 0-3.1 0-3.1c0-.9-.5-1.2-.7-1.4c.02.04 0-.2 0-.2l2.8-.4c0 0-.31 1.54-.3 1.5c.3-.8.8-1.5 1.8-1.5c.6 0 1.1.4 1.1 1.1zm.1 2.3c0-1.8 1.6-3.4 3.6-3.4c1.9 0 3.5 1.6 3.5 3.4c0 1.9-1.6 3.5-3.5 3.5c-2 0-3.6-1.6-3.6-3.5zm4.9 1.3c0-1.6-.9-4.3-2-4.3c-.5 0-.7.7-.7 1.7c0 1.6.8 4.4 2 4.4c.5 0 .7-.7.7-1.8zm9.8-1.3c0 1.9-1.3 3.5-2.9 3.5c-.7 0-1.1-.2-1.5-.5c0 0 0 1.6 0 1.6c0 .9.5 1.3.6 1.3c-.01.05 0 .2 0 .2l-3.3 0c0 0-.05-.14 0-.1c.1-.1.7-.6.7-1.4c0 0 0-6 0-6c0-1-.5-1.4-.7-1.4c-.01.01 0-.2 0-.2l2.7-.5c0 0-.24 1.3-.2 1.3c.6-1.1 1.2-1.2 1.8-1.2c1.6 0 2.8 1.5 2.8 3.4zm-2.2.3c0-1.4-.3-3.1-1.3-3.1c-.2 0-.6.1-.9.7c0 0 0 4.3 0 4.3c.4.6.6.9 1.2.9c.8 0 1-1.1 1-2.8zm2.9-.3c0-1.8 1.5-3.4 3.5-3.4c1.9 0 3.5 1.6 3.5 3.4c0 1.9-1.6 3.5-3.5 3.5c-2 0-3.5-1.6-3.5-3.5zm4.8 1.3c0-1.6-.8-4.3-2-4.3c-.4 0-.6.7-.6 1.7c0 1.6.8 4.4 1.9 4.4c.5 0 .7-.7.7-1.8zm3.4 2.2c-.05-.02-.6-2.8-.6-2.8c0 0 .23.02.2 0c.5 1.1 1.4 2.5 2.7 2.5c.6 0 1-.4 1-1.1c0-1.4-3.8-.8-3.8-3.7c0-1.2 1.1-1.8 2.3-1.8c.9 0 1.3.5 2.3 0c0 .02.5 2.5.5 2.5c0 0-.28 0-.3 0c-.5-1.2-1.6-2.2-2.6-2.2c-.6 0-1 .2-.9.8c.2 1.1 4.1.8 4.1 3.8c0 1.1-1.1 2-2.6 2c-1 0-1.3-.3-2.3 0zm7.6-7.6l-.2 0l.8-2l2.4 0l-3 2zm3.9 5.1c0 0 0 .3 0 .3c-.3 1.2-1.3 2.2-2.8 2.2c-1.7 0-3.2-1.6-3.2-3.5c0-1.9 1.5-3.4 3.3-3.4c1.3 0 2.5.9 2.9 2.3c0 0-4.1.8-4.1.8c.2 1.2.8 2.3 2.3 2.3c.3 0 1.2-.2 1.6-1zm-4-2.3c0 .2 0 .5 0 .7c0 0 1.1-.2 1.1-.2c.3-.1.5-.3.5-.6c0-.7-.6-1.6-1.2-1.6c-.5 0-.4 1.4-.4 1.7zm15.6 1.3c0 1.9-1.3 3.5-2.9 3.5c-.7 0-1.1-.2-1.5-.5c0 0 0 1.6 0 1.6c0 .9.5 1.3.6 1.3c0 .05 0 .2 0 .2l-3.3 0c0 0-.04-.14 0-.1c.1-.1.7-.6.7-1.4c0 0 0-6 0-6c0-1-.5-1.4-.7-1.4c0 .01 0-.2 0-.2l2.7-.5c0 0-.23 1.3-.2 1.3c.6-1.1 1.2-1.2 1.8-1.2c1.6 0 2.8 1.5 2.8 3.4zm-2.2.3c0-1.4-.3-3.1-1.3-3.1c-.2 0-.5.1-.9.7c0 0 0 4.3 0 4.3c.4.6.6.9 1.2.9c.8 0 1-1.1 1-2.8zm2.9 1.4c0-1.8 2.9-2 3.8-2.3c0 0 0-1.2 0-1.2c0-.9-.5-1.3-1-1.3c-.6 0-.6.5-.6.6c0 .5.2.5.2 1.1c0 .5-.4.8-1.1.8c-.6 0-.9-.4-.9-1c0-.8 1.1-1.8 2.5-1.8c2.2 0 2.9 1 2.9 3c0 0 0 1.8 0 1.8c0 .8.2 1.2.9 1c0 0 0 .2 0 .2c-.3.5-1 .9-1.5.9c-.7 0-1.4-.4-1.4-1c-.5.7-1.3 1-1.9 1c-1.2 0-1.9-.6-1.9-1.8zm3.8 0c0 0 0-2 0-2c-.6.3-1.7.6-1.7 1.6c0 .7.4 1.2.9 1.2c.3 0 .8-.3.8-.8zm8.7-4c0 .6-.5 1-1 1c-1 0-.8-.9-1.2-.9c-.2 0-.3.2-.5.5c0 0 0 3.4 0 3.4c0 1 .5 1.3.6 1.4c0-.02 0 .2 0 .2l-3.3 0c0 0-.01-.2 0-.2c.1-.1.7-.5.7-1.4c0 0 0-3.1 0-3.1c0-.9-.5-1.2-.7-1.4c-.01.04 0-.2 0-.2l2.7-.4c0 0-.24 1.54-.2 1.5c.3-.8.8-1.5 1.8-1.5c.6 0 1.1.4 1.1 1.1zm10.4 3.3c0 0 0 .3 0 .3c-.3 1.2-1.3 2.2-2.8 2.2c-1.7 0-3.3-1.6-3.3-3.5c0-1.9 1.6-3.4 3.3-3.4c1.4 0 2.6.9 2.9 2.3c0 0-4.1.8-4.1.8c.3 1.2.9 2.3 2.3 2.3c.4 0 1.3-.2 1.7-1zm-4.1-2.3c0 .2 0 .5.1.7c0 0 1.1-.2 1.1-.2c.3-.1.5-.3.5-.6c0-.7-.6-1.6-1.2-1.6c-.6 0-.5 1.4-.5 1.7zm4.6 3c0-1.8 2.9-2 3.8-2.3c0 0 0-1.2 0-1.2c0-.9-.5-1.3-1-1.3c-.6 0-.6.5-.6.6c0 .5.2.5.2 1.1c0 .5-.4.8-1.1.8c-.6 0-.9-.4-.9-1c0-.8 1.1-1.8 2.5-1.8c2.2 0 2.9 1 2.9 3c0 0 0 1.8 0 1.8c0 .8.2 1.2.9 1c0 0 0 .2 0 .2c-.3.5-1 .9-1.5.9c-.7 0-1.4-.4-1.4-1c-.5.7-1.3 1-1.9 1c-1.2 0-1.9-.6-1.9-1.8zm3.8 0c0 0 0-2 0-2c-.6.3-1.7.6-1.7 1.6c0 .7.4 1.2.9 1.2c.3 0 .8-.3.8-.8zm3.2-1.6c0-1.8 1.5-3.5 3.6-3.5c1.3 0 2.5.9 2.5 2c0 .7-.5 1.1-1 1.1c-.5 0-1-.3-1-.9c0-.5.3-.6.3-1c0-.4-.5-.9-1.1-.9c-1.1 0-1.5.8-1.5 2c0 1.8 1 3.1 2.5 3.1c.6 0 1.4-.2 1.8-1c0 0 0 .5 0 .5c-.5 1.5-1.7 2-2.8 2c-1.7 0-3.3-1.6-3.3-3.4zm13.9 3c.04-.02 0 .2 0 .2l-3.3 0c0 0-.02-.22 0-.2c.2-.1.6-.5.6-1.4c0 0 0-2.6 0-2.6c0-1.5-.1-1.9-.8-1.9c-.4 0-.8.4-1 .8c0 0 0 3.8 0 3.8c0 .9.5 1.2.6 1.3c-.01-.02 0 .2 0 .2l-3.3 0c0 0-.02-.2 0-.2c.1-.1.6-.4.6-1.3c0 0 0-6.4 0-6.4c0-.8-.2-1.2-.6-1.3c-.02-.05 0-.3 0-.3l2.7-.4c0 0 .01 4.13 0 4.1c.4-.5.9-.9 1.6-.9c1.5 0 2.3 1 2.3 2.3c0 0 0 2.8 0 2.8c0 .9.5 1.3.6 1.4zm4.5-4.5c0-2.6 1.8-4.8 4.6-4.8c2.7 0 4.5 2.2 4.5 4.8c0 2.6-1.8 4.9-4.7 4.9c-2.6 0-4.4-2.3-4.4-4.9zm3.8-4.4c-1.2 0-1.7 1.3-1.7 3c0 2.1 1.4 5.9 3.1 5.9c1.2 0 1.8-1.4 1.8-2.9c0-2.2-1.4-6-3.2-6zm13.1 8.9c.05-.02 0 .2 0 .2l-3.3 0c0 0-.01-.22 0-.2c.2-.1.6-.5.6-1.4c0 0 0-2.6 0-2.6c0-1.5-.1-1.9-.7-1.9c-.5 0-.9.4-1.1.8c0 0 0 3.7 0 3.7c0 1 .5 1.3.6 1.4c0-.02 0 .2 0 .2l-3.3 0c0 0-.01-.2 0-.2c.2-.1.7-.5.7-1.4c0 0 0-3.1 0-3.1c0-.9-.5-1.2-.7-1.4c-.01.04 0-.2 0-.2l2.7-.4c0 0-.2 1.33-.2 1.3c.4-.8 1-1.3 1.8-1.3c1.6 0 2.3 1 2.3 2.3c0 0 0 2.8 0 2.8c0 .9.5 1.3.6 1.4zm6.6-2.1c0 0 0 .3 0 .3c-.3 1.2-1.3 2.2-2.8 2.2c-1.7 0-3.3-1.6-3.3-3.5c0-1.9 1.6-3.4 3.3-3.4c1.4 0 2.6.9 2.9 2.3c0 0-4.1.8-4.1.8c.2 1.2.9 2.3 2.3 2.3c.4 0 1.2-.2 1.7-1zm-4.1-2.3c0 .2 0 .5.1.7c0 0 1-.2 1-.2c.4-.1.6-.3.6-.6c0-.7-.6-1.6-1.2-1.6c-.6 0-.5 1.4-.5 1.7zm8.8-.9c0-.7.5-1.2 1.2-1.2c.6 0 1.2.5 1.2 1.2c0 .6-.6 1.2-1.2 1.2c-.7 0-1.2-.6-1.2-1.2zm0 4.5c0-.7.5-1.2 1.2-1.2c.6 0 1.2.5 1.2 1.2c0 .6-.6 1.2-1.2 1.2c-.7 0-1.2-.6-1.2-1.2z" stroke="none" fill="#144542"/></g></svg>