<?xml version="1.0" standalone="no"?><!DOCTYPE svg PUBLIC "-//W3C//DTD SVG 1.1//EN" "http://www.w3.org/Graphics/SVG/1.1/DTD/svg11.dtd"><svg xmlns="http://www.w3.org/2000/svg" version="1.1" width="122.1px" height="26.2px" viewBox="0 -4 122.1 26.2" style="top:-4px"><desc>C t apprenant</desc><defs/><g id="Polygon177319"><path d="m.7 7.7c0-3.9 3-6.3 6.1-6.3c3 0 4.9 1.8 5.4 4c0 0-1.9.6-1.9.6c-.4-1.5-1.5-2.6-3.5-2.6c-2 0-4 1.4-4 4.3c0 2.9 1.9 4.4 4 4.4c2 0 3.2-1.3 3.6-2.7c0 0 1.9.6 1.9.6c-.6 2.1-2.4 4-5.5 4c-3.2 0-6.1-2.3-6.1-6.3zm14-3.3l1.8-2.4l2 0l1.9 2.4l-1.7 0l-1.2-1.3l-1.2 1.3l-1.6 0zm5.1 5.2c0-1.7-1.1-2.6-2.3-2.6c-1.2 0-2.3.9-2.3 2.6c0 1.7 1.1 2.6 2.3 2.6c1.2 0 2.3-.9 2.3-2.6zm2 0c0 2.6-1.8 4.4-4.3 4.4c-2.5 0-4.3-1.8-4.3-4.4c0-2.5 1.8-4.4 4.3-4.4c2.5 0 4.3 1.9 4.3 4.4zm4.3-4.1l1.8 0l0 1.7l-1.8 0c0 0 .05 3.87 0 3.9c0 .7.4 1 1.1 1c.3 0 .6 0 .7-.1c0 0 0 1.7 0 1.7c-.1 0-.5.2-1.2.2c-1.6 0-2.5-1-2.5-2.5c-.01-.01 0-4.2 0-4.2l-1.5 0l0-1.7c0 0 .39-.03.4 0c.9 0 1.3-.6 1.3-1.3c-.04-.02 0-1.3 0-1.3l1.7 0l0 2.6zm7.8-1.1l-1.6 0l1.5-2.5l2.3 0l-2.2 2.5zm1.3 4.3c0-1-.6-1.8-2-1.8c-1.2 0-2 .9-2 1.8c0 0 4 0 4 0zm1.9 2.7c-.4 1.4-1.7 2.6-3.7 2.6c-2.3 0-4.2-1.6-4.2-4.4c0-2.6 1.9-4.4 4-4.4c2.5 0 4 1.7 4 4.3c0 .3 0 .6 0 .6c0 0-6.1 0-6.1 0c.1 1.3 1.1 2.2 2.3 2.2c1.2 0 1.8-.6 2.1-1.4c0 0 1.6.5 1.6.5zm8.2-2.4c0 0 2.1-.3 2.1-.3c.5-.1.7-.3.7-.6c0-.7-.5-1.3-1.6-1.3c-1 0-1.6.7-1.7 1.5c0 0-1.8-.4-1.8-.4c.1-1.4 1.4-2.7 3.5-2.7c2.5 0 3.5 1.5 3.5 3.1c0 0 0 4.1 0 4.1c0 .8.1 1.3.1 1.4c0 0-1.8 0-1.8 0c-.1-.1-.1-.4-.1-1.1c-.4.6-1.2 1.3-2.6 1.3c-1.7 0-2.8-1.2-2.8-2.5c0-1.5 1.1-2.3 2.5-2.5zm2.8 1.3c-.04.02 0-.4 0-.4c0 0-2.2.37-2.2.4c-.6.1-1.1.4-1.1 1.1c0 .6.4 1.1 1.2 1.1c1.1 0 2.1-.6 2.1-2.2zm4.3 6.7l0-11.5l1.9 0c0 0-.02 1.1 0 1.1c.4-.7 1.3-1.3 2.6-1.3c2.5 0 3.8 1.9 3.8 4.3c0 2.5-1.5 4.4-3.9 4.4c-1.1 0-2-.6-2.5-1.2c.03.02 0 4.2 0 4.2l-1.9 0zm4.1-10c-1.3 0-2.2 1.1-2.2 2.6c0 1.6.9 2.6 2.2 2.6c1.4 0 2.3-1 2.3-2.6c0-1.5-.9-2.6-2.3-2.6zm6.1 10l0-11.5l1.9 0c0 0 .05 1.1 0 1.1c.5-.7 1.4-1.3 2.7-1.3c2.4 0 3.8 1.9 3.8 4.3c0 2.5-1.5 4.4-3.9 4.4c-1.2 0-2.1-.6-2.5-1.2c0 .02 0 4.2 0 4.2l-2 0zm4.2-10c-1.3 0-2.2 1.1-2.2 2.6c0 1.6.9 2.6 2.2 2.6c1.3 0 2.2-1 2.2-2.6c0-1.5-.9-2.6-2.2-2.6zm11 .4c-.3 0-.5 0-.7 0c-1.5 0-2.2.9-2.2 2.4c-.02.01 0 4 0 4l-2 0l0-8.3l1.9 0c0 0 .03 1.3 0 1.3c.4-.9 1.3-1.4 2.4-1.4c.3 0 .5 0 .6 0c0 0 0 2 0 2zm7 1.3c-.1-1-.7-1.8-2.1-1.8c-1.2 0-1.9.9-2 1.8c0 0 4.1 0 4.1 0zm1.8 2.7c-.4 1.4-1.7 2.6-3.7 2.6c-2.2 0-4.2-1.6-4.2-4.4c0-2.6 1.9-4.4 4-4.4c2.6 0 4.1 1.7 4.1 4.3c0 .3-.1.6-.1.6c0 0-6.1 0-6.1 0c.1 1.3 1.1 2.2 2.3 2.2c1.2 0 1.8-.6 2.1-1.4c0 0 1.6.5 1.6.5zm4 2.4l-2 0l0-8.3l2 0c0 0-.04 1.08 0 1.1c.5-1 1.5-1.4 2.4-1.4c2 0 3 1.5 3 3.3c0 .02 0 5.3 0 5.3l-2 0c0 0 .03-4.94 0-4.9c0-1.1-.4-1.9-1.7-1.9c-1.1 0-1.7.9-1.7 2c.01-.02 0 4.8 0 4.8zm9.8-4.8c0 0 2.1-.3 2.1-.3c.5-.1.6-.3.6-.6c0-.7-.5-1.3-1.5-1.3c-1.1 0-1.7.7-1.7 1.5c0 0-1.8-.4-1.8-.4c.1-1.4 1.4-2.7 3.4-2.7c2.6 0 3.6 1.5 3.6 3.1c0 0 0 4.1 0 4.1c0 .8 0 1.3.1 1.4c0 0-1.9 0-1.9 0c0-.1-.1-.4-.1-1.1c-.4.6-1.2 1.3-2.5 1.3c-1.7 0-2.8-1.2-2.8-2.5c0-1.5 1.1-2.3 2.5-2.5zm2.7 1.3c.02.02 0-.4 0-.4c0 0-2.14.37-2.1.4c-.7.1-1.1.4-1.1 1.1c0 .6.4 1.1 1.2 1.1c1.1 0 2-.6 2-2.2zm6.3 3.5l-2 0l0-8.3l2 0c0 0-.04 1.08 0 1.1c.5-1 1.5-1.4 2.4-1.4c2 0 3 1.5 3 3.3c0 .02 0 5.3 0 5.3l-2 0c0 0 .03-4.94 0-4.9c0-1.1-.4-1.9-1.7-1.9c-1.1 0-1.7.9-1.7 2c.01-.02 0 4.8 0 4.8zm10.3-8.3l1.7 0l0 1.7l-1.7 0c0 0 0 3.87 0 3.9c0 .7.3 1 1 1c.3 0 .6 0 .7-.1c0 0 0 1.7 0 1.7c-.1 0-.5.2-1.2.2c-1.5 0-2.5-1-2.5-2.5c.04-.01 0-4.2 0-4.2l-1.5 0l0-1.7c0 0 .44-.03.4 0c.9 0 1.3-.6 1.3-1.3c.01-.02 0-1.3 0-1.3l1.8 0l0 2.6z" stroke="none" fill="#144542"/></g></svg>