<?xml version="1.0" standalone="no"?><!DOCTYPE svg PUBLIC "-//W3C//DTD SVG 1.1//EN" "http://www.w3.org/Graphics/SVG/1.1/DTD/svg11.dtd"><svg xmlns="http://www.w3.org/2000/svg" version="1.1" width="123.1px" height="88.3px" viewBox="0 -3 123.1 88.3" style="top:-3px"><desc>KPI de mesure Taux de r tention en formation (%) r sultat 2025 : 90 % objectif initial : 89 %</desc><defs/><g id="Polygon185398"><path d="m3.4 64.9c1 0 2-.7 2-2.2c0-1.4-1-2.1-2-2.1c-1 0-2 .7-2 2.1c0 1.5 1 2.2 2 2.2zm0-5.3c1.5 0 3 1.2 3 3.1c0 2-1.5 3.1-3 3.1c-1.6 0-3.1-1.1-3.1-3.1c0-1.9 1.5-3.1 3.1-3.1zm6.1.2c1.2 0 1.8.6 1.8 1.6c0 .6-.3 1.1-.8 1.2c.6.2 1 .8 1 1.5c0 .9-.7 1.6-1.8 1.6c-.02 0-2.2 0-2.2 0l0-5.9c0 0 2.02-.04 2 0zm-.1 2.5c.6 0 .9-.4.9-.9c0-.5-.3-.8-.9-.8c-.04.01-.9 0-.9 0l0 1.7c0 0 .89-.02.9 0zm.1 2.6c.6 0 1-.4 1-.9c0-.5-.3-.9-1-.9c.03.03-1 0-1 0l0 1.8c0 0 1-.05 1 0zm2.7-1.4l1-.2c0 0-.05.57 0 .6c0 .7.3 1 .9 1c.5 0 .8-.4.8-1c.04.02 0-4.1 0-4.1l1.1 0c0 0-.05 4.09 0 4.1c0 1-.8 1.9-1.9 1.9c-1.2 0-1.9-.7-1.9-1.9c-.03.01 0-.4 0-.4zm5.1 2.2l0-5.9l3.7 0l0 .9l-2.7 0l0 1.6l2.4 0l0 .9l-2.4 0l0 1.6l2.7 0l0 .9l-3.7 0zm4.5-3c0-1.9 1.5-3.1 3-3.1c1.5 0 2.4.9 2.7 2c0 0-1 .3-1 .3c-.1-.7-.7-1.3-1.7-1.3c-1 0-2 .7-2 2.1c0 1.4 1 2.2 2 2.2c1 0 1.6-.7 1.8-1.3c0 0 .9.3.9.3c-.3 1-1.2 1.9-2.7 1.9c-1.6 0-3-1.1-3-3.1zm9-2l0 5l-1 0l0-5l-1.9 0l0-.9l4.9 0l0 .9l-2 0zm2.8 5l0-5.9l1 0l0 5.9l-1 0zm2.4 0l0-5.9l3.7 0l0 .9l-2.7 0l0 1.7l2.5 0l0 .9l-2.5 0l0 2.4l-1 0zm7.7 0l0-5.9l1 0l0 5.9l-1 0zm6.4 0l-3-4.5l0 4.5l-1 0l0-5.9l1.3 0l2.7 4.2l0-4.2l1 0l0 5.9l-1 0zm2.5 0l0-5.9l1 0l0 5.9l-1 0zm4.8-5l0 5l-1.1 0l0-5l-1.9 0l0-.9l4.9 0l0 .9l-1.9 0zm2.7 5l0-5.9l1 0l0 5.9l-1 0zm6-1.5l-2.5 0l-.6 1.5l-1.1 0l2.4-5.9l1.1 0l2.3 5.9l-1.1 0l-.5-1.5zm-2.2-.9l1.8 0l-.9-2.5l-.9 2.5zm4.6 2.4l0-5.9l1 0l0 5l2.8 0l0 .9l-3.8 0zm8.8-1.9c.5 0 1 .5 1 1c0 .5-.5 1-1 1c-.5 0-1-.5-1-1c0-.5.5-1 1-1zm0-4c.5 0 1 .4 1 1c0 .5-.5.9-1 .9c-.6 0-1-.4-1-.9c0-.6.4-1 1-1zm9.4.2c0-.6-.5-1.1-1.2-1.1c-.8 0-1.3.5-1.3 1.1c0 .7.5 1.2 1.3 1.2c.7 0 1.2-.5 1.2-1.2zm-1.2 4.7c.9 0 1.4-.6 1.4-1.2c0-.6-.5-1.2-1.4-1.2c-1 0-1.5.6-1.5 1.2c0 .6.5 1.2 1.5 1.2c0 0 0 0 0 0zm0 1.2c-1.8 0-2.9-1-2.9-2.3c0-.9.6-1.6 1.4-1.9c-.7-.3-1.2-1-1.2-1.8c0-1.2 1.1-2.1 2.7-2.1c1.5 0 2.7.9 2.7 2.1c0 .8-.6 1.5-1.3 1.8c.8.3 1.4 1 1.4 1.9c0 1.3-1.1 2.3-2.8 2.3c0 0 0 0 0 0zm4.4-1.6c.3.2.9.3 1.4.3c1.6 0 2.5-1 2.6-2.4c-.3.5-1 .9-1.9.9c-1.4 0-2.7-1-2.7-2.6c0-1.6 1.3-2.7 2.9-2.7c1.6 0 3.1 1.1 3.1 3.6c0 2.8-1.4 4.5-4 4.5c-.7 0-1.4-.2-1.8-.5c0 0 .4-1.1.4-1.1zm2.3-5.3c-.8 0-1.5.5-1.5 1.4c0 .9.7 1.5 1.5 1.5c.8 0 1.5-.6 1.5-1.5c0-.8-.7-1.4-1.5-1.4zm7.7 1.6c.4 0 .8-.3.8-.8c0-.6-.4-.9-.8-.9c-.5 0-.9.3-.9.9c0 .5.4.8.9.8zm0-2.8c1 0 1.9.9 1.9 2c0 1-.9 1.9-1.9 1.9c-1.1 0-2-.9-2-1.9c0-1.1.9-2 2-2zm5 7c.5 0 .8-.4.8-.9c0-.5-.3-.9-.8-.9c-.5 0-.9.4-.9.9c0 .5.4.9.9.9zm0-2.8c1 0 1.9.8 1.9 1.9c0 1.1-.9 1.9-1.9 1.9c-1.1 0-2-.8-2-1.9c0-1.1.9-1.9 2-1.9zm-5.9 3.7l5.5-7.8l1.3 0l-5.6 7.8l-1.2 0z" stroke="none" fill="#9b78ef"/></g><g id="Polygon185397"><path d="m2.5 49.4l-.8 0l0 2.3l-1 0l0-5.9c0 0 2.3-.04 2.3 0c1.1 0 1.9.8 1.9 1.8c0 .8-.6 1.5-1.4 1.7c.02-.05 1.4 2.4 1.4 2.4l-1.2 0l-1.2-2.3zm.3-.9c.6 0 1-.4 1-.9c0-.6-.4-1-1-1c.01.04-1.1 0-1.1 0l0 1.9c0 0 1.11-.03 1.1 0zm5.2-3.2l-.9 0l.9-1l1.2 0l-1.2 1zm-2.1 6.4l0-5.9l3.7 0l0 .9l-2.7 0l0 1.6l2.5 0l0 .9l-2.5 0l0 1.6l2.7 0l0 .9l-3.7 0zm7.9-4.3c0-.3-.3-.9-1.1-.9c-.6 0-1.1.4-1.1.9c0 .4.3.6.7.7c0 0 .9.2.9.2c1 .2 1.6.9 1.6 1.7c0 .9-.7 1.8-2.1 1.8c-1.5 0-2.2-.9-2.3-1.8c0 0 .9-.3.9-.3c.1.7.5 1.2 1.4 1.2c.7 0 1.1-.3 1.1-.8c0-.4-.3-.7-.8-.8c0 0-.9-.2-.9-.2c-.9-.2-1.5-.8-1.5-1.6c0-1 .9-1.9 2.1-1.9c1.4 0 1.9.9 2 1.6c0 0-.9.2-.9.2zm2 2.2c-.03.03 0-3.8 0-3.8l1 0c0 0-.04 3.77 0 3.8c0 .8.4 1.3 1.2 1.3c.7 0 1.2-.5 1.2-1.3c0-.03 0-3.8 0-3.8l1 0c0 0 .01 3.83 0 3.8c0 1.5-1 2.2-2.2 2.2c-1.3 0-2.2-.7-2.2-2.2zm5.8 2.1l0-5.9l1 0l0 5l2.7 0l0 .9l-3.7 0zm6.4-5l0 5l-1 0l0-5l-2 0l0-.9l4.9 0l0 .9l-1.9 0zm5.7 3.5l-2.5 0l-.6 1.5l-1 0l2.3-5.9l1.2 0l2.3 5.9l-1.1 0l-.6-1.5zm-2.2-.9l1.9 0l-1-2.5l-.9 2.5zm6.5-2.6l0 5l-1 0l0-5l-2 0l0-.9l4.9 0l0 .9l-1.9 0zm5.5.1c0-.2 0-.3 0-.5c0-1.3 1-2.5 2.7-2.5c1.7 0 2.8 1.1 2.8 2.4c0 1-.6 1.8-1.5 2.4c0 0-1.6.9-1.6.9c-.3.3-.6.6-.7.9c-.04.04 3.8 0 3.8 0l0 1.3c0 0-5.62.01-5.6 0c0-1.3.5-2.4 1.8-3.2c0 0 1.3-.8 1.3-.8c.7-.4 1-.9 1-1.5c0-.6-.4-1.2-1.3-1.2c-.9 0-1.4.6-1.4 1.5c0 .1.1.2.1.3c0 0-1.4 0-1.4 0zm8.4 3.2c.3.4.7.6 1.2.6c.6 0 1-.2 1.2-.6c.4-.4.6-1.2.6-2.2c0-1-.2-1.7-.6-2.2c-.2-.3-.6-.6-1.2-.6c-.5 0-.9.3-1.2.6c-.3.5-.5 1.2-.5 2.2c0 1 .2 1.8.5 2.2zm-1.2-5c.5-.7 1.3-1.2 2.4-1.2c1.2 0 2 .5 2.5 1.2c.5.8.7 1.8.7 2.8c0 1.1-.2 2-.7 2.8c-.5.8-1.3 1.3-2.5 1.3c-1.1 0-1.9-.5-2.4-1.3c-.6-.8-.7-1.7-.7-2.8c0-1 .1-2 .7-2.8zm6.6 1.8c0-.2 0-.3 0-.5c0-1.3 1-2.5 2.8-2.5c1.7 0 2.7 1.1 2.7 2.4c0 1-.6 1.8-1.5 2.4c0 0-1.5.9-1.5.9c-.4.3-.7.6-.8.9c0 .04 3.9 0 3.9 0l0 1.3c0 0-5.67.01-5.7 0c.1-1.3.5-2.4 1.9-3.2c0 0 1.3-.8 1.3-.8c.7-.4 1-.9 1-1.5c0-.6-.5-1.2-1.4-1.2c-.9 0-1.3.6-1.3 1.5c0 .1 0 .2 0 .3c0 0-1.4 0-1.4 0zm7.7 2.4c.1.8.7 1.5 1.6 1.5c.8 0 1.5-.6 1.5-1.5c0-.9-.7-1.4-1.5-1.4c-.6 0-1.1.2-1.3.5c-.03.05-1.4-.4-1.4-.4l1-4l4.2 0l0 1.3l-3.3 0c0 0-.44 1.96-.4 2c.3-.4.9-.6 1.5-.6c1.5 0 2.6 1 2.6 2.6c0 1.5-1.1 2.7-2.9 2.7c-1.7 0-2.8-1.1-2.9-2.3c0 0 1.3-.4 1.3-.4zm9.7.6c.5 0 1 .5 1 1c0 .5-.5 1-1 1c-.6 0-1-.5-1-1c0-.5.4-1 1-1zm0-4c.5 0 .9.4.9 1c0 .5-.4.9-.9.9c-.6 0-1-.4-1-.9c0-.6.4-1 1-1zm5.8 4.5c.3.2.9.3 1.4.3c1.6 0 2.5-1 2.6-2.4c-.3.5-1 .9-1.9.9c-1.4 0-2.7-1-2.7-2.6c0-1.6 1.3-2.7 2.9-2.7c1.7 0 3.1 1.1 3.1 3.6c0 2.8-1.3 4.5-4 4.5c-.6 0-1.4-.2-1.8-.5c0 0 .4-1.1.4-1.1zm2.3-5.3c-.8 0-1.5.5-1.5 1.4c0 .9.7 1.5 1.5 1.5c.8 0 1.5-.6 1.5-1.5c0-.8-.7-1.4-1.5-1.4zm6.1 5c.3.4.7.6 1.2.6c.6 0 1-.2 1.2-.6c.4-.4.6-1.2.6-2.2c0-1-.2-1.7-.6-2.2c-.2-.3-.6-.6-1.2-.6c-.5 0-.9.3-1.2.6c-.4.5-.5 1.2-.5 2.2c0 1 .2 1.8.5 2.2zm-1.3-5c.6-.7 1.4-1.2 2.5-1.2c1.2 0 2 .5 2.5 1.2c.5.8.7 1.8.7 2.8c0 1.1-.2 2-.7 2.8c-.5.8-1.3 1.3-2.5 1.3c-1.1 0-1.9-.5-2.5-1.3c-.5-.8-.6-1.7-.6-2.8c0-1 .1-2 .6-2.8zm10.3 1.6c.5 0 .8-.3.8-.8c0-.6-.3-.9-.8-.9c-.5 0-.9.3-.9.9c0 .5.4.8.9.8zm0-2.8c1.1 0 2 .9 2 2c0 1-.9 1.9-2 1.9c-1.1 0-2-.9-2-1.9c0-1.1.9-2 2-2zm5 7c.5 0 .9-.4.9-.9c0-.5-.4-.9-.9-.9c-.5 0-.8.4-.8.9c0 .5.3.9.8.9zm0-2.8c1.1 0 2 .8 2 1.9c0 1.1-.9 1.9-2 1.9c-1.1 0-2-.8-2-1.9c0-1.1.9-1.9 2-1.9zm-5.9 3.7l5.6-7.8l1.2 0l-5.5 7.8l-1.3 0z" stroke="none" fill="#9b78ef"/></g><g id="Polygon185396"><path d="m2.5 33l0 4.7l-1.2 0l0-4.7l-1.1 0l0-1.1l1.1 0c0 0 .01-.94 0-.9c0-1.3.9-2 1.9-2c.4 0 .6.1.7.1c0 0 0 1 0 1c-.1 0-.2-.1-.5-.1c-.4 0-.9.2-.9 1c-.03.02 0 .9 0 .9l1.4 0l0 1.1l-1.4 0zm6.6 1.8c0-1.3-.8-2-1.8-2c-1 0-1.8.7-1.8 2c0 1.4.8 2.1 1.8 2.1c1 0 1.8-.7 1.8-2.1zm1.2 0c0 1.8-1.3 3.1-3 3.1c-1.7 0-2.9-1.3-2.9-3.1c0-1.7 1.2-3 2.9-3c1.7 0 3 1.3 3 3zm4.6-1.7c-.2 0-.3-.1-.5-.1c-.9 0-1.6.5-1.6 1.8c.03.02 0 2.9 0 2.9l-1.1 0l0-5.8l1.1 0c0 0 0 1.04 0 1c.4-.8 1.1-1.1 1.7-1.1c.2 0 .3.1.4.1c0 0 0 1.2 0 1.2zm1.2 4.6l0-5.8l1.1 0c0 0-.02.8 0 .8c.3-.6 1.1-.9 1.7-.9c.8 0 1.5.3 1.8 1.1c.4-.9 1.2-1.1 1.9-1.1c1 0 2 .7 2 2.2c-.01-.04 0 3.7 0 3.7l-1.1 0c0 0-.03-3.62 0-3.6c0-.8-.4-1.3-1.3-1.3c-.7 0-1.3.6-1.3 1.4c.01.02 0 3.5 0 3.5l-1.1 0c0 0-.01-3.62 0-3.6c0-.8-.4-1.3-1.2-1.3c-.8 0-1.4.6-1.4 1.4c.02.03 0 3.5 0 3.5l-1.1 0zm9.9-1.5c0-1.1.8-1.6 1.8-1.8c0 0 1.5-.2 1.5-.2c.4-.1.5-.2.5-.5c0-.5-.4-1-1.3-1c-.8 0-1.2.5-1.3 1.2c0 0-1.1-.3-1.1-.3c.2-1.1 1.2-1.8 2.4-1.8c1.7 0 2.4.9 2.4 2.1c0 0 0 2.9 0 2.9c0 .5.1.8.1.9c0 0-1.1 0-1.1 0c0-.1-.1-.3-.1-.8c-.2.4-.8 1-1.8 1c-1.2 0-2-.8-2-1.7c0 0 0 0 0 0zm3.8-1c-.02.04 0-.2 0-.2c0 0-1.78.24-1.8.2c-.5.1-.8.4-.8.9c0 .4.3.8.9.8c.9 0 1.7-.4 1.7-1.7zm4.4-3.3l1.2 0l0 1.1l-1.2 0c0 0-.03 2.96 0 3c0 .5.2.7.8.7c.1 0 .3 0 .4 0c0 0 0 1 0 1c-.1 0-.4.1-.7.1c-1 0-1.7-.6-1.7-1.7c.05.02 0-3.1 0-3.1l-1.1 0l0-1.1c0 0 .36.04.4 0c.6 0 .8-.3.8-.9c.04.05 0-.9 0-.9l1.1 0l0 1.8zm2.7 5.8l0-5.8l1.1 0l0 5.8l-1.1 0zm.6-8.8c.4 0 .8.4.8.9c0 .4-.4.8-.8.8c-.5 0-.8-.4-.8-.8c0-.5.3-.9.8-.9zm6.7 5.9c0-1.3-.8-2-1.8-2c-.9 0-1.8.7-1.8 2c0 1.4.9 2.1 1.8 2.1c1 0 1.8-.7 1.8-2.1zm1.2 0c0 1.8-1.2 3.1-3 3.1c-1.7 0-2.9-1.3-2.9-3.1c0-1.7 1.2-3 2.9-3c1.8 0 3 1.3 3 3zm2.6 2.9l-1.2 0l0-5.8l1.1 0c0 0 .03.86 0 .9c.4-.8 1.1-1 1.8-1c1.4 0 2.1 1 2.1 2.2c-.03.05 0 3.7 0 3.7l-1.2 0c0 0 .04-3.46 0-3.5c0-.8-.3-1.4-1.3-1.4c-.9 0-1.3.7-1.3 1.6c-.05-.03 0 3.3 0 3.3zm10.5-9.5c0 0 .7.6.7.6c-1.2 1.3-2 3-2 5.1c0 2.1.8 3.8 2 5.1c0 0-.7.6-.7.6c-1.2-1.3-2.2-3.1-2.2-5.7c0-2.6 1-4.4 2.2-5.7zm3.3 4.5c.5 0 .9-.4.9-1c0-.5-.4-.9-.9-.9c-.5 0-.9.4-.9.9c0 .6.4 1 .9 1zm0-2.9c1 0 1.9.9 1.9 1.9c0 1.1-.9 1.9-1.9 1.9c-1 0-1.9-.8-1.9-1.9c0-1 .9-1.9 1.9-1.9zm4.8 7.1c.5 0 .9-.4.9-1c0-.5-.4-.9-.9-.9c-.6 0-1 .4-1 .9c0 .6.4 1 1 1zm0-2.9c1 0 1.9.9 1.9 1.9c0 1.1-.9 1.9-1.9 1.9c-1.1 0-2-.8-2-1.9c0-1 .9-1.9 2-1.9zm-5.7 3.7l5.5-7.8l1.1 0l-5.5 7.8l-1.1 0zm8.8 1.9c0 0-.7-.6-.7-.6c1.3-1.3 2-3 2-5.1c0-2.1-.7-3.8-2-5.1c0 0 .7-.6.7-.6c1.3 1.3 2.3 3.1 2.3 5.7c0 2.6-1 4.4-2.3 5.7z" stroke="none" fill="#144542"/></g><g id="Polygon185395"><path d="m4.1 16.3l0 7.4l-1.1 0l0-7.4l-2.9 0l0-1.1l6.9 0l0 1.1l-2.9 0zm2.6 5.9c0-1.1.7-1.6 1.7-1.8c0 0 1.6-.2 1.6-.2c.3-.1.4-.2.4-.5c0-.5-.3-1-1.2-1c-.8 0-1.2.5-1.3 1.2c0 0-1.1-.3-1.1-.3c.1-1.1 1.1-1.8 2.4-1.8c1.7 0 2.4.9 2.4 2.1c0 0 0 2.9 0 2.9c0 .5 0 .8 0 .9c0 0-1.1 0-1.1 0c0-.1 0-.3 0-.8c-.3.4-.9 1-1.9 1c-1.2 0-1.9-.8-1.9-1.7c0 0 0 0 0 0zm3.7-1c.04.04 0-.2 0-.2c0 0-1.72.24-1.7.2c-.5.1-.9.4-.9.9c0 .4.4.8 1 .8c.9 0 1.6-.4 1.6-1.7zm6.6 1.8c-.3.6-1 .9-1.7.9c-1.3 0-2.2-1-2.2-2.3c.04-.03 0-3.7 0-3.7l1.2 0c0 0-.03 3.5 0 3.5c0 .8.3 1.5 1.3 1.5c.9 0 1.3-.6 1.3-1.5c.04.02 0-3.5 0-3.5l1.2 0c0 0-.03 4.74 0 4.7c0 .5 0 .9 0 1.1c0 0-1 0-1 0c-.1-.1-.1-.4-.1-.7c0 0 0 0 0 0zm4.3-2.2l-2.1-2.9l1.4 0l1.4 2.1l1.4-2.1l1.3 0c0 0-2.02 2.87-2 2.9c.3.4 1.8 2.4 2.1 2.9c0 .01-1.4 0-1.4 0l-1.4-2.1l-1.5 2.1l-1.3 0l2.1-2.9zm9.9 2.1c1.1 0 1.7-.9 1.7-2.1c0-1.2-.6-2-1.6-2c-1.1 0-1.7.8-1.7 2c0 1.2.6 2.1 1.6 2.1zm1.7-.1c-.2.6-.9 1.1-1.8 1.1c-1.7 0-2.7-1.4-2.7-3.1c0-1.6 1.1-3 2.7-3c1.1 0 1.6.5 1.8 1c0-.05 0-3.8 0-3.8l1.1 0c0 0 .02 7.64 0 7.6c0 .6.1 1 .1 1.1c0 0-1.1 0-1.1 0c0-.1-.1-.4-.1-.8c0 0 0-.1 0-.1zm6.9-2.6c0-.8-.5-1.4-1.6-1.4c-.9 0-1.5.7-1.5 1.4c0 0 3.1 0 3.1 0zm1.2 1.9c-.4 1-1.3 1.8-2.6 1.8c-1.6 0-2.9-1.1-2.9-3.1c0-1.8 1.3-3 2.7-3c1.8 0 2.8 1.2 2.8 3c0 .1 0 .3 0 .3c0 0-4.4 0-4.4 0c.1 1.1.8 1.8 1.8 1.8c.9 0 1.4-.5 1.6-1.2c0 0 1 .4 1 .4zm7.6-3c-.1 0-.3-.1-.4-.1c-1 0-1.6.5-1.6 1.8c-.03.02 0 2.9 0 2.9l-1.2 0l0-5.8l1.1 0c0 0 .05 1.04 0 1c.5-.8 1.2-1.1 1.8-1.1c.1 0 .3.1.3.1c0 0 0 1.2 0 1.2zm5.1 1.1c0-.8-.6-1.4-1.6-1.4c-1 0-1.5.7-1.6 1.4c0 0 3.2 0 3.2 0zm1.1 1.9c-.3 1-1.2 1.8-2.6 1.8c-1.5 0-2.9-1.1-2.9-3.1c0-1.8 1.3-3 2.8-3c1.8 0 2.8 1.2 2.8 3c0 .1-.1.3-.1.3c0 0-4.3 0-4.3 0c0 1.1.8 1.8 1.7 1.8c1 0 1.4-.5 1.6-1.2c0 0 1 .4 1 .4zm-2.3-4.9l-.9 0l1-1.8l1.4 0l-1.5 1.8zm5.3.7l1.3 0l0 1.1l-1.3 0c0 0 0 2.96 0 3c0 .5.2.7.8.7c.2 0 .4 0 .5 0c0 0 0 1 0 1c-.1 0-.4.1-.8.1c-1 0-1.6-.6-1.6-1.7c-.02.02 0-3.1 0-3.1l-1.1 0l0-1.1c0 0 .28.04.3 0c.6 0 .9-.3.9-.9c-.03.05 0-.9 0-.9l1 0l0 1.8zm6.6 2.3c0-.8-.6-1.4-1.6-1.4c-1 0-1.5.7-1.6 1.4c0 0 3.2 0 3.2 0zm1.1 1.9c-.3 1-1.2 1.8-2.6 1.8c-1.5 0-2.9-1.1-2.9-3.1c0-1.8 1.3-3 2.8-3c1.8 0 2.8 1.2 2.8 3c0 .1-.1.3-.1.3c0 0-4.3 0-4.3 0c0 1.1.8 1.8 1.7 1.8c1 0 1.4-.5 1.6-1.2c0 0 1 .4 1 .4zm2.6 1.6l-1.1 0l0-5.8l1.1 0c0 0 0 .86 0 .9c.4-.8 1.1-1 1.8-1c1.4 0 2 1 2 2.2c.04.05 0 3.7 0 3.7l-1.1 0c0 0 .01-3.46 0-3.5c0-.8-.3-1.4-1.3-1.4c-.9 0-1.4.7-1.4 1.6c.02-.03 0 3.3 0 3.3zm7.2-5.8l1.2 0l0 1.1l-1.2 0c0 0-.05 2.96 0 3c0 .5.2.7.8.7c.1 0 .3 0 .4 0c0 0 0 1 0 1c-.1 0-.4.1-.8.1c-1 0-1.6-.6-1.6-1.7c.02.02 0-3.1 0-3.1l-1.1 0l0-1.1c0 0 .33.04.3 0c.7 0 .9-.3.9-.9c.02.05 0-.9 0-.9l1.1 0l0 1.8zm2.7 5.8l0-5.8l1.1 0l0 5.8l-1.1 0zm.6-8.8c.4 0 .8.4.8.9c0 .4-.4.8-.8.8c-.5 0-.9-.4-.9-.8c0-.5.4-.9.9-.9zm6.7 5.9c0-1.3-.8-2-1.8-2c-1 0-1.8.7-1.8 2c0 1.4.8 2.1 1.8 2.1c1 0 1.8-.7 1.8-2.1zm1.2 0c0 1.8-1.3 3.1-3 3.1c-1.7 0-2.9-1.3-2.9-3.1c0-1.7 1.2-3 2.9-3c1.7 0 3 1.3 3 3zm2.5 2.9l-1.1 0l0-5.8l1.1 0c0 0 0 .86 0 .9c.4-.8 1.1-1 1.8-1c1.4 0 2 1 2 2.2c.04.05 0 3.7 0 3.7l-1.1 0c0 0 .02-3.46 0-3.5c0-.8-.3-1.4-1.3-1.4c-.9 0-1.4.7-1.4 1.6c.03-.03 0 3.3 0 3.3zm12.5-3.5c0-.8-.5-1.4-1.6-1.4c-.9 0-1.5.7-1.5 1.4c0 0 3.1 0 3.1 0zm1.2 1.9c-.4 1-1.3 1.8-2.6 1.8c-1.6 0-2.9-1.1-2.9-3.1c0-1.8 1.3-3 2.7-3c1.8 0 2.8 1.2 2.8 3c0 .1 0 .3 0 .3c0 0-4.4 0-4.4 0c.1 1.1.8 1.8 1.8 1.8c.9 0 1.4-.5 1.6-1.2c0 0 1 .4 1 .4zm2.6 1.6l-1.2 0l0-5.8l1.2 0c0 0-.05.86 0 .9c.4-.8 1.1-1 1.7-1c1.4 0 2.1 1 2.1 2.2c-.01.05 0 3.7 0 3.7l-1.1 0c0 0-.04-3.46 0-3.5c0-.8-.4-1.4-1.4-1.4c-.9 0-1.3.7-1.3 1.6c-.03-.03 0 3.3 0 3.3z" stroke="none" fill="#144542"/></g><g id="Polygon185394"><path d="m3.6 6l-1.1 1.3l0 2.4l-1.5 0l0-8.5l1.5 0l0 4.1l3.6-4.1l1.9 0l-3.4 3.8l3.5 4.7l-1.9 0l-2.6-3.7zm9.2-.9c.9 0 1.4-.5 1.4-1.3c0-.8-.5-1.3-1.4-1.3c-.02-.03-1.5 0-1.5 0l0 2.6c0 0 1.48.01 1.5 0zm-1.5 1.3l0 3.3l-1.5 0l0-8.5c0 0 3.2 0 3.2 0c1.6 0 2.7 1.1 2.7 2.6c0 1.5-1.1 2.6-2.7 2.6c0-.02-1.7 0-1.7 0zm6.3 3.3l0-8.5l1.5 0l0 8.5l-1.5 0zm10.1-1.1c.9 0 1.6-.7 1.6-1.8c0-1.2-.7-1.9-1.6-1.9c-.9 0-1.6.8-1.6 1.9c0 1.1.7 1.8 1.6 1.8zm2.9 0c0 .6 0 1 .1 1.1c0 0-1.4 0-1.4 0c0-.1 0-.5 0-.7c-.3.4-.9.9-1.7.9c-1.7 0-2.9-1.4-2.9-3.1c0-1.7 1.2-3.1 2.8-3.1c1 0 1.6.5 1.7.8c.04.05 0-3.5 0-3.5l1.4 0c0 0 0 7.64 0 7.6zm6.3-2.5c-.1-.6-.5-1.3-1.5-1.3c-.9 0-1.4.7-1.4 1.3c0 0 2.9 0 2.9 0zm1.3 1.9c-.3 1.1-1.2 1.9-2.6 1.9c-1.6 0-3-1.2-3-3.1c0-1.9 1.3-3.1 2.8-3.1c1.8 0 2.9 1.2 2.9 3c0 .2-.1.4-.1.5c0 0-4.2 0-4.2 0c0 .9.7 1.5 1.6 1.5c.8 0 1.2-.5 1.4-1c0 0 1.2.3 1.2.3zm5.6 1.7l0-5.8l1.3 0c0 0 .01.71 0 .7c.3-.6 1.1-.9 1.7-.9c.8 0 1.5.3 1.8 1c.4-.7 1.1-1 1.9-1c1 0 2 .7 2 2.2c.05.02 0 3.8 0 3.8l-1.3 0c0 0 0-3.56 0-3.6c0-.6-.3-1.2-1.1-1.2c-.8 0-1.2.6-1.2 1.3c-.04.04 0 3.5 0 3.5l-1.4 0c0 0 0-3.56 0-3.6c0-.6-.3-1.2-1.1-1.2c-.8 0-1.2.6-1.2 1.3c-.05.04 0 3.5 0 3.5l-1.4 0zm14.9-3.6c0-.6-.5-1.3-1.4-1.3c-.9 0-1.4.7-1.5 1.3c0 0 2.9 0 2.9 0zm1.3 1.9c-.3 1.1-1.2 1.9-2.6 1.9c-1.6 0-3-1.2-3-3.1c0-1.9 1.4-3.1 2.8-3.1c1.8 0 2.9 1.2 2.9 3c0 .2 0 .4 0 .5c0 0-4.3 0-4.3 0c0 .9.7 1.5 1.6 1.5c.8 0 1.3-.5 1.4-1c0 0 1.2.3 1.2.3zm2.7-.2c.1.5.5 1 1.2 1c.6 0 .9-.3.9-.7c0-.3-.2-.5-.7-.6c0 0-.9-.2-.9-.2c-1-.3-1.5-.9-1.5-1.7c0-1.1.9-1.9 2.1-1.9c1.6 0 2.2 1 2.3 1.6c0 0-1.2.4-1.2.4c-.1-.4-.3-.9-1.1-.9c-.5 0-.8.3-.8.6c0 .4.2.6.6.7c0 0 .9.1.9.1c1.1.3 1.6 1 1.6 1.8c0 .9-.7 1.9-2.2 1.9c-1.7 0-2.3-1.1-2.4-1.8c0 0 1.2-.3 1.2-.3zm9.2 1.3c-.3.5-1 .8-1.7.8c-1.4 0-2.2-1.1-2.2-2.4c-.01.05 0-3.6 0-3.6l1.4 0c0 0-.02 3.4 0 3.4c0 .7.3 1.3 1.2 1.3c.8 0 1.2-.5 1.2-1.3c-.02.02 0-3.4 0-3.4l1.4 0c0 0-.03 4.74 0 4.7c0 .5 0 .9 0 1.1c0 0-1.3 0-1.3 0c0-.1 0-.4 0-.6c0 0 0 0 0 0zm7.1-3.9c-.2 0-.3 0-.5 0c-1 0-1.5.6-1.5 1.7c-.03.02 0 2.8 0 2.8l-1.4 0l0-5.8l1.3 0c0 0 .03.9 0 .9c.3-.6 1-1 1.7-1c.2 0 .3 0 .4 0c0 0 0 1.4 0 1.4zm5.5.9c0-.6-.4-1.3-1.4-1.3c-.9 0-1.4.7-1.4 1.3c0 0 2.8 0 2.8 0zm1.4 1.9c-.3 1.1-1.3 1.9-2.7 1.9c-1.6 0-3-1.2-3-3.1c0-1.9 1.4-3.1 2.9-3.1c1.8 0 2.8 1.2 2.8 3c0 .2 0 .4 0 .5c0 0-4.3 0-4.3 0c.1.9.8 1.5 1.6 1.5c.9 0 1.3-.5 1.5-1c0 0 1.2.3 1.2.3z" stroke="none" fill="#144542"/></g></svg>