<?xml version="1.0" standalone="no"?><!DOCTYPE svg PUBLIC "-//W3C//DTD SVG 1.1//EN" "http://www.w3.org/Graphics/SVG/1.1/DTD/svg11.dtd"><svg xmlns="http://www.w3.org/2000/svg" version="1.1" width="34.2px" height="22.6px" viewBox="0 -3 34.2 22.6" style="top:-3px"><desc>61 %</desc><defs/><g id="Polygon165567"><path d="m11.3 3.5c-.4-.2-.9-.3-1.6-.3c-1.8 0-3 1.3-3.1 3.1c.4-.6 1.2-1.1 2.3-1.1c1.7 0 3 1 3 2.9c0 1.9-1.5 3-3.2 3c-1.7 0-3.4-1.1-3.4-4c0-3.3 1.9-5.1 4.5-5.1c.8 0 1.5.2 1.9.5c0 0-.4 1-.4 1zm-2.6 6.5c1 0 1.9-.7 1.9-1.9c0-1.1-.9-1.8-1.9-1.8c-1 0-1.9.7-1.9 1.8c0 1.2.9 1.9 1.9 1.9zm6.2.9l0-6.1l-2.2 0c0 0 .04-.98 0-1c1.3 0 2.1-.7 2.3-1.6c0-.03 1.2 0 1.2 0l0 8.7l-1.3 0zm6.6-5.6c.6 0 1-.5 1-1.1c0-.6-.4-1.1-1-1.1c-.6 0-1.1.5-1.1 1.1c0 .6.5 1.1 1.1 1.1zm0-3.2c1.1 0 2.2.9 2.2 2.1c0 1.2-1.1 2.1-2.2 2.1c-1.2 0-2.2-.9-2.2-2.1c0-1.2 1-2.1 2.2-2.1zm5.3 7.9c.6 0 1.1-.5 1.1-1.1c0-.6-.5-1.1-1.1-1.1c-.5 0-1 .5-1 1.1c0 .6.5 1.1 1 1.1zm0-3.2c1.2 0 2.2.9 2.2 2.1c0 1.2-1 2.1-2.2 2.1c-1.1 0-2.1-.9-2.1-2.1c0-1.2 1-2.1 2.1-2.1zm-6.4 4.1l6.3-8.7l1.2 0l-6.2 8.7l-1.3 0z" stroke="none" fill="#b499f3"/></g></svg>