<?xml version="1.0" standalone="no"?><!DOCTYPE svg PUBLIC "-//W3C//DTD SVG 1.1//EN" "http://www.w3.org/Graphics/SVG/1.1/DTD/svg11.dtd"><svg xmlns="http://www.w3.org/2000/svg" version="1.1" width="527px" height="31.2px" viewBox="0 -4 527 31.2" style="top:-4px"><desc>sommaire</desc><defs/><g id="Polygon161085"><path d="m230 7.7c-.1-.5-.5-1.3-1.7-1.3c-.8 0-1.4.6-1.4 1.2c0 .5.3 1 1 1.1c0 0 1.2.2 1.2.2c1.5.3 2.3 1.3 2.3 2.5c0 1.3-1.1 2.5-3 2.5c-2.2 0-3.1-1.3-3.3-2.6c0 0 1.4-.3 1.4-.3c0 .8.7 1.6 1.9 1.6c1 0 1.5-.5 1.5-1.1c0-.6-.4-1-1.1-1.2c0 0-1.2-.2-1.2-.2c-1.3-.3-2.1-1.1-2.1-2.4c0-1.4 1.2-2.6 2.8-2.6c2 0 2.8 1.3 3 2.2c0 0-1.3.4-1.3.4zm8.3 4.9c1.4 0 2.8-1 2.8-3.1c0-2-1.4-3-2.8-3c-1.4 0-2.8 1-2.8 3c0 2.1 1.4 3.1 2.8 3.1zm0-7.5c2.2 0 4.3 1.7 4.3 4.4c0 2.8-2.1 4.4-4.3 4.4c-2.2 0-4.3-1.6-4.3-4.4c0-2.7 2.1-4.4 4.3-4.4zm15.4 8.7l0-6.3l-2.7 6.3l-1.2 0l-2.6-6.2l0 6.2l-1.4 0l0-8.5l1.9 0l2.7 6.5l2.7-6.5l2 0l0 8.5l-1.4 0zm13 0l0-6.3l-2.7 6.3l-1.2 0l-2.6-6.2l0 6.2l-1.4 0l0-8.5l1.9 0l2.7 6.5l2.7-6.5l2 0l0 8.5l-1.4 0zm10.1-2.2l-3.6 0l-.8 2.2l-1.5 0l3.3-8.5l1.7 0l3.2 8.5l-1.5 0l-.8-2.2zm-3.1-1.3l2.6 0l-1.3-3.4l-1.3 3.4zm8.3 3.5l0-8.5l1.4 0l0 8.5l-1.4 0zm7.6-3.4l-1 0l0 3.4l-1.5 0l0-8.5c0 0 3.28.02 3.3 0c1.6 0 2.6 1.1 2.6 2.6c0 1.2-.7 2.1-1.9 2.4c.02-.02 1.9 3.5 1.9 3.5l-1.6 0l-1.8-3.4zm.5-1.2c.9 0 1.5-.6 1.5-1.3c0-.8-.6-1.3-1.5-1.3c.02-.02-1.5 0-1.5 0l0 2.6c0 0 1.52-.04 1.5 0zm6.1 4.6l0-8.5l5.3 0l0 1.3l-3.8 0l0 2.3l3.4 0l0 1.3l-3.4 0l0 2.2l3.8 0l0 1.4l-5.3 0z" stroke="none" fill="#144542"/></g></svg>