<?xml version="1.0" standalone="no"?><!DOCTYPE svg PUBLIC "-//W3C//DTD SVG 1.1//EN" "http://www.w3.org/Graphics/SVG/1.1/DTD/svg11.dtd"><svg xmlns="http://www.w3.org/2000/svg" version="1.1" width="161.5px" height="33.8px" viewBox="0 -3 161.5 33.8" style="top:-3px"><desc>Banque &amp; Assurance</desc><defs/><g id="Polygon174754"><path d="m4.7 1.5c1.9 0 3.1 1.1 3.1 2.7c0 1.1-.7 1.9-1.6 2.3c1.2.2 1.9 1.3 1.9 2.4c0 1.7-1.3 2.8-3.2 2.8c0 .03-3.6 0-3.6 0l0-10.2c0 0 3.35-.05 3.4 0zm-.2 4.4c1.1 0 1.8-.6 1.8-1.6c0-1-.7-1.6-1.9-1.6c.04 0-1.7 0-1.7 0l0 3.2c0 0 1.79.05 1.8 0zm.2 4.6c1.1 0 1.9-.7 1.9-1.7c0-.9-.6-1.6-1.8-1.6c-.04-.04-2.1 0-2.1 0l0 3.3c0 0 2-.02 2 0zm4.6-.6c0-1.3.9-2 2.1-2.2c0 0 1.9-.2 1.9-.2c.4-.1.5-.3.5-.6c0-.6-.4-1.2-1.5-1.2c-.9 0-1.5.6-1.5 1.4c0 0-1.3-.3-1.3-.3c.1-1.3 1.3-2.3 2.8-2.3c2.1 0 2.9 1.2 2.9 2.6c0 0 0 3.5 0 3.5c0 .6.1 1 .1 1.1c0 0-1.3 0-1.3 0c-.1-.1-.1-.4-.1-.9c-.3.5-1 1.1-2.3 1.1c-1.4 0-2.3-.9-2.3-2c0 0 0 0 0 0zm4.5-1.2c.05.04 0-.3 0-.3c0 0-2.08.34-2.1.3c-.6.1-1 .5-1 1.1c0 .5.4 1 1.1 1c1.1 0 2-.5 2-2.1zm4.9 3l-1.4 0l0-6.9l1.4 0c0 0-.04.96 0 1c.5-.9 1.3-1.2 2.1-1.2c1.7 0 2.5 1.2 2.5 2.7c0 .01 0 4.4 0 4.4l-1.4 0c0 0 .04-4.16 0-4.2c0-.9-.4-1.7-1.6-1.7c-1.1 0-1.6.8-1.6 1.9c-.01 0 0 4 0 4zm11.7 2.8c0 0-.02-3.75 0-3.8c-.4.8-1.2 1.2-2.2 1.2c-2 0-3.3-1.6-3.3-3.7c0-2 1.2-3.6 3.3-3.6c1.2 0 1.9.6 2.2 1.2c.01.03 0-1 0-1l1.3 0l0 9.7l-1.3 0zm-2.1-3.8c1.3 0 2.1-1 2.1-2.5c0-1.4-.8-2.4-2.1-2.4c-1.2 0-2 1-2 2.4c0 1.5.8 2.5 2 2.5zm10.2.2c-.4.7-1.2 1-2.1 1c-1.6 0-2.6-1.2-2.6-2.7c.03-.05 0-4.4 0-4.4l1.4 0c0 0-.01 4.15 0 4.1c0 1 .4 1.8 1.6 1.8c1.1 0 1.6-.7 1.6-1.7c.03-.04 0-4.2 0-4.2l1.4 0c0 0-.01 5.64 0 5.6c0 .6 0 1.1.1 1.3c0 0-1.3 0-1.3 0c-.1-.1-.1-.5-.1-.8c0 0 0 0 0 0zm8.2-3.4c0-1-.6-1.8-1.9-1.8c-1.1 0-1.8.9-1.9 1.8c0 0 3.8 0 3.8 0zm1.4 2.2c-.4 1.3-1.5 2.2-3.1 2.2c-1.9 0-3.5-1.3-3.5-3.7c0-2.2 1.5-3.7 3.3-3.7c2.2 0 3.4 1.5 3.4 3.7c0 .2-.1.3-.1.4c0 0-5.2 0-5.2 0c0 1.3.9 2.1 2.1 2.1c1.1 0 1.7-.6 1.9-1.4c0 0 1.2.4 1.2.4zm10.6.7c-.9.9-1.8 1.5-2.9 1.5c-2 0-3-1.3-3-2.6c0-1.4.7-2.1 1.8-2.9c.01.01.2-.1.2-.1c0 0-.24-.21-.2-.2c-.5-.5-1.3-1.3-1.3-2.3c0-1.7 1.4-2.6 2.7-2.6c1.5 0 2.7 1 2.7 2.5c0 1.1-.7 1.8-1.4 2.3c-.04.02-.6.4-.6.4l2 2l2.2-2.6l0 1.9l-1.3 1.6l2.3 2.4l-1.9 0c0 0-1.35-1.33-1.3-1.3zm-1-.9c0-.03 0-.1 0-.1l-2-2.2c0 0-.57.41-.6.4c-.5.4-.8.9-.8 1.6c0 .7.5 1.4 1.5 1.4c.8 0 1.3-.5 1.9-1.1zm-2.2-4.4c.02.05.3.4.3.4c0 0 .74-.53.7-.5c.6-.5.8-.9.8-1.3c0-.7-.5-1.3-1.3-1.3c-.6 0-1.3.5-1.3 1.3c0 .6.5 1.1.8 1.4zm16.7 3.8l-4.5 0l-1.1 2.8l-1.5 0l4.1-10.2l1.6 0l4.1 10.2l-1.5 0l-1.2-2.8zm-4-1.4l3.5 0l-1.8-4.6l-1.7 4.6zm8.6 2c.1.7.6 1.3 1.6 1.3c.8 0 1.2-.4 1.2-.9c0-.5-.3-.8-.9-.9c0 0-1.2-.3-1.2-.3c-1.1-.2-1.7-1-1.7-2c0-1.1 1.1-2.2 2.4-2.2c2 0 2.5 1.3 2.7 1.9c0 0-1.2.5-1.2.5c-.1-.4-.4-1.2-1.5-1.2c-.7 0-1.1.4-1.1.9c0 .4.2.8.8.9c0 0 1.1.2 1.1.2c1.3.3 1.9 1.1 1.9 2.1c0 1-.8 2.1-2.5 2.1c-1.9 0-2.7-1.2-2.9-2c0 0 1.3-.4 1.3-.4zm6.5 0c.1.7.7 1.3 1.7 1.3c.7 0 1.1-.4 1.1-.9c0-.5-.3-.8-.9-.9c0 0-1.1-.3-1.1-.3c-1.1-.2-1.8-1-1.8-2c0-1.1 1.1-2.2 2.5-2.2c1.9 0 2.5 1.3 2.6 1.9c0 0-1.2.5-1.2.5c0-.4-.3-1.2-1.4-1.2c-.7 0-1.2.4-1.2.9c0 .4.3.8.8.9c0 0 1.2.2 1.2.2c1.2.3 1.9 1.1 1.9 2.1c0 1-.8 2.1-2.6 2.1c-1.9 0-2.7-1.2-2.8-2c0 0 1.2-.4 1.2-.4zm10.5 1.4c-.3.7-1.2 1-2 1c-1.7 0-2.6-1.2-2.6-2.7c-.04-.05 0-4.4 0-4.4l1.3 0c0 0 .02 4.15 0 4.1c0 1 .5 1.8 1.6 1.8c1.1 0 1.7-.7 1.7-1.7c-.04-.04 0-4.2 0-4.2l1.3 0c0 0 .02 5.64 0 5.6c0 .6.1 1.1.1 1.3c0 0-1.3 0-1.3 0c0-.1-.1-.5-.1-.8c0 0 0 0 0 0zm7.5-4.8c-.2 0-.4 0-.6 0c-1.1 0-1.9.6-1.9 2.1c0 .04 0 3.5 0 3.5l-1.4 0l0-6.9l1.4 0c0 0-.03 1.17 0 1.2c.5-1.1 1.4-1.4 2.1-1.4c.1 0 .3.1.4.1c0 0 0 1.4 0 1.4zm1 3.8c0-1.3.9-2 2.1-2.2c0 0 1.9-.2 1.9-.2c.4-.1.6-.3.6-.6c0-.6-.5-1.2-1.5-1.2c-1 0-1.5.6-1.6 1.4c0 0-1.3-.3-1.3-.3c.1-1.3 1.3-2.3 2.8-2.3c2.1 0 2.9 1.2 2.9 2.6c0 0 0 3.5 0 3.5c0 .6.1 1 .1 1.1c0 0-1.3 0-1.3 0c0-.1-.1-.4-.1-.9c-.3.5-1 1.1-2.2 1.1c-1.5 0-2.4-.9-2.4-2c0 0 0 0 0 0zm4.6-1.2c-.03.04 0-.3 0-.3c0 0-2.17.34-2.2.3c-.5.1-1 .5-1 1.1c0 .5.5 1 1.1 1c1.2 0 2.1-.5 2.1-2.1zm4.8 3l-1.4 0l0-6.9l1.4 0c0 0-.02.96 0 1c.5-.9 1.3-1.2 2.1-1.2c1.7 0 2.5 1.2 2.5 2.7c.02.01 0 4.4 0 4.4l-1.3 0c0 0-.04-4.16 0-4.2c0-.9-.4-1.7-1.7-1.7c-1 0-1.6.8-1.6 1.9c.01 0 0 4 0 4zm7.6-3.5c0 1.6 1 2.5 2.1 2.5c1.3 0 1.8-.9 2-1.4c0 0 1.2.5 1.2.5c-.4 1-1.4 2.1-3.2 2.1c-2 0-3.5-1.5-3.5-3.7c0-2.1 1.5-3.7 3.5-3.7c1.9 0 2.8 1.2 3.1 2.3c0 0-1.2.5-1.2.5c-.2-.7-.7-1.5-1.9-1.5c-1.1 0-2.1.8-2.1 2.4zm11.5-.7c0-1-.7-1.8-1.9-1.8c-1.2 0-1.9.9-1.9 1.8c0 0 3.8 0 3.8 0zm1.4 2.2c-.4 1.3-1.5 2.2-3.2 2.2c-1.8 0-3.5-1.3-3.5-3.7c0-2.2 1.6-3.7 3.4-3.7c2.1 0 3.3 1.5 3.3 3.7c0 .2 0 .3 0 .4c0 0-5.3 0-5.3 0c.1 1.3 1 2.1 2.1 2.1c1.2 0 1.7-.6 2-1.4c0 0 1.2.4 1.2.4z" stroke="none" fill="#144542"/></g></svg>