<?xml version="1.0" standalone="no"?><!DOCTYPE svg PUBLIC "-//W3C//DTD SVG 1.1//EN" "http://www.w3.org/Graphics/SVG/1.1/DTD/svg11.dtd"><svg xmlns="http://www.w3.org/2000/svg" version="1.1" width="174.2px" height="60.8px" viewBox="0 -3 174.2 60.8" style="top:-3px"><desc>Des publics accompagn s</desc><defs/><g id="Polygon180895"><path d="m4.8 10.1c1.8 0 3.3-1.1 3.3-3.5c0-2.4-1.5-3.6-3.3-3.6c.01.04-1.8 0-1.8 0l0 7.1c0 0 1.8.04 1.8 0zm-3.6 1.6l0-10.2c0 0 3.67-.05 3.7 0c2.8 0 5 1.8 5 5.1c0 3.3-2.3 5.1-5 5.1c-.04.03-3.7 0-3.7 0zm15-4.3c0-.8-.6-1.5-1.7-1.5c-1.1 0-1.7.8-1.7 1.5c0 0 3.4 0 3.4 0zm1.6 2.3c-.3 1.2-1.5 2.2-3.2 2.2c-1.9 0-3.6-1.3-3.6-3.7c0-2.3 1.7-3.7 3.5-3.7c2.1 0 3.4 1.4 3.4 3.6c0 .3 0 .5 0 .6c0 0-5.2 0-5.2 0c.1 1 .9 1.8 1.9 1.8c1.1 0 1.6-.5 1.8-1.2c0 0 1.4.4 1.4.4zm2.6-.3c0 .6.5 1.2 1.4 1.2c.7 0 1.1-.4 1.1-.8c0-.4-.3-.7-.9-.8c0 0-1-.2-1-.2c-1.3-.3-1.9-1.1-1.9-2.1c0-1.2 1.1-2.2 2.6-2.2c2 0 2.6 1.2 2.7 1.9c0 0-1.4.4-1.4.4c-.1-.4-.4-1-1.3-1c-.6 0-1 .3-1 .8c0 .4.3.6.7.7c0 0 1.1.2 1.1.2c1.3.3 2 1.1 2 2.2c0 1.1-.9 2.2-2.7 2.2c-2 0-2.8-1.3-2.9-2.1c0 0 1.5-.4 1.5-.4zm9.4 5.1l0-9.8l1.6 0c0 0-.02.93 0 .9c.3-.6 1.1-1.1 2.2-1.1c2.1 0 3.3 1.6 3.3 3.7c0 2.1-1.3 3.7-3.3 3.7c-1 0-1.8-.4-2.2-1c.02.03 0 3.6 0 3.6l-1.6 0zm5.4-6.3c0-1.3-.8-2.2-1.9-2.2c-1.1 0-1.9.9-1.9 2.2c0 1.3.8 2.2 1.9 2.2c1.1 0 1.9-.9 1.9-2.2c0 0 0 0 0 0zm7.9 2.7c-.4.7-1.2 1-2 1c-1.7 0-2.7-1.2-2.7-2.8c0 .02 0-4.4 0-4.4l1.7 0c0 0-.02 4.12 0 4.1c0 .9.4 1.6 1.4 1.6c1 0 1.5-.6 1.5-1.6c-.02.05 0-4.1 0-4.1l1.7 0c0 0-.04 5.74 0 5.7c0 .6 0 1.1 0 1.3c0 0-1.6 0-1.6 0c0-.1 0-.5 0-.8c0 0 0 0 0 0zm3.7.8l0-10.5l1.7 0c0 0-.01 4.34 0 4.3c.3-.5 1.1-1 2.2-1c2.1 0 3.3 1.6 3.3 3.7c0 2.1-1.3 3.7-3.4 3.7c-1 0-1.7-.4-2.1-1.1c-.03-.01 0 .9 0 .9l-1.7 0zm3.6-5.7c-1.1 0-1.9.8-1.9 2.2c0 1.4.8 2.2 1.9 2.2c1.1 0 1.9-.8 1.9-2.2c0-1.4-.8-2.2-1.9-2.2zm5.2 5.7l0-10.5l1.7 0l0 10.5l-1.7 0zm3.8 0l0-7l1.7 0l0 7l-1.7 0zm.9-10.6c.6 0 1.1.5 1.1 1.1c0 .6-.5 1.1-1.1 1.1c-.6 0-1.1-.5-1.1-1.1c0-.6.5-1.1 1.1-1.1zm4.1 7.1c0 1.4.9 2.2 2 2.2c1.1 0 1.6-.8 1.8-1.3c0 0 1.4.5 1.4.5c-.3 1.1-1.4 2.3-3.2 2.3c-2.1 0-3.7-1.6-3.7-3.7c0-2.2 1.6-3.7 3.6-3.7c1.9 0 3 1.1 3.3 2.3c0 0-1.5.5-1.5.5c-.2-.6-.7-1.3-1.7-1.3c-1.1 0-2 .8-2 2.2zm7.6 1.2c0 .6.5 1.2 1.4 1.2c.7 0 1.1-.4 1.1-.8c0-.4-.3-.7-.9-.8c0 0-1-.2-1-.2c-1.2-.3-1.9-1.1-1.9-2.1c0-1.2 1.1-2.2 2.6-2.2c2 0 2.6 1.2 2.7 1.9c0 0-1.4.4-1.4.4c-.1-.4-.4-1-1.3-1c-.6 0-1 .3-1 .8c0 .4.3.6.7.7c0 0 1.1.2 1.1.2c1.3.3 2 1.1 2 2.2c0 1.1-.9 2.2-2.7 2.2c-2 0-2.8-1.3-2.9-2.1c0 0 1.5-.4 1.5-.4zm11.1-1.7c0 0 1.8-.3 1.8-.3c.4 0 .5-.3.5-.5c0-.6-.4-1.1-1.3-1.1c-.9 0-1.4.6-1.5 1.3c0 0-1.5-.3-1.5-.3c.1-1.3 1.2-2.3 2.9-2.3c2.2 0 3 1.2 3 2.6c0 0 0 3.5 0 3.5c0 .6.1 1.1.1 1.1c0 0-1.5 0-1.5 0c-.1 0-.1-.3-.1-.9c-.3.6-1 1.1-2.2 1.1c-1.5 0-2.4-1-2.4-2.1c0-1.2 1-1.9 2.2-2.1zm2.3 1.1c-.01 0 0-.3 0-.3c0 0-1.85.26-1.9.3c-.5 0-.9.3-.9.9c0 .5.4.9 1 .9c1 0 1.8-.4 1.8-1.8zm4.8-.6c0 1.4.9 2.2 2 2.2c1.1 0 1.6-.8 1.7-1.3c0 0 1.5.5 1.5.5c-.3 1.1-1.4 2.3-3.2 2.3c-2.1 0-3.7-1.6-3.7-3.7c0-2.2 1.6-3.7 3.6-3.7c1.9 0 3 1.1 3.2 2.3c0 0-1.5.5-1.5.5c-.1-.6-.6-1.3-1.7-1.3c-1 0-1.9.8-1.9 2.2zm7.8 0c0 1.4.9 2.2 1.9 2.2c1.1 0 1.6-.8 1.8-1.3c0 0 1.5.5 1.5.5c-.4 1.1-1.4 2.3-3.3 2.3c-2 0-3.6-1.6-3.6-3.7c0-2.2 1.6-3.7 3.6-3.7c1.9 0 2.9 1.1 3.2 2.3c0 0-1.5.5-1.5.5c-.1-.6-.6-1.3-1.7-1.3c-1 0-1.9.8-1.9 2.2zm11.7 0c0-1.5-1-2.2-2-2.2c-1 0-2 .7-2 2.2c0 1.5 1 2.2 2 2.2c1 0 2-.7 2-2.2zm1.7 0c0 2.2-1.6 3.7-3.7 3.7c-2.1 0-3.6-1.5-3.6-3.7c0-2.2 1.5-3.7 3.6-3.7c2.1 0 3.7 1.5 3.7 3.7zm1.6 3.5l0-7l1.6 0c0 0 .01.87 0 .9c.4-.8 1.3-1.1 2.1-1.1c.9 0 1.7.4 2.1 1.2c.6-.9 1.4-1.2 2.3-1.2c1.3 0 2.5.8 2.5 2.6c0 .05 0 4.6 0 4.6l-1.6 0c0 0-.03-4.28 0-4.3c0-.8-.4-1.4-1.4-1.4c-.9 0-1.5.7-1.5 1.5c.04.04 0 4.2 0 4.2l-1.6 0c0 0-.01-4.28 0-4.3c0-.8-.4-1.4-1.4-1.4c-.9 0-1.4.6-1.4 1.5c-.04.04 0 4.2 0 4.2l-1.7 0zm12.7 2.8l0-9.8l1.6 0c0 0-.02.93 0 .9c.3-.6 1.1-1.1 2.2-1.1c2.1 0 3.3 1.6 3.3 3.7c0 2.1-1.3 3.7-3.3 3.7c-1 0-1.8-.4-2.2-1c.02.03 0 3.6 0 3.6l-1.6 0zm5.4-6.3c0-1.3-.8-2.2-1.9-2.2c-1.1 0-1.9.9-1.9 2.2c0 1.3.8 2.2 1.9 2.2c1.1 0 1.9-.9 1.9-2.2c0 0 0 0 0 0zm5-.5c0 0 1.8-.3 1.8-.3c.4 0 .5-.3.5-.5c0-.6-.4-1.1-1.3-1.1c-.9 0-1.4.6-1.4 1.3c0 0-1.6-.3-1.6-.3c.2-1.3 1.3-2.3 3-2.3c2.2 0 3 1.2 3 2.6c0 0 0 3.5 0 3.5c0 .6.1 1.1.1 1.1c0 0-1.6 0-1.6 0c0 0-.1-.3-.1-.9c-.3.6-1 1.1-2.1 1.1c-1.5 0-2.4-1-2.4-2.1c0-1.2.9-1.9 2.1-2.1zm2.3 1.1c.04 0 0-.3 0-.3c0 0-1.8.26-1.8.3c-.5 0-.9.3-.9.9c0 .5.3.9 1 .9c.9 0 1.7-.4 1.7-1.8zm4.8 2.9c.1.9.8 1.5 1.7 1.5c1.4 0 2-.6 2-2.1c0 0 0-.7 0-.7c-.3.5-1 1-2 1c-1.9 0-3.3-1.4-3.3-3.4c0-1.9 1.3-3.5 3.3-3.5c1.1 0 1.8.5 2.1 1.1c-.03-.03 0-.9 0-.9l1.6 0c0 0-.01 6.36 0 6.4c0 1.8-1 3.6-3.6 3.6c-1.9 0-3.2-1.2-3.4-2.6c0 0 1.6-.4 1.6-.4zm3.8-3.7c0-1.2-.8-2-1.8-2c-1.1 0-1.9.8-1.9 2c0 1.2.8 2 1.9 2c1 0 1.8-.8 1.8-2zm5.3 3.7l-1.6 0l0-7l1.6 0c0 0-.01.91 0 .9c.5-.8 1.3-1.1 2.1-1.1c1.7 0 2.5 1.2 2.5 2.8c.03-.04 0 4.4 0 4.4l-1.7 0c0 0 .05-4.15 0-4.1c0-.9-.3-1.6-1.4-1.6c-1 0-1.5.7-1.5 1.7c.03-.05 0 4 0 4zm10.2-7.9l-1.4 0l1.3-2.2l2 0l-1.9 2.2zm1.1 3.6c0-.8-.6-1.5-1.7-1.5c-1.1 0-1.7.8-1.8 1.5c0 0 3.5 0 3.5 0zm1.6 2.3c-.4 1.2-1.5 2.2-3.2 2.2c-1.9 0-3.6-1.3-3.6-3.7c0-2.3 1.7-3.7 3.5-3.7c2.1 0 3.4 1.4 3.4 3.6c0 .3 0 .5 0 .6c0 0-5.2 0-5.2 0c0 1 .9 1.8 1.9 1.8c1.1 0 1.6-.5 1.8-1.2c0 0 1.4.4 1.4.4zm2.6-.3c0 .6.5 1.2 1.4 1.2c.7 0 1.1-.4 1.1-.8c0-.4-.3-.7-.9-.8c0 0-1-.2-1-.2c-1.3-.3-1.9-1.1-1.9-2.1c0-1.2 1.1-2.2 2.6-2.2c2 0 2.6 1.2 2.7 1.9c0 0-1.4.4-1.4.4c-.1-.4-.4-1-1.3-1c-.6 0-1 .3-1 .8c0 .4.2.6.7.7c0 0 1.1.2 1.1.2c1.3.3 2 1.1 2 2.2c0 1.1-.9 2.2-2.7 2.2c-2 0-2.8-1.3-2.9-2.1c0 0 1.5-.4 1.5-.4z" stroke="none" fill="#144542"/></g></svg>