<?xml version="1.0" standalone="no"?><!DOCTYPE svg PUBLIC "-//W3C//DTD SVG 1.1//EN" "http://www.w3.org/Graphics/SVG/1.1/DTD/svg11.dtd"><svg xmlns="http://www.w3.org/2000/svg" version="1.1" width="168px" height="20.6px" viewBox="0 -3 168 20.6" style="top:-3px"><desc>entreprises</desc><defs/><g id="Polygon173574"><path d="m54.5 10.9l0-6.7l4.1 0l0 .9l-3.1 0l0 2l2.8 0l0 .9l-2.8 0l0 2.1l3.1 0l0 .8l-4.1 0zm10.1 0l-3.7-5.4l0 5.4l-.9 0l0-6.7l1.3 0l3.3 5.2l0-5.2l.9 0l0 6.7l-.9 0zm5-5.8l0 5.8l-.9 0l0-5.8l-2.2 0l0-.9l5.4 0l0 .9l-2.3 0zm5.2 3.1l-1.1 0l0 2.7l-.9 0l0-6.7c0 0 2.54.02 2.5 0c1.3 0 2.1.9 2.1 2c0 1-.6 1.7-1.6 1.9c-.04.01 1.6 2.8 1.6 2.8l-1.1 0l-1.5-2.7zm.4-.9c.7 0 1.2-.4 1.2-1.1c0-.7-.5-1.1-1.2-1.1c-.03-.04-1.5 0-1.5 0l0 2.2c0 0 1.47.05 1.5 0zm3.5 3.6l0-6.7l4 0l0 .9l-3.1 0l0 2l2.8 0l0 .9l-2.8 0l0 2.1l3.1 0l0 .8l-4 0zm7.7-3.6c.8 0 1.3-.4 1.3-1.1c0-.7-.5-1.1-1.3-1.1c.03-.04-1.3 0-1.3 0l0 2.2c0 0 1.33.05 1.3 0zm-1.3.9l0 2.7l-.9 0l0-6.7c0 0 2.4.02 2.4 0c1.2 0 2.1.9 2.1 2c0 1.1-.9 2-2.1 2c0-.02-1.5 0-1.5 0zm6.6 0l-1 0l0 2.7l-.9 0l0-6.7c0 0 2.52.02 2.5 0c1.3 0 2.1.9 2.1 2c0 1-.6 1.7-1.7 1.9c.05.01 1.6 2.8 1.6 2.8l-1 0l-1.6-2.7zm.4-.9c.8 0 1.3-.4 1.3-1.1c0-.7-.5-1.1-1.3-1.1c.05-.04-1.4 0-1.4 0l0 2.2c0 0 1.45.05 1.4 0zm3.5 3.6l0-6.7l1 0l0 6.7l-1 0zm6.1-4.9c0-.4-.4-1.1-1.4-1.1c-.7 0-1.3.5-1.3 1.1c0 .5.3.9.9 1c0 0 1 .2 1 .2c1.1.2 1.7.9 1.7 1.9c0 1-.9 2-2.3 2c-1.6 0-2.4-1.1-2.5-2c0 0 .9-.3.9-.3c.1.7.6 1.4 1.6 1.4c.9 0 1.4-.5 1.4-1c0-.5-.3-.9-1-1.1c0 0-1-.2-1-.2c-.9-.2-1.6-.8-1.6-1.8c0-1.1 1-2 2.2-2c1.5 0 2.1.9 2.3 1.6c0 0-.9.3-.9.3zm2.2 4.9l0-6.7l4.1 0l0 .9l-3.2 0l0 2l2.9 0l0 .9l-2.9 0l0 2.1l3.2 0l0 .8l-4.1 0zm8.9-4.9c0-.4-.4-1.1-1.4-1.1c-.7 0-1.3.5-1.3 1.1c0 .5.3.9.9 1c0 0 1 .2 1 .2c1.1.2 1.7.9 1.7 1.9c0 1-.9 2-2.3 2c-1.6 0-2.4-1.1-2.5-2c0 0 .9-.3.9-.3c.1.7.6 1.4 1.6 1.4c.9 0 1.4-.5 1.4-1c0-.5-.4-.9-1-1.1c0 0-1-.2-1-.2c-.9-.2-1.6-.8-1.6-1.8c0-1.1 1-2 2.2-2c1.5 0 2.1.9 2.3 1.6c0 0-.9.3-.9.3z" stroke="none" fill="#fff"/></g></svg>