<?xml version="1.0" standalone="no"?><!DOCTYPE svg PUBLIC "-//W3C//DTD SVG 1.1//EN" "http://www.w3.org/Graphics/SVG/1.1/DTD/svg11.dtd"><svg xmlns="http://www.w3.org/2000/svg" version="1.1" width="213.4px" height="28px" viewBox="0 -3 213.4 28" style="top:-3px"><desc>qui sommes nous ?</desc><defs/><g id="Polygon162037"><path d="m2.9 3.2c1.4 0 2.7 1 2.7 2.7c0 .8-.3 1.5-.8 1.9c.03.01.6.7.6.7l-.5.4c0 0-.58-.68-.6-.7c-.4.3-.9.4-1.4.4c-1.3 0-2.6-1-2.6-2.7c0-1.7 1.3-2.7 2.6-2.7zm0 4.7c.4 0 .7 0 1-.2c-.04.01-.9-1-.9-1l.5-.4c0 0 .87.99.9 1c.2-.3.4-.8.4-1.4c0-1.4-.9-2.1-1.9-2.1c-.9 0-1.8.7-1.8 2.1c0 1.3.9 2 1.8 2zm4.6-1.2c.03.01 0-3.4 0-3.4l.7 0c0 0 .05 3.39 0 3.4c0 .8.5 1.2 1.2 1.2c.7 0 1.2-.4 1.2-1.2c-.04-.01 0-3.4 0-3.4l.7 0c0 0-.02 3.41 0 3.4c0 1.2-.8 1.9-1.9 1.9c-1.1 0-1.9-.7-1.9-1.9zm6.1 1.8l0-5.2l.7 0l0 5.2l-.7 0zm9.4-3.8c0-.4-.3-.9-1.1-.9c-.6 0-1 .4-1 .9c0 .4.3.6.7.7c0 0 .8.2.8.2c.8.2 1.3.7 1.3 1.5c0 .8-.7 1.5-1.8 1.5c-1.2 0-1.8-.8-1.9-1.5c0 0 .7-.3.7-.3c0 .6.4 1.1 1.2 1.1c.7 0 1.1-.3 1.1-.8c0-.4-.3-.7-.8-.8c0 0-.7-.1-.7-.1c-.8-.2-1.3-.7-1.3-1.5c0-.8.8-1.5 1.7-1.5c1.2 0 1.7.7 1.8 1.3c0 0-.7.2-.7.2zm5 3.2c1 0 1.9-.7 1.9-2c0-1.4-.9-2.1-1.9-2.1c-1 0-1.9.7-1.9 2.1c0 1.3.9 2 1.9 2zm0-4.7c1.3 0 2.6 1 2.6 2.7c0 1.7-1.3 2.7-2.6 2.7c-1.3 0-2.6-1-2.6-2.7c0-1.7 1.3-2.7 2.6-2.7zm9.6 5.3l0-4.1l-1.8 4.1l-.6 0l-1.8-4.1l0 4.1l-.7 0l0-5.2l1 0l1.8 4.2l1.8-4.2l1 0l0 5.2l-.7 0zm8 0l0-4.1l-1.8 4.1l-.6 0l-1.8-4.1l0 4.1l-.7 0l0-5.2l1 0l1.8 4.2l1.8-4.2l1 0l0 5.2l-.7 0zm3.1 0l0-5.2l3.2 0l0 .7l-2.5 0l0 1.6l2.2 0l0 .6l-2.2 0l0 1.6l2.5 0l0 .7l-3.2 0zm8-3.8c-.1-.4-.4-.9-1.1-.9c-.6 0-1 .4-1 .9c0 .4.2.6.6.7c0 0 .8.2.8.2c.9.2 1.4.7 1.4 1.5c0 .8-.7 1.5-1.8 1.5c-1.3 0-1.9-.8-2-1.5c0 0 .7-.3.7-.3c.1.6.5 1.1 1.3 1.1c.7 0 1-.3 1-.8c0-.4-.2-.7-.7-.8c0 0-.8-.1-.8-.1c-.7-.2-1.3-.7-1.3-1.5c0-.8.8-1.5 1.8-1.5c1.1 0 1.6.7 1.7 1.3c0 0-.6.2-.6.2zm2.5 1.2l0-.8l2.9 0l0 .8l-2.9 0zm8.6 2.6l-2.8-4.3l0 4.3l-.7 0l0-5.2l.9 0l2.6 4l0-4l.7 0l0 5.2l-.7 0zm5.4-.6c1 0 1.9-.7 1.9-2c0-1.4-.9-2.1-1.9-2.1c-1 0-1.9.7-1.9 2.1c0 1.3.9 2 1.9 2zm0-4.7c1.3 0 2.6 1 2.6 2.7c0 1.7-1.3 2.7-2.6 2.7c-1.3 0-2.6-1-2.6-2.7c0-1.7 1.3-2.7 2.6-2.7zm4.6 3.5c-.02.01 0-3.4 0-3.4l.7 0c0 0 0 3.39 0 3.4c0 .8.4 1.2 1.2 1.2c.7 0 1.1-.4 1.1-1.2c.01-.01 0-3.4 0-3.4l.7 0c0 0 .03 3.41 0 3.4c0 1.2-.8 1.9-1.8 1.9c-1.1 0-1.9-.7-1.9-1.9zm8.7-2c0-.4-.4-.9-1.1-.9c-.6 0-1 .4-1 .9c0 .4.2.6.7.7c0 0 .7.2.7.2c.9.2 1.4.7 1.4 1.5c0 .8-.7 1.5-1.8 1.5c-1.3 0-1.9-.8-1.9-1.5c0 0 .6-.3.6-.3c.1.6.5 1.1 1.3 1.1c.7 0 1.1-.3 1.1-.8c0-.4-.3-.7-.8-.8c0 0-.8-.1-.8-.1c-.7-.2-1.2-.7-1.2-1.5c0-.8.7-1.5 1.7-1.5c1.2 0 1.6.7 1.8 1.3c0 0-.7.2-.7.2zm6.5 1.7c0-.2 0-.3 0-.4c0-.7.2-1.2.9-1.6c0 0 .4-.4.4-.4c.4-.2.6-.6.6-1c0-.6-.4-1.2-1.3-1.2c-.9 0-1.3.7-1.3 1.4c0 .1 0 .4.1.5c0 0-1-.2-1-.2c-.1-.1-.1-.3-.1-.5c0-.9.7-2.1 2.3-2.1c1.5 0 2.3 1 2.3 2.1c0 .8-.4 1.4-1 1.8c0 0-.5.4-.5.4c-.4.2-.5.6-.5 1c0 0 0 .1 0 .2c0 0-.9 0-.9 0zm.5.8c.3 0 .6.3.6.7c0 .3-.3.6-.6.6c-.4 0-.7-.3-.7-.6c0-.4.3-.7.7-.7z" stroke="none" fill="#144542"/></g></svg>