<?xml version="1.0" standalone="no"?><!DOCTYPE svg PUBLIC "-//W3C//DTD SVG 1.1//EN" "http://www.w3.org/Graphics/SVG/1.1/DTD/svg11.dtd"><svg xmlns="http://www.w3.org/2000/svg" version="1.1" width="112px" height="52.8px" viewBox="0 -3 112 52.8" style="top:-3px"><desc>Satisfaction entreprise</desc><defs/><g id="Polygon174230"><path d="m5.9 24.5c-.1-1-.7-1.8-2-1.8c-1.1 0-1.8.9-1.9 1.8c0 0 3.9 0 3.9 0zm1.3 2.2c-.4 1.3-1.5 2.2-3.1 2.2c-1.9 0-3.5-1.3-3.5-3.7c0-2.2 1.6-3.7 3.3-3.7c2.2 0 3.4 1.5 3.4 3.7c0 .2 0 .3-.1.4c0 0-5.2 0-5.2 0c0 1.3.9 2.1 2.1 2.1c1.1 0 1.7-.6 2-1.4c0 0 1.1.4 1.1.4zm3.2 2l-1.4 0l0-6.9l1.4 0c0 0-.05.96 0 1c.5-.9 1.3-1.2 2.1-1.2c1.7 0 2.5 1.2 2.5 2.7c-.01.01 0 4.4 0 4.4l-1.4 0c0 0 .03-4.16 0-4.2c0-.9-.4-1.7-1.6-1.7c-1.1 0-1.6.8-1.6 1.9c-.02 0 0 4 0 4zm8.6-6.9l1.5 0l0 1.2l-1.5 0c0 0-.01 3.61 0 3.6c0 .7.3 1 1 1c.1 0 .4-.1.5-.1c0 0 0 1.2 0 1.2c-.1 0-.5.1-.9.1c-1.2 0-2-.7-2-2c.03.02 0-3.8 0-3.8l-1.3 0l0-1.2c0 0 .38-.04.4 0c.7 0 1-.5 1-1.1c.05-.02 0-1.1 0-1.1l1.3 0l0 2.2zm7 1.3c-.2 0-.4 0-.6 0c-1.1 0-1.9.6-1.9 2.1c.03.04 0 3.5 0 3.5l-1.3 0l0-6.9l1.3 0c0 0 0 1.17 0 1.2c.5-1.1 1.4-1.4 2.1-1.4c.2 0 .4.1.4.1c0 0 0 1.4 0 1.4zm6.1 1.4c0-1-.7-1.8-1.9-1.8c-1.1 0-1.8.9-1.9 1.8c0 0 3.8 0 3.8 0zm1.4 2.2c-.4 1.3-1.5 2.2-3.1 2.2c-1.9 0-3.5-1.3-3.5-3.7c0-2.2 1.5-3.7 3.3-3.7c2.1 0 3.3 1.5 3.3 3.7c0 .2 0 .3 0 .4c0 0-5.2 0-5.2 0c0 1.3.9 2.1 2.1 2.1c1.1 0 1.7-.6 1.9-1.4c0 0 1.2.4 1.2.4zm1.8 4.8l0-9.7l1.3 0c0 0 0 1.04 0 1c.4-.7 1.2-1.2 2.3-1.2c2.1 0 3.2 1.6 3.2 3.6c0 2.1-1.2 3.7-3.2 3.7c-1.1 0-1.9-.5-2.3-1.1c.03-.01 0 3.7 0 3.7l-1.3 0zm5.4-6.3c0-1.4-.7-2.4-2-2.4c-1.3 0-2.1 1-2.1 2.4c0 1.5.8 2.5 2.1 2.5c1.2 0 2-1 2-2.5c0 0 0 0 0 0zm7-2.1c-.2 0-.4 0-.5 0c-1.2 0-2 .6-2 2.1c.04.04 0 3.5 0 3.5l-1.3 0l0-6.9l1.3 0c0 0 .01 1.17 0 1.2c.5-1.1 1.4-1.4 2.1-1.4c.2 0 .4.1.4.1c0 0 0 1.4 0 1.4zm1.5 5.6l0-6.9l1.3 0l0 6.9l-1.3 0zm.7-10.6c.5 0 .9.5.9 1c0 .6-.4 1-.9 1c-.6 0-1-.4-1-1c0-.5.4-1 1-1zm3.5 8.4c.1.7.7 1.3 1.7 1.3c.7 0 1.2-.4 1.2-.9c0-.5-.4-.8-.9-.9c0 0-1.2-.3-1.2-.3c-1.1-.2-1.8-1-1.8-2c0-1.1 1.1-2.2 2.5-2.2c1.9 0 2.5 1.3 2.7 1.9c0 0-1.2.5-1.2.5c-.1-.4-.4-1.2-1.5-1.2c-.7 0-1.2.4-1.2.9c0 .4.3.8.8.9c0 0 1.2.2 1.2.2c1.2.3 1.9 1.1 1.9 2.1c0 1-.8 2.1-2.5 2.1c-2 0-2.8-1.2-2.9-2c0 0 1.2-.4 1.2-.4zm10.6-2c0-1-.6-1.8-1.9-1.8c-1.1 0-1.8.9-1.9 1.8c0 0 3.8 0 3.8 0zm1.4 2.2c-.4 1.3-1.5 2.2-3.1 2.2c-1.9 0-3.5-1.3-3.5-3.7c0-2.2 1.6-3.7 3.3-3.7c2.2 0 3.4 1.5 3.4 3.7c0 .2 0 .3-.1.4c0 0-5.2 0-5.2 0c0 1.3.9 2.1 2.1 2.1c1.1 0 1.7-.6 1.9-1.4c0 0 1.2.4 1.2.4z" stroke="none" fill="#144542"/></g><g id="Polygon174229"><path d="m6.6 4.2c-.1-.7-.8-1.7-2.2-1.7c-1.2 0-2 .7-2 1.7c0 .7.5 1.3 1.3 1.5c0 0 1.6.3 1.6.3c1.7.4 2.6 1.5 2.6 2.9c0 1.6-1.3 3-3.5 3c-2.5 0-3.7-1.5-3.8-3c0 0 1.3-.4 1.3-.4c.1 1.1.9 2.2 2.5 2.2c1.4 0 2.1-.8 2.1-1.7c0-.7-.5-1.4-1.5-1.6c0 0-1.5-.3-1.5-.3c-1.5-.3-2.5-1.3-2.5-2.8c0-1.6 1.5-3.1 3.4-3.1c2.3 0 3.2 1.5 3.5 2.6c0 0-1.3.4-1.3.4zm2.7 5.7c0-1.3.9-2 2.1-2.2c0 0 1.9-.2 1.9-.2c.4-.1.5-.3.5-.6c0-.6-.5-1.2-1.5-1.2c-1 0-1.5.6-1.6 1.4c0 0-1.3-.3-1.3-.3c.1-1.3 1.3-2.3 2.9-2.3c2 0 2.9 1.2 2.9 2.6c0 0 0 3.5 0 3.5c0 .6 0 1 0 1.1c0 0-1.3 0-1.3 0c0-.1-.1-.4-.1-.9c-.3.5-1 1.1-2.2 1.1c-1.4 0-2.3-.9-2.3-2c0 0 0 0 0 0zm4.5-1.2c-.01.04 0-.3 0-.3c0 0-2.14.34-2.1.3c-.6.1-1.1.5-1.1 1.1c0 .5.5 1 1.2 1c1.1 0 2-.5 2-2.1zm5.3-3.9l1.5 0l0 1.2l-1.5 0c0 0 0 3.61 0 3.6c0 .7.3 1 1 1c.1 0 .4-.1.5-.1c0 0 0 1.2 0 1.2c-.1 0-.5.1-.9.1c-1.2 0-2-.7-2-2c.03.02 0-3.8 0-3.8l-1.3 0l0-1.2c0 0 .38-.04.4 0c.7 0 1.1-.5 1.1-1.1c-.05-.02 0-1.1 0-1.1l1.2 0l0 2.2zm3.3 6.9l0-6.9l1.4 0l0 6.9l-1.4 0zm.7-10.6c.5 0 1 .5 1 1c0 .6-.5 1-1 1c-.6 0-1-.4-1-1c0-.5.4-1 1-1zm3.6 8.4c.1.7.6 1.3 1.6 1.3c.8 0 1.2-.4 1.2-.9c0-.5-.3-.8-.9-.9c0 0-1.2-.3-1.2-.3c-1.1-.2-1.7-1-1.7-2c0-1.1 1.1-2.2 2.4-2.2c1.9 0 2.5 1.3 2.7 1.9c0 0-1.2.5-1.2.5c-.1-.4-.4-1.2-1.5-1.2c-.7 0-1.1.4-1.1.9c0 .4.2.8.8.9c0 0 1.1.2 1.1.2c1.3.3 1.9 1.1 1.9 2.1c0 1-.8 2.1-2.5 2.1c-1.9 0-2.8-1.2-2.9-2c0 0 1.3-.4 1.3-.4zm7.8-3.5l0 5.7l-1.4 0l0-5.7l-1.3 0l0-1.2l1.3 0c0 0-.04-1.22 0-1.2c0-1.6 1-2.4 2.2-2.4c.5 0 .8.1.9.1c0 0 0 1.3 0 1.3c-.1-.1-.3-.1-.6-.1c-.5 0-1.1.2-1.1 1.2c-.03-.05 0 1.1 0 1.1l1.6 0l0 1.2l-1.6 0zm2.5 3.9c0-1.3.9-2 2.1-2.2c0 0 1.9-.2 1.9-.2c.4-.1.5-.3.5-.6c0-.6-.5-1.2-1.5-1.2c-1 0-1.5.6-1.6 1.4c0 0-1.3-.3-1.3-.3c.2-1.3 1.4-2.3 2.9-2.3c2 0 2.9 1.2 2.9 2.6c0 0 0 3.5 0 3.5c0 .6 0 1 0 1.1c0 0-1.3 0-1.3 0c0-.1-.1-.4-.1-.9c-.3.5-1 1.1-2.2 1.1c-1.4 0-2.3-.9-2.3-2c0 0 0 0 0 0zm4.5-1.2c0 .04 0-.3 0-.3c0 0-2.13.34-2.1.3c-.6.1-1 .5-1 1.1c0 .5.4 1 1.1 1c1.1 0 2-.5 2-2.1zm4.3-.5c0 1.6 1 2.5 2.1 2.5c1.3 0 1.8-.9 2-1.4c0 0 1.2.5 1.2.5c-.4 1-1.4 2.1-3.2 2.1c-2 0-3.5-1.5-3.5-3.7c0-2.1 1.5-3.7 3.5-3.7c1.9 0 2.8 1.2 3.1 2.3c0 0-1.2.5-1.2.5c-.2-.7-.7-1.5-1.9-1.5c-1.1 0-2.1.8-2.1 2.4zm8.7-3.4l1.5 0l0 1.2l-1.5 0c0 0-.01 3.61 0 3.6c0 .7.3 1 1 1c.1 0 .4-.1.5-.1c0 0 0 1.2 0 1.2c-.1 0-.5.1-.9.1c-1.2 0-2-.7-2-2c.03.02 0-3.8 0-3.8l-1.3 0l0-1.2c0 0 .37-.04.4 0c.7 0 1-.5 1-1.1c.04-.02 0-1.1 0-1.1l1.3 0l0 2.2zm3.3 6.9l0-6.9l1.4 0l0 6.9l-1.4 0zm.7-10.6c.5 0 1 .5 1 1c0 .6-.5 1-1 1c-.6 0-1-.4-1-1c0-.5.4-1 1-1zm8.1 7.1c0-1.6-1-2.4-2.1-2.4c-1.2 0-2.2.8-2.2 2.4c0 1.7 1 2.5 2.2 2.5c1.1 0 2.1-.8 2.1-2.5zm1.4 0c0 2.2-1.4 3.7-3.5 3.7c-2.1 0-3.6-1.5-3.6-3.7c0-2.1 1.5-3.7 3.6-3.7c2.1 0 3.5 1.6 3.5 3.7zm3.1 3.5l-1.3 0l0-6.9l1.3 0c0 0 .01.96 0 1c.5-.9 1.3-1.2 2.2-1.2c1.6 0 2.4 1.2 2.4 2.7c.05.01 0 4.4 0 4.4l-1.3 0c0 0-.02-4.16 0-4.2c0-.9-.4-1.7-1.6-1.7c-1.1 0-1.7.8-1.7 1.9c.04 0 0 4 0 4z" stroke="none" fill="#144542"/></g></svg>