<?xml version="1.0" standalone="no"?><!DOCTYPE svg PUBLIC "-//W3C//DTD SVG 1.1//EN" "http://www.w3.org/Graphics/SVG/1.1/DTD/svg11.dtd"><svg xmlns="http://www.w3.org/2000/svg" version="1.1" width="31px" height="22.8px" viewBox="0 -3 31 22.8" style="top:-3px"><desc>ge</desc><defs/><g id="Polygon165665"><path d="m7.3 9.1l-4.4 0l-.9 2.6l-1.9 0l4-10.2l2.1 0l4 10.2l-1.9 0l-1-2.6zm-3.7-1.6l3.1 0l-1.6-4.2l-1.5 4.2zm-1.1-6.8l1.7-1.8l1.8 0l1.8 1.8l-1.6 0l-1.1-.9l-1.1.9l-1.5 0zm9.8 11c.1.9.8 1.5 1.8 1.5c1.3 0 2-.6 2-2.1c0 0 0-.7 0-.7c-.3.5-1 1-2.1 1c-1.9 0-3.2-1.4-3.2-3.4c0-1.9 1.3-3.5 3.2-3.5c1.1 0 1.8.5 2.1 1.1c.01-.03 0-.9 0-.9l1.6 0c0 0 .03 6.36 0 6.4c0 1.8-.9 3.6-3.6 3.6c-1.9 0-3.2-1.2-3.4-2.6c0 0 1.6-.4 1.6-.4zm3.8-3.7c0-1.2-.8-2-1.8-2c-1.1 0-1.8.8-1.8 2c0 1.2.7 2 1.8 2c1.1 0 1.8-.8 1.8-2zm8.3-.6c0-.8-.5-1.5-1.7-1.5c-1.1 0-1.7.8-1.7 1.5c0 0 3.4 0 3.4 0zm1.6 2.3c-.3 1.2-1.5 2.2-3.1 2.2c-2 0-3.7-1.3-3.7-3.7c0-2.3 1.7-3.7 3.5-3.7c2.2 0 3.4 1.4 3.4 3.6c0 .3 0 .5 0 .6c0 0-5.2 0-5.2 0c.1 1 .9 1.8 2 1.8c1 0 1.5-.5 1.7-1.2c0 0 1.4.4 1.4.4z" stroke="none" fill="#9b78ef"/></g></svg>