<?xml version="1.0" standalone="no"?><!DOCTYPE svg PUBLIC "-//W3C//DTD SVG 1.1//EN" "http://www.w3.org/Graphics/SVG/1.1/DTD/svg11.dtd"><svg xmlns="http://www.w3.org/2000/svg" version="1.1" width="82px" height="73.6px" viewBox="0 -11 82 73.6" style="top:-11px"><desc>4,3</desc><defs/><g id="Polygon179285"><path d="m34.2 32.4l-3.1 0l0 9.5l-6.9 0l0-9.5l-12.3 0l19.2-23.5l0 19.1l5.1 0l-2 4.4zm-10-4.4l0-9.1l-7.4 9.1l7.4 0zm14.2 10.6c3.3-1.7 5.2-5.1 5.5-7.2c0 0-.2 0-.2 0c-.4 1-1.2 1.5-2.4 1.5c-1.3 0-3.3-1.3-3.3-3.9c0-2.2 1.7-3.9 3.9-3.9c2.9 0 4.1 2.2 4.1 4.7c0 2-1 6.3-7.6 9.6c0 0 0-.8 0-.8zm30.3-5.7c0 7.8-7.4 9.8-11.7 9.7c-7.5-.1-9.6-3.8-9.6-7.1c0-2.3 2.1-4.1 3.8-4.1c1.9 0 3.7 1.1 3.7 3.4c0 1.6-1.2 2.5-1.2 3.7c0 1 .6 3.1 3.3 3.1c3.1 0 4.4-3 4.4-7.8c0-5-2.8-8.1-10.1-6.1c0 0-.4-.8-.4-.8c5.4-2.4 10-5.8 10-10.4c0-2.5-1.1-5.5-4-5.5c-2.1 0-3.5 1.6-3.5 2.9c0 2.1 1.9 2.5 1.9 4.4c0 1.6-1.4 2.8-2.9 2.8c-2.4 0-3.8-1.5-3.8-3.8c0-3.4 3.2-7.2 8.9-7.2c6.3 0 9.6 2.5 9.6 7c0 3.6-3.8 6.4-8.8 8c0 0 0 .3 0 .3c6.8-.5 10.4 2.8 10.4 7.5z" stroke="none" fill="#fff"/></g></svg>