<?xml version="1.0" standalone="no"?><!DOCTYPE svg PUBLIC "-//W3C//DTD SVG 1.1//EN" "http://www.w3.org/Graphics/SVG/1.1/DTD/svg11.dtd"><svg xmlns="http://www.w3.org/2000/svg" version="1.1" width="208.3px" height="96.9px" viewBox="0 -15 208.3 96.9" style="top:-15px"><desc>584</desc><defs/><g id="Polygon163691"><path d="m85.4 44.8c0 7.1-5.9 16.7-16.6 16.7c-10.5 0-13.2-5.2-13.2-9.8c0-3.7 2.7-6.7 5.1-6.7c2.7 0 5.4 1.5 5.1 5.2c-.2 2.2-2.1 3-2.1 5.2c0 3.1 1.9 4.5 5 4.5c4.3 0 7.6-3.5 8.3-9.9c.8-8-3.9-12.2-9.2-12.2c-4.2 0-6.5 1.7-8.7 3.6c.05-.01-1 0-1 0l4.4-26c0 0 13.47.03 13.5 0c3.7 0 7.2-1.1 8.6-3.9c0 .03 1.1 0 1.1 0l-3.6 13.3l-19.9 0c0 0-1.92 11.61-1.9 11.6c3.3-4.4 7.4-6 12.1-6c8.5 0 13 7.3 13 14.4zm33.5-10.5c0 8.3-6.6 13.5-15.7 13.5c-7.1 0-14.9-3.1-14.9-12c0-4.8 3-7.6 7.9-10c-3.9-2.4-7.1-5.5-7.1-11c0-9 7.1-14 14.8-14c7.7 0 13 5.1 13 10c0 4.8-4.1 8.1-7.4 9.8c4.9 2.8 9.4 6.4 9.4 13.7zm-21.1-25.3c0 5.3 4.8 7.8 9.8 10.5c2.1-2.6 2.8-5.5 2.8-9.8c0-4.7-3.2-7.6-6.6-7.6c-3.8 0-6 2.8-6 6.9zm12.2 29.1c0-6-6.1-8.2-11.7-11.2c-2 2.6-2.8 6.7-2.8 9.2c0 5.2 3 10.3 7.7 10.3c5.2 0 6.8-3.2 6.8-8.3zm40.7 8.8l-4.5 0l0 13.9l-10 0l0-13.9l-17.8 0l27.8-34l0 27.7l7.4 0l-2.9 6.3zm-14.5-6.3l0-13.3l-10.7 13.3l10.7 0z" stroke="none" fill="#fff"/></g></svg>