<?xml version="1.0" standalone="no"?><!DOCTYPE svg PUBLIC "-//W3C//DTD SVG 1.1//EN" "http://www.w3.org/Graphics/SVG/1.1/DTD/svg11.dtd"><svg xmlns="http://www.w3.org/2000/svg" version="1.1" width="149px" height="16px" viewBox="0 -3 149 16" style="top:-3px"><desc>B1 B2 interm diaire</desc><defs/><g id="Polygon166261"><path d="m3.4 1.1c1.4 0 2.2.8 2.2 2c0 .8-.4 1.3-1.1 1.6c.9.2 1.3.9 1.3 1.8c0 1.1-.9 2-2.3 2c.05-.01-2.6 0-2.6 0l0-7.4c0 0 2.47-.05 2.5 0zm-.1 3.2c.8 0 1.3-.5 1.3-1.2c0-.7-.5-1.1-1.4-1.1c.01-.05-1.2 0-1.2 0l0 2.3c0 0 1.25.01 1.3 0zm.1 3.3c.8 0 1.4-.5 1.4-1.2c0-.7-.5-1.2-1.4-1.2c.04-.01-1.4 0-1.4 0l0 2.4c0 0 1.4-.01 1.4 0zm4.8.9l0-4.8l-1.6 0c0 0-.02-.73 0-.7c.9 0 1.6-.6 1.7-1.3c.04-.01.9 0 .9 0l0 6.8l-1 0zm2.3-2.6l0-.8l2.8 0l0 .8l-2.8 0zm6.7-4.8c1.4 0 2.2.8 2.2 2c0 .8-.4 1.3-1.1 1.6c.9.2 1.4.9 1.4 1.8c0 1.1-1 2-2.3 2c-.03-.01-2.6 0-2.6 0l0-7.4c0 0 2.39-.05 2.4 0zm-.1 3.2c.8 0 1.3-.5 1.3-1.2c0-.7-.5-1.1-1.4-1.1c.03-.05-1.2 0-1.2 0l0 2.3c0 0 1.27.01 1.3 0zm.1 3.3c.8 0 1.4-.5 1.4-1.2c0-.7-.4-1.2-1.3-1.2c-.04-.01-1.5 0-1.5 0l0 2.4c0 0 1.42-.01 1.4 0zm3.4-3.6c0-.1 0-.2 0-.3c0-1.1.8-2.2 2.3-2.2c1.5 0 2.3 1 2.3 2.1c0 .9-.5 1.6-1.2 2.1c0 0-1.4.9-1.4.9c-.4.2-.7.5-.8.9c-.02.04 3.5 0 3.5 0l0 1c0 0-4.79-.01-4.8 0c0-1.1.5-2 1.6-2.7c0 0 1.2-.7 1.2-.7c.6-.5.9-.9.9-1.5c0-.6-.4-1.2-1.3-1.2c-.9 0-1.3.7-1.3 1.4c0 .1 0 .2 0 .3c0 0-1-.1-1-.1zm8.6 4.5l0-5.1l.9 0l0 5.1l-.9 0zm.4-7.7c.4 0 .8.3.8.7c0 .4-.4.7-.8.7c-.3 0-.7-.3-.7-.7c0-.4.4-.7.7-.7zm3.2 7.7l-1 0l0-5.1l1 0c0 0-.02.77 0 .8c.3-.7.9-.9 1.5-.9c1.2 0 1.8.9 1.8 2c.04-.01 0 3.2 0 3.2l-.9 0c0 0-.05-3.04 0-3c0-.7-.3-1.3-1.2-1.3c-.8 0-1.2.6-1.2 1.4c0-.03 0 2.9 0 2.9zm6.2-5.1l1.1 0l0 .9l-1.1 0c0 0 .04 2.66 0 2.7c0 .4.2.7.7.7c.2 0 .3-.1.4-.1c0 0 0 .9 0 .9c-.1 0-.3 0-.6 0c-.9 0-1.4-.5-1.4-1.4c-.05.01 0-2.8 0-2.8l-1 0l0-.9c0 0 .26.04.3 0c.5 0 .7-.3.7-.7c.04-.03 0-.9 0-.9l.9 0l0 1.6zm5.8 2.1c0-.8-.5-1.3-1.4-1.3c-.8 0-1.3.6-1.4 1.3c0 0 2.8 0 2.8 0zm1 1.6c-.3.8-1.1 1.6-2.3 1.6c-1.3 0-2.5-1-2.5-2.7c0-1.6 1.1-2.7 2.4-2.7c1.6 0 2.4 1.1 2.4 2.6c0 .2 0 .3 0 .3c0 0-3.8 0-3.8 0c0 1 .7 1.6 1.5 1.6c.8 0 1.3-.5 1.4-1c0 0 .9.3.9.3zm4.1-2.7c-.2 0-.3 0-.4 0c-.9 0-1.4.5-1.4 1.6c-.03-.04 0 2.5 0 2.5l-1 0l0-5.1l.9 0c0 0 .05.93 0 .9c.4-.8 1-.9 1.6-.9c.1 0 .2 0 .3 0c0 0 0 1 0 1zm1 4.1l0-5.1l1 0c0 0-.02.72 0 .7c.3-.5.9-.8 1.5-.8c.6 0 1.3.3 1.5 1c.4-.8 1.1-1 1.7-1c.9 0 1.8.6 1.8 1.9c-.04.02 0 3.3 0 3.3l-1 0c0 0-.02-3.18 0-3.2c0-.6-.3-1.1-1.1-1.1c-.7 0-1.2.5-1.2 1.2c.04.04 0 3.1 0 3.1l-.9 0c0 0-.04-3.18 0-3.2c0-.6-.4-1.1-1.1-1.1c-.7 0-1.2.5-1.2 1.2c.01.05 0 3.1 0 3.1l-1 0zm12.4-3c0-.8-.5-1.3-1.4-1.3c-.8 0-1.3.6-1.3 1.3c0 0 2.7 0 2.7 0zm1 1.6c-.3.8-1.1 1.6-2.2 1.6c-1.4 0-2.6-1-2.6-2.7c0-1.6 1.2-2.7 2.4-2.7c1.6 0 2.5 1.1 2.5 2.6c0 .2 0 .3-.1.3c0 0-3.8 0-3.8 0c.1 1 .7 1.6 1.6 1.6c.8 0 1.2-.5 1.4-1c0 0 .8.3.8.3zm-2-4.3l-.8 0l.9-1.5l1.3 0l-1.4 1.5zm5.4 5c.9 0 1.5-.8 1.5-1.9c0-1-.6-1.7-1.5-1.7c-.9 0-1.5.7-1.5 1.8c0 1 .5 1.8 1.5 1.8zm1.5-.1c-.3.5-.8.9-1.6.9c-1.5 0-2.4-1.1-2.4-2.6c0-1.5 1-2.7 2.4-2.7c.9 0 1.4.4 1.5.9c.04-.04 0-3.3 0-3.3l1 0c0 0 .02 6.66 0 6.7c0 .4.1.8.1.9c0 0-1 0-1 0c0-.1 0-.4 0-.7c0 0 0-.1 0-.1zm2.6.8l0-5.1l1 0l0 5.1l-1 0zm.5-7.7c.4 0 .7.3.7.7c0 .4-.3.7-.7.7c-.4 0-.7-.3-.7-.7c0-.4.3-.7.7-.7zm1.8 6.3c0-.9.7-1.4 1.6-1.5c0 0 1.3-.2 1.3-.2c.3 0 .4-.2.4-.4c0-.5-.3-.9-1.1-.9c-.7 0-1 .5-1.1 1c0 0-1-.2-1-.2c.1-.9 1-1.6 2.1-1.6c1.5 0 2.1.8 2.1 1.8c0 0 0 2.6 0 2.6c0 .4.1.7.1.8c0 0-1 0-1 0c0-.1 0-.3 0-.7c-.3.4-.8.9-1.7.9c-1 0-1.7-.8-1.7-1.6c0 0 0 0 0 0zm3.3-.8c.03.03 0-.2 0-.2c0 0-1.52.23-1.5.2c-.4.1-.8.3-.8.8c0 .4.4.7.9.7c.8 0 1.4-.4 1.4-1.5zm2.5 2.2l0-5.1l1 0l0 5.1l-1 0zm.5-7.7c.4 0 .7.3.7.7c0 .4-.3.7-.7.7c-.4 0-.7-.3-.7-.7c0-.4.3-.7.7-.7zm5 3.6c-.1 0-.3 0-.4 0c-.9 0-1.4.5-1.4 1.6c-.01-.04 0 2.5 0 2.5l-1 0l0-5.1l1 0c0 0-.03.93 0 .9c.3-.8 1-.9 1.5-.9c.1 0 .3 0 .3 0c0 0 0 1 0 1zm4.4 1.1c0-.8-.5-1.3-1.4-1.3c-.8 0-1.3.6-1.4 1.3c0 0 2.8 0 2.8 0zm1 1.6c-.3.8-1.1 1.6-2.3 1.6c-1.3 0-2.5-1-2.5-2.7c0-1.6 1.1-2.7 2.4-2.7c1.6 0 2.4 1.1 2.4 2.6c0 .2 0 .3 0 .3c0 0-3.8 0-3.8 0c0 1 .7 1.6 1.5 1.6c.9 0 1.3-.5 1.5-1c0 0 .8.3.8.3z" stroke="none" fill="#144542"/></g></svg>