<?xml version="1.0" standalone="no"?><!DOCTYPE svg PUBLIC "-//W3C//DTD SVG 1.1//EN" "http://www.w3.org/Graphics/SVG/1.1/DTD/svg11.dtd"><svg xmlns="http://www.w3.org/2000/svg" version="1.1" width="70.3px" height="27.5px" viewBox="0 -4 70.3 27.5" style="top:-4px"><desc>uniqlo</desc><defs/><g id="Polygon175486"><path d="m1.5 10.3c.04-.04 0-8.5 0-8.5l1.8 0c0 0-.01 8.41 0 8.4c0 2 1.1 3.1 2.9 3.1c1.8 0 2.8-1.1 2.8-3.1c0 .01 0-8.4 0-8.4l1.8 0c0 0-.03 8.46 0 8.5c0 3-2 4.6-4.6 4.6c-2.7 0-4.7-1.6-4.7-4.6zm21.2 4.3l-6.9-10.4l0 10.4l-1.8 0l0-12.8l2.4 0l6.4 9.9l0-9.9l1.8 0l0 12.8l-1.9 0zm5.3 0l0-12.8l1.8 0l0 12.8l-1.8 0zm10.9-13.1c3.2 0 6.4 2.4 6.4 6.7c0 2-.7 3.6-1.8 4.8c-.01-.04 1.5 1.6 1.5 1.6l-1.2 1.1c0 0-1.58-1.71-1.6-1.7c-1 .6-2.2.9-3.3.9c-3.3 0-6.5-2.4-6.5-6.7c0-4.3 3.2-6.7 6.5-6.7zm0 11.8c.7 0 1.5-.2 2.2-.6c0 .03-2.2-2.5-2.2-2.5l1.2-1c0 0 2.24 2.5 2.2 2.5c.7-.8 1.2-2 1.2-3.5c0-3.3-2.3-5-4.6-5c-2.4 0-4.7 1.7-4.7 5c0 3.4 2.3 5.1 4.7 5.1zm9 1.3l0-12.8l1.8 0l0 11.2l6 0l0 1.6l-7.8 0zm15.1-1.3c2.4 0 4.6-1.7 4.6-5.1c0-3.3-2.2-5-4.6-5c-2.4 0-4.7 1.7-4.7 5c0 3.4 2.3 5.1 4.7 5.1zm0-11.8c3.2 0 6.4 2.4 6.4 6.7c0 4.3-3.2 6.7-6.4 6.7c-3.2 0-6.5-2.4-6.5-6.7c0-4.3 3.3-6.7 6.5-6.7z" stroke="none" fill="#144542"/></g></svg>