<?xml version="1.0" standalone="no"?><!DOCTYPE svg PUBLIC "-//W3C//DTD SVG 1.1//EN" "http://www.w3.org/Graphics/SVG/1.1/DTD/svg11.dtd"><svg xmlns="http://www.w3.org/2000/svg" version="1.1" width="153.4px" height="36px" viewBox="0 -3 153.4 36" style="top:-3px"><desc>dont 185 B n ficiaires de la Protection Internationale</desc><defs/><g id="Polygon166661"><path d="m3.5 17.1c.9 0 1.4-.5 1.4-1.2c0-.8-.5-1.3-1.4-1.3c-.03-.03-1.5 0-1.5 0l0 2.5c0 0 1.47.03 1.5 0zm-1.5.9l0 3.1l-1.1 0l0-7.4c0 0 2.75-.05 2.8 0c1.3 0 2.3.9 2.3 2.2c0 1.2-1 2.1-2.3 2.1c-.05.05-1.7 0-1.7 0zm7.8-1c-.2 0-.3 0-.5 0c-.8 0-1.4.5-1.4 1.6c.04-.04 0 2.5 0 2.5l-.9 0l0-5.1l.9 0c0 0 .02.93 0 .9c.4-.8 1-.9 1.5-.9c.2 0 .3 0 .4 0c0 0 0 1 0 1zm4.7 1.6c0-1.2-.7-1.8-1.6-1.8c-.8 0-1.6.6-1.6 1.8c0 1.1.8 1.8 1.6 1.8c.9 0 1.6-.7 1.6-1.8zm1 0c0 1.5-1.1 2.7-2.6 2.7c-1.5 0-2.6-1.2-2.6-2.7c0-1.6 1.1-2.7 2.6-2.7c1.5 0 2.6 1.1 2.6 2.7zm2.5-2.6l1.1 0l0 .9l-1.1 0c0 0 .03 2.66 0 2.7c0 .4.2.7.7.7c.2 0 .3-.1.4-.1c0 0 0 .9 0 .9c-.1 0-.3 0-.7 0c-.8 0-1.4-.5-1.4-1.4c.04.01 0-2.8 0-2.8l-.9 0l0-.9c0 0 .25.04.2 0c.6 0 .8-.3.8-.7c.03-.03 0-.9 0-.9l.9 0l0 1.6zm5.8 2.1c0-.8-.5-1.3-1.4-1.3c-.8 0-1.3.6-1.4 1.3c0 0 2.8 0 2.8 0zm1 1.6c-.3.8-1.1 1.6-2.3 1.6c-1.3 0-2.5-1-2.5-2.7c0-1.6 1.1-2.7 2.4-2.7c1.5 0 2.4 1.1 2.4 2.6c0 .2 0 .3 0 .3c0 0-3.8 0-3.8 0c0 1 .7 1.6 1.5 1.6c.8 0 1.2-.5 1.4-1c0 0 .9.3.9.3zm1.9-1.1c0 1.1.7 1.7 1.5 1.7c.9 0 1.3-.6 1.4-1c0 0 .9.4.9.4c-.3.7-1 1.6-2.3 1.6c-1.5 0-2.5-1.2-2.5-2.7c0-1.6 1.1-2.7 2.5-2.7c1.3 0 2 .8 2.2 1.6c0 0-.9.4-.9.4c-.1-.5-.4-1.1-1.3-1.1c-.8 0-1.5.6-1.5 1.8zm6.3-2.6l1.1 0l0 .9l-1.1 0c0 0-.04 2.66 0 2.7c0 .4.1.7.7.7c.1 0 .3-.1.4-.1c0 0 0 .9 0 .9c-.1 0-.4 0-.7 0c-.9 0-1.4-.5-1.4-1.4c-.03.01 0-2.8 0-2.8l-1 0l0-.9c0 0 .28.04.3 0c.5 0 .8-.3.8-.7c-.04-.03 0-.9 0-.9l.9 0l0 1.6zm2.4 5.1l0-5.1l.9 0l0 5.1l-.9 0zm.4-7.7c.4 0 .8.3.8.7c0 .4-.4.7-.8.7c-.3 0-.7-.3-.7-.7c0-.4.4-.7.7-.7zm6 5.2c0-1.2-.8-1.8-1.6-1.8c-.9 0-1.6.6-1.6 1.8c0 1.1.7 1.8 1.6 1.8c.8 0 1.6-.7 1.6-1.8zm1 0c0 1.5-1.1 2.7-2.6 2.7c-1.5 0-2.6-1.2-2.6-2.7c0-1.6 1.1-2.7 2.6-2.7c1.5 0 2.6 1.1 2.6 2.7zm2.2 2.5l-1 0l0-5.1l1 0c0 0-.01.77 0 .8c.4-.7 1-.9 1.5-.9c1.3 0 1.9.9 1.9 2c-.05-.01 0 3.2 0 3.2l-1 0c0 0-.03-3.04 0-3c0-.7-.3-1.3-1.2-1.3c-.8 0-1.2.6-1.2 1.4c.01-.03 0 2.9 0 2.9zm7.7 0l0-7.4l1 0l0 7.4l-1 0zm3.8 0l-1 0l0-5.1l1 0c0 0-.04.77 0 .8c.3-.7.9-.9 1.5-.9c1.2 0 1.8.9 1.8 2c.02-.01 0 3.2 0 3.2l-1 0c0 0 .03-3.04 0-3c0-.7-.3-1.3-1.1-1.3c-.8 0-1.2.6-1.2 1.4c-.02-.03 0 2.9 0 2.9zm6.2-5.1l1.1 0l0 .9l-1.1 0c0 0 .02 2.66 0 2.7c0 .4.2.7.7.7c.1 0 .3-.1.4-.1c0 0 0 .9 0 .9c-.1 0-.3 0-.7 0c-.8 0-1.4-.5-1.4-1.4c.03.01 0-2.8 0-2.8l-.9 0l0-.9c0 0 .24.04.2 0c.6 0 .8-.3.8-.7c.01-.03 0-.9 0-.9l.9 0l0 1.6zm5.8 2.1c-.1-.8-.5-1.3-1.4-1.3c-.8 0-1.4.6-1.4 1.3c0 0 2.8 0 2.8 0zm1 1.6c-.3.8-1.1 1.6-2.3 1.6c-1.4 0-2.5-1-2.5-2.7c0-1.6 1.1-2.7 2.4-2.7c1.5 0 2.4 1.1 2.4 2.6c0 .2 0 .3 0 .3c0 0-3.8 0-3.8 0c0 1 .6 1.6 1.5 1.6c.8 0 1.2-.5 1.4-1c0 0 .9.3.9.3zm4.1-2.7c-.2 0-.3 0-.5 0c-.8 0-1.4.5-1.4 1.6c.05-.04 0 2.5 0 2.5l-.9 0l0-5.1l.9 0c0 0 .02.93 0 .9c.4-.8 1-.9 1.5-.9c.2 0 .3 0 .4 0c0 0 0 1 0 1zm2 4.1l-1 0l0-5.1l1 0c0 0-.02.77 0 .8c.3-.7.9-.9 1.5-.9c1.2 0 1.8.9 1.8 2c.04-.01 0 3.2 0 3.2l-.9 0c0 0-.05-3.04 0-3c0-.7-.3-1.3-1.2-1.3c-.8 0-1.2.6-1.2 1.4c0-.03 0 2.9 0 2.9zm4.6-1.4c0-.9.7-1.4 1.5-1.5c0 0 1.4-.2 1.4-.2c.3 0 .4-.2.4-.4c0-.5-.3-.9-1.1-.9c-.7 0-1.1.5-1.2 1c0 0-.9-.2-.9-.2c.1-.9 1-1.6 2.1-1.6c1.5 0 2.1.8 2.1 1.8c0 0 0 2.6 0 2.6c0 .4 0 .7 0 .8c0 0-.9 0-.9 0c-.1-.1-.1-.3-.1-.7c-.2.4-.7.9-1.6.9c-1 0-1.7-.8-1.7-1.6c0 0 0 0 0 0zm3.3-.8c-.01.03 0-.2 0-.2c0 0-1.56.23-1.6.2c-.4.1-.7.3-.7.8c0 .4.3.7.8.7c.8 0 1.5-.4 1.5-1.5zm3.8-2.9l1.1 0l0 .9l-1.1 0c0 0 .03 2.66 0 2.7c0 .4.2.7.7.7c.2 0 .3-.1.4-.1c0 0 0 .9 0 .9c-.1 0-.3 0-.7 0c-.8 0-1.4-.5-1.4-1.4c.04.01 0-2.8 0-2.8l-.9 0l0-.9c0 0 .25.04.2 0c.6 0 .8-.3.8-.7c.03-.03 0-.9 0-.9l.9 0l0 1.6zm2.4 5.1l0-5.1l1 0l0 5.1l-1 0zm.5-7.7c.4 0 .7.3.7.7c0 .4-.3.7-.7.7c-.4 0-.7-.3-.7-.7c0-.4.3-.7.7-.7zm5.9 5.2c0-1.2-.7-1.8-1.5-1.8c-.9 0-1.6.6-1.6 1.8c0 1.1.7 1.8 1.6 1.8c.8 0 1.5-.7 1.5-1.8zm1 0c0 1.5-1 2.7-2.5 2.7c-1.6 0-2.6-1.2-2.6-2.7c0-1.6 1-2.7 2.6-2.7c1.5 0 2.5 1.1 2.5 2.7zm2.3 2.5l-1 0l0-5.1l1 0c0 0-.04.77 0 .8c.3-.7.9-.9 1.5-.9c1.2 0 1.8.9 1.8 2c.02-.01 0 3.2 0 3.2l-1 0c0 0 .03-3.04 0-3c0-.7-.3-1.3-1.1-1.3c-.8 0-1.2.6-1.2 1.4c-.02-.03 0 2.9 0 2.9zm4.6-1.4c0-.9.6-1.4 1.5-1.5c0 0 1.4-.2 1.4-.2c.3 0 .4-.2.4-.4c0-.5-.4-.9-1.1-.9c-.7 0-1.1.5-1.2 1c0 0-.9-.2-.9-.2c.1-.9 1-1.6 2.1-1.6c1.5 0 2.1.8 2.1 1.8c0 0 0 2.6 0 2.6c0 .4 0 .7 0 .8c0 0-.9 0-.9 0c-.1-.1-.1-.3-.1-.7c-.2.4-.7.9-1.6.9c-1.1 0-1.7-.8-1.7-1.6c0 0 0 0 0 0zm3.3-.8c-.03.03 0-.2 0-.2c0 0-1.58.23-1.6.2c-.4.1-.7.3-.7.8c0 .4.3.7.8.7c.8 0 1.5-.4 1.5-1.5zm2.5 2.2l0-7.6l1 0l0 7.6l-1 0zm6.1-3c-.1-.8-.5-1.3-1.4-1.3c-.9 0-1.4.6-1.4 1.3c0 0 2.8 0 2.8 0zm1 1.6c-.3.8-1.1 1.6-2.3 1.6c-1.4 0-2.6-1-2.6-2.7c0-1.6 1.2-2.7 2.5-2.7c1.5 0 2.4 1.1 2.4 2.6c0 .2 0 .3 0 .3c0 0-3.8 0-3.8 0c0 1 .6 1.6 1.5 1.6c.8 0 1.2-.5 1.4-1c0 0 .9.3.9.3z" stroke="none" fill="#144542"/></g><g id="Polygon166660"><path d="m2.9 7.8c.9 0 1.5-.8 1.5-1.9c0-1-.6-1.7-1.5-1.7c-.9 0-1.5.7-1.5 1.8c0 1 .6 1.8 1.5 1.8zm1.5-.1c-.3.5-.8.9-1.6.9c-1.5 0-2.4-1.1-2.4-2.6c0-1.5 1-2.7 2.4-2.7c.9 0 1.4.4 1.6.9c-.04-.04 0-3.3 0-3.3l.9 0c0 0 .03 6.66 0 6.7c0 .4.1.8.1.9c0 0-1 0-1 0c0-.1 0-.4 0-.7c0 0 0-.1 0-.1zm6.4-1.7c0-1.2-.8-1.8-1.6-1.8c-.9 0-1.6.6-1.6 1.8c0 1.1.7 1.8 1.6 1.8c.8 0 1.6-.7 1.6-1.8zm1 0c0 1.5-1.1 2.7-2.6 2.7c-1.5 0-2.6-1.2-2.6-2.7c0-1.6 1.1-2.7 2.6-2.7c1.5 0 2.6 1.1 2.6 2.7zm2.2 2.5l-1 0l0-5.1l1 0c0 0-.01.77 0 .8c.4-.7 1-.9 1.5-.9c1.2 0 1.8.9 1.8 2c.05-.01 0 3.2 0 3.2l-.9 0c0 0-.04-3.04 0-3c0-.7-.3-1.3-1.2-1.3c-.8 0-1.2.6-1.2 1.4c.01-.03 0 2.9 0 2.9zm6.2-5.1l1.1 0l0 .9l-1.1 0c0 0 .04 2.66 0 2.7c0 .4.2.7.7.7c.2 0 .4-.1.4-.1c0 0 0 .9 0 .9c0 0-.3 0-.6 0c-.9 0-1.4-.5-1.4-1.4c-.04.01 0-2.8 0-2.8l-1 0l0-.9c0 0 .26.04.3 0c.5 0 .7-.3.7-.7c.04-.03 0-.9 0-.9l.9 0l0 1.6zm6.1 5.1l0-4.8l-1.6 0c0 0 0-.73 0-.7c.9 0 1.6-.6 1.7-1.3c.05-.01 1 0 1 0l0 6.8l-1.1 0zm6-5c0-.6-.5-1.1-1.2-1.1c-.8 0-1.3.5-1.3 1.1c0 .6.6 1.1 1.3 1.1c.7 0 1.2-.5 1.2-1.1zm.2 3.1c0-.6-.5-1.2-1.4-1.2c-.9 0-1.4.6-1.4 1.2c0 .7.5 1.2 1.4 1.2c.9 0 1.4-.5 1.4-1.2zm-1.4 2.1c-1.6 0-2.5-.9-2.5-2c0-.8.6-1.4 1.3-1.7c-.6-.2-1.1-.8-1.1-1.6c0-1.1 1-1.9 2.3-1.9c1.3 0 2.3.8 2.3 1.9c0 .8-.5 1.4-1.1 1.6c.7.2 1.2.9 1.2 1.7c0 1.1-.9 2-2.4 2c0 0 0 0 0 0zm4.3-2.3c0 .8.7 1.4 1.5 1.4c.8 0 1.5-.6 1.5-1.4c0-1-.7-1.4-1.5-1.4c-.5 0-.9.2-1.2.5c-.4-.2-.7-.3-1-.4c-.05-.03.8-3.4.8-3.4l3.6 0l0 .9l-2.9 0c0 0-.49 1.99-.5 2c.3-.3.9-.5 1.4-.5c1.3 0 2.3.8 2.3 2.2c0 1.3-1 2.4-2.5 2.4c-1.4 0-2.4-1-2.5-2.1c0 0 1-.2 1-.2zm10.4-5.3c1.4 0 2.2.8 2.2 2c0 .8-.4 1.3-1.1 1.6c.9.2 1.3.9 1.3 1.8c0 1.1-.9 2-2.3 2c.05-.01-2.6 0-2.6 0l0-7.4c0 0 2.47-.05 2.5 0zm-.1 3.2c.8 0 1.3-.5 1.3-1.2c0-.7-.5-1.1-1.4-1.1c.01-.05-1.2 0-1.2 0l0 2.3c0 0 1.25.01 1.3 0zm.1 3.3c.8 0 1.4-.5 1.4-1.2c0-.7-.5-1.2-1.4-1.2c.04-.01-1.4 0-1.4 0l0 2.4c0 0 1.4-.01 1.4 0zm7.2-2.1c0-.8-.5-1.3-1.4-1.3c-.8 0-1.3.6-1.3 1.3c0 0 2.7 0 2.7 0zm1 1.6c-.3.8-1.1 1.6-2.3 1.6c-1.3 0-2.5-1-2.5-2.7c0-1.6 1.1-2.7 2.4-2.7c1.6 0 2.4 1.1 2.4 2.6c0 .2 0 .3 0 .3c0 0-3.8 0-3.8 0c0 1 .7 1.6 1.5 1.6c.9 0 1.3-.5 1.5-1c0 0 .8.3.8.3zm-2-4.3l-.8 0l.9-1.5l1.2 0l-1.3 1.5zm4.3 5.7l-1 0l0-5.1l1 0c0 0-.03.77 0 .8c.3-.7.9-.9 1.5-.9c1.2 0 1.8.9 1.8 2c.03-.01 0 3.2 0 3.2l-1 0c0 0 .04-3.04 0-3c0-.7-.3-1.3-1.1-1.3c-.8 0-1.2.6-1.2 1.4c-.01-.03 0 2.9 0 2.9zm8.3-3c0-.8-.5-1.3-1.4-1.3c-.8 0-1.3.6-1.4 1.3c0 0 2.8 0 2.8 0zm1 1.6c-.3.8-1.1 1.6-2.3 1.6c-1.3 0-2.5-1-2.5-2.7c0-1.6 1.1-2.7 2.4-2.7c1.6 0 2.4 1.1 2.4 2.6c0 .2 0 .3 0 .3c0 0-3.8 0-3.8 0c0 1 .7 1.6 1.5 1.6c.9 0 1.3-.5 1.5-1c0 0 .8.3.8.3zm-2-4.3l-.8 0l.9-1.5l1.2 0l-1.3 1.5zm5.8-1.8c0 0 0 .8 0 .8c0 0-.1 0-.4 0c-.3 0-.8.1-.8.8c.02.04 0 .8 0 .8l3.4 0l0 5.1l-1 0l0-4.2l-2.4 0l0 4.2l-1 0l0-4.2l-.9 0l0-.9l.9 0c0 0 0-.81 0-.8c0-1.1.7-1.7 1.7-1.7c.3 0 .5 0 .5.1zm1 .5c0-.4.3-.7.7-.7c.4 0 .7.3.7.7c0 .4-.3.7-.7.7c-.4 0-.7-.3-.7-.7c0 0 0 0 0 0zm3.4 4.5c0 1.1.7 1.7 1.6 1.7c.9 0 1.3-.6 1.4-1c0 0 .8.4.8.4c-.2.7-.9 1.6-2.2 1.6c-1.5 0-2.6-1.2-2.6-2.7c0-1.6 1.1-2.7 2.6-2.7c1.3 0 2 .8 2.2 1.6c0 0-.9.4-.9.4c-.1-.5-.5-1.1-1.3-1.1c-.8 0-1.6.6-1.6 1.8zm5 2.5l0-5.1l1 0l0 5.1l-1 0zm.5-7.7c.4 0 .7.3.7.7c0 .4-.3.7-.7.7c-.4 0-.7-.3-.7-.7c0-.4.3-.7.7-.7zm1.8 6.3c0-.9.7-1.4 1.6-1.5c0 0 1.3-.2 1.3-.2c.3 0 .4-.2.4-.4c0-.5-.3-.9-1.1-.9c-.7 0-1 .5-1.1 1c0 0-1-.2-1-.2c.2-.9 1-1.6 2.1-1.6c1.5 0 2.1.8 2.1 1.8c0 0 0 2.6 0 2.6c0 .4.1.7.1.8c0 0-1 0-1 0c0-.1 0-.3 0-.7c-.3.4-.8.9-1.7.9c-1 0-1.7-.8-1.7-1.6c0 0 0 0 0 0zm3.3-.8c.03.03 0-.2 0-.2c0 0-1.51.23-1.5.2c-.4.1-.7.3-.7.8c0 .4.3.7.8.7c.8 0 1.4-.4 1.4-1.5zm2.6 2.2l0-5.1l.9 0l0 5.1l-.9 0zm.4-7.7c.4 0 .7.3.7.7c0 .4-.3.7-.7.7c-.4 0-.7-.3-.7-.7c0-.4.3-.7.7-.7zm5 3.6c-.1 0-.3 0-.4 0c-.9 0-1.4.5-1.4 1.6c-.01-.04 0 2.5 0 2.5l-1 0l0-5.1l1 0c0 0-.03.93 0 .9c.3-.8 1-.9 1.5-.9c.1 0 .3 0 .3 0c0 0 0 1 0 1zm4.4 1.1c0-.8-.5-1.3-1.4-1.3c-.8 0-1.3.6-1.4 1.3c0 0 2.8 0 2.8 0zm1 1.6c-.3.8-1.1 1.6-2.3 1.6c-1.3 0-2.5-1-2.5-2.7c0-1.6 1.1-2.7 2.4-2.7c1.6 0 2.4 1.1 2.4 2.6c0 .2 0 .3 0 .3c0 0-3.8 0-3.8 0c0 1 .7 1.6 1.5 1.6c.9 0 1.3-.5 1.5-1c0 0 .8.3.8.3zm1.7-.2c.1.5.5.9 1.2.9c.6 0 .9-.3.9-.7c0-.3-.3-.5-.7-.6c0 0-.9-.2-.9-.2c-.7-.2-1.2-.7-1.2-1.4c0-.9.8-1.6 1.8-1.6c1.4 0 1.8.9 1.9 1.3c0 0-.9.4-.9.4c0-.3-.2-.9-1-.9c-.5 0-.9.4-.9.7c0 .3.2.5.6.6c0 0 .8.2.8.2c.9.2 1.4.7 1.4 1.5c0 .7-.6 1.6-1.8 1.6c-1.4 0-2-.9-2.1-1.5c0 0 .9-.3.9-.3zm9 .9c.9 0 1.5-.8 1.5-1.9c0-1-.5-1.7-1.5-1.7c-.9 0-1.4.7-1.4 1.8c0 1 .5 1.8 1.4 1.8zm1.5-.1c-.2.5-.8.9-1.6.9c-1.4 0-2.4-1.1-2.4-2.6c0-1.5 1-2.7 2.4-2.7c.9 0 1.4.4 1.6.9c-.01-.04 0-3.3 0-3.3l1 0c0 0-.04 6.66 0 6.7c0 .4 0 .8 0 .9c0 0-.9 0-.9 0c-.1-.1-.1-.4-.1-.7c0 0 0-.1 0-.1zm6-2.2c0-.8-.4-1.3-1.3-1.3c-.9 0-1.4.6-1.4 1.3c0 0 2.7 0 2.7 0zm1 1.6c-.2.8-1 1.6-2.2 1.6c-1.4 0-2.6-1-2.6-2.7c0-1.6 1.2-2.7 2.4-2.7c1.6 0 2.5 1.1 2.5 2.6c0 .2 0 .3 0 .3c0 0-3.8 0-3.8 0c0 1 .6 1.6 1.5 1.6c.8 0 1.2-.5 1.4-1c0 0 .8.3.8.3zm4 1.4l0-7.6l.9 0l0 7.6l-.9 0zm2.3-1.4c0-.9.7-1.4 1.5-1.5c0 0 1.4-.2 1.4-.2c.3 0 .4-.2.4-.4c0-.5-.3-.9-1.1-.9c-.7 0-1.1.5-1.1 1c0 0-1-.2-1-.2c.1-.9 1-1.6 2.1-1.6c1.5 0 2.1.8 2.1 1.8c0 0 0 2.6 0 2.6c0 .4 0 .7 0 .8c0 0-.9 0-.9 0c0-.1-.1-.3-.1-.7c-.2.4-.7.9-1.6.9c-1 0-1.7-.8-1.7-1.6c0 0 0 0 0 0zm3.3-.8c0 .03 0-.2 0-.2c0 0-1.55.23-1.5.2c-.5.1-.8.3-.8.8c0 .4.3.7.8.7c.8 0 1.5-.4 1.5-1.5z" stroke="none" fill="#144542"/></g></svg>