<?xml version="1.0" standalone="no"?><!DOCTYPE svg PUBLIC "-//W3C//DTD SVG 1.1//EN" "http://www.w3.org/Graphics/SVG/1.1/DTD/svg11.dtd"><svg xmlns="http://www.w3.org/2000/svg" version="1.1" width="527.2px" height="109.8px" viewBox="0 -4 527.2 109.8" style="top:-4px"><desc>01</desc><defs/><g class="svg-textframe-underlines"><rect class="svg-underline" x="254" y="17.7" width="19.2" height="1" style="fill:#fff;"/></g><g id="Polygon165067"><path d="m258.1 13.9c.5.5 1.1.8 2 .8c1 0 1.6-.3 2.1-.8c.8-.8 1.1-2.2 1.1-4.2c0-2-.3-3.4-1.1-4.2c-.5-.5-1.1-.8-2.1-.8c-.9 0-1.5.3-2 .8c-.8.8-1.2 2.2-1.2 4.2c0 2 .4 3.4 1.2 4.2zm-1.9-8.9c.8-1.3 2.1-2.1 3.9-2.1c1.9 0 3.2.8 4 2.1c.9 1.3 1.2 2.9 1.2 4.7c0 1.8-.3 3.4-1.2 4.7c-.8 1.3-2.1 2.1-4 2.1c-1.8 0-3.1-.8-3.9-2.1c-.9-1.3-1.2-2.9-1.2-4.7c0-1.8.3-3.4 1.2-4.7zm13.6 11.2l0-9.2l-3.1 0c0 0-.02-1.34 0-1.3c1.8-.1 3-1.1 3.3-2.5c.02.02 1.7 0 1.7 0l0 13l-1.9 0z" stroke="none" fill="#fff"/></g></svg>