<?xml version="1.0" standalone="no"?><!DOCTYPE svg PUBLIC "-//W3C//DTD SVG 1.1//EN" "http://www.w3.org/Graphics/SVG/1.1/DTD/svg11.dtd"><svg xmlns="http://www.w3.org/2000/svg" version="1.1" width="270px" height="29px" viewBox="0 -3 270 29" style="top:-3px"><desc>1# Favoriser l’int gration des apprenants au sein d’entreprises recruteuses</desc><defs/><g id="Polygon186161"><path d="m4.8 15.7c-.1-.6-.5-1.3-1.6-1.3c-.8 0-1.4.5-1.4 1.2c0 .6.3 1 1 1.1c0 0 1.1.3 1.1.3c1.2.2 1.9 1 1.9 2c0 1.2-1 2.3-2.6 2.3c-1.8 0-2.6-1.2-2.7-2.3c0 0 .9-.3.9-.3c.1.9.7 1.6 1.8 1.6c1.1 0 1.6-.5 1.6-1.2c0-.5-.4-1-1.2-1.1c0 0-1-.3-1-.3c-1.1-.2-1.8-.9-1.8-2c0-1.2 1-2.2 2.4-2.2c1.7 0 2.4 1 2.5 1.8c0 0-.9.4-.9.4zm2.5 5.4l0-7.4l4.6 0l0 .9l-3.5 0l0 2.3l3.1 0l0 1l-3.1 0l0 2.2l3.5 0l0 1l-4.6 0zm6.2 0l0-7.4l1.1 0l0 7.4l-1.1 0zm8.1 0l-4-6.1l0 6.1l-1 0l0-7.4l1.4 0l3.7 5.7l0-5.7l1 0l0 7.4l-1.1 0zm8.3-.9c1.3 0 2.5-.9 2.5-2.8c0-1.9-1.1-2.8-2.5-2.8c-.01-.04-1.6 0-1.6 0l0 5.6c0 0 1.57-.02 1.6 0zm-2.6.9l0-7.4c0 0 2.62-.05 2.6 0c1.9 0 3.6 1.2 3.6 3.7c0 2.4-1.7 3.7-3.6 3.7c0-.01-2.6 0-2.6 0zm7.7-7.5c.4 0 .8.3.8.9c0 1.3-.8 1.8-1.4 1.9c0 0 0-.5 0-.5c.4-.1.8-.6.8-1.1c-.1 0-.1.1-.2.1c-.4 0-.7-.3-.7-.7c0-.3.3-.6.7-.6zm2.2 7.5l0-7.4l4.6 0l0 .9l-3.5 0l0 2.3l3.1 0l0 1l-3.1 0l0 2.2l3.5 0l0 1l-4.6 0zm11.3 0l-4-6.1l0 6.1l-1.1 0l0-7.4l1.4 0l3.7 5.7l0-5.7l1.1 0l0 7.4l-1.1 0zm5.7-6.5l0 6.5l-1 0l0-6.5l-2.5 0l0-.9l6 0l0 .9l-2.5 0zm5.8 3.4l-1.1 0l0 3.1l-1 0l0-7.4c0 0 2.78-.05 2.8 0c1.4 0 2.3.9 2.3 2.2c0 1-.7 1.9-1.8 2.1c-.05-.02 1.7 3.1 1.7 3.1l-1.2 0l-1.7-3.1zm.5-.9c.8 0 1.4-.5 1.4-1.2c0-.8-.6-1.3-1.4-1.3c-.01-.03-1.6 0-1.6 0l0 2.5c0 0 1.59.03 1.6 0zm4 4l0-7.4l4.5 0l0 .9l-3.5 0l0 2.3l3.2 0l0 1l-3.2 0l0 2.2l3.5 0l0 1l-4.5 0zm8.7-4c.9 0 1.4-.5 1.4-1.2c0-.8-.5-1.3-1.4-1.3c0-.03-1.5 0-1.5 0l0 2.5c0 0 1.5.03 1.5 0zm-1.5.9l0 3.1l-1 0l0-7.4c0 0 2.69-.05 2.7 0c1.4 0 2.3.9 2.3 2.2c0 1.2-.9 2.1-2.3 2.1c-.01.05-1.7 0-1.7 0zm7.5 0l-1.1 0l0 3.1l-1 0l0-7.4c0 0 2.76-.05 2.8 0c1.4 0 2.2.9 2.2 2.2c0 1-.6 1.9-1.8 2.1c.03-.02 1.8 3.1 1.8 3.1l-1.2 0l-1.7-3.1zm.5-.9c.8 0 1.4-.5 1.4-1.2c0-.8-.6-1.3-1.4-1.3c-.03-.03-1.6 0-1.6 0l0 2.5c0 0 1.57.03 1.6 0zm4 4l0-7.4l1 0l0 7.4l-1 0zm6.8-5.4c-.1-.6-.5-1.3-1.5-1.3c-.9 0-1.5.5-1.5 1.2c0 .6.3 1 1 1.1c0 0 1.1.3 1.1.3c1.2.2 1.9 1 1.9 2c0 1.2-1 2.3-2.6 2.3c-1.8 0-2.6-1.2-2.7-2.3c0 0 .9-.3.9-.3c.1.9.7 1.6 1.8 1.6c1.1 0 1.6-.5 1.6-1.2c0-.5-.4-1-1.1-1.1c0 0-1.1-.3-1.1-.3c-1.1-.2-1.8-.9-1.8-2c0-1.2 1.1-2.2 2.4-2.2c1.7 0 2.4 1 2.6 1.8c0 0-1 .4-1 .4zm2.5 5.4l0-7.4l4.6 0l0 .9l-3.5 0l0 2.3l3.1 0l0 1l-3.1 0l0 2.2l3.5 0l0 1l-4.6 0zm10.1-5.4c-.1-.6-.6-1.3-1.6-1.3c-.8 0-1.4.5-1.4 1.2c0 .6.3 1 .9 1.1c0 0 1.1.3 1.1.3c1.3.2 2 1 2 2c0 1.2-1 2.3-2.6 2.3c-1.8 0-2.7-1.2-2.8-2.3c0 0 1-.3 1-.3c.1.9.6 1.6 1.8 1.6c1 0 1.5-.5 1.5-1.2c0-.5-.4-1-1.1-1.1c0 0-1.1-.3-1.1-.3c-1-.2-1.8-.9-1.8-2c0-1.2 1.1-2.2 2.5-2.2c1.6 0 2.3 1 2.5 1.8c0 0-.9.4-.9.4zm7.3 2.3l-1.2 0l0 3.1l-1 0l0-7.4c0 0 2.8-.05 2.8 0c1.4 0 2.3.9 2.3 2.2c0 1-.7 1.9-1.8 2.1c-.02-.02 1.7 3.1 1.7 3.1l-1.1 0l-1.7-3.1zm.4-.9c.9 0 1.4-.5 1.4-1.2c0-.8-.5-1.3-1.4-1.3c.01-.03-1.6 0-1.6 0l0 2.5c0 0 1.61.03 1.6 0zm4 4l0-7.4l4.5 0l0 .9l-3.5 0l0 2.3l3.2 0l0 1l-3.2 0l0 2.2l3.5 0l0 1l-4.5 0zm5.7-3.7c0-2.5 1.8-3.9 3.7-3.9c1.7 0 2.9.9 3.3 2.4c0 0-1 .3-1 .3c-.3-1.1-1.1-1.8-2.3-1.8c-1.4 0-2.7 1-2.7 3c0 1.9 1.3 2.9 2.7 2.9c1.3 0 2-.8 2.4-1.8c0 0 .9.4.9.4c-.4 1.4-1.6 2.4-3.3 2.4c-1.9 0-3.7-1.4-3.7-3.9zm10.6.6l-1.1 0l0 3.1l-1.1 0l0-7.4c0 0 2.84-.05 2.8 0c1.4 0 2.3.9 2.3 2.2c0 1-.7 1.9-1.8 2.1c.01-.02 1.8 3.1 1.8 3.1l-1.2 0l-1.7-3.1zm.5-.9c.8 0 1.4-.5 1.4-1.2c0-.8-.6-1.3-1.4-1.3c-.05-.03-1.6 0-1.6 0l0 2.5c0 0 1.55.03 1.6 0zm3.8 1.5c.04-.05 0-4.9 0-4.9l1.1 0c0 0-.05 4.82 0 4.8c0 1.2.6 1.8 1.6 1.8c1.1 0 1.7-.6 1.7-1.8c-.04.02 0-4.8 0-4.8l1 0c0 0-.01 4.85 0 4.9c0 1.7-1.2 2.7-2.7 2.7c-1.5 0-2.7-1-2.7-2.7zm10-4l0 6.5l-1.1 0l0-6.5l-2.5 0l0-.9l6 0l0 .9l-2.4 0zm3.6 6.5l0-7.4l4.5 0l0 .9l-3.5 0l0 2.3l3.2 0l0 1l-3.2 0l0 2.2l3.5 0l0 1l-4.5 0zm6.1-2.5c0-.05 0-4.9 0-4.9l1 0c0 0 .02 4.82 0 4.8c0 1.2.6 1.8 1.7 1.8c1 0 1.6-.6 1.6-1.8c.03.02 0-4.8 0-4.8l1.1 0c0 0-.04 4.85 0 4.9c0 1.7-1.2 2.7-2.7 2.7c-1.5 0-2.7-1-2.7-2.7zm11.1-2.9c-.1-.6-.6-1.3-1.6-1.3c-.8 0-1.4.5-1.4 1.2c0 .6.3 1 .9 1.1c0 0 1.1.3 1.1.3c1.3.2 2 1 2 2c0 1.2-1 2.3-2.6 2.3c-1.8 0-2.7-1.2-2.8-2.3c0 0 1-.3 1-.3c.1.9.6 1.6 1.8 1.6c1 0 1.5-.5 1.5-1.2c0-.5-.4-1-1.1-1.1c0 0-1.1-.3-1.1-.3c-1-.2-1.8-.9-1.8-2c0-1.2 1.1-2.2 2.5-2.2c1.7 0 2.3 1 2.5 1.8c0 0-.9.4-.9.4zm2.5 5.4l0-7.4l4.5 0l0 .9l-3.5 0l0 2.3l3.2 0l0 1l-3.2 0l0 2.2l3.5 0l0 1l-4.5 0zm10-5.4c-.1-.6-.5-1.3-1.6-1.3c-.8 0-1.4.5-1.4 1.2c0 .6.3 1 .9 1.1c0 0 1.2.3 1.2.3c1.2.2 1.9 1 1.9 2c0 1.2-1 2.3-2.6 2.3c-1.8 0-2.6-1.2-2.8-2.3c0 0 1-.3 1-.3c.1.9.7 1.6 1.8 1.6c1 0 1.5-.5 1.5-1.2c0-.5-.3-1-1.1-1.1c0 0-1-.3-1-.3c-1.1-.2-1.8-.9-1.8-2c0-1.2 1-2.2 2.4-2.2c1.7 0 2.4 1 2.5 1.8c0 0-.9.4-.9.4z" stroke="none" fill="#3b6966"/></g><g id="Polygon186160"><path d="m15.2 8.5l0-7.4l4.5 0l0 .9l-3.5 0l0 2.4l3.2 0l0 1l-3.2 0l0 3.1l-1 0zm9.7-2.1l-3.3 0l-.8 2.1l-1.1 0l3-7.4l1.2 0l2.9 7.4l-1.1 0l-.8-2.1zm-2.9-.9l2.6 0l-1.3-3.4l-1.3 3.4zm10.2-4.4l1.1 0l-2.9 7.4l-1 0l-2.8-7.4l1.1 0l2.2 6.1l2.3-6.1zm5.2 6.6c1.4 0 2.7-1 2.7-2.9c0-2-1.3-3-2.7-3c-1.4 0-2.7 1-2.7 3c0 1.9 1.3 2.9 2.7 2.9zm0-6.8c1.9 0 3.8 1.4 3.8 3.9c0 2.5-1.9 3.9-3.8 3.9c-1.8 0-3.7-1.4-3.7-3.9c0-2.5 1.9-3.9 3.7-3.9zm7.4 4.5l-1.1 0l0 3.1l-1 0l0-7.4c0 0 2.8-.05 2.8 0c1.4 0 2.3.9 2.3 2.2c0 1-.7 1.9-1.8 2.1c-.03-.02 1.7 3.1 1.7 3.1l-1.2 0l-1.7-3.1zm.5-.9c.8 0 1.4-.5 1.4-1.2c0-.8-.6-1.3-1.4-1.3c.01-.03-1.6 0-1.6 0l0 2.5c0 0 1.61.03 1.6 0zm4 4l0-7.4l1 0l0 7.4l-1 0zm6.9-5.4c-.1-.6-.6-1.3-1.6-1.3c-.9 0-1.5.5-1.5 1.2c0 .6.4 1 1 1.1c0 0 1.1.3 1.1.3c1.3.2 1.9 1 1.9 2c0 1.2-.9 2.3-2.5 2.3c-1.8 0-2.7-1.2-2.8-2.3c0 0 1-.3 1-.3c.1.9.6 1.6 1.8 1.6c1 0 1.5-.5 1.5-1.2c0-.5-.4-1-1.1-1.1c0 0-1.1-.3-1.1-.3c-1-.2-1.8-.9-1.8-2c0-1.2 1.1-2.2 2.5-2.2c1.6 0 2.3 1 2.5 1.8c0 0-.9.4-.9.4zm2.5 5.4l0-7.4l4.5 0l0 .9l-3.5 0l0 2.3l3.2 0l0 1l-3.2 0l0 2.2l3.5 0l0 1l-4.5 0zm8.3-3.1l-1.1 0l0 3.1l-1 0l0-7.4c0 0 2.78-.05 2.8 0c1.4 0 2.3.9 2.3 2.2c0 1-.7 1.9-1.8 2.1c-.05-.02 1.7 3.1 1.7 3.1l-1.2 0l-1.7-3.1zm.5-.9c.8 0 1.4-.5 1.4-1.2c0-.8-.6-1.3-1.4-1.3c-.01-.03-1.6 0-1.6 0l0 2.5c0 0 1.59.03 1.6 0zm6.6 4l0-7.4l1 0l0 6.4l3.6 0l0 1l-4.6 0zm5.4-7.5c.4 0 .8.3.8.9c0 1.3-.9 1.8-1.5 1.9c0 0 0-.5 0-.5c.5-.1.8-.6.8-1.1c0 0-.1.1-.2.1c-.3 0-.6-.3-.6-.7c0-.3.3-.6.7-.6zm2.2 7.5l0-7.4l1 0l0 7.4l-1 0zm8.1 0l-4-6.1l0 6.1l-1.1 0l0-7.4l1.4 0l3.7 5.7l0-5.7l1.1 0l0 7.4l-1.1 0zm5.7-6.5l0 6.5l-1 0l0-6.5l-2.5 0l0-.9l6 0l0 .9l-2.5 0zm3.7 6.5l0-7.4l4.5 0l0 .9l-3.5 0l0 2.3l3.2 0l0 1l-3.2 0l0 2.2l3.5 0l0 1l-4.5 0zm2.5-8l-1 0l1-1.2l1.4 0l-1.4 1.2zm9.2 8c0 0-.05-1.06-.1-1.1c-.3.6-1.1 1.3-2.3 1.3c-1.9 0-3.6-1.4-3.6-3.9c0-2.6 1.8-3.9 3.6-3.9c1.7 0 2.9.9 3.3 2.2c0 0-.9.4-.9.4c-.3-1-1.2-1.7-2.4-1.7c-1.3 0-2.6 1-2.6 3c0 1.9 1.3 2.9 2.6 2.9c1.7 0 2.3-1.2 2.3-1.9c-.01-.03-2.6 0-2.6 0l0-.9l3.6 0l0 3.6l-.9 0zm4.7-3.1l-1.1 0l0 3.1l-1 0l0-7.4c0 0 2.76-.05 2.8 0c1.4 0 2.2.9 2.2 2.2c0 1-.6 1.9-1.8 2.1c.04-.02 1.8 3.1 1.8 3.1l-1.2 0l-1.7-3.1zm.5-.9c.8 0 1.4-.5 1.4-1.2c0-.8-.6-1.3-1.4-1.3c-.02-.03-1.6 0-1.6 0l0 2.5c0 0 1.58.03 1.6 0zm8.3 1.9l-3.3 0l-.8 2.1l-1.1 0l2.9-7.4l1.2 0l3 7.4l-1.1 0l-.8-2.1zm-3-.9l2.6 0l-1.3-3.4l-1.3 3.4zm8-3.5l0 6.5l-1 0l0-6.5l-2.5 0l0-.9l6 0l0 .9l-2.5 0zm3.7 6.5l0-7.4l1 0l0 7.4l-1 0zm6.3-.8c1.4 0 2.7-1 2.7-2.9c0-2-1.3-3-2.7-3c-1.4 0-2.7 1-2.7 3c0 1.9 1.3 2.9 2.7 2.9zm0-6.8c1.9 0 3.7 1.4 3.7 3.9c0 2.5-1.8 3.9-3.7 3.9c-1.9 0-3.8-1.4-3.8-3.9c0-2.5 1.9-3.9 3.8-3.9zm10.3 7.6l-4-6.1l0 6.1l-1.1 0l0-7.4l1.4 0l3.7 5.7l0-5.7l1.1 0l0 7.4l-1.1 0zm8.2-.9c1.4 0 2.6-.9 2.6-2.8c0-1.9-1.2-2.8-2.5-2.8c-.04-.04-1.6 0-1.6 0l0 5.6c0 0 1.54-.02 1.5 0zm-2.5.9l0-7.4c0 0 2.59-.05 2.6 0c1.9 0 3.5 1.2 3.5 3.7c0 2.4-1.6 3.7-3.5 3.7c-.03-.01-2.6 0-2.6 0zm7.7 0l0-7.4l4.5 0l0 .9l-3.5 0l0 2.3l3.2 0l0 1l-3.2 0l0 2.2l3.5 0l0 1l-4.5 0zm10-5.4c-.1-.6-.6-1.3-1.6-1.3c-.8 0-1.4.5-1.4 1.2c0 .6.3 1 .9 1.1c0 0 1.1.3 1.1.3c1.3.2 2 1 2 2c0 1.2-1 2.3-2.6 2.3c-1.8 0-2.7-1.2-2.8-2.3c0 0 1-.3 1-.3c.1.9.7 1.6 1.8 1.6c1 0 1.5-.5 1.5-1.2c0-.5-.4-1-1.1-1.1c0 0-1.1-.3-1.1-.3c-1-.2-1.8-.9-1.8-2c0-1.2 1.1-2.2 2.5-2.2c1.7 0 2.3 1 2.5 1.8c0 0-.9.4-.9.4zm9.5 3.3l-3.3 0l-.8 2.1l-1.1 0l2.9-7.4l1.2 0l3 7.4l-1.1 0l-.8-2.1zm-3-.9l2.6 0l-1.3-3.4l-1.3 3.4zm8.6-1c.8 0 1.4-.5 1.4-1.2c0-.8-.6-1.3-1.4-1.3c-.04-.03-1.5 0-1.5 0l0 2.5c0 0 1.46.03 1.5 0zm-1.5.9l0 3.1l-1.1 0l0-7.4c0 0 2.75-.05 2.7 0c1.4 0 2.3.9 2.3 2.2c0 1.2-.9 2.1-2.3 2.1c.05.05-1.6 0-1.6 0zm7.8-.9c.9 0 1.5-.5 1.5-1.2c0-.8-.6-1.3-1.5-1.3c.03-.03-1.5 0-1.5 0l0 2.5c0 0 1.53.03 1.5 0zm-1.5.9l0 3.1l-1 0l0-7.4c0 0 2.72-.05 2.7 0c1.4 0 2.3.9 2.3 2.2c0 1.2-.9 2.1-2.3 2.1c.02.05-1.7 0-1.7 0zm7.5 0l-1.1 0l0 3.1l-1 0l0-7.4c0 0 2.79-.05 2.8 0c1.4 0 2.3.9 2.3 2.2c0 1-.7 1.9-1.8 2.1c-.04-.02 1.7 3.1 1.7 3.1l-1.2 0l-1.7-3.1zm.5-.9c.8 0 1.4-.5 1.4-1.2c0-.8-.6-1.3-1.4-1.3c0-.03-1.6 0-1.6 0l0 2.5c0 0 1.6.03 1.6 0zm4 4l0-7.4l4.5 0l0 .9l-3.5 0l0 2.3l3.2 0l0 1l-3.2 0l0 2.2l3.5 0l0 1l-4.5 0zm11.2 0l-4-6.1l0 6.1l-1 0l0-7.4l1.4 0l3.7 5.7l0-5.7l1 0l0 7.4l-1.1 0zm7.5-2.1l-3.3 0l-.8 2.1l-1.1 0l2.9-7.4l1.2 0l3 7.4l-1.1 0l-.8-2.1zm-3-.9l2.6 0l-1.3-3.4l-1.3 3.4zm11.1 3l-4-6.1l0 6.1l-1.1 0l0-7.4l1.4 0l3.7 5.7l0-5.7l1.1 0l0 7.4l-1.1 0zm5.7-6.5l0 6.5l-1 0l0-6.5l-2.5 0l0-.9l6 0l0 .9l-2.5 0zm7.5 1.1c-.1-.6-.5-1.3-1.6-1.3c-.8 0-1.4.5-1.4 1.2c0 .6.3 1 .9 1.1c0 0 1.1.3 1.1.3c1.3.2 2 1 2 2c0 1.2-1 2.3-2.6 2.3c-1.8 0-2.6-1.2-2.8-2.3c0 0 1-.3 1-.3c.1.9.7 1.6 1.8 1.6c1 0 1.5-.5 1.5-1.2c0-.5-.3-1-1.1-1.1c0 0-1-.3-1-.3c-1.1-.2-1.9-.9-1.9-2c0-1.2 1.1-2.2 2.5-2.2c1.7 0 2.3 1 2.5 1.8c0 0-.9.4-.9.4zm9.5 3.3l-3.3 0l-.8 2.1l-1.1 0l2.9-7.4l1.2 0l3 7.4l-1.1 0l-.8-2.1zm-3-.9l2.6 0l-1.3-3.4l-1.3 3.4zm5.8.5c-.01-.05 0-4.9 0-4.9l1 0c0 0 0 4.82 0 4.8c0 1.2.6 1.8 1.7 1.8c1 0 1.6-.6 1.6-1.8c.01.02 0-4.8 0-4.8l1 0c0 0 .04 4.85 0 4.9c0 1.7-1.1 2.7-2.6 2.7c-1.5 0-2.7-1-2.7-2.7z" stroke="none" fill="#3b6966"/></g><g id="Polygon186159"><path d="m1.9 8.5l0-4.7l-1.6 0c0 0-.01-.83 0-.8c1 0 1.6-.6 1.8-1.3c-.01-.01 1.1 0 1.1 0l0 6.8l-1.3 0zm2.9-5.1l1.5 0l.3-1.7l1 0l-.3 1.7l1.4 0l.4-1.7l1 0l-.4 1.7l1.4 0l0 .9l-1.6 0l-.3 1.6l1.4 0l0 .9l-1.6 0l-.4 1.7l-1 0l.4-1.7l-1.5 0l-.3 1.7l-1 0l.3-1.7l-1.3 0l0-.9l1.5 0l.4-1.6l-1.3 0l0-.9zm1.9 2.5l1.5 0l.3-1.6l-1.4 0l-.4 1.6z" stroke="none" fill="#144542"/></g></svg>