<?xml version="1.0" standalone="no"?><!DOCTYPE svg PUBLIC "-//W3C//DTD SVG 1.1//EN" "http://www.w3.org/Graphics/SVG/1.1/DTD/svg11.dtd"><svg xmlns="http://www.w3.org/2000/svg" version="1.1" width="89px" height="71px" viewBox="0 -10 89 71" style="top:-10px"><desc>137</desc><defs/><g id="Polygon163838"><path d="m17.6 15.3l9.7-6.4c0 0 .03 17.58 0 17.6c0 2.4 1.4 3 1.9 3.2c0-.05 0 .6 0 .6l-10.4 0c0 0-.03-.65 0-.6c.7-.2 2.1-.8 2.1-3.3c0 0 0-7.6 0-7.6c0-2.7-2.1-3.1-3.3-2.7c-.05.03 0-.8 0-.8zm32.8 15.6c0 7.2-6.9 9.1-11 9c-7.1-.1-9-3.6-9-6.6c0-2.2 2-3.9 3.6-3.9c1.7 0 3.4 1 3.4 3.2c0 1.5-1.1 2.3-1.1 3.4c0 1 .5 3 3.1 3c2.9 0 4.1-2.8 4.1-7.3c0-4.7-2.6-7.6-9.5-5.8c0 0-.4-.7-.4-.7c5.1-2.3 9.4-5.4 9.4-9.7c0-2.3-1-5.2-3.7-5.2c-2 0-3.3 1.5-3.3 2.7c0 2 1.8 2.4 1.8 4.1c0 1.6-1.3 2.7-2.7 2.7c-2.2 0-3.6-1.5-3.6-3.6c0-3.2 3-6.7 8.3-6.7c5.9 0 9 2.3 9 6.5c0 3.4-3.5 6-8.2 7.5c0 0 0 .3 0 .3c6.4-.5 9.8 2.7 9.8 7.1zm21.9-20.9c-3.5 8-8 19.2-10.3 29.3c0 0-7.1 0-7.1 0c5-10.2 10-19 13.3-23.3c0 0-9.5 0-9.5 0c-3.5 0-5.9 1.5-6.8 3.6c-.01-.05-.9 0-.9 0c0 0 2.68-10.76 2.7-10.8c.8.6 1.3 1.2 5 1.2c0 0 13.6 0 13.6 0z" stroke="none" fill="#fff"/></g></svg>