<?xml version="1.0" standalone="no"?><!DOCTYPE svg PUBLIC "-//W3C//DTD SVG 1.1//EN" "http://www.w3.org/Graphics/SVG/1.1/DTD/svg11.dtd"><svg xmlns="http://www.w3.org/2000/svg" version="1.1" width="310px" height="196.8px" viewBox="0 -7 310 196.8" style="top:-7px"><desc>Agir pour un service public performant et inclusif</desc><defs/><g id="Polygon178980"><path d="m92.7 171.6l0-19.6l3.8 0l0 19.6l-3.8 0zm1.9-29.8c1.5 0 2.8 1.2 2.8 2.8c0 1.5-1.3 2.7-2.8 2.7c-1.5 0-2.8-1.2-2.8-2.7c0-1.6 1.3-2.8 2.8-2.8zm12.3 29.8l-3.9 0l0-19.6l3.8 0c0 0-.02 2.8 0 2.8c1.4-2.4 3.7-3.4 6-3.4c4.7 0 7 3.4 7 7.8c.04-.03 0 12.4 0 12.4l-3.8 0c0 0 .01-11.78 0-11.8c0-2.7-1.1-4.9-4.6-4.9c-3 0-4.5 2.4-4.5 5.4c-.03-.03 0 11.3 0 11.3zm21.3-9.8c0 4.5 2.9 6.9 6 6.9c3.7 0 5.1-2.5 5.5-4.1c0 0 3.4 1.5 3.4 1.5c-.9 2.8-3.7 6.1-8.9 6.1c-5.7 0-9.9-4.5-9.9-10.4c0-6.1 4.3-10.4 9.9-10.4c5.2 0 7.9 3.2 8.7 6.2c0 0-3.4 1.5-3.4 1.5c-.5-1.9-1.9-4.2-5.3-4.2c-3.1 0-6 2.3-6 6.9zm19.4 9.8l0-29.5l3.8 0l0 29.5l-3.8 0zm17.3.6c-4.6 0-7.3-3.4-7.3-7.8c-.05-.05 0-12.4 0-12.4l3.8 0c0 0-.01 11.78 0 11.8c0 2.7 1.2 5 4.4 5c3.1 0 4.7-2 4.7-5c-.01.02 0-11.8 0-11.8l3.8 0c0 0 .02 15.98 0 16c0 1.5.1 2.9.2 3.6c0 0-3.6 0-3.6 0c-.1-.4-.2-1.5-.2-2.4c-1.1 2.1-3.5 3-5.8 3zm17.6-6.9c.2 2 1.8 3.7 4.6 3.7c2.1 0 3.3-1.3 3.3-2.6c0-1.3-.9-2.2-2.5-2.6c0 0-3.4-.7-3.4-.7c-3-.7-4.9-2.7-4.9-5.5c0-3.4 3.2-6.2 7-6.2c5.4 0 7.1 3.5 7.5 5.2c0 0-3.4 1.3-3.4 1.3c-.2-1-1-3.3-4.1-3.3c-2 0-3.3 1.3-3.3 2.6c0 1.2.8 2.1 2.3 2.4c0 0 3.2.7 3.2.7c3.5.8 5.4 2.9 5.4 5.8c0 2.8-2.3 6.1-7.2 6.1c-5.4 0-7.7-3.4-8-5.7c0 0 3.5-1.2 3.5-1.2zm16.8 6.3l0-19.6l3.8 0l0 19.6l-3.8 0zm1.9-29.8c1.5 0 2.8 1.2 2.8 2.8c0 1.5-1.3 2.7-2.8 2.7c-1.5 0-2.8-1.2-2.8-2.7c0-1.6 1.3-2.8 2.8-2.8zm13.6 13.7l0 16.1l-4 0l0-16.1l-3.6 0l0-3.5l3.6 0c0 0 .01-3.32 0-3.3c0-4.4 2.9-6.8 6.5-6.8c1.3 0 2.1.3 2.2.5c0 0 0 3.4 0 3.4c-.2-.1-.7-.3-1.6-.3c-1.4 0-3.1.7-3.1 3.4c-.03-.02 0 3.1 0 3.1l4.7 0l0 3.5l-4.7 0z" stroke="none" fill="#fff"/></g><g id="Polygon178979"><path d="m31 133.2l0-27.4l3.7 0c0 0-.01 3.05 0 3c1.1-1.9 3.4-3.5 6.6-3.5c5.8 0 9 4.6 9 10.3c0 5.8-3.4 10.3-9.2 10.3c-3 0-5.3-1.4-6.3-3.1c-.02-.04 0 10.4 0 10.4l-3.8 0zm9.6-24.5c-3.5 0-5.9 3-5.9 6.9c0 4 2.4 6.9 5.9 6.9c3.5 0 5.8-2.9 5.8-6.9c0-3.9-2.2-6.9-5.8-6.9zm27.8 4.9c-.1-2.8-1.9-5-5.4-5c-3.2 0-5.2 2.4-5.3 5c0 0 10.7 0 10.7 0zm3.9 6.2c-1.1 3.5-4.3 6.2-8.8 6.2c-5.3 0-9.9-3.8-9.9-10.5c0-6.1 4.4-10.3 9.4-10.3c6 0 9.4 4.1 9.4 10.3c0 .4 0 .9-.1 1.2c0 0-14.8 0-14.8 0c.1 3.5 2.7 5.9 6 5.9c3.1 0 4.7-1.7 5.5-3.9c0 0 3.3 1.1 3.3 1.1zm15.9-10.1c-.6-.1-1.1-.2-1.7-.2c-3.2 0-5.4 1.8-5.4 6.1c.04-.02 0 9.8 0 9.8l-3.8 0l0-19.6l3.8 0c0 0-.05 3.41 0 3.4c1.4-3 3.8-3.7 5.8-3.7c.6 0 1.1 0 1.3.1c0 0 0 4.1 0 4.1zm10.2-.4l0 16.1l-3.9 0l0-16.1l-3.7 0l0-3.5l3.7 0c0 0-.02-3.32 0-3.3c0-4.4 2.9-6.8 6.4-6.8c1.3 0 2.1.3 2.3.5c0 0 0 3.4 0 3.4c-.2-.1-.7-.3-1.7-.3c-1.3 0-3.1.7-3.1 3.4c.04-.02 0 3.1 0 3.1l4.8 0l0 3.5l-4.8 0zm22.6 6.3c0-4.6-2.9-7-6.1-7c-3.3 0-6.1 2.4-6.1 7c0 4.6 2.8 7 6.1 7c3.2 0 6.1-2.4 6.1-7zm3.9 0c0 6-4.1 10.4-10 10.4c-5.9 0-10.1-4.4-10.1-10.4c0-6 4.2-10.4 10.1-10.4c5.9 0 10 4.4 10 10.4zm15.8-5.9c-.6-.1-1.1-.2-1.7-.2c-3.2 0-5.3 1.8-5.3 6.1c-.04-.02 0 9.8 0 9.8l-3.9 0l0-19.6l3.8 0c0 0-.02 3.41 0 3.4c1.4-3 3.9-3.7 5.9-3.7c.5 0 1 0 1.2.1c0 0 0 4.1 0 4.1zm4.1 15.7l0-19.6l3.7 0c0 0-.03 2.6 0 2.6c1.2-2.2 3.6-3.2 5.9-3.2c2.5 0 4.8 1.2 5.9 3.7c1.6-2.8 4.1-3.7 6.6-3.7c3.4 0 6.8 2.3 6.8 7.5c-.05-.02 0 12.7 0 12.7l-3.8 0c0 0-.05-12.31 0-12.3c0-2.6-1.3-4.5-4.2-4.5c-2.7 0-4.5 2.1-4.5 4.9c-.04.04 0 11.9 0 11.9l-3.9 0c0 0 .03-12.31 0-12.3c0-2.5-1.2-4.5-4.1-4.5c-2.8 0-4.6 2-4.6 5c-.01-.02 0 11.8 0 11.8l-3.8 0zm39.7-11.2c0 0 5.3-.8 5.3-.8c1.2-.1 1.5-.8 1.5-1.5c0-1.9-1.2-3.5-4.2-3.5c-2.7 0-4.2 1.7-4.5 4c0 0-3.6-.9-3.6-.9c.4-3.7 3.8-6.3 8-6.3c5.9 0 8.2 3.3 8.2 7.2c0 0 0 9.8 0 9.8c0 1.7.1 2.7.2 3.2c0 0-3.8 0-3.8 0c0-.5-.2-1.2-.2-2.6c-.8 1.3-2.8 3.2-6.3 3.2c-4 0-6.6-2.7-6.6-5.8c0-3.6 2.6-5.5 6-6zm6.8 2.8c.02.01 0-.9 0-.9c0 0-5.98.91-6 .9c-1.6.3-2.8 1.2-2.8 2.9c0 1.5 1.2 2.9 3.1 2.9c3.2 0 5.7-1.5 5.7-5.8zm13.7 8.4l-3.9 0l0-19.6l3.8 0c0 0-.03 2.8 0 2.8c1.4-2.4 3.7-3.4 6-3.4c4.7 0 7 3.4 7 7.8c.03-.03 0 12.4 0 12.4l-3.8 0c0 0-.01-11.78 0-11.8c0-2.7-1.2-4.9-4.6-4.9c-3 0-4.5 2.4-4.5 5.4c-.05-.03 0 11.3 0 11.3zm24.2-19.6l4.2 0l0 3.5l-4.2 0c0 0-.01 10.16 0 10.2c0 1.8.7 2.7 2.7 2.7c.5 0 1.2-.1 1.5-.2c0 0 0 3.3 0 3.3c-.3.1-1.3.3-2.6.3c-3.3 0-5.4-2-5.4-5.6c-.04.03 0-10.7 0-10.7l-3.8 0l0-3.5c0 0 1.06-.01 1.1 0c2.1 0 3-1.3 3-3c-.02-.03 0-3.2 0-3.2l3.5 0l0 6.2zm32.8 7.8c-.1-2.8-2-5-5.4-5c-3.2 0-5.2 2.4-5.4 5c0 0 10.8 0 10.8 0zm3.8 6.2c-1.1 3.5-4.2 6.2-8.8 6.2c-5.2 0-9.9-3.8-9.9-10.5c0-6.1 4.5-10.3 9.4-10.3c6.1 0 9.5 4.1 9.5 10.3c0 .4-.1.9-.1 1.2c0 0-14.8 0-14.8 0c.1 3.5 2.6 5.9 5.9 5.9c3.2 0 4.8-1.7 5.5-3.9c0 0 3.3 1.1 3.3 1.1zm10.2-14l4.2 0l0 3.5l-4.2 0c0 0 0 10.16 0 10.2c0 1.8.7 2.7 2.7 2.7c.5 0 1.2-.1 1.5-.2c0 0 0 3.3 0 3.3c-.3.1-1.3.3-2.6.3c-3.3 0-5.4-2-5.4-5.6c-.04.03 0-10.7 0-10.7l-3.8 0l0-3.5c0 0 1.07-.01 1.1 0c2.1 0 3-1.3 3-3c-.01-.03 0-3.2 0-3.2l3.5 0l0 6.2z" stroke="none" fill="#fff"/></g><g id="Polygon178978"><path d="m32.7 72.9c.3 2 1.8 3.7 4.6 3.7c2.2 0 3.4-1.3 3.4-2.6c0-1.3-.9-2.2-2.6-2.6c0 0-3.3-.7-3.3-.7c-3.1-.7-4.9-2.7-4.9-5.5c0-3.4 3.1-6.2 7-6.2c5.3 0 7 3.5 7.4 5.2c0 0-3.4 1.3-3.4 1.3c-.1-1-.9-3.3-4-3.3c-2 0-3.3 1.3-3.3 2.6c0 1.2.7 2.1 2.2 2.4c0 0 3.2.7 3.2.7c3.6.8 5.4 2.9 5.4 5.8c0 2.8-2.3 6.1-7.1 6.1c-5.4 0-7.7-3.4-8-5.7c0 0 3.4-1.2 3.4-1.2zm29.9-5.5c-.1-2.8-2-5-5.4-5c-3.2 0-5.2 2.4-5.4 5c0 0 10.8 0 10.8 0zm3.8 6.2c-1.1 3.5-4.2 6.2-8.8 6.2c-5.2 0-9.8-3.8-9.8-10.5c0-6.1 4.4-10.3 9.3-10.3c6.1 0 9.5 4.1 9.5 10.3c0 .4-.1.9-.1 1.2c0 0-14.8 0-14.8 0c.1 3.5 2.6 5.9 5.9 5.9c3.2 0 4.8-1.7 5.5-3.9c0 0 3.3 1.1 3.3 1.1zm16-10.1c-.6-.1-1.2-.2-1.7-.2c-3.2 0-5.4 1.8-5.4 6.1c0-.02 0 9.8 0 9.8l-3.8 0l0-19.6l3.7 0c0 0 .02 3.41 0 3.4c1.4-3 3.9-3.7 5.9-3.7c.5 0 1.1 0 1.3.1c0 0 0 4.1 0 4.1zm13.6 15.7l-3.8 0l-8-19.6l4.3 0l5.6 15.1l5.6-15.1l4.2 0l-7.9 19.6zm11.5 0l0-19.6l3.8 0l0 19.6l-3.8 0zm1.9-29.8c1.6 0 2.8 1.2 2.8 2.8c0 1.5-1.2 2.7-2.8 2.7c-1.5 0-2.7-1.2-2.7-2.7c0-1.6 1.2-2.8 2.7-2.8zm10.7 20c0 4.5 2.9 6.9 6 6.9c3.7 0 5.1-2.5 5.5-4.1c0 0 3.4 1.5 3.4 1.5c-.9 2.8-3.8 6.1-8.9 6.1c-5.7 0-9.9-4.5-9.9-10.4c0-6.1 4.3-10.4 9.9-10.4c5.2 0 7.9 3.2 8.7 6.2c0 0-3.4 1.5-3.4 1.5c-.5-1.9-1.9-4.2-5.3-4.2c-3.1 0-6 2.3-6 6.9zm32.4-2c-.1-2.8-1.9-5-5.4-5c-3.2 0-5.2 2.4-5.3 5c0 0 10.7 0 10.7 0zm3.9 6.2c-1.1 3.5-4.3 6.2-8.8 6.2c-5.3 0-9.9-3.8-9.9-10.5c0-6.1 4.4-10.3 9.4-10.3c6 0 9.4 4.1 9.4 10.3c0 .4 0 .9-.1 1.2c0 0-14.7 0-14.7 0c0 3.5 2.6 5.9 5.9 5.9c3.2 0 4.7-1.7 5.5-3.9c0 0 3.3 1.1 3.3 1.1zm15.2 13.4l0-27.4l3.7 0c0 0 .02 3.05 0 3c1.1-1.9 3.4-3.5 6.6-3.5c5.9 0 9 4.6 9 10.3c0 5.8-3.4 10.3-9.1 10.3c-3 0-5.3-1.4-6.4-3.1c.01-.04 0 10.4 0 10.4l-3.8 0zm9.6-24.5c-3.5 0-5.8 3-5.8 6.9c0 4 2.3 6.9 5.8 6.9c3.6 0 5.8-2.9 5.8-6.9c0-3.9-2.2-6.9-5.8-6.9zm21.5 17.3c-4.5 0-7.3-3.4-7.3-7.8c0-.05 0-12.4 0-12.4l3.8 0c0 0 .04 11.78 0 11.8c0 2.7 1.3 5 4.5 5c3.1 0 4.6-2 4.6-5c.04.02 0-11.8 0-11.8l3.9 0c0 0-.02 15.98 0 16c0 1.5.1 2.9.2 3.6c0 0-3.7 0-3.7 0c-.1-.4-.2-1.5-.2-2.4c-1 2.1-3.5 3-5.8 3zm16-.6l0-29.5l3.8 0c0 0 0 12.66 0 12.7c.9-1.8 3.2-3.4 6.5-3.4c5.9 0 9 4.6 9 10.3c0 5.8-3.3 10.4-9.1 10.4c-2.9 0-5.2-1.2-6.4-3.3c0-.04 0 2.8 0 2.8l-3.8 0zm9.6-16.8c-3.4 0-5.8 2.7-5.8 6.9c0 4.2 2.4 7 5.8 7c3.5 0 5.8-2.8 5.8-7c0-4.2-2.3-6.9-5.8-6.9zm14.6 16.8l0-29.5l3.8 0l0 29.5l-3.8 0zm10.4 0l0-19.6l3.8 0l0 19.6l-3.8 0zm1.8-29.8c1.6 0 2.8 1.2 2.8 2.8c0 1.5-1.2 2.7-2.8 2.7c-1.5 0-2.7-1.2-2.7-2.7c0-1.6 1.2-2.8 2.7-2.8zm10.8 20c0 4.5 2.8 6.9 6 6.9c3.7 0 5-2.5 5.4-4.1c0 0 3.4 1.5 3.4 1.5c-.9 2.8-3.7 6.1-8.8 6.1c-5.7 0-9.9-4.5-9.9-10.4c0-6.1 4.2-10.4 9.8-10.4c5.3 0 8 3.2 8.8 6.2c0 0-3.5 1.5-3.5 1.5c-.5-1.9-1.9-4.2-5.3-4.2c-3.1 0-5.9 2.3-5.9 6.9z" stroke="none" fill="#fff"/></g><g id="Polygon178977"><path d="m61.1 24.9l-12.8 0l-3.1 8.1l-4.3 0l11.5-28.9l4.6 0l11.5 28.9l-4.3 0l-3.1-8.1zm-11.4-3.7l9.9 0l-5-13l-4.9 13zm24.4 12c.3 2.8 2.4 4.8 5.3 4.8c4.2 0 6-2.1 6-6.3c0 0 0-2.8 0-2.8c-.9 1.7-3 3.2-6 3.2c-5.2 0-9-4-9-9.5c0-5.3 3.7-9.6 9-9.6c3.1 0 5.1 1.2 6.1 3.1c-.02.02 0-2.7 0-2.7l3.8 0c0 0-.02 18.15 0 18.1c0 5-2.5 9.9-9.9 9.9c-4.9 0-8.5-3.1-9-7.3c0 0 3.7-.9 3.7-.9zm11.5-10.6c0-3.8-2.3-6.3-5.6-6.3c-3.4 0-5.7 2.5-5.7 6.3c0 3.8 2.2 6.3 5.7 6.3c3.3 0 5.6-2.5 5.6-6.3zm9.8 10.4l0-19.6l3.8 0l0 19.6l-3.8 0zm1.9-29.8c1.5 0 2.8 1.2 2.8 2.8c0 1.5-1.3 2.7-2.8 2.7c-1.5 0-2.8-1.2-2.8-2.7c0-1.6 1.3-2.8 2.8-2.8zm19.3 14.1c-.6-.1-1.1-.2-1.7-.2c-3.2 0-5.3 1.8-5.3 6.1c-.04-.02 0 9.8 0 9.8l-3.9 0l0-19.6l3.8 0c0 0-.02 3.41 0 3.4c1.4-3 3.9-3.7 5.9-3.7c.5 0 1 0 1.2.1c0 0 0 4.1 0 4.1zm14.3 23.5l0-27.4l3.7 0c0 0 .02 3.05 0 3c1.1-1.9 3.4-3.5 6.6-3.5c5.9 0 9 4.6 9 10.3c0 5.8-3.4 10.3-9.1 10.3c-3.1 0-5.3-1.4-6.4-3.1c0-.04 0 10.4 0 10.4l-3.8 0zm9.6-24.5c-3.5 0-5.8 3-5.8 6.9c0 4 2.3 6.9 5.8 6.9c3.5 0 5.8-2.9 5.8-6.9c0-3.9-2.2-6.9-5.8-6.9zm29.1 6.9c0-4.6-2.8-7-6.1-7c-3.3 0-6.1 2.4-6.1 7c0 4.6 2.8 7 6.1 7c3.3 0 6.1-2.4 6.1-7zm3.9 0c0 6-4.1 10.4-10 10.4c-5.9 0-10-4.4-10-10.4c0-6 4.1-10.4 10-10.4c5.9 0 10 4.4 10 10.4zm11.9 10.4c-4.6 0-7.4-3.4-7.4-7.8c.04-.05 0-12.4 0-12.4l3.9 0c0 0-.03 11.78 0 11.8c0 2.7 1.2 5 4.4 5c3.1 0 4.7-2 4.7-5c-.03.02 0-11.8 0-11.8l3.8 0c0 0 .01 15.98 0 16c0 1.5.1 2.9.2 3.6c0 0-3.7 0-3.7 0c0-.4-.1-1.5-.1-2.4c-1.1 2.1-3.5 3-5.8 3zm26.8-16.3c-.5-.1-1.1-.2-1.6-.2c-3.3 0-5.4 1.8-5.4 6.1c-.02-.02 0 9.8 0 9.8l-3.9 0l0-19.6l3.8 0c0 0-.01 3.41 0 3.4c1.4-3 3.9-3.7 5.9-3.7c.5 0 1 0 1.2.1c0 0 0 4.1 0 4.1zm21.5 16.3c-4.6 0-7.4-3.4-7.4-7.8c.01-.05 0-12.4 0-12.4l3.9 0c0 0-.05 11.78 0 11.8c0 2.7 1.2 5 4.4 5c3.1 0 4.7-2 4.7-5c-.05.02 0-11.8 0-11.8l3.8 0c0 0-.01 15.98 0 16c0 1.5.1 2.9.2 3.6c0 0-3.7 0-3.7 0c-.1-.4-.1-1.5-.1-2.4c-1.1 2.1-3.6 3-5.8 3zm19.8-.6l-3.9 0l0-19.6l3.8 0c0 0-.03 2.8 0 2.8c1.4-2.4 3.7-3.4 6-3.4c4.7 0 7 3.4 7 7.8c.03-.03 0 12.4 0 12.4l-3.8 0c0 0-.01-11.78 0-11.8c0-2.7-1.1-4.9-4.6-4.9c-3 0-4.5 2.4-4.5 5.4c-.05-.03 0 11.3 0 11.3z" stroke="none" fill="#fff"/></g></svg>