<?xml version="1.0" standalone="no"?><!DOCTYPE svg PUBLIC "-//W3C//DTD SVG 1.1//EN" "http://www.w3.org/Graphics/SVG/1.1/DTD/svg11.dtd"><svg xmlns="http://www.w3.org/2000/svg" version="1.1" width="479.1px" height="106.6px" viewBox="0 -8 479.1 106.6" style="top:-8px"><desc>Profil des personnes accompagn es en 2025</desc><defs/><g id="Polygon165764"><path d="m.5 52.7c0-4.1 6.8-4.7 8.7-5.3c0 0 0-2.7 0-2.7c0-2.1-1-3-2.3-3c-1.4 0-1.4 1.1-1.4 1.3c0 1 .5 1.2.5 2.5c0 1.2-1 1.9-2.5 1.9c-1.4 0-2.2-1-2.2-2.3c0-2 2.7-4.1 5.9-4.1c5.1 0 6.7 2.1 6.7 6.8c0 0 0 4.3 0 4.3c0 1.8.4 2.8 2 2.2c0 0 0 .5 0 .5c-.6 1.1-2.3 1.9-3.3 1.9c-1.7 0-3.2-.8-3.3-2.1c-1.2 1.6-3.1 2.1-4.4 2.1c-2.9 0-4.4-1.3-4.4-4zm8.7-.1c0 0 0-4.6 0-4.6c-1.3.9-3.9 1.6-3.9 3.8c0 1.7.9 2.6 2.1 2.6c.7 0 1.8-.6 1.8-1.8zm7.5-3.7c0-4.2 3.4-7.9 8.3-7.9c2.9 0 5.8 2 5.8 4.4c0 1.6-1.3 2.8-2.4 2.8c-1.1 0-2.3-.9-2.3-2.2c0-1.1.7-1.4.7-2.4c0-.9-1.2-1.9-2.5-1.9c-2.5 0-3.4 1.7-3.4 4.5c0 4.1 2.3 7.3 5.7 7.3c1.4 0 3.2-.7 4.2-2.3c0 0 0 .9 0 .9c-1.2 3.6-4.1 4.6-6.5 4.6c-4 0-7.6-3.5-7.6-7.8zm15.2 0c0-4.2 3.4-7.9 8.3-7.9c2.9 0 5.8 2 5.8 4.4c0 1.6-1.3 2.8-2.4 2.8c-1.1 0-2.3-.9-2.3-2.2c0-1.1.7-1.4.7-2.4c.1-.9-1.2-1.9-2.5-1.9c-2.5 0-3.4 1.7-3.4 4.5c0 4.1 2.3 7.3 5.7 7.3c1.4 0 3.3-.7 4.2-2.3c0 0 0 .9 0 .9c-1.2 3.6-4.1 4.6-6.5 4.6c-4 0-7.6-3.5-7.6-7.8zm15.2-.1c0-4.3 3.7-7.8 8.2-7.8c4.5 0 8.1 3.5 8.1 7.8c0 4.4-3.6 7.9-8.1 7.9c-4.5 0-8.2-3.5-8.2-7.9zm11.2 3c0-3.6-1.9-10-4.6-10c-1 0-1.5 1.6-1.5 3.9c0 3.7 1.9 10.2 4.5 10.2c1.1 0 1.6-1.7 1.6-4.1zm32.3 4.1c0-.03 0 .4 0 .4l-7.7 0c0 0-.01-.43 0-.4c.4-.2 1.5-1.2 1.5-3.1c0 0 0-6.1 0-6.1c0-3.5-.4-4.4-1.8-4.4c-1.2 0-2 .9-2.5 2.1c0 0 0 8.4 0 8.4c0 1.9 1.1 2.9 1.5 3.1c0-.03 0 .4 0 .4l-7.7 0c0 0-.04-.43 0-.4c.4-.2 1.4-1.2 1.4-3.1c0 0 0-6.1 0-6.1c0-3.5-.4-4.4-1.8-4.4c-1 0-1.8.8-2.3 1.9c0 0 0 8.6 0 8.6c0 2.2 1.1 2.9 1.3 3.1c-.02-.03 0 .4 0 .4l-7.6 0c0 0-.04-.37 0-.4c.3-.2 1.5-1.2 1.5-3.1c0 0 0-7.2 0-7.2c0-2.2-1.1-2.9-1.5-3.2c-.04 0 0-.5 0-.5l6.3-1.1c0 0-.55 3.19-.6 3.2c.9-1.8 2.3-3 4.3-3c2.5 0 4.1 1.2 4.8 2.9c.8-1.7 2.2-2.9 4.2-2.9c3.5 0 5.2 2.3 5.2 5.1c0 0 0 6.7 0 6.7c0 1.9 1.1 2.9 1.5 3.1zm17.4-7.2c0 4.4-2.9 8-6.7 8c-1.6 0-2.5-.3-3.4-1c0 0 0 3.6 0 3.6c0 2.3 1.1 3 1.3 3.2c.01 0 0 .4 0 .4l-7.7 0c0 0 0-.37 0-.4c.4-.1 1.6-1.2 1.6-3.2c0 0 0-13.8 0-13.8c0-2.2-.9-3.1-1.5-3.2c-.01.04 0-.4 0-.4l6.2-1.2c0 0-.51 2.99-.5 3c1.5-2.7 2.9-2.7 4.2-2.7c3.8 0 6.5 3.4 6.5 7.7zm-5 .9c0-3.3-.8-7.4-3-7.4c-.6 0-1.4.3-2.1 1.7c0 0 0 9.9 0 9.9c.8 1.3 1.3 2.1 2.7 2.1c1.9 0 2.4-2.5 2.4-6.3zm6.6 3.1c0-4.1 6.8-4.7 8.7-5.3c0 0 0-2.7 0-2.7c0-2.1-1-3-2.3-3c-1.4 0-1.4 1.1-1.4 1.3c0 1 .5 1.2.5 2.5c0 1.2-1 1.9-2.5 1.9c-1.4 0-2.2-1-2.2-2.3c0-2 2.7-4.1 5.9-4.1c5.1 0 6.8 2.1 6.8 6.8c0 0 0 4.3 0 4.3c0 1.8.3 2.8 1.9 2.2c0 0 0 .5 0 .5c-.6 1.1-2.3 1.9-3.3 1.9c-1.7 0-3.2-.8-3.3-2.1c-1.2 1.6-3.1 2.1-4.4 2.1c-2.9 0-4.4-1.3-4.4-4zm8.7-.1c0 0 0-4.6 0-4.6c-1.3.9-3.9 1.6-3.9 3.8c0 1.7.9 2.6 2.1 2.6c.7 0 1.8-.6 1.8-1.8zm23.4 5.8c0 3.6-3.1 4.9-8.1 4.9c-5.5 0-7.8-1.3-7.8-3.4c0-.9.9-1.8 2-2.2c-1-.8-1.6-1.8-1.6-3.2c0-1.7 1.2-2.9 2.4-3.6c-1.3-1.1-2.2-2.6-2.2-4.2c0-3.4 3.3-5.7 6.7-5.7c1.5 0 2.9.4 4.1 1.1c0-.1 0-.2 0-.3c0-1.5 1.2-2.6 2.8-2.6c1 0 1.8.8 1.8 1.8c0 1.2-.7 2-1.9 2c-1 0-1.2-1.1-1.6-1.1c-.4 0-.5.2-.5.4c0 .5 2.1 1.6 2.1 4.3c0 3.4-3.2 5.8-6.8 5.8c-1.5 0-2.8-.4-4-1.1c-.2.3-.3.7-.3 1c0 1.3.9 1.9 2.2 1.9c1.3 0 4-.3 5.6-.3c2.6 0 5.1.9 5.1 4.5zm-10.4-14.7c0 2.6 1.1 7.9 2.8 7.9c.9 0 .9-1.6.9-2.2c0-2.1-1.1-7.7-2.9-7.7c-.7 0-.8.9-.8 2zm7.4 16.2c0-1.3-1-1.6-2.4-1.6c-1.5 0-3.9.3-5.5.3c-.6 0-1.1-.1-1.7-.2c-.3.4-.4.9-.4 1.3c0 1.9 2.1 2.9 4.8 2.9c3 0 5.2-1.2 5.2-2.7zm21-4c.05-.03 0 .4 0 .4l-7.7 0c0 0 .01-.43 0-.4c.5-.2 1.5-1.2 1.5-3.1c0 0 0-6.1 0-6.1c0-3.5-.4-4.4-1.8-4.4c-1 0-1.9.8-2.4 1.9c0 0 0 8.6 0 8.6c0 2.2 1.1 2.9 1.3 3.1c.03-.03 0 .4 0 .4l-7.6 0c0 0 .01-.37 0-.4c.4-.2 1.5-1.2 1.5-3.1c0 0 0-7.2 0-7.2c0-2.2-1-2.9-1.5-3.2c.01 0 0-.5 0-.5l6.3-1.1c0 0-.5 3.19-.5 3.2c.8-1.8 2.2-3 4.3-3c3.4 0 5.1 2.3 5.1 5.1c0 0 0 6.7 0 6.7c0 1.9 1.2 2.9 1.5 3.1zm6.2-16.6l-.7 0l1.9-4.6l5.5 0l-6.7 4.6zm9 11.7c0 0 0 .8 0 .8c-.7 2.8-3 4.9-6.5 4.9c-4 0-7.5-3.6-7.5-7.9c0-4.4 3.5-7.8 7.5-7.8c3.3 0 6 2 6.8 5.2c0 0-9.5 2-9.5 2c.5 2.5 2 5.2 5.3 5.2c.8 0 2.8-.4 3.9-2.4zm-9.5-5.2c0 .5.1 1.1.2 1.6c0 0 2.4-.4 2.4-.4c.9-.2 1.2-.9 1.2-1.6c0-1.5-1.4-3.6-2.7-3.6c-1.3 0-1.1 3.4-1.1 4zm24.7 5.2c0 0 0 .8 0 .8c-.7 2.8-3 4.9-6.4 4.9c-4.1 0-7.6-3.6-7.6-7.9c0-4.4 3.6-7.8 7.6-7.8c3.2 0 6 2 6.7 5.2c0 0-9.4 2-9.4 2c.5 2.5 1.9 5.2 5.3 5.2c.8 0 2.8-.4 3.8-2.4zm-9.4-5.2c0 .5 0 1.1.1 1.6c0 0 2.5-.4 2.5-.4c.9-.2 1.2-.9 1.2-1.6c0-1.5-1.4-3.6-2.7-3.6c-1.3 0-1.1 3.4-1.1 4zm12.3 11c.02 0-1.4-6.4-1.4-6.4c0 0 .67.04.7 0c1 2.6 3.2 5.7 6.1 5.7c1.5 0 2.3-.9 2.3-2.5c0-3.3-8.6-1.9-8.6-8.4c0-2.9 2.5-4.2 5.1-4.2c2.2 0 3.1 1.1 5.4 0c-.01-.04 1.1 5.7 1.1 5.7c0 0-.6-.01-.6 0c-1.3-2.7-3.8-5.1-6-5.1c-1.4 0-2.3.5-2.1 2c.4 2.5 9.4 1.7 9.4 8.6c0 2.6-2.5 4.5-5.9 4.5c-2.3 0-3-.7-5.5.1zm35.9-5.8c0 0 0 .8 0 .8c-.7 2.8-3 4.9-6.4 4.9c-4.1 0-7.6-3.6-7.6-7.9c0-4.4 3.6-7.8 7.6-7.8c3.2 0 6 2 6.7 5.2c0 0-9.5 2-9.5 2c.6 2.5 2 5.2 5.4 5.2c.8 0 2.8-.4 3.8-2.4zm-9.4-5.2c0 .5 0 1.1.1 1.6c0 0 2.5-.4 2.5-.4c.9-.2 1.2-.9 1.2-1.6c0-1.5-1.4-3.6-2.7-3.6c-1.3 0-1.1 3.4-1.1 4zm27.6 10.1c-.02-.03 0 .4 0 .4l-7.8 0c0 0 .04-.43 0-.4c.5-.2 1.5-1.2 1.5-3.1c0 0 0-6.1 0-6.1c0-3.5-.4-4.4-1.8-4.4c-1 0-1.9.8-2.4 1.9c0 0 0 8.6 0 8.6c0 2.2 1.2 2.9 1.4 3.1c-.04-.03 0 .4 0 .4l-7.7 0c0 0 .04-.37 0-.4c.4-.2 1.6-1.2 1.6-3.1c0 0 0-7.2 0-7.2c0-2.2-1.1-2.9-1.6-3.2c.04 0 0-.5 0-.5l6.4-1.1c0 0-.57 3.19-.6 3.2c.9-1.8 2.2-3 4.3-3c3.5 0 5.2 2.3 5.2 5.1c0 0 0 6.7 0 6.7c0 1.9 1.1 2.9 1.5 3.1zm25.6-5.6c0 0-1.77 6.47-1.8 6.5c-.7-.3-1.4-.5-4.1-.5c-.01.05-10.2 0-10.2 0c0 0 7.79-7.06 7.8-7.1c1.1-.9 2.2-2.6 2.2-4.3c0-1.8-1-3.3-2.9-3.3c-1.3 0-2.5.7-2.5 1.8c0 1.4 1.3 1.7 1.3 3c0 1.1-.9 2-2 2c-1.6 0-2.7-1.1-2.7-2.7c0-2.1 2.1-4.7 6.5-4.7c4.1 0 6.5 1.3 6.5 4.2c0 2.4-1 4.5-7.8 6.9c0 0 4.9 0 4.9 0c2.5 0 3.7-1 4.1-1.8c-.02.02.7 0 .7 0zm1-1.5c0-4.3 3.1-7.8 7.7-7.8c5 0 7.7 3.5 7.7 7.8c0 4.4-2.7 7.9-7.7 7.9c-4.6 0-7.7-3.5-7.7-7.9zm10.2 0c0-3.6-.2-7.2-2.5-7.2c-2.3 0-2.5 3.6-2.5 7.2c0 3.6.2 7.3 2.5 7.3c2.3 0 2.5-3.7 2.5-7.3zm21.8 1.5c0 0-1.74 6.47-1.7 6.5c-.8-.3-1.5-.5-4.2-.5c.02.05-10.2 0-10.2 0c0 0 7.82-7.06 7.8-7.1c1.1-.9 2.2-2.6 2.2-4.3c0-1.8-1-3.3-2.8-3.3c-1.4 0-2.6.7-2.6 1.8c0 1.4 1.4 1.7 1.4 3c0 1.1-.9 2-2.1 2c-1.6 0-2.7-1.1-2.7-2.7c0-2.1 2.1-4.7 6.5-4.7c4.2 0 6.6 1.3 6.6 4.2c0 2.4-1 4.5-7.9 6.9c0 0 5 0 5 0c2.5 0 3.7-1 4-1.8c.01.02.7 0 .7 0zm14.9 5c0 3.4-2.8 8-7.9 8c-5 0-6.3-2.5-6.3-4.7c0-1.7 1.3-3.2 2.4-3.2c1.3 0 2.6.7 2.4 2.5c0 1-.9 1.4-.9 2.5c0 1.4.9 2.1 2.3 2.1c2.1 0 3.7-1.7 4-4.7c.4-3.8-1.8-5.8-4.4-5.8c-2 0-3.1.8-4.1 1.7c0 .01-.5 0-.5 0l2.1-12.4c0 0 6.41.05 6.4 0c1.8 0 3.5-.5 4.1-1.8c.02-.01.5 0 .5 0l-1.7 6.3l-9.4 0c0 0-.96 5.54-1 5.5c1.6-2.1 3.6-2.8 5.8-2.8c4.1 0 6.2 3.5 6.2 6.8z" stroke="none" fill="#144542"/></g><g id="Polygon165763"><path d="m18.4 6.9c0 3.7-3.7 6.1-7.8 6.1c.02.02-2.9 0-2.9 0c0 0 .01 5.93 0 5.9c0 2.1 1 2.8 1.4 3c.05-.03 0 .4 0 .4l-8.2 0c0 0 .03-.43 0-.4c.5-.2 1.5-1.1 1.5-3c0 0 0-14.5 0-14.5c0-2.4-1.1-3-1.5-3.1c.03-.04 0-.6 0-.6c0 0 8.52.05 8.5 0c5.9 0 9 2.4 9 6.2zm-5.3 0c0-3.2-2.4-5.5-4.8-5.5c.01-.02-.6 0-.6 0c0 0 .01 10.66 0 10.7c.3.1.6.3 1.8.3c2.5 0 3.6-2.2 3.6-5.5zm18.7 2.5c0 1.4-1.1 2.4-2.3 2.4c-2.3 0-1.8-2.2-2.8-2.2c-.4 0-.8.6-1.1 1.2c0 0 0 8 0 8c0 2.2 1.2 2.9 1.3 3.1c.04-.03 0 .4 0 .4l-7.6 0c0 0 .02-.37 0-.4c.4-.2 1.5-1.2 1.5-3.1c0 0 0-7.2 0-7.2c0-2.2-1-2.9-1.5-3.2c.02 0 0-.5 0-.5l6.3-1.1c0 0-.58 3.67-.6 3.7c.7-2.1 2-3.5 4.2-3.5c1.4 0 2.6.9 2.6 2.4zm.2 5.4c0-4.3 3.7-7.8 8.2-7.8c4.5 0 8.1 3.5 8.1 7.8c0 4.4-3.6 7.9-8.1 7.9c-4.5 0-8.2-3.5-8.2-7.9zm11.3 3c0-3.6-2-10-4.7-10c-1 0-1.5 1.6-1.5 3.9c0 3.7 1.9 10.2 4.5 10.2c1.1 0 1.7-1.7 1.7-4.1zm12.9-14.7c0-.6.1-1.1.1-1.6c0-.6-.3-1-1-1c-.6 0-1.1.3-1.1 1.2c0 1.4 1.6 3.8 1.9 5.6c-.03.05 2.8 0 2.8 0l0 .8l-2.8 0c0 0 0 11.07 0 11.1c0 1.9.7 2.5 1.3 2.7c-.01-.03 0 .4 0 .4l-7.6 0c0 0-.03-.43 0-.4c.6-.2 1.5-1 1.5-2.7c0-.03 0-11.2 0-11.2l-1.5 0c0 0-.03-.65 0-.7c1.3 0 1.7-2.1 2.1-3.5c.6-3.3 2.6-4.3 4.5-4.3c2.3 0 4.5 1.7 4.5 3.8c0 1.3-1.1 2.2-2.4 2.2c-1.4 0-2.3-1.1-2.3-2.4zm4.8-.4c0-1.5 1.3-2.8 2.7-2.8c1.5 0 2.8 1.3 2.8 2.8c0 1.4-1.3 2.7-2.8 2.7c-1.4 0-2.7-1.3-2.7-2.7zm-1.1 19.2c.5-.2 1.5-.9 1.5-3c0 0 0-7.7 0-7.7c0-1.9-1-2.6-1.5-2.8c.04-.03 0-.5 0-.5l6.3-1.1c0 0 .04 12.07 0 12.1c0 2.1 1.1 2.8 1.4 3c.05-.03 0 .4 0 .4l-7.7 0c0 0 .04-.43 0-.4zm8.9 0c.5-.2 1.6-1.1 1.6-3c0 0 0-14.7 0-14.7c0-2.1-1.1-3-1.6-3.2c.05.05 0-.4 0-.4l6.3-1.1c0 0 .05 19.37 0 19.4c0 2.1 1.1 2.8 1.5 3c.02-.03 0 .4 0 .4l-7.8 0c0 0 .05-.43 0-.4zm34.8-.1c.02.04 0 .5 0 .5l-6 0c0 0 .35-1.81.3-1.8c-1.3 1.8-2.5 2.2-4.1 2.2c-4 0-6.7-3.6-6.7-7.8c0-4.3 3-7.9 6.9-7.9c1.2 0 2.4.4 3.3 1.1c0 0 0-3.9 0-3.9c0-2.1-1.1-3-1.5-3.2c-.01.05 0-.4 0-.4l6.3-1.1c0 0-.04 19.37 0 19.4c0 1.9 1 2.8 1.5 2.9zm-6.3-1.8c0 0 0-9.7 0-9.7c-.7-1.6-1.9-2.6-3-2.6c-2.4 0-2.3 3-2.3 5.6c0 4.3.9 8.2 3.2 8.2c.7 0 1.4-.5 2.1-1.5zm21.7-3c0 0 0 .8 0 .8c-.7 2.8-3 4.9-6.5 4.9c-4 0-7.5-3.6-7.5-7.9c0-4.4 3.5-7.8 7.6-7.8c3.2 0 5.9 2 6.7 5.2c0 0-9.5 2-9.5 2c.5 2.5 2 5.2 5.3 5.2c.8 0 2.8-.4 3.9-2.4zm-9.4-5.2c0 .5 0 1.1.1 1.6c0 0 2.4-.4 2.4-.4c.9-.2 1.2-.9 1.2-1.6c0-1.5-1.3-3.6-2.7-3.6c-1.3 0-1 3.4-1 4zm12.3 11c-.04 0-1.4-6.4-1.4-6.4c0 0 .61.04.6 0c1.1 2.6 3.3 5.7 6.2 5.7c1.5 0 2.2-.9 2.2-2.5c0-3.3-8.6-1.9-8.6-8.4c0-2.9 2.5-4.2 5.1-4.2c2.2 0 3.1 1.1 5.4 0c.03-.04 1.2 5.7 1.2 5.7c0 0-.66-.01-.7 0c-1.3-2.7-3.8-5.1-6-5.1c-1.3 0-2.3.5-2.1 2c.5 2.5 9.5 1.7 9.5 8.6c0 2.6-2.5 4.5-6 4.5c-2.3 0-3-.7-5.4.1zm38.1-8.1c0 4.4-2.9 8-6.7 8c-1.5 0-2.5-.3-3.4-1c0 0 0 3.6 0 3.6c0 2.3 1.1 3 1.3 3.2c.03 0 0 .4 0 .4l-7.7 0c0 0 .02-.37 0-.4c.4-.1 1.6-1.2 1.6-3.2c0 0 0-13.8 0-13.8c0-2.2-.9-3.1-1.5-3.2c.01.04 0-.4 0-.4l6.2-1.2c0 0-.49 2.99-.5 3c1.5-2.7 2.9-2.7 4.2-2.7c3.8 0 6.5 3.4 6.5 7.7zm-5 .9c0-3.3-.8-7.4-3-7.4c-.6 0-1.3.3-2.1 1.7c0 0 0 9.9 0 9.9c.8 1.3 1.3 2.1 2.8 2.1c1.8 0 2.3-2.5 2.3-6.3zm20.6 1.4c0 0 0 .8 0 .8c-.7 2.8-3 4.9-6.5 4.9c-4 0-7.6-3.6-7.6-7.9c0-4.4 3.6-7.8 7.6-7.8c3.2 0 6 2 6.8 5.2c0 0-9.5 2-9.5 2c.5 2.5 2 5.2 5.3 5.2c.8 0 2.8-.4 3.9-2.4zm-9.5-5.2c0 .5.1 1.1.2 1.6c0 0 2.4-.4 2.4-.4c.9-.2 1.2-.9 1.2-1.6c0-1.5-1.4-3.6-2.7-3.6c-1.3 0-1.1 3.4-1.1 4zm23.3-2.4c0 1.4-1.1 2.4-2.3 2.4c-2.2 0-1.7-2.2-2.7-2.2c-.4 0-.8.6-1.1 1.2c0 0 0 8 0 8c0 2.2 1.1 2.9 1.3 3.1c-.01-.03 0 .4 0 .4l-7.6 0c0 0-.03-.37 0-.4c.3-.2 1.5-1.2 1.5-3.1c0 0 0-7.2 0-7.2c0-2.2-1.1-2.9-1.5-3.2c-.03 0 0-.5 0-.5l6.3-1.1c0 0-.63 3.67-.6 3.7c.7-2.1 1.9-3.5 4.1-3.5c1.5 0 2.6.9 2.6 2.4zm2.2 13.4c.01 0-1.4-6.4-1.4-6.4c0 0 .66.04.7 0c1 2.6 3.2 5.7 6.1 5.7c1.5 0 2.3-.9 2.3-2.5c0-3.3-8.7-1.9-8.7-8.4c0-2.9 2.6-4.2 5.2-4.2c2.2 0 3.1 1.1 5.4 0c-.02-.04 1.1 5.7 1.1 5.7c0 0-.61-.01-.6 0c-1.3-2.7-3.8-5.1-6-5.1c-1.4 0-2.3.5-2.1 2c.4 2.5 9.4 1.7 9.4 8.6c0 2.6-2.5 4.5-5.9 4.5c-2.3 0-3-.7-5.5.1zm12.7-8c0-4.3 3.7-7.8 8.2-7.8c4.5 0 8.1 3.5 8.1 7.8c0 4.4-3.6 7.9-8.1 7.9c-4.5 0-8.2-3.5-8.2-7.9zm11.2 3c0-3.6-1.9-10-4.6-10c-1 0-1.5 1.6-1.5 3.9c0 3.7 1.9 10.2 4.5 10.2c1.1 0 1.6-1.7 1.6-4.1zm23.3 4.1c0-.03 0 .4 0 .4l-7.7 0c0 0-.04-.43 0-.4c.4-.2 1.4-1.2 1.4-3.1c0 0 0-6.1 0-6.1c0-3.5-.4-4.4-1.8-4.4c-1 0-1.8.8-2.3 1.9c0 0 0 8.6 0 8.6c0 2.2 1.1 2.9 1.3 3.1c-.02-.03 0 .4 0 .4l-7.6 0c0 0-.04-.37 0-.4c.3-.2 1.5-1.2 1.5-3.1c0 0 0-7.2 0-7.2c0-2.2-1.1-2.9-1.5-3.2c-.04 0 0-.5 0-.5l6.3-1.1c0 0-.55 3.19-.6 3.2c.9-1.8 2.3-3 4.3-3c3.5 0 5.2 2.3 5.2 5.1c0 0 0 6.7 0 6.7c0 1.9 1.1 2.9 1.5 3.1zm18 0c0-.03 0 .4 0 .4l-7.7 0c0 0-.04-.43 0-.4c.4-.2 1.4-1.2 1.4-3.1c0 0 0-6.1 0-6.1c0-3.5-.4-4.4-1.8-4.4c-1 0-1.8.8-2.3 1.9c0 0 0 8.6 0 8.6c0 2.2 1.1 2.9 1.3 3.1c-.02-.03 0 .4 0 .4l-7.6 0c0 0-.04-.37 0-.4c.3-.2 1.5-1.2 1.5-3.1c0 0 0-7.2 0-7.2c0-2.2-1.1-2.9-1.5-3.2c-.04 0 0-.5 0-.5l6.3-1.1c0 0-.55 3.19-.6 3.2c.9-1.8 2.3-3 4.3-3c3.5 0 5.2 2.3 5.2 5.1c0 0 0 6.7 0 6.7c0 1.9 1.1 2.9 1.5 3.1zm15.1-4.9c0 0 0 .8 0 .8c-.7 2.8-3 4.9-6.4 4.9c-4.1 0-7.6-3.6-7.6-7.9c0-4.4 3.5-7.8 7.6-7.8c3.2 0 6 2 6.7 5.2c0 0-9.5 2-9.5 2c.5 2.5 2 5.2 5.3 5.2c.9 0 2.9-.4 3.9-2.4zm-9.4-5.2c0 .5 0 1.1.1 1.6c0 0 2.5-.4 2.5-.4c.8-.2 1.2-.9 1.2-1.6c0-1.5-1.4-3.6-2.7-3.6c-1.3 0-1.1 3.4-1.1 4zm12.3 11c0 0-1.4-6.4-1.4-6.4c0 0 .65.04.6 0c1.1 2.6 3.3 5.7 6.2 5.7c1.5 0 2.3-.9 2.3-2.5c0-3.3-8.7-1.9-8.7-8.4c0-2.9 2.6-4.2 5.2-4.2c2.2 0 3.1 1.1 5.4 0c-.03-.04 1.1 5.7 1.1 5.7c0 0-.62-.01-.6 0c-1.3-2.7-3.8-5.1-6.1-5.1c-1.3 0-2.2.5-2 2c.4 2.5 9.4 1.7 9.4 8.6c0 2.6-2.5 4.5-5.9 4.5c-2.3 0-3-.7-5.5.1z" stroke="none" fill="#144542"/></g></svg>