<?xml version="1.0" standalone="no"?><!DOCTYPE svg PUBLIC "-//W3C//DTD SVG 1.1//EN" "http://www.w3.org/Graphics/SVG/1.1/DTD/svg11.dtd"><svg xmlns="http://www.w3.org/2000/svg" version="1.1" width="19.2px" height="13.5px" viewBox="0 -2 19.2 13.5" style="top:-2px"><desc>2026</desc><defs/><g id="Polygon178359"><path d="m.3 3.1c0-.1 0-.2 0-.3c0-.8.7-1.6 1.8-1.6c1.1 0 1.8.7 1.8 1.6c0 .6-.4 1.2-1 1.6c0 0-1 .6-1 .6c-.3.2-.6.4-.7.7c.05.04 2.7 0 2.7 0l0 .8c0 0-3.62-.03-3.6 0c0-.9.3-1.5 1.2-2.1c0 0 .9-.6.9-.6c.5-.3.7-.6.7-1c0-.5-.3-.9-1-.9c-.7 0-1 .4-1 1c0 .1 0 .2 0 .3c0 0-.8-.1-.8-.1zm6 2.5c.2.2.4.3.8.3c.4 0 .6-.1.8-.3c.3-.4.5-.9.5-1.7c0-.8-.2-1.4-.5-1.7c-.2-.2-.4-.3-.8-.3c-.4 0-.6.1-.8.3c-.3.3-.5.9-.5 1.7c0 .8.2 1.3.5 1.7zm-.8-3.6c.3-.5.9-.8 1.6-.8c.7 0 1.2.3 1.6.8c.3.5.4 1.2.4 1.9c0 .7-.1 1.3-.4 1.9c-.4.5-.9.8-1.6.8c-.7 0-1.3-.3-1.6-.8c-.3-.6-.5-1.2-.5-1.9c0-.7.2-1.4.5-1.9zm4.8 1.1c0-.1 0-.2 0-.3c0-.8.6-1.6 1.8-1.6c1.1 0 1.7.7 1.7 1.6c0 .6-.4 1.2-1 1.6c0 0-1 .6-1 .6c-.3.2-.5.4-.6.7c-.01.04 2.7 0 2.7 0l0 .8c0 0-3.68-.03-3.7 0c0-.9.4-1.5 1.3-2.1c0 0 .8-.6.8-.6c.5-.3.7-.6.7-1c0-.5-.3-.9-.9-.9c-.7 0-1 .4-1 1c0 .1 0 .2 0 .3c0 0-.8-.1-.8-.1zm8.2-1c-.2-.1-.5-.2-.9-.2c-1.1 0-1.8.8-1.8 1.8c.2-.3.7-.6 1.4-.6c1 0 1.7.6 1.7 1.7c0 1.1-.9 1.8-1.9 1.8c-1 0-2-.7-2-2.4c0-1.9 1.1-3 2.7-3c.4 0 .8.1 1.1.3c0 0-.3.6-.3.6zm-1.5 3.8c.6 0 1.1-.4 1.1-1.1c0-.7-.5-1.1-1.1-1.1c-.6 0-1.1.4-1.1 1.1c0 .7.5 1.1 1.1 1.1z" stroke="none" fill="#144542"/></g></svg>