<?xml version="1.0" standalone="no"?><!DOCTYPE svg PUBLIC "-//W3C//DTD SVG 1.1//EN" "http://www.w3.org/Graphics/SVG/1.1/DTD/svg11.dtd"><svg xmlns="http://www.w3.org/2000/svg" version="1.1" width="174px" height="67.2px" viewBox="0 -4 174 67.2" style="top:-4px"><desc>L’ouverture du Campus Montreuil</desc><defs/><g id="Polygon168952"><path d="m.7 28.1c0-3.9 3-6.3 6.1-6.3c3 0 4.9 1.8 5.4 4c0 0-1.9.6-1.9.6c-.4-1.5-1.5-2.6-3.5-2.6c-2 0-4 1.4-4 4.3c0 2.9 1.9 4.4 4 4.4c2 0 3.2-1.3 3.6-2.7c0 0 1.9.6 1.9.6c-.6 2.1-2.4 4-5.5 4c-3.2 0-6.1-2.3-6.1-6.3zm15.2 1.3c0 0 2.1-.3 2.1-.3c.5-.1.6-.3.6-.6c0-.7-.5-1.3-1.6-1.3c-1 0-1.6.7-1.7 1.5c0 0-1.8-.4-1.8-.4c.2-1.4 1.5-2.7 3.5-2.7c2.6 0 3.5 1.5 3.5 3.1c0 0 0 4.1 0 4.1c0 .8.1 1.3.1 1.4c0 0-1.8 0-1.8 0c0-.1-.1-.4-.1-1.1c-.4.6-1.2 1.3-2.5 1.3c-1.8 0-2.8-1.2-2.8-2.5c0-1.5 1-2.3 2.5-2.5zm2.7 1.3c0 .02 0-.4 0-.4c0 0-2.16.37-2.2.4c-.6.1-1.1.4-1.1 1.1c0 .6.5 1.1 1.2 1.1c1.1 0 2.1-.6 2.1-2.2zm4.3 3.5l0-8.3l1.9 0c0 0 0 1.03 0 1c.5-.8 1.5-1.3 2.5-1.3c1 0 2 .5 2.4 1.5c.7-1.1 1.6-1.5 2.7-1.5c1.5 0 2.9 1 2.9 3.2c.04-.02 0 5.4 0 5.4l-1.9 0c0 0 .04-5.1 0-5.1c0-1-.5-1.7-1.6-1.7c-1 0-1.7.8-1.7 1.8c.02.04 0 5 0 5l-1.9 0c0 0-.01-5.1 0-5.1c0-.9-.5-1.7-1.6-1.7c-1.1 0-1.7.8-1.7 1.8c-.03.04 0 5 0 5l-2 0zm14.9 3.2l0-11.5l1.9 0c0 0-.04 1.1 0 1.1c.4-.7 1.3-1.3 2.6-1.3c2.4 0 3.8 1.9 3.8 4.3c0 2.5-1.5 4.4-3.9 4.4c-1.2 0-2.1-.6-2.5-1.2c.01.02 0 4.2 0 4.2l-1.9 0zm4.1-10c-1.3 0-2.2 1.1-2.2 2.6c0 1.6.9 2.6 2.2 2.6c1.3 0 2.2-1 2.2-2.6c0-1.5-.9-2.6-2.2-2.6zm9.1 7c-2 0-3.1-1.5-3.1-3.3c-.01-.01 0-5.2 0-5.2l2 0c0 0-.04 4.84 0 4.8c0 1.1.4 1.9 1.6 1.9c1.2 0 1.8-.7 1.8-1.8c-.04-.03 0-4.9 0-4.9l1.9 0c0 0 .03 6.74 0 6.7c0 .7.1 1.2.1 1.6c0 0-1.9 0-1.9 0c0-.2 0-.6 0-1c-.4.8-1.4 1.2-2.4 1.2zm7.8-3c0 .8.6 1.4 1.7 1.4c.8 0 1.2-.4 1.2-.9c0-.5-.3-.8-1-.9c0 0-1.2-.3-1.2-.3c-1.5-.3-2.2-1.3-2.2-2.4c0-1.5 1.3-2.7 3-2.7c2.3 0 3.1 1.5 3.2 2.3c0 0-1.7.5-1.7.5c0-.5-.4-1.2-1.5-1.2c-.7 0-1.2.4-1.2.9c0 .5.3.8.9.9c0 0 1.2.2 1.2.2c1.6.4 2.4 1.3 2.4 2.6c0 1.2-1 2.6-3.1 2.6c-2.4 0-3.3-1.6-3.4-2.5c0 0 1.7-.5 1.7-.5zm13-2c0 0 2.1-.3 2.1-.3c.5-.1.6-.3.6-.6c0-.7-.5-1.3-1.6-1.3c-1 0-1.6.7-1.7 1.5c0 0-1.8-.4-1.8-.4c.2-1.4 1.5-2.7 3.5-2.7c2.6 0 3.5 1.5 3.5 3.1c0 0 0 4.1 0 4.1c0 .8.1 1.3.1 1.4c0 0-1.8 0-1.8 0c0-.1-.1-.4-.1-1.1c-.4.6-1.2 1.3-2.5 1.3c-1.8 0-2.8-1.2-2.8-2.5c0-1.5 1-2.3 2.5-2.5zm2.7 1.3c-.01.02 0-.4 0-.4c0 0-2.17.37-2.2.4c-.6.1-1.1.4-1.1 1.1c0 .6.5 1.1 1.2 1.1c1.1 0 2.1-.6 2.1-2.2zm-4.3-8.4l2.3 0l1.5 2.5l-1.6 0l-2.2-2.5zm24.2 11.9l0-8.9l-3.7 8.9l-1.8 0l-3.7-8.9l0 8.9l-2 0l0-12.1l2.7 0l3.9 9.2l3.9-9.2l2.8 0l0 12.1l-2.1 0zm10.7-4.2c0-1.7-1.1-2.6-2.3-2.6c-1.2 0-2.3.9-2.3 2.6c0 1.7 1.1 2.6 2.3 2.6c1.2 0 2.3-.9 2.3-2.6zm2 0c0 2.6-1.8 4.4-4.3 4.4c-2.5 0-4.3-1.8-4.3-4.4c0-2.5 1.8-4.4 4.3-4.4c2.5 0 4.3 1.9 4.3 4.4zm3.9 4.2l-2 0l0-8.3l1.9 0c0 0 .01 1.08 0 1.1c.6-1 1.5-1.4 2.5-1.4c2 0 2.9 1.5 2.9 3.3c.05.02 0 5.3 0 5.3l-1.9 0c0 0-.03-4.94 0-4.9c0-1.1-.5-1.9-1.7-1.9c-1.1 0-1.7.9-1.7 2c-.04-.02 0 4.8 0 4.8zm10.2-8.3l1.8 0l0 1.7l-1.8 0c0 0 .04 3.87 0 3.9c0 .7.4 1 1.1 1c.3 0 .6 0 .7-.1c0 0 0 1.7 0 1.7c-.1 0-.5.2-1.2.2c-1.6 0-2.5-1-2.5-2.5c-.01-.01 0-4.2 0-4.2l-1.5 0l0-1.7c0 0 .38-.03.4 0c.9 0 1.3-.6 1.3-1.3c-.04-.02 0-1.3 0-1.3l1.7 0l0 2.6zm8.5 1.9c-.2 0-.5 0-.7 0c-1.5 0-2.2.9-2.2 2.4c0 .01 0 4 0 4l-2 0l0-8.3l2 0c0 0-.05 1.3 0 1.3c.3-.9 1.3-1.4 2.3-1.4c.3 0 .5 0 .6 0c0 0 0 2 0 2zm7 1.3c-.1-1-.7-1.8-2.1-1.8c-1.2 0-1.9.9-2 1.8c0 0 4.1 0 4.1 0zm1.9 2.7c-.5 1.4-1.8 2.6-3.8 2.6c-2.2 0-4.2-1.6-4.2-4.4c0-2.6 1.9-4.4 4-4.4c2.6 0 4.1 1.7 4.1 4.3c0 .3-.1.6-.1.6c0 0-6 0-6 0c0 1.3 1 2.2 2.2 2.2c1.2 0 1.8-.6 2.1-1.4c0 0 1.7.5 1.7.5zm4.8 2.6c-1.9 0-3.1-1.5-3.1-3.3c0-.01 0-5.2 0-5.2l2 0c0 0-.03 4.84 0 4.8c0 1.1.4 1.9 1.6 1.9c1.2 0 1.8-.7 1.8-1.8c-.03-.03 0-4.9 0-4.9l1.9 0c0 0 .04 6.74 0 6.7c0 .7.1 1.2.1 1.6c0 0-1.9 0-1.9 0c0-.2 0-.6 0-1c-.4.8-1.4 1.2-2.4 1.2zm6.8-.2l0-8.3l1.9 0l0 8.3l-1.9 0zm1-12.5c.7 0 1.3.6 1.3 1.3c0 .7-.6 1.2-1.3 1.2c-.7 0-1.3-.5-1.3-1.2c0-.7.6-1.3 1.3-1.3zm3.5 12.5l0-12.4l2 0l0 12.4l-2 0z" stroke="none" fill="#9b78ef"/></g><g id="Polygon168951"><path d="m1.4 13.8l0-12.1l2.1 0l0 10.1l5.5 0l0 2l-7.6 0zm8.8-12.2c.8 0 1.4.6 1.4 1.5c0 2.3-1.5 3.1-2.5 3.2c0 0 0-.9 0-.9c.7-.2 1.3-.8 1.3-1.6c0 0-.1.1-.3.1c-.7 0-1.2-.5-1.2-1.2c0-.6.6-1.1 1.3-1.1zm8.1 8c0-1.7-1.1-2.6-2.3-2.6c-1.2 0-2.3.9-2.3 2.6c0 1.7 1.1 2.6 2.3 2.6c1.2 0 2.3-.9 2.3-2.6zm2 0c0 2.6-1.8 4.4-4.3 4.4c-2.5 0-4.3-1.8-4.3-4.4c0-2.5 1.8-4.4 4.3-4.4c2.5 0 4.3 1.9 4.3 4.4zm4.9 4.4c-2 0-3.2-1.5-3.2-3.3c.05-.01 0-5.2 0-5.2l2 0c0 0 .02 4.84 0 4.8c0 1.1.5 1.9 1.7 1.9c1.1 0 1.7-.7 1.7-1.8c.02-.03 0-4.9 0-4.9l2 0c0 0-.01 6.74 0 6.7c0 .7 0 1.2.1 1.6c0 0-1.9 0-1.9 0c0-.2-.1-.6-.1-1c-.4.8-1.4 1.2-2.3 1.2zm11-.2l-2 0l-3.4-8.3l2.2 0l2.2 5.9l2.1-5.9l2.1 0l-3.2 8.3zm9.9-5.1c-.1-1-.7-1.8-2.1-1.8c-1.2 0-1.9.9-2 1.8c0 0 4.1 0 4.1 0zm1.8 2.7c-.4 1.4-1.7 2.6-3.7 2.6c-2.2 0-4.2-1.6-4.2-4.4c0-2.6 1.9-4.4 4-4.4c2.5 0 4 1.7 4 4.3c0 .3 0 .6 0 .6c0 0-6.1 0-6.1 0c.1 1.3 1.1 2.2 2.3 2.2c1.2 0 1.8-.6 2.1-1.4c0 0 1.6.5 1.6.5zm6.9-4c-.2 0-.5 0-.7 0c-1.5 0-2.2.9-2.2 2.4c0 .01 0 4 0 4l-2 0l0-8.3l1.9 0c0 0 .05 1.3 0 1.3c.4-.9 1.4-1.4 2.4-1.4c.3 0 .5 0 .6 0c0 0 0 2 0 2zm4.5-1.9l1.7 0l0 1.7l-1.7 0c0 0-.02 3.87 0 3.9c0 .7.3 1 1 1c.3 0 .6 0 .7-.1c0 0 0 1.7 0 1.7c-.1 0-.5.2-1.2.2c-1.5 0-2.5-1-2.5-2.5c.02-.01 0-4.2 0-4.2l-1.5 0l0-1.7c0 0 .42-.03.4 0c.9 0 1.3-.6 1.3-1.3c-.01-.02 0-1.3 0-1.3l1.8 0l0 2.6zm6.8 8.5c-2 0-3.1-1.5-3.1-3.3c-.05-.01 0-5.2 0-5.2l1.9 0c0 0 .02 4.84 0 4.8c0 1.1.5 1.9 1.7 1.9c1.1 0 1.7-.7 1.7-1.8c.02-.03 0-4.9 0-4.9l2 0c0 0-.01 6.74 0 6.7c0 .7 0 1.2.1 1.6c0 0-1.9 0-1.9 0c0-.2-.1-.6-.1-1c-.4.8-1.4 1.2-2.3 1.2zm11.6-6.6c-.2 0-.5 0-.7 0c-1.5 0-2.2.9-2.2 2.4c.02.01 0 4 0 4l-2 0l0-8.3l2 0c0 0-.03 1.3 0 1.3c.4-.9 1.3-1.4 2.4-1.4c.2 0 .4 0 .5 0c0 0 0 2 0 2zm7 1.3c0-1-.7-1.8-2-1.8c-1.3 0-2 .9-2.1 1.8c0 0 4.1 0 4.1 0zm1.9 2.7c-.5 1.4-1.8 2.6-3.8 2.6c-2.2 0-4.2-1.6-4.2-4.4c0-2.6 1.9-4.4 4-4.4c2.6 0 4.1 1.7 4.1 4.3c0 .3-.1.6-.1.6c0 0-6 0-6 0c0 1.3 1 2.2 2.2 2.2c1.2 0 1.8-.6 2.1-1.4c0 0 1.7.5 1.7.5zm9.7.8c1.3 0 2.2-1 2.2-2.6c0-1.6-.9-2.6-2.1-2.6c-1.3 0-2.3 1-2.3 2.6c0 1.6.9 2.6 2.2 2.6zm4.1 0c0 .8.1 1.4.1 1.6c0 0-1.9 0-1.9 0c0-.2-.1-.8-.1-1.1c-.3.7-1.2 1.3-2.4 1.3c-2.4 0-4-1.9-4-4.4c0-2.4 1.7-4.3 4-4.3c1.4 0 2.2.6 2.4 1.1c.01.04 0-5 0-5l1.9 0c0 0 .03 10.84 0 10.8zm5.6 1.8c-2 0-3.1-1.5-3.1-3.3c-.02-.01 0-5.2 0-5.2l2 0c0 0-.05 4.84 0 4.8c0 1.1.4 1.9 1.6 1.9c1.2 0 1.8-.7 1.8-1.8c-.05-.03 0-4.9 0-4.9l1.9 0c0 0 .03 6.74 0 6.7c0 .7.1 1.2.1 1.6c0 0-1.9 0-1.9 0c0-.2 0-.6 0-1c-.5.8-1.4 1.2-2.4 1.2z" stroke="none" fill="#9b78ef"/></g></svg>