<?xml version="1.0" standalone="no"?><!DOCTYPE svg PUBLIC "-//W3C//DTD SVG 1.1//EN" "http://www.w3.org/Graphics/SVG/1.1/DTD/svg11.dtd"><svg xmlns="http://www.w3.org/2000/svg" version="1.1" width="112.3px" height="32.3px" viewBox="0 -3 112.3 32.3" style="top:-3px"><desc>→ apprenants de niveau A2 B1</desc><defs/><g id="Polygon169103"><path d="m2.1 23.9l-1.1 0l0-5.7l1 0c0 0 .05.83 0 .8c.5-.7 1.1-1 1.8-1c1.4 0 2.1 1 2.1 2.3c-.04.01 0 3.6 0 3.6l-1.2 0c0 0 .04-3.4 0-3.4c0-.8-.3-1.4-1.3-1.4c-.9 0-1.3.7-1.3 1.5c-.03.03 0 3.3 0 3.3zm5.6 0l0-5.7l1.1 0l0 5.7l-1.1 0zm.5-8.7c.5 0 .8.4.8.8c0 .5-.3.8-.8.8c-.4 0-.8-.3-.8-.8c0-.4.4-.8.8-.8zm5.1 8.7l-1.1 0l-2.4-5.7l1.3 0l1.6 4.4l1.7-4.4l1.2 0l-2.3 5.7zm7-3.4c0-.8-.5-1.5-1.5-1.5c-1 0-1.6.7-1.6 1.5c0 0 3.1 0 3.1 0zm1.2 1.8c-.4 1-1.3 1.8-2.6 1.8c-1.5 0-2.9-1.1-2.9-3c0-1.8 1.3-3.1 2.7-3.1c1.8 0 2.8 1.2 2.8 3c0 .2 0 .3 0 .4c0 0-4.3 0-4.3 0c0 1 .7 1.7 1.7 1.7c.9 0 1.4-.5 1.6-1.1c0 0 1 .3 1 .3zm1.1.1c0-1 .7-1.6 1.7-1.7c0 0 1.6-.3 1.6-.3c.3 0 .4-.2.4-.4c0-.6-.4-1-1.2-1c-.8 0-1.3.5-1.3 1.1c0 0-1.1-.2-1.1-.2c.1-1.1 1.1-1.9 2.3-1.9c1.8 0 2.4 1 2.4 2.1c0 0 0 2.9 0 2.9c0 .5.1.8.1 1c0 0-1.1 0-1.1 0c0-.2-.1-.4-.1-.8c-.2.4-.8.9-1.8.9c-1.2 0-1.9-.8-1.9-1.7c0 0 0 0 0 0zm3.7-.9c0-.01 0-.3 0-.3c0 0-1.75.29-1.8.3c-.4.1-.8.3-.8.8c0 .5.4.9.9.9c1 0 1.7-.5 1.7-1.7zm6.5 1.8c-.3.5-1 .8-1.7.8c-1.3 0-2.1-1-2.1-2.3c-.02.02 0-3.6 0-3.6l1.1 0c0 0 0 3.45 0 3.5c0 .7.4 1.4 1.3 1.4c.9 0 1.4-.6 1.4-1.4c-.04-.03 0-3.5 0-3.5l1.1 0c0 0-.02 4.68 0 4.7c0 .4 0 .8 0 1c0 0-1 0-1 0c-.1-.1-.1-.4-.1-.6c0 0 0 0 0 0zm11-1.7l-3.7 0l-.9 2.3l-1.3 0l3.4-8.4l1.3 0l3.4 8.4l-1.3 0l-.9-2.3zm-3.3-1.1l2.9 0l-1.5-3.8l-1.4 3.8zm6.1-1.6c0-.2 0-.3 0-.4c0-1.3 1-2.5 2.7-2.5c1.6 0 2.6 1.1 2.6 2.4c0 1-.6 1.8-1.5 2.4c0 0-1.5 1-1.5 1c-.4.3-.8.6-.9 1.1c-.02-.04 3.9 0 3.9 0l0 1c0 0-5.36.04-5.4 0c.1-1.2.6-2.2 1.9-3c0 0 1.3-.9 1.3-.9c.7-.4 1-1 1-1.6c0-.7-.5-1.3-1.4-1.3c-1 0-1.5.7-1.5 1.6c0 .1 0 .2 0 .3c0 0-1.2-.1-1.2-.1zm6.4 2.1l0-1l3.2 0l0 1l-3.2 0zm7.6-5.5c1.6 0 2.5.9 2.5 2.3c0 .9-.5 1.5-1.3 1.8c1 .2 1.6 1.1 1.6 2c0 1.4-1.1 2.3-2.6 2.3c-.05.04-3 0-3 0l0-8.4c0 0 2.75-.01 2.8 0zm-.2 3.7c1 0 1.5-.6 1.5-1.4c0-.8-.6-1.3-1.5-1.3c-.03.02-1.4 0-1.4 0l0 2.7c0 0 1.42-.01 1.4 0zm.2 3.7c.9 0 1.6-.5 1.6-1.3c0-.8-.5-1.4-1.6-1.4c.04-.01-1.6 0-1.6 0l0 2.7c0 0 1.59.02 1.6 0zm5.5 1l0-5.4l-1.9 0c0 0 0-.83 0-.8c1.1 0 1.8-.6 2-1.5c-.01.02 1 0 1 0l0 7.7l-1.1 0z" stroke="none" fill="#9b78ef"/></g><g id="Polygon169102"><path d="m8.7 8.7l0-2l-8.3 0l0-1l8.3 0l0-2l3 2.5l-3 2.5zm7.1-.6c0-1 .8-1.6 1.7-1.7c0 0 1.6-.3 1.6-.3c.3 0 .4-.2.4-.4c0-.6-.3-1-1.2-1c-.8 0-1.2.5-1.3 1.1c0 0-1.1-.2-1.1-.2c.1-1.1 1.1-1.9 2.4-1.9c1.7 0 2.4 1 2.4 2.1c0 0 0 2.9 0 2.9c0 .5 0 .8 0 1c0 0-1.1 0-1.1 0c0-.2 0-.4 0-.8c-.3.4-.9.9-1.9.9c-1.1 0-1.9-.8-1.9-1.7c0 0 0 0 0 0zm3.7-.9c.03-.01 0-.3 0-.3c0 0-1.72.29-1.7.3c-.5.1-.9.3-.9.8c0 .5.4.9 1 .9c.9 0 1.6-.5 1.6-1.7zm2.9 4.7l0-8l1.1 0c0 0-.02.9 0 .9c.3-.6 1-1 1.9-1c1.7 0 2.6 1.3 2.6 3c0 1.7-1 3-2.6 3c-.9 0-1.6-.4-1.9-.9c0-.03 0 3 0 3l-1.1 0zm4.5-5.1c0-1.2-.7-2-1.7-2c-1 0-1.7.8-1.7 2c0 1.1.7 2 1.7 2c1 0 1.7-.9 1.7-2c0 0 0 0 0 0zm2.6 5.1l0-8l1 0c0 0 .04.9 0 .9c.4-.6 1-1 2-1c1.7 0 2.6 1.3 2.6 3c0 1.7-1 3-2.7 3c-.9 0-1.5-.4-1.8-.9c-.03-.03 0 3 0 3l-1.1 0zm4.5-5.1c0-1.2-.7-2-1.7-2c-1.1 0-1.7.8-1.7 2c0 1.1.6 2 1.7 2c1 0 1.7-.9 1.7-2c0 0 0 0 0 0zm5.7-1.8c-.2 0-.3 0-.5 0c-.9 0-1.6.5-1.6 1.8c.05-.03 0 2.8 0 2.8l-1.1 0l0-5.7l1.1 0c0 0 .02 1.01 0 1c.4-.9 1.2-1.1 1.7-1.1c.2 0 .3 0 .4 0c0 0 0 1.2 0 1.2zm5 1.2c0-.8-.6-1.5-1.6-1.5c-.9 0-1.5.7-1.5 1.5c0 0 3.1 0 3.1 0zm1.1 1.8c-.3 1-1.2 1.8-2.5 1.8c-1.6 0-2.9-1.1-2.9-3c0-1.8 1.3-3.1 2.7-3.1c1.8 0 2.8 1.2 2.8 3c0 .2 0 .3-.1.4c0 0-4.3 0-4.3 0c.1 1 .8 1.7 1.8 1.7c.9 0 1.4-.5 1.6-1.1c0 0 .9.3.9.3zm2.6 1.6l-1.1 0l0-5.7l1.1 0c0 0 0 .83 0 .8c.4-.7 1.1-1 1.8-1c1.3 0 2 1 2 2.3c.01.01 0 3.6 0 3.6l-1.1 0c0 0-.01-3.4 0-3.4c0-.8-.3-1.4-1.3-1.4c-.9 0-1.4.7-1.4 1.5c.02.03 0 3.3 0 3.3zm5.2-1.5c0-1 .8-1.6 1.8-1.7c0 0 1.5-.3 1.5-.3c.4 0 .5-.2.5-.4c0-.6-.4-1-1.3-1c-.8 0-1.2.5-1.3 1.1c0 0-1-.2-1-.2c.1-1.1 1.1-1.9 2.3-1.9c1.7 0 2.4 1 2.4 2.1c0 0 0 2.9 0 2.9c0 .5 0 .8.1 1c0 0-1.1 0-1.1 0c-.1-.2-.1-.4-.1-.8c-.2.4-.8.9-1.8.9c-1.2 0-2-.8-2-1.7c0 0 0 0 0 0zm3.8-.9c-.03-.01 0-.3 0-.3c0 0-1.78.29-1.8.3c-.5.1-.8.3-.8.8c0 .5.3.9.9.9c.9 0 1.7-.5 1.7-1.7zm3.9 2.4l-1.1 0l0-5.7l1.1 0c0 0 .03.83 0 .8c.4-.7 1.1-1 1.8-1c1.4 0 2 1 2 2.3c.04.01 0 3.6 0 3.6l-1.1 0c0 0 .02-3.4 0-3.4c0-.8-.3-1.4-1.3-1.4c-.9 0-1.4.7-1.4 1.5c.05.03 0 3.3 0 3.3zm7.1-5.7l1.3 0l0 1l-1.3 0c0 0 .03 3 0 3c0 .5.2.8.8.8c.2 0 .4 0 .5-.1c0 0 0 1 0 1c-.1 0-.4.1-.8.1c-1 0-1.6-.6-1.6-1.6c.01-.03 0-3.2 0-3.2l-1.1 0l0-1c0 0 .32.01.3 0c.6 0 .9-.4.9-.9c.01.03 0-.9 0-.9l1 0l0 1.8zm3.3 3.9c.1.6.5 1.1 1.3 1.1c.7 0 1-.4 1-.8c0-.4-.3-.6-.7-.7c0 0-1-.2-1-.2c-.9-.2-1.4-.8-1.4-1.7c0-.9.9-1.8 2-1.8c1.6 0 2.1 1.1 2.2 1.6c0 0-1 .3-1 .3c-.1-.3-.3-.9-1.2-.9c-.6 0-1 .4-1 .7c0 .4.3.6.7.7c0 0 .9.2.9.2c1.1.3 1.6.9 1.6 1.7c0 .9-.7 1.8-2.1 1.8c-1.6 0-2.2-1-2.3-1.6c0 0 1-.4 1-.4zm10.2 1c1.1 0 1.7-.9 1.7-2.1c0-1.1-.6-2-1.7-2c-1 0-1.6.9-1.6 2.1c0 1.1.6 2 1.6 2zm1.7 0c-.3.5-.9 1-1.8 1c-1.7 0-2.7-1.3-2.7-3c0-1.7 1.1-3 2.7-3c1 0 1.6.5 1.8.9c-.02.02 0-3.7 0-3.7l1.1 0c0 0-.02 7.58 0 7.6c0 .5 0 .9 0 1c0 0-1 0-1 0c-.1-.1-.1-.4-.1-.7c0 0 0-.1 0-.1zm6.9-2.6c-.1-.8-.6-1.5-1.6-1.5c-1 0-1.5.7-1.6 1.5c0 0 3.2 0 3.2 0zm1.1 1.8c-.3 1-1.3 1.8-2.6 1.8c-1.5 0-2.9-1.1-2.9-3c0-1.8 1.3-3.1 2.8-3.1c1.7 0 2.7 1.2 2.7 3c0 .2 0 .3 0 .4c0 0-4.3 0-4.3 0c0 1 .7 1.7 1.7 1.7c.9 0 1.4-.5 1.6-1.1c0 0 1 .3 1 .3z" stroke="none" fill="#9b78ef"/></g></svg>