<?xml version="1.0" standalone="no"?><!DOCTYPE svg PUBLIC "-//W3C//DTD SVG 1.1//EN" "http://www.w3.org/Graphics/SVG/1.1/DTD/svg11.dtd"><svg xmlns="http://www.w3.org/2000/svg" version="1.1" width="55.2px" height="47.3px" viewBox="0 -6 55.2 47.3" style="top:-6px"><desc>3</desc><defs/><g id="Polygon169253"><path d="m12.4 13.2c0 4.2-4.4 5-6.6 5c-3.6 0-5.4-2.2-5.4-4c0-1.4 1.1-2.3 2.1-2.3c1.1 0 2.1.6 2.1 1.9c0 .9-.7 1.4-.7 2c0 .6.3 1.8 1.9 1.8c1.5 0 2.7-1.6 2.7-3.8c0-3-1.7-4.9-5.3-4.1c0 0-.2-.4-.2-.4c2.7-1 4.8-2.5 4.8-5.4c0-1.4-.4-3-2.1-3c-1.2 0-2 .8-2 1.5c0 1.2 1.1 1.5 1.1 2.5c0 1-.8 1.6-1.6 1.6c-1.4 0-2.2-.8-2.2-2.2c0-1.8 1.9-4 5-4c3.6 0 5.7 1.2 5.7 3.9c0 2-2.1 3.6-4.9 4.4c0 0 0 .1 0 .1c3.7-.1 5.6 1.9 5.6 4.5z" stroke="none" fill="#9b78ef"/></g></svg>