<?xml version="1.0" standalone="no"?><!DOCTYPE svg PUBLIC "-//W3C//DTD SVG 1.1//EN" "http://www.w3.org/Graphics/SVG/1.1/DTD/svg11.dtd"><svg xmlns="http://www.w3.org/2000/svg" version="1.1" width="63px" height="14.7px" viewBox="0 -2 63 14.7" style="top:-2px"><desc>Lire l’avis entier</desc><defs/><g id="Polygon186865"><path d="m.8 7.3l0-6.4l.9 0l0 5.6l3 0l0 .8l-3.9 0zm4.9 0l0-4.3l.8 0l0 4.3l-.8 0zm.4-6.6c.3 0 .6.3.6.6c0 .3-.3.6-.6.6c-.4 0-.6-.3-.6-.6c0-.3.2-.6.6-.6zm4.2 3.1c-.1 0-.2 0-.3 0c-.7 0-1.2.4-1.2 1.3c-.03.01 0 2.2 0 2.2l-.9 0l0-4.3l.9 0c0 0-.04.71 0 .7c.3-.7.8-.8 1.3-.8c.1 0 .2 0 .2 0c0 0 0 .9 0 .9zm3.8.9c0-.7-.4-1.1-1.2-1.1c-.7 0-1.1.5-1.2 1.1c0 0 2.4 0 2.4 0zm.9 1.3c-.3.8-1 1.4-2 1.4c-1.1 0-2.2-.8-2.2-2.3c0-1.4 1-2.3 2.1-2.3c1.3 0 2.1.9 2.1 2.3c0 .1 0 .2 0 .3c0 0-3.3 0-3.3 0c0 .7.6 1.3 1.3 1.3c.7 0 1.1-.4 1.2-.9c0 0 .8.2.8.2zm3.3 1.3l0-6.5l.9 0l0 6.5l-.9 0zm2.6-6.5c.3 0 .6.3.6.8c0 1.1-.7 1.6-1.2 1.6c0 0 0-.4 0-.4c.4-.1.7-.5.7-.9c0 0-.1.1-.2.1c-.3 0-.6-.3-.6-.6c0-.3.3-.6.7-.6zm1.1 5.3c0-.8.6-1.2 1.3-1.3c0 0 1.2-.2 1.2-.2c.2 0 .3-.1.3-.3c0-.4-.3-.8-.9-.8c-.6 0-1 .4-1 .9c0 0-.8-.2-.8-.2c.1-.8.8-1.4 1.7-1.4c1.3 0 1.8.8 1.8 1.6c0 0 0 2.2 0 2.2c0 .4.1.6.1.7c0 0-.8 0-.8 0c0-.1-.1-.3-.1-.6c-.2.3-.6.7-1.4.7c-.8 0-1.4-.6-1.4-1.3c0 0 0 0 0 0zm2.8-.7c0 .03 0-.2 0-.2c0 0-1.32.23-1.3.2c-.4.1-.6.3-.6.7c0 .3.2.6.7.6c.6 0 1.2-.3 1.2-1.3zm4.1 1.9l-.8 0l-1.8-4.3l1 0l1.2 3.3l1.3-3.3l.9 0l-1.8 4.3zm2.6 0l0-4.3l.8 0l0 4.3l-.8 0zm.4-6.6c.3 0 .6.3.6.6c0 .3-.3.6-.6.6c-.3 0-.6-.3-.6-.6c0-.3.3-.6.6-.6zm2.2 5.2c.1.4.4.8 1 .8c.5 0 .8-.3.8-.6c0-.2-.2-.5-.6-.5c0 0-.7-.2-.7-.2c-.7-.1-1.1-.6-1.1-1.2c0-.8.7-1.4 1.5-1.4c1.2 0 1.6.8 1.7 1.2c0 0-.8.3-.8.3c0-.3-.2-.8-.9-.8c-.4 0-.7.3-.7.6c0 .3.2.5.5.5c0 0 .7.2.7.2c.8.2 1.2.6 1.2 1.3c0 .6-.5 1.3-1.6 1.3c-1.2 0-1.7-.7-1.7-1.2c0 0 .7-.3.7-.3zm8.9-1.2c0-.7-.4-1.1-1.2-1.1c-.7 0-1.1.5-1.2 1.1c0 0 2.4 0 2.4 0zm.8 1.3c-.2.8-.9 1.4-1.9 1.4c-1.2 0-2.2-.8-2.2-2.3c0-1.4 1-2.3 2.1-2.3c1.3 0 2.1.9 2.1 2.3c0 .1 0 .2 0 .3c0 0-3.3 0-3.3 0c0 .7.6 1.3 1.3 1.3c.7 0 1.1-.4 1.2-.9c0 0 .7.2.7.2zm2 1.3l-.8 0l0-4.3l.8 0c0 0-.02.57 0 .6c.3-.6.8-.8 1.3-.8c1 0 1.6.8 1.6 1.7c-.04.04 0 2.8 0 2.8l-.9 0c0 0 .02-2.62 0-2.6c0-.6-.2-1.1-1-1.1c-.7 0-1 .5-1 1.2c0-.02 0 2.5 0 2.5zm5.3-4.3l1 0l0 .7l-1 0c0 0 .05 2.27 0 2.3c0 .4.2.6.6.6c.2 0 .3-.1.4-.1c0 0 0 .7 0 .7c-.1.1-.3.1-.6.1c-.7 0-1.2-.4-1.2-1.2c0-.01 0-2.4 0-2.4l-.8 0l0-.7c0 0 .21-.05.2 0c.5 0 .7-.3.7-.7c-.03-.01 0-.7 0-.7l.7 0l0 1.4zm2.1 4.3l0-4.3l.8 0l0 4.3l-.8 0zm.4-6.6c.4 0 .6.3.6.6c0 .3-.2.6-.6.6c-.3 0-.6-.3-.6-.6c0-.3.3-.6.6-.6zm4.8 4c0-.7-.4-1.1-1.2-1.1c-.7 0-1.1.5-1.2 1.1c0 0 2.4 0 2.4 0zm.9 1.3c-.3.8-1 1.4-2 1.4c-1.2 0-2.2-.8-2.2-2.3c0-1.4 1-2.3 2.1-2.3c1.3 0 2.1.9 2.1 2.3c0 .1 0 .2 0 .3c0 0-3.3 0-3.3 0c0 .7.6 1.3 1.3 1.3c.7 0 1.1-.4 1.2-.9c0 0 .8.2.8.2zm3.5-2.2c-.2 0-.3 0-.4 0c-.7 0-1.2.4-1.2 1.3c.01.01 0 2.2 0 2.2l-.8 0l0-4.3l.8 0c0 0-.01.71 0 .7c.3-.7.8-.8 1.3-.8c.1 0 .2 0 .3 0c0 0 0 .9 0 .9z" stroke="none" fill="#144542"/></g></svg>