<?xml version="1.0" standalone="no"?><!DOCTYPE svg PUBLIC "-//W3C//DTD SVG 1.1//EN" "http://www.w3.org/Graphics/SVG/1.1/DTD/svg11.dtd"><svg xmlns="http://www.w3.org/2000/svg" version="1.1" width="157.4px" height="127.6px" viewBox="0 -3 157.4 127.6" style="top:-3px"><desc>ServiceS la personne Auxiliaires de vie…</desc><defs/><g id="Polygon168419"><path d="m6.8 47.6l-4.2 0l-1.1 2.7l-1.4 0l3.8-9.6l1.6 0l3.8 9.6l-1.5 0l-1-2.7zm-3.8-1.2l3.3 0l-1.6-4.3l-1.7 4.3zm11.4 3.1c-.4.7-1.2 1-1.9 1c-1.5 0-2.4-1.1-2.4-2.6c-.04 0 0-4.1 0-4.1l1.2 0c0 0 .03 3.91 0 3.9c0 .9.4 1.7 1.5 1.7c1 0 1.5-.7 1.5-1.7c.03.02 0-3.9 0-3.9l1.3 0c0 0 0 5.3 0 5.3c0 .5 0 1 .1 1.2c0 0-1.2 0-1.2 0c-.1-.2-.1-.5-.1-.8c0 0 0 0 0 0zm4.8-2.5l-2.3-3.2l1.5 0l1.6 2.3l1.6-2.3l1.5 0c0 0-2.33 3.19-2.3 3.2c.4.5 2 2.8 2.4 3.3c-.05-.01-1.6 0-1.6 0l-1.6-2.4l-1.7 2.4l-1.5 0l2.4-3.3zm5.2 3.3l0-6.5l1.2 0l0 6.5l-1.2 0zm.6-9.9c.5 0 .9.5.9 1c0 .5-.4.9-.9.9c-.5 0-.9-.4-.9-.9c0-.5.4-1 .9-1zm2.8 9.9l0-9.8l1.2 0l0 9.8l-1.2 0zm3.4 0l0-6.5l1.2 0l0 6.5l-1.2 0zm.6-9.9c.5 0 .9.5.9 1c0 .5-.4.9-.9.9c-.5 0-.9-.4-.9-.9c0-.5.4-1 .9-1zm2.4 8.2c0-1.2.8-1.8 2-2c0 0 1.7-.3 1.7-.3c.4 0 .5-.2.5-.4c0-.7-.4-1.2-1.4-1.2c-.9 0-1.4.5-1.5 1.3c0 0-1.2-.3-1.2-.3c.2-1.2 1.3-2.1 2.7-2.1c1.9 0 2.7 1.1 2.7 2.4c0 0 0 3.2 0 3.2c0 .6 0 .9.1 1.1c0 0-1.3 0-1.3 0c0-.2 0-.4 0-.9c-.3.5-1 1.1-2.1 1.1c-1.4 0-2.2-.9-2.2-1.9c0 0 0 0 0 0zm4.2-1.1c.01.02 0-.3 0-.3c0 0-1.97.32-2 .3c-.5.1-.9.4-.9 1c0 .5.4.9 1 .9c1.1 0 1.9-.5 1.9-1.9zm3.2 2.8l0-6.5l1.3 0l0 6.5l-1.3 0zm.7-9.9c.5 0 .9.5.9 1c0 .5-.4.9-.9.9c-.5 0-.9-.4-.9-.9c0-.5.4-1 .9-1zm6.3 4.7c-.1 0-.3 0-.5 0c-1.1 0-1.8.5-1.8 1.9c.02.05 0 3.3 0 3.3l-1.2 0l0-6.5l1.2 0c0 0-.01 1.14 0 1.1c.5-1 1.3-1.2 1.9-1.2c.2 0 .4 0 .4 0c0 0 0 1.4 0 1.4zm5.7 1.3c0-.9-.6-1.7-1.8-1.7c-1 0-1.7.9-1.7 1.7c0 0 3.5 0 3.5 0zm1.3 2c-.4 1.2-1.4 2.1-2.9 2.1c-1.8 0-3.3-1.3-3.3-3.5c0-2 1.5-3.4 3.1-3.4c2 0 3.1 1.4 3.1 3.4c0 .2 0 .3 0 .4c0 0-4.9 0-4.9 0c0 1.2.9 2 2 2c1 0 1.5-.6 1.8-1.3c0 0 1.1.3 1.1.3zm2.2-.2c0 .7.6 1.2 1.5 1.2c.7 0 1.1-.4 1.1-.8c0-.4-.3-.8-.9-.9c0 0-1.1-.2-1.1-.2c-1-.2-1.6-.9-1.6-1.8c0-1.1 1.1-2.1 2.3-2.1c1.8 0 2.4 1.2 2.5 1.7c0 0-1.1.5-1.1.5c-.1-.4-.3-1.1-1.4-1.1c-.6 0-1 .4-1 .9c0 .3.2.6.7.7c0 0 1 .3 1 .3c1.2.2 1.8.9 1.8 1.9c0 .9-.7 2-2.3 2c-1.8 0-2.6-1.1-2.7-1.9c0 0 1.2-.4 1.2-.4zm11.5 1.2c1.2 0 1.9-1.1 1.9-2.4c0-1.3-.7-2.2-1.8-2.2c-1.2 0-2 .9-2 2.2c0 1.4.7 2.4 1.9 2.4zm1.9-.1c-.3.6-1 1.2-2 1.2c-1.9 0-3.1-1.5-3.1-3.5c0-1.8 1.3-3.4 3.1-3.4c1.2 0 1.8.6 2 1.1c0 .03 0-4.2 0-4.2l1.2 0c0 0 .05 8.59 0 8.6c0 .6.1 1.1.1 1.2c0 0-1.2 0-1.2 0c0-.2-.1-.5-.1-.9c0 0 0-.1 0-.1zm7.8-2.9c-.1-.9-.7-1.7-1.8-1.7c-1.1 0-1.7.9-1.8 1.7c0 0 3.6 0 3.6 0zm1.2 2c-.3 1.2-1.4 2.1-2.9 2.1c-1.7 0-3.2-1.3-3.2-3.5c0-2 1.4-3.4 3.1-3.4c2 0 3.1 1.4 3.1 3.4c0 .2 0 .3 0 .4c0 0-4.9 0-4.9 0c0 1.2.8 2 1.9 2c1.1 0 1.6-.6 1.9-1.3c0 0 1 .3 1 .3zm8 1.9l-1.2 0l-2.7-6.5l1.5 0l1.8 5l1.9-5l1.3 0l-2.6 6.5zm3.8 0l0-6.5l1.3 0l0 6.5l-1.3 0zm.7-9.9c.5 0 .9.5.9 1c0 .5-.4.9-.9.9c-.5 0-.9-.4-.9-.9c0-.5.4-1 .9-1zm7.1 6c0-.9-.6-1.7-1.8-1.7c-1 0-1.7.9-1.7 1.7c0 0 3.5 0 3.5 0zm1.3 2c-.4 1.2-1.4 2.1-2.9 2.1c-1.8 0-3.3-1.3-3.3-3.5c0-2 1.5-3.4 3.1-3.4c2 0 3.1 1.4 3.1 3.4c0 .2 0 .3 0 .4c0 0-4.9 0-4.9 0c0 1.2.9 2 2 2c1 0 1.6-.6 1.8-1.3c0 0 1.1.3 1.1.3zm10.8 2c-.4 0-.8-.4-.8-.9c0-.5.4-.9.8-.9c.5 0 .9.4.9.9c0 .5-.4.9-.9.9zm-4.2 0c-.4 0-.8-.4-.8-.9c0-.5.4-.9.8-.9c.5 0 .9.4.9.9c0 .5-.4.9-.9.9zm-4.2 0c-.4 0-.8-.4-.8-.9c0-.5.4-.9.8-.9c.5 0 .9.4.9.9c0 .5-.4.9-.9.9z" stroke="none" fill="#144542"/></g><g id="Polygon168418"><path d="m4.5 21.9c1 0 1.7-.6 1.7-1.5c0-.9-.7-1.5-1.7-1.5c.01.04-1.7 0-1.7 0l0 3c0 0 1.71 0 1.7 0zm-1.7 1.4l0 3.8l-1.6 0l0-9.6c0 0 3.55.01 3.6 0c1.8 0 3 1.2 3 2.9c0 1.7-1.2 2.9-3 2.9c-.05.03-2 0-2 0zm7.3 3.8l0-9.6l5.9 0l0 1.5l-4.3 0l0 2.6l3.9 0l0 1.4l-3.9 0l0 2.6l4.3 0l0 1.5l-5.9 0zm11.5-3.8l-1.2 0l0 3.8l-1.7 0l0-9.6c0 0 3.71.01 3.7 0c1.9 0 3 1.3 3 2.9c0 1.4-.8 2.4-2.2 2.7c.05.03 2.2 4 2.2 4l-1.8 0l-2-3.8zm.5-1.4c1 0 1.7-.6 1.7-1.5c0-.9-.7-1.5-1.7-1.5c.02.04-1.7 0-1.7 0l0 3c0 0 1.72-.04 1.7 0zm10.7-1.7c-.1-.6-.6-1.5-1.9-1.5c-1 0-1.7.7-1.7 1.4c0 .6.4 1.1 1.2 1.2c0 0 1.3.3 1.3.3c1.7.4 2.6 1.4 2.6 2.8c0 1.4-1.2 2.9-3.4 2.9c-2.4 0-3.5-1.6-3.7-3c0 0 1.6-.4 1.6-.4c0 1 .8 1.9 2.1 1.9c1.2 0 1.8-.6 1.8-1.3c0-.6-.5-1.1-1.3-1.3c0 0-1.4-.3-1.4-.3c-1.4-.3-2.4-1.2-2.4-2.7c0-1.6 1.5-2.9 3.3-2.9c2.2 0 3.1 1.4 3.3 2.4c0 0-1.4.5-1.4.5zm8.2 5.5c1.7 0 3.2-1.1 3.2-3.4c0-2.3-1.5-3.5-3.2-3.5c-1.6 0-3.2 1.2-3.2 3.5c0 2.3 1.6 3.4 3.2 3.4zm0-8.4c2.5 0 4.9 1.9 4.9 5c0 3.1-2.4 5-4.9 5c-2.5 0-4.8-1.9-4.8-5c0-3.1 2.3-5 4.8-5zm13.8 9.8l-4.8-7.3l0 7.3l-1.6 0l0-9.6l2.1 0l4.3 6.8l0-6.8l1.6 0l0 9.6l-1.6 0zm11.1 0l-4.8-7.3l0 7.3l-1.6 0l0-9.6l2.1 0l4.3 6.8l0-6.8l1.6 0l0 9.6l-1.6 0zm4.7 0l0-9.6l5.9 0l0 1.5l-4.2 0l0 2.6l3.8 0l0 1.4l-3.8 0l0 2.6l4.2 0l0 1.5l-5.9 0z" stroke="none" fill="#9b78ef"/></g><g id="Polygon168417"><path d="m6 4c-.1-.6-.6-1.4-1.8-1.4c-1 0-1.7.6-1.7 1.3c0 .7.4 1.1 1.1 1.3c0 0 1.4.3 1.4.3c1.7.3 2.6 1.4 2.6 2.7c0 1.5-1.2 2.9-3.4 2.9c-2.4 0-3.5-1.6-3.7-2.9c0 0 1.5-.5 1.5-.5c.1 1 .8 1.9 2.2 1.9c1.2 0 1.8-.5 1.8-1.3c0-.6-.5-1.1-1.3-1.3c0 0-1.4-.3-1.4-.3c-1.4-.2-2.4-1.2-2.4-2.6c0-1.6 1.5-3 3.2-3c2.3 0 3.2 1.4 3.4 2.5c0 0-1.5.4-1.5.4zm4.1 6.9l0-9.6l5.9 0l0 1.6l-4.3 0l0 2.5l3.9 0l0 1.5l-3.9 0l0 2.5l4.3 0l0 1.5l-5.9 0zm11.4-3.8l-1.1 0l0 3.8l-1.7 0l0-9.6c0 0 3.7.05 3.7 0c1.8 0 3 1.3 3 2.9c0 1.4-.8 2.4-2.2 2.8c.03-.04 2.2 3.9 2.2 3.9l-1.8 0l-2.1-3.8zm.6-1.4c1 0 1.6-.6 1.6-1.5c0-.8-.6-1.4-1.6-1.4c0-.03-1.7 0-1.7 0l0 2.9c0 0 1.7 0 1.7 0zm11.8-4.4l1.8 0l-3.7 9.6l-1.6 0l-3.6-9.6l1.8 0l2.7 7.5l2.6-7.5zm3.8 9.6l0-9.6l1.7 0l0 9.6l-1.7 0zm4.2-4.8c0-3.1 2.3-5 4.8-5c2.4 0 3.9 1.5 4.3 3.1c0 0-1.5.6-1.5.6c-.3-1.2-1.2-2.1-2.8-2.1c-1.6 0-3.1 1.1-3.1 3.4c0 2.3 1.5 3.5 3.1 3.5c1.6 0 2.5-1.1 2.9-2.2c0 0 1.4.5 1.4.5c-.4 1.7-1.8 3.2-4.3 3.2c-2.5 0-4.8-1.9-4.8-5zm11.6 4.8l0-9.6l5.9 0l0 1.6l-4.3 0l0 2.5l3.9 0l0 1.5l-3.9 0l0 2.5l4.3 0l0 1.5l-5.9 0zm13.5-6.9c-.1-.6-.6-1.4-1.9-1.4c-1 0-1.6.6-1.6 1.3c0 .7.3 1.1 1.1 1.3c0 0 1.3.3 1.3.3c1.7.3 2.6 1.4 2.6 2.7c0 1.5-1.2 2.9-3.4 2.9c-2.4 0-3.5-1.6-3.6-2.9c0 0 1.5-.5 1.5-.5c.1 1 .8 1.9 2.1 1.9c1.2 0 1.8-.5 1.8-1.3c0-.6-.5-1.1-1.3-1.3c0 0-1.3-.3-1.3-.3c-1.5-.2-2.5-1.2-2.5-2.6c0-1.6 1.5-3 3.3-3c2.2 0 3.1 1.4 3.3 2.5c0 0-1.4.4-1.4.4zm13.7 4.5l-4.1 0l-.9 2.4l-1.7 0l3.7-9.6l1.9 0l3.7 9.6l-1.7 0l-.9-2.4zm-3.5-1.5l2.9 0l-1.5-3.9l-1.4 3.9zm-1.1-8l2 0l1.4 1.7l-1.5 0l-1.9-1.7zm13.3 11.9l0-9.6l1.6 0l0 8.1l4.4 0l0 1.5l-6 0zm14.1-2.4l-4 0l-.9 2.4l-1.7 0l3.7-9.6l1.9 0l3.7 9.6l-1.8 0l-.9-2.4zm-3.5-1.5l3 0l-1.5-3.9l-1.5 3.9z" stroke="none" fill="#9b78ef"/></g></svg>