<?xml version="1.0" standalone="no"?><!DOCTYPE svg PUBLIC "-//W3C//DTD SVG 1.1//EN" "http://www.w3.org/Graphics/SVG/1.1/DTD/svg11.dtd"><svg xmlns="http://www.w3.org/2000/svg" version="1.1" width="87.4px" height="26.2px" viewBox="0 -4 87.4 26.2" style="top:-4px"><desc>Entreprises</desc><defs/><g id="Polygon163095"><path d="m1.4 13.8l0-12.1l7.5 0l0 1.9l-5.4 0l0 3.2l4.9 0l0 1.9l-4.9 0l0 3.1l5.4 0l0 2l-7.5 0zm11.6 0l-2 0l0-8.3l1.9 0c0 0 .02 1.08 0 1.1c.6-1 1.5-1.4 2.5-1.4c2 0 3 1.5 3 3.3c-.04.02 0 5.3 0 5.3l-2 0c0 0-.01-4.94 0-4.9c0-1.1-.5-1.9-1.7-1.9c-1.1 0-1.7.9-1.7 2c-.03-.02 0 4.8 0 4.8zm10.3-8.3l1.7 0l0 1.7l-1.7 0c0 0-.04 3.87 0 3.9c0 .7.3 1 1 1c.3 0 .6 0 .7-.1c0 0 0 1.7 0 1.7c-.1 0-.5.2-1.2.2c-1.5 0-2.5-1-2.5-2.5c0-.01 0-4.2 0-4.2l-1.5 0l0-1.7c0 0 .4-.03.4 0c.9 0 1.3-.6 1.3-1.3c-.03-.02 0-1.3 0-1.3l1.8 0l0 2.6zm8.4 1.9c-.2 0-.5 0-.7 0c-1.5 0-2.2.9-2.2 2.4c.01.01 0 4 0 4l-2 0l0-8.3l2 0c0 0-.04 1.3 0 1.3c.4-.9 1.3-1.4 2.4-1.4c.2 0 .4 0 .5 0c0 0 0 2 0 2zm7 1.3c0-1-.7-1.8-2-1.8c-1.3 0-2 .9-2.1 1.8c0 0 4.1 0 4.1 0zm1.9 2.7c-.5 1.4-1.8 2.6-3.8 2.6c-2.2 0-4.2-1.6-4.2-4.4c0-2.6 1.9-4.4 4-4.4c2.6 0 4.1 1.7 4.1 4.3c0 .3-.1.6-.1.6c0 0-6 0-6 0c0 1.3 1 2.2 2.2 2.2c1.2 0 1.8-.6 2.1-1.4c0 0 1.7.5 1.7.5zm2 5.6l0-11.5l1.9 0c0 0-.03 1.1 0 1.1c.4-.7 1.3-1.3 2.6-1.3c2.5 0 3.8 1.9 3.8 4.3c0 2.5-1.5 4.4-3.9 4.4c-1.2 0-2.1-.6-2.5-1.2c.02.02 0 4.2 0 4.2l-1.9 0zm4.1-10c-1.3 0-2.2 1.1-2.2 2.6c0 1.6.9 2.6 2.2 2.6c1.3 0 2.3-1 2.3-2.6c0-1.5-.9-2.6-2.3-2.6zm11 .4c-.2 0-.5 0-.7 0c-1.5 0-2.2.9-2.2 2.4c.01.01 0 4 0 4l-2 0l0-8.3l2 0c0 0-.04 1.3 0 1.3c.3-.9 1.3-1.4 2.4-1.4c.2 0 .4 0 .5 0c0 0 0 2 0 2zm1.6 6.4l0-8.3l2 0l0 8.3l-2 0zm1-12.5c.7 0 1.3.6 1.3 1.3c0 .7-.6 1.2-1.3 1.2c-.7 0-1.3-.5-1.3-1.2c0-.7.6-1.3 1.3-1.3zm4.5 9.7c.1.8.6 1.4 1.7 1.4c.8 0 1.2-.4 1.2-.9c0-.5-.3-.8-.9-.9c0 0-1.2-.3-1.2-.3c-1.5-.3-2.3-1.3-2.3-2.4c0-1.5 1.4-2.7 3.1-2.7c2.3 0 3 1.5 3.2 2.3c0 0-1.7.5-1.7.5c-.1-.5-.4-1.2-1.5-1.2c-.7 0-1.2.4-1.2.9c0 .5.3.8.8.9c0 0 1.3.2 1.3.2c1.5.4 2.3 1.3 2.3 2.6c0 1.2-1 2.6-3.1 2.6c-2.4 0-3.3-1.6-3.4-2.5c0 0 1.7-.5 1.7-.5zm12.2-2.3c0-1-.7-1.8-2-1.8c-1.3 0-2 .9-2.1 1.8c0 0 4.1 0 4.1 0zm1.9 2.7c-.5 1.4-1.8 2.6-3.8 2.6c-2.2 0-4.2-1.6-4.2-4.4c0-2.6 1.9-4.4 4-4.4c2.6 0 4.1 1.7 4.1 4.3c0 .3-.1.6-.1.6c0 0-6 0-6 0c0 1.3 1 2.2 2.2 2.2c1.2 0 1.8-.6 2.1-1.4c0 0 1.7.5 1.7.5zm3-.4c0 .8.6 1.4 1.6 1.4c.9 0 1.3-.4 1.3-.9c0-.5-.3-.8-1-.9c0 0-1.2-.3-1.2-.3c-1.5-.3-2.2-1.3-2.2-2.4c0-1.5 1.3-2.7 3-2.7c2.3 0 3.1 1.5 3.2 2.3c0 0-1.7.5-1.7.5c0-.5-.4-1.2-1.5-1.2c-.7 0-1.2.4-1.2.9c0 .5.3.8.8.9c0 0 1.3.2 1.3.2c1.6.4 2.4 1.3 2.4 2.6c0 1.2-1 2.6-3.1 2.6c-2.4 0-3.4-1.6-3.5-2.5c0 0 1.8-.5 1.8-.5z" stroke="none" fill="#144542"/></g></svg>