<?xml version="1.0" standalone="no"?><!DOCTYPE svg PUBLIC "-//W3C//DTD SVG 1.1//EN" "http://www.w3.org/Graphics/SVG/1.1/DTD/svg11.dtd"><svg xmlns="http://www.w3.org/2000/svg" version="1.1" width="150.2px" height="154.6px" viewBox="0 -3 150.2 154.6" style="top:-3px"><desc>dossier sp cial 10 ans d’impact : un mod le qui se renforce, une action qui s’amplifie interview Ir ne Etende Ngondji...</desc><defs/><g id="Polygon187702"><path d="m4.3 134.6c1.9 0 2.9 1.1 2.9 2.6c0 1-.6 1.7-1.4 2.1c1.1.2 1.7 1.2 1.7 2.3c0 1.5-1.2 2.6-2.9 2.6c-.04-.04-3.4 0-3.4 0l0-9.6c0 0 3.13-.01 3.1 0zm-.1 4.2c1.1 0 1.7-.7 1.7-1.5c0-1-.7-1.5-1.8-1.5c.03-.05-1.6 0-1.6 0l0 3c0 0 1.68-.02 1.7 0zm.2 4.2c1 0 1.8-.6 1.8-1.5c0-.9-.6-1.6-1.8-1.6c.03.01-1.9 0-1.9 0l0 3.1c0 0 1.87 0 1.9 0zm4.3-.6c0-1.1.8-1.8 1.9-1.9c0 0 1.8-.3 1.8-.3c.4-.1.5-.3.5-.5c0-.6-.4-1.2-1.4-1.2c-.9 0-1.4.6-1.5 1.4c0 0-1.2-.3-1.2-.3c.1-1.3 1.3-2.1 2.7-2.1c1.9 0 2.7 1.1 2.7 2.3c0 0 0 3.3 0 3.3c0 .6 0 .9 0 1.1c0 0-1.2 0-1.2 0c0-.2-.1-.4-.1-.9c-.2.4-.9 1.1-2.1 1.1c-1.3 0-2.1-1-2.1-2c0 0 0 0 0 0zm4.2-1c-.01-.02 0-.3 0-.3c0 0-1.99.28-2 .3c-.5.1-.9.4-.9 1c0 .4.4.9 1 .9c1.1 0 1.9-.5 1.9-1.9zm4.5 2.8l-1.3 0l0-6.5l1.3 0c0 0-.03.9 0 .9c.4-.8 1.2-1.1 2-1.1c1.5 0 2.3 1.1 2.3 2.5c-.01.05 0 4.2 0 4.2l-1.3 0c0 0 .03-3.94 0-3.9c0-.9-.4-1.7-1.5-1.7c-1 0-1.5.8-1.5 1.8c0 .01 0 3.8 0 3.8zm10.9 2.5c0 0-.02-3.45 0-3.5c-.4.7-1.1 1.1-2 1.1c-1.9 0-3.1-1.5-3.1-3.4c0-1.8 1.1-3.4 3-3.4c1.2 0 1.8.6 2.1 1.2c.01-.03 0-1 0-1l1.2 0l0 9l-1.2 0zm-1.9-3.5c1.1 0 1.9-1 1.9-2.3c0-1.3-.8-2.3-1.9-2.3c-1.2 0-1.9 1-1.9 2.3c0 1.3.7 2.3 1.9 2.3zm9.4.2c-.3.7-1.1 1-1.9 1c-1.5 0-2.4-1.2-2.4-2.6c0-.04 0-4.1 0-4.1l1.3 0c0 0-.04 3.87 0 3.9c0 .9.4 1.6 1.4 1.6c1.1 0 1.6-.6 1.6-1.6c-.02-.01 0-3.9 0-3.9l1.2 0c0 0 .04 5.26 0 5.3c0 .5.1.9.1 1.2c0 0-1.2 0-1.2 0c0-.2-.1-.5-.1-.8c0 0 0 0 0 0zm7.7-3.2c0-.9-.6-1.6-1.8-1.6c-1 0-1.7.8-1.7 1.6c0 0 3.5 0 3.5 0zm1.3 2.1c-.4 1.2-1.4 2.1-2.9 2.1c-1.8 0-3.3-1.3-3.3-3.5c0-2 1.5-3.4 3.1-3.4c2 0 3.1 1.3 3.1 3.4c0 .1 0 .3 0 .4c0 0-4.9 0-4.9 0c0 1.1.9 1.9 2 1.9c1 0 1.6-.5 1.8-1.3c0 0 1.1.4 1.1.4zm2.2-.2c.1.6.6 1.2 1.5 1.2c.7 0 1.1-.4 1.1-.9c0-.4-.3-.7-.8-.8c0 0-1.1-.3-1.1-.3c-1-.2-1.7-.9-1.7-1.8c0-1.1 1.1-2 2.4-2c1.7 0 2.3 1.1 2.4 1.7c0 0-1.1.4-1.1.4c0-.3-.3-1.1-1.3-1.1c-.7 0-1.1.5-1.1.9c0 .4.2.7.7.8c0 0 1.1.2 1.1.2c1.1.3 1.8 1 1.8 2c0 .9-.8 2-2.4 2c-1.8 0-2.5-1.2-2.7-1.9c0 0 1.2-.4 1.2-.4zm8.4-3.7c0-.1 0-.2 0-.4c0-1.5 1.1-2.8 3-2.8c1.9 0 3 1.2 3 2.7c0 1.1-.7 2.1-1.6 2.7c0 0-1.8 1.1-1.8 1.1c-.5.3-.9.7-1 1.2c-.04.04 4.5 0 4.5 0l0 1.3c0 0-6.18-.04-6.2 0c.1-1.5.6-2.6 2.1-3.5c0 0 1.5-1 1.5-1c.8-.5 1.2-1.1 1.2-1.8c0-.8-.6-1.5-1.7-1.5c-1.1 0-1.7.8-1.7 1.8c0 .1 0 .2.1.4c0 0-1.4-.2-1.4-.2zm9.3 4.2c.4.4.8.6 1.4.6c.7 0 1.1-.2 1.4-.6c.6-.5.8-1.5.8-2.8c0-1.3-.2-2.3-.8-2.8c-.3-.4-.7-.6-1.4-.6c-.6 0-1 .2-1.4.6c-.5.5-.7 1.5-.7 2.8c0 1.3.2 2.3.7 2.8zm-1.3-6c.6-.8 1.5-1.4 2.7-1.4c1.3 0 2.2.6 2.7 1.4c.6.9.8 2 .8 3.2c0 1.2-.2 2.3-.8 3.2c-.5.8-1.4 1.4-2.7 1.4c-1.2 0-2.1-.6-2.7-1.4c-.5-.9-.7-2-.7-3.2c0-1.2.2-2.3.7-3.2zm7.5 1.8c-.1-.1-.1-.2-.1-.4c0-1.5 1.2-2.8 3.1-2.8c1.8 0 2.9 1.2 2.9 2.7c0 1.1-.6 2.1-1.6 2.7c0 0-1.7 1.1-1.7 1.1c-.5.3-1 .7-1.1 1.2c-.01.04 4.5 0 4.5 0l0 1.3c0 0-6.15-.04-6.1 0c0-1.5.5-2.6 2-3.5c0 0 1.5-1 1.5-1c.8-.5 1.2-1.1 1.2-1.8c0-.8-.5-1.5-1.7-1.5c-1.1 0-1.6.8-1.6 1.8c0 .1 0 .2 0 .4c0 0-1.3-.2-1.3-.2zm8.9.6l2.6-2.4l-4.2 0l0-1.2l5.9 0l0 1.2c0 0-2.45 2.31-2.5 2.3c1.3 0 2.7.9 2.7 2.7c0 1.4-1.1 2.8-3.1 2.8c-2.1 0-3.2-1.3-3.3-2.8c0 0 1.3-.3 1.3-.3c.1 1.2.9 1.9 2 1.9c1.2 0 1.8-.7 1.8-1.6c0-1.1-.9-1.6-1.8-1.6c-.2 0-.5 0-.7.1c-.04 0-.7-1.1-.7-1.1z" stroke="none" fill="#fff"/></g><g id="Polygon187701"><path d="m6.8 125.3l-4.2 0l-1 2.7l-1.5 0l3.8-9.6l1.6 0l3.8 9.6l-1.5 0l-1-2.7zm-3.8-1.2l3.3 0l-1.6-4.3l-1.7 4.3zm7.5 3.9l0-9.8l1.3 0l0 9.8l-1.3 0zm7.6-.8c-.3.7-1.1 1-1.9 1c-1.5 0-2.4-1.2-2.4-2.6c-.02-.04 0-4.1 0-4.1l1.3 0c0 0-.05 3.87 0 3.9c0 .9.4 1.6 1.4 1.6c1.1 0 1.6-.6 1.6-1.6c-.04-.01 0-3.9 0-3.9l1.2 0c0 0 .03 5.26 0 5.3c0 .5.1.9.1 1.2c0 0-1.2 0-1.2 0c0-.2-.1-.5-.1-.8c0 0 0 0 0 0zm3.4.8l0-6.5l1.2 0c0 0 .01.83 0 .8c.4-.7 1.2-1 2-1c.8 0 1.6.4 1.9 1.2c.5-.9 1.4-1.2 2.2-1.2c1.1 0 2.2.8 2.2 2.5c.04-.05 0 4.2 0 4.2l-1.2 0c0 0-.02-4.11 0-4.1c0-.9-.4-1.5-1.4-1.5c-.9 0-1.5.7-1.5 1.6c0 .03 0 4 0 4l-1.3 0c0 0 .04-4.11 0-4.1c0-.9-.4-1.5-1.3-1.5c-.9 0-1.6.7-1.6 1.6c.05.05 0 4 0 4l-1.2 0zm12.8 0l-1.2 0l0-6.5l1.2 0c0 0 0 .9 0 .9c.5-.8 1.2-1.1 2-1.1c1.6 0 2.3 1.1 2.3 2.5c.02.05 0 4.2 0 4.2l-1.2 0c0 0-.04-3.94 0-3.9c0-.9-.4-1.7-1.6-1.7c-1 0-1.5.8-1.5 1.8c.03.01 0 3.8 0 3.8zm6.3 0l0-6.5l1.3 0l0 6.5l-1.3 0zm.7-9.9c.5 0 .9.4.9.9c0 .5-.4.9-.9.9c-.5 0-.9-.4-.9-.9c0-.5.4-.9.9-.9zm8.8 8.9c1.2 0 1.9-1 1.9-2.3c0-1.4-.7-2.3-1.9-2.3c-1.1 0-1.9 1-1.9 2.3c0 1.3.7 2.3 1.9 2.3zm1.9 0c-.3.6-1 1.1-2 1.1c-1.9 0-3.1-1.5-3.1-3.4c0-1.8 1.2-3.4 3.1-3.4c1.1 0 1.7.6 2 1.1c-.04-.01 0-4.2 0-4.2l1.2 0c0 0 .02 8.56 0 8.6c0 .6.1 1.1.1 1.2c0 0-1.2 0-1.2 0c-.1-.2-.1-.5-.1-.9c0 0 0-.1 0-.1zm7.6.2c-.4.7-1.2 1-1.9 1c-1.5 0-2.5-1.2-2.5-2.6c.04-.04 0-4.1 0-4.1l1.3 0c0 0 .01 3.87 0 3.9c0 .9.4 1.6 1.5 1.6c1 0 1.5-.6 1.5-1.6c.02-.01 0-3.9 0-3.9l1.3 0c0 0-.01 5.26 0 5.3c0 .5 0 .9.1 1.2c0 0-1.3 0-1.3 0c0-.2 0-.5 0-.8c0 0 0 0 0 0zm10.1-4.3c1.1 0 1.9-.7 1.9-1.7c0-1-.8-1.6-1.9-1.6c0-.02-1.9 0-1.9 0l0 3.3c0 0 1.9-.04 1.9 0zm-1.9 1.1l0 4l-1.3 0l0-9.6c0 0 3.44-.01 3.4 0c1.8 0 3 1.2 3 2.8c0 1.6-1.2 2.8-3 2.8c.04.05-2.1 0-2.1 0zm10-1.2c-.2-.1-.4-.1-.6-.1c-1 0-1.7.6-1.7 2c-.05.01 0 3.3 0 3.3l-1.3 0l0-6.5l1.2 0c0 0 .02 1.1 0 1.1c.5-1 1.3-1.2 2-1.2c.1 0 .3 0 .4 0c0 0 0 1.4 0 1.4zm6.1 1.9c0-1.5-1-2.3-2.1-2.3c-1 0-2 .8-2 2.3c0 1.5 1 2.3 2 2.3c1.1 0 2.1-.8 2.1-2.3zm1.3 0c0 2-1.4 3.5-3.4 3.5c-1.9 0-3.3-1.5-3.3-3.5c0-2 1.4-3.4 3.3-3.4c2 0 3.4 1.4 3.4 3.4zm2.3 3.3c.1.9.8 1.6 1.8 1.6c1.4 0 2-.7 2-2.1c0 0 0-.9 0-.9c-.3.6-1 1.1-2 1.1c-1.7 0-3-1.4-3-3.2c0-1.7 1.2-3.2 3-3.2c1 0 1.7.4 2 1.1c.01-.02 0-.9 0-.9l1.3 0c0 0-.03 5.98 0 6c0 1.6-.8 3.2-3.3 3.2c-1.6 0-2.8-1-3-2.4c0 0 1.2-.3 1.2-.3zm3.9-3.5c0-1.2-.8-2.1-1.9-2.1c-1.1 0-1.9.9-1.9 2.1c0 1.3.8 2.1 1.9 2.1c1.1 0 1.9-.8 1.9-2.1zm6.8-1.7c-.2-.1-.4-.1-.6-.1c-1 0-1.7.6-1.7 2c-.04.01 0 3.3 0 3.3l-1.3 0l0-6.5l1.2 0c0 0 .03 1.1 0 1.1c.5-1 1.3-1.2 2-1.2c.2 0 .3 0 .4 0c0 0 0 1.4 0 1.4zm.9 3.4c0-1.1.9-1.8 2-1.9c0 0 1.8-.3 1.8-.3c.4-.1.5-.3.5-.5c0-.6-.4-1.2-1.4-1.2c-.9 0-1.4.6-1.5 1.4c0 0-1.2-.3-1.2-.3c.1-1.3 1.2-2.1 2.6-2.1c2 0 2.7 1.1 2.7 2.3c0 0 0 3.3 0 3.3c0 .6.1.9.1 1.1c0 0-1.2 0-1.2 0c0-.2-.1-.4-.1-.9c-.3.4-.9 1.1-2.1 1.1c-1.3 0-2.2-1-2.2-2c0 0 0 0 0 0zm4.3-1c-.03-.02 0-.3 0-.3c0 0-2.02.28-2 .3c-.6.1-1 .4-1 1c0 .4.4.9 1.1.9c1 0 1.9-.5 1.9-1.9zm3.2 2.8l0-6.5l1.2 0c0 0 .02.83 0 .8c.4-.7 1.2-1 2-1c.8 0 1.6.4 1.9 1.2c.6-.9 1.4-1.2 2.2-1.2c1.1 0 2.3.8 2.3 2.5c-.05-.05 0 4.2 0 4.2l-1.3 0c0 0 0-4.11 0-4.1c0-.9-.4-1.5-1.4-1.5c-.9 0-1.5.7-1.5 1.6c.02.03 0 4 0 4l-1.2 0c0 0-.05-4.11 0-4.1c0-.9-.5-1.5-1.4-1.5c-.9 0-1.5.7-1.5 1.6c-.04.05 0 4 0 4l-1.3 0zm11.6 0l0-6.5l1.2 0c0 0-.01.83 0 .8c.4-.7 1.2-1 2-1c.8 0 1.6.4 1.9 1.2c.5-.9 1.4-1.2 2.2-1.2c1.1 0 2.2.8 2.2 2.5c.02-.05 0 4.2 0 4.2l-1.2 0c0 0-.03-4.11 0-4.1c0-.9-.5-1.5-1.4-1.5c-.9 0-1.5.7-1.5 1.6c-.01.03 0 4 0 4l-1.3 0c0 0 .02-4.11 0-4.1c0-.9-.4-1.5-1.4-1.5c-.9 0-1.5.7-1.5 1.6c.03.05 0 4 0 4l-1.2 0zm15.9-4c0-.9-.6-1.6-1.8-1.6c-1 0-1.7.8-1.7 1.6c0 0 3.5 0 3.5 0zm1.3 2.1c-.4 1.2-1.4 2.1-2.9 2.1c-1.8 0-3.3-1.3-3.3-3.5c0-2 1.5-3.4 3.1-3.4c2 0 3.1 1.3 3.1 3.4c0 .1 0 .3 0 .4c0 0-4.9 0-4.9 0c.1 1.1.9 1.9 2 1.9c1 0 1.6-.5 1.8-1.3c0 0 1.1.4 1.1.4z" stroke="none" fill="#fff"/></g><g id="Polygon187700"><path d="m1.2 111.8l0-9.6l1.4 0l0 9.6l-1.4 0zm7.3-5.2c-.2-.1-.4-.1-.6-.1c-1.1 0-1.8.6-1.8 2c.03.01 0 3.3 0 3.3l-1.2 0l0-6.5l1.2 0c0 0 0 1.1 0 1.1c.5-1 1.3-1.2 1.9-1.2c.2 0 .4 0 .5 0c0 0 0 1.4 0 1.4zm5.6 1.2c0-.9-.6-1.6-1.8-1.6c-1 0-1.7.8-1.7 1.6c0 0 3.5 0 3.5 0zm1.3 2.1c-.4 1.2-1.4 2.1-2.9 2.1c-1.8 0-3.3-1.3-3.3-3.5c0-2 1.5-3.4 3.1-3.4c2 0 3.1 1.3 3.1 3.4c0 .1 0 .3 0 .4c0 0-4.9 0-4.9 0c.1 1.1.9 1.9 2 1.9c1 0 1.6-.5 1.8-1.3c0 0 1.1.4 1.1.4zm-5.1-7.4l1.6 0l1.2 1.9l-1.1 0l-1.7-1.9zm8 9.3l-1.2 0l0-6.5l1.2 0c0 0 .01.9 0 .9c.5-.8 1.2-1.1 2-1.1c1.6 0 2.3 1.1 2.3 2.5c.03.05 0 4.2 0 4.2l-1.2 0c0 0-.04-3.94 0-3.9c0-.9-.4-1.7-1.6-1.7c-1 0-1.5.8-1.5 1.8c.03.01 0 3.8 0 3.8zm10.7-4c0-.9-.6-1.6-1.8-1.6c-1 0-1.7.8-1.7 1.6c0 0 3.5 0 3.5 0zm1.3 2.1c-.4 1.2-1.4 2.1-2.9 2.1c-1.8 0-3.3-1.3-3.3-3.5c0-2 1.5-3.4 3.1-3.4c2 0 3.1 1.3 3.1 3.4c0 .1 0 .3 0 .4c0 0-4.9 0-4.9 0c.1 1.1.9 1.9 2 1.9c1 0 1.6-.5 1.8-1.3c0 0 1.1.4 1.1.4zm5.2 1.9l0-9.6l5.8 0l0 1.2l-4.5 0l0 3l4.1 0l0 1.2l-4.1 0l0 2.9l4.5 0l0 1.3l-5.8 0zm9.4-6.5l1.4 0l0 1.1l-1.4 0c0 0-.01 3.39 0 3.4c0 .6.2.9.9.9c.2 0 .4 0 .5-.1c0 0 0 1.1 0 1.1c-.1 0-.4.1-.9.1c-1.1 0-1.8-.6-1.8-1.8c.02-.02 0-3.6 0-3.6l-1.2 0l0-1.1c0 0 .33-.03.3 0c.7 0 1-.5 1-1c.03-.03 0-1.1 0-1.1l1.2 0l0 2.1zm7.4 2.5c0-.9-.6-1.6-1.8-1.6c-1.1 0-1.7.8-1.8 1.6c0 0 3.6 0 3.6 0zm1.3 2.1c-.4 1.2-1.4 2.1-2.9 2.1c-1.8 0-3.3-1.3-3.3-3.5c0-2 1.5-3.4 3.1-3.4c2 0 3.1 1.3 3.1 3.4c0 .1 0 .3 0 .4c0 0-4.9 0-4.9 0c0 1.1.9 1.9 2 1.9c1 0 1.5-.5 1.8-1.3c0 0 1.1.4 1.1.4zm2.9 1.9l-1.3 0l0-6.5l1.3 0c0 0-.03.9 0 .9c.4-.8 1.2-1.1 2-1.1c1.5 0 2.3 1.1 2.3 2.5c-.01.05 0 4.2 0 4.2l-1.3 0c0 0 .02-3.94 0-3.9c0-.9-.4-1.7-1.5-1.7c-1 0-1.5.8-1.5 1.8c0 .01 0 3.8 0 3.8zm9-1c1.1 0 1.9-1 1.9-2.3c0-1.4-.8-2.3-1.9-2.3c-1.2 0-1.9 1-1.9 2.3c0 1.3.7 2.3 1.9 2.3zm1.9 0c-.3.6-1 1.1-2 1.1c-2 0-3.1-1.5-3.1-3.4c0-1.8 1.2-3.4 3.1-3.4c1.1 0 1.7.6 1.9 1.1c.04-.01 0-4.2 0-4.2l1.3 0c0 0-.01 8.56 0 8.6c0 .6 0 1.1.1 1.2c0 0-1.3 0-1.3 0c0-.2 0-.5 0-.9c0 0 0-.1 0-.1zm7.7-3c0-.9-.6-1.6-1.8-1.6c-1 0-1.7.8-1.7 1.6c0 0 3.5 0 3.5 0zm1.3 2.1c-.4 1.2-1.4 2.1-2.9 2.1c-1.7 0-3.3-1.3-3.3-3.5c0-2 1.5-3.4 3.1-3.4c2 0 3.1 1.3 3.1 3.4c0 .1 0 .3 0 .4c0 0-4.9 0-4.9 0c.1 1.1.9 1.9 2 1.9c1 0 1.6-.5 1.8-1.3c0 0 1.1.4 1.1.4zm11.7 1.9l-5.2-7.8l0 7.8l-1.3 0l0-9.6l1.7 0l4.8 7.3l0-7.3l1.3 0l0 9.6l-1.3 0zm4.4 0c.1.9.8 1.6 1.8 1.6c1.3 0 2-.7 2-2.1c0 0 0-.9 0-.9c-.4.6-1.1 1.1-2 1.1c-1.8 0-3-1.4-3-3.2c0-1.7 1.2-3.2 3-3.2c1 0 1.6.4 2 1.1c-.03-.02 0-.9 0-.9l1.2 0c0 0 .02 5.98 0 6c0 1.6-.8 3.2-3.2 3.2c-1.7 0-2.9-1-3-2.4c0 0 1.2-.3 1.2-.3zm3.8-3.5c0-1.2-.7-2.1-1.8-2.1c-1.2 0-1.9.9-1.9 2.1c0 1.3.7 2.1 1.9 2.1c1.1 0 1.8-.8 1.8-2.1zm8.1.2c0-1.5-1-2.3-2.1-2.3c-1.1 0-2 .8-2 2.3c0 1.5.9 2.3 2 2.3c1.1 0 2.1-.8 2.1-2.3zm1.2 0c0 2-1.3 3.5-3.3 3.5c-1.9 0-3.3-1.5-3.3-3.5c0-2 1.4-3.4 3.3-3.4c2 0 3.3 1.4 3.3 3.4zm2.9 3.3l-1.2 0l0-6.5l1.2 0c0 0 .01.9 0 .9c.5-.8 1.3-1.1 2-1.1c1.6 0 2.3 1.1 2.3 2.5c.03.05 0 4.2 0 4.2l-1.2 0c0 0-.04-3.94 0-3.9c0-.9-.4-1.7-1.5-1.7c-1 0-1.6.8-1.6 1.8c.04.01 0 3.8 0 3.8zm9-1c1.2 0 1.9-1 1.9-2.3c0-1.4-.7-2.3-1.9-2.3c-1.1 0-1.9 1-1.9 2.3c0 1.3.7 2.3 1.9 2.3zm1.9 0c-.3.6-1 1.1-2 1.1c-1.9 0-3.1-1.5-3.1-3.4c0-1.8 1.3-3.4 3.1-3.4c1.1 0 1.8.6 2 1.1c-.02-.01 0-4.2 0-4.2l1.2 0c0 0 .03 8.56 0 8.6c0 .6.1 1.1.1 1.2c0 0-1.2 0-1.2 0c-.1-.2-.1-.5-.1-.9c0 0 0-.1 0-.1zm3.4-5.5l1.3 0c0 0-.04 7.22 0 7.2c0 1.2-.7 2-1.8 2c-.5 0-.7 0-.8-.1c0 0 0-1 0-1c.1 0 .2 0 .4 0c.7 0 .9-.3.9-.9c0-.03 0-7.2 0-7.2zm.6-3.4c.5 0 .9.4.9.9c0 .5-.4.9-.9.9c-.5 0-.9-.4-.9-.9c0-.5.4-.9.9-.9zm2.8 9.9l0-6.5l1.3 0l0 6.5l-1.3 0zm.6-9.9c.6 0 1 .4 1 .9c0 .5-.4.9-1 .9c-.5 0-.9-.4-.9-.9c0-.5.4-.9.9-.9zm3.7 8.1c.6 0 1.1.4 1.1 1.3c0 1.8-1.2 2.5-2 2.6c0 0 0-.7 0-.7c.6-.1 1.1-.8 1.1-1.5c0 .1-.1.1-.3.1c-.5 0-.9-.3-.9-.9c0-.5.4-.9 1-.9z" stroke="none" fill="#fff"/></g><g id="Polygon187699"><path d="m.9 95.6l0-6.7l.9 0l0 6.7l-.9 0zm8.5 0l-3.6-5.5l0 5.5l-1 0l0-6.7l1.3 0l3.3 5.1l0-5.1l1 0l0 6.7l-1 0zm6.4-5.9l0 5.9l-.9 0l0-5.9l-2.2 0l0-.8l5.4 0l0 .8l-2.3 0zm4.6 5.9l0-6.7l4 0l0 .8l-3.1 0l0 2.1l2.8 0l0 .8l-2.8 0l0 2.1l3.1 0l0 .9l-4 0zm8.7-2.8l-1 0l0 2.8l-.9 0l0-6.7c0 0 2.51-.03 2.5 0c1.3 0 2.1.9 2.1 2c0 .9-.6 1.7-1.7 1.9c.04-.04 1.6 2.8 1.6 2.8l-1 0l-1.6-2.8zm.4-.8c.8 0 1.3-.5 1.3-1.1c0-.7-.5-1.2-1.3-1.2c.04 0-1.4 0-1.4 0l0 2.3c0 0 1.44-.01 1.4 0zm9.1-3.1l1 0l-2.6 6.7l-.9 0l-2.5-6.7l1 0l2 5.5l2-5.5zm3.3 6.7l0-6.7l.9 0l0 6.7l-.9 0zm4 0l0-6.7l4.1 0l0 .8l-3.2 0l0 2.1l2.9 0l0 .8l-2.9 0l0 2.1l3.2 0l0 .9l-4.1 0zm14.4-6.7l.9 0l-1.9 6.7l-.9 0l-1.8-5.5l-1.7 5.5l-.9 0l-2-6.7l1 0l1.5 5.2l1.6-5.2l1 0l1.7 5.3l1.5-5.3z" stroke="none" fill="#fff"/></g><g id="Polygon187698"><path d="m5.4 65.8c-.4.7-1.2 1-2 1c-1.5 0-2.4-1.1-2.4-2.6c.01.01 0-4.1 0-4.1l1.3 0c0 0-.02 3.92 0 3.9c0 .9.4 1.7 1.5 1.7c1 0 1.5-.7 1.5-1.7c-.01.03 0-3.9 0-3.9l1.3 0c0 0-.04 5.31 0 5.3c0 .5 0 1 0 1.2c0 0-1.2 0-1.2 0c0-.1 0-.5 0-.8c0 0 0 0 0 0zm4.6.8l-1.3 0l0-6.5l1.3 0c0 0-.04.95 0 .9c.4-.8 1.2-1.1 2-1.1c1.5 0 2.3 1.1 2.3 2.6c-.02-.01 0 4.1 0 4.1l-1.3 0c0 0 .01-3.89 0-3.9c0-.9-.4-1.6-1.5-1.6c-1 0-1.5.8-1.5 1.8c-.01-.05 0 3.7 0 3.7zm10.7-3.9c0-.9-.7-1.7-1.8-1.7c-1.1 0-1.7.9-1.8 1.7c0 0 3.6 0 3.6 0zm1.3 2.1c-.4 1.1-1.4 2-3 2c-1.7 0-3.2-1.3-3.2-3.5c0-2 1.5-3.4 3.1-3.4c2 0 3.1 1.4 3.1 3.4c0 .2 0 .3 0 .4c0 0-4.9 0-4.9 0c0 1.2.9 2 1.9 2c1.1 0 1.6-.6 1.9-1.3c0 0 1.1.4 1.1.4zm4.6.1c0-1.2.8-1.8 2-2c0 0 1.7-.3 1.7-.3c.4 0 .5-.2.5-.4c0-.7-.4-1.2-1.4-1.2c-.9 0-1.4.5-1.5 1.3c0 0-1.2-.3-1.2-.3c.2-1.2 1.3-2.1 2.7-2.1c1.9 0 2.7 1.1 2.7 2.4c0 0 0 3.3 0 3.3c0 .5 0 .9.1 1c0 0-1.3 0-1.3 0c0-.1 0-.4 0-.9c-.3.5-1 1.1-2.1 1.1c-1.4 0-2.2-.9-2.2-1.9c0 0 0 0 0 0zm4.2-1.1c.02.03 0-.3 0-.3c0 0-1.96.33-2 .3c-.5.1-.9.4-.9 1c0 .5.4.9 1 .9c1.1 0 1.9-.5 1.9-1.9zm4-.4c0 1.4.9 2.2 2 2.2c1.2 0 1.7-.8 1.8-1.3c0 0 1.1.5 1.1.5c-.3.9-1.2 2-2.9 2c-1.9 0-3.3-1.5-3.3-3.4c0-2.1 1.4-3.5 3.3-3.5c1.7 0 2.6 1.1 2.9 2.1c0 0-1.2.5-1.2.5c-.1-.7-.6-1.4-1.7-1.4c-1 0-2 .7-2 2.3zm8.1-3.3l1.4 0l0 1.2l-1.4 0c0 0 .02 3.34 0 3.3c0 .6.3.9.9.9c.2 0 .4 0 .5 0c0 0 0 1.1 0 1.1c-.1 0-.4.1-.8.1c-1.2 0-1.9-.7-1.9-1.9c.05.03 0-3.5 0-3.5l-1.2 0l0-1.2c0 0 .36.02.4 0c.7 0 1-.4 1-1c-.04.02 0-1 0-1l1.1 0l0 2zm3.1 6.5l0-6.5l1.3 0l0 6.5l-1.3 0zm.6-9.9c.5 0 .9.4.9 1c0 .5-.4.9-.9.9c-.5 0-.9-.4-.9-.9c0-.6.4-1 .9-1zm7.6 6.7c0-1.5-.9-2.4-2-2.4c-1.1 0-2 .9-2 2.4c0 1.5.9 2.3 2 2.3c1.1 0 2-.8 2-2.3zm1.3 0c0 1.9-1.4 3.4-3.3 3.4c-1.9 0-3.3-1.5-3.3-3.4c0-2 1.4-3.5 3.3-3.5c1.9 0 3.3 1.5 3.3 3.5zm2.9 3.2l-1.3 0l0-6.5l1.3 0c0 0-.01.95 0 .9c.5-.8 1.2-1.1 2-1.1c1.5 0 2.3 1.1 2.3 2.6c.01-.01 0 4.1 0 4.1l-1.3 0c0 0 .04-3.89 0-3.9c0-.9-.3-1.6-1.5-1.6c-1 0-1.5.8-1.5 1.8c.01-.05 0 3.7 0 3.7zm14.3 2.6c0 0-.03-3.51 0-3.5c-.4.7-1.1 1.1-2.1 1.1c-1.8 0-3-1.6-3-3.5c0-1.8 1.1-3.3 3-3.3c1.1 0 1.8.5 2.1 1.1c0 .01 0-1 0-1l1.2 0l0 9.1l-1.2 0zm-1.9-3.5c1.1 0 1.9-1 1.9-2.4c0-1.3-.8-2.2-1.9-2.2c-1.2 0-1.9.9-1.9 2.2c0 1.4.7 2.4 1.9 2.4zm9.4.1c-.3.7-1.1 1-1.9 1c-1.5 0-2.4-1.1-2.4-2.6c-.02.01 0-4.1 0-4.1l1.3 0c0 0-.05 3.92 0 3.9c0 .9.4 1.7 1.4 1.7c1 0 1.6-.7 1.6-1.7c-.04.03 0-3.9 0-3.9l1.2 0c0 0 .03 5.31 0 5.3c0 .5.1 1 .1 1.2c0 0-1.2 0-1.2 0c0-.1-.1-.5-.1-.8c0 0 0 0 0 0zm3.4.8l0-6.5l1.2 0l0 6.5l-1.2 0zm.6-9.9c.5 0 .9.4.9 1c0 .5-.4.9-.9.9c-.5 0-.9-.4-.9-.9c0-.6.4-1 .9-1zm6.7 7.8c.1.7.6 1.2 1.5 1.2c.7 0 1.1-.4 1.1-.8c0-.4-.3-.7-.8-.9c0 0-1.1-.2-1.1-.2c-1-.2-1.6-.9-1.6-1.8c0-1.1 1-2.1 2.3-2.1c1.8 0 2.3 1.2 2.5 1.8c0 0-1.2.4-1.2.4c0-.4-.3-1.1-1.3-1.1c-.7 0-1.1.4-1.1.9c0 .3.2.6.7.7c0 0 1.1.3 1.1.3c1.2.2 1.8.9 1.8 1.9c0 .9-.8 2-2.4 2c-1.8 0-2.5-1.1-2.6-1.9c0 0 1.1-.4 1.1-.4zm5.2-7.6c.6 0 1 .4 1 1.2c0 1.7-1 2.4-1.8 2.5c0 0 0-.7 0-.7c.6-.1 1-.7 1-1.4c0 .1-.1.1-.2.1c-.5 0-.9-.3-.9-.8c0-.5.4-.9.9-.9zm1.7 8c0-1.2.9-1.8 2-2c0 0 1.7-.3 1.7-.3c.4 0 .5-.2.5-.4c0-.7-.4-1.2-1.4-1.2c-.8 0-1.3.5-1.4 1.3c0 0-1.2-.3-1.2-.3c.1-1.2 1.2-2.1 2.6-2.1c2 0 2.7 1.1 2.7 2.4c0 0 0 3.3 0 3.3c0 .5.1.9.1 1c0 0-1.2 0-1.2 0c-.1-.1-.1-.4-.1-.9c-.3.5-.9 1.1-2.1 1.1c-1.3 0-2.2-.9-2.2-1.9c0 0 0 0 0 0zm4.2-1.1c.05.03 0-.3 0-.3c0 0-1.94.33-1.9.3c-.6.1-1 .4-1 1c0 .5.4.9 1.1.9c1 0 1.8-.5 1.8-1.9zm3.3 2.8l0-6.5l1.2 0c0 0 0 .88 0 .9c.4-.7 1.2-1.1 2-1.1c.8 0 1.6.4 1.9 1.3c.5-1 1.4-1.3 2.2-1.3c1.1 0 2.2.8 2.2 2.5c.03 0 0 4.2 0 4.2l-1.2 0c0 0-.02-4.07 0-4.1c0-.8-.4-1.5-1.4-1.5c-.9 0-1.5.7-1.5 1.7c0-.02 0 3.9 0 3.9l-1.3 0c0 0 .03-4.07 0-4.1c0-.8-.4-1.5-1.3-1.5c-1 0-1.6.7-1.6 1.7c.04-.01 0 3.9 0 3.9l-1.2 0zm11.6 2.6l0-9.1l1.2 0c0 0-.02 1.03 0 1c.3-.6 1.1-1.1 2.2-1.1c1.9 0 2.9 1.5 2.9 3.4c0 1.9-1.1 3.4-3 3.4c-1 0-1.7-.5-2.1-1.1c.01.03 0 3.5 0 3.5l-1.2 0zm5-5.8c0-1.3-.7-2.3-1.9-2.3c-1.1 0-1.9 1-1.9 2.3c0 1.3.8 2.3 1.9 2.3c1.2 0 1.9-1 1.9-2.3c0 0 0 0 0 0zm3 3.2l0-9.8l1.2 0l0 9.8l-1.2 0zm3.4 0l0-6.5l1.2 0l0 6.5l-1.2 0zm.6-9.9c.5 0 .9.4.9 1c0 .5-.4.9-.9.9c-.5 0-.9-.4-.9-.9c0-.6.4-1 .9-1zm6.1.2c0 0 0 1.2 0 1.2c-.1-.1-.2-.1-.6-.1c-.4 0-1 .2-1 1.1c0-.02 0 1 0 1l4.3 0l0 6.5l-1.3 0l0-5.3l-3 0l0 5.3l-1.3 0l0-5.3l-1.2 0l0-1.2l1.2 0c0 0 0-1.08 0-1.1c0-1.4 1-2.2 2.1-2.2c.5 0 .7.1.8.1zm1.2.7c0-.5.4-.9.9-.9c.5 0 .9.4.9.9c0 .5-.4.9-.9.9c-.5 0-.9-.4-.9-.9c0 0 0 0 0 0zm8 5.1c0-.9-.6-1.7-1.7-1.7c-1.1 0-1.8.9-1.8 1.7c0 0 3.5 0 3.5 0zm1.3 2.1c-.3 1.1-1.4 2-2.9 2c-1.7 0-3.3-1.3-3.3-3.5c0-2 1.5-3.4 3.1-3.4c2 0 3.2 1.4 3.2 3.4c0 .2-.1.3-.1.4c0 0-4.9 0-4.9 0c.1 1.2.9 2 2 2c1.1 0 1.6-.6 1.8-1.3c0 0 1.1.4 1.1.4z" stroke="none" fill="#fff"/></g><g id="Polygon187697"><path d="m1.1 50.4l0-6.5l1.2 0c0 0-.01.88 0 .9c.4-.7 1.2-1.1 2-1.1c.8 0 1.6.4 1.9 1.3c.5-1 1.4-1.3 2.2-1.3c1.1 0 2.2.8 2.2 2.5c.02 0 0 4.2 0 4.2l-1.2 0c0 0-.03-4.07 0-4.1c0-.8-.4-1.5-1.4-1.5c-.9 0-1.5.7-1.5 1.7c-.01-.02 0 3.9 0 3.9l-1.3 0c0 0 .03-4.07 0-4.1c0-.8-.4-1.5-1.4-1.5c-.9 0-1.5.7-1.5 1.7c.03-.01 0 3.9 0 3.9l-1.2 0zm16.4-3.2c0-1.5-1-2.4-2.1-2.4c-1.1 0-2 .9-2 2.4c0 1.5.9 2.3 2 2.3c1.1 0 2.1-.8 2.1-2.3zm1.3 0c0 1.9-1.4 3.4-3.4 3.4c-1.9 0-3.3-1.5-3.3-3.4c0-2 1.4-3.5 3.3-3.5c2 0 3.4 1.5 3.4 3.5zm4.2 2.3c1.2 0 1.9-1 1.9-2.4c0-1.3-.7-2.2-1.9-2.2c-1.1 0-1.9.9-1.9 2.2c0 1.4.7 2.4 1.9 2.4zm1.9-.1c-.3.6-1 1.2-2 1.2c-1.9 0-3.1-1.5-3.1-3.5c0-1.8 1.3-3.4 3.1-3.4c1.2 0 1.8.6 2 1.1c-.01.03 0-4.2 0-4.2l1.2 0c0 0 .05 8.61 0 8.6c0 .6.1 1.1.1 1.2c0 0-1.2 0-1.2 0c0-.1-.1-.5-.1-.9c0 0 0-.1 0-.1zm7.8-2.9c0-.9-.7-1.7-1.8-1.7c-1.1 0-1.7.9-1.8 1.7c0 0 3.6 0 3.6 0zm1.3 2.1c-.4 1.1-1.4 2-3 2c-1.7 0-3.2-1.3-3.2-3.5c0-2 1.5-3.4 3.1-3.4c2 0 3.1 1.4 3.1 3.4c0 .2 0 .3 0 .4c0 0-4.9 0-4.9 0c0 1.2.9 2 1.9 2c1.1 0 1.6-.6 1.9-1.3c0 0 1.1.4 1.1.4zm-5.1-7.5l1.6 0l1.2 2l-1.1 0l-1.7-2zm6.7 9.3l0-9.8l1.3 0l0 9.8l-1.3 0zm7.8-3.9c0-.9-.6-1.7-1.8-1.7c-1 0-1.7.9-1.7 1.7c0 0 3.5 0 3.5 0zm1.3 2.1c-.4 1.1-1.4 2-2.9 2c-1.7 0-3.3-1.3-3.3-3.5c0-2 1.5-3.4 3.1-3.4c2 0 3.2 1.4 3.2 3.4c0 .2-.1.3-.1.4c0 0-4.9 0-4.9 0c.1 1.2.9 2 2 2c1 0 1.6-.6 1.8-1.3c0 0 1.1.4 1.1.4zm9.6 4.4c0 0 .01-3.51 0-3.5c-.3.7-1.1 1.1-2 1.1c-1.9 0-3.1-1.6-3.1-3.5c0-1.8 1.2-3.3 3.1-3.3c1.1 0 1.8.5 2 1.1c.04.01 0-1 0-1l1.3 0l0 9.1l-1.3 0zm-1.9-3.5c1.2 0 1.9-1 1.9-2.4c0-1.3-.7-2.2-1.9-2.2c-1.2 0-1.9.9-1.9 2.2c0 1.4.7 2.4 1.9 2.4zm9.5.1c-.4.7-1.2 1-1.9 1c-1.6 0-2.5-1.1-2.5-2.6c.02.01 0-4.1 0-4.1l1.3 0c0 0-.01 3.92 0 3.9c0 .9.4 1.7 1.5 1.7c1 0 1.5-.7 1.5-1.7c0 .03 0-3.9 0-3.9l1.3 0c0 0-.03 5.31 0 5.3c0 .5 0 1 0 1.2c0 0-1.2 0-1.2 0c0-.1 0-.5 0-.8c0 0 0 0 0 0zm3.3.8l0-6.5l1.3 0l0 6.5l-1.3 0zm.7-9.9c.5 0 .9.4.9 1c0 .5-.4.9-.9.9c-.5 0-1-.4-1-.9c0-.6.5-1 1-1zm6.7 7.8c0 .7.6 1.2 1.5 1.2c.7 0 1.1-.4 1.1-.8c0-.4-.3-.7-.9-.9c0 0-1.1-.2-1.1-.2c-1-.2-1.6-.9-1.6-1.8c0-1.1 1.1-2.1 2.3-2.1c1.8 0 2.4 1.2 2.5 1.8c0 0-1.1.4-1.1.4c-.1-.4-.3-1.1-1.4-1.1c-.6 0-1.1.4-1.1.9c0 .3.3.6.8.7c0 0 1 .3 1 .3c1.2.2 1.8.9 1.8 1.9c0 .9-.7 2-2.3 2c-1.8 0-2.6-1.1-2.7-1.9c0 0 1.2-.4 1.2-.4zm9.8-1.8c0-.9-.6-1.7-1.8-1.7c-1 0-1.7.9-1.7 1.7c0 0 3.5 0 3.5 0zm1.3 2.1c-.4 1.1-1.4 2-2.9 2c-1.7 0-3.3-1.3-3.3-3.5c0-2 1.5-3.4 3.1-3.4c2 0 3.2 1.4 3.2 3.4c0 .2-.1.3-.1.4c0 0-4.9 0-4.9 0c.1 1.2.9 2 2 2c1.1 0 1.6-.6 1.8-1.3c0 0 1.1.4 1.1.4zm8.7-3.4c-.2 0-.4 0-.6 0c-1.1 0-1.8.5-1.8 2c.02-.05 0 3.2 0 3.2l-1.3 0l0-6.5l1.3 0c0 0-.01 1.15 0 1.1c.5-.9 1.3-1.2 1.9-1.2c.2 0 .4 0 .5 0c0 0 0 1.4 0 1.4zm5.6 1.3c0-.9-.6-1.7-1.8-1.7c-1 0-1.7.9-1.7 1.7c0 0 3.5 0 3.5 0zm1.3 2.1c-.4 1.1-1.4 2-2.9 2c-1.8 0-3.3-1.3-3.3-3.5c0-2 1.5-3.4 3.1-3.4c2 0 3.1 1.4 3.1 3.4c0 .2 0 .3 0 .4c0 0-4.9 0-4.9 0c0 1.2.9 2 2 2c1 0 1.6-.6 1.8-1.3c0 0 1.1.4 1.1.4zm2.9 1.8l-1.2 0l0-6.5l1.2 0c0 0-.01.95 0 .9c.5-.8 1.2-1.1 2-1.1c1.5 0 2.3 1.1 2.3 2.6c.01-.01 0 4.1 0 4.1l-1.3 0c0 0 .05-3.89 0-3.9c0-.9-.3-1.6-1.5-1.6c-1 0-1.5.8-1.5 1.8c.02-.05 0 3.7 0 3.7zm8-5.3l0 5.3l-1.3 0l0-5.3l-1.2 0l0-1.2l1.2 0c0 0 .03-1.08 0-1.1c0-1.4 1-2.2 2.2-2.2c.4 0 .7.1.7.1c0 0 0 1.2 0 1.2c0-.1-.2-.1-.5-.1c-.5 0-1.1.2-1.1 1.1c.04-.01 0 1 0 1l1.6 0l0 1.2l-1.6 0zm7.5 2.1c0-1.5-.9-2.4-2-2.4c-1.1 0-2 .9-2 2.4c0 1.5.9 2.3 2 2.3c1.1 0 2-.8 2-2.3zm1.3 0c0 1.9-1.4 3.4-3.3 3.4c-2 0-3.3-1.5-3.3-3.4c0-2 1.3-3.5 3.3-3.5c1.9 0 3.3 1.5 3.3 3.5zm5.2-2c-.2 0-.4 0-.5 0c-1.1 0-1.8.5-1.8 2c-.01-.05 0 3.2 0 3.2l-1.3 0l0-6.5l1.3 0c0 0-.04 1.15 0 1.1c.4-.9 1.2-1.2 1.9-1.2c.2 0 .4 0 .4 0c0 0 0 1.4 0 1.4zm2.1 2c0 1.4.9 2.2 1.9 2.2c1.3 0 1.7-.8 1.9-1.3c0 0 1.1.5 1.1.5c-.3.9-1.3 2-3 2c-1.8 0-3.2-1.5-3.2-3.4c0-2.1 1.4-3.5 3.2-3.5c1.8 0 2.7 1.1 2.9 2.1c0 0-1.1.5-1.1.5c-.2-.7-.7-1.4-1.8-1.4c-1 0-1.9.7-1.9 2.3zm10.7-.7c-.1-.9-.7-1.7-1.8-1.7c-1.1 0-1.7.9-1.8 1.7c0 0 3.6 0 3.6 0zm1.3 2.1c-.4 1.1-1.5 2-3 2c-1.7 0-3.2-1.3-3.2-3.5c0-2 1.4-3.4 3.1-3.4c2 0 3.1 1.4 3.1 3.4c0 .2 0 .3 0 .4c0 0-4.9 0-4.9 0c0 1.2.8 2 1.9 2c1.1 0 1.6-.6 1.9-1.3c0 0 1.1.4 1.1.4zm2.3 0c.5 0 1.1.5 1.1 1.3c0 1.8-1.2 2.5-2 2.7c0 0 0-.7 0-.7c.6-.2 1.1-.9 1.1-1.5c-.1 0-.2.1-.3.1c-.5 0-.9-.4-.9-1c0-.4.4-.9 1-.9z" stroke="none" fill="#fff"/></g><g id="Polygon187696"><path d="m2.5 34.2l0-6.2l-2.2 0c0 0 .04-.89 0-.9c1.3 0 2.1-.7 2.3-1.6c-.01-.04 1.2 0 1.2 0l0 8.7l-1.3 0zm5.1-1.5c.3.3.8.5 1.4.5c.6 0 1-.2 1.4-.5c.5-.6.7-1.5.7-2.9c0-1.3-.2-2.2-.7-2.8c-.4-.4-.8-.6-1.4-.6c-.6 0-1.1.2-1.4.6c-.5.6-.8 1.5-.8 2.8c0 1.4.3 2.3.8 2.9zm-1.3-6c.6-.9 1.4-1.4 2.7-1.4c1.2 0 2.1.5 2.7 1.4c.5.8.7 1.9.7 3.1c0 1.2-.2 2.3-.7 3.2c-.6.9-1.5 1.4-2.7 1.4c-1.3 0-2.1-.5-2.7-1.4c-.6-.9-.8-2-.8-3.2c0-1.2.2-2.3.8-3.1zm10.9 5.8c0-1.2.8-1.8 1.9-2c0 0 1.8-.3 1.8-.3c.4 0 .5-.2.5-.4c0-.7-.4-1.2-1.4-1.2c-.9 0-1.4.5-1.5 1.3c0 0-1.2-.3-1.2-.3c.1-1.2 1.3-2.1 2.7-2.1c1.9 0 2.7 1.1 2.7 2.4c0 0 0 3.3 0 3.3c0 .5 0 .9 0 1c0 0-1.2 0-1.2 0c0-.1-.1-.4-.1-.9c-.2.5-.9 1.1-2.1 1.1c-1.3 0-2.1-.9-2.1-1.9c0 0 0 0 0 0zm4.2-1.1c0 .03 0-.3 0-.3c0 0-1.99.33-2 .3c-.5.1-.9.4-.9 1c0 .5.4.9 1 .9c1.1 0 1.9-.5 1.9-1.9zm4.5 2.8l-1.3 0l0-6.5l1.3 0c0 0-.02.95 0 .9c.5-.8 1.2-1.1 2-1.1c1.5 0 2.3 1.1 2.3 2.6c0-.01 0 4.1 0 4.1l-1.3 0c0 0 .03-3.89 0-3.9c0-.9-.3-1.6-1.5-1.6c-1 0-1.5.8-1.5 1.8c.01-.05 0 3.7 0 3.7zm6.9-2.1c0 .7.6 1.2 1.5 1.2c.7 0 1.1-.4 1.1-.8c0-.4-.3-.7-.9-.9c0 0-1.1-.2-1.1-.2c-1-.2-1.6-.9-1.6-1.8c0-1.1 1.1-2.1 2.3-2.1c1.8 0 2.4 1.2 2.5 1.8c0 0-1.1.4-1.1.4c-.1-.4-.3-1.1-1.4-1.1c-.6 0-1.1.4-1.1.9c0 .3.3.6.8.7c0 0 1 .3 1 .3c1.2.2 1.8.9 1.8 1.9c0 .9-.7 2-2.3 2c-1.8 0-2.6-1.1-2.7-1.9c0 0 1.2-.4 1.2-.4zm11.6 1.2c1.1 0 1.8-1 1.8-2.4c0-1.3-.7-2.2-1.8-2.2c-1.2 0-1.9.9-1.9 2.2c0 1.4.6 2.4 1.9 2.4zm1.9-.1c-.4.6-1 1.2-2.1 1.2c-1.9 0-3-1.5-3-3.5c0-1.8 1.2-3.4 3-3.4c1.2 0 1.8.6 2 1.1c.02.03 0-4.2 0-4.2l1.3 0c0 0-.02 8.61 0 8.6c0 .6 0 1.1 0 1.2c0 0-1.2 0-1.2 0c0-.1 0-.5 0-.9c0 0 0-.1 0-.1zm3.7-8.7c.6 0 1 .4 1 1.2c0 1.7-1 2.4-1.8 2.5c0 0 0-.7 0-.7c.6-.1 1-.7 1-1.4c0 .1-.1.1-.2.1c-.5 0-.9-.3-.9-.8c0-.5.4-.9.9-.9zm2.7 9.7l0-6.5l1.2 0l0 6.5l-1.2 0zm.6-9.9c.5 0 .9.4.9 1c0 .5-.4.9-.9.9c-.5 0-.9-.4-.9-.9c0-.6.4-1 .9-1zm2.8 9.9l0-6.5l1.2 0c0 0-.01.88 0 .9c.4-.7 1.2-1.1 2-1.1c.8 0 1.6.4 1.9 1.3c.5-1 1.4-1.3 2.2-1.3c1.1 0 2.2.8 2.2 2.5c.02 0 0 4.2 0 4.2l-1.2 0c0 0-.03-4.07 0-4.1c0-.8-.5-1.5-1.4-1.5c-.9 0-1.5.7-1.5 1.7c-.01-.02 0 3.9 0 3.9l-1.3 0c0 0 .02-4.07 0-4.1c0-.8-.4-1.5-1.4-1.5c-.9 0-1.5.7-1.5 1.7c.03-.01 0 3.9 0 3.9l-1.2 0zm11.5 2.6l0-9.1l1.3 0c0 0-.02 1.03 0 1c.3-.6 1.1-1.1 2.1-1.1c2 0 3 1.5 3 3.4c0 1.9-1.1 3.4-3 3.4c-1 0-1.7-.5-2.1-1.1c0 .03 0 3.5 0 3.5l-1.3 0zm5.1-5.8c0-1.3-.7-2.3-1.9-2.3c-1.1 0-1.9 1-1.9 2.3c0 1.3.8 2.3 1.9 2.3c1.2 0 1.9-1 1.9-2.3c0 0 0 0 0 0zm2.5 1.5c0-1.2.9-1.8 2-2c0 0 1.8-.3 1.8-.3c.4 0 .5-.2.5-.4c0-.7-.4-1.2-1.4-1.2c-.9 0-1.4.5-1.5 1.3c0 0-1.2-.3-1.2-.3c.1-1.2 1.2-2.1 2.6-2.1c2 0 2.7 1.1 2.7 2.4c0 0 0 3.3 0 3.3c0 .5.1.9.1 1c0 0-1.2 0-1.2 0c0-.1-.1-.4-.1-.9c-.3.5-.9 1.1-2.1 1.1c-1.3 0-2.2-.9-2.2-1.9c0 0 0 0 0 0zm4.3-1.1c-.03.03 0-.3 0-.3c0 0-2.01.33-2 .3c-.6.1-1 .4-1 1c0 .5.4.9 1.1.9c1 0 1.9-.5 1.9-1.9zm4-.4c0 1.4.9 2.2 2 2.2c1.2 0 1.6-.8 1.8-1.3c0 0 1.1.5 1.1.5c-.3.9-1.3 2-2.9 2c-1.9 0-3.3-1.5-3.3-3.4c0-2.1 1.4-3.5 3.2-3.5c1.8 0 2.7 1.1 2.9 2.1c0 0-1.1.5-1.1.5c-.2-.7-.7-1.4-1.8-1.4c-1 0-1.9.7-1.9 2.3zm8.1-3.3l1.4 0l0 1.2l-1.4 0c0 0-.03 3.34 0 3.3c0 .6.2.9.9.9c.1 0 .4 0 .5 0c0 0 0 1.1 0 1.1c-.1 0-.5.1-.9.1c-1.1 0-1.8-.7-1.8-1.9c0 .03 0-3.5 0-3.5l-1.2 0l0-1.2c0 0 .31.02.3 0c.7 0 1-.4 1-1c.01.02 0-1 0-1l1.2 0l0 2zm7.3 4.7c.5 0 1 .4 1 .9c0 .6-.5 1-1 1c-.5 0-.9-.4-.9-1c0-.5.4-.9.9-.9zm0-4.8c.5 0 .9.5.9 1c0 .5-.4.9-.9.9c-.5 0-.9-.4-.9-.9c0-.5.4-1 .9-1zm10.7 5.8c-.3.7-1.2 1-1.9 1c-1.5 0-2.4-1.1-2.4-2.6c-.04.01 0-4.1 0-4.1l1.2 0c0 0 .03 3.92 0 3.9c0 .9.4 1.7 1.5 1.7c1 0 1.5-.7 1.5-1.7c.04.03 0-3.9 0-3.9l1.3 0c0 0 .01 5.31 0 5.3c0 .5 0 1 .1 1.2c0 0-1.2 0-1.2 0c-.1-.1-.1-.5-.1-.8c0 0 0 0 0 0zm4.6.8l-1.2 0l0-6.5l1.2 0c0 0 .01.95 0 .9c.5-.8 1.3-1.1 2-1.1c1.6 0 2.3 1.1 2.3 2.6c.03-.01 0 4.1 0 4.1l-1.2 0c0 0-.04-3.89 0-3.9c0-.9-.4-1.6-1.6-1.6c-1 0-1.5.8-1.5 1.8c.03-.05 0 3.7 0 3.7z" stroke="none" fill="#fff"/></g><g id="Polygon187695"><path d="m4.5 9.4c1.7 0 3.1-1 3.1-3.2c0-2.3-1.4-3.4-3.1-3.4c.05.03-1.7 0-1.7 0l0 6.6c0 0 1.74.04 1.7 0zm-3.3 1.5l0-9.5c0 0 3.4-.05 3.4 0c2.6 0 4.7 1.7 4.7 4.8c0 3-2.1 4.7-4.7 4.7c-.01.02-3.4 0-3.4 0zm15.5-1.3c1.6 0 3.2-1.2 3.2-3.5c0-2.3-1.6-3.4-3.2-3.4c-1.6 0-3.2 1.1-3.2 3.4c0 2.3 1.6 3.5 3.2 3.5zm0-8.5c2.5 0 4.9 1.9 4.9 5c0 3.2-2.4 5-4.9 5c-2.5 0-4.8-1.8-4.8-5c0-3.1 2.3-5 4.8-5zm12.9 2.9c-.1-.5-.6-1.4-1.9-1.4c-1 0-1.6.6-1.6 1.4c0 .6.3 1 1.1 1.2c0 0 1.4.3 1.4.3c1.7.3 2.6 1.4 2.6 2.7c0 1.5-1.2 2.9-3.4 2.9c-2.5 0-3.6-1.5-3.7-2.9c0 0 1.5-.5 1.5-.5c.1 1 .8 2 2.2 2c1.1 0 1.7-.6 1.7-1.4c0-.6-.4-1.1-1.3-1.3c0 0-1.3-.2-1.3-.2c-1.5-.3-2.5-1.3-2.5-2.7c0-1.6 1.5-3 3.3-3c2.3 0 3.1 1.4 3.3 2.5c0 0-1.4.4-1.4.4zm9.6 0c-.1-.5-.6-1.4-1.9-1.4c-1 0-1.7.6-1.7 1.4c0 .6.4 1 1.2 1.2c0 0 1.3.3 1.3.3c1.7.3 2.6 1.4 2.6 2.7c0 1.5-1.2 2.9-3.4 2.9c-2.4 0-3.5-1.5-3.7-2.9c0 0 1.6-.5 1.6-.5c0 1 .8 2 2.1 2c1.2 0 1.8-.6 1.8-1.4c0-.6-.5-1.1-1.3-1.3c0 0-1.4-.2-1.4-.2c-1.4-.3-2.4-1.3-2.4-2.7c0-1.6 1.5-3 3.3-3c2.2 0 3.1 1.4 3.3 2.5c0 0-1.4.4-1.4.4zm4.7 6.9l0-9.5l1.6 0l0 9.5l-1.6 0zm5.4 0l0-9.5l5.9 0l0 1.5l-4.3 0l0 2.5l3.9 0l0 1.5l-3.9 0l0 2.5l4.3 0l0 1.5l-5.9 0zm12.2-3.8l-1.2 0l0 3.8l-1.6 0l0-9.5c0 0 3.64-.05 3.6 0c1.9 0 3 1.2 3 2.9c0 1.3-.8 2.4-2.1 2.7c-.02-.02 2.1 3.9 2.1 3.9l-1.8 0l-2-3.8zm.5-1.4c1 0 1.7-.6 1.7-1.4c0-.9-.7-1.5-1.7-1.5c.04-.02-1.7 0-1.7 0l0 2.9c0 0 1.74.01 1.7 0zm16.1-1.7c-.1-.5-.6-1.4-1.9-1.4c-1 0-1.6.6-1.6 1.4c0 .6.3 1 1.1 1.2c0 0 1.4.3 1.4.3c1.6.3 2.5 1.4 2.5 2.7c0 1.5-1.2 2.9-3.3 2.9c-2.5 0-3.6-1.5-3.7-2.9c0 0 1.5-.5 1.5-.5c.1 1 .8 2 2.2 2c1.1 0 1.7-.6 1.7-1.4c0-.6-.5-1.1-1.3-1.3c0 0-1.3-.2-1.3-.2c-1.5-.3-2.5-1.3-2.5-2.7c0-1.6 1.5-3 3.3-3c2.2 0 3.1 1.4 3.3 2.5c0 0-1.4.4-1.4.4zm8 1.8c1.1 0 1.7-.6 1.7-1.5c0-.9-.6-1.5-1.7-1.5c.03-.02-1.7 0-1.7 0l0 3c0 0 1.73-.05 1.7 0zm-1.7 1.4l0 3.7l-1.6 0l0-9.5c0 0 3.57-.05 3.6 0c1.8 0 3 1.2 3 2.9c0 1.7-1.2 2.9-3 2.9c-.03-.02-2 0-2 0zm11.3-6.5l-1.4 0l1.3-1.7l2.1 0l-2 1.7zm-3.3 10.2l0-9.5l5.9 0l0 1.5l-4.3 0l0 2.5l3.9 0l0 1.5l-3.9 0l0 2.5l4.3 0l0 1.5l-5.9 0zm8.7-4.8c0-3.1 2.4-5 4.8-5c2.5 0 3.9 1.5 4.4 3.2c0 0-1.6.5-1.6.5c-.3-1.2-1.1-2.1-2.8-2.1c-1.5 0-3.1 1.1-3.1 3.4c0 2.3 1.5 3.5 3.2 3.5c1.6 0 2.5-1.1 2.8-2.1c0 0 1.5.5 1.5.5c-.4 1.6-1.9 3.1-4.3 3.1c-2.6 0-4.9-1.8-4.9-5zm12.3 4.8l0-9.5l1.7 0l0 9.5l-1.7 0zm11.1-2.4l-4.1 0l-.8 2.4l-1.8 0l3.8-9.5l1.8 0l3.8 9.5l-1.8 0l-.9-2.4zm-3.5-1.5l2.9 0l-1.4-3.9l-1.5 3.9zm8.9 3.9l0-9.5l1.7 0l0 8l4.3 0l0 1.5l-6 0z" stroke="none" fill="#fff"/></g></svg>