<?xml version="1.0" encoding="UTF-8" standalone="no"?><svg xmlns:ns3="http://ns.adobe.com/AdobeIllustrator/10.0/" xmlns:dc="http://purl.org/dc/elements/1.1/" xmlns:cc="http://creativecommons.org/ns#" xmlns:rdf="http://www.w3.org/1999/02/22-rdf-syntax-ns#" xmlns:svg="http://www.w3.org/2000/svg" xmlns="http://www.w3.org/2000/svg" xmlns:sodipodi="http://sodipodi.sourceforge.net/DTD/sodipodi-0.dtd" xmlns:inkscape="http://www.inkscape.org/namespaces/inkscape" sodipodi:docname="Logo CIC 2006.svg" inkscape:version="1.0beta1 (76ce730, 2019-10-19)" id="svg8" version="1.1" viewBox="0 0 140.7742 63.73045" height="63.73045mm" width="140.7742mm"><defs id="defs2"/><sodipodi:namedview inkscape:window-maximized="0" inkscape:window-y="23" inkscape:window-x="0" inkscape:window-height="784" inkscape:window-width="1440" showgrid="false" inkscape:document-rotation="0" inkscape:current-layer="svg8" inkscape:document-units="mm" inkscape:cy="556.329" inkscape:cx="394.726" inkscape:zoom="0.35" inkscape:pageshadow="2" inkscape:pageopacity="0.0" borderopacity="1.0" bordercolor="#666666" pagecolor="#ffffff" id="base"/><metadata id="metadata5"><rdf:RDF><cc:Work rdf:about=""><dc:format>image/svg+xml</dc:format><dc:type rdf:resource="http://purl.org/dc/dcmitype/StillImage"/><dc:title/></cc:Work></rdf:RDF></metadata><g transform="translate(28.407131,9.9667006)" id="layer1" inkscape:groupmode="layer" inkscape:label="Calque 1"/><g id="g352" transform="translate(8.3744018,45.789415)"><polyline transform="matrix(0.26458333,0,0,0.26458333,-9.7698143,-46.7607)" ns3:knockout="Off" fill="#0F228B" points="296.463,244.542 296.463,244.542 296.463,192.642 246.146,192.642        246.202,3.671 5.274,3.671 5.274,244.542 " id="polyline108" style="opacity:1;stroke:none;stop-opacity:1"/><polyline transform="matrix(0.26458333,0,0,0.26458333,-9.7698143,-46.7607)" ns3:knockout="Off" fill="#018289" points="537.334,244.542 537.334,244.542 537.334,3.671 246.202,3.671        246.202,55.629 296.463,55.629 296.463,244.542 " id="polyline110" style="opacity:1;stroke:none;stop-opacity:1"/></g><g id="g348" transform="translate(8.3744018,45.789415)"><path inkscape:connector-curvature="0" ns3:knockout="Off" fill="#FFFFFF" d="m39.66-3.41v0l-1.64 5.94c-3.35 1.62-7.33 2.24-11.08 2.24v0c-11.97 0-21.04-6.9-21.04-17.62v0c0-13.65 10.07-19.87 22.28-19.87v0c3.7 0 8.17.89 11.42 2.56v0c-.52 1.78-1.05 4.45-1.51 6.27v0l-.57-.89c-2.08-2.82-5.64-4.81-9.28-4.81v0c-9.29 0-13.04 8.32-13.04 16v0c0 8.95 4.71 15.23 13.33 15.23v0c3.45 0 7.48-1.68 10-3.92" id="path112" style="opacity:1;stroke:none;stroke-width:0.264583;stop-opacity:1"/><path inkscape:connector-curvature="0" ns3:knockout="Off" fill="#FFFFFF" d="m116.84-3.35v0l-1.63 5.94c-3.35 1.61-7.32 2.24-11.08 2.24v0c-11.97 0-21.03-6.92-21.03-17.63v0c0-13.64 10.07-19.86 22.27-19.86v0c3.68 0 8.18.88 11.41 2.56v0c-.5 1.77-1.04 4.44-1.49 6.27v0l-.58-.89c-2.07-2.82-5.66-4.81-9.29-4.81v0c-9.28 0-13.02 8.32-13.02 16v0c0 8.95 4.69 15.22 13.31 15.22v0c3.47 0 7.5-1.67 10.02-3.92" id="path114" style="opacity:1;stroke:none;stroke-width:0.264583;stop-opacity:1"/><polygon transform="matrix(0.26458333,0,0,0.26458333,-9.7698143,-46.7607)" ns3:knockout="Off" fill="#FE330F" points="296.463,192.66 296.463,55.629 246.183,55.629 246.183,192.66 " id="polygon116" style="opacity:1;stroke:none;stop-opacity:1"/></g></svg>