<svg fill="none" xmlns="http://www.w3.org/2000/svg" viewBox="0 0 136 48"><g clip-path="url(#a)"><path d="m0 1c0-.6.4-1 1-1h133.4c.5 0 1 .4 1 1v46c0 .6-.5 1-1 1h-133.4a1 1 0 0 1-1-1v-46z" fill="#fff"/><path d="m135.4 41.8h-135.4v6.2h135.4v-6.2z" fill="#FFCC10"/><path d="m61.4 0h-61.4v42.7h61.4v-42.7z" fill="#A1BE13"/><path d="m135.4 0h-74v42.7h74v-42.7z" fill="#007934"/><path d="m65.6 25.2a4 4 0 0 1-.7 2.3a4.1 4.1 0 0 1-4.3 1.7c-.8-.2-1.6-.5-2.1-1.1a4 4 0 0 1-1-4.5c.4-.7.9-1.3 1.6-1.8a4.2 4.2 0 0 1 6.2 1.8c.2.5.3 1 .3 1.6z" fill="#FFCC10"/><path d="m78.1 15c0 1.2 0 2.5-.3 3.7c1-2 3.3-3.3 6.2-3.3c4.8 0 7.4 3.2 7.4 8.8c0 6.3-4 10.7-11 10.7c-2.5 0-5-.3-7.4-1v-23.2l-3.6-.3v-3c3-.4 5.8-.5 8.8-.4v8zm4.3 4.4c-2.6 0-4.3 2.9-4.3 6v5.3a9 9 0 0 0 2.7.4c3 0 5.1-1.8 5.1-6.4c0-3.6-1.1-5.3-3.5-5.3z" fill="#fff"/><path d="m115.3 34.9c-5.8 0-9.5-2.8-9.5-9.5c0-5.8 4.2-10 10.4-10c5.7 0 9.4 2.9 9.4 9.4a9.8 9.8 0 0 1-10.3 10zm.5-15.5c-2.3 0-4.6 1.7-4.6 5.6c0 3.8 1.5 5.8 4.5 5.8c2.6 0 4.5-2 4.5-5.8c0-3.6-1.4-5.6-4.4-5.6z" fill="#fff"/><path d="m78.1 15c0 1.2 0 2.5-.3 3.7c1-2 3.3-3.3 6.2-3.3c4.8 0 7.4 3.2 7.4 8.8c0 6.3-4 10.7-11 10.7c-2.5 0-5-.3-7.4-1v-23.2l-3.6-.3v-3c3-.4 5.8-.5 8.8-.4v8zm4.3 4.4c-2.6 0-4.3 2.9-4.3 6v5.3a9 9 0 0 0 2.7.4c3 0 5.1-1.8 5.1-6.4c0-3.6-1.1-5.3-3.5-5.3z" fill="#fff"/><path d="m115.3 34.9c-5.8 0-9.5-2.8-9.5-9.5c0-5.8 4.2-10 10.4-10c5.7 0 9.4 2.9 9.4 9.4a9.8 9.8 0 0 1-10.3 10zm.5-15.5c-2.3 0-4.6 1.7-4.6 5.6c0 3.8 1.5 5.8 4.5 5.8c2.6 0 4.5-2 4.5-5.8c0-3.6-1.4-5.6-4.4-5.6z" fill="#fff"/><path d="m102.4 10.5c0 .7-.2 1.3-.5 1.9a3.3 3.3 0 0 1-3.5 1.3c-.6 0-1.2-.4-1.7-.8a3.3 3.3 0 0 1-.7-3.6c.3-.6.7-1.1 1.2-1.5a3.4 3.4 0 0 1 4.3.4c.6.6 1 1.5 1 2.3z" fill="#fff"/><path d="m101.7 15.6h-5.2v19h5.2v-19z" fill="#fff"/><path d="m16.2 35.3c-2 0-4-.2-5.8-.6l.3-4.8c2 .6 4 1 6 1c2.8 0 5-1 5-3.5c0-5-12-2.8-12-11.5c0-4.7 4-8 10.8-8c1.7 0 3.5.2 5.2.5l-.3 4.5c-1.7-.5-3.4-.7-5.1-.7c-3.2 0-4.8 1.3-4.8 3.2c0 4.8 12 3 12 11.3c0 5-4.3 8.6-11.3 8.6z" fill="#fff"/><path d="m41 35.3c-6 0-9.7-2.9-9.7-9.9c0-6 4.3-10.4 10.7-10.4c6 0 9.7 3 9.7 9.7c0 6.2-4.4 10.6-10.7 10.6zm.6-16c-2.4 0-4.8 1.6-4.8 5.6c0 4 1.6 6 4.7 6c2.7 0 4.7-2 4.7-5.9c0-3.8-1.5-5.8-4.6-5.8z" fill="#fff"/></g><defs><clipPath id="a"><path d="m0 1c0-.6.4-1 1-1h133.4c.5 0 1 .4 1 1v46c0 .6-.5 1-1 1h-133.4a1 1 0 0 1-1-1v-46z" fill="#fff"/></clipPath></defs></svg>