<?xml version="1.0" encoding="UTF-8" standalone="no"?><svg width="259.47922pt" height="300pt" viewBox="0 0 259.47922 300" version="1.1" id="svg9" sodipodi:docname="Armée du Salut.svg" inkscape:version="1.2.2 (732a01da63, 2022-12-09, custom)" xmlns:inkscape="http://www.inkscape.org/namespaces/inkscape" xmlns:sodipodi="http://sodipodi.sourceforge.net/DTD/sodipodi-0.dtd" xmlns="http://www.w3.org/2000/svg" xmlns:svg="http://www.w3.org/2000/svg"><sodipodi:namedview id="namedview423" pagecolor="#ffffff" bordercolor="#000000" borderopacity="0.25" inkscape:showpageshadow="2" inkscape:pageopacity="0.0" inkscape:pagecheckerboard="0" inkscape:deskcolor="#d1d1d1" inkscape:document-units="pt" showgrid="false" inkscape:zoom="0.76253082" inkscape:cx="203.27047" inkscape:cy="232.77748" inkscape:window-width="1366" inkscape:window-height="704" inkscape:window-x="0" inkscape:window-y="27" inkscape:window-maximized="1" inkscape:current-layer="surface1"/><defs id="defs13"/><g id="surface1" transform="translate(41.171752,370.04736)"><path style="fill:#cc0000;fill-opacity:1;stroke-width:0.300389" d="m88.89-70.28c.06-.13 1.05-1.03 2.2-1.99c1.16-.96 2.44-2.04 2.85-2.4c.41-.35 1.43-1.11 2.25-1.69c.83-.57 1.57-1.13 1.65-1.23c.29-.36 5.58-4.06 8.01-5.6c7.99-5.08 15.54-8.48 23.68-10.68c1.49-.4 4.06-1.09 5.71-1.54c13.52-3.65 33.92-11.2 41.07-15.2c6.62-3.7 11.28-7.18 17.03-12.72c2.21-2.13 5.88-6.13 7.23-7.88c3.36-4.34 5.06-7.12 7.64-12.48c3.14-6.53 4.98-11.56 6.91-18.92c2.78-10.6 3.72-21.93 2.86-34.21c-.33-4.74-2.12-20.86-2.84-25.68c-.68-4.5-1.31-8.94-1.79-12.47c-.56-4.17-2.13-14.33-2.85-18.47c-.31-1.82-.93-5.4-1.36-7.96c-.43-2.56-.98-5.74-1.23-7.06c-1.25-6.79-2.28-15.22-2.88-23.43c-.49-6.75-.16-20.65.6-25.39c.81-5.01 1.48-8.21 2.13-10.21c3.86-11.77 4.05-12.61 4.06-17.72c0-4.31-.01-4.37-.98-6.37c-2.31-4.72-7.47-7.04-13.86-6.24c-2.51.31-6.17 1.47-9.43 2.98c-7.14 3.3-15.4 5.89-23.94 7.49c-3.48.65-9.4 1.06-15.47 1.07c-10.99.01-16.57-1.08-25.23-4.96c-7.61-3.78-16.55-8.38-22.93-12.15c-.28-.17-1.99-1.16-3.81-2.2c-1.82-1.05-4.3-2.48-5.52-3.19l-2.22-1.29l-2.28 1.36c-1.26.75-3.16 1.86-4.24 2.46c-1.07.6-2.64 1.53-3.49 2.05c-2.08.95-4.01 2.34-5.67 3.27c-1.82 1.01-3.91 2.19-4.66 2.63c-3.61 2.11-16.73 8.36-19.53 9.3c-6.43 2.16-14.24 3.11-22.73 2.77c-13.83-.55-24.11-3.06-37.95-9.26c-4.7-2.11-8.9-2.88-12.6-2.32c-7.85 1.19-11.44 6.88-10.08 15.99c.3 2.05 1.24 5.66 2.55 9.82c3.73 11.87 4.38 16.39 4.32 30.19c-.05 12.08-.74 19.96-2.82 32.14c-1.38 8.09-2.4 14.01-2.99 17.42c-.34 1.98-.77 4.55-.94 5.71c-.17 1.16-.57 3.86-.89 6.01c-.32 2.15-1.12 7.83-1.78 12.62c-.66 4.79-1.27 8.99-1.34 9.32c-.08.34-.48 3.78-.9 7.66c-.42 3.88-.9 8.2-1.08 9.6c-.54 4.31-.73 18.15-.3 22.3c1.67 16.29 6.75 31.98 13.96 43.04c4.11 6.31 11.05 13.71 17.6 18.77c.74.57 1.42 1.11 1.5 1.2c.19.2 3.78 2.55 6.31 4.13c3.82 2.38 8.99 4.73 16.67 7.58c2.31.86 5.02 1.89 6.01 2.28c4.43 1.78 16.18 5.45 24.48 7.64c10.45 2.76 18.18 6.25 27.49 12.42c4.12 2.72 14.86 11.01 15.12 11.66c.13.32.57.33.7.01z" id="path579" sodipodi:nodetypes="ssssscscsssssssssscsscccssssccsscsscccsssssssssssssssssscssssssss"/><path style="fill:#ffffff;fill-opacity:1;stroke-width:0.300389" d="m84.89-78.83c-7.21-5.76-12.74-9.35-20.08-13.02c-6.07-3.04-9.17-4.22-15.77-6c-13.58-3.66-22.86-6.71-35.81-11.79c-12.27-4.81-19.53-9.55-28.29-18.47c-2.68-2.73-3.96-4.28-7.7-9.36c-3.97-5.39-9.33-18.61-11.53-28.44c-2.1-9.4-2.29-11.25-2.28-22.8c0-8.31.12-11.21.69-16.67c.38-3.63.74-6.81.81-7.06c.07-.25.4-2.68.74-5.41c.34-2.73 1.01-7.59 1.5-10.81c.49-3.22 1.1-7.41 1.37-9.31c.55-3.92 3.26-20.1 3.9-23.28c.53-2.66 2.41-14.25 2.83-17.42c.8-6.11 1.27-13.02 1.43-21.05c.29-14.43-.76-21.92-4.82-34.37c-2.12-6.51-2.67-9.04-2.55-11.83c.08-1.81.28-2.78.79-3.75c.83-1.58 1.05-1.81 2.77-2.91c3.28-1.5 6.92-1.05 10.21 0c6.44 2.47 12.8 5.32 19.22 7.19c14.85 4.25 33.28 4.74 45.66 1.2c4.16-1.19 13.31-5.39 20.13-9.25c.74-.42 2.03-1.13 2.85-1.59c.83-.45 1.73-.96 2.01-1.14c.71-.43 4.92-2.86 6.55-3.77c.75-.42 2.33-1.33 3.51-2.03c1.46-.75 2.9-1.79 4.18-2.42l1.38-.67l3.35 1.87c2.54 1.73 5.49 3.21 7.73 4.5c5.64 3.24 10.01 5.69 13.35 7.45c1.65.88 3.34 1.77 3.75 2c6.36 3.44 15.07 6.16 22.52 7.02c6.7.78 19.21.21 26.9-1.22c6.21-1.16 15.65-3.94 19.91-5.87c.87-.4 1.64-.72 1.7-.72c.06 0 1.24-.52 2.62-1.16c3.83-1.78 5.69-2.23 9.12-2.24c3.33-.01 4.08.21 5.69 1.63c1.53 1.34 2.28 2.97 2.48 5.39c.25 2.99-.44 6.04-3.38 14.86c-1.4 4.21-2.85 10.62-3.47 15.32c-.57 4.36-.61 5.81-.47 15.62c.09 6.14.36 12.89.62 15.62c.42 4.41 2.53 18.71 3.18 21.61c.63 2.83 3.35 19.08 4.8 28.71c.83 5.5 1.23 8.37 2.87 20.55c1.76 13.01 2.38 27.56 1.53 35.77c-1.4 13.51-6.09 28.49-11.95 38.14c-.88 1.45-1.73 2.86-1.9 3.13c-2.6 4.27-10.78 12.77-16.24 16.86c-7.16 5.36-11.6 7.61-24.91 12.61c-12.43 4.67-16.46 5.96-29.59 9.5c-13.64 3.67-25.87 10.22-37.97 20.32c-1.14.95-2.16 1.73-2.27 1.73c-.11 0-1.76-1.25-3.67-2.78zm6.59-6.01c1.61-1.2 2.99-2.25 3.07-2.34c.22-.24 7.49-5.09 7.63-5.09c.07 0 1-.53 2.07-1.19c6.48-3.94 16.48-8.02 23.79-9.73c2.11-.49 3.27-.83 11.72-3.42c3.47-1.06 7.19-2.25 8.26-2.64c17.94-6.46 21.67-8.02 26.88-11.22c5.31-3.26 11.77-8.74 15.72-13.34c1.73-2.02 5.64-7.54 6.85-9.69c4.21-7.44 7.82-17.29 9.53-25.98c1.38-7.03 1.54-8.98 1.51-18.77c-.02-8.24-.13-10.35-.97-18.32c-1.63-15.48-4.69-36.53-7.27-50.01c-3.5-18.31-5.09-32.97-5.09-47.01c0-9.39.84-16.67 2.73-23.58c.34-1.24 1.07-3.94 1.62-6.01c.55-2.07 1.43-5.11 1.96-6.76c.64-2.01.96-3.68.99-5.06c.04-1.9-.02-2.11-.8-2.78c-.62-.54-1.2-.73-2.2-.73c-1.46 0-5.62 1.31-8.82 2.77c-8.16 3.73-19.1 6.79-29.44 8.23c-4.55.63-17.32.89-21.78.43c-5.72-.59-13.45-2.39-16.75-3.91c-.7-.32-2.02-.87-2.93-1.22c-2.08-.8-12.13-6-12.27-6.34c-.06-.14-.24-.26-.42-.26c-.18 0-3.89-2.06-8.25-4.58c-4.36-2.52-8.47-4.89-9.13-5.27l-1.2-.69l-1.19.69c-.95.55-4.91 2.84-8.47 4.9c-21.59 12.47-28.64 15.34-40.85 16.66c-4.14.45-14.04.38-19.16-.13c-5.69-.57-12.33-1.79-17.12-3.16c-1.24-.35-3-.84-3.91-1.08c-2.18-.58-5.33-1.6-6.46-2.09c-12.36-5.36-14.3-5.85-16.09-4.07c-1.44 1.44-1.31 2.59 1.34 11.44c2.38 7.95 4.07 15.35 4.72 20.58c.49 3.91.5 19.94.02 25.83c-.85 10.58-2.67 23.41-5.15 36.35c-1.3 6.79-3.51 20.99-5.1 32.74c-2.44 18.07-3.29 33.73-2.31 42.87c1.09 10.26 3.49 19.09 7.67 28.33c.52 1.16 1.07 2.31 1.22 2.55c.15.25.7 1.26 1.22 2.25c5.85 11.03 17.19 21.81 28.51 27.1c3.86 1.8 3.69 1.73 6.93 2.97c13.89 5.31 24.22 8.71 35.08 11.57c6.85 1.8 10.65 3.19 16.82 6.15c6.19 2.97 14.94 8.5 20.8 13.14c.74.59 1.39 1.08 1.43 1.09c.05.01 1.4-.96 3-2.16zm-34.18-32.58c-2.46-.42-5.04-1.83-6.71-3.68c-1.78-1.97-2.36-3.6-2.53-7.12c-.14-2.79-.09-3.18.61-4.7c2.17-4.73 7.09-6.17 10.74-3.15c.8.66 2.09 2.52 2.09 3.02c0 .92-1.47 1.72-3.18 1.72c-2.2 0-3.16.82-3.34 2.87c-.19 2.14.54 3.37 2.61 4.44c1.46.75 1.9.84 3.78.72c2.63-.16 4.77-1.23 6.41-3.21c2.96-3.59 2.8-7.8-.51-12.94c-1.82-2.83-2.58-3.7-7.46-8.58c-7.33-7.32-9.42-11.15-9.42-17.24c0-3.46.46-5.39 1.83-7.72c1.39-2.36 4.6-5.61 6.44-6.53c3.8-1.89 9.34-1.48 13.41 1c1.34.81 1.77.77 3.1-.29c1.5-1.19 2.96-1.24 3.56-.1c.37.71.36.95-.13 2.06c-.98 2.22-2.07 6.83-2.05 8.71c.01.99.26 2.75.57 3.91c.3 1.16.49 2.16.42 2.24c-.07.08-1.1-.11-2.28-.41c-2.58-.66-4.72-.69-6.53-.06c-.74.25-1.4.41-1.47.34c-.13-.13 1.08-3.36 1.46-3.9c.48-.68.95-3.58.77-4.72c-.28-1.77-1.04-2.86-2.44-3.54c-1.58-.77-2.93-.75-4.58.05c-3.23 1.56-4.63 7.12-2.73 10.84c.38.75 3.05 3.66 6.55 7.13c7.41 7.37 9.51 10.44 10.98 16.09c.6 2.31.6 7.61-.01 10.22c-1.33 5.73-5.86 10.29-12.03 12.11c-2.03.6-5.72.8-7.93.42zm20.73-8.88c0-.22.11-.54.24-.69c.85-1.01 2.11-5.48 4.41-15.61c.6-2.64 1.49-6.5 1.97-8.56c.49-2.07 1.29-5.58 1.78-7.81c1.62-7.31 4.53-19.33 5.21-21.48c.46-1.46.99-2.45 1.75-3.23c.98-1.01 1.25-1.13 2.61-1.13c.84 0 1.58.1 1.64.23c.07.12-.01 1.43-.17 2.89c-.5 4.48-.14 6.07 5.64 25.12c.88 2.89 1.97 6.51 2.43 8.05c.46 1.53 1.14 3.21 1.52 3.72l.69.94l.39-.87c.3-.67.4-5.31.47-20.36l.08-19.49l-.73-1.24c-.4-.68-1.08-1.57-1.51-1.97c-.43-.4-.78-.83-.78-.95c0-.12 1.12-.82 2.48-1.56c3.01-1.63 5-2.74 6.82-3.81c2.31-1.35 2.42-1.36 2.41-.08c0 .61-.27 2.12-.6 3.35c-.56 2.11-.59 3.26-.59 20.2c0 13.74.08 17.97.36 17.97c.66 0 2.59-1.54 3.32-2.65c.8-1.23 1.66-3.35 2.64-6.51c1.08-3.51 2.31-4.96 4.19-4.96c1.2 0 1.48 1.02.77 2.78c-.98 2.42-1.1 6.77-.29 10.6c.19.88.11.96-2.14 2.25c-1.28.74-2.59 1.45-2.91 1.57c-.32.12-.94.48-1.37.78c-.44.31-2.01 1.21-3.5 2.01c-1.49.8-4.16 2.3-5.95 3.35c-1.79 1.04-3.31 1.9-3.39 1.9c-.08 0-2.28 1.21-4.9 2.7c-5.83 3.31-5.88 3.33-5.58 2.38c.12-.4.49-1.26.82-1.92c1.41-2.86 1.46-3.65.43-7.78c-.52-2.08-1.06-3.78-1.21-3.78c-.25 0-3.28 1.31-6.71 2.91c-1.81.84-1.65.45-3.09 7.43c-.51 2.47-.85 4.79-.76 5.16c.09.37.51 1.07.92 1.57c1.21 1.44 1.79.95-5.93 4.99c-2.44 1.28-3.83 1.86-3.83 1.6zm14.8-26.66c1.41-.66 2.71-1.2 2.9-1.2c.43 0 .43-.06-.27-2.7c-1.9-7.26-2.26-8.42-2.45-7.9c-.3.8-2.94 13.01-2.81 13.01c.04 0 1.22-.54 2.63-1.2zm42.2-6.03c-2.33-.55-4.29-2.23-5.39-4.63l-.69-1.5l.09-15.77c.1-17.36.15-16.87-1.75-17.77c-.57-.27-1.04-.68-1.04-.9c0-.22 1.15-1.02 2.55-1.78c1.4-.75 3.03-1.64 3.6-1.98c3.23-1.87 6.37-3.44 6.54-3.28c.1.1-.2.96-.68 1.91l-.87 1.72l-.26 16.41c-.27 17.36-.23 18.2 1.07 19.58c2.3 2.45 7.31 1.17 10.15-2.6c1.86-2.47 1.87-2.54 2-21.13c.13-19.18.18-18.74-1.99-19.32c-2.27-.61-1.94-.9 5.45-4.77c1.94-1.01 3.61-1.84 3.71-1.84c.38 0-.23 1.68-1.1 2.98l-.88 1.33v19c0 11.68-.12 19.91-.32 21.35c-.46 3.41-1.65 5.76-4.13 8.18c-2.42 2.35-5.51 4.09-8.38 4.69c-2.25.48-5.92.53-7.67.12zm30.93-14.58c-.27-.27.07-1.78.88-3.95l.7-1.88v-19.22c0-10.57-.08-19.22-.18-19.22c-.32 0-2.05 1.27-3.23 2.38c-1.27 1.19-1.82 2.15-3.06 5.28c-.88 2.25-1.5 3.15-2.15 3.15c-.32 0-.4-.95-.4-4.63c0-2.55-.08-4.83-.17-5.07c-.17-.43.18-.64 8.43-5.02c1.32-.7 3.15-1.7 4.06-2.22c.91-.52 2.73-1.51 4.06-2.19c1.32-.69 3.01-1.59 3.75-2.01c.74-.42 1.55-.86 1.8-.97c.25-.11.95-.52 1.57-.91c.62-.38 1.19-.7 1.28-.7c.09 0 .16 2.64.16 5.86c0 5.61-.02 5.86-.59 5.86c-.32 0-.97-.49-1.43-1.09c-1.66-2.16-1.86-2.29-3.2-2.13c-.68.08-1.61.3-2.07.48l-.83.33v19.33v19.33l.68.6c.37.33 1.05.75 1.5.95c1.48.63 1.06 1.36-1.55 2.7c-3.89 2-8.25 4.34-8.88 4.77c-.66.45-.87.49-1.15.22zm-87.63-15.15c0-1.16.59-2.29 1.8-3.44c.52-.5 1.24-1.37 1.6-1.95c.65-1.05.65-1.11.69-18.92c.04-18.86.02-19.09-1.31-19.78c-.29-.15-1.04-.36-1.66-.48c-1.12-.2-1.94-1.21-1.44-1.75c.31-.34 13.97-7.91 16.55-9.17c2.18-1.07 3.33-1.51 5.69-1.45c2.72.07 3.25.35 5.57 1.5c5.92 2.93 9.47 9.51 9.47 17.57c0 3.21-.78 9.2-1.51 11.55c-1.35 4.39-3.85 8.39-7.08 11.38c-2.32 2.15-4.29 3.4-10.68 6.79c-7.91 4.21-17.3 9.06-17.51 9.06c-.09 0-.17-.41-.17-.92zm17.3-14.26c3.27-2.2 6.73-5.97 8.18-8.92c1.98-4 2.3-5.62 2.3-11.5c0-3.92-.13-5.67-.56-7.51c-1.89-8.14-6.86-10.33-13.67-6.03l-1.24.78v18.02v18.02l1.46-.74c.8-.41 2.39-1.37 3.53-2.13zm-108.02 2.75c0-.23.34-1.19.76-2.13c1.4-3.16 3.19-8.98 4.39-14.28c1.62-7.14 2.98-13.12 4.58-20.28c.74-3.3 2.04-9.05 2.87-12.77c.84-3.72 1.73-7.74 1.98-8.93c1.46-6.93 2.65-9.85 4.8-11.74c.74-.65 1.76-1.26 2.28-1.37c1.32-.26 3.2-.23 3.38.05c.08.13.03.78-.13 1.43c-.15.65-.36 2.47-.47 4.04c-.23 3.35.22 5.95 1.99 11.56c.63 1.99 1.81 5.78 2.63 8.42c6.55 21.08 6.61 21.27 7.76 22.33c.78.72 1.17.92 1.41.68c.43-.43.75-8.39 1.08-26.92c.21-11.81.19-15.1-.1-15.42c-.2-.22-.9-.58-1.54-.8c-.64-.22-1.17-.53-1.17-.69c0-.66 3.81-3.46 6.84-5.02c6.23-3.21 10.75-3.94 14.21-2.3c2.18 1.03 3.42 2.48 4.74 5.53c1.37 3.71 1.38 7.32.25 11.33c-1.84 5.13-3.77 7.76-7.8 10.65c-1.09.78-1.54 1.29-1.44 1.63c.08.27.41 1.44.73 2.6c1.73 6.23 4.72 10.68 9.06 13.47c1.97 1.27 4.79 2.13 6.2 1.91c.59-.1 1.01-.04 1.01.14c0 .79-1.74 2.44-3.48 3.3c-1.77.87-2.09.93-4.25.8c-5.32-.32-8.52-3.56-13.13-13.3c-.86-1.82-1.85-3.91-2.21-4.66l-.64-1.35l.06 7.21l.06 7.21l1.05.52c.58.29 1.05.74 1.05 1c0 .29-1.1 1.05-2.85 1.98c-1.57.83-5.15 2.73-7.96 4.23c-2.81 1.5-6.66 3.53-8.56 4.51c-1.9.98-3.61 1.91-3.8 2.07c-.73.6-.65-.33.24-2.62c.51-1.31 1.02-2.51 1.15-2.68c.52-.68.96-3.52.77-5.03c-.15-1.24-1.25-5.47-1.52-5.86c-.03-.04-1.87.88-4.08 2.04c-2.22 1.16-4.91 2.55-5.98 3.08c-1.07.53-2.01 1-2.07 1.04c-.07.04-.51 2.34-.99 5.11c-.97 5.59-1.21 9.74-.61 10.34c.21.21.38.59.38.85c0 .44-.8.92-7.64 4.61c-1.17.63-2.83 1.54-3.7 2.03c-1.11.63-1.58.77-1.58.47zm17.21-30.78c.86-.47 2.81-1.51 4.34-2.31c1.72-.9 2.78-1.63 2.78-1.92c0-.26-.34-1.76-.75-3.33c-.41-1.57-1.3-5.15-1.99-7.96c-1.24-5.09-1.74-6.64-1.76-5.4c-.01.33-.62 3.44-1.37 6.91c-1.57 7.24-3.14 14.65-3.14 14.78c0 .21.43.04 1.89-.77zm33.7-21.18c2.06-1.41 3.92-3.47 4.3-4.76c.59-1.98.96-5.05.77-6.39c-.67-4.92-3.14-6.4-7.24-4.35c-1.77.88-1.82.94-2 2.33c-.13 1.04-.3 13.49-.2 15.46c.01.23 2.91-1.28 4.37-2.28zm85.77 38.38c-2.98-.8-4.43-1.94-5.89-4.63c-.54-1-.57-1.89-.57-17.42c0-9-.11-16.54-.25-16.75c-.14-.21-.79-.66-1.45-.99c-1.32-.67-1.37-1.02-.25-1.65c1.13-.64 5.86-3.2 8.55-4.63c1.32-.7 2.53-1.4 2.69-1.55c.91-.85 1.05.5.16 1.62c-.33.42-.73 1.43-.89 2.25c-.15.81-.3 8.78-.33 17.7c-.06 17.63-.09 17.27 1.62 18.53c.65.48 1.29.63 2.7.62c3.18-.01 6.01-1.88 7.6-5.03c1.15-2.26 1.35-6.1 1.25-23.14c-.08-13.69-.12-14.6-.65-15.18c-.31-.34-.94-.7-1.41-.8c-1.34-.29-1.64-.88-.76-1.46c.41-.27.81-.49.88-.49c.07 0 2.04-1.02 4.38-2.26c2.33-1.25 4.37-2.19 4.52-2.09c.36.22-.07 1.37-.97 2.58l-.68.92l-.17 20.48c-.15 18.3-.22 20.67-.69 22.28c-.73 2.49-1.79 4.2-3.93 6.31c-2.24 2.22-5.26 3.84-8.62 4.65c-2.94.71-4.6.74-6.87.13zm-72.4-20.62c0-.56.82-2.36 1.47-3.23l.78-1.05l0-18.47c0-21.14-.01-21.26-2.02-22.93c-.75-.62-1.16-1.19-1.06-1.45c.17-.44 6.94-4.16 7.55-4.15c.18 0 .55.37.82.83c1 1.71 9.06 14.06 9.44 14.45c.32.34 1.14-1.86 4.7-12.71l4.31-13.12l3.27-1.82c4.48-2.5 6.18-3.37 6.32-3.22c.06.07-.08 1.13-.32 2.37c-.34 1.73-.5 6.74-.69 21.63c-.27 21.28-.31 20.78 1.48 21.18c.93.2 1.57 1.43 1.02 1.94c-.14.13-2.02 1.15-4.17 2.27c-2.15 1.12-4.98 2.62-6.29 3.34c-1.58.87-2.49 1.21-2.69 1.01c-.29-.29-.19-.55 1.3-3.24c.48-.86.57-2.04.73-9.31c.1-4.58.24-10.74.32-13.69c.07-2.95.09-5.32.03-5.26c-.06.06-.72 1.93-1.47 4.16c-.75 2.23-2.52 7.43-3.94 11.56c-1.41 4.13-2.57 7.55-2.57 7.61c0 .54-.89-.56-2.33-2.87c-.95-1.53-2.6-4.18-3.68-5.9l-1.95-3.13l-.24 5.3c-.23 5.2-.07 15.02.29 17.25c.1.62.5 1.43.89 1.8c1.2 1.14.95 2.04-.86 3.05c-.87.48-3.36 1.94-5.55 3.24c-3.94 2.34-4.89 2.84-4.89 2.57zm39.05-21.62c0-.37.47-1.43 1.04-2.35l1.04-1.68l.31-15.15c.17-8.33.37-16.99.44-19.24c.15-4.73.03-5.06-2.18-6.01c-1.28-.55-1.83-1-1.84-1.51c0-.17 5.86-3.49 14.11-7.98c8.87-4.83 10.66-5.83 10.99-6.1c.21-.17.45-.19.54-.04c.09.15.18 2.68.2 5.63c.04 5.33.03 5.37-.65 5.62c-1.02.38-2.07-.22-3.35-1.9c-.62-.81-1.3-1.48-1.51-1.48c-.21 0-.91.29-1.57.65c-.66.36-2.28 1.23-3.6 1.93l-2.4 1.28l-.22 8.03c-.12 4.42-.16 8.09-.09 8.17c.08.08.55-.21 1.06-.64c.51-.43 3.78-2.21 7.27-3.96c5.86-2.94 9.18-4.97 10.06-6.13c.31-.41.38-.4.59.13c.72 1.8-.35 4.99-2.45 7.31c-.91 1.01-3.84 2.75-4.62 2.75c-.16 0-1.94.54-3.96 1.21c-4.3 1.42-6.85 3.01-7.6 4.74c-.67 1.55-.87 15.02-.24 15.78c.72.87 2.38.6 5.25-.85c5.14-2.61 6.64-4.41 8.14-9.82c.49-1.78 1.72-3.55 2.45-3.55c.35 0 .42.99.42 5.71c0 3.85-.1 5.71-.32 5.71c-.26 0-5.65 2.88-15.15 8.11c-.83.45-2.31 1.27-3.3 1.8c-4.1 2.22-5.47 2.98-6.76 3.72c-1.66.95-2.1.98-2.1.11zm29.05-15.54c-.14-.55.04-.99 1.36-3.27c.47-.81.57-2.91.96-20.08c.5-21.68.63-20.22-1.88-21.05c-1.06-.35-2.15-1.39-1.8-1.72c.21-.2 5.92-3.43 8.36-4.72c1.4-.74 3.93-2.12 5.61-3.05c1.68-.93 3.19-1.7 3.35-1.7c.16 0 .34-.11.4-.24c.06-.13 1.38-.93 2.95-1.77c1.57-.84 3.28-1.78 3.81-2.08c.53-.31 1.02-.49 1.1-.41c.08.08.19 2.56.24 5.52c.1 5.29.09 5.38-.55 5.67c-1.06.47-2.02.03-3.06-1.42c-1.58-2.2-1.72-2.21-5.07-.42c-1.61.86-3.28 1.75-3.71 1.96l-.78.39l-.17 8.04c-.09 4.42-.13 8.07-.09 8.12c.04.05.81-.41 1.7-1.01c.89-.6 3.58-2.04 5.97-3.19c5.49-2.65 8.18-4.22 9.8-5.71c1.21-1.12 1.29-1.15 1.59-.57c1.14 2.13-1.38 7.02-4.59 8.88c-.69.4-2.63 1.13-4.31 1.63c-4.96 1.47-7.41 2.61-8.77 4.09c-.72.78-1.27 1.71-1.36 2.31c-.09.55-.21 3.8-.27 7.22c-.13 7.35.02 8.05 1.75 8.05c1.4 0 6.15-2.27 7.88-3.76c1.85-1.6 2.92-3.31 3.66-5.86c.36-1.24.8-2.62.98-3.08c.34-.86 1.57-2.02 2.16-2.02c.24 0 .32 1.61.27 5.47c-.07 6.15.03 5.86-2.64 7.04c-.66.29-1.27.61-1.35.71c-.08.1-1.3.79-2.7 1.54c-1.4.75-4.85 2.62-7.66 4.15c-2.81 1.54-5.78 3.16-6.61 3.61c-4.95 2.68-6.15 3.31-6.26 3.31c-.07 0-.2-.26-.28-.59zm-16.54-41.69c-.31-.51 5.57-9.69 6.19-9.68c1.11.03 2.02 1.65 2.02 3.59c0 1.03-.19 1.33-1.71 2.68c-.94.84-1.89 1.53-2.1 1.53c-.21 0-.39.11-.39.25c0 .27-3.05 1.85-3.57 1.85c-.17 0-.36-.1-.44-.23z" id="path304" sodipodi:nodetypes="ssssssssssssssssssscccssssscccccssssssscssssssssscssssssssssscsscsscsssscssssssssssssssscsssssscssssssssssssssscsscsssssssssssssssssssssssssssscsssssccssssssssssssscsscsssssssssssssssssssscssscssssssssssssssscssssssscsssssssscssssssscsssssscsssssssssssscccsssssssssssssscsssssssscsscccsssssssssssssssssssssssccsssscssssscccsssssssssssssssssssssscsscsssssssssssssssssssssscssssssssscssssssscssscssscsssssssssssssssssscssssssssscssscssssssssscssssssssssssssssssssssssssssssssssssscsssssssssssssssscscssssssssssssssss"/></g></svg>